<?xml version="1.0" encoding="utf-8"?>
<!-- Generator: Adobe Illustrator 24.0.1, SVG Export Plug-In . SVG Version: 6.00 Build 0)  -->
<svg version="1.1" id="LAC" xmlns="http://www.w3.org/2000/svg" xmlns:xlink="http://www.w3.org/1999/xlink" x="0px" y="0px"
	 width="200px" height="200px" viewBox="0 0 200 200" enable-background="new 0 0 200 200" xml:space="preserve">
<g>
	<path fill="#FFFFFF" d="M189.918,139.542c-9.944-13.393-27.301-29.752-47.979-38.936l4.223,9.73
		c-17.583-8.856-37.129-15.212-59.285-15.112l4.722,5.113c-40.928,1.603-64.939,21.898-80.661,39.205
		c0.368-23.434,17.159-44.597,39.28-57.517l-4.553-4.226c16.463-11.395,39.554-14.592,59.043-12.341l-2.772-5
		C166.495,65.255,193.84,113.436,189.918,139.542z"/>
	<g>
		<g>
			<path fill="#0080C6" d="M86.574,98.357l-4.96-5.371c18.798-0.625,37.802,2.205,59.908,12.596l-4.072-9.384
				c16.644,6.448,35.084,18.484,50.546,37.153c-1.361-28.268-29.91-64.898-81.834-70.136l2.887,5.209
				c-20.987-3.565-44.568,0.145-59.575,9.714l4.693,4.356c-22.588,12.115-37.427,31.385-40.612,50.858
				C32.199,113.879,56.438,100.429,86.574,98.357z"/>
		</g>
		<path fill="#FFC20E" d="M179.893,118.176c-8.799-23.684-35.263-44.104-64.971-48.991l3.49,6.218
			c-17.893-5.535-43.895-5.199-60.988,3.719l4.903,4.551c-15.666,6.713-32.196,21.09-38.738,34.301
			c10.73-9.679,34.075-20.882,53.226-23.263l-4.759-5.152c18.405-3.649,42.937-0.037,60.425,7.064l-3.392-7.817
			C141.968,91.444,165.905,102.952,179.893,118.176z"/>
	</g>
</g>
</svg>
