<svg width="500" height="500" viewBox="0 0 500 500" xmlns="http://www.w3.org/2000/svg" xmlns:xlink="http://www.w3.org/1999/xlink"><defs><path id="a" d="M0 383.673h384.158V.383H0z"/></defs><g fill="none" fill-rule="evenodd"><g transform="translate(57.692 57.77)"><mask id="b" fill="#fff"><use xlink:href="#a"/></mask><path d="M333.166 60.713C297.198 22.365 244.83.376 189.47.376c-4.73 0-9.486.152-14.192.48C85.955 6.905 42.771 70.215 38.294 77.186c-6.582 8.35-63.274 84.716-25.302 190.246l.71 2.277c.368 1.14 37.338 113.969 169.517 113.969h.025c7.077 0 14.446-.33 21.865-.987 98.71-8.641 172.142-81.415 178.584-176.912 3.666-54.87-14.28-106.39-50.527-145.066" fill="#FEFEFE" fill-rule="nonzero" mask="url(#b)"/></g><path d="M351.967 293.09c13.405-29.403 6.658-61.374-15.93-86.602-6.278-6.996-14.103-11.766-21.674-16.384-4.921-2.999-10.02-6.098-14.585-9.78-2.144-1.733-3.907-4.061-5.771-6.541-2.321-3.074-4.946-6.566-8.713-9.287-20.939-15.106-45.569-20.635-69.894-27.808-11.49-3.378-22.677-5.884-33.203-9.616 12.987-9.008 29.703-14.828 47.928-16.6a176.853 176.853 0 0117.032-.847c53.737 0 100.663 27 125.546 72.217 24.909 45.307 23.273 100.28-4.312 143.485-28.333 44.383-78.595 67.992-135.476 63.31-34.028-2.783-70.288-20.8-81.448-39.866 6.912-4.238 69.044-37.095 111.556-23.861 12.188.038-7.305 29.479-7.305 29.479s70.947-5.845 96.249-61.299m29.449-166.106c-37.033-39.474-91.873-59.743-147.842-55.96-88.842 6.035-128.247 71.939-128.247 71.939s70.389 21.28 80.091 24.279c6.582 2.05 50.528 12.88 70.338 23.76 4.135 2.265 8.193 6.807 12.188 11.045 2.968 3.138 5.758 6.111 8.662 8.49 5.2 4.25 10.299 7.932 15.22 11.488 12.213 8.805 22.752 16.396 27.648 27.96 4.249 10.046 4.413 20.458.469 30.137-3.424 8.426-9.867 15.929-17.87 21.065.812-4.263 1.903-10.361-3.868-14.157-2.46-1.607-15.752-4.732-24.642-5.617-4.25-.443-51.81-2.657-117.848 32.907 19.81-26.341 33.99-30.731 33.99-30.731-.533-3.176-106.826 39.777-106.826 39.777s36.665 117.17 178.584 104.72c92.33-8.11 161.12-75.469 167.158-165.386 3.45-51.366-13.317-99.57-47.205-135.716" fill="#E0393D" fill-rule="nonzero"/><path d="M246.8 203.98c-22.815.899-43.792-26.455-61.396-8.54 3.412.86 10.35-1.783 11.427 1.417-9.042 35.362 49.577 44.472 49.97 7.123" fill="#E0393D" fill-rule="nonzero"/><path d="M0 0h500v500H0z"/></g></svg>