<svg width="500" height="500" viewBox="0 0 500 500" xmlns="http://www.w3.org/2000/svg" xmlns:xlink="http://www.w3.org/1999/xlink"><defs><path id="a" d="M.001 0h359.822v400H.001z"/><path id="c" d="M.001 0h359.822v400H.001z"/></defs><g fill="none" fill-rule="evenodd"><path d="M0 0h500v500H0z"/><path d="M441.811 238.668c0-51.267-19.98-99.47-56.257-135.743-30.586-30.573-69.151-49.448-111.716-54.733a30.742 30.742 0 00-1.915-1.34c-18.788-12.091-35.257-3.977-44.087.393l-1.926.936a191.106 191.106 0 00-38.682 8.975 66.786 66.786 0 00-1.904-1.988c-10.777-10.783-25.096-16.706-40.342-16.706-31.458 0-57.055 25.585-57.055 57.03 0 10.283 2.65 20.066 7.735 28.722-24.533 32.966-37.97 73.3-37.97 114.454 0 51.277 19.98 99.492 56.257 135.754 15.799 15.791 33.874 28.53 53.79 37.931.01 3.51.35 6.764 1.01 9.677a17.662 17.662 0 00-1.99 4.382c-4.723 8.656-.297 18.216 13.703 28.86 8.522 6.519 15.15 7.636 20.629 7.636 1.478 0 2.883-.085 4.212-.16l1.99-.106c9.617-.394 17.469-6.944 23.405-13.856l9.277-1.393c3.787-.564 8.479-1.49 14.607-4.073 9.32-3.924 13.117-9.241 14.564-13.644 22.362-2.201 43.767-8.21 63.874-17.907.564 3.094 1.15 7.412 1.628 12.984.65 7.603 1.968 12.814 5.351 23.692 2.873 9.252 7.692 13.505 14.426 12.687 3.086-.383 10.33-2.648 11.022-16.036.18-3.627.66-13.272.245-20.61-.586-9.984-.139-16.822.361-18.481 1-3.18 1.883-8.762-1.276-13.57a193.872 193.872 0 0020.777-18.013c36.278-36.273 56.257-84.477 56.257-135.754" fill="#FEFEFE" fill-rule="nonzero"/><g transform="translate(69.23 50)"><mask id="b" fill="#fff"><use xlink:href="#a"/></mask><path d="M359.824 188.081c0-48.054-18.719-93.23-52.7-127.211-29.346-29.354-67.046-47.3-107.738-51.647-.942-.938-2-1.803-3.2-2.573-14.404-9.265-26.427-2.384-34.762 1.666-.6.292-1.3.638-2.088 1.042a178.395 178.395 0 00-44.973 11.196 46.588 46.588 0 00-5.804-7.073C99.867 4.79 88.309.001 76.013.001 50.632 0 29.986 20.65 29.986 46.03c0 10.635 3.588 20.72 10.184 28.873C15.066 105.84.001 145.227.001 188.081c0 48.058 18.715 93.239 52.693 127.22 16.596 16.592 35.876 29.538 56.842 38.45-1.17 9.507.373 15.957 2.111 18.603-2.646 2.227-3.757 3.616-4.177 6.116-4.169 5.703 5.981 12.934 10.15 16.13 8.57 6.57 13.074 5.427 19.747 5.15 8.238-.346 15.988-10.019 20.446-16.273 8.896-1.25 10.565.139 10.842 1.25 2.78-.415 6.673-1.111 11.958-3.338 12.015-5.058 8.619-11.258 7.373-12.373-.327-.285-.589-.689-.842-1.173 28.523-1.123 55.861-8.858 80.257-22.473a32.16 32.16 0 012.623 3.346c2.643 3.896 4.031 16.546 4.589 23.08.557 6.535 1.669 10.993 4.865 21.274 3.196 10.292 4.45 2.784 4.592 0 .139-2.777.693-12.789.277-20.023-.419-7.231-.557-17.658.835-22.108 1.392-4.446-1.112-5.562-1.808-6.393-.7-.838 0-1.115-1.811-6.815a8.84 8.84 0 01-.246-.988 182.146 182.146 0 0025.807-21.443c33.981-33.98 52.7-79.161 52.7-127.219" fill="#FFF" fill-rule="nonzero" mask="url(#b)"/></g><g transform="translate(69.23 50)"><mask id="d" fill="#fff"><use xlink:href="#c"/></mask><path d="M359.824 188.081c0-48.054-18.719-93.23-52.7-127.211-29.346-29.354-67.046-47.3-107.738-51.647-.942-.938-2-1.803-3.2-2.573-14.404-9.265-26.427-2.384-34.762 1.666-.6.292-1.3.638-2.088 1.042a178.395 178.395 0 00-44.973 11.196 46.588 46.588 0 00-5.804-7.073C99.867 4.79 88.309.001 76.013.001 50.632 0 29.986 20.65 29.986 46.03c0 10.635 3.588 20.72 10.184 28.873C15.066 105.84.001 145.227.001 188.081c0 48.058 18.715 93.239 52.693 127.22 16.596 16.592 35.876 29.538 56.842 38.45-1.17 9.507.373 15.957 2.111 18.603-2.646 2.227-3.757 3.616-4.177 6.116-4.169 5.703 5.981 12.934 10.15 16.13 8.57 6.57 13.074 5.427 19.747 5.15 8.238-.346 15.988-10.019 20.446-16.273 8.896-1.25 10.565.139 10.842 1.25 2.78-.415 6.673-1.111 11.958-3.338 12.015-5.058 8.619-11.258 7.373-12.373-.327-.285-.589-.689-.842-1.173 28.523-1.123 55.861-8.858 80.257-22.473a32.16 32.16 0 012.623 3.346c2.643 3.896 4.031 16.546 4.589 23.08.557 6.535 1.669 10.993 4.865 21.274 3.196 10.292 4.45 2.784 4.592 0 .139-2.777.693-12.789.277-20.023-.419-7.231-.557-17.658.835-22.108 1.392-4.446-1.112-5.562-1.808-6.393-.7-.838 0-1.115-1.811-6.815a8.84 8.84 0 01-.246-.988 182.146 182.146 0 0025.807-21.443c33.981-33.98 52.7-79.161 52.7-127.219" fill="#061922" fill-rule="nonzero" mask="url(#d)"/></g><path d="M206.596 405.947c6.68-.281 15.993-2.362 20.235-4.173.558.142 1.461.696 2.854 1.25.55-4.447-2.296-13.693-3.896-17.939-1.062-2.811-2.089-4.723-3.339-7.642-3.754-.7-8.411-2.712-11.75-4.104 0 2.642.489 9.527 1.046 14.111a56.066 56.066 0 01-5.707.281c.28 5.004.842 14.043.557 18.216m125.847-14.739c-1.254-1.254 1.527-5.15 2.78-12.377 1.247-7.23 1.385-19.33-3.895-26.146-2.573-3.315-3.82-5.404-4.254-6.896a131.398 131.398 0 01-55.4 23.346 9.355 9.355 0 01-.692 1.073c-2.923 3.758-8.623 9.18-12.8 11.404-4.17 2.223-9.035 3.896-11.677 4.73-.554 4.447-1.277 14.378-.135 17.793.42 1.254 5.558 4.315 7.365 7.654.189.342.358.68.523 1.02 28.374-.82 55.077-8.428 78.531-21.27-.119-.112-.246-.235-.346-.33m40.306-276.734c-27.412-27.412-62.33-44.589-100.116-49.631 3.027 5.988 3.497 12.87 3.77 17.254 5.423-2.366 9.592-3.62 11.819-7.231 2.227-3.62 5.285-2.923 7.23-.28 1.95 2.638 1.95 5.98-3.195 9.176-5.147 3.2-8.897 4.73-10.012 5.289-1.115.55-.138 1.527 1.115 3.611 1.247 2.085 4.431 7.239 5.004 18.077.004.104.012.212.012.315 20.442 6.293 39.177 17.516 54.727 33.066 25.107 25.104 38.934 58.488 38.934 93.992 0 20.389-4.573 40.077-13.207 57.904 1.15.592 2.711 4.63 3.242 9.95.277 2.78.135 5.842-.692 7.785-.835 1.95-7.4 11.796-10.712 14.742-1.25 1.115-4.177.977-5.423-.83-1.25-1.812-1.388-.84-2.365.13-.973.977-4.312 5.842-5.139 7.096-.838 1.254-3.62 2.5-1.815 7.508 1.815 5.011 3.892 8.761 3.204 11.542-.7 2.785-.977 3.62 2.777 6.82 3.761 3.192 3.619 7.084 1.95 9.588-1.047 1.569-2.689 5.75-3.327 10.061 44.411-31.73 73.423-83.707 73.423-142.327 0-46.692-18.189-90.592-51.204-123.607M171.973 367.147c-.488-4.712-1.204-13.223 2.088-19.296a134.913 134.913 0 01-18.938-15.75c-25.104-25.112-38.93-58.485-38.93-93.989 0-38.019 16.046-72.357 41.715-96.603a7.61 7.61 0 01.927-1.485 46.105 46.105 0 01-13.593 2.034c-12.246 0-23.761-4.757-32.442-13.384C87.88 159.6 74.335 197.8 74.335 238.08c0 46.693 18.18 90.593 51.2 123.608 15.827 15.827 34.161 28.239 54.1 36.877.769-3.723 1.923-7.796 3.604-12.223 1.53-4.038-.835-13.35-4.731-18.22-2.085-.56-4.723-.834-6.535-.976m46.353-301.174a173.052 173.052 0 00-32.161 8.95c3.33 6.45 5.107 13.639 5.107 21.108 0 9.9-3.107 19.323-8.857 27.154a132.23 132.23 0 0130.946-13.104 45.736 45.736 0 012.138-1.981c-4.034-6.68-9.457-17.385-4.727-31.85 1.331-4.073 4.262-7.5 7.554-10.277" fill="#008348" fill-rule="nonzero"/><path d="M288.224 118.664c3.892 1.946 8.246 6.181 6.53 14.042-.692 3.2-3.365 6.278-3.607 7.516-.42 2.08-4.8 5.627-6.193 8.408-1.38 2.757-1.596 5.107-1.192 6.296.004.015.012.023.015.03 2.22 2.089 7.227 4.87 10.004 5.839 2.177.762 2.023 1.35 1.112 2.785 1.534.138 2.319 1.08 3.761 2.78 1.523 1.812 5.558.697 8.062-.557 2.504-1.25 5.7-1.67 8.207 1.392 2.5 3.058 6.258 8.762 8.062 14.046 1.812 5.28 3.758 9.593 4.315 10.423.554.839-1.95 16.135-2.65 22.254-.692 6.116-1.25 8.758-1.388 9.73-.138.974 3.896-3.472 4.038 1.809.104 4.215 2.073 17.73 4.35 27.742.577 2.546 1.173 4.861 1.766 6.742 1.673.28 3.054 3.62 4.03 8.762.974 5.146 3.058 8.346 3.2 10.846.139 2.5.835 2.92 1.666 3.335.835.423.558 1.673-1.942 4.588.554.42 1.388 1.258 1.942 1.804.7-.693 2.642-2.908 2.642-2.908s7.65 3.054 9.32 3.608c1.669.558 3.653-3.562 8.619-1.392 1.361.596 2.865 2.476 3.934 4.334 7.785-16.661 12.15-35.23 12.15-54.808 0-34.684-13.511-67.296-38.038-91.823-14.97-14.965-32.943-25.819-52.562-32.019-.057 1.912-.154 3.723-.154 4.396m40.182 218.728c-1.942-.973-3.211.438-4.169-7.227-.277-2.223-2.08-5.15-3.473-6.535-1.392-1.392-1.561-3.996-.838-6.261 1.111-3.477 1.396-6.67 1.257-9.45-.146-2.785.412-6.258 4.304-7.935-1.388-1.523-2.084-3.473-2.5-5-5.7-1.88-6.838-2.042-7.996-4.8-1.942-4.63-3.142-11.392-3.72-15.077-.284-1.819-.476-3.5-.518-5.015-1.827-3.454-5.881-11.127-9.02-16.892a241.038 241.038 0 00-2.938-5.358c-2.785-4.866 0-11.262 1.385-15.016 1.392-3.753 2.507-7.092 1.253-10.846-1.253-3.753-1.253-4.592-1.527-6.119-.276-1.53-1.534-3.477-3.196 1.812-1.673 5.28-4.869 13.069-6.68 21.134-1.024 4.581-1.739 9.566-1.5 14.393.18 3.677.915 7.254 2.473 10.496 3.615 7.507 7.927 14.461 7.369 18.634-.554 4.17-1.466 4.316-1.527 5.004-.696 8.066-4.173 23.504-5.98 27.95-1.809 4.446-8.897 20.577-10.428 27.393-1.17 5.219-4.384 16.396-7.134 23.023 20.807-3.935 39.884-12.843 55.927-25.45.469-1.17.384-2.254-.824-2.858M173.868 154.925c1.535 2 3.546 3.835 6.17 5.18 6.815 3.474 8.207 5.978 8.207 11.955s1.111 18.219 3.061 20.304c1.247-1.25 2.643-3.062 2.916-3.616 1.946 3.616 5.87 10.308 12.096 14.462.42.28.23 1.811 1.254 2.084 2.084.558 15.573 2.643 15.992 5.427 2.785-2.784 7.231-9.734 8.066-12.104.83-2.357 5.7-9.869 9.315-14.038 0-1.673 0-2.646.142-3.062-.977.835-2.503 2.92-4.73 3.893-2.227.973-10.008 4.311-15.573 7.092-1.947.973-5.424 2.088-6.816-8.066-1.392-10.15 0-15.434.973-17.796.973-2.365 2.78-4.453 6.262-3.477 3.473.973 9.03 3.058 10.565 3.058.277-1.111 1.254-3.2-2.5-3.615-2.673-.3-9.642-2.285-13.588-7.681-1.596-2.162-2.704-4.9-2.823-8.312-7.923 1.254-26.143 3.62-30.173 4.589-4.031.977-7.45 1.8-8.758-7.37-.558-3.892-1.531-9.315 1.25-7.369 2.223-1.669 5.304-3.63 10.704-2.777.988.154 2.223.981 2.611 1.754.296 1.35-.28 3.554-.942 5.612-1.196 3.727-3.542 6.396 4.035 4.658 7.93-1.82 18.003-3.335 20.646-3.893.346-2.707 2.573-6.884 5.215-9.942 2.65-3.073 3.062-5.561 3.2-6.535.138-.973-.777-1.188-2.085 0-1.53 1.389-6.123 4.173-10.434 3.058-1.666-.427-3.75-3.615-4.862-5.42.912-1.91 3.216-5.21 6.054-8.538-14.808 4.747-28.665 12.158-40.985 21.985-.08 1.542.123 5.127 1.139 9.077.68 2.65 1.946 6.238 4.396 9.423M183.52 344.9c5.696-2.223 10.193-2.12 14.6 3.758 1.25 1.665 2.223 6.538 12.931 2.223-5.7-6.812-9.12-14.885-12.235-25.727-4.927-17.112-16.061-36.573-11.961-45.466-2.362-2.23-5.143-10.846-8.066-9.873-1.961.654-4.723.693-2.503-5.842 1.004-2.938 2.654-6.496 5.773-10.773 3.807-5.212 9.823-11.485 19.534-18.985.839-.696.977-1.246.42-1.807-.973-.97-1.947-2.081-2.92-2.639-.973-.558-1.95-.28-2.784.558-.835.834-2.223 1.808-3.058 2.361-.835.554-7.508-5.98-10.985-10.707-3.477-4.727-7.088-6.254-8.2-6.812 1.389-1.53 4.527-4.85 3.335-4.45-2.085.692-5.739 1.158-9.458-2.784-4.588-4.862-2.777-7.37-3.753-8.062-.974-.696-5.981.415-9.731-5.423-3.758-5.842-5.262-8.385-2.231-12.52 1.535-2.084 2.088-3.057 1.673-5.7-.42-2.642 0-4.307 3.477-7.645 3.477-3.335 5.562-6.397 7.088-6.12 1.216.223-2.3-4.196-4.427-7.542-.557-.892-1.015-1.696-1.276-2.33-.547-1.347-1.42-3.662-1.62-6.155-24.434 24.512-37.888 57.058-37.888 91.673 0 34.681 13.508 67.293 38.035 91.82a131.224 131.224 0 0018.523 15.4c2.85-3.093 6.238-1.896 7.707-.431" fill="#FFF" fill-rule="nonzero"/><path d="M109.625 70.657c11.4 2.92 19.947 12.134 23.693 17.277.961 1.311 1.95 1.115 2.365.142.885-2.065 2.504-8.761 2.504-13.908 0-11.677 1.6-16.3 4.523-21.719-13.642.746-25.611 7.762-33.085 18.208m-6.883 35.778c21.412 1.946 28.073-10.016 29.466-11.827 1.384-1.804-.281-2.92-.977-3.893-3.7-5.184-11.989-14.354-23.393-17.273-3.996 6.593-6.338 14.3-6.338 22.577 0 3.593.423 7.077 1.242 10.416" fill="#A73832" fill-rule="nonzero"/><path d="M187.705 105.599c-9.039-3.758-19.762-.285-27.408 6.392-7.65 6.673-11.538 11.8-14.18 27.654-.327.008-.654.008-.977.008-11.331 0-21.616-4.312-29.377-11.397 13.077-3.338 24.096-9.311 36.465-20.992 12.38-11.68 18.496-25.308 20.166-31.704 1.669-6.396-.7-2.642-1.947.273-1.938 4.52-8.346 16.689-20.996 28.508-12.657 11.823-22.384 17.654-35.588 22.104a43.48 43.48 0 01-9.923-16.12c4.45.278 18.469-1.338 25.484-7.095 9.227-7.566 10.293-16.547 11.543-29.343 1.25-12.788 3.13-16.596 6.188-21.461 23.162 1.054 41.62 20.165 41.62 43.592 0 3.292-.378 6.496-1.07 9.58" fill="#A73832" fill-rule="nonzero"/><path d="M186.498 109.973c-2.089-2.92-9.523-4.323-21.335 3.058-1.111.7-1.88 1.184-.554 2.504 2.5 2.507 6.262 7.242 8.904 13.638a43.749 43.749 0 0012.985-19.2m-16.472 21.897c-2.5-6.119-4.585-10.565-6.946-13.623-1.277-1.65-1.531-2.361-3.897-.277-6.573 5.8-9.107 14.593-10.5 21.543a43.381 43.381 0 0021.343-7.643" fill="#A73832" fill-rule="nonzero"/><path d="M158.072 180.684c-1.807-.558-3.2 1.523-4.034 3.196-.835 1.673-1.812 3.477.834 7.23 2.643 3.758 4.285 5.993 8.9 5.7 2.227-.138 4.17-1.807 4.866-2.777.696-.976.834.693-.277 2.362-1.112 1.665-1.946 5.561.138 8.204 2.089 2.642 6.396 4.865 12.096 1.53 5.7-3.334 8.07-7.369 9.039-9.18.973-1.804.973-2.639 0-3.75-.97-1.116-4.17-6.408-4.865-16.827-.416-6.262.696-10.289-3.2-12.516-3.893-2.226-12.8-7.488-13.904-17.8-.416-3.892-.139-9.869-4.031-6.673-3.896 3.2-3.896 5.423-4.312 7.785-.419 2.37 1.531 5.562 3.2 7.789 1.666 2.227 3.612 7.092 5.143 8.342 1.53 1.254 2.504 2.227 3.757 2.365 1.247.139 6.254.139 7.504.558 1.254.42 1.95 1.95-1.111 1.95-3.058 0-7.785.827-9.873 1.108-2.081.277-4.027.415-5.004 4.588-.973 4.17-2.366 9.039-2.504 10.57-.139 1.526-.973 2.36-.973 3.196 0 .834 1.669 4.869 5.423.834 3.754-4.03 5.285-8.061 5.98-10.011.693-1.947 1.531-1.67.831 1.392-.692 3.058-.9 10.708.558 13.35 1.573 2.838 4.742 5.761 8.762 3.75.834-.416 2.223-1.112 3.338-.973 1.112.138-.211 2.084-1.184 2.923-.974.834-4.17 4.373-9.8-.696-1.397-1.254-3.324-4.035-3.758-7.508-.139-1.115-1.67-1.53-2.362-.558-.696.973-4.45 4.45-7.092 1.946-2.642-2.503-3.738-3.888-2.223-9.177.273-.973.815-2.015.138-2.223" fill="#FAB383" fill-rule="nonzero"/><path d="M160.853 172.893c-.6 1.797-1.115 4.17-1.392 5.008-.28.835-1.527 2.642-2.642.28-1.108-2.365-1.054-4.23.696-5.98.558-.558 1.389-1.67 1.946-1.115.558.557 1.53 1.392 1.392 1.807m6.256-6.394c-1.146.573-3.592.57-4.45 2.5-.557 1.254-2.78-.13-1.669-1.666 1.111-1.53 1.95-1.392 2.642-1.807.697-.416.977-1.67 2.366-.973 1.388.696 1.665 1.669 1.111 1.946m91.634-68.831c-3.893.415-7.508 2.785-11.123 5.285-3.62 2.5-16.685 13.488-19.746 15.711 3.196 1.67 4.03 5.008 2.919 10.57-.25 1.234 0 1.669.838.834.83-.834 4.723-5.004 4.589-8.342-.143-3.339-1.67-5.285-1.95-5.704-.277-.415 1.115-2.085 2.646 1.392 1.527 3.477 1.108 8.343-3.477 13.766-4.589 5.423-8.208 5.28-10.154 6.257-1.946.973-3.888 2.5-2.08 5.423 1.803 2.924 5.28 1.808 6.669.835 1.392-.977 3.338-2.088 7.788-1.67 4.446.416 5.93-2.41 2.92-5.422-.974-.973-3.478-3.2-.42-3.2 1.812 0 4.035 4.034 5.285 5.146 1.253 1.111 4.034 1.527 7.788 1.808 3.754.277 9.596 1.665 9.596 5.284 0 2.223-1.2 2.873-2.784 1.116-.623-.7-1.516.4-2.223 1.107-2.366 2.37-8.416 8.762-12.724 9.873-4.307 1.112-5.911-.138-11.611-3.196-5.7-3.057-10.985-6.12-12.512-7.092-1.53-.973-4.73-3.2-3.2 1.254 1.531 4.446 5.285 9.034 12.793 11.542 7.507 2.496 8.619 3.335 10.288 4.17 1.67.834.7 1.669-1.527 1.388-1.934-.239-4.034-1.947-2.361 1.811 1.661 3.754 4.169 7.781 11.819 6.812 7.642-.973 7.87-2.593 12.65-10.57.83-1.392 1.673-.415 1.115 3.2 3.75-1.807 5.835-2.365 8.058-2.923 2.23-.553 8.012-2.519 11.827-9.592 1.942-3.615 2.992-4.858 2.638-8.62-.134-1.403 1.947-4.172 4.035-6.122 2.085-1.943 7.78-9.316 4.87-14.6-2.928-5.285-7.793-2.639-10.155 1.254-2.365 3.896-5.007 8.203-5.146 14.877-1.67-.554-3.373.057-4.17 1.388-.418.7-6.537-.135-8.626.42-2.08.557-2.773-.697-.554-3.616 2.227-2.92 10.062-13.5 9.596-21.416-.138-2.361.177-2.8.554-4.584.489-2.296.704-2.33-2.154-3.896-1.857-1.016-1.969-3.912-2.292-6.12-.35-2.361-.8-2.373-3.477-1.807-1.98.42-5.288-1.53-6.815-4.03" fill="#FAB383" fill-rule="nonzero"/><path d="M242.475 141.191c-.761 1.739-2.865 3.404-7.719 2.85-2.43-.277-4.807-.307-5.211 1.6-.277 1.323-1.385 1.246-2.92 1.185-1.603-.07-3.338-.489-3.411.069-.07.554 6.82 4.654 9.111 5.696 2.297 1.046 5.639 3.53 8.343 3.27 3.615-.347 6.765-2.135 12.1-7.79 2.2-2.326 3.961-3.541 1.877-4.518-1.42-.658-2.854-.835-4.727-.835-1.881 0-5.916-.277-7.443-1.527m-25.935.071c-1.877-.073-2.085-1.461-.835-3.546 1.25-2.088 2.439-4.03 4.104-5.284.277.903.835 2.015 1.67 2.5-1.112 1.184-2.581 2.665-2.304 5.588l-2.635.742z" fill="#FAB383" fill-rule="nonzero"/><path d="M258.87 132.625c-2.388 0-5.934-.777-8.473-2.511-2.569-1.754-3.427-2.6-2.973-5.196.277-1.604.42-2.47.52-3.062.069-.43.119-.715.176-1.038.216-1.223.146-2.027-.219-2.458-.192-.235-.47-.354-.792-.354-.53 0-1.235.339-2.139 1.03-1.469-1.1-2.857-2.334-3.888-3.245-.8-.712-1.377-1.223-1.738-1.462-.289-.192-.639-.5-.677-.877-.031-.288.123-.596.45-.927.2-.2.461-.242.815-.242l.162.004h.165c.25 0 .715 0 1.02-.354.3-.342.372-.92.237-1.87.004-.053.108-.157.735-.157.17 0 .346.004.516.012.184.007.357.015.511.015.362 0 .585-.038.75-.12.312-.153.392-.457.446-.676.081-.308.116-.435.593-.435.269 0 .63.058 1.073.17a.951.951 0 00.23.03c.454 0 .673-.357.831-.619l.085-.13c.177-.274.346-.42.734-.42.093 0 .193.008.304.027.377.061.712.146 1.008.215.404.1.75.185 1.058.185.819 0 1.077-.615 1.196-1.085.25-.938.442-1.223.823-1.223.335 0 .835.204 1.485.608.569.354 1.05.523 1.473.523.638 0 1.092-.4 1.234-1.108.004-.015.016-.061.193-.061.411 0 1.146.277 1.903.723l.377.211c1.304.743 4.016 2.285 7.108 5.897.708.823.911 1.454.858 1.596-.012-.004-.031-.004-.047-.004-.053 0-.123.012-.192.023-.473.073-1.18.18-1.327 1.37-.084.653-.288 1.038-.388 1.1 0-.02-.1-.097-.246-.385-.189-.373-.439-.754-.862-.754a.802.802 0 00-.215.03c-.027-.053-.085-.15-.158-.35-.065-.184-.273-.742-.792-.742-.246 0-.45.143-.596.243a.613.613 0 00-.081.057c-.081-.207-.3-.719-.796-.719a.999.999 0 00-.323.058.694.694 0 01-.104.027c0-.012-.039-.062-.096-.193-.097-.223-.3-.35-.57-.35-.192 0-.403.066-.627.135-.238.073-.438.13-.584.13-.123 0-.154-.034-.181-.084-.192-.354-.477-.408-.63-.408-.247 0-.474.123-.693.239-.173.088-.365.196-.5.196-.035 0-.112 0-.22-.146-.076-.096-.303-.392-.638-.392-.33 0-.53.269-.692.484l-.065.093c-.162.211-.273.292-.397.292a.472.472 0 01-.177-.043 1.458 1.458 0 00-.488-.096c-.48 0-.696.35-.815.539-.116.184-.135.192-.177.192a.681.681 0 01-.246-.065 1.152 1.152 0 00-.477-.116c-.558 0-.793.485-.946.804-.162.33-.231.42-.335.42a.352.352 0 01-.1-.016 2.19 2.19 0 00-.565-.088c-.789 0-.893.665-1.008 1.373-.02.123-.039.25-.066.388-.196 1.127-.7 5.78-.623 6.977.07 1.115 1.523 1.115 2.073 1.115 1.031 0 2.439-.188 4.185-.43 3.423-.477 9.72-2.377 12.97-5.089.83-.692 1.476-.77 1.715-.77.204 0 .3.05.319.07.027.165-.365 1.05-1.185 1.739-.077.073-.173.15-.273.242-1.015.892-3.388 2.988-8.18 3.92-4.585.891-8.82 1.695-10.243 1.695a1.58 1.58 0 01-.315-.023 1.028 1.028 0 00-.231-.03c-.235 0-.42.119-.492.315-.093.257.05.561.396.854a2.74 2.74 0 001.715.611c.189 0 .373-.019.554-.061.162.003.665.473 1.03.815.99.927 2.485 2.323 4.459 2.323 2.48 0 6.069-2.67 7.103-3.484.477-.373 1.566-.931 2.189-1.108-.104.13-.262.311-.512.561l-.18.181c-2.285 2.289-4.647 4.654-6.943 4.716-.092.003-.184.003-.28.003m29.353-3.113c-1.612 1.138-2.504 1.53-2.643 3.473-.138 1.946-.523 5.269-1.254 5.565-.946.385-.815-1.804-1.107-1.111-.42.973-1.604.553-1.947-.347-.157-.392-3.615-.354-.834-4.384 2.515-3.65 4.446-5.562 6.254-6.397 1.807-.834 4.869.835 1.53 3.2" fill="#061922" fill-rule="nonzero"/><path d="M356.286 294.776c-.642-1.634.489-4.384 3.966-2.438 3.48 1.95 6.119 3.623 3.619 11.265-2.512 7.646-4.312 12.096-5.289 15.296-.969 3.2-4.727 7.231-3.477 1.808 1.258-5.423 1.916-11.977 1.389-15.296-.965-6.116.996-5.754.354-8.55-.2-.862-.323-1.5-.562-2.085m13.146 6.603c1 3.004 2.085 9.87.416 12.65-1.67 2.785-6.816 10.431-8.758 12.381-1.95 1.946-3.477 1.111-2.23-.977 1.253-2.084 2.922-4.865 2.922-5.838 0-.973-.134-2.085 1.531-5.285 1.665-3.196 4.588-13.908 4.865-14.738.277-.835.973.973 1.254 1.807m-35.88 25.725c-.832-2.5-1.25-6.119-2.64-8.204 1.112-3.061 4.778-11.28 10.985-13.765.693-.28 1.116-.977.835-1.53-.285-.559.834-.97 1.388.976.562 1.939 1.531 7.504 1.531 7.504.277 1.254-.277 2.227-.554 3.896-.28 1.67-.977 5.423-.557 7.366.415 1.946 1.111 3.342 5 2.507 1.953-.423 1.815-.973 2.365-2.646.558-1.665 2.089-6.396 2.646-9.038.554-2.643.073-9.104-.484-10.773-.562-1.67.207-7.304-.212-8.416-.415-1.111-.696-2.773-4.17-3.888-3.476-1.116-4.45-1.397-6.815.969-2.365 2.37-3.192 3.338-4.307 4.45-1.116 1.111-3.896.134-1.535-2.08a198.38 198.38 0 005.28-5.155l-.684-1.807h-1.257c-3.758 3.761-8.762 5.984-12.1 6.677-1.254.261-3.616.415-1.947 2.642.42.561.558 2.088 1.535 1.534.97-.561 2.496-3.061 3.889-1.95 1.396 1.108-.274 3.758-1.947 5.008-1.661 1.254-3.477 2.5-4.723 3.2-1.254.692-1.95 1.385-1.811 3.612.138 2.223.277 6.261-.977 9.319-1.25 3.058-.55 3.892.558 5.977 1.115 2.088 2.923 3.892 3.476 7.23.558 3.335.839 4.17 3.062 3.893 2.223-.277 3.062-1.254 3.896-2.642l.273-4.866z" fill="#FAB383" fill-rule="nonzero"/><path d="M334.385 333.497c-.97 1.673-2.642 4.311-2.642 6.677 0 2.365-2.362 4.87-2.085 5.98.28 1.108 3.342 4.031 5.146 7.093 1.804 3.058 4.166 7.642 4.166 15.292 0 7.654-2.5 18.077-2.773 19.47-.285 1.388-.974 2.503 1.111 4.45 2.088 1.95 5.423 5.561 6.677 13.761 1.25 8.208 2.085 12.52 2.642 12.935.558.419.416 1.111.416 2.642 0 1.527 1.384 10.292 2.365 11.958.97 1.673.83-9.454.688-12.654-.138-3.196.143-18.489.7-20.712.558-2.23 1.112-4.734-.838-7.515-1.938-2.78-5.277-7.65-2.773-15.708 2.504-8.073 6.53-7.927 5.277-11.127-1.25-3.2-3.473-5.423-5.139-7.227-1.669-1.811-.346-6.119-.419-7.93-.138-3.343-2.784-3.893-3.061-7.65-.277-3.754-.558-6.812 2.227-10.566 2.78-3.75-.974-3.615-2.227-5.98-1.254-2.362-1.92-5.524-.831-10.428.554-2.507.273-3.196-.423-3.476-.693-.277-3.62-.835-3.62-.835l-4.303 8.623c.7 1.665.973 4.173.973 5.839l-1.254 7.088z" fill="#A73832" fill-rule="nonzero"/><path d="M294.203 164.275c-3.427 4.566-8.758 16.131-11.265 23.358-2.5 7.235-8.204 24.477-4.166 35.877 4.027 11.4 11.958 4.173 13.758-.139 1.812-4.307 4.596-11.68 5.43-13.626.831-1.947 1.25-3.062 2.778 1.527 1.53 4.592 3.753 15.576 3.753 16.55 0 .973-1.534 3.757-3.196 8.065-1.669 4.308-2.642 7.37-.977 10.015 1.67 2.639 8.208 13.9 10.293 18.77 1.25 2.919 2.361 3.473 5.7 2.638 3.338-.83 11.404-3.615 13.765-4.727 2.365-1.111 1.25-3.062.554-5.42-1.054-3.6-5.277-23.645-5.277-26.284 0-2.642.704-6.104-2.788-2.223-1.243 1.393-2.916 0-2.5-1.95.419-1.946 4.584-29.061 4.869-32.396-2.37-5.146-9.32-21.415-11.262-24.335-1.95-2.919-2.642-3.057-5.565-1.527-2.92 1.527-9.442 3.874-11.82-1.669-.415-.977-1.107-3.2.558-3.477l-1.254-.419s-.976.835-1.388 1.392m36.426 99.976c-2.585 1.485-11.396 5.28-15.012 5.843-3.711.573-2.78 1.53-2.084 4.315.688 2.773 2.777 11.115 3.888 14.038 1.116 2.923 2.643 2.87 5.566 2.785 4.45-.139 11.957-2.089 17.38-7.096-1.534-1.808-4.211-10.473-5.004-14.185-.838-3.888-.838-7.923-4.734-5.7m-79.676-80.232c-.277.561-1.25 2.227-3.47 2.227-2.223 0-4.034-.696-5.427 1.25-1.388 1.946-9.034 11.265-10.707 16.961 1.673 3.477 3.9 9.735 5.565 14.185 5.423-4.585 22.735-21.48 26-24.75 1.258-1.25 1.393-2.362-.415-3.612-1.808-1.257-8.485-5.427-9.596-6.119-1.112-.7-1.67-.7-1.95-.142m-43.797 24.474c-1.07 4.285-3.196 11.82-6.673 17.662 1.388 2.223 2.5 4.173 4.169 4.865 3.892-2.78 11.261-9.6 13.346-12.1 2.089-2.5 4.73-6.258 4.73-7.088 0-.839-.972-1.112-2.222-.839-1.254.28-6.4-1.777-11.404-2.777-1.389-.28-1.808-.28-1.946.277m-3.056-4.171c-1.53-.304-6.815-5.98-8.627-9.039-1.803-3.061-2.088-2.78-2.777-.557-.696 2.223-3.338 7.092-5.146 9.457-1.807 2.362-6.534 8.481-7.788 9.873-1.254 1.389 0 1.947 1.115 3.058 1.112 1.112 6.812 8.062 8.062 9.592 1.254 1.531 2.646 4.316 5.977 1.254 3.342-3.061 7.373-8.623 9.184-14.323 1.804-5.704 1.939-8.692 3.47-8.346l.069-1.18-.416-.693-.834-.696c.207.484.207.904-.135 1.461-.35.554-1.461.273-2.154.139m85.097-127.926c-3.747 4.423-11.27 8.339-23.916 11.539-12.654 3.2-24.754 12.1-29.896 16.407-5.15 4.312-18.115 14.927-24.335 17.52-1.665.696-5.215 3.053-.696 3.615 3.339.42 5.7-1.527 12.931-6.812 7.235-5.284 12.846-9.096 18.358-14.461 5.146-5.008 14.461-9.735 24.469-12.516 10.015-2.784 23.165-7.153 26.977-11.265 1.804-1.942 1.95-2.92.28-4.588-1.669-1.666-2.642-1.246-4.172.561m-63.827 43.73c-1.088.6-1.527 1.25-2.784 5.284-1.246 4.03-1.108 6.392-.066 7.37.758.703 1.873.765 2.435.765.415 0 .835.142.77-1.043-.078-1.18-.155-6.223 3.61-8.48.697-.42-.092-3.335-2.572-2.924-.835.143 0-1.738-1.393-.973m-42.966 15.922c1.95 0 3.2 0 3.061 2.223-.139 2.227-1.111 5.285-1.25 7.374-.142 2.084-.142 2.915 1.111 2.915 1.247 0-1.807 1.254-3.48 1.535-1.666.276-4.235 1.234-5.562-5.843-.415-2.227-.277-5.7-.554-6.534 1.808-.835 4.293-1.67 6.673-1.67m36.964 5.938c.515 2.804 1.28 2.75.719 3.17-.558.419-1.139-1.062-3.408-.693-2.154.347-19.673 3.058-20.923 3.2-3.892.412-4.104-.215-.488-.977 3.615-.765 16.842-3.177 20.788-3.969l3.312-.73zm-21.11 212.65c1.808 1.112 6.116 2.366 13.49-.695 7.368-3.062 15.572-.977 16.822 4.307 1.254 5.289 1.296 12.1-.973 15.023-1.946 2.5-3.754 2.224-5.977 1.531-4.03-1.265-13.35-5.561-15.992-6.815-2.642-1.254-7.092-2.642-10.292-2.642-1.25-2.643-1.112-7.235-.277-8.9.834-1.67.834-3.339 1.527-2.92.7.416 1.673 1.112 1.673 1.112m29.2 24.609c1.808 0 5.082.761 6.116 4.038.831 2.639 6.258 3.331 8.623 3.193 2.362-.131 1.946 1.115 1.804 2.507-.135 1.389-.554 5.566-.554 7.231 0 1.67.42 7.504.696 8.62.277 1.111-.696 1.669-1.946 2.223-1.25.557-5.842 1.946-8.757-.139-1.539-1.096-3.343-2.638-1.535-2.78 1.808-.135-2.22-15.85-3.335-18.631-1.111-2.785-4.315-6.262-1.111-6.262m-47.837-32.813c.75.246 1.116.977 1.67 1.946.557.973.746 1.816-.139 2.781-1.53 1.67-3.338 9.316-3.058 14.743-.973-.281-3.057-.697-4.169-.42-.42-3.061-.142-12.654 1.25-15.715 1.393-3.054 2.777-3.892 4.446-3.335m.278 84.819c3.465 3.9 10.011 9.877 14.877 11.961 4.87 2.085 8.07 2.781 12.377 2.366 3.488-.339 2.78 1.111 0 1.53-2.78.416-9.177.416-13.342-1.811-4.177-2.227-10.793-6.338-15.023-12.373-.974-1.396 0-2.92 1.111-1.673m72.444-9.732c-2.823 1.284-8.061 3.896-13.065 5.146.554 2.504.696 3.615.696 4.308 3.054 0 8.95-2.135 13.761-5.143 1.116-.7 1.531-1.527 1.116-2.503-.423-.973-.977-2.504-2.508-1.808m-32.95-11.403c-.696-.693 3.262-1.523 4.097-1.523.977.623 2.75 2.188 3.411 2.85.42.411.212.688-.211.973-.412.273-2.846.904-3.962.973-1.25-1.112-2.988-2.923-3.334-3.273m7.369-57.843c-1.116-.838-.973-1.25-.416-2.088.554-.835 1.112-1.389 1.666-1.67.554-.277 1.392-.415 2.361.973.973 1.393 6.258 10.158 7.37 12.516 1.115 2.365 2.507.835 1.95-.554-.554-1.392-1.67-3.754-2.089-4.45 1.535-4.727 3.062-11.958 3.062-16.685 0-4.734-1.112-9.453-1.95-11.127 3.757.139 11.957 0 15.157-.973 3.204-.977.554-1.25-.696-1.111-1.25.135-10.242.104-16.823-.696-11.4-1.393-22.6-7.804-26.138-12.239-.562-.692-3.9-.419-1.116 1.812 2.785 2.223 9.877 8.865 20.304 10.708 2.362.415 6.112 1.107 6.673 9.73.554 8.623-.277 14.181-.277 15.016 0 .838-.553 1.115-1.253.138-.697-.973-3.058-4.165-4.316-4.858-1.246-.7-2.077-.561-3.192.273-1.112.835-2.785 2.5-3.477 3.335l3.2 1.95zm-22.39 27.182c-1.042 0-7.3.489-8.619 0-1.323-.484-2.177-2.003-1.25-2.642 1.108-.765 3.265.212 5.42.212 2.157 0 4.45-.554 5.007-.212.554.35 1.323.212 1.323 2.854l-1.88-.212zm-15.157 38.169c-1.808-1.108-3.9-6.262-4.312-16.546-.134-3.477 1.258-9.32 2.366-12.093 1.111-2.784-.696-1.673-1.108-.7-.423.973-1.811 4.87-2.23 7.785-.412 2.923-1.112 7.23 0 13.489 1.115 6.257 1.672 8.203 1.946 9.319l3.338-1.254z" fill="#FFF" fill-rule="nonzero"/><path d="M252.833 85.57c1.88.208 3.965.07 4.453-1.25.485-1.32.066-2.158-.557-2.435-.627-.277-.904-.207-.627-1.461.277-1.25 1.185-1.108 1.115-3.058-.073-1.946-1.53-2.015-2.853-1.592-1.32.411-1.808 1.034-3.062 2.704-1.246 1.669-.692-1.112-.485-1.6.197-.45.697-3.654-1.019-4.231-.965.484-1.92.965-2.834 1.438-.3.612-.535 1.327-.804 2.031-.696 1.808-1.543.45-2.158-.42 0-.003-.008-.007-.012-.01-1.854 1.026-3.477 1.988-4.711 2.792-.135.088-.28.188-.416.277.166 1.096 1.485 2.484 2.223 2.992.904.627.343 1.808-.765 1.808-1.115 0-2.504-.762-3.896.9-1.392 1.673-.488 3.273.839 3.273 1.319 0 2.43.484 2.919 2.011.484 1.531.904 2.162 2.711 2.366 1.804.207 2.846-1.181 3.335-2.016.488-.834 1.115-2.015 1.877-1.734 1.134.411.992 1.603.646 2.873a58.081 58.081 0 014.065-2.185c-.227-1.177-.927-2.262-1.442-2.777-.627-.627-.423-.904 1.458-.696m15.506-20.162c-.642.15-1.327.33-2.011.527.33 1.588.973 3.63.623 3.923-.42.346-2.02.627-3.27.969-1.25.35-4.242 3.135-2.711 5.146 1.527 2.02 2.015 3.2 2.296 4.246.273 1.043 2.777 2.293 4.512.204 1.742-2.08 3.061-4.377 3.484-2.92.35 1.228.254 4.193.012 5.786.361-.074.727-.15 1.096-.224.696-7.78-1.242-13.346-4.03-17.657m-38.173 37.335c-.97-.762-1.25-1.946-.073-2.293 1.188-.35 2.788-.627 5.707-1.877 2.916-1.253 1.389-3.407.074-3.965-1.323-.558-1.47-1.804-1.323-3.13.138-1.32-.212-3.262-2.785-2.29-2.57.97-1.673 3.474-2.43 4.309-.77.834-1.182.553-1.047-.693.142-1.254-.97-2.088-1.596-2.369-.493-.211-1.558-.465-2.47-.538-2.66 2.4-5.096 4.911-6.942 7.403.416.858 1.389 1.812 1.9 1.966.7.211 1.743.7 1.666 2.088-.058 1.173-2.704 1.254-4.443 1.296 1.227 3.323 2.477 5.681 4.22 7.566.388-.112.907-.289 1.619-.589 2.154-.904 2.846-4.173 3.196-5.146.35-.973 1.254-.765 1.88.489.44.877.597 1.684.659 2.473a126.685 126.685 0 013.584-3.454 16.16 16.16 0 00-1.396-1.246m36.918 83.08c.415-.069-.696-5 .215-5.211.9-.208 1.312 2.711 3.261 2.361 1.95-.346 2.435-2.288 2.158-4.446-.277-2.157.973-.973 1.95-2.503.966-1.528-1.119-3.612-3.484-2.154-2.362 1.457-1.943-.489-.689-1.25 1.254-.77.346-3.547-2.296-2.647-1.911.658-2.877-.58-3.792-1.103a45.46 45.46 0 00-2.104.88c-.154.539-.03 1.193.127 1.893.2.892.623 3.2-.835 2.227-1.273-.847-2.992-1.324-3.477.276-.488 1.6.485 1.743.346 2.712-.142.973-2.642 1.18-1.461 3.196 1.18 2.016 2.923.908 4.107.143 1.181-.766 2.293.138 1.878 1.18-.331.812-.985 3.55-1.031 5.354.554.366 1.134.758 1.742 1.189.696-.7 2.008-1.858 3.385-2.096m-37.887-4.793c1.038-.277 3.057 1.873 4.865.623 1.812-1.25-.765-2.5-.415-3.546.346-1.042 1.18-3.058-.073-4.03-1.25-.974-2.574-.07-3.889 1.392-1.327 1.457-.838-1.327-.142-2.504.904-1.531 0-2.577-1.53-2.854-1.532-.277-2.016 1.877-3.059.904-1.657-1.543-4.242-.904-3.615 1.254.627 2.157 1.315 2.85 0 3.127-1.32.277-2.573-3.197-4.1-.412-1.535 2.773.9 3.611.692 5.7-.207 2.085.627 4.308 1.877 4.515 1.254.212 2.57-1.18 3.266-2.011.7-.835 2.365-1.462 2.157.135-.146 1.103-.219 3.396-.261 4.715 2.561-1.246 5.304-2.546 6.796-3.046a4.795 4.795 0 00.184-.07c-.696-.28-1.684-.742-2.615-1.392-1.392-.973-1.18-2.22-.138-2.5m-30.803 63.338c3.2-.974 3.338 1.53 2.92 3.615-.416 2.084-.416 6.534-.278 8.757l5.281.285c-.277-1.396 0-5.43.142-7.788.135-2.37 2.504-5.985 3.339-2.37.834 3.62 4.446 3.758 6.95 2.227 2.504-1.53 4.315-4.865 6.954-9.596 2.646-4.727-.831-5.98-2.92-5.7-2.084.277-4.173.554.558-3.334 4.396-3.623-3.004-5.443-6.404-6.123-5.603 5.884-12.492 12.55-18.627 17.8a138.16 138.16 0 00-2.215 1.934c.735.423 2.177.935 4.3.292m-5.563 35.042c2.643-.838 4.312 4.866 8.204 1.527 3.896-3.334 1.112-6.115.977-8.896-.142-2.788 3.058-3.896 2.089-7.37-1.489-5.3-6.404-.28-9.462 2.64-3.058 2.919-3.196.553-.135-4.166 3.058-4.73-1.95-6.261-5.007-5.008-2.72 1.108-5.216.023-6.812-1.404-1.177 1.881-2.038 3.62-2.923 5.435-2.642 5.423-.834 5.558 1.116 5.558 1.942 0 6.115 8.207 6.669 9.73.196.547 1.623 2.631 3.515 5.297-.111-1.316.142-2.831 1.77-3.343m76.062-54.789c-2.504-.553-5.754-.973-6.12 4.174-.138 1.946 1.805 3.48 3.616 4.173 1.808.692 1.527 1.942-.42 1.25-1.941-.7-3.472-1.112-4.857 2.919-1.4 4.03 1.108 4.592 2.362 4.87 1.25.276 2.219.553 1.942 2.226-.28 1.67-1.112 6.53 2.085 6.95 3.2.416 5.977-3.477 6.954-5.423.977-1.946 2.08-3.896 2.365-1.67.277 2.228-.142 3.335-1.25 5.84-1.115 2.503-1.115 3.619.554 3.48 1.669-.146 4.45 0 5.284-1.954.835-1.942 2.089-5.696 2.227-8.338.081-1.654 1.531-1.839 2.604-1.743a156.667 156.667 0 011.15-7.992c-5.458.815-10.104-5.85-11.72-11.62-1.857 2.02-4.587 3.347-6.776 2.858m-26-.97c-.978 1.665-3.755 6.395-2.508 7.926 1.253 1.527 2.642-1.53 3.757-.415 1.116 1.111 3.616 2.358 3.616 1.527 0-.835.277-2.504.696-4.727.419-2.227 1.388-3.477 2.361-1.67.973 1.804 2.362 3.335 5.839 2.5 3.477-.83 3.061-4.45 2.365-7.088-.7-2.642 1.812-3.896 3.062-4.588 1.25-.696 4.45-3.2 2.088-5.423-2.365-2.227-4.454.973-6.538 1.384-2.089.423-1.254-1.384 3.057-4.723 3.723-2.88.608-5.761-1.657-6.758-5.989 6.024-16.593 15.8-18.923 18.024-.835.8-1.554 1.734-2.227 2.861 5.596-2.604 5.93-.411 5.011 1.17m34.482 55.898c1.808 1.673 6.123 4.035 9.177 1.25 3.065-2.78-.696-5.842-1.108-8.061-.423-2.231 2.223-3.623.831-7.231-2.415-6.296-5.977 1.25-8.07 3.334-2.08 2.085-1.734-1.457.143-3.334.977-.977 5.289-3.62 2.781-6.539-2.504-2.919-6.115-1.253-7.923 0-1.812 1.254-3.2 2.781-5.98 1.947s-5.147-1.112-6.812 2.923c-1.673 4.027 1.527 2.919 4.165 5.834 2.646 2.92.98 3.066-1.104 2.37-2.092-.697-3.061-3.339-6.123-2.927-3.062.419-3.062 5.292-2.085 6.542.977 1.25 2.916 1.946 1.527 4.308-1.384 2.365.696 5.146 3.196 6.257 2.508 1.112 6.254-3.338 7.654-5.146 1.389-1.808 2.773-1.388 2.496 0-.23 1.196-.884 4.342-.976 6.97a152.73 152.73 0 016.227-1.855c-.004-1.461-.32-3.811-.935-6.08-.835-3.062 1.115-2.231 2.92-.562m-36.152 14.881c-3.339.97-3.896-.561-6.12-1.392-2.223-.83-2.369 1.108-.838 3.473 1.534 2.366 3.2 4.589 1.392 4.589s-3.196.28-3.477 1.673c-.277 1.384-3.196-.277-3.892-3.2-.692-2.927-1.389-8.481-2.92-5.704-1.526 2.777-2.919 7.373-6.81 5.288-3.897-2.084-1.255-4.869-3.2-6.819-1.947-1.946-3.755-4.446-1.808-7.923 1.95-3.477 3.615-.558 5.423-.558 1.807 0 2.088-1.669.419-2.919-1.67-1.25-3.758-7.23 3.892-6.811 2.946.161 6.12-.835 8.62-2.643 2.5-1.811 9.042-.838 6.4 3.758-2.647 4.585-1.808 5.558-.281 3.888 1.53-1.673 3.477-4.723 6.396-3.888 2.923.83 1.669 3.054-.139 5.558-1.807 2.504-.696 4.173.693 5.142 1.392.977 3.954 6.235-3.75 8.488m14.186-32.82c-2.507.139-5.57-.557-5.57-.557-.276 2.642-2.841 6.427-5.418 10.292-.281.42-1.808.42-2.508-.142-.688-.554-2.635-1.531-1.111-3.2 1.534-1.662 4.034-5.143 3.619-6.67-.42-1.53-1.527-2.919-3.196-.834-1.67 2.085-4.312 6.396-7.231 6.538-2.927.135-5.839-2.507-4.454-5.15 1.392-2.638 1.808-4.03-.139-6.4-1.946-2.361-1.219-5.384 2.924-7.227 1.25-.553 3.473 0 5.003 1.25 1.527 1.254 2.366 0 .277-1.25-2.088-1.25-3.754-2.78-4.03-5.561-.266-2.642 1.392-5.42 5.007-3.892 3.612 1.527 5.839.277 7.37-.973 1.526-1.254 8.05-2.816 7.092 2.923-.7 4.165-2.639 4.307-3.204 6.53-.55 2.223 1.111.835 2.088-.83.973-1.673 3.2-8.5 7.785-3.343 1.115 1.254.7 3.343-.696 5.704-1.389 2.366-.277 3.754.557 5.004.839 1.254 2.774 7.4-4.165 7.788" fill="#008348" fill-rule="nonzero"/><path fill="#FFF" fill-rule="nonzero" d="M370.112 151.024l4.246-3.011 9.204 13.669 5.42-3.842-9.478-13.393 4.12-2.911 10.084 14.138 5.427-3.846-14.977-20.992-24.638 17.461 13.588 19.32 5.423-3.843zm17.807 47.469l8.058-3.727-5.55-12.058 18.873-7.861-3.427-7.554-26.658 11.596zm4.8 12.75l.84 7.434 17.891-2.104.7 7.754 8.008-.592-2.227-26.004-8.015.592.692 10.815zm.902 25.36l.111 8.862 26.3-.081-.107-8.858zm12.354 21.387c-4.408-.847-9.627-.12-13.281 2.65-3.28 2.492-4.808 4.992-5.677 9.53-.546 2.877-.104 6.654.85 9.962l6.95-2.33c-.67-1.6-.95-4.032-.227-6.493 1.408-4.754 5.27-6.896 9.985-6.2 5.004.735 7.854 5.323 6.95 10.785-.35 2.176-1.435 4.061-3.912 5.542l4.304 5.184c3.504-2.146 6.158-6.373 6.727-9.342.965-5.004-.227-8.458-2.546-12.52-2.258-3.96-6.077-5.995-10.123-6.768m-4.823 36.741c-3.673-.942-8.677 3.093-11.088 5.412-1.393 1.338-6.25 6.234-8.493 5.477-2.008-.674-1.396-3.739-.715-5.743.984-2.923 2.496-5.38 4.846-6.961l-4.354-1.931c-2.115 1.77-4.473 4.623-5.442 7.496-1.12 3.316-1.581 7.196-1.108 9.666.608 3.18 1.72 5.207 5.315 4.88 2.77-.257 9.723-4.773 13.735-8.561 2.035-1.916 3.77-2.123 4.673-1.62 1.47.812 1.377 3.316.85 4.885-.707 2.096-1.715 5.3-3.384 6.485l5.942 3.988c2.427-2.438 3.685-6.104 4.396-9.53 1.727-8.277-2.758-13.32-5.173-13.943m-33.027-174.565c-.515-4.073-2.765-8.757-5.054-10.738-3.538-3.073-7.727-3.896-12.18-3.32-4.52.593-8.724 3.493-11.097 6.866-2.584 3.666-4.069 8.723-3.042 13.196.915 4.012 2.57 6.435 6.35 9.093 2.396 1.688 6.02 2.834 9.427 3.323l.735-7.293c-1.735-.046-4.07-.792-6.008-2.465-3.758-3.242-3.935-8.365-1.55-11.646 2.969-4.096 8.15-4.973 12.757-1.904 1.839 1.216 2.566 3.185 2.893 6.062l6.769-1.173zM99.127 271.684c.189-1.988.077-5.623 2.231-6.077 2.077-.438 3.446 1.577 3.885 3.646.638 3.02 1.488 5.37.273 7.931l5.6-.588c.919-2.596.634-6.07.007-9.031-.727-3.43-1.819-5.838-4.342-8.077-2.427-2.154-4.254-2.715-7.792-1.97-2.158.459-6.008 4.316-6.143 12.074-.023 1.473-.373 4.285-1.696 4.35-1.684.088-2.927-1.915-3.265-3.535-.462-2.165.161-6.907.988-8.777l-5.861-.026c-.85 3.33-1.177 8-.454 11.426 1.596 7.55 6.173 10.02 9.888 9.612 3.974-.438 6.058-4.585 6.681-10.958M87.401 239.83l20.765-.258-.1-6.523-20.765.257-.085-8.85-6.646.074.265 24.78 6.647-.073zm37.502-65.18l-16.031-9.247.042-.077 21.231-.353 5.065-7.82-26.161-15.084-3.954 6.15 17.85 11.211-24.342.693-3.396 6.569 25.742 14.942zm-25.965 15.174c4.619 0 8.373 3.746 8.373 8.37 0 4.622-3.754 8.372-8.373 8.372a8.372 8.372 0 01-8.373-8.373 8.369 8.369 0 018.373-8.37m0 24.443c8.877 0 16.073-7.196 16.073-16.073 0-8.873-7.196-16.073-16.073-16.073-8.881 0-16.073 7.2-16.073 16.073 0 8.877 7.192 16.073 16.073 16.073m10.358 98.05c-4.623 0-8.373-3.753-8.373-8.376 0-4.623 3.75-8.37 8.373-8.37a8.37 8.37 0 018.37 8.37c0 4.623-3.75 8.377-8.37 8.377m16.074-8.377c0-8.877-7.197-16.07-16.073-16.07-8.881 0-16.074 7.193-16.074 16.07 0 8.88 7.193 16.077 16.073 16.077 8.877 0 16.074-7.197 16.074-16.077m14.113 37.478l-.553-.665c-1.773-2.127-7.762-8.466-5.289-10.793 2.258-2.123 7.95 5.104 9.562 7.031l.688.839-4.407 3.588zm-9.873 8.915c-2.123-2.542-8.454-7.519-5.75-10.065 2.577-2.423 8.927 5.32 9.716 6.266l-3.966 3.8zm-.977-28.034c-2.465 2.188-3.657 7.385-1.33 10.904-2.535-1.235-7.646-1.658-9.993.38-5.784 5.024 1.231 12.281 6.993 18.035l8.03 7.93 21.343-17.653-8.642-10.05c-3.031-3.808-11.408-13.961-16.4-9.546z"/><path d="M223.633 405.387c.904-.415 2.158-.973 2.716-.554.554.415 3.885 2.78 5.977 4.592 2.08 1.804 2.777 2.362 1.111 3.335-1.669.97-3.203 1.946-2.919 1.108.277-.827.692-2.081-.423-3.193-1.108-1.115-3.838-3.223-5.004-4.173-.761-.627-1.457-1.115-1.457-1.115m-7.858 2.298c-.696.627-.835 1.67 0 2.5.834.835 5.492 4.727 6.257 5.497.766.761 1.877 1.046 3.127.761 1.254-.28-1.457 1.53-2.503 1.739-1.035.203-2.22.203-3.331-.835-1.12-1.042-7.373-6.954-8.623-8.135-1.254-1.18.346-1.18 1.457-1.315 1.116-.138 2.085-.073 3.616-.212M246.16 76.116c.262-.677.485-1.42.773-2.015a133.991 133.991 0 00-2.915 1.565c.615.87 1.45 2.246 2.142.45m25.102 1.388c-.42-1.458-1.743.839-3.481 2.92-1.735 2.088-4.243.838-4.516-.204-.277-1.047-.765-2.227-2.296-4.247-1.53-2.011 1.462-4.796 2.712-5.146 1.25-.342 2.854-.623 3.269-.969.354-.292-.277-2.342-.615-3.927-5 1.427-11.097 4.039-16.477 6.692 1.638.627 1.154 3.808.961 4.254-.211.489-.765 3.27.485 1.6 1.254-1.669 1.742-2.292 3.057-2.704 1.324-.423 2.781-.353 2.858 1.593.066 1.95-.838 1.807-1.115 3.057-.28 1.254 0 1.185.627 1.462.623.277 1.038 1.115.554 2.435-.489 1.319-2.573 1.457-4.454 1.25-1.877-.208-2.085.069-1.454.696.504.511 1.188 1.623 1.434 2.784 4.524-2.188 9.997-4.019 18.474-5.761.23-1.604.319-4.573-.023-5.785M227.32 104.97c-.627-1.254-1.53-1.462-1.877-.488-.354.973-1.046 4.242-3.2 5.142a13.576 13.576 0 01-1.63.58 15.696 15.696 0 002.534 2.205 246.07 246.07 0 014.82-4.962c-.058-.773-.22-1.62-.647-2.477m20.784-16.617c-.762-.276-1.389.904-1.877 1.735-.485.835-1.527 2.227-3.33 2.02-1.812-.208-2.232-.835-2.716-2.366-.489-1.527-1.6-2.016-2.92-2.016-1.322 0-2.226-1.6-.834-3.269 1.392-1.665 2.78-.903 3.892-.903 1.108 0 1.67-1.181.766-1.808-.72-.496-1.981-1.916-2.2-3.008-3.966 2.608-9.65 6.642-14.608 11.112.896.077 1.942.377 2.415.588.627.277 1.739 1.112 1.6 2.366-.138 1.246.277 1.53 1.043.692.761-.831-.139-3.339 2.43-4.308 2.577-.973 2.927.97 2.785 2.289-.146 1.326 0 2.573 1.323 3.13 1.316.558 2.846 2.712-.073 3.966-2.92 1.25-4.52 1.53-5.704 1.88-1.18.343-.9 1.527.07 2.289.596.47 1.022.923 1.369 1.273 3.677-3.415 7.154-6.208 11.08-8.85 2.15-1.442 4.112-2.746 6.154-3.946.335-1.25.454-2.462-.665-2.866m-27.256 13c.077-1.389-.965-1.877-1.665-2.085-.508-.158-1.462-1.142-1.881-1.988a24.047 24.047 0 00-1.804 2.754c.304.934.608 1.8.904 2.615 1.742-.042 4.388-.13 4.446-1.296m58.755 64.868c-4.553-.288-9.973.635-15.15 2.63.904.54 1.87 1.766 3.747 1.124 2.642-.904 3.55 1.877 2.296 2.646-1.254.762-1.673 2.704.692 1.246 2.362-1.457 4.446.627 3.48 2.158-.976 1.527-2.226.346-1.95 2.5.278 2.158-.207 4.104-2.157 4.45-1.946.35-2.361-2.57-3.261-2.361-.912.207.204 5.142-.216 5.211-1.357.23-2.654 1.408-3.354 2.115.058.039.104.073.154.112 7.658 5.496 9.596 2.504 10.712-.139 1.111-2.642 3.584-10.473 4.308-14.6.423-2.365.976-4.865.7-7.092m-16.617 15.157c.415-1.042-.696-1.946-1.873-1.184-1.189.77-2.93 1.877-4.112-.139-1.177-2.019 1.32-2.223 1.462-3.196.138-.973-.835-1.111-.346-2.711.484-1.6 2.207-1.123 3.48-.281 1.458.977 1.031-1.33.831-2.223-.154-.677-.261-1.362-.138-1.889a40.955 40.955 0 00-4.381 2.304c-7.146 4.373-7.37 8.066-5.704 9.458 1.496 1.242 4.554 1.827 9.75 5.22.054-1.805.708-4.555 1.03-5.358m-22.734-4.175c-2.958-1.474-5.846-4.728-7.788-8.481 0 0 .138-.554-.697-.554-.83 0-3.896-.28-9.038-2.089-5.146-1.804-5.839-.692-6.53 1.531-.7 2.223-1.259 6.258-1.397 12.935-.138 6.673 2.78 10.842 4.592 10.146.877-.342 3.15-1.47 5.585-2.654.034-1.327.107-3.623.254-4.715.207-1.597-1.458-.97-2.158-.135-.696.83-2.011 2.223-3.265 2.012-1.25-.208-2.085-2.431-1.877-4.516.207-2.088-2.227-2.923-.693-5.7 1.527-2.784 2.781.693 4.1.412 1.316-.277.627-.97 0-3.127-.627-2.158 1.958-2.796 3.616-1.254 1.042.977 1.527-1.18 3.057-.904 1.531.28 2.435 1.323 1.531 2.854-.696 1.18-1.184 3.962.142 2.504 1.316-1.462 2.639-2.365 3.889-1.389 1.254.97.42 2.985.073 4.027-.35 1.046 2.227 2.3.415 3.546-1.807 1.25-3.827-.9-4.865-.623-1.042.281-1.254 1.531.138 2.504.908.635 1.858 1.131 2.558 1.412 2.896-.985 6.285-2.885 7.385-3.57l1.807.143c.139-2.365 0-3.896-.834-4.315m-10.292 30.594c-1.111-2.504-1.5-.58-4.588 4.312-1.562 2.473-5.508 7.057-10.446 12.238 3.423.692 10.796 2.504 6.415 6.12-4.73 3.888-2.642 3.61-.558 3.33 2.089-.28 5.566.973 2.92 5.704-2.639 4.73-4.45 8.061-6.954 9.596-2.504 1.527-6.116 1.389-6.95-2.227-.835-3.615-3.204 0-3.339 2.366-.142 2.361-.419 6.396-.142 7.788l-5.28-.28c-.14-2.228-.14-6.678.276-8.762.42-2.081.281-4.589-2.919-3.616-2.089.639-3.52.1-4.262-.327-6.215 5.531-9.357 9.35-11.465 12.72 1.596 1.415 4.127 2.48 6.827 1.377 3.058-1.254 8.07.277 5.008 5.007-3.062 4.72-2.92 7.085.134 4.166 3.062-2.92 7.977-7.939 9.462-2.639.97 3.473-2.227 4.585-2.089 7.37.139 2.78 2.923 5.56-.973 8.9-3.892 3.334-5.561-2.37-8.204-1.531-1.592.507-1.915 1.973-1.827 3.273 3.462 4.896 8.5 11.819 10.308 14.796 2.785 4.596 2.785 10.161 3.892 9.323 1.112-.838 3.758-3.342 4.593-4.03.834-.697 1.665-1.532 1.25-3.062-.416-1.527-2.016-9.731-1.527-15.435.554-6.535 3.611-13.696 5.838-17.796 2.139-3.946 8.62-16.55 10.15-19.889 1.531-3.334 4.312-7.227 5.008-10.288.692-3.062 3.335-10.15 4.45-13.488-.277-2.781-2.073-8.408-5.008-15.016m20.857-31.012a340.554 340.554 0 01-2.5 6.4c-.557 1.393-3.119.85-2.923-.142.42-2.084-2.554-.704-2.223-2.361.277-1.393-.277-3.62 1.25-3.62 1.53 0 4.454-.277 6.396-.277" fill="#BB9753" fill-rule="nonzero"/><path d="M246.16 76.116c.262-.677.485-1.42.773-2.015a133.991 133.991 0 00-2.915 1.565c.615.87 1.45 2.246 2.142.45m9.251 185.494c-2.507.139-5.57-.557-5.57-.557-.276 2.642-2.841 6.427-5.418 10.292-.281.42-1.808.42-2.508-.142-.688-.554-2.635-1.531-1.111-3.2 1.534-1.662 4.034-5.143 3.619-6.67-.42-1.53-1.527-2.919-3.196-.834-1.67 2.085-4.312 6.396-7.231 6.538-2.927.135-5.839-2.507-4.454-5.15 1.392-2.638 1.808-4.03-.139-6.4-1.946-2.361-1.219-5.384 2.924-7.227 1.25-.553 3.473 0 5.003 1.25 1.527 1.254 2.366 0 .277-1.25-2.088-1.25-3.754-2.78-4.03-5.561-.266-2.642 1.392-5.42 5.007-3.892 3.612 1.527 5.839.277 7.37-.973 1.526-1.254 8.05-2.816 7.092 2.923-.7 4.165-2.639 4.307-3.204 6.53-.55 2.223 1.111.835 2.088-.83.973-1.673 3.2-8.5 7.785-3.343 1.115 1.254.7 3.343-.696 5.704-1.389 2.366-.277 3.754.557 5.004.839 1.254 2.774 7.4-4.165 7.788m-14.184 32.82c-3.343.969-3.897-.558-6.123-1.393-2.224-.83-2.366 1.108-.835 3.473 1.53 2.366 3.2 4.593 1.392 4.593-1.807 0-3.2.277-3.477 1.669-.277 1.388-3.196-.277-3.892-3.2-.696-2.927-1.388-8.48-2.923-5.7-1.527 2.773-2.92 7.37-6.812 5.285-3.892-2.085-1.25-4.87-3.2-6.82-1.942-1.946-3.75-4.446-1.803-7.923 1.946-3.477 3.615-.557 5.423-.557s2.084-1.666.419-2.92c-1.673-1.25-3.758-7.227 3.888-6.811 2.95.161 6.12-.835 8.623-2.642 2.5-1.812 9.039-.835 6.397 3.757-2.643 4.585-1.808 5.558-.281 3.893 1.534-1.677 3.477-4.727 6.4-3.893 2.919.83 1.669 3.054-.139 5.558-1.807 2.508-.696 4.173.693 5.142 1.392.977 3.95 6.235-3.75 8.489m49.361-24.896c-3.615-5.974-4.312-8.339-4.87-14.458-.35-3.862-.034-8.881.524-13.704-1.07-.085-2.523.12-2.604 1.742-.138 2.646-1.392 6.396-2.227 8.343-.834 1.953-3.615 1.807-5.284 1.953-1.67.139-1.67-.977-.554-3.48 1.107-2.504 1.527-3.616 1.246-5.839-.28-2.227-1.385-.277-2.362 1.67-.977 1.946-3.753 5.834-6.953 5.422-3.197-.419-2.366-5.28-2.085-6.953.277-1.67-.692-1.946-1.942-2.227-1.254-.273-3.762-.835-2.366-4.866 1.389-4.034 2.92-3.619 4.862-2.923 1.946.696 2.227-.554.415-1.246-1.808-.692-3.75-2.227-3.611-4.173.365-5.15 3.611-4.727 6.119-4.173 2.177.48 4.923-.827 6.788-2.82-.038-.126-.084-.253-.111-.384-3.712-14.15 3.33-31.561 5.277-36.427 1.95-4.865 9.457-18.561 12.03-22.665a832.757 832.757 0 01-7.092-3.616c-2.011-1.038-3.127-1.527-3.684-.761-.558.761-1.254 1.177-2.224 2.57-1.953 2.788-.277 2.365.277 2.365.558 0 2.92 3.057 3.343 3.757.415.693 0 1.246-.977 3.47-1.277 2.91-2.085 9.6-3.196 13.63-3.37 12.212-8.623 10.985-10.989 9.458-2.365-1.535-3.058.835-5.423 4.17-.565.791-1.98 2.31-3.85 4.191 2.265 1.012 5.33 3.927 1.627 6.793-4.312 3.338-5.15 5.146-3.062 4.727 2.085-.416 4.173-3.616 6.539-1.389 2.365 2.227-.835 4.727-2.089 5.423-1.25.696-3.757 1.946-3.061 4.589.696 2.638 1.115 6.257-2.365 7.092-3.474.835-4.862-.696-5.835-2.504-.977-1.807-1.946-.557-2.365 1.67-.416 2.222-.693 3.892-.693 4.726 0 .831-2.504-.411-3.62-1.527-1.11-1.115-2.5 1.943-3.757.416-1.242-1.531 1.531-6.262 2.512-7.927.915-1.573.53-3.754-4.996-1.196-1.789 2.996-3.208 7.338-5.439 14.127-3.057 9.323-9.984 22.011-12.861 26.63-7.489 12.039-8.827 23.431-7.712 30.523 1.104 7.054 2.08 6.531 3.612 6.531 1.53 0 5.284 4.727 7.784 7.654 2.504 2.92 3.481 1.666 4.731.689 4.02-3.123 12.092-8.343 23.496-13.762 4.866-2.311 11.343-4.777 17.662-6.8.096-2.62.738-5.777.969-6.965.277-1.393-1.108-1.812-2.496 0-1.4 1.804-5.146 6.254-7.654 5.142-2.5-1.112-4.58-3.892-3.196-6.258 1.388-2.361-.55-3.057-1.527-4.307-.977-1.25-.977-6.123 2.085-6.543 3.061-.411 4.03 2.231 6.123 2.927 2.084.696 3.75.55 1.103-2.37-2.638-2.914-5.838-1.807-4.165-5.834 1.665-4.034 4.03-3.753 6.812-2.923 2.78.835 4.169-.692 5.98-1.946 1.808-1.254 5.42-2.92 7.923 0 2.508 2.92-1.803 5.562-2.78 6.539-1.877 1.877-2.223 5.419-.143 3.334 2.093-2.084 5.65-9.63 8.07-3.334 1.392 3.607-1.254 5-.831 7.23.411 2.22 4.173 5.281 1.108 8.062-3.054 2.785-7.37.423-9.177-1.25-1.804-1.67-3.754-2.5-2.92.561.612 2.25.923 4.62.931 6.081 6.085-1.684 11.385-2.707 14.08-2.47 3.974.355 6.959 1.528 6.82-2.087-.138-3.616-2.084-6.12-5.7-12.1m-82.401 110.958c-.612 0-1.938-.215-1.938-.78l-1.604-.178c.969.196 1.853 1.308.83 2.004-1.111.777-4.657 1.196-8.403.977-3.754-.2-4.67-2.239-4.735-3.715-.046-.977.065-1.831.065-3.239 0-1.4-.334-2.67.497-3.23.826-.558.623.838 1.173.838 2.373 0 10.573.777 12.523 1.061 1.957.273 1.819-.888 1.384-2.192-.13-.423-.68-.265-.888.292-.216.562-2.023.354-2.023.354s-3.616-.354-5.966-.5c-2.373-.146-4.196-.411-5.642-.696-1.47-.292-3.285-.212-3.13.492.115.704.545 9.485.626 10.754.062 1.262.135 1.762.758 1.762 1.604 0 12.392.138 14.88.138 2.508 0 2.378-.284 2.435-1.684.073-1.412-.2-2.458-.842-2.458" fill="#BB9753" fill-rule="nonzero"/></g></svg>