<svg width="500" height="500" viewBox="0 0 500 500" xmlns="http://www.w3.org/2000/svg"><g fill="none" fill-rule="evenodd"><path d="M435.813 117.995l.032-16.904-9.978-5.04c-3.026-1.518-75.105-37.354-174.688-37.354h-4.501c-99.966 0-171.684 35.846-174.656 37.343l-10.01 5.04.032 16.565c-.807 42.457 4.48 150.303 70.73 234.42 54.075 68.711 105.9 85.01 111.622 86.634l4.978 1.422 4.958-1.39c2.229-.626 55.179-16.087 110.73-86.665 66.314-84.14 71.58-191.625 70.751-234.071" fill="#FEFEFE" fill-rule="nonzero"/><path d="M425.2 118.075c.032-3.746.032-5.858.032-5.858v-4.595l-4.162-2.101c-2.919-1.475-72.821-36.207-169.889-36.207h-4.501c-97.004 0-166.98 34.732-169.89 36.207l-4.171 2.101v4.595s0 2.112.042 5.635c-.785 41.3 4.278 146.175 68.448 227.65 52.048 66.132 100.815 81.466 106.197 82.994l2.092.605 2.07-.594c2.112-.584 51.792-15.09 105.262-83.004 64.234-81.508 69.287-186.245 68.47-227.428" fill="#2D2925" fill-rule="nonzero"/><path d="M249.394 417.878c-3.949-1.135-50.38-15.408-100.262-78.812-65.752-83.46-66.039-192.75-65.54-218.493-.032-3.62-.032-5.657-.032-5.657s.064-.031.202-.106v-.212l1.465-.69c3.492-1.591 11.273-4.998 22.547-9.04 28.014-10.252 78.193-24.641 138.924-24.641h4.427c60.625 0 110.666 14.315 138.722 24.555 11.401 4.086 19.278 7.524 22.792 9.126l1.465.669v.233c.116.075.201.106.201.106s0 2.038-.042 5.656c.51 25.744.244 135.033-65.53 218.494-50.009 63.531-95.538 77.762-99.339 78.812m102.737-76c62.843-79.778 67.79-182.53 66.962-222.993.032-3.767.032-5.847.032-5.857V111.5l-1.37-.69c-2.855-1.454-71.304-35.454-166.588-35.454h-4.49c-95.21 0-163.7 34-166.588 35.454l-1.39.69v1.528c0 .01 0 2.09.052 5.624-.775 40.61 4.193 143.48 66.984 223.226 50.752 64.486 97.789 79.3 102.98 80.765l.7.19.68-.19c2.017-.552 49.86-14.538 102.036-80.765" fill="#FEFEFE" fill-rule="nonzero"/><path d="M370.465 166.502c-23.354-24.152-26.05-28.068-26.05-38 0-9.838 4.299-11.153 8.524-11.153 2.186 0 4.893.445 8.004 1.337 16.9 4.86 16.9 14.081 16.9 20.915v9.805c0 .775.509 1.475 1.241 1.73a360.905 360.905 0 0110.403 3.693 1.88 1.88 0 001.678-.202c.499-.36.785-.912.785-1.517v-8.192c0-10.347 0-27.675-30.222-36.345-21.135-6.06-31.92.424-31.92 18.761 0 15.228 9.33 24.343 24.808 39.444l3.12 3.056c18.355 17.986 22.07 23.918 22.07 35.326 0 4.085-.615 6.95-1.879 8.744-1.305 1.825-3.375 2.663-6.528 2.663-2.452 0-5.552-.54-9.214-1.591-8.047-2.314-13.885-5.465-17.346-9.381-4.225-4.754-4.225-8.787-4.225-16.83v-8.702a1.83 1.83 0 00-1.412-1.782c-4.522-1.02-6.688-1.465-11.019-2.324a1.908 1.908 0 00-1.518.382c-.424.35-.658.87-.658 1.411v15.408c0 14.485 11.836 25.521 34.277 31.92 6.327 1.814 11.794 2.716 16.263 2.716 17.569 0 17.569-14.145 17.569-20.183 0-15.928-8.11-25.054-23.651-41.11m-47.037-65.505a402.51 402.51 0 00-67.77-6.547 1.744 1.744 0 00-1.305.52c-.35.36-.541.817-.541 1.305v7.004c0 .997.796 1.814 1.804 1.835 10.616.117 16.083.35 26.135 1.147v101.309c0 .955.712 1.75 1.667 1.836 4.437.35 6.592.562 11.061 1.04a.601.601 0 00.191.031c.457 0 .882-.17 1.221-.477.382-.35.616-.839.616-1.37V107.683c10.085 1.135 15.615 1.963 26.252 3.915a1.793 1.793 0 001.507-.403c.404-.34.648-.86.648-1.4V102.8c0-.891-.616-1.645-1.486-1.804M244.47 94.63a401.488 401.488 0 00-56.91 5.009 1.825 1.825 0 00-1.539 1.804v109.84c0 .542.245 1.051.648 1.401.34.276.764.425 1.189.425.085 0 .19 0 .276-.01a398.57 398.57 0 0156.177-4.967 1.826 1.826 0 001.794-1.825v-6.845c0-.488-.191-.976-.552-1.305-.34-.34-.86-.53-1.317-.52-17.558.297-26.942.955-43.725 3.141v-43.465c13.928-1.804 21.295-2.409 35.87-2.94.977-.042 1.773-.859 1.773-1.835v-6.696c0-.499-.202-.976-.573-1.316a1.767 1.767 0 00-1.338-.51c-14.256.531-21.942 1.147-35.498 2.898v-38.627c17.08-2.239 26.008-2.865 43.789-3.151a1.819 1.819 0 001.794-1.826v-6.844a1.828 1.828 0 00-1.858-1.836m-72.737 7.874a325.06 325.06 0 00-10.785 2.324 1.824 1.824 0 00-1.412 1.815l.88 79.894c0 5.306.139 10.177.351 14.538-10.796-27.6-22.07-56.178-33.513-85.105a1.848 1.848 0 00-2.303-1.061c-6.37 2.112-9.459 3.205-15.732 5.571a1.828 1.828 0 00-1.179 1.698v109.851c0 .605.287 1.168.786 1.507.297.213.669.33 1.05.33.203 0 .436-.043.638-.128 3.874-1.464 5.828-2.165 9.957-3.608a1.804 1.804 0 001.22-1.72c-.148-25.998-.296-51.985-.424-77.952 0-6.845-.085-10.665-.308-15.504 11.274 28.673 22.25 56.74 32.664 83.599.35.86 1.253 1.347 2.155 1.103 6.688-1.644 9.968-2.377 16.677-3.724a1.85 1.85 0 001.465-1.794v-109.84c0-.552-.255-1.072-.669-1.423a1.882 1.882 0 00-1.518-.371m138.782 248.638c-1.062.732-2.112 1.506-3.29 2.313-3.08 2.144-6.073 3.958-9.279 5.868-1.475.913-3.015 1.815-4.596 2.802-10.934 6.77-24.034 14.262-38.078 18.56-4.065 1.262-7.813 2.175-11.454 2.758-3.386.489-6.55.743-9.702.743h-.605a69.44 69.44 0 01-12.038-1.135c14.691 5.21 31.007 6.335 47.26 2.303 9.299-2.303 17.844-6.123 25.392-11.121 7.25-5.667 13.11-13.721 16.868-23.441-.16.116-.308.233-.478.35zm-74.382 28.937c9.33-1.103 17.059-3.459 25.859-7.873a141.455 141.455 0 003.8-1.942c1.072-.552 2.134-1.114 3.206-1.656a2573.77 2573.77 0 0025.18-13.35c3.407-1.824 6.815-3.777 10.116-5.655l3.875-2.154c1.497-.807 2.898-1.56 4.32-2.42.128-.085.298-.19.467-.297 1.242-4.531 2.05-9.455 2.42-14.654-9.521 4.764-23.83 8.945-44.818 13.158-26.878 5.338-53.172 2.95-76.654-6.95-15.774-6.644-23.226-15.844-26.358-20.916a80.903 80.903 0 001.943 10.834c5.18 20.46 17.738 37.173 34.192 47.997l-.074-.138 2.314 1.358c1.868 1.114 4.193 2.08 6.921 2.865 5.128 1.528 10.17 2.282 15.456 2.282 2.484 0 5.075-.17 7.835-.489zm83.766-34.434c-.064-.33-.138-.34-.308-.34-.255 0-.817.117-1.964.85-.201.158-.424.296-.658.455-.19.128-.393.255-.562.382a72.295 72.295 0 01-7.845 15.058 80.664 80.664 0 0011.581-15.758h-.106l-.138-.647zm3.132-20.279c-.287.202-.552.403-.839.616-.446.329-.902.668-1.39.997-.383 5.189-1.349 10.325-2.814 15.291 2.57-.902 3.45.138 3.716.732l.063.266a80.49 80.49 0 008.185-26.742c-1.306 3.141-3.429 6.41-6.921 8.84zm-1.975-4.446c.202-.149.404-.297.584-.425 6.879-4.775 8.652-12.532 8.896-13.805 0-6.505-.796-13.106-2.484-19.696-.064-.265-.128-.52-.213-.785-.626 6.049-3.609 11.652-8.874 16.66a79.884 79.884 0 012.091 18.05zm-122.491 9.89c19.383 6.388 30.147 8.436 44.298 8.436 5.148 0 11.008-.308 18.47-.923 20.669-1.783 42.462-8.606 54.171-14.284a101.444 101.444 0 00-1.55-17.18c-3.47 2.101-7.399 3.088-12.24 3.088-4.861 0-10.742-.923-20.285-3.215-11.274-2.674-27.41-12.278-41.634-20.735-7.802-4.659-15.17-9.052-21.273-12.055-23.227-11.482-36.411-9.869-39.925-9.115-8.29 13.784-12.463 29.999-11.39 46.701 1.56 2.229 9.511 12.087 31.358 19.282zm11.846-66.44c7.898 3.3 18.259 8.85 29.203 14.74 17.272 9.274 35.138 18.878 47.229 21.881 10.774 2.664 19.617 2.43 25.827-.69-.021-.116-.043-.244-.074-.35a9.566 9.566 0 00-.298-1.326c-5.244-22.009-32.801-70.196-80.528-70.196a69.82 69.82 0 00-6.104.286c-18.45 5.349-33.64 16.671-43.927 31.326 1.741-.552 4.023-1.05 7.123-1.05 5.828 0 13.078 1.803 21.55 5.38zm106.972 32.472a17.203 17.203 0 002.983-4.202c5.764-11.079.595-23.494-1.571-27.813-16.05-26.466-46.347-42.054-77.939-39.02 32.707 1.762 64.394 31.019 76.527 71.035z" fill="#FEFEFE" fill-rule="nonzero"/><path d="M281.146 323.2c0-5.954 0-14.804-7.048-21.67a22.59 22.59 0 001.91-4.34c1.179-3.544 1.274-7.428 1.21-9.954l-.031-16.384v-.255c-.191-6.09-1.115-12.532-6.094-18.124-4.469-5.03-11.188-7.672-19.447-7.672l-22.25.053c-2.42 0-4.83.944-6.603 2.716-1.709 1.73-2.728 4.086-2.728 6.58l.212 107.601c0 3.194 1.635 6.166 4.374 7.81a9.691 9.691 0 005.042 1.422l22.622-.042c8.174-.021 15.01-2.345 20.35-6.94l.074-.043c7.462-6.696 8.259-14.58 8.45-22.125v-.085l-.043-18.549z" fill="#FEFEFE" fill-rule="nonzero"/><path d="M251.172 296.615c-1.911.541-2.835.7-6.985.849l-4.13.01c-.711.022-.902-.318-.902-.859l-.043-34.583c0-.552.191-.881.775-.945h6.91c3.058.096 6.455.191 8.642 1.539 1.019.615 1.624 1.358 1.996 2.345.297 1.03.594 2.812.764 5.858l.042 13.392c-.042.222-.042.573-.042 1.018-.106 3.46-.17 9.328-7.028 11.376zm7.813 55.87c-1.667 1.178-3.684 1.868-8.864 2.059 0 0-8.885.021-9.575.021-.797 0-1.115-.488-1.115-1.252 0-6.548-.085-42.627-.085-42.935 0-.34.085-.796.775-.796.669 0 4.469-.042 4.469-.042 4.713.233 9.639.594 12.845 2.62 1.847 1.126 3.1 2.696 3.896 4.808.71 2.165.849 4.552.849 6.78l.032 15.918c0 7.259-.457 10.676-3.227 12.82zm16.39-28.545c0-6.028 0-13.381-6.263-18.57-1.306-1.094-2.877-2.038-4.735-2.791 2.898-1.953 4.883-4.638 5.977-8.012 1.008-3.024.955-6.76.923-8.224l-.042-17.085c-.17-4.733-.68-10.123-4.512-14.495-3.386-3.757-8.524-5.688-15.042-5.667l-23.195.064c-.69 0-1.337.265-1.868.785-.52.488-.754 1.146-.754 1.825l.202 112.282c0 .891.456 1.782 1.242 2.239a2.836 2.836 0 001.475.414l23.61-.064c2.494 0 10.19-.021 16.602-5.486 5.68-5.136 6.252-11.195 6.422-18.008l-.042-19.207z" fill="#2D2925" fill-rule="nonzero"/><path d="M0 0h500v500H0z"/></g></svg>