<svg width="500" height="500" viewBox="0 0 500 500" xmlns="http://www.w3.org/2000/svg" xmlns:xlink="http://www.w3.org/1999/xlink"><defs><path id="a" d="M.003 437.62h430.426V.02H.003z"/><path id="c" d="M0 437.654h430.429V.048H0z"/><path id="e" d="M0 437.654h430.429V.048H0z"/><path id="g" d="M0 437.654h430.429V.048H0z"/><path id="i" d="M0 437.654h430.429V.048H0z"/><path id="k" d="M0 437.654h430.429V.048H0z"/><path id="m" d="M0 437.654h430.429V.048H0z"/><path id="o" d="M0 437.654h430.429V.048H0z"/><path id="q" d="M0 437.654h430.429V.048H0z"/><path id="s" d="M0 437.654h430.429V.048H0z"/><path id="u" d="M0 437.654h430.429V.048H0z"/><path id="w" d="M0 437.654h430.429V.048H0z"/><path id="y" d="M0 437.654h430.429V.048H0z"/><path id="A" d="M0 437.654h430.429V.048H0z"/><path id="C" d="M0 437.654h430.429V.048H0z"/><path id="E" d="M0 437.654h430.429V.048H0z"/><path id="G" d="M0 437.654h430.429V.048H0z"/><path id="I" d="M0 437.654h430.429V.048H0z"/><path id="K" d="M0 437.654h430.429V.048H0z"/></defs><g fill="none" fill-rule="evenodd"><path d="M0 0h500v500H0z"/><g transform="translate(34.615 30.803)"><mask id="b" fill="#fff"><use xlink:href="#a"/></mask><path d="M420.116 42.804s-3.471 1.667-7.392 3.553c5.427-19.022 8.71-34.272 8.75-34.462L424.016.03 413.86 6.687c-.878.569-86.043 56.518-151.088 107.857l-.05-.11c-.508-1.457-1.376-3.254-2.883-5.1.47-.33.938-.659 1.397-.998 6.475-4.611 7.642-5.49 7.951-5.859 7.462-6.487 9.238-14.351 8.5-19.112l-2.335-15.08-39.824 29.661c-10.485-2.684-23.384-4.43-40.483-.01L155.23 68.284l-2.344 15.07c-.749 4.77 1.037 12.635 8.08 18.713.718.789 1.916 1.677 8.54 6.398.399.29.808.589 1.217.868-1.267 1.567-2.245 3.283-2.893 5.12l-.03.08C104.054 64.222 17.61 7.275 16.713 6.686L6.577.019l2.514 11.866c.19.869 3.781 17.725 8.6 34.392-3.881-1.866-7.233-3.473-7.233-3.473L.003 37.794l3.552 11.038c.21.669 5.277 16.398 9.407 26.867 6.095 16.737 17.668 43.215 28.063 61.529 5.387 9.122 13.807 17.495 24.361 24.232a95.567 95.567 0 0019.254 9.401c1.227 2.795 3.592 7.975 6.415 12.965H70.614v35.38l-29.749 14.252 29.769 15 .04 27.865 26.606 16.268 1.726-.21s16.031-1.986 25.24-2.984l68.765 39.712c13.886 63.704 17.348 81.818 17.378 81.988l5.018 26.528 4.788-26.568c.04-.19 3.512-19.302 17.369-81.938l68.765-39.722c9.208.998 25.23 2.984 25.24 2.984l1.725.21 26.607-16.268.03-27.855 29.778-15.01-29.748-14.252v-35.38H339.48c2.853-5.04 5.217-10.18 6.444-12.965 8.35-3.014 31.535-12.924 43.636-33.653 5.826-9.99 18.376-35.65 28.022-61.439.34-.878 5.517-14.312 9.458-26.977l3.392-10.928-10.316 4.94z" fill="#FEFEFE" fill-rule="nonzero" mask="url(#b)"/></g><path d="M143.77 223.902h-29.339v31.857l-17.638 8.643 17.638 9.212v28.314l19.484 11.927a952.177 952.177 0 0126.945-3.124l75.31 43.424 13.727 63.175c.09-.15 13.866-63.175 13.866-63.175l75.18-43.424a943.608 943.608 0 0126.946 3.123l19.463-11.926v-28.314l17.678-9.012-17.678-8.843v-31.857h-29.32s4.54-4.391 10.296-14.292c2.404-4.142 4.668-9.301 7.452-15.42 21.379-6.506 37.15-20.16 43.915-33.473 18.306-33.534 32.083-74.533 32.083-74.533s-7.901 3.793-17.439 8.503c7.742-23.623 12.39-43.674 12.39-43.674s-84.447 55.89-150.23 108.397l-5.696-3.424c.02-.539.18-5.34.18-5.738 0 0 .638-5.58-9.178-8.913-.609-.21-1.177-.399-1.746-.589 4.759-3.573 12.16-9.042 17.558-12.745 8.61-5.908 7.592-12.405 7.592-12.405l-31.205 23.234c-24.113-7.824-44.204 0-44.204 0l-31.196-23.234s-1.027 6.497 7.582 12.405c5.407 3.703 12.8 9.172 17.568 12.745-.569.19-1.147.38-1.746.59-9.826 3.333-9.168 8.912-9.168 8.912 0 .399.14 5.2.17 5.738l-5.707 3.423C139.531 106.903 55.093 51.013 55.093 51.013s4.63 20.05 12.37 43.674c-10.205-5.05-17.437-8.503-17.437-8.503s13.777 41 32.093 74.533c6.753 13.314 22.526 26.967 43.904 33.474 0 0 3.612 8.283 6.734 14.232 3.851 7.355 11.014 15.48 11.014 15.48" fill="#1C1060" fill-rule="nonzero"/><path d="M285.317 176.158c-.28.929-.609 1.817-.918 2.705a68559.074 68559.074 0 01139.107-90.65s.07 1.257 5.197-13.624c-61.153 36.947-115.314 78.824-143.386 101.57m-70.83.002C186.413 153.416 132.262 111.54 71.11 74.582c5.118 14.89 5.188 13.623 5.188 13.623a68646.916 68646.916 0 01139.106 90.651 65.564 65.564 0 01-.918-2.695m-53.688 49.388c-.02-.01-14.525-10.38-22.715-29.362l5.796 1.726c18.924 5.01 55.108 10 55.108 10-17.429.39-32.163 1.757-40.573 2.695-1.746-2.165-3.751-4.93-4.52-6.986 0 0 .649 6.637 2.135 10.789 1.886 6.068 4.75 11.118 4.769 11.138m89.077-19.522c-5.058-1.936-17.798-8.293-25.44-24.92 6.266 5.399 14.286 7.126 20.701.918-7.831-3.373-8.799-17.346-10.315-21.009-3.063-7.425-7.911-11.178-11.742-12.754a196.213 196.213 0 015.317-1.717c3.661 1.986 9.777 6.557 11.692 15.669 0 0 .798-10.4-4.35-17.695 9.986-2.405 20.062-2.076 28.283-.01-5.158 7.296-4.37 17.705-4.37 17.705 1.926-9.122 8.06-13.703 11.732-15.68 1.646.51 3.422 1.089 5.337 1.728-3.84 1.576-8.689 5.329-11.742 12.754-1.506 3.663-2.484 17.636-10.295 21.009 1.796 10.639-.419 20.56-4.808 24.002m93.857 8.38c1.486-4.152 2.135-10.789 2.135-10.789-.769 2.056-2.774 4.82-4.53 6.986a472.95 472.95 0 00-40.562-2.684s36.173-5 55.098-10.01l5.796-1.717c-8.18 18.982-22.686 29.352-22.706 29.352.02-.01 2.873-5.06 4.769-11.138M204.843 315.394l-36.851-21.278c-2.654.25-5.258.5-7.762.759l51.168 29.552a52.31 52.31 0 01-6.554-9.033m90.107 0l36.851-21.278c2.644.25 5.248.5 7.752.759l-51.158 29.552a52.31 52.31 0 006.555-9.033m-61.438 4.969c-16.271-3.533-23.005-11.558-23.005-11.558a44.17 44.17 0 0014.545 16.857s6.854-1.986 8.46-5.3m-9.961-17.386a163.518 163.518 0 01-3.472-3.483c-5.188 1.806-8.14 3.822-9.697 5.19 3.602 3.433 10.465 7.994 22.786 10.559-1.497-4.232-5.328-8.024-9.617-12.266" fill="#008CA8" fill-rule="nonzero"/><path d="M249.577 341.378c-5.397.09-9.247 2.176-10.534 2.655-1.347-2.545-2.923-5.13-4.41-7.415 4.64.568 8.72-.3 8.72-.3-1.946-.639-6.954-2.335-13.538-6.677-.01 0-.02-.01-.02-.01a33.71 33.71 0 001.736-.788s.01-.01.01-.02c1.735-.868 3.481-1.996 4.858-3.413 1.646-1.697 2.773-3.803 2.773-6.418 0-8.084-5.437-10.808-11.552-16.846-1.227-1.208-2.544-2.456-3.88-3.773 5.606-1.507 13.227-2.685 23.483-2.864l2.454 34.302h.36l2.533-34.302c10.256.18 17.867 1.357 23.484 2.864-1.337 1.317-2.654 2.565-3.88 3.773-6.116 6.038-11.553 8.762-11.553 16.846 0 2.615 1.127 4.721 2.773 6.418 1.377 1.417 3.113 2.545 4.849 3.413l.02.02c.588.29 1.167.549 1.725.788 0 0 0 .01-.01.01-6.584 4.342-11.592 6.038-13.537 6.677 0 0 4.07.868 8.719.3-1.487 2.285-3.063 4.87-4.42 7.415-1.276-.48-5.127-2.565-10.524-2.655h-.639z" fill="#008CA8" fill-rule="nonzero"/><path d="M274.744 325.66a44.3 44.3 0 0014.545-16.847s-6.734 8.015-23.005 11.548c1.597 3.313 8.46 5.3 8.46 5.3m-8.12-10.418c12.32-2.565 19.183-7.126 22.785-10.56-1.556-1.377-4.51-3.393-9.697-5.19a190.518 190.518 0 01-3.472 3.484c-4.3 4.242-8.12 8.034-9.617 12.266" fill="#008CA8" fill-rule="nonzero"/><path d="M238.869 182.957s-5.966-3.942-6.923-12.326c0 0-7.732 12.955 6.923 12.326m22.488 0s5.966-3.942 6.923-12.326c0 0 7.742 12.955-6.923 12.326m-4.384 170.965c-1.068-1.108-2.624-2.395-7.383-2.405-4.489-.01-6.055 1.138-7.362 2.206l7.671 30.34 7.074-30.14zm50.711-133.28v11.109h-3.731v-11.108h-3.093v-3.174h9.907v3.174zm-17.365 0v11.109h-3.741v-11.108h-3.093v-3.174h9.926v3.174z" fill="#FEFEFE" fill-rule="nonzero"/><g transform="translate(34.615 30.77)"><mask id="d" fill="#fff"><use xlink:href="#c"/></mask><path d="M197.088 192.708h3.98v-2.825h-3.98v2.825zm6.145 3.213h1.337v-7.685l-1.556-1.537h-9.448v14.282h3.522v-5.06h2.643l2.036 5.06h3.491l-2.025-5.06z" fill="#FEFEFE" fill-rule="nonzero" mask="url(#d)"/></g><g transform="translate(34.615 30.77)"><mask id="f" fill="#fff"><use xlink:href="#e"/></mask><path fill="#FEFEFE" fill-rule="nonzero" mask="url(#f)" d="M294.566 189.877v-3.173h-10.475v14.281h10.475v-3.213h-6.823v-2.346h6.823v-3.203h-6.823v-2.346z"/></g><g transform="translate(34.615 30.77)"><mask id="h" fill="#fff"><use xlink:href="#g"/></mask><path fill="#FEFEFE" fill-rule="nonzero" mask="url(#h)" d="M217.206 197.776v-11.078h-3.662v14.281h8.929v-3.203z"/></g><g transform="translate(34.615 30.77)"><mask id="j" fill="#fff"><use xlink:href="#i"/></mask><path d="M232.922 197.778h4.05v-7.895h-4.05v7.895zm5.976-11.078h-9.478v12.675l1.597 1.606h9.457v-12.695l-1.576-1.586z" fill="#FEFEFE" fill-rule="nonzero" mask="url(#j)"/></g><g transform="translate(34.615 30.77)"><mask id="l" fill="#fff"><use xlink:href="#k"/></mask><path d="M177.475 193.117h4.06v-3.244h-4.06v3.244zm7.671 7.864l-.02-12.685-1.576-1.596h-9.667v14.281h3.592v-4.64h4.05v4.64h3.621z" fill="#FEFEFE" fill-rule="nonzero" mask="url(#l)"/></g><g transform="translate(34.615 30.77)"><mask id="n" fill="#fff"><use xlink:href="#m"/></mask><path fill="#FEFEFE" fill-rule="nonzero" mask="url(#n)" d="M162.485 186.7v6.417h-4.03V186.7h-3.592v14.281h3.591v-4.64h4.03v4.64h3.582V186.7z"/></g><g transform="translate(34.615 30.77)"><mask id="p" fill="#fff"><use xlink:href="#o"/></mask><path d="M376.72 85.319c6.944-16.328 12.171-27.885 12.171-27.885a65112.177 65112.177 0 00-139.106 90.66 63.863 63.863 0 01-3.821 8.634l116.59-63.545-91.012 65.76 4.2-.758 48.095-4.65s32.502-3.145 50.589-27.467c8.51-13.064 23.005-51.239 23.005-51.239l-20.71 10.49z" fill="#FEFEFE" fill-rule="nonzero" mask="url(#p)"/></g><g transform="translate(34.615 30.77)"><mask id="r" fill="#fff"><use xlink:href="#q"/></mask><path d="M98.147 237.49l11.213-4.83v25.46c3.202-.44 6.514-.849 9.866-1.248l-.01-55.89h-9.846c-.02-.07-.02 20.03-.01 20.13l-11.213 4.731.01-24.86h-9.916v28.932s-8.16 3.913-8.12 3.992l8.12 4.062v23.464c3.182-.579 6.544-1.128 9.906-1.667V237.49z" fill="#FEFEFE" fill-rule="nonzero" mask="url(#r)"/></g><g transform="translate(34.615 30.77)"><mask id="t" fill="#fff"><use xlink:href="#s"/></mask><path d="M175.032 218.761h11.173c0 2.745-.02 6.278-.02 8.763-3.731.05-7.422.12-11.143.18l-.01-8.943zm.01 18.564c2.464-.07 4.868-.14 7.342-.2 1.816 4.73 3.691 10.1 5.507 14.84 3.262-.09 6.554-.169 9.866-.229-1.816-4.76-3.661-10.1-5.467-14.81 1.247-.02 2.504-.05 3.771-.06l-.01-22.855-4.37-4.312h-30.267l3.741 4.461v38.784c3.263-.18 6.545-.35 9.887-.5v-15.12z" fill="#FEFEFE" fill-rule="nonzero" mask="url(#t)"/></g><g transform="translate(34.615 30.77)"><mask id="v" fill="#fff"><use xlink:href="#u"/></mask><path d="M213.58 218.761h11.322v32.845c3.402.03 6.934.08 10.295.15V214.18l-4.509-4.48h-30.936l3.721 4.46v37.486c3.352-.04 6.704-.07 10.106-.08v-32.805z" fill="#FEFEFE" fill-rule="nonzero" mask="url(#v)"/></g><g transform="translate(34.615 30.77)"><mask id="x" fill="#fff"><use xlink:href="#w"/></mask><path d="M272.146 243.739c-6.395-.34-12.69-.629-19.084-.848-.03-2.346-.03-4.681-.03-7.016a1353.074 1353.074 0 0119.114.668v-9.86c-6.405-.17-12.75-.32-19.134-.43-.01-1.896-.01-5.11-.01-7.495h19.144v-9.052h-33.21l3.68 4.431v37.816c10.107.29 19.993.738 29.53 1.337v-9.551z" fill="#FEFEFE" fill-rule="nonzero" mask="url(#x)"/></g><g transform="translate(34.615 30.77)"><mask id="z" fill="#fff"><use xlink:href="#y"/></mask><path d="M297.022 218.761h8.51V209.7h-27.903v9.062h8.679v35.56c3.561.29 7.273.589 10.714.918v-36.478z" fill="#FEFEFE" fill-rule="nonzero" mask="url(#z)"/></g><g transform="translate(34.615 30.77)"><mask id="B" fill="#fff"><use xlink:href="#A"/></mask><path d="M147.918 244.224c-3.801.24-7.522.479-11.323.758v-26.218h11.333l-.01 25.46zm9.926-30.06l-4.47-4.462h-30.367l3.592 4.322.01 36.907 3.92 4.67a770.138 770.138 0 0127.305-2.235l.01-39.203z" fill="#FEFEFE" fill-rule="nonzero" mask="url(#B)"/></g><g transform="translate(34.615 30.77)"><mask id="D" fill="#fff"><use xlink:href="#C"/></mask><path d="M341.286 237.772a573.119 573.119 0 009.188-4.202c-9.846-4.561-19.703-8.713-29.559-12.545l-.02-11.208h10.455v4.072h9.936v-12.905h-34.018l3.78 4.382v23.104l20.302 8.823v12.914s-4.709-.599-10.445-1.337v-4.142l-9.856-1.178v13.184c10.784 1.258 20.91 2.735 30.237 4.382-.01-7.026 0-18.115 0-23.344" fill="#FEFEFE" fill-rule="nonzero" mask="url(#D)"/></g><g transform="translate(34.615 30.77)"><mask id="F" fill="#fff"><use xlink:href="#E"/></mask><path fill="#FEFEFE" fill-rule="nonzero" mask="url(#F)" d="M143.252 196.545v1.228h-3.193v-7.895h3.193v1.178h3.581v-4.351h-10.295v12.675l1.606 1.596h8.69v-4.43z"/></g><g transform="translate(34.615 30.77)"><mask id="H" fill="#fff"><use xlink:href="#G"/></mask><path d="M53.857 85.319C46.914 68.99 41.686 57.434 41.686 57.434a65112.177 65112.177 0 01139.107 90.66 63.85 63.85 0 003.82 8.634L68.024 93.183l91.012 65.76-4.2-.758-48.095-4.65s-32.502-3.145-50.588-27.467c-8.51-13.064-23.005-51.239-23.005-51.239l20.71 10.49z" fill="#FEFEFE" fill-rule="nonzero" mask="url(#H)"/></g><g transform="translate(34.615 30.77)"><mask id="J" fill="#fff"><use xlink:href="#I"/></mask><path d="M109.156 193.133h-29.34v31.857l-17.638 8.643 17.638 9.212v28.314l19.483 11.926a952.266 952.266 0 0126.945-3.124l75.31 43.425 13.727 63.175c.09-.15 13.867-63.175 13.867-63.175l75.18-43.425a944.048 944.048 0 0126.945 3.124l19.464-11.926v-28.314l17.677-9.013-17.677-8.842v-31.857h-29.32s4.539-4.392 10.295-14.292c2.404-4.142 4.67-9.302 7.452-15.42 21.38-6.507 37.151-20.16 43.915-33.473 18.306-33.534 32.083-74.533 32.083-74.533s-7.9 3.792-17.438 8.503c7.742-23.623 12.39-43.674 12.39-43.674s-84.447 55.89-150.23 108.396l-5.696-3.423c.02-.539.18-5.34.18-5.739 0 0 .638-5.579-9.178-8.912-.609-.21-1.178-.4-1.746-.589 4.758-3.573 12.16-9.042 17.558-12.745 8.61-5.908 7.591-12.405 7.591-12.405l-31.205 23.234c-24.112-7.825-44.204 0-44.204 0L161.99 84.827s-1.028 6.497 7.582 12.405c5.407 3.703 12.8 9.172 17.568 12.745-.569.19-1.148.38-1.746.589-9.827 3.333-9.168 8.912-9.168 8.912 0 .4.14 5.2.17 5.739l-5.707 3.423C104.916 76.134 20.478 20.244 20.478 20.244s4.629 20.05 12.37 43.674c-10.205-5.05-17.438-8.503-17.438-8.503s13.777 40.999 32.093 74.533c6.754 13.313 22.526 26.966 43.905 33.474 0 0 3.611 8.283 6.734 14.231 3.85 7.356 11.013 15.48 11.013 15.48M412.918 74.028c-9.248 24.741-21.529 50.18-27.664 60.7-10.345 17.705-30.946 28.264-43.027 32.157 0 0-5.866 14.162-11.912 21.956h24.661v33.544l23.424 11.218-23.453 11.827-.03 28.134-22.736 13.892s-18.116-2.245-26.935-3.163l-72.078 41.638c-14.455 65.27-17.877 84.273-17.877 84.273s-3.392-17.924-17.877-84.273l-72.087-41.638c-8.82.918-26.936 3.164-26.936 3.164l-22.735-13.893-.04-28.134-23.434-11.827 23.414-11.218v-33.544h24.66c-5.935-7.425-11.91-21.956-11.91-21.956a89.501 89.501 0 01-20.272-9.611c-9.737-6.198-17.718-14.023-22.756-22.546-9.816-17.316-21.358-43.384-27.663-60.7-4.17-10.56-9.358-26.687-9.358-26.687s13.418 6.417 17.538 8.433C19.41 36.522 13.973 10.893 13.973 10.893v-.01s92.31 60.71 157.054 112.637l1.028-.628a117.42 117.42 0 01-.06-3.294c-.02-.649.02-1.926.558-3.503.749-2.136 2.425-4.81 6.186-7.106-4.759-3.493-13.328-9.411-14.076-10.24-6.265-5.439-7.323-11.567-6.844-14.58l1.067-6.907 35.126 26.168c19.104-5.47 32.602-2.764 42.548 0l35.126-26.168 1.068 6.906c.478 3.014-.58 9.142-6.834 14.581-.728.779-9.338 6.747-14.076 10.24 3.74 2.296 5.427 4.97 6.175 7.106.538 1.577.588 2.854.548 3.503 0 1.128-.01 2.216-.05 3.294l1.028.628C325.836 70.405 416.6 10.883 416.6 10.883v.01s-4.52 21.098-11.862 44.881a7786.726 7786.726 0 0117.538-8.433c-3.98 12.815-9.357 26.687-9.357 26.687" fill="#A0A0A4" fill-rule="nonzero" mask="url(#J)"/></g><g transform="translate(34.615 30.77)"><mask id="L" fill="#fff"><use xlink:href="#K"/></mask><path mask="url(#L)" d="M-73.077-69.23h576.923v576.922H-73.077z"/></g></g></svg>