<svg width="500" height="500" viewBox="0 0 500 500" xmlns="http://www.w3.org/2000/svg" xmlns:xlink="http://www.w3.org/1999/xlink"><defs><path id="a" d="M422.973.244H.003v425.614h422.97z"/></defs><g fill="none" fill-rule="evenodd"><g transform="translate(38.462 19.862)"><mask id="b" fill="#fff"><use xlink:href="#a"/></mask><path d="M389.5 209.947l-16.861-5.653c25.763-10.427 52.654-31.249 50.175-74.777-1.711-30.122-14.844-56.444-22.701-72.196L371.573.243l5.675 61.503c1.762 19.275 1.127 44.675-6.126 58.461-9.68 20.125-41.785 17.913-53.279 17.145-20.303-1.352-86.428-3.605-106.486-3.605-26.798.113-56.198 2.274-80.118 4.035-11.381.84-21.205 1.567-27.813 1.813-.686.02-1.68.113-3.011.236-41.929 3.871-49.059-15.773-51.415-22.236-4.343-11.911-4.23-38.612-4.18-50.114l.185-50.114L23 58.048C16.465 70.145 4.305 92.636.167 130.624c-2.797 53.494 30.885 69.072 41.949 74.183a94.316 94.316 0 004.487 1.945 89.44 89.44 0 00-2.592.85c-7.212 2.459-14.7 5.88-16.964 6.934l-12.57 5.982 8.206 11.41c1.035 1.402 3.77 5.008 6.782 7.968 7.6 7.476 26.777 19.347 50.226 16.438 8.205-1.014 14.69-2.489 19.7-3.995.87 2.54 1.833 5.203 2.816 7.641 7.192 17.862 23.53 51.865 29.677 63.685 4.047 7.783 8.083 14.881 11.207 20.279l-.277.235a42.335 42.335 0 00-2.11 1.987l-2.786 3.319-.174 3.922c-.174 3.698-1.014 36.79 21.88 61.432l1.906 1.843 2.203.84c10.756 4.117 24.77 8.337 47.204 8.337 23.12 0 42.492-5.551 49.93-9.31l2.16-1.157 1.414-1.67c15.54-18.384 22.373-45.32 22.68-56.566l.247-.318-.236-.184-.307-4.517-4.303-4.363c-.942-.901-1.66-1.587-2.243-2.53 1.608-3.175 3.575-7.261 5.716-11.737l.44-.922c1.26-2.622 2.326-4.854 2.95-6.073 5.942-11.563 23.275-48.742 30.149-66.307a584.842 584.842 0 013.708-9.248c4.948 1.495 11.463 2.93 19.802 3.79 23.428 2.437 45.616-12.045 53.289-22.594.41-.553.983-1.25 1.383-1.731l10.561-12.393-14.382-6.494c-.195-.082-1.086-.46-4.395-1.587" fill="#FEFEFE" fill-rule="nonzero" mask="url(#b)"/></g><path d="M451.05 149.959c-1.597-28.043-14.157-53.197-21.655-68.232l-.891-1.793-3.268-6.524.666 7.272c.922 10.047 3.145 44.378-7.09 63.828-12.681 26.383-49.99 23.833-62.252 22.983l-.932-.062c-20.15-1.341-85.691-3.666-105.77-3.584-26.552.112-55.85 2.273-79.4 4.004-11.525.85-21.493 1.588-28.202 1.844-.543.02-1.342.092-2.428.195-33.017 3.072-53.873-6.658-61.997-28.924-4.978-13.663-4.845-40.67-4.794-53.647l.01-3.882.02-5.449-2.59 4.794c-6.209 11.47-17.744 32.825-21.626 68.242-2.172 41.746 19.515 56.72 36.028 64.35 17.24 7.979 34.86 9.126 40.648 9.505l.42.03-.164-.02c1.189.215 2.551.276 3.985.338 1.783.082 3.709.184 5.686.553-3.125.604-7.233 1.31-10.838 1.925-3.842.656-7.468 1.28-9.353 1.68-3.913.83-20.53 4.711-29.482 7.764-7.601 2.6-15.786 6.462-15.868 6.493l-1.496.707.973 1.341c.113.154 2.858 3.964 5.716 6.77 5.85 5.756 22.127 16.019 41.786 13.57 15.714-1.945 24.134-5.591 27.382-7.312 1.014 3.38 3.452 11.205 5.9 17.299 7.079 17.596 23.193 51.117 29.257 62.773 4.907 9.433 9.773 17.81 13 23.352l1.157 1.997c-1.055 3.615-3.575 5.868-5.46 7.517-.502.44-.932.82-1.3 1.199l-.37.368-.02.523c-.154 3.246-.912 32.385 18.91 53.729l.216.236.297.112c9.875 3.78 22.772 7.661 43.537 7.661 21.184 0 38.999-5.029 45.247-8.183l.256-.123.185-.215c13.83-16.356 20.12-40.958 20.273-49.899v-.573l-.4-.41a35.422 35.422 0 00-1.075-1.055c-2.152-2.069-4.815-4.63-6.341-10.682 1.69-2.889 4.988-9.781 7.672-15.394 1.506-3.144 2.797-5.859 3.514-7.251 5.86-11.4 22.947-48.045 29.728-65.365 4.292-10.948 6.7-16.428 7.745-18.691 3.001 1.618 11.084 5.203 26.357 6.78 19.812 2.048 38.702-11.215 43.957-18.436.881-1.218 2.387-2.97 2.397-2.98l1.189-1.393-1.66-.748c-.112-.05-.789-.338-3.739-1.352l-10.961-3.666-10.93-3.667c-2.981-1.014-16.36-3.912-26.112-6.032l-7.396-1.608 2.417-.44c22.619-4.005 82.71-14.647 79.33-74.142" fill="#2D2925" fill-rule="nonzero"/><path d="M53.978 137.907c3.299-17.053 8.748-33 16.186-48.312l.082-.184h.358v.328-.328h.328l-.01.338a314.62 314.62 0 00-.338 14.042c0 11.297.778 22.788 3.298 33.112l.246 1.004-.768-.686c-3.289-2.94-6.556-6.31-9.957-9.228-2.992 3.349-5.86 6.985-8.882 10.19l-.758.81.215-1.086zm391.255-6.995l-.307.071.297-.092c-4.364-14.4-8.267-28.985-15.407-42.197l-.604.164c.286 4.578.43 9.126.43 13.642 0 11.051-.86 21.887-2.653 32.406l-.103.615.563-.277c3.504-1.69 6.823-3.964 10.408-5.49l8.626 6.238-1.25-5.08zM304.214 284.93l-.666.297c-4.906 2.161-9.936 4.312-15.253 5.367-3.442.881-6.935 1.342-10.387 1.342-10.787-.01-21.093-4.466-27.464-14.226l-.205-.318-.277.256c-1.28 1.127-2.059 2.53-3.39 3.728-6.792 7.815-16.647 10.816-26.717 10.816-7.816 0-15.755-1.813-22.393-4.578l-.687-.277.256.697c5.102 13.488 8.226 28.462 8.226 43.508 0 6.749-.625 13.499-1.987 20.146-.932 4.66-2.49 9.494-3.729 14.041l-.205.707.656-.338c14.372-7.61 31.92-11.471 49.417-11.471 16.564 0 33.088 3.452 46.835 10.426 2.264.932 4.385 2.51 6.454 3.175l.615.195-.205-.604c-4.006-11.87-6.372-24.479-6.372-37.68v-.564a103.1 103.1 0 01-.03-2.51c0-14.43 3.021-28.636 7.273-41.448l.235-.687zm-140.531 13.955c-1.536-1.905-2.786-3.984-3.247-6.411l-.144-.738.635.4c2.582 1.669 5.42 2.355 8.329 2.355 6.003 0 12.313-2.95 17.036-6.268l.215-.154.184.195.164.154-.236.225.236-.225.102.102-.01.154c-.655 6.135-2.837 13.15-9.342 15.557-.973.246-1.916.359-2.838.359-4.364 0-8.154-2.54-11.084-5.705m152.679-2.334c-1.394-2.08-2.162-4.322-2.613-6.852l-.153-.84.666.523c3.227 2.55 7.293 3.656 11.452 3.656 4.887 0 9.886-1.526 13.727-4.005l.769-.491-.287.87c-1.906 5.551-6.72 11.225-12.57 12.495-.502.072-1.014.113-1.516.113-3.83 0-7.283-2.069-9.475-5.47" fill="#C21F32" fill-rule="nonzero"/><path d="M323.84 304.698c.758.164 1.526.226 2.294.226 2.203 0 4.415-.584 6.577-1.26l.645-.205-.256.625c-8.062 20.156-17.794 39.647-27.843 58.994l-.338.645-.246-.686c-2.028-5.562-2.602-11.471-2.602-17.514 0-4.435.308-8.941.594-13.448 1.445-12.997 4.58-25.513 8.462-37.547l.235-.737.36.686c2.386 4.65 6.914 9.443 12.097 10.221M196.53 363.153c-12.16-18.548-21.4-38.161-30.322-58.061l-.389-.86.83.44c2.417 1.3 5.665 2.325 8.748 2.325 2.09 0 4.087-.461 5.757-1.598 3.903-2.735 6.198-7.036 7.745-11.379l.245-.717.338.686c6.71 13.56 9.927 29.989 9.927 46.233 0 7.691-.727 15.352-2.141 22.655l-.02.092-.062.072-.44.44-.215-.328zm10.688 62.104l-.061-.031-.052-.051c-12.385-13.591-17.056-31.064-17.732-49.551v-.174l.143-.103c16.288-11.86 38.067-18.128 59.538-18.128 14.096 0 28.069 2.704 40.27 8.306 7.795 3.483 15.304 7.293 22.188 12.823l-.195.256.195-.256.143.113-.02.174c-2.09 17.401-8.308 32.908-19.29 46.355l-.05.072-.072.03c-13.072 5.091-28.479 7.846-43.814 7.846-14.454 0-28.847-2.438-41.19-7.681m217.888-182.775s-7.663-2.939-9.63-3.676c-21-7.907-48.003-12.731-70.95-13.284-2.192-25.554-5.132-41.531-10.11-55.973l-.072-.194-.205-.02c-11.832-.687-64.301-2.797-84.585-2.797-20.293 0-71.82 3.196-83.642 3.882l-.205.01-.071.205c-4.764 13.765-10.183 30.92-12.703 56.188-23.192 1.423-54.406 8.06-75.416 15.967a29.032 29.032 0 00-3.391 1.516c-.369.204-.656.368-.86.48-.052.021-.093.052-.134.073l-.635-.728.226 1.158a.278.278 0 00.082.164c3.216 3.646 15.048 17.83 37.021 18.323.359.01.728.01 1.117.01 7.18 0 19.34-1.393 27.474-4.947 1.977-.88 5.819-2.458 6.864-2.878.39.737 1.547 2.98 2.12 4.588 2.356 6.545 5.163 15.947 7.233 20.054 3.052 6.094 8.03 10.99 16.103 11.174h.318c7.293-.02 12.323-5.838 13.204-7.077l.338-.471-.584-.031c-20.314-1.024-28.621-11.809-30.004-28.104l-.02-.246-.236-.04c-2.398-.43-3.924-.769-4.866-1.28-.943-.513-1.363-1.148-1.68-2.398a7.083 7.083 0 01-.195-1.669c0-1.997.81-4.169 2.315-6.678 1.567-2.1 3.883-4.168 8.492-4.178 1.906 0 4.2.358 6.997 1.249 6.32 1.997 11.391 6.074 14.915 9.167 4.22 3.687 16.473 16.458 23.9 20.924 4.364 2.612 10.991 5.05 17.742 5.05 5.399 0 10.88-1.568 15.274-5.88 9.445-9.258 10.592-17.227 11.832-22.153l.092-.39-.4-.01c-16.298-.46-31.736-2.058-45.954-4.024-1.65-.236-2.141-.932-2.141-1.516.01-.717.799-1.567 2.11-1.567.246 0 .512.03.8.102.04.01 26.88 3.564 45.677 3.677h.297l.02-.297c.154-2.192.185-6.033.318-10.355l.01-.327-.327-.01c-11.136-.247-29.851-1.424-47.584-4.999-1.536-.317-2.14-1.24-2.14-2.007.02-.748.522-1.403 1.628-1.414.246 0 .523.031.83.113 2.643.697 31.52 4.783 47.245 4.783h.123l.328.01v-.317c.072-3.36.102-8.091.123-12.639v-.317h-1.311c-10.162 0-24.873-1.024-45.791-4.21-1.71-.266-2.315-1.096-2.315-1.73 0-.656.614-1.363 1.926-1.373.112 0 .225.01.358.02-.01 0 25.528 3.8 45.443 3.8.46 0 .911 0 1.372-.01h.318v-.318c0-3.082-.02-6.677-.051-10.303v-.061c.01-1.957.88-2.745 1.516-2.745.594 0 1.362.686 1.372 2.489 0 1.372.082 5.274.082 10.15v.603l.328-.01c19.249-.583 36.182-2.837 44.131-4.26.461-.082.86-.123 1.21-.123 1.577.03 1.986.665 2.007 1.28 0 .625-.533 1.352-1.332 1.495-2.602.471-24.913 4.783-46.139 5.244h-.317l.01.318c0 3.748.143 8.613.205 12.577l.01.328.318-.01c14.27-.513 30.793-1.045 44.981-4.18.666-.143 1.24-.214 1.742-.214 1.649.02 2.263.676 2.263 1.229.031.645-.83 1.628-2.858 1.966-13.911 2.315-33.969 4.701-46.026 4.793h-.328l.01.328c.082 3.472.113 7.681.287 10.437l.02.307h.308c22.762-.543 44.316-3.78 47.983-4.414.266-.041.512-.062.748-.062 1.424.01 2.08.778 2.08 1.495 0 .707-.626 1.567-2.347 1.813-4.005.553-30.711 3.995-47.808 4.425l-.42.01.112.4c1.69 5.786 2.018 14.215 10.419 21.436 4.107 3.533 9.629 5.12 15.325 5.12 5.613 0 11.401-1.546 16.195-4.311 7.51-4.343 19.372-17.34 23.582-21.027 3.503-3.072 11.494-10.457 22.168-10.457.154 0 .297 0 .45.01 5.481.113 8.155 1.557 9.558 3.124 1.414 1.577 1.568 3.319 1.906 4.26a7.43 7.43 0 01.45 2.48c-.01 1.33-.42 2.642-1.751 3.461-1.865 1.158-3.627.85-5.604 1.752l-.153.071-.031.164c-1.393 8.91-4.19 19.04-11.176 24.335-3.77 2.868-8.636 4.476-12.56 5.367-3.913.89-6.873 1.045-6.873 1.045l-.676.04.45.502s1.66 1.813 2.213 2.346c1.24 1.167 4.753 2.868 9.353 2.878.492 0 .994-.02 1.506-.051 5.03-.43 10.828-4.25 13.296-6.79 3.74-4.856 7.171-14.934 9.712-21.417.891-2.315 2.93-6.32 3.76-8.378 2.069.973 3.277 1.618 7.232 3.216 8.215 3.288 18.633 4.732 25.63 4.732.4 0 .789 0 1.168-.01 11.432-.297 24.36-7.21 32.156-14.431 1.362-1.27 3.893-4.414 3.903-4.425l.276-.348-.41-.154z" fill="#C21F32" fill-rule="nonzero"/><path d="M261.69 382.874c-1.208 2.028-1.741 4.353-1.741 6.719 0 3.83 1.414 7.753 3.626 10.61a.66.66 0 00.533.277c.246 0 .522-.133.727-.358v-.205c.02-2.263-1.444-4.23-1.465-6.719 0-.573.082-1.188.298-1.813l.215-.665.358.594c2.233 3.687 5.819 6.012 9.568 7.261a17.42 17.42 0 004.354.574c4.999-.01 9.64-2.264 12.917-6.299 1.558-2.182 2.746-4.947 2.746-7.65 0-1.27-.256-2.53-.87-3.729-2.357-4.588-7.14-7.24-11.945-8.03a21.989 21.989 0 00-2.459-.133c-6.956 0-13.46 3.114-16.862 9.566m-27.24 19.146c.4.02.882-.44 1.21-1.004 1.823-2.868 3.062-6.596 3.062-10.232 0-2.386-.532-4.732-1.762-6.78l.277-.164-.287.144c-1.915-3.667-5.829-6.627-9.557-7.876a21.692 21.692 0 00-6.618-1.045c-5.348 0-10.572 2.048-13.87 6.452-1.27 1.67-1.906 3.82-1.906 5.961 0 1.116.174 2.233.533 3.277 1.752 4.896 6.402 8.768 11.33 9.7a18.77 18.77 0 003.247.297c5.737 0 10.787-2.807 14.372-7.733l.359-.492.205.574a4 4 0 01.215 1.342c-.01 1.014-.266 2.038-.369 2.857-.174 1.444-1.311 2.56-1.27 3.554 0 .328.092.645.379 1.024a.88.88 0 00.45.144m-25.934 18.904c12.518-5.254 27.485-8.296 42.349-8.296 11.217 0 22.362 1.731 32.37 5.562 2.51 1.065 5.164 1.935 7.694 2.724.635-.83.942-1.014 1.373-1.741-12.211-5.992-26.553-8.778-40.966-8.778-15.376 0-30.835 3.175-43.865 8.972.256.656.584 1.076 1.045 1.557m10.918-92.547c7.488 9.33 18.675 13.458 30.107 13.468 4.2 0 8.43-.563 12.518-1.629 19.064-5.284 30.568-26.055 34.502-44.224-.553-.512-1.045-.625-1.762-.84-2.387 10.692-6.945 21.19-13.696 30.03-8.073 9.832-19.986 14.799-31.716 14.799-4.169 0-8.318-.625-12.272-1.885-17.445-5.438-26.511-24.57-28.202-41.89-.717.011-1.198.052-1.762.441 1.189 11.932 4.764 22.563 12.283 31.73" fill="#2D2925" fill-rule="nonzero"/><path d="M77.648 148.879c9.998 19.286 30.158 25.503 50.667 24.52 11.473-.103 22.496-1.291 33.825-2.018l-.01.788c-5.767 16.244-9.496 32.785-11.883 49.817-29.687 1.086-60.122-1.26-82.054-21.078-14.854-15.107-18.644-35.826-15.417-56.29 3.544-4.199 7.18-7.722 10.879-11.921 4.866 5.029 12.65 9.136 13.993 16.182m369.185-8.657c.748 2.98.891 5.797 1.178 8.92 1.414 22.84-8.451 43.897-27.945 55.522-21.339 12.864-45.996 17.268-72.159 17.913-.44-2.345-.727-5.326-1.024-7.978-2.07-15.025-4.897-30.214-9.107-44.624 28.007-.318 62.078 7.067 80.569-18.64 2.468-3.586 4.937-6.863 7.099-10.755 4.138-1.854 8.123-4.496 12.118-6.667 3.36 1.74 5.911 4.414 9.271 6.309M340.397 255.843c.113 8.757-2.684 17.81-10.52 21.99-3.678 2.017-7.96 2.775-12.099 2.59-.143-.767-.45-1.72-.133-2.652 6.423.195 12.56-2.12 15.95-7.415 2.315-3.902 3.247-8.275 3.278-13.12 1.076-.625 2.295-1.086 3.524-1.393m-158.06 23.779c-1.157.195-1.71.491-3.882.01-10.306 0-21.082-8.255-20.457-22.245 1.219-.472 2.591-.287 3.851.123 0 7.937 3.207 18.783 20.068 18.783 1.148 1.844.041 2.028.42 3.329" fill="#FEFEFE" fill-rule="nonzero"/><path d="M0 0h500v500H0z"/></g></svg>