<svg width="500" height="500" viewBox="0 0 500 500" xmlns="http://www.w3.org/2000/svg"><g fill="none" fill-rule="evenodd"><path d="M0 0h500v500H0z"/><g fill-rule="nonzero"><path d="M335.837 152.867c-5.49-.566-17.233 2.499-35.414 10.143-27.136 11.405-59.215 35.488-79.63 57.405-21.886 23.505-65.357 77.839-64.773 103.104 0 .886.66 4.191 4.302 5.607l1.6.498c13.227 3.054 31.783 1.01 72.196-11.57 0 0 61.714-18.698 138.438-52.346l22.096-12.29-11.32 57.084-1.322 1.145c-56.882 49.404-144.901 95.847-219.423 99.337-17.227.8-37.347-.08-55.072-7.164-23.351-9.312-37.753-23.505-44.055-41.236-2.524-5.116-23.943-54.384 35.999-129.62l-39.034 9.651 31.383-48.579c63.535-52.555 250.553-161.636 337.894-78.565l6.796 6.912v27.807s-139.276 81.242-138.55 79.943c1.256-2.295 30.35-59.694 30.35-59.694 3.6-7.066 6.055-12.87 7.539-17.572" stroke="#FFF" stroke-width="3.846" fill="#FCB61A" stroke-linecap="round"/><path d="M340.586 143.504c-8.956-2.88-25.155 2.16-44.08 10.15-28.707 12.062-61.96 37.057-83.157 59.823-20.606 22.163-68.237 79.943-67.499 110.292.049 1.28.135 2.543.32 3.76-4.591-3.802-7.386-9.336-7.607-17.306-.72-30.343 46.886-88.105 67.474-110.244 21.216-22.772 54.494-47.76 83.175-59.848 29.703-12.525 52.673-17.86 51.374 3.373m86.599-16.604l.22 17.929-105.288 63.701c1.12-1.144 12.999-24.102 13.719-25.738l91.349-55.892zm-310.446 91.395c-11.14 2.678-22.41 5.466-32.442 7.94 1.392-1.864 11.719-16.064 14.082-19.14 12.304-2.881 24.927-5.719 36.356-8.372-5.539 5.51-11.694 12.12-17.996 19.572m258.63 85.674c-55.91 48.554-141.819 93.509-213.25 96.887-16.735.763-35.119-.209-50.807-6.512-21.437-8.542-33.316-20.938-38.38-35.47 6.597 8.728 16.672 16.193 31.068 21.98 15.731 6.234 34.116 7.243 50.85 6.43 77.082-3.575 170.973-55.638 225.873-108.396l-5.355 25.08z" fill="#000840"/><path d="M422.594 122.784l-85.25 52.273c36.603-71.709-29.314-54.882-73.345-28.964-25.044 13.159-53.75 39.797-62.754 49.39-73.253 78-124.56 182.243 35.84 132.316 0 0 62.347-18.877 139.742-52.9-219.09 185.078-425.882 107.683-222.401-86.893-18.52 4.234-37.217 8.26-55.51 13.374 65.154-53.915 243.895-154.502 323.678-78.596" fill="#690031"/></g></g></svg>