<svg width="500" height="500" viewBox="0 0 500 500" xmlns="http://www.w3.org/2000/svg"><g fill="none" fill-rule="evenodd"><path d="M64 317.093c-3.232-4.803-13.999-23.07-13.999-52.511 0-11.051 1.528-23.662 5.498-37.697a.79.79 0 00.062-.27l1.736-6.8.426.427.831-2.495c1.393-4.19 2.848-8.598 3.19-9.627.23-.904 1.498-5.946 2.506-9.46.301-1.05.56-1.913.831-2.662l.062-.499c.323-2.61.738-5.125 1.227-7.558.176-1.3.395-2.547.571-3.618l.083-.468.188-.426c.114-.29.218-.51.3-.696 5.02-20.522 14.426-32.665 19.716-38.186l.073-.062.062-.062c1.03-.957 3.94-3.68 7.286-5.76 1.538-2.017 6.537-8.494 11.12-13.64 1.559-1.725 3.055-3.295 4.458-4.574.76-1.736 2.578-5.448 6.007-9.73 4.532-5.667 11.942-12.362 23.25-16.51a203.547 203.547 0 0127.426-15.615c1.819-1.882 8.75-8.733 19.507-15.626 12.513-7.994 30.295-16.093 51.32-16.103.8 0 1.61.01 2.411.03l7.66.22-9.479 12.755a206.71 206.71 0 0115.299-.582c27.187 0 53.138 5.323 76.761 14.919l.114.041.104.042a50.45 50.45 0 014.24 2.297c1.435.926 2.89 1.85 4.168 3.265 1.621.177 5.082.748 8.959 2.485l.114.052.104.052c25.577 13.41 47.848 32.072 65.236 54.538l.156.187.124.229c.27.457.956 1.84 1.538 4.75.291.178.707.448 1.175.739.935.645 1.985 1.352 3.014 2.391l.228.24.198.26c21.388 31.073 33.89 68.49 33.89 108.733 0 38.133-11.234 73.76-30.648 103.827l-.072.104-.073.093c-.312.406-.447.54-.738.8-.25.26-.561.52-.967.832-.582.447-1.35.967-2.328 1.56-.083.374-.187.873-.332 1.424-.322 1.217-.686 2.63-1.653 4.2l-.052.083-.072.104c-36.26 49.767-95.874 82.182-163.188 82.182-88.048 0-162.856-55.453-189.628-132.624" fill="#FEFEFE" fill-rule="nonzero"/><path d="M416.575 148.053c-1.154-1.185-3.856-2.786-3.856-2.786-.998-.375-1.195-1.279-1.195-1.279-.54-3.368-1.248-4.564-1.248-4.564-17.044-22.009-38.869-40.295-63.936-53.457-4.48-2.007-8.512-2.225-8.512-2.225a1.562 1.562 0 01-1.33-.686c-1.476-2.09-5.934-4.356-7.608-5.146-23.165-9.409-48.597-14.617-75.265-14.617-8.096 0-16.046.488-23.872 1.414l10.279-13.827c-41.135-1.227-70.661 30.928-70.661 30.928l.02.042a196.598 196.598 0 00-28.205 16.041l.02-.052c-21.44 7.693-27.634 24.993-27.634 24.993-5.436 4.553-16.203 18.848-16.203 18.848-3.086 1.778-6.287 4.72-7.254 5.645-4.936 5.136-13.989 16.728-18.81 36.688-.126.323-.281.645-.427.988-.187 1.102-.405 2.36-.572 3.597-.467 2.38-.883 4.834-1.205 7.392l.197-.27c-.072.54-.135.862-.135.862-.499.333-3.585 12.642-3.585 12.642-.5 1.55-6.1 18.401-6.1 18.401l-.042-.03c-.01.03-.01.072-.01.103-14.748 51.534 4.842 82.785 8.178 87.588 26.045 75.81 99.49 130.441 186.021 130.441 66.026 0 124.434-31.802 159.967-80.54 1.008-1.6 1.517-4.823 1.517-4.823.031-1.07.832-1.549.832-1.549 2.743-1.476 3.69-2.495 3.803-2.64 19.03-29.453 30.015-64.301 30.015-101.675 0-39.412-12.233-76.017-33.184-106.447" fill="#051821" fill-rule="nonzero"/><path d="M171.308 111.016c.51-.54.977-1.029 1.382-1.476.665-.676.915-.852.998-.8a4.13 4.13 0 01.146-.125c.166-9.814 2.39-17.694 2.39-17.694 17.824-24.91 47.246-31.522 47.246-31.522 3.658-1.04 1.299.572 1.299.572-18.53 20.761-16.598 37.905-16.598 37.905l17.679 64.529s-14.332-5.032-25.37-27.716c-5.102 45.244 37.54 81.911 37.54 81.911 1.86 1.601-1.06-.124-1.06-.124-10.684-5.334-22.979-16.582-26.336-19.743.894 3.493 21.659 107.881 21.71 108.172.105.49.385 1.508.604 2.163l7.191-17.86 5.945 52.708c-27.032 25.17-55.83 15.2-57.607 14.534.696 1.144 1.236 1.965 1.236 1.965s23.395 45.94 118.634 41.065c0 0 2.277-.021 1.934.27.03.083-.094.198-.52.354-1.798.644-4.594 1.102-4.594 1.102-114.986 30.71-174.568-67.305-177.145-71.672-.728-.998-6.309-8.868-9.427-16.8-.093-.218-.228-.998.312-.406 0 0 12.212 12.736 46.726 15.886.26-.021.406-.063.406-.063-26.7-29.764-38.038-51.336-39.711-54.632 0-.01-.01-.01-.042-.01 0 0-3.201-4.824-7.005-18.495 0 0 .104-.696.426 0 1.3 2.703 10.133 15.74 20.88 18.661h.02c-9.114-14.72-14.778-38.029-15.506-41.429 12.43 17.414 34.442 18.672 34.442 18.672-.031-.073-.062-.114-.114-.187.052.083.073.125.073.125-36.22-36.127-28.414-75.477-13.719-103.88 8.657-16.768 19.715-29.732 25.535-35.96" fill="#FEFEFE" fill-rule="nonzero"/><path d="M279.672 350.23l-23.758 25.014.052-.052 29.328-22.518-15.183-52.366 6.63-62.98-11.588 60.153 14.519 52.75zm5.277-154.105c-2.068 10.76-5.456 21.78-11.317 26.687.426-.218.956-.489 1.559-.853 1.766-1.04 4.105-2.702 6.464-5.146 4.687-4.875 9.406-12.85 9.406-25.387 0-5.593-.946-12.122-3.253-19.68-.23 4.325-.936 14.243-2.858 24.379m-.249-80.357c8.283-12.517 21.887-13.61 27.655-13.65a48.535 48.535 0 00-13.75-1.997c-8.74 0-15.246 2.402-17.927 3.597-.395.167-.707.323-.935.437 2.13 2.973 4.23 9.305 4.957 11.613zm-.135.966l.405-.114-.405.114zm-20.661 32.1l.364-.207-.364.208zm10.33-6.788c.208.02.364.187.375.395.02 1.165.03 2.308.03 3.493-.01 26.926-7.16 56.43-9.883 66.692a156.082 156.082 0 0013.095-62.575c0-9.918-.956-18.068-1.912-23.745a107.85 107.85 0 00-1.351-6.726c-2.62 20.272-10.33 29.463-10.372 29.515a.404.404 0 01-.354.156.452.452 0 01-.332-.23c-12.68-23.411-31.386-37.696-39.94-43.362a80.579 80.579 0 00-3.43-2.173c24.133 52.45 31.19 92.922 33.008 106.25.052-1.529.083-3.088.083-4.668 0-23.964-6.121-52.855-9.197-65.787a265.701 265.701 0 00-1.694-6.841v-.01a.4.4 0 01.176-.448c.135-.104.333-.093.489.021 10.84 8.421 18.457 32.364 19.798 36.803 2.027-2.506 4.687-8.785 6.839-14.555a253.198 253.198 0 004.126-11.924.408.408 0 01.395-.291c.02 0 .041.01.052.01z" fill="#C4CDD3" fill-rule="nonzero"/><path d="M71.212 250.817c.01 24.94 4.302 51.046 25.753 84.355l.031.042c20.266 42.718 57.628 65.704 75.047 74.51 5.8 2.941 9.364 4.303 9.395 4.313 27.676 13.048 53.71 17.85 77.032 17.85 48.856 0 85.886-21.052 101.33-31.593 5.165-3.504 7.909-5.833 7.909-5.833l.27.312-.27-.322a72.987 72.987 0 002.359-2.017c-.302.167-.613.354-.915.54a62.31 62.31 0 00-2.13 1.321c-37.965 22.29-72.958 29.1-101.507 29.1-44.741 0-73.696-16.687-73.716-16.697-94.856-49.767-96.248-136.014-96.248-136.076a.418.418 0 01.79-.187c12.232 23.714 27.073 31.802 33.683 34.37a30.575 30.575 0 002.307.8c-27.583-34.775-35.481-64.03-35.481-86.101 0-29.213 13.833-45.754 13.864-45.795a.401.401 0 01.488-.115.42.42 0 01.24.458c-1.975 10.292-2.734 19.389-2.744 27.259.01 19.243 4.52 31.23 6.766 35.991.062.146.124.281.197.406a169.94 169.94 0 01-1.216-20.294c0-65.038 38.1-105.116 46.144-112.84-6.028 2.516-13.334 8.982-19.289 15.085-6.6 6.747-11.578 13.016-11.588 13.026a.42.42 0 01-.457.136.407.407 0 01-.27-.395c.062-5.167 3.003-11.665 4.604-14.805-4.906 4.46-8.97 11.447-11.869 17.55-3.211 6.767-4.978 12.423-4.978 12.443l-.083.146c-15.09 17.08-22.397 35.326-25.099 43.362-.904 2.693-1.289 4.21-1.289 4.21-.343 1.384-.54 2.07-.727 2.413-.083.104-.083.29-.478.343-.312-.01-.395-.24-.437-.312a.795.795 0 01-.062-.25 4.797 4.797 0 01-.031-.582c0-.8.093-1.892.093-1.892.291-12.278 5.394-26.084 7.452-31.188-14.467 15.563-18.01 36.657-18.01 53.52 0 7.973.8 15 1.59 20.002.79 5.02 1.569 8.025 1.569 8.036l.01.104c.042 9.918 1.995 22.164 3.928 31.937 1.944 9.772 3.856 17.029 3.856 17.018.645 1.892.884 2.766.904 3.234-.01.093-.01.166-.052.29-.041.115-.239.292-.436.281-.322-.041-.364-.166-.468-.25a2.544 2.544 0 01-.27-.363c-.187-.27-.395-.624-.592-.977a48.023 48.023 0 01-.728-1.352c-10.102-15.48-15.028-41.013-16.15-47.448-.01.977-.021 1.944-.021 2.921" fill="#C4CDD3" fill-rule="nonzero"/><path d="M293.719 128.997l-.208-.187.104-.27c4.635-12.393 26.429-23.413 30.659-25.482-10.144-5.697-19.86-7.402-27.936-7.402a57.36 57.36 0 00-14.872 1.965c-3.617.988-5.685 1.965-5.685 1.965l-.291.145-.198-.26c-3.751-4.688-8.636-9.356-12.585-12.839-3.783-3.337-6.683-5.593-6.932-5.78-.551-.353-.904-.572-.946-1.092 0-.301.218-.51.384-.592.177-.094.354-.146.562-.187a7.776 7.776 0 011.31-.094c.519 0 .966.042 1.07.052 86.904.01 133.1 62.117 133.111 62.138.603.697.904 1.372.904 2.017-.073 1.871-2.193 2.765-4.115 3.368a24.546 24.546 0 01-3.877.811c-8.397 1.165-16.182 1.674-23.373 1.674-45.178 0-67.034-19.909-67.086-19.95m-29.62 251.113a.423.423 0 01-.281-.323.438.438 0 01.145-.405l29.152-23.464-14.789-54.799v-.156l4.085-36.74a.387.387 0 01.176-.312.372.372 0 01.343-.052c6.641 2.038 9.749 11.062 11.35 19.483 1.132 6.04 1.454 11.82 1.548 14.648 7.742-16.769 10.268-30.232 10.268-40.67 0-14.773-5.062-23.506-7.566-26.937-.832-1.133-1.372-1.673-1.372-1.673a.42.42 0 010-.582.41.41 0 01.582-.01c34.722 32.903 41.696 78.969 41.696 110.719 0 21.447-3.18 36.397-3.18 36.407l-.01.052c-1.144 3.39-4.646 4.242-4.709 4.262-14.134 3.13-26.595 4.159-36.832 4.159-19.206 0-30.575-3.597-30.607-3.608" fill="#007DC5" fill-rule="nonzero"/><path d="M345.743 376.13c-.54-.426-.883-1.154-.873-2.173 0-.457.063-.998.208-1.611 0-.01 1.133-4.356 2.266-11.852a210.126 210.126 0 002.245-30.586c0-33.08-7.93-79.229-44.773-115.117a5.09 5.09 0 01-.997-.821c-.125-.145-.26-.28-.28-.582-.011-.198.145-.437.31-.5.167-.082.313-.093.49-.093.363 0 .862.083 1.662.28.031.022 9.821 2.995 16.701 10.72-.062-.479-.145-1.082-.239-1.8a65.56 65.56 0 00-1.756-7.942c-1.83-6.435-5.248-14.669-11.484-21.853-.01-.01-.873-.914-1.34-1.538-.146-.25-.281-.333-.323-.686 0-.073.02-.23.135-.343a.512.512 0 01.333-.125c.301.02.426.124.727.301.28.177.655.437 1.164.811 2.204 1.071 94.752 45.858 97.994 136.315 0 .02.042.53.042 1.341-.01 2.204-.354 6.623-3.274 9.128-.894 1.123-22.823 28.413-55.092 38.892-.021 0-.977.375-2.048.375-.603 0-1.268-.115-1.798-.541" fill="#007DC5" fill-rule="nonzero"/><path d="M415.358 312.453c-.25-.644-.385-1.549-.416-2.765-2.11-87.037-97.495-141.815-121.347-154.134-3.398-1.757-5.32-2.651-5.32-2.651l-1.674-.77 1.84-.02h.228c12.503.01 20.162 7.568 22.438 10.177v-.01c0-2.287-.457-4.689-.904-6.518-.468-1.84-.925-3.078-.925-3.078l-.301-.852.841.312c9.988 3.805 22.854 5.063 35.471 5.063 12.19 0 24.163-1.175 33.07-2.35 8.917-1.185 14.758-2.36 14.768-2.36l.021-.01h.02c.469-.042.915-.063 1.331-.063 5.072-.01 6.693 2.86 6.911 3.348 11.921 13.307 26.69 44.142 29.163 81.163.301 4.658.447 9.16.447 13.515-.032 32.488-7.795 56.17-12.368 61.785-.665.81-1.268 1.3-1.985 1.32-.613 0-1.07-.468-1.31-1.102" fill="#007DC5" fill-rule="nonzero"/><path d="M212.296 68.498c.052-.073.135-.145.167-.229l-.031.01c-1.06.302-20.059 5.906-25.691 34.9 0 0-.042.531.27.042 1.704-2.817 7.638-11.81 13.105-9.148 0 0 .031-.229.073-.593.301-2.453 2.078-12.527 12.107-24.982m-14.575 262.036c-4.105-8.254-30.482-65.901-30.482-65.901-8.21 2.62-18.395-4.065-18.395-4.065v.031c12.991 34.474 43.536 64.623 48.41 70.102.041.041.052.041.073.072.831.905.831.582.831.582-.125-.176-.239-.467-.436-.82m-26.15-187.72c-23.82 54.444 29.776 76.89 30.482 77.17l.021.01-2.837-12.537-1.621-7.184a35.909 35.909 0 01-3.815-1.476c-.415-.177-.81-.374-1.216-.562a38.481 38.481 0 01-1.465-.717c-23.415-12.455-21.15-42.281-19.705-51.96 0-.083 0-.135.01-.208.063-.28.105-.551.146-.81.146-.905.26-1.53.333-1.852l.052-.249v-.031c.062-.718-.281.093-.385.405" fill="#051821" fill-rule="nonzero"/><path d="M206.826 296.077l-3.856-68.417 23 76.287s-7.546-18.027-19.144-7.87m1.39-196.705l5.093 40.909s2.494 11.176-12.825-5.583c11.037 22.674 25.369 27.716 25.369 27.716l-17.543-64.03c-.032.104-.156.218-.094.988m-24.44 74.62c-1.434-3.368-2.005-6.445-2.005-9.2 0-9.939 7.316-15.532 7.347-15.563l.219-.167c0 .094-.375-6.31.228-16.56-5.882 8.66-18.343 29.171-3.43 45.212-.238-.322-.446-.623-.654-.915a24.794 24.794 0 01-1.705-2.807" fill="#C4CDD3" fill-rule="nonzero"/><path d="M199.366 182.318c-2.536-4.44-9-18.61-10.009-32.956a2.974 2.974 0 01-.02-.291l-.219.156c-.03.03-7.347 5.614-7.347 15.563 0 2.755.582 5.842 2.005 9.2.406.79.946 1.695 1.705 2.807.208.291.426.593.665.936.27.353.592.676.946 1.05 2.504 2.745 6.745 5.572 13.708 5.874 0 0-.572-.832-1.434-2.34" fill="#051821" fill-rule="nonzero"/><path d="M220.172 312.25c2.38.03 4.188 2.193 5.675 5.218 1.486 3.036 2.68 7.06 3.606 11.062 1.153 4.97 1.891 9.96 2.286 12.995-.01 1.372-.02 2.38-.052 2.973v.052c.5-3.306 5.342-35.284-10.902-39.786 0 0-11.307-2.89-10.58 20.678.073-.55.135-1.019.177-1.455 3.71-8.338 6.818-11.675 9.79-11.738" fill="#C4CDD3" fill-rule="nonzero"/><path d="M231.681 344.545v.01-.01zm.061-3.016c-.062-.998-1.143-8.026-2.296-13.005-.925-4.003-2.11-8.016-3.607-11.052-1.475-3.025-3.294-5.187-5.664-5.219-2.983.052-6.08 3.4-9.79 11.738-.228.603-.176.686-.176 1.445l5.59 12.33s3.223-33.019 15.86 6.674c.01.083.01.146.021.166v-.072.02-.062c.042-.582.177-1.31.062-2.963" fill="#051821" fill-rule="nonzero"/><path d="M0 0h500v500H0z"/></g></svg>