<svg width="500" height="500" viewBox="0 0 500 500" xmlns="http://www.w3.org/2000/svg"><g fill="none" fill-rule="evenodd"><path d="M0 0h500v500H0z"/><g fill-rule="nonzero"><path d="M251.972 65.385c49.704 0 96.5 19.415 131.804 54.727 35.242 35.234 54.684 82.107 54.684 131.769 0 102.908-83.619 186.58-186.488 186.58-49.823 0-96.677-19.376-131.962-54.703-35.161-35.25-54.627-82.089-54.627-131.877 0-49.662 19.466-96.535 54.627-131.77 35.285-35.311 82.14-54.726 131.962-54.726" stroke="#FFF" stroke-width="3.846" fill="#FFC627"/><path d="M251.998 423.539c94.596 0 171.542-76.95 171.542-171.666 0-94.542-76.946-171.565-171.542-171.565-94.708 0-171.692 77.023-171.692 171.565 0 94.716 76.984 171.666 171.692 171.666" fill="#8B2332"/><path d="M93.365 251.878c0-87.385 71.154-158.512 158.615-158.512 87.443 0 158.5 71.127 158.5 158.512 0 87.454-71.057 158.6-158.5 158.6-87.461 0-158.615-71.146-158.615-158.6" fill="#0D2240"/><path d="M377.043 185.381l3.543-1.98-11.416-17.708-3.196 2.308c-19.419-24.496-53.888-51.812-86.696-55.946 24.7 11.277 52.489 40.08 69.458 62.284l-17.827 12.958 2.142 3.292-80.53 52.32-80.531-52.32 2.157-3.292-17.93-12.958c17.08-22.204 44.8-51.007 69.53-62.284-32.769 4.13-67.269 31.384-86.53 55.857l-3.343-2.407-11.419 17.669 3.562 2.061-.093.146c-14.18 27.854-24.6 70.912-14.45 102.412-.265-27.215 14.358-64.65 27.493-89.57l19.234 10.84 1.989-3.04 74.784 47.008-98.642 64.097-.15-.196-13.223 3.565.142.327c-.646 2.458.566 7.011 3.377 11.358 2.804 4.469 6.346 7.411 9 7.9l.227.365 8.78-10.612-.076-.196 196.48-123.615 1.92 3.038 19.288-10.838c13.116 24.92 27.758 62.354 27.589 89.57 10.142-31.5-.404-74.559-14.642-102.412" fill="#FFC627"/><path d="M366.902 316.932l-.15.196-90.77-58.961-15.896 9.411 98.566 62.062-.108.192 8.758 10.615.265-.365c2.65-.488 6.196-3.43 9.004-7.9 2.727-4.35 4.02-8.904 3.373-11.358l.162-.327-13.204-3.565zm-98.813-189l-6.823 8.915-9.446-22.546v104.13l31.723-40.603 31.915 8.227z" fill="#FFC627"/><path fill="#FFF" d="M268.089 152.342V127.93l-6.823 8.92zm-16.27-38.043l-57.569 70.177 25.408-6.461 32.162 40.419z"/><path d="M218.029 376.915c8.146-7.83 18.523-12.611 29.715-13.665v-15.608H204.74c1.023 11.366 5.796 21.55 13.289 29.273m29.718 14.465v-18.462c-8.35 1.02-16.077 4.527-22.431 10.289 6.611 4.408 14.23 7.292 22.43 8.173" fill="#FFC627"/><path d="M257.294 295.752v18.408c8.331-1.008 16.116-4.466 22.339-10.22-6.52-4.442-14.093-7.35-22.339-8.188m29.68 14.483c-8.161 7.735-18.507 12.611-29.677 13.6v14.196h42.927a48.258 48.258 0 00-13.25-27.796m-39.227 3.921v-18.403a48.158 48.158 0 00-22.324 8.192c6.247 5.75 13.973 9.204 22.323 10.211" fill="#FFF"/><path d="M257.294 347.645v15.608a49.14 49.14 0 0129.677 13.665c7.512-7.723 12.458-17.912 13.35-29.273h-43.027z" fill="#FFC627"/><path d="M204.84 338.034h42.907v-14.197c-11.196-.988-21.496-5.873-29.719-13.603a48.04 48.04 0 00-13.188 27.8" fill="#FFF"/><path d="M257.294 391.38a49.016 49.016 0 0022.339-8.173c-6.223-5.762-14.008-9.27-22.339-10.289v18.462z" fill="#FFC627"/></g></g></svg>