<svg width="500" height="500" viewBox="0 0 500 500" xmlns="http://www.w3.org/2000/svg" xmlns:xlink="http://www.w3.org/1999/xlink"><defs><path id="a" d="M384.616 0v384.616H.001V0z"/></defs><g fill="none" fill-rule="evenodd"><path d="M0 0h500v500H0z"/><g transform="translate(57.692 57.692)"><mask id="b" fill="#fff"><use xlink:href="#a"/></mask><path d="M376.924 192.308c0 101.958-82.658 184.615-184.615 184.615-101.966 0-184.616-82.657-184.616-184.615 0-101.962 82.65-184.615 184.615-184.615 101.958 0 184.616 82.653 184.616 184.615" stroke="#FFF" stroke-width="3.846" fill="#B4B2B2" fill-rule="nonzero" mask="url(#b)"/></g><path d="M429.317 250c0 99.035-80.285 179.32-179.316 179.32-99.038 0-179.32-80.285-179.32-179.32 0-99.038 80.282-179.319 179.32-179.319 99.03 0 179.316 80.28 179.316 179.32" fill="#1D428A" fill-rule="nonzero"/><path d="M250 402.904c-84.453 0-152.91-68.457-152.91-152.904 0-84.453 68.458-152.907 152.911-152.907 84.45 0 152.912 68.454 152.912 152.907 0 84.447-68.462 152.904-152.912 152.904z" fill="#C8102E" fill-rule="nonzero"/><path d="M249.999 394.135c-61.073 0-113.358-38.196-134.316-91.934 25.627 35.073 76.216 59 134.316 59 58.104 0 108.688-23.927 134.32-59-20.959 53.738-73.247 91.934-134.32 91.934m0-288.277c61.073 0 113.365 38.2 134.32 91.947-25.632-35.073-76.213-59.004-134.32-59.004-58.104 0-108.689 23.93-134.316 59.004 20.954-53.746 73.243-91.946 134.316-91.946M105.972 254.497h28.142V245.5h-28.142c.108-3.404.288-6.793.627-10.131 9.973-50.208 70.461-88.954 143.4-88.954 72.935 0 133.427 38.746 143.404 88.958.338 3.338.523 6.723.627 10.127h-28.146v8.996h28.146c-.104 3.408-.289 6.792-.627 10.135-9.977 50.207-70.47 88.95-143.404 88.95-72.939 0-133.427-38.739-143.4-88.95-.339-3.343-.52-6.727-.627-10.135M249.999 97.089c-84.312 0-152.908 68.596-152.908 152.912 0 84.311 68.596 152.904 152.908 152.904 84.315 0 152.911-68.593 152.911-152.904 0-84.316-68.596-152.912-152.911-152.912" fill="#FEFEFE" fill-rule="nonzero"/><path fill="#FEFEFE" fill-rule="nonzero" d="M185.386 302.571h10.82v-48.577H185.39zm41.442-48.554h-.327c-3.038-.023-14.08-.065-16.2-.023l-.55.031c-3.265 0-5.338 1.55-5.846 4.362-.088.457-.092.807-.088.807-.012.1-.75 9.204.146 11.773 1.45 4.181 4.823 5.727 7.927 6.689.103.027.207.061.323.092.196.05.403.104.6.189.342.138.58.323.723.553l.046 17.493-8.927.027.035 6.473 11.738.011h.008c4.077-.177 6.884-1.961 7.927-5.042.296-2.373.334-18.662.1-22.062-.073-1.284-.662-2.315-1.847-3.25a13.793 13.793 0 00-1.757-1.13 46.038 46.038 0 00-2.004-.985c-2.535-1.238-5.412-2.646-5.412-5.88l.008-2.766h8.492c1.743 0 3.131-.854 4.035-2.462.685-1.23.87-2.461.865-2.53a13.3 13.3 0 00.004-2.043l-.019-.327zm45.867 10.911c.05-1.28.157-2.242.334-3l.193-.188a9.408 9.408 0 011.527-.108l.219.004c3.665.042 3.769 1.142 3.769 7.777v20.285c0 .607 0 1.177-.039 1.777a10.32 10.32 0 01-.2 1.642l-.196.192c-.642.092-1.261.142-1.93.142-1.347 0-2.281-.292-2.862-.888-.861-.888-.888-2.373-.835-4.085v-20.484s-.019-2.277.02-3.066m3.565-10.953c-2.435 0-4.973.08-7.015.657-5.296 1.277-7.873 4.816-7.873 10.82v28.896c0 7.404 5.296 8.923 13.246 8.923 9.634 0 15.157-3.404 15.157-9.331l.016-30.12c0-9.845-6.273-9.845-13.531-9.845m38.592 20.663c-5.165-18.704-13.453-20.792-16.888-20.792-.893 0-1.43.142-1.45.15l-.258.069-.004 48.538 10.95.016v-19.527l7.627 19.527h11.131v-48.577h-11.108v20.596zm-146.997.909l-6.085.008v-14.108s3.308-.065 3.8 0c1.2.154 2.312.62 2.312 2.062 0 .469-.027 12.038-.027 12.038m4.37-21.57l-27.293.035-.335.004-.015.331c-.004.058-.235 5.78 6.15 7.112v41.127h11.192v-20.67h9.416c4.969 0 7.819-3.269 7.819-8.969l.027-1.738c0-13.762-.558-16.52-6.962-17.231m85.788.075h-25.315v7.638h7.215v40.966l11.127-.008.008-41.004c.139.008.273.012.404.012 1.988 0 3.573-.608 4.708-1.808 2.019-2.123 1.876-5.327 1.873-5.465l-.02-.33zm97.428-.036h-.327c-3.043-.023-14.081-.065-16.204-.023l-.546.031c-3.266 0-5.339 1.55-5.847 4.362-.088.457-.088.807-.088.807-.012.1-.754 9.204.146 11.773 1.45 4.181 4.823 5.727 7.923 6.689.108.027.212.061.323.092.2.05.404.104.6.189.343.138.585.323.727.553l.046 17.493-8.927.027.031 6.473 11.743.011h.011c4.07-.177 6.88-1.961 7.923-5.042.296-2.373.335-18.662.104-22.062-.08-1.284-.665-2.315-1.854-3.25a13.724 13.724 0 00-1.754-1.13 50.657 50.657 0 00-2-.985c-2.542-1.238-5.411-2.646-5.411-5.88l.004-2.766h8.488c1.746 0 3.135-.854 4.035-2.462.684-1.23.873-2.461.869-2.53.073-.804.038-1.55.004-2.043l-.02-.327zm-99.294-49.825l1.842-.004.292.004c2.831.046 3.885.061 3.812 5.046.008 3.977 0 4.227-.08 6.189l-.008.373c.007.573-.235 1.203-.6 1.58a1.234 1.234 0 01-.904.393h-4.354v-13.581zm-.031 19.827h1.877c1.808.038 4.838.592 4.838 3.838 0 1.55.139 6.408.193 8.231l.023.73c.011.27.13 2.647.246 3.097.777 2.83 2.977 4.527 6.412 4.896h3.169v-17.288c0-1.485-.808-3.562-1.973-5.046l-.231-.316c1.738-1.95 2.411-3.915 2.411-6.915l.012-1.689c0-13.43-.535-16.119-6.77-16.811h-21.015v47.411h10.808V224.02zm67.106-27.273h-10.543l-.034 47.384 10.577.008zM221.99 244.2l10.85-.015.015-40.05c.134.004.265.008.396.008 1.946 0 3.496-.593 4.604-1.766 1.965-2.07 1.823-5.188 1.815-5.315l-.015-.32h-24.704v7.443h7.038V244.2zm113.82 0l10.857-.015v-40.05c.135.004.273.008.4.008 1.954 0 3.504-.597 4.616-1.766 1.965-2.073 1.827-5.188 1.82-5.315l-.02-.32h-24.708v7.443h7.035V244.2zm-126.54-7.666h-11.362v-11.52h7.789v-10.319h-7.789v-10.669h11.362v-7.28h-21.904l-.038 47.384h21.942zm-39.434 0h-6.004v-32.358c3.719-.153 4.507.173 4.569.204 1.4.55 1.373 3.146 1.373 3.216.392 3.746.104 25.957.061 28.938m3.747-39.788H146.56l-.039.288c-.02.115-.342 2.839 1.412 4.912 1.111 1.323 2.807 2.061 5.061 2.207v39.92h20.123c4.589 0 7.67-3.9 7.67-9.7l.007-21.993c.008-12.134.012-15.396-7.211-15.634m116.33 10.72c.053-1.254.16-2.192.334-2.942l.196-.18a9.613 9.613 0 011.508-.105h.215c3.643.046 3.746 1.127 3.746 7.616v19.85c0 .596 0 1.154-.038 1.742-.03.565-.096 1.104-.196 1.604l-.2.188a12.55 12.55 0 01-1.916.143c-1.327 0-2.257-.289-2.834-.873-.858-.87-.885-2.32-.831-3.996v-20.05s-.02-2.227.015-2.997m3.543-10.719c-2.416 0-4.935.073-6.966.642-5.257 1.25-7.811 4.712-7.811 10.585v28.285c0 7.246 5.257 8.727 13.146 8.727 9.557 0 15.042-3.327 15.042-9.127l.016-29.481c0-9.63-6.223-9.63-13.427-9.63"/></g></svg>