<svg width="500" height="500" viewBox="0 0 500 500" xmlns="http://www.w3.org/2000/svg" xmlns:xlink="http://www.w3.org/1999/xlink"><defs><path id="a" d="M383.873.74H0v384.685h383.873z"/></defs><g fill="none" fill-rule="evenodd"><g transform="translate(57.692 57.844)"><mask id="b" fill="#fff"><use xlink:href="#a"/></mask><path d="M191.94.738C86.108.738-.001 87.027-.001 193.092c0 106.055 86.109 192.333 191.943 192.333 105.834 0 191.932-86.278 191.932-192.333C383.873 87.027 297.775.738 191.941.738" fill="#FEFEFE" fill-rule="nonzero" mask="url(#b)"/></g><path d="M249.634 63.856c-103.129 0-186.68 83.778-186.68 187.08s83.551 187.06 186.68 187.06c103.097 0 186.67-83.758 186.67-187.06s-83.573-187.08-186.67-187.08" fill="#0F4B90" fill-rule="nonzero"/><path d="M392.714 318.576c-28.397-6.37-54.7-16.117-78.699-27.677a439.904 439.904 0 01-10.925-5.495c-17.567-9.124-33.766-19.154-48.501-29.406a482.017 482.017 0 01-8.726-6.234c-.19-.126-.358-.264-.526-.38a476.192 476.192 0 01-11.01-8.322 508.775 508.775 0 01-16.557-13.448 491.638 491.638 0 01-16.904-15.03 484.43 484.43 0 01-12.788-12.309c-.842-.822-1.632-1.635-2.431-2.447a478.501 478.501 0 01-15.894-16.897c-.126-3.712-.221-6.961-.305-9.798a2156.78 2156.78 0 01-.326-11.244l-5-2.267-3.473 3.037-1.18 1.023s.053 2.743.159 7.468c-1.074-1.319-1.895-2.352-2.6-3.228-.042-3.987-.063-7.056-.084-9.092-.021-1.814-.021-2.816-.021-2.816h-6.926l-.127 4.124-4.168 1.034s-.168 8.754-.42 22.709c-9.937 22.75-20.336 40.797-29.725 54.752a263.226 263.226 0 01-13.304 18.088c-4.684 5.791-8.778 10.295-11.946 13.533-.59-4.082-1-8.217-1.274-12.383-.253-3.607-.41-7.235-.41-10.906 0-3.692.157-7.33.41-10.97 2.505-37.316 17.63-71.163 41.207-97.247a161.858 161.858 0 0116.515-15.853c25.377-21.148 57.353-34.596 92.372-36.832 3.452-.221 6.904-.38 10.41-.38 4.073 0 8.093.212 12.093.507 35.229 2.616 67.258 16.591 92.53 38.287a161.82 161.82 0 0115.798 15.547c22.62 25.567 37.24 58.38 39.987 94.516.316 4.114.516 8.248.516 12.425 0 3.027-.106 6.023-.264 8.997-1.284 23.183-7.452 45.059-17.482 64.614zm-298.66-31.99a156.646 156.646 0 01-1.748-7.3 663.429 663.429 0 005.695-8.132l-3.947 15.431zm16.83-32.53l-9.494 53.972a159.467 159.467 0 01-4.926-13.31l7.126-31.896c1.79-2.7 3.694-5.622 5.61-8.638a311.239 311.239 0 002.294-3.597l-.61 3.47zm30.334-43.592l-4.904 27.677-2.548 14.46-15.209 86.004c-2.316-3.238-4.537-6.529-6.6-9.935l13.379-75.573 2.757-15.505 2.316-13.152 1.631-9.187a430.898 430.898 0 0013.041-26.632l-3.863 21.843zm75.005 30.514l2.737 8.66 25.292 79.96c-3.473.232-6.873.453-10.251.696l-25.262-80.488-2.81-8.965-1.263-4.03-8.662-27.58c1.757 1.729 3.505 3.406 5.241 5.083a965.88 965.88 0 009.326 8.839l5.652 17.825zm13.42.084l2.663 8.407 13.157 41.536 11.967 37.739.01.063h-.01c-3.263.18-6.494.369-9.683.57l-2.958-9.398-22.188-70.405-2.705-8.564-4.136-13.121a740.146 740.146 0 0013.494 11.982l.39 1.191zm55.732 86.416c-3.368.126-6.704.274-10.02.422l-20.63-65.553-.642-2.025c.2.169.4.295.6.454a582.557 582.557 0 0012.452 9.45l18.24 57.252zm28.261-.802c-3.63.074-7.252.148-10.84.243l-12.916-40.745a485.899 485.899 0 0014.01 8.934l9.747 31.568zm27.998-11.043c12.357 5.812 21.693 9.26 27.398 11.117-8.041-.19-16.03-.295-23.977-.338l-3.42-10.779zm-16.714-8.427a342.08 342.08 0 0012.483 6.402l4.052 12.805c-1.22 0-2.431.01-3.652.01-2.295 0-4.59 0-6.873.01l-4.21-13.458-1.8-5.77zm-16.599-9.43a406.325 406.325 0 0012.273 7.077l6.768 21.623c-1.853.02-3.684.052-5.547.074-1.526.02-3.063.031-4.59.052l-6.178-19.977-2.726-8.849zM285.45 283.2c.2.116.369.254.569.38l-.495-.147 13.746 43.582c-3.484.105-6.936.221-10.367.337l-16.778-53.454c4.558 3.29 8.978 6.36 13.304 9.281l.074.243.02.01-.073-.231zm-51.459-39.257a620.225 620.225 0 006.536 5.463 569.502 569.502 0 005.326 4.336c1.074.864 2.158 1.772 3.232 2.615l5.957 18.785 16.799 52.906c-3.674.17-7.305.37-10.894.56l-4.274-13.449-11.051-34.659-9.884-31.062-1.747-5.495zm109.602 111.413c-18.893-.928-46.46-1.72-84.52-1.688-4.989.01-10.157.032-15.514.063a3254.05 3254.05 0 00-38.902.496 1854.03 1854.03 0 0138.933-1.36c5.2-.137 10.326-.243 15.389-.338 31.292-.59 60.058-.496 81.951-.232 11.526.137 21.156.338 28.282.496a161.808 161.808 0 01-3.684 3.913 794.338 794.338 0 00-21.935-1.35zm-165.008 4.577a2702.59 2702.59 0 0164.721-.685c5.368.01 10.768.042 16.188.095 31.577.306 63.964 1.34 91.225 3.755 2.558.232 5.147.453 7.61.706-1.2 1.118-2.453 2.173-3.695 3.249-28.197 24.407-64.91 39.205-105.097 39.205-24.219 0-47.175-5.4-67.784-15.01-1.126-8.638-2.19-19.29-3.168-31.315zm-11.62 23.468c-1.253-.738-2.474-1.529-3.695-2.31-.442-6.38-.852-13.353-1.242-20.746 1.18-.043 2.41-.064 3.621-.106.442 9.082.874 16.94 1.316 23.162zm8.473-69.834c-.6-10.242-1.147-20.705-1.663-31.168L180.93 305l4.368 13.744 4.831 15.22c-4.63.453-9.062.907-13.356 1.36-.064-.833-.106-1.687-.169-2.52-.4-6.276-.79-12.7-1.168-19.24zm-3.558-73.632c-.084-2.184-.179-4.451-.273-6.592l2.094 6.666 3.326 10.642 12.168 38.825 4.094 13.1 9.462 30.219c-3.094.274-6.146.559-9.125.844l-6-19.112-4.294-13.649-10.231-32.623c-.263-5.886-.526-11.708-.768-17.435a6449.35 6449.35 0 01-.453-10.885zm-37.586 100.433l9.43-53.38c-.2 18.752-.315 36.852-.305 52.198-3.284.412-6.294.802-9.125 1.182zm9.346 25.989a141.702 141.702 0 01-5.705-5.263c1.685-.053 3.526-.116 5.621-.19.021 1.93.053 3.744.084 5.453zm-3.884-127.994l5.032-28.499c-.148 8.965-.306 18.669-.453 28.763-.063 4.409-.126 8.892-.179 13.416-.084 5.643-.158 11.339-.231 17.056l-.474-.085-12.725 71.839c-3.558.485-6.663.928-9.358 1.308l15.894-89.76 2.494-14.038zm36.44-49.161c2.105 2.215 4.23 4.398 6.325 6.56 2.242 2.3 4.453 4.557 6.663 6.761.274.285.579.59.853.865l1.105 3.491 6.505 20.43 4.283 13.47 2.895 9.113.116.369 25.545 80.287c-3.347.243-6.641.496-9.894.738l-18.177-58.18-4.084-13.036-3.105-9.957-2.968-9.545-14.336-45.86-1.726-5.506zm-6.41-6.761l.82.854 3.295 10.495 14.641 46.693 3.063 9.725 5.326 17.013 3.989 12.7 16.21 51.65c-3.706.296-7.326.601-10.895.907l-10.851-35.007-4.032-12.963-10.546-33.984-3.232-10.378-6.504-21c-.358-9.62-.674-18.406-.926-26.21-.127-3.734-.253-7.3-.358-10.495zm-12.715-13.88c.873.98 1.747 1.908 2.61 2.879.148 5.748.348 13.827.58 23.5.325 12.625.725 27.982 1.188 44.562.106 3.85.21 7.763.327 11.73.726 25.007 1.579 51.85 2.473 75.709.116 3.29.242 6.54.369 9.703a623.74 623.74 0 01-3.663.422c-.084-2.151-.158-4.377-.253-6.56-.979-25.472-1.726-53.254-2.294-79.138-.085-4.06-.158-8.069-.242-12.013a8277.876 8277.876 0 01-.737-42.791c-.169-11.18-.274-20.821-.358-28.004zm-37.271 68.41c2.358-3.987 4.747-8.058 7.126-12.33l-.969 5.59-1.252 7.12-2.79 15.958-12.409 71.09a156.053 156.053 0 01-5.82-11.275l10.462-59.288 1.863-10.547c.452-.728.916-1.53 1.358-2.257a459.365 459.365 0 002.431-4.061zM249.536 72.915c-94.855 0-171.755 77.028-171.755 172.092 0 95.075 76.9 172.103 171.755 172.103 48.228 0 91.772-19.935 122.97-52.01 1.052-.558 2.305-2.077 3.41-3.586 28.145-30.65 45.344-71.543 45.344-116.507 0-95.064-76.868-172.092-171.724-172.092z" fill="#FEC42F" fill-rule="nonzero"/><path d="M88.621 244.97c0 3.67.158 7.3.411 10.896 2.295-.222 6.757-.633 13.22-1.15 4.042-5.01 8.547-11.011 13.304-18.089-14.346-1.181-23.398-2.246-26.524-2.626-.253 3.628-.41 7.278-.41 10.97m321.837 0c0-4.188-.2-8.323-.515-12.426a1934.514 1934.514 0 01-106.708 7.12c1.653-25.208 13.789-47.928 30.956-69.961 13.872-17.847 28.482-27.55 35.765-31.674a160.73 160.73 0 00-15.798-15.558c-12.547 12.414-53.544 57.42-56.46 117.425-15.145.538-29.586.865-43.312 1.034-.831-93.525 6.505-151.22 7.242-156.746-4-.296-8.01-.496-12.094-.496-3.505 0-6.957.158-10.41.37.79 7.52 6.431 64.898 6.705 156.956-3.884.021-7.726.042-11.504.042a476.408 476.408 0 0011.01 8.322h.526v.38a396.192 396.192 0 008.725 6.233c-.031-2.236-.063-4.44-.105-6.634 13.673 0 28.04.095 43.102.348.242 11.455 1.926 23.394 5.505 35.703a440.073 440.073 0 0010.925 5.496c-6.852-14.545-10.283-28.162-10.883-41.093 32.745.611 68.595 1.898 107.065 4.145.158-2.975.263-5.96.263-8.987M146.754 120.89a161.951 161.951 0 00-16.515 15.863c4.158 2.163 13.347 7.52 23.788 17.267h2.894s0 .991.021 2.805a144.13 144.13 0 013.705 3.829l3.474-3.027 5 2.257s.105 4.156.326 11.254c7.22 9.408 13.504 18.954 18.44 28.763l12.747 11.834c-12.041-48.36-45.386-82.713-53.88-90.845" fill="#FEFEFE" fill-rule="nonzero"/><path d="M0 0h500v500H0z"/></g></svg>