<svg width="500" height="500" viewBox="0 0 500 500" xmlns="http://www.w3.org/2000/svg"><g fill="none" fill-rule="evenodd"><g fill-rule="nonzero"><path d="M115.14 264.77c10.876-5.907 40.044-10.488 66.948-14.544a1818.284 1818.284 0 01-.523 33.074c-47.529-5.221-64.775-14.44-66.424-18.53zm115.387-156.528c28.292 3.827 44.48 11.345 45.822 21.387 1.388 10.373-1.035 18.885-7.041 25.602-9.715 8.866-24.493 13.515-37.018 15.937.137-24.105-.432-44.418-1.763-62.926zm.808 112.303c.25-9.574.512-19.444.694-29.52 23.127 3.415 36.573 9.824 36.346 17.593l-.728 77.972c-12.173.309-25.005.252-37.075-.08l.171-5.255c-.523-17.64.023-38.558.592-60.71zm85.66 63.12l.387-33.085c52.66 7.186 65.947 12.864 67.596 16.029 0 0-.045.24-.375.765-9.5 6.923-34.401 12.898-67.607 16.291zm118.22-14.829c-.217-4.58-2.47-8.865-6.701-12.75-15.87-14.52-60.975-23.122-110.938-21.683l.432-36.81c-.011-7.643-2.514-13.96-7.417-18.782-3.447-3.381-7.963-5.917-13.515-7.597 5.2-3.119 10.295-6.969 14.618-11.687 12.23-11.379 17.85-25.717 16.723-42.602-.728-10.705-5.37-19.776-13.81-26.95-16.7-14.235-47.029-19.8-87.8-16.155-3.094-21.535-7.44-40.202-13.253-56.95L207.98.817l-1.923 5.963-1.046-3.027-5.21 16.2c-7.236 22.563-12.048 41.642-15.005 59.659-33.502 6.054-56.482 13.549-57.483 13.869l-47.779 15.686 8.35-.766-11.205 3.679 49.963-4.536c.273-.034 25.596-2.056 55.048-2.182-1.65 21.467-1.126 43.093-.466 69.873.41 17.056.876 36.215.91 59.258-45.129-.594-94.819 6.215-109.38 23.318-6.302 5.37-7.485 10.796-7.36 14.44.99 28.367 84.034 38.97 116.933 42.054l2.73 87.592 11.354.251.227-3.027.773.022.558 22.244 11.364.285.228-3.027 1.285.034.57 21.101 11.375.035.103-2.96h2.832l3.868-119.831c12.56.343 25.63.331 38.178-.046l3.936 125.167 11.364.114.148-2.981 1.41 29.909 11.366.034.136-2.97 1.126.011.797 29.864 11.375-.023.069-2.959h2.89l4.163-179.079c58.46-5.575 100.017-17.434 110.927-31.212 5.13-4.341 7.735-8.968 7.735-13.755v-.262z" fill="#FEFEFE"/><path d="M426.586 272.055c0 20.85-80.94 39.517-178.625 39.517-97.697 0-176.157-18.679-176.885-39.517-.66-18.794 54.661-31.11 118.071-28.676-41.192 6.215-82.783 12.087-82.783 23.272 0 16.885 62.454 28.801 141.596 28.801 79.12 0 142.7-11.916 142.7-28.801 0-10.899-38.155-17.388-84.022-23.26 64.194-3.428 119.129 10.533 119.948 28.664" fill="#2D2925"/><path d="M214.763 353.41l2.344 86.22 5.005-155.247C220.1 216.167 233.898 104.207 205.22 21.71c-30.442 94.835-14.06 116.176-18.065 265.197l3.583 114.816 4.767-62.8c.16-7.792 6.063-7.072 6.063-.389l2.093 82.702 5.074-67.302c-.08-9.07 6.268-8.66 6.03-.525" fill="#2D2925"/><path d="M308.098 309.262l-4.357 186.71-2.935-109.949c-.159-7.803-6.655-8.157-6.916 0l-3.572 82.954-3.515-96.035c.01-7.723-5.87-8.168-5.927.549l-3.493 68.478-4.243-135.232.922-98.068c.773-26.219-76.003-25.888-76.003-25.888s91.417 1.908 83.932-53.912c-5.45-40.694-155.862-27.007-155.862-27.007s42.523-13.972 95.853-19.17c59.781-5.816 95.843 8.613 97.8 37.563 3.446 51.228-62.614 58.688-62.614 58.688s52.125-10.157 52.216 21.615l-1.286 108.704z" fill="#2D2925"/><path d="M429.529 269.098c0 20.85-80.929 39.529-178.614 39.529-97.708 0-176.168-18.69-176.885-39.529-.67-18.782 54.662-31.12 118.06-28.675-41.192 6.226-82.783 12.098-82.783 23.271 0 16.897 62.465 28.824 141.608 28.824 79.12 0 142.688-11.927 142.688-28.824 0-10.887-38.143-17.376-84.022-23.271 64.183-3.428 119.117 10.533 119.948 28.675" fill="#C21F32"/><path d="M217.713 350.453l2.332 86.22 5.006-155.247c-2.014-68.227 11.785-180.175-16.871-262.672-30.465 94.835-14.083 116.176-18.076 265.186l3.583 114.816 4.767-62.8c.147-7.78 6.052-7.072 6.052-.366l2.115 82.69 5.063-67.301c-.08-9.083 6.245-8.66 6.029-.526" fill="#C21F32"/><path d="M311.042 306.307l-4.345 186.71-2.947-109.95c-.147-7.802-6.643-8.168-6.916 0l-3.572 82.943-3.515-96.023c.011-7.723-5.87-8.18-5.916.548l-3.504 68.479-4.243-135.232.922-98.068c.773-26.23-75.992-25.865-75.992-25.865s91.406 1.896 83.92-53.935c-5.46-40.694-155.85-26.996-155.85-26.996s42.524-13.995 95.843-19.182c59.792-5.827 95.853 8.603 97.81 37.575C326.172 168.527 260.124 176 260.124 176s52.113-10.18 52.204 21.603l-1.286 108.705z" fill="#C21F32"/></g><path d="M0 0h500v500H0z"/></g></svg>