<svg width="500" height="500" viewBox="0 0 500 500" xmlns="http://www.w3.org/2000/svg" xmlns:xlink="http://www.w3.org/1999/xlink"><defs><path id="a" d="M384.607.148H.004v357.277h384.603z"/></defs><g fill="none" fill-rule="evenodd"><g transform="translate(57.692 69.46)"><mask id="b" fill="#fff"><use xlink:href="#a"/></mask><path d="M354.147 49.987C327.585 17.917 289.485.218 246.84.144L78.52.157.004 357.339l151.981.086 20.01-83.44 63.037.011h1.453c47.927 0 87.381-16.565 113.98-47.796 49.22-53.652 40.526-131.72 3.682-176.213" fill="#FEFEFE" fill-rule="nonzero" mask="url(#b)"/></g><path d="M407.103 123.384c-25.306-30.554-61.743-47.55-102.577-47.612l-163.372.012L65.36 420.63l139.458.098 20.01-83.453c18.73 0 67.987.012 67.926.012 46.732.333 85.054-15.493 110.864-45.8 46.868-51.076 38.63-125.655 3.485-168.103" fill="#B3B1B1" fill-rule="nonzero"/><path d="M217.694 328.185l-20.01 83.441-121.049.05 71.829-326.814 156.032.11c38.852.063 72.137 15.839 95.62 44.211 34.615 41.795 37.99 111.272-3.411 156.419-25.392 29.802-62.617 42.891-103.87 42.595l-75.141-.012z" fill="#081E3F" fill-rule="nonzero"/><path d="M132.379 157.46l68.393.062c7.856 0 16.218 6.594 12.585 16.59-2.229 6.175-3.953 13.336-4.741 20.053-.628 5.25 5.233 8.566 8.583 8.566l139.396.099c2.623 0 4.002-.74 4.002-1.997 0-1.245-.123-5.867-.615-9.108-.493-3.094-.998-3.624-3.498-3.624-17.375-.025-24.456-7.765-42.668-19.523-18.213-11.758-44.922-18.512-67.876-18.537l-111.899-.062-1.662 7.482zm84.44 90.353c-2.413-5.165-4.642-11.315-6.009-16.972-1.724-7.247-7.844-13.139-18.31-13.139l-73.369-.049 1.823-8.233 237.75.16c2.376 0 1.871.998 1.748 3.624-.135 2.625-.739 7.493-1.12 10.365-.382 2.86-2.746 2.182-5.012 2.23-5.345.124-15.294 1.394-21.094 5.744-9.852 7.408-30.86 20.423-42.67 24.207-12.67 4.043-60.018 18.537-73.884-8.172" fill="#FCB424" fill-rule="nonzero"/><path d="M105.986 277.598l124.151.086c5.48 0 10.197 1.306 13.854 4.35 10.492 8.665 24.099 14.951 38.53 19.13 6.478 1.873 17.623-.543 27.585-6.188 24.85-14.063 40.833-40.82 46.092-58.051 1.366-4.5-1.256-4.13-4.73-3.883-10.478.752-21.487 10.23-35.956 19.474-14.494 9.22-43.95 17.958-71.903 17.92l-136.034-.086-1.589 7.248zM288.11 111.182c1.749-.308 8.029-.69 11.526.678 23.582 9.293 45.895 33.882 55.23 59.999 1.797 5.016 2.24 8.233 0 8.492-10.813 1.195-15.862-4.141-28.57-12.769-12.72-8.615-24.443-14.507-40.55-19.634-15.873-5.053-44.787-5.78-48.53-5.904-3.732-.123-3.264-1.688-1.626-3.315 13.854-13.841 32.473-23.886 52.52-27.547m113.151 89.55c.074.998-.997 2.132-2.253 2.132l-27.19-.025c-3.485 0-3.546-1.627-3.67-3.623-.135-1.997-.69-5.99-.812-8.369-.123-2.305-.96-4.942 2.118-6.237 7.573-3.204 14.728-10.612 17.99-16.971 1.097-2.145 2.734-5.694 4.594-2.687 6.44 10.304 8.46 23.01 9.223 35.78m-9.734 48.907c-.468.925-2.204 1.602-2.77.111-3.966-10.624-13.399-17.933-19.888-21.557-1.958-1.097-2.13-2.378-1.884-4.313.27-1.935 1.083-8.123 1.207-10.736.098-2.07.935-3.562 2.487-3.562l28.335.013c1.01.012 2.266.912 2.266 1.664 0 13.52-4.113 26.88-9.753 38.38" fill="#FCB424" fill-rule="nonzero"/><path d="M317.834 302.865c-1.995.284-6.354-.406.517-4.387 20.59-11.98 38.938-40.094 43.839-56.24 1.86-6.163 2.056-6.483 4.42-5.805 3.153.9 8.115 5.189 11.908 10.44 3.818 5.237 5.455 15.455 3.264 18.388-14.802 19.88-38.322 33.845-63.948 37.604m52.385-127.248c-4.79 2.576-5.727 2.095-6.749-1.504-8.94-31.417-35.329-54.674-46.116-61.552-2.057-1.294-1.527-2.169-.037-1.972 25.823 3.44 51.128 17.54 63.873 36.84 7.266 11.068-6.354 25.686-10.972 28.188" fill="#FCB424" fill-rule="nonzero"/><path d="M0 0h500v500H0z"/></g></svg>