<svg width="500" height="500" viewBox="0 0 500 500" xmlns="http://www.w3.org/2000/svg" xmlns:xlink="http://www.w3.org/1999/xlink"><defs><path id="a" d="M0 384.615h384.615V0H0z"/></defs><g fill="none" fill-rule="evenodd"><path d="M0 0h500v500H0z"/><path d="M57.692 250c0-106.209 86.1-192.308 192.308-192.308 106.209 0 192.308 86.1 192.308 192.308 0 106.209-86.1 192.308-192.308 192.308-106.209 0-192.308-86.1-192.308-192.308" fill="#FFF" fill-rule="nonzero"/><path d="M382.166 351.585c-20.95-27.17-32.85-59.47-34.474-93.572h68.897c-1.629 34.13-13.509 66.437-34.423 93.572m-124.153 65V368.81h-16.028v47.775c-43.399-2.065-83.646-20.675-113.532-52.508 24.423-30.499 38.202-67.135 39.89-106.064v-16.028c-1.688-38.929-15.467-75.565-39.89-106.064 29.886-31.832 70.133-50.447 113.532-52.507v47.347h16.028V83.414c43.4 2.06 83.65 20.675 113.536 52.508-24.427 30.498-38.202 67.135-39.89 106.063v16.028c1.688 38.929 15.463 75.565 39.89 106.064-29.886 31.833-70.137 50.443-113.536 52.508m-140.176-65c-20.919-27.135-32.799-59.443-34.423-93.572h68.897c-1.625 34.102-13.528 66.405-34.474 93.572m0-203.171c20.95 27.17 32.849 59.474 34.474 93.571H83.414c1.625-34.129 13.504-66.432 34.423-93.571m264.329 0c20.914 27.135 32.794 59.438 34.423 93.571h-68.897c1.624-34.097 13.524-66.401 34.474-93.571M249.999 67.162c-100.816 0-182.837 82.02-182.837 182.837 0 100.82 82.02 182.838 182.837 182.838 100.82 0 182.838-82.017 182.838-182.838 0-100.816-82.017-182.837-182.838-182.837" fill="#061922" fill-rule="nonzero"/><path fill="#C8102E" fill-rule="nonzero" d="M210.88 173.73v152.54h81.5v-20.974h-59.687V173.73z"/><path d="M320.084 224.835v-62.853c0-9.42-3.791-13.262-13.089-13.262H196.061c-9.176 0-12.924 3.842-12.924 13.262v176.656c0 9.415 3.748 13.257 12.924 13.257h110.934c9.298 0 13.089-3.842 13.089-13.257v-62.924h-21.982v56.892h-93.147V168.01h93.147v56.825h21.982z" fill="#1D428A" fill-rule="nonzero"/><g transform="translate(57.692 57.692)"><mask id="b" fill="#fff"><use xlink:href="#a"/></mask><path d="M202.77 181.633h10.625v-44.624H202.77v44.624zm31.88 60.07l.036-125.667h-52.955l-.514 125.667h21.205l.341-39.175h10.781l-.153 39.175h21.26z" fill="#C8102E" fill-rule="nonzero" mask="url(#b)"/></g></g></svg>