<svg width="500" height="500" viewBox="0 0 500 500" xmlns="http://www.w3.org/2000/svg" xmlns:xlink="http://www.w3.org/1999/xlink"><defs><path d="M15.007 134.445C5.753 115.915.538 94.96.538 72.773.538 46.03 8.114 21.08 21.21.004h107.407v134.44H15.007z" id="a"/><path d="M52.516 112.703c13.678-21.39 21.62-46.894 21.62-74.278 0-13.277-1.867-26.111-5.349-38.25H.182v112.528h52.334z" id="c"/><path d="M16.57 20.173A137.007 137.007 0 006.304.101H.174v20.072H16.57z" id="e"/><path d="M217.201 54.664C192.567 21.541 153.415.127 109.321.127 64.424.127 24.644 22.342.104 56.517v1.331H217.2v-3.184z" id="g"/><path d="M.023 24.71c23.335 40.903 66.97 68.425 116.941 68.425 51.241 0 95.808-28.919 118.674-71.525V.505H.023V24.71z" id="i"/></defs><g fill="none" fill-rule="evenodd"><g fill-rule="nonzero"><path d="M108.758 162.919s42.556-69.449 129.69-69.449c87.135 0 127.668 67.43 127.668 67.43H484.33l-4.736 28.976s-3.379 11.472-8.78 12.818h8.106s2.705 10.118-13.508 45.174h34.449s1.348 61.34-72.952 90.333c0 0-38.503 12.137-58.095-8.756 0 0-39.177 72.813-130.365 72.813-91.188 0-132.395-74.832-132.395-74.832H0l16.896-30.338H5.41l13.508-24.946h22.964l4.053-9.454H35.132l26.342-48.539h14.857l6.084-14.828H69.581l19.584-36.402h19.593z" fill="#FEFEFE"/><path d="M239.72 386.015c74.555 0 134.986-61.226 134.986-136.771 0-75.53-60.43-136.763-134.986-136.763-74.547 0-134.985 61.234-134.985 136.763 0 75.545 60.438 136.77 134.985 136.77" fill="#FEC42F"/><path d="M254.615 248.57l-5.887-.05a.752.752 0 00-.756.747c0 .41.337.747.756.747l5.969-.057c2.014 0 3.873.254 3.363 1.148l-15.474 29.493c-1.924 3.52-5.993 2.626-6.643-.18l-7.663-39.53 26.951-20.875c2.68-2.298 7.828-6.04 10.467-5.99l5.878-.034c3.577-.024 4.843 1.65 4.004 3.8l-1.036 2.002c-.674 1.116-2.795 1.255-4.587 1.255h-3.396a.754.754 0 00-.748.764c0 .41.337.746.748.746h3.346c1.447 0 3.264.033 2.598 1.116L260 247.47c-.576.927-3.174 1.1-5.385 1.1m46.634 14.68c-12.613 15.264-19.757 20.491-32.567 20.491-4.357 0-6.627-.976-5.41-3.085l15.194-30.486h5.797c6.47 0 5.574 5.432 3.814 12.793-.32 1.034.47 1.1 1.242.197l14.446-25.332c.698-1.592-1.119-1.912-2.015-.69-7.235 9.79-14.848 9.068-18.055 9.068h-2.614l16.213-30.912h6.545c8.238.517 12.077 7.5 9.693 24.323h3.429l11.921-23.47c.962-1.977-1.077-3.79-3.321-3.79l-80.952.032c-4.678 0-4.884 3.578-.403 3.578 3.642 0 3.453 5.219.18 7.738l-34.358 27.228 6.931 32.16c.518 2.429 2.072 3.586 4.769 3.586h66.933c2.763 0 3.897-1.124 4.793-2.273l12.128-20.901c1.669-3.004-2.212-2.815-4.333-.255" fill="#542582"/><path d="M153.155 254.477h-21.303l26.943-35.459-5.64 35.459zm-4.933 22.025c-.642 3.643-4.309 6.064-8.921 7.27l-4.76 1.19 3.905-7.024c1.028-1.92-1.225-3.053-3.684-.189-16.558 19.227-21.828 28.443-47.357 28.5l-6.857.016c-2.072 0-4.35-.804-2.943-2.79l9.035-16.781h34.293c4.679 0 3.478-3.513.724-3.61-1.809-.058-3.799-1.1-5.204-3.316-.387-.616-1.242-3.053.098-4.932l13.13-17.413h21.837l-3.297 19.079zm50.818 6.581c-1.808-.057-2.976-1.305-3.379-2.495-.575-1.731-.534-4.776.173-6.121l31.226-55.285c.51-1.017 1.776-3.167 3.33-3.151 2.754.008 3.947-3.61-.723-3.61h-25.011c-4.678 0-4.728 3.544-.247 3.544 1.834 0 2.549 1.79 2.04 2.88l-6.915 12.499c-.863 1.378-2.78 1.477-4.794 1.477l-5.96-.017a.752.752 0 000 1.502h5.911c1.603 0 2.878.476 1.949 2.339l-23.054 41.908c-1.661 2.306-4.966 2.815-4.777-1.592l8.197-61.39c.32-1.92-.189-3.216-2.236-3.216l-12.366.016c-1.471 0-2.384.722-3.091 1.674l-4.424 5.547c-.575.575-1.825.575-3.198.575l-10.376-.017c-.41 0-.748.337-.748.747s.337.747.748.747h8.469c1.504 0 3.264.353 2.63 1.058l-11.888 14.927c-.362.419-1.521.534-2.228.534l-3.355-.017a.756.756 0 00-.756.739.76.76 0 00.756.763h2.804c.863 0 .872.427.518.812l-11.173 14.016c-.576.542-1.694.657-2.788.657l-9.858-.008a.74.74 0 00-.748.747.745.745 0 00.749.746h8.468c1.283 0 2.277.238 1.603 1.1l-15.893 19.892c-2.984 3.79-17.372 5.72-20.168 5.72l53.73-100.353c.518-1.157 2.507-2.913 4.58-2.913h11.403c5.385 0 5.229-3.578.55-3.578h-57.354c-4.678 0-4.868 3.578.518 3.578h10.614c3.01 0 3.988 1.821 3.207 3.298l-1.513 2.766c-.518.903-1.225 1.264-4.136 1.264l-18.77-.017c-.411 0-.748.337-.748.747s.337.747.748.747h18.72c1.02 0 2.541.27 1.58 2.092l-2.623 4.875c-.453.73-1.604 1.083-2.91 1.083l-8.519-.017a.747.747 0 100 1.494h8.469c1.217 0 1.241.804.542 1.92l-6.043 11.21c-.518.96-1.496 1.075-3.42 1.075l-3.395-.017a.752.752 0 00-.749.755c0 .419.337.755.749.755h3.346c1.282 0 1.62.714 1.044 1.92l-4.966 9.2c-.74 1.32-1.792 1.846-5.097 1.846l-18.763-.016a.745.745 0 00-.748.746c0 .419.33.755.748.755h18.713c2.121.033 2.903.969 2.064 2.47l-9.685 18.177c-.576.796-2.163.919-4.851.919l-18.762-.017c-.42 0-.757.337-.757.747s.337.739.757.739l18.712.016c2.245 0 3.61.09 2.944 1.272l-5.583 10.48c-1.027 1.6-3.905 1.6-5.031 1.6l-5.953-.017a.738.738 0 00-.748.739c0 .418.337.755.748.755h5.903c2.08 0 3.19.36 2.64 1.485l-7.45 13.983c-.674 1.247-3.593 1.305-5.837 1.305l-29.015-.017c-.41 0-.748.337-.748.747s.337.747.748.747l28.966.008c1.924 0 4.349.238 3.461 1.765l-4.76 8.936c-.453.739-2.08.796-4.415.796l-5.953-.008c-.42 0-.756.336-.756.747s.337.746.756.746h5.903c1.447 0 3.198.164 2.582 1.256l-2.968 5.703c-.962 1.411-1.924 2.667-4.226 2.667H32.089c-5.377 0-5.196 3.594-.518 3.594l85.498.041c2.5 0 2.582-.336 3.758-2.166l12.678-22.066h64.812c4.678 0 3.478-3.513.723-3.61zm165.497-40.468c-2.352 1.929-6.051 4.144-6.767 3.439-1.003-.993-4.11-3.135-5.78-3.898l13.953-25.472c.575-.902 1.241-1.387 2.779-1.387 5.434 0 7.218 5.884 4.661 13.212-1.784 5.137-4.686 10.693-8.846 14.107m112.72 22.837c-.353-1.748-.994-.69-2.145 1.518-.354.665-1.48.681-2.598.681l-3.429.017c-.411 0-.748.336-.748.746s.337.747.748.747h3.371c1.283 0 1.299.854.699 2.134-2.352 5.022-4.785 8.386-8.008 12.4-.51.647-1.809 1.18-2.837 1.18l-3.436.025c-.42 0-.757.32-.757.747 0 .41.337.747.757.747h3.362c1.702 0-.016 1.042-.304 1.428-5.977 7.96-10.096 11.513-14.495 15.074-.51.41-2.993.271-4.727.263l-3.388.016a.747.747 0 100 1.494h3.346c2.557 0 .642 1.469.255 1.789-9.315 7.746-23.202 10.25-29.54 9.453-20.629-2.576-24.871-18.193-26.392-24.437-.321-1.305-1.308-3.972-1.637-5.63-.633-3.266 8.666-4.193 11.231-2.478 3.906 2.601 12.983 5.26 20.127 5.293 6.61.025 20.135-4.768 24.049-16.109 4.004-11.579-6.06-24.446-10.516-28.885-5.673-5.67-11.025-14.69-8.772-21.311 1.702-4.982 4.555-7.246 10.655-7.246 7.885 0 13.624 5.055 13.624 12.235 0 .64-.395 1.403-.913 1.403l-2.787.017a.75.75 0 00-.748.746c0 .41.337.747.748.747h2.623c.731 0 1.192.558 1.003 1.453-.518 2.404-.683 4.094-1.209 6.507-.304 1.395 1.751 2.363 2.458 1.338l12.39-22.083c.897-1.666-1.093-2.109-2.565-1.6-3.387 1.181-8.912 1.986-10.86.582-4.638-3.307-8.855-5.449-15.334-5.449-11.01 0-18.73 2.708-23.679 11.76-.378.706-1.463.697-2.392.697l-2.113-.008a.754.754 0 00-.757.755c0 .41.337.747.757.747l1.8-.017c.765 0 1.283.214.896 1.1-.345.82-.641 1.682-.929 2.569-1.258 3.914-.847 9.404 1.11 14.311.132.32-.28.476-1.036.468l-3.379.016a.75.75 0 000 1.502h3.363c1.537 0 1.89.156 2.532 1.05 1.735 2.438 3.519 4.251 5.764 7.09.698.903-2.31 1.15-3.914 1.133h-13.352a.745.745 0 00-.748.747.74.74 0 00.748.746l13.525-.016c2.178 0 5.903-.033 6.322.443 3.272 3.767 7.227 9.577 7.893 14.46.197 1.41-.337 1.993-2.072 1.993h-1.809a.752.752 0 000 1.502h1.595c1.373 0 2.13.213 1.81 1.24-1.752 5.604-4.383 9.65-15.088 9.584-11.222-.05-13.508-11.03-10.22-22.485.65-2.281-.032-3.258-1.052-1.477l-7.81 12.26c-.198.287-.954.985-2.138.985l-1.11-.009a.752.752 0 00-.748.755c0 .41.345.739.756.739.995 0 1.381.533 1.003 1.075l-2.877 4.464c-4.712-10.774-12.621-24.044-16.839-28.877l.074-.23c10.4-.632 25.76-10.356 28.267-19.055 4.366-15.09-10.319-20.67-18.318-20.67l-35.181.016c-4.67 0-5.016 3.528-.527 3.528 2.418 0 4.539 2.118 3.462 4.26l-7.794 14.015c-.642 1.157-3.05 1.084-6.191 1.084h-3.412a.75.75 0 00-.75.745c0 .41.337.747.749.747h3.354c2.245 0 4.711.14 3.88 1.74l-9.208 16.592c-.452.772-1.644.846-4.785.846l-3.395.008a.75.75 0 000 1.502l3.321-.009c2.475 0 3.396.329 2.689 1.609l-12.308 22.214c-1.472 1.6-3.223 1.895-6.232 1.895-4.481 0-4.432 3.545.246 3.545h30.125c4.678 0 3.486-3.61.732-3.61-1.62.008-3.338-2.97-2.261-4.752l15.383-29.082h1.562c6.84 0 8.493 11.201 9.784 23.437.09.87-1.587.91-4.991.91l-8.55.009a.754.754 0 00-.749.763c0 .41.337.738.748.738h8.46c2.245 0 5.386.025 5.46.747.592 5.367 1.036 10.085 2.055 14.385.33 1.346-2.072 1.133-4.637 1.133l-10.885.025a.747.747 0 100 1.493l10.877.017c3.42 0 5.18-.009 5.377.697 4.686 17.15 24.78 30.65 44.324 29.903 16.764-.64 30.922-9.74 38.173-15.542 9.653-7.73 23.819-23.905 29.582-35.664 1.061-2.158 2.763-4.924 2.377-6.844" fill="#542582"/><path d="M194.886 189.717c-2.82 3.652-6.57 4.58-10.77 4.58h-1.193l7.416-14.649c.354-.672 1.135-1.19 2.097-1.19.929 0 .822-1.854-.395-1.854h-11.683c-.995 0-1.348 1.854-.42 1.854.996 0 1.185 1.1.7 2.02l-6.635 13.072c-.444.705-1.184.886-1.998 1.09-.979.255-1.661 2.02-.543 2.02h18.655c1.44 0 1.776-.534 2.154-1.043l3.75-5.793c.542-.706-.592-.813-1.135-.107m56.18-12.598c-.568.304-1.9.484-2.475 0-1.489-1.239-4.415-2.19-5.945-2.19-4.398 0-7.588.87-9.496 5.013-1.636 3.52.041 6.483 3.922 8.272 1.677.771 3.905 1.789 3.05 3.808-.625 1.477-2.343 1.633-3.897 1.616-2.08-.016-5.213-1.584-5.698-4.513-.164-.96-1.282-.747-1.603-.222l-2.647 5.269c-.42.705.674 1.493 1.11 1.025.896-.952 2.844-1.181 3.806-.541 1.324.87 4.72 2.42 6.75 2.404 4.457-.033 7.392-1.182 9.825-4.997 2.237-3.472.864-6.926-3.198-8.847-2.154-1.009-3.987-2.798-3.025-4.76.616-1.28 2.532-1.008 3.486-.836 1.817.303 4.143 2.01 4.415 3.504.115.64.929.763 1.282.197l1.398-3.266c.32-.632-.707-1.124-1.06-.936m129.413 5.249l1.62-2.987c.707-1.313-.453-2.798-2.31-2.798h-21.78c-1.57 0-1.11 1.633-.469 1.633 1.398 0 1.817 1.698.97 3.134l-6.552 12.03c-.979 1.141-1.604 1.642-3.001 1.642-1.119 0-1.521 1.633.049 1.633h22.075c.888 0 1.283-.32 1.604-.763l3-3.98c.732-.96-.846-.96-1.331-.484-3.807 3.807-7.885 3.692-10.845 3.692h-2.573l3.025-6.729h.642c1.94 0 4.176-.024 4.768 1.453.156.344 1.118.632 1.497 0l2.573-5.146c.42-.763-.74-.902-1.052-.352-1.02 1.813-5.492 1.329-6.668 1.329h-.642l3.766-7.41h4.193c2.606 0 4.851 1.838 5.583 3.849.18.476 1.57.861 1.858.254m-107.67 3.815l7.26-5.925.033 5.925h-7.293zm51.953-9.601h-7.753c-1.57 0-1.102 1.633-.46 1.633 1.652 0 3.157 1.936 2.253 3.725l-3.207 5.86-7.079-10.332c-.477-.64-1.595-.952-2.549-.952h-7.63c-1.57 0-1.2 1.625-.559 1.625 1.612 0 1.2 1.206.798 2.068l-6.076 11.677c-.387.944-2.04 1.067-2.557-.115l-4.703-15.296c-.197-.607-2.943-.574-3.642 0l-11.79 9.7-6.1.008c-1.218 0-1.694.5-1.694 1.14 0 .64.46 1.223 1.743 1.223l3.19-.008-3.19 2.626c-1.776 1.321-3.593 3.135-4.802 3.135h-.74c-1.16 0-1.8.18-1.8 1.108 0 .927.485 1.247 1.57 1.247h9.512c1.785 0 1.44-2.33.543-2.33-.978 0-2.606-1.248-1.102-3.012l2.903-2.766h5.722c3.388 0 5.764 3.931 3.741 5.137l-1.57.87c-.732.378-1.061 2.1 0 2.1h18.58c1.374 0 1.094-1.813.453-1.813-1.9 0-1.003-2.732-.641-3.463l4.884-9.223 6.857 13.253c.444.845.846 1.247 1.652 1.247h2.623c.838 0 1.11-.476 1.504-1.116l7.803-14.074c1.258-2.51 2.22-3.241 3.798-3.241.642 0 1.086-1.641-.485-1.641zm-108.173 11.66c-2.072 4.128-5.542 6.574-7.745 5.474-2.212-1.108-2.318-5.35-.255-9.47 2.072-4.127 5.542-6.573 7.753-5.473 2.204 1.1 2.319 5.342.247 9.47m-1.85-12.547c-6.528 0-13.262 3.216-14.602 10.06-1.167 5.95 2.952 12.129 10.253 12.129 6.939 0 13.352-4.538 14.643-11.111 1.29-6.598-3.634-11.078-10.294-11.078m132.11 9.982h-8.395c-1.57 0-1.11 1.633-.469 1.633.666 0 1.283.353 1.283 1.404 0 3.389-1.447 4.693-4.358 4.693-3.198 0-4.349-3.865-2.195-8.608 1.373-3.036 5.007-5.867 9.324-5.867 2.639 0 4.859.566 5.196 3.044.082.6.995.6 1.315.033l1.99-3.57c.222-.377-.123-.828-.732-.861-.51-.033-1.66.615-2.417.065-1.677-1.255-5.336-2.453-8.09-2.453-4.506 0-10.795 1.017-15.046 8.37-3.84 6.663 1.751 13.704 6.94 13.712 2.885.009 6.231-2.125 8.147-2.92l2.138 1.435c.32.386.995.862 1.636.862h.797c.74 0 1.028-.993 1.316-1.633l3.289-7.96c.419-.796.189-1.379-1.67-1.379m114.969-8.559c-.567.304-1.9.484-2.475 0-1.488-1.239-4.415-2.19-5.944-2.19-4.39 0-7.589.87-9.496 5.013-1.636 3.52.04 6.483 3.922 8.272 1.677.771 3.913 1.789 3.05 3.808-.625 1.477-2.343 1.633-3.897 1.616-2.08-.016-5.205-1.584-5.698-4.513-.156-.96-1.274-.747-1.595-.222l-2.664 5.269c-.411.705.682 1.493 1.118 1.025.896-.952 2.853-1.181 3.807-.541 1.324.87 4.72 2.42 6.75 2.404 4.456-.033 7.391-1.182 9.833-4.997 2.228-3.472.855-6.926-3.206-8.847-2.154-1.009-3.988-2.798-3.026-4.76.625-1.28 2.54-1.008 3.494-.836 1.81.303 4.136 2.01 4.407 3.504.115.64.93.763 1.283.197l1.406-3.266c.312-.632-.716-1.124-1.069-.936m-58.355 12.598c-2.82 3.652-6.57 4.58-10.77 4.58h-1.193l7.416-14.649c.354-.672 1.135-1.19 2.097-1.19.929 0 .814-1.854-.403-1.854h-11.675c-.995 0-1.348 1.854-.42 1.854.996 0 1.176 1.1.7 2.02l-6.635 13.072c-.453.705-1.184.886-1.998 1.09-.987.255-1.661 2.02-.543 2.02h18.647c1.447 0 1.776-.534 2.162-1.043l3.75-5.793c.542-.706-.592-.813-1.135-.107m28.126-11.452c2.606 0 4.85 1.838 5.582 3.849.181.476 1.57.853 1.859.254l1.628-2.987c.698-1.305-.46-2.798-2.319-2.798h-21.78c-1.57 0-1.101 1.624-.468 1.624 1.398 0 1.817 1.707.97 3.143l-6.544 12.03c-.979 1.141-1.612 1.642-3.01 1.642-1.118 0-1.52 1.633.058 1.633h22.059c.904 0 1.29-.32 1.62-.772l2.992-3.98c.74-.943-.846-.943-1.323-.476-3.815 3.808-7.893 3.701-10.853 3.701h-2.573l3.025-6.745h.641c1.94 0 4.177-.016 4.76 1.452.165.353 1.119.64 1.505 0L432 184.69c.411-.763-.756-.886-1.06-.344-1.02 1.821-5.493 1.329-6.668 1.329h-.642l3.758-7.41h4.2z" fill="#542582"/></g><path d="M254.615 248.57l-5.887-.05a.752.752 0 00-.756.747c0 .41.337.747.756.747l5.969-.057c2.014 0 3.873.254 3.363 1.148l-15.474 29.493c-1.924 3.52-5.993 2.626-6.643-.18l-7.663-39.53 26.951-20.875c2.68-2.298 7.828-6.04 10.467-5.99l5.878-.034c3.577-.024 4.843 1.65 4.004 3.8l-1.036 2.002c-.674 1.116-2.795 1.255-4.587 1.255h-3.396a.754.754 0 00-.748.764c0 .41.337.746.748.746h3.346c1.447 0 3.264.033 2.598 1.116L260 247.47c-.576.927-3.174 1.1-5.385 1.1m46.634 14.68c-12.613 15.264-19.757 20.491-32.567 20.491-4.357 0-6.627-.976-5.41-3.085l15.194-30.486h5.797c6.47 0 5.574 5.432 3.814 12.793-.32 1.034.47 1.1 1.242.197l14.446-25.332c.698-1.592-1.119-1.912-2.015-.69-7.235 9.79-14.848 9.068-18.055 9.068h-2.614l16.213-30.912h6.545c8.238.517 12.077 7.5 9.693 24.323h3.429l11.921-23.47c.962-1.977-1.077-3.79-3.321-3.79l-80.952.032c-4.678 0-4.884 3.578-.403 3.578 3.642 0 3.453 5.219.18 7.738l-34.358 27.228 6.931 32.16c.518 2.429 2.072 3.586 4.769 3.586h66.933c2.763 0 3.897-1.124 4.793-2.273l12.128-20.901c1.669-3.004-2.212-2.815-4.333-.255" fill="#542582" fill-rule="nonzero"/><g transform="translate(104.2 176.482)"><mask id="b" fill="#fff"><use xlink:href="#a"/></mask><path d="M48.956 77.995H27.652l26.943-35.459-5.64 35.459zm-4.934 22.025c-.64 3.644-4.308 6.065-8.92 7.27l-4.76 1.19 3.905-7.024c1.027-1.92-1.225-3.052-3.684-.189-16.558 19.227-21.828 28.443-47.357 28.5l-6.857.017c-2.072 0-4.35-.804-2.943-2.79l9.035-16.782h34.293c4.678 0 3.478-3.512.724-3.61-1.809-.058-3.799-1.1-5.205-3.316-.386-.615-1.241-3.052.1-4.932l13.13-17.413h21.836l-3.297 19.08zm50.82 6.582c-1.81-.058-2.977-1.305-3.38-2.495-.575-1.732-.534-4.776.173-6.122l31.226-55.284c.51-1.018 1.776-3.168 3.33-3.152 2.754.009 3.946-3.61-.724-3.61h-25.01c-4.678 0-4.728 3.545-.247 3.545 1.834 0 2.549 1.789 2.04 2.88l-6.915 12.498c-.864 1.379-2.78 1.477-4.794 1.477l-5.96-.016a.752.752 0 000 1.501h5.91c1.604 0 2.879.476 1.95 2.34l-23.054 41.908c-1.661 2.306-4.966 2.814-4.777-1.592l8.197-61.39c.32-1.92-.19-3.217-2.237-3.217l-12.365.016c-1.472 0-2.384.723-3.091 1.674l-4.424 5.548c-.575.574-1.825.574-3.198.574l-10.376-.016c-.411 0-.748.336-.748.747s.337.746.748.746h8.468c1.505 0 3.264.353 2.631 1.059L36.327 61.148c-.362.418-1.521.533-2.228.533l-3.355-.016a.756.756 0 00-.756.739.76.76 0 00.756.763h2.804c.863 0 .871.426.518.812L22.892 77.995c-.575.542-1.693.657-2.787.657l-9.858-.009a.74.74 0 00-.748.747.745.745 0 00.748.747h8.469c1.282 0 2.277.238 1.603 1.1l-15.893 19.89c-2.984 3.791-17.372 5.72-20.168 5.72L37.988 6.495c.517-1.157 2.507-2.913 4.579-2.913h11.404c5.385 0 5.229-3.578.55-3.578H-2.833c-4.678 0-4.867 3.578.518 3.578H8.3c3.009 0 3.987 1.822 3.206 3.299L9.992 9.646c-.518.903-1.225 1.264-4.135 1.264l-18.77-.016c-.411 0-.749.336-.749.746s.337.747.749.747h18.72c1.02 0 2.541.27 1.58 2.093l-2.624 4.874c-.452.73-1.603 1.083-2.91 1.083l-8.518-.016a.747.747 0 100 1.493h8.469c1.216 0 1.241.805.542 1.92l-6.043 11.21c-.518.96-1.496 1.075-3.42 1.075l-3.396-.016a.752.752 0 00-.748.755c0 .418.337.755.748.755h3.347c1.282 0 1.62.714 1.044 1.92l-4.966 9.199c-.74 1.321-1.793 1.846-5.098 1.846l-18.762-.016a.745.745 0 00-.748.747c0 .418.329.755.748.755h18.713c2.121.033 2.902.968 2.064 2.47l-9.686 18.176c-.575.796-2.162.92-4.85.92l-18.763-.017c-.419 0-.756.336-.756.747s.337.738.756.738l18.713.017c2.245 0 3.61.09 2.943 1.272l-5.582 10.479c-1.028 1.6-3.905 1.6-5.032 1.6l-5.952-.016a.738.738 0 00-.749.738c0 .419.338.755.749.755h5.903c2.08 0 3.19.361 2.64 1.485l-7.45 13.984c-.674 1.247-3.593 1.304-5.837 1.304l-29.015-.016c-.411 0-.748.337-.748.747s.337.746.748.746l28.965.009c1.924 0 4.35.238 3.462 1.764l-4.76 8.937c-.453.738-2.08.796-4.416.796l-5.952-.009c-.42 0-.757.337-.757.747s.337.747.757.747h5.903c1.447 0 3.198.164 2.581 1.255l-2.968 5.704c-.962 1.411-1.924 2.667-4.226 2.667h-14.56c-5.377 0-5.197 3.594-.518 3.594l85.498.04c2.5 0 2.582-.336 3.757-2.165l12.678-22.067h64.813c4.678 0 3.478-3.512.723-3.61z" fill="#542582" fill-rule="nonzero" mask="url(#b)"/></g><g transform="translate(300.572 210.83)"><mask id="d" fill="#fff"><use xlink:href="#c"/></mask><path d="M63.965 31.785c-2.351 1.929-6.05 4.144-6.766 3.439-1.003-.993-4.111-3.135-5.78-3.898L65.37 5.854c.576-.903 1.242-1.387 2.78-1.387 5.434 0 7.218 5.884 4.66 13.212-1.783 5.137-4.686 10.693-8.846 14.106m112.721 22.838c-.353-1.748-.995-.69-2.146 1.518-.353.665-1.48.681-2.598.681l-3.429.017a.75.75 0 00-.748.746c0 .41.337.747.749.747h3.37c1.283 0 1.3.854.7 2.134-2.352 5.022-4.786 8.386-8.009 12.4-.51.647-1.808 1.18-2.836 1.18l-3.437.025a.74.74 0 00-.756.747c0 .41.337.747.756.747h3.363c1.702 0-.017 1.042-.304 1.428-5.978 7.96-10.097 11.513-14.495 15.074-.51.41-2.993.271-4.728.263l-3.387.017a.747.747 0 100 1.493h3.346c2.557 0 .641 1.469.255 1.789-9.316 7.747-23.202 10.25-29.541 9.453-20.629-2.576-24.871-18.193-26.392-24.437-.32-1.305-1.307-3.972-1.636-5.63-.633-3.266 8.666-4.193 11.23-2.478 3.906 2.601 12.983 5.26 20.128 5.293 6.61.025 20.135-4.768 24.048-16.109 4.004-11.578-6.059-24.446-10.515-28.885-5.673-5.67-11.026-14.69-8.773-21.311 1.702-4.981 4.555-7.246 10.656-7.246 7.884 0 13.623 5.055 13.623 12.235 0 .64-.395 1.403-.913 1.403l-2.787.017c-.41 0-.748.336-.748.746s.337.747.748.747h2.623c.732 0 1.192.558 1.003 1.453-.518 2.404-.682 4.094-1.209 6.507-.304 1.395 1.752 2.363 2.459 1.338l12.39-22.083c.896-1.666-1.093-2.11-2.565-1.6-3.388 1.181-8.913 1.986-10.861.582-4.637-3.307-8.855-5.448-15.334-5.448-11.009 0-18.729 2.708-23.678 11.759-.379.706-1.464.697-2.393.697l-2.113-.008a.754.754 0 00-.756.755c0 .41.337.747.756.747l1.8-.016c.765 0 1.283.213.897 1.1-.346.82-.642 1.681-.93 2.568-1.257 3.914-.846 9.404 1.11 14.311.132.32-.279.476-1.035.468l-3.38.016a.75.75 0 000 1.502h3.363c1.538 0 1.891.156 2.533 1.05 1.734 2.438 3.519 4.251 5.763 7.09.699.903-2.31 1.15-3.914 1.133H94.657a.745.745 0 00-.748.747.74.74 0 00.748.746l13.525-.016c2.179 0 5.903-.033 6.323.443 3.272 3.767 7.227 9.577 7.893 14.46.197 1.41-.338 1.993-2.072 1.993h-1.81a.752.752 0 000 1.502h1.596c1.373 0 2.13.213 1.809 1.24-1.752 5.604-4.382 9.65-15.087 9.584-11.223-.05-13.509-11.03-10.22-22.485.65-2.281-.033-3.258-1.052-1.477l-7.811 12.26c-.197.287-.954.985-2.138.985l-1.11-.009a.752.752 0 00-.748.755c0 .41.346.739.757.739.995 0 1.38.533 1.003 1.075l-2.878 4.464C77.926 59.58 70.017 46.31 65.8 41.477l.074-.23c10.4-.632 25.759-10.356 28.266-19.054C98.505 7.1 83.821 1.52 75.821 1.52l-35.181.017c-4.67 0-5.015 3.528-.526 3.528 2.417 0 4.538 2.118 3.461 4.26L35.781 23.34c-.641 1.157-3.05 1.084-6.191 1.084h-3.412a.75.75 0 00-.748.746c0 .41.337.747.748.747h3.354c2.245 0 4.711.14 3.881 1.74L24.205 44.25c-.453.77-1.645.845-4.785.845l-3.396.008a.75.75 0 000 1.502l3.321-.008c2.475 0 3.396.328 2.69 1.608L9.725 70.42c-1.472 1.6-3.223 1.895-6.232 1.895-4.48 0-4.431 3.545.247 3.545h30.124c4.679 0 3.486-3.61.732-3.61-1.62.008-3.338-2.97-2.26-4.752l15.382-29.082h1.562c6.84 0 8.493 11.201 9.784 23.437.09.87-1.587.91-4.99.91l-8.551.009a.754.754 0 00-.749.763c0 .41.338.738.749.738h8.46c2.244 0 5.385.025 5.46.747.591 5.367 1.035 10.085 2.055 14.385.328 1.346-2.072 1.133-4.637 1.133l-10.886.024a.747.747 0 100 1.494l10.877.016c3.42 0 5.18-.008 5.377.698 4.687 17.15 24.78 30.65 44.324 29.903 16.764-.64 30.922-9.74 38.174-15.542 9.652-7.73 23.818-23.905 29.582-35.664 1.06-2.158 2.762-4.924 2.376-6.844" fill="#542582" fill-rule="nonzero" mask="url(#d)"/></g><path d="M194.886 189.717c-2.82 3.652-6.57 4.58-10.77 4.58h-1.193l7.416-14.649c.354-.672 1.135-1.19 2.097-1.19.929 0 .822-1.854-.395-1.854h-11.683c-.995 0-1.348 1.854-.42 1.854.996 0 1.185 1.1.7 2.02l-6.635 13.072c-.444.705-1.184.886-1.998 1.09-.979.255-1.661 2.02-.543 2.02h18.655c1.44 0 1.776-.534 2.154-1.042l3.75-5.794c.542-.706-.592-.813-1.135-.107m56.18-12.598c-.568.304-1.9.484-2.475 0-1.489-1.239-4.415-2.19-5.945-2.19-4.398 0-7.588.87-9.496 5.013-1.636 3.52.041 6.483 3.922 8.272 1.677.771 3.905 1.789 3.05 3.808-.625 1.477-2.343 1.633-3.897 1.616-2.08-.016-5.213-1.584-5.698-4.513-.164-.96-1.282-.747-1.603-.222l-2.647 5.269c-.42.705.674 1.493 1.11 1.025.896-.952 2.844-1.181 3.806-.541 1.324.87 4.72 2.42 6.75 2.404 4.457-.033 7.392-1.182 9.825-4.997 2.237-3.472.864-6.926-3.198-8.847-2.154-1.009-3.987-2.798-3.025-4.76.616-1.28 2.532-1.008 3.486-.836 1.817.303 4.143 2.01 4.415 3.504.115.64.929.763 1.282.197l1.398-3.266c.32-.632-.707-1.124-1.06-.936" fill="#542582" fill-rule="nonzero"/><g transform="translate(347.795 176.482)"><mask id="f" fill="#fff"><use xlink:href="#e"/></mask><path d="M32.684 5.886l1.62-2.987c.707-1.313-.452-2.798-2.31-2.798h-21.78c-1.57 0-1.11 1.633-.469 1.633 1.398 0 1.817 1.699.97 3.135l-6.552 12.03c-.979 1.14-1.604 1.641-3.001 1.641-1.118 0-1.521 1.633.05 1.633h22.075c.888 0 1.282-.32 1.603-.763l3-3.98c.733-.96-.846-.96-1.331-.484-3.807 3.808-7.885 3.693-10.845 3.693h-2.573l3.026-6.73h.64c1.941 0 4.178-.024 4.77 1.453.156.345 1.118.632 1.496 0l2.573-5.145c.42-.763-.74-.903-1.052-.353-1.02 1.814-5.492 1.33-6.668 1.33h-.641l3.765-7.41h4.193c2.607 0 4.851 1.837 5.583 3.848.18.476 1.57.862 1.858.254" fill="#542582" fill-rule="nonzero" mask="url(#f)"/></g><path d="M272.809 186.183l7.26-5.925.033 5.925h-7.293zm51.953-9.601h-7.753c-1.57 0-1.102 1.633-.46 1.633 1.652 0 3.157 1.936 2.253 3.725l-3.207 5.86-7.079-10.332c-.477-.64-1.595-.952-2.549-.952h-7.63c-1.57 0-1.2 1.625-.559 1.625 1.612 0 1.2 1.206.798 2.068l-6.076 11.677c-.387.944-2.04 1.067-2.557-.115l-4.703-15.296c-.197-.607-2.943-.574-3.642 0l-11.79 9.7-6.1.008c-1.218 0-1.694.5-1.694 1.14 0 .64.46 1.223 1.743 1.223l3.19-.008-3.19 2.626c-1.776 1.321-3.593 3.135-4.802 3.135h-.74c-1.16 0-1.8.18-1.8 1.108 0 .927.485 1.247 1.57 1.247h9.512c1.785 0 1.44-2.33.543-2.33-.978 0-2.606-1.248-1.102-3.012l2.903-2.766h5.722c3.388 0 5.764 3.931 3.741 5.137l-1.57.87c-.732.378-1.061 2.1 0 2.1h18.58c1.374 0 1.094-1.813.453-1.813-1.9 0-1.003-2.732-.641-3.463l4.884-9.223 6.857 13.253c.444.845.846 1.247 1.652 1.247h2.623c.838 0 1.11-.476 1.504-1.116l7.803-14.074c1.258-2.51 2.22-3.241 3.798-3.241.642 0 1.086-1.641-.485-1.641zm-108.173 11.66c-2.072 4.128-5.542 6.574-7.745 5.474-2.212-1.108-2.318-5.35-.255-9.47 2.072-4.127 5.542-6.573 7.753-5.473 2.204 1.1 2.319 5.342.247 9.47m-1.85-12.547c-6.528 0-13.262 3.216-14.602 10.06-1.167 5.95 2.952 12.129 10.253 12.129 6.939 0 13.352-4.538 14.643-11.111 1.29-6.598-3.634-11.078-10.294-11.078m132.11 9.982h-8.395c-1.57 0-1.11 1.633-.469 1.633.666 0 1.283.353 1.283 1.404 0 3.389-1.447 4.693-4.358 4.693-3.198 0-4.349-3.865-2.195-8.608 1.373-3.036 5.007-5.867 9.324-5.867 2.639 0 4.859.566 5.196 3.044.082.6.995.6 1.315.033l1.99-3.57c.222-.377-.123-.828-.732-.861-.51-.033-1.66.615-2.417.065-1.677-1.255-5.336-2.453-8.09-2.453-4.506 0-10.795 1.017-15.046 8.37-3.84 6.663 1.751 13.704 6.94 13.712 2.885.009 6.231-2.125 8.147-2.92l2.138 1.435c.32.386.995.862 1.636.862h.797c.74 0 1.028-.993 1.316-1.633l3.289-7.96c.419-.796.189-1.379-1.67-1.379m114.969-8.559c-.567.304-1.9.484-2.475 0-1.488-1.239-4.415-2.19-5.944-2.19-4.39 0-7.589.87-9.496 5.013-1.636 3.52.04 6.483 3.922 8.272 1.677.771 3.913 1.789 3.05 3.808-.625 1.477-2.343 1.633-3.897 1.616-2.08-.016-5.205-1.584-5.698-4.513-.156-.96-1.274-.747-1.595-.222l-2.664 5.269c-.411.705.682 1.493 1.118 1.025.896-.952 2.853-1.181 3.807-.541 1.324.87 4.72 2.42 6.75 2.404 4.456-.033 7.391-1.182 9.833-4.997 2.228-3.472.855-6.926-3.206-8.847-2.154-1.009-3.988-2.798-3.026-4.76.625-1.28 2.54-1.008 3.494-.836 1.81.303 4.136 2.01 4.407 3.504.115.64.93.763 1.283.197l1.406-3.266c.312-.632-.716-1.124-1.07-.936m-58.354 12.598c-2.82 3.652-6.57 4.58-10.77 4.58h-1.193l7.416-14.649c.354-.672 1.135-1.19 2.097-1.19.929 0 .814-1.854-.403-1.854h-11.675c-.995 0-1.348 1.854-.42 1.854.996 0 1.176 1.1.7 2.02l-6.635 13.072c-.453.705-1.184.886-1.998 1.09-.987.255-1.661 2.02-.543 2.02h18.647c1.447 0 1.776-.534 2.162-1.042l3.75-5.794c.542-.706-.592-.813-1.135-.107m28.126-11.452c2.606 0 4.85 1.838 5.582 3.849.181.476 1.57.853 1.859.254l1.628-2.987c.698-1.305-.46-2.798-2.319-2.798h-21.78c-1.57 0-1.101 1.624-.468 1.624 1.398 0 1.817 1.707.97 3.143l-6.544 12.03c-.979 1.141-1.612 1.642-3.01 1.642-1.118 0-1.52 1.633.058 1.633h22.059c.904 0 1.29-.32 1.62-.772l2.992-3.98c.74-.943-.846-.943-1.323-.476-3.815 3.808-7.893 3.701-10.853 3.701h-2.573l3.025-6.745h.641c1.94 0 4.177-.016 4.76 1.452.165.353 1.119.64 1.505 0L432 184.69c.411-.763-.756-.886-1.06-.344-1.02 1.821-5.493 1.329-6.668 1.329h-.642l3.758-7.41h4.2z" fill="#542582" fill-rule="nonzero"/><path d="M263.17 126.408c-10.278-.73-18.672-1.026-26.014-.254 2.13-5.35 6.38-10.348 9.66-12.54 6.997.288 14.232 1.305 19.955 2.438 18.334 3.61 46.823 14.754 59.098 31.2-16.361-10.907-43.55-19.482-62.7-20.844m-30.774.386c-6.182.377-17.38 2.806-21.376 3.963-1.028-2.691-3.856-11.004-4.76-13.688 11.37-3.216 24.59-4.34 34.761-3.454-2.828 2.174-7.597 10.741-8.625 13.179m-51.764 15.214c-1.266-2.134-7.293-7.616-10.557-8.699 7.597-5.62 25.241-13.68 31.934-15.083 1.159 1.912 4.25 10.102 5.278 13.549-5.92 1.28-21.631 6.91-26.655 10.233m165.2 18.669c-1.677-1.92-3.995-6.007-20.603-20.458-24.42-21.246-56.78-30.945-87.168-30.945-22.404 0-42.013 5.014-63.735 16.962-27.683 15.197-39.144 32.676-41.972 36.23-2.089 2.617-2.385 4.144-1.036 4.923.97.558 2.828-1.477 4.571-3.775 8.23-10.848 19.058-21.606 30.454-27.933 3.543.509 8.5 5.432 10.425 8.05-7.293 3.972-19.37 13.146-23.942 16.691-3.955 3.053-5.32 4.768-4.25 6.007.879 1.034 3.905-1.001 6.437-3.069 4.374-3.578 17.38-12.785 23.819-16.24 4.382 5.12 2.96 14.574 1.414 16.626-.83 1.1-.946 2.273 0 2.814.904.51 1.882-.787 3.157-2.626 2.984-4.3 1.792-14.721-.773-18.471 7.852-4.867 19.124-8.124 25.948-9.659.575 1.091 8.847 25.217 10.425 29.6.863 2.404 1.719 5.276 3.478 4.734 1.167-.36.395-2.987-.584-5.63-1.2-3.265-7.465-23.526-9.397-29.533 2.26-1.214 15.851-3.972 19.255-3.84-1.677 8.83 4.58 12.448 11.65 17.077 3.758 2.461 27.65 16.157 32.64 19.243 2.846 1.756 5.057 2.888 5.666 2.043.699-.943-1.242-2.938-3.865-4.472-2.096-1.223-24.32-14.098-33.61-19.95-6.643-4.192-10.22-8.681-8.625-14.581 2.195-.632 8.888-.69 15.844-.632 47.382.377 85.366 27.49 89.617 31.831 2.146 2.208 5.147 4.095 6.306 3.2.732-.566-.534-3.06-1.546-4.217m10.251 161.9c1.752-3.216 3.174-5.046 1.678-5.875-1.373-.763-2.714 2.224-4.383 5.112-5.533 9.585-11.576 17.504-25.232 29.928-15.128 13.745-32.518 21.73-38.56 23.781-5.156-14.45-24.79-75.997-25.307-77.753-.773-2.617-1.43-3.38-2.319-3.06-.995.352-.386 1.78.132 4.086.51 2.298 23.884 75.127 24.657 77.68-4.637 2.313-23.473 7.557-36.636 7.992-11.708.386-25.488 0-32.444-1.592-8.147-6.573-26.687-32.701-33.725-46.61-8.296-16.397-13.788-31.48-15.202-37.864-.683-3.06-1.554-5.268-3.092-4.98-1.66.32-.707 2.74.263 6.022 2.492 8.42 6.561 20.36 15.194 37.396 9.151 18.037 25.488 39.192 30.248 44.944-14.922-3.126-33.068-10.101-50.309-22.927-14.849-11.054-27.609-25.127-34.022-35.377-1.101-1.764-2.392-4.259-3.987-3.2-.724.476.164 2.47 1.282 4.48 9.316 16.7 32.04 40.35 61.162 53.323 33.94 15.116 70.946 14.312 104.039 1.527 28.94-11.185 54.124-34.195 66.563-57.033" fill="#2D2925" fill-rule="nonzero"/><g transform="translate(130.394 112.357)"><mask id="h" fill="#fff"><use xlink:href="#g"/></mask><path d="M132.776 14.051c-10.277-.73-18.672-1.026-26.014-.254 2.13-5.35 6.38-10.348 9.66-12.54 6.998.288 14.233 1.306 19.955 2.438 18.335 3.61 46.823 14.755 59.098 31.2-16.361-10.906-43.55-19.482-62.699-20.844m-30.774.386c-6.183.377-17.381 2.806-21.377 3.964-1.028-2.692-3.856-11.005-4.76-13.688 11.37-3.217 24.591-4.341 34.762-3.455-2.829 2.175-7.598 10.742-8.625 13.179M50.237 29.65c-1.266-2.134-7.292-7.615-10.556-8.698C47.278 15.33 64.92 7.273 71.614 5.87c1.16 1.912 4.25 10.102 5.278 13.548-5.92 1.28-21.631 6.91-26.655 10.233m165.2 18.669c-1.677-1.92-3.995-6.007-20.603-20.458-24.419-21.245-56.78-30.945-87.167-30.945-22.405 0-42.014 5.014-63.736 16.962C16.25 29.077 4.787 46.556 1.96 50.109-.129 52.727-.425 54.253.923 55.033c.97.558 2.828-1.477 4.571-3.775 8.23-10.849 19.058-21.607 30.454-27.934 3.544.509 8.501 5.433 10.425 8.05-7.293 3.972-19.37 13.147-23.942 16.692-3.954 3.052-5.32 4.767-4.25 6.007.88 1.033 3.905-1.002 6.437-3.07C28.992 47.426 42 38.218 48.437 34.763c4.382 5.121 2.96 14.574 1.414 16.626-.83 1.1-.946 2.273 0 2.815.904.509 1.883-.788 3.157-2.626 2.985-4.3 1.792-14.722-.773-18.472 7.852-4.866 19.124-8.124 25.948-9.659.576 1.092 8.847 25.218 10.425 29.6.864 2.404 1.719 5.276 3.478 4.735 1.168-.361.395-2.987-.583-5.63-1.2-3.266-7.466-23.527-9.398-29.534 2.261-1.214 15.852-3.971 19.256-3.84-1.678 8.83 4.579 12.449 11.65 17.077 3.757 2.462 27.65 16.158 32.64 19.243 2.845 1.756 5.057 2.889 5.665 2.044.699-.944-1.241-2.938-3.864-4.473-2.097-1.222-24.32-14.098-33.61-19.949-6.644-4.193-10.22-8.682-8.625-14.582 2.195-.632 8.887-.69 15.843-.632 47.382.378 85.367 27.49 89.617 31.832 2.146 2.207 5.147 4.094 6.307 3.2.731-.566-.535-3.061-1.546-4.218" fill="#2D2925" fill-rule="nonzero" mask="url(#h)"/></g><g transform="translate(122.75 292.891)"><mask id="j" fill="#fff"><use xlink:href="#i"/></mask><path d="M233.332 29.686c1.751-3.217 3.174-5.046 1.677-5.875-1.373-.763-2.713 2.224-4.382 5.112-5.533 9.585-11.576 17.504-25.233 29.928-15.128 13.745-32.517 21.73-38.56 23.781-5.155-14.45-24.789-75.997-25.306-77.753-.773-2.617-1.431-3.38-2.319-3.06-.995.352-.386 1.78.132 4.086.51 2.298 23.884 75.127 24.657 77.679-4.637 2.314-23.474 7.558-36.637 7.993-11.707.386-25.487 0-32.443-1.592-8.148-6.573-26.688-32.701-33.726-46.61C52.897 26.977 47.404 11.894 45.99 5.51 45.308 2.451 44.436.243 42.9.531c-1.66.32-.707 2.74.263 6.022 2.491 8.42 6.561 20.36 15.194 37.396 9.15 18.037 25.487 39.192 30.248 44.944-14.923-3.126-33.068-10.101-50.31-22.927C23.447 54.912 10.687 40.839 4.274 30.589c-1.102-1.764-2.392-4.259-3.987-3.2-.724.476.164 2.47 1.282 4.48 9.315 16.7 32.04 40.35 61.162 53.323 33.94 15.116 70.946 14.312 104.038 1.527 28.941-11.185 54.124-34.195 66.564-57.033" fill="#2D2925" fill-rule="nonzero" mask="url(#j)"/></g><path d="M0 0h500v500H0z"/></g></svg>