<svg width="500" height="500" viewBox="0 0 500 500" xmlns="http://www.w3.org/2000/svg"><g fill="none" fill-rule="evenodd"><path d="M0 0h500v500H0z"/><g fill-rule="nonzero"><path d="M423.697 145.793C428.643 136.458 431 127.1 431 118.15c0-20.396-11.377-38.646-27.365-49.527C381.4 53.49 347.989 51.4 324.374 79.643 289.895 74.93 260.988 84.416 250 88.93c-10.988-4.515-39.9-14-74.373-9.288C152.012 51.4 118.6 53.489 96.366 68.623 80.373 79.504 69 97.754 69 118.15c0 8.95 2.358 18.308 7.304 27.643-17.819 25.719-30.15 56.219-30.15 87.28 0 37.412 15.973 56.67 21.996 64.954l4.823-4.819c16.916 43.058 45.885 66.227 80.85 87.346l1.466-8.069c37.646 32.627 55.584 24.604 94.711 68.861 38.985-44.092 57.396-36.515 94.712-68.861a5015.875 5015.875 0 011.465 8.07c15.566-9.4 59.481-32.955 80.854-87.347l4.815 4.82c3.693-5.074 22-25.5 22-64.955 0-31.053-12.326-61.557-30.15-87.28" fill="#707271"/><path d="M412.925 146.324c35.911-55.119-45.527-112.511-84.985-56.988-39.858-7.062-73.435 7.465-77.939 9.561-4.5-2.096-38.084-16.623-77.942-9.561-39.458-55.523-120.892 1.869-84.984 56.988C46.159 202.51 50.282 257.91 69.255 283.97l7.846-7.85s11.15 54.154 70.081 89.723l2.123-11.68c36.277 38.75 69.42 37.877 100.696 73.265 31.274-35.388 64.42-34.515 100.693-73.265l2.123 11.68c58.93-35.569 70.085-89.723 70.085-89.723l7.846 7.85c19.027-26.138 23.127-81.415-17.823-137.646" fill="#12173F"/><path d="M250.364 352.424s-28.296.427-32.477 3.042c0 0-4.861 8.416 32.477 8.258 35.516-.162 30.277-6.635 30.535-7.592 0 0-12.02-3.708-30.535-3.708m-24.532-32.88s4.412-12.78 9.123-8.739c6.542 5.6 15.046 16.993 15.046 18.212v15.22l-10.315.538c-5.923.169-25.035 4.734-25.035 4.734-26.311-65.154-11.723-114.458-4.696-132.05-26.085 5.654-30.292-25.654-30.292-25.654 2.707-.554 6.7.631 11.2 2.785 6.973 3.335 15.173 8.996 21.711 14.073h.004a183.591 183.591 0 015.3 4.28c17.735 14.924 32.123 11.897 32.123 11.897v63.77s-51.746-4.009-24.17 30.934m48.497.011c32.93-33.411-20.804-31.462-24.204-30.939 5.515.312 47.173.543 24.204 30.939" fill="#5D76A9"/><path d="M296.21 218.471c29.639 79.812-7.935 131.166-8.146 131.45 23.327-61.076 8.334-111.873-1.873-130.738-5.243.523-11.535.22-11.535.22s7.877-4.866 12.98-9.505c.355-.323.755-.684 1.197-1.077 4.238-3.761 12.33-10.38 22.154-14.207 3.588-1.4 7.415-2.43 11.365-2.808 0 0-2.827 26.304-26.142 26.665" fill="#5D76A9"/><path d="M112.806 140.726c-1.07-10.089 11.677-20.089 11.677-20.089-5.258-5.427-14.43-.723-14.43-.723 8.326-16.284 26.976-8.323 26.976-8.323-7.069-8.661-22.042-8.115-22.042-8.115 18.527-18.362 40.892 9.704 40.892 9.704-19.915 4.511-43.073 27.546-43.073 27.546m230.327-25.531s12.092-30.23 49.142-22.93c0 0-34.015-22.385-57.684 18.08 0 0-33.958-15.93-84.593 5.961 0 0-47.584-16.723-83.75-7.253 0 0-21.092-36.597-50.8-21.523-29.7 15.065-14.204 49.934-9.03 58.973 0 0-49.22 50.142-30.716 112.146l9.904-12.354s14.138 67.52 50.62 88.8l2.188-16.6s38.084 45.954 82.869 65.47c4.261 1.995 27.985 13.788 28.715 19.607v-32.154s-31.065 2.585-39.261-11.754c-5.57-9.754-41.289-73.473-23.639-140.207 0 0-17.184-2.57-20.423-31.558 0 0-12.811-6.239-28.738-4.946 0 0 28.484-8.943 55.18 1.396 26.69 10.33 33.84 36.638 51.924 25.011l4.957-74.111 5.458 74.111c18.085 11.627 25.238-14.68 51.927-25.011 26.696-10.339 55.188-1.396 55.188-1.396s-11.396-8.035-29.707-11.697c-15.285-3.057-37.75 6.766-37.75 6.766s3.107-21.027 13.304-32.235c8.757-9.638 28.588-11.765 34.715-30.592" fill="#5D76A9"/><path d="M212.573 208.663c-2.861-.893-7.585 2.061-10.22 7.188-8.842-2.554-11.868-12.104-11.495-21.257l.003-.004c6.974 3.334 15.174 8.996 21.712 14.073m86.916 7.19c-2.773-5.396-7.865-8.403-10.657-7.03 4.238-3.762 12.334-10.381 22.153-14.208.4 9.154-2.703 18.7-11.496 21.238" fill="#FB2"/></g></g></svg>