<svg width="500" height="500" viewBox="0 0 500 500" xmlns="http://www.w3.org/2000/svg"><g fill="none" fill-rule="evenodd"><path d="M117.753 210.93c-.101-.056-.215-.113-.328-.17-6.923-3.808-8.902-6.766-9.05-7.333.532-6.121 33.417-22.716 104.084-27.103-4.129 5.668-7.579 12.98-8.857 22.24l-.77 5.577c-.418 2.879-.961 6.211-2.137 9.306-1.89 4.942-7.342 10.11-15.815 14.996-29.627-3.865-53.416-10.077-67.127-17.513m229.039-20.278a5.645 5.645 0 003.688-4.727c19.626 4.852 34.038 10.973 39.389 16.878.927 1.032 1.165 1.632 1.21 1.644-.237.827-2.432 3.888-9.672 7.685-10.984 5.792-27.862 10.678-48.812 14.237 3.382-4.217 5.735-9.918 5.995-17.944.215-7.243.713-9.453.973-10.065 1.516-3.015 5.227-6.983 7.229-7.708m84.57-15.303c-13.835-15.29-42.523-28.11-81.244-36.385.61-.442 1.334-.952 2.183-1.542 2.658-1.836 5.961-4.137 9.265-7.277 13.495-12.843 4.807-31.183-2.455-39.979l-8.44-10.315c-1.617-1.972-4.354-2.63-6.673-1.587a5.68 5.68 0 00-3.292 6.042L342.73 97.5c.622 4.058.475 5.86-3.575 9.272a63.51 63.51 0 00-1.652-10.712c-2.409-9.997-7.5-14.407-8.065-14.883-1.64-1.315-3.846-1.666-5.78-.839a5.69 5.69 0 00-1.777 1.168l-.203-1.168c-1.686-9.816.622-15.257.633-15.574a5.551 5.551 0 001.482-1.28c1.946-2.381 5.815-6.303 5.837-6.337 1.301-1.338 1.878-3.22 1.527-5.033a5.688 5.688 0 00-3.258-4.126c-1.097-.476-4.389-1.508-11.334-.624-13.089 1.814-26.109 9.465-25.69 22.467.17 5.588 1.923 10.745 3.348 14.928.577 1.723 1.391 4.126 1.663 5.588-.724.318-2.025.76-4.22 1.156-20.248 3.684-35.87 13.376-44.004 27.261a44.737 44.737 0 00-4.435 10.395c-45.022.487-87.794 6.359-120.905 16.628-40.35 12.503-62.647 30.243-64.502 51.258-.984 10.984 3.36 27.08 29.299 41.985a5.403 5.403 0 001.64 1.19l10.588 5.067c.283.148.589.261.894.34 8.088 3.57 17.15 6.813 27.07 9.703a87.22 87.22 0 00-4.344 3.593c-24.966 20.551-39.287 50.918-39.287 83.314 0 28.836 11.199 55.95 31.538 76.32 20.34 20.38 47.387 31.601 76.154 31.601 50.883 0 95.25-36.181 105.317-85.398 8.575-25.686 7.58-52.935 7.206-63.171-.679-19.111 8.043-30.05 14.084-35.31 32.172-4.204 60.203-11.3 81.233-20.572.305-.08.61-.193.893-.34l3.326-1.587c.045-.023.09-.034.136-.057l7.353-3.514a5.212 5.212 0 001.572-1.179c17.874-10.371 27.93-22.942 29.13-36.42.848-9.612-2.603-18.782-10.261-27.26" fill="#FEFEFE" fill-rule="nonzero"/><path d="M102.739 202.926c1.142-13.047 48.065-30.276 123.902-32.963-7.036 5.282-15.384 14.52-17.443 29.38l-.77 5.623c-.508 3.469-1.12 7.005-2.454 10.508-2.919 7.674-11.154 13.999-19.966 18.827-30.532-3.854-56.052-10.292-70.95-18.385h-.023c-8.156-4.432-12.636-9.16-12.296-12.99m291.323-3.922c2.896 3.196 2.704 5.26 2.647 5.95-.316 3.684-4.932 8.128-12.647 12.197h-.022c-16.222 8.547-44.095 15.008-77.285 18.408a28.579 28.579 0 014.762-2.47l.543-.216c9.536-3.888 20.35-8.286 20.86-24.087.079-2.505.215-10.224 1.595-12.979 1.776-3.536 6.335-9.023 10.35-10.474.057-.034-6.708-1.348-6.708-1.348a11.101 11.101 0 00-1.052-.057c2.274-1.655 3.892-3.627 5.08-5.702 26.956 5.623 45.09 13.285 51.877 20.778m33.111-19.848c-14.253-15.745-45.679-28.52-86.165-36.25.18-4.659 3.009-6.63 8.054-10.122 2.636-1.825 5.611-3.9 8.609-6.745 13.065-12.434-2.274-31.477-2.93-32.282l-8.439-10.315 2.025 13.194c1.38 9.034-1.923 12.23-11.72 19.088a19.074 19.074 0 00-3.257 2.846c.407-6.03.69-12.752-1.335-21.174-2.036-8.434-6.165-11.846-6.165-11.846l-1.075 12.231c-.011.068-.95 9.544-13.575 21.004a38.404 38.404 0 003.01-3.82c6.187-9.023 4.4-19.292 2.33-31.171l-.43-2.506c-2.127-12.389 1.176-20.12 3.303-21.389 2.07-2.528 6.188-6.733 6.188-6.733s-2.184-.975-8.258-.181c-7.896 1.088-21.165 5.826-20.815 16.65.147 4.762 1.686 9.284 3.032 13.274 1.448 4.262 2.817 8.309 1.606 10.383-.972 1.644-3.902 2.947-8.484 3.786-18.608 3.39-32.862 12.118-40.135 24.564a39.138 39.138 0 00-4.82 13.148c-46.153.136-89.852 5.906-123.732 16.414-37.976 11.777-58.903 27.805-60.543 46.349-.871 9.76 3.529 23.838 27.907 37.372l-.17.181 6.923 3.31a.035.035 0 00.023.011l3.642 1.757.057-.056c11.233 5.032 24.412 9.385 39.095 12.967-5.226 2.958-10.045 6.359-14.367 10.213-23.62 19.428-37.228 48.231-37.228 78.927 0 27.317 10.61 53.003 29.887 72.318 19.276 19.315 44.898 29.947 72.16 29.947 48.247 0 90.238-34.266 99.944-81.533 8.235-24.7 7.285-51.19 6.923-61.176-.815-22.705 10.305-35.264 17.375-40.92 32.24-4.092 60.77-11.165 82.014-20.653l.034.034 3.439-1.632.022-.023 7.353-3.502-.203-.193c17.092-9.567 26.64-20.811 27.703-32.792.702-7.98-2.262-15.7-8.812-22.954" fill="#2D2925" fill-rule="nonzero"/><path d="M93.268 349.47c2.67 13.456 10.35 29.574 25.611 40.331 4.615 3.242 9.638 5.872 14.966 7.9-3.303-5.633-7.138-11.312-11.04-17.093-7.308-10.78-14.854-21.944-19.639-33.937-4.955-12.412-6.312-25.39-4.151-38.437a98.454 98.454 0 00-6.041 34.005c0 2.437.113 4.851.294 7.232" fill="#8B2231" fill-rule="nonzero"/><path d="M109.71 344.038c4.513 11.3 11.843 22.126 18.925 32.611 5.486 8.093 10.837 16.017 14.91 24.02a81.945 81.945 0 0013.868 2.006c-4.898-6.994-9.152-14.951-12.794-24.054-14.163-35.275-12.116-78.88 5.441-104.113 9.084-13.013 19.932-21.865 33.903-29.494 12.013-6.586 19.536-8.547 27.183-13.115 8.314-4.964 12.76-13.273 7.296-31.908-1.606-5.44-1.889-9.737-1.56-13.08-1.901 3.683-3.383 7.957-4.073 12.933l.045-.046c-.86 5.271-1.222 11.063-3.461 16.969-7.353 19.292-42.953 30.004-47.647 31.432-13.507 4.08-24.333 10.315-32.76 17.842-24.378 21.73-28.734 54.33-19.277 77.997" fill="#8B2231" fill-rule="nonzero"/><path d="M258.196 169.696c.362 1.19.656 2.369.803 3.525.927 6.744-1.109 12.185-9.355 13.511-8.496 1.372-11.392-6.03-12.048-12.072-.068-2.097.09-3.774.26-4.987-1.425.023-2.839.045-4.253.09a44.456 44.456 0 00-9.672 7.46c-1.697 3.649-3.744 8.693-.6 20.527 5.543 20.868 3.19 33.461-13.529 40.67-21.323 9.193-34.943 14.589-53.224 37.622-8.699 10.96-13.45 29.12-14.23 47.403-.759 17.74 2.884 36.692 9.117 52.221 4.174 10.395 9.05 19.429 14.774 27.103a97.7 97.7 0 0017.273-2.222c-6.346-7.459-10-16.527-10.656-26.706-2.183-33.835 16.007-48.072 43.993-70.55l12.523-10.53c49.977-42.53 35.396-85.784 40.894-122.714a581.727 581.727 0 00-12.07-.351" fill="#8B2231" fill-rule="nonzero"/><path d="M278.218 170.407c-1.527 7.38-2.217 15.076-2.703 23.045-1.98 32.169-1.018 68.589-41.652 104.759l-12.296 9.964c-27.195 21.854-42.75 35.501-41.675 65.222.351 9.805 4.48 18.386 11.37 25.13a107.914 107.914 0 0022.352-9.612c35.35-20.097 57.59-50.147 66.086-88.698 5.385-24.37 5.272-44.195 5.181-60.133-.045-8.059.996-23.86.996-23.86 1.13-9.975 2.737-23.962 14.287-42.291.373-.59.78-1.19 1.165-1.791a519.302 519.302 0 00-23.11-1.735" fill="#8B2231" fill-rule="nonzero"/><path d="M290.114 273.825v-.125c0 .057-.011.125-.011.181-1.109 5.77-1.391 12.254-2.093 18.715-.34 2.47-.667 4.862-1.03 7.186a53.537 53.537 0 01-.395 1.961c-8.925 40.591-32.025 72.194-69.174 93.322-6.38 3.628-12.862 6.609-19.367 8.921 10.894 7.243 23.597 9.476 32.33 8.161 33.36-5.021 49.616-26.83 57.444-50.158 8.032-23.94 7.172-49.489 6.787-60.065-1.267-35.331 26.007-48.367 26.007-48.367-21.21-1.156-28.167 8.105-30.498 20.268" fill="#8B2231" fill-rule="nonzero"/><path d="M267.838 404.148c-13.642 11.426-28.348 13.931-35.034 14.963-13.133 2.017-28.688-1.111-42.443-11.982-.226-.181-.441-.374-.656-.555-5.894 1.575-11.799 2.63-17.681 3.117 13.461 14.486 31.187 22.716 54.954 24.337.102 0 .215.01.306.01h.023c16.176-6.358 30.271-16.877 40.961-30.264-.147.136-.283.25-.43.374m-124.146 24.333c.26-7.447-1.832-14.77-5.249-22.092-8.156-2.358-16.153-5.872-23.846-10.553-4.332-2.641-8.235-6.676-11.685-10.428-.012-.023-.034-.023-.046-.046a98.865 98.865 0 0040.826 43.13v-.01zm68.03 10.153c-13.303-3.083-24.684-7.81-34.672-15.393a89.696 89.696 0 01-13.982-13.228 92.774 92.774 0 01-16.03-1.587c2.942 7.606 4.423 15.36 3.473 23.498v.011a97.897 97.897 0 0040.871 8.91c7.025 0 13.88-.749 20.487-2.154-.057-.012-.102-.046-.147-.057M326.046 196.47c-2.296 7.685-9.841 6.779-12.025 2.63-3.472-6.552-2.16-11.619 1.46-15.076 3.608-3.457 9.525-5.305 15.26-7.9a.649.649 0 01.08-.046 415.968 415.968 0 00-21.155-3.038c-.101.125-.203.238-.305.352a95.137 95.137 0 00-1.968 2.29c-11.867 17.886-13.349 31.137-14.514 41.327l-.362 3.14c-.656 5.35-.622 12.095-.588 19.893.011 1.066.022 2.177.022 3.31a565.83 565.83 0 01-.316 8.026c.067.022.113.034.17.045.09-1.088.135-1.508.124-.952 3.36-10.712 9.525-17.23 18.212-20.766 9.412-3.82 18.7-7.345 19.13-21.038.192-5.713.61-11.437 1.911-14.35 2.376-5.294 6.63-6.7 6.63-6.7-4.571-.442-9.56 1.474-11.766 8.853" fill="#8B2231" fill-rule="nonzero"/><path d="M337.435 142.236c.69-9.159 9.344-10.87 17.715-18.85 10.758-10.224-3.224-27.307-3.224-27.307 1.765 11.483-3.54 15.87-13.246 22.637-3.077 2.154-5.317 5.169-5.622 8.966-.34 4.262-.623 8.864-1.55 13.523 2.002.328 3.97.68 5.927 1.031m-29.61-15.96a102.623 102.623 0 00-7.274 5.939 224.629 224.629 0 00-4.627 4.556 472.375 472.375 0 0127.489 3.174c5.656-10.315 8.36-22.024 5-41.951 0 0-.78 13.5-20.588 28.281m-52.801 8.534c10.803.102 21.402.545 31.742 1.247.35-.34.667-.691 1.03-1.031 6.945-7.459 17.669-13.761 23.416-22.126 5.735-8.377 3.427-18.601 1.3-30.99-3.653-21.356 5.328-25.312 5.328-25.312s-18.009 2.482-17.67 12.922c.465 14.01 14.876 27.193-6.832 31.149-23.823 4.341-38.631 17.252-41.889 34.13 1.188.011 2.376 0 3.575.011" fill="#F9A11A" fill-rule="nonzero"/><path d="M254.962 140.403c-99.797-.986-183.055 24.824-185.95 57.65-1.154 13.07 10.622 25.29 31.515 35.321 12.919 6.2 29.31 11.55 48.28 15.767a102.09 102.09 0 0111.946-4.466 151.85 151.85 0 0016.12-5.928c-27.94-4.092-50.565-10.372-64.48-17.91-10.27-5.577-15.803-11.834-15.214-18.408 1.945-22.035 71.81-39.23 156.063-38.403 84.242.838 150.973 19.371 149.027 41.418-.531 5.997-6.097 11.641-15.622 16.663-17.602 9.26-48.688 16.39-86.448 19.712a29.452 29.452 0 00-3.394 6.03c17.172-6.529 36.957 3.117 36.957 3.117s1.324.51 2.252 1.145c25.056-4.477 46.583-10.848 62.715-18.556 19.083-9.102 30.656-20.063 31.696-31.942 2.896-32.815-75.656-60.235-175.464-61.21" fill="#FEFEFE" fill-rule="nonzero"/><path d="M0 0h500v500H0z"/></g></svg>