<svg width="500" height="500" viewBox="0 0 500 500" xmlns="http://www.w3.org/2000/svg"><g fill="none" fill-rule="evenodd"><path d="M168.869 414.696a6.624 6.624 0 01-2.174-6.924l24.071-85.397a6.31 6.31 0 01.58-1.429l-11.053-17.656a6.64 6.64 0 01-.74-5.396l1.543-5.187-15.142-.974c-14.24-1.047-19.316-2.92-22.7-4.78-14.277-7.873-18.007-30.47-18.822-37.21l-.902-7.59c-.445-3.08.358-6.086 2.21-8.254 1.446-1.676 3.434-2.748 5.583-2.994-32.926-29.718-62.69-66.644-52.292-118.688 11.474-57.477 58.035-74.8 60.011-75.515a6.645 6.645 0 018.114 3.117 6.635 6.635 0 01.556 4.88c15.377-13.011 30.074-18.691 36.237-20.663a6.44 6.44 0 012.025-.32 6.66 6.66 0 016.064 3.893 6.63 6.63 0 01-2.618 8.428c-14.042 8.464-26.27 19.984-35.495 33.242 11.214-2.612 18.735-2.896 21.366-2.896.902 0 1.359.037 1.359.037 3.285.197 5.953 2.772 6.237 6.038a6.613 6.613 0 01-5.027 7.035c-.173.05-18.476 4.67-38.682 19.134-3.816 11.607-5.743 23.73-5.743 36.039 0 23.336 7.485 47.3 20.54 65.732 3.111 4.399 6.187 8.23 9.41 11.73-1.247-23.964 5.632-61.408 49.044-78.78a6.539 6.539 0 012.482-.48 6.626 6.626 0 015.941 3.67c1.556 3.081.47 6.839-2.482 8.638l-.321.185a57.334 57.334 0 00-16.624 16.473c4.718-1.454 8.781-1.935 11.523-2.255l.518-.062a6.645 6.645 0 017.052 4.362c1.05 2.92-.086 6.173-2.704 7.836l-.222.135a2.176 2.176 0 01-.285.173c-13.894 7.996-21.625 17.299-22.972 27.673-1.482 11.335 4.805 22.005 9.313 28.03 11.683-13.48 19.291-36.507 21.416-45.18a6.655 6.655 0 016.459-5.065c.26 0 .519.013.778.05 3.335.381 5.866 3.19 5.879 6.542.173 28.301-7.448 47.633-15.253 59.978 11.696 5.914 23.157 6.26 25.64 6.26.284 0 .679-.013.765-.013.074 0 .494.012.79.012 2.483 0 13.944-.345 25.64-6.259-7.805-12.345-15.425-31.677-15.253-59.978a6.612 6.612 0 015.867-6.543 6.631 6.631 0 017.238 5.015c2.136 8.674 9.744 31.702 21.427 45.181 4.496-6.013 10.782-16.695 9.313-28.03-1.346-10.374-9.078-19.677-22.972-27.673-.087-.05-.42-.259-.42-.259-2.63-1.663-3.792-4.94-2.754-7.86.95-2.674 3.446-4.436 6.237-4.436.26 0 .518.012.778.05l.519.06c2.73.321 6.805.802 11.523 2.256a57.144 57.144 0 00-16.624-16.461l-.309-.197c-2.964-1.8-4.05-5.557-2.507-8.637a6.658 6.658 0 015.953-3.672 6.54 6.54 0 012.482.48c43.412 17.373 50.292 54.816 49.032 78.78 3.236-3.498 6.31-7.33 9.423-11.729 13.055-18.432 20.54-42.396 20.54-65.732 0-12.321-1.928-24.433-5.756-36.039-20.317-14.575-38.484-19.085-38.67-19.134a6.634 6.634 0 01-5.039-7.035c.297-3.265 2.964-5.84 6.237-6.038 0 0 .47-.037 1.371-.037 2.619 0 10.152.284 21.354 2.896-9.213-13.258-21.44-24.778-35.483-33.242a6.626 6.626 0 01-2.618-8.428 6.656 6.656 0 016.052-3.893c.679 0 1.358.098 2.038.32 6.162 1.972 20.86 7.652 36.236 20.662a6.63 6.63 0 01.543-4.879 6.664 6.664 0 018.127-3.117c1.976.715 48.525 18.038 60.011 75.515 10.4 52.044-19.366 88.97-52.292 118.688a8.586 8.586 0 015.57 2.994c1.865 2.168 2.668 5.175 2.223 8.255l-.914 7.59c-.802 6.739-4.532 29.336-18.81 37.209-3.384 1.86-8.472 3.733-22.638 4.78l-15.203.974 1.543 5.187a6.69 6.69 0 01-.74 5.396l-11.054 17.656c.247.444.444.924.58 1.43l24.071 85.396a6.624 6.624 0 01-2.174 6.924l-80.475 65.252-80.476-65.252z" fill="#EDE0C5" fill-rule="nonzero"/><path d="M117.037 181.635s-9.744-44.072-2.507-70.156c-1.926 2.082-3.89 4.226-5.693 6.567-17.661 22.794 8.2 63.589 8.2 63.589m264.61 0s25.874-40.795 8.213-63.589c-1.816-2.34-3.78-4.485-5.706-6.567 7.25 26.084-2.507 70.156-2.507 70.156m-296.09-68.123c10.88-54.459 55.737-70.562 55.737-70.562-16.426 12.1-33.186 34.868-40.115 66.829 6.744-8.354 12.993-14.613 20.342-19.615 18.192-39.082 49.229-54.94 64.457-59.806-19.748 11.914-36.273 29.644-46.314 50.06 22.836-8.132 36.631-7.38 36.631-7.38S155.868 77.99 133.55 94.5a122.12 122.12 0 00-6.768 40.154c0 24.752 7.99 50.121 21.762 69.576 7.743 10.941 15.24 18.506 24.552 25.394-3.087-7.738-14.808-67.457 41.807-90.116l-.395.234c-13.376 8.65-23.232 22.104-27.233 37.949 10.337-9.882 21.243-10.904 26.986-11.594-.1.061-.186.123-.272.172-52.564 30.248-10.77 71.203-10.77 71.203 16.575-13.849 26.233-44.873 28.308-53.362.21 32.786-10.72 52.413-18.156 61.999 16.945 11.606 35.953 10.83 35.953 10.83h.037c.012 0 19.007.776 35.952-10.83-7.435-9.586-18.353-29.213-18.155-61.999 2.075 8.49 11.745 39.513 28.307 53.362 0 0 41.807-40.955-10.757-71.203a2.03 2.03 0 01-.272-.172c5.73.69 16.636 1.712 26.974 11.594-4.002-15.845-13.858-29.3-27.233-37.949l-.395-.234c56.614 22.658 44.894 82.378 41.806 90.116 9.325-6.888 16.809-14.453 24.553-25.394 13.783-19.455 21.774-44.823 21.774-69.576 0-14.058-2.396-27.574-6.78-40.154-22.318-16.51-42.733-21.463-42.733-21.463s13.783-.752 36.619 7.38c-10.041-20.416-26.554-38.146-46.315-50.06 15.229 4.867 46.265 20.724 64.458 59.806 7.348 5.002 13.61 11.261 20.353 19.615-6.928-31.96-23.7-54.73-40.126-66.829 0 0 44.869 16.104 55.737 70.562 12.672 63.391-38.076 102.978-79.006 136.886l31.247-12.703c2.112-.9 3.582 1.133 3.186 3.573l-.914 7.688c-.506 4.239-3.618 25.69-15.425 32.182-2.557 1.417-6.954 3.019-19.91 3.98l-23.453 1.503 3.903 13.159-23.022 36.778 11.783-12.395 24.071 85.409-66.038 54.2 20.6-93.245-30.802 37.381-30.814-37.381 20.6 93.245-66.038-54.2 24.071-85.409 11.795 12.395-23.021-36.778 3.89-13.159-23.453-1.503c-12.956-.961-17.353-2.563-19.91-3.98-11.806-6.493-14.919-27.944-15.425-32.182l-.914-7.688c-.395-2.44 1.074-4.473 3.186-3.573l31.247 12.703c-40.917-33.908-91.665-73.495-79.006-136.886" fill="#00471A" fill-rule="nonzero"/><path d="M141.298 248.816s2.272 19.122 10.325 23.557c5.421 2.982 18.686 2.699 30.27 3.586-12.831-4.966-31.728-18.506-40.595-27.143zm71.052 40.425c7.015 5.396 12.956 2.39 16.142-.727 1.05-1.01.729-2.76-.593-3.364-3.347-1.528-9.67-4.423-15.957-7.306a2.09 2.09 0 00-2.927 1.577c-.444 2.71-.382 6.949 3.335 9.82zm12.746 37.11l-3.78 16.609 9.288 12.506h9.856l-9.127-13.405 1.445-8.268a22.762 22.762 0 0016.562 7.196 22.79 22.79 0 0016.574-7.196l1.445 8.268-9.14 13.405h9.869l9.287-12.506-3.779-16.609c-8.867-5.655-10.918-13.676-10.918-13.676l-6.187-20.206-7.151 3.462-7.151-3.462-6.175 20.206s-2.05 8.021-10.918 13.676zm45.091-37.837c3.187 3.117 9.14 6.123 16.143.727 3.717-2.871 3.791-7.11 3.347-9.82a2.105 2.105 0 00-2.94-1.577c-6.286 2.883-12.597 5.778-15.944 7.306-1.322.604-1.643 2.353-.606 3.364zm-7.46 74.652h-26.775l6.434 8.711h13.92l6.422-8.71zm54.071-87.207c11.585-.887 24.85-.604 30.271-3.586 8.04-4.435 10.325-23.557 10.325-23.557-8.88 8.637-27.776 22.177-40.596 27.143z" fill="#FEFEFE" fill-rule="nonzero"/><path d="M0 0h500v500H0z"/></g></svg>