<svg width="500" height="500" viewBox="0 0 500 500" xmlns="http://www.w3.org/2000/svg"><g fill="none" fill-rule="evenodd"><path d="M0 0h500v500H0z"/><g fill-rule="nonzero"><path d="M250.001 434.616c-78.515 0-148.6-49.864-174.4-124.08-33.369-96.144 17.704-201.52 113.85-234.893 19.608-6.81 39.977-10.258 60.547-10.258 78.534 0 148.615 49.86 174.396 124.071l.877 2.511-.023.027c31.627 95.448-19.373 199.279-114.673 232.359-19.624 6.813-40 10.263-60.574 10.263" stroke="#FFF" stroke-width="3.846" fill="#C4CDD3"/><path d="M403.046 294.61a159.458 159.458 0 01-17.023 38.558c-8.447-30.57-27.935-62.146-53.008-90.993 2.261-3.846 4.85-7.723 7.808-11.857 6.842-7.427 10.065-.539 10.065-.539 5.492-14.896 2-22.396-.661-25.604-.997-1.473-2.197-2.003-2.197-2.003-2.303-10.477-11.8-15.977-11.8-15.977s3.273-14.72 1.689-29.958c51.35 21.446 66.523 60.242 70.934 80.6a158.966 158.966 0 01-5.807 57.773m-68.462 90.454c-1.146-18.589-4.238-33.612-4.238-33.612 1.669.677 5.854 3.685 5.854 3.685-.797-34.773-15.416-47.02-15.016-65.985.331-15.88 2.5-26.927 6.692-36.85 25.374 29.881 44.327 62.266 50.408 92.373-12 16.258-26.9 29.874-43.7 40.389M93.865 218.12c10.796-14.634 38.615-47.353 69.308-44.076-2.427 4.377-4.47 8.142-5.685 10.55-8.046 12.442-15.596 27.369-21.208 45.027-5.842 18.392-8.88 37.534-9.211 57.311-6.539 5.385-13.285 10.385-20.189 14.754 0 0 12.293 10.965 24.523 15.28 0 0-8.403 13.212-13.769 21.832-23.069-34.454-32.615-77.627-23.769-120.677m38.05-75.193c3.523-.242 8.53-.427 14.52-.261 14.565 1.307 19.842 5.323 28.3 10.869a2271.723 2271.723 0 00-6.278 11.058c-27.073-5.296-51.442 12.588-67.646 29.4 7.239-19.32 17.893-36.523 31.104-51.066m71.977-45.457c-.773 4.884-.87 11.053 1.508 17.119 1.504 3.823 3.819 7.138 6.869 9.961-7 2.97-13.304 5.739-18.489 8.07-12.277-.497-33.761-1.116-48.85-.223-.815-.012-1.677-.047-2.45-.047 17.608-16.053 38.639-27.969 61.412-34.88m11.112-2.943a158.361 158.361 0 0158.042-2.227 159.577 159.577 0 0121.511 4.704c.27.077.527.17.797.246-10.062 1.554-23.008 4.485-37.581 9.8-11.535 3.862-23.508 8.447-34.523 12.935-4.016-2.342-6.87-5.346-8.339-9.058-2.442-6.154-.984-12.923.093-16.4m40.365 78.927a366.696 366.696 0 00-16.308-10.446c-4.08-4.588-12.307-13.192-16.62-17.68 2.124-3.362 4.95-7.37 8.382-11.162 16.819 5.8 30.777 6.884 39.553 7.48 1.708.12 3.231.22 4.55.35l1.274.108c2.315.196 4.546.446 6.788.693-8.43 8.83-17.296 18.311-27.62 30.657M203.3 207.268c-14.127 14.18-37.454 44.753-65.485 70.338 2.442-37.715 15.18-69.488 32.7-94.134 1.846-1.816 4.042-3.616 6.47-5.37 10.93 5.508 19.5 16.023 26.315 29.166m7.75-6.85c-6.508-11.939-14.504-21.939-24.462-28.477 4.604-2.658 9.38-5.089 13.746-7.17 6.25.85 24.477 3.5 32.116 6.247 5.446 3.261 10.9 6.765 16.346 10.457a470.452 470.452 0 00-4.242 5.323s-16.158.2-33.504 13.62m106.165-94.735l.008-.189c36.3 16.828 63.946 46.274 79.127 81.381-16.62-20.65-39.116-33.611-60.589-41.746-2.596-8.52-7.504-16.046-16.358-19.754-1.727-3.954-4.146-6.719-8.892-8.5-5.223 1.162-13.738 7.223-19.015 16.816a220.046 220.046 0 00-14.446-1.739l-1.15-.1c-1.396-.134-3.02-.242-4.831-.369-7.704-.527-18.435-1.3-31.43-5.104a37.61 37.61 0 012.153-1.365c41.473-20.108 74.98-19.343 75.423-19.331m84.842 60.885c-22.3-40.616-59.077-70.116-103.569-83.073a175.925 175.925 0 00-23.377-5.104h-.004l-.015-.004c-85.154-12.542-167.55 40.408-191.642 123.17-12.954 44.488-7.808 91.353 14.488 131.972 22.3 40.62 59.08 70.12 103.566 83.073a174.857 174.857 0 0023.396 5.108c17.407 2.565 34.684 2.35 51.388-.25.208.1.408.22.615.315l.2-.442c64.658-10.396 120.35-57.215 139.447-122.792 12.953-44.485 7.807-91.354-14.493-131.973" fill="#002A5B"/><path d="M223.251 119.986c11.016-4.489 22.985-9.07 34.523-12.935 14.57-5.315 27.516-8.246 37.581-9.796-.273-.08-.527-.177-.792-.25a160.326 160.326 0 00-21.516-4.7c-19.734-2.908-39.361-1.996-58.042 2.227-1.077 3.473-2.538 10.242-.096 16.396 1.473 3.716 4.327 6.72 8.342 9.058M136.28 229.622c5.615-17.662 13.165-32.585 21.207-45.027 1.22-2.408 3.258-6.177 5.685-10.55-30.688-3.277-58.508 29.442-69.304 44.077-8.85 43.05.7 86.223 23.77 120.677 5.361-8.62 13.765-21.83 13.765-21.83-12.23-4.316-24.52-15.278-24.52-15.278 6.904-4.373 13.65-9.373 20.185-14.757.331-19.777 3.37-38.92 9.212-57.312m6.203-97.268c.77.004 1.63.031 2.442.046 15.096-.896 36.577-.277 48.854.22a946.9 946.9 0 0118.492-8.066c-3.05-2.827-5.365-6.138-6.869-9.965-2.377-6.066-2.28-12.235-1.507-17.116-22.777 6.908-43.804 18.823-61.412 34.881m192.103 252.708c16.8-10.511 31.704-24.127 43.696-40.388-6.077-30.108-25.03-62.493-50.4-92.373-4.196 9.927-6.37 20.969-6.696 36.85-.4 18.969 14.22 31.215 15.011 65.988 0 0-4.184-3.011-5.857-3.684 0 0 3.096 15.015 4.246 33.607M200.334 164.77c-4.362 2.08-9.143 4.511-13.746 7.177 9.957 6.53 17.953 16.538 24.457 28.477 17.346-13.427 33.508-13.623 33.508-13.623a636.36 636.36 0 014.238-5.327c-5.434-3.685-10.896-7.193-16.342-10.454-7.638-2.743-25.865-5.396-32.115-6.25m82.654-21.97c-2.242-.246-4.473-.496-6.792-.692l-1.27-.107c-1.318-.135-2.841-.235-4.55-.346-8.78-.604-22.734-1.681-39.553-7.481-3.43 3.784-6.254 7.796-8.377 11.157 4.308 4.485 12.535 13.093 16.615 17.681 5.439 3.27 10.881 6.773 16.304 10.45 10.327-12.354 19.196-21.83 27.623-30.661" fill="#004F83"/><path d="M100.81 193.996c16.205-16.811 40.574-34.696 67.647-29.404 2.142-3.8 4.304-7.6 6.277-11.057-8.458-5.547-13.735-9.562-28.3-10.87-5.989-.165-11 .027-14.52.27-13.21 14.538-23.865 31.742-31.103 51.061M403.046 294.61a158.966 158.966 0 005.807-57.773c-4.411-20.358-19.584-59.154-70.934-80.6 1.584 15.238-1.689 29.958-1.689 29.958s9.496 5.5 11.8 15.977c0 0 1.2.53 2.197 2.003 2.661 3.208 6.153 10.708.661 25.604 0 0-3.223-6.888-10.065.539-2.958 4.134-5.546 8.011-7.808 11.857 25.073 28.847 44.562 60.423 53.008 90.993a159.454 159.454 0 0017.023-38.558" fill="#004F83"/><path d="M310.513 116.878c4.738 1.777 7.161 4.542 8.896 8.496 8.846 3.711 13.757 11.235 16.35 19.758 21.473 8.13 43.973 21.092 60.588 41.742-15.177-35.104-42.827-64.554-79.127-81.377l-.007.188c-.439-.015-33.95-.78-75.42 19.327-.734.427-1.45.885-2.153 1.37 12.992 3.8 23.719 4.577 31.427 5.103 1.815.127 3.434.235 4.83.37l1.154.1c3.777.315 8.712.857 14.446 1.738 5.277-9.592 13.793-15.654 19.016-16.815M203.3 207.266c-6.815-13.142-15.384-23.654-26.32-29.165-2.422 1.757-4.618 3.557-6.468 5.369-17.52 24.646-30.254 56.42-32.704 94.138 28.038-25.588 51.357-56.161 65.492-70.342" fill="#004F83"/><path d="M218.94 130.463l-11.024 15.989s8.33 5.788 15.18 13.619c-11.987-2.45-25.15-4.666-25.15-4.666l-20.864 11.346 9.78-16.23s-6.58-5.62-14.169-10.516c8.32.243 24.142 1.554 24.142 1.554l22.104-11.096zm20.614 70.718s-2.334 6.458-2.642 12.458c0 0-14.63 2.157-21.673 6.95 0 0 14.607-14.558 24.315-19.408" fill="#7AC142"/><path d="M338.123 200.534c1.627-.397 2.842-.462 3.75-.397a10.222 10.222 0 00-1.685-2.969c-1.292-1.565-3.173-2.738-3.173-2.738 1.212 1.869 1.247 4.45 1.108 6.104m-13.199 6.659c1.889-1.3 3.612-2.377 5.177-3.254a27.861 27.861 0 00-1.388-2.835c-1.254-2.246-4.523-4.204-4.523-4.204 1.35 3.997 1.061 8.05.734 10.293" fill="#FEFEFE"/><path d="M167.98 305.95c-12.439 5.084-41.873-1.847-41.873-1.847 29.734-1.711 58.819-23.015 58.819-23.015-.023.05-.05.104-.066.15-8.719 13.373-20.734 21.108-20.734 21.108 1.323 1.692 2.657 2.819 3.854 3.604" fill="#C4CDD3"/><path d="M316.244 128.535s-7.311-5.731-15.608 3.157c8.889-16.2 14.024-6.911 15.608-3.157" fill="#7AC142"/><path d="M345.113 207.103s-.765-.52-.927-.608c-4.638-2.47-12.954 4.739-18.384 7.727-5.424 2.988-13.327 9.354-17.189.585-3.858-8.77 5.015-22.485 8.092-31.116 6.785-19.08 7.031-30.315 5.6-36.388 6.27 7.08 8.243 20.654 8.243 20.654s2.33-25.493-10.135-32.208c.289.904-.038 4.08-.292 6.585 0 0-.023-.035-.039-.054-5.807 1.061-18.611-.393-22.769-2.57-15.742 16.885-32.904 40.381-45.823 61.958-5.604 11.412-11.088 24.796-12.461 35.677 0 0-1.785-4.92-2.208-11.48-7.146 2.757-31.446 14.7-36.642 51.315 0 0 15.442-15.935 32.515-22.143 0 0-10.812 28.316 9.827 78.508 0 0 8.354-30.777 25.83-38.542 10.581 52.554 41.6 53.415 50.647 89.173 0 0 9.48-18.523-1.931-50.008 0 0 3.935 1.1 7.273 5.03 0 0-.52-9.21-9.127-29.076-5.608-10.635-7.365-24.988-7.365-24.988-5.039 4.565-6.331 19.984-6.331 19.984-15.4-41.78 28.312-83.188 36.292-89.292 3.893-2.989 6.293-3.039 7.746-2.323 1.5-3.112 1.366-5.1-.442-6.4" fill="#C4CDD3"/></g></g></svg>