<svg xmlns="http://www.w3.org/2000/svg" viewBox="0 0 164 164"><defs><style>.cls-1{fill:#e51837;}.cls-2{fill:#fff;}</style></defs><g id="Color_bubbles" data-name="Color bubbles"><circle class="cls-1" cx="82" cy="82" r="82"/></g><g id="Logos"><path class="cls-2" d="M118.2,47.75c-10.3-11-25.57-16.67-41.15-15.62A46.45,46.45,0,0,0,41.36,52.2S61,58.14,63.65,59c1.83.57,14.06,3.59,19.58,6.63a16.15,16.15,0,0,1,3.39,3.08A27,27,0,0,0,89,71.06c1.45,1.18,2.87,2.21,4.24,3.2,3.4,2.46,6.33,4.58,7.69,7.8a10.78,10.78,0,0,1,.14,8.41,12.9,12.9,0,0,1-5,5.87c.23-1.19.53-2.89-1.08-4a27.31,27.31,0,0,0-6.86-1.57C87,90.7,73.77,90.08,55.38,100c5.52-7.35,9.47-8.57,9.47-8.57-.15-.89-29.73,11.09-29.73,11.09s10.21,32.69,49.7,29.22c25.7-2.26,44.84-21,46.52-46.14A49.86,49.86,0,0,0,118.2,47.75ZM110,94.09c3.73-8.2,1.85-17.12-4.44-24.16a25.6,25.6,0,0,0-6-4.57,37.42,37.42,0,0,1-4.06-2.73,10.33,10.33,0,0,1-1.61-1.83,11.43,11.43,0,0,0-2.42-2.59C85.62,54,78.76,52.46,72,50.45c-3.19-.94-6.31-1.64-9.24-2.68a28.29,28.29,0,0,1,13.34-4.63c1.6-.16,3.19-.24,4.74-.24,15,0,28,7.54,35,20.15a39.33,39.33,0,0,1-1.2,40c-7.89,12.39-21.88,19-37.71,17.67C67.4,120,57.31,115,54.2,109.62c1.93-1.18,19.22-10.35,31.05-6.65,3.39,0-2,8.22-2,8.22S103,109.56,110,94.09Z"/><path class="cls-2" d="M80.73,69.23c-6.34.25-12.18-7.38-17.08-2.39.95.25,2.88-.49,3.17.4C64.31,77.11,80.63,79.65,80.73,69.23Z"/></g></svg>