<svg xmlns="http://www.w3.org/2000/svg" viewBox="0 0 164 164"><defs><style>.cls-1{fill:#007a33;}.cls-2,.cls-4,.cls-5{fill:none;stroke:#fff;}.cls-2,.cls-4{stroke-miterlimit:10;}.cls-2{stroke-width:0.66px;}.cls-3{fill:#fff;}.cls-4,.cls-5{stroke-width:0.17px;}</style></defs><g id="Color_bubbles" data-name="Color bubbles"><circle class="cls-1" cx="82" cy="82" r="82"/></g><g id="Logos"><path class="cls-2" d="M129.15,78.91A47.11,47.11,0,0,0,87.09,32.14a4.68,4.68,0,0,0-.84-.69c-3.77-2.42-6.93-.62-9.09.44l-.55.27a46.44,46.44,0,0,0-11.78,2.93,11.85,11.85,0,0,0-1.53-1.85,12.06,12.06,0,0,0-20.59,8.51,11.88,11.88,0,0,0,2.65,7.57,47,47,0,0,0,18.17,72.9c-.3,2.49.1,4.19.55,4.88A2.53,2.53,0,0,0,63,128.71c-1.09,1.49,1.57,3.38,2.66,4.18,2.24,1.72,3.43,1.4,5.18,1.35,2.16-.09,4.19-2.62,5.36-4.26,2.33-.33,2.79,0,2.84.32a11.46,11.46,0,0,0,3.14-.87c3.15-1.32,2.26-2.94,1.94-3.23a1,1,0,0,1-.23-.31,46.79,46.79,0,0,0,21-5.88,9.64,9.64,0,0,1,.7.88c.7,1,1.06,4.33,1.2,6a23.67,23.67,0,0,0,1.28,5.58c.84,2.69,1.17.7,1.21,0s.18-3.34.07-5.23a21.87,21.87,0,0,1,.22-5.78,1.33,1.33,0,0,0-.48-1.68c-.18-.21,0-.28-.47-1.78a1.14,1.14,0,0,1-.06-.25,48.76,48.76,0,0,0,6.76-5.58A46.63,46.63,0,0,0,129.15,78.91Z"/><path class="cls-3" d="M70.12,122.8a18.82,18.82,0,0,0,5.3-1.1c.15,0,.39.19.75.33a13.63,13.63,0,0,0-1-4.69c-.28-.74-.55-1.23-.88-2a17.83,17.83,0,0,1-3.08-1.07c0,.7.13,2.49.28,3.69A12.39,12.39,0,0,1,70,118C70.05,119.34,70.19,121.7,70.12,122.8Z"/><path class="cls-3" d="M103.11,119c-.33-.33.4-1.35.7-3.24s.36-5-1-6.83a6.52,6.52,0,0,1-1.12-1.81,34.31,34.31,0,0,1-14.52,6.1,1.75,1.75,0,0,1-.18.29,13.11,13.11,0,0,1-3.36,3,19,19,0,0,1-3,1.2,16.5,16.5,0,0,0,0,4.65c.11.33,1.45,1.13,1.93,2l.14.27A45.61,45.61,0,0,0,103.19,119Z"/><path class="cls-3" d="M113.67,46.59a45.46,45.46,0,0,0-26.24-13,11.51,11.51,0,0,1,1,4.48c1.39-.62,2.51-1,3.1-1.9a1,1,0,0,1,1.36-.56,1,1,0,0,1,.53.49c.51.7.51,1.56-.83,2.4A24.56,24.56,0,0,1,90,39.93c-.29.14,0,.4.29.94a9.39,9.39,0,0,1,1.32,4.73v.08a34.8,34.8,0,0,1,23,43.55,35.62,35.62,0,0,1-1.9,4.81,4.5,4.5,0,0,1,.85,2.6,4.69,4.69,0,0,1-.18,2,20.38,20.38,0,0,1-2.8,3.85,1.06,1.06,0,0,1-1.4-.22c-.33-.47-.36-.21-.62,0a18.16,18.16,0,0,0-1.35,1.86,1.57,1.57,0,0,0-.47,2c.47,1.31,1,2.29.84,3s-.26.94.7,1.78a1.84,1.84,0,0,1,.51,2.51,7.71,7.71,0,0,0-.89,2.68,45.61,45.61,0,0,0,10.75-63.71,46.4,46.4,0,0,0-4.93-5.82Z"/><path class="cls-3" d="M61,112.65c-.12-1.23-.31-3.48.55-5.05a35.46,35.46,0,0,1-5-4.11,34.66,34.66,0,0,1-.06-49.09l.76-.74a2.55,2.55,0,0,1,.24-.39,12.12,12.12,0,0,1-12-3,45.72,45.72,0,0,0,17.52,70.56,21.21,21.21,0,0,1,1-3.19c.4-1.06-.22-3.48-1.25-4.76A9.81,9.81,0,0,0,61,112.65Z"/><path class="cls-3" d="M73.19,33.92a44.83,44.83,0,0,0-8.43,2.33,12,12,0,0,1-1,12.61,34.46,34.46,0,0,1,8.11-3.42c.18-.18.37-.36.55-.52a9.51,9.51,0,0,1-1.23-8.33A6.13,6.13,0,0,1,73.19,33.92Z"/><path class="cls-4" d="M92.24,47.69A3.08,3.08,0,0,1,94,51.35a14.28,14.28,0,0,1-1,1.95c-.11.55-1.26,1.48-1.62,2.21a2.42,2.42,0,0,0-.31,1.66h0a9.6,9.6,0,0,0,2.63,1.52c.57.2.53.35.29.7.4,0,.61.29,1,.7s1.45.18,2.09-.15a1.64,1.64,0,0,1,2.16.36A13.78,13.78,0,0,1,101.32,64a18.09,18.09,0,0,0,1.14,2.73c.14.22-.52,4.22-.7,5.82s-.33,2.29-.37,2.54,1-.9,1.06.48a52.31,52.31,0,0,0,1.14,7.25c.15.7.31,1.27.46,1.76.44.07.8,1,1,2.29s.81,2.18.84,2.84.23.77.44.87.15.44-.51,1.2c.18.15.35.31.51.47.19-.18.7-.76.7-.76s2,.8,2.44.94,1-.92,2.27-.36a2.85,2.85,0,0,1,1,1.13A34,34,0,0,0,92.25,46.46C92.26,47,92.24,47.51,92.24,47.69Z"/><path class="cls-4" d="M102.76,104.87c-.5-.25-.84.12-1.09-1.89a3.56,3.56,0,0,0-.91-1.71,1.69,1.69,0,0,1-.22-1.64,6.84,6.84,0,0,0,.33-2.46,2,2,0,0,1,1.13-2.1,3.15,3.15,0,0,1-.66-1.3c-1.49-.49-1.79-.54-2.09-1.25a19.25,19.25,0,0,1-1-3.94,9.83,9.83,0,0,1-.13-1.32c-.48-.9-1.54-2.91-2.37-4.41-.3-.57-.57-1.06-.77-1.4-.7-1.27,0-2.94.37-3.92a4.17,4.17,0,0,0,.33-2.84,7.34,7.34,0,0,1-.43-1.59c-.08-.41-.41-.91-.84.47S93.17,77,92.7,79.09a15,15,0,0,0-.39,3.77A7.1,7.1,0,0,0,93,85.61c1,2,2.1,3.78,1.93,4.88a3.29,3.29,0,0,1-.4,1.29,38.85,38.85,0,0,1-1.56,7.31,66.79,66.79,0,0,0-2.74,7.16,45.09,45.09,0,0,1-1.87,6A34,34,0,0,0,103,105.62a.51.51,0,0,0-.17-.71Z"/><path class="cls-4" d="M62.25,57.17a4.84,4.84,0,0,0,1.63,1.35c1.78.91,2.14,1.56,2.14,3.12s.29,4.77.81,5.32a6.5,6.5,0,0,0,.76-1,10.53,10.53,0,0,0,3.17,3.78c.11.07.06.47.33.54.54.15,4.08.7,4.19,1.39a12.89,12.89,0,0,0,2.1-3.16,18.49,18.49,0,0,1,2.45-3.67,3.57,3.57,0,0,1,0-.8,4.91,4.91,0,0,1-1.25,1c-.58.25-2.62,1.13-4.08,1.85-.5.25-1.4.55-1.78-2.09A8.87,8.87,0,0,1,73,60.2a1.28,1.28,0,0,1,1.56-.93l.08,0a27.1,27.1,0,0,0,2.8.8c.08-.29.33-.84-.65-.94a5.65,5.65,0,0,1-3.57-2A3.86,3.86,0,0,1,72.45,55c-2.09.33-6.85.95-7.9,1.2s-2,.48-2.3-1.92c-.15-1-.4-2.44.33-1.93a3.38,3.38,0,0,1,2.79-.7,1.06,1.06,0,0,1,.7.46,3.31,3.31,0,0,1-.25,1.46c-.32,1-.93,1.68,1.06,1.22s4.72-.87,5.41-1a5.89,5.89,0,0,1,1.4-2.6,3.18,3.18,0,0,0,.84-1.71c0-.25-.2-.31-.55,0a3.34,3.34,0,0,1-2.73.8c-.44-.11-1-.95-1.27-1.39a11.75,11.75,0,0,1,1.58-2.24,33.58,33.58,0,0,0-10.75,5.73,9,9,0,0,0,.29,2.37A7.07,7.07,0,0,0,62.25,57.17Z"/><path class="cls-4" d="M64.78,106.84c1.5-.59,2.67-.56,3.83,1,.33.43.58,1.71,3.4.58a17.3,17.3,0,0,1-3.21-6.73c-1.3-4.47-4.2-9.56-3.14-11.89C65,89.2,64.31,87,63.56,87.2c-.52.18-1.24.18-.66-1.52a10.62,10.62,0,0,1,1.51-2.79,25.7,25.7,0,0,1,5.13-5c.21-.18.26-.32.11-.47a4.64,4.64,0,0,0-.77-.7.57.57,0,0,0-.7.15,6.84,6.84,0,0,1-.8.62c-.22.15-2-1.56-2.88-2.79A5.47,5.47,0,0,0,62.35,73c.36-.4,1.18-1.27.88-1.16a2.26,2.26,0,0,1-2.49-.7c-1.2-1.28-.7-1.93-1-2.09a3.16,3.16,0,0,1-2.55-1.4c-1-1.5-1.4-2.19-.58-3.27a1.61,1.61,0,0,0,.43-1.49c-.11-.69,0-1.13.92-2s1.45-1.67,1.85-1.6-.6-1.1-1.16-2a5.92,5.92,0,0,1-.33-.61,5.26,5.26,0,0,1-.43-1.61,33.95,33.95,0,0,0,4.9,52,1.39,1.39,0,0,1,2-.22Z"/><path class="cls-3" d="M45.41,35.14a12.06,12.06,0,0,1,6.22,4.51c.25.34.51.29.61,0A11.88,11.88,0,0,0,52.9,36c0-3,.42-4.26,1.19-5.67A11.44,11.44,0,0,0,45.41,35.14Z"/><path class="cls-3" d="M43.61,44.49C49.2,45,51,41.87,51.3,41.4s-.07-.77-.26-1a11.4,11.4,0,0,0-6.1-4.52A11.35,11.35,0,0,0,43.61,44.49Z"/><path class="cls-3" d="M65.91,44.27c-2.37-1-5.18-.08-7.19,1.67S55.7,49,55,53.17h-.28a11.42,11.42,0,0,1-7.68-3,21,21,0,0,0,9.56-5.5,19.42,19.42,0,0,0,5.27-8.28c.44-1.68-.18-.7-.51.07a24,24,0,0,1-5.5,7.45,23.66,23.66,0,0,1-9.33,5.78,11.42,11.42,0,0,1-2.61-4.22c1.17.08,4.84-.35,6.69-1.85,2.42-2,2.7-4.32,3-7.67s.82-4.34,1.62-5.58A11.42,11.42,0,0,1,66.17,42.3,12,12,0,0,1,65.91,44.27Z"/><path class="cls-3" d="M65.57,45.41c-.55-.76-2.5-1.13-5.6.8-.29.19-.49.31-.14.66a11.2,11.2,0,0,1,2.33,3.56A11.49,11.49,0,0,0,65.57,45.41Z"/><path class="cls-3" d="M61.25,51.14a16.46,16.46,0,0,0-1.82-3.57c-.34-.43-.41-.61-1-.07a10,10,0,0,0-2.75,5.64A11.42,11.42,0,0,0,61.25,51.14Z"/><path class="cls-3" d="M58.12,63.9c-.48-.15-.84.39-1.06.83a1.5,1.5,0,0,0,.22,1.89c.69,1,1.12,1.56,2.33,1.49a1.91,1.91,0,0,0,1.27-.7c.19-.25.22.18-.07.62a2,2,0,0,0,0,2.14,2.3,2.3,0,0,0,3.18.4,6,6,0,0,0,2.36-2.39c.26-.48.26-.7,0-1a8.09,8.09,0,0,1-1.27-4.4c-.11-1.63.18-2.69-.84-3.27s-3.36-2-3.64-4.65c-.12-1-.05-2.58-1.07-1.75a2.64,2.64,0,0,0-1.12,2,3.21,3.21,0,0,0,.84,2,20.58,20.58,0,0,0,1.35,2.18c.4.33.65.58,1,.61a18.86,18.86,0,0,1,2,.15c.33.1.51.51-.3.51a22.38,22.38,0,0,0-2.58.29c-.55.07-1.06.11-1.32,1.2s-.61,2.36-.65,2.79-.26.62-.26.83.44,1.28,1.4.23a7.39,7.39,0,0,0,1.57-2.62c.19-.51.4-.44.22.36a7.15,7.15,0,0,0,.15,3.48,1.76,1.76,0,0,0,2.29,1,1.8,1.8,0,0,1,.87-.26c.3,0,0,.54-.3.77s-1.09,1.14-2.58-.19a3.33,3.33,0,0,1-1-2,.35.35,0,0,0-.41-.28.38.38,0,0,0-.22.13c-.18.26-1.16,1.17-1.86.51s-1-1-.58-2.4C58.15,64.22,58.29,64,58.12,63.9Z"/><path class="cls-3" d="M58.84,61.87c-.15.46-.29,1.08-.36,1.3s-.4.7-.7.08A1.23,1.23,0,0,1,58,61.68c.15-.14.36-.43.51-.29S58.88,61.75,58.84,61.87Z"/><path class="cls-3" d="M60.48,60.19c-.3.15-.94.15-1.16.66-.15.33-.7,0-.44-.44s.51-.36.7-.47.25-.44.62-.26S60.63,60.12,60.48,60.19Z"/><path class="cls-3" d="M84.5,42.2a6.61,6.61,0,0,0-2.91,1.39c-1,.66-4.38,3.53-5.18,4.11.84.44,1.06,1.31.77,2.79-.07.33,0,.44.21.22a3.88,3.88,0,0,0,1.21-2.18A2.72,2.72,0,0,0,78.09,47c-.07-.11.29-.55.7.36s.29,2.18-.91,3.6a5,5,0,0,1-2.67,1.64c-.51.25-1,.65-.54,1.39a1.22,1.22,0,0,0,1.7.26l0,0a2.73,2.73,0,0,1,2-.44c1.16.12,1.56-.63.77-1.39-.26-.26-.91-.84-.12-.84.48,0,1.06,1.06,1.4,1.35a4.14,4.14,0,0,0,2,.47c1,.07,2.52.43,2.52,1.39,0,.58-.31.75-.7.29-.16-.19-.4.1-.58.29-.62.62-2.21,2.29-3.34,2.58s-1.55,0-3-.84-2.88-1.6-3.28-1.85-1.24-.84-.84.32a4.94,4.94,0,0,0,3.36,3,14,14,0,0,1,2.69,1.1c.44.21.19.43-.4.36s-1.06-.51-.62.47a2.61,2.61,0,0,0,3.1,1.78c2-.25,2.06-.69,3.31-2.79.22-.37.44-.11.3.84a9.79,9.79,0,0,1,2.1-.77,4.87,4.87,0,0,0,3.1-2.51,3.32,3.32,0,0,0,.7-2.25,3.25,3.25,0,0,1,1-1.6c.55-.52,2-2.44,1.28-3.82s-2.05-.69-2.66.33a7.19,7.19,0,0,0-1.35,3.89.92.92,0,0,0-1.1.37c-.1.18-1.71,0-2.26.11s-.69-.18-.14-1,2.63-3.53,2.51-5.58a3.5,3.5,0,0,1,.15-1.2c.13-.6.18-.61-.56-1-.49-.26-.52-1-.61-1.6s-.21-.61-.9-.47A2.1,2.1,0,0,1,84.5,42.2Z"/><path class="cls-3" d="M80.24,53.58c-.2.45-.75.88-2,.74-.64-.07-1.27-.08-1.4.42-.07.34-.36.32-.76.31s-.88-.13-.9,0a12,12,0,0,0,2.39,1.48c.6.27,1.48.93,2.19.86,1-.09,1.77-.56,3.17-2,.57-.61,1-.92.49-1.18A2.9,2.9,0,0,0,82.16,54,4,4,0,0,1,80.24,53.58Z"/><path class="cls-3" d="M73.44,53.59c-.49,0-.55-.38-.22-.93a4.87,4.87,0,0,1,1.08-1.39,1.09,1.09,0,0,0,.44.65,1.71,1.71,0,0,0-.61,1.46Z"/><path class="cls-3" d="M92.24,50.52c-.43.3-.66.4-.7.91s-.14,1.39-.33,1.46-.21-.48-.29-.3-.42.15-.51-.09-1-.09-.22-1.14a4.61,4.61,0,0,1,1.64-1.67C92.31,49.46,93.11,49.9,92.24,50.52Z"/><path class="cls-3" d="M110.07,93.73c-.16-.43.13-1.14,1.05-.64s1.62,1,.93,3-1.13,3.16-1.4,4-1.24,1.89-.91.47a12.8,12.8,0,0,0,.36-4c-.26-1.6.26-1.5.09-2.24A2.62,2.62,0,0,0,110.07,93.73Z"/><path class="cls-3" d="M113.52,95.46c.26.78.55,2.58.11,3.3a28.33,28.33,0,0,1-2.3,3.24c-.51.51-.91.29-.58-.25a5.91,5.91,0,0,0,.76-1.53,2.45,2.45,0,0,1,.4-1.39A34.89,34.89,0,0,0,113.19,95C113.26,94.77,113.44,95.27,113.52,95.46Z"/><path class="cls-3" d="M104.11,102.18a9.41,9.41,0,0,0-.7-2.14c.3-.8,1.25-3,2.88-3.6a.32.32,0,0,0,.23-.4c-.08-.15.21-.25.36.25s.4,2,.4,2a2.51,2.51,0,0,1-.15,1,7,7,0,0,0-.15,1.93c.12.51.3.87,1.32.65.51-.1.47-.25.62-.7s.55-1.67.7-2.36a8.44,8.44,0,0,0-.13-2.79c-.14-.43.05-1.9,0-2.19s-.18-.7-1.1-1-1.16-.36-1.78.25-.81.84-1.13,1.14-1,0-.4-.54,1.2-1.17,1.4-1.35l-.19-.47h-.32a6.84,6.84,0,0,1-3.18,1.75c-.33.06-.94.1-.51.7.11.14.15.54.41.39s.65-.8,1-.51-.08,1-.51,1.32a12.89,12.89,0,0,1-1.25.83.83.83,0,0,0-.47.94,5.91,5.91,0,0,1-.25,2.44,1.41,1.41,0,0,0,.14,1.57,5.13,5.13,0,0,1,.91,1.88c.15.88.23,1.09.81,1a1.22,1.22,0,0,0,1-.69Z"/><path class="cls-3" d="M104.36,103.85a3.77,3.77,0,0,0-.7,1.75c0,.62-.62,1.27-.55,1.56s.88,1.06,1.34,1.86a7.22,7.22,0,0,1,1.1,4,27.23,27.23,0,0,1-.7,5.09.94.94,0,0,0,.29,1.17,5.64,5.64,0,0,1,1.75,3.6,13.67,13.67,0,0,0,.7,3.38c.16.1.11.29.11.69a13.26,13.26,0,0,0,.62,3.13c.25.44.22-2.47.18-3.31,0-1.8,0-3.61.18-5.41a2.16,2.16,0,0,0-.21-2,4.27,4.27,0,0,1-.7-4.11c.65-2.09,1.71-2.09,1.4-2.91a5.79,5.79,0,0,0-1.35-1.89c-.44-.47-.09-1.6-.11-2.1,0-.87-.7-1-.8-2a3.48,3.48,0,0,1,.59-2.79c.69-1-.26-.94-.59-1.56a3.77,3.77,0,0,1-.22-2.72c.15-.66.07-.84-.11-.92s-.94-.21-.94-.21l-1.14,2.25a4.43,4.43,0,0,1,.26,1.53Z"/><path class="cls-3" d="M93.8,59.61a29.22,29.22,0,0,0-3,6.11c-.65,1.89-2.14,6.4-1.09,9.38s3.14,1.09,3.61,0,1.2-3.06,1.4-3.56.33-.8.7.4a35.51,35.51,0,0,1,1,4.32,15.72,15.72,0,0,1-.84,2.09c-.44,1.13-.69,1.93-.25,2.62A53.85,53.85,0,0,1,98,85.81c.33.77.63.91,1.5.7a30.75,30.75,0,0,0,3.61-1.24c.62-.29.33-.8.14-1.39-.28-.94-1.39-6.19-1.39-6.88s.18-1.59-.7-.58c-.32.37-.77,0-.65-.5s1.2-7.6,1.27-8.48c-.62-1.34-2.44-5.57-2.95-6.36s-.7-.8-1.46-.4-2.48,1-3.1-.44c-.11-.25-.29-.83.15-.9l-.33-.12A3.09,3.09,0,0,0,93.8,59.61Z"/><path class="cls-3" d="M103.35,85.75a18.46,18.46,0,0,1-3.94,1.52c-1,.16-.69.41-.54,1.13a31.76,31.76,0,0,0,1,3.68c.32.76.7.74,1.45.69a7.52,7.52,0,0,0,4.56-1.85,14.9,14.9,0,0,1-1.31-3.71C104.38,86.24,104.36,85.17,103.35,85.75Z"/><path class="cls-3" d="M82.46,64.77a1,1,0,0,1-.91.58c-.58,0-1.06-.18-1.39.33s-2.37,2.94-2.8,4.43c.43.92,1,2.55,1.45,3.71,1.4-1.2,6-5.62,6.82-6.47.33-.32.37-.62-.11-.94S83.3,65,83,64.81,82.53,64.63,82.46,64.77Z"/><path class="cls-3" d="M71,71.17a18,18,0,0,1-1.75,4.62c.36.58.66,1.09,1.1,1.27a27.51,27.51,0,0,0,3.49-3.16,7.68,7.68,0,0,0,1.24-1.85c0-.23-.25-.3-.58-.23s-1.68-.46-3-.69C71.12,71,71,71,71,71.17Z"/><path class="cls-3" d="M70.18,70.08a7.91,7.91,0,0,1-2.26-2.36c-.48-.81-.55-.7-.7-.15A11.38,11.38,0,0,1,65.87,70c-.48.62-1.72,2.22-2,2.58s0,.51.29.81,1.79,2.09,2.1,2.51.7,1.12,1.57.32a9.26,9.26,0,0,0,2.4-3.75c.48-1.48.51-2.27.91-2.18V70L71,69.84l-.19-.18a.37.37,0,0,1,0,.38C70.66,70.17,70.36,70.11,70.18,70.08Z"/><path class="cls-3" d="M92.47,36.63c-1,1.16-3,2.19-6.29,3a21.79,21.79,0,0,0-7.83,4.29C77,45.07,73.63,47.86,72,48.56c-.45.18-1.4.79-.19.94.88.11,1.49-.4,3.39-1.78A41.65,41.65,0,0,0,80,43.94a16,16,0,0,1,6.41-3.28c2.62-.73,6.08-1.86,7.08-3,.47-.51.51-.77.07-1.2S92.89,36.16,92.47,36.63Z"/><path class="cls-3" d="M75.76,48.07c-.29.15-.41.33-.7,1.39s-.29,1.68,0,1.93a1,1,0,0,0,.64.2c.11,0,.21,0,.2-.27a2.45,2.45,0,0,1,.94-2.22c.18-.11,0-.87-.7-.77C75.9,48.35,76.12,47.86,75.76,48.07Z"/><path class="cls-3" d="M64.51,52.23c.51,0,.84,0,.81.58S65,54.2,65,54.74s0,.76.29.76-.48.33-.92.41-1.1.32-1.45-1.54c-.11-.58-.07-1.48-.15-1.71A4.46,4.46,0,0,1,64.51,52.23Z"/><path class="cls-3" d="M74.18,53.78c.14.74.33.7.19.83s-.3-.27-.89-.18-5.16.8-5.49.83c-1,.12-1.07,0-.12-.25s4.41-.83,5.44-1Z"/><path class="cls-3" d="M68.65,109.38c.47.29,1.6.62,3.54-.18s4.08-.26,4.41,1.12.33,3.17-.26,3.94a1.21,1.21,0,0,1-1.57.39c-1-.33-3.49-1.45-4.19-1.78a7.44,7.44,0,0,0-2.7-.7,3.42,3.42,0,0,1-.07-2.32c.22-.44.22-.88.4-.77S68.65,109.38,68.65,109.38Z"/><path class="cls-3" d="M76.3,115.82a1.59,1.59,0,0,1,1.6,1.06c.22.7,1.65.88,2.26.84s.52.29.48.66-.15,1.45-.15,1.89a19,19,0,0,0,.19,2.25c.07.29-.19.44-.52.58a2.61,2.61,0,0,1-2.29,0c-.41-.28-.87-.7-.4-.7s-.59-4.14-.87-4.88S75.47,115.82,76.3,115.82Z"/><path class="cls-3" d="M63.76,107.23c.2.07.3.26.44.51a.53.53,0,0,1,0,.7,7.78,7.78,0,0,0-.8,3.86,2.67,2.67,0,0,0-1.09-.11,11.86,11.86,0,0,1,.33-4.11C63,107.31,63.32,107.12,63.76,107.23Z"/><path class="cls-3" d="M63.81,129.43a14.19,14.19,0,0,0,3.9,3.13,6,6,0,0,0,3.25.62c.91-.09.7.29,0,.4a6.65,6.65,0,0,1-3.5-.47,11.42,11.42,0,0,1-3.93-3.24C63.29,129.48,63.55,129.08,63.81,129.43Z"/><path class="cls-3" d="M82.83,126.87a20.16,20.16,0,0,1-3.43,1.34,5.43,5.43,0,0,1,.18,1.13A8.64,8.64,0,0,0,83.19,128c.29-.19.41-.41.29-.66S83.22,126.69,82.83,126.87Z"/><path class="cls-3" d="M74.19,123.86c-.19-.19.86-.4,1.07-.4a7.08,7.08,0,0,1,.9.74c.11.12,0,.19-.06.26a3.68,3.68,0,0,1-1,.25C74.74,124.45,74.3,124,74.19,123.86Z"/><path class="cls-3" d="M76.12,108.76c-.29-.22-.26-.33-.11-.54a1.32,1.32,0,0,1,.44-.44c.15-.07.36-.11.62.26s1.64,2.65,1.93,3.27.66.21.51-.15A10.23,10.23,0,0,0,79,110a16.6,16.6,0,0,0,.8-4.36,7.6,7.6,0,0,0-.51-2.91,17,17,0,0,0,4-.26c.85-.25.15-.33-.18-.29a32.53,32.53,0,0,1-4.41-.18c-3-.36-5.92-2-6.85-3.2-.15-.18-1-.11-.29.47a11.41,11.41,0,0,0,5.32,2.79c.62.11,1.61.29,1.75,2.55a23.22,23.22,0,0,1-.07,3.91c0,.21-.14.29-.33,0A5.69,5.69,0,0,0,77,107.25a.69.69,0,0,0-.84.07,6.79,6.79,0,0,0-.91.87Z"/><path class="cls-3" d="M70.25,115.87a12.19,12.19,0,0,1-2.26,0c-.35-.13-.57-.53-.33-.69s.86,0,1.4,0a7.28,7.28,0,0,1,1.32,0c.14.09.35,0,.35.73Z"/><path class="cls-3" d="M66.28,125.85c-.48-.29-1-1.64-1.13-4.33a9.75,9.75,0,0,1,.62-3.16c.29-.7-.18-.44-.29-.18a9.69,9.69,0,0,0-.58,2,9.91,9.91,0,0,0,0,3.52,22.48,22.48,0,0,0,.51,2.44Z"/><path class="cls-5" d="M83,39c.5.06,1,0,1.17-.32a.49.49,0,0,0-.14-.64c-.14-.07-.24-.06-.17-.38s.31-.3.3-.8-.41-.53-.75-.42-.48.27-.81.69-.18-.29-.12-.41.18-1-.27-1.11l-.75.37c-.07.16-.14.35-.21.53-.18.47-.4.12-.56-.11h0c-.49.27-.92.53-1.24.7l-.11.07a1.59,1.59,0,0,0,.6.84c.24.16.09.46-.2.46s-.66-.19-1,.24-.13.86.21.86a.69.69,0,0,1,.77.52c.13.4.24.57.7.62a.92.92,0,0,0,.88-.55c.12-.22.29-.52.48-.45s.26.42.17.75c.34-.2.7-.39,1.07-.57a1.51,1.51,0,0,0-.38-.7C82.41,39.05,82.46,39,83,39Z"/><path class="cls-5" d="M87,33.76a2.19,2.19,0,0,0-.53.14c.09.41.26,1,.17,1a5.27,5.27,0,0,1-.86.25c-.33.09-1.11.82-.7,1.34a3.42,3.42,0,0,1,.6,1.11.69.69,0,0,0,1,.26.74.74,0,0,0,.23-.2c.45-.55.8-1.15.91-.77a4.78,4.78,0,0,1,0,1.51l.29,0A7,7,0,0,0,87,33.76Z"/><path class="cls-5" d="M77,43.52c-.25-.2-.32-.51,0-.6a9.51,9.51,0,0,0,1.48-.49c.76-.33.37-.89,0-1s-.38-.48-.34-.83-.06-.85-.7-.6-.43.92-.64,1.13-.3.15-.27-.18a.7.7,0,0,0-.42-.62,2.7,2.7,0,0,0-.64-.14,14.6,14.6,0,0,0-1.83,1.94,1.14,1.14,0,0,0,.51.51.52.52,0,0,1,.43.55c0,.31-.7.33-1.17.34a5.73,5.73,0,0,0,1.12,2l.41-.16c.57-.24.75-1.09.84-1.34s.33-.21.5.12a1.61,1.61,0,0,1,.17.65c.32-.32.63-.62.94-.9A3.09,3.09,0,0,0,77,43.52Z"/><path class="cls-5" d="M86.69,65.24c.11,0-.18-1.3.06-1.39s.34.69.85.62.64-.6.57-1.17.26-.26.51-.65-.3-.95-.91-.57-.51-.12-.18-.33.09-.92-.6-.69c-.51.17-.76-.16-1-.29l-.55.23a1.06,1.06,0,0,0,0,.5c.06.23.17.83-.22.58s-.78-.35-.9.07.12.46.09.7-.7.31-.39.84.76.23,1.08,0,.6,0,.49.31a5.52,5.52,0,0,0-.27,1.39l.46.32A1.85,1.85,0,0,1,86.69,65.24Z"/><path class="cls-5" d="M76.76,64c.27-.07.8.49,1.27.16s-.2-.65-.1-.92.3-.81,0-1.06-.7,0-1,.37-.22-.35,0-.66a.49.49,0,0,0-.4-.75c-.4,0-.53.5-.81.24-.43-.4-1.11-.24-1,.33s.35.75,0,.81-.7-.83-1.07-.1.24.94.18,1.49.17,1.12.49,1.18.7-.31.86-.53.62-.38.56,0,0,.89-.06,1.23c.7-.32,1.4-.66,1.78-.8h0a3.48,3.48,0,0,1-.69-.36C76.43,64.39,76.49,64.06,76.76,64Z"/><path class="cls-5" d="M68.71,80.55c.83-.26.87.4.76.94a11.78,11.78,0,0,0-.07,2.3l1.4.07a13.89,13.89,0,0,1,0-2c0-.61.66-1.56.88-.61s1.16,1,1.82.58a6.85,6.85,0,0,0,1.83-2.51c.69-1.25-.22-1.57-.77-1.49s-1.09.14.14-.88-.78-1.39-1.67-1.59c-1.47,1.54-3.28,3.27-4.9,4.65-.21.17-.4.34-.58.51A1.42,1.42,0,0,0,68.71,80.55Z"/><path class="cls-5" d="M67.22,89.69c.7-.22,1.14,1.27,2.16.4s.29-1.6.26-2.32.79-1,.54-1.93c-.39-1.4-1.68-.07-2.48.69s-.84.15,0-1.08-.51-1.64-1.31-1.31a1.7,1.7,0,0,1-1.78-.37,14.62,14.62,0,0,0-.77,1.4c-.7,1.39-.22,1.45.29,1.45s1.6,2.15,1.75,2.55a14.54,14.54,0,0,0,.92,1.39A.75.75,0,0,1,67.22,89.69Z"/><path class="cls-5" d="M87.17,75.39c-.66-.14-1.51-.26-1.61,1.09a1.31,1.31,0,0,0,1,1.09c.48.18.4.51-.11.33s-.91-.3-1.27.76.28,1.2.61,1.27.59.15.51.59-.29,1.71.55,1.81,1.57-.91,1.82-1.39.55-1,.62-.44A2.39,2.39,0,0,1,88.91,82c-.29.66-.29,1,.15.92s1.17,0,1.4-.51a7.92,7.92,0,0,0,.59-2.18c0-.44.4-.49.7-.46.09-.74.19-1.46.3-2.09-1.4.21-2.65-1.53-3.07-3A2,2,0,0,1,87.17,75.39Z"/><path class="cls-5" d="M80.35,75.13c-.26.44-1,1.68-.66,2.1s.7-.4,1-.12.94.63.94.41a10.31,10.31,0,0,1,.19-1.24c.11-.58.36-.91.62-.43A1.18,1.18,0,0,0,84,76.5c.91-.22.8-1.16.61-1.85s.48-1,.81-1.2,1.16-.84.55-1.4-1.17.26-1.72.37-.33-.37.8-1.24c1-.75.16-1.5-.43-1.76-1.57,1.57-4.35,4.12-5,4.71a3.27,3.27,0,0,0-.58.75C80.51,74.14,80.59,74.72,80.35,75.13Z"/><path class="cls-5" d="M89.39,89.75c.48.44,1.6,1,2.4.33s-.18-1.53-.29-2.1.59-.94.22-1.89c-.63-1.65-1.57.33-2.09.87s-.46-.38,0-.87c.26-.25,1.4-.94.7-1.71a1.54,1.54,0,0,0-2.1,0c-.49.33-.84.7-1.57.51s-1.35-.29-1.78.77.4.76,1.09,1.52.26.8-.29.62-.8-.88-1.6-.76-.81,1.39-.55,1.7.76.51.4,1.13.18,1.35.84,1.64,1.64-.88,2-1.35.69-.36.65,0A12.41,12.41,0,0,0,87.17,92c.56-.19,1.11-.35,1.63-.49a6.58,6.58,0,0,0-.24-1.59C88.4,89.09,88.91,89.32,89.39,89.75Z"/><path class="cls-5" d="M79.89,93.64c-.87.26-1-.15-1.6-.36s-.62.29-.22.9.83,1.2.36,1.2-.83.08-.91.44-.84-.07-1-.84-.36-2.21-.76-1.49S75,95.42,74,94.89s-.33-1.27-.84-1.78A1.61,1.61,0,0,1,72.63,91c.51-.93,1-.15,1.4-.15s.55-.44.11-.77-1-1.89,1-1.77a3.72,3.72,0,0,0,2.26-.7c.65-.48,2.37-.22,1.68,1s-.48,1.46-.08,1,.91-1.23,1.68-1,.44.81,0,1.46a.84.84,0,0,0,0,1.2.65.65,0,0,0,.18.15C81.29,91.67,81.93,93.05,79.89,93.64Z"/><path class="cls-5" d="M83.63,85.06a6,6,0,0,1-1.46-.15,8,8,0,0,1-1.4,2.7c-.07.1-.47.1-.66,0s-.7-.4-.29-.84,1.06-1.35,1-1.74-.4-.77-.84-.22S78.8,86.44,78,86.48s-1.53-.66-1.17-1.35.48-1,0-1.67-.33-1.4.76-1.89a1.46,1.46,0,0,1,1.31.33c.4.33.62,0,.07-.33a1.83,1.83,0,0,1-1-1.46c-.07-.69.36-1.39,1.31-1a1.68,1.68,0,0,0,1.93-.25c.4-.32,2.1-.74,1.86.76-.18,1.1-.7,1.13-.84,1.71s.29.22.55-.21.83-2.23,2-.88c.29.33.19.88-.19,1.5a1,1,0,0,0,.15,1.3C84.94,83.35,85.48,85,83.63,85.06Z"/><path class="cls-3" d="M75.3,122.65c.24-.11.56-.25.7-.15s1,.7,1.56,1.2.7.62.3.87-.84.51-.77.3A.73.73,0,0,0,77,124c-.29-.29-1-.84-1.31-1.09Z"/><path class="cls-3" d="M73.24,123.25a.43.43,0,0,0,0,.61s0,0,0,0c.22.22,1.44,1.24,1.64,1.44a.85.85,0,0,0,.82.2c.33-.07-.38.4-.65.46a.92.92,0,0,1-.88-.23l-2.26-2.09c-.32-.31.1-.31.38-.35Z"/><path class="cls-3" d="M71.2,113.94c.11.34.15.64-.36.57s-2.67-.28-3.29-.28c-.14,0-.09-.36-.31-.21s-.12.47-.12.83v.84c0,.38.26.91,1.24,1a4.7,4.7,0,0,0,2.2-.25c.3-.2,0-.53-.29-.53a12.19,12.19,0,0,1-2.26,0c-.35-.13-.57-.53-.33-.69s.86,0,1.4,0a7.28,7.28,0,0,1,1.32,0c.14.09.35,0,.35.73,0,.15.34.21.51.21s.23.27.21.63,0,.44-.63.44h-3.9c-.17,0-.18-.13-.21-.45s-.12-2.6-.16-2.79.44-.2.82-.13a12.2,12.2,0,0,0,1.48.18,14.49,14.49,0,0,1,1.56.13s.48.06.53-.09S71.16,113.84,71.2,113.94Z"/><path class="cls-3" d="M81.2,36.56c.07-.18.13-.37.21-.53-.27.14-.53.28-.76.42C80.81,36.7,81,37,81.2,36.56Z"/><path class="cls-3" d="M87.78,36.92c-.1-.38-.45.22-.91.77a.7.7,0,0,1-1,.17.66.66,0,0,1-.21-.23,3.24,3.24,0,0,0-.6-1.11c-.4-.52.38-1.25.7-1.34a5.27,5.27,0,0,0,.86-.25c.09-.08-.08-.62-.16-1a28.93,28.93,0,0,0-4.32,1.75c.43.17.3,1,.25,1.12s-.2.86.13.42.45-.6.8-.7.7-.09.75.42-.23.47-.3.8,0,.31.17.38.27.3.14.64-.7.38-1.17.33-.54,0-.37.18a1.58,1.58,0,0,1,.37.7,20.14,20.14,0,0,1,4.84-1.51A4.72,4.72,0,0,0,87.78,36.92Z"/><path class="cls-3" d="M76.27,44.1c-.17-.33-.41-.38-.5-.12s-.27,1.1-.84,1.34c-.18.08-.32.12-.42.16a4.35,4.35,0,0,0,.7.57c.44-.47.86-.9,1.26-1.3A1.64,1.64,0,0,0,76.27,44.1Z"/><path class="cls-3" d="M81.71,39.76c-.19-.07-.36.23-.48.45a.92.92,0,0,1-.88.53c-.47-.05-.59-.22-.7-.62a.69.69,0,0,0-.77-.52c-.34,0-.58-.42-.21-.86s.7-.24,1-.24.44-.3.2-.46a1.69,1.69,0,0,1-.58-.79,31.83,31.83,0,0,0-3.83,2.9,2.38,2.38,0,0,1,.64.15.69.69,0,0,1,.41.62c0,.33.08.4.28.18s0-.87.63-1.13.77.26.7.6a.66.66,0,0,0,.35.83c.34.12.74.69,0,1a10.11,10.11,0,0,1-1.5.49c-.31.09-.24.4,0,.6a2.82,2.82,0,0,1,.36.33,24.69,24.69,0,0,1,2.9-2.31l1.62-1C82,40.19,82,39.86,81.71,39.76Z"/><path class="cls-3" d="M74.57,43.16a.52.52,0,0,0-.43-.55,1.2,1.2,0,0,1-.5-.52,7.78,7.78,0,0,0-.47.7c.08.24.16.47.23.7C73.86,43.49,74.56,43.46,74.57,43.16Z"/><path class="cls-3" d="M90,60.12a9.79,9.79,0,0,0-4,.69c.24.14.49.46,1,.3.69-.24.93.48.6.69s-.44.7.18.33,1.16.17.91.57-.58.09-.51.65-.06,1.08-.57,1.17-.61-.7-.85-.62,0,1.34-.06,1.39a1.83,1.83,0,0,0-.88.56h0c2,1.43,2.52.65,2.8,0A25.34,25.34,0,0,0,89.77,62,6.21,6.21,0,0,0,90,60.12Z"/><path class="cls-3" d="M85.62,64.08c.11-.27-.19-.51-.49-.31s-.77.49-1.08,0,.34-.58.38-.84-.22-.28-.09-.69.58-.3.91-.08.27-.35.22-.58a1.35,1.35,0,0,1,0-.49,8.37,8.37,0,0,0-1.15.6c-1.87,1.14-1.93,2.09-1.49,2.47s1.19.47,2.55,1.39A5.72,5.72,0,0,1,85.62,64.08Z"/><path class="cls-3" d="M79.66,63a5.09,5.09,0,0,1-2-2.22s0-.14-.19-.14a8.43,8.43,0,0,1-2.37-.55c-1.34-.47-1.52-.18-1.71.4A13.58,13.58,0,0,0,73,63.9c0,1.75.74,2.83,1.21,2.65.23-.09.83-.38,1.46-.7a6.79,6.79,0,0,1,.07-1.22c0-.42-.38-.26-.57,0s-.52.58-.85.53-.55-.64-.49-1.18-.59-.77-.18-1.49.7.18,1.07.1.16-.25,0-.82.51-.73,1-.32c.27.25.4-.31.8-.24s.64.35.4.75-.31,1,0,.65.7-.62,1-.36.11.78,0,1,.58.6.1.93S77,64,76.7,64s-.33.4,0,.65a3.6,3.6,0,0,0,.7.37,11.53,11.53,0,0,0,1.94-.93h.47C79.89,63.5,79.89,63.1,79.66,63Z"/><path class="cls-3" d="M77,71c-.29-.66-.4-.15-1.2,1.13A28.74,28.74,0,0,1,73,75.32c.89.18,2.79.65,1.68,1.59s-.7,1-.15.88,1.46.25.77,1.49a7,7,0,0,1-1.83,2.51c-.65.41-1.6.36-1.81-.58s-.84,0-.88.61a12.64,12.64,0,0,0,0,2l-1.4-.07a13.58,13.58,0,0,1,.07-2.3c.11-.54.08-1.2-.76-.94a1.41,1.41,0,0,1-1.12-.08,15,15,0,0,0-3,3.32,1.71,1.71,0,0,0,1.79.36c.8-.33,2.09.07,1.31,1.31s-.76,1.85,0,1.09,2.1-2.09,2.49-.7c.25.91-.59,1.2-.55,1.93s.76,1.45-.26,2.32-1.46-.62-2.15-.39a.75.75,0,0,0-.48.85c.91,1.28,2.23,3.09,2.7,3.87.7,1.2.7,2.65,1,2.44s1-.87,1.21-1.06A.68.68,0,0,0,72,95a15.2,15.2,0,0,1-.4-4,13.05,13.05,0,0,1,1.53-4.66c.56-1,2.25-4.32,2.66-5.2a18,18,0,0,0,1.31-2.68c.19-.8.88-2.65,1.16-3.49A15.43,15.43,0,0,0,77,71Z"/><path class="cls-3" d="M82.43,62.88c-.23.58-.51,1.31-.66,1.67s-.82.22-.77,0c.11-.54-.7-.18-.58-.61s-.07-.95.33-.95S81.92,62.88,82.43,62.88Z"/><path class="cls-3" d="M81.2,36.56c.07-.18.13-.37.21-.53-.27.14-.53.28-.76.42C80.81,36.7,81,37,81.2,36.56Z"/><path class="cls-3" d="M92.85,87.13a7,7,0,0,1-1.27-3.78,18.73,18.73,0,0,1,.13-3.59c-.28,0-.66,0-.7.46a7.89,7.89,0,0,1-.59,2.19c-.21.51-.94.46-1.39.51s-.44-.26-.15-.92a2.45,2.45,0,0,0,.33-1.52c-.08-.58-.37-.07-.62.43s-1,1.53-1.82,1.4-.62-1.4-.55-1.81-.19-.51-.51-.59-1-.22-.62-1.27.76-1,1.27-.77.59-.14.12-.32-1-.58-1-1.09c.1-1.35,1-1.23,1.61-1.1a2.1,2.1,0,0,0,1.78-.69v-.11c-1-3.7.87-8.25,1.4-9.52a63.44,63.44,0,0,1,3.15-5.93l-1.86-.94c-.53-.27-.82-.4-1-.2s-.32.31-.58.7c-.51.73-.07.62.07.62s.77.8.88,1,0,.33-.25.91c-.34.76-.55,2.51-.84,3.56C89,67.93,87.65,67.61,87,67.21s-.81.22-1.4,1.09a11.65,11.65,0,0,1-1,1.1c.6.27,1.4,1,.43,1.77-1.13.88-1.35,1.35-.8,1.24s1.09-.94,1.71-.36-.22,1.24-.55,1.39-1,.51-.8,1.2.29,1.63-.62,1.85a1.18,1.18,0,0,1-1.53-.65c-.26-.48-.51-.15-.62.43a8.62,8.62,0,0,0-.18,1.24c0,.22-.66-.11-.94-.4s-.66.51-1,.11.4-1.64.66-2.09.14-1-1.32-.32a21.17,21.17,0,0,0-1.4,3.7,39.28,39.28,0,0,1-3.37,7,12.07,12.07,0,0,0-2.1,8c.27,1.85.55,1.71.94,1.71s1.4,1.23,2,2,.91.43,1.24.18a35.17,35.17,0,0,1,6.16-3.6A39.84,39.84,0,0,1,87.22,92a12.44,12.44,0,0,1,.25-1.82c.07-.37-.29-.47-.65,0s-1.34,1.63-2,1.34-1.2-1-.84-1.63-.14-.8-.39-1.13-.26-1.6.54-1.71,1.06.59,1.6.77,1,.14.29-.62-1.53-.48-1.09-1.53,1.06-1,1.79-.77,1.09-.18,1.56-.5a1.55,1.55,0,0,1,2.1,0c.7.76-.48,1.45-.7,1.7-.49.5-.58,1.4,0,.88s1.48-2.52,2.1-.88c.36,1-.33,1.31-.23,1.9s1.1,1.39.3,2.09-1.93.11-2.41-.33-1-.65-.77.15a6.59,6.59,0,0,1,.25,1.59,13.17,13.17,0,0,1,3.69-.64c1,.09,1.82.4,1.79-.55S93.8,88.7,92.85,87.13Zm-13,6.51c-.87.26-1-.15-1.6-.36s-.62.29-.22.9.83,1.2.36,1.2-.83.08-.91.44-.84-.07-1-.84-.36-2.21-.76-1.49S75,95.42,74,94.89s-.33-1.27-.84-1.78A1.61,1.61,0,0,1,72.63,91c.51-.93,1-.15,1.4-.15s.55-.44.11-.77-1-1.89,1-1.77a3.72,3.72,0,0,0,2.26-.7c.65-.48,2.37-.22,1.68,1s-.48,1.46-.08,1,.91-1.23,1.68-1,.44.81,0,1.46a.84.84,0,0,0,0,1.2.65.65,0,0,0,.18.15C81.29,91.67,81.93,93.05,79.89,93.64Zm3.72-8.58a6,6,0,0,1-1.46-.15,8,8,0,0,1-1.4,2.7c-.07.1-.48.1-.66,0s-.7-.4-.29-.84,1.06-1.35,1-1.74-.4-.77-.84-.22S78.78,86.44,78,86.48s-1.53-.66-1.17-1.35.47-1,0-1.67-.32-1.4.77-1.89a1.46,1.46,0,0,1,1.31.33c.4.33.62,0,.07-.33a1.86,1.86,0,0,1-1.06-1.46c-.07-.69.37-1.39,1.32-1a1.68,1.68,0,0,0,1.93-.25c.4-.32,2.1-.74,1.86.76-.18,1.1-.7,1.13-.84,1.71s.29.22.54-.21.84-2.23,2.05-.88c.29.33.18.88-.19,1.5a1,1,0,0,0,.15,1.3c.22.33.76,1.94-1.09,2Z"/></g></svg>