<?xml version="1.0" encoding="utf-8"?>
<!-- Generator: Adobe Illustrator 25.2.1, SVG Export Plug-In . SVG Version: 6.00 Build 0)  -->
<svg version="1.1" id="Layer_1" xmlns="http://www.w3.org/2000/svg" xmlns:xlink="http://www.w3.org/1999/xlink" x="0px" y="0px"
	 viewBox="0 0 656 656" style="enable-background:new 0 0 656 656;" xml:space="preserve">
<style type="text/css">
	.st0{fill:#010101;}
	.st1{fill:#FFFFFF;stroke:#FFFFFF;stroke-width:0.2994;}
	.st2{stroke:#000000;stroke-width:0.2994;}
	.st3{fill:#FFFFFF;stroke:#000000;stroke-width:0.3195;}
	.st4{fill:none;stroke:#000000;stroke-width:0.3195;}
	.st5{fill:#FFFFFF;stroke:#FFFFFF;stroke-width:0.3195;}
	.st6{fill:#FFFFFF;}
	.st7{stroke:#000000;stroke-width:0.3195;}
</style>
<g id="Color_bubbles">
	<circle class="st0" cx="328" cy="328" r="326.6"/>
</g>
<g>
	<path class="st1" d="M123.8,177.7c-1.7,107.6,26.1,186.4,51.7,233.2c28.9,52.7,95,123.3,153.1,142c79.1-27.4,150.2-121.7,174-190.1
		c23.2-66.6,29.5-106.7,29.7-185.5C406.7,119.4,233.2,122.3,123.8,177.7z M497.8,361.8c-23.1,66.4-92.2,158-168.9,184.6
		c-56.5-18.2-120.6-86.7-148.7-137.9c-24.9-45.4-51.9-121.9-50.2-226.4c106.2-53.8,274.7-56.6,396.6-0.4
		C526.4,258.3,520.3,297.2,497.8,361.8z"/>
	<path class="st2" d="M129.8,182.1c-1.7,104.4,25.3,181,50.2,226.4c28.1,51.2,92.2,119.7,148.7,137.9
		c76.8-26.6,145.8-118.2,168.9-184.6c22.5-64.6,28.6-103.5,28.9-180.1C404.5,125.5,236.1,128.3,129.8,182.1z"/>
	<path id="path3825_1_" class="st3" d="M158.8,323.5l0.1-132.6c0,0-0.5-1.4,1.9-2.3c2.3-0.9,18-6.7,18-6.7s2-0.7,2.5,0.4
		c0.5,1.1,40.1,100.9,40.1,100.9l-0.8-110.9c0,0-0.1-2,1.9-2.5s13.8-3,13.8-3s1.7-0.3,1.7,1.6c0,1.9-0.2,133-0.2,133s-0.2,2.3-2,2.6
		c-1.8,0.4-19.3,4.5-19.3,4.5c0.1,0-2.1,0.5-2.9-1.3c-0.7-1.9-38.9-99.2-38.9-99.2s0.6,110.4,0.5,110.5c-0.1,0.1,0.2,1.8-1.5,2.5
		s-12.9,4.5-12.9,4.5S158.8,325.4,158.8,323.5L158.8,323.5z"/>
	<path id="path3829_1_" class="st3" d="M252.4,165.5c0,0-0.7-1.9,2.7-2.3c3.4-0.4,21.2-4.5,66.6-5.7c0,0,3.1-0.7,3.1,1.5
		s0,8.8,0,9.4c0,0.5-0.2,2.1-1.9,2.1s-32.1-0.1-52.3,4l-0.1,46.1c0,0,14.1-3,43-3.3c0,0,1.6-1,1.6,1.5s0,9,0,9s0.2,2.6-1.9,2.3
		s-33.3,1-42.9,3.3l-0.1,52.1c0,0,16.9-3,52.3-3.8c0,0,2.3-0.7,2.3,2c0,2.6,0,8.3,0,8.3s0.6,2.6-2.3,2.6c-2.8,0-42,0.7-67.3,5.7
		c0,0-2.6,0.4-2.6-1.4L252.4,165.5z"/>
	<path id="path2996_1_" class="st3" d="M367.4,293.8l-0.1-121.9c0,0-18.7-2-31.8-1.5c0,0-1.8,0.2-1.8-1.7s0-9.8,0-9.8
		s-0.5-1.6,1.7-1.5c2.4,0.1,44.3,0.4,82.2,7.6c0,0,2,0.4,2,2s0,9.3,0,9.3s-0.3,2.5-2.2,2.1s-15.6-3-32-4.8v121.3
		c0,0,0.5,2.4-1.7,2.2l-14.1-1.1C369.6,295.8,367.5,296,367.4,293.8L367.4,293.8z"/>
	<path id="path3009_1_" class="st3" d="M484,225.3c0,0-1.6-0.9-1.5-2.1c0.1-1.2,0.1-18,0.1-18s-0.3-9.2-11.9-15.5
		c0,0-7.6-4.8-19.9-4.4c-0.5,0.1-7.4,0.3-7.8,10.3c0,0-0.6,11.8,4.3,18.3c0,0,7.7,10.2,17.3,19.8l15.7,16.4c0,0,13.7,14.2,17.8,22.6
		c0,0,4.1,6.1,4.5,21.4c0,0,1.8,22.5-16.3,23.4c0,0-13.6,2.7-39.6-8.2c0,0-24.1-8.5-26.1-31.1l-0.2-21c0,0-0.1-2.1,2-2l14.3,2.7
		c0,0,1.6,0,1.6,2.1l0.1,20.2c0,0,0.7,18.5,33.4,23.4c0,0,13.1,2.9,12.9-9.5l0.1-10.6c0,0-0.3-9.9-14.7-24.1L438.5,228
		c0,0-11.3-11.2-13.4-26.1c0,0-1-14.2,3.9-22.2c0,0,10.6-18.4,48.6-0.4c0,0,19.4,7.4,21.7,26.8l1,22.5c0,0-0.2,2.3-2.2,1.9
		C496.2,230.2,484,225.3,484,225.3L484,225.3z"/>
	<path id="path2999_1_" class="st4" d="M317.1,357.9c0,0-0.7-0.2-0.7,0.8s0,42.2-0.1,42.2c0,0-0.1,0.7,0.7,0.7
		c0.8,0,10.6-0.1,10.6-0.1s11.2-1.5,11.2-11.4s0-22.8,0-22.8c0.3-10.5-8.8-9.4-11.6-9.5L317.1,357.9z"/>
	<path id="path3001_1_" class="st4" d="M317.1,416.4c0,0-0.7-0.1-0.7,0.8c0,0,0.1,52.1,0,52.1s0,0.9,1,0.9c1,0.1,15.2,0.2,15.2,0.2
		c1.3-0.7,11.7,1.8,11.8-14.7v-26.3c-0.3-2.2-1.2-13.4-18.6-13.1L317.1,416.4z"/>
	<path id="path3772_1_" class="st5" d="M300.1,319.4c-11.6,2.5-35.4,13.5-52.5,36.7c21.5-3.3,39.2,8.4,45.7,11.2l0.1,6.9
		c-22.5-11.5-35.9-12.7-49-12.6c-4.8,4.4-15.4,31.2-14.1,56.9c3.6,2.2,6.5,17.2,62.9,30.3l-0.1,8.4c0,0-41.1-4.4-62.1-31.9
		c2.4,23.7,21.1,62.8,56.5,74.7c31.1,4.4,49.4-5.8,77.4-19.7c30.4-16.1,30.1-17.1,40-21.8c2.5-9.7,2.9-17.6,2.9-17.6
		c-16.8,8.4-40.5,13-40.5,13l-0.1-6.9c20.6-3.8,41-13.3,41-13.3c0.2-12.9-1.3-20.9-1.3-20.9c-14.7,8.8-40.2-0.4-44.1-1.3
		c-3.1-5.1-4.4-4.9-4.4-4.9c3.2-4.1,2.3-5.6,2.3-5.6c12.2,6.4,32.2,10,44.4,4.4C391,348.3,340.4,313.8,300.1,319.4L300.1,319.4z"/>
	<path id="path3002_1_" class="st6" d="M295.5,504.7c13.7,10,91.4,13.1,107.5-39.4C368.3,487,335.5,510.5,295.5,504.7L295.5,504.7z"
		/>
	<path id="path3003_1_" class="st6" d="M400,479.3c0,0,12.9-14.5,13.3-19.7c-1.1-1-3,0.7-4.4,1.6C409.8,461.6,404.2,472.6,400,479.3
		z"/>
	<path id="path3010_1_" class="st6" d="M414.5,437c-0.1,2.4,0.5,3.6-3.4,18.8c2.6-0.8,2.9-0.9,4.9,1.1c6.6-11.6,8.7-24.5,9.3-31.7
		C420.4,434.5,414.5,437,414.5,437L414.5,437z"/>
	<path id="path2998_1_" class="st7" d="M300.3,346.7c0.1,45.2,0.1,90.4,0.2,135.6c1.9,5.2,9.4,1.7,13.8,2.7
		c8.2-0.2,16.4,0.3,24.5-0.4c10.5-1.6,20.2-10.1,20.7-21.1c0.1-13.1,0.1-26.1,0-39.2c-0.9-7.3-6.2-14.1-13.2-16.5
		c7-3.8,9.1-12.3,8.5-19.7c-0.2-8.6,0.3-17.3-0.5-25.9c-0.7-7.8-5.7-15.7-13.7-17.6c-6.8-1.8-14-0.8-21-1
		c-5.8,0.1-11.6-0.1-17.4,0.2C300.9,344.1,300.2,345.5,300.3,346.7L300.3,346.7z"/>
	<path id="path3777_1_" class="st3" d="M316.9,357.9c0,0-0.6,0.1-0.6,0.7s0.1,42.2,0.1,42.2s-0.1,0.6,0.7,0.5c0.7-0.1,10.6,0,10.6,0
		s11.2-0.1,11.2-11.9l0.1-23.3c0,0,0.9-8.2-8.8-8.2L316.9,357.9z"/>
	<path id="path3779_1_" class="st3" d="M316.4,416.2l-0.1,53.3c0,0-0.1,0.9,1.3,0.9c1.3,0,15.8-0.1,15.8-0.1s10.8,1.3,10.7-14.1
		l-0.1-28.3c0,0-1.2-11.9-17.6-11.8L316.4,416.2z"/>
	<path id="path3793_1_" class="st6" d="M422.7,388.5c4.6,10,3.5,25.7,3.5,25.7c-3.1,8.4-6.9,13.3-11.9,16.5
		c0.1-14.6-2.3-22.3-2.3-22.3C421,400.6,422.7,388.5,422.7,388.5L422.7,388.5z"/>
	<path id="path3795_1_" class="st5" d="M417.1,376.7c-6.4-32.5-50.9-66.5-98.2-61.6c56.9,6,84,61.2,91.4,85.4
		C418.2,396.5,417.1,376.7,417.1,376.7L417.1,376.7z"/>
</g>
</svg>
