<svg xmlns="http://www.w3.org/2000/svg" viewBox="0 0 164 164"><defs><style>.cls-1{fill:#bb0432;}.cls-2{fill:none;stroke:#fff;stroke-miterlimit:10;stroke-width:0.62px;}.cls-3{fill:#fff;}</style></defs><g id="Color_bubbles" data-name="Color bubbles"><circle class="cls-1" cx="82" cy="82" r="82"/></g><g id="Logos"><path class="cls-2" d="M131.31,57.58c-.4-6.82-3.49-12.94-5.33-16.6l-.22-.44L125,39l.16,1.77c.23,2.45.78,10.8-1.74,15.53-3.12,6.42-12.31,5.8-15.33,5.59h-.22c-5-.32-21.09-.89-26-.87-6.54,0-13.75.55-19.54,1-2.84.21-5.28.39-6.94.45l-.6.05c-8.16.74-13.29-1.63-15.29-7.05-1.23-3.33-1.19-9.9-1.18-13.06V40.07l-.63,1.16a41.94,41.94,0,0,0-5.29,16.61C31.77,68,37.1,71.65,41.16,73.51a28.79,28.79,0,0,0,10,2.32h.06a8.11,8.11,0,0,0,1,.09,10.87,10.87,0,0,1,1.4.13c-.77.15-1.78.32-2.64.47s-1.84.31-2.3.41c-1,.2-5.05,1.15-7.26,1.89-1.89.62-3.91,1.58-3.93,1.58l-.37.18.24.33a14.69,14.69,0,0,0,1.41,1.64A13.38,13.38,0,0,0,49,85.85a19.93,19.93,0,0,0,6.74-1.78c.25.82.85,2.73,1.45,4.21,1.75,4.29,5.71,12.45,7.2,15.28,1.21,2.3,2.41,4.34,3.21,5.69l.28.48a4,4,0,0,1-1.32,1.83l-.32.29-.09.09v.13c0,.79-.23,7.88,4.65,13.06l.06.05H71A28.21,28.21,0,0,0,81.69,127a30.06,30.06,0,0,0,11.13-2h.06l.05-.06a23.54,23.54,0,0,0,5-12.14v-.14l-.1-.1-.27-.26A4.75,4.75,0,0,1,96,109.78c.41-.7,1.22-2.38,1.88-3.75.37-.76.67-1.42.87-1.76,1.44-2.77,5.64-11.7,7.32-15.91,1.05-2.66,1.64-4,1.9-4.57a17.65,17.65,0,0,0,6.48,1.65A13.63,13.63,0,0,0,125.28,81c.21-.3.58-.73.58-.73l.29-.34-.41-.18s-.19-.08-.91-.33l-2.7-.89-2.71-.89c-.73-.25-4-1-6.42-1.47l-1.82-.4.59-.1C117.32,74.66,132.11,72.07,131.31,57.58Z"/><path class="cls-3" d="M33.58,54.65a47.45,47.45,0,0,1,4-11.75h0v0h.18v.08c0,1.12-.09,2.26-.09,3.41h0a33.6,33.6,0,0,0,.83,8.06h0l.06.24-.19-.17c-.79-.71-1.61-1.5-2.45-2.24h0c-.74.81-1.45,1.7-2.19,2.48h0l-.18.19.05-.26Z"/><path class="cls-3" d="M129.84,53h0a53.56,53.56,0,0,0-3.79-10.27l-.15,0c.08,1.11.11,2.22.11,3.32a47.26,47.26,0,0,1-.66,7.88v.15l.14-.06c.86-.41,1.68-1,2.56-1.34l2.13,1.52Z"/><path class="cls-3" d="M71.27,124.58h0c-3-3.3-4.2-7.56-4.36-12.06h0v0h0a25.46,25.46,0,0,1,14.65-4.42h0a24.13,24.13,0,0,1,9.91,2h0A24.23,24.23,0,0,1,97,113.17h0l0,.06,0-.06h0v0a21.29,21.29,0,0,1-4.74,11.28h0a30.56,30.56,0,0,1-10.79,1.91h0a26.39,26.39,0,0,1-10.13-1.87Zm13.41-10.31a3.14,3.14,0,0,0-.43,1.64h0a4.27,4.27,0,0,0,.89,2.61h0a.14.14,0,0,0,.13.06h0a.23.23,0,0,0,.18-.08h0v0h0c0-.55-.36-1-.36-1.64h0a1.29,1.29,0,0,1,.07-.43h0l0-.17.1.15a4.31,4.31,0,0,0,2.35,1.77h0a4.29,4.29,0,0,0,1.07.13h0a4.08,4.08,0,0,0,3.18-1.53h0a3.38,3.38,0,0,0,.66-1.86h0a2,2,0,0,0-.21-.91h0a4,4,0,0,0-2.94-2h0c-.2,0-.41,0-.61,0h0a4.57,4.57,0,0,0-4.15,2.33ZM78,118.92c.09,0,.21-.11.29-.24h0a4.79,4.79,0,0,0,.76-2.49h0a3.19,3.19,0,0,0-.44-1.65h0l.07,0-.07,0a4.24,4.24,0,0,0-2.36-1.92h0a5.23,5.23,0,0,0-1.62-.26h0a4.18,4.18,0,0,0-3.39,1.58h0a2.44,2.44,0,0,0-.47,1.45h0a2.73,2.73,0,0,0,.13.8h0a3.86,3.86,0,0,0,2.79,2.36h0a4.25,4.25,0,0,0,.8.07h0A4.37,4.37,0,0,0,78,116.74h0l.08-.12.06.14a1.19,1.19,0,0,1,0,.33h0a5.4,5.4,0,0,1-.08.69h0c0,.35-.33.62-.31.87h0a.36.36,0,0,0,.09.24h0a.15.15,0,0,0,.11,0Zm-6.39,4.61a27.75,27.75,0,0,1,10.42-2h0a22.72,22.72,0,0,1,8,1.31h0a18.33,18.33,0,0,0,1.89.65h0a3.47,3.47,0,0,0,.34-.42h0a23.48,23.48,0,0,0-10.08-2.14h0a27.44,27.44,0,0,0-10.8,2.19h0a1.22,1.22,0,0,0,.26.38ZM74.28,101a9.32,9.32,0,0,0,7.41,3.27h0a12.82,12.82,0,0,0,3.08-.4h0c4.69-1.31,7.52-6.34,8.49-10.76h0a1.08,1.08,0,0,0-.43-.21h0a18.66,18.66,0,0,1-3.38,7.31h0a10.17,10.17,0,0,1-7.8,3.61h0a10,10,0,0,1-3-.47h0c-4.3-1.3-6.52-6-6.94-10.19h0a.75.75,0,0,0-.44.1h0a13.88,13.88,0,0,0,3,7.73Z"/><path class="cls-3" d="M95.14,90.43,95,90.5a18.41,18.41,0,0,1-3.76,1.31,10.94,10.94,0,0,1-2.55.33,7.83,7.83,0,0,1-6.76-3.47l0-.07-.07.06c-.31.28-.51.62-.84.91a8.45,8.45,0,0,1-6.57,2.61,14.89,14.89,0,0,1-5.51-1.11L68.7,91l.06.17a29.77,29.77,0,0,1,2,10.59,23.74,23.74,0,0,1-.48,4.9c-.23,1.14-.61,2.31-.92,3.42l0,.17.16-.08a26.55,26.55,0,0,1,12.16-2.79,26.07,26.07,0,0,1,11.53,2.53c.56.23,1.08.62,1.59.77l.15.06,0-.15a28.2,28.2,0,0,1-1.57-9.18v-.73a32.18,32.18,0,0,1,1.79-10.09Z"/><path class="cls-3" d="M60.56,93.83a3.43,3.43,0,0,1-.8-1.56h0v-.18l.15.1a3.8,3.8,0,0,0,2.05.57h0a7.73,7.73,0,0,0,4.19-1.53h.06l0,0h0l-.05.06.05-.06h0v0c-.15,1.49-.7,3.2-2.29,3.79h0a3.34,3.34,0,0,1-.7.08h0a3.89,3.89,0,0,1-2.73-1.38Z"/><path class="cls-3" d="M98.13,93.26a4.18,4.18,0,0,1-.66-1.67h0l0-.2.2.11a4.54,4.54,0,0,0,2.82.9h0a6.49,6.49,0,0,0,3.38-1h0l.19-.12-.07.21a4.67,4.67,0,0,1-3.09,3h0a2.28,2.28,0,0,1-.37,0h0a2.77,2.77,0,0,1-2.34-1.31Z"/><path class="cls-3" d="M100,95.24a2.67,2.67,0,0,0,.56.06h0a5.35,5.35,0,0,0,1.63-.31h0l.16,0-.07.15c-2,4.91-4.38,9.65-6.85,14.37h0l-.08.16-.07-.17h0a12.37,12.37,0,0,1-.66-4.26h0c0-1.08.07-2.18.15-3.27h0a45.5,45.5,0,0,1,2.08-9.14h0l.05-.17.09.16a4.54,4.54,0,0,0,3,2.49h0"/><path class="cls-3" d="M68.64,109.47a99.79,99.79,0,0,1-7.46-14.13h0l-.1-.21.21.11a4.74,4.74,0,0,0,2.15.56h0a2.46,2.46,0,0,0,1.42-.39h0a5.47,5.47,0,0,0,1.9-2.77h0l.06-.17.09.17a25.52,25.52,0,0,1,2.44,11.27h0a28.34,28.34,0,0,1-.53,5.51h0l-.11.11,0-.09Z"/><path class="cls-3" d="M124.89,80.1l-2.37-.89a57.4,57.4,0,0,0-17.46-3.27c-.54-6.22-1.26-10.1-2.49-13.62v0h0c-2.91-.17-15.85-.68-20.82-.68s-17.67.77-20.58.94h-.07v.06a55.37,55.37,0,0,0-3.13,13.67,72.61,72.61,0,0,0-18.55,3.92,6.3,6.3,0,0,0-.84.37l-.21.11h0l-.16-.17,0,.28v0a12.28,12.28,0,0,0,9.12,4.46h.27a19.69,19.69,0,0,0,6.76-1.2c.49-.22,1.43-.61,1.69-.71a8.78,8.78,0,0,1,.52,1.12c.58,1.6,1.28,3.91,1.78,4.88a4.46,4.46,0,0,0,4,2.72h.08a4.43,4.43,0,0,0,3.24-1.72l.09-.12h-.14c-5-.25-7.05-2.87-7.39-6.83v-.07h-.06A4.13,4.13,0,0,1,56.92,83a.77.77,0,0,1-.42-.58,1.39,1.39,0,0,1,0-.41A3.25,3.25,0,0,1,57,80.4a2.41,2.41,0,0,1,2.09-1,6.34,6.34,0,0,1,1.73.3,10.68,10.68,0,0,1,3.67,2.24c1,.9,4,4,5.88,5.09a9.15,9.15,0,0,0,4.36,1.23,5.22,5.22,0,0,0,3.73-1.41,9.52,9.52,0,0,0,2.92-5.4v-.09h-.1a104.37,104.37,0,0,1-11.31-1c-.41-.06-.53-.22-.53-.37a.5.5,0,0,1,.52-.38h.2a110.87,110.87,0,0,0,11.22.9h.08v-.07c0-.53,0-1.47.07-2.52v-.06h-.07a73,73,0,0,1-11.71-1.22c-.39-.08-.53-.3-.53-.49s.13-.34.4-.34a.74.74,0,0,1,.26,0A90.57,90.57,0,0,0,81.52,77h.11V73.77h-.32a77.41,77.41,0,0,1-11.27-1c-.42-.06-.57-.26-.57-.41S69.62,72,70,72H70a91.11,91.11,0,0,0,11.19.93h.41V70.34h0c0-.48.22-.66.37-.66s.34.17.35.61v2.62h.08a84.84,84.84,0,0,0,10.91-1.07,1,1,0,0,1,.3,0c.39,0,.49.17.49.31a.4.4,0,0,1-.32.37,77.33,77.33,0,0,1-11.36,1.3h-.08v.08c0,.91,0,2.1,0,3.06V77h.08a64.65,64.65,0,0,0,11.07-1,1.54,1.54,0,0,1,.43,0c.4,0,.55.16.55.29s-.2.4-.7.48a87.89,87.89,0,0,1-11.33,1.17h-.07V78c0,.85,0,1.88.07,2.55v.07h.08A95.1,95.1,0,0,0,94.4,79.5h.18c.36,0,.52.19.52.37s-.15.38-.58.44c-1,.13-7.56,1-11.76,1.07h-.11v.1c.41,1.4.5,3.45,2.56,5.22a5.85,5.85,0,0,0,3.84,1.2,8.19,8.19,0,0,0,4-1.05c1.85-1.06,4.78-4.23,5.81-5.12.86-.75,2.82-2.55,5.46-2.55h.1a3.07,3.07,0,0,1,2.35.76,2.35,2.35,0,0,1,.47,1,1.52,1.52,0,0,1,.11.6.92.92,0,0,1-.43.85c-.46.28-.89.21-1.38.43h0v0c-.34,2.16-1,4.63-2.75,5.92a8.28,8.28,0,0,1-3.09,1.3,10.75,10.75,0,0,1-1.7.27h-.16l.11.12.54.57a3.73,3.73,0,0,0,2.31.7h.37a6.17,6.17,0,0,0,3.3-1.64,25.69,25.69,0,0,0,2.39-5.23c.22-.56.72-1.53.92-2,.51.23.81.39,1.78.78a18.88,18.88,0,0,0,6.31,1.15h.29A13.57,13.57,0,0,0,124,81.3c.34-.32,1-1.08,1-1.08l.07-.08Z"/><path class="cls-3" d="M39.39,57.32c2.45,4.7,7.42,6.21,12.46,6,2.83,0,5.54-.31,8.32-.49V63a61.71,61.71,0,0,0-2.92,12.12c-7.31.27-14.79-.3-20.19-5.13-3.66-3.67-4.59-8.71-3.8-13.71.88-1,1.77-1.88,2.68-2.9C37.14,54.61,39.06,55.59,39.39,57.32Z"/><path class="cls-3" d="M130.24,55.21a12.39,12.39,0,0,1,.28,2.18,14.26,14.26,0,0,1-6.87,13.51c-5.28,3.13-11.32,4.2-17.76,4.36-.11-.57-.17-1.31-.25-2a75.82,75.82,0,0,0-2.24-10.86c6.89-.08,15.28,1.72,19.81-4.54.61-.87,1.21-1.67,1.75-2.61,1-.46,2-1.1,3-1.63C128.78,54.1,129.41,54.76,130.24,55.21Z"/><path class="cls-3" d="M104.05,83.35c0,2.14-.66,4.34-2.59,5.36a5.83,5.83,0,0,1-3,.65,1.2,1.2,0,0,1,0-.65,4.36,4.36,0,0,0,3.92-1.81,6,6,0,0,0,.78-3.23A3.62,3.62,0,0,1,104.05,83.35Z"/><path class="cls-3" d="M65.15,89.14a1.74,1.74,0,0,1-1,0,5,5,0,0,1-5-5c0-.12,0-.25,0-.37a1.41,1.41,0,0,1,1,0c0,2,.78,4.57,4.93,4.57C65.33,88.78,65.05,88.82,65.15,89.14Z"/></g></svg>