<svg xmlns="http://www.w3.org/2000/svg" viewBox="0 0 164 164"><defs><style>.cls-1{fill:#00788c;}.cls-2{fill:#fff;}</style></defs><g id="Color_bubbles" data-name="Color bubbles"><circle class="cls-1" cx="82" cy="82" r="82"/></g><g id="Logos"><path class="cls-2" d="M71.93,85.84h2.79V88l-2.75,0Z"/><path class="cls-2" d="M65.14,92.21l-2.82.19V85.84h2.83Z"/><rect class="cls-2" x="77.45" y="78.62" width="0.99" height="0.71"/><rect class="cls-2" x="86.41" y="78.62" width="1.01" height="1.97"/><path class="cls-2" d="M54.2,77.06c-.78-1.48-1.69-3.55-1.69-3.55-5.35-1.63-9.29-5-11-8.37a135.58,135.58,0,0,1-8-18.62s1.81.87,4.37,2.13c-2-5.93-3.1-10.95-3.1-10.95s21.14,14,37.57,27.11L73.77,64c0-.13,0-1.33,0-1.43s-.17-1.38,2.29-2.23l.44-.15c-1.19-.89-3-2.26-4.39-3.18-2.16-1.48-1.9-3.11-1.9-3.11L78,59.66a18,18,0,0,1,11,0l7.82-5.81s.25,1.63-1.91,3.1c-1.37.93-3.2,2.29-4.39,3.19l.44.14c2.46.84,2.29,2.23,2.29,2.23s0,1.3,0,1.43l1.43.86c16.45-13.1,37.58-27.1,37.58-27.1s-1.17,5-3.11,10.92c2.39-1.18,4.37-2.13,4.37-2.13a135.58,135.58,0,0,1-8,18.62c-1.69,3.33-5.63,6.75-11,8.37-.69,1.53-1.27,2.82-1.87,3.86a17.68,17.68,0,0,1-2.57,3.57h7.33v8l4.42,2.21-4.42,2.26v7.08l-4.87,3c-1.79-.24-4.08-.51-6.73-.78L87,113.5s-3.45,15.76-3.45,15.8l-3.45-15.8L61.22,102.65c-2.65.27-4.94.54-6.73.78l-4.88-3V93.37L45.2,91.09l4.41-2.16v-8H57A23.9,23.9,0,0,1,54.2,77.06Zm38.16-8c-.07.23-.15.46-.23.69,7.4-4.87,20.34-13.3,34.82-22.7,0,0,0,.31,1.29-3.41A335.56,335.56,0,0,0,92.36,69ZM74.64,69a336.15,336.15,0,0,0-35.86-25.4c1.27,3.7,1.27,3.39,1.27,3.39,14.48,9.4,27.42,17.83,34.82,22.7C74.79,69.46,74.71,69.23,74.64,69Zm10,1.46c2-.84,2.2-4.33,2.58-5.25A5.62,5.62,0,0,1,90.21,62l-1.34-.43a5.75,5.75,0,0,0-2.93,3.92A7.76,7.76,0,0,1,87,61.1a15.09,15.09,0,0,0-7.07,0A7.62,7.62,0,0,1,81,65.52a5.72,5.72,0,0,0-2.92-3.91L76.79,62a5.64,5.64,0,0,1,2.94,3.2c.38.91.62,4.4,2.58,5.25-1.57,1.54-3.64,1.11-5.18-.25a11.86,11.86,0,0,0,6.36,6.21c1.1-.83,1.65-3.28,1.2-6ZM60.05,78.57h0a14.76,14.76,0,0,1-.53-2.71,7,7,0,0,0,1.13,1.75c2.07-.23,5.79-.58,10.15-.69,0,0-9-1.24-13.8-2.49L55.55,74a18.93,18.93,0,0,0,5.68,7.34A15.6,15.6,0,0,1,60.05,78.57Zm45.76,2.75A18.83,18.83,0,0,0,111.49,74l-1.45.43c-4.73,1.25-13.79,2.5-13.79,2.5,4.36.09,8,.44,10.15.69a7.38,7.38,0,0,0,1.13-1.75,14.65,14.65,0,0,1-.53,2.7h0a14.66,14.66,0,0,1-1.22,2.78ZM72.23,103.81,63,98.5l-1.94.18,12.77,7.39A13.42,13.42,0,0,1,72.23,103.81Zm20.93,2.26,12.77-7.39L104,98.49l-9.22,5.32A13.42,13.42,0,0,1,93.16,106.07Zm-13.73-1c-4.07-.89-5.76-2.89-5.76-2.89a11.08,11.08,0,0,0,3.62,4.21s1.71-.5,2.11-1.32Zm-2.52-4.32q-.43-.42-.87-.87a7.41,7.41,0,0,0-2.43,1.3,11.42,11.42,0,0,0,5.7,2.64A8.67,8.67,0,0,0,76.91,100.74Zm6.67,9.6a6.89,6.89,0,0,1,2.63.69c.34-.63.73-1.28,1.1-1.84a7.6,7.6,0,0,1-2.18-.08,13.89,13.89,0,0,0,3.39-1.67h0a4.14,4.14,0,0,1-.43-.2h0a4.46,4.46,0,0,1-1.22-.85,2.3,2.3,0,0,1-.69-1.6c0-2,1.38-2.71,2.89-4.22.31-.3.64-.61,1-.94a24.16,24.16,0,0,0-5.87-.69l-.64,8.58h-.09l-.63-8.68a24.3,24.3,0,0,0-5.88.69l1,1c1.53,1.5,2.89,2.18,2.89,4.21a2.3,2.3,0,0,1-.69,1.6,4.46,4.46,0,0,1-1.22.85h0l-.43.2h0a14,14,0,0,0,3.4,1.68,7.58,7.58,0,0,1-2.18.08c.37.56.76,1.21,1.1,1.84a6.7,6.7,0,0,1,2.64-.68Zm6.13-3.93a11.07,11.07,0,0,0,3.65-4.21s-1.69,2-5.76,2.89c.4.79,2.11,1.29,2.11,1.29Zm-2-2.6a11.24,11.24,0,0,0,5.69-2.64A7.28,7.28,0,0,0,91,99.87q-.43.45-.87.87a8.92,8.92,0,0,0-2.4,3Zm-7-33.11A4.44,4.44,0,0,1,79,67.64S77.07,70.86,80.74,70.7Zm7.36-3.06a4.44,4.44,0,0,1-1.74,3.08C90,70.86,88.1,67.64,88.1,67.64Zm-2.83,45.84a2.25,2.25,0,0,0-1.85-.6,2.41,2.41,0,0,0-1.84.55L83.5,121Zm18.06-33.33v-.78h-2.59v3.56h2.62v-.81h-1.71v-.58h1.71v-.8h-1.71v-.62ZM84,82.12V79.37h-.91v3.56H85.3v-.81ZM70.29,79.37V81h-1v-1.6h-.91v3.56h.91V81.74h1V82.9h.9V79.37ZM123.89,54c1.73-4.08,3-7,3-7-14.46,9.37-27.4,17.8-34.8,22.67a17.26,17.26,0,0,1-.95,2.16L120.34,56,97.58,72.45l1-.19,12-1.16s8.13-.79,12.65-6.9c2.13-3.26,5.76-12.81,5.76-12.81ZM54.2,92,57,90.82v6.37c.8-.11,1.63-.22,2.47-.31v-14H57v5l-2.8,1.19V82.91H51.72v7.22s-2,1-2,1l2.07,1V98c.79-.15,1.63-.29,2.47-.42Zm28.87-4.69h2.84v8.22h2.57V86.2l-1.12-1.12H79.61l.93,1.11v9.38h2.53Zm14.65,6.25c-1.6-.09-3.17-.16-4.77-.21V91.62c1.6,0,3.18.1,4.78.17V89.32l-4.79-.1V87.34h4.79V85.08H89.45l.92,1.11v9.45c2.53.08,5,.19,7.39.34Zm6.21-6.25h2.12V85.08h-7v2.26h2.18v8.89l2.68.24Zm11,4.76c.77-.34,1.53-.69,2.3-1-2.46-1.15-4.93-2.18-7.39-3.14v-2.8h2.61v1H115V82.9h-8.45l.94,1.09v5.78L112.53,92v3.25l-2.61-.33V93.85l-2.46-.29v3.3c2.7.31,5.23.68,7.58,1.09ZM65.48,81.79v.33h-.8v-2h.8v.29h.9v-1H63.8v3.16l.4.4h2.18V81.79Zm33.25-1.67v-.75H96.25v.75H97v2.76h1V80.12ZM37.94,51.53s3.62,9.55,5.75,12.81c4.53,6.08,12.66,6.89,12.66,6.89l12,1.17,1.05.19L46.67,56.14,75.84,72a15.91,15.91,0,0,1-1-2.16C67.48,65,54.53,56.61,40.05,47.18c0,0,1.31,2.89,3.05,7ZM94.38,80.12v-.75H91.9v.75h.77v2.76h.94V80.12ZM73.43,92l1.84,0c.45,1.18.92,2.52,1.37,3.71l2.47-.06c-.45-1.19-.91-2.53-1.38-3.7h1V86.16l-1.09-1.08H70l.94,1.11v9.73l2.47-.13Zm-4.3-5.8L68,85.08H60.42l.9,1.08v9.23l1,1.17c2.17-.22,4.47-.41,6.82-.56Zm11.36-4.56h.33V79.71l-.39-.34H78.07v3.56H79v-1.3h.69l.51,1.27H81Zm8.92-2.26H87v3.16l.4.4H89.8V79.76ZM76,82.93V79.76l-.4-.39h-2.4v3.56h.89V81.74h1V82.9Z"/><rect class="cls-2" x="72.54" y="78.62" width="1.01" height="0.81"/></g></svg>