<svg xmlns="http://www.w3.org/2000/svg" viewBox="0 0 164 164"><defs><style>.cls-1{fill:#700130;}.cls-2{fill:#fff;}</style></defs><g id="Color_bubbles" data-name="Color bubbles"><circle class="cls-1" cx="82" cy="82" r="82"/></g><g id="Logos"><path class="cls-2" d="M89.75,84c-.11.2,21.12-12.19,21.12-12.19V67.55l-1-1C104.13,61.08,95.64,61,87,63.39V43.2c0-2.92,0-5.68-.18-8.26a21,21,0,0,0-1.9-7.5L83.53,24.5l-1.38,3a24.18,24.18,0,0,0-2,7.8c-.26,2.63-.26,5.36-.27,8.31l-.23,22.3A90.13,90.13,0,0,0,58.33,78.48l-4.78,7.4,6-1.47c-9.13,11.5-5.88,19-5.49,19.75,1,2.7,3.16,4.86,6.72,6.29a20.31,20.31,0,0,0,8.43,1.09,40.06,40.06,0,0,0,10.17-2v1.47a14.87,14.87,0,0,0-6.64,7.86,14.63,14.63,0,0,0-.88,4.24c0,.25,0,1-.09,2.16a18.28,18.28,0,0,1-.63,3.68l-.22.77-.77,1.84c.08.31,2.2-.4,3.16-.77a3.07,3.07,0,0,0,.64-.29,9.79,9.79,0,0,0,2-1.53,12,12,0,0,0,1.31-1.54c.36-.47.69-1,1-1.36.41-.58.76-1.15,1.19-1.7v9.07a7.11,7.11,0,0,0-.51.83,17,17,0,0,0-1.63,4.91c0,.36,1,.3,2.53.22a3.47,3.47,0,0,0,.87-.09,15,15,0,0,0,2.56-.56c1.69-.52,4.41-1.74,4.79-4.47l.15-1-.27-.18c3.63-3.17,4.6-6.63,4.47-9.5a11.88,11.88,0,0,0-.46-2.64l1.31.21,1.53.28L95,120c.9-5.24-2.06-9.59-8-10.44v-3.07A70.27,70.27,0,0,0,102.56,96.4l.21-.18,1.73-8.69-3.38,1.87C95.68,91.78,90.75,93.67,87,95V75.33a25.94,25.94,0,0,1,3.11-1.58c2.77-1.17,4.6-1.63,5.37-1.53a17.36,17.36,0,0,1-1.15,2.66s-4.43,8.76-4.6,9.11M78,82.49c.48-.52,1-1,1.6-1.57l-.07,6.89h0l-.09,9.76C73.7,99.32,71,99.61,69,99.15l-.25-.07a1,1,0,0,1-.65-.86C68,94.39,74.65,86.1,78,82.51"/><path class="cls-2" d="M85.62,97.32l-2.19.76-1.36.46-.94.31-.51.16C56.18,106.62,64,90.74,75.16,78.85a46.39,46.39,0,0,1,4.48-4l.06-7A86.68,86.68,0,0,0,59.57,79.69c2.79-.77,5.63-1.39,8.43-2-24.29,23.21-10.22,35.49,13,26.17l1-.41c.46-.2.92-.38,1.38-.59.72-.33,1.46-.68,2.19-1a82.05,82.05,0,0,0,16.37-10.85C95.36,93.81,89.51,96,85.62,97.32Z"/><path class="cls-2" d="M108.91,67.74c-5.32-5.06-13.52-5-21.89-2.59v4.92c6.42-3.13,13.85-4.11,8.88,5.63Z"/><path class="cls-2" d="M88.57,70.38a12.05,12.05,0,0,0-1.53.76V73.8a25.13,25.13,0,0,1,2.63-1.36c2.88-1.22,5.36-2,6.71-1.54C96.6,67.66,93.1,68.47,88.57,70.38Z"/><path class="cls-2" d="M79.63,76a39.94,39.94,0,0,0-3.76,3.48c-3.14,3.38-10.4,12.18-10.28,16.81a3.29,3.29,0,0,0,1.16,2.63,3.66,3.66,0,0,1,0-.57c-.12-4.6,7.15-13.43,10.28-16.8.77-.83,1.66-1.67,2.6-2.51Z"/><path class="cls-2" d="M83.71,28.24c-2.09,4.6-2,9.76-2.08,15.47l-.17,17.91h0l-.17,19.43h0l-.06,5.54h0l-.09,10.57.94-.31.06-11h0l0-8.92V66.73l.1-15.65,0-12.13c.23.43,1.08,2.11,1.15,8.09V84.76h0V96.41l2.18-.76V83h0V61.62h0V43.31C85.66,37.59,85.76,32.41,83.71,28.24Z"/></g></svg>