<?xml version="1.0" encoding="utf-8"?>
<!-- Generator: Adobe Illustrator 25.2.0, SVG Export Plug-In . SVG Version: 6.00 Build 0)  -->
<svg version="1.1" id="Color_bubbles" xmlns="http://www.w3.org/2000/svg" xmlns:xlink="http://www.w3.org/1999/xlink" x="0px"
	 y="0px" viewBox="0 0 656 656" style="enable-background:new 0 0 656 656;" xml:space="preserve">
<style type="text/css">
	.st0{fill:#0D2240;}
	.st1{fill:#FFFFFF;}
	.st2{opacity:0.1;fill:#FFFFFF;}
	.st3{fill:#FFC627;}
</style>
<circle class="st0" cx="328" cy="328" r="328"/>
<g>
	<path class="st1" d="M327.9,137.1c105.4,0,190.9,85.4,191,190.8s-85.4,190.9-190.8,191c-105.4,0-190.9-85.4-191-190.8
		c0-50.6,20.1-99.2,55.9-135C228.8,157.3,277.3,137.1,327.9,137.1 M327.9,503.7c97,0.1,175.8-78.6,175.8-175.6
		c0.1-97-78.6-175.8-175.6-175.8c-97-0.1-175.8,78.6-175.8,175.6c0,0,0,0.1,0,0.1C152.3,425,230.9,503.7,327.9,503.7"/>
	<g>
		<path class="st1" d="M327.8,165.3C238,165.3,165.2,238.2,165.3,328c0.1,89.7,72.9,162.4,162.6,162.5c0,0,0.1,0,0.1,0
			c89.8-0.1,162.5-72.9,162.5-162.7C490.4,238,417.6,165.2,327.8,165.3z M337.5,210.3l6.9-9.2l48.6,59.5l-32.7-8.5l-32.4,41.6
			l-32.9-41.4L269,259l58.8-71.9L337.5,210.3z M323.6,470.7v0.5V470.7c-8.2-0.8-16.1-3.7-22.9-8.4c6.3-5.9,14.3-9.5,22.9-10.5V470.7
			z M323.7,441.8c-11.3,1.1-21.9,6-30.2,13.8c0.1,0.1,0.1,0.2,0.2,0.2h-0.5c0.1-0.1,0.2-0.2,0.3-0.2c-7.8-8-12.5-18.5-13.4-29.7
			h43.5V441.8z M324.1,416h-43.9c1.2-10.6,5.7-20.6,13-28.4c8.4,8,19.3,12.9,30.9,14V416z M300.8,381.2c6.8-4.7,14.6-7.5,22.8-8.4
			v18.8C315.1,390.7,307.1,387,300.8,381.2z M363.7,387.6c7.4,7.8,12.1,17.7,13.5,28.4h-43.9v-14.4
			C344.7,400.6,355.4,395.6,363.7,387.6z M333.4,391.7v-18.8c8.2,0.8,16.1,3.7,22.9,8.4C349.9,387,341.9,390.6,333.4,391.7z
			 M333.4,471.2v-18.8c8.6,1,16.6,4.6,22.9,10.5C349.5,467.5,341.6,470.3,333.4,471.2z M363.7,455.9c-8.2-8-18.9-13-30.3-14.1v-15.9
			h43.9C376.4,437.2,371.6,447.8,363.7,455.9z M455.4,410.1c-2,3.7-5.2,6.6-9.2,8.1l-8.9-10.9l-100.9-63.5l16.2-9.5l92.9,60.2
			l13.4,3.6C459.3,402.4,458,406.7,455.4,410.1z M442.7,273.2L423,284.3l-2-3.2L219.6,406.9l-8.9,10.9c-3.9-1.5-7.2-4.4-9.2-8.1
			c-2.6-3.4-3.8-7.7-3.5-11.9l13.6-3.6l100.9-65.6l-76.6-47.7l-1.9,3.1l-19.7-11.1c-13.5,25.5-28.2,63.8-28.2,91.6
			c-10.4-32.2,0.2-76.2,14.8-104.7l-3.7-2l11.9-18.1l3.5,2.5c19.8-24.9,55.6-53,88.9-57.1c-25.8,11.6-54,41-71.6,63.7l18.8,13.4
			l-2.3,3.3l82.6,53.4l82.4-53.4l-2.3-3.3l18.3-13.4c-17.8-22.7-46.3-51.8-71.6-63.7c33.6,4.2,69,32.2,88.5,57.3l3.2-2.4l11.9,18.1
			l-3.6,2h0.1c14.9,28.5,25.3,72.7,14.9,105C471.1,337.1,456.2,298.7,442.7,273.2z"/>
		<polygon class="st2" points="360.2,252.1 392.9,260.6 344.4,201.1 344.4,226.1 337.5,210.3 327.8,187.1 327.8,293.8 		"/>
		<path class="st3" d="M293.8,455.9c-0.1-0.1-0.1-0.2-0.2-0.2c-0.1,0.1-0.2,0.2-0.3,0.2H293.8z"/>
		<path class="st2" d="M293.6,455.7c8.2-7.8,18.8-12.7,30.2-13.8v-15.9h-43.5C281,437.1,285.8,447.6,293.6,455.7z"/>
		<path class="st2" d="M323.6,470.7v-18.8c-8.6,1-16.6,4.6-22.9,10.5C307.5,467,315.4,469.9,323.6,470.7z"/>
		<path class="st2" d="M333.4,441.8c11.4,1.1,22.1,6.1,30.3,14.1c7.9-8.1,12.7-18.7,13.6-29.9h-43.9V441.8z"/>
		<polygon class="st1" points="344.4,201.1 337.5,210.3 344.4,226.1 		"/>
		<path class="st2" d="M333.4,471.2c8.2-0.8,16.1-3.7,22.9-8.4c-6.3-5.9-14.3-9.5-22.9-10.5V471.2z"/>
	</g>
</g>
</svg>
