<svg xmlns="http://www.w3.org/2000/svg" viewBox="0 0 164 164"><defs><style>.cls-1{fill:#0064b1;}.cls-2{fill:#fff;}</style></defs><g id="Color_bubbles" data-name="Color bubbles"><circle class="cls-1" cx="82" cy="82" r="82"/></g><g id="Logos"><path class="cls-2" d="M132,83.57a47.09,47.09,0,0,1-7.59,25.68,3.25,3.25,0,0,1-1,.67.48.48,0,0,0-.2.38,4.25,4.25,0,0,1-.39,1.22h0a49.88,49.88,0,0,1-40.42,20.35c-21.86,0-40.42-13.8-47-32.95-.85-1.22-5.79-9.1-2.07-22.12h0s1.42-4.26,1.54-4.67c0,0,.78-3.11.91-3.19v-.22l0,.07c.08-.67.18-1.27.3-1.87,0-.31.1-.66.15-.91a1.89,1.89,0,0,0,.11-.25,19.78,19.78,0,0,1,4.75-9.26,11,11,0,0,1,1.83-1.43A42.65,42.65,0,0,1,47,50.31,11.62,11.62,0,0,1,54,44h0a49.59,49.59,0,0,1,7.13-4h0S68.61,31.82,79,32.14l-2.6,3.49a50.7,50.7,0,0,1,25,3.33,6.24,6.24,0,0,1,1.92,1.33.41.41,0,0,0,.34.18,6.89,6.89,0,0,1,2.15.56A49.45,49.45,0,0,1,122,54.5a3.52,3.52,0,0,1,.32,1.15.48.48,0,0,0,.35.35,6.11,6.11,0,0,1,.94.66A47.24,47.24,0,0,1,132,83.57ZM55.19,56.41c-3.72,7.17-5.68,17.11,3.48,26.25h0S53.11,82.34,50,78c.18.86,1.61,6.74,3.92,10.46h0c-2.72-.74-5-4-5.28-4.71-.08-.18-.11,0-.11,0a17.8,17.8,0,0,0,1.78,4.66h0c.42.84,3.28,6.28,10,13.8h-.1c-8.72-.79-11.81-4-11.81-4s-.1,0-.08.1a22.6,22.6,0,0,0,2.38,4.24c.67,1.11,15.71,25.87,44.76,18.11a7.67,7.67,0,0,0,1.17-.28c.11,0,.13-.07.13-.09a4.36,4.36,0,0,0-.49-.06c-24.07,1.22-30-10.38-30-10.38s-.14-.21-.31-.5c.44.17,7.72,2.67,14.55-3.67L79,92.3l-1.82,4.52c0-.18-.13-.43-.15-.55s-5.26-26.45-5.49-27.33a33.19,33.19,0,0,0,6.67,5s.73.44.26,0c0,0-10.77-9.26-9.48-20.66,2.79,5.72,6.41,7,6.41,7L71,44s-.48-4.33,4.2-9.58c0,0,.6-.4-.33-.14a22.16,22.16,0,0,0-11.93,8,19.26,19.26,0,0,0-.61,4.47l0,0s-.09,0-.26.2a4.75,4.75,0,0,1-.35.38A42.34,42.34,0,0,0,55.19,56.41ZM89,107.74,85.35,94.41l2.93-15.19L86.61,95.14l3.83,13.22L83,114.06h0l6-6.32Zm1.33-38.92a51,51,0,0,0,.73-6.16h0a17.2,17.2,0,0,1,.82,5h0a8.93,8.93,0,0,1-2.37,6.41h0a8.38,8.38,0,0,1-1.64,1.33h0l-.4.22h0c1.49-1.24,2.34-4,2.87-6.74Zm-.1-20.06.1,0Zm0-.24A13.13,13.13,0,0,0,89,45.58h0l.23-.1h0a11.27,11.27,0,0,1,4.54-.92h0a12,12,0,0,1,3.47.51h0A8.17,8.17,0,0,0,90.25,48.52Zm-2.6,6.64h0a.11.11,0,0,0-.1.07h0s-.45,1.44-1,3h0a17.1,17.1,0,0,1-1.73,3.67h0c-.34-1.12-2.27-7.16-5-9.3h0a.13.13,0,0,0-.12,0h0a.13.13,0,0,0,0,.12h0s.17.66.43,1.73h0a80.91,80.91,0,0,1,2.32,16.61h0v1.19h0A100.14,100.14,0,0,0,74,45.42h0l.87.55h0A31.86,31.86,0,0,1,85,56.92h0A.08.08,0,0,0,85,57h0a.14.14,0,0,0,.09,0h0s1.95-2.34,2.62-7.46h0c.09.38.21.95.34,1.7h0a37.64,37.64,0,0,1,.48,6h0A39.43,39.43,0,0,1,85.23,73h0a74.4,74.4,0,0,0,2.5-16.84h0V55.3h0a.11.11,0,0,0-.1-.11ZM85,56.88l.09-.06ZM36.35,82.66V81.9h0c.29,1.62,1.54,8.07,4.09,12h0l.18.34h0a1.67,1.67,0,0,0,.15.24h0a.36.36,0,0,0,.07.1h0a.15.15,0,0,0,.11.06h0a.15.15,0,0,0,.12-.07h0V94.5h0a4.53,4.53,0,0,0-.23-.82h0s-.49-1.83-1-4.3h0a44.5,44.5,0,0,1-1-8h0s-.2-.77-.4-2h0a34.15,34.15,0,0,1-.4-5h0c0-4.35.89-9.68,4.58-13.62h0a25.07,25.07,0,0,0-1.88,7.88h0V69h0v.14h0a.06.06,0,0,0,0,.06h0a.09.09,0,0,0,.1.08h0c.1,0,.1-.06.12-.08h0a2.69,2.69,0,0,0,.19-.61h0a11.09,11.09,0,0,1,.33-1.07h0a33,33,0,0,1,6.34-11h0a25.85,25.85,0,0,1,1.26-3.15h0a14.82,14.82,0,0,1,3-4.43h0A9.73,9.73,0,0,0,51,52.75h0a.1.1,0,0,0,.07.1h0a.13.13,0,0,0,.12,0h0s1.26-1.59,2.92-3.29h0A17.25,17.25,0,0,1,59,45.72h0A40.54,40.54,0,0,0,47.27,74.2h0a41.92,41.92,0,0,0,.31,5.13h0l0-.1h0a21.74,21.74,0,0,1-1.7-9.09h0a36.23,36.23,0,0,1,.66-6.89h0a.08.08,0,0,0-.06-.11h0a.09.09,0,0,0-.12,0h0s-3.48,4.19-3.48,11.59h0c0,5.57,2,13,9,21.75h0l-.58-.2h0c-1.67-.67-5.42-2.67-8.51-8.67h0a.11.11,0,0,0-.12,0h0a.1.1,0,0,0-.08.1h0s.35,21.8,24.32,34.37h0s7.33,4.22,18.63,4.22h0a50.34,50.34,0,0,0,25.64-7.33h0l.54-.34h0l.24-.13h0l-.6.51.06.08-.06-.08h0c-.64.52-1.31,1-2,1.47h0a46.61,46.61,0,0,1-25.61,8h0a45.15,45.15,0,0,1-19.47-4.51h0s-.9-.34-2.37-1.08h0c-4.4-2.23-13.84-8-19-18.82h0C37.43,95.53,36.35,88.94,36.35,82.66Zm56.22-30.8s5.54,5,17,5h0a41.74,41.74,0,0,0,5.91-.42h0a6.55,6.55,0,0,0,1-.2h0c.48-.16,1-.38,1-.85h0a.76.76,0,0,0-.23-.51h0a43.82,43.82,0,0,0-33.63-15.7H83l-.15,0h0a.2.2,0,0,0-.09.16h0c0,.13.1.18.24.27h0c.06.05.79.62,1.75,1.46h0a27,27,0,0,1,3.17,3.25l.06.06.07,0h0a10.62,10.62,0,0,1,1.44-.49h0a14.42,14.42,0,0,1,3.75-.5h0a14.26,14.26,0,0,1,7,1.9h0c-1.07.52-6.57,3.33-7.74,6.43v.07l0,.05Zm-7.48,63.47a28.35,28.35,0,0,0,7.73.91h0a43,43,0,0,0,9.33-1h0a1.8,1.8,0,0,0,1.2-1.08h0a48,48,0,0,0,.8-9.2h0c0-8-1.76-19.65-10.54-28h0a.12.12,0,0,0-.14,0h0a.11.11,0,0,0,0,.15h0a3.57,3.57,0,0,1,.34.43h0a11.3,11.3,0,0,1,1.92,6.8h0a25,25,0,0,1-2.6,10.27h0a25.51,25.51,0,0,0-.39-3.7h0c-.41-2.13-1.19-4.41-2.87-4.92h0a.11.11,0,0,0-.08,0h0s-.05,0-.05.07l-1.07,9.29h0l3.73,13.84-7.33,5.93h0a.09.09,0,0,0,0,.1h0a.09.09,0,0,0,.06.08Zm20.66-1a.68.68,0,0,0,.46.14h0a1.84,1.84,0,0,0,.51-.1h0c8.15-2.66,13.7-9.54,13.93-9.82h0a3.13,3.13,0,0,0,.82-2.3h0v-.34h0C120.61,79,97.22,67.7,96.67,67.43h0l-.3-.21h0a.56.56,0,0,0-.18-.07h0a.12.12,0,0,0-.09,0h0a.14.14,0,0,0,0,.09h0c0,.09,0,.11.07.17h0a4.4,4.4,0,0,0,.35.39h0a14.58,14.58,0,0,1,2.87,5.5h0a15.54,15.54,0,0,1,.44,2h0a3.82,3.82,0,0,0,.06.45h0a10.41,10.41,0,0,0-4.22-2.7h0a1.84,1.84,0,0,0-.42-.08h0a.24.24,0,0,0-.12,0h0a.16.16,0,0,0-.08.13h0a.26.26,0,0,0,.07.15h0a1.57,1.57,0,0,0,.25.2h0c9.34,9.07,11.34,20.72,11.34,29.08h0a52.37,52.37,0,0,1-.57,7.72h0c-.29,1.9-.57,3-.57,3h0a1.84,1.84,0,0,0,0,.41h0a.67.67,0,0,0,.22.55ZM123.33,98.2a.37.37,0,0,0,.34.28h0c.18,0,.33-.13.5-.33h0c1.15-1.42,3.12-7.4,3.12-15.61h0c0-1.1,0-2.24-.11-3.41h0c-.63-9.33-4.36-17.14-7.37-20.5h0a1.79,1.79,0,0,0-1.75-.85h-.33s-1.48.3-3.74.6h0a66.72,66.72,0,0,1-8.36.59h0a26.07,26.07,0,0,1-9-1.28l-.21-.08.08.22h0s.11.31.23.77h0A7.13,7.13,0,0,1,97,60.25h0a7.68,7.68,0,0,0-5.67-2.57h-.52l.42.2h0s.48.22,1.34.66h0c6,3.11,30.13,16.95,30.66,38.94h0a2.46,2.46,0,0,0,.11.66ZM72,36.58l0-.06h0c-.27.08-5.08,1.48-6.5,8.81,0,0,0,.13.07,0,.43-.71,1.93-3,3.33-2.31v-.15A13.24,13.24,0,0,1,72,36.58Zm-3.69,66.19c-1-2.09-7.7-16.67-7.7-16.67-2.07.67-4.66-1-4.66-1h0c3.28,8.71,11,16.32,12.23,17.71h0c.21.23.21.15.21.15Zm-6.6-47.44c-6,13.75,7.52,19.42,7.7,19.49h0l-.72-3.16-.41-1.82a8.28,8.28,0,0,1-1-.34L67,69.33l-.37-.19C60.73,66,61.31,58.48,61.67,56v0a.38.38,0,0,1,0-.21c0-.23.06-.38.08-.47v-.06h0C61.82,55.07,61.73,55.28,61.71,55.33ZM75.45,96.06,69.64,76.79l1,17.28C73.55,91.5,75.45,96.06,75.45,96.06ZM71,44.38l1.28,10.34s.64,2.82-3.24-1.42c2.8,5.73,6.42,7,6.42,7L71,44.13S71,44.19,71,44.38ZM64.79,63.23a6,6,0,0,1-.5-2.32A5.22,5.22,0,0,1,66.14,57l.06,0a41.8,41.8,0,0,1,0-4.19c-1.48,2.19-4.66,7.37-.86,11.43l-.16-.24A6.46,6.46,0,0,1,64.79,63.23Zm3.94,2.1A22.53,22.53,0,0,1,66.2,57v-.07l-.06,0a5.24,5.24,0,0,0-1.85,3.93,6,6,0,0,0,.5,2.32,5.64,5.64,0,0,0,.44.71c0,.08.1.16.16.24s.15.17.24.27a4.8,4.8,0,0,0,3.46,1.48S69,65.72,68.73,65.33Zm8.16,41ZM74,98.16c.6,0,1.06.55,1.43,1.33a13.22,13.22,0,0,1,.92,2.79c.29,1.26.48,2.52.58,3.29v.75h0c.12-.84,1.33-8.91-2.76-10,0,0-2.86-.73-2.67,5.22a1.14,1.14,0,0,1,0-.37C72.45,99,73.23,98.17,74,98.16Zm2.91,7.39a30.52,30.52,0,0,0-.58-3.29,13.19,13.19,0,0,0-.91-2.79c-.37-.76-.83-1.33-1.43-1.33-.76,0-1.54.85-2.48,3a.87.87,0,0,0,0,.36l1.42,3.12s.81-8.34,4,1.68v0h0A3.76,3.76,0,0,0,76.91,105.55Z"/></g></svg>