<svg xmlns="http://www.w3.org/2000/svg" xmlns:xlink="http://www.w3.org/1999/xlink" viewBox="0 0 164 164"><defs><style>.cls-1{fill:none;}.cls-2{fill:#dc1e35;}.cls-3{fill:#fff;}.cls-4{clip-path:url(#clip-path);}</style><clipPath id="clip-path"><path class="cls-1" d="M82,40.59A41.41,41.41,0,1,0,123.41,82,41.41,41.41,0,0,0,82,40.59M43,83.22h7.63V80.8H43c0-.93.08-1.84.17-2.75C45.87,64.44,62.25,54,82,54S118.14,64.44,120.84,78c.09.9.15,1.82.17,2.75h-7.62v2.43H121c0,.92-.08,1.84-.17,2.74-2.7,13.6-19.09,24.09-38.84,24.09S45.87,99.56,43.16,86c-.09-.91-.14-1.83-.17-2.75M82,43a39.13,39.13,0,0,1,36.39,24.91c-7-9.51-20.65-16-36.39-16s-29.43,6.45-36.38,16A39.12,39.12,0,0,1,82,43M82,121a39.08,39.08,0,0,1-36.37-24.9c6.94,9.5,20.64,16,36.37,16s29.44-6.48,36.38-16A39.09,39.09,0,0,1,82,121"/></clipPath></defs><g id="Color_bubbles" data-name="Color bubbles"><circle class="cls-2" cx="82" cy="82" r="82"/></g><g id="Logos"><path class="cls-3" d="M130.57,82A48.57,48.57,0,1,1,82,33.44h0A48.56,48.56,0,0,1,130.57,82M132,82a50,50,0,1,0-50,50,50,50,0,0,0,50-50"/><path class="cls-3" d="M82,40.59A41.41,41.41,0,1,0,123.41,82,41.41,41.41,0,0,0,82,40.59M43,83.22h7.63V80.8H43c0-.93.08-1.84.17-2.75C45.87,64.44,62.25,54,82,54S118.14,64.44,120.84,78c.09.9.15,1.82.17,2.75h-7.62v2.43H121c0,.92-.08,1.84-.17,2.74-2.7,13.6-19.09,24.09-38.84,24.09S45.87,99.56,43.16,86c-.09-.91-.14-1.83-.17-2.75M82,43a39.13,39.13,0,0,1,36.39,24.91c-7-9.51-20.65-16-36.39-16s-29.43,6.45-36.38,16A39.12,39.12,0,0,1,82,43M82,121a39.08,39.08,0,0,1-36.37-24.9c6.94,9.5,20.64,16,36.37,16s29.44-6.48,36.38-16A39.09,39.09,0,0,1,82,121"/><g class="cls-4"><path class="cls-3" d="M123.41,82A41.41,41.41,0,1,1,82,40.59,41.41,41.41,0,0,1,123.41,82h0"/></g><path class="cls-3" d="M110.56,83.09h-4.63a1.42,1.42,0,0,0-1.57,1.18.81.81,0,0,0,0,.22,13.62,13.62,0,0,0,0,3.19,2.93,2.93,0,0,0,2.14,1.81h.09l.16.05a.43.43,0,0,1,.2.15v4.73h-2.41v1.76h3.18a2.16,2.16,0,0,0,2.12-1.31c.08-.64.09-5.05,0-6a1.18,1.18,0,0,0-.49-.88,5,5,0,0,0-.49-.31l-.54-.27c-.69-.33-1.48-.74-1.48-1.59v-.74h2.3a1.18,1.18,0,0,0,1.09-.67,2,2,0,0,0,.23-.68,2.53,2.53,0,0,0,0-.55Z"/><path class="cls-3" d="M99.57,88.67C98.17,83.61,95.93,83,95,83h-.46V96.25h3V91l2.06,5.29h3V83.1h-3Z"/><path class="cls-3" d="M88.15,86a4.46,4.46,0,0,1,.09-.81l.06,0a2.67,2.67,0,0,1,.4,0h.06c1,0,1,.3,1,2.1v6a3.11,3.11,0,0,1-.06.44l-.06.06a4.36,4.36,0,0,1-.51,0,1.05,1.05,0,0,1-.76-.26,1.45,1.45,0,0,1-.22-1.11V86m1-3a6.84,6.84,0,0,0-1.91.18,2.65,2.65,0,0,0-2.13,3V94c0,2,1.44,2.42,3.59,2.42,2.61,0,4.11-.93,4.11-2.53V85.76c0-2.66-1.7-2.66-3.66-2.66"/><path class="cls-3" d="M84.17,83.1H77.29v2.07h1.95V96.28h3V85.17h.11a1.69,1.69,0,0,0,1.28-.49,2.2,2.2,0,0,0,.5-1.48Z"/><path class="cls-3" d="M75.73,83.09H71.1a1.43,1.43,0,0,0-1.58,1.18.81.81,0,0,0,0,.22,13.62,13.62,0,0,0,0,3.19,2.93,2.93,0,0,0,2.14,1.81h.09l.17.05a.34.34,0,0,1,.14.15v4.73H69.73v1.76H72.9a2.15,2.15,0,0,0,2.17-1.31c.08-.64.09-5.05,0-6a1.16,1.16,0,0,0-.51-.88,4.76,4.76,0,0,0-.47-.31l-.5-.29c-.69-.33-1.49-.74-1.49-1.59v-.74h2.31a1.21,1.21,0,0,0,1.09-.67,2.16,2.16,0,0,0,.23-.66,2.53,2.53,0,0,0,0-.55Z"/><rect class="cls-3" x="64.5" y="83.08" width="2.93" height="13.16"/><path class="cls-3" d="M59.76,89H58.11V85.1h1a.56.56,0,0,1,.62.56v3.26M61,83.08H53.46v.09a2,2,0,0,0,1.67,1.93V96.21h3V90.64H60.7c1.34,0,2.11-.88,2.11-2.43v-.46c0-3.71-.14-4.45-1.88-4.67"/><path class="cls-3" d="M105.24,80.43h3V69.58h.1a1.66,1.66,0,0,0,1.25-.48,2.18,2.18,0,0,0,.5-1.44v-.09h-6.67v2h1.91Z"/><polygon class="cls-3" points="101.84 67.58 98.98 67.58 98.97 80.42 101.84 80.42 101.84 67.58"/><path class="cls-3" d="M92.84,70.48a5.25,5.25,0,0,1,.06-.79l.06,0a2.67,2.67,0,0,1,.4,0h.06c1,0,1,.3,1,2.06v5.85c0,.14,0,.29,0,.44l-.06,0a3.12,3.12,0,0,1-.52,0,1,1,0,0,1-.74-.23,1.42,1.42,0,0,1-.23-1.11V70.48m1-2.9a6.63,6.63,0,0,0-1.88.18,2.58,2.58,0,0,0-2.12,2.86v7.66c0,2,1.42,2.36,3.56,2.36,2.59,0,4.08-.9,4.08-2.47v-8c0-2.61-1.68-2.61-3.64-2.61"/><path class="cls-3" d="M83.67,69.59h.57c.75,0,1.06,0,1,1.37v1.78a.54.54,0,0,1-.16.42.33.33,0,0,1-.25.11h-1.2Zm0,5.37h.51c.49,0,1.31.17,1.31,1.05,0,.41,0,1.73.05,2.22v.19a8.39,8.39,0,0,0,.07.84,1.83,1.83,0,0,0,1.74,1.33h.86V75.91a2.59,2.59,0,0,0-.55-1.36l-.07-.09a2.49,2.49,0,0,0,.65-1.87v-.46c0-3.63-.14-4.37-1.83-4.55H80.73V80.42h2.93Z"/><path class="cls-3" d="M74.41,80.43h3V69.58h.1a1.66,1.66,0,0,0,1.25-.48,2.17,2.17,0,0,0,.49-1.44v-.09H72.56v2h1.9Z"/><polygon class="cls-3" points="70.97 78.36 67.9 78.36 67.9 75.24 70.01 75.24 70.01 72.44 67.9 72.44 67.9 69.55 70.97 69.55 70.97 67.58 65.04 67.58 65.03 80.42 70.97 80.42 70.97 78.36"/><path class="cls-3" d="M60.3,78.36H58.67V69.59a3.63,3.63,0,0,1,1.23,0c.38.15.37.86.37.88.12,1,0,7,0,7.84m1-10.78H54v.08a1.69,1.69,0,0,0,1.44,1.91l.31,0v10.8h5.45c1.24,0,2.08-1,2.08-2.62V71.84c0-3.28,0-4.17-2-4.23"/></g></svg>