<svg xmlns="http://www.w3.org/2000/svg" viewBox="0 0 164 164"><defs><style>.cls-1{fill:#c10230;}.cls-2{fill:#fff;}</style></defs><g id="Color_bubbles" data-name="Color bubbles"><circle class="cls-1" cx="82" cy="82" r="82"/></g><g id="Logos"><g id="Layer_2" data-name="Layer 2"><g id="Layer_1-2" data-name="Layer 1-2"><path class="cls-2" d="M127,85.34c0,5.25-20.49,10-45.22,10S37.19,90.59,37,85.34c-.16-4.74,13.84-7.84,29.89-7.23-10.43,1.57-21,3-21,5.86,0,4.26,15.81,7.26,35.84,7.26s36.13-3,36.13-7.26c0-2.74-9.66-4.38-21.28-5.86,16.25-.86,30.16,2.66,30.36,7.23"/><path class="cls-2" d="M73.38,105.84,74,127.57l1.27-39.14C74.73,71.25,78.22,43,71,22.22c-7.7,23.91-3.56,29.29-4.58,66.85L67.29,118l1.2-15.83c0-2,1.53-1.78,1.53-.1l.53,20.85,1.29-17C71.83,103.69,73.44,103.8,73.38,105.84Z"/><path class="cls-2" d="M97,94.72,95.9,141.78l-.74-27.71c0-2-1.68-2-1.75,0L92.51,135l-.9-24.21c0-2-1.49-2.06-1.5.14l-.88,17.26L88.15,94.08l.24-24.72c.19-6.61-19.24-6.53-19.24-6.53s23.14.49,21.24-13.59C89,39,50.94,42.44,50.94,42.44A125.56,125.56,0,0,1,75.21,37.6c15.13-1.46,24.26,2.18,24.75,9.47.87,12.92-15.85,14.8-15.85,14.8s13.2-2.56,13.22,5.45Z"/></g></g></g></svg>