<svg xmlns="http://www.w3.org/2000/svg" viewBox="0 0 164 164"><defs><style>.cls-1{fill:#fec23e;}.cls-2{fill:#fff;}</style></defs><g id="Color_bubbles" data-name="Color bubbles"><circle class="cls-1" cx="82" cy="82" r="82"/></g><g id="Logos"><path class="cls-2" d="M121.16,93.06c-6.61,7.77-16.44,11.82-28.41,11.73H75.36l-5.13,21.36-35.73,0L53.92,37.85H95.78A33.55,33.55,0,0,1,122.06,50C131.07,60.9,133.17,80,121.16,93.06ZM51.67,58.75H69.2c2,0,4.15,1.69,3.2,4.25a23.79,23.79,0,0,0-1.21,5.13c-.17,1.35,1.34,2.2,2.2,2.2H109.1c.64,0,1-.19,1-.52a20.42,20.42,0,0,0-.16-2.33c-.12-.79-.26-.93-.9-.93-4.45,0-6.26-2-10.91-5s-11.51-4.74-17.39-4.74H52.09Zm21.6,23.07C76.83,88.67,89,85,92.2,83.92c3-1,8.41-4.3,10.91-6.19a10.43,10.43,0,0,1,5.41-1.47c.58,0,1.19.16,1.28-.57s.25-2,.29-2.66.16-.92-.45-.92l-60.92,0-.46,2.11h18.8a4.45,4.45,0,0,1,4.69,3.37,23.83,23.83,0,0,0,1.54,4.34M44.91,89.51H76.72a5.41,5.41,0,0,1,3.55,1.11,27.58,27.58,0,0,0,9.87,4.92C91.8,96,94.63,95.4,97.2,94c6.37-3.6,10.46-10.45,11.81-14.86.36-1.15-.32-1.06-1.21-1-2.68.19-5.5,2.62-9.21,5s-11.26,4.6-18.42,4.59H45.31ZM78.15,54c-.42.42-.54.82.42.85S86.9,55,91,56.32a37.5,37.5,0,0,1,10.38,5c3.26,2.21,4.56,3.57,7.33,3.27.57-.07.46-.89,0-2.18-2.4-6.68-8.11-13-14.12-15.36a7.22,7.22,0,0,0-3-.17A25.87,25.87,0,0,0,78.15,54Zm40.05,6.71c-.48-.77-.89.14-1.18.69a10.22,10.22,0,0,1-4.61,4.35c-.78.33-.57,1-.54,1.59s.18,1.64.21,2.15,0,.92.94.92h7a.58.58,0,0,0,.58-.54C120.37,66.59,119.87,63.31,118.2,60.67Zm2.37,11.86c0-.19-.32-.42-.58-.42h-7.26c-.4,0-.64.38-.64.91s-.25,2.25-.31,2.74a.92.92,0,0,0,.48,1.11,11.35,11.35,0,0,1,5.09,5.52c.15.38.6.2.71,0a22.76,22.76,0,0,0,2.51-9.86Zm-5,13.82c.57-.75.14-3.36-.83-4.71a7.59,7.59,0,0,0-3-2.67c-.64-.17-.64-.09-1.14,1.49-1.25,4.11-6,11.33-11.22,14.38-1.76,1-.64,1.19-.13,1.12A25.11,25.11,0,0,0,115.57,86.35Zm-.14-30.17c-3.26-4.93-9.76-8.54-16.37-9.42-.39,0-.52.17,0,.5C101.82,49,108.58,55,110.87,63c.26.92.5,1,1.73.38s4.71-4.38,2.83-7.21Z"/></g></svg>