<svg xmlns="http://www.w3.org/2000/svg" viewBox="0 0 164 164"><defs><style>.cls-1{fill:#1d428a;}.cls-2{fill:#fff;}</style></defs><g id="Color_bubbles" data-name="Color bubbles"><circle class="cls-1" cx="82" cy="82" r="82"/></g><g id="Logos"><path class="cls-2" d="M82,29.5A52.5,52.5,0,1,0,134.5,82,52.51,52.51,0,0,0,82,29.5Zm38,23.33a47.57,47.57,0,0,1,9.89,26.87H110.05A47.48,47.48,0,0,1,120,52.83Zm-75.9,0A47.48,47.48,0,0,1,54,79.7H34.16A47.57,47.57,0,0,1,44.05,52.83Zm0,58.34A47.57,47.57,0,0,1,34.16,84.3H54A47.48,47.48,0,0,1,44.05,111.17ZM84.3,129.84V116.08H79.7v13.76a47.54,47.54,0,0,1-32.59-15.09A52,52,0,0,0,58.57,84.34V79.7A52,52,0,0,0,47.11,49.28,47.57,47.57,0,0,1,79.7,34.2V47.76h4.6V34.16a47.54,47.54,0,0,1,32.59,15.09A51.94,51.94,0,0,0,105.43,79.7v4.6a51.94,51.94,0,0,0,11.46,30.45A47.54,47.54,0,0,1,84.3,129.84ZM120,111.17a47.48,47.48,0,0,1-9.9-26.87h19.79A47.57,47.57,0,0,1,120,111.17Z"/><polygon class="cls-2" points="70.31 60.01 70.31 103.81 93.7 103.81 93.7 97.79 76.57 97.79 76.57 60.01 70.31 60.01"/><path class="cls-2" d="M101.66,74.69v-18c0-2.71-1.09-3.81-3.76-3.81H66.07c-2.64,0-3.71,1.1-3.71,3.81v50.68c0,2.71,1.07,3.81,3.71,3.81H97.93c2.67,0,3.76-1.1,3.76-3.81V89.24H95.35v16.34H68.6V58.37H95.35V74.69Z"/><path class="cls-2" d="M93.69,96.09V60H78.49l-.11,36.08h6.09l.1-11.24h3.09l0,11.24Zm-6.1-17.25h-3V66.07h3Z"/></g></svg>