<svg xmlns="http://www.w3.org/2000/svg" xmlns:xlink="http://www.w3.org/1999/xlink" viewBox="0 0 164 164"><defs><style>.cls-1,.cls-3{fill:none;}.cls-2{fill:#fcb82c;}.cls-3{stroke:#fff;stroke-width:1.01px;}.cls-4{fill:#fff;}.cls-5{clip-path:url(#clip-path);}</style><clipPath id="clip-path"><path class="cls-1" d="M78.77,116.83A34.83,34.83,0,1,0,44.28,82,34.67,34.67,0,0,0,78.77,116.83Z"/></clipPath></defs><g id="Color_bubbles" data-name="Color bubbles"><circle class="cls-2" cx="82" cy="82" r="82"/></g><g id="Logos"><path class="cls-3" d="M78.77,116.83A34.83,34.83,0,1,0,44.28,82,34.67,34.67,0,0,0,78.77,116.83Z"/><path class="cls-4" d="M94.5,85.56c-3.22,3.89-5,5.22-8.32,5.22-1.11,0-1.69-.24-1.39-.76l3.89-7.76h1.48c1.65,0,1.42,1.38,1,3.26-.07.26.13.27.32,0l3.69-6.45c.19-.4-.28-.48-.51-.17A5,5,0,0,1,90,81.23h-.67l4.13-7.87h1.68c2.1.13,3.07,1.9,2.48,6.19h.87l3.07-6c.24-.5-.28-1-.85-1H80c-1.2,0-1.25.92-.1.92.93,0,.88,1.32,0,2l-8.8,6.94L73,90.62a1.1,1.1,0,0,0,1.22.92H91.29A1.37,1.37,0,0,0,92.5,91l3.11-5.34C96,84.86,95,84.92,94.5,85.56ZM82.58,81.83H81.05a.19.19,0,0,0-.19.19.2.2,0,0,0,.19.19h1.53c.52,0,1,.07.86.3l-4,7.51a.89.89,0,0,1-1.7-.06L75.86,79.87l6.9-5.34A6.29,6.29,0,0,1,85.44,73H87c.91,0,1.24.42,1,1l-.27.52c-.17.28-.71.32-1.17.32h-.92a.19.19,0,0,0-.2.19.2.2,0,0,0,.2.19h.85c.37,0,.84,0,.66.28L84,81.57C83.81,81.78,83.15,81.83,82.58,81.83Z"/><path class="cls-4" d="M68.38,90.61a.93.93,0,0,1-.86-.63,2.5,2.5,0,0,1,0-1.53l8-14.11c.13-.26.46-.76.85-.76.71,0,1-.92-.18-.92H69.82c-1.19,0-1.21.9-.07.9a.53.53,0,0,1,.57.5.52.52,0,0,1,0,.27l-1.76,3.11c-.22.35-.71.37-1.23.37H65.75a.2.2,0,0,0-.19.19.18.18,0,0,0,.19.19h1.53c.42,0,.77.12.5.6L61.89,89.46c-.42.59-1.27.72-1.21-.4l2.09-15.63c.08-.49-.05-.83-.58-.83H59a1,1,0,0,0-.77.43L57.1,74.44a1.23,1.23,0,0,1-.82.14H53.63a.19.19,0,0,0-.19.19.19.19,0,0,0,.19.2H55.8c.38,0,.83.08.67.26L53.4,79.05a.94.94,0,0,1-.57.13H52a.2.2,0,0,0-.2.19.19.19,0,0,0,.2.19h.71c.22,0,.22.11.13.21L50,83.34a1.2,1.2,0,0,1-.72.17H46.73a.19.19,0,0,0-.19.19.2.2,0,0,0,.19.19H48.9c.32,0,.58,0,.41.27l-4.07,5.07c-.76,1-4.43,1.46-5.15,1.46L53.85,65.12A1.49,1.49,0,0,1,55,64.36h2.91c1.37,0,1.33-.91.14-.91H43.42c-1.19,0-1.24.91.14.91h2.71c.77,0,1,.46.82.84l-.39.71c-.13.23-.31.32-1.06.32H40.85a.19.19,0,0,0-.19.19.2.2,0,0,0,.19.19h4.78c.27,0,.65.07.4.53l-.66,1.24a.86.86,0,0,1-.77.28H42.45a.19.19,0,1,0,0,.38h2.16c.31,0,.31.21.14.49l-1.54,2.86c-.14.24-.38.27-.87.27h-.88a.2.2,0,0,0-.19.19.19.19,0,0,0,.19.19h.86c.33,0,.41.19.26.5l-1.27,2.37c-.18.34-.45.47-1.29.47H35.23a.19.19,0,0,0-.19.19.2.2,0,0,0,.19.19H40c.53,0,.76.24.52.63L38.05,82c-.14.2-.55.23-1.24.23H32a.19.19,0,0,0-.19.19.18.18,0,0,0,.19.19h4.75c.57,0,.92,0,.76.32l-1.42,2.67c-.26.41-1,.41-1.28.41H33.29a.2.2,0,0,0-.19.19.19.19,0,0,0,.19.19h1.54c.52,0,.81.1.67.38l-1.9,3.57c-.18.31-.92.32-1.5.32H24.69a.2.2,0,0,0-.19.19.2.2,0,0,0,.19.2H32.1c.49,0,1.11.06.88.45l-1.22,2.28c-.12.19-.53.21-1.13.21H29.1a.19.19,0,0,0-.23.15.19.19,0,0,0,.15.22h1.61c.38,0,.82,0,.67.32l-.77,1.46a1.21,1.21,0,0,1-1.07.68H25.72c-1.37,0-1.33.91-.13.91H47.44c.63,0,.66-.08,1-.55l3.25-5.62H68.2C69.39,91.54,69.09,90.64,68.38,90.61Zm-13-1.67c-.16.93-1.09,1.53-2.3,1.86l-1.21.29,1-1.78c.27-.5-.3-.76-.93,0-4.2,4.9-5.55,7.24-12.1,7.24H38.11c-.53,0-1.12-.21-.77-.71l2.3-4.28h8.79c1.19,0,.88-.89.18-.92a1.64,1.64,0,0,1-1.33-.84,1.24,1.24,0,0,1,0-1.26l3.35-4.43h5.61Zm1.31-5.61H51.25l6.9-9Z"/><path class="cls-4" d="M139.49,86.13c-.09-.45-.25-.18-.54.38-.1.18-.39.18-.67.18h-.88a.19.19,0,0,0-.19.19.2.2,0,0,0,.19.19h.86c.33,0,.34.22.19.55a14.73,14.73,0,0,1-2,3.15,1.08,1.08,0,0,1-.73.31h-.88a.19.19,0,0,0-.19.19.2.2,0,0,0,.19.19h.85c.43,0,0,.27-.09.37a19.35,19.35,0,0,1-3.7,3.81,4,4,0,0,1-1.2.07h-.87a.19.19,0,0,0,0,.38h.85c.65,0,.17.37.07.45A11.55,11.55,0,0,1,123.17,99a7.47,7.47,0,0,1-6.75-6.22c-.07-.34-.33-1-.41-1.44-.16-.83,2.21-1.07,2.87-.63A11.25,11.25,0,0,0,124,92c1.69,0,5.14-1.21,6.13-4.1s-1.53-6.23-2.69-7.36c-1.45-1.44-2.81-3.75-2.24-5.43a2.45,2.45,0,0,1,2.72-1.85,3.19,3.19,0,0,1,3.48,3.12c0,.16-.09.36-.23.36h-.71a.2.2,0,0,0-.19.19.19.19,0,0,0,.19.19h.67a.27.27,0,0,1,.26.37c-.14.61-.18,1-.31,1.66-.08.36.45.6.62.34l3.17-5.59c.23-.42-.28-.54-.65-.41-.87.3-2.3.5-2.78.15a6.19,6.19,0,0,0-3.91-1.39c-2.82,0-4.8.69-6.06,3-.09.18-.38.17-.61.17h-.56a.2.2,0,0,0-.19.19.19.19,0,0,0,.19.19h.46c.2,0,.33.06.23.28a5.61,5.61,0,0,0-.23.65,5.71,5.71,0,0,0,.28,3.65c0,.08-.07.12-.27.12h-.86a.19.19,0,1,0,0,.38h.86c.39,0,.49,0,.65.27.44.62.9,1.09,1.47,1.8.18.23-.58.3-1,.29H118.5a.19.19,0,0,0-.19.2.19.19,0,0,0,.19.19H122a5.44,5.44,0,0,1,1.61.1,8.37,8.37,0,0,1,2,3.69c0,.35-.09.51-.53.51h-.47a.19.19,0,0,0-.19.19.2.2,0,0,0,.19.19H125c.35,0,.55.05.47.32-.45,1.42-1.12,2.45-3.83,2.44-2.87,0-3.45-2.82-2.62-5.73.17-.59,0-.83-.27-.38l-2,3.13a.71.71,0,0,1-.54.25h-.29a.19.19,0,1,0,0,.38c.25,0,.35.14.25.27l-.76,1.14a36.93,36.93,0,0,0-4.29-7.37v-.06c2.66-.16,6.58-2.64,7.22-4.85,1.12-3.81-2.63-5.27-4.68-5.27h-9c-1.19,0-1.28.9-.13.9.61,0,1.16.54.88,1.09l-2,3.62c-.17.29-.77.27-1.59.27H101a.2.2,0,0,0-.19.19.19.19,0,0,0,.19.19h.86c.58,0,1.21,0,1,.45l-2.35,4.22c-.12.2-.42.21-1.22.21h-.87a.2.2,0,0,0-.19.2.2.2,0,0,0,.19.19h.85c.63,0,.87.08.69.41l-3.15,5.65a1.89,1.89,0,0,1-1.59.49c-1.14,0-1.14.9.06.9H103c1.19,0,.89-.93.18-.93a.89.89,0,0,1-.58-1.2l4-7.43h.39c1.75,0,2.17,2.85,2.5,6,0,.23-.4.24-1.27.24H106a.2.2,0,0,0-.2.19.19.19,0,0,0,.2.19h2.16c.57,0,1.38,0,1.39.19a32.26,32.26,0,0,0,.53,3.66c.08.35-.53.29-1.19.29h-2.78a.2.2,0,0,0-.19.19.19.19,0,0,0,.19.19h2.75c.87,0,1.32,0,1.37.19,1.19,4.36,6.33,7.8,11.32,7.62a17.45,17.45,0,0,0,9.76-4,33,33,0,0,0,7.56-9.08A3.54,3.54,0,0,0,139.49,86.13Zm-28.8-5.82c-.6.49-1.53,1-1.73.88a7.35,7.35,0,0,0-1.48-1l3.57-6.49a.69.69,0,0,1,.7-.35c1.4,0,1.85,1.52,1.2,3.36a8.28,8.28,0,0,1-2.28,3.59Z"/><path class="cls-4" d="M67.32,66.84A3.15,3.15,0,0,1,64.57,68h-.31l1.9-3.73a.6.6,0,0,1,.53-.3c.24,0,.21-.47-.1-.47h-3c-.26,0-.34.47-.1.47s.3.28.17.52L62,67.81a.83.83,0,0,1-.52.29c-.25.06-.42.51-.14.51H66.1a.6.6,0,0,0,.56-.27l1-1.47C67.75,66.68,67.43,66.66,67.32,66.84Z"/><path class="cls-4" d="M81.67,63.63a.64.64,0,0,1-.63,0,2.92,2.92,0,0,0-1.53-.54,2.26,2.26,0,0,0-2.43,1.27c-.41.9,0,1.65,1,2.1.42.2,1,.46.76,1s-.6.41-1,.4A1.53,1.53,0,0,1,76.4,66.7c-.05-.25-.33-.19-.41-.06L75.31,68c-.11.18.18.38.28.26a.88.88,0,0,1,1-.14,4.23,4.23,0,0,0,1.72.61,2.64,2.64,0,0,0,2.52-1.27c.57-.89.21-1.77-.82-2.29-.55-.25-1-.71-.77-1.21.16-.33.65-.25.89-.21a1.51,1.51,0,0,1,1.06.92.17.17,0,0,0,.2.14.18.18,0,0,0,.13-.09l.36-.83C82,63.71,81.76,63.58,81.67,63.63Z"/><path class="cls-4" d="M114.74,65l.42-.76c.18-.34-.12-.71-.59-.71H109c-.4,0-.28.41-.11.41.35,0,.46.43.24.8l-1.67,3.05a.9.9,0,0,1-.77.42c-.29,0-.39.41,0,.41h5.65a.43.43,0,0,0,.41-.2l.77-1c.18-.25-.23-.25-.35-.13a3.45,3.45,0,0,1-2.77.94h-.65l.76-1.71h.16c.5,0,1.07,0,1.22.36a.23.23,0,0,0,.33.05l.06-.05.65-1.3c.11-.2-.19-.23-.26-.09-.26.46-1.41.33-1.71.33h-.16l1-1.88h1.08a1.52,1.52,0,0,1,1.42,1C114.31,65,114.67,65.12,114.74,65Z"/><path class="cls-4" d="M100.51,63.5h-2c-.41,0-.28.41-.12.41a.66.66,0,0,1,.64.69.59.59,0,0,1-.07.26l-.82,1.53-1.8-2.68a.91.91,0,0,0-.65-.24h-2c-.39,0-.3.42-.13.42.4,0,.3.3.2.52l-1.54,3a.37.37,0,0,1-.49.15.39.39,0,0,1-.16-.15l-1.2-3.92c-.06-.16-.77-.15-.94,0l-3,2.47H85c-.32,0-.43.13-.43.29s.11.31.44.31h.81l-.81.67c-.46.34-.92.76-1.23.76h-.2c-.3,0-.46,0-.46.29s.12.32.4.32H85.9c.46,0,.36-.6.13-.6a.43.43,0,0,1-.44-.42.42.42,0,0,1,.17-.34l.77-.71H88c.87,0,1.47,1,1,1.31l-.41.22c-.18.1-.27.54,0,.54h4.75c.35,0,.27-.47.11-.47-.48,0-.26-.69-.16-.88l1.24-2.35,1.71,3.41c.12.21.22.32.42.32h.67c.22,0,.29-.13.38-.29l2-3.58c.32-.64.57-.82,1-.82C100.8,63.92,100.91,63.5,100.51,63.5ZM87.23,65.94l1.86-1.53v1.53Z"/><path class="cls-4" d="M72.4,63.27c-1.67,0-3.39.81-3.74,2.56a2.56,2.56,0,0,0,2,3,2.32,2.32,0,0,0,.59,0A3.75,3.75,0,0,0,75,66.05C75.36,64.41,74.1,63.27,72.4,63.27Zm.46,3.19c-.52,1.06-1.41,1.68-2,1.4s-.59-1.37-.06-2.41,1.41-1.68,2-1.4S73.39,65.41,72.86,66.46Z"/><path class="cls-4" d="M106.15,65.82H104c-.4,0-.28.41-.12.41a.31.31,0,0,1,.33.29v.07c0,.86-.38,1.19-1.12,1.19s-1.11-1-.56-2.19a2.69,2.69,0,0,1,2.38-1.53c.68,0,1.25.15,1.33.76,0,.16.25.16.34,0l.5-.9c.06-.1,0-.22-.18-.22s-.42.16-.61,0a4.26,4.26,0,0,0-5.84,1.39l-.08.13a2.33,2.33,0,0,0,1.78,3.49,5.87,5.87,0,0,0,2.07-.76l.55.37a.67.67,0,0,0,.42.22h.21c.18,0,.26-.25.33-.42l.84-2C106.69,66,106.63,65.82,106.15,65.82Z"/><path class="cls-4" d="M135.53,63.63a.64.64,0,0,1-.63,0,2.92,2.92,0,0,0-1.54-.54,2.27,2.27,0,0,0-2.43,1.27c-.41.9,0,1.65,1,2.1.43.2,1,.46.77,1s-.6.41-1,.4a1.53,1.53,0,0,1-1.46-1.14c0-.25-.33-.19-.4-.06L129.16,68c-.1.18.18.38.29.26a.89.89,0,0,1,1-.14,4.08,4.08,0,0,0,1.73.61,2.62,2.62,0,0,0,2.51-1.26c.57-.89.21-1.77-.82-2.29-.55-.25-1-.71-.77-1.21.16-.33.65-.25.9-.22a1.51,1.51,0,0,1,1.12.9.18.18,0,0,0,.33.05l.36-.83C135.89,63.71,135.66,63.58,135.53,63.63Z"/><path class="cls-4" d="M120.62,66.84A3.18,3.18,0,0,1,117.86,68h-.3l1.9-3.73A.6.6,0,0,1,120,64c.24,0,.21-.47-.1-.47h-3c-.26,0-.35.47-.11.47s.3.28.17.52l-1.69,3.32a.78.78,0,0,1-.51.29c-.25.06-.42.51-.13.51h4.76a.55.55,0,0,0,.55-.27l1-1.47C121.05,66.68,120.75,66.66,120.62,66.84Z"/><path class="cls-4" d="M127.81,63.92a1.54,1.54,0,0,1,1.42,1c.05.12.4.22.48.07l.41-.76c.19-.34-.11-.71-.59-.71H124c-.4,0-.29.41-.13.41.36,0,.47.43.26.8l-1.68,3.05a.92.92,0,0,1-.77.42c-.28,0-.38.41,0,.41h5.64a.42.42,0,0,0,.41-.2l.77-1c.19-.25-.22-.25-.34-.13a3.48,3.48,0,0,1-2.78.94h-.65l.77-1.71h.22c.49,0,1.07,0,1.21.36a.25.25,0,0,0,.35.05l0-.05.66-1.3c.1-.2-.19-.23-.27-.09-.26.46-1.41.33-1.71.33h-.16l1-1.88Z"/><g class="cls-5"><path class="cls-4" d="M105.89,59.44c-.42-.49-1-1.52-5.26-5.21a34.27,34.27,0,0,0-22.28-7.87,32.31,32.31,0,0,0-16.29,4.31A31.39,31.39,0,0,0,51.33,59.9c-.53.67-.6,1.06-.26,1.26s.72-.39,1.17-1A26.86,26.86,0,0,1,60,53.08a5.67,5.67,0,0,1,2.66,2.05,60.27,60.27,0,0,0-6.13,4.25c-1,.76-1.36,1.21-1.09,1.52s1-.25,1.65-.76A55.68,55.68,0,0,1,63.2,56a4.33,4.33,0,0,1,.36,4.23c-.22.28-.25.58,0,.72s.48-.2.8-.67c.77-1.09.46-3.75-.2-4.71a23.84,23.84,0,0,1,6.63-2.45c.15.27,2.27,6.42,2.67,7.53.22.62.44,1.35.89,1.21s.1-.76-.15-1.43c-.31-.83-1.91-6-2.4-7.53a21.77,21.77,0,0,1,4.92-1c-.43,2.28,1.17,3.17,3,4.34,1,.63,7.07,4.12,8.35,4.91.76.45,1.29.76,1.44.52s-.31-.77-1-1.14S82.29,57,79.91,55.48c-1.7-1.06-2.61-2.2-2.21-3.7a21.94,21.94,0,0,1,4-.17c12.11.1,21.82,7,22.91,8.11.54.56,1.31,1,1.61.81S106.15,59.74,105.89,59.44ZM63.68,54.69A7.72,7.72,0,0,0,61,52.48a30.84,30.84,0,0,1,8.16-3.81,25.77,25.77,0,0,1,1.36,3.41A31.29,31.29,0,0,0,63.68,54.69ZM76.9,50.82a34.83,34.83,0,0,0-5.45,1c-.27-.68-1-2.8-1.22-3.48a26.34,26.34,0,0,1,8.88-.88A12.81,12.81,0,0,0,76.9,50.82Zm7.87-.07a39.45,39.45,0,0,0-6.61-.1,7.53,7.53,0,0,1,2.47-3.19,33.67,33.67,0,0,1,5.1.62c4.68.92,12,3.76,15.1,7.94A37.88,37.88,0,0,0,84.77,50.75Z"/><path class="cls-4" d="M108.51,100.68c.45-.83.81-1.29.43-1.53s-.69.57-1.12,1.31a29.42,29.42,0,0,1-6.45,7.62,32.07,32.07,0,0,1-9.85,6.1c-1.32-3.68-6.34-19.35-6.47-19.82-.2-.67-.36-.86-.59-.77s-.1.45,0,1,6.14,19.13,6.3,19.83a32.58,32.58,0,0,1-9.36,2,39.65,39.65,0,0,1-8.29-.41c-2.08-1.67-6.82-8.33-8.62-11.86a51.58,51.58,0,0,1-3.85-9.7c-.17-.77-.39-1.34-.77-1.27s-.18.7.07,1.53a53.91,53.91,0,0,0,3.89,9.52,74.73,74.73,0,0,0,7.72,11.44A33.36,33.36,0,0,1,58.7,109.9a37.22,37.22,0,0,1-8.72-9c-.28-.45-.61-1.09-1-.82-.18.12,0,.63.33,1.14,2.38,4.25,8.17,10.28,15.62,13.57a34.72,34.72,0,0,0,43.6-14.12Z"/></g></g></svg>