<svg xmlns="http://www.w3.org/2000/svg" viewBox="0 0 164 164"><defs><style>.cls-1{fill:#1a8843;}.cls-2{fill:none;stroke:#fff;stroke-miterlimit:10;stroke-width:0.16px;}.cls-3{fill:#fff;}</style></defs><g id="Color_bubbles" data-name="Color bubbles"><circle class="cls-1" cx="82" cy="82" r="82"/></g><g id="Logos"><path class="cls-2" d="M128.6,63.83c-3.73-4.16-12-7.47-22.62-9.49,0-1.22.79-1.74,2.08-2.65a18.44,18.44,0,0,0,2.27-1.77c3.42-3.26-.6-8.24-.77-8.45l-2.22-2.7.53,3.46c.37,2.37-.51,3.21-3.08,5a5.07,5.07,0,0,0-.85.75,17,17,0,0,0-.35-5.55,6,6,0,0,0-1.62-3.1l-.28,3.21S101.44,45,98.12,48a9.26,9.26,0,0,0,.79-1c1.63-2.37,1.16-5.06.61-8.17l-.11-.65c-.56-3.25.32-5.27.87-5.6a23,23,0,0,1,1.62-1.76,4.55,4.55,0,0,0-2.17-.05c-2.08.28-5.55,1.52-5.46,4.36a11.78,11.78,0,0,0,.8,3.46c.37,1.12.74,2.18.42,2.72a3.31,3.31,0,0,1-2.23,1c-4.86.89-8.62,3.18-10.54,6.44a10.24,10.24,0,0,0-1.27,3.46c-12.11,0-23.58,1.55-32.48,4.3-10,3.05-15.43,7.25-15.86,12.1-.23,2.56.93,6.24,7.33,9.79l0,0,1.82.87h0l1,.46h0A61.66,61.66,0,0,0,53.43,83.2a21.61,21.61,0,0,0-3.77,2.67A26.78,26.78,0,1,0,92.94,112c2.16-6.46,1.91-13.4,1.82-16a12.53,12.53,0,0,1,4.56-10.71c8.47-1.08,16-2.93,21.51-5.41h0l.9-.43h0l1.93-.92-.06,0c4.5-2.5,7-5.45,7.28-8.59A7.61,7.61,0,0,0,128.6,63.83ZM119.91,69a2,2,0,0,1,.7,1.56c-.09,1-1.29,2.12-3.32,3.18h0C113,76,105.71,77.7,97,78.59A7.46,7.46,0,0,1,98.25,78l.14-.06c2.5-1,5.34-2.17,5.48-6.31a11.26,11.26,0,0,1,.41-3.4A6.66,6.66,0,0,1,107,65.41l-1.76-.36H105a4.65,4.65,0,0,0,1.32-1.47C113.37,65.06,118.13,67.06,119.91,69Zm-76.49,1C43.73,66.63,56,62.13,76,61.42a11.42,11.42,0,0,0-4.57,7.7l-.21,1.47a12.65,12.65,0,0,1-.64,2.77c-.77,2-2.92,3.67-5.24,4.93-8-1-14.72-2.72-18.65-4.83h0C44.51,72.3,43.33,71.06,43.42,70.05Z"/><path class="cls-3" d="M40.93,108.42A17.06,17.06,0,0,0,47.66,119a18.26,18.26,0,0,0,3.93,2.08c-.87-1.48-1.87-3-2.9-4.47a48.62,48.62,0,0,1-5.16-8.89,18.67,18.67,0,0,1-1.06-10.08h0a25.73,25.73,0,0,0-1.59,8.9c0,.64,0,1.27.08,1.89Z"/><path class="cls-3" d="M45.25,107a47.25,47.25,0,0,0,5,8.54,61.09,61.09,0,0,1,3.92,6.29,22.18,22.18,0,0,0,3.64.53,31.5,31.5,0,0,1-3.36-6.3c-3.72-9.24-3.18-20.66,1.43-27.26a24.68,24.68,0,0,1,8.91-7.73c3.15-1.72,5.13-2.23,7.14-3.46,2.18-1.31,3.35-3.47,1.91-8.36a9,9,0,0,1-.41-3.43,10.34,10.34,0,0,0-1.09,3.43h0a20.91,20.91,0,0,1-.88,4.44c-1.89,5-11.27,7.84-12.51,8.22a22.64,22.64,0,0,0-8.6,4.67A18.45,18.45,0,0,0,45.25,107Z"/><path class="cls-3" d="M84.24,61.35a4.9,4.9,0,0,1,.21.92c.25,1.77-.29,3.19-2.46,3.55s-3-1.58-3.16-3.17a8.28,8.28,0,0,1,.07-1.31H77.78a12.35,12.35,0,0,0-2.54,1.95c-.44,1-1,2.28-.16,5.38,1.46,5.47.84,8.76-3.55,10.65-5.6,2.41-9.17,3.82-14,9.85C55.28,92,54,96.8,53.82,101.58a34,34,0,0,0,2.4,13.71,30.93,30.93,0,0,0,3.88,7.09,26.62,26.62,0,0,0,4.53-.58,11.77,11.77,0,0,1-2.77-7c-.58-8.86,4.2-12.59,11.55-18.48l3.28-2.77C89.81,82.43,86,71.1,87.43,61.43Z"/><path class="cls-3" d="M89.5,61.54a42.17,42.17,0,0,0-.69,6c-.55,8.42-.29,18-11,27.44l-3.22,2.61c-7.15,5.71-11.23,9.29-10.95,17.07a9.53,9.53,0,0,0,3,6.58,28.71,28.71,0,0,0,5.87-2.52A34.43,34.43,0,0,0,89.88,95.52a67.09,67.09,0,0,0,1.39-15.74c0-2.08.26-6.24.26-6.24a23.63,23.63,0,0,1,3.75-11.09l.3-.47C93.63,61.8,91.61,61.65,89.5,61.54Z"/><path class="cls-3" d="M92.62,88.62h0v0c-.28,1.51-.36,3.21-.55,4.9q-.12,1-.27,1.89a2.3,2.3,0,0,1-.1.51A36.11,36.11,0,0,1,73.54,120.4a32.93,32.93,0,0,1-5.09,2.33,12.91,12.91,0,0,0,8.49,2.14c8.76-1.32,13-7,15.08-13.17s1.88-13,1.79-15.73a13.38,13.38,0,0,1,6.82-12.66C95.06,83,93.23,85.43,92.62,88.62Z"/><path class="cls-3" d="M86.77,122.75a18.23,18.23,0,0,1-9.2,3.91,14.46,14.46,0,0,1-11.14-3.14l-.17-.14a26.16,26.16,0,0,1-4.65.81c3.54,3.8,8.2,5.95,14.43,6.38h.09a26,26,0,0,0,10.74-7.92Z"/><path class="cls-3" d="M54.18,129.15a12.67,12.67,0,0,0-1.39-5.79,25.28,25.28,0,0,1-6.24-2.77,15.09,15.09,0,0,1-3.07-2.73h0A25.88,25.88,0,0,0,54.18,129.15Z"/><path class="cls-3" d="M72,131.77a22.16,22.16,0,0,1-12.77-7.47,24.71,24.71,0,0,1-4.21-.41A12.81,12.81,0,0,1,56,130h0a25.77,25.77,0,0,0,16.1,1.76Z"/><path class="cls-3" d="M102.06,68.36c-.61,2-2.59,1.78-3.16.69-.91-1.72-.57-3,.38-4s2.51-1.38,4-2.08h0c-1.74-.29-3.59-.56-5.55-.79l-.08.09-.52.6a21.71,21.71,0,0,0-3.8,10.82l-.1.82a43.17,43.17,0,0,0-.13,5.21v.85c0,.7,0,1.39-.07,2.08h0v-.25A8,8,0,0,1,97.86,77c2.47-1,4.91-1.93,5-5.55a12.17,12.17,0,0,1,.5-3.75,3.23,3.23,0,0,1,1.76-1.65A2.76,2.76,0,0,0,102.06,68.36Z"/><path class="cls-3" d="M105.05,54.16c.18-2.4,2.45-2.85,4.65-4.93,2.82-2.69-.85-7.16-.85-7.16.46,3-.93,4.16-3.47,5.94a3.2,3.2,0,0,0-1.48,2.34,30,30,0,0,1-.4,3.54Z"/><path class="cls-3" d="M97.28,50c-.7.51-1.31,1-1.91,1.56l-1.22,1.19c2.49.21,4.9.5,7.22.84,1.48-2.71,2.19-5.77,1.32-11C102.68,42.58,102.47,46.11,97.28,50Z"/><path class="cls-3" d="M83.4,52.2c2.84,0,5.62.15,8.33.33l.27-.27c1.82-1.95,4.64-3.6,6.14-5.79s.91-4.86.35-8.12c-1-5.59,1.39-6.63,1.39-6.63s-4.68.67-4.62,3.4c.12,3.67,3.9,7.12-1.79,8.16-6.25,1.14-10.14,4.52-11,8.93Z"/><path class="cls-3" d="M83.4,53.68c-26.21-.26-48.07,6.5-48.84,15.1-.29,3.42,2.78,6.62,8.28,9.24a59.59,59.59,0,0,0,12.68,4.16A28.84,28.84,0,0,1,58.66,81a37.56,37.56,0,0,0,4.23-1.55c-7.34-1.1-13.28-2.74-17-4.71-2.7-1.47-4.16-3.1-4-4.82.52-5.78,18.87-10.28,41-10.06s39.64,5.07,39.13,10.84c-.14,1.57-1.6,3.05-4.11,4.37-4.62,2.42-12.78,4.29-22.69,5.16a7.45,7.45,0,0,0-.89,1.58c4.51-1.72,9.71.81,9.71.81a3.64,3.64,0,0,1,.59.3,66.89,66.89,0,0,0,16.47-4.85c5-2.39,8-5.26,8.32-8.36C130.22,61.12,109.6,53.94,83.4,53.68Z"/></g></svg>