<svg xmlns="http://www.w3.org/2000/svg" viewBox="0 0 164 164"><defs><style>.cls-1{fill:#5d76a9;}.cls-2{fill:none;stroke:#fff;stroke-miterlimit:10;stroke-width:0.99px;}.cls-3{fill:#fff;}</style></defs><g id="Color_bubbles" data-name="Color bubbles"><circle class="cls-1" cx="82" cy="82" r="82"/></g><g id="Logos"><g id="Layer_2" data-name="Layer 2"><g id="Layer_1-2" data-name="Layer 1-2"><path class="cls-2" d="M125.09,59.71c-.38-.55-.78-1.07-1.17-1.58,9.79-14.9-13.31-26.32-21.66-13.68a38.08,38.08,0,0,0-20.07,2.24,38.16,38.16,0,0,0-19.87-2.27c-10.1-13.2-30.94.44-21.75,13.54-.44.56-.87,1.14-1.3,1.76C26.2,78.17,36,90.68,36,90.68l2-1.86s2.86,12.86,17.93,21.32l.56-2.79c9.28,9.21,17.88,9,25.9,17.41,7.41-8,18.17-8,26.55-17.91v3.53a28.94,28.94,0,0,0,16.91-22.14l1.43,2.46S138.15,78.16,125.09,59.71Z"/><path class="cls-2" d="M92.25,72.78c.73-.24,2,.47,2.69,1.7,3.14-.84,3-4.77,3-5A20,20,0,0,0,92.25,72.78Z"/><path class="cls-3" d="M82.31,91.78c.87-.13,14.61-.59,6.19,7.35C94.38,91.91,83.72,91.85,82.31,91.78Z"/><path class="cls-3" d="M106.11,50.56s3.09-7.18,12.58-5.45c0,0-8.71-5.32-14.77,4.3,0,0-8.6-3.78-21.55,1.42,0,0-12.28-4-21.54-1.72,0,0-5.4-8.7-13-5.11S44.2,55.86,45.52,58c0,0-12.6,11.92-7.86,26.65l2.54-2.94s3.61,16,12.95,21.11l.56-4s9.75,10.92,21.21,15.56c1.09.48,7.17,3.28,7.36,4.66v-7.65s-8,.62-10.06-2.79c-1.43-2.32-10.57-17.46-6-33.32,0,0-4.4-.61-5.23-7.5a16.57,16.57,0,0,0-7.35-1.18s7.29-2.12,14.12.33S76.37,75.7,81,72.93l1.38-17.61,1.3,17.61C88.31,75.7,90.14,69.45,97,67s14.12-.33,14.12-.33a22.48,22.48,0,0,0-7.6-2.78c-3.91-.73-9.66,1.61-9.66,1.61s.79-5,3.4-7.66C99.47,55.54,104.54,55,106.11,50.56ZM47.16,56.63c-.28-2.39,3-4.78,3-4.78-1.34-1.29-3.69-.17-3.69-.17,2.13-3.87,6.91-2,6.91-2-1.81-2.06-5.65-1.93-5.65-1.93,4.75-4.36,10.47,2.31,10.47,2.31-5.1,1.07-11,6.54-11,6.54Z"/><path class="cls-2" d="M94.1,75.11c7.61,19-2.09,31.23-2.09,31.23,6-14.51,2.14-26.58-.47-31.06a26.58,26.58,0,0,1-3,0,27.86,27.86,0,0,0,3.33-2.26l.35-.29h0c.72-.25,2,.46,2.69,1.7,3.14-.84,3-4.76,3-5a12,12,0,0,1,2.9-.67S100.07,75,94.1,75.11Z"/><path class="cls-2" d="M67.12,69.42c0,.29-.18,4.22,2.95,5.06.68-1.21,1.88-1.91,2.62-1.71A35,35,0,0,0,67.12,69.42Z"/><path class="cls-3" d="M82.28,109.63c-9.6,0-8.3-2-8.3-2,1-.6,7.75-.72,8.29-.72s7.28.12,8.31.72C90.58,107.66,91.87,109.63,82.28,109.63Z"/><path class="cls-2" d="M82.28,101.38V105l-2.65.13a31.85,31.85,0,0,0-6.41,1.12c-6.73-15.49-3-27.2-1.2-31.38-6.68,1.34-7.76-6.1-7.76-6.1a5.45,5.45,0,0,1,2.85.66c0,.29-.18,4.22,3,5.06.67-1.22,1.88-1.92,2.61-1.71.5.35,1,.7,1.36,1,4.54,3.54,8.07,2.82,8.07,2.82s0,13.5,0,15.16c0,0-13.14-1-6.08,7.35,0,0,1.13-3,2.34-2.07A19.14,19.14,0,0,1,82.28,101.38Z"/></g></g></g></svg>