<svg xmlns="http://www.w3.org/2000/svg" viewBox="0 0 164 164"><defs><style>.cls-1{fill:#266092;}.cls-2{fill:#fff;}</style></defs><g id="Color_bubbles" data-name="Color bubbles"><circle class="cls-1" cx="82" cy="82" r="82"/></g><g id="Logos"><path class="cls-2" d="M57.21,45.42a1.87,1.87,0,1,1,1.86-1.88h0a1.87,1.87,0,0,1-1.86,1.87"/><path class="cls-2" d="M127.76,84.1a1.87,1.87,0,1,1,1.9-1.84h0a1.87,1.87,0,0,1-1.89,1.83h0"/><path class="cls-2" d="M123.07,61.91l-.41-.85,1.67-.82.42.86a.92.92,0,0,1-.32,1.27.93.93,0,0,1-1.28-.33l-.06-.13"/><path class="cls-2" d="M82,134.49a52.49,52.49,0,1,1,49.59-69.72l.24.7h0a52.48,52.48,0,0,1-49.83,69m5.44-76.08-1-.07a32.1,32.1,0,0,1-8.63-1.61A18,18,0,0,0,76,59.16c.94,1,2.74,2.86,3.63,3.86,1.53.92,3.07,1.92,4.6,3,2.43-2.74,4.59-5,6.73-7.2-1-.15-2.1-.27-3.23-.36ZM64.64,67.48a39.86,39.86,0,0,0-7.21,22c4.34-4.77,7.88-9.18,10.31-11.52a19.73,19.73,0,0,1,4.9-3.5C71,70.77,68.9,67.74,66,66.29a11.27,11.27,0,0,0-1.4,1.17M76.15,53.63c2.4-1,5-2,7.53-2.79a43.55,43.55,0,0,1,8.19-2.17l-.18-.05a34.73,34.73,0,0,0-17.32-.54,5.59,5.59,0,0,0,0,3.57,4,4,0,0,0,1.82,2m-5,9.8c-1,.46-2,1-3,1.57,2.8,1.86,4.9,5,6.54,8.68a13,13,0,0,1,3.8-.79c1.52-1.93,2.91-3.61,4.2-5.14-1.51-1-3-2-4.55-3a47.53,47.53,0,0,0-7-1.4M79.76,55a30.7,30.7,0,0,0,6.86,1.11,7.77,7.77,0,0,1,1,.09h.25c1.09.09,2.62.26,4.42.58a8.35,8.35,0,0,1,4-2.9,3.9,3.9,0,0,1,2.41,2.3,7.33,7.33,0,0,1,3.75,3.63A29.47,29.47,0,0,1,114,68.21a34.72,34.72,0,0,0-17.3-17.7h0a39.13,39.13,0,0,0-16.45,4.2l-.47.3m36.91,24.12c-.89-4.13-3.78-11.72-13.19-16.54a26.78,26.78,0,0,1-.14,10.1,7.37,7.37,0,0,1,3.2,4.33,1.57,1.57,0,0,1,.61.56c.7.89,1.63,2.92.16,6.91,0,0-.88-1.86-2.72.15-.17.22-.32.44-.47.66a48.32,48.32,0,0,1,7.58,14.85,34.88,34.88,0,0,0,5-21M55.16,91.94a43.55,43.55,0,0,1,2-14.38,40.72,40.72,0,0,1,4.63-9.8c.27-.53.7-1.35,1.24-2.3-6.7-.7-12.77,6.42-15.12,9.61a34.65,34.65,0,0,0,2.53,21.61c1.64-1.54,3.21-3.13,4.71-4.71m44.09,8.63c-.07,3.33,1.58,5.89,2.8,9.85a34.61,34.61,0,0,0,7.94-7.76c-1-5-3.62-10.24-7.23-15.33-2.26,3.69-3.38,7.15-3.5,13.24M69.72,56.39c1.13-.51,2.5-1.12,4-1.76a5.91,5.91,0,0,1-1.48-2.18,7.18,7.18,0,0,1-.33-3.73,35.06,35.06,0,0,0-13.41,7.61h.53c3.29-.2,8-.06,10.66,0m-5.53,7L65.56,61a10.9,10.9,0,0,0-6.17-2.37,28,28,0,0,0-3.17.06,34.55,34.55,0,0,0-6.79,11.14c3.54-3.68,8.84-7.58,14.76-6.43m6.18-5s-3.45-.29-5.26-.34a33.46,33.46,0,0,1,3.09,2.3l-2.1,3.55,4.55-2.48s2.87.48,5.49,1a20.25,20.25,0,0,0-3.31-3l2.4-3.5Zm6.8,18.41C74.51,78.07,70.56,82,70.56,82c1.9-1.3,5.86-1.88,5.86-1.88a13.92,13.92,0,0,1,.7-3.38m26.68-.17a3.14,3.14,0,0,1,1-.11,2.54,2.54,0,0,0-.45-.8,3.79,3.79,0,0,0-.86-.74,2.69,2.69,0,0,1,.3,1.65m-3.53,1.8c.51-.35,1-.63,1.39-.87a6,6,0,0,0-.37-.77,4.06,4.06,0,0,0-1.23-1.14,6.31,6.31,0,0,1,.21,2.8M57.76,105.1a4.41,4.41,0,0,1-1-1,21.46,21.46,0,0,0,5.6-5.72v0s-7.87,5.77-15.92,6.23c0,0,8,1.88,11.33.51m40.17-48c-.43-1-1.82-3.5-4.2.85,2.25-2.41,4.2-.85,4.2-.85m7.83,21.25-.25-.17c-1.25-.7-3.5,1.28-5,2.1s-3.61,2.53-4.65.16,1.36-6.07,2.18-8.4c1.84-5.15,1.91-8.18,1.52-9.79,1.7,1.91,2.23,5.59,2.23,5.59s.63-6.88-2.74-8.69A8.05,8.05,0,0,1,99,60.91h0a13.81,13.81,0,0,1-6.15-.7A105.9,105.9,0,0,0,80.44,76.87a33.9,33.9,0,0,0-3.37,9.64,12.68,12.68,0,0,1-.6-3.11c-1.93.74-8.5,4-9.9,13.86,0,0,4.2-4.3,8.79-6,0,0-2.93,7.65,2.65,21.21,0,0,2.25-8.32,7-10.41,2.85,14.19,11.24,14.42,13.68,24.09,0,0,2.56-5-.52-13.52a4.55,4.55,0,0,1,2,1.36s-.14-2.48-2.46-7.85a23,23,0,0,1-2-6.75c-1.37,1.24-1.7,5.41-1.7,5.41-4.2-11.29,7.63-22.48,9.79-24.13,1-.8,1.71-.82,2.1-.62.41-.84.38-1.4-.11-1.73m7.47-20A39.4,39.4,0,0,0,81.94,42.81,39.32,39.32,0,0,0,43.17,76.65a38.91,38.91,0,0,0,3.84,23c.45-.38.9-.76,1.34-1.15A37.45,37.45,0,0,1,87,44.9h.07a37.44,37.44,0,0,1,15.63,68.3c.12.58.22,1.19.31,1.83a39.1,39.1,0,0,0,12.06-54q-.88-1.41-1.89-2.73M49.52,48.66l-.78.45c-.29.16-.46.17-.63,0s-.15-.45.1-.7h0a1.4,1.4,0,0,1,1-.51h.13l-.1-1.52h-.13A2.94,2.94,0,0,0,47,47.47a2.63,2.63,0,0,0-.7,1.47,1.85,1.85,0,0,0,.63,1.56,2,2,0,0,0,2.61.13l.7-.39c.37-.21.61-.29.82-.1s.17.51-.17.9h0a1.62,1.62,0,0,1-1.34.52h-.13l-.16,1.66h.14A3.34,3.34,0,0,0,52.08,52h0a2.91,2.91,0,0,0,.83-1.71,2,2,0,0,0-.7-1.55c-.75-.7-1.55-.7-2.7,0m-10,35.15,0-1.49-6.65.16V84Zm6.1-23.79,2.51-3.76-1.23-.82L45.17,58l-.94-.61,1.45-2.18-1.24-.82L43,56.55l-.92-.61,1.68-2.52-1.22-.81L40,56.37Zm21.8-18-1.92-4.83,1.72-.7-.55-1.35-4.85,2,.55,1.34,1.72-.7L66,42.67ZM40.08,63.9,35.39,66l-.09.23,6.18,2.57L42,67.4l-3.22-1.29L43.52,64l.09-.23L37.4,61.19l-.57,1.4ZM37,73.86,32.93,77l0,.24,6.64,1,.23-1.47-3.45-.54,4.09-3.18,0-.21-6.65-1.06-.22,1.48Zm56.59-32.6,1.4.43,1.93-6.38-1.4-.42Zm36.51,50.89.35-1.45L124,89.19l-1,4.32,1.47.34.7-2.86ZM114.26,54.5l2.8,3.54,1.17-.92-1.87-2.38.88-.7,1.61,2.07,1.17-.93-1.62-2,.86-.7,1.88,2.37,1.16-.92-2.8-3.54Zm4.61,48.63L116.45,107l1.26.8,1.62-2.56.94.59-1.4,2.21,1.25.79,1.4-2.21.92.59-1.61,2.56,1.24.79,2.42-3.83Zm-30.33-63,.7-5.16,1.83.25.2-1.44-5.16-.7-.2,1.45,1.84.24-.7,5.15Zm36,59.08,3.61-.17.61-1.54-7.36.33-.08.21,5.1,5.32.61-1.53ZM103.32,41.66l-1.19-4.45v0l-.19-.09-3.11,6,1.32.7L101.58,41l.7,2.55.17.08,2.47-.9-1.4,2.75,1.32.7,3.12-6-.21-.1ZM37.22,91.8l-2.7,3.77h0l0,.22,6.58-1.4-.31-1.46-3,.65,1.54-2.15-.05-.18L37,89.91l3-.6-.32-1.47-6.57,1.4,0,.21ZM127,73.25l2.8-2.36-.05-.22-3.58-.84,2.86-1.9-.37-1.54-5.95,4,0,.23,4,.92-3.14,2.64,0,.24,7.1.8-.37-1.54Zm-14.43,38a2.84,2.84,0,0,0-.7,1.21,2.06,2.06,0,0,0,.55,2,2,2,0,0,0,1.93.41c.27-.11.54-.23.8-.36a5,5,0,0,1,1.17-.48c.62,0,.6.84-.18,1.23a4.39,4.39,0,0,1-1.05.32l.19,1.5a4.78,4.78,0,0,0,1.65-.54,2.52,2.52,0,0,0,1.34-2,2.06,2.06,0,0,0-.61-1.52,1.83,1.83,0,0,0-1.49-.49,5.32,5.32,0,0,0-1.68.62c-.2.1-.4.2-.61.28a.41.41,0,0,1-.42-.07.55.55,0,0,1-.13-.52,1.63,1.63,0,0,1,.9-.92,3.35,3.35,0,0,1,1.25-.21V110.2a5.22,5.22,0,0,0-1.91.36,3.63,3.63,0,0,0-1,.7M73.81,37.08l2,3,1.63-.28-4.14-6.07h-.21l-1.86,7.15,1.62-.28Zm-16.6,3.05a3.43,3.43,0,1,0,3.42,3.43h0a3.42,3.42,0,0,0-3.42-3.42h0m70.55,38.71a3.43,3.43,0,1,0,3.42,3.43h0a3.43,3.43,0,0,0-3.42-3.43m-5-15.39a2,2,0,0,0,2.33.28,2.23,2.23,0,0,0,.95-3.26L125,58.25l-6,2.94.66,1.33,2.76-1.35-1.86,3.14.76,1.59,1.47-2.45m-9.17-14.69a2.08,2.08,0,0,0,1-.63,2,2,0,0,0,.48-1.67,2.17,2.17,0,0,0-.79-1.29l-.83-.7-1.12-1-1,1.12-.67.77,0,.06-.92,1.06,0,.06-.7.85-1,1.09,1.12,1,1,.84a2.29,2.29,0,0,0,1.44.59,2,2,0,0,0,1.61-.7,1.94,1.94,0,0,0,.5-1.45"/><path class="cls-2" d="M112.5,45.56l.83.7c.34.3.4.59.16.87a.67.67,0,0,1-.93-.09l-.78-.7Z"/><path class="cls-2" d="M111,49.2l-1-.84.79-.91.92.79c.38.33.46.7.22,1a.63.63,0,0,1-.91,0,.08.08,0,0,1,0,0"/></g></svg>