<svg xmlns="http://www.w3.org/2000/svg" viewBox="0 0 164 164"><defs><style>.cls-1{fill:#00471b;}.cls-2{fill:none;stroke:#fff;stroke-width:0.19px;}.cls-3{fill:#fff;}</style></defs><g id="Color_bubbles" data-name="Color bubbles"><circle class="cls-1" cx="82" cy="82" r="82"/></g><g id="Logos"><g id="Layer_2" data-name="Layer 2"><g id="Layer_1-2" data-name="Layer 1-2"><path class="cls-2" d="M62.21,121.85a1.6,1.6,0,0,1-.53-1.69L67.6,99.25a1.51,1.51,0,0,1,.14-.35L65,94.58a1.61,1.61,0,0,1-.18-1.32L65.22,92l-3.73-.24c-3.5-.25-4.75-.71-5.58-1.16-3.51-1.93-4.43-7.46-4.63-9.11l-.22-1.86a2.54,2.54,0,0,1,.55-2A2.16,2.16,0,0,1,53,76.86c-8.09-7.28-15.41-16.3-12.85-29A24.83,24.83,0,0,1,54.88,29.32a1.67,1.67,0,0,1,.55-.09,1.63,1.63,0,0,1,1.64,1.62,1.54,1.54,0,0,1-.06.43,26.92,26.92,0,0,1,8.91-5.06,1.63,1.63,0,0,1,1.35,2.94,28.65,28.65,0,0,0-8.73,8.14,24.1,24.1,0,0,1,5.25-.71h.34a1.62,1.62,0,0,1,.29,3.2,30.92,30.92,0,0,0-9.51,4.69,28,28,0,0,0,6,27.78c-.31-5.86,1.39-15,12.06-19.28a1.64,1.64,0,0,1,2.13.91,1.62,1.62,0,0,1-.67,2l-.07.05a14,14,0,0,0-4.09,4,15.06,15.06,0,0,1,2.83-.55l.13,0h.19A1.62,1.62,0,0,1,75,61a1.6,1.6,0,0,1-.76,1.39l-.06,0-.07.05c-3.41,2-5.31,4.23-5.65,6.77-.36,2.77,1.19,5.39,2.29,6.86,2.88-3.29,4.75-8.93,5.28-11a1.63,1.63,0,0,1,1.58-1.24h.2a1.63,1.63,0,0,1,1.44,1.61c0,6.92-1.83,11.66-3.75,14.68a14.85,14.85,0,0,0,6.31,1.53h.38a14.88,14.88,0,0,0,6.31-1.53c-1.93-3-3.8-7.76-3.76-14.68a1.65,1.65,0,0,1,1.45-1.61h.19A1.63,1.63,0,0,1,88,65c.52,2.13,2.39,7.76,5.27,11,1.11-1.47,2.66-4.09,2.29-6.86-.33-2.54-2.23-4.82-5.65-6.77l-.1-.07a1.61,1.61,0,0,1-.52-2.24,1.65,1.65,0,0,1,1.38-.77h.19l.13,0a15.58,15.58,0,0,1,2.8.55,13.87,13.87,0,0,0-4.08-4l-.08,0A1.63,1.63,0,0,1,91.08,53c10.68,4.25,12.37,13.42,12.06,19.28a26.61,26.61,0,0,0,2.31-2.87,28.11,28.11,0,0,0,3.64-24.91,30.57,30.57,0,0,0-9.51-4.68,1.62,1.62,0,0,1,.3-3.2h.34a23.57,23.57,0,0,1,5.25.71,28.67,28.67,0,0,0-8.73-8.15,1.62,1.62,0,0,1-.56-2.23,1.65,1.65,0,0,1,1.9-.71A27,27,0,0,1,107,31.28a1.63,1.63,0,0,1,1.15-2,2.1,2.1,0,0,1,.43-.05,1.67,1.67,0,0,1,.55.09,24.83,24.83,0,0,1,14.76,18.49c2.56,12.74-4.76,21.77-12.86,29.05a2.21,2.21,0,0,1,1.37.73,2.51,2.51,0,0,1,.54,2l-.2,1.86c-.2,1.65-1.12,7.19-4.63,9.11-.83.46-2.09.92-5.57,1.17L98.79,92l.38,1.27A1.62,1.62,0,0,1,99,94.58L96.27,98.9a1.51,1.51,0,0,1,.14.35l5.92,20.9a1.62,1.62,0,0,1-.53,1.7l-19.8,16Z"/><path class="cls-3" d="M41.72,48.12A23.35,23.35,0,0,1,55.43,30.85c-4,3-8.16,8.54-9.88,16.36a23.4,23.4,0,0,1,5-4.8A27.2,27.2,0,0,1,66.42,27.77,30,30,0,0,0,55,40c5.62-2,9-1.8,9-1.8a32.41,32.41,0,0,0-10.51,5.25,29.68,29.68,0,0,0-1.67,9.83,30,30,0,0,0,5.35,17,26.18,26.18,0,0,0,6,6.22c-.76-1.9-3.64-16.51,10.28-22.06l-.09.06a15.58,15.58,0,0,0-6.7,9.28A10.62,10.62,0,0,1,73.38,61l-.07,0c-12.93,7.4-2.65,17.43-2.65,17.43,4.08-3.39,6.45-11,7-13.06,0,8-2.64,12.83-4.47,15.17A16.22,16.22,0,0,0,82,83.24h0a16.08,16.08,0,0,0,8.84-2.65c-1.83-2.34-4.51-7.15-4.46-15.17.51,2.07,2.88,9.67,7,13.06,0,0,10.28-10-2.65-17.43l-.07,0a10.62,10.62,0,0,1,6.64,2.83,15.6,15.6,0,0,0-6.69-9.28l-.1-.06c13.92,5.54,11,20.16,10.28,22.06a26.18,26.18,0,0,0,6-6.22,29.8,29.8,0,0,0,3.68-26.87A32.31,32.31,0,0,0,100,38.22s3.39-.2,9,1.8A30.14,30.14,0,0,0,97.59,27.77a27.22,27.22,0,0,1,15.85,14.64,23.1,23.1,0,0,1,5,4.8c-1.7-7.82-5.82-13.4-9.86-16.36a23.35,23.35,0,0,1,13.71,17.27c3.12,15.52-9.38,25.21-19.44,33.51l7.69-3.11c.52-.22.88.28.78.88l-.23,1.88c-.12,1-.89,6.29-3.79,7.88-.63.34-1.71.74-4.9,1l-5.76.37,1,3.21-5.66,9,2.9-3,5.92,20.92L84.51,133.87,89.59,111,82,120.19,74.44,111l5.06,22.83L63.26,120.6l5.92-20.91,2.9,3-5.67-9,1-3.22-5.77-.36c-3.19-.24-4.27-.63-4.9-1-2.9-1.6-3.67-6.85-3.79-7.88l-.23-1.89c-.09-.59.27-1.09.78-.87l7.69,3.11C51.09,73.33,38.61,63.64,41.72,48.12ZM114.54,64.8s6.36-10,2-15.57c-.44-.58-.93-1.09-1.4-1.6,1.78,6.38-.62,17.17-.62,17.17Zm-65.08,0S47.06,54,48.84,47.63c-.47.51-1,1-1.4,1.6C43.1,54.81,49.46,64.8,49.46,64.8ZM98.59,87.9c2.85-.22,6.11-.15,7.45-.88,2-1.09,2.54-5.77,2.54-5.77h0A37.78,37.78,0,0,1,98.59,87.9ZM85.3,109.24H78.71l1.58,2.14h3.42ZM87.13,91a2.83,2.83,0,0,0,4,.18,2.4,2.4,0,0,0,.82-2.41.51.51,0,0,0-.58-.43l-.14,0-3.92,1.79a.51.51,0,0,0-.26.67.58.58,0,0,0,.11.15ZM76,100.23l-.93,4.07,2.28,3.06h2.43l-2.24-3.29.35-2a5.58,5.58,0,0,0,7.86.28,3.83,3.83,0,0,0,.29-.28l.35,2-2.24,3.28h2.42l2.29-3.07L88,100.22a6.23,6.23,0,0,1-2.68-3.35l-1.52-4.94L82,92.77l-1.76-.84-1.52,4.94A6.25,6.25,0,0,1,76,100.22Zm-3.13-9.08a2.83,2.83,0,0,0,4-.18.51.51,0,0,0,0-.72.65.65,0,0,0-.15-.1l-3.93-1.79a.52.52,0,0,0-.68.25.57.57,0,0,0,0,.14,2.36,2.36,0,0,0,.82,2.39ZM55.44,81.26h0S56,85.94,58,87c1.33.74,4.59.67,7.44.89a37.67,37.67,0,0,1-10-6.67Z"/></g></g></g></svg>