<svg xmlns="http://www.w3.org/2000/svg" viewBox="0 0 164 164"><defs><style>.cls-1{fill:#010d3f;}.cls-2{fill:#fff;}</style></defs><g id="Color_bubbles" data-name="Color bubbles"><circle class="cls-1" cx="82" cy="82" r="82"/></g><g id="Logos"><path class="cls-2" d="M134.34,77.62q1.17.57,2.34,1.17s-2.34,3.87-7.94,3.34c.93.44,1.86.89,2.78,1.36,0,.05-2.69,3.81-8.59,3.71,1.36.68,2.18,1.13,2.17,1.13a12.33,12.33,0,0,1-10.21,2.77c.68.49,1.37,1,2.18,1.59a17.8,17.8,0,0,1-10,1.73L109.13,96c0-.06-8.34,2.3-14.29-.32-5.12-2.25-8-7.78-8.61-9.18-1,.22-1.89.35-2.56.43a9.37,9.37,0,0,1-3.34,0c-.67-.08-1.56-.21-2.57-.43-.65,1.39-3.49,6.92-8.6,9.18-5.95,2.62-14.31.26-14.3.32L57,94.42a17.85,17.85,0,0,1-10-1.75c.83-.57,1.5-1.1,2.19-1.59a12.31,12.31,0,0,1-10.22-2.77l2.18-1.13c-5.91.1-8.59-3.66-8.6-3.71l2.78-1.36c-5.6.55-7.93-3.27-7.95-3.33.79-.4,1.57-.8,2.36-1.18a8.47,8.47,0,0,1-7.71-4c16-9.32,39.52-14.1,50.39-14.24,1.31,0,2.2.29,2.66,1.14.75,1.42-.31,3-.76,3.69A11.84,11.84,0,0,0,72,70.7,9.36,9.36,0,0,0,81.66,80h.68A9.36,9.36,0,0,0,92,70.7a11.84,11.84,0,0,0-2.3-6.53c-.45-.68-1.51-2.27-.76-3.69.46-.84,1.35-1.17,2.66-1.14,10.84.17,34.38,4.92,50.39,14.24A8.48,8.48,0,0,1,134.34,77.62ZM73.09,62.69c.84-1.21.43-1.67-2.78-1.39A129.69,129.69,0,0,0,27,73.51a4.84,4.84,0,0,0,4.17.09c.84-.3,2.31-.91,2.31-.91,20.73-8.34,35.86-9,35.86-9-6.21,15.23,8.09,20,8.09,20C63.7,74.75,72.39,63.65,73.09,62.69ZM64.69,68a134.42,134.42,0,0,0-24.24,5.84C42.48,77.48,48,76,48,76,58.41,73,63,72,64.53,71.73A21,21,0,0,1,64.69,68Zm.09,6a129,129,0,0,0-19.29,5.4s2.73,3.11,8.15,1.57c4.55-1.29,10.39-3.12,12.13-3.72A14.19,14.19,0,0,1,64.78,74Zm1.9,5c-1.85.6-11.09,3.59-15,5.09,0,0,2.23,3,8.7.46,4.5-1.78,7-2.81,8.08-3.28A13.74,13.74,0,0,1,66.68,79Zm3.21,3.58c-1.62.7-7.61,3.34-11.08,5,0,0,4.36,2.14,9.85-1.25l3.42-2.25a18.37,18.37,0,0,1-2.19-1.54Zm3.85,2.35c-1.1.68-5.64,3.54-7.87,5.18,0,0,3.78,1.56,7.65-2.08,1.26-1.19,1.94-1.85,2.32-2.24C75.17,85.54,74.49,85.26,73.74,84.92ZM86.6,83.71s14.31-4.78,8.09-20c0,0,15.12.62,35.87,9,0,0,1.45.61,2.3.91a4.84,4.84,0,0,0,4.17-.09A129.63,129.63,0,0,0,93.68,61.3c-3.21-.31-3.64.18-2.79,1.39C91.61,63.65,100.35,74.75,86.6,83.71Zm12.91-12C101,72.05,105.64,73,116,76c0,0,5.54,1.52,7.58-2.11A135.48,135.48,0,0,0,99.36,68,21.06,21.06,0,0,1,99.51,71.75Zm-1.24,5.48c1.75.56,7.58,2.43,12.14,3.72,5.41,1.54,8.14-1.57,8.14-1.57A129,129,0,0,0,99.26,74a14.29,14.29,0,0,1-1,3.25Zm-2.69,4c1.09.47,3.58,1.5,8.08,3.28,6.46,2.5,8.7-.46,8.7-.46-3.9-1.5-13.15-4.5-15-5.1a14.28,14.28,0,0,1-1.81,2.28ZM92,84l3.38,2.24c5.5,3.4,9.86,1.25,9.86,1.25-3.47-1.66-9.46-4.29-11.08-5A18.24,18.24,0,0,1,91.92,84Zm-3.75,1.74c.37.39,1.05,1,2.31,2.24,3.87,3.64,7.65,2.08,7.65,2.08C96,88.44,91.4,85.6,90.3,84.92c-.79.34-1.47.62-2.14.86Z"/><path class="cls-2" d="M82,79.41A12.63,12.63,0,1,0,94.63,92v0A12.65,12.65,0,0,0,82,79.41ZM92.61,90a10.92,10.92,0,0,1-5.7,7.09,18.29,18.29,0,0,1,1.6-4.65c1-2.3,2.11-4.81,1.66-7.51A10.81,10.81,0,0,1,92.61,90ZM76.46,82.76a10.86,10.86,0,0,1,4.76-1.5v17a11.34,11.34,0,0,1-2.51-.47,16.78,16.78,0,0,0-1.8-6C75.52,88.67,74.31,85.87,76.46,82.76Zm2.2,16.63a13.43,13.43,0,0,0,2.6.42v3a10.7,10.7,0,0,1-4-1.07A4.35,4.35,0,0,0,78.66,99.39Zm4.17.42a13.43,13.43,0,0,0,2.6-.42,4.38,4.38,0,0,0,1.37,2.35,11,11,0,0,1-4,1.11Zm2.51-2a10.81,10.81,0,0,1-2.51.48v-17a11,11,0,0,1,4.77,1.5c2.14,3.11.93,5.84-.47,9a16.74,16.74,0,0,0-1.84,6ZM73.86,85c-.48,2.67.62,5.18,1.67,7.51a18.42,18.42,0,0,1,1.59,4.69A10.89,10.89,0,0,1,71.43,90,10.81,10.81,0,0,1,73.86,85Zm-2.5,9a12.35,12.35,0,0,0,5.75,4.94v.21a3.11,3.11,0,0,1-1.26,1.83,10.84,10.84,0,0,1-4.48-7Zm16.8,7a3.14,3.14,0,0,1-1.26-1.83v-.21a12.33,12.33,0,0,0,5.75-4.93,10.8,10.8,0,0,1-4.49,7Z"/><path class="cls-2" d="M89.73,72.05c0,4.94-2.58,7.19-2.58,7.19l-.35,1.39H77.19l-.34-1.39S74.27,77,74.27,72.05c0-6.67,4-9,4-9s.1.4.34.4a15.48,15.48,0,0,0,2.5-1.11l.91-.51.89.51a15.48,15.48,0,0,0,2.5,1.11c.25,0,.35-.4.35-.4S89.73,65.42,89.73,72.05Zm-2.08-1.66a7.15,7.15,0,0,0-1.74-4.72s0,.59-1-.07a5,5,0,0,0-5.81,0c-1,.64-1,.06-1,.06a7.17,7.17,0,0,0-1.74,4.72,5.36,5.36,0,0,0,.57,2.78,5.33,5.33,0,0,0,10.12.06,5.11,5.11,0,0,0,.6-2.84Z"/><path class="cls-2" d="M78.91,72.26a.33.33,0,0,1-.24-.41.31.31,0,0,1,.12-.16,2,2,0,0,0-.42-.39s-.29,1.36.92,1.22c0-.1-.08-.2-.13-.3A.32.32,0,0,1,78.91,72.26Z"/><path class="cls-2" d="M85.63,71.3a2,2,0,0,0-.42.39.31.31,0,0,1,.12.16.33.33,0,0,1-.24.41.28.28,0,0,1-.25,0c0,.1-.09.2-.13.3C85.92,72.66,85.63,71.3,85.63,71.3Z"/><path class="cls-2" d="M87.34,75.69c-.71,3-3.46,16-3.81,18.61A12.07,12.07,0,0,0,84,97.94l.28.57-.31.57a10.14,10.14,0,0,0-.92,1.76l-1,2.59-1-2.6a10.38,10.38,0,0,0-.91-1.75l-.31-.6.27-.54a12.35,12.35,0,0,0,.44-3.78c-.42-2.92-3.11-15.5-3.81-18.47s.73-3.33,3.21-.68h0a1.44,1.44,0,0,0-.37-1.81s-2.09.43-2.14-2.33a1.54,1.54,0,0,0-.24-.83s.53-.5,1.67.38,1.79,3.34,2.42,2.76.39-3.79.71-3.91h0c.33.12.11,3.34.72,3.91s1.26-1.89,2.43-2.76S86.74,70,86.74,70a1.54,1.54,0,0,0-.24.83c0,2.79-2,2.33-2,2.33A1.42,1.42,0,0,0,84.14,75h0C86.61,72.34,88.06,72.71,87.34,75.69ZM79.5,77.52c-.63-1.2-1.78-2-1.35,0,.57,2.5,1.27,6,2.17,10.67Zm4.17,10.63c.89-4.69,1.6-8.16,2.17-10.67.42-1.93-.73-1.16-1.35,0Zm-1.12,1.74c.38-7.24,1-12.38,1-13a3.35,3.35,0,0,0-.13-.84L83,77.41,82.83,75a4.13,4.13,0,0,0-.83-.84h0a3.89,3.89,0,0,0-.83.84L81,77.4,80.62,76a3,3,0,0,0-.12.84c0,.64.57,5.78,1,13s-.52,8.6-.52,8.6a14.75,14.75,0,0,1,1.06,2.1,16,16,0,0,1,1.08-2.1s-.9-1.35-.51-8.6Z"/></g></svg>