<svg xmlns="http://www.w3.org/2000/svg" viewBox="0 0 164 164"><defs><style>.cls-1{fill:#fc671a;}.cls-2{fill:#fff;}</style></defs><g id="Color_bubbles" data-name="Color bubbles"><circle class="cls-1" cx="82" cy="82" r="82"/></g><g id="Logos"><path class="cls-2" d="M27,57.22l54.82,71.16L137,57.22Zm105.8,2.06L81.82,125,31.18,59.28Z"/><path class="cls-2" d="M124.09,65l-12-8L110,51.09l3.72,1.33,1.52,3.67,5.66,1.82-3.3-7.31-10.7-3.8-2,1.52,3.56,11.58L119.9,68l2.93,7.31-4.77-2.15-1.64-4.55-5.84-1.72,3.13,10.29c1,.35,1.92.71,2.86,1.1q3.92,1.59,7.63,3.49c1.72.88,3.42,1.82,5.09,2.8L131.78,82Z"/><path class="cls-2" d="M42.89,70.45l4-3.58,1,1.12-4,11.39q3.24-1.44,6.61-2.62l2.9-9.4L50.9,63.28,56,58.4l3-10-3.68-1.66L52,56.17l-5.31,4.57,4.84-12.21-5.2,2.07L32.05,82l2.23,2.25c1.34-.79,2.68-1.52,4-2.23Z"/><path class="cls-2" d="M79.21,48l-4.36.24-2.1,23.56q2.81-.27,5.64-.37Z"/><path class="cls-2" d="M92.25,67l-5.1-.31-.8-14.44,4.32.21-.5-4L84.35,48l-2.6,2.59V68.69l2.73,2.79q4.23.12,8.36.63Z"/><path class="cls-2" d="M63.33,57.34l1.85,9L64,73.1c1.78-.34,3.58-.64,5.4-.87h0l2.84-23.65-4.09.59-1.32,7.74L65.3,49.63l-4.77,1.2L53.82,75.65c1.93-.59,3.87-1.13,5.84-1.59Z"/><path class="cls-2" d="M98.8,65.65l1.43-1.94,2.1,1.75,2,8.75c2,.51,4,1.09,6,1.73l-3.61-12.86L103,60l2.13-2.84-1.76-6.55-4.49-1,1.77,6.59L97.81,60,95.74,49.14l-4.19-.52s2.09,15.9,3.07,23.72c1.88.27,3.74.59,5.56,1Z"/><path class="cls-2" d="M73.39,76.33a14.07,14.07,0,0,1,5.19-1.4l-.11-2.72q-2.85.09-5.65.36C73,73.63,73.26,75.22,73.39,76.33Z"/><path class="cls-2" d="M84.39,74.77a27.76,27.76,0,0,1,4.23,1,23.32,23.32,0,0,1,3.54,1.27l.58-4.19c-2.79-.34-5.41-.55-8.26-.64C84.44,73,84.44,74.17,84.39,74.77Z"/><path class="cls-2" d="M66.19,81.41C67.78,80.22,68.76,79,70.46,78c-.32-1.52-.75-3.49-1.07-5q-2.76.38-5.48.9C64.61,76.11,65.49,79.14,66.19,81.41Z"/><path class="cls-2" d="M93.56,77.88a20.32,20.32,0,0,1,4.2,3.3l.28.21,2.21-7.32c-1.91-.4-3.76-.74-5.71-1Z"/><path class="cls-2" d="M100.54,84.24l5.28,1.24,4.43-8.75c-2-.66-4-1.22-6.11-1.74Z"/><path class="cls-2" d="M58.14,85.48c1.38-.5,3.3-1.2,5.09-1.68l-3.42-9c-2.06.5-3.87,1-5.89,1.66C55.17,79.45,56.59,82.57,58.14,85.48Z"/><path class="cls-2" d="M50.19,88.74a49.58,49.58,0,0,1,5.34-2.39c-1.59-2.82-3.42-5.92-5-8.8-2.24.8-4.28,1.6-6.43,2.59Z"/><path class="cls-2" d="M42.69,92.7c1-.57,2-1.15,3.08-1.8l-7-8.25c-1.34.69-2.65,1.4-4,2.16Z"/><path class="cls-2" d="M108.61,86.57A80.15,80.15,0,0,1,121,93.06c1.07-1,6.92-7.16,7.72-8a94.23,94.23,0,0,0-15.27-7.22Z"/><polygon class="cls-2" points="83.58 74.63 81.57 74.56 81.54 69.69 83.62 71.85 83.58 74.63"/><path class="cls-2" d="M83.48,75.43c-1.81.64-3.56,1.59-5.28,2.39-1.18-.71-1.86-.89-2.65-1.4A21.33,21.33,0,0,1,83.48,75.43Z"/><path class="cls-2" d="M100.39,85.45c-5.57-5.56-13.9-5.2-21-7.16a49.1,49.1,0,0,1,6.31-2.52A21.76,21.76,0,0,1,100.39,85.45Z"/><path class="cls-2" d="M69.13,86.3a27.44,27.44,0,0,0-1.81,27.14c-5.5-4.61-8.76-13.52-6.31-22.27C63,88.37,65.63,85.88,69.13,86.3Z"/><path class="cls-2" d="M74.85,92.14c2.88,8.56,3.51,18,11,26.66-5.82,1.18-11.58-.56-16.17-3.48C64,107,64.5,94.64,70.19,86.59,73,87.4,74.47,91,74.85,92.14Z"/><path class="cls-2" d="M70.87,85.68a26.05,26.05,0,0,1,2.94-3.44c12.1,3.42,23.62,16,25.6,28.28a23.5,23.5,0,0,1-2.88,3.18,21.25,21.25,0,0,1-9.5,4.86c-5.65-5.85-7.51-13.46-9.5-21C76,91.85,74.94,87.51,70.88,85.75Z"/><path class="cls-2" d="M99.1,85.64c-5.84-5.16-14-4.5-20.8-6.9a27.6,27.6,0,0,0-3.71,2.75c12.1,3.79,23.07,15.62,25.68,27.84a21.3,21.3,0,0,0,3.5-9.29C104.07,94.85,104,90.12,99.1,85.64Z"/><path class="cls-2" d="M72.79,81.87a22.27,22.27,0,0,0-3,3.48h0c-3.18-.72-5.73,1-7.76,3a20.63,20.63,0,0,1,5.15-7.24,18.75,18.75,0,0,1,5.57.73"/><path class="cls-2" d="M73.65,81.12a24.08,24.08,0,0,1,3.62-2.74l-3.1-1.53a20,20,0,0,0-5.79,3.33A29.56,29.56,0,0,1,73.65,81.12Z"/><path class="cls-2" d="M78.68,44.73l-1,1-1.63.1-.62-.53-.79.65-1.78.17-.8-.75,1-7,1.35-.19-.73,6.16,1-.1L75.48,38l1.33-.12L76.26,44l1,0,.48-6.11c.57-.06.86-.05,1.36-.08Z"/><path class="cls-2" d="M83.06,37.68v4.39h.86l-.06-4.37a13,13,0,0,1,1.31.06l.18,4.93-.8.79h-.27v2.11H82.8V43.47h-.29l-.88-.91.07-4.94C82.18,37.62,83.06,37.68,83.06,37.68Z"/><path class="cls-2" d="M72.2,38.49,72,39.93l-1.63.31-.26,1.69c.59-.12,1-.17,1.67-.27-.1.63-.13.85-.23,1.44l-1.64.23-.31,1.59,1.68-.24s-.17,1.09-.26,1.59c-1.17.14-2.39.31-3.48.51,0,0,1.26-5.86,1.6-7.66Z"/><path class="cls-2" d="M66.05,47l-1.69.33.79-3.18-.53-1.14-1.34,4.59L61.62,48c.69-2.48,1.4-5,2.09-7.46.57-.19,1-.31,1.51-.46.18.41.62,1.25.62,1.25l.41-1.55s1-.28,1.59-.4Z"/><path class="cls-2" d="M90,39c.17,2,.5,3.91.7,5.77l-.74,1.13-2.39-.15-.87-.94c-.15-2.05-.25-4.1-.38-6.15a10.06,10.06,0,0,1,.8-.8l2,.19Zm-2.24.33.43,4.78.84.06-.44-4.77Z"/><path class="cls-2" d="M97.73,39.74c.3,1.14.88,3.51.88,3.51l.57.11.28-.38-.75-2.93,1.47.43.79,2.83-.36.52.66.72,1,3.46-1.65-.37L100,45.21,99,45l.56,2.38-1.67-.32c-.58-2.6-1.59-7.73-1.59-7.73S97.06,39.52,97.73,39.74Z"/><path class="cls-2" d="M95.13,40l.54,2.85-.31.43.56.67.49,2.83-1.59-.28-.44-2.38-1-.11.32,2.35-1.59-.2-1.07-7.83,3.06.54Zm-2.31.09.28,2,.9.11-.38-2Z"/></g></svg>