<?xml version="1.0" encoding="utf-8"?>
<!-- Generator: Adobe Illustrator 25.2.1, SVG Export Plug-In . SVG Version: 6.00 Build 0)  -->
<svg version="1.1" id="Layer_1" xmlns="http://www.w3.org/2000/svg" xmlns:xlink="http://www.w3.org/1999/xlink" x="0px" y="0px"
	 viewBox="0 0 656 656" style="enable-background:new 0 0 656 656;" xml:space="preserve">
<style type="text/css">
	.st0{fill:#0077C0;}
	.st1{fill:#FFFFFF;}
</style>
<g>
	<circle class="st0" cx="328" cy="328" r="327.7"/>
</g>
<path class="st1" d="M481.9,256.8c-1-0.4,20.1-9.3,20.1-9.3l-29-9.4l-7.5-35.1l-19,28.3l-29.4-7.5l12.2,15.7
	c-51.4-8.4-115.1-4.9-172.8,13.8l3.4-10.5c-66.1,19-124.5,71.2-151.4,134.7c36.9-31.7,73.5-62.4,128-77.1l-12.3,28.7
	c43.4-23.8,101.6-24.6,147.9-9.6l-3.5,7.7c-28.6-12.1-61.3-13.6-94.1-8.5h-0.2c32,11,59,19.6,85.8,37.2
	c-1.8,49.9,39.2,97.7,92.1,97.3C556.6,452.4,591.7,302.1,481.9,256.8z M521,326.2c-6.6,7.5-14.2,14.1-22.6,19.5
	c-3.8-6.7-8.1-13.2-12.7-19.4c7.5-6,13.8-13.4,18.6-21.8C510.9,310.9,516.6,318.2,521,326.2z M452.6,242l7.6-12.3l2.2,15.1l14.2,4.6
	l-13.1,5.7l1.2,15.1l-10.2-11.6l-13.5,4.7l6.7-12.9l-9.6-12.3L452.6,242z M499.8,300.4c-4.7,8-11,15-18.4,20.6
	c-13-14.8-29.5-26.2-48-33.1c3.5-0.7,7.8-1.1,11-1.6c6.6,1.4,13.1,3.4,19.4,5.9l0.3-0.6c-14-10-38.2-18.4-64.3-24.6
	C461.9,271.9,486.7,287.6,499.8,300.4z M376.5,258.5l4.8-9.2l2.2,10.2l10.3,1.8l-9,5.2l1.5,10.3l-7.8-6.9l-9.3,4.6l4.2-9.5l-7.3-7.5
	L376.5,258.5z M275.2,296.6l-5.1-4.6l-6.2,3l2.8-6.3l-4.8-4.9l6.8,0.7l3.2-6.1l1.4,6.7l6.8,1.2l-5.9,3.4L275.2,296.6z M302.5,283.4
	c-4.4,0-8.5,0-12.4,0c18.1-4.4,36.6-6.7,55.2-6.6c48.7,0.1,100.4,14.6,130.9,47.9c-9.9,6.2-21.4,9.4-33.1,9.3
	c-17.6,0-35.5-6.4-53.1-12.9c3.1-5,6.6-9.7,10.5-14.1h1.1c11.4,0,29.6,8.4,38.7,13.5l0.5-0.5C414.4,288.6,346.6,283.4,302.5,283.4z
	 M386.4,327c18.9,7.1,37.9,13.9,56.9,13.9c13.1,0.1,25.9-3.6,36.8-10.7c4.8,6,9,12.4,12.8,19.1c-32.6,18.8-69.5,28.7-107.1,28.8
	h-4.7C376.9,361,378.8,342.9,386.4,327z M383.2,385.2h1.3c39.1,0.2,77.6-10,111.5-29.4c1.9,4.4,3.5,9,4.9,13.6
	c-26.1,12.8-37.5,40.5-47.7,65.8C421,434.7,394.7,415,383.2,385.2z M502.4,417.5c-11.9,9.8-26.4,15.8-41.7,17.3
	c9.3-22.7,19-47.4,42.3-58.6c1.3,6.7,1.9,13.4,1.9,20.2C505,403.5,504.2,410.6,502.4,417.5z M511.6,408.1c0-2.4,0.1-4.7,0.1-7.1
	c0-9.4-0.9-18.7-2.9-27.8c6.3-2,12.8-3.3,19.4-3.9C526.1,383.4,520.4,396.8,511.6,408.1z M506.9,366.6c-1.6-4.9-3.4-9.6-5.4-14.3
	c8.2-5.4,15.7-11.7,22.6-18.8c3.2,8.8,4.8,18.1,4.8,27.4v1.6C521.4,363,514,364.4,506.9,366.6z"/>
</svg>
