<svg xmlns="http://www.w3.org/2000/svg" viewBox="0 0 164 164"><defs><style>.cls-1{fill:#007dc3;}.cls-2{fill:#fff;}</style></defs><g id="Color_bubbles" data-name="Color bubbles"><circle class="cls-1" cx="82" cy="82" r="82"/></g><g id="Logos"><path class="cls-2" d="M114.38,72.84A164.07,164.07,0,0,1,137,69.4q-12.15,3.72-24.72,8.28C113,76.12,113.72,74.49,114.38,72.84ZM32.65,113.69A165.94,165.94,0,0,1,54.4,97.52c1.5-.76,3-1.51,4.51-2.25.62-.33,1.85-.91,3.35-1.64,1,1.16,2.07,2.28,3.2,3.37Q48.24,105,32.65,113.69Z"/><path class="cls-2" d="M117.59,63.32a161.18,161.18,0,0,1,19.41.32q-10.08,1.41-20.53,3.3C116.88,65.75,117.25,64.55,117.59,63.32ZM27,91.05a167.53,167.53,0,0,1,24.79-12.9c.3.61.61,1.21.93,1.79-.49,1-1,2-1.45,3Q38.76,86.77,27,91.05Z"/><path class="cls-2" d="M75.19,87.52l0,.4a31.23,31.23,0,0,0,6.46-.76c0-.82,0-1.68,0-2.57l-.93.41c-.4-.83-.62-1.16-1-2l-.63,1.73L76.28,87Zm8.06-3.63c0,1,.06,2,.06,2.88,2.11-.53,4-1.08,5.63-1.67a22,22,0,0,1,.75-3.76,8.89,8.89,0,0,1-1.61.43,2.36,2.36,0,0,1-.75,0l-.55.58ZM82,52.62c-12.65,0-22.58,3-33.78,8.55A78.74,78.74,0,0,0,54.1,77.4a15.59,15.59,0,0,1,1.58-2.21l2.62-2.74A14.31,14.31,0,0,1,63.2,69a42.78,42.78,0,0,1-3.31-5.57l-.21-.44c.5-.22,1-.43,1.51-.63l.17.36a41.71,41.71,0,0,0,3.4,5.67c.49-.17,1-.32,1.5-.46,1.66-.45,3.33-.88,5-1.31,1.5-.39,4-1.19,5.2.09l1.69-1.83,1.36-.31c-.41-2.64-.81-5-1.16-6.94.53-.08,1.08-.15,1.62-.21.34,1.88.75,4.21,1.14,6.77l5.74-1.21-.63,1.63-.06.15,1.93-2c1.94-.38,3.87-.75,5.81-1.08l-.32,1a6.72,6.72,0,0,1,3.31-1.38h.16a30.84,30.84,0,0,0,.67-3.7c.58.14,1.17.27,1.75.42a24.68,24.68,0,0,1-.42,3l3.62-.55c-.5,2-1,4-1.51,6l-2.41,2.53,2-.64q-1,3.81-2,7.63L96.23,78.6c-1.1.46-2.93,1.33-4.67,2.06a25.53,25.53,0,0,0-1,3.85c6-2.41,9-5.48,12.39-10.73a29.21,29.21,0,0,1-1.76,5.2,24.22,24.22,0,0,1-10.8,7.34c0,3.7,2.26,3.54,2.63,3.48-.61.51-1.25,1-1.9,1.46-1.45-.67-2.21-2.48-2.26-4.39-1.65.57-3.5,1.09-5.58,1.61,0,.71,0,4.76-1.14,7.07-.87.24-1.75.45-2.64.62.17-.16.38-.36.61-.61a.27.27,0,0,1,.07-.08c.92-1,1.38-3.35,1.51-6.61a32.5,32.5,0,0,1-6.36.69,5.14,5.14,0,0,1-1.65,3.88l-1.06-1.22a3.91,3.91,0,0,0,1-2.68c-.76,0-1.61-.07-2.48-.15L64.42,92.6A80.86,80.86,0,0,0,82,107c18.26-11.3,28.29-25.15,33.77-45.8C104.57,55.59,94.64,52.62,82,52.62ZM45.53,59.94C57.65,53.7,68.29,50.31,82,50.31s24.37,3.39,36.48,9.63C112.86,82.62,102.11,97.63,82,109.68A84.31,84.31,0,0,1,62.26,93.63c-1.5.75-2.75,1.33-3.38,1.64-1.89.94-3.76,1.89-5.67,2.85-2.13,1.08-4.52,2.73-7,2.09-2.68-1.17-.91-4.43-.09-6.28q3.14-7.05,6.54-14a72.32,72.32,0,0,1-6.38-16.72ZM97,62.2a5.38,5.38,0,0,0-3.11,1.42,7.05,7.05,0,0,0-1.4,2.65Q91.1,70.64,89.7,75c-.36,1.14-1,3.24.89,3.09a8.16,8.16,0,0,0,1.8-.62q2.79-1.2,5.6-2.35c.49-1.83,1-3.65,1.43-5.48l-3,.93c-.24.82-.46,1.65-.7,2.47l-2,.75c.88-3,1.76-5.91,2.62-8.84.6-.13,1.2-.27,1.81-.39l-.43,1.55,2.65-.62c.34-1.33.68-2.66,1-4-1.47.22-2.93.44-4.39.68Zm-8.38,1.42q-3.12,4.08-6.18,8.28,1.42-3.77,2.89-7.58-3.24.66-6.47,1.4c-.57,1.3-1.12,2.61-1.66,3.91l1.39-.38q-2.53,6.12-5,12.3-1,2.52-2,5l6.49-3c1-2.71,2-5.42,3-8.12q1.38,2.76,2.74,5.55,2.09-.93,4.2-1.85c-.86-2-1.72-3.9-2.6-5.84,1.55-2.35,3.12-4.69,4.7-7L91.51,66c.34-1,.67-2,1-3ZM62.84,86.2c-1.5.68-3,1.35-4.51,2q3.26-7.56,6.77-15.06c1.32-.41,2.64-.82,4-1.22q-3.21,7.1-6.23,14.26Zm3.6-17.38A14.85,14.85,0,0,0,59,73.11a20.24,20.24,0,0,0-2.78,4.41q-3.41,6.95-6.55,14c-.54,1.24-2.22,4.22-.44,5,2,.51,4.45-1.14,6.19-2,1.89-1,3.76-1.91,5.69-2.85,3.23-1.61,6.14-3.56,8.11-6.7a31.39,31.39,0,0,0,2-4.15Q73,76.23,75,71.67c.48-1.14,1.32-2.57,1-3.81-.54-1.66-3.35-.65-4.57-.34-1.66.42-3.31.86-5,1.31Z"/><path class="cls-2" d="M105,59.68c.83.28,1.68.58,2.49.89C106.68,60.25,105.84,60,105,59.68Zm-.15-.19c.88.29,1.72.59,2.55.9,2.07.75,3.91,1.55,5.42,2.25A72.23,72.23,0,0,1,85,101.85l-1.1.75a63.71,63.71,0,0,1-6.32-5.27L79.43,97A30.31,30.31,0,0,0,104.31,62.2l-.11-.66V60c-.09-.35-.17-.65-.25-.93A2.28,2.28,0,0,0,104.86,59.49Z"/></g></svg>