<?xml version="1.0" encoding="utf-8"?>
<!-- Generator: Adobe Illustrator 25.2.0, SVG Export Plug-In . SVG Version: 6.00 Build 0)  -->
<svg version="1.1" id="Color_bubbles" xmlns="http://www.w3.org/2000/svg" xmlns:xlink="http://www.w3.org/1999/xlink" x="0px"
	 y="0px" viewBox="0 0 656 656" style="enable-background:new 0 0 656 656;" xml:space="preserve">
<style type="text/css">
	.st0{fill:#006BB6;}
	.st1{fill:#FFFFFF;}
	.st2{clip-path:url(#SVGID_14_);}
	.st3{clip-path:url(#SVGID_15_);}
	.st4{clip-path:url(#SVGID_16_);}
	.st5{clip-path:url(#SVGID_17_);}
	.st6{clip-path:url(#SVGID_18_);}
	.st7{clip-path:url(#SVGID_19_);}
	.st8{clip-path:url(#SVGID_20_);}
	.st9{clip-path:url(#SVGID_21_);}
	.st10{clip-path:url(#SVGID_22_);}
	.st11{clip-path:url(#SVGID_23_);}
	.st12{clip-path:url(#SVGID_24_);}
	.st13{clip-path:url(#SVGID_25_);}
	.st14{clip-path:url(#SVGID_26_);}
</style>
<circle class="st0" cx="328" cy="328" r="328"/>
<g>
	<path class="st1" d="M139.2,367.7c-21.8-104,44.9-206,148.9-227.8c50-10.5,102.2-0.6,144.9,27.4c43,27.7,72.9,71.5,83.1,121.6
		c10,50,0.2,101.9-27.4,144.8c-27.7,43-71.6,72.9-121.7,83c-104,21.8-206-44.9-227.8-148.9C139.3,367.8,139.2,367.7,139.2,367.7
		 M393.2,178.3c-0.8-8.7-6.8-16.7-13.1-22.6c-29-8.9-59.7-10.2-89.4-4c-11.4,2.4-22.6,5.8-33.4,10.3c7-1.1,14.1-1.6,21.1-1.6
		c33.8,0.2,68.2,13.3,104.3,39.7C390.4,193,393.9,185.7,393.2,178.3 M355.6,489.3c-8.4,7.8-17.8,14.3-28,19.5
		c12.4,0,24.8-1.3,37-3.8c42.8-8.8,81-33,107.2-68c9.6-38.4,14.8-99.5-23.3-158.6c-10.3,10.3-19.8,27.1-25.2,49.8l-1.6,7
		C411.1,379.7,393.4,454.4,355.6,489.3 M424.6,235.9c9.4,9.2,18,19.2,25.7,29.9c8.2-5.7,16.9-8.2,25.4-6.4c9.9,2,18.9,11.1,26,20.5
		c-7.5-27.3-21.4-52.4-40.6-73.2C452.3,213.1,439.9,223,424.6,235.9 M150.7,320.1l-3.5,8.2c0,12.4,1.3,24.8,3.8,36.9
		c6.3,30.3,20.3,58.5,40.6,81.8c86.7-92.1,167.8-167,220.4-211.6c-9.2-8.7-18.9-17-29-24.8c-23.1,17.3-61.6,23.9-92.8,29.2
		c-10.9,1.6-21.8,3.8-32.5,6.5l-1.1,0.3C232.5,253.9,168.3,273.1,150.7,320.1 M418.5,230c15.2-12.8,27.6-22.6,36.7-29.4
		c-17.1-17-37.4-30.4-59.6-39.5c3.3,4.9,5.3,10.5,6,16.4c1,9.8-3.2,19-11.9,27.6c9.5,7.4,19.1,15.7,28.9,24.9 M376.1,205.5
		c-60.3-43.4-108.3-44.6-151-26.6c-19.1,13.7-35.5,30.9-48.4,50.6c-15,22.8-24.6,48.7-28,75.7c24.1-42,82.5-59.5,105.7-66.5l1.1-0.3
		c11-2.9,22.2-5.1,33.5-6.8C318.3,226.7,354.3,220.6,376.1,205.5 M473.8,267.5c-5.7-1.2-12.3,0.7-18.9,5.4
		c24.3,37.1,35.5,81.2,31.8,125.4c-0.5,6.7-1.3,13.2-2.3,19.3c19.8-34.5,27.5-74.7,21.9-114.1C500,291.3,486.4,270.1,473.8,267.5
		 M418.2,241.3c-51.9,44-133.4,118.9-220.8,211.9c29.3,30.4,68.2,49.7,110.2,54.5c15.9-4.7,30.5-13.1,42.5-24.5
		c36.1-33.1,53.3-106.3,63.6-150l1.7-7c5.7-23.9,16.2-43.3,28.5-55.1c-7.6-10.7-16.1-20.7-25.5-29.9"/>
	<path class="st1" d="M389.9,402c-6.5,0-10.3-5.9-10.9-11.9l27.8-7.5c-0.8-13.5-8.6-25.7-23.4-25.7c-15.7,0.1-26.1,12.4-26.1,30.3
		c0,14.1,8.1,26.9,25.1,26.9c9.8,0.2,19-4.8,24.2-13.2l-5.5-6.5C398.3,398.7,395.2,402,389.9,402z M377.6,376.3
		c0-4.2,0-11.9,4.6-11.9s5.1,6.5,5.1,10c0,4.3-2,5.3-5,6.1l-4.9,1.3L377.6,376.3z"/>
	<path class="st1" d="M435.4,412.7h-29.3v-7.4l5.1-0.7v-23.1c0-8.2-1.1-12.1-6.9-12.1V363l20.8-6.1c2.2,4.8,3.3,9.9,3.4,15.2h0.2
		c2.1-6.2,4.7-15,11.5-15c6,0,8.6,4.6,8.6,10.3c0,5.7-2.6,10.3-6.9,10.3c-2.4-0.2-4.8-0.7-7-1.7c-3.8-1.3-5.1,15.4-5.1,18.7v10
		l5.1,0.7L435.4,412.7z"/>
	<path class="st1" d="M484.6,367.7c0,4.5-3.9,6.8-8.1,6.8c-4.9-0.3-8.9-4.1-9.5-9c-2.1,0-3.7,1.1-3.7,4.7c0,8.5,24,2.6,24,23.9
		c0,16.1-11.6,20.1-22.8,20.1c-6.8,0-18.7-0.9-18.7-11.3c0-4.7,2.6-8.3,7.3-8.3c7.3,0,8.5,6.7,9.8,11.4c0.3,1.2,1.4,1.4,2.6,1.4
		c3.8,0,6.6-1.6,6.6-4.1c0-9.6-24.6-5.9-24.6-26.8c0-13.3,15.7-19.3,23.3-19.3c8.6,0,14,2.9,14,10.3"/>
	<path class="st1" d="M320.8,332.4c-9.3,0-18.9,3.7-23.9,11.5h-0.2l0.9-13.5c0.5-9.2,2.6-34,15.4-34c6.1,0,4.7,8.1,5.4,11.8
		c1.7,8.6,5.4,18.5,17.2,18.5c8.7,0.3,16-6.4,16.3-15.1c0-0.4,0-0.8,0-1.2c0-16.8-14-27.8-31-27.8c-43.6,0-61.2,33.4-61.2,73.7
		c0,35.1,13.6,65.3,51.1,65.3c24.4,0,44.1-17.3,44.1-46.4C355,350.6,342,332.4,320.8,332.4z M308,408c-10.4,0-10-13.4-10-28.8
		c0-15.4,1.5-28.8,10-28.8c10.5,0,11,13.3,11,28.8s-2.3,28.8-11.2,28.8H308z"/>
	<path class="st1" d="M176.7,281.9v52c29.1,4.3,63.9,1.5,88.5-34.5c1-1.5,1.6-0.4,1,0.9c-6.9,14-23.1,26.9-37.2,37.9
		c-13.6,10.6-49.8,48.6-49.3,82c0,2.6,0,1.8,2.4,0.2c11-8.2,32.5-8.4,45.7-2.1c1.8,0.8,2,0.6,1.8-1.8c-2.6-25.9,3.3-54.2,14.4-70.6
		c7.7-11.4,28.2-40.6,31.8-63.6c0.4-2.4-0.9-2-3.8,1.1c-23.3,24.6-65.5,24-92.6-2.1C177.6,279.7,176.7,280.5,176.7,281.9"/>
	<polygon class="st1" points="227.1,202.6 228.7,207.9 234.4,207.9 229.8,211.2 231.5,216.5 227.1,213.3 222.6,216.5 224.3,211.2 
		219.7,207.9 225.4,207.9 	"/>
	<polygon class="st1" points="260.3,222 262,227.3 267.6,227.3 263.1,230.6 264.7,235.8 260.3,232.6 255.8,235.8 257.6,230.6 
		252.9,227.3 258.6,227.3 	"/>
	<polygon class="st1" points="246,207 247.7,212.3 253.4,212.3 248.8,215.7 250.5,220.9 246,217.7 241.6,220.9 243.3,215.6 
		238.7,212.3 244.3,212.3 	"/>
	<polygon class="st1" points="265.7,240.3 267.4,245.6 273,245.6 268.5,248.9 270.1,254.1 265.7,250.9 261.3,254.1 263,248.9 
		258.4,245.6 264,245.6 	"/>
	<polygon class="st1" points="263.3,259.6 265,264.9 270.7,264.9 266.1,268.2 267.8,273.5 263.4,270.2 258.9,273.5 260.6,268.2 
		256,264.9 261.6,264.9 	"/>
	<polygon class="st1" points="252.7,275 254.3,280.3 260,280.3 255.4,283.7 257.1,288.9 252.7,285.7 248.2,288.9 249.9,283.7 
		245.3,280.3 251,280.3 	"/>
	<polygon class="st1" points="235.9,283.7 237.6,289 243.2,289 238.6,292.3 240.3,297.5 235.9,294.3 231.5,297.5 233.1,292.3 
		228.5,289 234.2,289 	"/>
	<polygon class="st1" points="193.3,220.3 191.5,225.5 185.9,225.5 190.5,228.9 188.8,234.1 193.2,230.9 197.7,234.1 196,228.9 
		200.6,225.5 195,225.5 	"/>
	<polygon class="st1" points="207.1,207 205.4,212.3 199.8,212.3 204.4,215.7 202.7,220.9 207.1,217.7 211.6,220.9 209.9,215.6 
		214.5,212.3 208.9,212.3 	"/>
	<polygon class="st1" points="186.8,237.9 185.1,243.2 179.5,243.2 184.1,246.5 182.4,251.7 186.8,248.5 191.2,251.7 189.5,246.5 
		194.2,243.2 188.5,243.2 	"/>
	<polygon class="st1" points="188.5,257.2 186.8,262.5 181.2,262.5 185.8,265.8 184.1,271.1 188.5,267.9 192.9,271.1 191.2,265.8 
		195.8,262.5 190.2,262.5 	"/>
	<polygon class="st1" points="199.2,273 197.5,278.3 191.8,278.3 196.4,281.6 194.7,286.8 199.2,283.6 203.7,286.8 201.9,281.6 
		206.5,278.3 200.9,278.3 	"/>
	<polygon class="st1" points="216,283 214.3,288.3 208.7,288.3 213.2,291.6 211.6,296.8 215.9,293.7 220.4,296.8 218.7,291.6 
		223.3,288.3 217.7,288.3 	"/>
	<g>
		<defs>
			<polygon id="SVGID_1_" points="227.1,202.6 228.7,207.9 234.4,207.9 229.8,211.2 231.5,216.5 227.1,213.3 222.6,216.5 
				224.3,211.2 219.7,207.9 225.4,207.9 			"/>
		</defs>
		<defs>
			<polygon id="SVGID_2_" points="260.3,222 262,227.3 267.6,227.3 263.1,230.6 264.7,235.8 260.3,232.6 255.8,235.8 257.6,230.6 
				252.9,227.3 258.6,227.3 			"/>
		</defs>
		<defs>
			<polygon id="SVGID_3_" points="246,207 247.7,212.3 253.4,212.3 248.8,215.7 250.5,220.9 246,217.7 241.6,220.9 243.3,215.6 
				238.7,212.3 244.3,212.3 			"/>
		</defs>
		<defs>
			<polygon id="SVGID_4_" points="265.7,240.3 267.4,245.6 273,245.6 268.5,248.9 270.1,254.1 265.7,250.9 261.3,254.1 263,248.9 
				258.4,245.6 264,245.6 			"/>
		</defs>
		<defs>
			<polygon id="SVGID_5_" points="263.3,259.6 265,264.9 270.7,264.9 266.1,268.2 267.8,273.5 263.4,270.2 258.9,273.5 260.6,268.2 
				256,264.9 261.6,264.9 			"/>
		</defs>
		<defs>
			<polygon id="SVGID_6_" points="252.7,275 254.3,280.3 260,280.3 255.4,283.7 257.1,288.9 252.7,285.7 248.2,288.9 249.9,283.7 
				245.3,280.3 251,280.3 			"/>
		</defs>
		<defs>
			<polygon id="SVGID_7_" points="235.9,283.7 237.6,289 243.2,289 238.6,292.3 240.3,297.5 235.9,294.3 231.5,297.5 233.1,292.3 
				228.5,289 234.2,289 			"/>
		</defs>
		<defs>
			<polygon id="SVGID_8_" points="193.3,220.3 191.5,225.5 185.9,225.5 190.5,228.9 188.8,234.1 193.2,230.9 197.7,234.1 196,228.9 
				200.6,225.5 195,225.5 			"/>
		</defs>
		<defs>
			<polygon id="SVGID_9_" points="207.1,207 205.4,212.3 199.8,212.3 204.4,215.7 202.7,220.9 207.1,217.7 211.6,220.9 209.9,215.6 
				214.5,212.3 208.9,212.3 			"/>
		</defs>
		<defs>
			<polygon id="SVGID_10_" points="186.8,237.9 185.1,243.2 179.5,243.2 184.1,246.5 182.4,251.7 186.8,248.5 191.2,251.7 
				189.5,246.5 194.2,243.2 188.5,243.2 			"/>
		</defs>
		<defs>
			<polygon id="SVGID_11_" points="188.5,257.2 186.8,262.5 181.2,262.5 185.8,265.8 184.1,271.1 188.5,267.9 192.9,271.1 
				191.2,265.8 195.8,262.5 190.2,262.5 			"/>
		</defs>
		<defs>
			<polygon id="SVGID_12_" points="199.2,273 197.5,278.3 191.8,278.3 196.4,281.6 194.7,286.8 199.2,283.6 203.7,286.8 
				201.9,281.6 206.5,278.3 200.9,278.3 			"/>
		</defs>
		<defs>
			<polygon id="SVGID_13_" points="216,283 214.3,288.3 208.7,288.3 213.2,291.6 211.6,296.8 215.9,293.7 220.4,296.8 218.7,291.6 
				223.3,288.3 217.7,288.3 			"/>
		</defs>
		<clipPath id="SVGID_14_">
			<use xlink:href="#SVGID_1_"  style="overflow:visible;"/>
		</clipPath>
		<clipPath id="SVGID_15_" class="st2">
			<use xlink:href="#SVGID_2_"  style="overflow:visible;"/>
		</clipPath>
		<clipPath id="SVGID_16_" class="st3">
			<use xlink:href="#SVGID_3_"  style="overflow:visible;"/>
		</clipPath>
		<clipPath id="SVGID_17_" class="st4">
			<use xlink:href="#SVGID_4_"  style="overflow:visible;"/>
		</clipPath>
		<clipPath id="SVGID_18_" class="st5">
			<use xlink:href="#SVGID_5_"  style="overflow:visible;"/>
		</clipPath>
		<clipPath id="SVGID_19_" class="st6">
			<use xlink:href="#SVGID_6_"  style="overflow:visible;"/>
		</clipPath>
		<clipPath id="SVGID_20_" class="st7">
			<use xlink:href="#SVGID_7_"  style="overflow:visible;"/>
		</clipPath>
		<clipPath id="SVGID_21_" class="st8">
			<use xlink:href="#SVGID_8_"  style="overflow:visible;"/>
		</clipPath>
		<clipPath id="SVGID_22_" class="st9">
			<use xlink:href="#SVGID_9_"  style="overflow:visible;"/>
		</clipPath>
		<clipPath id="SVGID_23_" class="st10">
			<use xlink:href="#SVGID_10_"  style="overflow:visible;"/>
		</clipPath>
		<clipPath id="SVGID_24_" class="st11">
			<use xlink:href="#SVGID_11_"  style="overflow:visible;"/>
		</clipPath>
		<clipPath id="SVGID_25_" class="st12">
			<use xlink:href="#SVGID_12_"  style="overflow:visible;"/>
		</clipPath>
		<clipPath id="SVGID_26_" class="st13">
			<use xlink:href="#SVGID_13_"  style="overflow:visible;"/>
		</clipPath>
		<g class="st14">
			<circle class="st1" cx="227.1" cy="250.7" r="49.9"/>
		</g>
	</g>
</g>
</svg>
