<?xml version="1.0" encoding="utf-8"?>
<!-- Generator: Adobe Illustrator 25.2.0, SVG Export Plug-In . SVG Version: 6.00 Build 0)  -->
<svg version="1.1" id="Color_bubbles" xmlns="http://www.w3.org/2000/svg" xmlns:xlink="http://www.w3.org/1999/xlink" x="0px"
	 y="0px" viewBox="0 0 656 656" style="enable-background:new 0 0 656 656;" xml:space="preserve">
<style type="text/css">
	.st0{fill:#E03A3E;}
	.st1{fill:#FFFFFF;}
</style>
<circle class="st0" cx="328" cy="328" r="328"/>
<path class="st1" d="M430.3,259c4.5,6.6,8.3,13.6,11.4,21c12.9,30.7,12.9,65.4,0,96.1c-6.2,14.6-15.1,27.9-26.3,39.1l0,0l-62,62
	h-160l54.9-54.9c-2.6-2.2-5.2-4.6-7.6-7c-11.3-11.2-20.3-24.6-26.5-39.2c-12.9-30.7-12.9-65.4,0-96.1c6.2-14.7,15.2-28,26.5-39.2
	l0.1-0.1l0,0l61.7-61.8h160.1l-54.9,54.9c2.7,2.2,5.2,4.5,7.6,7C420.9,246.3,425.9,252.4,430.3,259 M408,247.8
	c-2.4-2.4-4.9-4.7-7.5-6.9l-67.2,67.2c3.4,1,6.5,2.8,9,5.3l0,0c8.1,8.1,8.1,21.3,0,29.4L218,467.2h14.5l117.2-117.1
	c12-12.1,12.1-31.6,0.1-43.8l7.3-7.3c16.1,16.2,16.1,42.3,0,58.4l-110,109.8h14.6l102.6-102.6c20.1-20.2,20.2-52.8,0.1-73l7.4-7.3
	c24.1,24.2,24,63.4-0.1,87.5l-95.4,95.3h14.6l88-88c28.2-28.2,28.2-73.9,0.1-102.1l7.3-7.3c32.2,32.3,32.1,84.5-0.1,116.7
	l-80.7,80.7H320l73.4-73.4c36.2-36.3,36.2-95,0-131.3l7.3-7.3c40.2,40.4,40.2,105.7-0.1,146l-66,66h14.6l58.8-58.8l0,0
	C452.4,364.1,452.4,292.2,408,247.8C408.1,247.9,408.1,247.9,408,247.8 M248,408.3c2.4,2.4,4.9,4.7,7.5,6.9l67.2-67.2
	c-3.4-1-6.5-2.8-9.1-5.3l0,0c-8.1-8.1-8.1-21.3,0-29.4l124.6-124.6h-14.6L306.3,306.1c-12,12.1-12,31.6,0,43.8l-7.3,7.3
	c-16.1-16.2-16-42.3,0.1-58.4l110-110h-14.6L291.7,291.4c-20.1,20.2-20.2,52.8-0.1,73l-7.3,7.3c-24.1-24.2-24-63.4,0.1-87.5
	l95.5-95.5h-14.6l-88.2,88.1c-28.2,28.2-28.2,73.9,0,102.1l-7.3,7.3c-32.2-32.3-32.1-84.5,0.1-116.7l80.8-80.8h-14.6l-73.6,73.6
	c-36.2,36.3-36.2,95,0,131.3l-7.3,7.3c-40.2-40.4-40.2-105.7,0.1-146l66.1-66.2h-14.6L248,247.7l0,0
	C203.6,292,203.6,363.9,248,408.3C247.9,408.2,247.9,408.3,248,408.3"/>
</svg>
