<?xml version="1.0" encoding="utf-8"?>
<!-- Generator: Adobe Illustrator 25.2.0, SVG Export Plug-In . SVG Version: 6.00 Build 0)  -->
<svg version="1.1" id="Color_bubbles" xmlns="http://www.w3.org/2000/svg" xmlns:xlink="http://www.w3.org/1999/xlink" x="0px"
	 y="0px" viewBox="0 0 656 656" style="enable-background:new 0 0 656 656;" xml:space="preserve">
<style type="text/css">
	.st0{fill:#F9A01B;}
	.st1{fill:#FFFFFF;}
</style>
<circle class="st0" cx="328" cy="328" r="328"/>
<g>
	<path class="st1" d="M298.4,361.2l-163,86.8l147.9-111.2L144.9,409l130-99l-121.2,64.4l120.5-93.7l-29.3-2.6l34.5-17.3L245.1,240
		l57.9-12.4l11.2-61.7l62.7,32.9l38.1-38l21.2,50.9l45.1-20.7l-13.4,57l48.9,20.6L480,300.8l17.5,54.1l-39.7,5.7l-31.2,94
		l-58.9-55.5l-26,14.5l2.6-18.2l-156.1,89.8l128.6-103.9L127.2,485.2L298.4,361.2z M383.9,203.4c-52.1-2.2-96.1,38.3-98.2,90.5
		c-2.2,52.1,38.3,96.1,90.5,98.2c52.1,2.2,96.1-38.3,98.2-90.4c2.2-52.1-38.3-96.1-90.3-98.2C383.9,203.4,383.9,203.4,383.9,203.4z"
		/>
	<path class="st1" d="M474.2,298.8c0.1-3.3-0.1-6.7-0.4-10c-5.8-4.1-12.5-6.8-19.6-7.7c-1.5-0.2-2.8-0.3-4.3-0.4
		c-0.9-6.2-2.3-12.2-4.2-18.2l2.9,0.2c6.7,0.5,13.2,1.2,19.6,2.2c-0.9-2.4-1.9-4.8-3-7.1c-7.2-1.1-14.6-2-22.1-2.6l0,0
		c-2.4-6.1-5.3-11.9-8.8-17.5c4.7-0.8,9.1-3,12.6-6.2c-1.8-1.8-3.6-3.6-5.6-5.2c-3.2,2.8-7.2,4.5-11.5,4.9l-2.1-2.9
		c-6.2-8.1-13.6-15.3-22-21.3c-7.2-2.1-14.7-3.3-22.2-3.7h-1.3c14.7,5.9,27.6,15.5,37.5,27.8c-11-1.6-21.8-4.1-32.3-7.5
		c-3.3-1-6.6-1.9-9.7-2.8c-14.5-4.4-29.6-6.2-44.8-5.2c-8.2,4.6-15.7,10.5-22.1,17.4c11.9-5,35.8-13.4,64.9-5.4
		c3.1,0.9,6.3,1.8,9.6,2.8c13,3.8,27.3,8,39.8,8.1c3.4,5.1,6.4,10.5,8.9,16.2c-2.6-0.1-4.9-0.2-7.3-0.2c-60.6-1-112.6,17.1-141.5,46
		c0.2,5.7,0.8,11.3,2,16.9c9.4-12.9,21.7-23.5,35.7-31c29.4-16.5,68.3-25.2,109.7-24.4c1.4,0,2.9,0,4.3,0c2.1,6,3.6,12.2,4.7,18.5
		c-26.8,1.2-43.9,17.9-63.8,35.5c-17.8,16-39.5,31.9-71.3,41.6c3,3.7,6.2,7.2,9.8,10.4c30-12.1,49.9-30.8,66.7-45.9
		c19.1-17.1,35.5-33.4,59.6-34.2c0.6,6.7,0.6,13.5,0,20.3c-3.2,37-24.7,68.4-53.9,83.8c7.4-0.7,14.6-2.3,21.6-4.7
		c2.3-1.9,4.6-4,6.8-6.1c19.4-19.4,31.3-45,33.5-72.3c0.6-6.9,0.6-13.8,0-20.6c1.2,0,2.4,0.2,3.6,0.4
		C461.9,289.8,468.8,293.4,474.2,298.8z"/>
</g>
</svg>
