<svg xmlns="http://www.w3.org/2000/svg" viewBox="0 0 164 164"><defs><style>.cls-1{fill:#0d223f;}.cls-2{fill:#fff;}</style></defs><g id="Color_bubbles" data-name="Color bubbles"><circle class="cls-1" cx="82" cy="82" r="82"/></g><g id="Logos"><path class="cls-2" d="M29.5,97.57A20,20,0,0,0,35.57,111,19.15,19.15,0,0,0,42.1,97.57Z"/><path class="cls-2" d="M43.83,97.57a20.88,20.88,0,0,1-6.93,14.61,19.9,19.9,0,0,0,11.72,4.46V97.57Z"/><path class="cls-2" d="M29.5,95.82H42.1a19.09,19.09,0,0,0-6.52-13.57A20,20,0,0,0,29.5,95.82Z"/><path class="cls-2" d="M36.9,81.08a20.8,20.8,0,0,1,6.93,14.74h4.79V76.61A19.89,19.89,0,0,0,36.9,81.08Z"/><path class="cls-2" d="M69.48,97.57H56.93A19.16,19.16,0,0,0,63.42,111,20,20,0,0,0,69.48,97.57Z"/><path class="cls-2" d="M55.17,97.57h-4.8v19.07a19.91,19.91,0,0,0,11.73-4.46A20.84,20.84,0,0,1,55.17,97.57Z"/><path class="cls-2" d="M62.1,81.08a19.92,19.92,0,0,0-11.73-4.47V95.82h4.79A20.85,20.85,0,0,1,62.1,81.08Z"/><path class="cls-2" d="M85.35,47.36,67.57,88.07a20.09,20.09,0,0,0-4.15-5.82,19.08,19.08,0,0,0-6.49,13.57h12.6L82.35,66.37H119.9l8.3-19Z"/><polygon class="cls-2" points="126.2 66.37 134.5 47.36 130.97 47.36 122.66 66.37 126.2 66.37"/></g></svg>