<svg xmlns="http://www.w3.org/2000/svg" viewBox="0 0 164 164"><defs><style>.cls-1{fill:#1d428a;}.cls-2{fill:none;stroke:#fff;stroke-miterlimit:10;stroke-width:0.78px;}.cls-3{fill:#fff;}</style></defs><g id="Color_bubbles" data-name="Color bubbles"><circle class="cls-1" cx="82" cy="82" r="82"/></g><g id="Logos"><path class="cls-2" d="M82,32.8A49.2,49.2,0,1,0,131.4,82,49.3,49.3,0,0,0,82,32.8Z"/><path class="cls-3" d="M82,35.19A45.27,45.27,0,1,0,114.55,112a3.51,3.51,0,0,0,.9-.94A45.27,45.27,0,0,0,82,35.19ZM47.64,78.33c.63-1,1.26-2.12,1.88-3.28l-.25,1.47-.33,1.88-.74,4.26-3.29,18.69c-.56-1-1.07-1.95-1.54-3l2.76-15.6.5-2.77c.11-.19.23-.4.36-.6Zm9.86-18c.24.26.47.5.7.76,0,1.51.09,3.64.15,6.18.09,3.31.19,7.36.31,11.72,0,1,.06,2,.09,3.08.19,6.56.42,13.64.66,19.92,0,.86.07,1.72.1,2.55l-1,.11c0-.57,0-1.15-.06-1.72-.27-6.71-.46-14-.61-20.82,0-1.07,0-2.12-.07-3.16-.08-4.11-.14-8-.19-11.25C57.55,64.76,57.53,62.23,57.5,60.35ZM60.87,64l.22.23L62,67l3.87,12.28.81,2.56,1.41,4.48,1.06,3.34,4.33,13.57-2.89.24-2.87-9.18-1.07-3.41-2.82-9-.85-2.73-1.73-5.53c-.09-2.53-.18-4.84-.24-6.89,0-1,0-1.92-.1-2.76Zm1.7,1.78,1.64,1.71c.6.61,1.18,1.2,1.77,1.78l.22.23.3.91,1.72,5.38,1.13,3.54.79,2.4v.09l6.76,21.12-2.63.2-4.79-15.3L68.4,84.41l-.81-2.63-.74-2.5L63,67.21ZM52.92,78.72l1.32-7.49c0,2.35-.08,4.91-.12,7.56,0,1.16,0,2.34,0,3.53,0,1.48,0,3-.06,4.49h-.13l-3.37,18.9c-.94.12-1.77.23-2.48.34l4.21-23.62Zm1,33.67c-.51-.45-1-.91-1.51-1.39l1.49,0c0,.49,0,1,0,1.41Zm-2.48-6.84,2.51-14c-.06,4.94-.09,9.69-.09,13.73Zm10-26.44c0-.57,0-1.17-.07-1.73l.55,1.75.88,2.8L66,92.14l1.08,3.45,2.51,7.94-2.42.22-1.59-5-1.13-3.61-2.71-8.53c-.07-1.55-.14-3.08-.2-4.59C61.5,81,61.47,80,61.43,79.11Zm.94,19.36c-.16-2.69-.31-5.44-.44-8.19l1.89,5.94L65,99.84l1.28,4-3.54.36,0-.66C62.57,101.88,62.47,100.2,62.37,98.47Zm-2.25,18.37c-.33-.19-.66-.4-1-.6-.12-1.68-.23-3.52-.33-5.46h1C59.89,113.14,60,115.21,60.12,116.84Zm3.08-6.17c5-.11,10.9-.19,17.13-.18h4.29c8.35.08,16.92.36,24.14,1l2,.18-1,.86A42.67,42.67,0,0,1,64,118.88C63.74,116.63,63.46,113.84,63.2,110.67Zm43.67-1.2c-5-.24-12.29-.45-22.4-.45h-4.1c-3.19,0-6.58.06-10.29.13,3.46-.15,6.92-.27,10.3-.36l4.07-.08c8.28-.16,15.89-.13,21.69-.07,3,0,5.6.09,7.48.13-.32.36-.66.66-1,1C111.25,109.71,109.33,109.59,106.87,109.47Zm-29-29.31c.59.5,1.16,1,1.74,1.44L81,82.74l.84.69,1.59,4.94,4.44,13.91-2.88.15-1.14-3.54L81,89.78l-2.64-8.17Zm13.6,10.33.15.1-.13,0L95.17,102l-2.74.09L87.93,88c1.2.87,2.38,1.67,3.52,2.44v.07h0Zm6,3.83c1.13.66,2.22,1.31,3.26,1.86l1.78,5.69H99.89l-1.63-5.25Zm4.4,2.48c1.17.66,2.27,1.19,3.29,1.69l1.07,3.37h-2.78l-1.09-3.54Zm4.44,2.26a65.72,65.72,0,0,0,7.25,2.92c-2.13-.06-4.24-.08-6.34-.09ZM99,102l-2.87.06L92.65,91.27c1.32.85,2.52,1.63,3.71,2.35Zm-7.48.21-2.64.11L83.35,85l-.17-.53.14.15c1.12.87,2.22,1.7,3.29,2.49ZM76.73,79.38l.66,2.24,3.48,10.92L84,102.47h0l-2.56.15-.78-2.47-5.85-18.5-.72-2.27L73,75.92q1.83,1.65,3.58,3.15Zm-3.55,0,.72,2.27,6.7,21-2.71.19L71.18,81.7l-.75-2.32-.33-1.07L67.81,71c.46.45.93.89,1.39,1.31.83.79,1.65,1.57,2.46,2.32Zm-19.87-8L52,78.64l-.65,3.8-4,22.62c-.6-.85-1.2-1.71-1.74-2.62l3.54-19.88.72-4.08L50.45,75l.43-2.41c1.21-2.25,2.37-4.6,3.45-7Zm-8,11.47L42.77,97c-.49-1.14-.92-2.31-1.32-3.5l1.89-8.39,1.49-2.27c.2-.32.39-.66.6-1Zm-4.45,8.52c-.17-.65-.32-1.31-.46-1.92.44-.65.94-1.31,1.5-2.14Zm79.05,8.42A97.93,97.93,0,0,1,99,92.5c-1-.48-2-1-2.89-1.45a115.87,115.87,0,0,1-12.83-7.74c-.79-.54-1.56-1.09-2.31-1.64l-.14-.1c-1-.72-2-1.45-2.92-2.18q-2.31-1.78-4.38-3.54-2.4-2-4.47-3.93c-1.22-1.12-2.35-2.21-3.39-3.24L65.05,68c-1.64-1.65-3.06-3.16-4.21-4.44,0-1-.06-1.83-.08-2.58-.06-1.87-.08-3-.08-3l-1.32-.59-.92.79-.31.27s0,.72,0,2l-.69-.85V56.51H55.65v1.08l-1.11.27s0,2.31-.11,6a90,90,0,0,1-7.91,14.41C45.26,80.1,44.07,81.68,43,83c-1.24,1.52-2.32,2.71-3.16,3.59-.15-1.07-.26-2.16-.33-3.28-.07-.94-.11-1.9-.11-2.86s0-1.93.11-2.88A42.16,42.16,0,0,1,50.38,52a41,41,0,0,1,4.37-4.17,42.53,42.53,0,0,1,24.47-9.69c.92-.06,1.83-.06,2.78-.06s2.14.05,3.19.13a42.51,42.51,0,0,1,24.48,10,43.72,43.72,0,0,1,4.18,4.1,42.15,42.15,0,0,1,10.58,24.86c.08,1.08.14,2.16.14,3.28a23.07,23.07,0,0,1-.08,2.36,42,42,0,0,1-4.62,17Z"/><path class="cls-3" d="M54.77,47.8A42.19,42.19,0,0,0,50.38,52a29.37,29.37,0,0,1,6.29,4.54h.77v.74c.32.32.65.65,1,1l.92-.8,1.32.6s0,1.09.09,2.95a48.84,48.84,0,0,1,4.92,7.57L69,71.69C65.85,59,57,49.94,54.77,47.8ZM124.6,80.43c0-1.1,0-2.18-.14-3.28-10.18,1-19.63,1.57-28.27,1.89.44-6.63,3.65-12.61,8.19-18.37a32.72,32.72,0,0,1,9.47-8.33,44,44,0,0,0-4.18-4.13C106.37,51.49,95.5,63.3,94.73,79.1q-6,.21-11.47.27C83,54.77,85,39.6,85.18,38.14c-1.06-.09-2.13-.09-3.18-.09s-1.84,0-2.76.09c.21,2,1.71,17.06,1.78,41.29H78c1,.73,1.92,1.45,2.92,2.18H81v.1c.73.54,1.5,1.07,2.29,1.6V81.57q5.43,0,11.4.09a36.92,36.92,0,0,0,1.46,9.39c.95.49,1.92,1,2.89,1.45a28.23,28.23,0,0,1-2.91-10.8c8.67.17,18.15.5,28.33,1.1.05-.8.08-1.57.08-2.37Zm-85.17,0c0,1,0,1.92.1,2.87.61-.06,1.79-.17,3.5-.3,1.07-1.31,2.27-2.9,3.52-4.76-3.79-.31-6.19-.59-7-.66a26.54,26.54,0,0,0-.14,2.85Z"/></g></svg>