<svg xmlns="http://www.w3.org/2000/svg" viewBox="0 0 164 164"><defs><style>.cls-1{fill:#5a2c84;}.cls-2{fill:#fff;}</style></defs><g id="Color_bubbles" data-name="Color bubbles"><circle class="cls-1" cx="82" cy="82" r="82"/></g><g id="Logos"><path class="cls-2" d="M39.86,94.46A42.39,42.39,0,0,0,46.3,110c1.93-3.38,5.77-7.54,13.33-9.35-.58-1.94-1.09-4-1.53-6.15Z"/><path class="cls-2" d="M49.33,113.94a42.9,42.9,0,0,0,32.32,15.18c-1.17-.6-2.31-1.26-3.41-2-5.26-3.4-12.49-10-17.15-22.28-7.36,1.62-10.46,5.77-11.76,9.06"/><path class="cls-2" d="M65.61,104.24c3.32,8.33,8.32,14.73,14.89,19A33.69,33.69,0,0,0,91.74,128a43,43,0,0,0,18.59-9.6c-4.18-.46-8.48-2.87-13-5.41-7.08-4-15.9-8.92-27.8-8.92C68.24,104.06,66.92,104.13,65.61,104.24Z"/><path class="cls-2" d="M68.59,99.59c9.06-.18,18,2.09,29.44,8.59,8.45,4.82,12.16,6.29,14.69,5.66,2.34-.58,4.5-2,8.32-10a41.89,41.89,0,0,0,3-9.38H62.62c.43,1.88.85,3.71,1.41,5.41A41,41,0,0,1,68.59,99.59Z"/><path class="cls-2" d="M83.51,72.8H68.18V91h6.38V76.4h4.78V91H85.4V75.35C85.4,74,84.55,72.8,83.51,72.8Z"/><path class="cls-2" d="M88.08,72.8V88.43c0,1.39.84,2.59,1.88,2.59h15.28V80h-6.1v7.45H94.36V76.35h10.88V72.8Z"/><polygon class="cls-2" points="51.28 72.8 47.82 80.16 45.83 80.16 45.83 72.8 39.5 72.8 39.5 91.02 45.83 91.02 45.83 83.69 47.82 83.69 51.28 91.02 57.61 91.02 53.15 81.92 57.61 72.8 51.28 72.8"/><rect class="cls-2" x="59.29" y="72.8" width="6.55" height="18.22"/><path class="cls-2" d="M124.49,77.73V72.8h-16.8v8.33c0,1.38.85,2.51,1.89,2.51h8.56v4H107.69V91H124.5V82.63c0-1.3-.72-2.51-1.68-2.51H114V76.35h4.39v1.38Z"/><polygon class="cls-2" points="106.62 54.32 101.26 54.32 112.32 43.25 103.94 34.88 92.82 45.93 81.77 34.88 62.35 54.32 56.99 54.32 68.03 43.23 59.69 34.88 48.64 45.93 39.5 36.86 39.5 54.99 39.5 69.45 124.49 69.45 124.49 55.43 124.49 36.44 106.62 54.32"/><rect class="cls-2" x="52.01" y="61.37" width="2.15" height="2.41"/><rect class="cls-2" x="117.44" y="61.36" width="2.15" height="4.15"/><rect class="cls-2" x="75.23" y="61.37" width="2.15" height="2.41"/><rect class="cls-2" x="67.44" y="61.37" width="2.15" height="1.72"/></g></svg>