<svg xmlns="http://www.w3.org/2000/svg" viewBox="0 0 164 164"><defs><style>.cls-1{fill:#fff;fill-rule:evenodd;}</style></defs><g id="Color_bubbles" data-name="Color bubbles"><circle cx="82" cy="82" r="82"/></g><g id="Logos"><path class="cls-1" d="M124.5,29.35V51.1L104.31,86.86H86.11L72.27,102.49l12.79-.79L72.63,111.93l10.11,11.64-15.6-4-4.39,15.09L57,120.8l-14,4.57,8.65-12.91L39.5,103.9l15.29-.64-1-14,8.83,9.55,4.71-11.93H56.94l-2.79-7L70.78,50.19l1.07-9.36,6.26-11.48H90V50.84L78.55,71H93.83l11.7-20.79L106.67,41l6.58-11.6ZM110.73,39.7h5.53l3.85-7.23h-5.33ZM76,39.7h6l3.8-7.23H80Zm-1.41,9.11h5.36l.5-6.21H75.25Zm34.62,0h5.37l.5-6.21h-5.19Zm4.46,3.71L99.3,78.3H83.1L64,106.5,74.33,106l-6.72,5.55,5.46,6.31-8.45-2.2-2.39,8.18-3.1-7.49-7.57,2.48,4.69-7-6.58-4.63,8.18-.46-.28-6.65,5.06,5.66L74.93,78.3H58.74L73.36,52.52h5.69L66.92,73.81H96l12.09-21.29ZM63,111a2.46,2.46,0,1,0-2.46,2.46A2.46,2.46,0,0,0,63,111v0Z"/></g></svg>