<svg xmlns="http://www.w3.org/2000/svg" viewBox="0 0 164 164"><defs><style>.cls-1{fill:#cd1141;}.cls-2{fill:#fff;}</style></defs><g id="Color_bubbles" data-name="Color bubbles"><circle class="cls-1" cx="82" cy="82" r="82"/></g><g id="Logos"><path class="cls-2" d="M98.87,128.44c.08.09.12.22.18.21a6.48,6.48,0,0,0,.78-.09l.51-.22,1.46-.57,3.65-1.74.67-.34.33-.15.39-.27.67-.4.77-.42,1-.66,1.72-1.22.84-.67L113,121l1.1-.82.53-.38.72-.67.76-.75,1.21-1.3,1.42-1.37,1.64-1.88.89-1.2.32-.44,1-1.18,1.88-2.67.53-.89,1.25-2.49.72-1.33,1.22-2.47.66-1.5.67-2.32s.84-3,1.29-4.63a.54.54,0,0,0,0-.51,10.4,10.4,0,0,1-.67-1.24c-.12-.21-.31-.42-.42-.6s-.45-.59-.57-.73a3,3,0,0,0-.46-.41,12.19,12.19,0,0,0-1.06-1,3.47,3.47,0,0,1-.44-.31A15.27,15.27,0,0,0,123.89,86c-.49-.21-1-.39-1.5-.56a8.5,8.5,0,0,0-1.3-.32.75.75,0,0,0-.55.06c-.16.11-.17.36-.19.6-.07.67-.09,1.33-.14,2s-.11,1.33-.16,2-.08,1.2-.15,1.78c-.09.79-.21,1.57-.35,2.34-.28,1.46-.59,2.9-.89,4.34a6.29,6.29,0,0,1-.3,1.19,9.51,9.51,0,0,0-.58,1.88,26.54,26.54,0,0,1-1.23,4,16.93,16.93,0,0,1-1.33,3.1,1,1,0,0,0-.1.21c-.28.66-.55,1.33-.85,2-.19.42-.47.82-.67,1.24a10.92,10.92,0,0,1-.88,1.52c-.51.78-1,1.55-1.48,2.36a14.57,14.57,0,0,1-1,1.64l-.28.41c-.3.45-.58.91-.92,1.34-.66.81-1.29,1.61-2,2.39-.41.49-.88.94-1.33,1.41s-.8.85-1.21,1.28a3.36,3.36,0,0,1-.29.24c-.25.2-.49.4-.72.62a12.06,12.06,0,0,1-1.68,1.44,7.22,7.22,0,0,0-.77.56,11.31,11.31,0,0,1-2.21,1.4"/><path class="cls-2" d="M131.39,89.48v-.1c0-.06,0-.36,0-.36l.36-3.16.21-3V79.5l-.35-3.34s-.41-3-.72-4.55a1.46,1.46,0,0,0-.87-1.06,3.85,3.85,0,0,0-.47-.19,10.18,10.18,0,0,0-1-.35c-.75-.19-1.47-.44-2.23-.56s-1.82-.25-2.72-.34-1.5-.09-2.25-.1h-1.56c-.32,0-.66,0-.81.2s0,.56,0,.92c.11.72.23,1.09.35,1.81a48.36,48.36,0,0,1,.83,6.46c0,1,.09,2,.14,2.94v.74a.85.85,0,0,0,.13.47c.08.14.22.16.38.21s.36.07.55.12.53.12.77.19c.87.28,1.79.59,2.67.94a16.62,16.62,0,0,1,1.73.89.76.76,0,0,1,.19.12c.34.24.66.5,1,.74A10.23,10.23,0,0,1,130,87.7a2.63,2.63,0,0,0,.4.42c.22.2.62.95.91,1.29a.22.22,0,0,0,.13.08"/><path class="cls-2" d="M109.07,53.88a3.94,3.94,0,0,0,.8-.05c.24,0,.33,0,.4-.21a.46.46,0,0,0-.1-.44c0-.09-.66-1.16-.66-1.16l-.56-.87-2.35-3.38-.49-.58-.45-.62-.78-.85L103,43.64l-.82-.81-3-2.72-2.37-1.86L96,37.78l-2.84-1.73-2-1.06-.38-.17-1.62-.59-2.38-.9-.18,0-.78-.19-.2,0-.66-.17-1.44-.23h-.67l-1.28-.29L80,32.26l-.53,0h-1l-1.6,0-1.57.18-1.23,0-1.08.12-1.11.22L71.1,33l-1.34.26h-.31l-1.27.46-.75.2-.46.29-1.12.3-.53.31-.67.26L63,35.79l-2.12.82-.67.34-1.48.79-1.28.83-1.19.62-.44.25-1.3.67-.21.14-1.48,1.16-1.23.85-.24.16L50,43.52l-.51.42a7.76,7.76,0,0,0-.79.73l.53-.15s1-.36,1-.35h.18l1.38-.56H52L53.48,43s.79-.26.79-.24.8-.3.8-.3l1.12-.4,2.71-1h.25l1.39-.48,1.1-.45.16.11,2.13.05,1.34.11h0l2.74.22h0l3.78.2v.1L73.16,42h.2l1.33,1.3.12-.06,1.88.06.1-.06,4.73.27v.11l2.1,1.21h.09l3.75,1.8v.2l2.11-.82,3.13,1,.52.85,1.14.08,1.09,1.23h.11l.88,1v.06h.13l2.43.55.9,1.39,2.26.82s2.42.62,3.65.78a17.75,17.75,0,0,0,3.26,0"/><path class="cls-2" d="M130.11,68.19c-.08-.37-.33-1.09-.33-1.09l-.14-.39-.13-.48-.4-1.19-.39-1-1.15-2.58L127,60.17l-.66-1.47-.8-1.29L125.4,57,124.87,56l-.49-.8-.2-.28-3.39-4.57-.48-.58c-.08-.1-.1-.18-.22-.18h0a24.46,24.46,0,0,1-1.47,2.18c-.43.48-1.3,1.28-1.3,1.28s-.74.6-.86.66-.67.46-.67.46l-.77.44s-.58.28-.67.31a.72.72,0,0,0-.27.15.37.37,0,0,0,0,.27,1.06,1.06,0,0,0,.1.3c.31.67.59,1.33.93,2,.52.95.84,2,1.27,2.95a10,10,0,0,1,.39,1c.29.88.56,1.76.84,2.63l.36,1.16c.11.4.2.78.31,1.18a.45.45,0,0,0,.5.37h.76l2.72-.07c.26,0,2.06.16,2.06.16s.67.07,1,.12c.66.12,1.33.28,2.05.42A8.91,8.91,0,0,1,129,68a6,6,0,0,0,.84.29,1,1,0,0,0,.25,0,.3.3,0,0,0,0-.16"/><path class="cls-2" d="M118.29,48a2.42,2.42,0,0,0-.27-.5l-.17-.3-.47-.54-.32-.48-.62-.61-.2-.17L113,42.79l-.59-.47-1.14-1L105.67,38l-4.42-2.09L98.91,35,98,34.66l-2.89-1-2-.52-2-.42-.31,0-.14.18.08.08.3.14,1.84.72c.4.16.78.37,1.19.49a3.74,3.74,0,0,1,.8.33c.94.55,1.87,1.09,2.8,1.65a8.41,8.41,0,0,1,1.55,1.17,6.76,6.76,0,0,0,1.18.89,4.45,4.45,0,0,1,.53.42l.29.25a16.41,16.41,0,0,1,1.63,1.37c.52.56,1.07,1.09,1.62,1.62A15.81,15.81,0,0,1,106,43.59,13.87,13.87,0,0,0,107.16,45c.81.8,1.43,1.76,2.17,2.61.08.12.15.24.22.36A19.47,19.47,0,0,0,111,50.15a7.05,7.05,0,0,1,1,1.57,8.16,8.16,0,0,0,.61,1,.59.59,0,0,0,.45.26,1.12,1.12,0,0,0,.31-.1l.4-.16.7-.31a4,4,0,0,0,.67-.39c.13-.12.67-.48,1-.75s.89-1,.89-1l.43-.57.75-1.25a.93.93,0,0,0,.12-.41"/><path class="cls-2" d="M116,66.68c-.3-.93-.54-1.81-.87-2.73a22.52,22.52,0,0,0-.84-2.25c-.18-.43-.34-.88-.48-1.33-.09-.24-.2-.44-.28-.67A23.72,23.72,0,0,0,112,56.48a1.51,1.51,0,0,0-.11-.22.52.52,0,0,0-.24-.27c-.14-.08-.25,0-.5,0-.48,0-1.09.11-1.34.11s-1.17.08-1.92.14l-.17-.06h-.92l-2.41-.31c-.88-.13-2.91-.67-2.91-.67L100,54.68l-1.82-.62-.14.07-2.85-.23-.09.06-1.6-1.22h-.18l-1-.9,0-.19-1.11-.17-.1.05-.91-.32-.1-.1-2.09.15L86,50.49l-6.56.34-.11-.06-1.24.1L78,51l-3.22.25-.08-.08-4.61,2.67L70,54l-.2.19-.12-.07-2.35-.25-.12,0h-4.1l-.08,0-1.17,0-.36-.21L57.23,57v.09l-1.51,1.19L54,57.46l-.1,0-.59-.16s-3.11.78-3.07.81-2.89-.47-2.89-.47l-.21-.16-.54.56-1.16.56v.1l-2.31,1.76-3.28,2.36-3.73,2.72L34.5,66.8l-.09.71-.7,1.62-.3,1.4L33,73.35l-.28,1.21L32.58,76l-.41,3L32,85.72l.18.4L32.3,88s0,.32.1.33h0l8.18-8.43,2.67-1.09,2.24-.11,1.34-1.56L47,76.8l.17.08,3.67-.42.16-.11h1.37l.21.07.44-.58,1.7-1,1.76-1.21,5,.07,0,.1,1.95.19,1.51-.3,2.77-2.84h.06l2.21-2.1,3.33-.42.13-.09.14.15,1.73.8.12-.1,1.52-.19L77,68.8l1.43-.25.13-.08,1.55,1.34.1-.1,3.18-.06.27-.2,2.57.12.14.06.39-.1.07-.12,1-.46h.11l1.19-.52.09-.11,1.26-.48.1-.15,3.5-1.33V66.3l.62-.19.13-.13.17.19,1,.51h.31l1.13.64.08-.11.35-.16h0l.57-.26v0l.81-.19,2.09.54.45-.1.38.26,1.53.23,1.51.57.87-.06.29.19.21-.13s3-.36,4.45-.49c1-.07,1.92-.17,2.89-.27l1.63-.16c.29,0,.44-.16.33-.49"/><path class="cls-2" d="M118.12,81.82a5,5,0,0,0-.06-.54c0-.57-.06-1.14-.08-1.71a2.2,2.2,0,0,0,0-.57c-.05-.72-.07-1.42-.13-2.14-.1-.9-.22-1.78-.36-2.66-.1-.67-.24-1.39-.36-2.07s-.25-1.38-.4-2.1-.32-.82-1.06-.73h-.19c-.27,0-.67.1-.94.13-1.45.19-2.82.26-4.27.44L106,71.35l-6-.16L99.37,71v.11L97.6,72.42h-.25L96,73.76l-.08.18-3.6.48L89,77h-.34l-1.75,1-.67.09-.67.58-.18-.21L82,78.21l-.58.67V79l-2.9,3.16v.18h-.12l-3.74,4.23h-1l-.08.1-3,.52h-.23l-.07.16-5,2.77L63,89.84l-.47.17-2.24-.14-2.21,2.4-1.34.27H56l-.79.33-.47-.05v.09L52,95l-.26,0-4.3,3.34,0,.19-2.67,6.45.11.26-4.39.4L39.09,107l-.14.46,2,2.72,1.44,2.2,1.24,1.6,2,2.2s0,.15.06.17.27,0,.28,0l1.22.41,1.5.47v.07h.15l2.54,1h.19l.14.16h.22l.58.39,1-.57h.06l.46-.31,3.77,1,2.76-1.42,6.12-.6,2.51-4,1.12-1.13h.09s.87-.8.88-.82a.21.21,0,0,0,0-.11l1.58-1.44.74-.77.19-.1.84-.88.67-.71h.18l-.17-.62.72-2.63,1.37-.41,0,0,.41-.09v-.23l1.85-3,.17-.08.76-1.47,1.24-.71.17-.2h.25S83,97,83.05,97h.09l1.33-.6.11-.16,4.5-2.07h.27l.06-.25.17-.13.47-1.57,1.42-.61,1.64-.2,1.49-1,2.15.09.2.18.11-.14,3-1.33v-.39l.72-1.33,1.46-.4.07-.09,2-.42.77-.91h.09l.48-.46,1.38.18.07.06.76.1.46.06s2-1,2.88-1.28c.35-.14.66-.23,1-.35s.94-.33,1.41-.48l.7-.22,1-.17,1.09-.18.67,0,.44-.06a.93.93,0,0,0,.46-.15.5.5,0,0,0,.15-.38,2.41,2.41,0,0,0,0-.38"/><path class="cls-2" d="M118.05,85.76a.73.73,0,0,0-.1-.56.48.48,0,0,0-.39-.16c-.12,0-.63.06-.63.06l-.87.14a.94.94,0,0,0-.29.06c-.53.12-1,.22-1.56.37a14,14,0,0,0-1.7.55c-.58.26-1.22.46-1.8.74l-3,1.48-1.13,1.2,0,.26-.15-.07-.71,0v.06l-2.28.76V91l-.24.23v.18L102,93.22h-.14v.2l-.47.75-4.84,3.12h-.1l-.74.61-.51,2-.47.46-1.91,7,.26.79-2.81,1.33h-.44l-.54,2.44-.09.08-.67,2.21v.12l-.28,1.9-.1.14.1.18-2.67,4.26-.2.06-.67,1v.21l-2.31,3.26L80,126.8l.13.21L80,128l.21.36-.35.11-1.75,1-.18,0L75.36,131l-.31.48a8.79,8.79,0,0,0,1,.15l1.66.14,1.14,0H82.8l3.59-.43,2.14-.38,1.62-.44L91.9,130l2.24-.89.16-.09.62-.36a26.75,26.75,0,0,0,2.63-1.56,49.54,49.54,0,0,0,4.06-3.3l1.29-1.25,1.22-1.22a1,1,0,0,0,.19-.22,2.26,2.26,0,0,1,.67-.8,4.22,4.22,0,0,0,.47-.56,7.74,7.74,0,0,1,1-1.1,6.86,6.86,0,0,0,.78-.93c.43-.61.82-1.23,1.23-1.85.54-.82,1.13-1.61,1.59-2.47s1-1.85,1.5-2.75a22,22,0,0,0,1.23-2.36c.57-1.34,1.15-2.67,1.67-4.07a44.82,44.82,0,0,0,1.39-4.44,32.52,32.52,0,0,1,.88-3.33,2.33,2.33,0,0,0,.1-.44c.16-.93.32-1.83.45-2.75s.26-1.74.39-2.61c.08-.59.18-1.18.23-1.78.07-.82.11-1.64.14-2.47v-.69"/></g></svg>