<svg xmlns="http://www.w3.org/2000/svg" viewBox="0 0 164 164"><defs><style>.cls-1{fill:#002b5c;}.cls-2{fill:#fff;}.cls-3{fill:none;}</style></defs><g id="Color_bubbles" data-name="Color bubbles"><circle class="cls-1" cx="82" cy="82" r="82"/></g><g id="Logos"><path class="cls-2" d="M132,81.89A50,50,0,0,0,82,32h-.1A50,50,0,0,0,32,82v.09A50,50,0,0,0,82,132h.07a50,50,0,0,0,50-50Zm-1.11.14h0A48.91,48.91,0,0,1,82,130.88h0A48.9,48.9,0,0,1,33.11,82v-.09A48.9,48.9,0,0,1,82,33.1h.09A48.9,48.9,0,0,1,130.91,82Z"/><path class="cls-2" d="M65.66,70.9a33.38,33.38,0,0,0,7.22-11L74,55.75l.27-1-5.21-2.91s-3-2.11-9.82,1.82C51.31,58.39,44.84,64.45,41.5,70.88a41.06,41.06,0,0,0-4.09,12.33,44.48,44.48,0,0,0,7.67,23.85C43.75,94.34,56,80.41,65.66,70.9Z"/><path class="cls-2" d="M104.84,53.7C98.05,49.77,95,51.88,95,51.88l-5.2,2.91.27,1,1.13,4.13a33.54,33.54,0,0,0,7.22,11c9.6,9.48,21.84,23.34,20.6,36a44.29,44.29,0,0,0,7.59-24.13,41,41,0,0,0-4-11.93C119.26,64.45,112.78,58.39,104.84,53.7Z"/><path class="cls-2" d="M88.51,46.08A49.25,49.25,0,0,1,124.12,67.2a44.73,44.73,0,0,0-28-27.53A11.32,11.32,0,0,0,88.51,46.08Z"/><path class="cls-2" d="M75.59,46.08a11.37,11.37,0,0,0-7.7-6.43A44.76,44.76,0,0,0,39.83,67.42,49.27,49.27,0,0,1,75.59,46.08Z"/><path class="cls-2" d="M78.5,45.58,82,40.37l3.55,5.21a12.52,12.52,0,0,1,5.91-7.19,44.42,44.42,0,0,0-18.93,0A12.37,12.37,0,0,1,78.5,45.58Z"/><path class="cls-2" d="M106.28,84.67C99,72.93,82.56,61.08,82,60.71c-.51.37-17,12.22-24.23,24-9.79,15.84-8.52,25-6,30.19A44.52,44.52,0,0,0,75,126.07L78.79,72,82,68.78l0,0h0l0,0L85.23,72l3.85,54h0a44.48,44.48,0,0,0,23.34-11.33C114.83,109.51,116,100.4,106.28,84.67Z"/><polygon class="cls-3" points="85.23 71.98 82.05 68.78 82.09 130.02 89.03 126.06 89.08 126.03 85.23 71.98"/><path class="cls-2" d="M82.07,56.58h0l1.39,1,5.81,4.29-1.52-5.54-.26-1L87,53.55l1.68-.89,5.48-3a55.84,55.84,0,0,0-8.44-1.18l-1.39-.09-.06-.11-.56-1.14V47.1h0l-1.62-3.27L80.51,47h0l-.09.19-.55,1.14-.06.11-1.39.09A54.64,54.64,0,0,0,70,49.72l5.45,2.94,1.69.9-.51,1.86-.26,1-1.53,5.53,5.83-4.28,1.39-1h0Z"/></g></svg>