<svg width="500" height="500" viewBox="0 0 500 500" xmlns="http://www.w3.org/2000/svg" xmlns:xlink="http://www.w3.org/1999/xlink"><defs><path id="a" d="M.003 198.373h499.243V.26H.003z"/></defs><g fill="none" fill-rule="evenodd"><g transform="translate(0 150.369)"><mask id="b" fill="#fff"><use xlink:href="#a"/></mask><path d="M492.242 58.117C426.76 19.907 331.594 1.009 287.262.261c-10.754 0-15.723 5.074-18.01 9.346a17.938 17.938 0 00-1.851 5.387c-2.447-1.534-4.459-2.548-4.58-2.617l-6.6-3.334.579 3.822a158.842 158.842 0 01-5.175-2.952l-1.943-1.175-1.951 1.16s-2.584 1.525-5.267 2.975l.595-3.853-6.616 3.357c-.129.069-2.141 1.083-4.588 2.617a17.996 17.996 0 00-1.859-5.394c-2.271-4.265-7.24-9.34-18.634-9.34-43.708.749-138.866 19.648-204.424 57.903L.003 62.451l1.159 2.968c.259.656 5.86 14.573 19.434 21.15l.838 1.373c.35.557 7.5 11.986 19.259 17.22l.815 1.32c.389.625 8.59 13.626 24.518 19.12l1.783 1.93c.503.542 10.883 11.59 27.543 15.687l-.152.114 4.443 2.968c.51.344 11.134 7.332 27.497 10.743l-2.02 1.8 5.99 2.19c1.464.542 34.898 12.551 65.04 3.327 9.656 20.478 30.714 34.013 53.486 34.013 22.764 0 43.814-13.535 53.47-34.013 30.12 9.224 63.576-2.785 65.04-3.327l5.982-2.19-2.012-1.792c16.355-3.418 26.98-10.407 27.49-10.75l4.443-2.969-.145-.114c16.653-4.097 27.033-15.145 27.536-15.687l1.768-1.922c15.944-5.494 24.144-18.502 24.525-19.128l.816-1.312c11.767-5.234 18.923-16.671 19.266-17.228l.846-1.374c13.573-6.577 19.167-20.493 19.426-21.15l1.159-2.967-7.004-4.334z" fill="#FEFEFE" fill-rule="nonzero" mask="url(#b)"/></g><path d="M494.541 214.394l-4.222-2.617c-64.933-37.889-159.207-56.597-202.488-57.33h-.572c-7.118 0-12.049 2.465-14.64 7.318-2.187 4.127-1.936 8.263-.869 11.765-.747-.855-1.829-1.763-3.01-2.633-3.513-2.655-7.644-4.745-7.644-4.745s.54 3.418-.717 2.998c-.586-.183-1.31-.496-2.11-.862-3.514-1.686-8.605-4.738-8.605-4.738s-5.167 3.052-8.673 4.738c-.8.366-1.532.679-2.119.862-1.257.42-.708-2.998-.708-2.998s-4.131 2.09-7.652 4.745c-1.181.87-2.264 1.778-3.01 2.633 1.067-3.502 1.326-7.638-.87-11.765-2.59-4.853-7.521-7.317-14.64-7.317h-.571c-43.281.732-137.555 19.44-202.48 57.33l-4.23 2.616s6.371 16.251 22.109 20.875l-2.142 1.038s8.894 14.443 22.72 17.441l-2.645 1.099s9.747 15.77 28.64 19.105l-2.79 1.35s13.483 14.588 34.159 15.893l-3.003 2.296s13.703 9.14 33.907 11.437l-3.247 2.892s35.828 13.116 65.832 2.182c8.277 20.837 28.618 34.921 51.367 34.921h.016c22.749 0 43.09-14.084 51.367-34.92 30.004 10.933 65.832-2.183 65.832-2.183l-3.247-2.891c20.204-2.297 33.907-11.437 33.907-11.437l-3.003-2.297c20.676-1.305 34.15-15.893 34.15-15.893l-2.781-1.35c18.893-3.334 28.633-19.105 28.633-19.105l-2.637-1.099c13.825-2.998 22.719-17.441 22.719-17.441l-2.142-1.038c15.738-4.624 22.11-20.875 22.11-20.875" fill="#B49759" fill-rule="nonzero"/><path d="M487.709 216.264c-63.515-37.042-156.83-55.887-199.95-56.62-5.198-.084-8.734 1.183-10.548 4.57-3.003 5.646 1.235 11.948 3.04 14.665 3.91 5.829 9.085 14.954 9.085 25.925 0 21.28-17.186 37.02-38.35 37.02-.457 0-.907.007-1.356.007-.458 0-.907-.007-1.364-.007-21.157 0-38.35-15.74-38.343-37.02 0-10.971 5.175-20.096 9.077-25.925 1.806-2.717 6.051-9.019 3.041-14.665-1.806-3.387-5.343-4.654-10.548-4.57-43.12.733-136.427 19.578-199.95 56.62.053.16 10.182 17.51 30.401 16.03a425.412 425.412 0 00-9.32 4.677c.053.191 9.274 15.382 31.544 13.184-3.712 1.755-7.4 3.54-11.082 5.395.046.206 10.685 15.137 34.143 14.748-5.403 2.739-8.673 4.479-8.65 4.47.015.115 15.502 15.115 40.537 10.988-2.705 1.976-5.434 4.074-8.665 6.332.008.039 18.39 10.095 40.02 6.966a902.88 902.88 0 00-8.361 6.41c-.054-.283 33.121 9.094 56.717-1.305 20.303-8.958 31.582-30.9 34.158-36.425 4.009.885 7.507 1.397 10.174 1.71-.007.29 4.299.663 6.47.572 2.165.091 6.479-.283 6.471-.573 2.66-.312 6.166-.824 10.167-1.709 2.568 5.524 13.855 27.467 34.158 36.425 23.595 10.399 56.763 1.022 56.717 1.304a736.22 736.22 0 00-8.36-6.409c21.629 3.129 40.011-6.927 40.011-6.966-3.216-2.258-5.952-4.356-8.658-6.332 25.036 4.127 40.522-10.873 40.538-10.987.022.008-3.247-1.732-8.65-4.471 23.458.389 34.097-14.542 34.143-14.748a493.449 493.449 0 00-11.074-5.394c22.261 2.197 31.483-12.994 31.529-13.185a424.629 424.629 0 00-9.313-4.677c20.219 1.48 30.347-15.87 30.4-16.03" fill="#002A5B" fill-rule="nonzero"/><path d="M231.349 256.53s-56.763-19.022-32.1-79.54c0 0-60.01 2.495-142.274 35.722 0 0-5.769 2.403-9.13 3.609-3.368 1.205-8.78 3.357-16.538-.366 0 0 75.237-39.377 171.904-48.51 12.743-1.206 14.427.725 11.059 5.539-2.76 3.944-37.276 47.915 17.079 83.545" fill="#FEFEFE" fill-rule="nonzero"/><path d="M180.922 194.128c-48.64 6.333-96.203 23.294-96.203 23.294 8.101 14.42 30.066 8.37 30.066 8.37 41.208-11.682 59.598-15.642 65.496-16.786-.228-4.593-.038-9.552.64-14.878m.362 23.709c-8.124 1.572-42.176 8.568-76.525 21.455 0 0 10.83 12.345 32.314 6.24 18.07-5.127 41.239-12.527 48.15-14.748-1.73-3.898-3.078-8.21-3.94-12.947m7.547 19.775c-7.339 2.372-44.035 14.275-59.529 20.226 0 0 8.886 11.933 34.547 1.823 17.872-7.042 27.718-11.154 32.062-13.016a55.577 55.577 0 01-7.08-9.033m12.746 14.223c-6.41 2.785-30.226 13.2-43.997 19.845 0 0 17.33 8.53 39.135-4.96l13.558-8.904a70.1 70.1 0 01-8.696-5.981m15.29 9.448c-4.359 2.723-22.421 14.1-31.239 20.623 0 0 14.968 6.195 30.325-8.286 5-4.708 7.728-7.378 9.23-8.904a96.512 96.512 0 01-8.316-3.433" fill="#B49759" fill-rule="nonzero"/><path d="M267.907 256.53s56.763-19.022 32.1-79.54c0 0 60.01 2.495 142.266 35.722 0 0 5.769 2.403 9.137 3.609 3.37 1.205 8.78 3.357 16.53-.366 0 0-75.236-39.377-171.895-48.51-12.75-1.206-14.428.725-11.067 5.539 2.767 3.944 37.283 47.915-17.071 83.545" fill="#FEFEFE" fill-rule="nonzero"/><path d="M318.33 194.128c48.639 6.333 96.203 23.294 96.203 23.294-8.094 14.42-30.066 8.37-30.066 8.37-41.208-11.682-59.59-15.642-65.489-16.786.229-4.593.03-9.552-.648-14.878m-.357 23.709c8.117 1.572 42.168 8.568 76.525 21.455 0 0-10.838 12.345-32.314 6.24-18.07-5.127-41.239-12.527-48.151-14.748 1.722-3.898 3.071-8.21 3.94-12.947m-7.547 19.775c7.332 2.372 44.036 14.275 59.522 20.226 0 0-8.879 11.933-34.54 1.823-17.871-7.042-27.718-11.154-32.062-13.016a55.577 55.577 0 007.08-9.033m-12.745 14.223c6.41 2.785 30.226 13.2 43.997 19.845 0 0-17.33 8.53-39.143-4.96l-13.55-8.904a70.664 70.664 0 008.696-5.981m-15.29 9.448c4.359 2.723 22.42 14.1 31.239 20.623 0 0-14.976 6.195-30.34-8.286-4.985-4.708-7.713-7.378-9.214-8.904a96.512 96.512 0 008.314-3.433" fill="#B49759" fill-rule="nonzero"/><path d="M296.107 289.566c0 25.712-20.806 46.549-46.482 46.549s-46.482-20.837-46.482-46.549c0-25.697 20.806-46.541 46.482-46.541s46.482 20.844 46.482 46.541" fill="#FEFEFE" fill-rule="nonzero"/><path d="M286.491 299.193c0 20.402-16.507 36.92-36.863 36.92-20.364 0-36.864-16.518-36.864-36.92 0-20.379 16.5-36.905 36.864-36.905 20.356 0 36.863 16.526 36.863 36.905" fill="#B49759" fill-rule="nonzero"/><path d="M274.092 324.787c-1.868-1.465-4.52-4.059-4.992-7.263-.046-.283-.069-.565-.107-.855a49.17 49.17 0 0022.826-19.562c-2.035 11.421-8.582 21.286-17.728 27.68zm-66.663-27.719a49.126 49.126 0 0022.84 19.601c-.037.29-.06.572-.106.862-.48 3.212-3.125 5.799-4.992 7.256-9.16-6.394-15.715-16.274-17.742-27.719zm9.877-35.646c-1.913 10.598 2.477 20.585 6.5 29.718 2.798 6.363 5.48 12.467 6.342 18.647-11.066-5.532-19.472-15.656-22.605-28.344a42.799 42.799 0 019.763-20.02zm45.354 50.883a42.79 42.79 0 01-9.938 1.945v-67.477a42.572 42.572 0 0118.9 5.974c8.506 12.3 3.712 23.279-1.844 35.89-3.33 7.57-6.745 15.351-7.118 23.668zm-9.938 8.148a50.44 50.44 0 0010.311-1.693c.694 3.99 3.155 7.164 5.442 9.338a42.344 42.344 0 01-15.753 4.273v-11.918zm-16.493-1.693c3.316.908 6.76 1.48 10.297 1.693v11.918a42.345 42.345 0 01-15.746-4.273c2.294-2.174 4.756-5.348 5.45-9.338zm-8.589-66.013a42.538 42.538 0 0118.886-5.974v67.478a43.72 43.72 0 01-9.923-1.87c-.35-8.347-3.78-16.144-7.126-23.743-5.563-12.612-10.35-23.591-1.837-35.89zm64.08 28.734c-3.095 12.421-11.592 22.56-22.59 28.161.884-6.134 3.544-12.192 6.318-18.502 4.024-9.14 8.414-19.128 6.493-29.718a42.808 42.808 0 019.778 20.059zm-42.093-42.078c-27.619 0-50.094 22.508-50.094 50.165 0 27.658 22.475 50.158 50.095 50.158 27.626 0 50.101-22.5 50.101-50.158 0-27.657-22.475-50.165-50.101-50.165z" fill="#002A5B" fill-rule="nonzero"/><path d="M264.51 174.293s-.374 1.58-1.334 1.58c-.96 0-6.974-2.892-9.862-4.464a138.746 138.746 0 01-3.567-2.022s-2.576 1.358-3.81 2.022c-2.889 1.572-8.894 4.464-9.862 4.464-.96 0-1.334-1.58-1.334-1.58s-15.784 9.537-15.784 35.89c0 19.616 10.198 28.52 10.198 28.52l1.387 5.547h38.16l1.386-5.547s10.205-8.904 10.205-28.52c0-26.353-15.784-35.89-15.784-35.89" fill="#002A5B" fill-rule="nonzero"/><path d="M272.03 203.523c0-8.14-3.308-14.778-6.874-18.73 0 0-.122 2.334-4.01-.268-3.352-2.311-7.3-3.662-11.538-3.662-4.26 0-8.215 1.358-11.576 3.678-3.75 2.556-3.933.252-3.933.252-3.559 3.952-6.874 10.59-6.874 18.73 0 6.768 1.654 10.095 2.233 11.048 3.346 8.614 11.104 14.657 20.15 14.657 8.932 0 16.615-5.913 20.029-14.39.198-.274 2.393-3.517 2.393-11.315" fill="#FEFEFE" fill-rule="nonzero"/><path d="M258.057 221.92c-.023-.046-.061-.092-.084-.138 0 0-2.218-4.166 1.433-7.05 0 0 8.26 1.725 8.459-9.24 0 0-.198-1.167.96-3.463 0 0-2.118-1.93-6.73 1.541-4.618 3.449-7.11 13.268-9.61 10.964-2.469-2.29-1.562-15.069-2.85-15.557h-.046c-1.272.496-.365 13.268-2.842 15.557-2.492 2.304-5-7.515-9.61-10.964-4.62-3.472-6.723-1.541-6.723-1.541 1.151 2.296.953 3.464.953 3.464.198 10.964 8.46 9.24 8.46 9.24 3.658 2.883 1.448 7.064 1.448 7.064-.023.046-.054.092-.077.13-9.861-10.605-15.593-9.163-12.765 2.716 2.782 11.674 13.451 61.77 15.143 73.39-.228 10.453-1.44 14.184-1.753 14.985l-1.082 2.16 1.19 2.372c1.881 2.74 3.177 5.799 3.642 6.966l4.07 10.346 4.031-10.323c.48-1.19 1.784-4.25 3.65-6.989l1.243-2.258-1.12-2.266c-.32-.786-1.494-4.38-1.76-14.458 1.402-10.415 12.308-62.053 15.135-73.925 2.82-11.88-2.904-13.321-12.766-2.724" fill="#002A5B" fill-rule="nonzero"/><path d="M242.94 274.15c-3.543-18.64-6.333-32.434-8.588-42.436-1.715-7.638 2.873-4.586 5.342.19l3.247 42.246zm13.375 0c3.544-18.64 6.333-32.434 8.59-42.436 1.714-7.638-2.874-4.586-5.343.19l-3.247 42.246zm-18.974-63.139a1.307 1.307 0 01-.907-1.625 1.36 1.36 0 01.45-.656 10.047 10.047 0 00-1.662-1.51s-1.15 5.393 3.658 4.814c0 0-.168-.481-.526-1.168a1.332 1.332 0 01-1.013.145m26.685-3.792a10.04 10.04 0 00-1.662 1.51c.213.176.381.39.465.665a1.323 1.323 0 01-.922 1.617 1.305 1.305 0 01-1.006-.137 8.849 8.849 0 00-.526 1.16c4.809.58 3.65-4.815 3.65-4.815m-12.145 73.846c1.524-28.794 3.818-49.196 3.818-51.745 0-.9-.1-2.075-.48-3.357l-1.67 5.478-.518-9.682c-.838-1.083-1.981-2.167-3.43-3.204h-.09c-1.441 1.037-2.455 2.12-3.3 3.204l-.496 9.682-1.684-5.485a12.178 12.178 0 00-.48 3.364c0 2.549 2.286 22.95 3.81 51.745 1.532 28.802-2.035 34.158-2.035 34.158 2.066 2.991 4.299 8.317 4.299 8.317s2.233-5.326 4.298-8.317c0 0-3.567-5.356-2.042-34.158" fill="#E21836" fill-rule="nonzero"/><path d="M487.709 216.264c-63.515-37.042-156.83-55.887-199.95-56.62-5.198-.084-8.734 1.183-10.548 4.57-3.003 5.646 1.235 11.948 3.04 14.665 3.91 5.829 9.085 14.954 9.085 25.925 0 21.28-17.186 37.02-38.35 37.02-.457 0-.907.007-1.356.007-.458 0-.907-.007-1.364-.007-21.157 0-38.35-15.74-38.343-37.02 0-10.971 5.175-20.096 9.077-25.925 1.806-2.717 6.051-9.019 3.041-14.665-1.806-3.387-5.343-4.654-10.548-4.57-43.12.733-136.427 19.578-199.95 56.62.053.16 10.182 17.51 30.401 16.03a425.412 425.412 0 00-9.32 4.677c.053.191 9.274 15.382 31.544 13.184-3.712 1.755-7.4 3.54-11.082 5.395.046.206 10.685 15.137 34.143 14.748-5.403 2.739-8.673 4.479-8.65 4.47.015.115 15.502 15.115 40.537 10.988-2.705 1.976-5.434 4.074-8.665 6.332.008.039 18.39 10.095 40.02 6.966a902.88 902.88 0 00-8.361 6.41c-.054-.283 33.121 9.094 56.717-1.305 20.303-8.958 31.582-30.9 34.158-36.425 4.009.885 7.507 1.397 10.174 1.71-.007.29 4.299.663 6.47.572 2.165.091 6.479-.283 6.471-.573 2.66-.312 6.166-.824 10.167-1.709 2.568 5.524 13.855 27.467 34.158 36.425 23.595 10.399 56.763 1.022 56.717 1.304a736.22 736.22 0 00-8.36-6.409c21.629 3.129 40.011-6.927 40.011-6.966-3.216-2.258-5.952-4.356-8.658-6.332 25.036 4.127 40.522-10.873 40.538-10.987.022.008-3.247-1.732-8.65-4.471 23.458.389 34.097-14.542 34.143-14.748a493.449 493.449 0 00-11.074-5.394c22.261 2.197 31.483-12.994 31.529-13.185a424.629 424.629 0 00-9.313-4.677c20.219 1.48 30.347-15.87 30.4-16.03" fill="#002A5B" fill-rule="nonzero"/><path d="M231.349 256.53s-56.763-19.022-32.1-79.54c0 0-60.01 2.495-142.274 35.722 0 0-5.769 2.403-9.13 3.609-3.368 1.205-8.78 3.357-16.538-.366 0 0 75.237-39.377 171.904-48.51 12.743-1.206 14.427.725 11.059 5.539-2.76 3.944-37.276 47.915 17.079 83.545" fill="#FEFEFE" fill-rule="nonzero"/><path d="M180.922 194.128c-48.64 6.333-96.203 23.294-96.203 23.294 8.101 14.42 30.066 8.37 30.066 8.37 41.208-11.682 59.598-15.642 65.496-16.786-.228-4.593-.038-9.552.64-14.878m.362 23.709c-8.124 1.572-42.176 8.568-76.525 21.455 0 0 10.83 12.345 32.314 6.24 18.07-5.127 41.239-12.527 48.15-14.748-1.73-3.898-3.078-8.21-3.94-12.947m7.547 19.775c-7.339 2.372-44.035 14.275-59.529 20.226 0 0 8.886 11.933 34.547 1.823 17.872-7.042 27.718-11.154 32.062-13.016a55.577 55.577 0 01-7.08-9.033m12.746 14.223c-6.41 2.785-30.226 13.2-43.997 19.845 0 0 17.33 8.53 39.135-4.96l13.558-8.904a70.1 70.1 0 01-8.696-5.981m15.29 9.448c-4.359 2.723-22.421 14.1-31.239 20.623 0 0 14.968 6.195 30.325-8.286 5-4.708 7.728-7.378 9.23-8.904a96.512 96.512 0 01-8.316-3.433" fill="#B49759" fill-rule="nonzero"/><path d="M267.907 256.53s56.763-19.022 32.1-79.54c0 0 60.01 2.495 142.266 35.722 0 0 5.769 2.403 9.137 3.609 3.37 1.205 8.78 3.357 16.53-.366 0 0-75.236-39.377-171.895-48.51-12.75-1.206-14.428.725-11.067 5.539 2.767 3.944 37.283 47.915-17.071 83.545" fill="#FEFEFE" fill-rule="nonzero"/><path d="M318.33 194.128c48.639 6.333 96.203 23.294 96.203 23.294-8.094 14.42-30.066 8.37-30.066 8.37-41.208-11.682-59.59-15.642-65.489-16.786.229-4.593.03-9.552-.648-14.878m-.357 23.709c8.117 1.572 42.168 8.568 76.525 21.455 0 0-10.838 12.345-32.314 6.24-18.07-5.127-41.239-12.527-48.151-14.748 1.722-3.898 3.071-8.21 3.94-12.947m-7.547 19.775c7.332 2.372 44.036 14.275 59.522 20.226 0 0-8.879 11.933-34.54 1.823-17.871-7.042-27.718-11.154-32.062-13.016a55.577 55.577 0 007.08-9.033m-12.745 14.223c6.41 2.785 30.226 13.2 43.997 19.845 0 0-17.33 8.53-39.143-4.96l-13.55-8.904a70.664 70.664 0 008.696-5.981m-15.29 9.448c4.359 2.723 22.42 14.1 31.239 20.623 0 0-14.976 6.195-30.34-8.286-4.985-4.708-7.713-7.378-9.214-8.904a96.512 96.512 0 008.314-3.433" fill="#B49759" fill-rule="nonzero"/><path d="M296.107 289.566c0 25.712-20.806 46.549-46.482 46.549s-46.482-20.837-46.482-46.549c0-25.697 20.806-46.541 46.482-46.541s46.482 20.844 46.482 46.541" fill="#FEFEFE" fill-rule="nonzero"/><path d="M286.491 299.193c0 20.402-16.507 36.92-36.863 36.92-20.364 0-36.864-16.518-36.864-36.92 0-20.379 16.5-36.905 36.864-36.905 20.356 0 36.863 16.526 36.863 36.905" fill="#B49759" fill-rule="nonzero"/><path d="M274.092 324.787c-1.868-1.465-4.52-4.059-4.992-7.263-.046-.283-.069-.565-.107-.855a49.17 49.17 0 0022.826-19.562c-2.035 11.421-8.582 21.286-17.728 27.68zm-66.663-27.719a49.126 49.126 0 0022.84 19.601c-.037.29-.06.572-.106.862-.48 3.212-3.125 5.799-4.992 7.256-9.16-6.394-15.715-16.274-17.742-27.719zm9.877-35.646c-1.913 10.598 2.477 20.585 6.5 29.718 2.798 6.363 5.48 12.467 6.342 18.647-11.066-5.532-19.472-15.656-22.605-28.344a42.799 42.799 0 019.763-20.02zm45.354 50.883a42.79 42.79 0 01-9.938 1.945v-67.477a42.572 42.572 0 0118.9 5.974c8.506 12.3 3.712 23.279-1.844 35.89-3.33 7.57-6.745 15.351-7.118 23.668zm-9.938 8.148a50.44 50.44 0 0010.311-1.693c.694 3.99 3.155 7.164 5.442 9.338a42.344 42.344 0 01-15.753 4.273v-11.918zm-16.493-1.693c3.316.908 6.76 1.48 10.297 1.693v11.918a42.345 42.345 0 01-15.746-4.273c2.294-2.174 4.756-5.348 5.45-9.338zm-8.589-66.013a42.538 42.538 0 0118.886-5.974v67.478a43.72 43.72 0 01-9.923-1.87c-.35-8.347-3.78-16.144-7.126-23.743-5.563-12.612-10.35-23.591-1.837-35.89zm64.08 28.734c-3.095 12.421-11.592 22.56-22.59 28.161.884-6.134 3.544-12.192 6.318-18.502 4.024-9.14 8.414-19.128 6.493-29.718a42.808 42.808 0 019.778 20.059zm-42.093-42.078c-27.619 0-50.094 22.508-50.094 50.165 0 27.658 22.475 50.158 50.095 50.158 27.626 0 50.101-22.5 50.101-50.158 0-27.657-22.475-50.165-50.101-50.165z" fill="#002A5B" fill-rule="nonzero"/><path d="M264.51 174.293s-.374 1.58-1.334 1.58c-.96 0-6.974-2.892-9.862-4.464a138.746 138.746 0 01-3.567-2.022s-2.576 1.358-3.81 2.022c-2.889 1.572-8.894 4.464-9.862 4.464-.96 0-1.334-1.58-1.334-1.58s-15.784 9.537-15.784 35.89c0 19.616 10.198 28.52 10.198 28.52l1.387 5.547h38.16l1.386-5.547s10.205-8.904 10.205-28.52c0-26.353-15.784-35.89-15.784-35.89" fill="#002A5B" fill-rule="nonzero"/><path d="M272.03 203.523c0-8.14-3.308-14.778-6.874-18.73 0 0-.122 2.334-4.01-.268-3.352-2.311-7.3-3.662-11.538-3.662-4.26 0-8.215 1.358-11.576 3.678-3.75 2.556-3.933.252-3.933.252-3.559 3.952-6.874 10.59-6.874 18.73 0 6.768 1.654 10.095 2.233 11.048 3.346 8.614 11.104 14.657 20.15 14.657 8.932 0 16.615-5.913 20.029-14.39.198-.274 2.393-3.517 2.393-11.315" fill="#FEFEFE" fill-rule="nonzero"/><path d="M258.057 221.92c-.023-.046-.061-.092-.084-.138 0 0-2.218-4.166 1.433-7.05 0 0 8.26 1.725 8.459-9.24 0 0-.198-1.167.96-3.463 0 0-2.118-1.93-6.73 1.541-4.618 3.449-7.11 13.268-9.61 10.964-2.469-2.29-1.562-15.069-2.85-15.557h-.046c-1.272.496-.365 13.268-2.842 15.557-2.492 2.304-5-7.515-9.61-10.964-4.62-3.472-6.723-1.541-6.723-1.541 1.151 2.296.953 3.464.953 3.464.198 10.964 8.46 9.24 8.46 9.24 3.658 2.883 1.448 7.064 1.448 7.064-.023.046-.054.092-.077.13-9.861-10.605-15.593-9.163-12.765 2.716 2.782 11.674 13.451 61.77 15.143 73.39-.228 10.453-1.44 14.184-1.753 14.985l-1.082 2.16 1.19 2.372c1.881 2.74 3.177 5.799 3.642 6.966l4.07 10.346 4.031-10.323c.48-1.19 1.784-4.25 3.65-6.989l1.243-2.258-1.12-2.266c-.32-.786-1.494-4.38-1.76-14.458 1.402-10.415 12.308-62.053 15.135-73.925 2.82-11.88-2.904-13.321-12.766-2.724" fill="#002A5B" fill-rule="nonzero"/><path d="M242.94 274.15c-3.543-18.64-6.333-32.434-8.588-42.436-1.715-7.638 2.873-4.586 5.342.19l3.247 42.246zm13.375 0c3.544-18.64 6.333-32.434 8.59-42.436 1.714-7.638-2.874-4.586-5.343.19l-3.247 42.246zm-18.974-63.139a1.307 1.307 0 01-.907-1.625 1.36 1.36 0 01.45-.656 10.047 10.047 0 00-1.662-1.51s-1.15 5.393 3.658 4.814c0 0-.168-.481-.526-1.168a1.332 1.332 0 01-1.013.145m26.685-3.792a10.04 10.04 0 00-1.662 1.51c.213.176.381.39.465.665a1.323 1.323 0 01-.922 1.617 1.305 1.305 0 01-1.006-.137 8.849 8.849 0 00-.526 1.16c4.809.58 3.65-4.815 3.65-4.815m-12.145 73.846c1.524-28.794 3.818-49.196 3.818-51.745 0-.9-.1-2.075-.48-3.357l-1.67 5.478-.518-9.682c-.838-1.083-1.981-2.167-3.43-3.204h-.09c-1.441 1.037-2.455 2.12-3.3 3.204l-.496 9.682-1.684-5.485a12.178 12.178 0 00-.48 3.364c0 2.549 2.286 22.95 3.81 51.745 1.532 28.802-2.035 34.158-2.035 34.158 2.066 2.991 4.299 8.317 4.299 8.317s2.233-5.326 4.298-8.317c0 0-3.567-5.356-2.042-34.158" fill="#E21836" fill-rule="nonzero"/><path d="M0 0h500v500H0z"/></g></svg>