<svg width="500" height="500" viewBox="0 0 500 500" xmlns="http://www.w3.org/2000/svg"><g fill="none" fill-rule="evenodd"><path d="M247.233 441.534l-31.343-40.697a102.408 102.408 0 01-70.207-91.091l-19.447-25.242c-18.488 7.968-37.006 20.589-37.006 20.589l-58.321-58.51 24.58-53.868-43.947-57.063h69.927l13.534-29.475 34.629-13.969 3.835-10.434 28.067 12.81 6.672-23.314 4.575-1.517c22.204-7.4 47.773-11.373 73.963-11.523.749-.05 9.069.1 9.269.1.978 0 5.064.22 5.064.22 22.143 1.068 42.959 4.752 61.856 10.963l4.645 1.528 6.133 22.226 10.108-7.629 56.713 20.16 13.694 29.864h70.277l-44.428 57.292 24.211 53.09-59.23 60.966s-21.714-15.836-36.606-21.737l-17.85 23.015c-2.037 42.914-31.242 80.557-72.304 93.188l-31.063 40.058z" fill="#FEFEFE" fill-rule="nonzero"/><path fill="#B3B1B1" fill-rule="nonzero" d="M247.286 413.334L449.337 152.91l-402.764-.01z"/><path d="M449.337 152.906L247.286 413.33 46.573 152.896l402.764.01zM29.973 144.73l217.293 281.949L466.007 144.74l-436.034-.01z" fill="#0F4B90" fill-rule="nonzero"/><path d="M420.166 171.023l-.07-.17-.16-.1-12.924-8.686 4.814-9.197.14-.279-.13-.29-17.789-38.99-.12-.24-.25-.09-47.963-17.073-.34-.12-.279.21-12.715 9.705-.14.11-.07.16-2.177 5.331s-19.886-4.992-49.092-7.908c-2.976-.3-10.927-.948-23.612-1.947l-1.229-.1-1.278-.09-.3-.03-.21.21-9.478 9.446.01-9.695s-26.888 1.517-44.498 3.914c-17.609 2.386-34.918 6.75-34.918 6.75l-3.187-6.82-.1-.21-.22-.11L139.25 94.36l-.64-.28-.24.65-2.626 7.168-.6-1.437-.25-.59-.589.24-32.391 12.98-.24.1-.11.24-59.75 131.22 49.053 49.114 2.287-1.308a393.804 393.804 0 005.933-3.465c5.933-3.494 14.063-8.277 17.949-10.154l.789-.38c5.024-2.426 7.55-3.654 31.393-13.848l1.987-.75c.03 0 2.687-1.037 7.591-2.665 13.095-4.343 47.115-14.468 80.086-14.468h.37c1.318 0 2.626.02 3.945.06 22.393.62 48.562 5.372 66.571 9.246 17.34 3.734 30.374 7.329 34.08 8.367l2.497.769c16.4 6.34 36.447 16.794 55.025 28.686l2.357 1.518 49.651-51.122-33.21-73.228z" fill="#0F4B90" fill-rule="nonzero"/><path d="M414.83 175.57l-47.724-31.84-8.3-23.295 14.783 5.252 5.973 14.558 22.463 7.199-13.105-28.956-42.4-15.057-7.78 6.02 14.093 45.79 45.376 32.062 11.637 28.976-18.868-8.507-6.482-18.033-23.153-6.82 12.375 40.758a398.672 398.672 0 0111.367 4.374 375.918 375.918 0 0130.254 13.839 369.299 369.299 0 0120.156 11.103l9.869-10.125-30.534-67.297zM92.984 197.16l15.901-14.198 3.796 4.423-15.702 45.14a371.045 371.045 0 0126.2-10.383l11.376-37.223-9.818-16.216 20.336-19.32 11.886-39.59-14.603-6.56-13.125 37.323-21.035 18.103 19.177-48.376-20.615 8.217-56.803 124.57 8.89 8.906a390.484 390.484 0 0116.03-8.836l18.11-45.98zm143.939-88.83l-17.42.92-8.19 93.436a376.224 376.224 0 0122.374-1.437l3.236-92.918zm51.684 74.963l-20.226-1.208-3.246-57.223 17.14.83-2.008-15.767-23.043-1.637-10.318 10.284-.02 71.57 10.818 11.074a370.439 370.439 0 0133.14 2.496l-2.237-20.419zm-114.609-38.08l7.302 35.525-4.725 26.919a369.757 369.757 0 0121.385-3.475l.05-.01 11.257-93.697-16.171 2.357-5.314 30.673-6.013-28.876-19.017 4.763-26.459 98.38a363.982 363.982 0 0123.163-6.41l14.542-66.15zm140.574 32.91l5.694-7.688 8.31 6.85 7.65 34.836a368.947 368.947 0 0123.803 6.83l-14.274-51.102-14.722-12.032 8.38-11.173-6.962-25.94-17.769-3.954 6.992 26.12-11.067 14.787-8.17-42.954-16.45-2.087s8.25 63.004 12.145 94.036a376.726 376.726 0 0122.144 3.835l-5.704-30.364z" fill="#F26729" fill-rule="nonzero"/><path d="M213.87 220.432s6.851-4.014 20.565-5.531l-.44-10.794c-7.52.25-14.992.72-22.403 1.418.65 4.224 1.618 10.514 2.277 14.907m43.577-6.185c5.573.649 11.536 2.476 16.78 3.954 4.734 1.138 9.838 3.175 14.013 5.032l2.308-16.625c-11.027-1.357-21.445-2.176-32.722-2.526-.16 3.225-.17 7.778-.38 10.165m-72.148 26.341c6.383-4.742 10.218-9.625 16.94-13.718-1.278-6.031-2.976-13.85-4.215-19.82a370.182 370.182 0 00-21.724 3.564c2.746 8.947 6.252 20.938 9 29.975m108.508-14.01c6.222 3.604 11.077 7.678 16.64 13.08l1.099.839 8.77-29.006c-7.551-1.568-14.893-2.926-22.604-4.014l-3.905 19.1zm27.671 25.202l20.905 4.923 17.59-34.767c-8.11-2.646-15.931-4.823-24.252-6.91l-14.243 36.754zM153.3 256.7c5.453-2.007 13.074-4.763 20.186-6.66l-13.574-35.875c-8.2 1.987-15.352 4.074-23.342 6.6 5.054 12.021 10.717 24.403 16.73 35.935m-31.532 12.913c1.209-1.038 13.075-6.16 21.195-9.595-6.173-11.163-13.594-23.484-19.786-34.847-8.85 3.155-16.91 6.43-25.47 10.234l24.061 34.208zM92.163 285.31c3.776-2.266 7.781-4.593 12.186-7.139l-27.737-32.71A381.43 381.43 0 0061 254.038l31.163 31.272zm261.288-24.308c16.65 6.46 39.933 19.51 49.192 25.721 4.275-4.084 27.438-28.397 30.624-31.732-19.257-11.292-39.493-20.898-60.548-28.636l-19.268 34.647zm-99.207-47.3l-7.951-.279-.14-19.31 8.27 8.577z" fill="#B3B1B1" fill-rule="nonzero"/><path d="M248.107 209.88c-51.68 0-93.56 41.875-93.57 93.536.01 51.652 41.89 93.528 93.57 93.528 51.669 0 93.57-41.876 93.57-93.527 0-51.661-41.901-93.537-93.57-93.537" fill="#0F4B90" fill-rule="nonzero"/><path d="M253.86 216.88c-7.181 2.507-14.093 6.151-20.945 9.326-4.675-2.795-7.351-3.504-10.508-5.541 9.839-3.575 20.426-4.114 31.453-3.784m67.028 39.709c-22.044-22.206-55.115-20.599-83.172-28.456 0 0 16.51-7.859 25.03-10.035 22.924 3.904 45.117 17.623 58.142 38.491m-123.93 3.338c-21.175 32.48-24.041 72.5-7.181 107.566-21.794-18.303-34.78-53.738-25-88.146 8.01-11.193 18.318-21.088 32.181-19.42" fill="#F26729" fill-rule="nonzero"/><path d="M219.63 283.057c11.417 33.928 13.944 71.48 43.5 105.648-23.044 4.673-45.877-2.226-64.075-13.759-22.554-32.89-20.426-81.955 2.117-113.846 10.987 3.165 16.97 17.523 18.459 21.957" fill="#F26729" fill-rule="nonzero"/><path d="M203.79 257.518a99.952 99.952 0 0111.636-13.65c47.933 13.53 93.639 63.214 101.47 112.04-2.288 3.684-7.761 8.826-11.437 12.5-11.916 10.704-25.04 16.245-37.636 19.25-22.383-23.214-29.754-53.348-37.665-83.052-6.063-22.796-10.278-39.99-26.349-46.969l-.02-.12z" fill="#F26729" fill-rule="nonzero"/><path d="M315.783 257.303c-23.153-20.419-55.405-17.803-82.463-27.318-5.224 3.205-10.338 6.989-14.702 10.903 47.933 15.027 91.432 61.876 101.79 110.291 7.51-10.853 12.055-23.454 13.883-36.823 1.169-20.529.969-39.21-18.508-57.053M211.475 242.37c-4.624 4.443-8.09 8.816-11.696 13.918l-.11-.03c-12.685-2.835-22.693 3.725-30.734 11.902 3.836-9.685 11.876-21.177 20.386-28.686 7.851.34 13.564.22 22.154 2.896m3.4-2.97c4.534-4.035 8.929-7.56 14.382-10.834l-12.295-6.09c-8.18 3.344-16.94 7.697-22.953 13.199 9.299 1.088 13.274 1.657 20.865 3.724" fill="#F26729" fill-rule="nonzero"/><path d="M234.853 95.22l-3.785 3.764-6.482.39-2.418-2.097-3.046 2.586-7.062.659-3.106-2.956 4.075-27.638 5.344-.729-2.887 24.403 3.836-.42 2.976-24.452 5.284-.519-2.207 24.283 3.755-.35 1.928-24.163c2.247-.24 3.406-.22 5.374-.33l-1.578 27.569zm17.338-27.944l.05 17.394 3.406-.02-.21-17.294s3.586.11 5.194.25l.69 19.5-3.287 3.285-1.079.05.16 8.347-5.803-.17-.07-8.357-1.158-.09-3.516-3.584.22-19.4c1.877 0 5.403.09 5.403.09m-43.051 3.222l-.91 5.712-6.461 1.218-1.169 6.68c2.367-.43 3.816-.66 6.632-1.039-.39 2.487-.51 3.345-.939 5.692l-6.492.928-1.219 6.39 6.653-.958s-.66 4.303-1 6.22c-4.654.58-9.338 1.248-13.803 2.027 0 0 5.004-23.184 6.243-30.333l12.465-2.537zm-24.363 33.893l-6.742 1.328 3.096-12.641-2.097-4.533-5.294 18.192-6.582 1.498c2.736-9.845 5.543-19.7 8.28-29.545a159.632 159.632 0 015.953-1.867c.729 1.657 2.507 5.002 2.507 5.002l1.598-6.17s4.175-1.099 6.272-1.578l-6.991 30.314zm85.89-30.42l1.688 18.87 3.346.27-1.778-18.781-3.256-.36zm8.88-1.339c.669 7.918 1.977 15.497 2.776 22.885l-2.946 4.493-9.529-.629-3.436-3.744c-.61-8.078-1.029-16.225-1.528-24.333.879-1.158 2.217-2.057 3.266-3.185l7.94.769 3.457 3.744zm30.786 2.83c1.189 4.533 3.506 13.879 3.506 13.879l2.258.459 1.098-1.508-2.826-11.612s2.796.779 5.793 1.688l2.996 11.242-1.408 2.027 2.617 2.876 3.955 13.699-6.512-1.458-2.557-9.605-4.055-.909 2.217 9.566-6.602-1.299c-2.307-10.304-6.483-30.593-6.483-30.593s3.356.7 6.003 1.548m-19.47 1.5l1.128 7.869 3.586.399-1.519-7.688-3.196-.58zm9.159-.399l2.177 11.303-1.259 1.737 2.218 2.646 1.917 11.223-6.342-1.108-1.728-9.346-3.815-.42 1.348 9.117-6.333-.799L284 69.914l12.106 2.137 3.916 4.513z" fill="#0F4B90" fill-rule="nonzero"/><path d="M0 0h500v500H0z"/></g></svg>