<svg width="500" height="500" viewBox="0 0 500 500" xmlns="http://www.w3.org/2000/svg" xmlns:xlink="http://www.w3.org/1999/xlink"><defs><path id="a" d="M499.962 293.543H0V.305h499.962z"/></defs><g fill="none" fill-rule="evenodd"><g transform="translate(0 100.735)"><mask id="b" fill="#fff"><use xlink:href="#a"/></mask><path d="M268.556 69.945v.01l-.01.011.01-.02zm15.565 74.181v-.01h.01c-.01 0-.01.01-.01.01zm215.727-54.313c-.02-.094.01-.187-.01-.28-.063-.24-.208-.427-.29-.655-.125-.323-.228-.645-.405-.936-.165-.26-.373-.467-.58-.696-.228-.239-.425-.488-.694-.696-.28-.197-.58-.333-.892-.478-.259-.125-.507-.27-.787-.353-.353-.094-.715-.104-1.088-.125-.249-.02-.477-.114-.736-.093-30.105 2.42-61.059 7.055-92.148 13.59a419.508 419.508 0 005.181-14.775c29.442-5.33 59.07-10.131 88.117-14.256.228-.032.404-.156.622-.219.31-.083.612-.166.891-.3.3-.157.56-.344.83-.541.248-.187.476-.364.683-.582.228-.25.404-.52.58-.81.156-.26.322-.51.436-.8.124-.312.176-.645.238-.988.042-.228.156-.426.166-.665 0-.093-.041-.187-.041-.28 0-.094.041-.187.03-.291-.01-.26-.134-.489-.186-.738-.062-.312-.114-.624-.228-.915-.135-.311-.331-.581-.518-.862-.166-.26-.311-.51-.528-.727-.228-.25-.519-.426-.798-.624-.25-.176-.467-.363-.747-.488-.331-.156-.684-.218-1.036-.291-.249-.062-.466-.187-.725-.208-25.825-2.016-52.707-2.504-79.982-1.6.736-2.764 1.461-5.56 2.166-8.396a5.197 5.197 0 00-2.653-5.87C354.796 12.92 307.075.304 250.016.304c-57.069 0-104.79 12.615-164.74 43.56a5.216 5.216 0 00-2.664 5.87l3.627 14.651a335.292 335.292 0 0022.426 62.782c-37.825 16.23-73.599 34.934-106.263 55.758a5.22 5.22 0 00-1.876 6.681 5.205 5.205 0 004.653 2.9c.591 0 1.192-.105 1.772-.312 31.172-11.358 63.64-22.247 96.501-32.586-6.021 12.76-11.949 25.582-17.648 38.456l-.923 2.058c-3.15 6.94-7.471 16.459-4.404 24.45 1.451 3.782 4.29 6.608 9.202 8.676a22.13 22.13 0 001.793.395c-22.964 16.085-44.592 33.095-64.582 50.811a5.208 5.208 0 00-.798 6.89 5.183 5.183 0 004.238 2.203 5.11 5.11 0 002.508-.655c45.38-25.188 93.34-49.669 142.575-72.788 20.798 20.2 44.903 38.57 71.94 54.812a5.207 5.207 0 005.326 0C316.412 236.605 359.678 191 388.352 131.792c36.198-13.092 72.51-25.24 107.952-36.14.228-.072.394-.228.611-.321.28-.125.54-.25.788-.416.29-.208.528-.447.777-.696.197-.219.394-.416.56-.665.197-.291.321-.593.456-.915.114-.27.238-.54.3-.841.073-.343.073-.686.083-1.04 0-.228.083-.446.052-.675-.01-.093-.073-.177-.083-.27z" fill="#FEFEFE" fill-rule="nonzero" mask="url(#b)"/></g><path d="M494.784 191.421c-36.074 11.087-72.811 23.39-110.035 36.888 3.316-6.952 6.425-14.121 9.368-21.51m.002 0c34.405-7.668 68.127-12.77 100.667-15.378M30.326 389.082c28.777-25.51 61.224-49.782 96.78-72.123a2270.966 2270.966 0 0120.104-10.1c2.767-1.371 8.187-4.01 15.005-7.294a330.118 330.118 0 0014.24 15.056c-51.06 23.878-99.91 48.806-146.13 74.461" fill="#0070B9" fill-rule="nonzero"/><path d="M494.784 165.648a2352.489 2352.489 0 00-91.268 14.827c1.71-5.299 3.317-10.713 4.871-16.22" fill="#EF5133" fill-rule="nonzero"/><path d="M408.388 164.252c29.742-1.257 58.645-.769 86.397 1.393" fill="#ED2A37" fill-rule="nonzero"/><path d="M5.181 288.045c33.4-21.29 70.397-40.68 110.346-57.524a339.287 339.287 0 004.093 7.98c-2.134 4.406-4.28 8.801-6.394 13.228-37.14 11.492-73.194 23.619-108.044 36.316" fill="#EF5133" fill-rule="nonzero"/><path d="M250.008 116.58c56.302 0 100.46 13.207 150.305 38.124-24.384 92.167-69.017 154.076-150.295 204.379-30.54-18.943-56.499-40.057-78.189-64.123 9.648-4.592 20.53-9.767 30.084-14.297 3.866.353 7.576.54 11.026.633-.217 5.31-1.886 9.207-4.56 12.002a382.993 382.993 0 004.726 5.31c4.218-3.783 6.923-9.352 7.14-17.29 9.887-.157 19.431-1.175 28.291-3.056-.497 14.516-2.518 25.209-6.642 29.448a1.216 1.216 0 00-.29.385c-1.026 1.08-1.949 1.995-2.747 2.69a127.06 127.06 0 0011.762-2.742c4.975-10.319 5.037-28.388 5.11-31.526 9.233-2.328 17.44-4.666 24.83-7.201.29 8.49 3.668 16.594 10.134 19.587 2.912-2.058 5.73-4.25 8.456-6.516-1.637.25-11.855.956-11.71-15.534 21.628-8.178 35.711-18.028 48.105-32.752 3.275-7.409 5.918-15.181 7.783-23.234-14.82 23.452-28.478 37.137-55.142 47.87.757-4.727 2.125-10.38 4.332-17.155 7.772-3.262 15.887-7.159 20.778-9.175l11.658-12.282c2.933-11.347 5.845-22.704 8.757-34.05l-9.12 2.846 10.716-11.295c2.26-8.884 4.466-17.789 6.674-26.673-5.368.79-10.747 1.59-16.125 2.431.901-4.447 1.544-8.842 1.886-13.238a282.958 282.958 0 00-7.793-1.87c-.55 4.936-1.513 10.412-2.974 16.511l-.736.114c-5.036.852-10.197 2.515-14.684 6.308l1.44-4.375c-8.643 1.57-17.254 3.159-25.866 4.832l-8.58 9.04.28-.727 2.776-7.243a2186.3 2186.3 0 00-25.524 5.414 1091.451 1091.451 0 00-5.098-30.362c-2.415.28-4.83.623-7.223.966 1.554 8.52 3.368 19.192 5.181 30.975l-6.031 1.361-7.658 8.095c-5.368-5.694-16.26-2.099-23.13-.364a1432.102 1432.102 0 00-22.302 5.84 109.9 109.9 0 00-6.59 2.037c-5.566-8.043-10.799-16.345-15.12-25.281l-.778-1.653a235.68 235.68 0 00-6.704 2.847l.953 1.975c4.207 8.738 9.275 16.906 14.736 24.834-8.01 3.574-15.41 8.531-21.824 15.618 0 0-10.415 10.93-11.638 12.271-2.705 3.117-5.037 6.432-7.099 9.81-10.933-22.071-19.607-46.084-26.115-72.405 49.857-24.917 94.034-38.145 150.368-38.134zm5.503 139.519c5.181-2.286 10.363-4.552 15.524-6.827l2.425-2.525c1.015.166 2.186.197 3.502.072 2.021-.342 4.487-1.039 7.161-1.974-1.741 6.37-2.798 11.877-3.275 16.667-7.368 2.608-15.637 5.07-25.037 7.45-.01-4.114-.114-8.416-.3-12.864zm-35.856 16.199l4.86-2.265 12.477-10.059 2.777-7.689c1.803 3.658 2.778 5.092 4.57 8.78l4.104-1.808c.145 3.96.207 7.814.207 11.493-9.005 2.068-18.736 3.18-28.778 3.335l-.217-1.787z" fill="#FEFEFE" fill-rule="nonzero"/><path d="M280.338 135.443c11.897 0 23.638.624 35.214 1.87a311.074 311.074 0 0126.187 6.713 133.15 133.15 0 015.078 36.462c0 10.464-1.202 20.616-3.492 30.373-14.82 23.452-28.478 37.147-55.142 47.88.757-4.727 2.135-10.39 4.332-17.154 7.772-3.274 15.887-7.16 20.768-9.186l11.668-12.282c2.933-11.347 5.845-22.704 8.757-34.051l-9.12 2.847 10.726-11.295a5000.306 5000.306 0 006.664-26.663 1471 1471 0 00-16.125 2.421c.901-4.437 1.544-8.843 1.886-13.238a283.188 283.188 0 00-7.793-1.86c-.539 4.925-1.513 10.412-2.974 16.511l-.736.115c-5.047.852-10.197 2.514-14.684 6.296l1.44-4.374a2361.875 2361.875 0 00-25.866 4.832l-8.58 9.04.29-.728 2.767-7.232a2027.43 2027.43 0 00-25.525 5.414c-1.772-11.524-3.544-21.935-5.098-30.362 12.902-1.57 26.021-2.349 39.358-2.349zm55.204 98.652c-8.3 18.807-20.84 35.298-36.384 48.286-1.648.25-11.876.956-11.72-15.534 21.637-8.178 35.71-18.028 48.104-32.752zm-44.85 54.801c-12.053 8.51-25.546 15.046-40.064 19.14 4.963-10.318 5.026-28.388 5.109-31.515 9.223-2.328 17.43-4.676 24.82-7.201.29 8.479 3.668 16.584 10.134 19.576zm-51.826 21.894a131.9 131.9 0 01-12.374 1.694 318.468 318.468 0 01-13.389-13.882c4.207-3.783 6.923-9.352 7.14-17.28 9.887-.167 19.43-1.175 28.291-3.066-.497 14.516-2.518 25.208-6.632 29.448-.155.135-.228.25-.29.384-1.047 1.091-1.959 1.995-2.746 2.702zm-30.478-17.498a324.18 324.18 0 01-9.358-11.264l2.881-1.372c3.866.364 7.576.551 11.026.634-.207 5.31-1.886 9.217-4.549 12.002zm-57.245-94.6a339.546 339.546 0 01-10.643-31.494 329.008 329.008 0 0110.135-4.593l.943 1.985c4.207 8.739 9.275 16.895 14.736 24.824-5.368 2.39-10.467 5.413-15.171 9.279zm6.186-38.934c24.83-10.193 50.22-17.218 76.438-21a1194.16 1194.16 0 015.171 30.975l-6.031 1.351-7.658 8.105c-5.379-5.694-16.27-2.099-23.13-.374a1675.103 1675.103 0 00-22.302 5.84 109.901 109.901 0 00-6.59 2.036c-5.566-8.042-10.799-16.345-15.12-25.28l-.778-1.653zm98.19 96.334c5.171-2.286 10.353-4.551 15.513-6.816l2.425-2.525c1.016.156 2.187.208 3.503.062 2.01-.343 4.477-1.039 7.171-1.964-1.751 6.36-2.798 11.867-3.285 16.657-7.368 2.618-15.638 5.07-25.037 7.46-.01-4.125-.114-8.416-.29-12.874zm-35.866 16.2l4.86-2.255 12.477-10.069 2.777-7.69c1.804 3.669 2.788 5.092 4.57 8.791l4.104-1.818c.145 3.97.207 7.824.207 11.513-9.005 2.047-18.736 3.159-28.778 3.315l-.217-1.787z" fill="#EF5133" fill-rule="nonzero"/><path d="M252.441 343.749A323.24 323.24 0 01188.75 286.9l10.28-4.873a334.155 334.155 0 009.358 11.264 375.982 375.982 0 004.715 5.32c13.659 15.036 28.778 28.803 45.256 41.169a391.68 391.68 0 01-5.918 3.969zM139.701 210.08a338.324 338.324 0 01-17.575-47.819c41.722-19.743 84.925-30.393 130.781-31.63 21.442.187 42.282 2.432 62.655 6.682a331.69 331.69 0 00-35.224-1.87c-13.347 0-26.456.789-39.358 2.348-2.415.28-4.82.613-7.213.966-26.229 3.782-51.608 10.806-76.438 21-2.248.925-4.477 1.87-6.705 2.857a315.166 315.166 0 00-10.124 4.583 336.465 336.465 0 0010.643 31.495 61.33 61.33 0 00-6.643 6.338l-4.798 5.05z" fill="#FCB424" fill-rule="nonzero"/><path d="M87.645 149.219c53.93-27.838 101.237-42.988 162.368-42.988 61.1 0 108.418 15.15 162.327 42.988-25.048 101.186-72.873 168.197-162.327 221.97-33.763-20.283-63.266-44.047-87.795-71.624-6.82 3.283-12.24 5.912-15.016 7.284a3196.228 3196.228 0 00-25.297 12.75c-9.482 4.852-20.01 12.188-30.933 9.351-11.938-5.195-4.073-19.774-.425-28.055a1763.856 1763.856 0 0129.079-62.398c-12.135-22.839-21.68-47.673-28.364-74.627l-3.617-14.651zm162.368-32.638c-56.344-.01-100.51 13.217-150.378 38.134 6.519 26.3 15.182 50.355 26.125 72.404 2.052-3.377 4.384-6.691 7.1-9.82 1.212-1.33 11.637-12.26 11.637-12.26 6.404-7.097 13.814-12.054 21.814-15.618-5.461-7.928-10.518-16.095-14.736-24.834l-.943-1.975a270.477 270.477 0 016.705-2.857l.777 1.663c4.321 8.925 9.544 17.228 15.12 25.28a107.683 107.683 0 016.59-2.036c7.42-2.016 14.85-3.959 22.302-5.85 6.86-1.725 17.751-5.32 23.12.374l7.668-8.095 6.021-1.36a1159.9 1159.9 0 00-5.171-30.976c2.394-.343 4.808-.686 7.213-.966 1.554 8.427 3.326 18.838 5.098 30.362 8.508-1.86 17.016-3.658 25.535-5.414l-2.778 7.232-.29.728 8.58-9.04a2408.97 2408.97 0 0125.867-4.832l-1.44 4.385c4.487-3.793 9.647-5.456 14.684-6.308l.746-.114c1.45-6.1 2.425-11.575 2.964-16.511a330.26 330.26 0 017.803 1.86c-.352 4.395-.995 8.801-1.896 13.238a2358.57 2358.57 0 0116.125-2.421 5280.938 5280.938 0 01-6.664 26.673l-10.726 11.285 9.12-2.847c-2.902 11.357-5.824 22.704-8.747 34.061l-11.668 12.272c-4.881 2.026-13.006 5.923-20.778 9.185-2.197 6.765-3.575 12.428-4.332 17.156 26.664-10.734 40.323-24.43 55.142-47.881-1.866 8.063-4.508 15.835-7.783 23.244-12.394 14.724-26.467 24.575-48.095 32.752-.155 16.49 10.073 15.774 11.71 15.524a129.056 129.056 0 01-8.466 6.515c-6.467-2.982-9.845-11.087-10.135-19.576-7.389 2.535-15.586 4.873-24.82 7.2-.082 3.128-.145 21.209-5.109 31.527a131.502 131.502 0 01-11.762 2.743c.788-.696 1.71-1.61 2.747-2.702a1.02 1.02 0 01.29-.374c4.114-4.24 6.135-14.932 6.632-29.448-8.86 1.881-18.405 2.889-28.28 3.055-.218 7.929-2.933 13.508-7.14 17.28-1.597-1.724-3.172-3.522-4.726-5.31 2.673-2.784 4.342-6.68 4.55-12a159.28 159.28 0 01-11.027-.635c-9.555 4.53-20.426 9.726-30.084 14.309 21.69 24.065 47.66 45.18 78.19 64.112 81.276-50.292 125.91-112.212 150.304-204.369-49.856-24.917-94.003-38.124-150.305-38.124zm5.503 139.508c.186 4.458.28 8.76.29 12.875 9.41-2.39 17.67-4.843 25.037-7.461.487-4.79 1.534-10.298 3.285-16.657-2.684.946-5.15 1.632-7.16 1.964-1.317.135-2.488.094-3.514-.073l-2.414 2.536c-5.171 2.265-10.353 4.53-15.524 6.816zM219.65 272.3l.217 1.787c10.042-.145 19.773-1.267 28.789-3.335 0-3.679-.063-7.534-.218-11.503l-4.104 1.818c-1.782-3.688-2.767-5.122-4.56-8.78l-2.787 7.69-12.477 10.068-4.86 2.255z" fill="#081E3F" fill-rule="nonzero"/><path d="M180.761 188.905c-12.684 3.46-24 8.894-33.058 18.942-5.202 5.975-8.912 12.823-12.373 19.826a1754.064 1754.064 0 00-29.162 62.543c-2.425 5.486-9.886 18.828-1.948 22.278 8.788 2.286 19.773-5.112 27.524-9.071 8.425-4.292 16.86-8.552 25.327-12.76 14.415-7.17 27.338-15.867 36.105-29.843 3.492-5.902 6.094-12.23 8.653-18.548a3058.113 3058.113 0 0116.82-40.69c2.145-5.071 5.886-11.462 4.694-17-2.404-7.43-14.923-2.889-20.374-1.527-7.4 1.89-14.809 3.834-22.208 5.85m-16.031 77.599a1919.936 1919.936 0 00-20.063 9.102c9.69-22.527 19.741-44.899 30.24-67.094 5.865-1.87 11.75-3.688 17.668-5.507-9.606 21.031-18.871 42.208-27.845 63.499m114.718-100.875a2438.377 2438.377 0 00-27.514 36.773 4129.58 4129.58 0 0112.84-33.822c-9.627 1.974-19.223 4.084-28.809 6.266-2.477 5.819-4.964 11.627-7.41 17.457 2.073-.582 4.156-1.154 6.218-1.725-7.554 18.308-14.902 36.68-22.114 55.082a12539.692 12539.692 0 00-8.83 22.465 3164.886 3164.886 0 0128.913-13.519c4.373-12.105 8.778-24.2 13.244-36.264 4.094 8.23 8.166 16.48 12.208 24.751a1674.887 1674.887 0 0118.695-8.26 3207.21 3207.21 0 00-11.545-26.02 3172.642 3172.642 0 0120.913-31.421 613.555 613.555 0 015.938-1.403l4.446-13.592c-5.731 1.05-11.472 2.11-17.193 3.232m37.266-6.39c-5.171.862-9.845 2.525-13.7 6.41-3.16 3.43-4.84 7.493-6.25 11.836-4.113 12.968-8.258 25.946-12.393 38.924-1.617 5.133-4.26 14.475 3.938 13.779 2.798-.457 5.43-1.61 8.052-2.743a2385.11 2385.11 0 0124.933-10.495 4442.579 4442.579 0 006.322-24.46c-4.384 1.371-8.747 2.774-13.12 4.177-1.036 3.678-2.052 7.367-3.078 11.035-3.036 1.122-6.072 2.223-9.109 3.356 3.845-13.165 7.69-26.32 11.503-39.496a997.048 997.048 0 018.083-1.714c-.642 2.307-1.264 4.613-1.907 6.93 3.928-.945 7.866-1.88 11.794-2.774a11178.211 11178.211 0 004.466-17.81c-6.508.966-13.026 1.974-19.534 3.045" fill="#FEFEFE" fill-rule="nonzero"/><path d="M351.71 147.205a291.957 291.957 0 0111.326 4c9.244 3.45 17.42 6.962 24.177 10.215-20.87 71.832-63.618 132.068-123.941 174.941l-4.923 3.419c-17.658-13.26-28.084-23.67-28.084-23.67l8.312-1.373c25.223-4.218 49.535-15.68 69.639-34.477 34.26-32.055 48.167-77.807 41.11-120.918-.176-.977-.373-1.954-.528-2.93l-.083-.427-.083-.457-.104-.478-.093-.447-.083-.499-.104-.467-.114-.52-.114-.488-.103-.468-.073-.394-.145-.551-.103-.52-.104-.384-.073-.385-.093-.374a103.415 103.415 0 00-1.098-4.146 1167.845 1167.845 0 015.482 1.798m.663.842a426.202 426.202 0 0111.12 3.969 279.27 279.27 0 00-11.12-3.97" fill="#0070B9" fill-rule="nonzero"/><path d="M0 0h500v500H0z"/></g></svg>