<svg width="500" height="500" viewBox="0 0 500 500" xmlns="http://www.w3.org/2000/svg" xmlns:xlink="http://www.w3.org/1999/xlink"><defs><path id="a" d="M499.169 291.082V.044H.002v291.039z"/></defs><g fill="none" fill-rule="evenodd"><g transform="translate(0 103.95)"><mask id="b" fill="#fff"><use xlink:href="#a"/></mask><path d="M432.68 71.414a739.818 739.818 0 0111.947-5.132l12.822-5.369-42.03-13.634L405.314.04l-25.419 38.017-43.091-10.975 14.48 18.817c-54.266-6.894-114.536-1.803-168.669 14.314l3.574-11.232-9.249 2.658C103.23 72.776 38.715 130.176 8.56 201.438l-8.559 20.24 16.654-14.325c36.026-30.947 73.206-62.894 127.174-80l-15.037 34.976 13.11-7.183c11.845-6.492 25.213-11.48 39.477-14.922l19.26 6.616c30.156 10.336 56.326 19.291 82.032 35.739-.195 28.05 11.185 55.875 31.485 76.764 19.929 20.497 45.934 31.74 73.31 31.74h.813c62.845-.474 99.902-46.755 108.749-92.387 7.95-41.025-4.666-97.57-64.35-127.28" fill="#FEFEFE" fill-rule="nonzero" mask="url(#b)"/></g><path d="M194.277 243.167c35.718-5.483 71.363-3.875 102.57 9.305l3.8-8.368c-50.487-16.261-113.95-15.427-161.223 10.47l13.46-31.307C93.47 239.333 53.489 272.867 13.3 307.4c29.301-69.262 93.012-126.2 165.065-146.861l-3.667 11.49c63.093-20.6 132.344-24.506 188.413-15.242l-13.131-17.096 32.164 8.203 20.69-30.916 8.178 38.233 31.629 10.264s-23.04 9.656-21.937 10.11c119.79 49.372 81.445 213.423-32.463 214.299-57.614.474-102.312-51.62-100.365-106.114-29.291-19.292-58.685-28.577-93.599-40.603" fill="#C4CDD3" fill-rule="nonzero"/><path d="M408.856 175.63l18.899-8.245.916-.401-.958-.32s-19.795-6.513-24.048-7.894c-.639-4.483-3.77-26.02-3.77-26.02l-.144-1.042-7.199 11.717s-4.13 6.647-6.354 10.275l-25.14-6.41-1.082-.268.68.876c.02.02 8.332 10.728 13.368 17.24-20.588-4.472-44.338-6.976-71.569-6.976-8.94 0-18.25.268-27.931.825-37.129 2.122-73.64 9.048-108.677 21.713l4.007-11.923-.711.216C114.31 186.131 54.349 237.565 27.839 288.421l.597.454c37.479-35.172 88.202-63.265 133.673-73.487l-11.947 27.855.927-.443c21.154-10.223 48.93-14.747 76.965-14.747 28.673 0 57.613 4.74 79.983 12.892l-8.579 18.704c-20.392-9.357-49.889-15.664-74.36-15.664-4.356 0-8.558.196-12.524.618l-.061.753c28.9 8.161 58.828 17.385 82.547 36.408a85.002 85.002 0 00-.216 6.05c.01 50.063 43.205 95.375 93.887 95.386.34 0 .69-.01 1.03-.01 55.863-.66 97.255-51.909 97.265-105.342.01-39.356-22.503-79.918-78.17-102.218" fill="#120C0D" fill-rule="nonzero"/><path d="M378.384 267.333c-20.63 0-41.27-7.565-62.001-15.19-5.459 11.562-8.24 23.681-8.24 36.006 0 6.555.783 13.18 2.38 19.797 1.71.041 3.43.062 5.15.062 40.022 0 82.495-11.13 116.802-31.483-3.955-7.358-8.858-14.232-13.945-20.848-13.358 8.45-26.747 11.656-40.146 11.656" fill="#C4CDD3" fill-rule="nonzero"/><path d="M314.23 315.785h-1.349c12.514 32.39 41.217 53.856 76.224 54.34 11.206-27.618 23.637-57.792 52.052-71.9-1.483-4.978-3.306-9.821-5.314-14.592-36.593 21.393-79.314 32.152-121.613 32.152m86.508-101.646c-12.441-4.751-20.372-6.225-21.113-6.359-3.481.474-8.209.938-12.03 1.7 21.155 8.43 36.768 18.653 52.464 36.162 8.064-6.379 15.15-13.603 20.063-22.476-14.388-14.005-41.485-31.163-109.068-36.48 28.539 6.79 54.781 15.952 70.034 26.783l-.35.67zm-189.485-9.381c4.192-.093 8.713-.145 13.502-.145 48.015.021 122.117 5.668 150.852 39.81l-.484.577c-9.939-5.544-29.826-14.726-42.227-14.716-.401 0-.793.01-1.174.03-4.264 4.71-8.033 9.925-11.411 15.325 19.208 7.08 38.653 14.118 57.922 14.108 12.102 0 24.131-2.762 36.047-10.027-33.307-36.316-89.674-52.155-142.849-52.155-21.113 0-41.732 2.493-60.178 7.193m227.209 67.97c9.29-6.328 17.312-12.934 24.594-21.425-4.583-8.719-12.503-18.509-18.188-23.548-5.294 9.337-12.07 17.045-20.31 23.826 4.85 6.472 9.98 14.026 13.904 21.147" fill="#C4CDD3" fill-rule="nonzero"/><path d="M397.248 369.788c16.87-2.06 32.381-7.821 45.42-18.9 2.008-7.471 2.863-15.2 2.863-22.95 0-7.399-.783-14.83-2.111-22.053-25.45 12.232-36.017 39.098-46.171 63.903m55.794-36.873c0 2.555-.062 5.111-.185 7.667 9.897-13.397 15.201-25.032 18.137-42.149-7.22.64-14.378 1.855-21.186 4.112 2.225 10.089 3.234 20.188 3.234 30.37m-11.077-53.104a174.845 174.845 0 015.943 15.603c7.93-2.587 15.593-3.916 23.863-4.421.01-.588.01-1.165.01-1.752 0-10.955-1.616-19.385-5.18-29.865-7.59 7.77-15.603 14.386-24.636 20.435" fill="#C4CDD3" fill-rule="nonzero"/><path d="M471.77 290.997c-8.27.505-15.922 1.834-23.863 4.42a170.605 170.605 0 00-5.943-15.601c9.033-6.06 17.056-12.676 24.636-20.446 3.563 10.49 5.18 18.92 5.18 29.875 0 .577 0 1.164-.01 1.752" fill="#C4CDD3" fill-rule="nonzero"/><path d="M471.77 290.997c-8.27.505-15.922 1.834-23.863 4.42a170.605 170.605 0 00-5.943-15.601c9.033-6.06 17.056-12.676 24.636-20.446 3.563 10.49 5.18 18.92 5.18 29.875 0 .577 0 1.164-.01 1.752m-26.905-63.244c5.685 5.04 13.615 14.84 18.198 23.548-7.292 8.491-15.315 15.107-24.604 21.424-3.924-7.12-9.053-14.674-13.904-21.146 8.239-6.781 15.016-14.49 20.31-23.826" fill="#C4CDD3" fill-rule="nonzero"/><path d="M444.865 227.753c5.685 5.04 13.615 14.84 18.198 23.548-7.292 8.491-15.315 15.107-24.604 21.424-3.924-7.12-9.053-14.674-13.904-21.146 8.239-6.781 15.016-14.49 20.31-23.826m-113.815-41.07c67.583 5.327 94.68 22.485 109.078 36.48-4.923 8.873-12.009 16.097-20.063 22.476-15.696-17.499-31.32-27.732-52.464-36.162 3.811-.752 8.538-1.226 12.02-1.7.741.134 8.671 1.608 21.113 6.359l.36-.67c-15.263-10.831-41.505-19.982-70.044-26.784" fill="#C4CDD3" fill-rule="nonzero"/><path d="M331.05 186.682c67.583 5.328 94.68 22.486 109.078 36.481-4.923 8.873-12.009 16.097-20.063 22.476-15.696-17.499-31.32-27.732-52.464-36.162 3.811-.752 8.538-1.226 12.02-1.7.741.134 8.671 1.608 21.113 6.359l.36-.67c-15.263-10.831-41.505-19.982-70.044-26.784m-15.38 121.329c-1.72 0-3.44-.02-5.15-.062-1.596-6.626-2.379-13.242-2.379-19.797 0-12.335 2.781-24.454 8.25-36.006 20.722 7.615 41.361 15.19 61.99 15.19 13.4 0 26.789-3.205 40.147-11.666 5.087 6.626 9.99 13.5 13.945 20.858-34.307 20.353-76.78 31.483-116.803 31.483" fill="#C4CDD3" fill-rule="nonzero"/><path d="M315.671 308.01c-1.72 0-3.44-.02-5.15-.061-1.596-6.626-2.379-13.242-2.379-19.797 0-12.335 2.781-24.454 8.25-36.006 20.722 7.615 41.361 15.19 61.99 15.19 13.4 0 26.789-3.205 40.147-11.666 5.087 6.626 9.99 13.5 13.945 20.858-34.307 20.353-76.78 31.483-116.803 31.483" fill="#C4CDD3" fill-rule="nonzero"/><path d="M389.106 370.122c-35.007-.484-63.71-21.95-76.224-54.34h1.35c42.298 0 85.019-10.759 121.612-32.152 2.008 4.781 3.83 9.614 5.314 14.592-28.415 14.108-40.847 44.282-52.052 71.9" fill="#C4CDD3" fill-rule="nonzero"/><path d="M389.106 370.122c-35.007-.484-63.71-21.95-76.224-54.34h1.35c42.298 0 85.019-10.759 121.612-32.152 2.008 4.781 3.83 9.614 5.314 14.592-28.415 14.108-40.847 44.282-52.052 71.9m63.752-29.537c.123-2.566.185-5.122.185-7.667 0-10.182-1.01-20.291-3.234-30.38 6.808-2.257 13.966-3.463 21.186-4.112-2.936 17.127-8.24 28.762-18.137 42.159" fill="#C4CDD3" fill-rule="nonzero"/><path d="M452.858 340.585c.123-2.566.185-5.122.185-7.667 0-10.182-1.01-20.291-3.234-30.38 6.808-2.257 13.966-3.463 21.186-4.112-2.936 17.127-8.24 28.762-18.137 42.159m-38.582-90.87c-11.916 7.265-23.935 10.037-36.047 10.037-19.27 0-38.714-7.028-57.922-14.118 3.378-5.4 7.147-10.604 11.411-15.324.381-.01.773-.031 1.174-.031 12.4-.01 32.288 9.182 42.227 14.726l.484-.587c-28.724-34.142-102.837-39.79-150.852-39.81-4.779 0-9.31.062-13.502.144 18.456-4.688 39.065-7.182 60.188-7.182 53.175-.01 109.542 15.829 142.84 52.145" fill="#C4CDD3" fill-rule="nonzero"/><path d="M414.276 249.715c-11.916 7.265-23.935 10.037-36.047 10.037-19.27 0-38.714-7.028-57.922-14.118 3.378-5.4 7.147-10.604 11.411-15.324.381-.01.773-.031 1.174-.031 12.4-.01 32.288 9.182 42.227 14.726l.484-.587c-28.724-34.142-102.837-39.79-150.852-39.81-4.779 0-9.31.062-13.502.144 18.456-4.688 39.065-7.182 60.188-7.182 53.175-.01 109.542 15.829 142.84 52.145m28.39 101.17c-13.039 11.077-28.55 16.848-45.42 18.9 10.155-24.806 20.722-51.662 46.172-63.904 1.328 7.224 2.11 14.654 2.11 22.053 0 7.75-.854 15.479-2.862 22.95" fill="#C4CDD3" fill-rule="nonzero"/><path d="M442.667 350.884c-13.039 11.078-28.55 16.85-45.42 18.9 10.155-24.805 20.722-51.66 46.172-63.903 1.328 7.224 2.11 14.654 2.11 22.053 0 7.75-.854 15.479-2.862 22.95m-66.77-168.024l14.696-5.143 11.154 12.666-1.298-16.53 14.234-6.214-15.49-5.08-2.4-16.51-8.27 13.408-15.685-4.01 10.402 13.377z" fill="#C4CDD3" fill-rule="nonzero"/><path fill="#FEFEFE" fill-rule="nonzero" d="M297.6 194.768l10.207-5.04 8.507 7.564-1.659-11.253 9.826-5.72-11.216-1.916-2.42-11.099-5.263 10.089-11.34-1.154 7.962 8.13zm-114.77 22.589l6.726-3.318 5.582 4.977-1.092-7.4 6.458-3.77-7.374-1.268-1.597-7.297-3.47 6.606-7.447-.731 5.232 5.348z"/><path d="M436.932 318.923l-.01-1.37-9.475 15.88 2.719-13.984-.67-.32c-13.883 16.85-19.187 28.958-23.502 43.88l-.206.711.7-.237c15.583-5.41 23.626-11.665 26.922-14.283l.072-.062.041-.082c2.318-5.029 3.41-15.221 3.42-27.711 0-.804-.01-1.608-.01-2.422m-31.68-36.772c-15.16 3.081-32.854 4.895-49.065 4.895-2.441 0-4.84-.042-7.189-.124l34.78-10.295-.092-.752c-22.967-1.082-40.692-1.515-63.134-12.037l-.32-.155-.175.31c-3.337 5.997-5.242 14.396-5.242 22.908 0 4.834.618 9.708 1.936 14.18l.083.269.268.01c.02 0 .813.02 2.286.02 10.031 0 51.238-1.102 86.111-18.508l-.247-.721zm7.67 28.228c-17.539 13.036-30.742 23.579-56.603 28.453 23.945-12.449 40.012-21.012 55.11-36.316l-.463-.598c-26.778 15.603-61.65 22.28-86.255 23.208l-.67.02.36.567c20.26 32.07 45.883 34.946 54.215 34.946h.052c1.73 0 2.698-.114 2.719-.114l.175-.03.093-.145c10.876-17.2 17.786-33.76 31.783-49.424l-.515-.567z" fill="#0077C0" fill-rule="nonzero"/><path d="M394.966 203.508a68.944 68.944 0 00-3.913-1.907c20.711 6.152 34.677 14.15 42.484 20.23-1.205 1.782-2.544 3.503-3.914 5.173a101.247 101.247 0 00-34.657-23.496m63.803 116.048l-.072-1.35a103.114 103.114 0 001.947-16.695c1.462-.391 2.966-.69 4.47-.968-1.607 6.853-3.605 13.087-6.345 19.013m8.652-36.357c-2.699.36-5.201.752-7.673 1.288a103.197 103.197 0 00-2.38-11.882 184.192 184.192 0 007.87-7.008c1.493 5.76 2.121 11.171 2.183 17.602m-9.239-34.028a111.959 111.959 0 01-6.776 6.719c-2.513-5.4-5.449-10.584-8.847-15.479a98.42 98.42 0 005.087-6.647c4.326 4.792 8.085 10.398 10.536 15.407" fill="#FEFEFE" fill-rule="nonzero"/><path d="M0 0h500v500H0z"/></g></svg>