<?xml version="1.0" encoding="UTF-8"?>
<svg xmlns="http://www.w3.org/2000/svg" xmlns:xlink="http://www.w3.org/1999/xlink" id="Layer_1" data-name="Layer 1" viewBox="0 0 100 68.18">
  <defs>
    <style>
      .cls-1 {
        clip-path: url(#clippath);
      }

      .cls-2 {
        fill: none;
      }

      .cls-2, .cls-3, .cls-4, .cls-5, .cls-6, .cls-7, .cls-8 {
        stroke-width: 0px;
      }

      .cls-9 {
        clip-path: url(#clippath-1);
      }

      .cls-3 {
        fill: #646977;
      }

      .cls-4 {
        fill: #140f10;
      }

      .cls-5 {
        fill: #bbc4ca;
      }

      .cls-6 {
        fill: #fff;
      }

      .cls-7 {
        fill: #ec008c;
      }

      .cls-8 {
        fill: #0077c0;
      }
    </style>
    <clipPath id="clippath">
      <rect class="cls-2" y="0" width="100" height="68.18"></rect>
    </clipPath>
    <clipPath id="clippath-1">
      <rect class="cls-2" y="0" width="100" height="68.18"></rect>
    </clipPath>
  </defs>
  <g id="OM_35_Anniv_FULL_COLOR" data-name="OM 35 Anniv_FULL_COLOR">
    <g class="cls-1">
      <g class="cls-9">
        <polyline class="cls-7" points="64.63 25.93 64.62 25.93 64.63 25.92 64.63 25.93"></polyline>
        <path class="cls-6" d="m85.12,39.89s0-.02,0-.03v-.03c-.1-2.66-.69-5.31-1.79-7.68-.04-.08-.07-.15-.11-.23-.03-.07-.07-.15-.11-.22-.05-.1-.1-.2-.15-.3-.05-.1-.1-.2-.16-.3,0,0,0,0,0-.02-.05-.09-.1-.19-.15-.27-.05-.1-.11-.19-.17-.29-.51-.86-1.1-1.67-1.77-2.4-.04-.04-.08-.09-.12-.12-.11-.12-.22-.24-.34-.36-.08-.08-.16-.16-.24-.23-.27-.26-.56-.52-.86-.76-.04.04-.07.07-.1.1-.07.07-.13.14-.2.2l-.1.1-.05.05c-.1.11-.21.21-.31.31-.02.02-.03.04-.06.05l-.08.08c.52.54,1,1.14,1.44,1.8,1.19,1.54.49,3.11.49,3.11,0,0-.76,2.47-3.77,2.73-.36-1.68-.84-3.15-1.39-4.43-.19.19-.39.38-.59.58l-.18.17c-.16.16-.33.33-.51.49.35.85.61,1.59.79,2.16.18.58.27.96.27,1.03-1.26.04-2.37-.24-3.52-.79-.29.28-.56.54-.82.79l-.02.02c-.07.08-.15.15-.23.22,1.71.79,3.5,1.4,4.93,1.37l.31,3.11-10.01.06c-.06.06-.12.12-.18.17-.39.38-.83.79-1.35,1.29,6.12-.05,11.55-.07,11.55-.07l-.35,3.16c-4.96.04-12.49,6.84-15.34,7.31-3.15,1.07-5.54.96-7.35.2-.06.05-.12.11-.19.16l-.72.65c-.44.4-.89.8-1.33,1.2.04.04.08.09.12.13.09.1.18.2.27.3.06.06.12.13.19.19l.29.29s.06.06.09.09c.02.02.03.03.05.05.06.06.13.12.19.18.08.08.16.15.24.23h0c.06.06.12.12.19.17.09.08.17.16.26.23.16.13.32.26.48.4.08.06.16.13.24.19.02,0,.02.02.04.03.07.05.14.1.21.16.02,0,.03.02.05.03,0,0,.02.02.03.02.1.07.19.15.3.22.04.03.08.06.12.09.06.04.12.09.18.12.1.07.2.14.31.2.2.14.41.27.62.4h0c1.87,1.14,3.93,1.98,6.08,2.43.3.06.6.12.91.17.12.02.24.03.36.05.08,0,.16.02.23.03.05,0,.09.01.14.02.03,0,.06,0,.09.01.27.03.54.05.82.07.29.02.57.03.86.03.1,0,.19,0,.3,0,.23,0,.45,0,.67,0,.12,0,.23,0,.35,0,.58-.02,1.14-.05,1.71-.12.11,0,.23-.02.33-.04.11-.01.22-.02.33-.04.12-.02.24-.03.35-.05.03,0,.06,0,.08-.01.06,0,.11-.02.17-.03,3.42-.57,6.47-1.92,9.03-3.96,0,0,.01,0,.02,0,0,0,0,0,.01,0,2.69-2.1,4.8-4.89,6.12-8.12t0,0s.02-.05.03-.07c.12-.27.24-.55.35-.84.55-1.56.9-3.22,1.04-4.91.02-.14.02-.27.03-.41,0-.06,0-.13.02-.19v-.02c.02-.37.04-.75.05-1.12,0-.23-.02-.47-.02-.71m-3.62-7.82c1.65,2.15,2.08,7.77,2.08,7.77l-6.5.04-.23-3.11s4.15-.65,4.65-4.69m-14.15,25.37c-1.69,1.15-4.1,1.77-7.71.82-3.56-.93-7.91-5.03-8.04-5.16.16.08,5.63,2.93,12.15-1.35,6.61-4.34,8.92-5.69,10.99-5.61-.5,3.73-3.92,9.31-7.38,11.3m12.38-5.57c-5.46,6.77-11.76,6.84-11.76,6.84,0,0,6.26-2.96,8.5-12.53.15-.04,2.69.19,3.5,2.08.81,1.88.19,3.11-.23,3.61m1.73-2.77c-.69-4.04-4.61-4.5-4.61-4.5l.31-3.11,6.5-.08s-.08,4.5-2.19,7.69"></path>
        <path class="cls-6" d="m74.74,46.14c-.5,3.73-3.92,9.31-7.38,11.3-1.69,1.15-4.1,1.77-7.71.82-3.56-.93-7.91-5.03-8.05-5.16.16.08,5.63,2.93,12.15-1.35,6.61-4.34,8.92-5.69,10.99-5.61"></path>
        <path class="cls-6" d="m75.47,41.37l-.35,3.16c-4.96.04-12.49,6.84-15.34,7.31-3.15,1.07-5.54.96-7.35.2.07-.06.14-.12.2-.18l.26-.24s.1-.09.15-.13c.35-.32.7-.63,1.05-.95l1.26-1.15c.37-.33.73-.67,1.1-1l.02-.02s.1-.09.15-.14c.77-.71,1.55-1.42,2.33-2.14l.2-.19c1.26-1.17,2.52-2.34,3.74-3.48.02-.01.03-.02.05-.04l.05-.05s.05-.05.07-.07c.02-.02.05-.05.07-.07.09-.08.17-.16.26-.24.11-.1.22-.2.33-.31.08-.07.15-.14.22-.2,6.12-.05,11.55-.07,11.55-.07"></path>
        <path class="cls-6" d="m75.47,39.91l-10.01.06.14-.13.26-.25.28-.27h0l3.36-3.2.04-.04.04-.04h0s0,0,0,0l.09-.09.07-.06.06-.06h.02c.08-.09.15-.16.23-.24l.08-.08s.05-.05.08-.07c1.71.79,3.5,1.4,4.93,1.37l.31,3.11Z"></path>
        <path class="cls-6" d="m79.73,51.87c-5.46,6.77-11.76,6.84-11.76,6.84,0,0,6.26-2.96,8.5-12.53.15-.04,2.69.19,3.5,2.08s.19,3.11-.23,3.61"></path>
        <path class="cls-6" d="m80.19,32.45s-.76,2.47-3.77,2.73c-.36-1.68-.84-3.15-1.39-4.43l.21-.21c.16-.16.33-.32.5-.49l.06-.06h0s.08-.08.12-.12l.08-.08c.16-.16.33-.32.51-.49.15-.15.29-.3.44-.44l.22-.22c.15-.15.3-.3.44-.44l.05-.05.59-.59h0c.52.54,1,1.14,1.44,1.8,1.19,1.54.49,3.11.49,3.11"></path>
        <path class="cls-6" d="m83.58,39.83l-6.5.04-.23-3.11s4.15-.65,4.65-4.69c1.65,2.15,2.08,7.77,2.08,7.77"></path>
        <path class="cls-6" d="m83.65,41.41s-.08,4.5-2.19,7.69c-.69-4.04-4.61-4.5-4.61-4.5l.31-3.11,6.5-.08Z"></path>
        <path class="cls-4" d="m50.6,34.39l-.02.02-.4.39.54,1.87-1.86-1.02-1.85,1.02.53-1.86-1.3-1.29,1.83-.06.56-1.36c-1.46-1.34-3.28-2.36-5.29-3-.08-.02-.16-.05-.25-.08-.06-.02-.12-.04-.19-.05-.1-.03-.2-.06-.31-.09-.11-.02-.21-.05-.32-.08.01-.01.03-.02.04-.03.05-.05.12-.09.18-.13.05-.04.11-.08.17-.12.06-.04.12-.08.18-.12.03-.02.06-.04.1-.06.03-.02.06-.05.1-.07h0s.03-.02.05-.03c.02-.01.03-.02.05-.03,0,0,.02,0,.02-.01,0,0,.02-.02.03-.02.13-.09.27-.19.41-.29l.54-1.78-1.37-1.21h.04l1.76-.04v-.02s.75-1.85.75-1.85l.62,1.87h1.79l-.51.51c.27-.19.54-.38.81-.56.02-.02.03-.02.05-.03.02-.02.05-.04.08-.06.02-.01.04-.02.05-.03.04-.03.09-.06.13-.09.06-.05.12-.09.18-.13.12-.09.25-.17.37-.26.12-.09.25-.17.36-.25.09-.06.17-.12.26-.17,0,0,0,0,0,0h0c.06-.04.11-.08.16-.11.03-.02.06-.04.09-.06.04-.02.07-.05.11-.08.02,0,.03-.02.05-.03.03-.02.05-.04.08-.05h0s.02-.02.02-.02c0,0,.02-.01.03-.02.03-.02.06-.04.09-.06t0,0s.05-.03.07-.05c.03-.02.06-.04.09-.06,0,0,.01,0,.02-.01,0,0,.02,0,.02-.02,0,0,0,0,.02-.01,0,0,0,0,0,0,0,0,.01,0,.02,0h0s.02-.01.02-.02c0,0,.01-.01.02-.02.02-.01.03-.02.05-.03.05-.04.09-.07.14-.1,0,0,.01,0,.02-.01.03-.02.06-.04.09-.06,0,0,.01,0,.02-.01,0,0,.01,0,.02-.01.03-.02.05-.04.08-.05,0,0,.02-.01.03-.02l4.78-14.58h-31.5l-3,11.21h18.71l-13.99,10.28.29,7.14c.1,0,.2,0,.31,0,.35,0,.75,0,1.18,0,.28,0,.57,0,.87,0,.1,0,.21,0,.31,0t0,0s.01,0,.02,0t0,0h0s0,0,0,0h0s0,0,0,0h0c.08,0,.16,0,.24,0h0c.17,0,.35,0,.52,0,.32,0,.65,0,.98,0,.22,0,.44,0,.67.01.16,0,.32,0,.48.02.08,0,.16,0,.23.01.12,0,.24.01.36.02.12,0,.23.02.35.03.05,0,.11,0,.16.02.02,0,.04,0,.05,0h0s.03,0,.04,0c.03,0,.06,0,.09,0,0,0,.02,0,.03,0,.63.05,1.19.14,1.63.26h.39s.78-1.76.78-1.76l.74,1.79h1.68l-1.11,1.04c6.72,7.36-10.3,14.17-17.4,3.48l-9.43,7.78c4.74,8,16.21,11.04,25.98,9.03.37-.08.74-.16,1.11-.25l-.46-.44h.16s1.44-.12,1.44-.12l.78-1.91.4,1.05.24.63c.23-.09.47-.17.7-.26.09-.04.17-.07.26-.1.08-.03.16-.06.23-.1.04-.02.08-.03.12-.05.16-.07.31-.13.47-.2.12-.05.24-.11.35-.16.06-.03.12-.05.17-.08.07-.04.15-.07.22-.11,1.29-.64,2.51-1.4,3.61-2.27l-1.03-.62-1.72.99.47-1.79-1.2-1.17h1.69l.78-1.8.68,1.74,1.77.03-1.3,1.2.3,1.06s.05-.04.08-.06c0,0,0,0,0,0,.23-.2.46-.4.68-.61.06-.06.12-.12.18-.18,1.18-1.18,2.19-2.52,2.97-4.02h-.02s-1.6-.97-1.6-.97l-1.86,1.07.51-1.94-1.3-1.27h1.83l.85-1.94.73,1.89,1.92.03-1.41,1.3.45,1.59v.03c.17-.33.32-.67.46-1,.51-1.16.89-2.39,1.11-3.65,0,0,0-.01,0-.02,0-.06.02-.12.03-.17.01-.07.02-.14.04-.22.19-1.2.25-2.37.17-3.52-.07-2.17-.72-4.14-1.82-5.82m-13.28-2.05l.51,1.77-1.74-.93-1.72.96.53-1.75-.64-.61-.6-.57,1.63-.07.8-1.8.74,1.78,1.67.04-1.18,1.17Zm2.76,14.52l.52,1.82h0s-1.69-1.01-1.69-1.01l-1.71.99.47-1.79-1.19-1.17h1.69l.78-1.79h0s0,0,0,0l.68,1.74,1.77.03-1.3,1.2Zm10.67-4.1l-1.86-1.04-1.83,1.04.48-1.83-1.3-1.3,1.78-.05.87-1.98.76,1.92,1.86.08-1.32,1.27.57,1.89Z"></path>
        <path class="cls-6" d="m22.82,6.46h0s-.02.07-.03.11c0,0,0,.01,0,.02,0,.01,0,.03,0,.04,0,.02-.01.04-.02.05-.03.1-.05.21-.09.33-.01.04-.02.07-.03.11-.01.04-.02.07-.03.11,0,.02,0,.04-.02.06,0,.02,0,.04-.02.06t0,0c-.02.06-.03.12-.05.18h0c-.02.06-.03.13-.05.19h0s0,.02,0,.03c-.02.05-.03.11-.05.17-.01.04-.02.08-.03.12,0,.03-.02.06-.02.09h0s0,.04-.02.06h0c-.02.05-.03.1-.04.15-.02.07-.04.15-.06.23-.02.07-.04.15-.06.22,0,.01,0,.02,0,.03,0,.02,0,.03-.02.05,0,.02,0,.04-.01.05,0,.03-.02.07-.03.1-.01.04-.02.09-.03.13-.03.12-.06.23-.09.35-.02.05-.03.11-.05.17-.02.06-.03.12-.05.18-.01.03-.02.07-.03.1,0,.04-.02.09-.03.13-.05.2-.11.41-.17.62,0,.02-.01.05-.02.07-.01.05-.02.09-.04.14-.01.04-.02.09-.04.13h0s-.02.07-.03.1c-.21.79-.43,1.61-.65,2.44-.07.25-.14.51-.2.77h0c-.05.18-.1.36-.15.54-.05.18-.09.35-.14.53,0,.02-.01.04-.02.06,0,.02,0,.04-.02.06,0,0,0,.02,0,.03h0s0,.02,0,.03c-.02.08-.04.17-.07.25h0s-.03.11-.03.11c-.02.06-.03.11-.04.16-.05.19-.1.37-.15.55-.03.09-.05.18-.08.27-.02.09-.05.17-.07.26-.02.09-.05.17-.07.26-.02.09-.05.18-.07.26-.04.17-.09.33-.13.5-.02.09-.05.17-.07.25-.01.05-.02.09-.04.14,0,.03-.02.06-.02.09,0,0,0,0,0,0,0,.02-.01.05-.02.07,0,.04-.02.07-.03.11,0,.02-.01.03-.02.05-.06.23-.12.44-.17.65-.04.14-.07.27-.11.4h0s0,.01,0,.02c0,0,0,0,0,.01,0,0,0,0,0,.01,0,0,0,.02,0,.02h0s-.02.08-.03.12c-.02.06-.03.12-.05.18-.01.05-.02.09-.04.13,0,0,0,.01,0,.02,0,.04-.02.08-.03.11,0,0,0,.02,0,.03-.06.23-.12.43-.16.59h15.58l-9.6,7.06-.77.56c.09,1.88.32,7.97.39,9.8.82.04,1.86.02,2.99,0,.1,0,.21,0,.32,0h.11c1.62-.03,3.38-.06,4.92.1.02,0,.03,0,.05,0,.6.06,1.16.15,1.67.28h0s0-.01,0-.01h0s.19-.57.19-.57l-1.32-1.17,1.32-.03h0c-.44-.12-1-.21-1.63-.26,0,0-.02,0-.03,0-.03,0-.05,0-.09,0,0,0,.02,0,.02,0-.04,0-.09,0-.13-.01-.05,0-.11-.01-.16-.02-.12-.01-.23-.02-.35-.03-.12,0-.24-.02-.36-.02-.08,0-.16-.01-.23-.01-.16,0-.32-.02-.48-.02-.23,0-.44-.01-.67-.01-.33,0-.65,0-.98,0-.17,0-.35,0-.52,0h0c-.08,0-.16,0-.24,0h0s0,0,0,0h0s0,0,0,0h0s0,0,0,0c0,0-.01,0-.02,0t0,0c-.1,0-.21,0-.31,0-.3,0-.59,0-.87,0-.43,0-.83,0-1.18,0-.11,0-.21,0-.31,0l-.29-7.14,13.99-10.28h-18.7l3-11.21h31.5l-4.78,14.58s-.02.01-.03.02c-.03.02-.05.04-.08.05,0,0,0,0-.02.01,0,0,0,0-.02.01-.01,0-.03.02-.04.03-.02,0-.03.02-.05.03-.05.03-.1.07-.16.11-.02,0-.03.02-.05.03,0,0-.01,0-.02.02,0,0-.02,0-.02.02,0,0,0,0-.02,0,0,0,0,0,0,0,0,0,0,0-.02.01,0,0-.02.01-.02.02,0,0,0,0-.02.01-.03.02-.06.04-.09.06-.02.02-.05.03-.07.05h0s-.06.05-.09.07c0,0-.02.01-.03.02,0,0-.02.01-.02.02h0s-.05.03-.08.05c-.02.01-.03.02-.05.03-.04.03-.07.05-.11.08-.02.01-.03.02-.05.03-.28.2-.57.4-.87.61-.17.12-.33.23-.51.36-.05.03-.09.06-.13.09-.04.03-.09.06-.13.09-.02,0-.03.02-.05.03-.27.18-.54.37-.81.56l-.21.21-.02.02-.07.06h0s-.03.03-.05.05h0s-.03.03-.05.05l-.29.29s0,0,0,0h0s0,.02,0,.02l.46,1.83h0v.04s-1.66-1.05-1.66-1.05c-.15.08-.33.18-.51.3-.06.03-.13.08-.2.12-.03.02-.07.04-.1.06-.06.04-.13.08-.19.12h-.02s-.01.02-.01.02l-.04.02-.39.23-.03.02c-.05.03-.11.07-.16.1-.14.09-.28.18-.42.27l-.05.03s-.02.01-.03.02c0,0-.01,0-.02.01-.02.01-.03.02-.05.03.02,0,.03-.02.05-.03-.15.1-.3.21-.44.31-.07.05-.14.1-.21.15-.05.04-.11.08-.16.12-.02,0-.03.02-.04.03.11.02.21.05.32.08.1.03.2.06.31.09.06.02.12.04.19.05.08.02.16.05.25.08,2.02.63,3.83,1.66,5.29,3l-.56,1.36-1.83.06,1.3,1.29-.53,1.86,1.85-1.02,1.86,1.02-.54-1.87.4-.39.02-.02c1.1,1.68,1.75,3.65,1.82,5.82.08,1.14.02,2.32-.17,3.52-.01.07-.02.15-.04.22,0,.06-.02.12-.03.17,0,0,0,0,0,.02-.23,1.27-.6,2.49-1.11,3.65-.14.33-.29.67-.45,1v-.03s-.46-1.6-.46-1.6l1.41-1.3-1.92-.03-.73-1.89-.85,1.94h-1.83l1.3,1.27-.51,1.95,1.86-1.07,1.6.96h.02c-.78,1.51-1.79,2.86-2.97,4.04-.06.06-.12.12-.18.18-.25.24-.5.47-.77.7h0s-.3-1.07-.3-1.07l1.3-1.2-1.77-.03-.68-1.74-.78,1.8h-1.69l1.2,1.17-.47,1.79,1.72-.99,1.03.62c-1.1.87-2.32,1.63-3.61,2.27-.07.04-.15.07-.22.11-.06.02-.12.05-.17.08-.12.05-.23.11-.35.16-.16.07-.31.14-.47.2-.04.02-.08.03-.12.05-.08.03-.16.07-.23.1-.09.03-.18.07-.26.1-.24.09-.47.18-.7.26l.06.14.02.06.02.06,1.48-.07h.16s-1.14,1.2-1.14,1.2l-.03.04.1.31c.13-.05.3-.12.4-.15.12-.05.24-.09.36-.14.02,0,.04-.01.05-.02.02,0,.05-.02.08-.03.09-.03.17-.07.26-.1.12-.05.24-.1.37-.16.47-.2.94-.43,1.4-.66.32-.16.63-.33.94-.51h0s.02-.01.03-.02c0,0,0,0,.02,0,0,0,.01,0,.02-.01.01,0,.03-.01.04-.02h0s0,0,0,0c.12-.08.24-.14.36-.22.14-.09.27-.17.4-.25.13-.09.26-.18.4-.26.13-.09.26-.18.39-.27h0c.76-.77,1.52-1.53,2.26-2.27h.01c.22-.22.43-.44.65-.65l.55-.55c.26-.25.52-.51.77-.76.09-.09.19-.18.28-.27,0,0,0,0,0,0,.01-.01.02-.02.03-.04,0-.01.02-.02.03-.04.02-.04.05-.08.08-.11.03-.03.05-.07.08-.11.05-.07.09-.13.14-.2.02-.02.03-.05.05-.07.03-.05.06-.1.09-.15.1-.15.19-.29.28-.44,0-.02.02-.03.03-.04,0,0,0,0,0-.01.02-.04.04-.08.06-.11.05-.08.1-.16.15-.25.02-.03.04-.06.05-.09.04-.06.07-.13.11-.19.03-.05.06-.11.09-.16.06-.12.12-.23.19-.35.02-.03.03-.05.04-.08.83-1.66,1.41-3.45,1.72-5.29.02-.12.04-.25.05-.37.02-.09.03-.17.04-.25,0-.05.02-.11.02-.16.02-.19.05-.39.06-.58.08.06.15.11.23.16.03.02.06.04.09.06.12.09.25.17.37.26.54.36,1.11.68,1.68.96.17.08.33.16.5.23.09.03.17.07.26.11.09.04.17.07.26.1.08.03.17.07.26.1.09.03.17.06.26.09.93-.88,1.85-1.76,2.77-2.63.23-.23.47-.45.7-.68l.11-.11c.07-.06.14-.13.21-.19.07-.06.14-.13.21-.19.28-.26.55-.52.82-.78l.36-.33c.08-.07.16-.14.23-.21.16-.15.33-.31.5-.45l.53-.5c.41-.39.83-.77,1.24-1.15.14-.13.28-.26.43-.4-.38-.08-.75-.15-1.12-.19-.19-.02-.37-.03-.56-.04h0c-.29-.02-.57-.02-.86-.01-.1,0-.2,0-.3.01-.09,0-.18.01-.27.02-.1,0-.21.02-.32.03-.1.02-.2.02-.3.04-.37.05-.74.12-1.1.21-.04,0-.07.02-.11.03-.11.03-.23.05-.34.09-.12.04-.25.07-.37.11-.05.02-.11.04-.16.05-.33.11-.66.23-.98.36-.13.05-.26.1-.38.16-.1.04-.19.09-.29.13-.1.05-.2.1-.3.15-.61.3-1.2.65-1.77,1.03l-.43-.31h-.02c-.24-.17-.72-.5-.96-.67h0l-1.34-.94c-.06-.26-.12-.53-.2-.79-.02-.06-.03-.13-.05-.19-.01-.03-.02-.07-.03-.1-.03-.09-.06-.19-.09-.28-.03-.08-.05-.16-.09-.24-.07-.21-.15-.42-.24-.63-.04-.09-.07-.17-.11-.25-.03-.07-.06-.14-.1-.21-.02-.03-.03-.06-.04-.09-.01-.03-.02-.06-.04-.09-.03-.05-.05-.11-.08-.16-.08-.16-.16-.31-.24-.46,0,0,0,0,0-.01,0,0,0-.01,0-.02,0,0,0,0,0-.02,0-.01,0-.02-.02-.03,0-.01,0-.02-.02-.03-.02-.04-.05-.09-.07-.13-.02-.05-.05-.09-.08-.13-.06-.11-.12-.21-.19-.32-.03-.04-.06-.09-.09-.13-.12-.19-.25-.37-.38-.54-.08-.1-.16-.21-.24-.31-.08-.1-.16-.2-.25-.3h0s0,0,0-.01t0,0c-.05-.06-.11-.13-.17-.19-.12-.13-.23-.26-.35-.39-.06-.06-.12-.13-.19-.19-.06-.06-.12-.13-.19-.19-.06-.06-.13-.12-.19-.19.28-.85.59-1.81.93-2.85.05-.15.1-.3.15-.45.05-.16.1-.32.16-.48.11-.32.21-.65.32-.98.2-.61.41-1.25.62-1.9.07-.22.15-.44.22-.67,0-.03.02-.06.03-.09.13-.38.25-.76.38-1.14.68-2.08,1.38-4.22,2.05-6.27.09-.26.17-.51.25-.77.08-.26.16-.51.25-.76.07-.23.15-.45.22-.67.03-.07.05-.15.07-.21.05-.16.11-.33.16-.49.09-.28.18-.56.28-.84.06-.19.12-.39.19-.58.43-1.31.82-2.51,1.17-3.56h32.12l-3.07,11.43h-20.98l-2.28,6.92c.89-.3,1.82-.54,2.78-.7.36-.06.72-.12,1.09-.16.03,0,.06,0,.09,0,.12-.02.25-.03.37-.04.08,0,.17-.02.25-.02.02,0,.05,0,.07,0,.15-.01.3-.02.45-.03.02,0,.05,0,.07,0,.1,0,.2,0,.3-.01.2-.01.39-.01.59-.02h0c.61,0,1.22,0,1.82.05.13,0,.25.02.38.03.25.02.51.05.75.08.13.02.25.03.37.05.25.03.49.08.74.12.08.02.16.03.24.05.16.03.33.07.49.1.08.02.16.04.24.06.56.13,1.11.29,1.65.47.15.05.3.11.45.16.08.03.15.06.23.09.08.03.15.06.22.09.15.06.29.12.44.19.05-.05.11-.1.17-.14.22-.2.43-.39.68-.6l.04-.03c.05-.05.11-.1.16-.14,0,0,.02-.01.02-.01.02-.02.03-.03.05-.04-.07-.05-.13-.1-.2-.14-.05-.04-.1-.07-.15-.11-.34-.22-.68-.42-1.04-.6-.07-.04-.15-.08-.22-.11-.08-.04-.16-.08-.24-.12-.05-.03-.1-.05-.16-.07-.05-.02-.11-.05-.16-.07-.06-.02-.12-.05-.18-.07-.08-.03-.16-.07-.25-.1-.08-.03-.16-.06-.23-.09-.35-.12-.7-.24-1.06-.33-.34-.09-.69-.17-1.04-.24t0,0c-.31-.06-.63-.11-.95-.16-.09-.01-.19-.02-.28-.03,0,0-.01,0-.02,0-.12-.02-.24-.03-.36-.04-.04,0-.07,0-.11-.01-.13-.01-.26-.02-.39-.03-.09,0-.19-.01-.29-.02-.09,0-.19,0-.28-.02-.02,0-.04,0-.06,0h-.05s-.03,0-.05,0h-.01s0,0,0,0h0c-.13,0-.26,0-.38-.01h-.39c-1.23,0-2.46.1-3.65.25,0,0,0,0-.01,0,0,0-.02,0-.03,0,0,0-.02,0-.02,0h-.03s-.02,0-.02,0c0,0,0,0-.01,0,0,0,0,0-.02,0-.02,0-.05,0-.08.01h0c.24-.73.62-1.89.86-2.63h17.07s-.03,0-.03,0c.05-.04.09-.08.14-.12l1.18-1.02-1.1,1.14h3.8c.68-2.56,3.36-12.51,4.03-15H22.82Zm41.8,19.47h0s0,0,0,0c0,0,0,0,0,0"></path>
        <polygon class="cls-6" points="37.32 32.34 37.83 34.11 36.09 33.18 34.37 34.14 34.9 32.39 34.9 32.39 34.26 31.78 33.65 31.22 35.29 31.15 36.09 29.35 36.83 31.13 38.5 31.17 37.32 32.34"></polygon>
        <polygon class="cls-6" points="40.08 46.87 40.6 48.68 38.91 47.67 37.19 48.66 37.66 46.87 36.47 45.69 38.15 45.69 38.93 43.91 39.61 45.64 41.38 45.67 40.08 46.87"></polygon>
        <polygon class="cls-6" points="50.18 40.88 50.75 42.77 48.88 41.72 47.05 42.77 47.53 40.93 46.23 39.63 48.01 39.58 48.88 37.61 49.65 39.52 51.51 39.61 50.18 40.88"></polygon>
        <path class="cls-3" d="m41.02,60.46h0s-.01.02-.02.02c-.02,0-.07.03-.12.05,0,0-.02,0-.03,0-.06.02-.06.01-.1.03-.02,0-.03.01-.04.02,0,0,0,0,0,0h-.05s-1.17-.68-1.17-.68h0s0,0,0,0h-.01s-.11-.07-.11-.07l-.31.19-.03.02h0s-.02.02-.02.02h0s0,0,0,0l-1.34.82.14-.51v-.02s0,0,0,0l.04-.14.32-1.16-.04-.03-.49-.46-.05-.04-.14-.12-.46-.44h.16s1.44-.12,1.44-.12l.78-1.91.4,1.05.24.63.06.14.02.06.02.06,1.48-.07h.16s-1.14,1.2-1.14,1.2l-.03.04.1.31.04.14h0s.31.98.31.98Z"></path>
        <path class="cls-3" d="m37.28,39.18l.36,1.11-1.75-1.09-.33.2h0l-1.31.79h-.02s-.05,0-.08-.01h0s.37-1.13.37-1.13h0s0-.01,0-.01h0s.19-.57.19-.57l-1.32-1.17,1.31-.03h.4s.78-1.76.78-1.76l.74,1.79h1.68l-1.11,1.04-.13.12.23.72Z"></path>
        <path class="cls-3" d="m47.74,24.86l-.51.51-.21.21-.02.02-.07.06h0s-.03.03-.05.05h0s-.03.03-.05.05c0,0,0,0-.02.01-.06.05-.12.11-.16.15,0,0-.02.02-.03.03,0,.01-.02.02-.03.04,0,0-.01.02-.02.02,0,0,0,0,0,.01,0,0,0,0,0,.01,0,0,0,0,0,0,0,0,0,0,0,0h0s0,.02,0,.02l.46,1.83h0v.04s-1.67-1.05-1.67-1.05c-.15.08-.33.18-.51.3-.06.03-.13.08-.2.12-.03.02-.07.04-.1.06-.06.04-.13.08-.19.12h-.02s-.01.02-.01.02l-.04.02-.39.23-.03.02-.16.09-.06.04h0s.54-1.8.54-1.8l-1.37-1.21h.04l1.76-.04v-.02s.75-1.85.75-1.85l.62,1.87h1.79Z"></path>
        <path class="cls-4" d="m86.57,19.67l3.07-11.43h-32.12c-.34,1.05-.74,2.26-1.17,3.56-.06.19-.13.39-.19.58-.09.28-.19.56-.28.84-.05.16-.11.32-.16.49-.02.07-.04.14-.07.21-.07.22-.14.44-.22.67-.08.25-.16.5-.25.76-.09.25-.17.51-.25.77-.67,2.06-1.38,4.2-2.05,6.27-.13.38-.25.76-.38,1.14,0,.03-.02.06-.03.09-.07.22-.15.45-.22.67-.21.65-.42,1.28-.62,1.9-.11.33-.22.66-.32.98-.05.16-.1.32-.16.48-.05.16-.1.31-.15.45-.34,1.04-.65,2-.93,2.85.07.06.13.12.19.19.06.06.12.12.19.19.06.06.13.12.19.19.12.13.24.26.35.39.06.06.12.13.17.19t0,0s0,0,0,0h0c.09.1.17.2.25.3.08.1.16.21.24.31.13.18.26.36.38.54.03.05.05.09.09.13.07.1.13.21.19.32.03.04.05.08.08.13.02.04.05.09.07.13,0,0,.02.02.02.03,0,.01.02.02.02.03,0,0,0,0,0,.02,0,0,0,.01,0,.02,0,0,0,0,0,.01.08.15.16.3.24.46.03.05.05.11.08.16.02.03.03.06.04.09.02.03.03.06.04.09.03.07.06.14.1.21.04.08.07.16.11.25.09.21.17.42.24.63.03.08.06.16.09.24.03.09.06.19.09.28,0,.03.02.07.03.1.02.06.04.13.05.19.08.26.14.52.2.79l1.34.94h0c.24.17.72.5.96.67h.02l.43.31c.57-.38,1.16-.72,1.77-1.03.1-.05.2-.1.3-.15.1-.05.19-.09.29-.13.13-.06.26-.11.38-.16.32-.13.65-.26.98-.36.05-.02.11-.03.16-.05.12-.04.25-.07.37-.11.12-.03.23-.06.34-.09.04,0,.08-.02.11-.03.37-.09.73-.16,1.1-.21.1-.01.2-.02.3-.04.11-.01.21-.02.32-.03.09,0,.18-.01.27-.02.1,0,.19,0,.3-.01.28,0,.57,0,.86.01h0c.19,0,.37.02.56.04.37.04.75.1,1.12.19-.15.13-.29.27-.43.4-.41.38-.83.77-1.24,1.15l-.53.5c-.17.15-.33.3-.5.45-.08.07-.16.14-.23.21l-.36.33c-.28.26-.55.52-.82.78-.07.06-.14.13-.21.19-.07.06-.14.13-.21.19l-.11.11c-.23.22-.47.45-.7.68-.93.87-1.85,1.75-2.77,2.63-.09-.03-.17-.06-.26-.09-.09-.03-.17-.06-.26-.1-.09-.03-.17-.07-.26-.1-.09-.04-.17-.07-.26-.11-.17-.08-.33-.15-.5-.23-.58-.28-1.14-.6-1.68-.96-.12-.09-.25-.17-.37-.26-.03-.02-.06-.04-.09-.06-.07-.05-.15-.11-.23-.16-.02.19-.04.39-.06.58,0,.05-.02.11-.02.16,0,.08-.02.16-.04.25-.02.12-.03.25-.05.37-.31,1.85-.89,3.64-1.72,5.29-.01.03-.02.05-.04.08-.06.12-.12.23-.19.35-.03.05-.06.11-.09.16-.03.06-.07.13-.11.19-.02.03-.04.06-.05.09-.05.09-.09.17-.15.25-.02.04-.04.07-.06.11,0,0,0,0,0,.01,0,.01-.02.03-.03.04-.09.15-.19.3-.28.44-.03.05-.06.1-.09.15-.02.02-.03.05-.05.07-.05.07-.09.14-.14.2-.02.04-.05.07-.08.11-.02.04-.05.08-.08.11-.01.02-.02.02-.03.04-.01.02-.02.03-.03.04,0,0,0,0,0,0-.09.09-.19.18-.28.27-.26.25-.51.51-.77.76l-.55.55c-.21.21-.43.43-.65.64h-.01c-.74.75-1.5,1.51-2.26,2.28h0s-.04.05-.06.07h0c-.11.12-.22.23-.32.33-.22.21-.43.43-.63.64l-.18.18c-.43.42-.86.86-1.31,1.32-.19.2-.39.4-.59.61,0,0,0,0-.01.01h0s-.04.04-.06.07c-.06.06-.13.14-.19.2h-.01c-.45.47-.9.94-1.35,1.41l-1.53,1.58,1-.83c.6-.49,1.24-1.04,2.04-1.72l.05-.04c.33-.28.63-.54.94-.82.28-.24.56-.48.84-.72.23-.19.45-.38.67-.58.26-.23.52-.45.78-.68l.22-.19c.47-.41.95-.82,1.42-1.24l.1-.09c.39-.34.78-.69,1.17-1.03h0c.06-.05.12-.1.17-.16.24-.21.48-.42.72-.64h0s.06-.05.09-.09c.02-.02.03-.03.05-.04.44-.4.89-.8,1.33-1.2l.72-.65c.06-.05.13-.11.19-.16.07-.06.14-.12.2-.18l.26-.24s.1-.09.15-.13c.35-.32.7-.63,1.05-.95l1.26-1.15c.37-.33.73-.67,1.1-1l.02-.02s.1-.09.15-.14c.77-.71,1.55-1.42,2.33-2.14l.2-.19c1.26-1.17,2.52-2.34,3.74-3.48.02-.01.03-.02.05-.04l.05-.05s.05-.05.07-.07c.02-.02.05-.05.07-.07.09-.08.17-.16.26-.24.11-.1.22-.2.33-.31.08-.07.15-.14.22-.2.52-.5.96-.91,1.35-1.29.06-.05.12-.11.18-.17l.14-.13.26-.25.28-.27h0l3.36-3.2.04-.04.04-.04s0,0-.02,0c0,0,.01,0,.02,0h0l.09-.09.07-.06.06-.06h.02c.08-.09.15-.16.23-.24l.08-.08s.05-.05.08-.07c.08-.07.15-.15.23-.22l.02-.02c.26-.25.54-.51.82-.79-.02,0-.05-.02-.07-.03.07-.07.14-.14.22-.21.08-.07.15-.14.23-.22l.29-.28s.05.02.07.03c.1-.09.19-.19.29-.28.25-.24.51-.48.76-.74,0-.03-.02-.05-.03-.07l.03-.03s.02-.02.03-.03c.09-.09.19-.18.28-.28.06-.06.12-.12.18-.18.03-.03.05-.05.08-.08.03-.03.05-.05.08-.08,0,.02.02.05.03.07.17-.16.35-.33.51-.49l.18-.17c.2-.19.39-.39.59-.58l.21-.21c.16-.16.33-.32.5-.49l.06-.06h0s.08-.08.12-.12l.08-.08c.16-.16.33-.32.51-.49.15-.15.29-.3.44-.44l.22-.22c.15-.15.3-.3.44-.44l.05-.05.59-.59h0l.08-.08s.04-.03.05-.05c.11-.1.21-.2.31-.31l.05-.05.1-.1c.07-.06.14-.13.2-.2.03-.03.06-.06.1-.1h0s0,0,0,0l.19-.2c.18-.19.36-.37.55-.55v-.02s.14-.13.14-.13h0c.87-.88,1.74-1.78,2.59-2.65.15-.15.29-.3.42-.44.26-.27.5-.52.72-.76l.41-.43,1.1-1.14-1.18,1.02s-.09.08-.14.12h.03,0s-.03,0-.03,0c-.05.05-.1.09-.15.13-.08.07-.16.13-.23.2-.33.27-.67.56-1.01.86-.13.11-.26.22-.39.33-.79.67-1.65,1.42-2.7,2.34-.02,0-.03.02-.04.03l-.03.02s-.02.02-.03.03c-.29.23-.59.5-.88.75-.02.02-.03.03-.05.04,0,0,0,0-.02.01-.05.04-.11.09-.16.14l-.04.03c-.25.21-.47.4-.68.6-.06.05-.11.09-.17.14-.15-.06-.29-.12-.44-.19-.07-.03-.15-.06-.22-.09-.07-.03-.15-.06-.23-.09-.15-.05-.3-.11-.45-.16-.54-.18-1.09-.34-1.65-.47-.08-.02-.16-.04-.24-.06-.16-.03-.33-.07-.49-.1-.08-.02-.16-.03-.24-.05-.25-.05-.49-.09-.74-.12-.12-.02-.25-.04-.37-.05-.25-.03-.5-.06-.75-.08-.12-.01-.25-.02-.38-.03-.6-.04-1.21-.06-1.82-.05h0c-.19,0-.39,0-.59.02-.1,0-.2,0-.3.01-.02,0-.05,0-.07,0-.15,0-.3.02-.45.03-.02,0-.05,0-.07,0-.08,0-.17.02-.25.02-.12.01-.25.02-.37.04-.03,0-.06,0-.09,0-.37.04-.73.1-1.09.16-.95.17-1.89.4-2.78.7l2.28-6.92h20.98Zm-9.94,9.39h0s0,0,0,0h0Zm-3.95,3.88h0,0s0,0,0,0Zm-4.35,4.2h0s0,0,0,0c0,0,0,0,0,0m-.53.51h0s0,0-.01.02c0,0,0,0,0-.02"></path>
        <path class="cls-5" d="m40.67,60.58l-1.17-.69h0s0,0,0,0h-.01s-.11-.07-.11-.07l-.31.19-.03.02h0s-.02.02-.02.02h0s0,0,0,0l-1.34.82.14-.51v-.02s0,0,0,0l.04-.14c-.18.04-.41.09-.59.12-.05.01-.1.02-.15.03-.71.15-1.42.27-2.13.37h0c-.15.02-.31.05-.46.06-.11.02-.23.03-.34.04-.2.02-.4.05-.6.06-.02,0-.05,0-.07,0-.11,0-.21.02-.32.03-.2.02-.4.03-.61.05-.19.01-.37.03-.56.03,0,0-.02,0-.02,0h0s0,0,0,0t0,0s0,0,0,0h0c-.14.01-.29.02-.43.02-.5.02-.99.02-1.49.02-.1,0-.21,0-.32,0-.37,0-.75-.02-1.13-.04-.02,0-.05,0-.07,0-.04,0-.08,0-.12,0h-.07s-.02,0-.02,0h-.02s-.09,0-.14-.01c-.02,0-.04,0-.06,0-.1,0-.2-.02-.3-.02-.2-.02-.4-.03-.61-.05-.04,0-.09,0-.13-.01-.07,0-.15-.02-.22-.02-.15-.02-.29-.04-.44-.05-.58-.08-1.16-.16-1.74-.27-.18-.03-.36-.07-.54-.11-.25-.05-.49-.11-.74-.16-.32-.07-.64-.16-.95-.24-.09-.03-.19-.05-.28-.08-.18-.05-.36-.11-.54-.16-.18-.05-.36-.11-.54-.17-.18-.06-.36-.12-.53-.18-.18-.06-.35-.12-.53-.19-.35-.13-.7-.27-1.04-.42-1.03-.43-2.03-.94-2.99-1.52-.16-.09-.32-.19-.48-.29-.16-.1-.32-.2-.47-.3-.31-.21-.61-.42-.92-.64-.11-.08-.22-.16-.33-.25-.31-.24-.62-.49-.92-.75-.12-.1-.23-.2-.35-.3-.12-.11-.23-.21-.34-.31,0,0,0,0,0,0-.22-.21-.44-.43-.66-.65-.22-.22-.43-.45-.64-.68-.11-.12-.21-.23-.31-.35-.18-.21-.36-.42-.54-.64-.09-.12-.18-.23-.27-.35-.08-.1-.15-.19-.22-.3-.09-.12-.18-.25-.27-.37-.07-.1-.15-.21-.22-.31-.1-.14-.19-.29-.29-.43-.06-.09-.13-.19-.19-.29-.17-.28-.34-.55-.51-.84,1.91-1.57,10.17-8.39,12.1-9.98,0,0,0,0,.02-.01,1.34,2.05,2.93,3.73,4.75,4.85.01,0,.02.01.03.02.11.07.22.13.34.2.13.08.27.15.4.21h0c.13.07.26.13.39.19.05.02.1.04.15.06.13.06.27.12.41.17,0,0,0,0,0,0,.18.07.37.13.55.19.19.06.38.12.57.16.1.02.2.05.3.07.1.02.21.05.31.06.1.02.22.04.32.05.06.01.12.02.19.03.12.02.24.03.36.05.07,0,.14.01.21.02.06,0,.12,0,.18,0,.06,0,.13,0,.19,0,.07,0,.15,0,.22,0,.06,0,.13,0,.19,0,.14,0,.28,0,.43,0,.07,0,.15,0,.22-.01.15,0,.3-.02.44-.04.07,0,.15-.02.23-.02.15-.02.3-.04.46-.07.09-.01.18-.03.26-.05.14-.03.28-.05.42-.09.1-.02.19-.05.3-.07.05,0,.1-.02.15-.03l.13-.03c.12-.03.24-.07.36-.11.03,0,.06-.02.09-.03.09-.03.19-.07.28-.11.1-.04.2-.09.3-.14.05-.02.09-.05.14-.07.04-.02.09-.05.13-.07,1.89-1.06,3.3-3.21,1.88-4.67-.03-.03-.06-.06-.09-.09h0s-.06-.06-.09-.09c-.08-.06-.16-.13-.25-.19,0,0,0,0,0,0-.05-.04-.1-.07-.16-.1-.09-.05-.17-.1-.27-.15h0s0,0,0,0l-1.31.79h-.02c.93.26,1.53.65,1.56,1.27,0,1.21-1.92,2.95-5.38,2.95s-5.85-1.31-8.19-4.39c-.43-.59-1.45-1.89-1.87-2.46-3.07,2.51-10.84,8.94-13.91,11.47,4.96,8.43,12.98,13.26,23.97,13.19,2.53-.02,4.9-.24,7.17-.74.03,0,.05,0,.08-.02,1.01-.22,2-.5,2.98-.83,0,0,0,0,0,0,.02,0,.03-.01.05-.02h-.02Zm25.4-36.5h0s.05,0,.08,0c-.03,0-.05,0-.08,0m0,0h0s.05,0,.08,0c-.03,0-.05,0-.08,0m0,0h0s.05,0,.08,0c-.03,0-.05,0-.08,0m0,0h0s.05,0,.08,0c-.03,0-.05,0-.08,0m0,0h0s.05,0,.08,0c-.03,0-.05,0-.08,0m0,0h0s.05,0,.08,0c-.03,0-.05,0-.08,0m0,0h0s.05,0,.08,0c-.03,0-.05,0-.08,0m0,0h0s.05,0,.08,0c-.03,0-.05,0-.08,0m0,0h0s.05,0,.08,0c-.03,0-.05,0-.08,0m0,0h0s.05,0,.08,0c-.03,0-.05,0-.08,0m0,0h0s.05,0,.08,0c-.03,0-.05,0-.08,0m0,0h0s.05,0,.08,0c-.03,0-.05,0-.08,0m0,0h0s.05,0,.08,0c-.03,0-.05,0-.08,0m0,0h0s.05,0,.08,0c-.03,0-.05,0-.08,0m0,0h0s.05,0,.08,0c-.03,0-.05,0-.08,0m0,0h0s.05,0,.08,0c-.03,0-.05,0-.08,0m0,0h0s.05,0,.08,0c-.03,0-.05,0-.08,0m0,0h0s.05,0,.08,0c-.03,0-.05,0-.08,0m0,0h0s.05,0,.08,0c-.03,0-.05,0-.08,0m0,0h0s.05,0,.08,0c-.03,0-.05,0-.08,0m0,0h0s.05,0,.08,0c-.03,0-.05,0-.08,0m0,0h0s.05,0,.08,0c-.03,0-.05,0-.08,0m0,0h0s.05,0,.08,0c-.03,0-.05,0-.08,0M21.91,5.27c-1.07,4.02-3.52,13.19-4.59,17.16h13.51c-.95.69-7.16,5.27-7.95,5.84.12,2.89.35,8.71.47,11.58,1.53.23,7.8-.45,10.82.32h0s.37-1.13.37-1.13c-.51-.13-1.07-.22-1.67-.28-.02,0-.04,0-.05,0-1.54-.16-3.3-.13-4.92-.1h-.11c-.11,0-.21,0-.32,0-1.13.02-2.16.05-2.99,0-.07-1.84-.31-7.93-.39-9.8l.77-.56,9.6-7.06h-15.58c.04-.17.1-.37.16-.59,0,0,0-.02,0-.03,0-.04.02-.07.03-.11h0s0,0,0-.02c.01-.04.02-.09.04-.13.02-.06.03-.12.05-.18,0-.04.02-.08.03-.12h0s0-.02,0-.03c0,0,0,0,0-.01,0,0,0,0,0-.01,0,0,0-.01,0-.02h0c.03-.13.07-.26.11-.4.05-.2.11-.42.17-.65,0-.02,0-.03.02-.05,0-.04.02-.07.03-.11,0-.02.01-.05.02-.07h0s.02-.07.02-.1c.02-.05.03-.09.04-.14.02-.08.04-.16.07-.25.04-.16.09-.33.13-.5.02-.08.05-.17.07-.26.02-.09.05-.17.07-.26.02-.09.05-.17.07-.26.03-.09.05-.18.08-.27.05-.18.1-.36.15-.55.02-.05.03-.11.04-.16l.03-.11h0c.02-.09.05-.17.07-.26,0,0,0-.02,0-.02h0s0-.02,0-.03c0-.02,0-.04.02-.06,0-.02,0-.04.02-.06.05-.18.09-.35.14-.53.05-.18.1-.36.15-.54h0c.07-.26.13-.52.2-.77.22-.83.44-1.65.65-2.44,0-.03.02-.06.03-.1.01-.05.02-.09.04-.13.01-.05.02-.09.04-.14,0-.02.01-.05.02-.07.06-.21.11-.42.17-.62.01-.05.02-.09.03-.13,0-.04.02-.07.03-.1.02-.06.03-.12.05-.18.02-.06.03-.12.05-.17.03-.12.06-.23.1-.35,0-.05.02-.09.03-.13,0-.03.02-.07.03-.1,0-.02,0-.03.01-.05,0-.02,0-.03.01-.05,0,0,0-.02.01-.03.02-.07.04-.15.06-.22.02-.08.04-.15.06-.23.02-.05.03-.1.04-.15h0s0-.04.01-.06h0s.02-.06.02-.09c0-.04.02-.08.03-.12.02-.06.03-.12.05-.17,0,0,0-.02,0-.02h0c.02-.07.03-.13.05-.19h0c.02-.06.03-.12.05-.18h0s.01-.04.02-.06c0-.02.01-.04.02-.06,0-.04.02-.08.03-.11,0-.04.02-.08.03-.11.03-.12.06-.23.09-.33,0-.02.01-.04.02-.05,0-.02,0-.03,0-.04,0,0,0-.02,0-.02,0-.04.02-.07.03-.11h0s69.2,0,69.2,0c-.67,2.49-3.35,12.44-4.03,15h-3.8l-.41.43c-.23.24-.46.49-.72.76h5.84c1.08-4.04,3.59-13.39,4.67-17.38H21.91Zm44.16,18.82s.05,0,.08-.01c-.03,0-.05,0-.08,0h0Zm0,0h0s.05,0,.08,0c-.03,0-.05,0-.08,0m0,0h0s.05,0,.08,0c-.03,0-.05,0-.08,0m0,0h0s.05,0,.08,0c-.03,0-.05,0-.08,0m0,0h0s.05,0,.08,0c-.03,0-.05,0-.08,0m0,0h0s.05,0,.08,0c-.03,0-.05,0-.08,0m0,0h0s.05,0,.08,0c-.03,0-.05,0-.08,0m0,0h0s.05,0,.08,0c-.03,0-.05,0-.08,0m0,0h0s.05,0,.08,0c-.03,0-.05,0-.08,0m0,0h0s.05,0,.08,0c-.03,0-.05,0-.08,0m0,0h0s.05,0,.08,0c-.03,0-.05,0-.08,0m0,0h0s.05,0,.08,0c-.03,0-.05,0-.08,0m0,0h0s.05,0,.08,0c-.03,0-.05,0-.08,0m0,0h0s.05,0,.08,0c-.03,0-.05,0-.08,0m0,0h0s.05,0,.08,0c-.03,0-.05,0-.08,0m0,0h0s.05,0,.08,0c-.03,0-.05,0-.08,0m0,0h0s.05,0,.08,0c-.03,0-.05,0-.08,0m0,0h0s.05,0,.08,0c-.03,0-.05,0-.08,0m0,0h0s.05,0,.08,0c-.03,0-.05,0-.08,0m0,0h0s.05,0,.08,0c-.03,0-.05,0-.08,0m0,0h0s.05,0,.08,0c-.03,0-.05,0-.08,0m0,0h0s.05,0,.08,0c-.03,0-.05,0-.08,0m0,0h0s.05,0,.08,0c-.03,0-.05,0-.08,0m0,0h0s.05,0,.08,0c-.03,0-.05,0-.08,0"></path>
        <path class="cls-5" d="m83.97,21.46s-.1.09-.15.13c-.08.07-.16.13-.23.2-.33.27-.67.56-1.01.86h-11.61c3.05.12,6.04.86,8.52,2.67-.02,0-.03.02-.04.03l-.03.02s-.02.02-.03.03c-.29.23-.59.5-.88.75-.07-.05-.13-.1-.2-.14-.05-.04-.1-.07-.15-.11-.34-.22-.68-.42-1.03-.6-.07-.04-.15-.08-.22-.11-.08-.04-.16-.08-.24-.12-.05-.03-.1-.05-.16-.07-.05-.02-.11-.05-.16-.07-.06-.02-.12-.05-.18-.07-.08-.03-.16-.07-.25-.1-.08-.03-.16-.06-.23-.09-.35-.12-.7-.24-1.06-.33-.34-.09-.69-.17-1.04-.24t0,0c-.31-.06-.63-.11-.95-.16-.09-.01-.19-.02-.28-.03,0,0-.01,0-.02,0-.12-.02-.24-.03-.36-.04-.04,0-.07,0-.11-.01-.13-.01-.26-.02-.39-.03-.09,0-.19-.01-.29-.02-.09,0-.19,0-.28-.02-.02,0-.04,0-.06,0h-.05s-.03,0-.05,0h-.01s0,0,0,0t0,0s0,0,0,0h-.02c-.12,0-.24,0-.36,0h-.39c-1.23,0-2.46.1-3.65.25,0,0,0,0-.01,0,0,0-.02,0-.03,0,0,0-.02,0-.02,0h-.03s-.02,0-.02,0c0,0,0,0-.01,0,0,0,0,0-.02,0-.03,0-.05,0-.08,0,.24-.73.62-1.88.86-2.62h17.04Z"></path>
        <path class="cls-5" d="m49.16,54.97c.06-.05.12-.1.17-.16.24-.21.48-.42.72-.64h0s.06-.05.09-.09c.02-.02.03-.03.05-.04.04.04.08.09.12.13.09.1.18.2.27.3.06.06.13.13.19.19l.29.29s.06.06.09.09c.02.02.03.03.05.05.06.06.13.12.19.18.08.08.16.15.24.23h0c.06.06.12.12.19.17.09.08.17.16.26.23.16.13.32.26.48.4.08.06.16.13.24.19.02,0,.02.02.04.03.07.05.14.1.21.16.02,0,.03.02.05.03,0,0,.02.02.03.02.1.07.19.15.3.22.04.03.08.06.12.09.06.04.12.09.18.12.1.07.2.14.31.2.2.14.41.27.62.4h0c1.87,1.14,3.93,1.98,6.08,2.43.3.06.6.12.91.17.12.02.24.03.36.05.08,0,.16.02.23.03.05,0,.09.01.14.02.03,0,.06,0,.09.01.27.03.54.05.82.07.29.02.57.03.86.03.1,0,.19,0,.3,0,.23,0,.45,0,.67,0,.12,0,.23,0,.35,0,.58-.02,1.14-.05,1.71-.12.11,0,.23-.02.33-.04.11-.01.22-.02.33-.04.12-.02.24-.03.35-.05.03,0,.06,0,.08-.01.06,0,.11-.02.17-.03,3.42-.57,6.47-1.92,9.03-3.96,0,0,.01,0,.02,0,0,0,0,0,.01,0,2.69-2.1,4.8-4.89,6.12-8.12t0,0s.02-.05.03-.07c.12-.27.24-.55.35-.84.55-1.56.9-3.22,1.04-4.91.02-.14.02-.27.03-.41,0-.06,0-.13.02-.19v-.02c.02-.37.04-.75.05-1.12,0-.23-.02-.47-.02-.71,0,0,0-.02,0-.03v-.03c-.1-2.66-.69-5.31-1.79-7.68-.04-.08-.07-.15-.11-.23-.03-.07-.07-.15-.11-.22-.05-.1-.1-.2-.15-.3-.05-.1-.1-.2-.16-.3,0,0,0,0,0-.02-.05-.09-.1-.19-.15-.27-.05-.1-.11-.19-.17-.29-.51-.86-1.1-1.67-1.77-2.4-.04-.04-.08-.09-.12-.12-.11-.12-.22-.24-.34-.36-.08-.08-.16-.16-.24-.23-.27-.26-.56-.52-.86-.76h0s0,0,0,0l.19-.2c.18-.19.36-.37.55-.55v-.02s.14-.13.14-.13h0c3.95,3.07,5.92,8.07,6.4,12.96,1.86,20.22-23.72,31.43-37.29,16.27"></path>
        <path class="cls-5" d="m46.19,56.5s-.04.04-.06.07h0c-.11.12-.22.23-.32.33-.22.21-.43.43-.63.64l-.18.18c-.43.42-.86.86-1.31,1.32-.19.2-.39.4-.59.61-.65.29-1.4.58-2.06.82h0s-.31-.98-.31-.98h0s-.04-.14-.04-.14c.13-.05.3-.12.4-.15.12-.05.24-.09.36-.14.02,0,.04-.01.05-.02.02,0,.05-.02.08-.03.09-.03.17-.07.26-.1.12-.05.24-.1.37-.16.47-.2.94-.43,1.4-.66.32-.16.63-.33.94-.51h0s.02-.01.03-.02c0,0,0,0,.02,0,0,0,.01,0,.02-.01.01,0,.03-.01.04-.02h0s.01,0,.02-.01c0,0,0,0-.02,0,.12-.08.24-.14.36-.22.14-.09.27-.17.4-.25.13-.09.26-.18.4-.26.13-.09.26-.18.39-.27"></path>
        <path class="cls-6" d="m38.11,59l.04.03-.32,1.16c-.18.04-.41.09-.59.12-.05.01-.1.02-.15.03-.71.15-1.42.27-2.13.37h0c-.15.02-.31.05-.46.06-.11.02-.23.03-.34.04-.2.02-.4.05-.6.06-.02,0-.05,0-.07,0-.11,0-.21.02-.32.03-.2.02-.4.03-.61.05-.19.01-.37.03-.56.03h-.03s0,0,0,0t0,0s0,0,0,0h0c-.14.01-.29.02-.43.02-.5.02-.99.02-1.49.02-.1,0-.21,0-.32,0-.37,0-.75-.02-1.13-.04-.02,0-.05,0-.07,0-.04,0-.08,0-.12,0h-.07s-.02,0-.02,0c0,0-.02,0-.02,0-.05,0-.09,0-.14,0-.02,0-.04,0-.06,0-.1,0-.2-.02-.3-.02-.2-.02-.4-.03-.61-.05-.04,0-.09,0-.13-.01-.22-.02-.44-.05-.66-.08-.58-.08-1.16-.16-1.74-.27-.18-.03-.36-.07-.54-.11-.25-.05-.49-.11-.74-.16-.32-.07-.64-.16-.95-.24-.09-.03-.19-.05-.28-.08-.18-.05-.36-.11-.54-.16-.18-.05-.36-.11-.54-.17-.18-.06-.36-.12-.53-.18-.18-.06-.35-.12-.53-.19-.35-.13-.7-.27-1.04-.42-1.03-.44-2.03-.95-2.99-1.52-.16-.09-.32-.19-.48-.29-.16-.1-.31-.2-.47-.3-.31-.21-.61-.42-.92-.64-.11-.08-.22-.16-.33-.25-.31-.24-.62-.49-.92-.75-.12-.1-.23-.2-.35-.3-.12-.11-.23-.21-.34-.31,0,0,0,0,0,0-.22-.21-.44-.43-.66-.65-.22-.22-.43-.45-.64-.68-.11-.12-.21-.23-.31-.35-.18-.21-.36-.42-.54-.64-.09-.12-.18-.23-.27-.35-.08-.1-.15-.19-.22-.3-.09-.12-.18-.25-.27-.37-.07-.1-.15-.21-.22-.31-.1-.14-.19-.29-.29-.43-.06-.09-.12-.19-.19-.29-.17-.28-.34-.55-.51-.84,1.91-1.57,10.17-8.39,12.1-9.98,0,0,0,0,.02-.01,1.34,2.05,2.93,3.73,4.75,4.85.01,0,.02.01.03.02.11.07.22.13.34.2.13.08.27.15.4.21h0c.13.07.26.13.39.19.05.02.1.04.15.06.13.06.27.12.41.17,0,0,0,0,0,0,.18.07.37.13.55.19.19.06.38.12.57.16.1.02.2.05.3.07.1.02.21.05.31.06.1.02.22.04.32.05.06.01.12.02.19.03.12.02.24.03.36.05.07,0,.14.01.21.02.06,0,.12,0,.18,0,.06,0,.13,0,.19,0,.07,0,.15,0,.22,0,.06,0,.13,0,.19,0,.14,0,.28,0,.43,0,.07,0,.15,0,.22-.01.15,0,.3-.02.44-.04.07,0,.15-.02.23-.02.15-.02.3-.04.46-.07.09-.01.18-.03.26-.05.14-.03.28-.05.42-.09.1-.02.19-.05.3-.07.05,0,.1-.02.15-.03l.13-.03c.12-.03.24-.07.36-.11.03,0,.06-.02.09-.03.09-.03.19-.07.28-.11.1-.04.2-.09.3-.14.05-.02.09-.05.14-.07.04-.02.09-.05.13-.07,1.89-1.06,3.3-3.21,1.88-4.67-.03-.03-.06-.06-.09-.09h0s-.06-.06-.09-.09c-.08-.06-.16-.13-.25-.19,0,0,0,0,0,0-.05-.04-.1-.07-.16-.1-.09-.05-.17-.1-.27-.15l.33-.2,1.75,1.09h0s-.36-1.11-.36-1.11l-.23-.72.13-.12c6.72,7.36-10.3,14.17-17.4,3.48l-9.43,7.78c4.74,8,16.21,11.04,25.98,9.03.37-.08.74-.16,1.11-.25l.14.12.05.04.49.46Z"></path>
        <polygon class="cls-6" points="35.56 39.4 35.89 39.2 35.56 39.4 35.56 39.4"></polygon>
        <polygon class="cls-6" points="37.28 39.18 37.05 38.46 37.06 38.46 37.28 39.18"></polygon>
        <path class="cls-4" d="m74.81,35.18c-1.26.04-2.37-.24-3.52-.79-.02,0-.05-.02-.07-.03.07-.07.14-.14.22-.21.08-.07.15-.14.23-.22l.29-.28.73-.71h0s.36-.35.36-.35l.03-.03s.02-.02.03-.03c.09-.09.19-.18.28-.28.06-.06.12-.12.18-.17h0s.05-.05.08-.08c.03-.03.05-.05.08-.08,0,.02.02.05.03.07.35.85.61,1.6.79,2.16.18.58.27.96.27,1.03"></path>
        <path class="cls-4" d="m75.47,41.37l-.35,3.16c-4.96.04-12.49,6.84-15.34,7.31-3.15,1.07-5.54.96-7.35.2.07-.06.14-.12.2-.18l.26-.24s.1-.09.15-.13c.35-.32.7-.63,1.05-.95l1.26-1.15c.37-.33.73-.67,1.1-1l.02-.02s.1-.09.15-.14c.77-.71,1.55-1.42,2.33-2.14l.2-.19c1.26-1.17,2.52-2.34,3.74-3.48.02-.01.03-.02.05-.04l.05-.05s.05-.05.07-.07c.02-.02.05-.05.07-.07.09-.08.17-.16.26-.24.11-.1.22-.2.33-.31.08-.07.15-.14.22-.2,6.12-.05,11.55-.07,11.55-.07"></path>
        <path class="cls-4" d="m74.74,46.14c-.5,3.73-3.92,9.31-7.38,11.3-1.69,1.15-4.1,1.77-7.71.82-3.56-.93-7.91-5.03-8.05-5.16.16.08,5.63,2.93,12.15-1.35,6.61-4.34,8.92-5.69,10.99-5.61"></path>
        <path class="cls-4" d="m79.73,51.87c-5.46,6.77-11.76,6.84-11.76,6.84,0,0,6.26-2.96,8.5-12.53.15-.04,2.69.19,3.5,2.08s.19,3.11-.23,3.61"></path>
        <path class="cls-4" d="m83.65,41.41s-.08,4.5-2.19,7.69c-.69-4.04-4.61-4.5-4.61-4.5l.31-3.11,6.5-.08Z"></path>
        <path class="cls-4" d="m83.58,39.83l-6.5.04-.23-3.11s4.15-.65,4.65-4.69c1.65,2.15,2.08,7.77,2.08,7.77"></path>
        <path class="cls-4" d="m80.19,32.45s-.76,2.47-3.77,2.73c-.36-1.68-.84-3.15-1.39-4.43l.21-.21c.16-.16.33-.32.5-.49l.06-.06h0s.08-.08.12-.12l.08-.08c.16-.16.33-.32.51-.49.15-.15.29-.3.44-.44l.22-.22c.15-.15.3-.3.44-.44l.05-.05.59-.59h0c.52.54,1,1.14,1.44,1.8,1.19,1.54.49,3.11.49,3.11"></path>
        <path class="cls-4" d="m75.47,39.91l-10.01.06.14-.13.26-.25.28-.27h0l3.36-3.2.04-.04.04-.04h0s0,0,0,0l.09-.09.07-.06.06-.06h.02c.08-.09.15-.16.23-.24l.08-.08s.05-.05.08-.07c1.71.79,3.5,1.4,4.93,1.37l.31,3.11Z"></path>
        <path class="cls-8" d="m79.35,32.22s-.76,1.8-2.15,1.9c-.31-1.56-.81-2.94-1.39-4.14h0s.08-.08.12-.12l.08-.08c.16-.16.33-.32.5-.49.15-.15.29-.3.44-.44l.22-.22c.15-.15.3-.3.44-.45l.05-.05c.32.3.64.62.96.96,1.54,1.85.72,3.12.72,3.12"></path>
        <path class="cls-8" d="m77.61,37.3l.21,2h5.02s-.26-4.05-1.23-4.97c-1.08,2.31-4,2.97-4,2.97"></path>
        <path class="cls-8" d="m77.81,42.11h5.07s-.31,3.49-1.28,4.82c-.92-2.2-3.95-2.87-3.95-2.87l.15-1.95Z"></path>
        <path class="cls-8" d="m77.17,47.09c.03,1.72-3.33,8.89-5.95,10.12,5.1-2.1,6.33-4.13,7.61-5.3.64-.77.87-1.33.56-2.56-.31-1.23-1.79-2.18-2.23-2.26"></path>
        <path class="cls-8" d="m73.51,47.29c.08.13-1.46,5.25-5.46,8.64-3.1,2.92-6.33,2-7.41,1.74-1.08-.26-4.92-1.87-5.92-2.79,1,.13,4.61.85,10.33-2.84,5.46-3.97,7.74-4.79,8.46-4.74"></path>
        <path class="cls-8" d="m74.66,42.11l-.15,1.69s-4.16.58-7.56,3.15c-3.41,2.56-6.1,3.62-7.61,4.34-1.39.6-4,.93-6.3.18.35-.32.7-.63,1.05-.95l1.27-1.15c.36-.33.73-.66,1.1-1l.02-.02s.09-.09.14-.14c.78-.71,1.55-1.42,2.33-2.14l.2-.19c1.26-1.17,2.52-2.34,3.74-3.48.02-.01.03-.03.05-.04l.05-.05s.05-.05.07-.07c.02-.02.05-.04.07-.06l11.54-.08Z"></path>
        <path class="cls-8" d="m66.14,39.32l3.44-3.29s-.02-.01-.03-.02c.01,0,.02.01.03.01h0c.09.05.18.09.27.13,1.7.79,3.37,1.31,4.67,1.44.05.13.13,1.66.13,1.66l-8.52.05Z"></path>
        <path class="cls-8" d="m73.58,34.12c-.3.07-.89-.13-1.56-.43.1-.09.19-.18.29-.28.25-.24.51-.48.76-.74.2.47.37.95.51,1.45"></path>
      </g>
    </g>
  </g>
</svg>
