<svg width="500" height="500" viewBox="0 0 500 500" xmlns="http://www.w3.org/2000/svg"><g fill="none" fill-rule="evenodd"><path d="M448.887 249.924c0 109.884-89.079 198.963-198.963 198.963S50.961 359.808 50.961 249.924s89.08-198.963 198.963-198.963a198.926 198.926 0 01198.963 198.963" fill="#FFF" fill-rule="nonzero"/><path d="M441.564 249.924c0 77.511-46.691 147.39-118.302 177.052-71.611 29.663-154.039 13.267-208.847-41.542-54.81-54.809-71.205-137.236-41.543-208.847 29.662-71.61 99.541-118.302 177.052-118.302 105.84.001 191.638 85.8 191.64 191.64" fill="#006BB6" fill-rule="nonzero"/><path fill="#FFF" fill-rule="nonzero" d="M87.852 282.6l3.938 12.506h13.265l-10.709 7.806 3.87 12.297-10.364-7.53-10.5 7.53 3.938-12.297-10.777-7.806h13.263zm324.212 0l3.94 12.506h13.331l-10.777 7.806 3.94 12.297-10.434-7.53-10.431 7.53 3.94-12.297-10.78-7.806h13.196zm-277.65 67.013l3.94 12.435h13.263l-10.777 7.876 3.937 12.297-10.362-7.53-10.5 7.53 3.937-12.297-10.777-7.876h13.265zm235.442 0l3.937 12.435h13.263l-10.708 7.876 3.939 12.297-10.431-7.53-10.502 7.53 4.008-12.297-10.778-7.876h13.195zm-162.834 43.592l3.87 12.505h13.333l-10.778 7.806 3.938 12.296-10.363-7.529-10.5 7.53 3.937-12.297-10.777-7.806h13.265zm88.221 0l3.938 12.505h13.265l-10.777 7.806 3.937 12.296-10.363-7.529-10.5 7.53 3.937-12.297-10.777-7.806h13.265z"/><path d="M393.62 250.822c0 79.361-64.335 143.696-143.696 143.696-79.36 0-143.695-64.335-143.695-143.696 0-79.36 64.335-143.695 143.695-143.695A143.673 143.673 0 01393.62 250.822" fill="#FFF" fill-rule="nonzero"/><path d="M114.795 279.078c15.622 74.618 88.759 122.459 163.385 106.873a135.383 135.383 0 0087.253-59.55 140.486 140.486 0 0019.62-103.834c-15.635-74.583-88.7-122.428-163.315-106.943a138.085 138.085 0 00-106.943 163.454" fill="#006BB6" fill-rule="nonzero"/><path d="M296.902 143.258c.483 5.389-2.073 10.64-7.461 15.613-25.907-18.998-50.57-28.324-74.75-28.463a98.667 98.667 0 00-15.13 1.175 131.685 131.685 0 0123.904-7.461 128.98 128.98 0 0164.11 2.832c4.49 4.353 8.843 10.017 9.327 16.304M269.89 366.262c27.219-25.008 39.861-78.549 47.392-110.535l1.174-4.974c3.869-16.304 10.708-28.462 18.1-35.716 27.288 42.417 23.627 86.217 16.718 113.712a129.75 129.75 0 01-103.419 51.537 88.566 88.566 0 0020.035-14.024m49.464-181.691c11.053-9.258 19.896-16.304 26.183-20.933a128.88 128.88 0 0129.084 52.504c-5.112-6.84-11.606-13.333-18.652-14.784-6.08-1.243-12.297.484-18.17 4.629a177.248 177.248 0 00-18.445-21.416m-196.338 60.448c12.574-33.713 58.653-47.53 75.993-52.711l.76-.207a210.983 210.983 0 0123.35-4.698c22.315-3.8 49.88-8.497 66.529-20.933a253.11 253.11 0 0120.794 17.755c-37.65 31.986-95.889 85.734-157.996 151.71a128.255 128.255 0 01-29.153-58.653 126.855 126.855 0 01-2.764-26.39 983.404 983.404 0 012.487-5.873" fill="#FFF" fill-rule="nonzero"/><path d="M315.002 180.356a260.115 260.115 0 00-20.726-17.823c6.287-6.149 9.189-12.78 8.567-19.827a25.462 25.462 0 00-4.283-11.745 132.068 132.068 0 0142.763 28.325c-6.494 4.836-15.406 11.951-26.321 21.07m-30.397-17.616c-15.613 10.777-41.451 15.198-62.522 18.722a234.988 234.988 0 00-24.041 4.836l-.76.207c-16.65 4.974-58.514 17.478-75.785 47.668a129.41 129.41 0 0120.103-54.231 135.627 135.627 0 0134.68-36.27c30.674-12.918 65.078-12.02 108.325 19.068m70.12 44.49c9.05 1.866 18.722 17.064 23.35 25.769a128.042 128.042 0 01-15.682 81.795c.691-4.352 1.244-8.98 1.658-13.816a143.303 143.303 0 00-22.866-89.948c4.697-3.316 9.395-4.629 13.54-3.8m-39.93-18.79a159.8 159.8 0 0118.307 21.415c-8.843 8.429-16.373 22.384-20.45 39.517l-1.174 5.043c-7.392 31.364-19.758 83.799-45.595 107.495a75.766 75.766 0 01-30.466 17.616 129.129 129.129 0 01-56.373-20.38 131.782 131.782 0 01-22.59-18.721c62.728-66.736 121.173-120.414 158.34-151.986" fill="#FFF" fill-rule="nonzero"/><path d="M285.64 289.233l3.524-.967c2.142-.553 3.524-1.243 3.524-4.352 0-2.556-.691-7.185-3.8-7.185-3.247 0-3.247 5.527-3.247 8.497v4.007zm-42.07-1.933c0-11.054-.415-20.587-7.876-20.587-6.08 0-7.185 9.533-7.185 20.587s-.345 20.656 7.185 20.656c6.287-.069 7.875-9.603 7.875-20.656" fill="#FFF" fill-rule="nonzero"/><path d="M285.64 289.233l3.524-.967c2.142-.553 3.524-1.243 3.524-4.352 0-2.556-.691-7.185-3.8-7.185-3.247 0-3.247 5.527-3.247 8.497v4.007zm-58.03-27.288h.138c3.593-5.596 10.432-8.29 17.133-8.29 15.199 0 24.525 13.126 24.525 30.742 0 20.864-14.162 33.299-31.64 33.299-26.874 0-36.684-21.692-36.684-46.84 0-28.945 12.573-52.849 43.868-52.849 12.228 0 22.245 7.876 22.245 19.897a11.271 11.271 0 01-11.813 11.606c-8.428 0-11.123-7.047-12.366-13.264-.484-2.626.484-8.429-3.869-8.429-9.119 0-10.57 17.824-10.984 24.387l-.553 9.74z" fill="#FFF" fill-rule="nonzero"/><path d="M243.569 287.299c0-11.054-.415-20.587-7.876-20.587-6.08 0-7.185 9.533-7.185 20.587s-.345 20.656 7.185 20.656c6.287-.069 7.875-9.603 7.875-20.656m-162.97-68.186c5.113.621 7.185 4.214 6.425 10.846l-.552 4.836 2.763.345c3.523.415 4.836.346 5.25-2.487l3.248.415-1.52 13.126-3.247-.415c.276-2.901-1.037-3.247-4.56-3.661l-10.224-1.175c-3.524-.414-4.836-.345-5.25 2.487l-3.248-.414 1.727-14.37c.83-7.046 3.938-10.155 9.189-9.533zm2.764 13.955c.484-4.353-.76-6.701-3.869-7.047-2.694-.345-4.628 1.382-5.043 4.629-.276 2.28.553 2.763 3.04 3.04l5.665.69c.069-.414.138-.829.207-1.312zm16.442-28.463c1.036-2.694-.069-3.385-3.316-4.767l-9.464-3.938c-3.248-1.381-4.56-1.658-5.735.968l-3.04-1.244 5.113-12.159 2.97 1.244c-1.036 2.694.07 3.385 3.317 4.766l2.418 1.037 3.8-9.12-2.419-1.036c-3.247-1.381-4.56-1.658-5.734.968l-2.97-1.244 5.112-12.159 3.04 1.244c-1.036 2.694.069 3.385 3.316 4.767l9.464 3.937c3.247 1.382 4.56 1.658 5.734-.967l3.04 1.244-5.112 12.159-2.97-1.244c1.035-2.694-.07-3.385-3.317-4.767l-4.145-1.727-3.8 9.12 4.146 1.726c3.247 1.382 4.56 1.658 5.734-.967l2.97 1.244-5.112 12.159-3.04-1.244zm12.712-64.594c-1.658 2.35-.76 3.316 2.072 5.458l8.221 6.148c2.833 2.142 4.007 2.695 5.803.484l2.626 1.934-7.876 10.501-2.625-1.934c1.658-2.35.76-3.316-2.142-5.458l-8.22-6.148c-2.833-2.142-4.008-2.764-5.804-.484l-2.625-1.934 7.875-10.501 2.695 1.934zm29.706 1.52l-2.073-2.487c2.142-1.934 1.451-3.04-.829-5.734l-6.632-7.875c-2.28-2.695-3.247-3.593-5.526-1.797l-2.073-2.487 10.086-8.428 2.073 2.487c-2.142 1.934-1.52 3.04.76 5.803l7.392 8.774c1.727 2.003 2.487 2.349 4.56.621 2.763-2.348 3.937-6.493 2.97-11.744l2.902-.622 2.97 9.672-16.58 13.817zm31.295-24.11l-1.382-2.971c2.487-1.52 2.35-3.178 2.28-6.08l-.69-20.38 5.526-2.486 15.199 14.853c1.727 1.658 2.694 2.487 4.905 1.727l1.381 2.97-12.02 5.458-1.313-2.901a.524.524 0 00.276-.138c1.658-.76 2.28-1.451 1.797-2.487a3.114 3.114 0 00-.691-.968l-2.764-2.763-7.737 3.523.483 3.8a2.9 2.9 0 00.208.829c.552 1.174 1.658 1.243 3.523.414l1.313 2.902-10.294 4.698zm9.81-18.584l-5.665-6.08.484 8.498 5.181-2.418zm30.812-1.105c2.832-.484 2.901-1.797 2.418-5.32l-1.451-10.155c-.484-3.524-.898-4.767-3.8-4.422l-.483-3.247 13.264-1.865c10.224-1.45 16.304 2.556 17.547 10.984 1.175 8.498-3.523 13.955-13.747 15.475l-13.265 1.866-.483-3.316zm9.533-4.698c.346 2.625.83 3.316 3.593 2.901 5.25-.76 8.152-4.905 7.185-11.26-.899-6.356-4.767-9.534-10.087-8.774-2.763.414-2.97 1.174-2.625 3.8l1.934 13.333zm36.822.829c2.833.345 3.316-.898 3.8-4.422l1.45-10.155c.484-3.523.484-4.836-2.348-5.32l.483-3.246 21.9 3.178 2.418 8.497-2.625.898c-2.142-4.421-5.182-6.978-9.257-7.53-2.626-.415-3.11.345-3.455 2.901l-.552 3.8 1.243.207c2.764.415 3.593-.345 4.214-3.592l2.764.414-1.727 11.883-2.764-.415c.07-3.108-.829-4.697-2.97-4.974l-1.244-.207-.898 6.148c-.345 2.557-.138 3.386 2.556 3.731 3.869.553 8.428-1.313 12.02-5.596l2.28 1.727-5.319 8.498-22.452-3.316.483-3.11zm41.313 11.675l1.312-2.97c2.694 1.105 3.385 0 4.836-3.317l4.145-9.395c1.45-3.247 1.796-4.49-.829-5.734l1.313-2.97 12.02 5.25-1.312 2.97c-2.695-1.105-3.385 0-4.836 3.247l-4.629 10.501c-1.036 2.418-.967 3.247 1.52 4.352 3.316 1.451 7.6.691 11.814-2.556l1.865 2.28-7.323 6.978-19.896-8.636zm67.633 19.551c-3.247 4.007-7.392 3.869-12.642-.345l-3.8-3.04-1.727 2.142c-2.21 2.763-2.902 3.937-.69 5.802l-2.073 2.557-10.225-8.29 2.073-2.556c2.28 1.727 3.316.898 5.526-1.866l6.425-8.014c2.21-2.763 2.833-3.937.691-5.803l2.073-2.556 11.26 9.12c5.458 4.352 6.425 8.704 3.11 12.849zm-13.333-5.181c3.385 2.763 6.08 2.901 8.014.483 1.727-2.141 1.312-4.628-1.244-6.7-1.796-1.452-2.625-1.037-4.214.897l-3.592 4.422c.414.345.76.621 1.036.898zm15.337 29.153c1.727 2.35 2.901 1.796 5.803-.276l8.428-5.872c2.901-2.004 3.869-2.97 2.28-5.389l2.694-1.865 7.53 10.777-2.625 1.865c-1.727-2.348-2.901-1.796-5.803.277l-2.142 1.52 5.665 8.083 2.142-1.52c2.901-2.004 3.869-2.971 2.28-5.389l2.625-1.865 7.53 10.777-2.694 1.865c-1.727-2.349-2.902-1.796-5.803.277l-8.429 5.872c-2.901 2.003-3.868 2.97-2.28 5.388l-2.694 1.865-7.53-10.777 2.625-1.865c1.727 2.349 2.902 1.796 5.803-.276l3.662-2.556-5.665-8.083-3.662 2.556c-2.901 2.003-3.868 2.97-2.28 5.388l-2.625 1.866-7.53-10.778 2.695-1.865zm47.875 45.25c-1.105-2.694-2.418-2.418-5.734-1.174l-9.603 3.662c-3.316 1.243-4.421 1.934-3.523 4.697l-3.04 1.175-4.697-12.297 3.04-1.175c1.105 2.694 2.417 2.349 5.733 1.105l9.603-3.66c3.316-1.245 4.49-1.935 3.523-4.63l3.04-1.174 4.698 12.297-3.04 1.174zm-17.202 22.798l3.247-.414c.69 2.832 2.349 3.178 5.112 3.938l19.69 5.32.76 6.01-18.654 10.155c-2.141 1.174-3.177 1.796-3.108 4.214l-3.247.414-1.727-13.057 3.177-.414v.276c.208 1.797.76 2.626 1.866 2.487a3.99 3.99 0 001.174-.414l3.454-1.865-1.105-8.429-3.8-.69a3.94 3.94 0 00-.898-.07c-1.243.139-1.658 1.244-1.45 3.248l-3.178.414-1.313-11.123zm14.922 14.784l7.461-3.661-8.22-2.004.76 5.665zm-86.355 35.717a9.11 9.11 0 00-6.909 3.178c-.207-.415-.345-.83-.552-1.175l-1.451-2.832-20.656 6.08v11.329h3.8c.345 0 .552.069.621 0a11.99 11.99 0 01.484 4.836v13.126l-3.8.553v12.435h28.601v-12.435l-3.73-.553v-3.869a51.95 51.95 0 011.036-8.912 12.118 12.118 0 003.73.553c5.112 0 8.705-4.629 8.705-11.192.069-6.632-3.938-11.122-9.88-11.122z" fill="#FFF" fill-rule="nonzero"/><path d="M366.539 280.805a5.942 5.942 0 01-.346-1.796c0-3.385-1.381-11.26-13.886-11.26-6.908 0-20.518 5.319-20.518 17.685a16.277 16.277 0 003.316 10.362 9.621 9.621 0 00-4.421 8.567c0 4.421 2.21 11.882 17.202 11.882 12.85 0 20.172-6.632 20.172-18.238.07-11.053-.898-14.715-1.52-17.202zm-151.157-66.46a4.152 4.152 0 00-3.109-1.45c-1.865 0-3.385 1.175-5.181 3.109a32.03 32.03 0 01-23.834 9.879c-12.435 0-25.561-5.734-35.993-15.682a4.286 4.286 0 00-3.04-1.244c-5.112 0-6.424 8.152-6.424 8.29v40.967l3.247.484a79.908 79.908 0 0032.745-1.174c-10.5 9.395-34.127 34.956-33.782 59.274.07 4.49 2.833 4.974 4.007 4.974a4.506 4.506 0 003.109-1.313c.207-.138.414-.345.622-.483a26.113 26.113 0 0114.99-3.938 33.173 33.173 0 0113.887 2.833 5.571 5.571 0 002.556.69 4.122 4.122 0 003.04-1.312 5.302 5.302 0 001.036-4.422c-1.727-17.685 2.142-36.96 9.672-48.082l1.105-1.658c6.425-9.465 19.758-29.223 22.245-45.527a4.948 4.948 0 00-.898-4.214zm95.13 78.273l-.208-3.108a30.012 30.012 0 00-.898-5.803l-.138-3.593-.691 1.036a19.63 19.63 0 00-18.86-13.54c-13.264 0-22.521 10.5-22.521 25.492 0 11.537 6.77 23.143 21.761 23.143a23.898 23.898 0 0020.656-11.33l.553-.967-.415-11.122.76-.208zm-16.097 7.185a3.461 3.461 0 01-3.04-2.003l7.323-2.004a14.168 14.168 0 01-4.284 4.007z" fill="#FFF" fill-rule="nonzero"/><path d="M261.116 256.35c-.76-1.037-1.589-2.28-2.28-3.317a14.764 14.764 0 0012.228-15.06c0-13.54-11.192-23.696-26.045-23.696-29.844 0-47.737 21.209-47.737 56.649 0 32.193 14.784 50.639 40.483 50.639 20.864 0 35.44-15.268 35.44-37.099.07-10.915-7.253-21.278-12.089-28.117z" fill="#FFF" fill-rule="nonzero"/><path d="M294.484 303.672c-4.629 0-7.392-4.214-7.807-8.498l19.896-5.388c-.552-9.74-6.217-18.307-16.787-18.307-11.26 0-18.722 8.773-18.722 21.692 0 10.086 5.803 19.275 17.962 19.275a19.85 19.85 0 0017.34-9.465l-3.938-4.698c-1.865 3.04-4.145 5.389-7.944 5.389zm-8.774-18.377c0-2.97 0-8.497 3.247-8.497 3.04 0 3.8 4.629 3.8 7.185a3.87 3.87 0 01-3.524 4.352l-3.523.967v-4.007z" fill="#006BB6" fill-rule="nonzero"/><path d="M327.16 311.34h-21v-5.32l3.8-.552v-16.442c0-5.872-.76-8.705-4.975-8.705v-4.628l14.923-4.353a27.676 27.676 0 012.487 10.847h.138c1.52-4.49 3.385-10.778 8.22-10.778 4.284 0 6.15 3.316 6.15 7.323 0 4.076-1.797 7.392-4.906 7.392a14.341 14.341 0 01-4.974-1.243c-2.694-.898-3.592 10.915-3.592 13.402v7.185l3.73.553v5.32z" fill="#006BB6" fill-rule="nonzero"/><path d="M362.463 279.078c0 3.247-2.833 4.905-5.803 4.905a7.296 7.296 0 01-6.84-6.425c-1.52 0-2.625.76-2.625 3.385 0 6.08 17.202 1.727 17.202 17.133 0 11.537-8.36 14.439-16.373 14.439-4.905 0-13.402-.622-13.402-8.083 0-3.385 1.865-5.942 5.25-5.942 5.181 0 6.08 4.767 6.978 8.152a1.558 1.558 0 001.727 1.037c2.763 0 4.766-1.106 4.766-2.97 0-6.91-17.616-4.215-17.616-19.275 0-9.534 11.26-13.817 16.718-13.817 6.149 0 10.018 2.072 10.018 7.46m-117.444-25.353c-6.7 0-13.54 2.694-17.133 8.29h-.138l.691-9.672c.415-6.563 1.865-24.386 10.984-24.386 4.353 0 3.386 5.803 3.87 8.428 1.174 6.148 3.868 13.264 12.365 13.264a11.308 11.308 0 0011.814-11.606c0-12.02-10.018-19.896-22.245-19.896-31.296 0-43.869 23.903-43.869 52.85 0 25.146 9.741 46.838 36.684 46.838 17.478 0 31.64-12.435 31.64-33.298-.138-17.686-9.464-30.812-24.663-30.812zm-9.326 54.231c-7.461 0-7.185-9.603-7.185-20.656 0-11.054 1.036-20.587 7.185-20.587 7.53 0 7.875 9.533 7.875 20.587.07 11.053-1.52 20.656-7.875 20.656z" fill="#006BB6" fill-rule="nonzero"/><path d="M141.6 217.593v37.305c20.864 3.11 45.803 1.037 63.489-24.732.76-1.105 1.174-.345.69.622-4.905 10.017-16.58 19.275-26.666 27.22-9.672 7.599-35.648 34.818-35.302 58.79 0 1.865.069 1.313 1.727.138 7.875-5.872 23.281-6.01 32.746-1.52 1.312.622 1.45.415 1.243-1.243-1.796-18.584 2.35-38.826 10.294-50.64 5.458-8.151 20.242-29.153 22.798-45.595.276-1.727-.622-1.45-2.764.83-16.718 17.685-46.908 17.201-66.459-1.451-1.174-1.313-1.727-.76-1.796.276" fill="#ED174C" fill-rule="nonzero"/><circle fill="#FFF" fill-rule="nonzero" cx="177.816" cy="195.227" r="35.784"/><path fill="#006BB6" fill-rule="nonzero" d="M177.8 160.737l1.174 3.8h4.077l-3.317 2.348 1.174 3.731-3.108-2.28-3.246 2.28 1.243-3.73-3.317-2.35h4.077zm23.765 13.885l1.243 3.731h4.077l-3.317 2.418 1.174 3.73-3.177-2.279-3.178 2.28 1.244-3.731-3.315-2.418h4.075zm-10.223-10.708l1.243 3.731h4.074l-3.314 2.417 1.174 3.732-3.109-2.28-3.179 2.28 1.176-3.731-3.316-2.418h4.076zm14.16 23.765l1.176 3.8h4.075l-3.315 2.418 1.243 3.73-3.179-2.28-3.177 2.28 1.174-3.73-3.246-2.418h4.006zm-1.726 13.886l1.243 3.8h4.008l-3.248 2.417 1.174 3.731-3.177-2.349-3.177 2.35 1.174-3.8-3.248-2.35h4.077zm-7.668 11.054l1.174 3.8h4.077l-3.248 2.417 1.174 3.731-3.109-2.28-3.246 2.28 1.243-3.731-3.316-2.417h4.076zm-12.02 6.217l1.243 3.8h4.006l-3.315 2.417 1.243 3.731-3.177-2.28-3.18 2.28 1.175-3.73-3.246-2.418h4.006zm-30.537-45.457l-1.243 3.8h-4.006l3.246 2.349-1.174 3.73 3.109-2.28 3.246 2.28-1.243-3.73 3.316-2.349h-4.076zm9.949-9.465l-1.243 3.731h-4.008l3.248 2.417-1.175 3.732 3.178-2.28 3.177 2.28-1.174-3.731 3.248-2.418h-4.008zm-14.646 22.108l-1.174 3.8h-4.077l3.317 2.348-1.174 3.8 3.108-2.348 3.178 2.348-1.175-3.8 3.317-2.348h-4.008zm1.312 13.817l-1.243 3.8h-4.075l3.315 2.417-1.175 3.73 3.11-2.279 3.176 2.28-1.174-3.731 3.248-2.418h-4.008zm7.6 11.329l-1.175 3.8h-4.076l3.316 2.417-1.243 3.73 3.178-2.348 3.248 2.349-1.245-3.731 3.248-2.418h-4.008zm12.02 7.185l-1.175 3.8h-4.074l3.314 2.417-1.174 3.731 3.109-2.28 3.248 2.28-1.243-3.8 3.314-2.348h-4.074z"/><path d="M0 0h500v500H0z"/></g></svg>