<svg width="500" height="500" viewBox="0 0 500 500" xmlns="http://www.w3.org/2000/svg"><g fill="none" fill-rule="evenodd"><g fill-rule="nonzero"><path fill="#FEFEFE" d="M381.437 50.003l-44.06 43.83-70.882-37.104-12.806 70.385-71.92 15.568 40.225 24.22-45.13 22.624 36.72 3.173L47.229 321.963l128.387-68.13L36.65 359.526l148.395-77.301L21.657 404.963l169.522-90.255L0 453.053l226.408-123.865L81.11 446.418l215.32-123.626-2.756 19.42 33.822-18.762 66.836 63.14 35.46-106.44 45.91-6.567-19.768-61.334 43.591-37.882-56.567-23.86 15.962-67.662-53.55 24.5z"/><path fill="#F9A01B" d="M67.142 410.635l205.872-112.638-139.605 112.638 169.392-97.26-2.777 19.61 28.248-15.678 63.8 60.276 33.962-101.93 43.102-6.178-18.96-58.839 40.036-34.778-53.08-22.394 14.583-61.833-48.976 22.394-23.044-55.246-41.394 41.175-68.104-35.646-12.187 66.972-62.89 13.612 37.209 22.414-37.449 18.77 31.825 2.755L95.84 290.512l131.634-69.856L86.281 328.045l150.293-78.28L76.022 370.369l176.934-94.196z"/><path d="M443.867 211.542c-2.328 56.524-50.085 100.454-106.672 98.099-56.567-2.316-100.528-50.037-98.18-106.551 2.327-56.534 50.084-100.443 106.65-98.118 56.578 2.355 100.55 50.047 98.202 106.57" fill="#E55F1F"/><path d="M353.992 295.676c-56.558-2.335-100.529-50.057-98.201-106.57 1.079-26.166 11.887-49.578 28.788-67.012-26.311 17.554-44.181 46.963-45.57 81.003-2.347 56.504 41.624 104.215 98.181 106.55 30.407 1.258 58.246-10.867 77.874-31.105-17.42 11.626-38.527 18.063-61.072 17.134" fill="#B85914"/><path d="M443.92 208.512c.05-3.673-.1-7.285-.439-10.878-5.913-4.111-12.945-7.245-21.266-8.323-1.578-.19-3.097-.29-4.625-.409a128.77 128.77 0 00-4.555-19.839c1.049.09 2.128.13 3.196.19a302.215 302.215 0 0121.327 2.375c-.97-2.615-2.078-5.16-3.247-7.664a312.517 312.517 0 00-23.993-2.745h-.08a120.534 120.534 0 00-9.48-18.97c5.235-1.079 9.91-3.224 13.696-6.797a101.43 101.43 0 00-6.044-5.658c-3.286 3.024-7.551 4.64-12.446 5.299a105.193 105.193 0 00-2.287-3.134c-6.963-9.041-14.994-16.775-23.834-23.052a101.478 101.478 0 00-24.183-3.932c-.46-.02-.92 0-1.388-.03 15.582 6.127 29.497 16.416 40.684 30.178-10.668-1.028-22.964-4.6-35.13-8.163-3.597-1.068-7.123-2.106-10.529-3.044-20.717-5.718-36.64-6.636-48.596-5.589-8.88 5.05-16.921 11.407-23.903 18.802 12.915-5.37 38.946-14.57 70.541-5.828 3.357.928 6.843 1.946 10.389 2.984 13.964 4.111 29.617 8.682 43.172 8.821a110.93 110.93 0 019.629 17.544c-2.647-.12-5.304-.19-7.931-.25-65.837-1.127-122.274 18.553-153.6 49.948.18 6.237.89 12.335 2.138 18.272 8.83-12.674 21.916-24.11 38.797-33.61 31.865-17.894 74.148-27.314 119.068-26.526 1.538.02 3.096.08 4.645.14a114.723 114.723 0 015.044 20.119c-28.938 1.217-47.697 19.25-69.233 38.44-19.329 17.295-42.922 34.51-77.434 44.868a99.426 99.426 0 0010.608 11.187c32.524-13.083 54.13-33.461 72.39-49.768 20.717-18.521 38.517-36.265 64.648-37.143.67 7.215.699 14.57.04 21.995-3.516 40.127-26.77 74.147-58.485 90.922a100.093 100.093 0 0023.444-5.05 115.77 115.77 0 007.412-6.655c20.796-20.458 33.712-48.331 36.35-78.449.658-7.544.658-15.029.05-22.404 1.298.14 2.596.26 3.935.48 8.91 1.456 15.972 5.937 21.506 11.346" fill="#051821"/></g><path d="M0 0h500v500H0z"/></g></svg>