<svg width="500" height="500" viewBox="0 0 500 500" xmlns="http://www.w3.org/2000/svg"><g fill="none" fill-rule="evenodd"><path d="M0 0h500v500H0z"/><path d="M388.21 159.573a167.239 167.239 0 00-20.241-24.53 168.366 168.366 0 00-10.166-9.358l73.762-73.761H216.672L133.73 134.87h.011a7.592 7.592 0 01-.176.173 167.223 167.223 0 00-20.239 24.53 165.947 165.947 0 00-15.28 28.154c-8.647 20.435-13.028 42.143-13.028 64.52 0 22.376 4.381 44.08 13.027 64.515a165.947 165.947 0 0015.281 28.154 166.808 166.808 0 0020.239 24.53 165.778 165.778 0 0010.2 9.381l-73.739 73.739h214.83l83.278-83.281h-.008a166.72 166.72 0 0020.085-24.37 165.954 165.954 0 0015.28-28.153c8.643-20.435 13.02-42.138 13.02-64.515 0-22.377-4.377-44.085-13.02-64.52a165.953 165.953 0 00-15.28-28.153" fill="#061922" fill-rule="nonzero"/><path d="M388.21 159.573a167.239 167.239 0 00-20.241-24.53 168.366 168.366 0 00-10.166-9.358l73.762-73.761H216.672L133.73 134.87h.011a7.592 7.592 0 01-.176.173 167.223 167.223 0 00-20.239 24.53 165.947 165.947 0 00-15.28 28.154c-8.647 20.435-13.028 42.143-13.028 64.52 0 22.376 4.381 44.08 13.027 64.515a165.947 165.947 0 0015.281 28.154 166.808 166.808 0 0020.239 24.53 165.778 165.778 0 0010.2 9.381l-73.739 73.739h214.83l83.278-83.281h-.008a166.72 166.72 0 0020.085-24.37 165.954 165.954 0 0015.28-28.153c8.643-20.435 13.02-42.138 13.02-64.515 0-22.377-4.377-44.085-13.02-64.52a165.953 165.953 0 00-15.28-28.153" stroke="#FFF" stroke-width="3.846"/><path d="M358.257 144.576a153.725 153.725 0 00-10.066-9.216L258 225.55a27.817 27.817 0 0112.13 7.104l.024.027c10.892 10.892 10.892 28.55 0 39.442L103.095 439.18h19.573l157.273-157.273c16.25-16.247 16.296-42.558.146-58.87l9.785-9.784c21.554 21.711 21.508 56.788-.146 78.438L142.233 439.18h19.577l137.704-137.704c27.058-27.054 27.104-70.893.146-98.008l9.789-9.788c32.365 32.523 32.311 85.123-.15 117.584L181.384 439.18h19.576l118.123-118.127c37.87-37.866 37.92-99.235.15-137.162l9.789-9.784c43.177 43.33 43.127 113.461-.15 156.734L220.533 439.18h19.574l98.553-98.554c48.681-48.673 48.727-127.57.146-176.308l9.85-9.854c54.024 54.181 53.974 141.893-.142 196.016l-88.707 88.7h19.577l78.919-78.912-.046-.046c59.55-59.55 59.55-156.1 0-215.646" fill="#FFF" fill-rule="nonzero"/><path d="M143.366 360.052a153.73 153.73 0 0010.065 9.216l90.193-90.193a27.819 27.819 0 01-12.127-7.1l-.027-.027c-10.893-10.892-10.893-28.553 0-39.442L398.758 65.218h-19.573l-157.504 157.5c-16.246 16.25-16.296 42.561-.142 58.873l-9.785 9.784c-21.554-21.715-21.511-56.792.142-78.438l147.72-147.72h-19.577L202.109 203.15c-27.055 27.053-27.1 70.896-.143 98.007l-9.785 9.789c-32.37-32.523-32.32-85.123.142-117.585L320.466 65.218h-19.573L182.539 183.57c-37.87 37.87-37.92 99.235-.146 137.162l-9.789 9.788c-43.177-43.33-43.13-113.465.146-156.738L281.316 65.218h-19.573l-98.781 98.78c-48.68 48.681-48.727 127.57-.146 176.312l-9.85 9.85c-54.023-54.177-53.973-141.892.146-196.012l88.93-88.93h-19.576l-79.142 79.142.042.042c-59.55 59.55-59.55 156.1 0 215.65" fill="#E03A3E" fill-rule="nonzero"/></g></svg>