<svg width="500" height="500" viewBox="0 0 500 500" xmlns="http://www.w3.org/2000/svg" xmlns:xlink="http://www.w3.org/1999/xlink"><defs><path id="c" d="M.012 383.33h335.341V.71H.012z"/><path id="o" d="M.012 383.33h335.341V.71H.012z"/><path id="e" d="M.012 383.33h335.341V.71H.012z"/><path id="g" d="M.012 383.33h335.341V.71H.012z"/><path id="i" d="M.012 383.33h335.341V.71H.012z"/><path id="k" d="M.012 383.33h335.341V.71H.012z"/><path id="m" d="M.012 383.33h335.341V.71H.012z"/><path id="a" d="M.012 383.33h335.341V.71H.012z"/><path id="q" d="M.012 383.33h335.341V.71H.012z"/><path id="s" d="M.012 383.33h335.341V.71H.012z"/><path id="u" d="M.012 383.33h335.341V.71H.012z"/><path id="w" d="M.012 383.33h335.341V.71H.012z"/><path id="y" d="M.012 383.33h335.341V.71H.012z"/><path id="A" d="M.012 383.33h335.341V.71H.012z"/></defs><g fill="none" fill-rule="evenodd"><path d="M0 0h500v500H0z"/><path d="M416.121 58.397l-48.065 48.19-39.924-40.02-.19.178-.217-.191-39.936 40.033-39.987-40.059-39.949 40.06-39.974-40.06-.013.026-39.974 40.046L80.78 59.353s.407 196.828.407 213.372c0 92.8 74.313 168.304 166.882 168.304 92.595 0 167.9-75.504 167.9-168.304 0-16.544.152-214.328.152-214.328" fill="#FEFEFE" fill-rule="nonzero"/><path d="M203.249 320.5c47.557 0 82.925 19.883 108.752 34.388 17.583 9.89 31.489 17.703 43.651 17.703 5.357 0 10.267-1.491 15.038-4.575 15.14-19.297 25.61-42.112 30.293-66.06H178.694c1.476 6.793 3.18 13.395 5.09 19.615a179.656 179.656 0 0119.465-1.07M96.126 301.942c3.957 20.1 11.781 38.988 23.308 56.17 6.959-12.224 20.89-27.403 48.244-33.878-2.1-7.036-3.97-14.517-5.56-22.292H96.126zm34.222 70.635c29.568 34.706 72.137 54.717 117.01 55.01a144.425 144.425 0 01-12.354-7.112c-19.02-12.312-45.178-36.286-62.06-80.743-26.59 5.812-37.837 20.903-42.596 32.845" fill="#5C666F" fill-rule="nonzero"/><path d="M189.315 337.403c11.985 30.182 30.102 53.379 53.867 68.954 15.713 10.323 30.776 15.001 40.7 17.117 24.86-5.812 48.066-17.806 67.277-34.757-15.153-1.67-30.7-10.4-47.112-19.628-25.61-14.39-57.506-32.323-100.572-32.323-4.656 0-9.402.242-14.16.637" fill="#5C666F" fill-rule="nonzero"/><path d="M254.07 223.54c-.267 0-.521.026-.788.064l-.026-.064h-54.567v65.945h23.002v-52.983h17.29v52.983h21.921V232.68c0-5.035-3.066-9.139-6.832-9.139m17.91 0h-1.374v56.552c0 5.047 3.04 9.126 6.794 9.126.012 0 .05-.013.089-.013v.013h55.241v-39.843l-22.099-.025v27.058h-17.277v-40.224h39.376V223.54h-60.75zm-134.518.013l-12.52 26.561h-7.226v-26.561h-22.9v65.907h22.9v-26.549h7.227l12.519 26.549h22.875l-16.132-32.947 16.132-32.96z" fill="#5A2C81" fill-rule="nonzero"/><g transform="translate(80.77 57.692)"><mask id="b" fill="#fff"><use xlink:href="#a"/></mask><path fill="#5A2C81" fill-rule="nonzero" mask="url(#b)" d="M85.66 231.761h23.703v-65.92H85.66z"/></g><g transform="translate(80.77 57.692)"><mask id="d" fill="#fff"><use xlink:href="#c"/></mask><path d="M321.617 183.597l.025-17.754h-.025v-.102l-60.789.102v30.08c0 5.02 3.054 9.125 6.794 9.125h30.98v14.377h-37.774v12.108h60.814v-30.067c0-4.69-2.646-8.565-6.068-9.049v-.05H283.64V178.55h15.98v5.047h21.997z" fill="#5A2C81" fill-rule="nonzero" mask="url(#d)"/></g><g transform="translate(80.77 57.692)"><mask id="f" fill="#fff"><use xlink:href="#e"/></mask><path fill="#5A2C81" fill-rule="nonzero" mask="url(#f)" d="M256.948 98.748h-19.415l40.038-40.123-30.267-30.334L207 68.337l-39.961-40.046-70.28 70.457H77.344l39.961-40.187-30.203-30.27L47.14 68.337 14.05 35.454v118.163h307.568V33.924z"/></g><g transform="translate(80.77 57.692)"><mask id="h" fill="#fff"><use xlink:href="#g"/></mask><path d="M81.243 140.918c0 1.708 1.4 3.097 3.092 3.097h17.29v-4.64H87.54v-15.09h14.084v-4.64H81.243v21.273z" fill="#FEFEFE" fill-rule="nonzero" mask="url(#h)"/></g><g transform="translate(80.77 57.692)"><mask id="j" fill="#fff"><use xlink:href="#i"/></mask><path d="M59.35 133.022h7.8v-8.73h-7.8v8.73zm10.636-13.345l-16.92-.038v24.395h6.284v-6.386h7.8v6.386h6.297v-21.272c0-1.823-1.603-3.34-3.46-3.085z" fill="#FEFEFE" fill-rule="nonzero" mask="url(#j)"/></g><g transform="translate(80.77 57.692)"><mask id="l" fill="#fff"><use xlink:href="#k"/></mask><path d="M296.104 139.33h7.774v-15.052h-7.774v15.053zm11.005-19.691h-14.262a3.106 3.106 0 00-3.091 3.097v18.175c0 1.708 1.4 3.097 3.091 3.097h14.262c1.692 0 3.08-1.389 3.08-3.11v-18.162c0-1.708-1.388-3.097-3.08-3.097z" fill="#FEFEFE" fill-rule="nonzero" mask="url(#l)"/></g><g transform="translate(80.77 57.692)"><mask id="n" fill="#fff"><use xlink:href="#m"/></mask><path d="M24.86 131.059c0 1.708 1.4 3.097 3.105 3.097h10.98v5.226H24.86v4.64h20.381v-11.408a3.103 3.103 0 00-2.773-3.085l-.166-.012H31.146v-5.226h14.096v-4.652H24.861v11.42z" fill="#FEFEFE" fill-rule="nonzero" mask="url(#n)"/></g><g transform="translate(80.77 57.692)"><mask id="p" fill="#fff"><use xlink:href="#o"/></mask><path d="M143.383 133.022h7.799v-8.73h-7.8v8.73zm10.98-13.383h-17.278v24.395h6.298v-6.386h7.799v6.386h6.297v-21.272c0-1.708-1.4-3.123-3.117-3.123z" fill="#FEFEFE" fill-rule="nonzero" mask="url(#p)"/></g><g transform="translate(80.77 57.692)"><mask id="r" fill="#fff"><use xlink:href="#q"/></mask><path fill="#FEFEFE" fill-rule="nonzero" mask="url(#r)" d="M262.346 124.289h7.061v19.742h6.273V124.29h7.048v-4.64h-20.382z"/></g><g transform="translate(80.77 57.692)"><mask id="t" fill="#fff"><use xlink:href="#s"/></mask><path d="M197.113 119.645h-31.285v24.37h6.285v-19.73h7.722v19.73h6.374v-19.73h7.71v19.73h6.285v-21.273a3.106 3.106 0 00-3.091-3.097" fill="#FEFEFE" fill-rule="nonzero" mask="url(#t)"/></g><g transform="translate(80.77 57.692)"><mask id="v" fill="#fff"><use xlink:href="#u"/></mask><path d="M252.867 119.645h-17.278v24.37h6.285v-19.73h7.8v19.73h6.297v-21.273c0-1.695-1.4-3.097-3.104-3.097" fill="#FEFEFE" fill-rule="nonzero" mask="url(#v)"/></g><g transform="translate(80.77 57.692)"><mask id="x" fill="#fff"><use xlink:href="#w"/></mask><path d="M208.773 140.918a3.098 3.098 0 003.091 3.097h17.278v-4.64H215.07v-5.225h14.072v-4.627H215.07v-5.238h14.072v-4.64h-20.37v21.273z" fill="#FEFEFE" fill-rule="nonzero" mask="url(#x)"/></g><g transform="translate(80.77 57.692)"><mask id="z" fill="#fff"><use xlink:href="#y"/></mask><path d="M115.151 130.524h7.8v-6.233h-7.8v6.233zm10.725 4.639h3.36v-12.414c0-1.81-1.566-3.314-3.449-3.072l-16.92-.038v24.395h6.284v-8.871h4.555l3.766 8.845h6.132l-3.728-8.845z" fill="#FEFEFE" fill-rule="nonzero" mask="url(#z)"/></g><g transform="translate(80.77 57.692)"><mask id="B" fill="#fff"><use xlink:href="#A"/></mask><path mask="url(#B)" d="M-119.23-96.154h576.922V480.77H-119.23z"/></g></g></svg>