<svg width="500" height="500" viewBox="0 0 500 500" xmlns="http://www.w3.org/2000/svg"><g fill="none" fill-rule="evenodd"><path fill="#FEFEFE" fill-rule="nonzero" d="M370.074 38.464L343.68 85.268l-4.87 36.08-41.9 74.669h-44.415l38.965-68.947V38.464h-54.03l-25.327 46.502-4.546 36.406-63.678 113.57 13.035 32.656h34.558l-11.306 28.642-38.397-41.535 4.72 63.597-68.874 2.89 55.305 38.935-38.965 58.13 63.77-20.854 26.036 62.61 19.645-67.496 71.494 18.441-46.33-53.616 56.06-46.305-52.186 3.238 41.296-46.677h69.627l77.93-138.207.742-1.335V38.464z"/><path fill="#FEFEFE" fill-rule="nonzero" d="M373.466 44.26L348.72 88.13l-4.303 35.06-44.114 78.625H242.54l43.117-76.282V44.261H240.87l-23.68 43.485-4.002 35.442-62.9 112.165 10.564 26.437h39.15l-17.823 45.156-33.388-36.116 3.932 53.013-57.81 2.426 45.981 32.378-32.75 48.859 52.87-17.292 21.79 52.363 16.607-57.075 58.97 15.191-38.084-44.042 46.863-38.703-48.347 2.994 52.324-59.152h68.85l76.26-135.248V44.261zm0 4.147v-4.143 4.143z"/><path fill="#2D2925" fill-rule="nonzero" d="M373.466 44.26L348.72 88.13l-4.303 35.06-44.114 78.625H242.54l43.117-76.282V44.261H240.87l-23.68 43.485-4.002 35.442-62.9 112.165 10.564 26.437h39.15l-17.823 45.156-33.388-36.116 3.932 53.013-57.81 2.426 45.981 32.378-32.75 48.859 52.87-17.292 21.79 52.363 16.607-57.075 58.97 15.191-38.084-44.042 46.863-38.703-48.347 2.994 52.324-59.152h68.85l76.26-135.248V44.261z"/><path fill="#C4CDD3" fill-rule="nonzero" d="M364.2 83.387h20.886l14.543-27.32h-20.132zm-131.341.045l22.498-.058 14.333-27.319-21.686.012zm-5.35 34.407l20.27.058 1.89-23.477h-19.61zm130.904 0l20.282.058 1.914-23.477h-19.657zm-183.89 244.629c-5.137 0-9.3-4.155-9.3-9.284a9.293 9.293 0 019.3-9.296 9.283 9.283 0 019.29 9.296 9.28 9.28 0 01-9.29 9.284zm179.542-230.585l-45.726 80.564H198.587l45.75-80.564h-21.524l-55.178 97.507h61.208l-46.422 103.89-19.216-21.353 1.067 25.172-30.94 1.706 24.921 17.559-17.754 26.46 28.644-9.366 11.794 28.398 9.01-30.94 31.95 8.229-20.631-23.872 25.397-20.983-39.186 1.73 72.167-106.63h61.335l54.25-97.507h-21.164z"/><path d="M0 0h500v500H0z"/></g></svg>