<svg width="500" height="500" viewBox="0 0 500 500" xmlns="http://www.w3.org/2000/svg"><g fill="none" fill-rule="evenodd"><path d="M0 0h500v500H0z"/><g fill-rule="nonzero"><path d="M312.593 432.842a3.84 3.84 0 01-3.115-1.588l-.739-1.023c-1.403-2.05-1.092-3.835-.784-4.723.984-2.846 3.946-3.785 6.811-4.685.985-.311 2.635-.83 3.077-1.173.977-.83 2.054-1.565 3.143-2.288 2.35-1.573 4.288-3.408 6.061-5.177.704-.712 1.504-1.37 2.304-2.02 0 0 1.046-.857 1.27-1.027l2.73-2.826 2.15-2.277 1.592-1.654c1.143-1.177 2.289-2.346 3.343-3.604a275.2 275.2 0 007.48-9.085c.889-1.1 1.631-2.246 2.385-3.396l1.33-1.996c.262-.4.524-.792.824-1.188 1.496-2.081 2.661-3.939 3.623-5.785 1.408-2.608 2.988-5.02 4.519-7.354l1.342-2.05c1.066-1.665 2.181-3.458 2.958-5.292.42-1.012.962-1.989 1.512-2.966.361-.634.727-1.269 1.027-1.934.753-1.654 1.45-3.327 2.146-4.996l1.104-2.631c.1-.289.323-.927.803-1.577 1.8-2.9 3.097-6.473 4.47-10.262l.88-2.434c1.597-4.396 3.108-8.546 3.95-12.912a38.047 38.047 0 012.47-8.08c.288-.689.476-1.65.676-2.674l.981-4.703c.912-4.331 1.823-8.662 2.65-13.016.493-2.62.908-5.396 1.308-8.742.177-1.43.277-2.862.385-4.292l.269-3.508c.165-2.185.327-4.354.53-6.535.066-.834.124-1.754.177-2.688.104-1.658.208-3.346.381-4.92.139-1.438.35-3.65 2.373-5.046 1.143-.715 2.243-1.023 3.431-1.023.489 0 1.008.054 1.565.154 1.473.25 3.866.808 5.523 1.365 2.07.735 4.097 1.454 6.031 2.285 4.654 2.02 8.977 4.6 13.235 7.889.408.315.785.627 1.22.873.134.073.26.157.388.246 1.103.796 2.111 1.777 3.188 2.807l1.273 1.216a12.567 12.567 0 012.062 1.923c.523.611 1.915 2.377 2.43 3.158.116.169.289.4.473.638.435.585.897 1.215 1.266 1.83a35.69 35.69 0 011.192 2.2c.42.816.82 1.628 1.312 2.32 1.08 1.535 1.315 3.312.711 5.3-1.73 6.03-4.965 17.689-4.965 17.689l-2.78 8.942c-.047.138-.093.277-.155.408l-2.53 5.757-4.727 9.631-2.823 5.312-4.781 9.477-2.2 3.661-7.335 10.57-3.877 4.795-1.092 1.504-3.47 4.65-6.476 7.47-5.689 5.484-4.511 4.854-3.035 3.004-2.85 2.677a5.539 5.539 0 01-.361.3l-6.212 4.584-4.677 3.385-3.092 2.454-6.78 4.784-3.92 2.566-3.196 1.77-2.32 1.43-1.357.93a4.05 4.05 0 01-.616.343l-1.269.561c-.004.012-1.777.947-2.092 1.123l-.023-.042c-1.166.639-4.331 2.146-14.289 6.896l-5.865 2.296-1.858.8a3.643 3.643 0 01-.8.25l-2.954.562a3.797 3.797 0 01-.719.07" fill="#CE1141"/><path d="M396.424 253.846c-1.907 0-3.684.496-5.277 1.477a9.931 9.931 0 00-.334.216c-3.508 2.419-3.866 6.2-3.996 7.623l-.024.227c-.173 1.588-.284 3.334-.388 5.057-.058.904-.115 1.808-.18 2.673-.197 2.092-.358 4.281-.524 6.481l-.088 1.127a138.476 138.476 0 00-.189 2.465c-.104 1.35-.196 2.7-.361 4.035-.393 3.28-.796 5.977-1.273 8.504-.816 4.311-1.743 8.715-2.643 12.973l-.742 3.538c-.08.366-.158.766-.238 1.173-.158.793-.32 1.616-.481 2.012a41.694 41.694 0 00-2.677 8.8c-.777 4.035-2.242 8.054-3.789 12.308l-.63 1.742-.243.662c-1.284 3.546-2.496 6.896-4.207 9.676a9.967 9.967 0 00-1.066 2.166c-.346.811-.684 1.623-1.023 2.438a166.334 166.334 0 01-2.104 4.9c-.269.589-.58 1.123-.884 1.654-.55.977-1.173 2.08-1.72 3.385-.65 1.534-1.665 3.169-2.65 4.703l-1.265 1.935c-1.592 2.423-3.235 4.927-4.708 7.666-.923 1.757-1.996 3.465-3.43 5.461-.254.338-.55.78-.847 1.223l-.307.458a151.92 151.92 0 00-1.043 1.577c-.738 1.123-1.43 2.18-2.13 3.046a263.955 263.955 0 01-7.404 8.996c-.992 1.177-2.058 2.277-3.189 3.442-.557.577-1.119 1.154-1.665 1.735l-2.327 2.458-2.12 2.242c-.276.215-.495.392-.691.561l-.627.516c-.8.646-1.712 1.384-2.616 2.292-1.619 1.616-3.384 3.289-5.292 4.566l-.25.169c-.962.642-2.03 1.361-3.108 2.242-.465.2-1.407.5-2.061.704-3.239 1.023-7.673 2.423-9.289 7.1-.927 2.673-.492 5.615 1.185 8.065.038.058.077.112.12.166l.738 1.023a7.7 7.7 0 006.23 3.18c.481 0 .966-.046 1.45-.134l2.954-.57a7.94 7.94 0 001.592-.484l1.854-.8 5.481-2.138c.177-.07.35-.143.52-.223 9.138-4.362 12.8-6.108 14.476-7.024l.039.062c.304-.17 1.504-.8 2.015-1.073l1.046-.462a8.002 8.002 0 001.231-.68l1.358-.931 2.154-1.323 2.784-1.527c.177-.096.346-.2.512-.308l3.807-2.488c.077-.05.15-.1.227-.154l6.604-4.658a7.053 7.053 0 00.339-.254l3.096-2.446 4.507-3.261 4.3-3.196 1.958-1.427a6.758 6.758 0 00.723-.604l2.781-2.596c.05-.05.096-.1.15-.146l2.927-2.893c.073-.077.146-.154.215-.23l4.516-4.85 5.296-5.085a8.27 8.27 0 00.473-.5l6.3-7.246a9.972 9.972 0 00.358-.443l3.446-4.611 1.15-1.577 3.58-4.412c.12-.15.231-.3.343-.457l7.204-10.37c.092-.134.177-.273.265-.411l2.054-3.396c.1-.17.196-.339.28-.516l4.824-9.557 2.684-5.046a4.098 4.098 0 00.12-.224l4.657-9.484c.046-.096.093-.192.139-.296l2.53-5.754c.116-.266.22-.535.304-.816l2.747-8.83.069-.223c0-.004 3.23-11.647 4.973-17.727 1.158-3.835-.039-6.735-1.258-8.473-.308-.431-.688-1.177-1.058-1.9a44.786 44.786 0 00-1.303-2.4c-.527-.87-1.07-1.597-1.504-2.177-.146-.196-.289-.377-.404-.546-.665-1-2.127-2.831-2.677-3.474-.83-.988-1.754-1.78-2.58-2.43a76.826 76.826 0 01-.966-.927c-1.127-1.089-2.292-2.212-3.623-3.173a6.945 6.945 0 00-.785-.5c-.23-.143-.45-.335-.673-.512-4.561-3.527-9.154-6.265-14.088-8.404-2.197-.942-4.45-1.734-6.254-2.373-2.016-.68-4.623-1.273-6.231-1.55-.735-.13-1.47-.2-2.18-.2m0 7.693c.272 0 .565.034.88.088 1.43.246 3.62.77 4.97 1.227 1.945.688 3.895 1.377 5.757 2.173 4.492 1.95 8.48 4.37 12.396 7.396.542.423 1.085.85 1.704 1.192 1.265.916 2.58 2.323 4.096 3.727.615.473 1.23.981 1.742 1.585.481.561 1.708 2.111 2.162 2.8.458.673 1.158 1.508 1.646 2.323.942 1.573 1.673 3.37 2.677 4.777.435.62.37 1.242.158 1.946-1.746 6.104-4.993 17.78-4.993 17.78l-2.746 8.832-2.53 5.757-4.658 9.481-2.77 5.2-4.819 9.554-2.054 3.4-7.203 10.365-3.704 4.57-1.212 1.665-3.446 4.612-6.3 7.246-5.45 5.234-4.658 5.008-2.927 2.892-2.776 2.6-2.008 1.47-4.227 3.138-4.638 3.358-3.224 2.55-6.611 4.657-3.808 2.489-2.946 1.619-2.477 1.523-1.515 1.03-1.289.57s-2.392 1.262-2.454 1.308c-.03.03-14.034 6.711-14.034 6.711l-5.608 2.185-1.977.854-2.954.561-.738-1.023c-2.008-2.927 5.965-3.238 8.48-5.392.924-.788 1.947-1.458 2.966-2.142 2.373-1.589 4.45-3.523 6.462-5.531.85-.854 1.846-1.6 2.777-2.373.357-.323.784-.592 1.115-.946 1.554-1.635 3.085-3.273 4.638-4.908 1.704-1.8 3.493-3.53 5.089-5.43a267.046 267.046 0 007.554-9.178c1.3-1.6 2.361-3.365 3.523-5.084.361-.523.68-1.043 1.073-1.57 1.458-2.027 2.796-4.084 3.954-6.311 1.696-3.142 3.738-6.085 5.684-9.096 1.204-1.877 2.385-3.793 3.27-5.885.688-1.654 1.753-3.158 2.5-4.808 1.157-2.538 2.188-5.134 3.284-7.703.096-.247.18-.562.362-.804 2.311-3.696 3.757-7.846 5.238-11.923 1.792-4.985 3.72-9.958 4.742-15.243.47-2.5 1.2-4.919 2.223-7.277.597-1.438.808-3.007 1.139-4.55 1.162-5.542 2.362-11.084 3.42-16.661.56-2.992.988-5.98 1.345-8.996.281-2.27.389-4.562.589-6.85.188-2.539.369-5.054.608-7.589.192-2.438.284-5.123.55-7.538.1-.935.119-1.881.738-2.308.392-.246.796-.334 1.242-.334" fill="#FFF"/><path d="M440.151 282.592c-1.284 0-2.527-.607-3.419-1.673-.577-.677-1.304-1.773-1.988-2.85-.462-.719-.893-1.438-1.243-1.823-.707-.62-1.4-1.357-1.95-2.092-1.757-2.312-4.242-4.127-6.869-6.05l-4.665-3.454-2.112-1.188c-1.534-.847-2.98-1.647-4.43-2.243-3.2-1.3-6.766-2.477-9.862-3.48-.458-.143-1.085-.281-1.635-.408-.446-.108-.853-.2-1.169-.289l-.484-.084a15.07 15.07 0 01-1.766-.408c-.996-.304-2.523-.761-3.565-2.404-.831-1.277-1.046-2.761-1.077-3.777 0 0-.015-2.007-.039-2.819l-.246-5.015a865.71 865.71 0 01-.296-6.231c-.273-7.639-1.523-15.012-2.85-22.823l-.261-1.542c-.204-1.227-.416-2.166-.62-3.089a55.394 55.394 0 01-.761-3.961l-.112-.65c-.277-1.566-.661-3.708.696-5.65 1.866-2.435 4.723-2.435 6.258-2.435 1.842 0 3.1.02 4.689.042l1.357.02c3.593.06 6.346.192 8.943.422 3.277.308 7.065.685 10.765 1.32 2.165.361 4.196.938 6.158 1.496.9.254 1.8.511 2.715.746.854.208 1.808.55 2.742.896.466.173.927.346 1.37.485.765.234 1.557.596 2.288.95 1.2.58 4.665 2.273 5.588 6.704 1.208 6.034 2.747 17.292 2.816 17.769l1.35 12.973.054 2.061-.05 11.443-.823 11.638s-1.466 13.239-1.535 13.746c-.1 2.335-2.077 3.727-3.962 3.727" fill="#CE1141"/><path d="M395.321 192.944c-1.72 0-6.3 0-9.215 3.816a5.91 5.91 0 00-.181.25c-2.288 3.246-1.677 6.684-1.35 8.53l.1.573c.265 1.743.554 3.054.808 4.212.192.865.392 1.742.584 2.889l.262 1.55c1.304 7.676 2.53 14.934 2.796 22.288.092 2.17.196 4.28.304 6.396.08 1.654.165 3.304.238 4.962.02.661.027 1.219.031 1.915l.008.646c.05 1.673.388 3.9 1.723 5.954 1.765 2.788 4.515 3.604 5.415 3.87a17.73 17.73 0 002.42.58c.119.02.234.038.353.065.316.085.704.173 1.12.27.446.104.957.211 1.353.334 2.993.97 6.47 2.116 9.566 3.377 1.25.508 2.607 1.262 4.042 2.058.57.315 1.142.63 1.716.942l2.884 2.135.912.677.838.615c2.396 1.75 4.658 3.408 6.1 5.296a17.994 17.994 0 002.165 2.377c.254.35.531.808.827 1.266.723 1.127 1.47 2.292 2.327 3.296 1.577 1.884 3.9 2.992 6.32 2.992 3.519 0 7.377-2.558 7.803-7.308.07-.584.15-1.373.15-1.373l1.35-12.057a7.832 7.832 0 00.027-.312l.812-11.38a7.577 7.577 0 00.02-.512l.053-11.35-.035-1.908a7.548 7.548 0 00-.042-.658l-1.339-12.853a5.182 5.182 0 00-.026-.243c-.07-.48-1.623-11.854-2.847-17.973-.884-4.227-3.442-7.373-7.619-9.411-.761-.366-1.758-.847-2.946-1.208-.312-.1-.708-.25-1.115-.4-.947-.35-2.016-.746-3.2-1.039a91.835 91.835 0 01-2.547-.7c-2.065-.584-4.2-1.192-6.603-1.592-3.793-.65-7.673-1.038-11.008-1.35-2.715-.246-5.558-.38-9.235-.438l-1.5-.023c-1.546-.023-2.804-.043-4.619-.043m0 7.693c2.312 0 3.692.03 5.992.061 2.897.05 5.766.15 8.65.412 3.477.323 7.012.684 10.458 1.277 2.939.488 5.68 1.434 8.577 2.177 1.254.307 2.658.93 3.904 1.323.63.192 1.246.488 1.82.765 1.71.835 3.01 1.915 3.45 4.008 1.188 5.95 2.76 17.5 2.76 17.5l1.343 12.854.035 1.734-.054 11.35-.812 11.385-1.358 12.165s-.088.87-.15 1.342c-.011.227-.042.393-.15.393-.096 0-.276-.062-.469-.293-1.119-1.311-2.638-4.188-3.53-4.992-.554-.488-1.089-1.03-1.523-1.615-2.32-3.046-5.447-5.2-8.47-7.423a584.944 584.944 0 00-3.861-2.866c-.235-.18-.477-.361-.735-.477-2.215-1.177-4.35-2.488-6.638-3.419-3.247-1.323-6.793-2.5-10.131-3.58-.916-.29-2.258-.554-2.977-.747-.704-.165-1.385-.23-2.12-.457-.603-.2-1.126-.27-1.457-.793-.308-.473-.458-1.173-.477-1.827-.011-1.08-.011-1.769-.046-2.83-.17-3.777-.38-7.524-.538-11.285-.3-8.389-1.77-16.604-3.166-24.846-.465-2.781-.946-4.185-1.37-6.985-.214-1.388-.603-2.742-.064-3.515.576-.75 1.884-.797 3.107-.797" fill="#FFF"/><path d="M344.791 145.161c-2.461 0-4.68-.126-6.588-.376-4.896-.612-14.115-2.97-14.5-3.07l-9.027-3.246a3.854 3.854 0 01-1.92-1.527l-2.595-4.015-7.466-1.689a3.846 3.846 0 01-3.434-2.111l-2.093-2.38a3.891 3.891 0 01-1.215-.924l-3.15-3.562-2.785-.184A3.86 3.86 0 01287 120.25l-1.28-2.085-9.231-3.115-6.808 2.65c-.45.177-.923.261-1.396.261a3.82 3.82 0 01-1.946-.53 3.799 3.799 0 01-1.37-1.37l-12.084-5.88c-.466-.073-.912-.204-1.262-.408l-8.069-4.665-15.538-.908a3.789 3.789 0 01-1.193.188c-.038 0-6.461-.173-6.461-.173a3.828 3.828 0 01-1.243.208c-.98 0-1.946-.373-2.68-1.088l-4.396-4.262a3.893 3.893 0 01-1.066-.646l-4.596-3.942-12.17-.631a3.57 3.57 0 01-.665.065c-.084 0-10.765-.861-10.765-.861a3.741 3.741 0 01-.688-.123l-4.674-.366c-.273 0-7.977-.188-7.977-.188a3.366 3.366 0 01-.65-.073l-2.626 1.08-5.535 1.935a3.822 3.822 0 01-1.058.208l-.354.019-9.853 3.777-4.393 1.57c-2.519.984-3.288 1.253-3.838 1.326-.766.23-2.339.77-2.339.77l-5.627 2.207c-.45.173-.923.265-1.403.265l-4.612 1.873a3.869 3.869 0 01-1.454.285c-.065 0-.246-.008-.273-.008a274.27 274.27 0 00-2.842 1.031l-2.246.685a3.92 3.92 0 01-1.108.161 3.841 3.841 0 01-2.62-1.03 3.844 3.844 0 01-1.134-3.647c.28-1.265.804-1.973 4.208-4.888l1.954-1.642 5.446-4.297 5.873-3.965 5.461-4.312c.1-.08.208-.157.316-.226l.819-.52 5.262-2.8 1.527-.884 4.734-2.47 4.58-3.011 5.9-3.208 2.824-1.361 8.312-3.254 6.253-2.6 2.377-.92 1.789-1.046c.292-.169.607-.3.934-.388l3.747-1.015 1.292-.793a3.97 3.97 0 011-.43l2.892-.789 4.585-1.673c.419-.15.861-.227 1.307-.227.039 0 .885.027.885.027l4.592-.896 3.035-.939a3.67 3.67 0 01.392-.1l4.266-.846 4.465-.507 5.02-.139 5.75-.661 6.445-.189 3.858.07 2.396.245 5.704.377c.154.012.304.031.454.058l4.585.862 2.334.077c.189.003.377.026.562.057l5.477.996 2.865.735.535.092 3.842.912c.165.038.33.088.492.146l9.212 3.47 6.173 2.242 1.658.696 7.946 4.28 11.084 6.735 3.162 1.677c.192.1.373.22.542.35l9.266 7.158 11.58 10.692 3.235 3.17 10.427 11.442c.088.096.177.2.254.307l1.738 2.358 1.716 2.023 9.25 13.304 2.215 3.458c1.408 2.477 2.258 4.03 2.608 4.746 1.03 1.792 1.196 3.469.519 5.034-1.158 2.746-3.785 2.993-4.646 3.077-.612.07-1.296.108-2.031.143l-1.215.069c-1.85.13-4.231.257-6.72.257h-.003z" fill="#CE1141"/><path d="M233.824 50h-.208l-6.119.165a7.479 7.479 0 00-.654.05l-5.75.646-4.354.108a6.226 6.226 0 00-.657.046l-4.139.458a6.221 6.221 0 00-.65.1l-4.265.842c-.262.054-.523.12-.777.2l-2.838.877-3.973.773-.327-.011c-.081-.004-.162-.004-.239-.004a7.699 7.699 0 00-2.62.462l-4.588 1.657-2.592.704c-.7.192-1.373.48-1.992.862l-.827.504-3.216.873a7.548 7.548 0 00-1.861.78l-1.523.885-2.004.777a2.513 2.513 0 00-.18.073l-6.335 2.63-7.885 3.078a7.225 7.225 0 00-.535.23l-2.657 1.277a5.332 5.332 0 00-.331.17l-5.627 3.042a6 6 0 00-.546.327l-4.589 2.992-4.25 2.216c-.1.05-.196.103-.296.161l-1.527.88-4.877 2.585c-.18.096-.357.2-.53.312l-.82.52a7.92 7.92 0 00-.623.441l-5.469 4.304-4.48 3.02-.916.615a8.205 8.205 0 00-.473.342l-5.354 4.22-.185.153-1.927 1.616c-3.311 2.838-4.907 4.3-5.515 7.003a7.703 7.703 0 002.265 7.316 7.696 7.696 0 005.243 2.061 7.792 7.792 0 002.211-.323l2.023-.607c.15-.047.297-.097.447-.15a221.147 221.147 0 012.18-.797 7.78 7.78 0 002.516-.561l4.004-1.635a7.485 7.485 0 001.957-.484l5.639-2.208a68.101 68.101 0 011.854-.608c1.015-.2 2.161-.642 4.315-1.484l4.2-1.5 9.47-3.627a7.775 7.775 0 001.85-.396l5.341-1.862a8.056 8.056 0 00.389-.15l1.75-.715c.454.007 6.3.15 7.93.188l4.27.335a7 7 0 00.892.138l10.512.85a8.162 8.162 0 001.477-.023l10.411.539 3.604 3.088a7.679 7.679 0 001.339.923l3.954 3.831a7.678 7.678 0 007.065 1.977l5.78.158c.074 0 .143.003.212.003a7.82 7.82 0 001.562-.161l14.03.82 7.281 4.207c.67.384 1.389.67 2.127.838l10.608 5.166a7.686 7.686 0 005.854 2.7c.946 0 1.892-.173 2.792-.523l5.504-2.143 6.592 2.223.554.904a7.693 7.693 0 006.039 3.646l1.207.081 2.096 2.373a7.513 7.513 0 001.643 1.404l1.392 1.585a7.697 7.697 0 006.142 3.715l5.535 1.258 1.746 2.7a7.673 7.673 0 003.838 3.054l8.674 3.142c.234.084.469.154.707.215 1 .258 9.931 2.531 15.004 3.162 2.027.265 4.408.404 7.039.404 2.134 0 4.419-.089 6.992-.266.392-.027.77-.046 1.13-.065a33.386 33.386 0 002.285-.166c4.962-.465 7.004-3.615 7.777-5.45.777-1.792 1.312-4.757-.68-8.28-.304-.604-.958-1.831-2.547-4.654-.073-.123-.146-.25-.227-.373l-2.138-3.335a8.345 8.345 0 00-.158-.234l-9.03-13.016a6.949 6.949 0 00-.435-.569l-1.712-2.03-1.584-2.155a7.192 7.192 0 00-.508-.623l-2.98-3.273-7.3-8.011a4.518 4.518 0 00-.3-.308l-3.147-3.092a3.198 3.198 0 00-.165-.158l-11.32-10.47a8.09 8.09 0 00-.523-.438l-9.265-7.161a7.554 7.554 0 00-1.092-.704l-3.158-1.677-10.727-6.527a6.927 6.927 0 00-.335-.192l-7.619-4.123a7.41 7.41 0 00-.657-.32l-1.47-.619a5.492 5.492 0 00-.377-.15l-6.215-2.254-9.127-3.438a7.792 7.792 0 00-.98-.296l-.712-.166-2.904-.7c-.127-.03-.258-.057-.385-.084l-.527-.1-2.334-.604a9.651 9.651 0 00-.558-.123l-5.48-.993a7.43 7.43 0 00-1.124-.123l-2.042-.065-4.288-.808a8.011 8.011 0 00-.908-.111l-5.7-.385-1.9-.204a8.05 8.05 0 00-.685-.046l-3.68-.069h-.147zm0 7.692l3.68.07 2.055.223 5.865.392 4.873.915 2.627.085 5.477.996 2.588.673.785.146 2.98.72.712.165 9.216 3.47 6.215 2.253 1.47.623 7.615 4.123 10.92 6.639 3.35 1.784 9.264 7.158 11.323 10.47 3.15 3.092 7.297 8.011 2.98 3.273 1.735 2.358 1.873 2.223 9.035 13.015 2.138 3.339s2.192 3.888 2.435 4.461c.17.316.692 1.035.396 1.72-.289.688-.896.719-1.554.78-.885.104-1.927.12-3.077.2a94.5 94.5 0 01-6.458.246c-2.03 0-4.142-.088-6.088-.342-4.73-.592-14.042-2.98-14.042-2.98l-8.67-3.14-3.45-5.33-9.373-2.127h-.469l-.054-.246-3.384-3.858-.423-.015-4.193-4.746-4.365-.292-2.008-3.27-11.873-4.007-8.111 3.153-.104-.765-14.28-6.954-.35.05-8.09-4.677-.103-.407-18.173-1.062-.362.246-7.227-.2-.477.23-5.246-5.084-.392.016-5.15-4.416-.085-.361-14.523-.75-.12.092-10.51-.85-.17-.077-5.192-.411c-.108 0-8.193-.196-8.193-.196l-.607-.443-4.227 1.735-5.339 1.861-.957.054-10.416 3.989-4.311 1.538s-2.893 1.13-3.077 1.13c-.004 0-.008 0-.008-.003s-.004-.004-.015-.004c-.208 0-3.02.954-3.02.954l-5.796 2.27h-.777l-5.288 2.157s-.638-.03-.712-.062h-.003c-.139 0-3.735 1.327-3.735 1.327l-2.02.604c.074-.33 2.958-2.796 2.958-2.796l1.927-1.62 5.35-4.218.927-.62 4.712-3.177 5.692-4.48.82-.52 5.003-2.65 1.646-.953 4.589-2.389 4.904-3.204 5.63-3.042 2.658-1.277 8.042-3.138 6.335-2.635 2.573-.992 2.054-1.2 4.277-1.158 1.765-1.08 2.896-.79 4.881-1.765 1.193.039 5.227-1.016 3.23-1.003 4.27-.843 4.138-.461 4.692-.116 6.085-.684 6.12-.166z" fill="#FFF"/><path d="M434.656 203.02c-.677 0-1.442-.158-1.939-.305l-.619-.177c-1.07-.311-2.115-.626-3.096-1.073a26.25 26.25 0 00-5.72-1.892l-2.003-.427c-1.935-.415-3.88-.83-5.82-1.192-1.05-.17-3.38-.412-3.4-.415-3.072-.285-6.838-.597-7.484-.6-3.45.061-6.9.161-10.354.276-.977.047-2.019.085-3.061.085-2.846 0-4.989-1.677-5.65-4.377l-.489-1.873a123.43 123.43 0 00-.661-2.492l-1.373-4.435-1.312-4.134c-.62-1.95-1.238-3.904-1.873-5.847-.377-1.142-.873-2.296-1.377-3.43a127.063 127.063 0 01-1.654-4.077c-.965-2.466-1.873-4.793-3.069-6.97-.95-1.765-1.785-3.573-2.611-5.373l-1.085-2.327c-.289-.58-.523-1.296-.673-2.069-.277-1.55.011-2.834.846-3.996.992-1.211 2.02-1.627 2.57-1.85.576-.238 2.56-1.158 2.56-1.158l2.654-1.542c-.011 0 1.793-1.192 2.231-1.52.554-.41 3.062-2.48 3.17-2.565h-.004c-.008 0 3.107-2.873 4.6-4.523.98-1.088 3.654-5.215 5.234-7.796a3.836 3.836 0 012.077-1.646 4.062 4.062 0 011.296-.223c1.558 0 2.839.712 3.812 2.115.554.647 1.83 2.177 1.83 2.177l13.924 18.82 2.073 3.357 2.908 5.816 2.88 4.684c.081.139.158.28.223.427l2.531 5.627 2.077 4.992 4.404 9.812 1.538 4.27 1.562 4.653.55 2.108.438 1.157c.185.504 1.143 3.166 1.427 4.808.304 1.796-.53 4.1-2.654 4.873l-.003-.008a4.368 4.368 0 01-1.431.254" fill="#CE1141"/><path d="M396.575 119.23c-.827 0-1.673.143-2.473.408a7.664 7.664 0 00-4.177 3.297c-1.908 3.107-4.166 6.5-4.83 7.257-1.074 1.181-3.4 3.377-4.332 4.243-.561.457-2.323 1.903-2.827 2.284-.427.316-1.596 1.093-2.077 1.412l-2.457 1.411c-.543.25-1.631.75-1.993.904-.815.33-2.553 1.03-4.003 2.77-.123.15-.243.3-.358.457-1.435 2.008-1.946 4.292-1.516 6.792.247 1.281.597 2.331 1.074 3.285.3.635.657 1.404 1.011 2.177.83 1.8 1.685 3.662 2.689 5.53 1.111 2.02 1.977 4.235 2.892 6.578a124.093 124.093 0 001.684 4.161c.462 1.042.947 2.17 1.285 3.18.608 1.85 1.208 3.75 1.808 5.647a720.156 720.156 0 001.384 4.354c.173.58.404 1.315.631 2.046.239.754.477 1.508.696 2.265.208.716.408 1.504.608 2.297.17.653.338 1.315.52 1.977 1.103 4.303 4.826 7.184 9.303 7.184a68.08 68.08 0 003.365-.092c3.304-.108 6.739-.208 10.204-.27.566.02 4.166.324 7.077.59-.004 0 2.131.222 3.181.391 1.7.32 3.585.723 5.462 1.123l2.077.447a23.23 23.23 0 014.907 1.615c1.342.615 2.612.98 3.635 1.28l.588.17c.52.154 1.743.465 3.054.465.927 0 1.896-.173 2.792-.5l.004.004c4.07-1.511 5.658-5.834 5.081-9.134-.327-1.862-1.235-4.447-1.612-5.477l-.407-1.139-.393-1.504a7.553 7.553 0 00-.15-.504l-1.53-4.58-1.477-4.143a7.683 7.683 0 00-.227-.557l-4.404-9.812-1.992-4.792c-.027-.066-.054-.139-.085-.204l-2.53-5.627a8.614 8.614 0 00-.455-.854l-2.865-4.688-.557-1.139-2.047-4.1a8.485 8.485 0 00-.323-.577l-1.884-3.077a8.657 8.657 0 00-.37-.553l-.8-1.081-12.98-17.566c-.093-.123-.185-.246-.285-.361 0 0-1.042-1.246-1.746-2.065-2.22-3.123-5.239-3.604-6.85-3.604m0 7.692c.415 0 .511.292.811.685.639.734 1.881 2.223 1.881 2.223l12.98 17.569.8 1.077 1.882 3.077 2.034 4.07.712 1.441 3.042 4.985 2.535 5.63 2.03 4.89 4.447 9.91 1.427 3.99 1.534 4.58.477 1.846.543 1.504s1.015 2.773 1.253 4.158c.031.18-.092.569-.177.6a.306.306 0 01-.119.015c-.2 0-.592-.065-.85-.142-1.104-.331-2.204-.608-3.204-1.066a30.656 30.656 0 00-6.546-2.157c-2.623-.554-5.265-1.147-7.892-1.635-1.216-.196-3.7-.458-3.7-.458s-6.754-.623-7.889-.623h-.042c-3.5.066-6.965.166-10.438.277-.977.05-1.954.085-2.935.085h-.054c-.97 0-1.623-.443-1.861-1.443-.416-1.519-.77-3.026-1.193-4.511-.446-1.504-.934-2.992-1.38-4.485-1.077-3.334-2.12-6.719-3.216-10.069-.427-1.277-.965-2.554-1.523-3.8-1.635-3.792-2.862-7.688-4.858-11.33-1.311-2.435-2.407-5.008-3.6-7.505a4.586 4.586 0 01-.373-1.146c-.084-.496-.019-.719.193-1.015.246-.292.673-.442 1.034-.592.362-.143 2.596-1.173 2.596-1.173l2.966-1.704s2.142-1.42 2.619-1.781c.492-.358 3.296-2.67 3.296-2.67s3.342-3.072 5.004-4.903c1.67-1.862 5.661-8.373 5.661-8.373.027 0 .062-.03.093-.03" fill="#FFF"/><path d="M366.892 143.185c-1.866 0-3.789-1.085-4.893-2.766l-.45-.634c-.719-1.027-1.538-2.193-2.177-3.539-.765-1.658-1.85-3.285-3.43-5.161-1.831-2.22-3.262-4.554-4.647-6.812-.438-.715-.877-1.43-1.323-2.138a8.624 8.624 0 01-.434-.743 203.173 203.173 0 01-3.323-4.211c-1.62-2.089-3.147-4.062-4.893-5.789-1.877-1.88-3.492-3.919-4.827-5.661-1.311-1.708-2.877-3.25-4.542-4.881l-.82-.811c-2.58-2.458-4.545-4.431-6.326-6.35-1.062-1.147-2.37-2.15-3.754-3.216-.72-.554-1.442-1.108-2.146-1.688 0 0-1.608-1.37-1.85-1.589-.208-.188-.404-.4-.635-.542-2.2-1.227-3.904-2.704-5.334-3.996a31.439 31.439 0 00-5.358-4.073c-3.542-2.1-7.1-4.181-10.708-6.25-.634-.381-1.311-.662-2.261-.946-1.25-.362-2.404-.893-3.427-1.362-.489-.223-.977-.446-1.477-.646-1.146-.466-2.292-.9-3.435-1.335-1.227-.465-2.45-.93-3.661-1.42-.37-.13-1.435-.66-1.435-.66a3.601 3.601 0 01-1.115-.85l-.296-.331a3.845 3.845 0 01.13-5.293l.67-.669a3.852 3.852 0 013.1-1.112l1.188.116c.15.015.292.034.435.07l7.584 1.63 7.958 2.011c.32.097 10.308 3.566 11.215 3.847v.011c.57.17 1.543.512 3.508 1.196l-.012.035c1.108.37 3.427 1.277 9.158 3.53l17.212 8.135 21.838 13.096c.2.12.389.258.562.408l4.288 3.77c.97.753 1.685 1.307 2.208 1.776l.023-.023c.258.216 12.388 10.035 12.388 10.035l.843.723 2.565 2.523c.17.165.323.35.462.546l1.142 1.654 1.742 1.996c.166.192.316.4.443.623l.673 1.181c1.192 1.812 1.369 2.662 1.446 3.023.25 1.27-.035 2.67-.846 4.189l-2.943 4.934a2.83 2.83 0 01-.223.339L385 131.312c-.404.484-2.638 3.077-3.865 4.234-.846.754-1.946 1.589-2.82 2.246-.403.304-.75.558-.926.712-.789.746-2.416 1.62-3.312 2.065l-2.861 1.266-1.623.669c-.535.23-1.416.558-2.22.654a4.03 4.03 0 01-.48.027" fill="#CE1141"/><path d="M281.439 53.846a7.708 7.708 0 00-5.439 2.25l-.669.673a7.692 7.692 0 00-.277 10.589l.3.33a7.612 7.612 0 002.239 1.712c.492.25 1.184.585 1.819.827 1.204.484 2.419.946 3.638 1.411 1.123.427 2.246.854 3.366 1.304.442.181.873.381 1.307.581 1.089.5 2.446 1.12 4.012 1.57.55.168.97.334 1.277.515a875.656 875.656 0 0110.78 6.303c1.65 1 3.212 2.181 4.585 3.481 1.685 1.523 3.539 3.127 5.892 4.466.07.061.131.123.2.18.289.266.577.524.874.77l.373.315.58.492.158.135a76.157 76.157 0 002.254 1.777c1.308 1 2.435 1.865 3.27 2.77 1.845 1.984 3.865 4.01 6.557 6.58l.746.735c1.554 1.53 3.023 2.973 4.158 4.457 1.415 1.843 3.127 3.993 5.127 6.008 1.615 1.6 3.069 3.477 4.615 5.47.97 1.253 1.97 2.545 3.062 3.838.192.346.357.627.534.9.389.607.816 1.307 1.246 2.007 1.45 2.37 2.954 4.82 4.939 7.22 1.392 1.657 2.3 3.011 2.9 4.307.815 1.723 1.777 3.093 2.554 4.193l.453.65c1.75 2.65 4.854 4.369 8.024 4.369.096 0 .227 0 .327-.008a7.477 7.477 0 00.584-.046c1.027-.115 2.165-.442 3.385-.973l1.38-.565c.07-.027.135-.058.204-.085.004 0 1.946-.862 2.643-1.166a6.837 6.837 0 00.38-.176c1.773-.889 3.15-1.758 4.097-2.585.18-.146.442-.342.746-.57.907-.684 2.042-1.538 2.969-2.365a5.55 5.55 0 00.154-.138c1.319-1.239 3.396-3.642 4.007-4.35.104-.123.204-.25.304-.38l1.67-2.224c.165-.22.315-.446.457-.68l2.854-4.778c.058-.103.12-.211.173-.315.858-1.604 1.766-4.077 1.227-6.754-.188-.93-.577-2.177-1.988-4.37l-.55-.976a8.058 8.058 0 00-.897-1.262l-1.6-1.834-1.019-1.473a7.81 7.81 0 00-.919-1.093l-2.362-2.334a7.29 7.29 0 00-.4-.373l-.738-.631a2.832 2.832 0 00-.192-.162l-6.897-5.584c-2.746-2.223-5.127-4.15-5.453-4.42l-.031.039c-.662-.6-1.43-1.204-2.292-1.873l-4.12-3.62a7.748 7.748 0 00-1.115-.815l-21.504-12.915a6.61 6.61 0 00-.67-.358l-16.972-8.034a5.327 5.327 0 00-.481-.208c-5.27-2.07-7.842-3.08-9.304-3.573l.016-.042c-1.804-.631-2.885-1.012-3.623-1.239l.003-.007c-.669-.216-6.061-2.073-10.784-3.716a7.927 7.927 0 00-.635-.188l-7.823-1.981a5.52 5.52 0 00-.27-.062l-7.588-1.634a7.354 7.354 0 00-.865-.135l-1.192-.12a8.218 8.218 0 00-.75-.034m0 7.693l1.192.115 7.585 1.635 7.819 1.98s10.977 3.808 11.088 3.808c.031 0 3.312 1.146 3.312 1.146.061 0 9.008 3.512 9.008 3.512l16.973 8.034 21.504 12.92 4.292 3.765s2.28 1.78 2.28 1.796c.024.035 8.3 6.723 12.454 10.088.243.212.766.658.766.658l2.361 2.339 1.266 1.83 1.88 2.158.674 1.18s.919 1.405 1.019 1.897c.107.527-.466 1.6-.466 1.6l-2.85 4.777-1.673 2.227s-2.311 2.692-3.427 3.742c-1.157 1.035-3.169 2.435-3.661 2.877-.466.442-1.827 1.18-2.477 1.508-.712.307-2.7 1.188-2.7 1.188l-1.523.623s-.8.346-1.212.396h-.03c-.443 0-1.231-.342-1.685-1.034-.82-1.193-1.735-2.38-2.362-3.704-1.011-2.196-2.415-4.158-3.957-5.992-2.193-2.65-3.843-5.654-5.673-8.535-.297-.454-.5-.984-.862-1.377-2.83-3.304-5.223-6.965-8.33-10.038-1.628-1.639-3.074-3.439-4.481-5.27-1.7-2.223-3.72-4.119-5.704-6.084-2.127-2.027-4.223-4.085-6.212-6.23-1.873-2.028-4.17-3.516-6.265-5.25-.373-.324-.754-.64-1.12-.947-.669-.554-1.288-1.246-2.042-1.63-1.68-.94-3.119-2.162-4.53-3.44a34.876 34.876 0 00-5.95-4.51 856.027 856.027 0 00-10.781-6.3c-.966-.574-1.973-.962-3.073-1.293-1.585-.458-3.043-1.277-4.573-1.892-2.362-.954-4.747-1.804-7.089-2.75-.37-.135-1.138-.524-1.138-.524l-.297-.33.67-.67" fill="#FFF"/><path d="M59.267 276.08a3.79 3.79 0 01-1.443-.28 1.469 1.469 0 01-.177-.08c-1.196-.509-2.373-1.709-2.634-4.424l-.423-6.461-.408-.9a3.877 3.877 0 01-.335-1.681l.67-25.608a4.726 4.726 0 01.03-.407l1.558-11.677.358-5.377a3.607 3.607 0 01.08-.573l1.043-4.681 1.761-10.62 1.181-5.542c.054-.246.127-.484.231-.715l2.458-5.704.265-2.177a3.84 3.84 0 011.554-2.65l6.392-4.661 14.143-10.512 12.646-9.111 7.988-6.104c.385-.6.931-1.093 1.589-1.408l3.823-1.835 1.634-1.669a3.835 3.835 0 015.123-.335l.012.008c2.188.358 7.462 1.227 9.327 1.516 2.054-.666 5.415-1.516 11.027-2.935a3.745 3.745 0 01.942-.12c.37 0 .739.054 1.096.162l1.296.385a3.844 3.844 0 012.03.354l4.305 2.046 3.208-2.535c.223-.361.492-.68.792-.911l16.515-12.758a3.853 3.853 0 012.35-.804c.67 0 1.343.177 1.947.53l.519.305 3.534.115c.331.012.658.065.974.158l14.177-.089a3.815 3.815 0 011.28-.219c.12 0 .239.004.358.015l7.32.689c.218-.208.46-.392.73-.546l17.715-10.227a3.823 3.823 0 011.923-.512c.431 0 .862.073 1.273.216l10.197-.77a3.846 3.846 0 011.484-.43s4.97-.389 5.07-.389c.426 0 .853.073 1.257.212 0 0 24.315-1.277 24.385-1.277.496 0 .984.096 1.45.284l6.442 2.624s7.338-.535 7.43-.535c.862 0 1.697.292 2.378.823l1.665.573a4.94 4.94 0 01.242-.008c.193 0 .381.016.573.043l4.266.642a3.845 3.845 0 013.03 2.45l2.04 1.842c.5.127.968.354 1.384.67l4.919 3.742 9.458.738a3.831 3.831 0 011.261-.215c.42 0 .839.07 1.239.208l12.707 4.353h-.004c.062 0 7.385 1.82 10.477 2.266l8.973 1.17h3.262c.365 0 .727.05 1.077.153 3.635-.292 6.088-.477 6.97-.477.541 0 2.318-.146 4.665-.415l.442-.07c.52-.084.95-.134 1.338-.134.908 0 1.766.227 2.543.677 1.438.788 2.057 1.954 2.357 2.515l-3.18 2.22 3.377-1.843c.18.33.303.577.426.873l1.277 2.415c1.716 3.274 3.339 6.366 4.666 10.139.142.427.307.78.469 1.146.192.446.392.896.565 1.362.254.707.466 1.373.677 2.038.312.989.612 1.977 1.046 2.904 1.027 2.07 1.747 4.227 2.443 6.308.296.884.592 1.773.915 2.653.842 2.324 1.52 4.562 2.208 6.835a195.02 195.02 0 001.177 3.815c.688 2.15.134 3.674-.45 4.574-.585.907-1.77 2.046-4.07 2.307-1.865.204-3.723.381-5.573.558l-2.396.238c-3.188.327-6.365.65-9.546.889-4.677.388-13.458 1.454-16.108 1.78l-.161.097a3.849 3.849 0 01-1.93.52 3.842 3.842 0 01-2.128-.643s-2.242.154-2.33.154c-.474 0-.939-.085-1.381-.258l-5.385-2.07-5.485-.822a3.882 3.882 0 01-1.573-.608l-.08-.058-.081.02a3.742 3.742 0 01-1.835-.027l-7.115-1.854-1.416.334c-.053.027-2.346 1.093-2.346 1.093a4.204 4.204 0 01-.7.246 3.851 3.851 0 01-4.588.615l-3.508-1.973-.25-.008a3.825 3.825 0 01-1.592-.388l-3.254-1.592-.535.169c-.23.157-.469.292-.715.384l-12.373 4.723a3.83 3.83 0 01-1.45.974l-3.989 1.507c-.3.273-.646.496-1.015.662l-4.542 2.027a3.879 3.879 0 01-1.239.323l-2.177.977a3.86 3.86 0 01-1.873 1.1l-1.519.377a3.915 3.915 0 01-2.238-.115l-7.92-.382a3.828 3.828 0 01-2.153.704l-10.916.189a3.834 3.834 0 01-1.742.415c-.885 0-1.77-.3-2.492-.915l-4.404-3.75-3.4.577a3.83 3.83 0 01-1.5.515l-4.758.585a3.837 3.837 0 01-2.042.584 3.854 3.854 0 01-1.643-.365l-6.173-2.92-10.854 1.393-7.557 7.196a3.783 3.783 0 01-.793.581l-9.996 10.2a3.813 3.813 0 01-1.992 1.08l-5.82 1.166c-.25.05-.5.073-.753.073a3.924 3.924 0 01-.366-.015l-7.457-.708a3.92 3.92 0 01-1.366-.396l-16.269-.227-5.769 3.954-5.865 3.634-1.27 1.674a3.854 3.854 0 01-4.396 1.276l-.142-.05h-3.404a3.917 3.917 0 01-1.362.416l-13.127 1.473-4.915 5.638a3.823 3.823 0 01-2.704 1.312l-7.996.411-8.942 3.604-30.83 31.893a3.84 3.84 0 01-2.766 1.173" fill="#CE1141"/><path d="M265.418 119.23c-.135 0-.27.005-.404.012l-23.569 1.239a7.604 7.604 0 00-1.67-.185c-.203 0-.403.008-.607.023l-4.765.377a7.588 7.588 0 00-2.131.48l-8.877.67a7.628 7.628 0 00-1.646-.18c-1.32 0-2.646.342-3.846 1.03l-17.566 10.142-5.915-.553a7.502 7.502 0 00-.72-.035c-.619 0-1.234.073-1.834.22l-13.177.084a7.607 7.607 0 00-1.292-.15l-2.58-.089a7.71 7.71 0 00-3.547-.865 7.673 7.673 0 00-4.7 1.608l-16.515 12.757c-.516.4-.977.858-1.373 1.366l-.785.623-2.146-1.02a7.73 7.73 0 00-3.173-.746l-.712-.207a7.68 7.68 0 00-2.184-.32c-.635 0-1.27.081-1.889.235 0 0-2.958.75-5.92 1.515-1.734.447-3.215.827-4.472 1.204-1.7-.269-4.631-.746-7.589-1.234a7.678 7.678 0 00-3.815-1.012 7.675 7.675 0 00-5.504 2.316l-1.154 1.184-3.215 1.539a7.685 7.685 0 00-2.7 2.161l-7.546 5.762-12.512 9.011-14.265 10.604-6.335 4.62a7.691 7.691 0 00-3.108 5.292l-.196 1.623-2.238 5.196a7.56 7.56 0 00-.462 1.438l-1.146 5.366c-.027.115-.05.234-.065.35L53.787 213.3l-1 4.47a7.793 7.793 0 00-.165 1.153l-.365 5.373-1.52 11.435a6.41 6.41 0 00-.065.811l-.67 25.612c-.03 1.154.197 2.3.674 3.354l.12.269.368 5.65c.004.077.012.154.02.23.361 3.79 2.073 5.828 3.734 6.92a7.62 7.62 0 004.346 1.35 7.68 7.68 0 005.531-2.346l30.265-31.304 7.585-3.062 7.35-.373a7.686 7.686 0 005.404-2.627l3.938-4.511 11.639-1.308a7.595 7.595 0 001.707-.392h2.004c.693.2 1.4.292 2.1.292a7.686 7.686 0 006.123-3.034l.843-1.104 5.104-3.162a4.024 4.024 0 00.3-.196l4.765-3.265 14.315.2c.573.2 1.17.33 1.789.388l7.457.708a7.689 7.689 0 002.239-.116l5.82-1.165a7.702 7.702 0 003.984-2.158l9.665-9.865a7.766 7.766 0 001.027-.823l6.646-6.327 8.485-1.089 5.158 2.435a7.673 7.673 0 003.284.738 7.758 7.758 0 003.216-.7l4.053-.5a7.653 7.653 0 002.262-.638l1.046-.177 3.035 2.585a7.675 7.675 0 004.984 1.834c.862 0 1.723-.142 2.543-.43l10.18-.177a7.694 7.694 0 002.985-.654l6.362.304a7.595 7.595 0 001.973.257 7.59 7.59 0 001.854-.227l1.523-.376a7.724 7.724 0 003.096-1.581l1.107-.5a7.778 7.778 0 001.723-.535l4.543-2.027a8.11 8.11 0 001.373-.792l3.423-1.296a7.738 7.738 0 002.154-1.239l11.457-4.377 1.67.816a7.704 7.704 0 002.396.719l2.754 1.55a7.671 7.671 0 003.765.985 7.695 7.695 0 004.63-1.543c.135-.054.266-.107.397-.169l2.015-.935.085-.019 6.185 1.616a7.705 7.705 0 001.942.246c.07 0 .138 0 .208-.004.58.246 1.192.415 1.827.511l5.065.758 4.992 1.923a7.692 7.692 0 002.762.512c.173 0 .35-.008.527-.02l1.007-.069a7.694 7.694 0 002.927.577 7.66 7.66 0 003.27-.73c3.234-.397 11-1.327 15.269-1.685 3.22-.239 6.5-.573 9.677-.9l1.573-.158.842-.08c1.823-.174 3.666-.347 5.5-.555 4.008-.453 6.03-2.726 6.88-4.038.847-1.311 2.086-4.073.878-7.834a219.447 219.447 0 01-1.146-3.724c-.685-2.265-1.389-4.6-2.273-7.042a84.159 84.159 0 01-.897-2.6c-.703-2.096-1.496-4.473-2.665-6.838-.23-.497-.508-1.377-.808-2.308-.219-.712-.45-1.42-.7-2.12a27.117 27.117 0 00-.692-1.676c-.111-.254-.23-.5-.323-.766-1.45-4.13-3.22-7.5-4.927-10.757-.423-.804-.854-1.623-1.28-2.462a13.936 13.936 0 00-.435-.865l-.108-.196c-.02-.035-.073-.139-.092-.173-.4-.747-1.454-2.724-3.962-4.097-1.215-.704-2.72-1.107-4.32-1.107-.838 0-1.514.111-1.96.184l-.304.05c-2.204.254-3.785.377-4.193.381-.93 0-2.88.142-6.688.446a7.85 7.85 0 00-1.343-.119h-3.01l-8.785-1.146c-2-.289-7.05-1.462-9.977-2.189l-5.373-1.854-7.027-2.396a7.645 7.645 0 00-2.48-.411 7.717 7.717 0 00-1.627.173l-7.666-.596-4.019-3.062c-.53-.4-1.104-.73-1.715-.984l-.885-.797a7.69 7.69 0 00-5.615-3.923l-4.266-.638a7.862 7.862 0 00-.738-.073l-.55-.193a7.709 7.709 0 00-4.139-1.207 6.923 6.923 0 00-.561.023l-6.246.458-5.612-2.285a7.67 7.67 0 00-2.9-.57m-.004 7.693l7.281 2.966 8.042-.593.397.362 3.5 1.207.392-.18 4.265.638.15.72 3.831 3.453.715.046 6.146 4.681.343-.196 10.946.85.535-.28 7 2.388 5.692 1.965s7.788 1.942 11.173 2.435l9.277 1.207h3.511l.673.196c2.881-.23 6.508-.523 7.374-.523.946 0 3.273-.227 5.107-.438.593-.073.993-.177 1.335-.177.22 0 .415.038.623.161.527.289.7.654.912 1.047.203.392.319.569.415.815 2.161 4.238 4.296 7.88 5.888 12.4.297.885.731 1.696 1.062 2.58.627 1.75 1.061 3.57 1.846 5.235 1.377 2.781 2.165 5.754 3.227 8.65 1.277 3.531 2.18 6.92 3.33 10.5.416 1.293-.16 1.75-1.284 1.881-2.096.235-4.192.427-6.27.623-3.71.373-7.403.77-11.107 1.046-5.696.473-17.069 1.9-17.069 1.9l-.839.489s-1.046-.72-1.092-.72c-.034 0-3.365.231-3.365.231l-5.777-2.223-5.908-.884-1.465-.985-1.704.392-8.035-2.092-3.138.739-.092.142-2.197 1.015-.127-.046-1.342.639-.319.407-4.342-2.442-1.2-.03-3.904-1.912-.673-.739-.52.527-2.369.75-.1.2-13.446 5.13-.365.559-4.839 1.83-.373.427-4.542 2.027-.458-.03-3.927 1.765-.265.442-1.52.377-.546-.196-9.85-.473-1.053.765-12.247.212-.342.392-5.988-5.1-.493.308-5.488.93-.3.316-5.85.72-.48.422-6.609-3.123-.573-.557-.488.346-12.739 1.634-8.469 8.062-.211-.012-10.673 10.889-5.82 1.165-7.457-.708-.127-.388-19.039-.265-6.777 4.642-6.319 3.911-1.704 2.239-.784-.292h-5.289l-.596.442-14.13 1.585-.64-.293-.51 1.112-5.235 6.004-8.639.438-10.3 4.154-31.4 32.48c0-.03 0 0-.03-.03-.277-.05-.393-1.277-.393-1.277l-.461-7.035-.689-1.538.67-25.608 1.553-11.677.381-5.627 1.042-4.677 1.8-10.826 1.15-5.366 2.681-6.211.33-2.731 6.393-4.662 14.173-10.53 12.6-9.077 8.885-6.789.104-.38 4.438-2.128 2.108-2.153.784.619s10.866 1.788 11.108 1.788h.004c-.12-.104 11.788-3.115 11.788-3.115l2.385.708.38-.181 6.47 3.077 5.789-4.581.053-.327 16.512-12.758 1.361.8 4.512.147.32.165 15.75-.1.488-.212 8.896.835.423.292.8-.734.211-.75 17.716-10.227.338.3 12.42-.939.5-.354 4.769-.377.404.262 25.234-1.327" fill="#FFF"/><path d="M157.022 394.623a3.925 3.925 0 01-.942-.115l-12.854-3.246-.388.246a3.692 3.692 0 01-1.07.473l-3.334 1.834a3.821 3.821 0 01-1.85.477c-.75 0-1.5-.219-2.146-.654l-1.293-.865a3.89 3.89 0 01-1.907-.704 4.729 4.729 0 01-.397-.127l-8.673-3.361c-.023.004-.042.004-.046.004-.757 0-1.492-.273-2.119-.712-2.68-.83-4.196-1.308-5.12-1.665l-.015.042c-.269-.096-3.827-1.292-4.215-1.427-.673-.07-1.196-.146-1.78-.415h.003a4.079 4.079 0 01-2.088-2.231l-7.143-7.75-4.98-6.38-5.735-8.75-7.43-10.278a3.849 3.849 0 01-.57-3.354l.53-1.78a3.866 3.866 0 011.178-1.816l5.542-4.777a3.888 3.888 0 012.161-.919l13.689-1.246 9.373-22.723a3.852 3.852 0 011.473-3.327l16.546-12.877a3.873 3.873 0 011.639-.742l.096-.02 8.711-6.73c.131-.254.289-.489.473-.712a3.848 3.848 0 012.943-1.37c.138 0 .277.009.415.024l.808.085 2.1-.885a3.804 3.804 0 011.5-.304c.054 0 2.584.108 2.584.108l3.404-.685 7.666-8.296a3.858 3.858 0 012.827-1.235c.077 0 8.053.481 8.053.481l1.112-.384a3.814 3.814 0 011.262-.216c.15 0 .3.008.45.027l7.384.873c11.289-6.269 15.6-8.665 17.32-9.607.765-.889 1.888-1.512 3.01-1.512.055 0 .632.03.632.03l10.057-1.75a3.845 3.845 0 012.081-.65l2.2-.034s13.096-14.93 13.104-14.942c.158-.3.354-.58.585-.835l10.292-11.215a3.812 3.812 0 01.765-1.316l2.235-2.515a3.849 3.849 0 012.873-1.292c.088 0 12.838.869 12.838.869l.885-.754a3.85 3.85 0 012.042-.892l1.87-.22 6.038-3.55a3.868 3.868 0 011.95-.53h.046l11.558-8.916a3.824 3.824 0 011.842-.765l12.081-1.596 5.338-4.962c.597-.55 1.343-.9 2.143-1l4.923-3.627c.277-.48.654-.9 1.115-1.223a3.818 3.818 0 012.216-.704c.4 0 .8.062 1.188.185l1.996.65 21.858.589 15.346-5.35c.265-.089.535-.154.808-.185 2.646-.32 5.223-.554 7.796-.789 2.834-.257 5.665-.515 8.588-.892l.535-.065c.896-.108 1.988-.235 2.796-.4.3-.058.57-.096.812-.13.946-.124 1.58-.17 2.127-.17 5.111 0 6.038 4.35 6.388 5.988.442 2.031.796 3.958 1.165 5.939l.797 4.338c.361 1.981.723 3.981 1.023 5.966.527 3.484 1.023 6.942 1.392 10.473.177 1.9.27 3.746.361 5.592l.15 2.758.066.73c.05.516.1 1.027.12 1.543l.35 6.546c.01.23.038.42.064.604.07.519.131 1.023.131 1.657 0 .847-.027 1.154-.073 1.723-.111.97-.308 2.624-1.83 4.035-1.4 1.2-2.804 1.4-3.478 1.5-.784.12-2.096.289-2.096.289l-2.627.161-4.019.67-3.334.615c-.397.119-2.462.727-2.462.727a269.6 269.6 0 00-5.242 1.827c-.631.23-1.262.426-1.904.626-.666.208-1.35.424-2.035.681-3.096 1.193-10.711 4.762-10.788 4.796a3.885 3.885 0 01-2.085.339l-1.788-.212-2.97-.419a3.898 3.898 0 01-1.046-.304c-.7-.1-1.757-.242-2.661-.365l-.485.473a3.781 3.781 0 01-.761.57l-2.308 2.73a3.86 3.86 0 01-2.146 1.277l-6.589 1.388a3.9 3.9 0 01-1.184.543l-3.993 1.073-1.492 2.838.02.435a3.846 3.846 0 01-2.274 3.677l-10.619 4.754a3.84 3.84 0 01-2.477 1.211 3.322 3.322 0 01-.338.015 3.862 3.862 0 01-2.281-.746l-5.6-.25-4.67 3.25a3.874 3.874 0 01-1.719.658l-5.788.72-3.296 1.426-1.277 4.308a3.827 3.827 0 01-.927 1.58 3.842 3.842 0 01-3.27 2.604l-.392.039-15.788 7.258c-.385.461-.87.83-1.42 1.069l-5.203 2.288a3.753 3.753 0 01-.804.254 89.927 89.927 0 00-1.985 1.166 3.802 3.802 0 01-1.377.496 3.642 3.642 0 01-.288.18l-3.815 2.17-2.393 4.638a3.857 3.857 0 01-1.373 1.492l-5.977 9.685a3.849 3.849 0 01-2.98 3.47l-.854.195a3.13 3.13 0 01-.67.297l-3.23.961-1.889 6.892.385 1.377a3.853 3.853 0 01-2.439 4.67l-1.823 1.884c-2.646 2.827-3.65 3.9-4.477 4.312l-2.315 2.407-5.35 4.893c-.03.065-.065.127-.096.192-.189.358-.435.68-.723.962l-3.446 3.196c-.304.28-.647.511-1.016.68-.846.854-2.207 2.24-3.23 3.25l-9.412 15.166a3.85 3.85 0 01-2.889 1.8l-22.822 2.25-9.966 5.104c-.55.277-1.15.42-1.754.42" fill="#CE1141"/><path d="M380.738 192.308a19.1 19.1 0 00-2.416.173l-.211.027c-.327.046-.67.1-1.02.165-.761.154-1.715.262-2.507.358l-.577.073c-2.854.365-5.58.611-8.47.877-2.61.238-5.226.477-7.91.8a7.52 7.52 0 00-1.616.373l-14.681 5.115-20.604-.554-1.461-.477a7.909 7.909 0 00-2.377-.376 7.702 7.702 0 00-4.439 1.411 7.633 7.633 0 00-1.711 1.662l-3.727 2.746a7.683 7.683 0 00-3.139 1.769l-4.438 4.127-10.866 1.435a7.707 7.707 0 00-3.692 1.534l-10.692 8.25a7.654 7.654 0 00-2.454.923l-5.342 3.139-1.07.127a7.68 7.68 0 00-3.761 1.523l-11.027-.754a8.04 8.04 0 00-.527-.02 7.686 7.686 0 00-5.75 2.585l-2.235 2.516a7.828 7.828 0 00-1.177 1.761l-9.838 10.72a8.178 8.178 0 00-.9 1.195l-11.723 13.366-.496.008a7.693 7.693 0 00-3.346.827l-8.958 1.557-.035-.004a7.452 7.452 0 00-.411-.011c-2.15 0-4.17.904-5.604 2.423a4651.453 4651.453 0 00-15.466 8.577l-6.15-.727a7.723 7.723 0 00-3.423.373l-.388.135-7.05-.427c-.158-.008-.311-.016-.47-.016a7.705 7.705 0 00-5.645 2.47l-6.823 7.384-1.727.346-1.943-.084c-.115-.004-.227-.008-.338-.008-1.03 0-2.05.204-2.996.608l-1.185.5a7.114 7.114 0 00-.642-.027 7.702 7.702 0 00-6.323 3.311l-7.527 5.82c-.858.273-1.662.7-2.377 1.25l-16.542 12.877a7.691 7.691 0 00-2.954 5.596l-8.196 19.873-11.373 1.034a7.76 7.76 0 00-4.324 1.835l-5.542 4.777a7.677 7.677 0 00-2.35 3.63l-.53 1.778a7.692 7.692 0 001.134 6.707l7.427 10.285 5.458 8.342a6.855 6.855 0 00.365.512l4.765 6.134c.131.17.273.335.42.497l6.719 7.28a7.895 7.895 0 003.708 3.57c.973.453 1.865.623 2.565.711l1.442.489c.98.33 2.012.673 2.312.784l.019-.046c1.05.396 2.492.854 4.53 1.488a7.963 7.963 0 003.25 1.077l8.09 3.135c.045.02.095.038.142.054a7.7 7.7 0 002.088.842c.346.227.612.408.612.408a7.681 7.681 0 004.292 1.308 7.68 7.68 0 003.7-.95l3.015-1.658c.15-.05.3-.108.446-.17l11.397 2.878a7.787 7.787 0 001.876.23 7.682 7.682 0 003.508-.846l9.32-4.765 22.096-2.181a7.712 7.712 0 005.78-3.6l9.173-14.785a381.912 381.912 0 002.523-2.538 7.821 7.821 0 001.308-.977s3.527-3.273 3.592-3.342a7.525 7.525 0 001.12-1.42l4.704-4.288c.123-.112.242-.23.357-.35l2.039-2.123c1.273-.873 2.646-2.342 4.834-4.68l1.212-1.255a7.665 7.665 0 003.015-2.765 7.701 7.701 0 00.885-6.142l-.1-.358 1.046-3.808 1.18-.35a7.887 7.887 0 00.943-.35l.339-.077a7.705 7.705 0 005.807-5.865l5.18-8.392a7.745 7.745 0 001.909-2.377l1.869-3.627 2.665-1.512a7.944 7.944 0 001.881-.804c.012-.007.796-.477 1.485-.877.304-.088.6-.2.892-.326l5.204-2.293a7.672 7.672 0 002.134-1.396l14.554-6.688a7.695 7.695 0 005.962-4.385 7.783 7.783 0 001.28-2.508l.766-2.584 1.142-.493 5.242-.65a7.7 7.7 0 003.447-1.323l3.6-2.504 3.346.147a7.669 7.669 0 003.404.796c.23 0 .461-.012.692-.035a7.718 7.718 0 004.288-1.792l10.027-4.489a7.69 7.69 0 004.543-6.707l.25-.477 2.369-.631a7.736 7.736 0 001.6-.63l5.965-1.25a7.688 7.688 0 004.296-2.566l1.862-2.2c.15.02.3.038.438.058.477.169.973.292 1.477.361l2.885.412 1.961.234a8.035 8.035 0 00.908.054 7.71 7.71 0 003.27-.73c2.096-.981 8.072-3.74 10.55-4.693.584-.223 1.192-.408 1.788-.596a44.83 44.83 0 002.034-.67 239.523 239.523 0 015.258-1.826c.296-.096.708-.212 1.116-.331.315-.089.634-.18.953-.277l3.197-.592 3.673-.612 2.165-.123a8.367 8.367 0 00.535-.05s1.353-.177 1.865-.25c.096-.015.192-.03.285-.05.965-.142 3.227-.496 5.315-2.28a3.67 3.67 0 00.227-.2c2.573-2.381 2.896-5.158 3-6.074.011-.073.042-.323.046-.4.062-.719.092-1.08.092-2.107 0-.958-.1-1.693-.165-2.181-.011-.093-.03-.185-.038-.293l-.181-3.361-.165-3.204a37.053 37.053 0 00-.131-1.646l-.062-.712c-.054-.834-.1-1.746-.142-2.657-.096-1.893-.192-3.785-.373-5.693-.396-3.796-.916-7.4-1.423-10.746-.3-2.023-.681-4.096-1.054-6.138l-.362-2.008-.427-2.277c-.369-2.011-.73-3.973-1.18-6.054-1.673-7.838-7.077-9.011-10.15-9.011m0 7.692c1.665 0 2.154.696 2.63 2.942.597 2.762 1.031 5.3 1.554 8.062.466 2.615.989 5.296 1.381 7.946.523 3.439 1.012 6.839 1.373 10.304.254 2.746.33 5.465.5 8.192.054.743.15 1.477.18 2.212.12 2.188.236 4.38.35 6.577.043.784.193 1.273.193 2.054 0 .711-.023.953-.065 1.446-.062.454-.05.977-.604 1.488-.554.473-1.277.473-1.735.566-.469.073-1.711.23-1.711.23l-2.577.15-4.215.704-3.627.666c-.904.288-1.766.507-2.7.803-1.8.612-3.6 1.227-5.397 1.881-1.277.458-2.615.804-3.992 1.323-3.273 1.266-11.054 4.912-11.054 4.912l-1.788-.212-2.885-.407-.273-.2s-5.234-.72-5.3-.72a476.76 476.76 0 00-1.827 1.766l-.373.084-2.961 3.496-7.704 1.62-.273.361-5.62 1.504-2.757 5.25.065 1.47-11.438 5.119-.427.526-.796-.688-8.216-.358-5.734 3.989-6.327.788-5.458 2.35-1.788 6.035-.674.508-.211.946-1.03.104-17.3 7.946-.443.623-5.2 2.288h-.331c-.135 0-2.88 1.635-2.88 1.635l-.958-.146-.639.784-4.811 2.735-2.916 5.654-.646.3-7.088 11.477-.031.884-1.566.354-.2.2-5.28 1.57-2.735 9.98.673 2.404-.692.127-2.627 2.711s-3.173 3.389-3.258 3.389c-.084.02-.711.396-.711.396l-2.835 2.942-6.073 5.547s.035.342 0 .407c-.062.062-3.385 3.139-3.385 3.139l-.369.011s-2.746 2.804-4.288 4.323l-9.65 15.55-23.546 2.327-10.62 5.431-14.473-3.65-1.788 1.146-.189-.02-3.988 2.193s-2.196-1.473-2.258-1.504h-.854l-.519-.619-.723.03-9.535-3.695s-.542.08-.573.08c-.065 0-.127-.276-.127-.276s-5.727-1.77-5.746-1.796c-.034-.035-4.661-1.573-4.704-1.6-.03-.039-.923-.089-1.065-.15-.17-.05-.212-.639-.212-.639l-7.8-8.458-4.765-6.13-5.554-8.493-7.534-10.43.53-1.781 5.547-4.777 16.876-1.542-.407-1.039 10.215-24.77-.138-.745 16.546-12.877 1-.193 10.607-8.196-.107-.373 1.8.196 3.023-1.277 2.88.127 5.085-1.027 8.516-9.207 8.584.523 1.842-.642 8.616 1.019s19.134-10.631 19.22-10.662c.041-.038.284-.577.284-.577l.907.05 11.658-2.027.308-.392 3.907-.065 14.204-16.189.439-.1.115-.704 11.15-12.15-.05-.427 2.231-2.515 12.896.88.692.555 2.631-2.239 2.67-.315 6.734-3.958 1.308.039 12.642-9.75 13.85-1.831.3-.72 5.385-5.003.957-.096 6.808-5.023.012-.408 2.523.815 23.119.623 16.012-5.58c5.576-.67 10.834-.962 16.419-1.681 1.061-.131 2.554-.296 3.607-.512.243-.046.489-.077.712-.111.573-.07 1.05-.112 1.458-.112" fill="#FFF"/><path d="M245.03 445.285l-2.403-.097-4.973-.08-4.504-.216-6.53-.534c-4.493-.496-7.39-.812-7.39-4.404 0-.727.205-1.443.593-2.058l1.173-1.85a3.91 3.91 0 011.293-1.254l9.884-5.85a3.868 3.868 0 011.885-.538l4.25-2.512c.057-.415.184-1.365.292-2.165a3.855 3.855 0 011.504-4.95c4.65-2.777 7.161-4.285 8.634-5.1 1.443-2.016 6.089-8.577 7.743-10.916a3.813 3.813 0 01.561-1.476l2.535-3.977a3.823 3.823 0 011.47-1.343l8.672-13.738a3.864 3.864 0 01.593-2.204l.815-5.508a3.772 3.772 0 01.108-1.861l2.657-8.512c.112-.346.27-.673.466-.98l1.842-8.358a3.848 3.848 0 013.758-3.023h.861l6.954-3.327a3.802 3.802 0 01-.004-2.023l7.266-26.858a3.791 3.791 0 011.054-1.773l1.011-.965 1.696-6.77c.2-.788.643-1.5 1.266-2.019l2.827-2.358a3.858 3.858 0 011.634-.803l17.016-10.943.869-1.427a3.84 3.84 0 011.811-2.761l2.916-5.116a3.873 3.873 0 01.846-1.919 3.841 3.841 0 012.6-3.077l8.146-2.696c.55-.358 1.173-.596 1.785-.635l1.219-.073 4-4.253a3.914 3.914 0 011.084-.808 2021.689 2021.689 0 0111.666-5.716c1.311-.619 2.692-1.153 4.065-1.676 1-.381 1.996-.762 2.939-1.181 2.004-.889 4.046-1.473 6.015-2.035l.989-.288c1.465-.408 2.903-.735 4.346-1.062l1.85-.423c.277-.108.869-.204 1.477-.28l3.284-.512c.08-.012 2.489-.312 2.996-.312 1.704 0 3.308.689 4.393 1.896 1.507 1.597 1.415 3.762 1.373 4.689l-.093 2.82c-.13 3.26-.28 6.5-.553 9.71-.15 1.804-.408 3.597-.677 5.385l-.512 3.573c-.392 2.723-.784 5.454-1.22 8.177-.472 3.162-1.014 6.335-1.56 9.531l-.19 1.077c-.1.65-.23 1.515-.576 2.415-.938 2.477-1.53 5.096-2.154 7.873-.35 1.558-.7 3.116-1.111 4.658-1.816 6.885-3.55 12.435-5.462 17.462-1.65 4.284-3.427 8.515-5.212 12.75l-1.253 2.977c-1.316 3.153-2.996 6.107-4.62 8.957l-.307.546c-1.546 2.681-2.993 5.381-4.439 8.077l-1.296 2.412c-1.373 2.584-3.011 4.98-4.592 7.3a191.583 191.583 0 00-1.704 2.511l-1.027 1.581c-1.223 1.877-2.446 3.758-3.738 5.596a31.212 31.212 0 01-3.439 4.093c-.4.403-.83.803-1.265 1.211-.87.816-1.696 1.585-2.181 2.358-.638.988-1.327 1.711-1.935 2.346l-.823.838c-.554.543-1.077 1.054-1.23 1.435-.381.962-1.039 1.592-1.389 1.93l-4.892 4.89a424.059 424.059 0 01-5.016 4.865c-4.53 4.296-9.484 8.05-14.277 11.684l-1.661 1.262c-3.377 2.527-10.32 6.2-10.612 6.354l-2.9 1.665a3.68 3.68 0 01-.511.246l-8.596 3.404-7.077 2.08-6.277 1.716-8.573 1.523-14.027 1.693s-4.235.127-4.27.127l-3.93-.1" fill="#CE1141"/><path d="M386.607 254.612c-.346 0-.927 0-3.427.335l-3.4.53c-.476.058-1.18.158-1.996.381l-1.554.358c-1.534.346-3.057.696-4.565 1.116l-1.035.296c-2.007.58-4.28 1.23-6.527 2.219-.9.404-1.826.754-2.757 1.108-1.408.538-2.854 1.092-4.331 1.792-.83.4-8.335 4.062-11.75 5.762a7.685 7.685 0 00-2.17 1.611l-2.96 3.146a7.732 7.732 0 00-3.116 1.016l-7.48 2.473a7.693 7.693 0 00-4.974 5.142 7.843 7.843 0 00-.908 2.13l-2.203 3.874a7.708 7.708 0 00-2.508 3.942l-.066.112-15.788 10.157c-.904.3-1.75.766-2.496 1.385l-2.831 2.358a7.741 7.741 0 00-2.538 4.038l-1.427 5.696-.212.204a7.696 7.696 0 00-2.1 3.542l-7.27 26.858c-.053.2-.095.404-.134.612l-3.973 1.9a7.694 7.694 0 00-7.504 6.034l-1.715 7.796a7.187 7.187 0 00-.504 1.231l-2.661 8.508a7.618 7.618 0 00-.32 2.98l-.638 4.312a7.604 7.604 0 00-.658 2.208l-7.696 12.18a7.712 7.712 0 00-1.92 2.058l-2.53 3.973a7.643 7.643 0 00-.885 1.923 5228.38 5228.38 0 01-6.819 9.623c-1.723.981-4.204 2.462-7.97 4.716a7.704 7.704 0 00-3.541 4.873 7.687 7.687 0 00-.039 3.296l-1.727 1.023a7.658 7.658 0 00-2.607.962l-9.885 5.854a7.71 7.71 0 00-2.585 2.507l-1.169 1.85a7.708 7.708 0 00-1.192 4.112c0 7.034 6.711 7.773 10.715 8.211l.212.023 6.392.527a5.96 5.96 0 00.262.016l4.38.215c.085.004.17.008.254.008l4.97.077 2.253.088 3.943.108c.065.004.134.004.2.004.069 0 .138 0 .207-.004l3.808-.104a6.388 6.388 0 00.715-.05l13.82-1.665c.138-.016.273-.039.411-.058l8.223-1.442c.235-.043.466-.096.7-.158l6.212-1.696 6.861-1.996c.231-.07.454-.15.681-.235l8.596-3.408a7.767 7.767 0 001.02-.492l.615-.354 2.273-1.296c1.161-.62 7.58-4.058 10.98-6.6l1.716-1.304c4.87-3.692 9.904-7.511 14.585-11.946a406.638 406.638 0 005.05-4.9l2.096-2.096c.865-.865 1.727-1.735 2.604-2.596a3.43 3.43 0 00.165-.17c.496-.476 1.446-1.407 2.13-2.884.166-.173.347-.338.524-.508l.404-.4c.069-.069.142-.142.211-.215l.323-.339c.643-.68 1.527-1.611 2.327-2.846.285-.45.993-1.111 1.616-1.692.469-.435.934-.873 1.377-1.323a35.067 35.067 0 003.846-4.577c1.327-1.892 2.577-3.815 3.83-5.738l1.016-1.558a181.83 181.83 0 011.642-2.423c1.646-2.412 3.346-4.9 4.835-7.696l1.223-2.281c1.496-2.792 2.911-5.431 4.423-8.05l.315-.562c1.689-2.961 3.431-6.023 4.847-9.415l1.18-2.804c1.785-4.23 3.627-8.604 5.32-13 1.957-5.165 3.734-10.842 5.596-17.888.419-1.57.78-3.173 1.142-4.777.592-2.643 1.15-5.139 1.996-7.366.489-1.277.67-2.438.785-3.207l.123-.723c.569-3.312 1.13-6.597 1.63-9.912.447-2.773.854-5.62 1.258-8.465l.231-1.6.242-1.643c.266-1.804.539-3.673.704-5.642.28-3.342.435-6.712.566-9.854l.038-1.011.046-1.681c.058-1.281.22-4.835-2.47-7.692-1.695-1.889-4.334-3.047-7.134-3.047m0 7.693c.404 0 1.062.1 1.531.623.512.542.408 1.55.385 2.161-.023.604-.043 1.6-.043 1.6s-.03.708-.042 1.046c-.13 3.177-.277 6.362-.542 9.52-.192 2.292-.573 4.561-.892 6.834-.481 3.335-.95 6.677-1.481 10.016-.531 3.53-1.139 7.03-1.743 10.565-.088.55-.173 1.146-.384 1.696-1.589 4.185-2.235 8.6-3.385 12.908-1.52 5.77-3.215 11.496-5.342 17.085-2.012 5.234-4.235 10.407-6.412 15.607-1.311 3.135-3.046 6.13-4.727 9.089-2.011 3.484-3.873 7.034-5.776 10.565-1.77 3.32-4.035 6.362-6.12 9.515-1.554 2.377-3.077 4.766-4.704 7.089a26.902 26.902 0 01-3.011 3.58c-1.362 1.374-2.946 2.59-3.989 4.25-.511.79-1.192 1.443-1.83 2.128-.935.93-1.935 1.8-2.458 3.077-.127.323-.488.584-.742.869-1.577 1.554-3.12 3.119-4.685 4.673a448.39 448.39 0 01-4.958 4.808c-4.884 4.63-10.288 8.623-15.619 12.673-3.15 2.361-10.077 6.019-10.077 6.019l-2.415 1.377-.616.357-8.596 3.404-6.738 1.962-6.212 1.7-8.227 1.442-13.819 1.662-3.811.104-3.831-.104-2.35-.093-5.066-.08-4.384-.212-6.392-.53s-3.866-.424-3.866-.566l1.173-1.854 9.885-5.85.711.158 6.747-3.989 1.319-.411-.82-1.385s.5-3.661.5-3.765l-.511-.781s9.212-5.512 9.323-5.512c.023 0 8.812-12.415 8.812-12.415l.069-.8 2.534-3.973.77-.23 10.35-16.39-.373-.688.407-.504 1.081-7.307-.146-.462 2.658-8.504.33-.296 2.062-9.37h1.738l10.758-5.15-.97-3.045 7.266-26.854 1.812-1.735 1.969-7.846 2.827-2.357.396.03 18.608-11.969c.938-1.538 1.777-2.908 1.777-2.908l.084-.757.573-.031 4.139-7.262.011-.569.92-.9-.077-.984 8.807-2.912.15-.227 2.716-.165.577.261.157-1.011 4.343-4.612c3.38-1.688 10.819-5.315 11.607-5.692 2.212-1.05 4.693-1.831 6.904-2.816 2.073-.915 4.33-1.503 6.52-2.142 1.98-.554 3.992-.961 6.003-1.438.362-.12.735-.162 1.12-.212l3.35-.523s1.992-.265 2.403-.265" fill="#FFF"/></g></g></svg>