<svg width="500" height="500" viewBox="0 0 500 500" xmlns="http://www.w3.org/2000/svg" xmlns:xlink="http://www.w3.org/1999/xlink"><defs><path id="a" d="M462.867 307.89V.33H.001v307.561z"/></defs><g fill="none" fill-rule="evenodd"><g transform="translate(19.23 93.06)"><mask id="b" fill="#fff"><use xlink:href="#a"/></mask><path d="M167.707 167.875L240.795.326h222.074l-40.238 92.28H235.06c-8.143 18.63-48.473 111.14-53.14 121.868v4.307c0 38.824-32.771 89.11-90.982 89.11C40.8 307.891 0 267.011 0 216.817c0-50.229 40.8-91.062 90.936-91.062 31.657 0 61.308 17.091 76.77 42.12" fill="#FEFEFE" fill-rule="nonzero" mask="url(#b)"/></g><path d="M24.674 313.935c1.056 22.581 10.828 42.808 25.957 57.545 16.105-14.243 26.646-34.665 27.77-57.546H24.674z" fill="#0B223E" fill-rule="nonzero"/><path d="M85.946 313.935c-1.124 24.81-12.354 47.012-29.64 62.576 13.777 11.21 31.131 18.263 50.137 19.09v-81.667H85.946z" fill="#F9A11A" fill-rule="nonzero"/><path d="M24.641 306.43h53.784c-.964-23.145-11.516-43.832-27.792-58.155-15.267 14.863-25.074 35.354-25.992 58.155" fill="#0B223E" fill-rule="nonzero"/><path d="M56.308 243.245c17.446 15.679 28.687 38.111 29.64 63.186h20.496v-82.31c-19.006.827-36.337 7.88-50.136 19.124" fill="#F9A11A" fill-rule="nonzero"/><path d="M195.703 313.935h-53.715c1.124 22.88 11.654 43.302 27.758 57.545 15.152-14.737 24.902-34.964 25.957-57.546" fill="#0B223E" fill-rule="nonzero"/><path d="M134.459 313.935H113.95V395.6c18.995-.827 36.338-7.88 50.148-19.09-17.286-15.564-28.526-37.766-29.64-62.576m29.64-70.69c-13.81-11.245-31.153-18.297-50.148-19.124v82.31h20.486c.952-25.075 12.227-47.507 29.662-63.186" fill="#2B5134" fill-rule="nonzero"/><path d="M263.566 98.805L187.52 273.222c-4.439-9.373-10.45-17.815-17.767-24.937-16.265 14.324-26.83 35.01-27.781 58.155h53.76l54.989-126.187h160.65l35.501-81.448H263.566z" fill="#0B223E" fill-rule="nonzero"/><path fill="#2B5134" fill-rule="nonzero" d="M438.323 180.245l35.512-81.448h-15.14l-35.5 81.448z"/><path d="M0 0h500v500H0z"/></g></svg>