<svg width="500" height="500" viewBox="0 0 500 500" xmlns="http://www.w3.org/2000/svg"><g fill="none" fill-rule="evenodd"><path d="M249.384 62.623h-.327c-103.207.012-186.92 83.649-187.102 186.936v.326c.012 103.312 83.63 187.105 186.897 187.226h.253c103.231-.036 186.933-83.697 187.066-187.02v-.242c-.024-103.263-83.58-187.032-186.787-187.226" fill="#FEFEFE" fill-rule="nonzero"/><path d="M436.168 249.987v.11c-.121 103.322-83.823 186.983-187.054 187.007h-.254C145.593 436.995 61.963 353.19 61.951 249.89v-.326c.182-103.287 83.908-186.936 187.102-186.936h.327c103.219.194 186.764 83.951 186.788 187.226v.133zm4.244-.544C440.17 143.857 354.57 58.369 249.066 58.357h-.412c-105.528.242-190.923 85.911-190.947 191.412l-.012.206v.121c.133 105.659 85.733 191.22 191.31 191.267h.266c105.577-.133 191.069-85.753 191.141-191.376 0-.072.012-.145.012-.254-.012 0 0-.072-.012-.29z" fill="#C4CDD3" fill-rule="nonzero"/><path d="M186.509 207.34c19.444-19.445 27.619-42.181 27.619-42.181l4.34-15.79 1.028-3.68-19.915-11.156s-11.609-8.07-37.583 7.006c-30.424 17.945-55.164 41.153-67.958 65.777-7.098 13.637-12.72 29.343-15.635 47.19.907 33.796 11.572 65.148 29.336 91.296-5.067-48.69 41.96-102.028 78.768-138.462m149.889-65.805c-25.974-15.077-37.595-7.006-37.595-7.006L278.9 145.685l1.016 3.69 4.341 15.791s8.174 22.724 27.63 42.17c36.7 36.324 83.558 89.444 78.83 138.026 17.836-26.463 28.428-58.19 29.045-92.373-2.987-17.23-8.513-32.428-15.405-45.678-12.806-24.612-37.559-47.832-67.958-65.776" fill="#002A5B" fill-rule="nonzero"/><path d="M273.922 112.348c68.248 7.72 113.098 46.477 136.267 80.853-17.425-49.61-57.087-88.73-107.016-105.417-11.016 3.255-23.229 10.104-29.25 24.564m-49.453 0c-6.058-14.532-18.368-21.381-29.42-24.612-50.243 16.759-90.087 56.242-107.379 106.276 23-34.57 68.019-73.896 136.799-81.664m11.172-1.927l13.543-19.953 13.568 19.953c5.441-14.87 14.015-23.075 22.612-27.54a171.6 171.6 0 00-36.12-3.896c-12.454-.012-24.595 1.355-36.3 3.872 8.622 4.465 17.231 12.633 22.697 27.564" fill="#E21836" fill-rule="nonzero"/><path d="M341.944 260.113c-27.751-44.94-90.776-90.316-92.747-91.732-1.97 1.416-64.995 46.792-92.747 91.732-37.461 60.646-32.6 95.627-22.902 115.592 24.136 22.216 54.693 37.547 88.563 42.92l14.607-207.143 12.177-12.221.157-.17v.012l.012-.012.157.17 12.165 12.221 14.716 206.986-.205.108c34.136-5.396 64.923-20.86 89.18-43.342 9.54-20.038 14.063-54.935-23.133-115.121" fill="#002A5B" fill-rule="nonzero"/><path fill="#C4CDD3" fill-rule="nonzero" d="M261.389 211.477l-12.165-12.221.133 234.453 26.542-15.137.194-.11zm-12.268-58.825l-5.308 3.92-22.262 16.433 5.828-21.188 1.004-3.666 1.96-7.103-6.47-3.497-20.944-11.29c10.569-2.335 21.367-3.847 32.274-4.549l5.333-.327.217-.447 2.129-4.369.338-.677 5.974-12.149 6.167 12.56.133.266 2.152 4.369.206.447 5.345.327c10.895.702 21.705 2.214 32.261 4.55l-20.931 11.29-6.482 3.496 1.96 7.103 1.015 3.666 5.828 21.188-22.261-16.432-5.309-3.92v-.11l-.084.06-.073-.06v.11z"/><path d="M249.276 152.544v.11l5.308 3.92 22.262 16.432-5.828-21.188-1.004-3.678-1.959-7.09 6.47-3.486 20.943-11.301a214.764 214.764 0 00-32.274-4.55l-5.333-.339-.217-.435-2.153-4.356-.133-.279-6.167-12.547-5.961 12.136h-.012l-.339.69-2.128 4.356-.218.435-5.332.34a214.543 214.543 0 00-32.274 4.549l20.943 11.301 6.482 3.485-1.971 7.091-1.004 3.679-5.828 21.187 22.261-16.432 5.309-3.92v-.11l.072.061.085-.06z" fill="#C4CDD3" fill-rule="nonzero"/><path d="M0 0h500v500H0z"/></g></svg>