<?xml version="1.0" encoding="UTF-8"?>
<svg id="Camada_1" xmlns="http://www.w3.org/2000/svg" viewBox="0 0 500 500">
  <defs>
    <style>
      .cls-1 {
        fill: #223e86;
      }

      .cls-2 {
        fill: #fefefe;
      }
    </style>
  </defs>
  <path class="cls-2" d="M249.71,490.62s89.78-50.75,159.71-150c69.93-99.25,71.05-259.59,71.05-259.59,0,0-28.2,8.08-118.42,0C271.82,72.95,249.99,0,249.99,0h0s-21.83,72.95-112.06,81.02-118.42,0-118.42,0c0,0,1.13,160.34,71.05,259.59,69.93,99.25,159.71,150,159.71,150h-.56Z"/>
  <g>
    <path class="cls-2" d="M249.77,160.05v-.04c-63.35,0-126.7,0-190.04,0-7.57,0-15.14.1-22.71.04-1.66-.01-1.46.73-1.28,1.85,3.31,20.98,7.57,41.75,13.13,62.25.66,2.43,1.61,3.27,4.19,3.26,98.71-.33,197.42.4,296.13-.34,22.13-.17,44.26-.33,66.39.27,10.64.29,21.31-.13,31.96-.1,2.1,0,3.02-.62,3.6-2.7,5.63-20.14,9.76-40.6,13-61.25.51-3.23.49-3.23-2.85-3.23h-211.52ZM250.02,286.74v-.06c-58.53,0-117.06,0-175.58,0-2.78,0-2.98.25-1.81,2.74,2.06,4.36,4.14,8.72,6.32,13.02,8.56,16.88,18.35,33.01,29.37,48.39.97,1.35,1.78,2.98,3.92,2.98,9.57-.04,19.14,0,28.72,0,80.42.02,160.85-.05,241.27.21,5.9.02,9.2-1.83,12.42-6.6,12.6-18.67,23.67-38.17,33.22-58.56.76-1.63.64-2.28-1.26-2.12-.5.04-1,0-1.5,0-58.36,0-116.72,0-175.08,0ZM337.8,412.67c-.59-.61-1.29-.36-1.91-.36-57.02,0-114.04.01-171.06.05-.68,0-1.64-.43-2.01.46-.36.88.59,1.28,1.1,1.75,25.17,23.28,52.03,44.39,80.85,62.99,3.92,2.53,7.27,2.41,11.01-.05,28.49-18.75,55.54-39.35,80.33-62.83.63-.59,1.47-1.05,1.68-2.02ZM175.52,81c2.46,0,4.39,0,6.32,0,46.11,0,92.22-.01,138.32-.03.87,0,2.17.37,2.4-.71.27-1.23-1.17-1.11-1.91-1.38-8.67-3.2-17.16-6.79-25.16-11.44-19.23-11.18-34.81-25.83-44.19-46.4-.26-.56-.3-1.44-1.17-1.41-.95.03-1.04.98-1.34,1.61-3.83,8-8.55,15.42-14.39,22.1-15.03,17.19-34.05,28.21-55.33,35.72-1.06.37-2.28.43-3.53,1.95ZM169.09,110.23c1,0,2-.04,2.99.01,1.19.06,1.6-.3,1.44-1.59-.85-6.74-3.97-11.81-10.5-14.28-7.08-2.67-14.26-2.56-21.21.28-5.79,2.37-9.11,6.97-9.31,13.33-.19,6.15,2.82,10.63,8.1,13.62,2.4,1.36,5.02,2.21,7.66,2.95,3.6,1,7.3,1.74,10.79,3.03,5.2,1.93,5.67,6.32,1.25,9.7-5.66,4.34-15.26,1.63-17.48-5.14-.73-2.21-2.04-2.86-3.94-2.82-2.41.05-4.81.35-7.22.52-.9.06-1.29.37-1.24,1.39.4,7.37,5.77,14.42,13.03,16.81,5.93,1.95,11.99,1.86,18,.45,7.6-1.78,12.65-6.67,13.56-15.45.79-7.61-4-14.39-11.96-16.91-3.09-.98-6.25-1.73-9.37-2.59-2.65-.73-5.34-1.36-7.69-2.83-2.4-1.51-2.81-3.65-1.18-5.4,3.28-3.52,14.03-4.05,16.26,2.56.73,2.16,2.41,2.64,4.3,2.38,1.26-.17,2.48-.05,3.72-.02ZM368.61,146.7c.45-2.02-1.4-3.06-1.91-4.69-1.09-3.49-2.38-6.93-4.06-10.2-1.19-2.31-2.09-4.86-2.72-7.25-.86-3.27-2.77-6.02-3.55-9.36-.99-4.24-3.4-8.13-5.09-12.22-1.15-2.79-2.15-5.64-3.14-8.49-.2-.56-.52-.6-.91-.53-2.93.51-5.79-.37-8.7-.44-1.87-.05-2.77.46-3.46,2.27-5.94,15.53-11.9,31.05-18.07,46.49-2.22,5.55-1.02,6.06,3.87,5.75,2.14-.14,4.62,1.32,6.26.02,1.67-1.32,1.77-4.01,2.54-6.11,2.14-5.85,2.1-5.82,8.34-5.84,3.66-.01,7.32-.2,10.98-.3,2.17-.06,3.77.5,4.46,2.94.77,2.71,1.99,5.29,2.94,7.95.36,1,.86,1.39,1.97,1.42,2.88.08,5.77-.33,8.64.28,1.44.31,2.07-.23,1.62-1.7ZM224.36,120.8c0,1.25-.06,2.5,0,3.75.81,14.02,9.53,23.68,22.71,24.69,8.72.67,16.38-1.75,21.33-9.63,1.45-2.3,2.34-4.95,3.54-7.42.56-1.14-.05-1.45-.98-1.73-2.95-.86-5.92-1.68-8.82-2.7-1.19-.42-1.41.23-1.74.98-.71,1.59-1.26,3.27-2.14,4.75-3.71,6.25-11.53,7.35-16.91,2.47-1.77-1.6-3.08-3.53-3.68-5.83-1.63-6.24-1.88-12.51.13-18.71,1.62-4.99,6.1-8.19,11.3-8.33,4.93-.13,8.62,2.5,10.67,7.76.37.96.76,1.39,1.79,1.13,3.22-.83,6.44-1.64,9.67-2.43.91-.22.9-.61.6-1.43-3.36-9.26-9.6-14.63-19.7-15.4-12.78-.98-23.12,5.92-26.68,18.19-.93,3.22-1.26,6.53-1.1,9.88ZM195.46,142.88s-.01,0-.02,0c0-1.49.02-2.98,0-4.47-.01-.63.09-1.38-.95-1.36-2.54.05-5.12-.14-7.62.2-1.19.16-2.39,1.2-1.87,2.93.16.55.21,1.14.22,1.71.05,1.77-1.08,3.58.17,5.3,1.47,2.02,3.44.8,5.25.88,4.7.19,4.69.25,4.81-4.44,0-.25,0-.5,0-.75ZM287.99,147.8c.15,0,.73-.03,1.31,0,2.85.17,3.48-.43,3.49-3.34,0-1.41-.1-2.83.03-4.23.18-2-.79-2.7-2.61-2.69-1.74,0-3.48.02-5.22-.05-2.91-.11-3.16.11-3.17,2.9,0,1.16-.01,2.32-.08,3.48-.2,3.55.46,4.22,4.08,4.08.58-.02,1.16-.08,2.16-.16Z"/>
    <path class="cls-1" d="M249.77,160.05h211.52c3.34,0,3.36,0,2.85,3.23-3.24,20.65-7.37,41.11-13,61.25-.58,2.09-1.51,2.71-3.6,2.7-10.65-.03-21.32.39-31.96.1-22.13-.6-44.26-.44-66.39-.27-98.71.74-197.42.01-296.13.34-2.58,0-3.53-.83-4.19-3.26-5.56-20.5-9.82-41.28-13.13-62.25-.18-1.12-.38-1.86,1.28-1.85,7.57.06,15.14-.04,22.71-.04,63.35,0,126.7,0,190.04,0v.04Z"/>
    <path class="cls-1" d="M250.02,286.74c58.36,0,116.72,0,175.08,0,.5,0,1,.04,1.5,0,1.9-.16,2.02.49,1.26,2.12-9.54,20.39-20.62,39.88-33.22,58.56-3.22,4.77-6.52,6.62-12.42,6.6-80.42-.25-160.85-.19-241.27-.21-9.57,0-19.14-.04-28.72,0-2.15,0-2.95-1.62-3.92-2.98-11.02-15.38-20.82-31.51-29.37-48.39-2.18-4.3-4.26-8.65-6.32-13.02-1.17-2.49-.97-2.74,1.81-2.74,58.53,0,117.06,0,175.58,0v.06Z"/>
    <path class="cls-1" d="M337.8,412.67c-.21.97-1.05,1.43-1.68,2.02-24.8,23.48-51.84,44.08-80.33,62.83-3.74,2.46-7.09,2.59-11.01.05-28.82-18.61-55.67-39.72-80.85-62.99-.51-.48-1.46-.87-1.1-1.75.36-.9,1.32-.46,2.01-.46,57.02-.03,114.04-.05,171.06-.05.62,0,1.32-.26,1.91.36Z"/>
    <path class="cls-1" d="M175.52,81c1.25-1.52,2.48-1.58,3.53-1.95,21.28-7.51,40.3-18.53,55.33-35.72,5.84-6.68,10.57-14.1,14.39-22.1.3-.63.39-1.58,1.34-1.61.87-.03.92.84,1.17,1.41,9.38,20.57,24.96,35.23,44.19,46.4,8.01,4.65,16.49,8.25,25.16,11.44.75.27,2.18.15,1.91,1.38-.24,1.08-1.53.71-2.4.71-46.11.02-92.22.03-138.32.03-1.93,0-3.86,0-6.32,0Z"/>
    <path class="cls-1" d="M169.09,110.23c-1.24-.03-2.46-.15-3.72.02-1.89.25-3.57-.22-4.3-2.38-2.23-6.61-12.98-6.08-16.26-2.56-1.63,1.75-1.23,3.89,1.18,5.4,2.35,1.47,5.05,2.11,7.69,2.83,3.13.86,6.29,1.61,9.37,2.59,7.96,2.52,12.75,9.3,11.96,16.91-.91,8.78-5.96,13.66-13.56,15.45-6.01,1.41-12.06,1.5-18-.45-7.26-2.38-12.63-9.43-13.03-16.81-.06-1.03.34-1.33,1.24-1.39,2.41-.17,4.81-.47,7.22-.52,1.91-.04,3.22.61,3.94,2.82,2.23,6.76,11.82,9.47,17.48,5.14,4.41-3.38,3.94-7.77-1.25-9.7-3.49-1.3-7.19-2.03-10.79-3.03-2.65-.74-5.26-1.59-7.66-2.95-5.28-2.99-8.3-7.47-8.1-13.62.2-6.36,3.52-10.96,9.31-13.33,6.94-2.84,14.13-2.95,21.21-.28,6.53,2.47,9.65,7.54,10.5,14.28.16,1.3-.25,1.66-1.44,1.59-1-.05-2-.01-2.99-.01Z"/>
    <path class="cls-1" d="M368.61,146.7c.45,1.47-.18,2.01-1.62,1.7-2.86-.61-5.76-.19-8.64-.28-1.11-.03-1.61-.42-1.97-1.42-.95-2.66-2.16-5.24-2.94-7.95-.7-2.44-2.3-3.01-4.46-2.94-3.66.1-7.32.29-10.98.3-6.23.02-6.2-.01-8.34,5.84-.77,2.09-.87,4.79-2.54,6.11-1.65,1.3-4.12-.16-6.26-.02-4.89.31-6.09-.2-3.87-5.75,6.17-15.44,12.13-30.96,18.07-46.49.69-1.81,1.59-2.31,3.46-2.27,2.91.07,5.77.96,8.7.44.39-.07.71-.03.91.53,1,2.85,1.99,5.7,3.14,8.49,1.69,4.09,4.1,7.98,5.09,12.22.78,3.34,2.69,6.08,3.55,9.36.63,2.4,1.53,4.94,2.72,7.25,1.68,3.27,2.97,6.7,4.06,10.2.51,1.63,2.36,2.67,1.91,4.69ZM341.83,108.31c-2.19,5.99-4.13,11.25-6.04,16.51-.47,1.29.36,1.34,1.3,1.33,3.25-.03,6.49-.09,9.74-.04,1.5.03,1.69-.53,1.2-1.78-2-5.1-3.96-10.22-6.2-16.02Z"/>
    <path class="cls-1" d="M224.36,120.8c-.16-3.35.17-6.66,1.1-9.88,3.56-12.27,13.9-19.17,26.68-18.19,10.09.77,16.33,6.14,19.7,15.4.3.82.3,1.21-.6,1.43-3.23.79-6.45,1.61-9.67,2.43-1.03.26-1.42-.17-1.79-1.13-2.04-5.26-5.73-7.9-10.67-7.76-5.2.14-9.68,3.34-11.3,8.33-2.01,6.2-1.76,12.47-.13,18.71.6,2.3,1.92,4.23,3.68,5.83,5.38,4.88,13.2,3.78,16.91-2.47.88-1.48,1.43-3.17,2.14-4.75.33-.75.55-1.4,1.74-.98,2.9,1.01,5.87,1.83,8.82,2.7.93.27,1.53.58.98,1.73-1.2,2.46-2.1,5.11-3.54,7.42-4.94,7.88-12.61,10.29-21.33,9.63-13.19-1.01-21.91-10.67-22.71-24.69-.07-1.24,0-2.5,0-3.75Z"/>
    <path class="cls-1" d="M195.46,142.88c0,.25,0,.5,0,.75-.12,4.69-.11,4.63-4.81,4.44-1.81-.07-3.79,1.15-5.25-.88-1.25-1.73-.12-3.53-.17-5.3-.02-.57-.06-1.17-.22-1.71-.52-1.73.68-2.77,1.87-2.93,2.5-.34,5.08-.14,7.62-.2,1.04-.02.94.73.95,1.36.03,1.49,0,2.98,0,4.47,0,0,.01,0,.02,0Z"/>
    <path class="cls-1" d="M287.99,147.8c-1.01.07-1.58.13-2.16.16-3.62.14-4.28-.53-4.08-4.08.06-1.16.08-2.32.08-3.48,0-2.79.26-3.01,3.17-2.9,1.74.06,3.48.05,5.22.05,1.82,0,2.79.69,2.61,2.69-.13,1.4-.02,2.82-.03,4.23-.02,2.91-.65,3.51-3.49,3.34-.58-.03-1.16,0-1.31,0Z"/>
    <path class="cls-2" d="M341.83,108.31c2.24,5.8,4.2,10.92,6.2,16.02.49,1.26.29,1.81-1.2,1.78-3.24-.06-6.49,0-9.74.04-.94.01-1.77-.04-1.3-1.33,1.92-5.26,3.85-10.52,6.04-16.51Z"/>
  </g>
</svg>