<?xml version="1.0" encoding="UTF-8"?>
<svg id="Camada_1" data-name="Camada 1" xmlns="http://www.w3.org/2000/svg" viewBox="0 0 1000 1000">
  <defs>
    <style>
      .cls-1 {
        fill: #fefefe;
      }

      .cls-1, .cls-2, .cls-3, .cls-4, .cls-5, .cls-6, .cls-7, .cls-8, .cls-9, .cls-10, .cls-11, .cls-12, .cls-13, .cls-14, .cls-15, .cls-16, .cls-17, .cls-18, .cls-19, .cls-20, .cls-21, .cls-22, .cls-23, .cls-24, .cls-25, .cls-26, .cls-27, .cls-28, .cls-29, .cls-30, .cls-31, .cls-32, .cls-33, .cls-34, .cls-35, .cls-36, .cls-37, .cls-38, .cls-39, .cls-40, .cls-41, .cls-42, .cls-43, .cls-44, .cls-45, .cls-46, .cls-47, .cls-48, .cls-49, .cls-50, .cls-51, .cls-52, .cls-53, .cls-54, .cls-55, .cls-56, .cls-57, .cls-58, .cls-59, .cls-60, .cls-61, .cls-62, .cls-63, .cls-64, .cls-65, .cls-66, .cls-67, .cls-68, .cls-69, .cls-70, .cls-71, .cls-72, .cls-73, .cls-74, .cls-75, .cls-76, .cls-77, .cls-78, .cls-79, .cls-80, .cls-81, .cls-82, .cls-83, .cls-84, .cls-85, .cls-86, .cls-87, .cls-88, .cls-89, .cls-90, .cls-91, .cls-92, .cls-93, .cls-94, .cls-95, .cls-96 {
        stroke-width: 0px;
      }

      .cls-2 {
        fill: #edf4fb;
      }

      .cls-3 {
        fill: #ecf7fc;
      }

      .cls-4 {
        fill: #1f3875;
      }

      .cls-5 {
        fill: #f2f8f9;
      }

      .cls-6 {
        fill: #1a3a86;
      }

      .cls-7 {
        fill: #f1f4f9;
      }

      .cls-8 {
        fill: #f8fafa;
      }

      .cls-9 {
        fill: #354369;
      }

      .cls-10 {
        fill: #f1f6f9;
      }

      .cls-11 {
        fill: #21346e;
      }

      .cls-12 {
        fill: #223b7c;
      }

      .cls-13 {
        fill: #f3f7fb;
      }

      .cls-14 {
        fill: #f2f7f9;
      }

      .cls-15 {
        fill: #193882;
      }

      .cls-16 {
        fill: #f9fbfb;
      }

      .cls-17 {
        fill: #f2f9fd;
      }

      .cls-18 {
        fill: #193a85;
      }

      .cls-19 {
        fill: #f4f9fd;
      }

      .cls-20 {
        fill: #283664;
      }

      .cls-21 {
        fill: #364265;
      }

      .cls-22 {
        fill: #f8f9fa;
      }

      .cls-23 {
        fill: #e5f0fa;
      }

      .cls-24 {
        fill: #213771;
      }

      .cls-25 {
        fill: #313b5a;
      }

      .cls-26 {
        fill: #283b67;
      }

      .cls-27 {
        fill: #213571;
      }

      .cls-28 {
        fill: #2b417b;
      }

      .cls-29 {
        fill: #1c397d;
      }

      .cls-30 {
        fill: #1c408d;
      }

      .cls-31 {
        fill: #213c79;
      }

      .cls-32 {
        fill: #dfecf6;
      }

      .cls-33 {
        fill: #ecf5fc;
      }

      .cls-34 {
        fill: #e9f2fa;
      }

      .cls-35 {
        fill: #1b3375;
      }

      .cls-36 {
        fill: #37436a;
      }

      .cls-37 {
        fill: #f1f5f9;
      }

      .cls-38 {
        fill: #333d60;
      }

      .cls-39 {
        fill: #253e83;
      }

      .cls-40 {
        fill: #f1f7f8;
      }

      .cls-41 {
        fill: #f2f5f7;
      }

      .cls-42 {
        fill: #214082;
      }

      .cls-43 {
        fill: #184094;
      }

      .cls-44 {
        fill: #213b7a;
      }

      .cls-45 {
        fill: #1c3478;
      }

      .cls-46 {
        fill: #354366;
      }

      .cls-47 {
        fill: #f2f6f8;
      }

      .cls-48 {
        fill: #333b60;
      }

      .cls-49 {
        fill: #333a60;
      }

      .cls-50 {
        fill: #323c58;
      }

      .cls-51 {
        fill: #1e3268;
      }

      .cls-52 {
        fill: #38456c;
      }

      .cls-53 {
        fill: #1c3a81;
      }

      .cls-54 {
        fill: #f0f5f7;
      }

      .cls-55 {
        fill: #1a316f;
      }

      .cls-56 {
        fill: #354168;
      }

      .cls-57 {
        fill: #f1f7fa;
      }

      .cls-58 {
        fill: #f2f7fa;
      }

      .cls-59 {
        fill: #edf5fc;
      }

      .cls-60 {
        fill: #364166;
      }

      .cls-61 {
        fill: #323b60;
      }

      .cls-62 {
        fill: #dfebf4;
      }

      .cls-63 {
        fill: #344063;
      }

      .cls-64 {
        fill: #edf5fb;
      }

      .cls-65 {
        fill: #343e61;
      }

      .cls-66 {
        fill: #ecf4fb;
      }

      .cls-67 {
        fill: #eaf4fb;
      }

      .cls-68 {
        fill: #1c3a80;
      }

      .cls-69 {
        fill: #f0f4f6;
      }

      .cls-70 {
        fill: #1a3d8c;
      }

      .cls-71 {
        fill: #2d4179;
      }

      .cls-72 {
        fill: #eff6f7;
      }

      .cls-73 {
        fill: #fbfbfb;
      }

      .cls-74 {
        fill: #f8fbfa;
      }

      .cls-75 {
        fill: #1c3a87;
      }

      .cls-76 {
        fill: #eff7fc;
      }

      .cls-77 {
        fill: #273664;
      }

      .cls-78 {
        fill: #323a5d;
      }

      .cls-79 {
        fill: #2e3d6e;
      }

      .cls-80 {
        fill: #20386d;
      }

      .cls-81 {
        fill: #1b3e8c;
      }

      .cls-82 {
        fill: #193177;
      }

      .cls-83 {
        fill: #e9f5fc;
      }

      .cls-84 {
        fill: #fafbfb;
      }

      .cls-85 {
        fill: #f1f6f8;
      }

      .cls-86 {
        fill: #334061;
      }

      .cls-87 {
        fill: #f2f5fa;
      }

      .cls-88 {
        fill: #f0f5f8;
      }

      .cls-89 {
        fill: #19347d;
      }

      .cls-90 {
        fill: #ecf7fb;
      }

      .cls-91 {
        fill: #ccdcf2;
      }

      .cls-92 {
        fill: #bcd3eb;
      }

      .cls-93 {
        fill: #25407c;
      }

      .cls-94 {
        fill: #f3f6fa;
      }

      .cls-95 {
        fill: #37436d;
      }

      .cls-96 {
        fill: #344066;
      }
    </style>
  </defs>
  <path class="cls-30" d="M365.17,904.85c-161.28-55.83-264.33-165.57-300.43-332.97C23.29,379.68,119.66,188.04,289.28,98.1c4.5.61,7.91-2.12,11.66-3.8,3.12-1.4,6.26-3,9.78-1.46,2.69,1.18,6.39,1.48,7,5.03.73,4.21-2.49,6.11-5.83,7.21-7.24,2.38-13.18,7.6-20.62,9.41-3.52.86-4.81,3.3-5.72,6.31-3.01,4.75-8.06,6.86-12.52,9.76-109.12,71.06-176.41,169.76-193.85,299.57-16.28,121.2,16.94,228.92,94.93,322.86,43.03,51.84,96.42,89.77,158.08,116.38,3.84,1.66,7.97,2.82,10.67,6.37,8.65,6.99,17.84,12.75,29.44,13.16.76.03,1.54.04,2.27.23,5.35,1.41,13.36,1.19,13.34,8.11-.03,7.7-7.85,4.69-12.72,5.41-3.38.5-6.68,1.47-10.02,2.2Z"/>
  <path class="cls-55" d="M721.31,104.77c55.41,30.39,100.78,72.14,138.13,122.79,43.74,59.33,71.3,125.68,80.38,198.69,15.29,122.9-14.55,234.11-91.63,331.73-15.46,19.57-33.36,37.08-51.77,53.96-2.42-1.06-4.13-3.47-2.66-5.36,5.94-7.63,7.02-18.54,19.3-22.03,9.52-2.7,13.79-13.59,18.97-21.9,3.14-5.04-6.08-5.28-4.97-10.09.54-4.43,3.35-7.58,5.93-10.91,48.67-62.68,78.74-132.87,86.73-212.26,11.58-115.13-19.17-217.72-91.29-307.78-25.64-32.02-56.05-59.29-90.28-82.13-4.99-3.33-10.99-5.66-13.62-11.77,9.17-10.57-.28-15.36-6.58-21.14.38-1.98,1.41-2.77,3.37-1.82Z"/>
  <path class="cls-35" d="M828.1,753.59c11.06,2.91,11.49,4.17,4.46,13.56-5.44,7.26-9.19,18.72-17.66,19.99-13.46,2.02-11.84,15.15-19.63,20.61-.4.28.72,2.74,1.14,4.19-41.16,38.99-89.41,66.41-142.16,86.15-23.78,8.9-48.06,16.52-73.53,19.28-.62-9.49,8.48-6.18,13.95-10.68-6.15-.7-10.21,1.56-14.45,3.16-10.35,3.89-14.09,1.9-18.16-9.4,11.94-5.42,25.01-6.49,37.55-9.49,62.71-15.03,118.97-42.95,168.75-83.74,17.37-14.23,34.86-28.52,48.7-46.56,2.71-3.53,5.61-7.46,11.03-7.06Z"/>
  <path class="cls-53" d="M562.27,901.4c6.03,8.28,13.07,10.38,21.63,3.61.58-.46,1.33-.88,2.04-.94,4.9-.43,12.26-4.04,13.71,1.94,1.24,5.13-5.87,6.47-11.06,6.31-3.77-.12-6.63,1.2-7.86,5.05-70.63,14.75-140.28,8.71-209.33-9.87-2.16-.58-4.15-1.76-6.23-2.66,4.23-3.58,7.82-8.67,14.69-4.85,2.43,1.35,5.93,1.09,6.42-2.28.53-3.55-3.26-3.93-5.65-4.11-12.62-.95-24.09-5.31-35.16-11.09-2.14-1.11-5.88-1.07-2.65-4.95,5.98-2.7,11.19.57,16.49,2.32,58.46,19.33,118.3,26.1,179.64,20.51,7.64-.7,15.76-3.79,23.31,1Z"/>
  <path class="cls-68" d="M285.28,119.07c-4.22-5.18-.08-5.63,3.63-7.11,9.41-3.78,18.64-8.01,28.66-12.38-6.91-5.37-12.32-5.97-18.4-1.75-2.79,1.94-6.5,4.77-9.89.27,37.8-20.79,78.04-34.86,120.25-43.45,14.15-2.88,28.35-5.48,42.8-6.4,15.97,3.53,31.56-2.52,47.52-1.81,15.6.69,30.88,3.59,46.37,4.9,6.76.57,13.59-1.19,20.3,1,2.99.98,6.58,1.43,7,4.8.57,4.47-3.84,4.89-6.85,6.22-.23.1-.62.3-1.1.28-18.01-1.02-36.27,3.66-54.06-2.04-5.25-1.68.49,3.39-2.15,3.06-4.12,2.77-8.79,2.41-13.32,2.35-68.53-.83-132.5,17.2-193.75,46.62-5.37,2.58-10.36,6.74-17.02,5.44Z"/>
  <path class="cls-45" d="M509.53,63.37c-2.25-1-4.49-2-6.74-3,23.17.87,46.28,2.1,71.63-1.34-9.55-8.1-18.54-5.06-26.67-5.61-20.4-1.36-40.38-7.64-61.02-5.52-11.49,1.18-22.88,5.54-34.41.35,32.76-3.21,65.21-1.83,98.12,1.14,60.4,5.44,115.62,24.67,168.26,53.29.96.52,1.74,1.39,2.61,2.09-1.03.89-2.06,1.77-3.08,2.66-.47.25-.95.5-1.42.76-10.46,3.2-20.96,1.72-31.48.22-40.65-18.04-82.69-31.43-126.82-37.62-12.44-1.75-24.9-3.51-37.51-3.84-4.09-.11-8.55.48-11.47-3.58Z"/>
  <path class="cls-17" d="M509.53,63.37c62.7,1.98,122.34,16.58,178.99,43.45,10.84,2.97,20.99,7.46,30.31,13.78,2.17,1.5,4.59,2.75,5.58,5.46,35.04,23.84,68.21,49.8,96.21,82.01,57.55,66.21,92.57,142.34,102.01,229.77,12.04,111.46-16.54,211.77-83.62,301.35-3.61,4.82-8.96,8.33-10.91,14.4-28.9,32.23-60.5,61.34-97.17,84.65-51.79,32.91-108.04,53.86-168.66,63.16-75.12,10.22-148.3,2.56-219.44-23.83-35.6-15.69-70.23-33.09-101.25-56.91-92.94-71.37-151.86-164.13-164.98-280.95-20.41-181.7,51.88-320.25,205.22-417.82,1.25-.79,2.31-1.87,3.46-2.82,63.6-34.29,131.09-54.26,203.72-55.3,6.85-.1,13.69-.26,20.54-.4Z"/>
  <path class="cls-45" d="M724.42,126.06c-2.07-.97-4.13-1.95-6.2-2.92-4.69-5.24-5.2-10.48,0-15.72h0c5.99,1.22,12.38,3.41,14,9.31.94,3.43-2.07,8.79-7.81,9.33Z"/>
  <path class="cls-35" d="M841.24,751.56c-.76-.28-1.98-.43-2.06-.81-1.48-6.91,6.46-8.28,8.11-13.56.78-2.5,3.65-4.86,6.12-1.9,2.93,3.5-.48,6.37-2.62,8.7-2.75,2.98-5.11,6.7-9.55,7.57Z"/>
  <path class="cls-55" d="M718.23,107.42c-.09,5.24-2.92,10.48,0,15.72-9.9-5.44-19.8-10.88-29.69-16.32,9.86,2.42,19.86-2.31,29.7.6Z"/>
  <path class="cls-51" d="M562.36,77.87c45.73,5.41,88.83,19.62,129.28,41.12,119.04,63.29,196.15,160.59,217.8,293.68,27.85,171.22-33.45,308.92-174.42,410.25-38.29,27.53-81.23,46.06-126.89,58.06-2.91.76-5.94,1.07-8.92,1.58-6.44-.36-6.81-1.1-4.99-10.01,14.36-7.4,30.44-9.64,45.47-15.24,76.64-28.56,139.21-75.71,187.51-141.41,43.29-58.89,67.81-125.06,74.02-198.07,9.02-106-20.8-200.1-87.04-282.63-53.76-66.99-122.97-110.99-205.52-134.58-15.77-4.51-32.22-6.04-47.59-11.92-3.66-4.08,1.39-7.16,1.29-10.84Z"/>
  <path class="cls-42" d="M256.58,818.55c-43.12-28.68-78.22-65.38-106.79-108.3-48.97-73.56-73.09-154.85-68.38-243.01,7.04-131.83,64.54-237.43,171.43-315.62,3.88.83,6.64,2.87,7.56,6.93-1.75,7.03-8.11,9.91-13.05,13.8-60.56,47.77-104.52,107.72-130.47,180.26-13.79,38.57-21.12,78.58-21.95,119.9-1.09,53.79,7.23,105.66,26.88,155.67,17.05,43.39,41.74,81.96,72.19,117.32,18.05,20.96,39.94,37.47,59.46,56.65,1.38,4.21,5.02,6.43,8.01,9.27,1.88,1.78,4.16,4.03,2.31,6.78-1.9,2.81-4.74,1.14-7.21.36Z"/>
  <path class="cls-31" d="M256.58,818.55c1.8-.31,4.45.01,5.22-1.04,1.81-2.48-1.17-3.59-2.59-4.97-2.48-2.43-8.01-2.4-6.38-8.08,6.08-1.7,10.12,2.39,14.39,5.34,57.96,40.22,122.11,62.97,192.3,69.88,40.6,3.99,80.61,1.44,120.52-6.03,4.72-.88,9.63-2.94,14.32.35,1.82,2.74-.94,8.07,4.85,8.56-33.34,10.6-67.91,13.31-102.42,13-83.74-.75-161.13-23.8-231.2-70.22-3.13-2.07-6.01-4.52-9.01-6.8Z"/>
  <path class="cls-44" d="M259.94,158c-3.13-1.27-5.27-3.65-7.11-6.37,53.48-39.3,113.33-63.28,178.63-73.97,39.02-6.39,78.22-6.75,117.48-2.37,4.51.5,8.95,1.71,13.42,2.59,4.68,4.36,2.05,6.76-2.33,8.68-3.64,4.07-8.31,3.06-12.81,2.48-50.53-6.54-100.39-2.58-149.71,9.57-44.13,10.88-85.05,29.13-123.11,53.91-4.36,2.84-8.42,6.89-14.46,5.47Z"/>
  <path class="cls-19" d="M259.94,158c37.59-24.78,77.08-45.52,120.6-58.06,55.91-16.11,112.57-21.72,170.38-13.52,2.98.42,6.07.11,9.11.14,21.03,4.96,42.55,7.95,63.02,15.15,150.59,52.97,245.54,155.77,276.43,313.55,33.62,171.76-59.04,350.65-219.48,428.08-27.48,13.26-56.01,23.48-85.64,30.67-121.82,26.19-234.31,5.38-336.64-66.74-1.53-1.08-3.26-1.88-4.89-2.8-37.75-30.19-71.48-64.12-97.65-105.07-50.47-78.97-71.22-165.13-61.03-258.25,12.67-115.8,68.24-207.34,159.8-278,2.08-1.61,4-3.43,5.99-5.15Z"/>
  <path class="cls-82" d="M850.8,304.66c19.72,35.17,32.28,72.98,38.9,112.52,13.45,80.31,4.43,158.22-31.63,231.54-56.08,114.03-147.16,185.17-270.46,215.29-1.45.35-3.04.14-4.57.19-3.93,1.83-7.18-1.99-4.97-3.23,6.56-3.68,9.23-9.69,13.05-15.18.73-1.05,2.77-1.07,4.18-1.66,3.45-1.31,6.9-2.64,10.01-4.64,1.39-.89,4.02-1.51,3.13-3.59-.36-.84-3.47-.03-5.06-1.22.08-10.98,11.02-10.12,16.55-15.17.36.1.74.17,1.07.32,4.86,2.24,3.48,9.09,8.36,11.31.7.32,1.48.36,2.21.13,6.71-2.11,13.17-4.79,20-7.9-2.74-1.67-5.17-.45-7.22-1.51-3.38-1.6-2.4-6.24-5.77-8.01-3.25-1.71-5.63-4.5-3.63-8.3,2.02-3.84,5.72-2.71,9.08-1.93,1.11.26,2.24.34,3.16-.59,2.33-7.39-10.99-14.4-.53-21.99,6.1,4.16,7.27,11.3,10.31,17.28,6.73,13.24,16.46,16.66,28.9,9.96,11.79-6.35,14.17-15.94,6.07-28.69-7.05-11.09-12-23.79-23.03-32.04-3.99-1.98-4.95-4.58-1.1-7.53,3.3-2.53,5.99-5.6,8.83-8.56,1.64-2.24,4.61-3.11,6.22-6-2.97,1.51-4.09,4.33-6.29,6.06-3.2,3.38-6.61,5.86-11.63,6.47-8.19,1-14.41,6.55-21.28,10.57-5.71,3.34-10.76,3.9-13.1-4.03,2.06-4.09,6.15-5.55,9.81-7.52,55.89-30.01,98.46-73.01,126.38-130.13,19.45-39.8,29.84-82.16,28.42-126.24-2.4-74.58-28.59-139.83-81.46-193.78-26.29-26.83-56-48.33-90.15-63.81-2.45-1.11-4.89-2.2-6.43-4.56.47-6.01,7.39-7.99,8.51-14.11.55-2.99,4.97-1.81,7.66-.11,6.86,4.3,14.72,6.32,21.98,9.7,4.61,2.15,6.44,1.42,7.48-4.14,3.41-18.15.91-36.6,3.56-54.81,1.22-8.37-10.3-14.28-18.25-10.14-3.09,1.61-5.23,4.43-7.69,6.82-10.18,11.39-19.27,23.87-32.53,32.12-3.67-.7-6.09-4.26-4.49-6.42,4.54-6.16,5.89-15,13.73-18.37,9.86-4.23,13.91-14.6,22.43-20.35,3.9-2.63-.09-4.49-2.75-6.24-7.79-5.13-7.69-9.48-.11-14.01,30.68,11.86,59.33,27.27,87.06,45.17,34.73,22.43,63.86,50.11,88.86,82.62,1.65,4.74,1.59,8.76-4.3,10.34-6.04,1.09-12.16.11-18.24.61-24.69,2.03-40.66,22.8-35.18,45.77,1.51,6.32,19.23,23.23,25.43,24.29,3.32.57,5.92-1.08,8.46-2.78,4.43-2.97,8.95-5.78,13.65-8.03.24-.94.17-1.69-.28-2.34-3.49-4.99-5.01-12.96-10.11-14.71-5.27-1.81-9.71,5.69-15.15,8.08-3.46,1.52-6.42,4.14-10.1,5.29-4.1,1.29-7.58.57-9.8-3.43-2.12-3.82-.02-6.7,2.62-9.02,6.62-5.81,14.25-10.22,21.66-14.89,6.45-4.07,12.82-8.27,19.39-12.14,5.91-3.48,12.21-5.03,18.22-.46,6.08,4.62,7.62,10.88,6.08,18.37-.9,4.39-4.19,8.24-2.97,13.02,3.14,1.56,5.05-.87,6.98-2.34,8.29-6.3,15.61-6.24,21.85,2.8Z"/>
  <path class="cls-81" d="M133.19,637.7c-13.6-26.84-21.67-55.65-26.61-84.96-11.18-66.27-7.31-131.74,15.27-195.56,29.19-82.48,81.11-147.3,152.86-196.71,2.48-1.71,5.3-2.92,7.96-4.36,5.72-2.76,9.15,5.4,14.8,3.08,4.6.78,7.25,3.69,9.08,7.79,5.43,12.16,11.72,23.91,17.5,35.9,3.06,6.34,4.82,12.48,2.65,19.33,0,.36-.03.74-.03,1.12,0,.38.04.76.07,1.14,1.43-.55-.29.96.92.05,5.25-3.92,10.69-8.97,17.01-2.63,6.61,6.64.1,12.62-2.14,18.73-11.5,11.21-25.3,19.5-37.44,29.96-36.94,31.82-64.17,70.51-80.53,116.18-30.06,83.89-21.68,164.82,21.58,242.47,4.18,7.5,12.2,12.95,12.27,22.66-1.36,2.92-3.6,1.89-5.75,1.28-3.35-.44-4.96-7.35-9.68-2.55-3.69,5.69,4.52,11.74-.57,17.34-10.17-3.21-18.84-16.13-13.94-24.42,8.21-13.9-.56-24.24-6.74-32.86-10.84-15.14-15.77-31.93-20.69-49.1-.85-2.96-.95-6.02-.31-9.08,3.51-16.78-2.28-32.05-7.14-47.67-5.88-18.9-6.06-38.12.73-57,1.15-3.18,3.53-5.95,4.22-9.35.97-4.75,3.34-9.84-1.15-14-4.49-4.17-9.75-5.68-15.86-3.64-18.83,6.28-32.85-3.75-46.39-14.33-3.39-2.65-4.67-8.36-10.72-5.86-5.23,2.17-10.34,5.75-9.86,11.49,2.56,31.18-7.12,61.67-2.63,93.39,3.72,26.32,7.84,52.7,10.78,79.18.58,5.19.29,10.36,8.33,8.01,2.7-.79,6.16,2.02,5.52,4.46-2.99,11.36,9.8,22.13,1.02,33.55-.6.78-.4,2.22-.64,3.35-.65,1.82-1.87,3.05-3.74,3.61Z"/>
  <path class="cls-70" d="M133.19,637.7c.86-.96,1.72-1.91,2.58-2.87,6.72.28,10.85,3.15,10.57,10.5-.17,4.42,1.45,8.34,4.08,11.67,6.6,8.34,14.27,16.02,14.97,27.56.07,1.07.75,2.44,1.65,2.94,11.13,6.17,13.17,20.1,23.35,27.16,3.4,2.36,6.2,5.83,8.25,9.44,8,14.09,20.83,23.34,33.01,33.16,3.77,3.04,5.59,6.9,8.08,11.1-5.53-16.61,7.65-22.71,16.77-31.01,2.06-1.88,6.61-1.75,5.48-6.11-2.39-9.26,3.21-11.51,10.46-12.26,6.64-.68,11.24-6.65,18.06-6.72,2.52,1.46,4.92,1.3,7.2-.5-1.98.8-3.9,1.98-6.18.97-3.64-1.09-7.64-1.72-6.95-7.14,1.32-10.3-8.72-21.78-18.89-20.65-4.04.45-6.68-.83-6.93-3.69-.85-9.65-8.59-11.24-15.22-14.31-2.29-5.92-8.02-11.42-2.3-18.34,3.45,2.59,7.04,4.49,11.45,2.3,1.62.73,3.23,1.47,4.85,2.2,4.73-.92,6.8,2.68,9,5.61,26.31,34.99,60.7,60.09,98.6,80.94,2.99,1.64,6.11,3.11,8,6.18,4.71,7.23,12.81,9.04,19.97,12.2,5.54,2.45,11.17,4.73,16.44,7.72,3.61,2.04,5.55,5.33,4.32,9.56-1.21,4.16-4.97,4.2-8.38,4.24-3.79.05-7.52-.9-11.32-1.01-8.84-1.13-16.42-6.01-25.96-8.26,7.67,4.66,5.86,10.76,3.62,16.84-4.74,12.87-10.93,25.15-14.96,38.38,4.45-4.36,5.64-10.46,7.82-16.02,3.05-7.81,5.98-15.68,9.38-23.35,4.41-9.94,7.49-10.47,17.12-3.5,4.45,8.89,3.86,18,1.17,27.21-.34,1.05-.83,2.03-1.44,2.94-6.35,3.47-11.29,7.48-6.39,15.62.57.94.38,2.41-.2,3.33-5.01,7.97.19,10.74,6.5,13.07,3.43,1.27,8.48,1.81,6.92,7.08-1.61,5.44-6.37,6.09-11.21,4.34-3.19-1.15-7.01-1.24-9.39-3.88-4.95-5.49-10.54-5.14-16.58-2.51-52.58-18.48-98.67-47.49-139.04-85.75-38.08-36.09-68.4-77.61-88.33-126.38Z"/>
  <path class="cls-18" d="M342.46,238.25c-2.79-1.93-1.98-3.51.43-5.04,4.76-3.04,2.26-6.97.34-9.76-2.73-3.96-6.63-2.51-9.96-.16-2.14,1.51-3.98,3.48-6.2,4.85-1.46.9-3.22-.03-3.77-1.48-.89-2.36,2.17-2.57,2.83-4.19,5.93-7.34,16.8-13.38,29.32-16.19-9.24-6.48-10.93-17.02-14.72-26.37-.85-2.1-.3-4.63,1.72-6.24,2.41-1.91,5.03-1.48,7.51-.12,3.84,2.1,5.97,5.81,8.4,9.22,10.74,15.08,16.67,15.91,31.8,4.44,1.16-.88,2.51-1.5,3.89-2.95-5.09.09-7.67-3.21-9.98-6.69-3.54-5.32-7.88-9.2-14.55-10.05-6.51-.83-9.07-3.76-4.59-9.87,3.35-4.57,5.63-9.51,1.62-14.67-4.46-5.74-10.56-5.12-16.76-3.37-13.36,3.77-25.15,11.02-37.57,16.88-5.05,2.38-9.9,5.79-16,3.65-6.76,6.18-8.25-5.38-13.57-4.03,33.55-22.64,70.42-37.82,109.24-48.63,2.54-.71,5.13-1.2,7.7-1.79,1.44.59,2.94.59,4.46.58,10.38-.04,12.2,2.55,8.04,11.87-.95,2.12-1.65,4.2-1.98,6.45-.45,2.66-1.61,5.07-2.57,7.56-6.25,16.27-1.43,32.92,11.94,41.42,14.39,9.14,34.62,6.98,46.3-4.94,12.08-12.34,13.08-28.83,2.59-43.83-2.17-3.11-4.97-5.81-6.2-9.55-4.17-15.32-3.01-18,12.28-18.72,17.28-.81,34.86-3.5,51.22,6.61,5.32,3.29,13.68,1.23,17.89,8.08,2.45,3.29,2.8,7,2.09,10.88-2.83,15.35-5.98,30.64-9.12,45.93-1.18,5.73-4.05,9.77-10.05,10.97-1.14.65-3.88.17-3.54.65,7.11,10.25-1.09,10.09-7.48,11.5-14.27,3.13-28.8,1.11-43.19,2.08-5.49.37.48,3.22-1.62,3.54-1.6,1.9-3.8,2.53-6.07,2.78-31.2,3.41-60.78,12.5-89.35,25.22-1.74.77-3.57,1.26-5.47,1.38-5.26,1.42-5.53-10.04-12.41-4.65,4.01-.11,6.55,1.41,6.59,5.73-5.42,7.07-12.73,10.45-21.48,11Z"/>
  <path class="cls-15" d="M394.88,776.97c3.15-3.9,6.34.91,9.45-.04,2.52-.77,6.33,2.37,7.54-2.52,1.12-4.51-1.8-6.02-5.12-7.51-10.99-4.93-21.89-10.07-32.93-14.9-3.37-1.47-4.71-2.68-1.05-5.24,4.43-2.05,8.14.49,11.96,1.97,39.19,15.21,79.87,22.62,121.83,22.57,17.91-.02,35.59-3.66,53.4-5.31,9.27,1.93,10.52,7.72,6.49,15.06-6.14,11.19-10.41,22.34-4.66,35.12,1.14,2.52.48,2.82,1.87,3.91,2.32,1,3.11,3.14,3.9,5.24,3.92,10.35,10.78,16.9,22.31,17.71,2.59.18,5.28.56,6.8,3.2-1.22,2.83-11.27-.73-4.69,8.57,4.97,7.03-4.18,3.5-6.94,4.7-1.96.85-5.84-1.18-4.93,3.45.12.59,1.92.84,2.94,1.25-24.18,7.29-49.1,8.73-74.12,9.44-50.96,1.45-100.52-5.82-148.36-23.81,5.54-5.32,11.05-10.55,16.91-.31,1.93,3.38,5.83,3.25,8.91,4.46,3.73,1.47,8.5,1.93,9.5-2.7.95-4.39-4.51-2.39-6.73-3.93-5.31-3.69-17.37-4.15-7.33-15.28.64-.71,1.14-2.5.73-3.08-7.81-10.92-3.9-16.08,8.31-17.32,4.12,6.63-.25,12.49-1.92,18.46-1.54,5.47-.52,8.9,5.37,10.15,3.71.79,7.32,2.03,11.15,2.33,15.22,1.18,21.62-6.71,16.1-20.9-2.11-5.41-.98-8.88,1.82-13.5,6.34-10.48,2.99-18.29-8.12-22.44-8.1-3.02-12.42-1.1-15.33,7.48-2.17,6.38-1.03,14.88-9.13,18.47,0-9.37,0-18.74,0-28.11,1.02-2.42,1.85-4.97,4.1-6.64Z"/>
  <path class="cls-89" d="M471.13,194.84c-.67-.79-5.3-.31-1.42-2.5,6.54-3.7,14.09-2.13,21.27-2.38,9.38-.33,18.79-.51,28.12-1.39,2.65-.25,8.02-1.38,2.77-6.24-2.63-2.44-7.8-5.35-4.03-8.88,4.02-3.76,4.67,4.83,8.66,4.62,11.09-3.18,21.46.42,31.89,3.35,6.71,4.58,14.49,3.61,21.81,3.39,7.56-.23,5.22-7.88,7.25-12.33-3.24,4.87-6.63,10.1-12.56,11.25-5.62,1.09-12.12,2.64-16.2-3.98.87-17.59,4.63-34.71,9.31-51.57,1.92-6.9.66-9.68-6.48-10.82-6.69-1.07-13.74-1.36-19.72-5.27-14.46-2.53-26.02-13.77-41.31-13.82-7.24-.03-14.49,0-21.73,0-17.03,0-17.64.65-15.17,16.11-3.44,1.72-6.76.37-9.92-.7-14.92-5.04-28.33-2.69-40.28,7.67-1.45,1.26-3.13,2.12-5.13,2.13-.41-.61-1.29-1.62-1.16-1.78,8.97-10.74,3.24-14.52-7.49-15.98,80.27-18.95,159.39-16.51,237.07,12.73-5.09,5.99-6.24,10.6,3.77,12.03,6.29.89,8.98,5.66,3.06,8.66-11.12,5.63-13.47,21.56-27.89,22.52,2.06,9.01-14.99,10.65-8.28,21.46q-1.52,5.85-9.08,8.23c4.37.77,6.88,2.63,9.79-3.47,7.48-15.68,19.9-16.16,32.05-2.53,1.36,4.91,1.48,9.89-.15,14.66-1.34,3.9-2.83,8.34-8.71,6.34-2.22-3.02-6.26-1.48-5.26.42,6.13,11.64-6.06,6.77-8.65,10.28-3.75,2.38-7.41.85-10.93-.46-37.98-14.15-77.25-19.98-117.7-18.76-5.93.18-12.29,1.4-17.56-2.96Z"/>
  <path class="cls-20" d="M850.8,304.66c-8.39-6.51-16.24-6.34-23.39,1.96-2.63,3.05-5.39,1.88-8.18.32-.14-.36-.5-.86-.38-1.04,4.05-6.25,7.09-17.48,5.98-22.39-2.19-9.64-6.83-17.63-15.37-23.07-2.21-1.41-4.67-2.77-4.72-5.95,5.78.26,8.09-2.79,7.86-8.26,15.41,17.73,27.83,37.41,38.21,58.43Z"/>
  <path class="cls-1" d="M471.13,194.84c50.28-2.85,99.26,2.9,146.19,22.18,37.61,16.68,71.17,39.11,99.97,68.75,128.4,132.13,98.55,352.38-60.53,445.22-8.45,4.93-17.06,9.6-25.59,14.4-9.95,10.55-23.98,12.85-36.72,17.14-10.19,3.43-20.5,9.04-32.09,5.75-65.4,12.2-128.66,5.65-189.6-21.5-25.19-12.7-49.15-27.58-70.38-46.02-14.15-12.29-27.71-25.69-38.5-41.37-1.72-2.5-3.22-5.2-6.33-6.29-7.03-15.01-17.52-27.99-24.61-43.05-33.44-71-38.36-143.73-13.22-218.04,21.35-63.12,61.33-112.08,116.48-148.98,2.18-1.46,4.18-3.17,6.27-4.77,6.79-3.87,13.58-7.74,20.36-11.61,1.04-1.83,3.34-1,4.68-2.2,32.99-15.32,67.73-24.47,103.63-29.61Z"/>
  <path class="cls-89" d="M562.36,768.27c23.74-5.21,46.53-13.29,68.82-22.89,2.98,2.22,6.11,5.6,9.84,1.96,10.06-9.81,23.66-11.48,35.94-16.2-.03,6.58-5.23,9.17-9.53,12.47-.03.02.28.72.54.82.69.25,1.44.34,2.17.49,5.13,11.56,12.26,21.96,18.83,32.69,3.58,5.85,7.34,12.05,4.58,19.3-2.42,6.36-6.82,11.12-13.97,12.17-7.99,1.18-14.23-1.85-18.51-8.66-6.3-10.04-9.18-21.81-16.23-32.22-.56,4.94,5.27,8.7,1.64,13.37-3.8,5.72-.26,10.24,2.76,14.53,2.44,3.46,3.7,7.36,1.72,10.67-2.69,4.47-5.79.73-8.6-.92-2.11-1.23-4.66-1.85-5.86.83-1.19,2.65.56,4.52,3.3,4.56,7.37.12,6.24,4.89,5.51,9.55-1.61,6.84-7.3,7.36-12.53,7.15-4.92-.19-6.48-4.86-7.8-8.86-4.06-12.3-8.75-24.37-14.12-38.98,2.88,11.38,6.37,19.84,8.93,28.58,1.14,3.91,3.37,7.95-.11,11.86-3.44,6.88-14.57,5.59-15.78,14.85-8.83,8.94-20.96,7.84-28.94-2.63-13.01-17.06-7.18-39.9,13.43-49.78-15.03,3.15-21.45,12.55-22.92,26.23-.4,3.72.16,7.73-2.83,10.79-.52,1.04-1.47,3.72-1.96,2.46-5.54-14.37-7.59-28.61,3.14-41.97,3.31-4.12,4.69-8.83-1.44-12.23Z"/>
  <path class="cls-74" d="M742.92,234.84c9.78,11.54,8.47,20.45,1.25,29.01-4.06,4.82-6.83,9.4,6.41,12.13-16.37,2.4-24.8-2.74-31.39-12.08-6.77-9.59-1.59-17.17,3.97-24.73,1.13-1.54,2.43-2.97,3.37-4.62,2-3.5,5.81-7.36.86-10.96-5.65-4.1-6.77,2.55-9.21,5.02-3.73,3.78-6.5,8.5-10.17,12.35-4.11,4.31-4.24,8.11-.77,13.22-11.99-9.55-23.98-19.1-37.27-29.68,8.51,3.12,12.95-1.24,17.01-6.26,8.89-11.01,20.85-20.82,25.83-33.39,7.25-18.28,12.99-6.1,19.34-1.46,8.61,6.3,16.81,13.18,25.04,19.99,3.22,2.66,6.37,5.54,8.95,8.8,5.24,6.64,8.42,14.17,2.9,21.96-6.31,8.91-14.56,5.84-26.12.7Z"/>
  <path class="cls-84" d="M864.95,375.42c-.15,19.56-17,34.55-38.92,34.6-22.52.06-36.92-15.67-36.66-40.06.2-18.53,18.24-34.18,39.69-34.44,21.08-.25,36.06,16.4,35.89,39.89Z"/>
  <path class="cls-22" d="M804.74,254.48c12.09,6.24,21.37,14.55,21.5,29.49.07,7.25,7.98,4.37,10.85,9.45-3.79,6.55-12.92,7.52-17.85,13.52-1.85-.33-5.24.97-2.73-3.34,5.43-9.36,12.08-20.35,1.54-28.79-9.7-7.77-18.22,2.67-26.36,7.43-10.18,5.95-19.98,12.56-29.74,19.18-2.57,1.74-6.73,3.94-3.65,8.09,2.53,3.42,6.26,2.43,9.19.21,7.76-5.88,18.64-7.84,23.32-18.83,6.22,9.63,12.18,18.88,19.05,29.53-9.02-3.46-13.82,2.56-19.07,6.31-6.73,4.8-12.35,6.78-18.17-.81-.88-1.15-2.47-1.75-3.72-2.62-15.7-10.99-21.91-24.18-18.18-38.55,3.76-14.46,22.18-29.42,38.03-30.52,5.3-.37,10.66.15,16,.26Z"/>
  <path class="cls-73" d="M631.23,206.31c11-5.09,5.2-14.94,6.44-22.79-.66-1.01-1.25-2.05-1.78-3.12-2.43-7.75,1.47-15.18,1.17-22.83-.04-2.31-.14-4.63.76-6.84,5.63-5.32,8.61-13.77,20.19-9.4,10.38,3.91,12.02,8.14,10.81,18.93-2.24,19.82-1.45,40-4.21,60.86-10.93-4.85-22.15-9.82-33.37-14.8Z"/>
  <path class="cls-64" d="M681.73,737.46c4.65-3.1,9.16-6.4,13.95-9.24,12.21-7.24,25.18-1.27,26.57,12.85.46,4.72,1.07,4.32,5.3,4.82,13.31,1.58,19.76,18.53,10.96,28.54-4.69,5.34-10.99,9.26-16.57,13.8-4.7,3.83-5.72-1.09-7.35-3.4-10.88-15.47-21.58-31.07-32.86-47.38Z"/>
  <path class="cls-89" d="M688.88,146.57c2.52,0,5.19,1.06,5.56,3.26,1.59,9.48,6.66,17.44,7.58,27.91,1.72,19.38-17.06,23.74-21.11,37.67-.53,1.81-2.41,1.5-3.78.52-1.53-1.09-1.32-2.63-.66-4.09,1.26-2.78,3.03-5.41,3.83-8.31,1.84-6.71,3.83-14.64-3.38-18.65-8.67-4.82-5.6-10.29-2.98-16.14,2.88-6.43,9.66-10.78,9.66-18.9,0-2.33,2.67-3.51,5.28-3.28Z"/>
  <path class="cls-59" d="M646.47,781.58c-1.96-4.5-4.04-8.95-5.83-13.52-.85-2.16-3.57-4.87.43-6.65,3.62-1.61,4.62,1.58,5.74,3.84,5.55,11.26,10.62,22.77,16.57,33.81,5.34,9.93,15.44,10.99,23.85,3.52,6.27-5.57,6.25-11.73,2.35-18.37-5.79-9.84-11.8-19.56-17.61-29.39-1.79-3.02-5.42-5.84-1.83-9.9,2.56-.32,4.07.75,5.46,3.02,6.97,11.32,14.55,22.28,21.16,33.79,6.63,11.55,2.56,22.78-9.69,29.64-8.77,4.91-24.99,5.16-30.12-7.45-3.1-7.61-6.96-14.91-10.48-22.34Z"/>
  <path class="cls-3" d="M562.62,820.02c-.72-23.33,5.78-35.05,22.11-39.62,2.17-.61,4.47-.99,6.71-1.02,2.44-.04,5.77-.94,5.84,3.29.06,3.18-2.38,3.02-4.66,3.58-21.21,5.21-28.9,26.88-16.04,44.91,6.24,8.76,15,10.12,27.31,4.25,1.93-1.13,4-2.07,5.76-3.42,1.93-1.48,3.5-1.18,4.71.57,1.17,1.69.99,3.37-.76,4.93-4.91,4.39-11.02,6.36-16.94,8.76-21.51-.2-26.4-3.97-34.05-26.22Z"/>
  <path class="cls-66" d="M619.67,820.55c-3.77-12.22-7.86-24.36-11.02-36.74-.65-2.54-6.11-7.15.5-9.07,5.02-1.46,4.64,4.04,5.66,6.68,4.08,10.56,7.64,21.32,11.39,32q5.17,14.72,19.09,7.37c2.06-.81,4.06-1.83,6.18-2.38,3.08-.8,5.46.68,6.16,3.58.82,3.39-2.6,2.99-4.43,3.83-3.08,1.43-6.22,2.74-9.39,3.96q-17.28,6.65-24.15-9.22Z"/>
  <path class="cls-91" d="M637.82,150.73c.77,1.66,1.53,3.32,2.3,4.97-1.15,1.51-1.47,3.7-2.86,4.82-8.62,6.97-10.06,13.57.51,19.95-.03,1.01-.07,2.03-.1,3.04-3.18-1.2-6.67-1.92-9.49-3.69-5.83-3.65-10.06-2.79-14.43,2.59-5.69,7-6,6.76-1.03,16.31-6.48-2.7-11.87-4.94-17.78-7.41,4.31-3.38,10.6-2.5,12.39-8.24,10.16-10.79,20.32-21.57,30.48-32.36Z"/>
  <path class="cls-89" d="M677.02,731.14c-.3-7.33,3.66-9.71,8.9-10.51,1.82-.28,2.48,1.71,2.08,3.17-1.54,5.53-5.54,7.63-10.98,7.34Z"/>
  <path class="cls-43" d="M291.71,712.8c-7.87,3.4-14.1,10.18-23.94,9.7-4.24-.21-6.34,4.17-2.7,8.25,4.23,4.72,2.06,6.18-2.91,7.33-9.7,2.25-14.13,10.98-20.34,17.42-3.58,3.71-.08,6.92,1.74,10.12,1.84,3.23,3.15,7.09-1.73,8.17-3.19.7-6.96-.95-7.08-5.48-.06-2.15,1.77-5.48-.92-6.09-12.17-2.76-14.96-16.95-26.23-20.84-3.4-1.18-6.34-4.42-7.35-8.34-1.92-7.45-7.31-12.56-12.58-17.24-4.82-4.28-10.56-7.24-10.57-14.84,0-3.38-3.12-3.67-5.45-4.91-4.5-2.4-8.97-6.2-9.25-11.04-.64-10.88-7.52-17.53-13.62-25.22-3.29-4.15-7.18-9.04-5.16-15.57,2.12-6.85-6.36-5.27-7.84-9.37-3.81-5.48-1.33-10.13,2.04-14.56,2.62-3.45,3.34-7.28-2.15-6.71-10.7,1.12-4.7-4.28-3.67-7.89.96-3.38,5.5-6.51,1.58-10.23-3.39-3.22-4.86,1.5-7.28,2.37-5.39,1.92-6.12-2.9-6.44-6.52-3.01-33.92-9.82-67.34-12.23-101.43-1.45-20.47,3.68-39.74,4.51-59.64.16-3.94-.5-7.39-1.13-11.1-1.44-8.54.57-15.64,8.91-20.31,7.86-4.41,13.96-5.74,16.66,5.37.4,1.64,2.08,3.69,3.62,4.22,13.9,4.72,25.97,18.25,42.91,8.62,8.24-4.69,14.31,2.45,18.88,6.61,5.67,5.16,1.57,14.29-1.62,18.8-12.23,17.27-5.33,36.29-7.19,54.43-.11,1.08,0,2.58.64,3.3,10.06,11.17,6.83,26.2,11.53,38.79,2.65,7.09-4.16,12.01-2.46,17.31,5.46,17,6.37,36.17,19.99,49.6,7.5,7.39,5.49,19.73,15.05,25.81,1.71,1.09-1.19,3.88-2.56,5.65-8.75,11.31-5.42,23.3,8.18,29.64,8.81-.63,17.22-.85,16.66,11.89-.06,1.44,1.79,2.97,2.75,4.46,12.55-10.7,13.48,6.2,20.48,8.75,3.11,1.13,5.76,3.52,9.27,5.76-1.95,4.7-11.53,9.63-1.01,15.01h0Z"/>
  <path class="cls-8" d="M207.82,233.23c13.56-12.95,25.59-24.58,37.82-36.01,2.75-2.56,6.05-4.63,9.34-6.48,6.8-3.83,13.92-4.96,20.03.98,7.77,7.56,3.56,15.24-1.8,24.25,12.39-5.85,21.96-3.21,29.65,6.06,3.11,3.74,14.58,2.54,6.94,12.81-7.21,9.7-19.16,14.95-27.13,9.83-5.07-3.26-9.3-7.8-13.99-11.67-3.02-2.49-6.46-4.83-10-1.26-3.96,4,.83,6.05,2.71,8.28,3.93,4.64,8.8,8.53,12.42,13.37,3.83,5.12,7.4,4.52,12.73,2.27-8.28,7.85-16.75,15.5-24.75,23.62-4.45,4.51-5.2-.04-7.37-2.1-15.33-14.55-30.75-29.02-46.59-43.95Z"/>
  <path class="cls-8" d="M296.24,160.15c12.39-5.68,24.74-11.47,37.19-17.01,5.88-2.62,11.88-5.03,17.99-7.08,7.63-2.55,14.84-1.13,19.21,5.83,4.26,6.79,1.61,13.15-3.99,18.37-1.05.98-1.94,2.14-4.05,4.5,13.43-2.28,20.83,3.33,25.13,14.02,2.2,5.47,5.41,5.98,9.6.23-2.68,12.24-10.72,17.09-20.87,19.01-9.31,1.77-14.99-3.27-18.92-11.24-1.84-3.74-4.3-7.18-6.64-10.65-1.43-2.12-3.73-2.83-6.03-1.91-1.21.48-2.6,1.83-2.89,3.04-1.15,4.77,12.92,26,18.57,27.53-11.78,6.05-23.09,11.87-34.4,17.68-.37-.06-1.08-.15-1.07-.17,1.92-16.22-9.98-27.48-14.82-41.27-.99-2.82-2.71-5.38-3.84-8.17-2.14-5.27-4.44-10.33-10.15-12.72Z"/>
  <path class="cls-43" d="M218.2,347.87c11.87,8.73,2.18,18.61.38,27.27-1.22,5.88-5.65-.05-8.42-1.75-2.94-.6-2.91-3.02-3.22-5.22.4-7.44-5.21-11.19-8.52-14.54,8.31,5.1,9.54,14.27,8.08,24.45-2.88,7.37-9.12,9.28-15.87,8.38-14.38-1.92-28.83-4.21-42.33-9.71-12.08-4.92-13.21-14.36-3.36-21.57,9.29-.36,18.83.43,24.7-9.49,2.72-4.59,7.13-7.78,13.41-8.05-7.2-4.8-14.5-3.8-21.45-2.09-5.58,1.37-9.86.65-15.04-2.04-4.84-2.51-6.89-5.28-3.78-9.11,2.83-3.48.96-13.67,10.57-8.95,1.66.81,2.34,1.46,2.99-.63.34-1.08.72-2.15,1.09-3.23,3.79-3.9,7.91-3.5,12.23-.96,14.01,8.23,27.94,16.6,41.83,25.03,4.86,2.94,5.41,7.64,6.71,12.21Z"/>
  <path class="cls-74" d="M144.94,355.19c-7.27,10.32-6.19,15.41,5.1,19.22,13.18,4.45,26.83,7.29,40.63,9.12,6.45.86,12.11-.63,14.36-7.87,2.5-2.45-2.38-8.01,3.76-8.93.45,2.22.91,4.45,1.36,6.67-2.95,24.3-11.5,35.58-31.87,39.2-27.31,4.86-44.79-14.9-44.85-35.64-.01-4.17.25-8.35.39-12.52l-.05.14c3.52-6.91,11.68-12.13,6.98-21.98-1.7-3.56,1.6-4.27,4.58-3.67,6.55,1.32,13.08,2.71,21.25,4.4-7.48,6.37-17.17,4.46-21.65,11.86Z"/>
  <path class="cls-8" d="M218.2,347.87c-2.4-8.26-9.97-10.86-16.31-14.73-11.06-6.73-22.28-13.18-33.28-20.01-3.67-2.28-7.09-3.64-11.18-1.53,6.94-11.73,12.24-24.5,21.88-34.52l.05.04c-2.02,4.6-1.14,7.62,3.79,10.1,5.9,2.97,11.25,7.04,16.84,10.63,2.46,1.28,5.53,1.57,7.08,4.34,34.28,18.8,29.7,13.21,11.61,42.35-.54.87-.34,2.21-.48,3.33Z"/>
  <path class="cls-62" d="M226.36,279.82c2.44.32,3.28.19,3.81.53,24.24,15.83,23.56,7.8,6.88,33.98-.2-6.74,2.45-12.58-.69-17.89-3.06-5.17-6.19-10.29-10-16.62Z"/>
  <path class="cls-34" d="M179.31,277.09c-.05-.74-.37-1.61-.1-2.21,8.46-18.84,13.69-19.58,31.85-2.4-12.72-3.45-22.99-2.92-31.7,4.65,0,0-.05-.04-.05-.04Z"/>
  <path class="cls-32" d="M207.07,302.2c-2.62-1.01-5.42-1.74-7.08-4.34,7.01.61,5.06-4.54,4.16-7.6-1.01-3.46-3.58-6.47-6.21-10.94,11.08,3.42,18.72,10.28,29.32,16-8.36,2.55-17.94-5.13-20.2,6.87Z"/>
  <path class="cls-43" d="M252.7,650.89c-5.17,5.97-9.71,8.82-11.45-2.3,4.14-6.15,4.36-6.1,11.45,2.3Z"/>
  <path class="cls-43" d="M133.82,364.45c-.84,1.14-2.03,2.15-2.45,3.43-1.21,3.6-.24,8.77-6.05,8.88-1.89.03-3.53-3.33-2.38-4.08,3.8-2.48,1.75-13.02,10.84-8.08,0,0,.05-.14.05-.14Z"/>
  <path class="cls-43" d="M233.5,333.63c2.98.98,3.71,3.77,4.34,6.24.86,3.38-1.79,3.62-4.17,3.5-2.92-.15-3.82-2.23-3.74-4.74.08-2.31.53-4.6,3.56-4.99Z"/>
  <path class="cls-33" d="M318.22,804.56c6.73.55,10.48-3.32,13.28-8.78,5.55-10.8,11.12-21.58,16.85-32.28,1.07-1.99,1.58-5.88,5.47-3.6,3.37,1.97,1.47,4.41.27,6.82-5.71,11.54-10.91,23.36-17.13,34.61-6.33,11.44-18.87,13.96-30.45,7.03-12.11-7.25-15.55-18.15-8.62-29.77,6.61-11.07,13.96-21.7,21.02-32.51,1.43-2.19,2.89-5.26,6.07-2.64,2.96,2.45.28,4.81-1.03,6.95-6.34,10.37-13.14,20.49-19.03,31.11-6.51,11.73.26,22.99,13.29,23.07Z"/>
  <path class="cls-83" d="M291.69,763.1c-3.91-2.92-7.83-5.37-11.15-8.45-4.27-3.96-7.26-4.18-10.64,1.15-3.05,4.81-7.1,8.97-10.53,13.56-1.99,2.66-3.72,3.23-6.44.87-2.44-2.12-1.65-3.78-.07-5.76,11.47-14.39,22.91-28.81,34.39-43.2,2.19-2.74,4.69-1.8,6.97-.14,5.56,4.04,11.11,8.07,16.51,12.32,1.47,1.16,4.51,2.26,2.11,5.17-1.69,2.04-3.7,2.55-5.97.86-2.75-2.05-5.71-3.89-8.19-6.23-4.88-4.61-7.66-4.16-12.45,1.35-7.04,8.1-7.02,13.13,2.62,17.99,2.33,1.18,4.38,3.06,6.29,4.91,1.36,1.32.48,2.84-.71,3.92-.74.67-1.72,1.08-2.73,1.69Z"/>
  <path class="cls-67" d="M394.88,776.97c-.26,2.9,1.46,7.01-4.1,6.64-8.46-6.59-12.51-3.41-15.48,5.93-3.77,11.88-8.51,23.47-13.43,34.94-1.01,2.35.13,9.11-6.75,5.82-5.62-2.68-1.23-6.04-.38-8.32,4.78-12.75,9.88-25.4,15.41-37.84,2.45-5.52,2.92-9.23-3.88-11.21-2.72-.8-7.02-1.58-5.37-5.63,1.98-4.87,5.84-1.5,8.68-.43,8.49,3.2,16.87,6.71,25.29,10.1Z"/>
  <path class="cls-43" d="M291.7,712.8c1.22-.84,2.44-1.68,3.66-2.53,1.94-1.36,3.27-4.77,6.44-2.07,1.36,1.16,3.17,2.51,1.84,4.63-1.65,2.63-4.5,2.2-7.1,2.23-1.98.02-3.65-.59-4.84-2.25h0Z"/>
  <path class="cls-16" d="M408.25,123.47c15.81-19.05,34.96-17.77,55.33-9.11,26.55,23.92,15.07,58.4-12.12,66.14-16.19,4.61-30.59,1.32-41.35-11.61-11.83-14.23-11.32-29.87-1.86-45.43Z"/>
  <path class="cls-84" d="M541.79,112.08c11.57-.97,22.32,3.12,33.3,5.13-9.04,20.44-9.83,42.56-15.07,63.62.7.59.91,1.16.65,1.7-.26.53-.51.8-.76.8-11.14-1.75-22.27-3.51-33.41-5.26,5.92-4.08,7.23-10.33,8.42-16.89,2.39-13.28,4.95-26.55,8.03-39.68.85-3.63.52-6.43-1.15-9.42Z"/>
  <path class="cls-81" d="M367.5,224.45c-1.08,1.76-2.77,2.2-4.68,2.2-1.71-7.04-9.84,1.06-12.24-5.89,5.91-1.68,11.76-3.35,17.19-4.9,3.22,3.64-3.75,5.51-.27,8.58Z"/>
  <path class="cls-90" d="M390.78,811.73c2.96-8.29,6.43-16.45,8.72-24.92,1.61-5.95,3.08-7.83,9.82-5.57,9.11,3.06,18.85,4.19,20.54,16.18,1.12,7.95-2.67,13.52-8.88,17.86,4.31,5.53,7.96,11.44,5.65,18.76-2.42,7.68-8.03,11.73-16.17,11.96-2.27.06-4.57.07-6.83-.21-20.31-2.48-21.51-4.18-14.94-23.03,1.28-3.68,1.89-7.3,2.15-11.08,0,0-.07.04-.07.04Z"/>
  <path class="cls-76" d="M491.5,821.81c.21,24.7-17.06,39.68-38.37,33.15-2.85-.87-5.71-2.23-8.1-3.99-10.63-7.83-12.81-25.98-5.27-41.93,6.71-14.19,19.65-21.21,33.19-17.99,10.99,2.61,18.42,14.92,18.55,30.77Z"/>
  <path class="cls-2" d="M512.62,856c-8.57,1.67-9.88-.97-9.87-5.73.05-17.16-.2-34.31-.24-51.47,0-2.4-1.07-5.9,3.17-5.89,3.83.01,3.65,3.15,3.73,5.82.41,13.72,1.09,27.43,1.05,41.15-.02,7.76,3.17,9.96,10.4,8.72,4.1-.7,8.36-.4,12.55-.6,2.68-.13,4.52.92,4.61,3.72.1,3.32-2.54,3.16-4.8,3.27-7.98.4-15.96.78-20.6,1Z"/>
  <path class="cls-23" d="M559.91,183.33c.04-.83.07-1.67.11-2.5,17.95,7.74,22.59-7.82,31.91-17.27-1.45,7.46-2.97,14.9-4.33,22.37-.71,3.93-3.06,3.47-5.93,2.76-7.25-1.8-14.88-2.04-21.76-5.36Z"/>
  <path class="cls-18" d="M457.71,103.55c-.06,1.82-1.06,3.03-2.61,3.14-2.74.18-5.32-.91-6.43-3.42-.93-2.09.8-3.82,2.81-3.62,2.52.26,5.12,1.17,6.23,3.9Z"/>
  <path class="cls-6" d="M544.78,539c-12.86,8.12-27.5,10.66-42.12,12.75-5.15.73-7.15,1.75-7.03,7.38.38,18.7.27,37.42.1,56.13-.09,10.59,6.42,16.49,14.36,21.58-.48,7.25-5.73,10.76-11.57,10.06-11.53-1.38-22.82,1.69-34.22.51-2.85-.3-6.59,1.36-8.08-2.4-1.4-3.54,1.99-5.38,3.82-7.66,1.44-1.79,2.97-3.5,3.3-5.89,8.31-18.6,3.86-38.25,4.45-57.42.67-21.74.12-21.75-19.72-29.08-50.18-18.54-81.68-61.49-80.33-111.61,1.16-43.12,22.2-74.76,59.36-96.03,7.64-1.23,11.11,3.72,13.25,9.65,2.28,6.31-3.52,8.44-7.16,11.19-6.81,5.14-11.92,11.22-13.58,19.79-25.54,47.02-21.65,92.77,11.39,129.88,9.71,10.91,21.17,19.46,36.9,22.47,0-21.95.56-43.26-.23-64.53-.42-11.25-7.71-17.78-19.21-18.82-2.67-.24-5.55.22-5.38-3.88.18-4.34,3.51-3.29,5.88-3.29,17.17.04,34.33.23,51.5.37,5.31,3.32,3.67,6.64.07,10.06-5.05,4.81-6.28,10.64-6.1,17.6.48,19.47.45,38.96.03,58.43-.18,8.54,3.24,11.43,10.98,9.02,6.9-2.15,14.27-2.89,20.64-6.63,9.27-2.86,16.52-8.9,23.5-15.26,3.62-3.31,7.27-6.23,11.69-2.05,4.92,4.65,2.82,9.74-.58,14.2-4.29,5.63-11.95,7.41-15.93,13.49Z"/>
  <path class="cls-29" d="M419.63,377.93c-1.3-9.11,3.83-15.89,9.9-20.87,3.11-2.54,10.09-3.37,9.13-7.68-1.16-5.18-4.67-10.97-11.54-12.09,33.99-20.62,70.02-23.17,107.42-11.63,8.21,2.53,15.47,5.9,22.84-2.25,3.24-3.59,7.4-1.61,7.48,3.68.24,15.64.08,31.28.13,46.92,0,2.68-.89,4.17-3.82,4.39-3.82.29-4.97-2.01-6.48-4.97-10.33-20.24-27.69-30.69-49.51-34.42-37.26-6.37-64.87,8.7-85.53,38.92Z"/>
  <path class="cls-4" d="M463.35,631.44c.02.38.15.8.04,1.13-5.05,14.72-5.04,14.81,12.03,13.66,7.4-.5,14.39-3.27,22.28-.98,5.74,1.66,8.48-5.15,12.4-8.42,14.11.16,28.29-.51,42.3.69,21.68,1.85,35.26-8.65,45.17-26.37,1.6-2.86,1.93-8.77,7.52-5.89,4.21,2.16.84,6.27.19,8.95-2.78,11.34-3.16,25.95-10.53,32.71-7.16,6.57-21.86,1.74-33.24,1.8-36.61.21-73.22.12-109.83-.03-3-.01-7.71,2.19-8.68-2.59-1.17-5.77,4.26-3.61,7.01-4.58,5.52-1.95,9.53-5.87,13.34-10.08Z"/>
  <path class="cls-48" d="M673.89,283.38c-.22,4.31-2.54,5.85-4.59,7.49-5.57,4.45-9.5,8.83-6.29,17.13,2.66,6.89-.07,10.84-7.6,5.88-6.91-4.54-13.22-4.21-19.78.51-2.07,1.49-4.59,3.29-7.28,1.42-2.66-1.85-.43-4.05.07-6.1,1.87-7.73.47-14.15-6.83-18.65-1.78-1.1-4.29-2.62-3.89-5.2.52-3.39,4.34-3.71,6.3-3.49,9.91,1.11,14.3-4.62,17.58-12.54,1.08-2.62,4.35-7.11,5.94-2.17,4.35,13.5,15.37,14.73,26.38,15.7Z"/>
  <path class="cls-61" d="M645.7,647.38c4.69,14.8,15.41,19.28,31.76,19.02-10.8,9.52-17.3,17.01-12.61,29.59,1.98,5.3-4.67,3.7-7,2.11-7.78-5.31-14.68-4.38-21.93,1.02-5.07,3.78-8.45,1.97-6.43-4.2,3.14-9.6.07-15.96-7.92-21.12-2.77-1.79-4.76-6.32.07-6.28,13.44.13,19.08-8.29,24.06-20.15Z"/>
  <path class="cls-46" d="M234.39,407.25c12.17-2.54,21.92-5.64,25.42-18.4,1.41-5.14,5.04-1.9,6.09.99,3.36,9.24,8.86,14.25,19.45,13.56,6.6-.43,6.03,4.11,2.04,6.91-8.66,6.09-9.11,13.84-6.08,22.72,1.66,4.86-1.65,6.37-4.41,4.31-10.74-8.03-20.25-3.57-32.69,5.41,5.43-16.47,3.35-27.47-9.81-35.5Z"/>
  <path class="cls-96" d="M423.34,683.63c5.53,10.14,9.11,20.49,22.69,18.23,4.32-.72,4.96,3.46,1.89,5.98-7.12,5.85-9.81,12.43-7.12,21.67,1.97,6.78-1.82,7.23-6.59,3.93-6.74-4.67-13.15-4.49-19.6.52-2.08,1.61-4.56,3.48-7.08,1.12-2.04-1.9-.39-4.27.27-6.37,2.22-7.08-.05-12.43-5.85-16.84-1.96-1.49-5.01-3.01-4.51-6.07.6-3.71,4.47-2.88,6.57-2.79,12.25.56,12.97-10.72,19.34-19.37Z"/>
  <path class="cls-95" d="M252.79,460.43c4.67,1.83,5.86,4.79,6.86,7.54,2.19,6.05,5.54,9.62,12.65,8.81,2.78-.32,6.69-.2,7.84,3.24.97,2.91-1.87,4.99-3.91,6.45-6.55,4.68-5.89,10.89-4.35,17.44.51,2.15,2.16,4.61.03,6.39-2.1,1.75-4.32.14-6.2-1.16-6.7-4.63-12.98-4.56-19.6.6-4.7,3.66-8.88,2.26-6.8-4.07,3.09-9.38-.56-15.08-7.56-20.24-2.29-1.69-3.69-6-.13-5.99,13.04.05,18.42-8.15,21.17-19.01Z"/>
  <path class="cls-36" d="M305.23,598.91c5.6,10.32,9.54,20.13,22.77,18.27,4.42-.62,4.36,3.58,1.43,6.13-6.97,6.08-10.03,12.68-6.1,22.05,1.66,3.95-.47,7.1-5.4,3.84-7.26-4.81-14.08-5.87-21.61.06-5.26,4.15-8.21.98-6.49-4.58,2.49-8.06.71-13.69-6.11-18.58-5.31-3.81-5.66-7.82,2.23-7.72,12.05.15,13.41-10.27,19.28-19.47Z"/>
  <path class="cls-65" d="M578.6,224.47c5.93,11.54,10.48,20.59,23.41,18.9,4.7-.61,5.7,3.66,1.8,6.61-7.21,5.46-9.21,12.17-6.44,20.57,1.91,5.81-1.63,6.37-5.08,4.16-8.36-5.37-16-4.9-23.93.62-5.72,3.99-7.32-.09-5.72-4.28,3.36-8.77.46-14.36-6.81-19.04-2.41-1.55-5.57-6.24-1.23-6.5,12.62-.76,19.44-7.73,23.99-21.03Z"/>
  <path class="cls-63" d="M470.42,716.56c12.47-2.95,23.11-3.84,26.24-16.9,1.35-5.61,5.3-2.16,6.7,1.37,3.29,8.27,8.33,12.97,18.05,11.95,4.84-.51,7.94,2.34,2.94,6.64-7.11,6.12-10.08,12.67-6.2,21.98,1.7,4.1-.38,7.32-5.19,4.21-8.2-5.3-15.82-5.93-23.74.53-2.12,1.73-6.25,1.94-5.12-2.31,3.19-12.06-3.07-19.85-13.67-27.47Z"/>
  <path class="cls-78" d="M734.81,499.78c4.66-8.03-.62-13.09-7.32-17.8-1.41-.99-3.14-3.13-2.93-4.45.39-2.43,2.98-3.24,5.39-3.09,8.75.53,14.15-3.34,17.07-11.66,2.15-6.12,5.9-5.86,8.01-.1,3.19,8.68,9.91,10.56,17.85,10.98,7.11.38,7.22,3.81,2.3,7.22-7.17,4.96-8.16,11.14-5.81,18.71,1.86,5.99.69,8.58-5.64,4.83-7.83-4.64-15.19-4.67-22.87.75-4.68,3.3-7.05,1.21-6.06-5.39Z"/>
  <path class="cls-78" d="M717.74,570.08c2.81-7.41-1.65-11.86-7.01-16.04-1.72-1.34-4.4-2.68-3.65-5.28.69-2.37,3.61-3.17,5.67-2.95,9.6,1.06,13.39-4.99,16.31-12.48,2.74-7.02,5.98-5.13,7.79.22,2.91,8.62,9.27,11.18,17.34,11.5,7.39.29,6.94,3.77,2.34,7.17-6.78,5-8.3,10.97-6.02,18.68.57,1.92,2.45,4.49.04,6.23-2.54,1.82-5.06.25-7.35-1.21-5.57-3.53-11.03-4.43-16.84-.18-2.26,1.66-4.93,4.8-7.93,3-3.34-2-.35-5.57-.7-8.67Z"/>
  <path class="cls-56" d="M394.3,248.51c13.35-1.33,22.45-7.13,26.18-22.83,6.26,12.1,10.87,21.35,23.99,19.6,5.02-.67,3.97,4.09,1.44,6.01-7.59,5.75-9.68,12.52-6.63,21.58,2.19,6.49-3.14,5.52-5.72,3.73-8.13-5.62-15.44-4.32-22.91.93-3.61,2.54-6.95.89-5.41-2.89,4.9-12.05-3.2-18.1-10.94-26.15Z"/>
  <path class="cls-86" d="M484.16,257.79c3.82-7.38.04-12.5-5.91-17-5.68-4.3-4.81-7.51,2.15-8.15,8.04-.74,12.94-4.42,15.26-12.25,1.54-5.18,4.51-7.86,7.65-.89,3.51,7.79,7.99,12.85,17.78,11.98,6.52-.58,5.72,4.16,2.12,7.08-7.16,5.82-8.59,12.54-5.71,20.99,1.47,4.32.02,7.52-4.94,4.32-7.84-5.06-14.57-5.04-22.65.31-7.27,4.81-4.97-2.69-5.77-6.39Z"/>
  <path class="cls-52" d="M285.52,353.41c2.02-4.97-2.99-8.8-7.5-12.95-1.61-1.48-4.27-2.92-3.54-5.37.67-2.24,3.17-3.16,5.68-2.92,8.69.83,13.27-3.64,15.83-11.51,1.74-5.36,5.36-7.55,7.78-.73,3.08,8.67,9.67,10.88,17.43,11.69,7.47.77,6.43,3.89,2.09,7.48-5.54,4.59-8.15,9.85-5.73,17.01.83,2.45,2.81,5.37.28,7.4-2.92,2.34-6.04-.38-8.34-1.8-5.45-3.34-10.19-3.79-15.61.07-7.63,5.45-11.05,3.56-8.38-8.36Z"/>
  <path class="cls-60" d="M343.95,684.17c1.5-5.96-3.78-7.63-6.8-10.7-1.82-1.85-4.8-3.18-4.15-6.31.76-3.7,4.24-2.43,6.64-2.75,6.96-.93,12.17-3.77,13.97-11.17.53-2.19,1.59-4.77,3.97-5.11,3.46-.5,4.27,2.94,5.05,5.22,2.47,7.18,7.26,9.71,14.7,9.63,5.48-.06,9.87,2.43,3.59,7.97-6.21,5.48-7.91,11.29-5.03,19.22,2.07,5.68-.06,8.14-6.15,4.73-5.98-3.35-11.93-6.73-18.59-.74-1.96,1.77-5.13,4.5-8.08,2.04-2.23-1.85-.58-5.06-.34-7.64.14-1.49.8-2.93,1.22-4.39Z"/>
  <path class="cls-38" d="M579.64,680.95c4.4,14.37,12,19.54,23.15,20.61,5.64.54,2.68,4.55.37,6.09-7.58,5.07-8.32,11.86-6.04,19.78,1.65,5.73-.39,7.58-5.58,4.61-7.03-4.03-13.49-5.61-20.63.17-3.77,3.05-7.64,2.45-6.43-3.87,1.58-8.32-.46-14.84-7.75-19.63-3.01-1.98-4.41-6.15.4-6.02,12.8.35,17.3-8.58,22.51-21.74Z"/>
  <path class="cls-50" d="M696.07,594.95c5.19,13.5,10.55,20.76,22.37,19.28,2.8-.35,6.46,2.06,2.93,4.54-9.99,7.02-10.68,16.11-6.96,25.75-3.38,2.82-5.35,1.01-7.13-.01-6.63-3.8-12.88-4.97-19.67.1-4.84,3.61-9.56,3.44-7.24-4.35,2.4-8.03-.21-12.91-6.65-17.24-2.16-1.45-7.43-6.4-.75-6.7,12.78-.57,17.74-8.98,23.1-21.37Z"/>
  <path class="cls-49" d="M705.58,402.38c12.95-2.35,23.56-6.09,26.91-20.61,5.73,10.44,11.53,17.99,23.91,17.2,5.36-.34,3.22,4.31.75,6.04-7.67,5.35-8.45,12.19-6.15,20.53,1.54,5.56-1.74,6.12-5.59,3.58-7.48-4.93-14.49-4.9-21.72.52-2.57,1.92-7.24,2.57-6.03-2.14,2.97-11.52-2.17-18.67-12.08-25.12Z"/>
  <path class="cls-21" d="M339.38,303.01c2.95-7.99-2.6-11.99-7.4-16.37-3.67-3.35-5.01-6.8,1.66-7.13,8.74-.43,13.91-4.18,16.52-12.64,2.05-6.64,6.01-5.23,7.82.04,2.76,8.07,7.96,10.81,16.09,11.04,6.09.17,7.25,3.71,2.43,7.85-5.77,4.95-8.47,10.45-5.34,18.05.94,2.28,2.11,5.5-.63,7.27-2.09,1.35-4.26-.78-6.34-1.66-4.97-2.11-9.58-6.42-15.37-.93-2.15,2.04-5.46,5.34-8.92,2.97-3.16-2.16.65-5.68-.52-8.49Z"/>
  <path class="cls-9" d="M258.13,579.95c2.98-8.65.99-14.85-5.97-19.54-1.78-1.2-4.15-2.78-3.52-5.38.67-2.74,3.52-2.82,5.68-2.7,8.28.46,12.39-3.96,14.9-11.28,1.56-4.56,5.13-8.41,7.87-1.24,3.05,7.97,8.56,10.75,16.13,11.57,5.46.59,8.6,2.6,2.98,7.32-6.35,5.33-7.99,11.22-5.2,19.13,2.09,5.93-.62,8.38-6.15,4.67-7.24-4.87-13.53-4.04-20.42.88-3.96,2.83-7.29,1.86-6.29-3.44Z"/>
  <path class="cls-25" d="M729.3,335.42c-13.38,8.17-17.33,16.98-12.27,27.54-2.34,2.92-4.47,1.93-5.87,1.08-7.47-4.56-14.51-5.07-22.05.2-5.25,3.67-8.16,2.05-6.04-4.6,2.48-7.8-.53-13.12-6.86-17.4-1.76-1.19-4.2-2.48-3.35-5.31.67-2.24,2.98-2.38,4.76-2.32,8.7.28,14.32-3.39,17.01-11.87.82-2.6,4.09-7.12,5.93-2.12,4.41,11.99,14.64,12.35,28.74,14.8Z"/>
  <path class="cls-80" d="M544.78,539c2.17-5.07,3.35-6.8,9.66-11.3,2.54-1.81,4.83-3.51,6.16-6.44,1.33-2.93,2.45-5.75-.34-8.34-3.32-3.09-6.26-1.53-8.95,1.09-6.82,6.63-13.63,13.26-23.44,15.31-1.26-.81-1.3-1.67-.13-2.6,11.76-7.55,23.38-15.28,30.44-27.9,1.98-3.54,4.76-4.84,8.47-3.81,4.38,1.21,2.41,5.02,2.51,7.67.9,23.93-1.14,26.88-24.39,36.32Z"/>
  <path class="cls-79" d="M527.75,526.73c.04.87.09,1.73.13,2.6-7.16,4.78-15.79,5.41-23.66,8.16-5.48,1.92-10.38-.24-10.55-6.66-.63-23.26-1.01-46.53-.87-69.8.03-4.34,2.93-8.71,6.44-11.85,3.14-2.81,3.44-5.67,1.25-9.05,5.32-.15,10.65-.36,15.97-.42,1.92-.02,3.82.36,4.1,2.88.32,2.93-1.36,3.65-3.91,4.37-19.75,5.51-20.86,7.05-20.86,27.23,0,17.53.34,35.07-.15,52.58-.19,6.83,2.74,8,8.1,6.65,8.06-2.04,16.02-4.45,24.02-6.7Z"/>
  <path class="cls-77" d="M743.88,196.73c3.34,2.62,7.45,4.42,5.53,8.95-2.68,6.31-7.24,11.48-12.57,15.73-2.71,2.16-5.67,1.04-8.1-1.35-3.08-3.05.18-4.73,1.55-6.52,4.34-5.64,8.93-11.09,13.58-16.81Z"/>
  <path class="cls-11" d="M848.83,361.6c6.49.07,10.47-.65,11.42,3.91,1.11,5.37-3.65,6.41-7,7.22-16.91,4.11-33.93,7.77-50.91,11.63-3.87.88-6.88.07-7.92-4.12-.9-3.64,1.13-5.96,4.4-6.75,17.63-4.29,35.3-8.41,50.02-11.89Z"/>
  <path class="cls-26" d="M637.78,180.48q-16.23-6.74-4.3-19.15c2.01-2.08,4.42-3.76,6.64-5.63-.78,8.26-1.56,16.52-2.34,24.78Z"/>
  <path class="cls-27" d="M735.86,763.07c-1.1,8.28-7.36,14.84-13.52,15.19-7.08.4-11.71-9.4-12.59-15.19-.93-6.06,7.48-9.88,13.69-10.76,7.19-1.01,10.58,4.51,12.42,10.76Z"/>
  <path class="cls-24" d="M715.72,743.19c-1.61,6.17-5.77,9.92-11.01,12.4-1.66.79-12.6-13.61-11.57-15.55,2.65-5.01,7.46-7.83,12.89-7.55,6.21.32,8.58,5.34,9.7,10.7Z"/>
  <path class="cls-28" d="M253.03,231.57c-6.04-6.71-12.26-13.23-17.72-20.34-.49-.63,4.19-5.36,8.06-3.83,7.53,2.97,11.92,9.51,15.42,16.18,1.73,3.3-2.24,5.73-5.76,8Z"/>
  <path class="cls-71" d="M342.74,171.61c-3.99.77-4.86-1.35-5.83-3.48-2.36-5.15-4.9-10.22-7.17-15.4-2.62-5.97,1.65-6.57,5.59-6.13,5.02.56,13.2,17.47,10.73,21.84-.86,1.52-2.62,2.53-3.32,3.17Z"/>
  <path class="cls-92" d="M208.79,366.73c-2.94,2.27-.21,6.92-3.76,8.93-.18-13.83-.6-14.57-14.76-26.08,10.04-.19,14.39,3.84,18.53,17.15Z"/>
  <path class="cls-12" d="M451.19,170.82c-.11,3.36-.31,6.83-4.73,7.71-4.61.92-7.31-1.09-8.12-5.64-3.03-17.13-6.15-34.25-8.96-51.42-.69-4.21-.35-8.86,5.36-9.52,5.08-.59,6.5,3.86,7.18,7.34,3.33,17.07,6.2,34.23,9.27,51.54Z"/>
  <path class="cls-39" d="M405.86,838.76c-3.36-1.22-12.1.95-11.37-5.89.62-5.85-1.47-16.67,8.64-17.42,7.48-.56,16.04,2.7,16.44,12.05.29,6.72-3.83,12.32-13.71,11.26Z"/>
  <path class="cls-93" d="M410.42,810.52c-3.1-2.4-10.96.31-8.21-6.46,2.16-5.32-1.09-15.58,9.06-15.03,5.54.3,12.1,2.82,11.23,11.38-.8,7.79-5.74,9.75-12.08,10.12Z"/>
  <path class="cls-75" d="M484.31,820.03c.14,8.08-1.55,13.53-3.99,18.69-3.9,8.24-11.12,11.44-19.67,10.95-9.01-.52-14.78-6.03-16.68-14.67-2.41-10.95.18-21.23,6.71-30.23,5.35-7.37,13.35-9.51,21.39-6.32,10.37,4.11,11.41,14.18,12.24,21.58Z"/>
  <path class="cls-58" d="M664.63,286.93c-6.09,6.33-11.53,12.17-4.15,23.71-10.44-5.45-18.35-8.17-28.35,1.15,4.59-11.75,1.3-18.31-8.31-25.23,12.64,1.43,18.13-3.89,21.68-13.35,4.04,8.87,8.17,15.7,19.13,13.71Z"/>
  <path class="cls-14" d="M664.76,669.92c-5.56,6.44-9.7,12.5-4.76,22.77-9.02-4.26-16.36-5.55-24.02.94-.13-8.93,1.18-17.15-11.23-20.74,11.16-2.64,18.76-5.09,20.46-16.19,4.98,7.94,8.6,15.72,19.55,13.23Z"/>
  <path class="cls-37" d="M283.13,408.01c-7.67,6.48-12.4,12.61-6.16,23.33-9.22-3.12-16.67-9.02-23.92.75,1.38-10.17-2.02-17.04-10.82-24.18,12.82,2.25,16.9-4.3,20.33-14.03,3.45,10.36,9.66,14.69,20.57,14.13Z"/>
  <path class="cls-57" d="M413.35,729.34c.56-8.56.46-15.74-8.67-20.99,9.96-1.41,15.85-5.73,18.72-15.31,3.08,9.65,8.35,14.18,18.96,13.06-6.71,6.78-11.19,12.82-4.4,24.04-9.88-6.09-17.14-7.68-24.6-.82Z"/>
  <path class="cls-72" d="M244.55,505.9c2.73-10.01.85-16.49-6.83-21.54,7.3-2.91,15.1-3.9,15.83-14.59,5.24,6.97,8.68,14.11,20.04,10.64-6.9,7.85-10.16,14.55-6.47,24.42-8.19-5.94-14.73-6.22-22.58,1.08Z"/>
  <path class="cls-13" d="M289.4,623.39c8.19-.91,12.89-5.04,15.55-14.05,4.5,8.02,8.69,14.03,19.76,11.14-7.45,6.85-10.66,13.19-6.69,23.75-8.21-5.75-14.56-6.49-21.51-.19.23-8.41-.25-15.41-7.11-20.66Z"/>
  <path class="cls-47" d="M561.51,249.72c10.48-.07,14.11-6.74,17.86-14.18,3.53,8.24,7.88,14.13,19.56,11.15-6.69,7.01-11.28,12.73-5.9,22.74-8.92-4.23-15.71-6.05-22.84-.14-1.61-7.42.43-15.58-8.68-19.57Z"/>
  <path class="cls-10" d="M512.25,739.04c-8.54-4.52-15.49-4.16-23.42,2.38,2.16-9.36,1.65-16.58-7.92-21.63,9.01-2.45,17.4-3.49,17.43-17.15,5.28,10.61,9.91,16.44,20.42,14.58-5.37,6.8-12.15,12.1-6.52,21.82Z"/>
  <path class="cls-94" d="M732.26,478.76c10.93,1.09,15.4-4.74,19.04-13.19,3.36,8.58,8.49,13.27,20.45,11.62-8.7,7.14-11.35,13.13-5.95,23.59-9.76-6.59-17.01-6.89-24.03-1.64q-.87-12.07-9.5-20.38Z"/>
  <path class="cls-47" d="M753.25,549.78c-9.16,6.41-11.41,12.27-6.56,21.28-8.57-2.55-15.65-7.02-23.41,2.13.28-9.89-.03-17.34-9.9-22.73,11.55.32,16.54-4.66,19.51-14.06,3.25,9.02,8.97,13.05,20.35,13.38Z"/>
  <path class="cls-88" d="M434.12,270.06c-8.35-4.14-15.03-4.67-22.8,1.83.84-9.09-.02-15.92-9.62-21.29,10.88-.54,17.65-3.03,18.4-14.97,4.82,9.5,9.55,14.62,18.92,13.93-3.71,6.63-11.73,11.27-4.9,20.5Z"/>
  <path class="cls-54" d="M489.77,257.77c4.21-9.27-.95-14.52-8.11-20.92,9.44-.49,16.32-2.73,16.77-13.7,5.64,7.55,8.76,15.81,20,11.77-3.99,7.64-13.98,11.52-3.08,22.55-11.03-2.93-18.32-5.4-25.58.31Z"/>
  <path class="cls-5" d="M281.25,337.36c10.36-.5,16.19-4.15,18.67-13.78,4.16,7.88,8.33,13.59,20.77,11.11-9.45,7.59-10.46,14.13-7.76,23.34-8.31-5.73-15.17-6.25-23.3,1.46,2.41-10.13,1.03-16.94-8.39-22.14Z"/>
  <path class="cls-40" d="M349.01,689.74c1.6-8.56-.23-14.64-8.1-19.35,7.46-2.92,14.73-4.49,16.35-14.69,4.92,7.67,9.27,13.69,20.39,11.32-7.88,6.81-9.84,13.3-7.27,22.06-7.74-3.1-14.54-6.72-21.36.66Z"/>
  <path class="cls-87" d="M591.58,725.88c-7.51-4.33-14.12-4.9-22.14,2.83,2.21-10.2.5-16.98-8.56-22.55,10.76.52,15.69-3.95,18.34-12.78,4.01,7.32,8.79,12.16,18.53,12.2-6.91,6.14-9.56,12.17-6.18,20.3Z"/>
  <path class="cls-41" d="M696.41,606.56c2.83,9,8.7,12.43,17.7,12.42-5.38,5.84-10.99,10.78-3.97,20.17-9.02-1.78-16.28-8.22-23.22,2.49-1.2-9.48.87-17.57-8.73-21.37,10.35.26,14.39-5.91,18.22-13.71Z"/>
  <path class="cls-94" d="M715.39,404.47c9.71.24,14.44-4.33,17.26-13.24,4.16,7.66,9.18,12.61,17.72,12.22q-7.04,9.36-4.87,19.93c-7.57-3.6-14.85-5.55-22.38,1.21.36-8.53,1.49-16.05-7.72-20.13Z"/>
  <path class="cls-7" d="M371.57,282.15c-6.38,6.63-8.12,13.25-6.01,21.75-7.21-2.72-13.66-6.91-20.27,3.38-.62-9.95.62-17.65-8.26-21.86,7.46-3.47,15.16-5.14,16.89-15.64,4.17,8.36,7.25,15.51,17.66,12.38Z"/>
  <path class="cls-85" d="M289.99,556.41c-6.46,5.75-6.06,12.49-4.94,20.2-7.1-3.32-13.45-5.35-20.34,1.56-.14-8.46-.01-15.65-8.34-20.32,8.49-1.61,14.52-4.64,17.11-14.82,3.65,8.68,7.77,13.61,16.51,13.38Z"/>
  <path class="cls-69" d="M715.66,338.51c-5.28,5.63-8.79,11-3.12,20.62-9.64-5.25-16.67-5.4-24.45.1,1.86-8.74-.24-14.73-7.21-19.56,8.4-1.38,15.32-3.34,16.47-15.45,4.8,9.76,9.61,14.36,18.32,14.29Z"/>
</svg>