<?xml version="1.0" encoding="UTF-8"?>
<svg id="Layer_1" xmlns="http://www.w3.org/2000/svg" version="1.1" viewBox="0 0 400 400">
  <!-- Generator: Adobe Illustrator 29.3.1, SVG Export Plug-In . SVG Version: 2.1.0 Build 151)  -->
  <defs>
    <style>
      .st0 {
        fill: #fbfdfc;
      }

      .st1 {
        fill: #9c0e20;
      }

      .st2 {
        fill: #fcfefe;
      }

      .st3 {
        fill: #013a59;
      }

      .st4 {
        fill: #01a791;
      }

      .st5 {
        fill: #fdfefe;
      }
    </style>
  </defs>
  <path class="st1" d="M184.5,21.3v43.4c-9.9,2.7-19.9,5.2-29.9,7.6V.6l29.9,20.7Z"/>
  <path class="st4" d="M215.8,21.3c7.4-3.8,14.8-11.5,22-15.9l7.9-5.4v71.6l-29.9-7.6V21.3Z"/>
  <path class="st2" d="M215.8,21.3v42.8c-4-1-7.6-3.6-10.8-6.2s-2.5-3.2-4.2-3.1-3.2,2.3-4.5,3.4c-3.8,3-7.3,5.2-11.9,6.4V21.3c4.4,1.5,8.8,4.2,13.2,5.9s2.3,1,4.3.3c3.8-1.4,10.1-4.3,13.8-6.2Z"/>
  <g>
    <path class="st4" d="M216.1,347.7c6.3-2.9,12.5-8.1,18.7-11.4l11.2-7.7v71.3s-.8,0-.8,0c-9.7-2.4-19.4-5.1-29.1-7.6v-44.8ZM223.1,359.7h-4.2l11.1,18.7c.9,1.1,2.2,1.1,3.1,0l11.1-18.7c-1,.2-3.3-.4-4.1.3l-8.4,14.3-8.5-14.5Z"/>
    <path class="st1" d="M185.6,348v44.5c-9.8,2.4-19.6,5-29.4,7.6h-.6v-71c.2-.2,1.3.6,1.6.8,9,5.8,18.8,13.5,28.3,18.2ZM179.2,360h-12.7c-.2,0-2.3,1-2.7,1.2-6,3.4-5.7,13.4.2,16.8s2.9,1.3,3.4,1.3h13v-11.2h-12v2.8h8.7v5h-8.8c-.2,0-2.2-.7-2.5-.9-3.8-2.2-3.8-8.8.1-11,.3-.1,1.4-.7,1.5-.7h11.9v-3.4Z"/>
    <path class="st5" d="M216.1,347.7v44.8c-3.8-.9-11-3.4-14.4-3.6s-12.3,2.7-16.1,3.6v-44.5c.5.3,1.7.4,2.4.8,3.1,1.5,7.7,4.1,10.8,5.1s2.5.4,4.1-.2c4-1.5,9.1-4.2,13.1-6Z"/>
    <path class="st0" d="M223.1,359.7l8.5,14.5,8.4-14.3c.7-.6,3-.1,4.1-.3l-11.1,18.7c-.9,1.1-2.2,1.1-3.1,0l-11.1-18.7h4.2Z"/>
    <path class="st0" d="M179.2,360v3.4h-11.9c-.1,0-1.3.6-1.5.7-3.9,2.2-4,8.8-.1,11s2.3.9,2.5.9h8.8v-5h-8.7v-2.8h12v11.2h-13c-.5,0-2.8-1-3.4-1.3-5.8-3.3-6.2-13.4-.2-16.8s2.5-1.2,2.7-1.2h12.7Z"/>
  </g>
  <g>
    <path class="st0" d="M316.5,83.4v2.8c-.5.6-.5,2.2,0,2.8-.1,8.4.2,16.8,0,25.2-1.6,79.9-19.3,161.1-90.4,207.1-6.1,3.9-15.9,10.4-22.6,12.7-3.2,1.1-4.1,1-7.2-.2-5.6-2.2-12.6-6.4-17.8-9.6-72.9-45-92-123.3-94.5-204.5-.3-10.8-1-23.4-.3-34.1s.3-4.3,2.7-4.6c25.6.4,51.5.6,76.5-5.2s24.1-6.7,31.5-12.7,3.3-4.1,5.6-4.2,4.6,3,6.3,4.3c23.6,17.7,71.7,18.4,100.2,18.1s9.3-1.9,9.9,2.2ZM89.7,86.4c-.7,9.2-1.1,18.3-.9,27.5.7,35.8,5,72.5,15.9,106.6s39.9,77.4,78.9,100.1c2.9,1.7,12.8,7.3,15.6,7.6s1.1,0,1.6,0c3-.3,14.7-7,17.9-8.9,30-17.4,54.4-45.5,68.7-77.1,20-44.5,25.7-103,23.4-151.4,0-1.3.6-2-.2-3.7s-4.1-1.2-5.8-1.2c-9.8.1-20,.3-29.7,0-18.5-.5-50.8-4.5-66.3-14.8-2.1-1.4-6.7-6.3-8.7-6.4s-4,2.8-5.3,3.8c-4.6,3.6-9.8,6.3-15.3,8.2-25.8,9.1-53.3,9.5-80.3,9.1-1.3,0-9.3-.1-9.6.3Z"/>
    <g>
      <path class="st2" d="M239,320c.8,1.3.7,4.1.3,5.6s-.3.7-.6,1c-1.6,1.7-5.8,4.5-7.8,5.9-7.4,5-17.8,11.1-26.1,14.5-4.1,1.7-5.5,1.7-9.6,0-8.4-3.5-22-11.4-29.5-16.7-1-.7-3.7-2.8-4.2-3.8-.7-1.6,0-4.4-.3-6.2,6.1,3.6,11.8,7.9,18,11.5,3.8,2.2,17.1,9.9,20.8,10s15.5-7.3,19.4-9.7c6.3-3.8,13.6-8.1,19.6-12.1Z"/>
      <path class="st1" d="M161.3,320.3c.2,1.8-.4,4.6.3,6.2-8.2-6-16.2-12.9-23.2-20.3-3.5-3.6-7.5-8.1-10.6-12-1.4-1.8-3.1-4-3.6-6.3h4.3c.3,0,1.4,1.1,1.7,1.4,2.9,3,5.5,6.9,8.4,10.1,4.9,5.3,16.9,17.5,22.8,21Z"/>
      <path class="st4" d="M239,320c1.9-1.3,4.3-3.4,6.2-4.9,9.6-8,18.3-17.3,26.1-27,1.6-1.2,3.4-.6,5.2-.6.5.5-2.3,4.5-2.8,5.2-4.4,5.9-11.1,13-16.5,18.2s-11.5,10.5-17.9,14.7c.5-1.5.5-4.3-.3-5.6Z"/>
    </g>
    <path class="st3" d="M89.7,86.4c.4-.4,8.4-.3,9.6-.3,27,.4,54.6,0,80.3-9.1,5.5-1.9,10.7-4.6,15.3-8.2,1.3-1,3.7-3.9,5.3-3.8s6.6,5,8.7,6.4c15.5,10.4,47.8,14.3,66.3,14.8,9.7.3,19.9.1,29.7,0,1.7,0,4.7-1,5.8,1.2s.1,2.4.2,3.7c2.3,48.4-3.4,106.9-23.4,151.4-14.2,31.6-38.7,59.6-68.7,77.1-3.2,1.9-15,8.6-17.9,8.9s-1.1,0-1.6,0c-2.8-.3-12.7-5.9-15.6-7.6-39-22.7-65.3-57.3-78.9-100.1s-15.1-70.8-15.9-106.6c-.2-9.2.2-18.4.9-27.5ZM295.2,92.3c-19.6.6-40.1.2-59.3-4s-22.7-6.2-30.6-12.2-3.4-3.7-5-3.7-3.9,2.6-5.5,3.8c-16.4,12.5-49.6,15.9-69.7,16.4-6.6.2-13.2-.3-19.7-.1,1.1,3.1,3.9,5,6,7.4,28.9,32.6,57.8,65.1,86.4,97.9,1.2,1.2,2.3,2.9,3.9,1.1,29-32.5,57.4-65.5,86.4-97.9,2.5-2.8,5.8-5.1,7.1-8.7ZM302.8,163.1c-.5-.1-.6.2-.8.4-4.1,3.1-9.5,10.6-13.3,14.7-18,19.7-36.5,39.1-54.5,58.7-11,12-21.5,24.3-32.8,36-1.5,1.4-4.1-2-5.2-3.2-29.5-31.5-58.7-63.5-87.8-95.4-3.5-3.8-6.5-8.2-10.6-11.5-.2.4-.2,1.1-.2,1.6.4,9.8,3.5,23.7,5.7,33.5,11.5,52.1,42.3,101.5,92.6,123.6,2.8,1.2,4,2,7.1.8,5-1.8,12.4-6.3,17.1-9.2,45.4-28,68.5-71.5,78.8-122.9,1.8-9,3.4-18.1,4-27.2Z"/>
    <g>
      <path class="st2" d="M302.8,163.1c-.6,9.1-2.2,18.2-4,27.2-10.3,51.4-33.4,94.9-78.8,122.9-4.7,2.9-12.1,7.3-17.1,9.2s-4.3.4-7.1-.8c-50.3-22.1-81-71.5-92.6-123.6-2.2-9.8-5.3-23.7-5.7-33.5,0-.4,0-1.2.2-1.6,4.1,3.3,7.1,7.6,10.6,11.5,29.1,31.9,58.3,63.9,87.8,95.4,1.1,1.2,3.7,4.6,5.2,3.2,11.3-11.7,21.9-24,32.8-36,18.1-19.7,36.5-39,54.5-58.7s9.2-11.6,13.3-14.7.4-.5.8-.4ZM280.3,198.7c-.3,0-.6.3-.9.5l-8.7,9.5c-1.1,2.1,0,3.9,2.3,2.3,2.1-1.4,4.4-5.5,6.3-7.1s6.2,2.5,5.2,5-2.2,3.1-3,4c-9.3,11-19.7,21-28.9,32-1.5,1.2,1,3.7,2,3.1s3.1-3.9,3.8-4.6c7.7-8.6,15.6-17,23.2-25.7,3.5-4,9.6-7.9,5.5-13.6s-4.7-5.1-5.6-5.3-.8-.1-1.3,0ZM155.3,239.4c.8-.8.2-2.4-.5-3.1l-30.5-33.3c-6.3-5-13.6-.6-12.9,7.3s5.5,8,8.3,11c8,8.7,15.7,17.7,23.8,26.3,1.8,1.4,3.8-.2,2.9-2.3-.9-2-4.7-5.1-6.3-6.9-7.8-8.8-15.6-17.6-23.7-26-1.7-2.3-2.3-4.5.1-6.5s5.9.2,8.2,2.6c8.9,9.4,17.2,19.6,26.1,29,1,1,2.9,3.5,4.4,2ZM162.3,246.8c-.3,0-.6.3-.9.5-1.4,2-9.2,7.4-9.6,9.2s0,.9.3,1.3c7.6,8,14.6,16.8,22.2,24.8s8.6,9.2,11.1,10.4c7,3.2,14.3-4.1,10.4-10.7-2.5-4.3-10.3-11.2-14-15.3-5.5-6.1-10.8-12.5-16.5-18.5s-1.5-2-3-1.6ZM208.8,286.7c-.2-1.5,1.2-2.8,2.1-3.9,7.5-9.1,16.6-18.6,24.6-27.4s4.5-4.1,4.8-5.5-2-3.1-3.4-1.8c-9,11.4-20.6,21.5-29.5,32.9-1.9,2.4-4.3,6.7-1,9.1s6.1-.3,8.1-2.5c8.8-9.4,17-20,25.9-29.2.8-.8,3.4-3.9,4.5-2.2s-2,4.3-3,5.4c-4.5,5.3-9.6,10.2-14.3,15.4-4.2,4.6-10,10.4-13.6,15.3s-.2,5.6,2.2,3.4c4-3.7,8.4-9.7,12.1-13.9,5.5-6.1,11.8-12.3,16.9-18.6s5.7-7.2,1.2-10.2-6.9.9-9.5,3.6c-8.6,9-16.3,19-24.9,28-1,1-2,2.5-3.5,2.2Z"/>
      <path class="st3" d="M208.8,286.7c1.5.3,2.5-1.2,3.5-2.2,8.6-9,16.3-19,24.9-28,2.5-2.7,5.5-6.2,9.5-3.6s1.2,7.2-1.2,10.2c-5.1,6.3-11.4,12.5-16.9,18.6-3.8,4.2-8.1,10.2-12.1,13.9s-4.6-.2-2.2-3.4c3.6-4.8,9.4-10.6,13.6-15.3,4.7-5.2,9.8-10.1,14.3-15.4s3.8-4.1,3-5.4-3.7,1.4-4.5,2.2c-8.9,9.3-17.1,19.8-25.9,29.2-2,2.2-5.2,4.7-8.1,2.5s-.9-6.7,1-9.1c8.9-11.4,20.5-21.5,29.5-32.9,1.4-1.4,3.9-.2,3.4,1.8s-3.7,4.3-4.8,5.5c-8,8.8-17.1,18.3-24.6,27.4s-2.3,2.4-2.1,3.9Z"/>
      <path class="st3" d="M162.3,246.8c1.5-.3,2.1.6,3,1.6,5.7,5.9,11,12.4,16.5,18.5,3.7,4.1,11.5,11,14,15.3,3.8,6.6-3.4,13.9-10.4,10.7s-8.9-8-11.1-10.4c-7.6-8-14.5-16.8-22.2-24.8-.3-.4-.4-.8-.3-1.3.4-1.8,8.2-7.1,9.6-9.2.3-.2.6-.4.9-.5ZM156.5,256.3c-.8,1.2,10.6,12.3,11.9,13.7,4.9,5.3,9.6,11.1,14.5,16.2s4.7,5.6,8.2,3.2c3.8-2.5,1.2-6.5-1.1-8.9s-1.6-1.3-2.3-1.9c-8-8.7-15.7-17.7-23.7-26.3-.3-.3-.7-.6-1.1-.7-1.6-.3-4.9,4.1-6.5,4.7Z"/>
      <path class="st3" d="M155.3,239.4c-1.5,1.5-3.5-1-4.4-2-9-9.4-17.2-19.5-26.1-29s-4.8-5.5-8.2-2.6-1.9,4.2-.1,6.5c8.1,8.5,15.9,17.3,23.7,26,1.6,1.8,5.4,4.9,6.3,6.9,1,2.2-1.1,3.8-2.9,2.3-8.1-8.6-15.8-17.6-23.8-26.3-2.8-3-7.9-6.7-8.3-11-.7-7.9,6.6-12.3,12.9-7.3l30.5,33.3c.6.7,1.3,2.4.5,3.1Z"/>
      <path class="st0" d="M156.5,256.3c1.6-.6,4.9-5.1,6.5-4.7s.8.4,1.1.7c8,8.6,15.8,17.6,23.7,26.3s1.5,1.2,2.3,1.9c2.3,2.5,4.9,6.4,1.1,8.9-3.6,2.4-6-.9-8.2-3.2-5-5.2-9.7-10.9-14.5-16.2s-12.7-12.5-11.9-13.7Z"/>
      <path class="st3" d="M280.3,198.7c.5,0,.8-.1,1.3,0,.9.2,4.9,4.4,5.6,5.3,4.1,5.8-2,9.7-5.5,13.6-7.6,8.7-15.5,17.2-23.2,25.7-.7.8-3.3,4.3-3.8,4.6-1,.6-3.5-1.9-2-3.1,9.2-11,19.7-21.1,28.9-32,.8-.9,2.6-3,3-4,.9-2.4-3.1-6.8-5.2-5s-4.2,5.7-6.3,7.1c-2.3,1.6-3.5-.2-2.3-2.3l8.7-9.5c.3-.2.6-.4.9-.5Z"/>
    </g>
    <g>
      <path class="st5" d="M295.2,92.3c-1.4,3.6-4.7,5.9-7.1,8.7-29,32.4-57.4,65.4-86.4,97.9-1.6,1.8-2.7,0-3.9-1.1-28.6-32.8-57.5-65.3-86.4-97.9s-4.9-4.3-6-7.4c6.5-.1,13.1.3,19.7.1,20.1-.5,53.4-3.9,69.7-16.4,1.6-1.2,3.6-3.8,5.5-3.8s3.6,2.6,5,3.7c7.9,6,20.9,10.1,30.6,12.2,19.3,4.2,39.7,4.6,59.3,4ZM144.1,113.7c-3.6.3-6.3,1.2-6.7,5.4s1.1,6.5,5.2,6.9,10.1.3,13.4,0,4.6-1.9,4.9-4.6-.7-7-4.9-7.4c-2.9-.3-9-.4-11.9-.2ZM243.1,113.9c-4.6.7-5.8,7.6-2.6,10.6,1.1,1,2.5,1.3,3.9,1.4,3.3.3,10.2.3,13.4,0s4.4-2.1,4.6-4.6c.5-4.2-1-7-5.4-7.4s-10.9-.4-13.9,0ZM166.3,122.8c3.8,0,10.1-.5,13.5,0s2,2,3.1,2.7,2.1.7,3.2.6c.3-1.3-2.1-3.1-2-4s1.4-.7,1.8-2.2c.7-2.8-.9-5.5-3.9-5.8s-13.3-.4-16.8,0-1.8.6-1.8,1v11h2.2c0-1.1,0-2.2,0-3.4h.6ZM190.9,114.1c-1.5,0-2,.5-2.2,1.8-.4,2.6-.4,8.9,2.8,9.8s3.7.4,4.9.4c2.5.1,10.2.3,12.2-.4,3-1.2,3.1-6.8,2.8-9.5-.3-2.8-2.8-2.3-2.8-1.7v7.3c0,0-1,1-1.1,1.1-1.4.7-11,.6-13,.4s-2.2-.4-2.9-1.6-.6-1.3-.6-1.4v-6.3ZM234.2,122.8c0,1.1,0,2.2,0,3.4h2.2v-11.1c0-.4-1.3-.9-1.8-1-3.5-.4-13.2-.4-16.8,0s-4.6,3-3.9,5.8,1.8,2,1.8,2.2c.1,1-2.3,2.7-2,4,3.2,1.1,4.3-3,6.3-3.3,3.4-.5,9.8,0,13.5,0h.6Z"/>
      <path class="st3" d="M144.1,113.7c2.9-.2,9,0,11.9.2,4.2.4,5.3,3.6,4.9,7.4s-2.3,4.3-4.9,4.6-10.1.3-13.4,0-5.5-3-5.2-6.9,3-5.1,6.7-5.4ZM142.2,116.7c-3,.6-3,5.7,0,6.3s11.5.3,13.6,0c4.2-.6,3.5-5.7.2-6.3s-12.1-.4-13.9,0Z"/>
      <path class="st3" d="M243.1,113.9c3.1-.4,10.7-.4,13.9,0s5.9,3.2,5.4,7.4-2.2,4.3-4.6,4.6-10.1.3-13.4,0-2.8-.4-3.9-1.4c-3.2-2.9-2-9.9,2.6-10.6ZM243.7,116.7c-3.1.6-3.2,5.6-.2,6.2s12.2.4,14.1.1c3.3-.5,3.2-5.6.2-6.3s-12.5-.4-14.1,0Z"/>
      <path class="st3" d="M233.7,122.8c-3.8,0-10.1-.5-13.5,0s-3.1,4.4-6.3,3.3c-.3-1.3,2.1-3.1,2-4s-1.4-.7-1.8-2.2c-.7-2.8.9-5.5,3.9-5.8s13.3-.4,16.8,0,1.8.6,1.8,1v11h-2.2c0-1.1,0-2.2,0-3.4,0-2,0-4.1,0-6.2h-15.2c-2,0-3.9,2.2-1.7,3.4s15.8,0,16.4.5v2.2Z"/>
      <path class="st3" d="M165.7,122.8c0,1.1,0,2.2,0,3.4h-2.2v-11.1c0-.4,1.3-.9,1.8-1,3.5-.4,13.2-.4,16.8,0s4.6,3,3.9,5.8-1.8,2-1.8,2.2c-.1,1,2.3,2.7,2,4-1.1,0-2.2,0-3.2-.6s-1.5-2.5-3.1-2.7c-3.4-.5-9.8,0-13.5,0v-2.2c3.6-.6,13.6,1,16.4-.5s.2-3.4-1.7-3.4h-15.2c0,2,0,4.1,0,6.2Z"/>
      <path class="st3" d="M190.9,114.1v6.3c0,0,.5,1.2.6,1.4.7,1.1,1.6,1.4,2.9,1.6,2,.2,11.6.2,13-.4s1.1-1,1.1-1.1v-7.3c0-.6,2.5-1.1,2.8,1.7.3,2.7.3,8.3-2.8,9.5s-9.7.5-12.2.4-3.9-.2-4.9-.4c-3.2-.8-3.1-7.2-2.8-9.8s.8-1.9,2.2-1.8Z"/>
      <path class="st0" d="M233.7,122.8v-2.2c-.6-.6-14,.8-16.4-.5s-.2-3.4,1.7-3.4h15.2c0,2,0,4.1,0,6.2h-.6Z"/>
      <path class="st0" d="M165.7,122.8c0-2,0-4.1,0-6.2h15.2c2,0,3.9,2.2,1.7,3.4s-12.8-.1-16.4.5v2.2s-.6,0-.6,0Z"/>
      <path class="st0" d="M142.2,116.7c1.8-.4,12-.3,13.9,0,3.3.6,3.9,5.8-.2,6.3s-11.7.4-13.6,0c-3-.6-3-5.7,0-6.3Z"/>
      <path class="st0" d="M243.7,116.7c1.6-.3,12.6-.3,14.1,0,3.1.7,3.1,5.8-.2,6.3s-12.4.3-14.1-.1c-3-.7-2.9-5.6.2-6.2Z"/>
    </g>
  </g>
</svg>