<?xml version="1.0" encoding="UTF-8"?>
<svg id="Layer_1" xmlns="http://www.w3.org/2000/svg" version="1.1" viewBox="0 0 500 500">
  <!-- Generator: Adobe Illustrator 29.1.0, SVG Export Plug-In . SVG Version: 2.1.0 Build 142)  -->
  <defs>
    <style>
      .st0 {
        fill: #090300;
      }

      .st1 {
        fill: #ef6501;
      }

      .st2 {
        fill: #fefefe;
      }
    </style>
  </defs>
  <path class="st1" d="M433.6,78.4c-1.9,2.8-3.6,5.8-5.2,8.7s-2.1.6-2.1.7l-84.6-63.9c-49.8,41.4-132.6,40.7-182.5-.1L53.2,103.6c-3.8,83.4,13.6,168.2,57.8,239.2,28.4,45.7,67.4,84.2,109.7,117,3.9,3,26.3,20.4,28.8,20.6s2.5-.7,3.8-1.4c11.9-6.5,32.3-24,43.4-33.2,97-80.7,146.2-179.6,150.7-306.9.2-5.7,1-31.1-.2-34.5s-11-8.9-13.5-9.1c1.9-4.1,4-8.7,6.3-12.6l19.8,14.3c3.1,90.9-15.9,182.7-65.5,259.5-33,51.1-82.7,98.3-132.3,133.2-2.3,1.6-11.2,8.6-12.9,8.1-56.9-40.7-110.2-87.5-147.4-147.5-46.7-75.3-65.2-165.5-61-253.9L159.2,7c10.3,8.9,19.8,17.3,32.3,23.3,43.6,20.8,102.2,16.1,139.7-14.9s7.5-9,10.3-8.2c29.9,23.1,60.4,45.3,90.4,68.3,1.5,1.2,1.5,2.9,1.7,3Z"/>
  <path class="st0" d="M439.9,82.6c-2.3,3.9-4.4,8.4-6.3,12.6s-3.4,9.6-5.2,13.6-3.2,5-4.4,7.7c-13.3,29.7-26.4,59.5-39.6,89.3-1.9,2.4-4.6-4.2-6.4-6.1-2.2-2.4-9.7-8.2-9-11.1,15.1-26.2,30.7-51.9,45.9-78s2.9-7.1,4-9.1c3-5.2,4.4-7.7,7.3-13.6s1.6.2,2.1-.7c1.7-2.9,3.3-5.9,5.2-8.7,1.5,1.1,3.9,2.3,6.3,4.2Z"/>
  <path class="st2" d="M433.6,95.2c2.5.2,13,7.7,13.5,9.1,1.2,3.5.4,28.8.2,34.5-4.5,127.3-53.7,226.2-150.7,306.9-11.1,9.2-31.5,26.8-43.4,33.2-1.3.7-2,1.6-3.8,1.4s-25-17.6-28.8-20.6c-42.3-32.8-81.3-71.3-109.7-117-44.2-71-61.6-155.8-57.8-239.2L159.2,23.8c49.9,40.8,132.7,41.5,182.5.1l84.6,63.9c-3,6-4.3,8.4-7.3,13.6l-15.7-11.5c.2-.6-.2-2.3.2-3.4.8-1.9,5-9.1,3.9-10.3-1.9-2.1-4.8,6.8-5.4,7.7-.9,1.5-2.7,2.4-3,2.8l-59.3-45.2c-16.4,12.1-35.7,19.7-55.9,22.8-24.6,3.8-58.4,2.6-82.5-4s-28.5-11.1-42.1-18.8l-92.7,71c-2.2,71.2,10.6,143,44.8,205.7,32.3,59.4,82.9,105.2,137.4,144,2.3.6,5-2,6.9-3.2,14-8.9,31.4-23.5,44.2-34.5,87.7-75.1,130.1-167.8,133.9-283.8.2-6.5,1-21.8,0-27.3s-3.3-3.2-5.3-4.7c1.8-4,3.3-9.2,5.2-13.6Z"/>
  <path class="st1" d="M399,86.8c-.7,1.2-1.1,3.7-2.3,5.6-17.1,28-35,55.8-51.2,84.2,0,2.6,14.1,7.3,14.7,6.8,0-1.3.3-2.6.8-3.9,13.7-29.8,29.4-59.8,42.2-89.5l15.7,11.5c-1.2,2-2.4,6.3-4,9.1-15.2,26.1-30.9,51.9-45.9,78-.7,2.8,6.8,8.6,9,11.1,1.8,2,4.5,8.6,6.4,6.1,13.2-29.8,26.3-59.6,39.6-89.3,1.2-2.7,3.4-5.5,4.4-7.7,1.9,1.5,4.7,2,5.3,4.7,1.1,5.6.2,20.8,0,27.3-3.8,116-46.2,208.7-133.9,283.8-12.8,11-30.2,25.6-44.2,34.5-1.9,1.2-4.6,3.8-6.9,3.2-54.5-38.7-105.1-84.6-137.4-144-34.1-62.7-46.9-134.5-44.8-205.7l92.7-71c13.6,7.7,26.9,14.6,42.1,18.8,24.1,6.6,57.9,7.8,82.5,4,20.2-3.1,39.5-10.7,55.9-22.8l59.3,45.2ZM364.3,95.2c-2.2-.5-2.4,1.1-3.3,2.4-4.2,5.8-8.4,14-12.2,20.3-8.6,14.3-24.9,37.8-30.9,52s-1.1,2.4-.8,3.9c4-1.2,11.4,2.2,13.5-.6,9.4-22.3,21.8-44.5,30.7-66.9,1.4-3.6,3.5-7.2,3-11.2ZM252,121.3c.8-.9-.2-5.5-.6-7.1-2.3-8.1-10.6-15-19.3-13.4-28.1,5.3-22.1,76.1,8.4,64.1,8.2-3.2,10.6-12.1,12.6-19.8,0-.6-9.1-4.9-10.5-3.7-2.1,17.4-16.3,15.8-17.9-1.6-.8-8.8-1.2-28.4,12.1-25.7s5.2,8.8,5.8,9.4,9-1.8,9.3-2.2ZM112.3,101.6c-3.5,0-9-1.6-10.6,2.2l-15.5,61.6c2.4-.4,7.7.8,9.5-.5s2.2-12.5,4.1-13.8,14.1-1.1,15.7,1.2c4.4,6.3-1.4,15.9,13.7,13l-16.9-63.9ZM133.5,165.5h21.5c.3,0,5.8-1.5,6.5-1.9,8.7-3.7,10.2-17.2,7.1-25.4s-4.5-6.6-4.6-7c-.3-1.5,6.1-8.2,3.1-18.8s-6.7-11-13.2-11h-20.5v64ZM209,101.5h-32c-.1,0-1.6,1.5-1.6,1.6v60.9c0,.1,1.5,1.6,1.6,1.6h31.5c2.5,0,1.4-10.4,1.6-12.6h-24.1v-14.7h20.5c2.3,0,2.3-12.6,0-12.6h-20.5v-11.5h23.1v-12.6ZM298.2,165.5c-4.2-20.8-11.1-41.1-16.6-61.6-1.6-3.9-7-2.2-10.6-2.2l-16.9,63.9c2.3-.5,9,.8,10.4-.1s2.3-12.7,4.3-14.1,13.5-.9,14.8,0c2,1.3,3.1,13.3,4.3,14.1s8.1-.3,10.4.1ZM329.7,101.5h-35.7v12.6s12.6,0,12.6,0v51.4h10.5v-51.4h12.6s0-12.6,0-12.6ZM373.8,284.1c4.3-.8,7-8.1,8.6-11.9,22.3-52.3-26.3-105.6-79.6-90.1-1.7.5-2.6.4-3.5,2.3-1.6.4-3.6,1.5-5.2,2.1-14.8,5.4-28.3,19.8-34.1,34.6s-3.5,7.4-1.6,10.5c-.7,2.6-.9,3.5-1,6.3-3.2-.6-2,1.6-2.1,3.6-.7,18.8,5.8,36,18.3,49.9l6.9,5.2c.4.5,2.6,2.6,3.1,3.1,13.8,12.5,48.4,16.6,64.3,7.3,1.2-.7.7-2,.8-2.1.6-.3,2-.5,3.1-1s2.4,0,3.9-.8c5.4-2.7,13.4-9.3,16.1-14.9.4-.3.7-.7,1-1s.9-.6,1-1-.1-1.4,0-2.1ZM269.9,194.9l-36.7,4.2c-.8,1.2,10.5,18,12.1,21s3.3,9.1,3.7,9.5c1.7,1.8,1.8-.6,2.2-1.5,1-2.3,1.4-5.5,2.5-8,4.2-9.3,9.7-17.4,16.2-25.2ZM242.6,267.3c-2.7-24.7-11.3-51.1-31-67.2-5.9,2.5-24.6,2.1-28.9,4.7-3.5,2.2.6,2.7,1.6,3.7,14.6,13.8,28.2,31.8,30.4,52.6l27.9,6.2ZM134.3,208.8c-7.6.5-18.9,1.7-26.2,3.1-18.1,3.5-6.2,16.1,2.3,23.3,23.9,20.2,54.6,21.4,83.6,28.8,9.1-1.5,3-12,.2-17.1-6.7-12-22.1-31.4-35.1-36.3-8.3-3.1-16.1-2.5-24.7-1.9ZM141.6,320c-14.5,1.6-13.8,28.1,5.8,23.7,10.8-2.4,9.6-25.4-5.8-23.7ZM243.4,320c-14.8,1.3-14.9,26.9,3.8,23.9s10.4-25.1-3.8-23.9ZM330.8,325c3.3-2.8,11.6,6.4,12.6,1.5,1.7-8.5-21.8-9-17.1,2.3s13.1,2.6,11.8,10.8c-6.3,1.9-6.3-2.4-8.4-3.7-4.2-2.6-5.3.5-3.4,4.5,3.6,7.7,23.1,3,16.9-7.4-2.9-4.8-11.4-2.3-12.4-8.1ZM162.9,320.8h-5.2v18.4c0,5.2,13.6,6.2,16.5,3.4s2.4-4.2,2.4-4.5v-17.3h-5.2v16.3c0,3.2-8.4,3.2-8.4,0v-16.3ZM190.1,335.5c-5.5-4.1-2-16.8-11.5-14.7,1.5,2.9,6.5,22.2,7.4,23s5.6.4,6.3-.5,8.1-21.7,7.2-22.5c-1.4.2-4.1-.5-5.1.1s-4.2,12.5-4.4,14.5ZM206.9,320.8h-5.2v23.1h5.2v-23.1ZM211.1,320.8v23.1c12.4.7,20.3.4,19-14.2-1-11.3-10.4-8.7-19-8.9ZM273.6,320.8c-4.1-.9-10.7.6-15.2,0v23.1h5.3c.3-1.6-.7-9.4.5-9.5,7.8-.5,6,12.7,15.2,9.5.8-.7-4.9-9.2-6.3-10,6.4-1.8,6.9-11.7.5-13.1ZM299.3,320.8c-.6-.6-15.3.5-17.8,0v23.1h17.8c1.9-7.8-7.6-2.3-12.6-4.8v-4.6c1.1-1.2,14.9,3.1,11-5.3-5.1-.8-12.7,2.9-11-4.2,2-.3,12.2.4,12.6,0s.1-4,0-4.2ZM303.5,320.8v23.1c0,.2,4,.1,4.2,0,.5-.5-.4-11.5,0-13.6,2.7,1,7.7,13,8.6,13.5s3.6,0,5.1.2v-23.1c0-.2-4-.1-4.2,0-.5.5.4,11.5,0,13.6-5.5-3.9-5.6-15.7-13.6-13.6ZM365.4,320.8h-17.8v23.1h17.8c1.9-7.8-7.6-2.3-12.6-4.8v-4.6c2.6-.5,11.6,1.7,11.6-2.6,0-6-14.6,1.6-11.6-6.8,1.2-1.3,14.4,3,12.6-4.2Z"/>
  <path class="st0" d="M399,86.8c.2-.4,2.1-1.3,3-2.8s3.5-9.9,5.4-7.7-3.2,8.4-3.9,10.3,0,2.8-.2,3.4c-12.8,29.8-28.5,59.8-42.2,89.5-.6,1.2-.9,2.5-.8,3.9-.6.6-14.8-4.2-14.7-6.8,16.3-28.4,34.2-56.2,51.2-84.2,1.2-1.9,1.6-4.4,2.3-5.6Z"/>
  <path class="st0" d="M373.8,284.1c1-6.9-1.1-15.7-2.3-22.8-.9-.9-22-3.7-24.5-3.5-2.8.3-5.9,3.4-8.3,5.3s-12.6,10.7-13,12.3l3,23.7c1.4,2.3,17.2,2.7,20,6,0,0,.4,1.4-.8,2.1-15.9,9.3-50.5,5.2-64.3-7.3,7.8.6,15.4,8.5,23.6,8.4s16.4-6.9,17.3-7.9,1.1-1.7,1.1-3.1c0-2.3-2.8-21.5-3.5-22.3s-23-11.7-24.4-11.7c-4.9-.1-15.3,7.6-20.9,8.2-.9.6-1,17.3-.6,19.5.7,3.3,2.8,2.6,3.9,4s.2,1.6.3,1.8l-6.9-5.2c-12.5-13.9-19-31.1-18.3-49.9,0-2-1.1-4.2,2.1-3.6-.2,3-.5,10.2.5,12.6,4.6,3.4,11.7,15.2,16.3,17.3s16-6.6,21-7.4l1.1-2.1c-1.3-7.3,3.8-20.6,1.9-27.1-.4-1.2-14.4-18.6-15.6-19.1-2-.9-18.5,5.7-19.6,7.1s-4.1,10.9-4.5,12.3c-1.9-3,.4-7.4,1.6-10.5,5.8-14.9,19.3-29.2,34.1-34.6-1.4,4.5-8.8,18.5-8.2,22.3.3,2,14.7,20,16.3,20.5l27.4-2.1c2-7.4,9.3-16,11.2-22.9s.9-2.8,0-4.2c-3.6-2.5-13.2-17.9-15.9-18.7s-3.4-.3-5-.2c-5.9.2-14.8,1.7-20.5,3.1.8-1.9,1.8-1.8,3.5-2.3,53.4-15.5,102,37.8,79.6,90.1-1.6,3.8-4.3,11.1-8.6,11.9ZM374.5,208.8c-2.1-1.5-23.4-4-26.5-3.5s-1.6.8-2.5,1.7c-1.6,1.6-12.6,21.4-12.5,22.8,3.3,3.7,10.6,21.3,13.5,23.2s23.2,4.2,25.4,3.5,12.2-14.1,12.8-15.6c2.2-5.5-5.8-29-10.2-32.2Z"/>
  <path class="st0" d="M134.3,208.8c8.7-.6,16.5-1.2,24.7,1.9,13,4.9,28.4,24.2,35.1,36.3s8.9,15.5-.2,17.1c-29-7.4-59.7-8.6-83.6-28.8-8.5-7.2-20.4-19.9-2.3-23.3,7.4-1.4,18.7-2.6,26.2-3.1Z"/>
  <path class="st2" d="M299.3,184.4c5.7-1.4,14.6-2.9,20.5-3.1s3.4-.3,5,.2c2.7.9,12.3,16.3,15.9,18.7,1,1.4.5,2.7,0,4.2-1.9,6.9-9.3,15.5-11.2,22.9l-27.4,2.1c-1.6-.5-16-18.5-16.3-20.5-.6-3.8,6.8-17.8,8.2-22.3,1.7-.6,3.6-1.7,5.2-2.1Z"/>
  <path class="st0" d="M242.6,267.3l-27.9-6.2c-2.2-20.7-15.8-38.7-30.4-52.6-1-.9-5-1.5-1.6-3.7,4.2-2.6,23-2.2,28.9-4.7,19.6,16.1,28.3,42.5,31,67.2Z"/>
  <path class="st2" d="M257.3,237.9c.2-2.8.4-3.7,1-6.3s4.1-11.8,4.5-12.3c1.2-1.4,17.6-8.1,19.6-7.1s15.2,18,15.6,19.1c2,6.5-3.2,19.8-1.9,27.1l-1.1,2.1c-5,.8-16.9,9.2-21,7.4s-11.7-13.9-16.3-17.3c-1.1-2.4-.7-9.6-.5-12.6Z"/>
  <path class="st2" d="M348.6,305.1c-2.8-3.3-18.6-3.7-20-6l-3-23.7c.4-1.6,10.9-10.6,13-12.3s5.5-5,8.3-5.3c2.5-.3,23.6,2.6,24.5,3.5,1.2,7.1,3.4,15.9,2.3,22.8s.2,1.7,0,2.1l-1,1c-.3.3-.7.8-1,1s-1.7,0-2.6,1c-5.7,5.2-11.3,9.8-17.3,14.8-1.1.6-2.5.7-3.1,1Z"/>
  <path class="st0" d="M133.5,165.5v-64h20.5c6.4,0,11.5,5,13.2,11,3,10.6-3.4,17.3-3.1,18.8s3.7,4.6,4.6,7c3.1,8.2,1.6,21.7-7.1,25.4s-6.2,1.9-6.5,1.9h-21.5ZM157.4,115.4c-2.4-2.4-11-.9-14.4-1.3v12.6c5.6-.2,14.9,1.8,15.7-5.9s-.2-4.4-1.3-5.4ZM142.9,152.9c23.4,4.5,22.9-18.9,0-14.7v14.7Z"/>
  <path class="st2" d="M280.4,296.7c-.1-.2.2-1.2-.3-1.8-1.1-1.4-3.2-.7-3.9-4s-.2-18.9.6-19.5c5.6-.6,16.1-8.3,20.9-8.2s23.5,10.7,24.4,11.7,3.5,20,3.5,22.3-.1,2-1.1,3.1-15.6,7.9-17.3,7.9c-8.2.1-15.9-7.8-23.6-8.4-.6-.5-2.7-2.6-3.1-3.1Z"/>
  <path class="st0" d="M209,101.5v12.6h-23.1v11.5h20.5c2.3,0,2.3,12.6,0,12.6h-20.5v14.7h24.1c-.2,2.2.9,12.6-1.6,12.6h-31.5c-.1,0-1.6-1.5-1.6-1.6v-60.9c0-.1,1.5-1.6,1.6-1.6h32Z"/>
  <path class="st0" d="M298.2,165.5c-2.3-.5-9,.8-10.4-.1s-2.3-12.7-4.3-14.1-13.4-.9-14.8,0c-2,1.3-3.1,13.3-4.3,14.1s-8.1-.3-10.4.1l16.9-63.9c3.6,0,9-1.6,10.6,2.2,5.5,20.5,12.4,40.8,16.6,61.6ZM280.4,139.3c.8-.8-2.5-16.4-5.2-17.8-.2,6.1-3.9,11.6-3.2,17.8h8.4Z"/>
  <path class="st0" d="M112.3,101.6l16.9,63.9c-15.2,2.8-9.3-6.8-13.7-13-1.6-2.3-14.1-2.3-15.7-1.2s-2.2,12.5-4.1,13.8-7.1,0-9.5.5l15.5-61.6c1.6-3.8,7-2.2,10.6-2.2ZM108.3,121.4c-1.7-1.9-1.8.3-2.1,1.6-.5,2.4-4,15.4-3.2,16.3h9.4c-1.2-2.5-3.5-17.1-4.2-17.8Z"/>
  <path class="st0" d="M252,121.3c-.3.4-9,2.5-9.3,2.2-.6-.6-.6-8.4-5.8-9.4-13.3-2.6-12.9,17-12.1,25.7,1.6,17.3,15.8,19,17.9,1.6,1.4-1.2,10.4,3.1,10.5,3.7-2,7.7-4.5,16.6-12.6,19.8-30.6,12-36.5-58.8-8.4-64.1s17,5.3,19.3,13.4,1.4,6.2.6,7.1Z"/>
  <polygon class="st0" points="329.7 101.5 329.7 114.1 317.1 114.1 317.1 165.5 306.6 165.5 306.6 114.1 294 114.1 294 101.5 329.7 101.5"/>
  <path class="st0" d="M364.3,95.2c.5,4-1.5,7.6-3,11.2-8.9,22.4-21.4,44.5-30.7,66.9-2.1,2.9-9.5-.5-13.5.6-.3-1.5.3-2.6.8-3.9,6-14.2,22.3-37.7,30.9-52,3.8-6.3,8-14.6,12.2-20.3s1.1-2.9,3.3-2.4Z"/>
  <path class="st0" d="M269.9,194.9c-6.5,7.8-12.1,15.9-16.2,25.2s-1.5,5.7-2.5,8-.5,3.3-2.2,1.5-2.4-7.2-3.7-9.5-12.9-19.8-12.1-21l36.7-4.2Z"/>
  <path class="st0" d="M273.6,320.8c6.4,1.4,5.9,11.3-.5,13.1,1.4.8,7,9.3,6.3,10-9.2,3.3-7.4-10-15.2-9.5-1.2,0-.2,7.9-.5,9.5h-5.3v-23.1c4.5.6,11.1-.9,15.2,0ZM271.8,330.1c.6-.4,1.8-3.6.2-4.6s-6.1-.2-8.4-.5v5.3c2-.4,6.9.7,8.2-.2Z"/>
  <path class="st0" d="M243.4,320c14.3-1.2,16.3,21.8,3.8,23.9-18.8,3-18.6-22.6-3.8-23.9ZM248.7,338.4c2.3-2.3,2.7-12.4-2.4-13.4-14.6-2.8-6.7,22.4,2.4,13.4Z"/>
  <path class="st0" d="M141.6,320c15.4-1.7,16.6,21.3,5.8,23.7-19.6,4.4-20.3-22.1-5.8-23.7ZM140.5,325.2c-5.7,1.7-5.4,17.3,4.8,14.3,6.2-1.8,6.3-17.7-4.8-14.3Z"/>
  <path class="st0" d="M299.3,320.8c.1.2.1,4,0,4.2-.4.5-10.6-.3-12.6,0-1.8,7.1,5.8,3.4,11,4.2,3.9,8.4-9.8,4.1-11,5.3v4.6c5,2.5,14.5-3,12.6,4.8h-17.8v-23.1c2.6.5,17.2-.6,17.8,0Z"/>
  <path class="st0" d="M365.4,320.8c1.8,7.2-11.4,2.9-12.6,4.2-3.1,8.4,11.6.8,11.6,6.8,0,4.3-9,2.1-11.6,2.6v4.6c5,2.5,14.5-3,12.6,4.8h-17.8v-23.1h17.8Z"/>
  <path class="st0" d="M330.8,325c.9,5.8,9.5,3.2,12.4,8.1,6.2,10.5-13.3,15.1-16.9,7.4-1.9-3.9-.8-7.1,3.4-4.5s2.1,5.5,8.4,3.7c1.2-8.2-8.7-3.4-11.8-10.8-4.8-11.4,18.8-10.8,17.1-2.3-1,4.8-9.3-4.3-12.6-1.5Z"/>
  <path class="st0" d="M303.5,320.8c8-2,8.1,9.7,13.6,13.6.4-2.1-.5-13.2,0-13.6s4.2-.2,4.2,0v23.1c-1.5-.2-4,.5-5.1-.2s-5.8-12.5-8.6-13.5c-.4,2.1.5,13.2,0,13.6s-4.2.2-4.2,0v-23.1Z"/>
  <path class="st0" d="M211.1,320.8c8.6.1,17.9-2.4,19,8.9,1.3,14.6-6.6,14.9-19,14.2v-23.1ZM215.3,339.7c14.3,2.9,14.3-17.6,0-14.7v14.7Z"/>
  <path class="st0" d="M162.9,320.8v16.3c0,3.2,8.4,3.2,8.4,0v-16.3h5.2v17.3c0,.3-2.2,4.3-2.4,4.5-2.9,2.8-16.5,1.8-16.5-3.4v-18.4h5.2Z"/>
  <path class="st0" d="M190.1,335.5c.2-2.1,3.7-14.1,4.4-14.5,1-.6,3.7,0,5.1-.1.9.8-6.5,21.5-7.2,22.5s-5.7,1-6.3.5c-.9-.8-6-20.1-7.4-23,9.6-2.1,6,10.6,11.5,14.7Z"/>
  <rect class="st0" x="201.7" y="320.8" width="5.2" height="23.1"/>
  <path class="st0" d="M371.7,288.3c-2.6,5.6-10.7,12.2-16.1,14.9-1.5.7-3.3.5-3.9.8,6-4.9,11.6-9.5,17.3-14.8,1-.9,2.3-.8,2.6-1Z"/>
  <path class="st0" d="M372.7,287.2l1-1c-.2.4-.7.7-1,1Z"/>
  <path class="st2" d="M374.5,208.8c4.5,3.2,12.5,26.7,10.2,32.2s-11.5,15.2-12.8,15.6c-2.3.7-23.6-2.2-25.4-3.5-2.8-1.9-10.2-19.5-13.5-23.2-.1-1.4,10.9-21.3,12.5-22.8s.9-1.4,2.5-1.7c3-.6,24.4,1.9,26.5,3.5Z"/>
  <path class="st1" d="M142.9,152.9v-14.7c22.9-4.2,23.4,19.2,0,14.7Z"/>
  <path class="st1" d="M157.4,115.4c1.1,1.1,1.4,3.9,1.3,5.4-.8,7.7-10.2,5.7-15.7,5.9v-12.6c3.4.4,12.1-1.1,14.4,1.3Z"/>
  <path class="st1" d="M280.4,139.3h-8.4c-.8-6.3,3-11.7,3.2-17.8,2.7,1.4,6,17,5.2,17.8Z"/>
  <path class="st1" d="M108.3,121.4c.7.8,3,15.4,4.2,17.8h-9.4c-.8-.8,2.6-13.8,3.2-16.3s.3-3.4,2.1-1.6Z"/>
  <path class="st1" d="M271.8,330.1c-1.4.8-6.2-.2-8.2.2v-5.3c2.4.3,6.5-.7,8.4.5s.4,4.2-.2,4.6Z"/>
  <path class="st1" d="M248.7,338.4c-9.1,9.1-17.1-16.2-2.4-13.4,5.1,1,4.7,11.1,2.4,13.4Z"/>
  <path class="st1" d="M140.5,325.2c11.2-3.4,11,12.4,4.8,14.3-10.2,3-10.5-12.5-4.8-14.3Z"/>
  <path class="st1" d="M215.3,339.7v-14.7c14.3-2.9,14.3,17.6,0,14.7Z"/>
</svg>