<?xml version="1.0" encoding="utf-8"?>
<!-- Generator: Adobe Illustrator 27.7.0, SVG Export Plug-In . SVG Version: 6.00 Build 0)  -->
<svg version="1.1" id="Layer_1" xmlns="http://www.w3.org/2000/svg" xmlns:xlink="http://www.w3.org/1999/xlink" x="0px" y="0px"
	 viewBox="0 0 1182 1182" style="enable-background:new 0 0 1182 1182;" xml:space="preserve">
<style type="text/css">
	.st0{fill:none;stroke:#FBE389;stroke-width:2;}
	.st1{fill:none;stroke:#907B42;stroke-width:2;}
	.st2{fill:#F7C712;}
	.st3{fill:#292F71;}
</style>
<g>
	<path vector-effect="non-scaling-stroke" class="st0" d="M1165.5,591c0-317.3-257.2-574.5-574.5-574.5c0,0,0,0,0,0
		C273.7,16.5,16.5,273.7,16.5,591c0,0,0,0,0,0c0,317.3,257.2,574.5,574.5,574.5l0,0C908.3,1165.5,1165.5,908.3,1165.5,591"/>
	<path vector-effect="non-scaling-stroke" class="st1" d="M1149.9,591c0-308.7-250.2-558.9-558.9-558.9c0,0,0,0,0,0
		C282.3,32.1,32.1,282.3,32.1,591c0,0,0,0,0,0c0,308.7,250.2,558.9,558.9,558.9l0,0C899.7,1149.9,1149.9,899.7,1149.9,591
		C1149.9,591,1149.9,591,1149.9,591"/>
	<path vector-effect="non-scaling-stroke" class="st1" d="M1139.7,591c0-303.1-245.7-548.7-548.7-548.7
		C287.9,42.3,42.3,287.9,42.3,591c0,303.1,245.7,548.7,548.7,548.7S1139.7,894.1,1139.7,591"/>
	<path vector-effect="non-scaling-stroke" class="st1" d="M1127.1,591c0-296.1-240-536.1-536.1-536.1c0,0,0,0,0,0
		c-296.1,0-536.1,240-536.1,536.1c0,0,0,0,0,0c0,296.1,240,536.1,536.1,536.1l0,0C887.1,1127.1,1127.1,887.1,1127.1,591"/>
	<path vector-effect="non-scaling-stroke" class="st1" d="M555.5,105.7c0.2,0,0.3,0.1,0.3,0.3c0,0,0,0,0,0l1.5,45.7
		c0,0.2-0.1,0.3-0.3,0.3c0,0,0,0,0,0l-7,0.2c-0.2,0-0.3,0.2-0.3,0.3c0,0,0,0,0,0l0.4,14.6c0,0.2,0.2,0.3,0.3,0.3c0,0,0,0,0,0l29-0.8
		c0.2,0,0.3-0.2,0.3-0.3c0,0,0,0,0,0l-0.4-14.8c0-0.2-0.2-0.3-0.3-0.3c0,0,0,0,0,0l-6,0.3c-0.2,0-0.3-0.1-0.3-0.3l-0.5-14.9
		c0-0.2,0.1-0.3,0.3-0.3c0,0,0,0,0,0l14.9-0.5c0.2,0,0.3,0.1,0.3,0.3c0,0,0,0,0,0l0.4,14.9c0,0.2-0.1,0.3-0.3,0.3c0,0,0,0,0,0
		l-5.9,0.1c-0.2,0-0.3,0.2-0.3,0.3c0,0,0,0,0,0l0.5,14.7c0,0.2,0.2,0.3,0.3,0.3c0,0,0,0,0,0l29-0.8c0.2,0,0.3-0.2,0.3-0.3
		c0,0,0,0,0,0l-0.5-14.8c0-0.2-0.2-0.3-0.3-0.3c0,0,0,0,0,0l-7.1,0.3c-0.2,0-0.3-0.1-0.3-0.3c0,0,0,0,0,0l-0.6-18.1
		c0-0.1,0-0.2-0.1-0.2l-4.4-4.2c-0.1-0.1-0.1-0.3,0-0.5l4.2-4.4c0.1-0.1,0.1-0.1,0.1-0.2l-0.7-21.4c0-0.1,0-0.2-0.1-0.2l-12.5-11.7
		c-0.1-0.1-0.1-0.1-0.2-0.1l-41,1.3c-0.2,0-0.3,0.2-0.3,0.3c0,0,0,0,0,0l0.4,14.7c0,0.2,0.2,0.3,0.3,0.3c0,0,0,0,0,0L555.5,105.7"/>
	<path vector-effect="non-scaling-stroke" class="st1" d="M678.9,159.1c0,0.2-0.1,0.4-0.3,0.4c0,0-0.1,0-0.1,0l-5.7-1
		c-0.2,0-0.4,0.1-0.4,0.3l-2.6,14.4c0,0.2,0.1,0.4,0.3,0.4l28.4,5.2c0.2,0,0.4-0.1,0.4-0.3l2.6-14.4c0-0.2-0.1-0.4-0.3-0.4l-6.9-1.3
		c-0.2,0-0.3-0.2-0.3-0.3l-4.1-62.9c0-0.2-0.1-0.3-0.3-0.3l-14.5-2.7c-0.2,0-0.3,0.1-0.4,0.2l-26,57.5c-0.1,0.2-0.2,0.2-0.4,0.2
		l-6.9-1.3c-0.2,0-0.4,0.1-0.4,0.3c0,0,0,0,0,0l-2.6,14.4c0,0.2,0.1,0.4,0.3,0.4l28.4,5.2c0.2,0,0.4-0.1,0.4-0.3l2.6-14.4
		c0-0.2-0.1-0.4-0.3-0.4l-5.7-1c-0.2,0-0.3-0.2-0.3-0.4c0,0,0-0.1,0-0.1l3-6.7c0.1-0.2,0.2-0.2,0.4-0.2l10.9,2
		c0.2,0,0.3,0.2,0.3,0.3L678.9,159.1"/>
	<path vector-effect="non-scaling-stroke" class="st1" d="M476.8,166.1c0,0.2-0.1,0.4-0.3,0.4l-6.8,1.5c-0.2,0-0.3,0.2-0.3,0.4
		l3.2,14.3c0,0.2,0.3,0.3,0.5,0.3c0,0,0,0,0,0l40.1-9.2c0.1,0,0.2-0.1,0.2-0.2l9.1-14.5c0.1-0.1,0.1-0.2,0-0.3L510.9,108
		c0-0.1-0.1-0.2-0.2-0.2l-14.5-9c-0.1-0.1-0.2-0.1-0.3,0l-40,9.1c-0.2,0-0.3,0.3-0.3,0.5c0,0,0,0,0,0l3.2,14.2
		c0,0.2,0.3,0.3,0.5,0.3c0,0,0,0,0,0l6.8-1.5c0.2,0,0.4,0.1,0.5,0.3c0,0,0,0,0,0L476.8,166.1"/>
	<path vector-effect="non-scaling-stroke" class="st1" d="M751.9,132.3c0.2,0.1,0.3,0.3,0.2,0.5l-17.6,45.6c0,0.1,0,0.2,0,0.3
		l6.9,15.6c0,0.1,0.1,0.2,0.2,0.2l19.8,7.7c0.1,0,0.2,0,0.3,0l15.6-6.9c0.1,0,0.2-0.1,0.2-0.2l17.6-45.6c0.1-0.2,0.3-0.3,0.5-0.2
		c0,0,0,0,0,0l6.4,2.5c0.2,0.1,0.5,0,0.5-0.2c0,0,0,0,0,0l5.2-13.5c0.1-0.2,0-0.5-0.2-0.5l-26.9-10.4c-0.2-0.1-0.5,0-0.5,0.2
		l-5.2,13.6c-0.1,0.2,0,0.5,0.2,0.5l5.4,2c0.2,0.1,0.3,0.3,0.2,0.5l-16.4,42.5c-0.1,0.2-0.3,0.3-0.5,0.2l-13.7-5.3
		c-0.2-0.1-0.3-0.3-0.2-0.5c0,0,0,0,0,0l16.4-42.5c0.1-0.2,0.3-0.3,0.5-0.2c0,0,0,0,0,0l5.4,2.1c0.2,0.1,0.5,0,0.5-0.2c0,0,0,0,0,0
		l5.2-13.5c0.1-0.2,0-0.5-0.2-0.5c0,0,0,0,0,0l-26.9-10.4c-0.2-0.1-0.4,0-0.5,0.2l-5.2,13.5c-0.1,0.2,0,0.5,0.2,0.5L751.9,132.3"/>
	<path vector-effect="non-scaling-stroke" class="st1" d="M411.9,168.2l-38.3-29.6c-0.2-0.2-0.5-0.2-0.8-0.1l-20.3,9.3
		c-0.1,0.1-0.2,0.2-0.1,0.3c0,0,0,0,0,0l6.1,13.4c0.1,0.2,0.3,0.3,0.5,0.2c0,0,0,0,0,0l6.1-2.8c0.4-0.2,0.7-0.1,0.9,0.3l18.8,41
		c0.2,0.3,0,0.7-0.3,0.9c0,0,0,0,0,0l-6,2.7c-0.3,0.1-0.4,0.4-0.3,0.7l5.9,12.9c0.2,0.4,0.4,0.4,0.8,0.3l27.3-12.5
		c0.1,0,0.1-0.1,0.1-0.2c0,0,0,0,0,0l-6.1-13.3c-0.1-0.3-0.4-0.4-0.7-0.3l-6.3,2.9c-0.1,0.1-0.3,0-0.3-0.1c0,0,0,0,0,0l-11.4-24.9
		c-0.4-0.8-0.2-0.9,0.5-0.4l38.2,29.5c0.2,0.2,0.6,0.2,0.8,0.1l13.1-5.9c0.3-0.1,0.4-0.4,0.2-0.7l-25.3-55.2c-0.1-0.3,0-0.6,0.3-0.8
		c0,0,0,0,0,0l5.9-2.7c0.3-0.1,0.5-0.5,0.3-0.8c0,0,0,0,0,0l-5.9-12.9c-0.1-0.2-0.4-0.4-0.7-0.2l-27.1,12.4
		c-0.3,0.1-0.4,0.3-0.2,0.6l5.9,12.9c0.2,0.4,0.5,0.5,0.8,0.3l6-2.7c0.3-0.1,0.5-0.1,0.7,0.3l11.4,24.8
		C412.6,168.5,412.5,168.6,411.9,168.2"/>
	<path vector-effect="non-scaling-stroke" class="st1" d="M837.2,224.5c-0.1,0.2-0.4,0.3-0.6,0.2c0,0,0,0,0,0l-12.3-7.8
		c-0.2-0.1-0.3-0.4-0.1-0.6l3.6-5.7c0.1-0.2,0.1-0.5-0.1-0.6c0,0,0,0,0,0l-12.1-7.7c-0.2-0.1-0.5-0.1-0.6,0.1l-5.4,8.5
		c-0.1,0.1-0.1,0.2-0.1,0.4l3.7,16.6c0,0.1,0.1,0.2,0.2,0.3l17.9,11.4c0.1,0.1,0.2,0.1,0.4,0.1l16.7-3.7c0.1,0,0.2-0.1,0.3-0.2
		l11.3-17.9c0.1-0.1,0.1-0.2,0.1-0.4l-3.9-16.8c0-0.1-0.1-0.2-0.2-0.3l-14.9-9.4c-0.2-0.1-0.3-0.4-0.2-0.6c0,0,0,0,0,0l7.8-12.4
		c0.1-0.2,0.4-0.3,0.6-0.2c0,0,0,0,0,0l12.3,7.8c0.2,0.1,0.3,0.4,0.2,0.6c0,0,0,0,0,0l-3.6,5.7c-0.1,0.2-0.1,0.5,0.1,0.6
		c0,0,0,0,0,0l12.2,7.7c0.2,0.1,0.5,0.1,0.6-0.1c0,0,0,0,0,0l5.4-8.5c0.1-0.1,0.1-0.2,0.1-0.4l-3.7-16.6c0-0.1-0.1-0.2-0.2-0.3
		l-17.9-11.3c-0.1-0.1-0.2-0.1-0.4-0.1l-16.6,3.7c-0.1,0-0.2,0.1-0.3,0.2l-11.3,17.9c-0.1,0.1-0.1,0.2-0.1,0.4l3.7,16.6
		c0,0.1,0.1,0.2,0.2,0.3l15.1,9.6c0.2,0.1,0.3,0.4,0.2,0.6c0,0,0,0,0,0L837.2,224.5"/>
	<path vector-effect="non-scaling-stroke" class="st1" d="M334.5,232.3c0.2,0.1,0.2,0.4,0,0.5c0,0,0,0-0.1,0.1l-4.7,3.4
		c-0.2,0.1-0.2,0.4-0.1,0.5c0,0,0,0,0,0l8.5,11.8c0.1,0.2,0.4,0.2,0.5,0.1c0,0,0,0,0,0l23.4-16.9c0.2-0.1,0.2-0.4,0.1-0.5
		c0,0,0,0,0,0l-8.5-11.8c-0.1-0.2-0.4-0.2-0.5-0.1c0,0,0,0,0,0l-5.7,4.1c-0.1,0.1-0.3,0.1-0.5,0l-48.2-40.7c-0.1-0.1-0.3-0.1-0.5,0
		l-12,8.6c-0.1,0.1-0.2,0.3-0.1,0.4l23.4,58.6c0.1,0.2,0,0.4-0.1,0.5l-5.7,4.1c-0.2,0.1-0.2,0.4-0.1,0.5c0,0,0,0,0,0l8.5,11.8
		c0.1,0.2,0.4,0.2,0.5,0.1c0,0,0,0,0,0l23.5-16.9c0.2-0.1,0.2-0.4,0.1-0.5c0,0,0,0,0,0l-8.5-11.8c-0.1-0.2-0.4-0.2-0.5-0.1
		c0,0,0,0,0,0l-4.7,3.4c-0.2,0.1-0.4,0.1-0.5-0.1c0,0,0-0.1,0-0.1l-2.7-6.8c-0.1-0.2,0-0.3,0.1-0.4l8.9-6.4c0.1-0.1,0.3-0.1,0.5,0
		L334.5,232.3"/>
	<path vector-effect="non-scaling-stroke" class="st1" d="M989,591c0-219.8-178.2-398-398-398c-219.8,0-398,178.2-398,398l0,0
		c0,219.8,178.2,398,398,398S989,810.8,989,591"/>
	<path vector-effect="non-scaling-stroke" class="st1" d="M984.2,344.4c0-0.2,0.1-0.4,0.4-0.4c0.1,0,0.1,0,0.2,0l7.5,3.3
		c0.1,0.1,0.3,0,0.4,0l17.2-12.4c0.1-0.1,0.1-0.2,0.2-0.3l2.7-16.9c0-0.1,0-0.2-0.1-0.3l-24-33.3c-0.1-0.2-0.4-0.2-0.6-0.1
		l-11.8,8.5c-0.2,0.1-0.2,0.4-0.1,0.6l4.1,5.6c0.1,0.2,0.1,0.4-0.1,0.6l-37,26.7c-0.2,0.1-0.4,0.1-0.6-0.1l-4-5.6
		c-0.1-0.2-0.4-0.2-0.6-0.1l-11.8,8.5c-0.2,0.1-0.2,0.4-0.1,0.6l24,33.3c0.1,0.1,0.2,0.1,0.3,0.2l16.8,2.7c0.1,0,0.2,0,0.3-0.1
		l17.2-12.4c0.1-0.1,0.2-0.2,0.2-0.4L984.2,344.4"/>
	<path vector-effect="non-scaling-stroke" class="st1" d="M214.4,362c0.2,0.1,0.2,0.3,0.1,0.5c0,0,0,0,0,0l-7.4,12.8
		c-0.1,0.2-0.3,0.2-0.5,0.1c0,0,0,0,0,0l-12.8-7.4c-0.2-0.1-0.2-0.3-0.1-0.5c0,0,0,0,0,0l7.3-12.8c0.1-0.2,0-0.4-0.1-0.5
		c0,0,0,0,0,0l-12.7-7.2c-0.2-0.1-0.4,0-0.5,0.1c0,0,0,0,0,0l-7.3,12.8c-0.1,0.2-0.3,0.2-0.5,0.1c0,0,0,0,0,0l-12.8-7.4
		c-0.2-0.1-0.2-0.3-0.1-0.5c0,0,0,0,0,0l7.4-12.9c0.1-0.2,0.3-0.2,0.5-0.1c0,0,0,0,0,0l6,3.5c0.2,0.1,0.4,0,0.5-0.1c0,0,0,0,0,0
		l7.3-12.7c0.1-0.2,0-0.4-0.1-0.5c0,0,0,0,0,0l-19.3-11.1c-0.2-0.1-0.4,0-0.5,0.1c0,0,0,0,0,0l-26.5,46.1c-0.1,0.2,0,0.4,0.1,0.5
		c0,0,0,0,0,0l12.7,7.3c0.2,0.1,0.4,0,0.5-0.1c0,0,0,0,0,0l3.4-6.1c0.1-0.2,0.3-0.2,0.5-0.1c0,0,0,0,0,0l39.6,22.8
		c0.2,0.1,0.2,0.3,0.1,0.5c0,0,0,0,0,0l-3.5,6c-0.1,0.2,0,0.4,0.1,0.5c0,0,0,0,0,0l12.6,7.3c0.2,0.1,0.4,0,0.5-0.1c0,0,0,0,0,0
		l26.5-46.1c0.1-0.2,0-0.4-0.1-0.5c0,0,0,0,0,0L216,345.2c-0.2-0.1-0.4,0-0.5,0.1c0,0,0,0,0,0l-7.3,12.6c-0.1,0.2,0,0.4,0.1,0.5
		c0,0,0,0,0,0L214.4,362"/>
	<path vector-effect="non-scaling-stroke" class="st1" d="M1005.6,404.9c0.2-0.1,0.5,0,0.6,0.2l6.1,13.4c0.1,0.2,0,0.5-0.2,0.6
		l-13.4,6.1c-0.2,0.1-0.5,0-0.6-0.2l-2.4-5.2c-0.1-0.2-0.3-0.3-0.6-0.2l-13.2,6c-0.2,0.1-0.3,0.3-0.2,0.6l12,26.2
		c0.1,0.2,0.3,0.3,0.6,0.2l13.2-6.1c0.2-0.1,0.3-0.3,0.2-0.6l-2.9-6.3c-0.1-0.2,0-0.5,0.2-0.6l16.4-7.5c0.1,0,0.2-0.1,0.2-0.2l2-5.6
		c0.1-0.2,0.3-0.3,0.5-0.3c0,0,0,0,0,0l5.6,2.1c0.1,0,0.2,0,0.3,0l19.3-8.8c0.1,0,0.2-0.1,0.2-0.2l5.9-16c0-0.1,0-0.2,0-0.3
		l-17.1-37.3c-0.1-0.2-0.3-0.3-0.6-0.2l-13.2,6.1c-0.2,0.1-0.3,0.3-0.2,0.6l2.9,6.2c0.1,0.2,0,0.5-0.2,0.6l-41.5,19
		c-0.2,0.1-0.5,0-0.6-0.2c0,0,0,0,0,0l-2.8-6.3c-0.1-0.2-0.3-0.3-0.6-0.2c0,0,0,0,0,0l-13.2,6.1c-0.2,0.1-0.3,0.3-0.2,0.6l12,26.2
		c0.1,0.2,0.3,0.3,0.6,0.2l13.2-6c0.2-0.1,0.3-0.3,0.2-0.6c0,0,0,0,0,0l-2.5-5.3c-0.1-0.2,0-0.5,0.2-0.6L1005.6,404.9"/>
	<path vector-effect="non-scaling-stroke" class="st1" d="M168.8,466.4c0.2,0.1,0.3,0.3,0.2,0.5l-2.2,6.6c-0.1,0.2,0,0.4,0.2,0.5
		l13.8,4.6c0.2,0.1,0.4,0,0.5-0.2l12.9-39c0-0.1,0-0.2,0-0.3l-7.7-15.3c0-0.1-0.1-0.2-0.2-0.2l-20.1-6.7c-0.1,0-0.3,0-0.4,0.1
		l-6.3,5.4c-0.2,0.1-0.4,0.1-0.5-0.1c0,0-0.1-0.1-0.1-0.2l-1.8-8c0-0.1-0.1-0.2-0.3-0.3l-20.1-6.7c-0.1,0-0.2,0-0.3,0l-15.3,7.6
		c-0.1,0-0.2,0.1-0.2,0.2l-13,39c-0.1,0.2,0,0.4,0.2,0.5l13.9,4.6c0.2,0.1,0.4,0,0.5-0.2l2.1-6.6c0.1-0.2,0.3-0.3,0.5-0.2
		L168.8,466.4"/>
	<path vector-effect="non-scaling-stroke" class="st1" d="M1020.4,497.2c0-0.2,0.1-0.4,0.3-0.4c0,0,0.1,0,0.1,0l7.2,0.4
		c0.2,0,0.3,0.1,0.4,0.3l2,11c0,0.2-0.1,0.3-0.2,0.4l-6.6,3c-0.2,0.1-0.4,0-0.5-0.2c0,0,0-0.1,0-0.1l-1-5.6c0-0.2-0.2-0.3-0.4-0.3
		c0,0,0,0,0,0l-14.4,2.6c-0.2,0-0.3,0.2-0.3,0.4l5.1,28.5c0,0.2,0.2,0.3,0.4,0.3l14.3-2.6c0.2,0,0.3-0.2,0.3-0.4c0,0,0,0,0,0
		l-1.3-6.9c0-0.2,0.1-0.3,0.2-0.4l57.5-25.9c0.2-0.1,0.3-0.2,0.2-0.4l-2.6-14.5c0-0.2-0.2-0.3-0.3-0.3l-62.9-4.2
		c-0.2,0-0.3-0.1-0.4-0.3l-1.2-6.9c0-0.2-0.2-0.3-0.4-0.3c0,0,0,0,0,0l-14.3,2.6c-0.2,0-0.3,0.2-0.3,0.4l5.1,28.5
		c0,0.2,0.2,0.3,0.4,0.3l14.3-2.6c0.2,0,0.3-0.2,0.3-0.4L1020.4,497.2"/>
	<path vector-effect="non-scaling-stroke" class="st1" d="M108.6,533.2c-0.2,0-0.3-0.2-0.3-0.4l0.7-5.9c0-0.2-0.1-0.4-0.3-0.4
		l-14.5-1.9c-0.2,0-0.4,0.1-0.4,0.3c0,0,0,0,0,0L90,553.6c0,0.2,0.1,0.4,0.3,0.4c0,0,0,0,0,0l14.5,1.9c0.2,0,0.4-0.1,0.4-0.3
		l0.8-6.9c0-0.2,0.2-0.3,0.4-0.3l48.5,6.4c0.1,0,0.2,0,0.3-0.1l13.6-10.4c0.1-0.1,0.1-0.1,0.1-0.2l2.8-21.1c0-0.1,0-0.2-0.1-0.3
		l-10.4-13.6c-0.1-0.1-0.1-0.1-0.2-0.1l-48.5-6.4c-0.2,0-0.3-0.2-0.3-0.4l0.9-7c0-0.2-0.1-0.4-0.3-0.4l-14.5-1.9
		c-0.2,0-0.4,0.1-0.4,0.3c0,0,0,0,0,0l-3.8,28.7c0,0.2,0.1,0.4,0.3,0.4c0,0,0,0,0,0l14.5,1.9c0.2,0,0.4-0.1,0.4-0.3c0,0,0,0,0,0
		l0.7-5.9c0-0.2,0.2-0.3,0.4-0.3c0,0,0,0,0,0l45.3,6c0.2,0,0.3,0.2,0.3,0.4c0,0,0,0,0,0l-1.9,14.7c0,0.2-0.2,0.3-0.4,0.3
		c0,0,0,0,0,0L108.6,533.2"/>
	<path vector-effect="non-scaling-stroke" class="st1" d="M1061,577.7c0-0.2,0.2-0.4,0.4-0.4c0,0,0,0,0,0l14.7-0.5
		c0.2,0,0.4,0.2,0.4,0.4c0,0,0,0,0,0l0.5,14.8c0,0.2-0.2,0.4-0.4,0.4l-6.9,0.2c-0.2,0-0.4,0.2-0.4,0.4c0,0,0,0,0,0l0.4,14.5
		c0,0.2,0.2,0.4,0.4,0.4h0l10.1-0.2c0.1,0,0.2,0,0.3-0.1l11.8-12.5c0.1-0.1,0.1-0.2,0.1-0.3l-0.7-21.3c0-0.1-0.1-0.2-0.1-0.3
		l-12.5-11.6c-0.1-0.1-0.2-0.1-0.3-0.1l-21.2,0.6c-0.1,0-0.2,0-0.3,0.1l-11.7,12.5c-0.1,0.1-0.1,0.2-0.1,0.3l0.6,18.1
		c0,0.2-0.2,0.4-0.4,0.4h0l-14.7,0.4c-0.2,0-0.4-0.2-0.4-0.4c0,0,0,0,0,0l-0.5-14.7c0-0.2,0.2-0.4,0.4-0.4c0,0,0,0,0,0l6.9-0.3
		c0.2,0,0.4-0.2,0.4-0.4c0,0,0,0,0,0l-0.5-14.5c0-0.2-0.2-0.4-0.4-0.4l-10.2,0.4c-0.1,0-0.2,0-0.3,0.1l-11.6,12.5
		c-0.1,0.1-0.1,0.2-0.1,0.3l0.6,21.1c0,0.1,0,0.2,0.1,0.3l12.4,11.7c0.1,0.1,0.2,0.1,0.3,0.1l21.3-0.6c0.1,0,0.2,0,0.3-0.1
		l11.7-12.7c0.1-0.1,0.1-0.2,0.1-0.3L1061,577.7"/>
	<path vector-effect="non-scaling-stroke" class="st1" d="M107,641.5c0-0.2,0.1-0.3,0.3-0.4c0,0,0,0,0,0l45.6-3.7
		c0.2,0,0.3,0.1,0.4,0.3c0,0,0,0,0,0l0.6,7c0,0.2,0.2,0.3,0.4,0.3c0,0,0,0,0,0l14.6-1.2c0.2,0,0.3-0.2,0.3-0.4c0,0,0,0,0,0l-4.3-53
		c0-0.2-0.2-0.3-0.4-0.3c0,0,0,0,0,0l-22.3,1.8c-0.2,0-0.3,0.2-0.3,0.4c0,0,0,0,0,0l1.2,14.6c0,0.2,0.2,0.3,0.3,0.3c0,0,0,0,0,0
		l7-0.5c0.2,0,0.3,0.1,0.4,0.3c0,0,0,0,0,0l1.2,14.8c0,0.2-0.1,0.3-0.3,0.4c0,0,0,0,0,0l-45.5,3.7c-0.2,0-0.3-0.1-0.4-0.3
		c0,0,0,0,0,0l-0.6-7c0-0.2-0.2-0.3-0.4-0.3c0,0,0,0,0,0l-14.6,1.1c-0.2,0-0.3,0.2-0.3,0.4c0,0,0,0,0,0l2.4,30
		c0,0.2,0.2,0.3,0.4,0.3c0,0,0,0,0,0l14.7-1.2c0.2,0,0.3-0.2,0.3-0.4c0,0,0,0,0,0L107,641.5"/>
	<path vector-effect="non-scaling-stroke" class="st1" d="M1025.2,659.6c0-0.2,0.2-0.3,0.3-0.3l45.4,6c0.2,0,0.3,0.2,0.3,0.3
		c0,0,0,0,0,0l-0.9,5.9c0,0.2,0.1,0.3,0.3,0.3c0,0,0,0,0,0l14.6,2c0.2,0,0.3-0.1,0.3-0.3c0,0,0,0,0,0l3.8-28.8
		c0-0.2-0.1-0.3-0.3-0.3c0,0,0,0,0,0l-14.6-1.9c-0.2,0-0.3,0.1-0.3,0.3c0,0,0,0,0,0l-1,7.1c0,0.2-0.2,0.3-0.3,0.3c0,0,0,0,0,0
		l-45.4-6c-0.2,0-0.3-0.2-0.3-0.3c0,0,0,0,0,0l1-7c0-0.2-0.1-0.3-0.3-0.3c0,0,0,0,0,0l-14.6-2c-0.2,0-0.3,0.1-0.3,0.3c0,0,0,0,0,0
		l-3.8,28.9c0,0.2,0.1,0.3,0.3,0.3c0,0,0,0,0,0l14.6,1.9c0.2,0,0.3-0.1,0.3-0.3L1025.2,659.6"/>
	<path vector-effect="non-scaling-stroke" class="st1" d="M120.2,712.7c-0.3,0.1-0.5-0.1-0.6-0.3c0,0,0,0,0,0l-3.2-14.3
		c-0.1-0.3,0.1-0.5,0.3-0.6c0,0,0,0,0,0l6.6-1.5c0.3-0.1,0.4-0.3,0.4-0.6c0,0,0,0,0,0l-3.2-14.1c-0.1-0.3-0.3-0.4-0.6-0.4
		c0,0,0,0,0,0l-9.8,2.3c-0.1,0-0.2,0.1-0.3,0.2l-9,14.4c-0.1,0.1-0.1,0.2-0.1,0.4l4.7,20.7c0,0.1,0.1,0.2,0.2,0.3l14.4,9
		c0.1,0.1,0.2,0.1,0.4,0.1l50.7-11.6c0.1,0,0.2-0.1,0.3-0.2l9-14.4c0.1-0.1,0.1-0.2,0.1-0.4l-4.7-20.7c0-0.1-0.1-0.2-0.2-0.3
		l-14.4-9c-0.1-0.1-0.2-0.1-0.4-0.1L151,674c-0.3,0.1-0.4,0.3-0.4,0.6c0,0,0,0,0,0l3.2,14.1c0.1,0.3,0.3,0.4,0.6,0.4c0,0,0,0,0,0
		l6.6-1.5c0.3-0.1,0.5,0.1,0.6,0.3c0,0,0,0,0,0l3.2,14.3c0.1,0.3-0.1,0.5-0.3,0.6c0,0,0,0,0,0L120.2,712.7"/>
	<path vector-effect="non-scaling-stroke" class="st1" d="M1064.1,706.6c-0.2-0.1-0.4,0.1-0.4,0.2c0,0,0,0,0,0l-1.9,6.7
		c-0.1,0.2-0.2,0.3-0.4,0.2c0,0,0,0,0,0l-44-12.4c-0.2-0.1-0.3-0.2-0.2-0.4c0,0,0,0,0,0l1.9-6.7c0.1-0.2-0.1-0.4-0.2-0.4
		c0,0,0,0,0,0l-14.1-4c-0.2-0.1-0.4,0.1-0.4,0.2c0,0,0,0,0,0l-14.4,51.2c-0.1,0.2,0.1,0.4,0.2,0.4c0,0,0,0,0,0l21.5,6.1
		c0.2,0.1,0.4-0.1,0.4-0.2c0,0,0,0,0,0l3.9-14.1c0.1-0.2-0.1-0.4-0.2-0.4c0,0,0,0,0,0l-6.8-1.9c-0.2-0.1-0.3-0.2-0.2-0.4
		c0,0,0,0,0,0l4-14.3c0.1-0.2,0.2-0.3,0.4-0.2c0,0,0,0,0,0l44,12.4c0.2,0.1,0.3,0.2,0.2,0.4c0,0,0,0,0,0l-1.9,6.8
		c-0.1,0.2,0.1,0.4,0.2,0.4c0,0,0,0,0,0l14,3.9c0.2,0.1,0.4-0.1,0.4-0.2c0,0,0,0,0,0l8.2-28.9c0.1-0.2-0.1-0.4-0.2-0.4c0,0,0,0,0,0
		L1064.1,706.6"/>
	<path vector-effect="non-scaling-stroke" class="st1" d="M412.6,1021.5c-0.2-0.1-0.3-0.3-0.2-0.4c0,0,0,0,0,0l4.4-11.2
		c0.1-0.2,0.3-0.3,0.4-0.2c0,0,0,0,0,0l13.4,5.3c0.2,0.1,0.3,0.3,0.2,0.4c0,0,0,0,0,0l-2.1,5.2c-0.1,0.2,0,0.4,0.2,0.4c0,0,0,0,0,0
		l13.2,5.2c0.2,0.1,0.4,0,0.4-0.2c0,0,0,0,0,0l6.7-16.8c0.1-0.2,0-0.4-0.2-0.4l-48-18.9c-0.2-0.1-0.4,0-0.4,0.2c0,0,0,0,0,0l-4.3,11
		c-0.1,0.2,0,0.4,0.2,0.4c0,0,0,0,0,0l6.3,2.5c0.2,0.1,0.3,0.3,0.2,0.4c0,0,0,0,0,0l-13.6,34.5c-0.1,0.2-0.3,0.3-0.4,0.2
		c0,0,0,0,0,0l-6.4-2.5c-0.2-0.1-0.4,0-0.4,0.2c0,0,0,0,0,0l-4.3,11c-0.1,0.2,0,0.4,0.2,0.4c0,0,0,0,0,0l27.1,10.7
		c0.2,0.1,0.4,0,0.4-0.2c0,0,0,0,0,0l4.3-11c0.1-0.2,0-0.4-0.2-0.4c0,0,0,0,0,0l-6.3-2.5c-0.2-0.1-0.3-0.3-0.2-0.4c0,0,0,0,0,0
		l4.4-11.2c0.1-0.2,0.3-0.3,0.4-0.2l13.3,5.3c0.2,0.1,0.4,0,0.4-0.2c0,0,0,0,0,0l4.3-10.9c0.1-0.2,0-0.4-0.2-0.4L412.6,1021.5"/>
	<path vector-effect="non-scaling-stroke" class="st1" d="M742.7,1018.7c0.2-0.1,0.4,0,0.5,0.2l13.6,34.4c0.1,0.2,0,0.4-0.2,0.5
		l-6.2,2.4c-0.2,0.1-0.3,0.3-0.2,0.5l4.3,10.8c0.1,0.2,0.3,0.3,0.5,0.2l47.9-18.9c0.2-0.1,0.3-0.3,0.2-0.5l-6.6-16.7
		c-0.1-0.2-0.3-0.3-0.5-0.2l-13.1,5.1c-0.2,0.1-0.3,0.3-0.2,0.5l2,5.1c0.1,0.2,0,0.4-0.2,0.5l-13.3,5.2c-0.2,0.1-0.4,0-0.5-0.2
		l-13.6-34.4c-0.1-0.2,0-0.4,0.2-0.5l6.2-2.4c0.2-0.1,0.3-0.3,0.2-0.5c0,0,0,0,0,0l-4.3-10.9c-0.1-0.2-0.3-0.3-0.5-0.2l-27,10.6
		c-0.2,0.1-0.3,0.3-0.2,0.5l4.3,10.9c0.1,0.2,0.3,0.3,0.5,0.2L742.7,1018.7"/>
	<path vector-effect="non-scaling-stroke" class="st1" d="M461.5,1065.1c-0.2,0-0.3-0.2-0.2-0.4l8.3-36.1c0-0.2,0.2-0.3,0.4-0.3
		c0,0,0,0,0,0l5.6,1.3c0.2,0,0.4-0.1,0.4-0.2c0,0,0,0,0,0l2.6-11.5c0-0.2-0.1-0.4-0.2-0.4l-27.4-6.3c-0.2,0-0.4,0.1-0.4,0.2
		l-2.6,11.5c0,0.2,0.1,0.4,0.2,0.4l6.6,1.5c0.2,0,0.3,0.2,0.2,0.4l-8.9,38.7c0,0.1,0,0.2,0.1,0.3l9.2,12.2c0,0.1,0.1,0.1,0.2,0.1
		l20.1,4.6c0.1,0,0.2,0,0.2,0l13.6-6.9c0.1,0,0.2-0.1,0.2-0.2l8.9-38.7c0-0.2,0.2-0.3,0.4-0.3c0,0,0,0,0,0l6.7,1.5
		c0.2,0,0.4-0.1,0.4-0.2c0,0,0,0,0,0l2.6-11.5c0-0.2-0.1-0.4-0.2-0.4l-27.3-6.3c-0.2,0-0.4,0.1-0.4,0.2l-2.7,11.5
		c0,0.2,0.1,0.4,0.2,0.4c0,0,0,0,0,0l5.6,1.2c0.2,0,0.3,0.2,0.3,0.4c0,0,0,0,0,0l-8.3,36.2c0,0.2-0.2,0.3-0.4,0.2L461.5,1065.1"/>
	<path vector-effect="non-scaling-stroke" class="st1" d="M698.5,1073.1c0.1,0.4,0.4,0.7,0.7,0.8l13.2,5.9c0.3,0.1,0.6,0.1,0.9,0.1
		l19.3-5.5c0.3-0.1,0.5-0.3,0.7-0.5l8.1-12c0.2-0.3,0.3-0.7,0.2-1.1l-11.3-39.9c-0.1-0.4-0.4-0.7-0.7-0.8l-13.2-6
		c-0.3-0.1-0.6-0.1-0.9-0.1l-19.3,5.5c-0.3,0.1-0.5,0.3-0.7,0.5l-8.1,12c-0.2,0.3-0.3,0.7-0.2,1.1L698.5,1073.1"/>
	<path vector-effect="non-scaling-stroke" class="st1" d="M543.9,1079.7c-0.2,0-0.3-0.2-0.3-0.4c0,0,0,0,0,0l4.7-36.8
		c0-0.2,0.2-0.3,0.4-0.3l6.8,0.8c0.2,0,0.3,0.2,0.3,0.4c0,0,0,0,0,0l-0.7,5.6c0,0.2,0.1,0.3,0.3,0.4l14,1.8c0.2,0,0.4-0.1,0.4-0.3
		c0,0,0,0,0,0l2.3-17.9c0-0.2-0.1-0.4-0.3-0.4c0,0,0,0,0,0l-58.6-7.5c-0.2,0-0.4,0.1-0.4,0.3c0,0,0,0,0,0l-2.3,17.9
		c0,0.2,0.1,0.4,0.3,0.4c0,0,0,0,0,0l14,1.8c0.2,0,0.4-0.1,0.4-0.3c0,0,0,0,0,0l0.7-5.5c0-0.2,0.2-0.3,0.4-0.3l6.9,0.7
		c0.2,0,0.3,0.2,0.3,0.4c0,0,0,0,0,0l-4.7,36.8c0,0.2-0.2,0.3-0.4,0.3c0,0,0,0,0,0l-6.8-0.8c-0.2,0-0.4,0.1-0.4,0.3c0,0,0,0,0,0
		l-1.5,11.7c0,0.2,0.1,0.4,0.3,0.4c0,0,0,0,0,0l28.9,3.7c0.2,0,0.4-0.1,0.4-0.3c0,0,0,0,0,0l1.5-11.8c0-0.2-0.1-0.4-0.3-0.4
		c0,0,0,0,0,0L543.9,1079.7"/>
	<path vector-effect="non-scaling-stroke" class="st1" d="M679.5,1055.8c-0.2-0.1-0.3-0.3-0.2-0.4c0-0.1,0.1-0.1,0.1-0.2l6.3-4.2
		c0.1-0.1,0.2-0.2,0.1-0.3l-2.1-17c0-0.1-0.1-0.2-0.2-0.2l-12.9-8.3c-0.1,0-0.2-0.1-0.2,0l-39.6,5c-0.2,0-0.3,0.2-0.3,0.4l1.5,11.7
		c0,0.2,0.2,0.3,0.4,0.3c0,0,0,0,0,0l6.7-0.9c0.2,0,0.4,0.1,0.4,0.3l4.7,36.8c0,0.2-0.1,0.4-0.3,0.4c0,0,0,0,0,0l-6.7,0.9
		c-0.2,0-0.3,0.2-0.3,0.4c0,0,0,0,0,0l1.5,11.7c0,0.2,0.2,0.3,0.4,0.3c0,0,0,0,0,0l39.5-5c0.1,0,0.2,0,0.2-0.1l10.4-11.2
		c0.1-0.1,0.1-0.2,0.1-0.3l-2.1-17.1c0-0.1-0.1-0.2-0.2-0.3L679.5,1055.8"/>
	<path vector-effect="non-scaling-stroke" class="st1" d="M611.3,1043.5c0.2,0,0.3,0.1,0.3,0.3c0,0,0,0,0,0l0.2,5.7
		c0,0.2,0.1,0.3,0.3,0.3c0,0,0,0,0,0l14.2-0.4c0.2,0,0.3-0.1,0.3-0.3c0,0,0,0,0,0l-0.4-18.1c0-0.2-0.1-0.3-0.3-0.3c0,0,0,0,0,0
		l-51.6,1.3c-0.2,0-0.3,0.1-0.3,0.3c0,0,0,0,0,0l0.3,11.9c0,0.2,0.1,0.3,0.3,0.3c0,0,0,0,0,0l6.9-0.3c0.2,0,0.3,0.1,0.3,0.3
		c0,0,0,0,0,0l0.9,37.2c0,0.2-0.1,0.3-0.3,0.3c0,0,0,0,0,0l-6.9,0.2c-0.2,0-0.3,0.1-0.3,0.3c0,0,0,0,0,0l0.3,11.8
		c0,0.2,0.1,0.3,0.3,0.3c0,0,0,0,0,0l51.6-1.3c0.2,0,0.3-0.1,0.3-0.3c0,0,0,0,0,0l-0.5-18.1c0-0.2-0.1-0.3-0.3-0.3c0,0,0,0,0,0
		l-14.3,0.4c-0.2,0-0.3,0.1-0.3,0.3c0,0,0,0,0,0l0.3,5.6c0,0.2-0.1,0.3-0.3,0.3c0,0,0,0,0,0l-14.5,0.4c-0.2,0-0.3-0.1-0.3-0.3
		c0,0,0,0,0,0l-0.3-12.1c0-0.2,0.1-0.3,0.3-0.3c0,0,0,0,0,0l14.3-0.3c0.2,0,0.3-0.1,0.3-0.3c0,0,0,0,0,0l-0.3-11.9
		c0-0.2-0.1-0.3-0.3-0.3c0,0,0,0,0,0l-14.3,0.4c-0.2,0-0.3-0.1-0.3-0.3c0,0,0,0,0,0l-0.4-12.1c0-0.2,0.1-0.3,0.3-0.3c0,0,0,0,0,0
		L611.3,1043.5"/>
	<path vector-effect="non-scaling-stroke" class="st1" d="M586.7,105c0-0.2-0.2-0.4-0.4-0.4l-14.7,0.5c-0.2,0-0.4,0.2-0.4,0.4
		c0,0,0,0,0,0l0.5,14.7c0,0.2,0.2,0.4,0.4,0.4l14.7-0.5c0.2,0,0.4-0.2,0.4-0.4c0,0,0,0,0,0L586.7,105"/>
	<path vector-effect="non-scaling-stroke" class="st1" d="M673.6,134.8c-0.1,0.2,0,0.3,0.2,0.4c0,0,0,0,0.1,0l3.2,0.6
		c0.2,0,0.3-0.1,0.3-0.2c0,0,0,0,0-0.1l-0.4-6.8c0-0.2-0.2-0.3-0.3-0.3c-0.1,0-0.2,0.1-0.2,0.2L673.6,134.8"/>
	<path vector-effect="non-scaling-stroke" class="st1" d="M496.7,114.7c-0.1-0.2-0.3-0.4-0.5-0.3l0,0l-14.3,3.3
		c-0.2,0.1-0.4,0.3-0.3,0.5c0,0,0,0,0,0l10.2,44.4c0.1,0.2,0.3,0.4,0.5,0.3c0,0,0,0,0,0l14.3-3.3c0.2-0.1,0.4-0.3,0.3-0.5
		c0,0,0,0,0,0L496.7,114.7"/>
	<path vector-effect="non-scaling-stroke" class="st1" d="M313.2,219.2c0.1,0.2,0.2,0.2,0.4,0.2c0,0,0,0,0.1,0l2.6-1.9
		c0.1-0.1,0.2-0.3,0.1-0.4c0,0,0,0-0.1-0.1l-5-4.2c-0.1-0.1-0.3-0.1-0.4,0c-0.1,0.1-0.1,0.2-0.1,0.3L313.2,219.2"/>
	<path vector-effect="non-scaling-stroke" class="st1" d="M963.3,591c0-205.6-166.7-372.3-372.3-372.3
		c-205.6,0-372.3,166.7-372.3,372.3c0,205.6,166.7,372.3,372.3,372.3S963.3,796.6,963.3,591"/>
	<path vector-effect="non-scaling-stroke" class="st1" d="M953.1,591c0-200-162.1-362.1-362.1-362.1c0,0,0,0,0,0
		C391,228.9,228.9,391,228.9,591c0,0,0,0,0,0c0,200,162.1,362.1,362.1,362.1l0,0C791,953.1,953.1,791,953.1,591L953.1,591"/>
	<path vector-effect="non-scaling-stroke" class="st1" d="M351.7,529.3l49.8,0c0.3,0,0.4,0.1,0.4,0.4v33.4c0,0.4,0.2,0.6,0.6,0.6h65
		c0.2,0,0.3-0.1,0.3-0.3v-49.2c0-0.4-0.2-0.8-0.5-1.1l-35.6-33.4c-0.4-0.4-0.9-0.6-1.4-0.6H329.6c-0.6,0-1.2,0.2-1.7,0.7l-36.1,34
		c-0.3,0.3-0.5,0.7-0.5,1.1l0,156.2c0,0.7,0.3,1.4,0.8,2l35.8,34c0.5,0.5,1.2,0.8,1.9,0.8h100.5c0.6,0,1.3-0.2,1.7-0.7l35.6-33.4
		c0.2-0.2,0.4-0.5,0.4-0.9v-49.4c0-0.1-0.1-0.2-0.2-0.2l-65.5,0c-0.1,0-0.3,0.1-0.3,0.3l0,0v33.5c0,0.4-0.2,0.6-0.6,0.6l-49.4,0
		c-0.3,0-0.5-0.2-0.5-0.5c-0.1-2.3-0.2-4.6-0.2-6.8c0-41.4,0-81.6,0-120.4C351.2,529.5,351.4,529.3,351.7,529.3"/>
	<path vector-effect="non-scaling-stroke" class="st1" d="M734.7,528.5c0.2,0,0.3,0.1,0.3,0.3V658c0,0.2-0.1,0.3-0.3,0.3
		c0,0,0,0,0,0l-18.1,0c-0.2,0-0.3,0.1-0.3,0.3c0,0,0,0,0,0l0,48.8c0,0.2,0.1,0.3,0.3,0.3c0,0,0,0,0,0h149.3c0.1,0,0.2,0,0.2-0.1
		l36.5-34.3c0.1-0.1,0.1-0.1,0.1-0.2v-72.9c0-0.1-0.1-0.2-0.1-0.3l-18.2-12.1c-0.1-0.1-0.2-0.3-0.1-0.4c0,0,0,0,0.1-0.1l18.3-16.5
		c0.1-0.1,0.1-0.2,0.1-0.2v-56.9c0-0.1,0-0.2-0.1-0.2l-36.5-34.2c-0.1-0.1-0.1-0.1-0.2-0.1l-149.3,0c-0.2,0-0.3,0.1-0.3,0.3l0,0
		l0,48.7c0,0.2,0.1,0.3,0.3,0.3c0,0,0,0,0,0L734.7,528.5"/>
	<path vector-effect="non-scaling-stroke" class="st1" d="M628.6,663.3c0,0.2,0,0.3-0.2,0.4c0,0-0.1,0-0.1,0h-11
		c-0.2,0-0.3,0.1-0.3,0.3v0v41.8c0,0.2,0.1,0.3,0.3,0.3H707c0.2,0,0.3-0.1,0.3-0.3V664c0-0.2-0.1-0.3-0.3-0.3h0h-16.5
		c-0.1,0-0.2-0.1-0.3-0.2l-50.5-136c-0.1-0.2,0-0.3,0.2-0.4c0,0,0.1,0,0.1,0l10.1,0c0.2,0,0.3-0.1,0.3-0.3l0-41.8
		c0-0.2-0.1-0.3-0.3-0.3h0l-118.4,0c-0.2,0-0.3,0.1-0.3,0.3l0,41.8c0,0.2,0.1,0.3,0.3,0.3h10.1c0.2,0,0.3,0.1,0.3,0.3
		c0,0,0,0.1,0,0.1l-50.5,136c0,0.1-0.2,0.2-0.3,0.2h-16.5c-0.2,0-0.3,0.1-0.3,0.3v0v41.8c0,0.2,0.1,0.3,0.3,0.3h89.6
		c0.2,0,0.3-0.1,0.3-0.3l0-41.8c0-0.2-0.1-0.3-0.3-0.3h0l-11,0c-0.2,0-0.3-0.1-0.3-0.3c0,0,0-0.1,0-0.1l6.1-19.3
		c0-0.1,0.2-0.2,0.3-0.2h62.7c0.1,0,0.3,0.1,0.3,0.2L628.6,663.3"/>
	<path vector-effect="non-scaling-stroke" class="st1" d="M998.1,324.4c0.2-0.1,0.2-0.4,0.1-0.6l-8.6-11.9c-0.1-0.2-0.4-0.2-0.6-0.1
		l-11.9,8.5c-0.2,0.1-0.2,0.4-0.1,0.6c0,0,0,0,0,0l8.6,11.9c0.1,0.2,0.4,0.3,0.6,0.1c0,0,0,0,0,0L998.1,324.4"/>
	<path vector-effect="non-scaling-stroke" class="st1" d="M964.7,330c-0.2-0.2-0.5-0.3-0.7-0.1l0,0l-11.7,8.5
		c-0.2,0.2-0.3,0.5-0.1,0.7l8.5,11.7c0.2,0.2,0.5,0.3,0.7,0.1l0,0l11.7-8.5c0.2-0.2,0.3-0.5,0.1-0.7L964.7,330"/>
	<path vector-effect="non-scaling-stroke" class="st1" d="M1034.3,392.3c-0.1-0.3-0.4-0.4-0.7-0.2l-13.2,6.1
		c-0.3,0.1-0.4,0.4-0.2,0.7v0l6.1,13.2c0.1,0.3,0.4,0.4,0.7,0.2l13.2-6.1c0.3-0.1,0.4-0.4,0.2-0.7L1034.3,392.3"/>
	<path vector-effect="non-scaling-stroke" class="st1" d="M149.5,428c0.1-0.3-0.1-0.5-0.3-0.6l-13.8-4.6c-0.3-0.1-0.5,0.1-0.6,0.3
		l-4.6,13.8c-0.1,0.3,0.1,0.5,0.3,0.6l13.8,4.6c0.3,0.1,0.5-0.1,0.6-0.3L149.5,428"/>
	<path vector-effect="non-scaling-stroke" class="st1" d="M178.8,437.7c0.1-0.2,0-0.5-0.3-0.6l-13.9-4.6c-0.2-0.1-0.5,0-0.6,0.3
		l-4.6,13.9c-0.1,0.2,0,0.5,0.3,0.6l13.9,4.6c0.2,0.1,0.5,0,0.6-0.3L178.8,437.7"/>
	<path vector-effect="non-scaling-stroke" class="st1" d="M1044.6,498.4c-0.2,0-0.3,0.1-0.3,0.3c0,0,0,0,0,0.1l0.5,3.1
		c0,0.2,0.2,0.3,0.3,0.2c0,0,0,0,0.1,0l6.2-2.7c0.2-0.1,0.2-0.2,0.2-0.4c0-0.1-0.1-0.2-0.3-0.2L1044.6,498.4"/>
	<path vector-effect="non-scaling-stroke" class="st1" d="M836.7,529.6c0-0.2-0.1-0.3-0.3-0.3l-41.1-0.1c-0.2,0-0.3,0.1-0.3,0.3
		l-0.1,34.4c0,0.2,0.1,0.3,0.3,0.3l41.1,0.1c0.2,0,0.3-0.1,0.3-0.3c0,0,0,0,0,0L836.7,529.6"/>
	<path vector-effect="non-scaling-stroke" class="st1" d="M836.7,611.3c0-0.2-0.2-0.4-0.4-0.4l-41-0.1c-0.2,0-0.4,0.2-0.4,0.4
		c0,0,0,0,0,0l-0.1,45.9c0,0.2,0.2,0.4,0.4,0.4l41,0.1c0.2,0,0.4-0.2,0.4-0.4L836.7,611.3"/>
	<path vector-effect="non-scaling-stroke" class="st1" d="M572.8,601c-0.1,0.2,0,0.4,0.3,0.4h35.4c0.4,0,0.6-0.2,0.4-0.6l-17.8-56.5
		c-0.2-0.5-0.3-0.5-0.5,0L572.8,601"/>
	<path vector-effect="non-scaling-stroke" class="st1" d="M716.5,1027.1c-0.1-0.2-0.3-0.3-0.5-0.3h0l-13.8,3.9
		c-0.2,0.1-0.3,0.3-0.3,0.5l10.1,35.6c0.1,0.2,0.3,0.3,0.5,0.3l13.8-3.9c0.2-0.1,0.3-0.3,0.3-0.5L716.5,1027.1"/>
	<path vector-effect="non-scaling-stroke" class="st1" d="M669.3,1038.2c0-0.2-0.2-0.4-0.5-0.4l-14.1,1.8c-0.2,0-0.4,0.2-0.4,0.5
		l0,0l1.5,11.7c0,0.2,0.2,0.4,0.5,0.4l0,0l14.1-1.8c0.2,0,0.4-0.2,0.4-0.5L669.3,1038.2"/>
	<path vector-effect="non-scaling-stroke" class="st1" d="M672.5,1063.1c0-0.3-0.3-0.4-0.5-0.4c0,0,0,0,0,0l-14,1.8
		c-0.3,0-0.4,0.3-0.4,0.5l0,0l1.5,11.7c0,0.3,0.3,0.4,0.5,0.4c0,0,0,0,0,0l14-1.8c0.3,0,0.4-0.3,0.4-0.5l0,0L672.5,1063.1"/>
</g>
<path class="st2" d="M1165.5,591c0,317.3-257.2,574.5-574.5,574.5S16.5,908.3,16.5,591c0,0,0,0,0,0C16.5,273.7,273.7,16.5,591,16.5
	c0,0,0,0,0,0C908.3,16.5,1165.5,273.7,1165.5,591L1165.5,591z M1149.9,591c0-308.7-250.2-558.9-558.9-558.9c0,0,0,0,0,0
	C282.3,32.1,32.1,282.3,32.1,591c0,0,0,0,0,0c0,308.7,250.2,558.9,558.9,558.9l0,0C899.7,1149.9,1149.9,899.7,1149.9,591
	C1149.9,591,1149.9,591,1149.9,591z"/>
<path class="st3" d="M1149.9,591c0,308.7-250.2,558.9-558.9,558.9c0,0,0,0,0,0c-308.7,0-558.9-250.2-558.9-558.9c0,0,0,0,0,0
	C32.1,282.3,282.3,32.1,591,32.1c0,0,0,0,0,0C899.7,32.1,1149.9,282.3,1149.9,591L1149.9,591z M1139.7,591
	c0-303.1-245.7-548.7-548.7-548.7C287.9,42.3,42.3,287.9,42.3,591c0,303.1,245.7,548.7,548.7,548.7S1139.7,894.1,1139.7,591z"/>
<path class="st2" d="M1139.7,591c0,303.1-245.7,548.7-548.7,548.7S42.3,894.1,42.3,591C42.3,287.9,287.9,42.3,591,42.3
	C894.1,42.3,1139.7,287.9,1139.7,591z M1127.1,591c0-296.1-240-536.1-536.1-536.1c0,0,0,0,0,0c-296.1,0-536.1,240-536.1,536.1
	c0,0,0,0,0,0c0,296.1,240,536.1,536.1,536.1l0,0C887.1,1127.1,1127.1,887.1,1127.1,591z"/>
<path class="st3" d="M1127.1,591c0,296.1-240,536.1-536.1,536.1S54.9,887.1,54.9,591c0,0,0,0,0,0c0-296.1,240-536.1,536.1-536.1
	c0,0,0,0,0,0C887.1,54.9,1127.1,294.9,1127.1,591L1127.1,591z M555.5,105.7c0.2,0,0.3,0.1,0.3,0.3c0,0,0,0,0,0l1.5,45.7
	c0,0.2-0.1,0.3-0.3,0.3c0,0,0,0,0,0l-7,0.2c-0.2,0-0.3,0.2-0.3,0.3c0,0,0,0,0,0l0.4,14.6c0,0.2,0.2,0.3,0.3,0.3c0,0,0,0,0,0l29-0.8
	c0.2,0,0.3-0.2,0.3-0.3c0,0,0,0,0,0l-0.4-14.8c0-0.2-0.2-0.3-0.3-0.3c0,0,0,0,0,0l-6,0.3c-0.2,0-0.3-0.1-0.3-0.3l-0.5-14.9
	c0-0.2,0.1-0.3,0.3-0.3c0,0,0,0,0,0l14.9-0.5c0.2,0,0.3,0.1,0.3,0.3c0,0,0,0,0,0l0.4,14.9c0,0.2-0.1,0.3-0.3,0.3c0,0,0,0,0,0
	l-5.9,0.1c-0.2,0-0.3,0.2-0.3,0.3c0,0,0,0,0,0l0.5,14.7c0,0.2,0.2,0.3,0.3,0.3c0,0,0,0,0,0l29-0.8c0.2,0,0.3-0.2,0.3-0.3
	c0,0,0,0,0,0l-0.5-14.8c0-0.2-0.2-0.3-0.3-0.3c0,0,0,0,0,0l-7.1,0.3c-0.2,0-0.3-0.1-0.3-0.3c0,0,0,0,0,0l-0.6-18.1
	c0-0.1,0-0.2-0.1-0.2l-4.4-4.2c-0.1-0.1-0.1-0.3,0-0.5l4.2-4.4c0.1-0.1,0.1-0.1,0.1-0.2l-0.7-21.4c0-0.1,0-0.2-0.1-0.2l-12.5-11.7
	c-0.1-0.1-0.1-0.1-0.2-0.1l-41,1.3c-0.2,0-0.3,0.2-0.3,0.3c0,0,0,0,0,0l0.4,14.7c0,0.2,0.2,0.3,0.3,0.3c0,0,0,0,0,0L555.5,105.7z
	 M678.9,159.1c0,0.2-0.1,0.4-0.3,0.4c0,0-0.1,0-0.1,0l-5.7-1c-0.2,0-0.4,0.1-0.4,0.3l-2.6,14.4c0,0.2,0.1,0.4,0.3,0.4l28.4,5.2
	c0.2,0,0.4-0.1,0.4-0.3l2.6-14.4c0-0.2-0.1-0.4-0.3-0.4l-6.9-1.3c-0.2,0-0.3-0.2-0.3-0.3l-4.1-62.9c0-0.2-0.1-0.3-0.3-0.3l-14.5-2.7
	c-0.2,0-0.3,0.1-0.4,0.2l-26,57.5c-0.1,0.2-0.2,0.2-0.4,0.2l-6.9-1.3c-0.2,0-0.4,0.1-0.4,0.3c0,0,0,0,0,0l-2.6,14.4
	c0,0.2,0.1,0.4,0.3,0.4l28.4,5.2c0.2,0,0.4-0.1,0.4-0.3l2.6-14.4c0-0.2-0.1-0.4-0.3-0.4l-5.7-1c-0.2,0-0.3-0.2-0.3-0.4
	c0,0,0-0.1,0-0.1l3-6.7c0.1-0.2,0.2-0.2,0.4-0.2l10.9,2c0.2,0,0.3,0.2,0.3,0.3L678.9,159.1z M476.8,166.1c0,0.2-0.1,0.4-0.3,0.4
	l-6.8,1.5c-0.2,0-0.3,0.2-0.3,0.4l3.2,14.3c0,0.2,0.3,0.3,0.5,0.3c0,0,0,0,0,0l40.1-9.2c0.1,0,0.2-0.1,0.2-0.2l9.1-14.5
	c0.1-0.1,0.1-0.2,0-0.3L510.9,108c0-0.1-0.1-0.2-0.2-0.2l-14.5-9c-0.1-0.1-0.2-0.1-0.3,0l-40,9.1c-0.2,0-0.3,0.3-0.3,0.5
	c0,0,0,0,0,0l3.2,14.2c0,0.2,0.3,0.3,0.5,0.3c0,0,0,0,0,0l6.8-1.5c0.2,0,0.4,0.1,0.5,0.3c0,0,0,0,0,0L476.8,166.1z M751.9,132.3
	c0.2,0.1,0.3,0.3,0.2,0.5l-17.6,45.6c0,0.1,0,0.2,0,0.3l6.9,15.6c0,0.1,0.1,0.2,0.2,0.2l19.8,7.7c0.1,0,0.2,0,0.3,0l15.6-6.9
	c0.1,0,0.2-0.1,0.2-0.2l17.6-45.6c0.1-0.2,0.3-0.3,0.5-0.2c0,0,0,0,0,0l6.4,2.5c0.2,0.1,0.5,0,0.5-0.2c0,0,0,0,0,0l5.2-13.5
	c0.1-0.2,0-0.5-0.2-0.5l-26.9-10.4c-0.2-0.1-0.5,0-0.5,0.2l-5.2,13.6c-0.1,0.2,0,0.5,0.2,0.5l5.4,2c0.2,0.1,0.3,0.3,0.2,0.5
	l-16.4,42.5c-0.1,0.2-0.3,0.3-0.5,0.2l-13.7-5.3c-0.2-0.1-0.3-0.3-0.2-0.5c0,0,0,0,0,0l16.4-42.5c0.1-0.2,0.3-0.3,0.5-0.2
	c0,0,0,0,0,0l5.4,2.1c0.2,0.1,0.5,0,0.5-0.2c0,0,0,0,0,0l5.2-13.5c0.1-0.2,0-0.5-0.2-0.5c0,0,0,0,0,0l-26.9-10.4
	c-0.2-0.1-0.4,0-0.5,0.2l-5.2,13.5c-0.1,0.2,0,0.5,0.2,0.5L751.9,132.3z M411.9,168.2l-38.3-29.6c-0.2-0.2-0.5-0.2-0.8-0.1
	l-20.3,9.3c-0.1,0.1-0.2,0.2-0.1,0.3c0,0,0,0,0,0l6.1,13.4c0.1,0.2,0.3,0.3,0.5,0.2c0,0,0,0,0,0l6.1-2.8c0.4-0.2,0.7-0.1,0.9,0.3
	l18.8,41c0.2,0.3,0,0.7-0.3,0.9c0,0,0,0,0,0l-6,2.7c-0.3,0.1-0.4,0.4-0.3,0.7l5.9,12.9c0.2,0.4,0.4,0.4,0.8,0.3l27.3-12.5
	c0.1,0,0.1-0.1,0.1-0.2c0,0,0,0,0,0l-6.1-13.3c-0.1-0.3-0.4-0.4-0.7-0.3l-6.3,2.9c-0.1,0.1-0.3,0-0.3-0.1c0,0,0,0,0,0l-11.4-24.9
	c-0.4-0.8-0.2-0.9,0.5-0.4l38.2,29.5c0.2,0.2,0.6,0.2,0.8,0.1l13.1-5.9c0.3-0.1,0.4-0.4,0.2-0.7l-25.3-55.2c-0.1-0.3,0-0.6,0.3-0.8
	c0,0,0,0,0,0l5.9-2.7c0.3-0.1,0.5-0.5,0.3-0.8c0,0,0,0,0,0l-5.9-12.9c-0.1-0.2-0.4-0.4-0.7-0.2l-27.1,12.4c-0.3,0.1-0.4,0.3-0.2,0.6
	l5.9,12.9c0.2,0.4,0.5,0.5,0.8,0.3l6-2.7c0.3-0.1,0.5-0.1,0.7,0.3l11.4,24.8C412.6,168.5,412.5,168.6,411.9,168.2z M837.2,224.5
	c-0.1,0.2-0.4,0.3-0.6,0.2c0,0,0,0,0,0l-12.3-7.8c-0.2-0.1-0.3-0.4-0.1-0.6l3.6-5.7c0.1-0.2,0.1-0.5-0.1-0.6c0,0,0,0,0,0l-12.1-7.7
	c-0.2-0.1-0.5-0.1-0.6,0.1l-5.4,8.5c-0.1,0.1-0.1,0.2-0.1,0.4l3.7,16.6c0,0.1,0.1,0.2,0.2,0.3l17.9,11.4c0.1,0.1,0.2,0.1,0.4,0.1
	l16.7-3.7c0.1,0,0.2-0.1,0.3-0.2l11.3-17.9c0.1-0.1,0.1-0.2,0.1-0.4l-3.9-16.8c0-0.1-0.1-0.2-0.2-0.3l-14.9-9.4
	c-0.2-0.1-0.3-0.4-0.2-0.6c0,0,0,0,0,0l7.8-12.4c0.1-0.2,0.4-0.3,0.6-0.2c0,0,0,0,0,0l12.3,7.8c0.2,0.1,0.3,0.4,0.2,0.6c0,0,0,0,0,0
	l-3.6,5.7c-0.1,0.2-0.1,0.5,0.1,0.6c0,0,0,0,0,0l12.2,7.7c0.2,0.1,0.5,0.1,0.6-0.1c0,0,0,0,0,0l5.4-8.5c0.1-0.1,0.1-0.2,0.1-0.4
	l-3.7-16.6c0-0.1-0.1-0.2-0.2-0.3l-17.9-11.3c-0.1-0.1-0.2-0.1-0.4-0.1l-16.6,3.7c-0.1,0-0.2,0.1-0.3,0.2l-11.3,17.9
	c-0.1,0.1-0.1,0.2-0.1,0.4l3.7,16.6c0,0.1,0.1,0.2,0.2,0.3l15.1,9.6c0.2,0.1,0.3,0.4,0.2,0.6c0,0,0,0,0,0L837.2,224.5z M334.5,232.3
	c0.2,0.1,0.2,0.4,0,0.5c0,0,0,0-0.1,0.1l-4.7,3.4c-0.2,0.1-0.2,0.4-0.1,0.5c0,0,0,0,0,0l8.5,11.8c0.1,0.2,0.4,0.2,0.5,0.1
	c0,0,0,0,0,0l23.4-16.9c0.2-0.1,0.2-0.4,0.1-0.5c0,0,0,0,0,0l-8.5-11.8c-0.1-0.2-0.4-0.2-0.5-0.1c0,0,0,0,0,0l-5.7,4.1
	c-0.1,0.1-0.3,0.1-0.5,0l-48.2-40.7c-0.1-0.1-0.3-0.1-0.5,0l-12,8.6c-0.1,0.1-0.2,0.3-0.1,0.4l23.4,58.6c0.1,0.2,0,0.4-0.1,0.5
	l-5.7,4.1c-0.2,0.1-0.2,0.4-0.1,0.5c0,0,0,0,0,0l8.5,11.8c0.1,0.2,0.4,0.2,0.5,0.1c0,0,0,0,0,0l23.5-16.9c0.2-0.1,0.2-0.4,0.1-0.5
	c0,0,0,0,0,0l-8.5-11.8c-0.1-0.2-0.4-0.2-0.5-0.1c0,0,0,0,0,0l-4.7,3.4c-0.2,0.1-0.4,0.1-0.5-0.1c0,0,0-0.1,0-0.1l-2.7-6.8
	c-0.1-0.2,0-0.3,0.1-0.4l8.9-6.4c0.1-0.1,0.3-0.1,0.5,0L334.5,232.3z M989,591c0-219.8-178.2-398-398-398
	c-219.8,0-398,178.2-398,398l0,0c0,219.8,178.2,398,398,398S989,810.8,989,591z M984.2,344.4c0-0.2,0.1-0.4,0.4-0.4
	c0.1,0,0.1,0,0.2,0l7.5,3.3c0.1,0.1,0.3,0,0.4,0l17.2-12.4c0.1-0.1,0.1-0.2,0.2-0.3l2.7-16.9c0-0.1,0-0.2-0.1-0.3l-24-33.3
	c-0.1-0.2-0.4-0.2-0.6-0.1l-11.8,8.5c-0.2,0.1-0.2,0.4-0.1,0.6l4.1,5.6c0.1,0.2,0.1,0.4-0.1,0.6l-37,26.7c-0.2,0.1-0.4,0.1-0.6-0.1
	l-4-5.6c-0.1-0.2-0.4-0.2-0.6-0.1l-11.8,8.5c-0.2,0.1-0.2,0.4-0.1,0.6l24,33.3c0.1,0.1,0.2,0.1,0.3,0.2l16.8,2.7
	c0.1,0,0.2,0,0.3-0.1l17.2-12.4c0.1-0.1,0.2-0.2,0.2-0.4L984.2,344.4z M214.4,362c0.2,0.1,0.2,0.3,0.1,0.5c0,0,0,0,0,0l-7.4,12.8
	c-0.1,0.2-0.3,0.2-0.5,0.1c0,0,0,0,0,0l-12.8-7.4c-0.2-0.1-0.2-0.3-0.1-0.5c0,0,0,0,0,0l7.3-12.8c0.1-0.2,0-0.4-0.1-0.5c0,0,0,0,0,0
	l-12.7-7.2c-0.2-0.1-0.4,0-0.5,0.1c0,0,0,0,0,0l-7.3,12.8c-0.1,0.2-0.3,0.2-0.5,0.1c0,0,0,0,0,0l-12.8-7.4c-0.2-0.1-0.2-0.3-0.1-0.5
	c0,0,0,0,0,0l7.4-12.9c0.1-0.2,0.3-0.2,0.5-0.1c0,0,0,0,0,0l6,3.5c0.2,0.1,0.4,0,0.5-0.1c0,0,0,0,0,0l7.3-12.7
	c0.1-0.2,0-0.4-0.1-0.5c0,0,0,0,0,0l-19.3-11.1c-0.2-0.1-0.4,0-0.5,0.1c0,0,0,0,0,0l-26.5,46.1c-0.1,0.2,0,0.4,0.1,0.5c0,0,0,0,0,0
	l12.7,7.3c0.2,0.1,0.4,0,0.5-0.1c0,0,0,0,0,0l3.4-6.1c0.1-0.2,0.3-0.2,0.5-0.1c0,0,0,0,0,0l39.6,22.8c0.2,0.1,0.2,0.3,0.1,0.5
	c0,0,0,0,0,0l-3.5,6c-0.1,0.2,0,0.4,0.1,0.5c0,0,0,0,0,0l12.6,7.3c0.2,0.1,0.4,0,0.5-0.1c0,0,0,0,0,0l26.5-46.1
	c0.1-0.2,0-0.4-0.1-0.5c0,0,0,0,0,0L216,345.2c-0.2-0.1-0.4,0-0.5,0.1c0,0,0,0,0,0l-7.3,12.6c-0.1,0.2,0,0.4,0.1,0.5c0,0,0,0,0,0
	L214.4,362z M1005.6,404.9c0.2-0.1,0.5,0,0.6,0.2l6.1,13.4c0.1,0.2,0,0.5-0.2,0.6l-13.4,6.1c-0.2,0.1-0.5,0-0.6-0.2l-2.4-5.2
	c-0.1-0.2-0.3-0.3-0.6-0.2l-13.2,6c-0.2,0.1-0.3,0.3-0.2,0.6l12,26.2c0.1,0.2,0.3,0.3,0.6,0.2l13.2-6.1c0.2-0.1,0.3-0.3,0.2-0.6
	l-2.9-6.3c-0.1-0.2,0-0.5,0.2-0.6l16.4-7.5c0.1,0,0.2-0.1,0.2-0.2l2-5.6c0.1-0.2,0.3-0.3,0.5-0.3c0,0,0,0,0,0l5.6,2.1
	c0.1,0,0.2,0,0.3,0l19.3-8.8c0.1,0,0.2-0.1,0.2-0.2l5.9-16c0-0.1,0-0.2,0-0.3l-17.1-37.3c-0.1-0.2-0.3-0.3-0.6-0.2l-13.2,6.1
	c-0.2,0.1-0.3,0.3-0.2,0.6l2.9,6.2c0.1,0.2,0,0.5-0.2,0.6l-41.5,19c-0.2,0.1-0.5,0-0.6-0.2c0,0,0,0,0,0l-2.8-6.3
	c-0.1-0.2-0.3-0.3-0.6-0.2c0,0,0,0,0,0l-13.2,6.1c-0.2,0.1-0.3,0.3-0.2,0.6l12,26.2c0.1,0.2,0.3,0.3,0.6,0.2l13.2-6
	c0.2-0.1,0.3-0.3,0.2-0.6c0,0,0,0,0,0l-2.5-5.3c-0.1-0.2,0-0.5,0.2-0.6L1005.6,404.9z M168.8,466.4c0.2,0.1,0.3,0.3,0.2,0.5
	l-2.2,6.6c-0.1,0.2,0,0.4,0.2,0.5l13.8,4.6c0.2,0.1,0.4,0,0.5-0.2l12.9-39c0-0.1,0-0.2,0-0.3l-7.7-15.3c0-0.1-0.1-0.2-0.2-0.2
	l-20.1-6.7c-0.1,0-0.3,0-0.4,0.1l-6.3,5.4c-0.2,0.1-0.4,0.1-0.5-0.1c0,0-0.1-0.1-0.1-0.2l-1.8-8c0-0.1-0.1-0.2-0.3-0.3l-20.1-6.7
	c-0.1,0-0.2,0-0.3,0l-15.3,7.6c-0.1,0-0.2,0.1-0.2,0.2l-13,39c-0.1,0.2,0,0.4,0.2,0.5l13.9,4.6c0.2,0.1,0.4,0,0.5-0.2l2.1-6.6
	c0.1-0.2,0.3-0.3,0.5-0.2L168.8,466.4z M1020.4,497.2c0-0.2,0.1-0.4,0.3-0.4c0,0,0.1,0,0.1,0l7.2,0.4c0.2,0,0.3,0.1,0.4,0.3l2,11
	c0,0.2-0.1,0.3-0.2,0.4l-6.6,3c-0.2,0.1-0.4,0-0.5-0.2c0,0,0-0.1,0-0.1l-1-5.6c0-0.2-0.2-0.3-0.4-0.3c0,0,0,0,0,0l-14.4,2.6
	c-0.2,0-0.3,0.2-0.3,0.4l5.1,28.5c0,0.2,0.2,0.3,0.4,0.3l14.3-2.6c0.2,0,0.3-0.2,0.3-0.4c0,0,0,0,0,0l-1.3-6.9
	c0-0.2,0.1-0.3,0.2-0.4l57.5-25.9c0.2-0.1,0.3-0.2,0.2-0.4l-2.6-14.5c0-0.2-0.2-0.3-0.3-0.3l-62.9-4.2c-0.2,0-0.3-0.1-0.4-0.3
	l-1.2-6.9c0-0.2-0.2-0.3-0.4-0.3c0,0,0,0,0,0l-14.3,2.6c-0.2,0-0.3,0.2-0.3,0.4l5.1,28.5c0,0.2,0.2,0.3,0.4,0.3l14.3-2.6
	c0.2,0,0.3-0.2,0.3-0.4L1020.4,497.2z M108.6,533.2c-0.2,0-0.3-0.2-0.3-0.4l0.7-5.9c0-0.2-0.1-0.4-0.3-0.4l-14.5-1.9
	c-0.2,0-0.4,0.1-0.4,0.3c0,0,0,0,0,0L90,553.6c0,0.2,0.1,0.4,0.3,0.4c0,0,0,0,0,0l14.5,1.9c0.2,0,0.4-0.1,0.4-0.3l0.8-6.9
	c0-0.2,0.2-0.3,0.4-0.3l48.5,6.4c0.1,0,0.2,0,0.3-0.1l13.6-10.4c0.1-0.1,0.1-0.1,0.1-0.2l2.8-21.1c0-0.1,0-0.2-0.1-0.3l-10.4-13.6
	c-0.1-0.1-0.1-0.1-0.2-0.1l-48.5-6.4c-0.2,0-0.3-0.2-0.3-0.4l0.9-7c0-0.2-0.1-0.4-0.3-0.4l-14.5-1.9c-0.2,0-0.4,0.1-0.4,0.3
	c0,0,0,0,0,0l-3.8,28.7c0,0.2,0.1,0.4,0.3,0.4c0,0,0,0,0,0l14.5,1.9c0.2,0,0.4-0.1,0.4-0.3c0,0,0,0,0,0l0.7-5.9
	c0-0.2,0.2-0.3,0.4-0.3c0,0,0,0,0,0l45.3,6c0.2,0,0.3,0.2,0.3,0.4c0,0,0,0,0,0l-1.9,14.7c0,0.2-0.2,0.3-0.4,0.3c0,0,0,0,0,0
	L108.6,533.2z M1061,577.7c0-0.2,0.2-0.4,0.4-0.4c0,0,0,0,0,0l14.7-0.5c0.2,0,0.4,0.2,0.4,0.4c0,0,0,0,0,0l0.5,14.8
	c0,0.2-0.2,0.4-0.4,0.4l-6.9,0.2c-0.2,0-0.4,0.2-0.4,0.4c0,0,0,0,0,0l0.4,14.5c0,0.2,0.2,0.4,0.4,0.4h0l10.1-0.2
	c0.1,0,0.2,0,0.3-0.1l11.8-12.5c0.1-0.1,0.1-0.2,0.1-0.3l-0.7-21.3c0-0.1-0.1-0.2-0.1-0.3l-12.5-11.6c-0.1-0.1-0.2-0.1-0.3-0.1
	l-21.2,0.6c-0.1,0-0.2,0-0.3,0.1l-11.7,12.5c-0.1,0.1-0.1,0.2-0.1,0.3l0.6,18.1c0,0.2-0.2,0.4-0.4,0.4h0l-14.7,0.4
	c-0.2,0-0.4-0.2-0.4-0.4c0,0,0,0,0,0l-0.5-14.7c0-0.2,0.2-0.4,0.4-0.4c0,0,0,0,0,0l6.9-0.3c0.2,0,0.4-0.2,0.4-0.4c0,0,0,0,0,0
	l-0.5-14.5c0-0.2-0.2-0.4-0.4-0.4l-10.2,0.4c-0.1,0-0.2,0-0.3,0.1l-11.6,12.5c-0.1,0.1-0.1,0.2-0.1,0.3l0.6,21.1
	c0,0.1,0,0.2,0.1,0.3l12.4,11.7c0.1,0.1,0.2,0.1,0.3,0.1l21.3-0.6c0.1,0,0.2,0,0.3-0.1l11.7-12.7c0.1-0.1,0.1-0.2,0.1-0.3
	L1061,577.7z M107,641.5c0-0.2,0.1-0.3,0.3-0.4c0,0,0,0,0,0l45.6-3.7c0.2,0,0.3,0.1,0.4,0.3c0,0,0,0,0,0l0.6,7
	c0,0.2,0.2,0.3,0.4,0.3c0,0,0,0,0,0l14.6-1.2c0.2,0,0.3-0.2,0.3-0.4c0,0,0,0,0,0l-4.3-53c0-0.2-0.2-0.3-0.4-0.3c0,0,0,0,0,0
	l-22.3,1.8c-0.2,0-0.3,0.2-0.3,0.4c0,0,0,0,0,0l1.2,14.6c0,0.2,0.2,0.3,0.3,0.3c0,0,0,0,0,0l7-0.5c0.2,0,0.3,0.1,0.4,0.3
	c0,0,0,0,0,0l1.2,14.8c0,0.2-0.1,0.3-0.3,0.4c0,0,0,0,0,0l-45.5,3.7c-0.2,0-0.3-0.1-0.4-0.3c0,0,0,0,0,0l-0.6-7
	c0-0.2-0.2-0.3-0.4-0.3c0,0,0,0,0,0l-14.6,1.1c-0.2,0-0.3,0.2-0.3,0.4c0,0,0,0,0,0l2.4,30c0,0.2,0.2,0.3,0.4,0.3c0,0,0,0,0,0
	l14.7-1.2c0.2,0,0.3-0.2,0.3-0.4c0,0,0,0,0,0L107,641.5z M1025.2,659.6c0-0.2,0.2-0.3,0.3-0.3l45.4,6c0.2,0,0.3,0.2,0.3,0.3
	c0,0,0,0,0,0l-0.9,5.9c0,0.2,0.1,0.3,0.3,0.3c0,0,0,0,0,0l14.6,2c0.2,0,0.3-0.1,0.3-0.3c0,0,0,0,0,0l3.8-28.8c0-0.2-0.1-0.3-0.3-0.3
	c0,0,0,0,0,0l-14.6-1.9c-0.2,0-0.3,0.1-0.3,0.3c0,0,0,0,0,0l-1,7.1c0,0.2-0.2,0.3-0.3,0.3c0,0,0,0,0,0l-45.4-6
	c-0.2,0-0.3-0.2-0.3-0.3c0,0,0,0,0,0l1-7c0-0.2-0.1-0.3-0.3-0.3c0,0,0,0,0,0l-14.6-2c-0.2,0-0.3,0.1-0.3,0.3c0,0,0,0,0,0l-3.8,28.9
	c0,0.2,0.1,0.3,0.3,0.3c0,0,0,0,0,0l14.6,1.9c0.2,0,0.3-0.1,0.3-0.3L1025.2,659.6z M120.2,712.7c-0.3,0.1-0.5-0.1-0.6-0.3
	c0,0,0,0,0,0l-3.2-14.3c-0.1-0.3,0.1-0.5,0.3-0.6c0,0,0,0,0,0l6.6-1.5c0.3-0.1,0.4-0.3,0.4-0.6c0,0,0,0,0,0l-3.2-14.1
	c-0.1-0.3-0.3-0.4-0.6-0.4c0,0,0,0,0,0l-9.8,2.3c-0.1,0-0.2,0.1-0.3,0.2l-9,14.4c-0.1,0.1-0.1,0.2-0.1,0.4l4.7,20.7
	c0,0.1,0.1,0.2,0.2,0.3l14.4,9c0.1,0.1,0.2,0.1,0.4,0.1l50.7-11.6c0.1,0,0.2-0.1,0.3-0.2l9-14.4c0.1-0.1,0.1-0.2,0.1-0.4l-4.7-20.7
	c0-0.1-0.1-0.2-0.2-0.3l-14.4-9c-0.1-0.1-0.2-0.1-0.4-0.1L151,674c-0.3,0.1-0.4,0.3-0.4,0.6c0,0,0,0,0,0l3.2,14.1
	c0.1,0.3,0.3,0.4,0.6,0.4c0,0,0,0,0,0l6.6-1.5c0.3-0.1,0.5,0.1,0.6,0.3c0,0,0,0,0,0l3.2,14.3c0.1,0.3-0.1,0.5-0.3,0.6c0,0,0,0,0,0
	L120.2,712.7z M1064.1,706.6c-0.2-0.1-0.4,0.1-0.4,0.2c0,0,0,0,0,0l-1.9,6.7c-0.1,0.2-0.2,0.3-0.4,0.2c0,0,0,0,0,0l-44-12.4
	c-0.2-0.1-0.3-0.2-0.2-0.4c0,0,0,0,0,0l1.9-6.7c0.1-0.2-0.1-0.4-0.2-0.4c0,0,0,0,0,0l-14.1-4c-0.2-0.1-0.4,0.1-0.4,0.2c0,0,0,0,0,0
	l-14.4,51.2c-0.1,0.2,0.1,0.4,0.2,0.4c0,0,0,0,0,0l21.5,6.1c0.2,0.1,0.4-0.1,0.4-0.2c0,0,0,0,0,0l3.9-14.1c0.1-0.2-0.1-0.4-0.2-0.4
	c0,0,0,0,0,0l-6.8-1.9c-0.2-0.1-0.3-0.2-0.2-0.4c0,0,0,0,0,0l4-14.3c0.1-0.2,0.2-0.3,0.4-0.2c0,0,0,0,0,0l44,12.4
	c0.2,0.1,0.3,0.2,0.2,0.4c0,0,0,0,0,0l-1.9,6.8c-0.1,0.2,0.1,0.4,0.2,0.4c0,0,0,0,0,0l14,3.9c0.2,0.1,0.4-0.1,0.4-0.2c0,0,0,0,0,0
	l8.2-28.9c0.1-0.2-0.1-0.4-0.2-0.4c0,0,0,0,0,0L1064.1,706.6z M412.6,1021.5c-0.2-0.1-0.3-0.3-0.2-0.4c0,0,0,0,0,0l4.4-11.2
	c0.1-0.2,0.3-0.3,0.4-0.2c0,0,0,0,0,0l13.4,5.3c0.2,0.1,0.3,0.3,0.2,0.4c0,0,0,0,0,0l-2.1,5.2c-0.1,0.2,0,0.4,0.2,0.4c0,0,0,0,0,0
	l13.2,5.2c0.2,0.1,0.4,0,0.4-0.2c0,0,0,0,0,0l6.7-16.8c0.1-0.2,0-0.4-0.2-0.4l-48-18.9c-0.2-0.1-0.4,0-0.4,0.2c0,0,0,0,0,0l-4.3,11
	c-0.1,0.2,0,0.4,0.2,0.4c0,0,0,0,0,0l6.3,2.5c0.2,0.1,0.3,0.3,0.2,0.4c0,0,0,0,0,0l-13.6,34.5c-0.1,0.2-0.3,0.3-0.4,0.2c0,0,0,0,0,0
	l-6.4-2.5c-0.2-0.1-0.4,0-0.4,0.2c0,0,0,0,0,0l-4.3,11c-0.1,0.2,0,0.4,0.2,0.4c0,0,0,0,0,0l27.1,10.7c0.2,0.1,0.4,0,0.4-0.2
	c0,0,0,0,0,0l4.3-11c0.1-0.2,0-0.4-0.2-0.4c0,0,0,0,0,0l-6.3-2.5c-0.2-0.1-0.3-0.3-0.2-0.4c0,0,0,0,0,0l4.4-11.2
	c0.1-0.2,0.3-0.3,0.4-0.2l13.3,5.3c0.2,0.1,0.4,0,0.4-0.2c0,0,0,0,0,0l4.3-10.9c0.1-0.2,0-0.4-0.2-0.4L412.6,1021.5z M742.7,1018.7
	c0.2-0.1,0.4,0,0.5,0.2l13.6,34.4c0.1,0.2,0,0.4-0.2,0.5l-6.2,2.4c-0.2,0.1-0.3,0.3-0.2,0.5l4.3,10.8c0.1,0.2,0.3,0.3,0.5,0.2
	l47.9-18.9c0.2-0.1,0.3-0.3,0.2-0.5l-6.6-16.7c-0.1-0.2-0.3-0.3-0.5-0.2l-13.1,5.1c-0.2,0.1-0.3,0.3-0.2,0.5l2,5.1
	c0.1,0.2,0,0.4-0.2,0.5l-13.3,5.2c-0.2,0.1-0.4,0-0.5-0.2l-13.6-34.4c-0.1-0.2,0-0.4,0.2-0.5l6.2-2.4c0.2-0.1,0.3-0.3,0.2-0.5
	c0,0,0,0,0,0l-4.3-10.9c-0.1-0.2-0.3-0.3-0.5-0.2l-27,10.6c-0.2,0.1-0.3,0.3-0.2,0.5l4.3,10.9c0.1,0.2,0.3,0.3,0.5,0.2L742.7,1018.7
	z M461.5,1065.1c-0.2,0-0.3-0.2-0.2-0.4l8.3-36.1c0-0.2,0.2-0.3,0.4-0.3c0,0,0,0,0,0l5.6,1.3c0.2,0,0.4-0.1,0.4-0.2c0,0,0,0,0,0
	l2.6-11.5c0-0.2-0.1-0.4-0.2-0.4l-27.4-6.3c-0.2,0-0.4,0.1-0.4,0.2l-2.6,11.5c0,0.2,0.1,0.4,0.2,0.4l6.6,1.5c0.2,0,0.3,0.2,0.2,0.4
	l-8.9,38.7c0,0.1,0,0.2,0.1,0.3l9.2,12.2c0,0.1,0.1,0.1,0.2,0.1l20.1,4.6c0.1,0,0.2,0,0.2,0l13.6-6.9c0.1,0,0.2-0.1,0.2-0.2
	l8.9-38.7c0-0.2,0.2-0.3,0.4-0.3c0,0,0,0,0,0l6.7,1.5c0.2,0,0.4-0.1,0.4-0.2c0,0,0,0,0,0l2.6-11.5c0-0.2-0.1-0.4-0.2-0.4l-27.3-6.3
	c-0.2,0-0.4,0.1-0.4,0.2l-2.7,11.5c0,0.2,0.1,0.4,0.2,0.4c0,0,0,0,0,0l5.6,1.2c0.2,0,0.3,0.2,0.3,0.4c0,0,0,0,0,0l-8.3,36.2
	c0,0.2-0.2,0.3-0.4,0.2L461.5,1065.1z M698.5,1073.1c0.1,0.4,0.4,0.7,0.7,0.8l13.2,5.9c0.3,0.1,0.6,0.1,0.9,0.1l19.3-5.5
	c0.3-0.1,0.5-0.3,0.7-0.5l8.1-12c0.2-0.3,0.3-0.7,0.2-1.1l-11.3-39.9c-0.1-0.4-0.4-0.7-0.7-0.8l-13.2-6c-0.3-0.1-0.6-0.1-0.9-0.1
	l-19.3,5.5c-0.3,0.1-0.5,0.3-0.7,0.5l-8.1,12c-0.2,0.3-0.3,0.7-0.2,1.1L698.5,1073.1z M543.9,1079.7c-0.2,0-0.3-0.2-0.3-0.4
	c0,0,0,0,0,0l4.7-36.8c0-0.2,0.2-0.3,0.4-0.3l6.8,0.8c0.2,0,0.3,0.2,0.3,0.4c0,0,0,0,0,0l-0.7,5.6c0,0.2,0.1,0.3,0.3,0.4l14,1.8
	c0.2,0,0.4-0.1,0.4-0.3c0,0,0,0,0,0l2.3-17.9c0-0.2-0.1-0.4-0.3-0.4c0,0,0,0,0,0l-58.6-7.5c-0.2,0-0.4,0.1-0.4,0.3c0,0,0,0,0,0
	l-2.3,17.9c0,0.2,0.1,0.4,0.3,0.4c0,0,0,0,0,0l14,1.8c0.2,0,0.4-0.1,0.4-0.3c0,0,0,0,0,0l0.7-5.5c0-0.2,0.2-0.3,0.4-0.3l6.9,0.7
	c0.2,0,0.3,0.2,0.3,0.4c0,0,0,0,0,0l-4.7,36.8c0,0.2-0.2,0.3-0.4,0.3c0,0,0,0,0,0l-6.8-0.8c-0.2,0-0.4,0.1-0.4,0.3c0,0,0,0,0,0
	l-1.5,11.7c0,0.2,0.1,0.4,0.3,0.4c0,0,0,0,0,0l28.9,3.7c0.2,0,0.4-0.1,0.4-0.3c0,0,0,0,0,0l1.5-11.8c0-0.2-0.1-0.4-0.3-0.4
	c0,0,0,0,0,0L543.9,1079.7z M679.5,1055.8c-0.2-0.1-0.3-0.3-0.2-0.4c0-0.1,0.1-0.1,0.1-0.2l6.3-4.2c0.1-0.1,0.2-0.2,0.1-0.3l-2.1-17
	c0-0.1-0.1-0.2-0.2-0.2l-12.9-8.3c-0.1,0-0.2-0.1-0.2,0l-39.6,5c-0.2,0-0.3,0.2-0.3,0.4l1.5,11.7c0,0.2,0.2,0.3,0.4,0.3c0,0,0,0,0,0
	l6.7-0.9c0.2,0,0.4,0.1,0.4,0.3l4.7,36.8c0,0.2-0.1,0.4-0.3,0.4c0,0,0,0,0,0l-6.7,0.9c-0.2,0-0.3,0.2-0.3,0.4c0,0,0,0,0,0l1.5,11.7
	c0,0.2,0.2,0.3,0.4,0.3c0,0,0,0,0,0l39.5-5c0.1,0,0.2,0,0.2-0.1l10.4-11.2c0.1-0.1,0.1-0.2,0.1-0.3l-2.1-17.1c0-0.1-0.1-0.2-0.2-0.3
	L679.5,1055.8z M611.3,1043.5c0.2,0,0.3,0.1,0.3,0.3c0,0,0,0,0,0l0.2,5.7c0,0.2,0.1,0.3,0.3,0.3c0,0,0,0,0,0l14.2-0.4
	c0.2,0,0.3-0.1,0.3-0.3c0,0,0,0,0,0l-0.4-18.1c0-0.2-0.1-0.3-0.3-0.3c0,0,0,0,0,0l-51.6,1.3c-0.2,0-0.3,0.1-0.3,0.3c0,0,0,0,0,0
	l0.3,11.9c0,0.2,0.1,0.3,0.3,0.3c0,0,0,0,0,0l6.9-0.3c0.2,0,0.3,0.1,0.3,0.3c0,0,0,0,0,0l0.9,37.2c0,0.2-0.1,0.3-0.3,0.3
	c0,0,0,0,0,0l-6.9,0.2c-0.2,0-0.3,0.1-0.3,0.3c0,0,0,0,0,0l0.3,11.8c0,0.2,0.1,0.3,0.3,0.3c0,0,0,0,0,0l51.6-1.3
	c0.2,0,0.3-0.1,0.3-0.3c0,0,0,0,0,0l-0.5-18.1c0-0.2-0.1-0.3-0.3-0.3c0,0,0,0,0,0l-14.3,0.4c-0.2,0-0.3,0.1-0.3,0.3c0,0,0,0,0,0
	l0.3,5.6c0,0.2-0.1,0.3-0.3,0.3c0,0,0,0,0,0l-14.5,0.4c-0.2,0-0.3-0.1-0.3-0.3c0,0,0,0,0,0l-0.3-12.1c0-0.2,0.1-0.3,0.3-0.3
	c0,0,0,0,0,0l14.3-0.3c0.2,0,0.3-0.1,0.3-0.3c0,0,0,0,0,0l-0.3-11.9c0-0.2-0.1-0.3-0.3-0.3c0,0,0,0,0,0l-14.3,0.4
	c-0.2,0-0.3-0.1-0.3-0.3c0,0,0,0,0,0l-0.4-12.1c0-0.2,0.1-0.3,0.3-0.3c0,0,0,0,0,0L611.3,1043.5z"/>
<path class="st2" d="M555.5,105.7l-7.1,0.2c-0.2,0-0.3-0.1-0.3-0.3c0,0,0,0,0,0l-0.4-14.7c0-0.2,0.1-0.3,0.3-0.3c0,0,0,0,0,0l41-1.3
	c0.1,0,0.2,0,0.2,0.1l12.5,11.7c0.1,0.1,0.1,0.1,0.1,0.2l0.7,21.4c0,0.1,0,0.2-0.1,0.2l-4.2,4.4c-0.1,0.1-0.1,0.3,0,0.5l4.4,4.2
	c0.1,0.1,0.1,0.1,0.1,0.2l0.6,18.1c0,0.2,0.2,0.3,0.3,0.3c0,0,0,0,0,0l7.1-0.3c0.2,0,0.3,0.1,0.3,0.3c0,0,0,0,0,0l0.5,14.8
	c0,0.2-0.1,0.3-0.3,0.3c0,0,0,0,0,0l-29,0.8c-0.2,0-0.3-0.1-0.3-0.3c0,0,0,0,0,0l-0.5-14.7c0-0.2,0.1-0.3,0.3-0.3c0,0,0,0,0,0
	l5.9-0.1c0.2,0,0.3-0.2,0.3-0.3c0,0,0,0,0,0l-0.4-14.9c0-0.2-0.2-0.3-0.3-0.3c0,0,0,0,0,0l-14.9,0.5c-0.2,0-0.3,0.2-0.3,0.3
	c0,0,0,0,0,0l0.5,14.9c0,0.2,0.2,0.3,0.3,0.3l6-0.3c0.2,0,0.3,0.1,0.3,0.3c0,0,0,0,0,0l0.4,14.8c0,0.2-0.1,0.3-0.3,0.3c0,0,0,0,0,0
	l-29,0.8c-0.2,0-0.3-0.1-0.3-0.3c0,0,0,0,0,0l-0.4-14.6c0-0.2,0.1-0.3,0.3-0.3c0,0,0,0,0,0l7-0.2c0.2,0,0.3-0.2,0.3-0.3c0,0,0,0,0,0
	l-1.5-45.7C555.8,105.8,555.7,105.7,555.5,105.7C555.5,105.7,555.5,105.7,555.5,105.7z M586.7,105c0-0.2-0.2-0.4-0.4-0.4l-14.7,0.5
	c-0.2,0-0.4,0.2-0.4,0.4c0,0,0,0,0,0l0.5,14.7c0,0.2,0.2,0.4,0.4,0.4l14.7-0.5c0.2,0,0.4-0.2,0.4-0.4c0,0,0,0,0,0L586.7,105z"/>
<path class="st2" d="M678.9,159.1l-0.5-7.3c0-0.2-0.1-0.3-0.3-0.3l-10.9-2c-0.2,0-0.3,0.1-0.4,0.2l-3,6.7c-0.1,0.2,0,0.4,0.2,0.5
	c0,0,0.1,0,0.1,0l5.7,1c0.2,0,0.3,0.2,0.3,0.4l-2.6,14.4c0,0.2-0.2,0.3-0.4,0.3l-28.4-5.2c-0.2,0-0.3-0.2-0.3-0.4l2.6-14.4
	c0-0.2,0.2-0.3,0.4-0.3c0,0,0,0,0,0l6.9,1.3c0.2,0,0.3-0.1,0.4-0.2l26-57.5c0.1-0.2,0.2-0.2,0.4-0.2l14.5,2.7c0.2,0,0.3,0.2,0.3,0.3
	l4.1,62.9c0,0.2,0.1,0.3,0.3,0.3l6.9,1.3c0.2,0,0.3,0.2,0.3,0.4l-2.6,14.4c0,0.2-0.2,0.3-0.4,0.3l-28.4-5.2c-0.2,0-0.3-0.2-0.3-0.4
	l2.6-14.4c0-0.2,0.2-0.3,0.4-0.3l5.7,1C678.7,159.6,678.9,159.4,678.9,159.1C678.9,159.2,678.9,159.2,678.9,159.1z M673.6,134.8
	c-0.1,0.2,0,0.3,0.2,0.4c0,0,0,0,0.1,0l3.2,0.6c0.2,0,0.3-0.1,0.3-0.2c0,0,0,0,0-0.1l-0.4-6.8c0-0.2-0.2-0.3-0.3-0.3
	c-0.1,0-0.2,0.1-0.2,0.2L673.6,134.8z"/>
<path class="st2" d="M476.8,166.1l-10.2-44.6c0-0.2-0.3-0.3-0.5-0.3c0,0,0,0,0,0l-6.8,1.5c-0.2,0-0.4-0.1-0.5-0.3c0,0,0,0,0,0
	l-3.2-14.2c0-0.2,0.1-0.4,0.3-0.5c0,0,0,0,0,0l40-9.1c0.1,0,0.2,0,0.3,0l14.5,9c0.1,0.1,0.2,0.1,0.2,0.2l11.6,50.9
	c0,0.1,0,0.2,0,0.3l-9.1,14.5c-0.1,0.1-0.1,0.2-0.2,0.2l-40.1,9.2c-0.2,0-0.4-0.1-0.5-0.3c0,0,0,0,0,0l-3.2-14.3
	c0-0.2,0.1-0.4,0.3-0.4l6.8-1.5C476.7,166.5,476.9,166.3,476.8,166.1z M496.7,114.7c-0.1-0.2-0.3-0.4-0.5-0.3l0,0l-14.3,3.3
	c-0.2,0.1-0.4,0.3-0.3,0.5c0,0,0,0,0,0l10.2,44.4c0.1,0.2,0.3,0.4,0.5,0.3c0,0,0,0,0,0l14.3-3.3c0.2-0.1,0.4-0.3,0.3-0.5
	c0,0,0,0,0,0L496.7,114.7z"/>
<path class="st3" d="M571.5,105.1l14.7-0.5c0.2,0,0.4,0.2,0.4,0.4l0.5,14.7c0,0.2-0.2,0.4-0.4,0.4l-14.7,0.5c-0.2,0-0.4-0.2-0.4-0.4
	l-0.5-14.7C571.1,105.3,571.3,105.1,571.5,105.1z"/>
<path class="st3" d="M481.9,117.6l14.3-3.3c0.2-0.1,0.5,0.1,0.5,0.3l10.2,44.4c0.1,0.2-0.1,0.5-0.3,0.5l-14.3,3.3
	c-0.2,0.1-0.5-0.1-0.5-0.3l-10.2-44.4C481.5,117.9,481.7,117.7,481.9,117.6z"/>
<path class="st2" d="M751.9,132.3l-6.4-2.5c-0.2-0.1-0.3-0.3-0.2-0.5l5.2-13.5c0.1-0.2,0.3-0.3,0.5-0.2l26.9,10.4
	c0.2,0.1,0.3,0.3,0.2,0.5c0,0,0,0,0,0l-5.2,13.5c-0.1,0.2-0.3,0.3-0.5,0.2c0,0,0,0,0,0l-5.4-2.1c-0.2-0.1-0.5,0-0.5,0.2c0,0,0,0,0,0
	L750,180.9c-0.1,0.2,0,0.5,0.2,0.5c0,0,0,0,0,0l13.7,5.3c0.2,0.1,0.4,0,0.5-0.2l16.4-42.5c0.1-0.2,0-0.5-0.2-0.5l-5.4-2
	c-0.2-0.1-0.3-0.3-0.2-0.5l5.2-13.6c0.1-0.2,0.3-0.3,0.5-0.2l26.9,10.4c0.2,0.1,0.3,0.3,0.2,0.5l-5.2,13.5c-0.1,0.2-0.3,0.3-0.5,0.2
	c0,0,0,0,0,0l-6.4-2.5c-0.2-0.1-0.5,0-0.5,0.2c0,0,0,0,0,0l-17.6,45.6c0,0.1-0.1,0.2-0.2,0.2l-15.6,6.9c-0.1,0-0.2,0-0.3,0
	l-19.8-7.7c-0.1,0-0.2-0.1-0.2-0.2l-6.9-15.6c0-0.1,0-0.2,0-0.3l17.6-45.6C752.2,132.6,752.1,132.4,751.9,132.3z"/>
<path class="st2" d="M411.9,168.2c0.6,0.5,0.7,0.3,0.4-0.3L401,143c-0.1-0.3-0.4-0.4-0.7-0.3l-6,2.7c-0.4,0.2-0.7,0.1-0.8-0.3
	l-5.9-12.9c-0.1-0.3-0.1-0.5,0.2-0.6l27.1-12.4c0.2-0.1,0.5,0,0.7,0.2l5.9,12.9c0.1,0.3,0,0.7-0.3,0.8c0,0,0,0,0,0l-5.9,2.7
	c-0.3,0.1-0.4,0.5-0.3,0.7c0,0,0,0,0,0l25.3,55.2c0.1,0.3,0.1,0.5-0.2,0.7l-13.1,5.9c-0.3,0.1-0.6,0.1-0.8-0.1l-38.2-29.5
	c-0.7-0.5-0.8-0.4-0.5,0.4l11.4,24.9c0.1,0.1,0.2,0.2,0.3,0.1c0,0,0,0,0,0l6.3-2.9c0.3-0.1,0.5-0.1,0.7,0.3l6.1,13.3
	c0,0.1,0,0.2-0.1,0.2c0,0,0,0,0,0l-27.3,12.5c-0.4,0.2-0.6,0.1-0.8-0.3l-5.9-12.9c-0.1-0.3,0-0.6,0.3-0.7l6-2.7
	c0.3-0.1,0.5-0.5,0.3-0.9c0,0,0,0,0,0l-18.8-41c-0.2-0.4-0.5-0.5-0.9-0.3l-6.1,2.8c-0.2,0.1-0.4,0-0.5-0.2c0,0,0,0,0,0l-6.1-13.4
	c-0.1-0.1,0-0.3,0.1-0.3c0,0,0,0,0,0l20.3-9.3c0.3-0.1,0.5-0.1,0.8,0.1L411.9,168.2z"/>
<path class="st3" d="M673.6,134.8l2.8-6.2c0.1-0.2,0.2-0.2,0.4-0.1c0.1,0,0.2,0.1,0.2,0.2l0.4,6.8c0,0.2-0.1,0.3-0.3,0.3
	c0,0,0,0-0.1,0l-3.2-0.6C673.7,135.2,673.6,135,673.6,134.8C673.6,134.8,673.6,134.8,673.6,134.8z"/>
<path class="st2" d="M837.2,224.5l7.8-12.3c0.1-0.2,0.1-0.5-0.1-0.6c0,0,0,0,0,0l-15.1-9.6c-0.1-0.1-0.2-0.2-0.2-0.3l-3.7-16.6
	c0-0.1,0-0.2,0.1-0.4l11.3-17.9c0.1-0.1,0.2-0.2,0.3-0.2l16.6-3.7c0.1,0,0.2,0,0.4,0.1l17.9,11.3c0.1,0.1,0.2,0.2,0.2,0.3l3.7,16.6
	c0,0.1,0,0.2-0.1,0.4l-5.4,8.5c-0.1,0.2-0.4,0.3-0.6,0.2c0,0,0,0,0,0l-12.2-7.7c-0.2-0.1-0.3-0.4-0.2-0.6c0,0,0,0,0,0l3.6-5.7
	c0.1-0.2,0.1-0.5-0.1-0.6c0,0,0,0,0,0l-12.3-7.8c-0.2-0.1-0.5-0.1-0.6,0.1c0,0,0,0,0,0l-7.8,12.4c-0.1,0.2-0.1,0.5,0.1,0.6
	c0,0,0,0,0,0l14.9,9.4c0.1,0.1,0.2,0.2,0.2,0.3l3.9,16.8c0,0.1,0,0.3-0.1,0.4l-11.3,17.9c-0.1,0.1-0.2,0.2-0.3,0.2l-16.7,3.7
	c-0.1,0-0.2,0-0.4-0.1L813.2,228c-0.1-0.1-0.2-0.2-0.2-0.3l-3.7-16.6c0-0.1,0-0.3,0.1-0.4l5.4-8.5c0.1-0.2,0.4-0.3,0.6-0.1l12.1,7.7
	c0.2,0.1,0.3,0.4,0.1,0.6c0,0,0,0,0,0l-3.6,5.7c-0.1,0.2-0.1,0.5,0.1,0.6l12.3,7.8C836.7,224.8,837,224.7,837.2,224.5
	C837.2,224.5,837.2,224.5,837.2,224.5z"/>
<path class="st2" d="M334.5,232.3l-5.6-4.7c-0.1-0.1-0.3-0.1-0.5,0l-8.9,6.4c-0.1,0.1-0.2,0.3-0.1,0.4l2.7,6.8
	c0.1,0.2,0.3,0.3,0.5,0.2c0,0,0.1,0,0.1,0l4.7-3.4c0.2-0.1,0.4-0.1,0.5,0.1c0,0,0,0,0,0l8.5,11.8c0.1,0.2,0.1,0.4-0.1,0.5
	c0,0,0,0,0,0l-23.5,16.9c-0.2,0.1-0.4,0.1-0.5-0.1c0,0,0,0,0,0l-8.5-11.8c-0.1-0.2-0.1-0.4,0.1-0.5c0,0,0,0,0,0l5.7-4.1
	c0.1-0.1,0.2-0.3,0.1-0.5l-23.4-58.6c-0.1-0.2,0-0.3,0.1-0.4l12-8.6c0.1-0.1,0.3-0.1,0.5,0l48.2,40.7c0.1,0.1,0.3,0.1,0.5,0l5.7-4.1
	c0.2-0.1,0.4-0.1,0.5,0.1c0,0,0,0,0,0l8.5,11.8c0.1,0.2,0.1,0.4-0.1,0.5c0,0,0,0,0,0l-23.4,16.9c-0.2,0.1-0.4,0.1-0.5-0.1
	c0,0,0,0,0,0l-8.5-11.8c-0.1-0.2-0.1-0.4,0.1-0.5c0,0,0,0,0,0l4.7-3.4C334.6,232.8,334.6,232.5,334.5,232.3
	C334.5,232.3,334.5,232.3,334.5,232.3z M313.2,219.2c0.1,0.2,0.2,0.2,0.4,0.2c0,0,0,0,0.1,0l2.6-1.9c0.1-0.1,0.2-0.3,0.1-0.4
	c0,0,0,0-0.1-0.1l-5-4.2c-0.1-0.1-0.3-0.1-0.4,0c-0.1,0.1-0.1,0.2-0.1,0.3L313.2,219.2z"/>
<path class="st2" d="M989,591c0,219.8-178.2,398-398,398S193,810.8,193,591c0-219.8,178.2-398,398-398l0,0
	C810.8,193,989,371.2,989,591z M963.3,591c0-205.6-166.7-372.3-372.3-372.3c-205.6,0-372.3,166.7-372.3,372.3
	c0,205.6,166.7,372.3,372.3,372.3S963.3,796.6,963.3,591z"/>
<path class="st3" d="M313.2,219.2l-2.4-6.1c-0.1-0.2,0-0.3,0.2-0.4c0.1,0,0.2,0,0.3,0.1l5,4.2c0.1,0.1,0.1,0.3,0,0.4
	c0,0,0,0-0.1,0.1l-2.6,1.9C313.5,219.4,313.3,219.4,313.2,219.2C313.2,219.3,313.2,219.2,313.2,219.2z"/>
<path class="st3" d="M963.3,591c0,205.6-166.7,372.3-372.3,372.3S218.7,796.6,218.7,591c0-205.6,166.7-372.3,372.3-372.3
	C796.6,218.7,963.3,385.4,963.3,591z M953.1,591c0-200-162.1-362.1-362.1-362.1c0,0,0,0,0,0C391,228.9,228.9,391,228.9,591
	c0,0,0,0,0,0c0,200,162.1,362.1,362.1,362.1l0,0C791,953.1,953.1,791,953.1,591L953.1,591z"/>
<path class="st2" d="M953.1,591c0,200-162.1,362.1-362.1,362.1h0C391,953.1,228.9,791,228.9,591c0,0,0,0,0,0
	c0-200,162.1-362.1,362.1-362.1c0,0,0,0,0,0C791,228.9,953.1,391,953.1,591L953.1,591z M351.7,529.3l49.8,0c0.3,0,0.4,0.1,0.4,0.4
	v33.4c0,0.4,0.2,0.6,0.6,0.6h65c0.2,0,0.3-0.1,0.3-0.3v-49.2c0-0.4-0.2-0.8-0.5-1.1l-35.6-33.4c-0.4-0.4-0.9-0.6-1.4-0.6H329.6
	c-0.6,0-1.2,0.2-1.7,0.7l-36.1,34c-0.3,0.3-0.5,0.7-0.5,1.1l0,156.2c0,0.7,0.3,1.4,0.8,2l35.8,34c0.5,0.5,1.2,0.8,1.9,0.8h100.5
	c0.6,0,1.3-0.2,1.7-0.7l35.6-33.4c0.2-0.2,0.4-0.5,0.4-0.9v-49.4c0-0.1-0.1-0.2-0.2-0.2l-65.5,0c-0.1,0-0.3,0.1-0.3,0.3l0,0v33.5
	c0,0.4-0.2,0.6-0.6,0.6l-49.4,0c-0.3,0-0.5-0.2-0.5-0.5c-0.1-2.3-0.2-4.6-0.2-6.8c0-41.4,0-81.6,0-120.4
	C351.2,529.5,351.4,529.3,351.7,529.3z M734.7,528.5c0.2,0,0.3,0.1,0.3,0.3V658c0,0.2-0.1,0.3-0.3,0.3c0,0,0,0,0,0l-18.1,0
	c-0.2,0-0.3,0.1-0.3,0.3c0,0,0,0,0,0l0,48.8c0,0.2,0.1,0.3,0.3,0.3c0,0,0,0,0,0h149.3c0.1,0,0.2,0,0.2-0.1l36.5-34.3
	c0.1-0.1,0.1-0.1,0.1-0.2v-72.9c0-0.1-0.1-0.2-0.1-0.3l-18.2-12.1c-0.1-0.1-0.2-0.3-0.1-0.4c0,0,0,0,0.1-0.1l18.3-16.5
	c0.1-0.1,0.1-0.2,0.1-0.2v-56.9c0-0.1,0-0.2-0.1-0.2l-36.5-34.2c-0.1-0.1-0.1-0.1-0.2-0.1l-149.3,0c-0.2,0-0.3,0.1-0.3,0.3l0,0
	l0,48.7c0,0.2,0.1,0.3,0.3,0.3c0,0,0,0,0,0L734.7,528.5z M628.6,663.3c0,0.2,0,0.3-0.2,0.4c0,0-0.1,0-0.1,0h-11
	c-0.2,0-0.3,0.1-0.3,0.3v0v41.8c0,0.2,0.1,0.3,0.3,0.3H707c0.2,0,0.3-0.1,0.3-0.3V664c0-0.2-0.1-0.3-0.3-0.3h0h-16.5
	c-0.1,0-0.2-0.1-0.3-0.2l-50.5-136c-0.1-0.2,0-0.3,0.2-0.4c0,0,0.1,0,0.1,0l10.1,0c0.2,0,0.3-0.1,0.3-0.3l0-41.8
	c0-0.2-0.1-0.3-0.3-0.3h0l-118.4,0c-0.2,0-0.3,0.1-0.3,0.3l0,41.8c0,0.2,0.1,0.3,0.3,0.3h10.1c0.2,0,0.3,0.1,0.3,0.3
	c0,0,0,0.1,0,0.1l-50.5,136c0,0.1-0.2,0.2-0.3,0.2h-16.5c-0.2,0-0.3,0.1-0.3,0.3v0v41.8c0,0.2,0.1,0.3,0.3,0.3h89.6
	c0.2,0,0.3-0.1,0.3-0.3l0-41.8c0-0.2-0.1-0.3-0.3-0.3h0l-11,0c-0.2,0-0.3-0.1-0.3-0.3c0,0,0-0.1,0-0.1l6.1-19.3
	c0-0.1,0.2-0.2,0.3-0.2h62.7c0.1,0,0.3,0.1,0.3,0.2L628.6,663.3z"/>
<path class="st2" d="M984.2,344.4l0.7,8.2c0,0.1-0.1,0.3-0.2,0.4l-17.2,12.4c-0.1,0.1-0.2,0.1-0.3,0.1l-16.8-2.7
	c-0.1,0-0.2-0.1-0.3-0.2l-24-33.3c-0.1-0.2-0.1-0.4,0.1-0.6l11.8-8.5c0.2-0.1,0.4-0.1,0.6,0.1l4,5.6c0.1,0.2,0.4,0.2,0.6,0.1
	l37-26.7c0.2-0.1,0.2-0.4,0.1-0.6l-4.1-5.6c-0.1-0.2-0.1-0.4,0.1-0.6l11.8-8.5c0.2-0.1,0.4-0.1,0.6,0.1l24,33.3
	c0.1,0.1,0.1,0.2,0.1,0.3l-2.7,16.9c0,0.1-0.1,0.2-0.2,0.3l-17.2,12.4c-0.1,0.1-0.3,0.1-0.4,0l-7.5-3.3c-0.2-0.1-0.4,0-0.5,0.2
	C984.2,344.3,984.2,344.4,984.2,344.4z M998.1,324.4c0.2-0.1,0.2-0.4,0.1-0.6l-8.6-11.9c-0.1-0.2-0.4-0.2-0.6-0.1l-11.9,8.5
	c-0.2,0.1-0.2,0.4-0.1,0.6c0,0,0,0,0,0l8.6,11.9c0.1,0.2,0.4,0.3,0.6,0.1c0,0,0,0,0,0L998.1,324.4z M964.7,330
	c-0.2-0.2-0.5-0.3-0.7-0.1l0,0l-11.7,8.5c-0.2,0.2-0.3,0.5-0.1,0.7l8.5,11.7c0.2,0.2,0.5,0.3,0.7,0.1l0,0l11.7-8.5
	c0.2-0.2,0.3-0.5,0.1-0.7L964.7,330z"/>
<path class="st3" d="M998.1,324.4l-11.8,8.6c-0.2,0.1-0.5,0.1-0.6-0.1c0,0,0,0,0,0l-8.6-11.9c-0.2-0.2-0.1-0.5,0.1-0.6c0,0,0,0,0,0
	l11.9-8.5c0.2-0.1,0.5-0.1,0.6,0.1l8.6,11.9C998.4,323.9,998.3,324.2,998.1,324.4z"/>
<path class="st2" d="M214.4,362l-6.1-3.5c-0.2-0.1-0.2-0.3-0.1-0.5c0,0,0,0,0,0l7.3-12.6c0.1-0.2,0.3-0.2,0.5-0.1c0,0,0,0,0,0
	l19.3,11.1c0.2,0.1,0.2,0.3,0.1,0.5c0,0,0,0,0,0L209,403c-0.1,0.2-0.3,0.2-0.5,0.1c0,0,0,0,0,0l-12.6-7.3c-0.2-0.1-0.2-0.3-0.1-0.5
	c0,0,0,0,0,0l3.5-6c0.1-0.2,0-0.4-0.1-0.5c0,0,0,0,0,0L159.4,366c-0.2-0.1-0.4,0-0.5,0.1c0,0,0,0,0,0l-3.4,6.1
	c-0.1,0.2-0.3,0.2-0.5,0.1c0,0,0,0,0,0l-12.7-7.3c-0.2-0.1-0.2-0.3-0.1-0.5c0,0,0,0,0,0l26.5-46.1c0.1-0.2,0.3-0.2,0.5-0.1
	c0,0,0,0,0,0l19.3,11.1c0.2,0.1,0.2,0.3,0.1,0.5c0,0,0,0,0,0l-7.3,12.7c-0.1,0.2-0.3,0.2-0.5,0.1c0,0,0,0,0,0l-6-3.5
	c-0.2-0.1-0.4,0-0.5,0.1c0,0,0,0,0,0l-7.4,12.9c-0.1,0.2,0,0.4,0.1,0.5c0,0,0,0,0,0l12.8,7.4c0.2,0.1,0.4,0,0.5-0.1c0,0,0,0,0,0
	l7.3-12.8c0.1-0.2,0.3-0.2,0.5-0.1c0,0,0,0,0,0l12.7,7.2c0.2,0.1,0.2,0.3,0.1,0.5c0,0,0,0,0,0l-7.3,12.8c-0.1,0.2,0,0.4,0.1,0.5
	c0,0,0,0,0,0l12.8,7.4c0.2,0.1,0.4,0,0.5-0.1c0,0,0,0,0,0l7.4-12.8C214.7,362.3,214.6,362.1,214.4,362
	C214.4,362,214.4,362,214.4,362z"/>
<path class="st3" d="M952.2,338.3l11.7-8.5c0.2-0.2,0.6-0.1,0.7,0.1l8.5,11.7c0.2,0.2,0.1,0.6-0.1,0.7l-11.7,8.5
	c-0.2,0.2-0.6,0.1-0.7-0.1l-8.5-11.7C951.9,338.8,952,338.5,952.2,338.3z"/>
<path class="st2" d="M1005.6,404.9l-13.4,6.1c-0.2,0.1-0.3,0.3-0.2,0.6l2.5,5.3c0.1,0.2,0,0.5-0.2,0.6c0,0,0,0,0,0l-13.2,6
	c-0.2,0.1-0.5,0-0.6-0.2l-12-26.2c-0.1-0.2,0-0.5,0.2-0.6l13.2-6.1c0.2-0.1,0.5,0,0.6,0.2c0,0,0,0,0,0l2.8,6.3
	c0.1,0.2,0.3,0.3,0.6,0.2c0,0,0,0,0,0l41.5-19c0.2-0.1,0.3-0.3,0.2-0.6l-2.9-6.2c-0.1-0.2,0-0.5,0.2-0.6l13.2-6.1
	c0.2-0.1,0.5,0,0.6,0.2l17.1,37.3c0,0.1,0,0.2,0,0.3l-5.9,16c0,0.1-0.1,0.2-0.2,0.2l-19.3,8.8c-0.1,0-0.2,0-0.3,0l-5.6-2.1
	c-0.2-0.1-0.5,0-0.5,0.2c0,0,0,0,0,0l-2,5.6c0,0.1-0.1,0.2-0.2,0.2l-16.4,7.5c-0.2,0.1-0.3,0.3-0.2,0.6l2.9,6.3
	c0.1,0.2,0,0.5-0.2,0.6l-13.2,6.1c-0.2,0.1-0.5,0-0.6-0.2l-12-26.2c-0.1-0.2,0-0.5,0.2-0.6l13.2-6c0.2-0.1,0.5,0,0.6,0.2l2.4,5.2
	c0.1,0.2,0.3,0.3,0.6,0.2l13.4-6.1c0.2-0.1,0.3-0.3,0.2-0.6l-6.1-13.4C1006,404.9,1005.8,404.8,1005.6,404.9z M1034.3,392.3
	c-0.1-0.3-0.4-0.4-0.7-0.2l-13.2,6.1c-0.3,0.1-0.4,0.4-0.2,0.7v0l6.1,13.2c0.1,0.3,0.4,0.4,0.7,0.2l13.2-6.1
	c0.3-0.1,0.4-0.4,0.2-0.7L1034.3,392.3z"/>
<path class="st3" d="M1020.4,398.1l13.2-6.1c0.3-0.1,0.6,0,0.7,0.2l6.1,13.2c0.1,0.3,0,0.6-0.2,0.7l-13.2,6.1
	c-0.3,0.1-0.6,0-0.7-0.2l-6.1-13.2C1020,398.5,1020.1,398.2,1020.4,398.1z"/>
<path class="st2" d="M168.8,466.4L125.5,452c-0.2-0.1-0.4,0-0.5,0.2l-2.1,6.6c-0.1,0.2-0.3,0.3-0.5,0.2l-13.9-4.6
	c-0.2-0.1-0.3-0.3-0.2-0.5l13-39c0-0.1,0.1-0.2,0.2-0.2l15.3-7.6c0.1,0,0.2,0,0.3,0l20.1,6.7c0.1,0,0.2,0.1,0.3,0.3l1.8,8
	c0,0.2,0.2,0.3,0.4,0.3c0.1,0,0.1,0,0.2-0.1l6.3-5.4c0.1-0.1,0.2-0.1,0.4-0.1l20.1,6.7c0.1,0,0.2,0.1,0.2,0.2l7.7,15.3
	c0,0.1,0,0.2,0,0.3l-12.9,39c-0.1,0.2-0.3,0.3-0.5,0.2l-13.8-4.6c-0.2-0.1-0.3-0.3-0.2-0.5l2.2-6.6
	C169.1,466.7,169,466.5,168.8,466.4z M149.5,428c0.1-0.3-0.1-0.5-0.3-0.6l-13.8-4.6c-0.3-0.1-0.5,0.1-0.6,0.3l-4.6,13.8
	c-0.1,0.3,0.1,0.5,0.3,0.6l13.8,4.6c0.3,0.1,0.5-0.1,0.6-0.3L149.5,428z M178.8,437.7c0.1-0.2,0-0.5-0.3-0.6l-13.9-4.6
	c-0.2-0.1-0.5,0-0.6,0.3l-4.6,13.9c-0.1,0.2,0,0.5,0.3,0.6l13.9,4.6c0.2,0.1,0.5,0,0.6-0.3L178.8,437.7z"/>
<path class="st3" d="M135.4,422.7l13.8,4.6c0.3,0.1,0.4,0.4,0.3,0.6l-4.6,13.8c-0.1,0.3-0.4,0.4-0.6,0.3l-13.8-4.6
	c-0.3-0.1-0.4-0.4-0.3-0.6l4.6-13.8C134.8,422.8,135.1,422.7,135.4,422.7z"/>
<path class="st3" d="M164.6,432.5l13.9,4.6c0.2,0.1,0.4,0.3,0.3,0.6l-4.6,13.9c-0.1,0.2-0.3,0.4-0.6,0.3l-13.9-4.6
	c-0.2-0.1-0.4-0.3-0.3-0.6l4.6-13.9C164.1,432.5,164.4,432.4,164.6,432.5z"/>
<path class="st2" d="M1020.4,497.2l1,5.7c0,0.2-0.1,0.4-0.3,0.4l-14.3,2.6c-0.2,0-0.4-0.1-0.4-0.3l-5.1-28.5c0-0.2,0.1-0.4,0.3-0.4
	l14.3-2.6c0.2,0,0.4,0.1,0.4,0.3c0,0,0,0,0,0l1.2,6.9c0,0.2,0.2,0.3,0.4,0.3l62.9,4.2c0.2,0,0.3,0.1,0.3,0.3l2.6,14.5
	c0,0.2-0.1,0.3-0.2,0.4l-57.5,25.9c-0.2,0.1-0.2,0.2-0.2,0.4l1.3,6.9c0,0.2-0.1,0.4-0.3,0.4c0,0,0,0,0,0l-14.3,2.6
	c-0.2,0-0.4-0.1-0.4-0.3l-5.1-28.5c0-0.2,0.1-0.4,0.3-0.4l14.4-2.6c0.2,0,0.4,0.1,0.4,0.3c0,0,0,0,0,0l1,5.6c0,0.2,0.2,0.3,0.4,0.3
	c0,0,0.1,0,0.1,0l6.6-3c0.2-0.1,0.3-0.2,0.2-0.4l-2-11c0-0.2-0.2-0.3-0.4-0.3l-7.2-0.4C1020.6,496.8,1020.5,496.9,1020.4,497.2
	C1020.4,497.2,1020.4,497.2,1020.4,497.2z M1044.6,498.4c-0.2,0-0.3,0.1-0.3,0.3c0,0,0,0,0,0.1l0.5,3.1c0,0.2,0.2,0.3,0.3,0.2
	c0,0,0,0,0.1,0l6.2-2.7c0.2-0.1,0.2-0.2,0.2-0.4c0-0.1-0.1-0.2-0.3-0.2L1044.6,498.4z"/>
<path class="st3" d="M351.2,529.8c0,38.8,0,79,0,120.4c0,2.2,0.1,4.5,0.2,6.8c0,0.3,0.2,0.5,0.5,0.5l49.4,0c0.4,0,0.6-0.2,0.6-0.6
	v-33.5c0-0.1,0.1-0.3,0.3-0.3l0,0l65.5,0c0.1,0,0.2,0.1,0.2,0.2v49.4c0,0.3-0.1,0.6-0.4,0.9L432,707c-0.5,0.4-1.1,0.7-1.7,0.7H329.8
	c-0.7,0-1.4-0.3-1.9-0.8l-35.8-34c-0.5-0.5-0.8-1.2-0.8-2l0-156.2c0-0.4,0.2-0.8,0.5-1.1l36.1-34c0.5-0.4,1.1-0.7,1.7-0.7h100.9
	c0.5,0,1,0.2,1.4,0.6l35.6,33.4c0.3,0.3,0.5,0.7,0.5,1.1v49.2c0,0.2-0.2,0.3-0.3,0.3h-65c-0.4,0-0.6-0.2-0.6-0.6v-33.4
	c0-0.3-0.1-0.4-0.4-0.4l-49.8,0C351.4,529.3,351.2,529.5,351.2,529.8z"/>
<path class="st3" d="M734.7,528.5l-18.1,0c-0.2,0-0.3-0.1-0.3-0.3c0,0,0,0,0,0l0-48.7c0-0.2,0.1-0.3,0.3-0.3l0,0l149.3,0
	c0.1,0,0.2,0,0.2,0.1l36.5,34.2c0.1,0.1,0.1,0.1,0.1,0.2v56.9c0,0.1,0,0.2-0.1,0.2l-18.3,16.5c-0.1,0.1-0.1,0.3,0,0.5
	c0,0,0,0,0.1,0.1l18.2,12.1c0.1,0.1,0.1,0.2,0.1,0.3v72.9c0,0.1,0,0.2-0.1,0.2L866,707.6c-0.1,0.1-0.1,0.1-0.2,0.1H716.5
	c-0.2,0-0.3-0.1-0.3-0.3c0,0,0,0,0,0l0-48.8c0-0.2,0.1-0.3,0.3-0.3c0,0,0,0,0,0l18.1,0c0.2,0,0.3-0.1,0.3-0.3c0,0,0,0,0,0V528.8
	C735,528.7,734.8,528.5,734.7,528.5z M836.7,529.6c0-0.2-0.1-0.3-0.3-0.3l-41.1-0.1c-0.2,0-0.3,0.1-0.3,0.3l-0.1,34.4
	c0,0.2,0.1,0.3,0.3,0.3l41.1,0.1c0.2,0,0.3-0.1,0.3-0.3c0,0,0,0,0,0L836.7,529.6z M836.7,611.3c0-0.2-0.2-0.4-0.4-0.4l-41-0.1
	c-0.2,0-0.4,0.2-0.4,0.4c0,0,0,0,0,0l-0.1,45.9c0,0.2,0.2,0.4,0.4,0.4l41,0.1c0.2,0,0.4-0.2,0.4-0.4L836.7,611.3z"/>
<path class="st3" d="M628.6,663.3l-6.1-19.3c0-0.1-0.2-0.2-0.3-0.2h-62.7c-0.1,0-0.3,0.1-0.3,0.2l-6.1,19.3c0,0.2,0,0.3,0.2,0.4
	c0,0,0.1,0,0.1,0l11,0c0.2,0,0.3,0.1,0.3,0.3v0l0,41.8c0,0.2-0.1,0.3-0.3,0.3h-89.6c-0.2,0-0.3-0.1-0.3-0.3V664
	c0-0.2,0.1-0.3,0.3-0.3c0,0,0,0,0,0h16.5c0.1,0,0.2-0.1,0.3-0.2l50.5-136c0.1-0.2,0-0.3-0.2-0.4c0,0-0.1,0-0.1,0h-10.1
	c-0.2,0-0.3-0.1-0.3-0.3l0-41.8c0-0.2,0.1-0.3,0.3-0.3l118.4,0c0.2,0,0.3,0.1,0.3,0.3c0,0,0,0,0,0l0,41.8c0,0.2-0.1,0.3-0.3,0.3
	l-10.1,0c-0.2,0-0.3,0.1-0.3,0.3c0,0,0,0.1,0,0.1l50.5,136c0,0.1,0.2,0.2,0.3,0.2H707c0.2,0,0.3,0.1,0.3,0.3v0v41.8
	c0,0.2-0.1,0.3-0.3,0.3h-89.7c-0.2,0-0.3-0.1-0.3-0.3V664c0-0.2,0.1-0.3,0.3-0.3h0h11C628.5,663.7,628.6,663.5,628.6,663.3
	C628.6,663.4,628.6,663.3,628.6,663.3z M572.8,601c-0.1,0.2,0,0.4,0.3,0.4h35.4c0.4,0,0.6-0.2,0.4-0.6l-17.8-56.5
	c-0.2-0.5-0.3-0.5-0.5,0L572.8,601z"/>
<path class="st2" d="M108.6,533.2l45.2,6c0.2,0,0.4-0.1,0.4-0.3c0,0,0,0,0,0l1.9-14.7c0-0.2-0.1-0.4-0.3-0.4c0,0,0,0,0,0l-45.3-6
	c-0.2,0-0.4,0.1-0.4,0.3c0,0,0,0,0,0l-0.7,5.9c0,0.2-0.2,0.3-0.4,0.3c0,0,0,0,0,0l-14.5-1.9c-0.2,0-0.3-0.2-0.3-0.4c0,0,0,0,0,0
	l3.8-28.7c0-0.2,0.2-0.3,0.4-0.3c0,0,0,0,0,0l14.5,1.9c0.2,0,0.3,0.2,0.3,0.4l-0.9,7c0,0.2,0.1,0.4,0.3,0.4l48.5,6.4
	c0.1,0,0.2,0.1,0.2,0.1l10.4,13.6c0.1,0.1,0.1,0.2,0.1,0.3l-2.8,21.1c0,0.1-0.1,0.2-0.1,0.2l-13.6,10.4c-0.1,0.1-0.2,0.1-0.3,0.1
	l-48.5-6.4c-0.2,0-0.4,0.1-0.4,0.3l-0.8,6.9c0,0.2-0.2,0.3-0.4,0.3L90.4,554c-0.2,0-0.3-0.2-0.3-0.4c0,0,0,0,0,0l3.8-28.7
	c0-0.2,0.2-0.3,0.4-0.3c0,0,0,0,0,0l14.5,1.9c0.2,0,0.3,0.2,0.3,0.4l-0.7,5.9C108.3,533,108.4,533.1,108.6,533.2z"/>
<path class="st3" d="M1044.6,498.4l6.8,0.4c0.2,0,0.3,0.1,0.3,0.3c0,0.1-0.1,0.2-0.2,0.3l-6.2,2.7c-0.1,0.1-0.3,0-0.4-0.1
	c0,0,0,0,0-0.1l-0.5-3.1C1044.2,498.6,1044.3,498.5,1044.6,498.4C1044.5,498.4,1044.5,498.4,1044.6,498.4z"/>
<path class="st2" d="M795.2,529.2l41.1,0.1c0.2,0,0.3,0.1,0.3,0.3l-0.1,34.4c0,0.2-0.1,0.3-0.3,0.3l-41.1-0.1
	c-0.2,0-0.3-0.1-0.3-0.3l0.1-34.4C794.9,529.4,795.1,529.2,795.2,529.2z"/>
<path class="st2" d="M572.8,601l17.9-56.7c0.2-0.5,0.3-0.5,0.5,0l17.8,56.5c0.1,0.4,0,0.6-0.4,0.6h-35.4
	C572.8,601.4,572.7,601.3,572.8,601z"/>
<path class="st2" d="M1061,577.7l0.5,17.8c0,0.1,0,0.2-0.1,0.3l-11.7,12.7c-0.1,0.1-0.2,0.1-0.3,0.1l-21.3,0.6c-0.1,0-0.2,0-0.3-0.1
	l-12.4-11.7c-0.1-0.1-0.1-0.2-0.1-0.3l-0.6-21.1c0-0.1,0-0.2,0.1-0.3l11.6-12.5c0.1-0.1,0.2-0.1,0.3-0.1l10.2-0.4
	c0.2,0,0.4,0.2,0.4,0.4l0.5,14.5c0,0.2-0.2,0.4-0.4,0.4c0,0,0,0,0,0l-6.9,0.3c-0.2,0-0.4,0.2-0.4,0.4c0,0,0,0,0,0l0.5,14.7
	c0,0.2,0.2,0.4,0.4,0.4c0,0,0,0,0,0l14.7-0.4c0.2,0,0.4-0.2,0.4-0.4c0,0,0,0,0,0l-0.6-18.1c0-0.1,0-0.2,0.1-0.3l11.7-12.5
	c0.1-0.1,0.2-0.1,0.3-0.1l21.2-0.6c0.1,0,0.2,0,0.3,0.1l12.5,11.6c0.1,0.1,0.1,0.2,0.1,0.3l0.7,21.3c0,0.1,0,0.2-0.1,0.3l-11.8,12.5
	c-0.1,0.1-0.2,0.1-0.3,0.1l-10.1,0.2c-0.2,0-0.4-0.2-0.4-0.4c0,0,0,0,0,0l-0.4-14.5c0-0.2,0.2-0.4,0.4-0.4c0,0,0,0,0,0l6.9-0.2
	c0.2,0,0.4-0.2,0.4-0.4l-0.5-14.8c0-0.2-0.2-0.4-0.4-0.4c0,0,0,0,0,0l-14.7,0.5C1061.1,577.3,1061,577.5,1061,577.7
	C1061,577.7,1061,577.7,1061,577.7z"/>
<path class="st2" d="M107,641.5l0.7,7.1c0,0.2-0.1,0.3-0.3,0.4c0,0,0,0,0,0L92.6,650c-0.2,0-0.3-0.1-0.4-0.3c0,0,0,0,0,0l-2.4-30
	c0-0.2,0.1-0.3,0.3-0.4c0,0,0,0,0,0l14.6-1.1c0.2,0,0.3,0.1,0.4,0.3c0,0,0,0,0,0l0.6,7c0,0.2,0.2,0.3,0.4,0.3c0,0,0,0,0,0l45.5-3.7
	c0.2,0,0.3-0.2,0.3-0.4c0,0,0,0,0,0l-1.2-14.8c0-0.2-0.2-0.3-0.3-0.3c0,0,0,0,0,0l-7,0.5c-0.2,0-0.3-0.1-0.4-0.3c0,0,0,0,0,0
	l-1.2-14.6c0-0.2,0.1-0.3,0.3-0.4c0,0,0,0,0,0l22.3-1.8c0.2,0,0.3,0.1,0.4,0.3c0,0,0,0,0,0l4.3,53c0,0.2-0.1,0.3-0.3,0.4
	c0,0,0,0,0,0l-14.6,1.2c-0.2,0-0.3-0.1-0.4-0.3c0,0,0,0,0,0l-0.6-7c0-0.2-0.2-0.3-0.4-0.3c0,0,0,0,0,0l-45.6,3.7
	C107.1,641.1,106.9,641.3,107,641.5C107,641.5,107,641.5,107,641.5z"/>
<path class="st2" d="M795.3,610.9l41,0.1c0.2,0,0.4,0.2,0.4,0.4l-0.1,45.9c0,0.2-0.2,0.4-0.4,0.4l-41-0.1c-0.2,0-0.4-0.2-0.4-0.4
	l0.1-45.9C794.9,611,795.1,610.9,795.3,610.9z"/>
<path class="st2" d="M1025.2,659.6l-0.8,5.9c0,0.2-0.2,0.3-0.3,0.3l-14.6-1.9c-0.2,0-0.3-0.2-0.3-0.3c0,0,0,0,0,0l3.8-28.9
	c0-0.2,0.2-0.3,0.3-0.3c0,0,0,0,0,0l14.6,2c0.2,0,0.3,0.2,0.3,0.3c0,0,0,0,0,0l-1,7c0,0.2,0.1,0.3,0.3,0.3c0,0,0,0,0,0l45.4,6
	c0.2,0,0.3-0.1,0.3-0.3c0,0,0,0,0,0l1-7.1c0-0.2,0.2-0.3,0.3-0.3c0,0,0,0,0,0l14.6,1.9c0.2,0,0.3,0.2,0.3,0.3c0,0,0,0,0,0l-3.8,28.8
	c0,0.2-0.2,0.3-0.3,0.3c0,0,0,0,0,0l-14.6-2c-0.2,0-0.3-0.2-0.3-0.3c0,0,0,0,0,0l0.9-5.9c0-0.2-0.1-0.3-0.3-0.3c0,0,0,0,0,0l-45.4-6
	C1025.4,659.3,1025.2,659.5,1025.2,659.6z"/>
<path class="st2" d="M120.2,712.7l44.3-10.1c0.3-0.1,0.4-0.3,0.4-0.6c0,0,0,0,0,0l-3.2-14.3c-0.1-0.3-0.3-0.4-0.6-0.4c0,0,0,0,0,0
	l-6.6,1.5c-0.3,0.1-0.5-0.1-0.6-0.3c0,0,0,0,0,0l-3.2-14.1c-0.1-0.3,0.1-0.5,0.3-0.6c0,0,0,0,0,0l9.8-2.2c0.1,0,0.2,0,0.4,0.1
	l14.4,9c0.1,0.1,0.2,0.2,0.2,0.3l4.7,20.7c0,0.1,0,0.2-0.1,0.4l-9,14.4c-0.1,0.1-0.2,0.2-0.3,0.2l-50.7,11.6c-0.1,0-0.2,0-0.4-0.1
	l-14.4-9c-0.1-0.1-0.2-0.2-0.2-0.3l-4.7-20.7c0-0.1,0-0.2,0.1-0.4l9-14.4c0.1-0.1,0.2-0.2,0.3-0.2l9.8-2.3c0.3-0.1,0.5,0.1,0.6,0.3
	c0,0,0,0,0,0l3.2,14.1c0.1,0.3-0.1,0.5-0.3,0.6c0,0,0,0,0,0l-6.6,1.5c-0.3,0.1-0.4,0.3-0.4,0.6c0,0,0,0,0,0l3.2,14.3
	C119.7,712.6,119.9,712.8,120.2,712.7C120.2,712.7,120.2,712.7,120.2,712.7z"/>
<path class="st2" d="M1064.1,706.6l14.1,3.9c0.2,0.1,0.3,0.2,0.2,0.4c0,0,0,0,0,0l-8.2,28.9c-0.1,0.2-0.2,0.3-0.4,0.2c0,0,0,0,0,0
	l-14-3.9c-0.2-0.1-0.3-0.2-0.2-0.4c0,0,0,0,0,0l1.9-6.8c0.1-0.2-0.1-0.4-0.2-0.4c0,0,0,0,0,0l-44-12.4c-0.2-0.1-0.4,0.1-0.4,0.2
	c0,0,0,0,0,0l-4,14.3c-0.1,0.2,0.1,0.4,0.2,0.4c0,0,0,0,0,0l6.8,1.9c0.2,0.1,0.3,0.2,0.2,0.4c0,0,0,0,0,0l-3.9,14.1
	c-0.1,0.2-0.2,0.3-0.4,0.2c0,0,0,0,0,0l-21.5-6.1c-0.2-0.1-0.3-0.2-0.2-0.4c0,0,0,0,0,0l14.4-51.2c0.1-0.2,0.2-0.3,0.4-0.2
	c0,0,0,0,0,0l14.1,4c0.2,0.1,0.3,0.2,0.2,0.4c0,0,0,0,0,0l-1.9,6.7c-0.1,0.2,0.1,0.4,0.2,0.4c0,0,0,0,0,0l44,12.4
	c0.2,0.1,0.4-0.1,0.4-0.2c0,0,0,0,0,0l1.9-6.7C1063.7,706.7,1063.9,706.6,1064.1,706.6C1064.1,706.6,1064.1,706.6,1064.1,706.6z"/>
<path class="st2" d="M412.6,1021.5l13.3,5.3c0.2,0.1,0.3,0.3,0.2,0.4l-4.3,10.9c-0.1,0.2-0.3,0.3-0.4,0.2c0,0,0,0,0,0l-13.3-5.3
	c-0.2-0.1-0.4,0-0.4,0.2l-4.4,11.2c-0.1,0.2,0,0.4,0.2,0.4c0,0,0,0,0,0l6.3,2.5c0.2,0.1,0.3,0.3,0.2,0.4c0,0,0,0,0,0l-4.3,11
	c-0.1,0.2-0.3,0.3-0.4,0.2c0,0,0,0,0,0l-27.1-10.7c-0.2-0.1-0.3-0.3-0.2-0.4c0,0,0,0,0,0l4.3-11c0.1-0.2,0.3-0.3,0.4-0.2
	c0,0,0,0,0,0l6.4,2.5c0.2,0.1,0.4,0,0.4-0.2c0,0,0,0,0,0l13.6-34.5c0.1-0.2,0-0.4-0.2-0.4c0,0,0,0,0,0l-6.3-2.5
	c-0.2-0.1-0.3-0.3-0.2-0.4c0,0,0,0,0,0l4.3-11c0.1-0.2,0.3-0.3,0.4-0.2c0,0,0,0,0,0l48,18.9c0.2,0.1,0.3,0.3,0.2,0.4l-6.7,16.8
	c-0.1,0.2-0.3,0.3-0.4,0.2c0,0,0,0,0,0l-13.2-5.2c-0.2-0.1-0.3-0.3-0.2-0.4c0,0,0,0,0,0l2.1-5.2c0.1-0.2,0-0.4-0.2-0.4c0,0,0,0,0,0
	l-13.4-5.3c-0.2-0.1-0.4,0-0.4,0.2c0,0,0,0,0,0l-4.4,11.2C412.3,1021.2,412.4,1021.4,412.6,1021.5
	C412.6,1021.5,412.6,1021.5,412.6,1021.5z"/>
<path class="st2" d="M742.7,1018.7l-6.2,2.5c-0.2,0.1-0.4,0-0.5-0.2l-4.3-10.9c-0.1-0.2,0-0.4,0.2-0.5l27-10.6
	c0.2-0.1,0.4,0,0.5,0.2l4.3,10.9c0.1,0.2,0,0.4-0.2,0.5c0,0,0,0,0,0l-6.2,2.4c-0.2,0.1-0.3,0.3-0.2,0.5l13.6,34.4
	c0.1,0.2,0.3,0.3,0.5,0.2l13.3-5.2c0.2-0.1,0.3-0.3,0.2-0.5l-2-5.1c-0.1-0.2,0-0.4,0.2-0.5l13.1-5.1c0.2-0.1,0.4,0,0.5,0.2l6.6,16.7
	c0.1,0.2,0,0.4-0.2,0.5l-47.9,18.9c-0.2,0.1-0.4,0-0.5-0.2l-4.3-10.8c-0.1-0.2,0-0.4,0.2-0.5l6.2-2.4c0.2-0.1,0.3-0.3,0.2-0.5
	l-13.6-34.4C743.1,1018.7,742.9,1018.6,742.7,1018.7z"/>
<path class="st2" d="M461.5,1065.1l14,3.3c0.2,0,0.4-0.1,0.4-0.2l8.3-36.2c0-0.2-0.1-0.4-0.2-0.4c0,0,0,0,0,0l-5.6-1.2
	c-0.2,0-0.3-0.2-0.3-0.4c0,0,0,0,0,0l2.7-11.5c0-0.2,0.2-0.3,0.4-0.2l27.3,6.3c0.2,0,0.3,0.2,0.2,0.4l-2.6,11.5
	c0,0.2-0.2,0.3-0.4,0.3c0,0,0,0,0,0l-6.7-1.5c-0.2,0-0.4,0.1-0.4,0.2c0,0,0,0,0,0l-8.9,38.7c0,0.1-0.1,0.2-0.2,0.2l-13.6,6.9
	c-0.1,0-0.1,0-0.2,0l-20.1-4.6c-0.1,0-0.1-0.1-0.2-0.1l-9.2-12.2c-0.1-0.1-0.1-0.2-0.1-0.3l8.9-38.7c0-0.2-0.1-0.4-0.2-0.4l-6.6-1.5
	c-0.2,0-0.3-0.2-0.2-0.4l2.6-11.5c0-0.2,0.2-0.3,0.4-0.2l27.4,6.3c0.2,0,0.3,0.2,0.2,0.4l-2.6,11.5c0,0.2-0.2,0.3-0.4,0.3
	c0,0,0,0,0,0l-5.6-1.3c-0.2,0-0.4,0.1-0.4,0.2c0,0,0,0,0,0l-8.3,36.1C461.2,1064.9,461.3,1065.1,461.5,1065.1z"/>
<path class="st2" d="M698.5,1073.1l-11.3-39.9c-0.1-0.4,0-0.7,0.2-1.1l8.1-12c0.2-0.2,0.4-0.4,0.7-0.5l19.3-5.5
	c0.3-0.1,0.6-0.1,0.9,0.1l13.2,6c0.3,0.2,0.6,0.4,0.7,0.8l11.3,39.9c0.1,0.4,0,0.7-0.2,1.1l-8.1,12c-0.2,0.2-0.4,0.4-0.7,0.5
	l-19.3,5.5c-0.3,0.1-0.6,0.1-0.9-0.1l-13.2-5.9C698.8,1073.7,698.6,1073.4,698.5,1073.1z M716.5,1027.1c-0.1-0.2-0.3-0.3-0.5-0.3h0
	l-13.8,3.9c-0.2,0.1-0.3,0.3-0.3,0.5l10.1,35.6c0.1,0.2,0.3,0.3,0.5,0.3l13.8-3.9c0.2-0.1,0.3-0.3,0.3-0.5L716.5,1027.1z"/>
<path class="st2" d="M543.9,1079.7l6.8,0.7c0.2,0,0.3,0.2,0.3,0.4c0,0,0,0,0,0l-1.5,11.8c0,0.2-0.2,0.3-0.4,0.3c0,0,0,0,0,0
	l-28.9-3.7c-0.2,0-0.3-0.2-0.3-0.4c0,0,0,0,0,0l1.5-11.7c0-0.2,0.2-0.3,0.4-0.3c0,0,0,0,0,0l6.8,0.8c0.2,0,0.4-0.1,0.4-0.3
	c0,0,0,0,0,0l4.7-36.8c0-0.2-0.1-0.4-0.3-0.4c0,0,0,0,0,0l-6.9-0.7c-0.2,0-0.3,0.1-0.4,0.3l-0.7,5.5c0,0.2-0.2,0.3-0.4,0.3
	c0,0,0,0,0,0l-14-1.8c-0.2,0-0.3-0.2-0.3-0.4c0,0,0,0,0,0l2.3-17.9c0-0.2,0.2-0.3,0.4-0.3c0,0,0,0,0,0l58.6,7.5
	c0.2,0,0.3,0.2,0.3,0.4c0,0,0,0,0,0l-2.3,17.9c0,0.2-0.2,0.3-0.4,0.3c0,0,0,0,0,0l-14-1.8c-0.2,0-0.3-0.2-0.3-0.4l0.7-5.6
	c0-0.2-0.1-0.4-0.3-0.4c0,0,0,0,0,0l-6.8-0.8c-0.2,0-0.3,0.1-0.4,0.3l-4.7,36.8C543.6,1079.5,543.7,1079.7,543.9,1079.7
	C543.9,1079.7,543.9,1079.7,543.9,1079.7z"/>
<path class="st2" d="M679.5,1055.8l7.1,2.5c0.1,0,0.2,0.1,0.2,0.3l2.1,17.1c0,0.1,0,0.2-0.1,0.3l-10.4,11.2
	c-0.1,0.1-0.1,0.1-0.2,0.1l-39.5,5c-0.2,0-0.4-0.1-0.4-0.3c0,0,0,0,0,0l-1.5-11.7c0-0.2,0.1-0.4,0.3-0.4c0,0,0,0,0,0l6.7-0.9
	c0.2,0,0.3-0.2,0.3-0.4c0,0,0,0,0,0l-4.7-36.8c0-0.2-0.2-0.3-0.4-0.3l-6.7,0.9c-0.2,0-0.4-0.1-0.4-0.3c0,0,0,0,0,0l-1.5-11.7
	c0-0.2,0.1-0.4,0.3-0.4l39.6-5c0.1,0,0.2,0,0.2,0l12.9,8.3c0.1,0.1,0.1,0.1,0.2,0.2l2.1,17c0,0.1,0,0.2-0.1,0.3l-6.3,4.2
	c-0.2,0.1-0.2,0.3-0.1,0.5C679.4,1055.7,679.5,1055.8,679.5,1055.8z M669.3,1038.2c0-0.2-0.2-0.4-0.5-0.4l-14.1,1.8
	c-0.2,0-0.4,0.2-0.4,0.5l0,0l1.5,11.7c0,0.2,0.2,0.4,0.5,0.4l0,0l14.1-1.8c0.2,0,0.4-0.2,0.4-0.5L669.3,1038.2z M672.5,1063.1
	c0-0.3-0.3-0.4-0.5-0.4c0,0,0,0,0,0l-14,1.8c-0.3,0-0.4,0.3-0.4,0.5l0,0l1.5,11.7c0,0.3,0.3,0.4,0.5,0.4c0,0,0,0,0,0l14-1.8
	c0.3,0,0.4-0.3,0.4-0.5l0,0L672.5,1063.1z"/>
<path class="st3" d="M702.3,1030.8l13.8-3.9c0.2-0.1,0.4,0.1,0.5,0.3l10.1,35.6c0.1,0.2-0.1,0.4-0.3,0.5l-13.8,3.9
	c-0.2,0.1-0.4-0.1-0.5-0.3l-10.1-35.6C702,1031,702.1,1030.8,702.3,1030.8z"/>
<path class="st2" d="M611.3,1043.5l-14.5,0.3c-0.2,0-0.3,0.1-0.3,0.3c0,0,0,0,0,0l0.4,12.1c0,0.2,0.1,0.3,0.3,0.3c0,0,0,0,0,0
	l14.3-0.4c0.2,0,0.3,0.1,0.3,0.3c0,0,0,0,0,0l0.3,11.9c0,0.2-0.1,0.3-0.3,0.3c0,0,0,0,0,0l-14.3,0.3c-0.2,0-0.3,0.1-0.3,0.3
	c0,0,0,0,0,0l0.3,12.1c0,0.2,0.1,0.3,0.3,0.3c0,0,0,0,0,0l14.5-0.4c0.2,0,0.3-0.1,0.3-0.3c0,0,0,0,0,0l-0.3-5.6
	c0-0.2,0.1-0.3,0.3-0.3c0,0,0,0,0,0l14.3-0.4c0.2,0,0.3,0.1,0.3,0.3c0,0,0,0,0,0l0.5,18.1c0,0.2-0.1,0.3-0.3,0.3c0,0,0,0,0,0
	l-51.6,1.3c-0.2,0-0.3-0.1-0.3-0.3c0,0,0,0,0,0l-0.3-11.8c0-0.2,0.1-0.3,0.3-0.3c0,0,0,0,0,0l6.9-0.2c0.2,0,0.3-0.1,0.3-0.3
	c0,0,0,0,0,0l-0.9-37.2c0-0.2-0.1-0.3-0.3-0.3c0,0,0,0,0,0l-6.9,0.3c-0.2,0-0.3-0.1-0.3-0.3c0,0,0,0,0,0l-0.3-11.9
	c0-0.2,0.1-0.3,0.3-0.3c0,0,0,0,0,0l51.6-1.3c0.2,0,0.3,0.1,0.3,0.3c0,0,0,0,0,0l0.4,18.1c0,0.2-0.1,0.3-0.3,0.3c0,0,0,0,0,0
	l-14.2,0.4c-0.2,0-0.3-0.1-0.3-0.3c0,0,0,0,0,0l-0.2-5.7C611.6,1043.7,611.5,1043.5,611.3,1043.5
	C611.3,1043.5,611.3,1043.5,611.3,1043.5z"/>
<path class="st3" d="M654.7,1039.6l14.1-1.8c0.2,0,0.5,0.1,0.5,0.4l1.5,11.7c0,0.2-0.1,0.5-0.4,0.5l-14.1,1.8
	c-0.2,0-0.5-0.1-0.5-0.4l-1.5-11.7C654.3,1039.9,654.5,1039.6,654.7,1039.6z"/>
<path class="st3" d="M657.9,1064.5l14-1.8c0.3,0,0.5,0.1,0.5,0.4l1.5,11.7c0,0.3-0.1,0.5-0.4,0.5l-14,1.8c-0.3,0-0.5-0.1-0.5-0.4
	l-1.5-11.7C657.5,1064.8,657.7,1064.5,657.9,1064.5z"/>
</svg>
