<svg id="Layer_1" data-name="Layer 1" xmlns="http://www.w3.org/2000/svg" viewBox="0 0 500 500"><defs><style>.cls-1{fill:#be023a;}.cls-2{fill:#fefefe;}.cls-3{fill:#284282;}.cls-4{fill:#d7e0f1;}</style></defs><title>Barcelona-BA</title><path class="cls-1" d="M243.42,494.51c-3.54-1.3-7.24-2.08-10.83-3.2A315,315,0,0,1,185,472.15a337.94,337.94,0,0,1-69.16-45.82,252.32,252.32,0,0,1-34.81-36.18,208.48,208.48,0,0,1-26.65-43.8A167.85,167.85,0,0,1,42.53,307.5a172.73,172.73,0,0,1-2.47-30.11q0-63.63,0-127.26a2.43,2.43,0,0,1,1.26-2.35c10.3-6.68,20.47-13.55,30.9-20a2.05,2.05,0,0,0,1-2.06q0-31.66,0-63.35a2.44,2.44,0,0,1,1.33-2.45c12.28-7.27,24.29-15,37.09-21.39a304.94,304.94,0,0,1,77.47-26.89,301,301,0,0,1,42.84-5.55c10-.52,20.07-.79,30.09-.36A307.94,307.94,0,0,1,360.34,26c20.73,8,40.18,18.39,59,30.18,2.1,1.31,4.19,2.63,6.34,3.86a2.06,2.06,0,0,1,1.17,2.11q0,26.07,0,52.13c0,3.93,0,7.85,0,11.78a1.76,1.76,0,0,0,.94,1.68q15.54,10,31.05,20c.37.23.68.68,1.22.55v139c-.34.15-.25.47-.26.73a157.39,157.39,0,0,1-4.79,31.34,149.82,149.82,0,0,1-10,28.32c-3.21,6.62-6.36,13.29-10.2,19.6a230.78,230.78,0,0,1-22.3,30.82,288.8,288.8,0,0,1-47.68,43.74,346.76,346.76,0,0,1-59.21,34.92,280.18,280.18,0,0,1-45.4,16.58,11.15,11.15,0,0,0-3.26,1.12ZM89.75,136.74a4.67,4.67,0,0,0-1.89.87c-10.09,6-19.79,12.53-29.64,18.88a3.23,3.23,0,0,0-1.66,3.14q.06,59.85,0,119.7c0,4.24.12,8.49.52,12.72a149.59,149.59,0,0,0,18.53,59.84c2.57,4.5,5,9.13,7.88,13.39a247.83,247.83,0,0,0,18.81,24.55,265.67,265.67,0,0,0,24.3,24,303,303,0,0,0,38.22,28.07c24.47,15.32,50.38,27.37,78.22,35.19a22.66,22.66,0,0,0,11.34.48,157.56,157.56,0,0,0,17-5,304.08,304.08,0,0,0,41.79-18.2,322.63,322.63,0,0,0,54.35-35.88,252.86,252.86,0,0,0,35.76-35.61,201.83,201.83,0,0,0,22.39-33.94,153.9,153.9,0,0,0,14.47-40,139.2,139.2,0,0,0,3-28.2q0-60.9,0-121.8a2.12,2.12,0,0,0-1.08-2c-5.39-3.45-10.72-7-16.1-10.43-5.23-3.34-10.43-6.72-15.87-9.74,0-.55-.05-1.11-.05-1.67q0-31.81,0-63.62a2,2,0,0,0-1.09-2c-5.68-3.42-11.31-6.91-17.09-10.15a289,289,0,0,0-95.25-33.31,282.34,282.34,0,0,0-54-3.63,307.57,307.57,0,0,0-40.08,3.77,282,282,0,0,0-52,13.6A309.65,309.65,0,0,0,91.11,69.28a2.38,2.38,0,0,0-1.31,2.31q.06,31.66,0,63.34C89.82,135.53,89.77,136.14,89.75,136.74Z"/><path class="cls-2" d="M89.75,136.74c0-.6.07-1.21.07-1.81q0-31.68,0-63.34a2.38,2.38,0,0,1,1.31-2.31,309.65,309.65,0,0,1,59.52-29.62,282,282,0,0,1,52-13.6,307.57,307.57,0,0,1,40.08-3.77,282.34,282.34,0,0,1,54,3.63,289,289,0,0,1,95.25,33.31C397.72,62.47,403.35,66,409,69.38a2,2,0,0,1,1.09,2q0,31.8,0,63.62c0,.56,0,1.12.05,1.68s-.05,1.21-.05,1.81q0,79.82,0,159.64a114.1,114.1,0,0,1-1,14.66c-1.36,10.48-4.87,20.34-9.2,29.85a130,130,0,0,1-15.67,25.48,186.64,186.64,0,0,1-31.91,32.14c-29,23-61.11,39.86-96.82,49.74a20.83,20.83,0,0,1-5,1.05c-3.74.08-7.16-1.26-10.61-2.3a274.23,274.23,0,0,1-85.82-43.51,197.25,197.25,0,0,1-38.47-37.34,126.22,126.22,0,0,1-17.17-29.08,111,111,0,0,1-6-17.59,114.46,114.46,0,0,1-2.6-25.44q.06-78.56,0-157.1C89.82,138,89.77,137.39,89.75,136.74Zm196.67,20.87.22.29c-.59,1.16-1.27,2.28-1.76,3.48-.62,1.52-.18,2.1,1.44,2.07,3.4-.07,6.8-.27,10.2-.23,7.89.09,15.81.16,22.53,5.27l.37.37c.13-.27-.06-.41-.23-.56a21.45,21.45,0,0,0-3.62-4.94c-.55-.6-.64-.93,0-1.54,1.79-1.69,1.33-5.08-.69-6.57,0,.51,0,1,0,1.42a2.15,2.15,0,0,1-1.3,2.12c-1,.43-1.54-.19-2.14-.82a41.65,41.65,0,0,0-8.32-7,15.76,15.76,0,0,0-7.58-2.61c-4.28-.17-7.46,2-10.18,5a28.08,28.08,0,0,0-5,7.93Zm35,151.41-.33-.07.13.31c1.42,3,3.24,3.6,6,1.92a30.43,30.43,0,0,0,2.69-1.77,21.83,21.83,0,0,1,6.1-3,11.08,11.08,0,0,1,6.49.22c5.8,1.56,7.66,6.51,4.32,11.49-.47.69-.72.94-1.51.23-4.26-3.8-11.78-4.61-16.63-1.55-2.85,1.79-5.5,3.44-9,1.36a11.49,11.49,0,0,0,1.57,2.1c2.23,2.34,3.8,2.66,6.77,1.4.65-.27,1.27-.6,1.93-.82,2.73-.9,5.35-2.15,8.41-1.3,6.83,1.92,8.79,8.9,3.84,13.94-4.61,4.69-8.65,5.39-14.5,2.51-1-.48-1.91-1-2.88-1.44a33.73,33.73,0,0,0-6.39-2.34,34.84,34.84,0,0,0-15.54.1,14.29,14.29,0,0,1-10.36-1.72c-2.19-1.24-4.24-2.7-6.42-4a22.88,22.88,0,0,0-7.64-2.94c-4.4-.75-8.62.1-12.83,1.31-16,4.61-32.2,6.75-48.84,4.94A63.85,63.85,0,0,0,201,329.9c-3.38.49-6.65,1.42-10,2.16a4.61,4.61,0,0,1-5.25-2,29.78,29.78,0,0,1-1.9-3.09c-3.18-6.19-6.3-12.4-9.07-18.78-4.47-10.3-7.35-20.93-7.1-32.28a49.3,49.3,0,0,0-.71-9.77c-.34-2-.75-3.91-1.2-6.21,5.67,4.59,12.3,7.21,17.76,12.2-.2-.64-.28-.94-.39-1.24A29.38,29.38,0,0,0,172.52,257c-8.73-6.35-13.36-15-13.09-26a14.19,14.19,0,0,1,2.54-7.86c.75,1.93,1.38,3.68,2.09,5.38,1.58,3.76,3.36,7.42,6.33,10.32a8,8,0,0,0,5.56,2.61c.44,0,1.05.2,1.3-.22s-.28-.82-.52-1.18a61.74,61.74,0,0,1-7.36-14.11c-3.26-9.34-3.13-18.42,2.16-27.08.17-.28.27-.59.47-1-.39.07-.62,0-.73.15a59.31,59.31,0,0,0-6,5.7,19.13,19.13,0,0,0-4.86,11.24,1.93,1.93,0,0,1-.72,1.28,21.62,21.62,0,0,0-6,14.53,42.09,42.09,0,0,0,2,13.78c1.14,3.94,3.16,7.59,3.75,11.71.32,2.26.83,4.5,1.15,6.76.61,4.3,1.29,8.62.9,13a46.8,46.8,0,0,0,1,14.74c1.48,6.41,4.06,12.41,6.76,18.37,3,6.54,6.1,13,7.89,20a15.66,15.66,0,0,0,2.89,5.71,9.72,9.72,0,0,0,8,3.92,34,34,0,0,0,9.06-1.62c3.33-.88,6.64-2,10.15-1.8.5,0,1.18-.17,1.42.33s-.35.9-.63,1.29a128.33,128.33,0,0,1-23.43,24.56c-9.75,7.85-20.51,14.13-31.35,20.3l-3.61,2.07c3,2.62,5.86,5,8.84,7.35a261.74,261.74,0,0,0,82.42,43.39c8.75,2.76,8.76,2.74,15.79.72l.4-.13a258.85,258.85,0,0,0,85.26-44.76c14.05-11.08,26.53-23.69,36.48-38.67,7.83-11.79,13.5-24.49,16-38.51.32-1.78.18-3.66,1.1-5.3a21.55,21.55,0,0,0,2.55-12.3c-.23-3.25-1.07-6.44-.77-9.73a7.08,7.08,0,0,0-.15-1.1c-.23-2.41-1.37-4.57-1.36-7.1q.11-99.16.07-198.33a2.25,2.25,0,0,0-1.18-2.24,276,276,0,0,0-290,0,2.23,2.23,0,0,0-1.18,2.24q0,97,0,194v1.87c6.11-8.38,11.52-16.69,16.7-25.16a112,112,0,0,0-.94,27.44c.13-.51.19-.68.22-.85,1.53-7.88,3.24-15.72,5.32-23.48,4.19-15.68,9.25-31,17.11-45.33,4.34-7.89,9.33-15.31,16.09-21.39,10.88-9.78,23.21-12.86,37.2-7.83,7.38,2.66,13.76,7,19.83,11.91.4.32.71.87,1.38.81.15-.61-.29-1-.54-1.37a27.63,27.63,0,0,0-5.26-6.34c-.91-.82-.71-1.09.29-1.58,1.93-.94,3.77-2.05,5.64-3.09,2.6-1.45,5.17-3,8.58-2.65a9.1,9.1,0,0,0-4.86-2.24c-5.32-1-10.62-.34-15.87.49-3.1.49-6,.85-8.69-1.32a9,9,0,0,0-2.13-1.05,44.72,44.72,0,0,0-11.17-3.46c.12-.18.16-.28.23-.32,1.34-.84,2.67-1.71,4-2.51a101.85,101.85,0,0,1,33.64-13c.67-.12,1.22-.37,1.39.69a44.32,44.32,0,0,0,4.45,13.21c3,5.85,6.18,11.53,11.73,15.42.64.45,1.33,1.33,2,1.07s.29-1.34.35-2.06.5-1.71-.36-2.48a23.31,23.31,0,0,1-2.06-2.26,50.34,50.34,0,0,1-10.36-18.26c-1.41-4.77-2.06-9.6-.44-14.47,1.74-5.26,4.41-6.5,9.52-4.4,5.77,2.38,10.61,6.19,15.29,10.24.38.32.66.79,1.32.93-.16-2-1.33-3.56-2.25-5.24a58.44,58.44,0,0,1,10.33-3.21c11.75-2.54,23.56-2.12,35.38-.71,9.64,1.15,19.16,3,28.66,5,2.21.45,4.4.94,6.78,1.45-1.11,1.27-2.09,2.33-3,3.44a15.33,15.33,0,0,0-2.92,4.41c-.44,1.22-.08,1.75,1.21,1.87.88.09,1.77.16,2.65.26A68.56,68.56,0,0,1,352.66,165c.72.36.75.65.23,1.21-1,1.1-2,2.22-2.94,3.39a2.06,2.06,0,0,1-2,.87,114,114,0,0,0-23.07,0c-6.34.79-12.33,2.56-17.38,6.71a15.65,15.65,0,0,0-5.95,9.53c-.86,5,.86,9.39,3.85,13.32.64.83.65,1.23-.25,1.84-9.71,6.59-13.78,16-13.39,27.49.28,7.91,2.26,15.49,4.46,23,1,3.58,2,7.19,4,10.43a13.93,13.93,0,0,0,7.73,6.54c3.73,1.17,7.39.57,11-.56,1.23-.38,2.43-.83,3.81-1.31a3.09,3.09,0,0,1-1,1.67,12.39,12.39,0,0,1-5.14,3,42.72,42.72,0,0,1-25.35.31,13.16,13.16,0,0,1-7-4.13c-.57-.69-.76-1.17.19-1.76a5.81,5.81,0,0,0,2.48-3.6c1-3.52.37-7-.52-10.36-2.17-8.24-6.24-15.56-11.18-22.43-3.43-4.75-7.19-9.2-12.13-12.5a9.33,9.33,0,0,0-3.37-1.57c4.16,4.58,7.06,9.68,10.36,14.56-4.62-1.84-9.5-2.83-13.86-5.2a19.42,19.42,0,0,1-10-13.31,42.58,42.58,0,0,1-.57-13.65c.27-2.92.71-5.82,1.13-9.1a35.16,35.16,0,0,0-4,9.88,3.18,3.18,0,0,1-2.12,2.56A31.07,31.07,0,0,0,228.94,210a24.4,24.4,0,0,0-3.21,5.08,27.08,27.08,0,0,0-4.24-6.9,23.47,23.47,0,0,0-6.29-5.06,24.28,24.28,0,0,0-7.29-2.8,44.54,44.54,0,0,1,5.71,6.35c5,7.05,6.15,15,5.29,23.36a10.52,10.52,0,0,1-2.45,5.76c-4.27,5.34-8,11-10.19,17.6-1.51,4.58-1.69,8.86-.51,12.38.37-1.15.69-2.32,1.13-3.45,2.88-7.55,8.39-12.9,14.76-17.52.81-.59.88,0,1.11.51A85.68,85.68,0,0,1,230,281.08a1,1,0,0,1-.89,1.16c-11.45,3.65-18.53,11.72-22.68,22.69a14,14,0,0,0-.87,5.91c.18-.25.29-.34.32-.45,1.33-5.17,4.41-9.22,8.21-12.79a66.2,66.2,0,0,1,14.63-10,3.26,3.26,0,0,1,1.76-.28c6.27.33,12.37,1.71,18.48,3,8.29,1.8,16.49,4.1,25,4.68,4.09.28,8.15.23,11.61-2.52a1.9,1.9,0,0,1,.9-.34,21.69,21.69,0,0,1,8.07.07c3.71.76,7,2.66,10.32,4.25a12.15,12.15,0,0,0,6.47,1.48,51.31,51.31,0,0,0,7.17-1.19c4.57-1.16,7.92-3.52,8.54-8.6a9.32,9.32,0,0,1,.37-1.35,5.64,5.64,0,0,1,2.21-3.14c3.88-2.74,10.43-2.49,14,.55a5.57,5.57,0,0,1,2,5.56,17.1,17.1,0,0,0-8.61-1.34c-5,.59-9.06,2.53-10.92,7.64a10.37,10.37,0,0,1-1.05,2,3.83,3.83,0,0,1-3.28,1.84c-.33,0-.65.06-1.12.1,3.52,2.56,5.66,2.24,8.06-1.06.6-.83,1.19-1.68,1.84-2.47a8.4,8.4,0,0,1,6.08-3.31,14,14,0,0,1,11,3.89,8,8,0,0,1,2.39,6.63c-.12,1.93-.3,2-1.95,1.1a21.23,21.23,0,0,0-11.23-2.88c-4.4.2-7.64,2.28-10.21,5.76C324.91,310.07,324,310.19,321.45,309ZM241.5,175.6A33.33,33.33,0,0,1,243,169a45.81,45.81,0,0,1,2.59-6c.31-.61,0-1-.34-1.37a43.57,43.57,0,0,1-6.16-10.76c0-.1-.18-.17-.31-.27a14.88,14.88,0,0,0-2.62,4.14,57,57,0,0,1-2.64-12,4.44,4.44,0,0,0-1,1.67,16.82,16.82,0,0,0-1,9.48C232.8,161.81,236.92,168.56,241.5,175.6ZM217,191.68l.09-.09-.17-.08s-.06.06-.09.08Z"/><path class="cls-3" d="M89.75,136.74c0,.65.07,1.3.07,2q0,78.54,0,157.1a114.46,114.46,0,0,0,2.6,25.44,111,111,0,0,0,6,17.59,126.22,126.22,0,0,0,17.17,29.08,197.25,197.25,0,0,0,38.47,37.34,274.23,274.23,0,0,0,85.82,43.51c3.45,1,6.87,2.38,10.61,2.3a20.83,20.83,0,0,0,5-1.05c35.71-9.88,67.84-26.79,96.82-49.74a186.64,186.64,0,0,0,31.91-32.14,130,130,0,0,0,15.67-25.48c4.33-9.51,7.84-19.37,9.2-29.85a114.1,114.1,0,0,0,1-14.66q0-79.83,0-159.64c0-.6,0-1.21.05-1.81,5.44,3,10.64,6.39,15.87,9.73,5.38,3.45,10.71,7,16.1,10.43a2.12,2.12,0,0,1,1.08,2q0,60.9,0,121.8a139.2,139.2,0,0,1-3,28.2,153.9,153.9,0,0,1-14.47,40,201.83,201.83,0,0,1-22.39,33.94,252.86,252.86,0,0,1-35.76,35.61,322.63,322.63,0,0,1-54.35,35.88,304.08,304.08,0,0,1-41.79,18.2,157.56,157.56,0,0,1-17,5,22.66,22.66,0,0,1-11.34-.48c-27.84-7.82-53.75-19.87-78.22-35.19a303,303,0,0,1-38.22-28.07,265.67,265.67,0,0,1-24.3-24,247.83,247.83,0,0,1-18.81-24.55c-2.93-4.26-5.31-8.89-7.88-13.39a149.59,149.59,0,0,1-18.53-59.84c-.4-4.23-.52-8.48-.52-12.72q0-59.85,0-119.7a3.23,3.23,0,0,1,1.66-3.14c9.85-6.35,19.55-12.92,29.64-18.88A4.67,4.67,0,0,1,89.75,136.74Z"/><path class="cls-1" d="M321.45,309c2.52,1.17,3.46,1.05,5.24-1.35,2.57-3.48,5.81-5.56,10.21-5.76a21.23,21.23,0,0,1,11.23,2.88c1.65.91,1.83.83,1.95-1.1a8,8,0,0,0-2.39-6.63,14,14,0,0,0-11-3.89,8.4,8.4,0,0,0-6.08,3.31c-.65.79-1.24,1.64-1.84,2.47-2.4,3.3-4.54,3.62-8.06,1.06.47,0,.79-.09,1.12-.1a3.83,3.83,0,0,0,3.28-1.84,10.37,10.37,0,0,0,1.05-2c1.86-5.11,5.93-7.05,10.92-7.64a17.1,17.1,0,0,1,8.61,1.34,5.57,5.57,0,0,0-2-5.56c-3.62-3-10.17-3.29-14-.55a5.64,5.64,0,0,0-2.21,3.14,9.32,9.32,0,0,0-.37,1.35c-.62,5.08-4,7.44-8.54,8.6a51.31,51.31,0,0,1-7.17,1.19,12.15,12.15,0,0,1-6.47-1.48c-3.37-1.59-6.61-3.49-10.32-4.25a21.69,21.69,0,0,0-8.07-.07,1.9,1.9,0,0,0-.9.34c-3.46,2.75-7.52,2.8-11.61,2.52-8.51-.58-16.71-2.88-25-4.68-6.11-1.33-12.21-2.71-18.48-3a3.26,3.26,0,0,0-1.76.28,66.2,66.2,0,0,0-14.63,10c-3.8,3.57-6.88,7.62-8.21,12.79,0,.11-.14.2-.32.45a14,14,0,0,1,.87-5.91c4.15-11,11.23-19,22.68-22.69a1,1,0,0,0,.89-1.16,85.68,85.68,0,0,0-7.22-35.81c-.23-.52-.3-1.1-1.11-.51-6.37,4.62-11.88,10-14.76,17.52-.44,1.13-.76,2.3-1.13,3.45-1.18-3.52-1-7.8.51-12.38,2.17-6.58,5.92-12.26,10.19-17.6a10.52,10.52,0,0,0,2.45-5.76c.86-8.4-.29-16.31-5.29-23.36a44.54,44.54,0,0,0-5.71-6.35,24.28,24.28,0,0,1,7.29,2.8,23.47,23.47,0,0,1,6.29,5.06,27.08,27.08,0,0,1,4.24,6.9,24.4,24.4,0,0,1,3.21-5.08,31.07,31.07,0,0,1,11.63-8.08,3.18,3.18,0,0,0,2.12-2.56,35.16,35.16,0,0,1,4-9.88c-.42,3.28-.86,6.18-1.13,9.1a42.58,42.58,0,0,0,.57,13.65,19.42,19.42,0,0,0,10,13.31c4.36,2.37,9.24,3.36,13.86,5.2-3.3-4.88-6.2-10-10.36-14.56a9.33,9.33,0,0,1,3.37,1.57c4.94,3.3,8.7,7.75,12.13,12.5,4.94,6.87,9,14.19,11.18,22.43.89,3.39,1.5,6.84.52,10.36a5.81,5.81,0,0,1-2.48,3.6c-1,.59-.76,1.07-.19,1.76a13.16,13.16,0,0,0,7,4.13,42.72,42.72,0,0,0,25.35-.31,12.39,12.39,0,0,0,5.14-3,3.09,3.09,0,0,0,1-1.67c-1.38.48-2.58.93-3.81,1.31-3.61,1.13-7.27,1.73-11,.56a13.93,13.93,0,0,1-7.73-6.54c-2-3.24-2.95-6.85-4-10.43-2.2-7.54-4.18-15.12-4.46-23-.39-11.53,3.68-20.9,13.39-27.49.9-.61.89-1,.25-1.84-3-3.93-4.71-8.28-3.85-13.32a15.65,15.65,0,0,1,5.95-9.53c5.05-4.15,11-5.92,17.38-6.71a114,114,0,0,1,23.07,0,2.06,2.06,0,0,0,2-.87c.93-1.17,1.92-2.29,2.94-3.39.52-.56.49-.85-.23-1.21a68.56,68.56,0,0,0-22.27-7.14c-.88-.1-1.77-.17-2.65-.26-1.29-.12-1.65-.65-1.21-1.87a15.33,15.33,0,0,1,2.92-4.41c.91-1.11,1.89-2.17,3-3.44-2.38-.51-4.57-1-6.78-1.45-9.5-2-19-3.82-28.66-5-11.82-1.41-23.63-1.83-35.38.71a58.44,58.44,0,0,0-10.33,3.21c.92,1.68,2.09,3.22,2.25,5.24-.66-.14-.94-.61-1.32-.93-4.68-4.05-9.52-7.86-15.29-10.24-5.11-2.1-7.78-.86-9.52,4.4-1.62,4.87-1,9.7.44,14.47a50.34,50.34,0,0,0,10.36,18.26,23.31,23.31,0,0,0,2.06,2.26c.86.77.42,1.65.36,2.48s.33,1.8-.35,2.06-1.36-.62-2-1.07c-5.55-3.89-8.77-9.57-11.73-15.42a44.32,44.32,0,0,1-4.45-13.21c-.17-1.06-.72-.81-1.39-.69a101.85,101.85,0,0,0-33.64,13c-1.37.8-2.7,1.67-4,2.51-.07,0-.11.14-.23.32A44.72,44.72,0,0,1,194,172.19a9,9,0,0,1,2.13,1.05c2.66,2.17,5.59,1.81,8.69,1.32,5.25-.83,10.55-1.5,15.87-.49a9.1,9.1,0,0,1,4.86,2.24c-3.41-.3-6,1.2-8.58,2.65-1.87,1-3.71,2.15-5.64,3.09-1,.49-1.2.76-.29,1.58a27.63,27.63,0,0,1,5.26,6.34c.25.4.69.76.54,1.37-.67.06-1-.49-1.38-.81-6.07-4.88-12.45-9.25-19.83-11.91-14-5-26.32-2-37.2,7.83-6.76,6.08-11.75,13.5-16.09,21.39-7.86,14.3-12.92,29.65-17.11,45.33-2.08,7.76-3.79,15.6-5.32,23.48,0,.17-.09.34-.22.85a112,112,0,0,1,.94-27.44c-5.18,8.47-10.59,16.78-16.7,25.16v-1.87q0-97,0-194a2.23,2.23,0,0,1,1.18-2.24,276.39,276.39,0,0,1,290,0,2.25,2.25,0,0,1,1.18,2.24q0,99.17-.07,198.33c0,2.53,1.13,4.69,1.36,7.1a7.08,7.08,0,0,1,.15,1.1c-.3,3.29.54,6.48.77,9.73a21.55,21.55,0,0,1-2.55,12.3c-.92,1.64-.78,3.52-1.1,5.3-2.49,14-8.16,26.72-16,38.51-9.95,15-22.43,27.59-36.48,38.67a258.85,258.85,0,0,1-85.26,44.76l-.4.13c-7,2-7,2-15.79-.72a261.74,261.74,0,0,1-82.42-43.39c-3-2.31-5.89-4.73-8.84-7.35l3.61-2.07c10.84-6.17,21.6-12.45,31.35-20.3a128.33,128.33,0,0,0,23.43-24.56c.28-.39.88-.79.63-1.29s-.92-.31-1.42-.33c-3.51-.15-6.82.92-10.15,1.8a34,34,0,0,1-9.06,1.62,9.72,9.72,0,0,1-8-3.92,15.66,15.66,0,0,1-2.89-5.71c-1.79-7-4.93-13.48-7.89-20-2.7-6-5.28-12-6.76-18.37a46.8,46.8,0,0,1-1-14.74c.39-4.35-.29-8.67-.9-13-.32-2.26-.83-4.5-1.15-6.76-.59-4.12-2.61-7.77-3.75-11.71a42.09,42.09,0,0,1-2-13.78,21.62,21.62,0,0,1,6-14.53,1.93,1.93,0,0,0,.72-1.28,19.13,19.13,0,0,1,4.86-11.24,59.31,59.31,0,0,1,6-5.7c.11-.11.34-.08.73-.15-.2.43-.3.74-.47,1-5.29,8.66-5.42,17.74-2.16,27.08a61.74,61.74,0,0,0,7.36,14.11c.24.36.8.72.52,1.18s-.86.23-1.3.22a8,8,0,0,1-5.56-2.61c-3-2.9-4.75-6.56-6.33-10.32-.71-1.7-1.34-3.45-2.09-5.38a14.19,14.19,0,0,0-2.54,7.86c-.27,11,4.36,19.66,13.09,26a29.38,29.38,0,0,1,10.62,13.88c.11.3.19.6.39,1.24-5.46-5-12.09-7.61-17.76-12.2.45,2.3.86,4.25,1.2,6.21a49.3,49.3,0,0,1,.71,9.77c-.25,11.35,2.63,22,7.1,32.28,2.77,6.38,5.89,12.59,9.07,18.78a29.78,29.78,0,0,0,1.9,3.09,4.61,4.61,0,0,0,5.25,2c3.32-.74,6.59-1.67,10-2.16a63.85,63.85,0,0,1,15.93.07c16.64,1.81,32.86-.33,48.84-4.94,4.21-1.21,8.43-2.06,12.83-1.31a22.88,22.88,0,0,1,7.64,2.94c2.18,1.26,4.23,2.72,6.42,4A14.29,14.29,0,0,0,303,332.34a34.84,34.84,0,0,1,15.54-.1,33.73,33.73,0,0,1,6.39,2.34c1,.46,1.92,1,2.88,1.44,5.85,2.88,9.89,2.18,14.5-2.51,4.95-5,3-12-3.84-13.94-3.06-.85-5.68.4-8.41,1.3-.66.22-1.28.55-1.93.82-3,1.26-4.54.94-6.77-1.4a11.49,11.49,0,0,1-1.57-2.1c3.46,2.08,6.11.43,9-1.36,4.85-3.06,12.37-2.25,16.63,1.55.79.71,1,.46,1.51-.23,3.34-5,1.48-9.93-4.32-11.49a11.08,11.08,0,0,0-6.49-.22,21.83,21.83,0,0,0-6.1,3,30.43,30.43,0,0,1-2.69,1.77c-2.79,1.68-4.61,1.09-6-1.92Zm15.71-120.74.16.16a9.21,9.21,0,0,1-3,3,56.23,56.23,0,0,1-10.65,5.84c-2.63,1.19-2.65,1.19-.59,3.28.5.51.93,1.28,1.84,1a16.44,16.44,0,0,0,3.27-1.23c6.4-3.74,12.75-7.57,19.14-11.35a1.63,1.63,0,0,0,.88-1.17,57.1,57.1,0,0,0,.8-6.66,1.06,1.06,0,0,0-.68-1.21c-3.56-1.63-7-3.57-10.68-4.88-3.48-1.22-7-2-10.69-1a13.35,13.35,0,0,0-6.59,4.25l.11.43h13.08a1.78,1.78,0,0,1-1.28.94,32.73,32.73,0,0,1-12.84,2.44c-1.51,0-1.48.9-1.62,1.86-.16,1.16.57,1.27,1.46,1.29a59.09,59.09,0,0,0,9.21-.45c2.84-.35,5.68-.66,8.63-1-.25.55-.65.63-1,.8a42.68,42.68,0,0,1-17.25,4.81c-.38,0-1-.2-1.06.39a4.87,4.87,0,0,0,.91,3.43c.56.88,1.35.42,2,.3A54.3,54.3,0,0,0,337.16,188.28ZM290.55,279a14.16,14.16,0,0,1-5-.81c-6.29-2.22-9.45-7.1-11.2-13.19-.22-.77.33-.86.75-1.1,5-3,6.41-7.41,3.83-12.64a67.74,67.74,0,0,0-5.54-8.57,20.56,20.56,0,0,0-8.31-6.89c-5-2.38-10.44-3.71-15.73-5.36a5.88,5.88,0,0,0-5.49,1c-.58.4-1.15.8-1.69,1.25a44.21,44.21,0,0,0-10.45,13.2,2,2,0,0,0-.07,1.72,113.55,113.55,0,0,1,4.16,16.25c1,5.48,1.67,11,.59,16.55-.21,1.09.46,1.14,1.1,1.35a204.13,204.13,0,0,0,26,6.64,44.8,44.8,0,0,0,12.38.9c5-.51,8.7-3.37,12.07-6.78A13,13,0,0,0,290.55,279ZM359.5,216c1.45.39,2.81.11,3.69,1.43,7.79,11.56,7.82,26.85-3,38.18-12.18,12.79-30,12.5-41.34,3l-1.82-1.52c-1.08,3.12-1.17,2.35,1,4a32.11,32.11,0,0,0,29,5.46c15.76-4.3,26.1-20.73,23.2-36.81a32.29,32.29,0,0,0-17.07-23.65c-.86-.47-1-.72-.41-1.57A27.3,27.3,0,0,0,357,195.6c.1-.41.48-1-.19-1.2a25.46,25.46,0,0,0-6.39-1.5,46.62,46.62,0,0,1,1.68,12.54c-1.23-.47-2.34-.93-3.47-1.32a31,31,0,0,0-10.71-1.76c-1.49,0-1.39,1.33-1.5,2.12s.86.36,1.28.36a39.82,39.82,0,0,1,9.27,1.21c1.89.44,2.61,1.68,3.21,3.37-.74,0-1.37,0-2,0a21.31,21.31,0,0,0-7.29,1.15,2.3,2.3,0,0,0-1.79,2c-.21,1.54-.68,3.05-1,4.58a25.65,25.65,0,0,1-1.33-4.88,2,2,0,0,0-1.77-1.7c-1-.21-.83.82-1.05,1.31A30.56,30.56,0,0,1,329,220c-1.59,1.78-3.29,3.46-5.17,5.45-.1-2.15-.18-3.86-.25-5.58a23.39,23.39,0,0,0-3.07-11.09c-.51-.88-.85-.91-1.66-.34-13.89,9.8-17.8,29.48-8.73,44,.52.82.91,1.09,1.84.53s.51-1.12.08-1.75a21.63,21.63,0,0,1-3.73-8,36.38,36.38,0,0,0,4,7.33c.73,1,1.22,1.21,2.23.29a36.85,36.85,0,0,1,5-4c-.55,2.18-1,4-1.48,5.87-.62,2.46-.6,2.42,1.9,3.13,1.3.36,2.32.28,3.14-1a22,22,0,0,1,2-2.3c.07.2.11.25.1.29-.19.67-.36,1.35-.58,2a1.27,1.27,0,0,0,0,1.2c2.12,3.45,4.95,6.07,8.95,7.09a21.45,21.45,0,0,0,7,.29,7.36,7.36,0,0,0,3.52-.76,21.34,21.34,0,0,0,6.36-6.23,2.33,2.33,0,0,0,.15-2.58,13,13,0,0,1-1.52-4,26.85,26.85,0,0,1,3.51,2.71,2,2,0,0,0,2.16.47,29.63,29.63,0,0,0,6.62-3.29,9.37,9.37,0,0,0,4.37-5.72c.35-1.26,1.12-2.5.88-3.78a22.46,22.46,0,0,0-3.91-9.35,2.3,2.3,0,0,0-2.24-1,21.05,21.05,0,0,1-5,.15c1.64-.91,3-1.73,4.42-2.42a2.19,2.19,0,0,0,1.28-2.1A23.28,23.28,0,0,0,359.5,216Zm-92,168.69c.89,6.12.62,9.66-1.18,15.19a1.58,1.58,0,0,0,.54,1.92,42.15,42.15,0,0,0,9.39,6.54c1.06.55,1.49.37,1.87-.75a33.37,33.37,0,0,0-.4-23.58c-2.92-7.36-8.11-11.81-16.45-11.84a6.69,6.69,0,0,1-6.27-4.94c-.25-1-.81-.82-1.43-.84s-1.19-.07-1.43.87a6.8,6.8,0,0,1-6.56,4.92c-6.91,0-11.75,3.38-15,9.3a29.25,29.25,0,0,0-3.33,12.06,33.4,33.4,0,0,0,1.9,14.32c.27.73.49,1.09,1.38.65a39.56,39.56,0,0,0,10.07-7,1.07,1.07,0,0,0,.31-1.34,28.57,28.57,0,0,1-1.21-15.52,37.9,37.9,0,0,0-7.37,16.17,17.73,17.73,0,0,1,.44-4.31c1.88-8.56,5.68-15.92,12.86-21.33,2.23-1.68,5.57-1.52,6.95-4.92.18,3.07-.14,3.59-2.49,4.46a13.48,13.48,0,0,0-8,7.58,20.74,20.74,0,0,0-1.18,12c1.06,6.21,3.43,11.82,8.53,15.75,4.21,3.24,3.9,3.08,8.2.1a11.05,11.05,0,0,0,1.77-1.58,26.06,26.06,0,0,0,6.8-22.11c-.85-5.92-4.13-10.1-10-12-1.48-.48-2.05-1.93-1.4-3.8.58,1.93,2.16,2.31,3.62,2.87a14.3,14.3,0,0,1,3.15,1.81c5.78,4.14,9.23,9.92,11.51,16.5a25,25,0,0,1,1.62,8.66A37.49,37.49,0,0,0,267.51,384.72Zm68.73-280-.27,0c-.14-.56-.29-1.12-.43-1.69-2.23-9.3-4.48-18.59-6.67-27.9a2.1,2.1,0,0,0-1.66-1.75c-2.29-.64-4.56-1.36-6.8-2.14-1.17-.4-1.45-.17-1.44,1.09Q319,95.18,319,118c0,.23,0,.47,0,.7a.7.7,0,0,0,.56.83l6.28,1.89V87a7.5,7.5,0,0,1,.78,2.11q4.14,17.13,8.29,34.27c.13.56.08,1.24.81,1.52,2.34.88,4.68,1.79,7.17,2.74v-1.68q0-20.73,0-41.48c0-1.76.7-4-.27-5.18s-3.13-1.47-4.78-2.11-1.59-.59-1.59,1.06v26.45ZM203,90.73a11.5,11.5,0,0,0,4.74-7.3,30.56,30.56,0,0,0,0-10.32,7.16,7.16,0,0,0-7.23-6.18,13.15,13.15,0,0,0-3.75.34c-3.53.89-7,1.83-10.58,2.65-1,.24-1.31.67-1.31,1.7.05,6.68,0,13.36,0,20,0,8.55,0,17.1,0,25.65,0,1.27.31,1.49,1.5,1.09a43.15,43.15,0,0,1,5.14-1.35c.92-.19,1.16-.58,1.16-1.5-.05-5.37,0-10.74,0-16.11,0-2.4,0-2.27,2.25-3,4-1.3,5.49,1.61,5.47,4.37s-.08,5.6,0,8.4a19.3,19.3,0,0,0,.43,4.73c.16.6.38.87,1.06.73,2.1-.43,4.21-.81,6.32-1.19.57-.11.8-.28.55-.93a11.81,11.81,0,0,1-.55-4.14c0-3.22.07-6.45,0-9.67C208,95.18,206.92,92.11,203,90.73ZM147.19,107c4.63-4.51,5.08-10,4.63-15.74-.32-4-3.14-6.08-7.08-5.24a11.39,11.39,0,0,0-3,1.08c-3.42,1.81-6.82,3.67-10.25,5.45a2,2,0,0,0-1.19,2.08q0,22.75,0,45.53v1.64c5.09-3.24,10.56-5.17,15.18-8.62a16.84,16.84,0,0,0,6.61-9.62,31.66,31.66,0,0,0,.25-12C151.92,108.69,150.3,107.36,147.19,107Zm166.9-13.35V80.88A14.7,14.7,0,0,0,302,66c-5.05-1.07-9.29,1.22-10.82,5.85a12.93,12.93,0,0,0-.6,4.14c0,8.41,0,16.82,0,25.23,0,7,3.87,12.08,10.43,14.12,7.93,2.46,13.46-1.65,13.09-9.51C313.94,101.77,314.09,97.7,314.09,93.64ZM289.8,286.16c5.43-.49,10.1,1.83,14.85,3.83,1,.42,2,.81,3,1.16,4,1.36,7.86,1.38,11.56-1a3.34,3.34,0,0,0,1.56-2.15c1.29-4.85,3.72-8.88,8.53-11,6.73-2.94,16.44-.21,20.52,5.91a7.07,7.07,0,0,0,4,3c.8.26,1.6.54,2.41.72,4.58,1,8-1,9.36-5.53a19.64,19.64,0,0,0,.56-8,5.74,5.74,0,0,0-5.17-5.38c-5.33-.8-11,2.43-13.71,7.75-.19.37-.17.92-.77,1.09a15.83,15.83,0,0,1,1.53-6.38c.34-.82.35-1.19-.69-1.1-1.26.11-2.52.09-3.78.21-4.91.5-9.82,1.06-14.74,1.51a2.85,2.85,0,0,0-2.22,1.15,22.66,22.66,0,0,1-14.44,8.6c-3.27.52-6.59.62-9.89.95C297.73,282,293.46,283.13,289.8,286.16ZM155.12,129.29c2.12-.87,4-1.68,5.91-2.4a1.49,1.49,0,0,0,1.08-1.42c.29-2.41.64-4.81.95-7.21a1.39,1.39,0,0,1,.95-1.38c2.51-.87,5-1.79,7.49-2.71.67-.24,1-.17,1.08.66.27,2.12.72,4.23,1,6.35.12,1,.49,1,1.25.71a51.26,51.26,0,0,1,5.07-1.59c1.3-.3,1.53-.89,1.32-2.11q-3.67-21.66-7.27-43.33c-.14-.81-.37-1.12-1.25-.78q-4.52,1.71-9.07,3.28a1.51,1.51,0,0,0-1.09,1.42c-.48,3.32-1,6.65-1.46,10q-2,13.92-4.09,27.83C156.36,120.73,155.76,124.88,155.12,129.29Zm216.49,12.3c0-.42-.05-.61-.08-.78q-1.74-12.69-3.49-25.38c-1.18-8.45-2.38-16.9-3.53-25.36a1.58,1.58,0,0,0-1-1.36c-2.81-1.37-5.61-2.74-8.38-4.2-1.07-.56-1.44-.44-1.64.83-.94,6.08-2,12.15-3,18.23-1.34,8.14-2.67,16.29-4.07,24.43a1.17,1.17,0,0,0,.86,1.55c1.64.66,3.26,1.39,4.86,2.15.69.33.95.26,1.05-.56.24-1.95.64-3.87.83-5.82.13-1.33.58-1.4,1.64-.83q3.21,1.71,6.51,3.24a1.82,1.82,0,0,1,1.14,1.7c.25,2.32.57,4.63.9,6.94.09.6,0,1.28.78,1.67C367.18,139.14,369.28,140.33,371.61,141.59Zm-159-53.14c0,4.48,0,9,0,13.45.06,4.85,2.79,8.47,7.13,9.54a14,14,0,0,0,5.28.14,12.28,12.28,0,0,0,10.64-9.88c.63-3,.22-6,.33-8.94,0-.83-.48-.72-1-.67-1.67.15-3.34.34-5,.37-1.09,0-1.4.36-1.4,1.46,0,2.52.33,5.06-.23,7.54-.51,2.25-2.38,3.42-4.89,3.2-1.93-.17-2.86-1.37-3-3.87,0-.28,0-.56,0-.84q0-12.61,0-25.23a11.65,11.65,0,0,1,.22-2.36c.48-2.34,2.29-3.58,4.88-3.39,1.84.13,2.9,1.45,3,3.89.07,1.58,0,3.18,0,4.76,0,.64.14.94.86.87,1.95-.18,3.91-.33,5.86-.45.55,0,.73-.26.72-.78a51.26,51.26,0,0,0-.18-6.44C235,65.37,231.12,62,225.78,62c-7.5,0-13.08,5.62-13.16,13.28C212.57,79.66,212.61,84.05,212.61,88.45Zm28.2-2.84q0,11.49,0,23c0,.58-.3,1.36.85,1.31,6.58-.3,13.16-.25,19.73,0,.67,0,.9-.19.89-.87,0-1.63-.07-3.27,0-4.9.05-1-.35-1.24-1.28-1.24-3.73,0-7.47-.15-11.2-.16-.92,0-1.17-.28-1.16-1.19q.06-6,0-11.91c0-.84.21-1.13,1.09-1.11,2.84.08,5.69,0,8.54.12.88,0,1.24-.15,1.19-1.12a44.5,44.5,0,0,1,0-4.62c.06-1-.37-1.24-1.29-1.24-2.75,0-5.5-.09-8.26-.07-.92,0-1.31-.15-1.29-1.2.07-3.69.06-7.38,0-11.07,0-1,.31-1.24,1.27-1.22,3.73.07,7.47,0,11.19.26.92.08,1.24-.2,1.19-1.14-.07-1.54-.08-3.09,0-4.62.06-1-.31-1.22-1.26-1.25-6.3-.15-12.59-.26-18.9,0-1.13,0-1.36.38-1.35,1.43C240.83,70.39,240.81,78,240.81,85.61Zm26.28.23c0,7.71,0,15.42,0,23.13,0,.8.08,1.26,1.07,1.33,6.24.46,12.46,1.11,18.64,2.06.72.11,1.13,0,1.1-.88-.06-1.68,0-3.36,0-5,0-.68-.17-1-.91-1.05-3.62-.43-7.22-1-10.83-1.37-.91-.1-1.16-.38-1.15-1.27,0-4.44,0-8.88,0-13.31,0-8.46,0-16.92,0-25.37,0-1.27-.12-2-1.67-1.91a25.3,25.3,0,0,1-4.74-.41c-1.2-.19-1.59.08-1.58,1.4C267.12,70.7,267.09,78.27,267.09,85.84ZM352.51,289c-.2,3-.23,3,.21,3.71,3.08,4.49,3.77,9.26,1.61,14.33-.43,1-.17,1.25.86,1.34,4.6.4,9.19.9,13.79,1.3,1.15.1,2.35.52,3.47,0a13.46,13.46,0,0,0,7-7.08c.34-.74.33-1.56-.78-1.87a4.17,4.17,0,0,1-2.74-2c-.63-1.17-.15-2.22.48-3.38a18.85,18.85,0,0,1-5.33-.14c-1.87-.32-3.67-.83-4.75-2.58-.38-.61-.78-.3-1.2-.19C360.35,293.73,356.1,292.93,352.51,289ZM248.78,369.33a8.06,8.06,0,0,1-3.47-.64,13.87,13.87,0,0,0-7.83-.7c-5.11,1-8.76,4.19-11.7,8.27a30.49,30.49,0,0,0-6,16.88c0,1,.2,1.29,1.16.88,1.11-.48,2.24-.91,3.38-1.32a1.63,1.63,0,0,0,1.17-1.52,29.72,29.72,0,0,1,2.15-7.8c3.55-8.31,9.4-13.41,18.87-13.4A4,4,0,0,0,248.78,369.33Zm10,0c.85.63.89.64,2.66.66a18,18,0,0,1,13.9,6.41,23.41,23.41,0,0,1,5.77,12.24c.45,3.38,2.23,4.61,5.05,5.38.95.26,1.41.26,1.27-.88-.11-.88-.12-1.77-.26-2.64-1.19-7.48-4.26-14-10.13-18.93-4.7-3.94-10-5-15.8-2.64A6,6,0,0,1,258.75,369.33Zm112.83-92.78a18,18,0,0,1-2.74,10.11c-1.24,1.83-1.26,1.83.9,2.61.39.15.8.25,1.2.36,4,1.06,7.23-.55,8.53-4.45a12.77,12.77,0,0,0-1.66-11.73,8.08,8.08,0,0,0-5.93-3.54c-.78-.09-1.1.08-.9,1A26.54,26.54,0,0,1,371.58,276.55Zm-143.69-36c1.05-1.67,2-3.23,3-4.7a66.65,66.65,0,0,1,8.93-10c.37-.34,1.05-.61.71-1.34a31.79,31.79,0,0,1-1.94-6.82,38.62,38.62,0,0,0-9.45,6.76,2.06,2.06,0,0,0-.44,1.3,45.19,45.19,0,0,1-1.49,6.81,2.14,2.14,0,0,0-.14,1.23A24.74,24.74,0,0,1,227.89,240.54Zm128.58-71.08c-.12.19-.19.26-.2.34-.08.46-.14.92-.21,1.38-.46,3.4-1.1,6.73-3.46,9.42a1.25,1.25,0,0,0-.25,1.05,39.31,39.31,0,0,1,.23,6.42,1,1,0,0,0,.77,1.1c1.66.61,3.32,1.23,4.94,1.93.71.31,1,.19,1.13-.56a32.73,32.73,0,0,0,.85-6.08A28.24,28.24,0,0,0,356.47,169.46Zm-106,180.66c0,1.92,0,3.83,0,5.74,0,.81.13,1.17,1.05,1.15,3-.06,6-.08,9,0,1.2,0,1.09-.65,1.07-1.41s.18-1.5-1.06-1.44c-1.86.09-3.73,0-5.59,0-1.25,0-.82-.85-.85-1.45s-.27-1.35.85-1.3c1.44.06,2.89-.06,4.33,0,1.11.07,1.44-.29,1.41-1.4s-.12-1.54-1.34-1.44c-1.43.12-2.89,0-4.33,0-1.2.06-.93-.75-.93-1.39s-.28-1.44.93-1.39c1.82.08,3.64,0,5.45,0,1.23.05.9-.78.91-1.41s.27-1.41-.93-1.39c-3,.07-6,.05-9,0-.88,0-1,.37-1,1.09C250.48,346.2,250.46,348.16,250.46,350.12Zm-2.75-.08c0-2,0-3.93,0-5.89,0-.69-.16-1-.93-1-2.55-.09-2.54-.13-2.54,2.44v.85c0,2.45,0,2.45-2.39,2.45-3.35,0-3.35,0-3.35-3.32,0-2.55,0-2.53-2.6-2.41-.62,0-.92.15-.91.86,0,4.06,0,8.13,0,12.19,0,.4.05.67.56.77,2.36.48,2.94,0,2.94-2.33v-.42c0-2.61,0-2.61,2.66-2.61,3.08,0,3.08,0,3.08,3,0,2.45,0,2.41,2.49,2.36.84,0,1-.33,1-1.08C247.69,354,247.71,352,247.71,350Zm15.85-2c0,1.12,0,2.24,0,3.36.05,3.41,2.34,5.64,5.91,5.76,3.92.14,6.46-1.86,6.67-5.39.12-2,.07-4.1.07-6.16,0-2.47,0-2.42-2.4-2.45-.93,0-1.2.27-1.18,1.18.06,2.24,0,4.48,0,6.73,0,2.08-.95,3.12-2.74,3.12s-2.83-1.11-2.87-3.08,0-3.73,0-5.6c0-2.38,0-2.34-2.36-2.35-.85,0-1.16.22-1.11,1.1C263.61,345.52,263.55,346.78,263.56,348Zm20.2-5.05-.62,0c-2.67.24-4.39,1.61-4.62,3.68s.93,3.47,3.72,4.3c.8.24,1.61.47,2.4.76.62.24,1.23.58,1.09,1.41s-.82.92-1.5,1a7.87,7.87,0,0,1-4.23-1.26c-.36-.2-.9-1.15-1.24-.11-.28.83-1.86,1.67-.26,2.68a9.74,9.74,0,0,0,7.37,1.41,4,4,0,0,0,3.6-3.71c.14-2-.83-3.3-3.09-4.11-1.05-.37-2.13-.68-3.18-1.06-.61-.22-1.08-.63-.89-1.37s.79-.71,1.36-.72a7.62,7.62,0,0,1,3.61,1c.66.33,1,.26,1.26-.44a4.68,4.68,0,0,1,.5-1c.4-.66.28-1.06-.46-1.38A12.22,12.22,0,0,0,283.76,343Zm101.7-65.57c0,.43,0,.66,0,.89.38,5.82-.66,11.17-5.24,15.29-.37.33-.35.55,0,.89,3,3,6.25,3.28,8.24-.73a15,15,0,0,0,.35-12.87A6.12,6.12,0,0,0,385.46,277.42ZM281.15,129.78c.2,2.41,1.59,4,2.92,5.58a1.06,1.06,0,0,0,.81.49l9,.4a55.52,55.52,0,0,0-8.46-6.51,12.42,12.42,0,0,0-3.32-1.44,4,4,0,0,0-5.05,2.35,13.41,13.41,0,0,0-1,4c0,.36,0,.66.45.67a26,26,0,0,0,4.08.19C280,133.59,279.78,131.71,281.15,129.78ZM333.57,204c-3.25,1.62-6.37,3.39-9.84,4.34-.4.1-.34.36-.2.64a26.24,26.24,0,0,1,2.6,10.08C329.19,216.63,333.37,208.16,333.57,204ZM224,350.14c0,2,0,3.92,0,5.88,0,.69.17,1,.93,1,2.52,0,5-.05,7.55,0,1.47,0,.82-1,.91-1.67s.16-1.4-1-1.31-2.52,0-3.78,0c-.87.05-1.12-.25-1.1-1.11.05-2.46,0-4.94,0-7.41s0-2.39-2.45-2.39c-.88,0-1.11.28-1.09,1.12C224,346.23,224,348.18,224,350.14Zm78.69-93a7.24,7.24,0,0,0,4.55,6.67,3.08,3.08,0,0,0,3.48-.57,13.62,13.62,0,0,0,3.62-8.11C309.67,258.16,308.08,258.44,302.64,257.16ZM217.7,350v4.62c0,2.39,0,2.34,2.34,2.37,1,0,1.25-.31,1.23-1.26-.05-3.41,0-6.82,0-10.23,0-2.42,0-2.38-2.48-2.37-.89,0-1.11.29-1.09,1.13C217.74,346.19,217.7,348.11,217.7,350Zm173.6-51.18-.45.37c-1.94,1.64-4,3.16-6.67,3.14-.64,0-.61.42-.62.85a6.65,6.65,0,0,1-2.11,4.58,11.38,11.38,0,0,1-1.55,1.11C385.71,310.41,391.7,303.82,391.3,298.84Zm-136.92,43c2.28.75,3.54-.59,4.94-2.08-.92-.33-1.7-.59-2.47-.9a.59.59,0,0,0-.82.28C255.49,340,254.93,340.93,254.38,341.83Z"/><path class="cls-1" d="M286.42,157.61l-6.07,3.67a28.08,28.08,0,0,1,5-7.93c2.72-3,5.9-5.17,10.18-5a15.76,15.76,0,0,1,7.58,2.61,41.65,41.65,0,0,1,8.32,7c.6.63,1.15,1.25,2.14.82a2.15,2.15,0,0,0,1.3-2.12c0-.45,0-.91,0-1.42,2,1.49,2.48,4.88.69,6.57-.65.61-.56.94,0,1.54a21.45,21.45,0,0,1,3.62,4.94l-.14.19c-6.72-5.11-14.64-5.18-22.53-5.27-3.4,0-6.8.16-10.2.23-1.62,0-2.06-.55-1.44-2.07.49-1.2,1.17-2.32,1.76-3.48l.19-.36.15-.18h-.13v.21C286.69,157.34,286.56,157.52,286.42,157.61ZM305,160.53a6.63,6.63,0,0,0-6.21-5.18,7.18,7.18,0,0,0-6.79,5.21A54.89,54.89,0,0,1,305,160.53Z"/><path class="cls-1" d="M241.5,175.6c-4.58-7-8.7-13.79-10-21.83a16.82,16.82,0,0,1,1-9.48,4.44,4.44,0,0,1,1-1.67,57,57,0,0,0,2.64,12,14.88,14.88,0,0,1,2.62-4.14c.13.1.27.17.31.27a43.57,43.57,0,0,0,6.16,10.76c.31.41.65.76.34,1.37a45.81,45.81,0,0,0-2.59,6A33.33,33.33,0,0,0,241.5,175.6Z"/><path class="cls-1" d="M319.19,168.3c.17.15.36.29.23.56l-.37-.37Z"/><path class="cls-1" d="M321.25,309.26l-.13-.31.33.07Z"/><path class="cls-1" d="M217,191.68l-.17-.09s.07-.08.09-.08l.17.08Z"/><path class="cls-2" d="M290.55,279a13,13,0,0,1-2.64,3.47c-3.37,3.41-7.1,6.27-12.07,6.78a44.8,44.8,0,0,1-12.38-.9,204.13,204.13,0,0,1-26-6.64c-.64-.21-1.31-.26-1.1-1.35,1.08-5.55.37-11.07-.59-16.55a113.55,113.55,0,0,0-4.16-16.25,2,2,0,0,1,.07-1.72,44.21,44.21,0,0,1,10.45-13.2c.54-.45,1.11-.85,1.69-1.25a5.88,5.88,0,0,1,5.49-1c5.29,1.65,10.69,3,15.73,5.36a20.56,20.56,0,0,1,8.31,6.89,67.74,67.74,0,0,1,5.54,8.57c2.58,5.23,1.2,9.68-3.83,12.64-.42.24-1,.33-.75,1.1,1.75,6.09,4.91,11,11.2,13.19A14.16,14.16,0,0,0,290.55,279Z"/><path class="cls-2" d="M359.5,216a23.28,23.28,0,0,1,1.64,9.47,2.19,2.19,0,0,1-1.28,2.1c-1.42.69-2.78,1.51-4.42,2.42a21.05,21.05,0,0,0,5-.15,2.3,2.3,0,0,1,2.24,1,22.46,22.46,0,0,1,3.91,9.35c.24,1.28-.53,2.52-.88,3.78a9.37,9.37,0,0,1-4.37,5.72,29.63,29.63,0,0,1-6.62,3.29,2,2,0,0,1-2.16-.47,26.85,26.85,0,0,0-3.51-2.71,13,13,0,0,0,1.52,4,2.33,2.33,0,0,1-.15,2.58,21.34,21.34,0,0,1-6.36,6.23,7.36,7.36,0,0,1-3.52.76,21.45,21.45,0,0,1-7-.29c-4-1-6.83-3.64-8.95-7.09a1.27,1.27,0,0,1,0-1.2c.22-.66.39-1.34.58-2,0,0,0-.09-.1-.29a22,22,0,0,0-2,2.3c-.82,1.24-1.84,1.32-3.14,1-2.5-.71-2.52-.67-1.9-3.13.46-1.85.93-3.69,1.48-5.87a36.85,36.85,0,0,0-5,4c-1,.92-1.5.69-2.23-.29a36.38,36.38,0,0,1-4-7.33,21.63,21.63,0,0,0,3.73,8c.43.63,1,1.12-.08,1.75s-1.32.29-1.84-.53c-9.07-14.47-5.16-34.15,8.73-44,.81-.57,1.15-.54,1.66.34a23.39,23.39,0,0,1,3.07,11.09c.07,1.72.15,3.43.25,5.58,1.88-2,3.58-3.67,5.17-5.45a30.56,30.56,0,0,0,4.94-8.1c.22-.49.06-1.52,1.05-1.31a2,2,0,0,1,1.77,1.7,25.65,25.65,0,0,0,1.33,4.88c.36-1.53.83-3,1-4.58a2.3,2.3,0,0,1,1.79-2,21.31,21.31,0,0,1,7.29-1.15c.64,0,1.27,0,2,0-.6-1.69-1.32-2.93-3.21-3.37a39.82,39.82,0,0,0-9.27-1.21c-.42,0-1.4.49-1.28-.36s0-2.1,1.5-2.12a31,31,0,0,1,10.71,1.76c1.13.39,2.24.85,3.47,1.32a46.62,46.62,0,0,0-1.68-12.54,25.46,25.46,0,0,1,6.39,1.5c.67.23.29.79.19,1.2a27.3,27.3,0,0,1-4.24,8.93c-.61.85-.45,1.1.41,1.57a32.29,32.29,0,0,1,17.07,23.65c2.9,16.08-7.44,32.51-23.2,36.81a32.11,32.11,0,0,1-29-5.46c-2.13-1.6-2-.83-1-4l1.82,1.52c11.35,9.47,29.16,9.76,41.34-3,10.78-11.33,10.75-26.62,3-38.18C362.31,216.14,361,216.42,359.5,216Zm-21.6,32.42a34.17,34.17,0,0,0,8.17-1.07,2.8,2.8,0,0,0,1.85-1.33c2.62-4.15,3.37-8.74,3.27-13.53a2.69,2.69,0,0,0-.65-1.66,25.07,25.07,0,0,0-12-8.13,1.74,1.74,0,0,0-1.21,0,24.87,24.87,0,0,0-11.88,8,2.52,2.52,0,0,0-.71,1.49c-.17,4.85.56,9.48,3.2,13.68a3,3,0,0,0,1.93,1.46A33.41,33.41,0,0,0,337.9,248.45Zm-21.57-32.32c-1.78.18-3.18.45-4.19,2.12A35.16,35.16,0,0,0,307,235.62c-.07,2,.94,3,2.39,4.13.18-.67.32-1.24.48-1.81a21.58,21.58,0,0,1,3.14-6.82,2.51,2.51,0,0,1,2.55-1.22,15.94,15.94,0,0,0,4.81.13A15,15,0,0,0,318,228.7c-3.12-1-3.61-3.23-3.2-6.11A39.58,39.58,0,0,1,316.33,216.13ZM349,249.62l-.09-.09a1.4,1.4,0,0,0-.09.17s.05.05.08.08Z"/><path class="cls-2" d="M267.51,384.72a37.49,37.49,0,0,1,7.23,15.77,25,25,0,0,0-1.62-8.66c-2.28-6.58-5.73-12.36-11.51-16.5a14.3,14.3,0,0,0-3.15-1.81c-1.46-.56-3-.94-3.62-2.87-.65,1.87-.08,3.32,1.4,3.8,5.86,1.89,9.14,6.07,10,12a26.06,26.06,0,0,1-6.8,22.11,11.05,11.05,0,0,1-1.77,1.58c-4.3,3-4,3.14-8.2-.1-5.1-3.93-7.47-9.54-8.53-15.75a20.74,20.74,0,0,1,1.18-12,13.48,13.48,0,0,1,8-7.58c2.35-.87,2.67-1.39,2.49-4.46-1.38,3.4-4.72,3.24-6.95,4.92-7.18,5.41-11,12.77-12.86,21.33a17.73,17.73,0,0,0-.44,4.31,37.9,37.9,0,0,1,7.37-16.17,28.57,28.57,0,0,0,1.21,15.52,1.07,1.07,0,0,1-.31,1.34,39.56,39.56,0,0,1-10.07,7c-.89.44-1.11.08-1.38-.65a33.4,33.4,0,0,1-1.9-14.32,29.25,29.25,0,0,1,3.33-12.06c3.24-5.92,8.08-9.26,15-9.3a6.8,6.8,0,0,0,6.56-4.92c.24-.94.77-.88,1.43-.87s1.18-.14,1.43.84a6.69,6.69,0,0,0,6.27,4.94c8.34,0,13.53,4.48,16.45,11.84a33.37,33.37,0,0,1,.4,23.58c-.38,1.12-.81,1.3-1.87.75a42.15,42.15,0,0,1-9.39-6.54,1.58,1.58,0,0,1-.54-1.92C268.13,394.38,268.4,390.84,267.51,384.72Zm-13.83,3.82a15.55,15.55,0,0,0-1.74.1,2.46,2.46,0,0,0-.24,4.82,9.07,9.07,0,0,0,3.88,0,2.24,2.24,0,0,0,1.79-2.36,2.28,2.28,0,0,0-2-2.39A13.35,13.35,0,0,0,253.68,388.54Zm0,5.85c-2.5,0-3.57.7-3.57,2.33s1.14,2.42,3.55,2.41,3.56-.84,3.52-2.46S256,394.4,253.64,394.39Zm-.06-11.25h0c-.42,0-.84,0-1.26,0a2.17,2.17,0,0,0-2.26,2.18,2.27,2.27,0,0,0,2.08,2.39,9.3,9.3,0,0,0,3.07,0,2.31,2.31,0,0,0,1.93-2.4,2.18,2.18,0,0,0-2.16-2.13A13.1,13.1,0,0,0,253.58,383.14Zm.26-.85a8.29,8.29,0,0,0,1-.05c1.11-.12,1.86-.68,1.88-1.86a2,2,0,0,0-1.77-2.18,5.9,5.9,0,0,0-1.26-.09c-2,0-3.15.76-3.19,2.16S251.44,382.29,253.84,382.29Zm0,21.75c.21,0,.63,0,1-.07a1.92,1.92,0,0,0,1.84-2.07,1.84,1.84,0,0,0-1.8-1.94c-.41,0-.83-.13-1.24-.14-2,0-3.18.76-3.2,2.1S251.52,404,253.82,404Zm-7.93-10.64c1.68,0,2.85-1,2.85-2.39s-1.14-2.28-2.79-2.28a2.51,2.51,0,0,0-2.78,2.33C243.14,392.44,244.24,393.38,245.89,393.4Zm15.29,0c1.69,0,2.78-.84,2.81-2.23s-1-2.37-2.65-2.41c-1.79,0-2.89.84-2.88,2.29S259.54,393.39,261.18,393.4Zm-14.62,1.38c-1.53,0-2.54.75-2.55,2s.89,1.91,2.41,1.94S249,398,249,396.74,248,394.8,246.56,394.78Zm14.13,0c-1.53,0-2.5.8-2.46,2s.93,1.87,2.46,1.87,2.44-.69,2.47-1.87S262.21,394.78,260.69,394.78ZM246.75,383.5c-1.4,0-2.29.71-2.29,1.88a2.07,2.07,0,0,0,2.22,2,2.12,2.12,0,0,0,2.33-1.92A2.07,2.07,0,0,0,246.75,383.5Zm13.91,0a2.09,2.09,0,0,0-2.43,1.93,2,2,0,0,0,2.11,2,2.13,2.13,0,0,0,2.42-2A2,2,0,0,0,260.66,383.5Zm-7.1,24.67c1.44,0,2.45-.7,2.43-1.72s-1-1.66-2.36-1.68-2.43.71-2.41,1.74S252.17,408.16,253.56,408.17Zm-4.26-6.24c-.09-1-.56-1.68-1.65-1.7a1.73,1.73,0,1,0,.1,3.45C248.83,403.6,249.25,402.91,249.3,401.93Zm10.25-1.7a1.55,1.55,0,0,0-1.63,1.68,1.67,1.67,0,1,0,3.34.08A1.63,1.63,0,0,0,259.55,400.23Zm-11.4-18a1.34,1.34,0,0,0,1.43-1.51,1.31,1.31,0,0,0-1.48-1.45,1.29,1.29,0,0,0-1.37,1.42A1.35,1.35,0,0,0,248.15,382.22Zm10.85,0a1.34,1.34,0,0,0,1.47-1.48,1.31,1.31,0,0,0-1.45-1.47,1.29,1.29,0,0,0-1.38,1.4A1.33,1.33,0,0,0,259,382.21Z"/><path class="cls-2" d="M336.24,104.68V78.23c0-1.65,0-1.67,1.59-1.06s3.82.9,4.78,2.11.26,3.42.27,5.18q0,20.75,0,41.48v1.68c-2.49-1-4.83-1.86-7.17-2.74-.73-.28-.68-1-.81-1.52q-4.16-17.13-8.29-34.27a7.5,7.5,0,0,0-.78-2.11v34.46l-6.28-1.89a.7.7,0,0,1-.56-.83c0-.23,0-.47,0-.7q0-22.84,0-45.69c0-1.26.27-1.49,1.44-1.09,2.24.78,4.51,1.5,6.8,2.14a2.1,2.1,0,0,1,1.66,1.75c2.19,9.31,4.44,18.6,6.67,27.9.14.57.29,1.13.43,1.69Z"/><path class="cls-2" d="M203,90.73c3.91,1.38,5,4.45,5.12,8,.11,3.22,0,6.45,0,9.67a11.81,11.81,0,0,0,.55,4.14c.25.65,0,.82-.55.93-2.11.38-4.22.76-6.32,1.19-.68.14-.9-.13-1.06-.73a19.3,19.3,0,0,1-.43-4.73c0-2.8,0-5.6,0-8.4s-1.5-5.67-5.47-4.37c-2.21.72-2.25.59-2.25,3,0,5.37,0,10.74,0,16.11,0,.92-.24,1.31-1.16,1.5a43.15,43.15,0,0,0-5.14,1.35c-1.19.4-1.5.18-1.5-1.09.05-8.55,0-17.1,0-25.65,0-6.68,0-13.36,0-20,0-1,.28-1.46,1.31-1.7,3.54-.82,7.05-1.76,10.58-2.65a13.15,13.15,0,0,1,3.75-.34,7.16,7.16,0,0,1,7.23,6.18,30.56,30.56,0,0,1,0,10.32A11.5,11.5,0,0,1,203,90.73Zm-10.34-8.22v4c0,3.72,0,3.72,3.64,2.6,1.75-.54,3.2-1.52,3.61-3.36a26.09,26.09,0,0,0,.11-9.57c-.26-1.7-1.35-2.3-3.08-2-1.14.18-2.26.52-3.4.74a1,1,0,0,0-.89,1.13C192.7,78.22,192.68,80.37,192.67,82.51Z"/><path class="cls-2" d="M147.19,107c3.11.37,4.73,1.7,5.16,4.6a31.66,31.66,0,0,1-.25,12,16.84,16.84,0,0,1-6.61,9.62c-4.62,3.45-10.09,5.38-15.18,8.62v-1.64q0-22.77,0-45.53a2,2,0,0,1,1.19-2.08c3.43-1.78,6.83-3.64,10.25-5.45a11.39,11.39,0,0,1,3-1.08c3.94-.84,6.76,1.21,7.08,5.24C152.27,97,151.82,102.48,147.19,107Zm-9.71,23.79a54.38,54.38,0,0,0,5.46-3,5,5,0,0,0,2.09-3.21,27.27,27.27,0,0,0,.08-9.19c-.29-1.82-1.31-2.4-3-1.75-1.3.48-2.51,1.23-3.78,1.8a1.3,1.3,0,0,0-.84,1.41c0,2.66,0,5.32,0,8Zm0-22c4.92-1.76,7.39-4.16,7.13-9.32,0-.79,0-1.59,0-2.38-.09-3.2-1.21-3.88-4-2.47a4.4,4.4,0,0,1-.75.38c-1.95.57-2.51,1.82-2.39,3.85C137.62,102.11,137.47,105.41,137.47,108.76Z"/><path class="cls-2" d="M314.09,93.64c0,4.06-.15,8.13,0,12.19.37,7.86-5.16,12-13.09,9.51-6.56-2-10.38-7.15-10.43-14.12-.06-8.41,0-16.82,0-25.23a12.93,12.93,0,0,1,.6-4.14C292.72,67.22,297,64.93,302,66a14.7,14.7,0,0,1,12.08,14.88Zm-15.67-3.59V102.8a7.74,7.74,0,0,0,.65,3.55,5,5,0,0,0,5.22,2.46c1.43-.3,2.11-1.55,2.16-3.94v-.14q0-13,0-25.93a7,7,0,0,0-.78-3.51,5.07,5.07,0,0,0-5-2.33c-1.48.35-2.16,1.54-2.23,3.92,0,.37,0,.74,0,1.12Z"/><path class="cls-2" d="M289.8,286.16c3.66-3,7.93-4.21,12.45-4.65,3.3-.33,6.62-.43,9.89-.95a22.66,22.66,0,0,0,14.44-8.6,2.85,2.85,0,0,1,2.22-1.15c4.92-.45,9.83-1,14.74-1.51,1.26-.12,2.52-.1,3.78-.21,1-.09,1,.28.69,1.1a15.83,15.83,0,0,0-1.53,6.38c.6-.17.58-.72.77-1.09,2.67-5.32,8.38-8.55,13.71-7.75a5.74,5.74,0,0,1,5.17,5.38,19.64,19.64,0,0,1-.56,8c-1.34,4.52-4.78,6.56-9.36,5.53-.81-.18-1.61-.46-2.41-.72a7.07,7.07,0,0,1-4-3c-4.08-6.12-13.79-8.85-20.52-5.91-4.81,2.09-7.24,6.12-8.53,11a3.34,3.34,0,0,1-1.56,2.15c-3.7,2.34-7.57,2.32-11.56,1-1-.35-2-.74-3-1.16C299.9,288,295.23,285.67,289.8,286.16Z"/><path class="cls-2" d="M155.12,129.29c.64-4.41,1.24-8.56,1.85-12.71q2-13.92,4.09-27.83c.49-3.32,1-6.65,1.46-10a1.51,1.51,0,0,1,1.09-1.42q4.56-1.56,9.07-3.28c.88-.34,1.11,0,1.25.78q3.6,21.66,7.27,43.33c.21,1.22,0,1.81-1.32,2.11a51.26,51.26,0,0,0-5.07,1.59c-.76.26-1.13.29-1.25-.71-.26-2.12-.71-4.23-1-6.35-.1-.83-.41-.9-1.08-.66-2.49.92-5,1.84-7.49,2.71a1.39,1.39,0,0,0-.95,1.38c-.31,2.4-.66,4.8-.95,7.21a1.49,1.49,0,0,1-1.08,1.42C159.12,127.61,157.24,128.42,155.12,129.29ZM168,85.08l-.3,0c-1.14,8.32-2.28,16.63-3.44,25.14,2.19-.79,4.17-1.57,6.19-2.22.89-.28,1-.71.84-1.53-.37-2-.65-4-1-6.08Q169.13,92.72,168,85.08Z"/><path class="cls-2" d="M371.61,141.59c-2.33-1.26-4.43-2.45-6.58-3.55-.75-.39-.69-1.07-.78-1.67-.33-2.31-.65-4.62-.9-6.94a1.82,1.82,0,0,0-1.14-1.7q-3.3-1.53-6.51-3.24c-1.06-.57-1.51-.5-1.64.83-.19,2-.59,3.87-.83,5.82-.1.82-.36.89-1.05.56-1.6-.76-3.22-1.49-4.86-2.15a1.17,1.17,0,0,1-.86-1.55c1.4-8.14,2.73-16.29,4.07-24.43,1-6.08,2-12.15,3-18.23.2-1.27.57-1.39,1.64-.83,2.77,1.46,5.57,2.83,8.38,4.2a1.58,1.58,0,0,1,1,1.36c1.15,8.46,2.35,16.91,3.53,25.36s2.33,16.92,3.49,25.38C371.56,141,371.57,141.17,371.61,141.59ZM358.86,95.33l-.23,0q-1.63,10.77-3.26,21.55c-.06.42-.21.8.32,1.06,2.12,1,4.24,2,6.53,3.15C361.08,112.39,360,103.86,358.86,95.33Z"/><path class="cls-2" d="M212.61,88.45c0-4.4,0-8.79,0-13.18C212.7,67.61,218.28,62,225.78,62c5.34,0,9.21,3.38,10.05,8.83a51.26,51.26,0,0,1,.18,6.44c0,.52-.17.75-.72.78-1.95.12-3.91.27-5.86.45-.72.07-.87-.23-.86-.87,0-1.58.06-3.18,0-4.76-.1-2.44-1.16-3.76-3-3.89-2.59-.19-4.4,1-4.88,3.39a11.65,11.65,0,0,0-.22,2.36q0,12.61,0,25.23c0,.28,0,.56,0,.84.11,2.5,1,3.7,3,3.87,2.51.22,4.38-1,4.89-3.2.56-2.48.23-5,.23-7.54,0-1.1.31-1.45,1.4-1.46,1.68,0,3.35-.22,5-.37.55,0,1.06-.16,1,.67-.11,3,.3,6-.33,8.94A12.28,12.28,0,0,1,225,111.58a14,14,0,0,1-5.28-.14c-4.34-1.07-7.07-4.69-7.13-9.54C212.57,97.42,212.61,92.93,212.61,88.45Z"/><path class="cls-2" d="M240.81,85.61c0-7.61,0-15.22,0-22.84,0-1.05.22-1.39,1.35-1.43,6.31-.24,12.6-.13,18.9,0,.95,0,1.32.24,1.26,1.25-.08,1.53-.07,3.08,0,4.62.05.94-.27,1.22-1.19,1.14-3.72-.31-7.46-.19-11.19-.26-1,0-1.28.21-1.27,1.22.06,3.69.07,7.38,0,11.07,0,1,.37,1.21,1.29,1.2,2.76,0,5.51.08,8.26.07.92,0,1.35.21,1.29,1.24a44.5,44.5,0,0,0,0,4.62c0,1-.31,1.14-1.19,1.12-2.85-.08-5.7,0-8.54-.12-.88,0-1.1.27-1.09,1.11q.06,6,0,11.91c0,.91.24,1.18,1.16,1.19,3.73,0,7.47.14,11.2.16.93,0,1.33.22,1.28,1.24-.08,1.63,0,3.27,0,4.9,0,.68-.22.9-.89.87-6.57-.26-13.15-.31-19.73,0-1.15,0-.85-.73-.85-1.31Q240.81,97.1,240.81,85.61Z"/><path class="cls-2" d="M267.09,85.84c0-7.57,0-15.14,0-22.7,0-1.32.38-1.59,1.58-1.4a25.3,25.3,0,0,0,4.74.41c1.55-.06,1.67.64,1.67,1.91-.05,8.45,0,16.91,0,25.37,0,4.43,0,8.87,0,13.31,0,.89.24,1.17,1.15,1.27,3.61.4,7.21.94,10.83,1.37.74.08.93.37.91,1.05,0,1.69-.05,3.37,0,5,0,.91-.38,1-1.1.88-6.18-1-12.4-1.6-18.64-2.06-1-.07-1.08-.53-1.07-1.33C267.1,101.26,267.09,93.55,267.09,85.84Z"/><path class="cls-2" d="M337.16,188.28a54.3,54.3,0,0,1-16.42,5.32c-.67.12-1.46.58-2-.3a4.87,4.87,0,0,1-.91-3.43c.09-.59.68-.36,1.06-.39a42.68,42.68,0,0,0,17.25-4.81c.31-.17.71-.25,1-.8-2.95.33-5.79.64-8.63,1a59.09,59.09,0,0,1-9.21.45c-.89,0-1.62-.13-1.46-1.29.14-1,.11-1.87,1.62-1.86a32.73,32.73,0,0,0,12.84-2.44,1.78,1.78,0,0,0,1.28-.94H320.44l-.11-.43a13.35,13.35,0,0,1,6.59-4.25c3.68-1,7.21-.27,10.69,1,3.7,1.31,7.12,3.25,10.68,4.88a1.06,1.06,0,0,1,.68,1.21,57.1,57.1,0,0,1-.8,6.66,1.63,1.63,0,0,1-.88,1.17c-6.39,3.78-12.74,7.61-19.14,11.35a16.44,16.44,0,0,1-3.27,1.23c-.91.3-1.34-.47-1.84-1-2.06-2.09-2-2.09.59-3.28a56.23,56.23,0,0,0,10.65-5.84,9.21,9.21,0,0,0,3-3c.13-.05.25-.12.15-.27S337.27,188.24,337.16,188.28Z"/><path class="cls-2" d="M352.51,289c3.59,3.95,7.84,4.75,12.64,3.45.42-.11.82-.42,1.2.19,1.08,1.75,2.88,2.26,4.75,2.58a18.85,18.85,0,0,0,5.33.14c-.63,1.16-1.11,2.21-.48,3.38a4.17,4.17,0,0,0,2.74,2c1.11.31,1.12,1.13.78,1.87a13.46,13.46,0,0,1-7,7.08c-1.12.49-2.32.07-3.47,0-4.6-.4-9.19-.9-13.79-1.3-1-.09-1.29-.34-.86-1.34,2.16-5.07,1.47-9.84-1.61-14.33C352.28,292,352.31,292,352.51,289Z"/><path class="cls-2" d="M248.78,369.33a4,4,0,0,1-2.24.65c-9.47,0-15.32,5.09-18.87,13.4a29.72,29.72,0,0,0-2.15,7.8,1.63,1.63,0,0,1-1.17,1.52c-1.14.41-2.27.84-3.38,1.32-1,.41-1.2.1-1.16-.88a30.49,30.49,0,0,1,6-16.88c2.94-4.08,6.59-7.23,11.7-8.27a13.87,13.87,0,0,1,7.83.7A8.06,8.06,0,0,0,248.78,369.33Z"/><path class="cls-2" d="M258.75,369.33a6,6,0,0,0,2.46-.4c5.8-2.33,11.1-1.3,15.8,2.64,5.87,4.93,8.94,11.45,10.13,18.93.14.87.15,1.76.26,2.64.14,1.14-.32,1.14-1.27.88-2.82-.77-4.6-2-5.05-5.38a23.41,23.41,0,0,0-5.77-12.24,18,18,0,0,0-13.9-6.41C259.64,370,259.6,370,258.75,369.33Z"/><path class="cls-2" d="M371.58,276.55a26.54,26.54,0,0,0-.6-5.68c-.2-.88.12-1.05.9-1a8.08,8.08,0,0,1,5.93,3.54,12.77,12.77,0,0,1,1.66,11.73c-1.3,3.9-4.52,5.51-8.53,4.45-.4-.11-.81-.21-1.2-.36-2.16-.78-2.14-.78-.9-2.61A18,18,0,0,0,371.58,276.55Z"/><path class="cls-2" d="M227.89,240.54a24.74,24.74,0,0,0-.83-6.75,2.14,2.14,0,0,1,.14-1.23,45.19,45.19,0,0,0,1.49-6.81,2.06,2.06,0,0,1,.44-1.3,38.62,38.62,0,0,1,9.45-6.76,31.79,31.79,0,0,0,1.94,6.82c.34.73-.34,1-.71,1.34a66.65,66.65,0,0,0-8.93,10C229.85,237.31,228.94,238.87,227.89,240.54Z"/><path class="cls-2" d="M356.47,169.46a28.24,28.24,0,0,1,3.8,15,32.73,32.73,0,0,1-.85,6.08c-.17.75-.42.87-1.13.56-1.62-.7-3.28-1.32-4.94-1.93a1,1,0,0,1-.77-1.1,39.31,39.31,0,0,0-.23-6.42,1.25,1.25,0,0,1,.25-1.05c2.36-2.69,3-6,3.46-9.42.07-.46.13-.92.21-1.38C356.28,169.72,356.35,169.65,356.47,169.46Z"/><path class="cls-2" d="M250.46,350.12c0-2,0-3.92,0-5.88,0-.72.1-1.1,1-1.09,3,.05,6,.07,9,0,1.2,0,.94.75.93,1.39s.32,1.46-.91,1.41c-1.81-.07-3.63,0-5.45,0-1.21-.05-.93.74-.93,1.39s-.27,1.45.93,1.39c1.44-.07,2.9.08,4.33,0,1.22-.1,1.31.45,1.34,1.44s-.3,1.47-1.41,1.4c-1.44-.1-2.89,0-4.33,0-1.12-.05-.89.71-.85,1.3s-.4,1.49.85,1.45c1.86,0,3.73.06,5.59,0,1.24-.06,1.05.7,1.06,1.44s.13,1.44-1.07,1.41c-3-.09-6-.07-9,0-.92,0-1.07-.34-1.05-1.15C250.49,354,250.46,352,250.46,350.12Z"/><path class="cls-2" d="M247.71,350c0,2,0,3.92,0,5.88,0,.75-.15,1.06-1,1.08-2.5.05-2.49.09-2.49-2.36,0-3,0-3-3.08-3-2.66,0-2.66,0-2.66,2.61v.42c0,2.37-.58,2.81-2.94,2.33-.51-.1-.56-.37-.56-.77,0-4.06,0-8.13,0-12.19,0-.71.29-.83.91-.86,2.6-.12,2.6-.14,2.6,2.41,0,3.32,0,3.32,3.35,3.32,2.39,0,2.39,0,2.39-2.45v-.85c0-2.57,0-2.53,2.54-2.44.77,0,.94.31.93,1C247.69,346.11,247.71,348.08,247.71,350Z"/><path class="cls-2" d="M263.56,348c0-1.26.05-2.52,0-3.78-.05-.88.26-1.1,1.11-1.1,2.36,0,2.36,0,2.36,2.35,0,1.87,0,3.74,0,5.6s1.1,3.08,2.87,3.08,2.72-1,2.74-3.12c0-2.25.05-4.49,0-6.73,0-.91.25-1.19,1.18-1.18,2.4,0,2.41,0,2.4,2.45,0,2.06.05,4.11-.07,6.16-.21,3.53-2.75,5.53-6.67,5.39-3.57-.12-5.86-2.35-5.91-5.76C263.54,350.28,263.56,349.16,263.56,348Z"/><path class="cls-2" d="M283.76,343a12.22,12.22,0,0,1,4.82,1.08c.74.32.86.72.46,1.38a4.68,4.68,0,0,0-.5,1c-.24.7-.6.77-1.26.44a7.62,7.62,0,0,0-3.61-1c-.57,0-1.18,0-1.36.72s.28,1.15.89,1.37c1.05.38,2.13.69,3.18,1.06,2.26.81,3.23,2.12,3.09,4.11a4,4,0,0,1-3.6,3.71,9.74,9.74,0,0,1-7.37-1.41c-1.6-1,0-1.85.26-2.68.34-1,.88-.09,1.24.11a7.87,7.87,0,0,0,4.23,1.26c.68,0,1.35-.14,1.5-1s-.47-1.17-1.09-1.41c-.79-.29-1.6-.52-2.4-.76-2.79-.83-3.95-2.17-3.72-4.3s2-3.44,4.62-3.68Z"/><path class="cls-2" d="M385.46,277.42a6.12,6.12,0,0,1,3.34,3.47,15,15,0,0,1-.35,12.87c-2,4-5.26,3.77-8.24.73-.34-.34-.36-.56,0-.89,4.58-4.12,5.62-9.47,5.24-15.29C385.45,278.08,385.46,277.85,385.46,277.42Z"/><path class="cls-2" d="M281.15,129.78c-1.37,1.93-1.19,3.81-.56,5.78a26,26,0,0,1-4.08-.19c-.47,0-.49-.31-.45-.67a13.41,13.41,0,0,1,1-4,4,4,0,0,1,5.05-2.35,12.42,12.42,0,0,1,3.32,1.44,55.52,55.52,0,0,1,8.46,6.51l-9-.4a1.06,1.06,0,0,1-.81-.49C282.74,133.76,281.35,132.19,281.15,129.78Z"/><path class="cls-2" d="M333.57,204c-.2,4.17-4.38,12.64-7.44,15.06a26.24,26.24,0,0,0-2.6-10.08c-.14-.28-.2-.54.2-.64C327.2,207.38,330.32,205.61,333.57,204Z"/><path class="cls-2" d="M224,350.14c0-2,0-3.91,0-5.87,0-.84.21-1.12,1.09-1.12,2.45,0,2.45,0,2.45,2.39s0,4.95,0,7.41c0,.86.23,1.16,1.1,1.11,1.26-.06,2.53.07,3.78,0s1.09.62,1,1.31.56,1.7-.91,1.67c-2.51-.05-5,0-7.55,0-.76,0-.94-.29-.93-1C224,354.06,224,352.1,224,350.14Z"/><path class="cls-2" d="M302.64,257.16c5.44,1.28,7,1,11.65-2a13.62,13.62,0,0,1-3.62,8.11,3.08,3.08,0,0,1-3.48.57A7.24,7.24,0,0,1,302.64,257.16Z"/><path class="cls-2" d="M217.7,350c0-1.91,0-3.83,0-5.74,0-.84.2-1.13,1.09-1.13,2.48,0,2.48,0,2.48,2.37,0,3.41,0,6.82,0,10.23,0,.95-.23,1.28-1.23,1.26-2.34,0-2.34,0-2.34-2.37Z"/><path class="cls-2" d="M391.3,298.84c.4,5-5.59,11.57-11.4,10.05a11.38,11.38,0,0,0,1.55-1.11,6.65,6.65,0,0,0,2.11-4.58c0-.43,0-.85.62-.85,2.72,0,4.73-1.5,6.67-3.14Z"/><path class="cls-2" d="M254.38,341.83c.55-.9,1.11-1.8,1.65-2.7a.59.59,0,0,1,.82-.28c.77.31,1.55.57,2.47.9C257.92,341.24,256.66,342.58,254.38,341.83Z"/><path class="cls-2" d="M305,160.53a54.89,54.89,0,0,0-13,0,7.18,7.18,0,0,1,6.79-5.21A6.63,6.63,0,0,1,305,160.53Z"/><path class="cls-2" d="M286.86,157.58v-.22H287l-.15.18Z"/><path class="cls-2" d="M286.83,157.54l-.19.36-.22-.29c.14-.09.27-.27.44,0Z"/><path class="cls-1" d="M337.9,248.45a33.41,33.41,0,0,1-8-1A3,3,0,0,1,328,246c-2.64-4.2-3.37-8.83-3.2-13.68a2.52,2.52,0,0,1,.71-1.49,24.87,24.87,0,0,1,11.88-8,1.74,1.74,0,0,1,1.21,0,25.07,25.07,0,0,1,12,8.13,2.69,2.69,0,0,1,.65,1.66c.1,4.79-.65,9.38-3.27,13.53a2.8,2.8,0,0,1-1.85,1.33A34.17,34.17,0,0,1,337.9,248.45Zm8.9-7.64-.46.38a5.78,5.78,0,0,1-6,.44l-1.29-.56c-2.39-1-4.78-2.1-7.18-3.12a1.94,1.94,0,0,0-2.67,1,2.18,2.18,0,0,0,.95,2.64c2.7.91,5.23,2.23,7.85,3.32a6,6,0,0,0,2.4.67c3-.07,4.76-1.81,6.17-4.16.19-.18.45-.34.19-.66l.19,0,0-.17Zm1-6.35c-1.71,2.75-2.35,2.94-5.41,1.6l-9.86-4.31a6.61,6.61,0,0,0-1-.41c-1.37-.32-2.17.49-2.79,2.43-.53,1.64.8.93,1.36,1.2.38.19.77.34,1.15.51,3.29,1.43,6.55,2.92,9.87,4.28A4.79,4.79,0,0,0,347.77,234.46Zm-2.62.56a2,2,0,0,0,2.15-1.83c.05-1.1-.87-2.44-1.73-2.45a4,4,0,0,1-1.61-.43c-2.35-1-4.69-2.06-7-3.07-1.38-.59-2.51-.26-3,.81s0,2.17,1.38,2.77q4.35,1.92,8.71,3.81C344.45,234.81,344.9,234.93,345.15,235Z"/><path class="cls-1" d="M316.33,216.13a39.58,39.58,0,0,0-1.55,6.46c-.41,2.88.08,5.11,3.2,6.11A15,15,0,0,1,320.4,230a15.94,15.94,0,0,1-4.81-.13,2.51,2.51,0,0,0-2.55,1.22,21.58,21.58,0,0,0-3.14,6.82c-.16.57-.3,1.14-.48,1.81-1.45-1.09-2.46-2.12-2.39-4.13a35.16,35.16,0,0,1,5.11-17.37C313.15,216.58,314.55,216.31,316.33,216.13Z"/><path class="cls-1" d="M349,249.62l-.1.16s-.09-.06-.08-.08a1.4,1.4,0,0,1,.09-.17Z"/><path class="cls-1" d="M253.68,388.54a13.35,13.35,0,0,1,1.74.13,2.28,2.28,0,0,1,2,2.39,2.24,2.24,0,0,1-1.79,2.36,9.07,9.07,0,0,1-3.88,0,2.46,2.46,0,0,1,.24-4.82A15.55,15.55,0,0,1,253.68,388.54Z"/><path class="cls-1" d="M253.64,394.39c2.4,0,3.47.7,3.5,2.28s-1.16,2.46-3.52,2.46-3.55-.76-3.55-2.41S251.14,394.39,253.64,394.39Z"/><path class="cls-1" d="M253.58,383.14a13.1,13.1,0,0,1,1.4,0,2.18,2.18,0,0,1,2.16,2.13,2.31,2.31,0,0,1-1.93,2.4,9.3,9.3,0,0,1-3.07,0,2.27,2.27,0,0,1-2.08-2.39,2.17,2.17,0,0,1,2.26-2.18c.42,0,.84,0,1.26,0Z"/><path class="cls-1" d="M253.84,382.29c-2.4,0-3.41-.67-3.38-2s1.17-2.17,3.19-2.16a5.9,5.9,0,0,1,1.26.09,2,2,0,0,1,1.77,2.18c0,1.18-.77,1.74-1.88,1.86A8.29,8.29,0,0,1,253.84,382.29Z"/><path class="cls-1" d="M253.82,404c-2.3,0-3.38-.73-3.36-2.12s1.2-2.13,3.2-2.1c.41,0,.83.09,1.24.14a1.84,1.84,0,0,1,1.8,1.94,1.92,1.92,0,0,1-1.84,2.07C254.45,404,254,404,253.82,404Z"/><path class="cls-1" d="M245.89,393.4c-1.65,0-2.75-1-2.72-2.34a2.51,2.51,0,0,1,2.78-2.33c1.65,0,2.79.93,2.79,2.28S247.57,393.42,245.89,393.4Z"/><path class="cls-1" d="M261.18,393.4c-1.64,0-2.7-.93-2.72-2.35s1.09-2.33,2.88-2.29c1.63,0,2.69,1,2.65,2.41S262.87,393.42,261.18,393.4Z"/><path class="cls-1" d="M246.56,394.78c1.46,0,2.43.81,2.43,2s-1,2-2.57,1.95-2.42-.76-2.41-1.94S245,394.75,246.56,394.78Z"/><path class="cls-1" d="M260.69,394.78c1.52,0,2.51.82,2.47,2s-.94,1.87-2.47,1.87-2.42-.68-2.46-1.87S259.16,394.78,260.69,394.78Z"/><path class="cls-1" d="M246.75,383.5a2.07,2.07,0,0,1,2.26,2,2.12,2.12,0,0,1-2.33,1.92,2.07,2.07,0,0,1-2.22-2C244.46,384.21,245.35,383.48,246.75,383.5Z"/><path class="cls-1" d="M260.66,383.5a2,2,0,0,1,2.1,1.94,2.13,2.13,0,0,1-2.42,2,2,2,0,0,1-2.11-2A2.09,2.09,0,0,1,260.66,383.5Z"/><path class="cls-1" d="M253.56,408.17c-1.39,0-2.31-.66-2.34-1.66s1-1.76,2.41-1.74,2.33.73,2.36,1.68S255,408.18,253.56,408.17Z"/><path class="cls-1" d="M249.3,401.93c-.05,1-.47,1.67-1.55,1.75a1.73,1.73,0,1,1-.1-3.45C248.74,400.25,249.21,400.89,249.3,401.93Z"/><path class="cls-1" d="M259.55,400.23a1.63,1.63,0,0,1,1.71,1.76,1.67,1.67,0,1,1-3.34-.08A1.55,1.55,0,0,1,259.55,400.23Z"/><path class="cls-1" d="M248.15,382.22a1.35,1.35,0,0,1-1.42-1.54,1.29,1.29,0,0,1,1.37-1.42,1.31,1.31,0,0,1,1.48,1.45A1.34,1.34,0,0,1,248.15,382.22Z"/><path class="cls-1" d="M259,382.21a1.33,1.33,0,0,1-1.36-1.55,1.29,1.29,0,0,1,1.38-1.4,1.31,1.31,0,0,1,1.45,1.47A1.34,1.34,0,0,1,259,382.21Z"/><path class="cls-1" d="M192.68,82.51c0-2.14,0-4.29,0-6.43a1,1,0,0,1,.89-1.13c1.14-.22,2.26-.56,3.4-.74,1.73-.28,2.82.32,3.08,2a26.09,26.09,0,0,1-.11,9.57c-.41,1.84-1.86,2.82-3.61,3.36-3.64,1.12-3.64,1.12-3.64-2.6C192.67,85.21,192.67,83.86,192.68,82.51Z"/><path class="cls-1" d="M137.48,130.78v-5.91c0-2.66,0-5.32,0-8a1.3,1.3,0,0,1,.84-1.41c1.27-.57,2.48-1.32,3.78-1.8,1.72-.65,2.74-.07,3,1.75a27.27,27.27,0,0,1-.08,9.19,5,5,0,0,1-2.09,3.21A54.38,54.38,0,0,1,137.48,130.78Z"/><path class="cls-1" d="M137.47,108.76c0-3.35.15-6.65-.05-9.94-.12-2,.44-3.28,2.39-3.85a4.4,4.4,0,0,0,.75-.38c2.82-1.41,3.94-.73,4,2.47,0,.79,0,1.59,0,2.38C144.86,104.6,142.39,107,137.47,108.76Z"/><path class="cls-1" d="M298.42,90.05V78c0-.38,0-.75,0-1.12.07-2.38.75-3.57,2.23-3.92a5.07,5.07,0,0,1,5,2.33,7,7,0,0,1,.78,3.51q0,13,0,25.93v.14c-.05,2.39-.73,3.64-2.16,3.94a5,5,0,0,1-5.22-2.46,7.74,7.74,0,0,1-.65-3.55Z"/><path class="cls-1" d="M168,85.08q1.16,7.65,2.33,15.29c.31,2,.59,4.06,1,6.08.16.82.05,1.25-.84,1.53-2,.65-4,1.43-6.19,2.22,1.16-8.51,2.3-16.82,3.44-25.14Z"/><path class="cls-1" d="M358.86,95.33c1.11,8.53,2.22,17.06,3.36,25.78-2.29-1.11-4.41-2.14-6.53-3.15-.53-.26-.38-.64-.32-1.06q1.63-10.79,3.26-21.55Z"/><path class="cls-1" d="M337.16,188.28c.11,0,.29-.13.31-.11s0,.22-.15.27Z"/><path class="cls-2" d="M347.77,234.46a4.79,4.79,0,0,1-6.72,5.3c-3.32-1.36-6.58-2.85-9.87-4.28-.38-.17-.77-.32-1.15-.51-.56-.27-1.89.44-1.36-1.2.62-1.94,1.42-2.75,2.79-2.43a6.61,6.61,0,0,1,1,.41l9.86,4.31C345.42,237.4,346.06,237.21,347.77,234.46Z"/><path class="cls-2" d="M346.59,241.44c-1.41,2.35-3.21,4.09-6.17,4.16a6,6,0,0,1-2.4-.67c-2.62-1.09-5.15-2.41-7.85-3.32a2.18,2.18,0,0,1-.95-2.64,1.94,1.94,0,0,1,2.67-1c2.4,1,4.79,2.08,7.18,3.12l1.29.56a5.78,5.78,0,0,0,6-.44Z"/><path class="cls-2" d="M345.15,235c-.25-.09-.7-.21-1.12-.39q-4.35-1.89-8.71-3.81c-1.34-.6-1.86-1.67-1.38-2.77s1.6-1.4,3-.81c2.35,1,4.69,2,7,3.07a4,4,0,0,0,1.61.43c.86,0,1.78,1.35,1.73,2.45A2,2,0,0,1,345.15,235Z"/><path class="cls-2" d="M346.34,241.19l.46-.38,0,0c.26.32,0,.48-.19.66Z"/><path class="cls-2" d="M346.8,240.81l.13-.18,0,.17-.19,0Z"/><path class="cls-4" d="M236,180.82c1.15.35,1.86,1.38,2.88,1.93.43.24.82.83,1.33.56s.21-.86.23-1.3c0-1.3.59-2.7-.74-3.73a9,9,0,0,1,.64-3.84c.43-.18.87-.21,1-.92a33.48,33.48,0,0,1,3.26-9.77,2.28,2.28,0,0,0-.27-2.68,38.92,38.92,0,0,1-5.12-8.63c-.14-.36-.18-.94-.7-.93s-.6.52-.83.86a18.22,18.22,0,0,0-1,1.85c-.4.75-.81.65-1.21,0a4.85,4.85,0,0,1-.37-1.05,54.51,54.51,0,0,1-1.91-9,3.66,3.66,0,0,0-.4-1.33c.14-1.19,1-1,1.66-.7a29.22,29.22,0,0,1,6.22,2.87,95.64,95.64,0,0,1,8,5.86c1.85,1.48,1.89,1.88.84,4a24.25,24.25,0,0,0-1.12,2.36,18.41,18.41,0,0,0,2.4-1.39,13.37,13.37,0,0,1,8.19-2.8c4.05-.05,8.12-.39,12.15.22,3.47.52,4.72,2.05,4.75,5.6a35.57,35.57,0,0,1-1.44,8.81,11.78,11.78,0,0,0-.52,2.28,12.47,12.47,0,0,0,3.1-1.45,18.86,18.86,0,0,1,2.23-1.16c.3-.12.65-.29.92,0s.12.71-.06,1a45.78,45.78,0,0,0-2.57,5c-1.46,3.53-1.15,4.24,2.54,5.17a38,38,0,0,0,5.09.93c1,.1,1.41-.24,1.45-1.18a2.72,2.72,0,0,1,0-.28c.09-.67-.23-1.58.5-1.91s1.38.42,1.9.9c1.43,1.34,2.91,2.63,4.33,4s1.42,1.38,3.08.15a99,99,0,0,1,10.81-7.48,72.66,72.66,0,0,1,9.32-4.18,10.87,10.87,0,0,0,1.92-.82c.4-.6-.13-1-.4-1.33a35.14,35.14,0,0,0-2.54-3.29c-.3-.34-.86-.67-.39-1.27a5.82,5.82,0,0,1,5.21,0c4.81,2.09,9.61,4.21,14.43,6.28.4.16.95.22,1,.84a94.65,94.65,0,0,0-12.7.88,33.78,33.78,0,0,0-13.34,4.77c-4.23,2.74-7.4,6.29-8.31,11.44a16.74,16.74,0,0,0,1.3,9,13.75,13.75,0,0,1-3.23,2.17c-3.24,2.13-6.58,4.12-8.94,7.33A28.69,28.69,0,0,0,286.9,212a7.11,7.11,0,0,0-.33,2.63q0,11.21,0,22.41c0,.7.31,1.79-.51,2s-1-.93-1.3-1.56a75.4,75.4,0,0,0-8.94-14.68,25.85,25.85,0,0,0-15.73-9.45,22.91,22.91,0,0,0-5-.18,2.73,2.73,0,0,1-2.68-1.6,62.21,62.21,0,0,1-4.7-10.31c-1.23-3.5-.72-7,0-10.5a34,34,0,0,1,1.31-4.59c-.52,1.07-1.34,2.07-1.89,3.22a.33.33,0,0,1-.48.14A35.47,35.47,0,0,0,242.42,200a2,2,0,0,1-1.31,1.59,34.24,34.24,0,0,0-11,7,22.65,22.65,0,0,0-4.49,6.53c-3.4-8.19-9.61-12.7-17.85-14.8l.91.85c7.54,6.8,10.82,15.34,10.36,25.4-.07,1.58-.25,3.16-.4,4.73a5.94,5.94,0,0,1-1.38,3.27c-4.61,5.74-8.81,11.74-11.1,18.83-1.32,4.11-1.87,8.28-.45,12.51.44.74-.13,1.42-.13,2.15a130.25,130.25,0,0,0,.34,14,8.86,8.86,0,0,0,.35,1.68,42.24,42.24,0,0,0,4.72-4,108.63,108.63,0,0,1,16.39-12.57,3,3,0,0,1,1.39-.61c.81,1.55.6,3.27.73,4.91.26,3.15.27,6.33.39,9.5,0,.6,0,1.05-.76,1.24C222,284,216.78,288.45,212.33,294a30.3,30.3,0,0,0-6.75,13.94c-.12.69-.15,1.39-.2,2.08a4.22,4.22,0,0,0,.1.84,20.49,20.49,0,0,1,1.05-2.77c.5,0,.8.43,1.15.74A36.76,36.76,0,0,0,227,317.92a82.08,82.08,0,0,0,15.36.24c5.88-.28,11.71-1,17.54-1.76,3.61-.45,7.17-1.28,10.78-1.73a33,33,0,0,1,22.15,4.72,17.89,17.89,0,0,0,11.8,2.46,25.73,25.73,0,0,0,4-.69,8,8,0,0,1,5.58.67,22.62,22.62,0,0,1,5.94,3.65c3,2.73,6.21,2.32,9.55,1.12a5.86,5.86,0,0,0,3.55-3.19c.68-1.55.56-2.18-.62-3.33,3.82-1.82,7.13-.67,10,2a7.13,7.13,0,0,1,1.06,9.66,15.12,15.12,0,0,1-7.17,5.61,8.53,8.53,0,0,1-6.54-.25c-2.94-1.2-5.66-2.89-8.66-3.95-6.05-2.14-12.2-2.05-18.37-.76a14.17,14.17,0,0,1-10.14-1.52,57,57,0,0,1-5-3.1c-6.54-4.56-13.57-5.24-21.1-3a147.72,147.72,0,0,1-26.58,5.38,122.35,122.35,0,0,1-23.36-.12c-6-.53-12-.91-18,.29-2.6.52-5.2,1.12-7.77,1.77a4.82,4.82,0,0,1-5.67-2.24,97.15,97.15,0,0,1-5.83-11c-4.23-8.54-8.12-17.22-10.37-26.55a78.83,78.83,0,0,1-1.71-17.66,58.48,58.48,0,0,0-1.69-13.44,1.08,1.08,0,0,1,.08-1.06c5.37,4.35,11.89,7,17.17,11.5a27,27,0,0,0-5.31-9.89,35.57,35.57,0,0,0-5.52-4.72c-8.53-6.54-13.23-15.05-13-26a15.62,15.62,0,0,1,2.55-8c.57,1.49,1,2.77,1.54,4a37.45,37.45,0,0,0,5.56,10.32c1.82,2.22,3.92,4,7,4.08.4,0,.94.19,1.17-.2s-.25-.75-.47-1.07a60.05,60.05,0,0,1-8-15.84c-2.82-9.19-2.2-18,3.15-26.18a2.18,2.18,0,0,0,.2-.37s0-.07-.09-.26c-5.8,4.55-10.91,9.46-11.59,17.35a1.84,1.84,0,0,1-.57,1.22c-5.52,5.63-6.85,12.52-6,20.05a58.84,58.84,0,0,0,4.22,15c1.25,3.1,1.59,6.42,2.15,9.68a75.9,75.9,0,0,1,1.32,13.36c0,1.45-.19,2.89-.26,4.34-.4,8.75,2.1,16.88,5.44,24.82,2.8,6.67,6.15,13.1,8.6,19.92.65,1.81,1.15,3.65,1.72,5.48,1.51,4.79,3.84,8.91,9.4,9.81,2.87.46,5.67-.21,8.44-.92a91.61,91.61,0,0,1,9.11-2.22,16.34,16.34,0,0,1,3.63-.15c.39,0,.94-.13,1.11.36s-.26.67-.48,1a134.47,134.47,0,0,1-10.33,12.53c-9.9,10.62-21.5,19.05-34,26.39-4.34,2.56-8.73,5-13.09,7.58-.43.24-1,.35-1.15.93-3.14-2.91-6.41-5.69-9.37-8.77a130,130,0,0,1-9.69-10.63c-1.81-2.34-1.74-2.35.41-4.41,7.13-6.86,13.83-14.1,19.15-22.49a41.06,41.06,0,0,0,6.24-17.45,65.74,65.74,0,0,0-1.24-20.93c-1.08-5.17-2.33-10.32-2.89-15.58a89.15,89.15,0,0,1-.64-10.72c.06-4.37,0-8.74,0-13.11a10.37,10.37,0,0,1,.2-2.35,3.19,3.19,0,0,0-.38-2.4,40.66,40.66,0,0,1-4.3-13.91,50.59,50.59,0,0,1-.6-7.08c-.11-7,2.84-12.68,7.39-17.7a19.19,19.19,0,0,1,3.56-3.35,1.43,1.43,0,0,0,.59-1.06c1.07-7.62,5.19-13.06,11.9-16.67a53.5,53.5,0,0,1,7.45-3.37c.32.45,0,.72-.13,1a35.92,35.92,0,0,0-4.7,16.45c-.65,11.92,3.91,22,10.78,31.26a74.62,74.62,0,0,0,6.3,7.46c.6.62.92.62,1.54,0a71.5,71.5,0,0,0,14.92-20.58,23,23,0,0,0,2.31-9.7,22.52,22.52,0,0,0-2.22-9.15,51.2,51.2,0,0,0-13.89-18c-.21-.17-.49-.42-.49-.63,0-.47.47-.35.76-.4a26.25,26.25,0,0,1,7.51-.07c5.38.64,10.26,2.83,15.36,5.22l-3.84-7.13c1.9,1.07,3.38,2.7,5.48,4.13a21.56,21.56,0,0,0-3.42-5.25c-1-1.13-2-2.19-3.09-3.24-.54-.53-.64-.84.16-1.19,2.58-1.1,4.89-2.71,7.36-4,2.16-1.15,4.34-2.21,7.14-1.87a5.25,5.25,0,0,0-2.54-1.62,24.09,24.09,0,0,0-9.39-1,94.2,94.2,0,0,0-12.63,1.5,3.53,3.53,0,0,1-2.89-1c.25-.69.89-.79,1.46-.93,5.26-1.32,10.54-2.45,16-2.32a26.15,26.15,0,0,1,13.64,4.48c.42.27,1,.54.87,1.15s-.69.58-1.12.73c-2.94,1.05-6,1.81-8.63,3.58-.88.58-1.78,1.13-2.69,1.85,2.45-.34,4.74-1,7.08-1.33A50.36,50.36,0,0,1,236,180.82Z"/><path class="cls-4" d="M290.47,279a15.92,15.92,0,0,1-2.93,3.77c-5,5.3-11.08,7.34-18.38,6.41a183.49,183.49,0,0,1-29.56-6.78c-1.11-.33-2.52-.43-3.23-1.18s.13-2.09.22-3.18c.6-7.57-.89-14.87-2.69-22.13-.71-2.85-1.61-5.66-2.47-8.47a1.92,1.92,0,0,1,.08-1.59,43.19,43.19,0,0,1,11-13.66,17.31,17.31,0,0,1,2.21-1.47,4.64,4.64,0,0,1,3.86-.49c5.56,1.6,11.17,3,16.43,5.53a19.94,19.94,0,0,1,7.8,6.23,64.79,64.79,0,0,1,6,9.25c2.58,5.23,1.18,9.69-3.86,12.63-.5.29-.9.46-.68,1.25,1.83,6.64,6.1,12.39,13.78,13.65C288.81,278.9,289.55,278.92,290.47,279Z"/><path class="cls-4" d="M376.41,295.29c-1.3,2.74-.67,4.42,2,5.32,1.32.44,1.46,1.22,1,2.24a14.19,14.19,0,0,1-6.64,6.76,3.41,3.41,0,0,1-1.91.26q-7.86-.78-15.74-1.5c-.84-.07-1.35-.16-.9-1.2,2.22-5.16,1.53-10-1.61-14.59-.69-1,0-2.27-.31-3.35a.37.37,0,0,1,.55.1c3.41,3.62,7.56,4.33,12.19,3.08.64-.17,1-.23,1.49.44,1,1.55,2.73,2,4.46,2.31A18.24,18.24,0,0,0,376.41,295.29Z"/><path class="cls-4" d="M338.16,261.9c-1.66-.52-3.37-.23-5-.63a4.71,4.71,0,0,1-1.76-1.09,22,22,0,0,1-4-4.07,1.89,1.89,0,0,1-.28-2.07c.59-1.37,1.1-2.77,1.63-4.16.27-.69.57-1,1.45-.73a22.29,22.29,0,0,0,7.54,1.08,23.12,23.12,0,0,0,7.42-.92c1-.33,1.71-.37,2,1a12.82,12.82,0,0,0,1.31,3.37,2.3,2.3,0,0,1-.44,3c-1.83,1.89-3.39,4.16-6.18,4.78C340.64,261.71,339.35,261.5,338.16,261.9Z"/><path class="cls-4" d="M359.79,231.87a1.83,1.83,0,0,1,2,1,21.13,21.13,0,0,1,2.78,6.8c.35,1.42-.35,2.74-.77,4.06a6.7,6.7,0,0,1-2.85,3.95,37,37,0,0,1-5.84,3.24,1.9,1.9,0,0,1-2.06-.29c-.11-.09-.2-.2-.31-.29-1.13-1-2.81-1.73-3.22-2.94s1.53-2.34,1.72-3.73c.46-3.31,2.86-5.3,4.83-7.6a15.57,15.57,0,0,0,2.16-3.23C358.61,232.17,359,231.6,359.79,231.87Z"/></svg>