<?xml version="1.0" encoding="UTF-8"?>
<svg id="Layer_1" xmlns="http://www.w3.org/2000/svg" version="1.1" xmlns:xlink="http://www.w3.org/1999/xlink" viewBox="0 0 400 400">
  <!-- Generator: Adobe Illustrator 29.1.0, SVG Export Plug-In . SVG Version: 2.1.0 Build 142)  -->
  <defs>
    <style>
      .st0, .st1 {
        fill: #fff;
      }

      .st1 {
        fill-rule: evenodd;
      }

      .st2 {
        fill: none;
      }

      .st3 {
        clip-path: url(#clippath-1);
      }

      .st4 {
        fill: #0f4ea2;
      }

      .st5 {
        clip-path: url(#clippath);
      }
    </style>
    <clipPath id="clippath">
      <path class="st2" d="M44.1,306.1v47.7c0,17.5,14.2,31.7,31.7,31.7h249.7c17.5,0,31.7-14.2,31.7-31.7v-164.2L44.1,306.1Z"/>
    </clipPath>
    <clipPath id="clippath-1">
      <path class="st2" d="M44.9,170.6v46.3l296.5-110.3c-24.4-53.7-78.5-91-141.3-91S44.9,85,44.9,170.6"/>
    </clipPath>
  </defs>
  <path class="st4" d="M200,1.4h0C107.7,1.4,32.8,76.3,32.8,168.6v196.1c0,18.7,15.2,33.9,33.9,33.9h266.6c18.7,0,33.9-15.2,33.9-33.9v-196.1C367.2,76.3,292.3,1.4,200,1.4"/>
  <path class="st0" d="M64.4,269.3c-2.5-.6-4.8-1.9-6.9-3.9-2.1-1.9-3.6-4.3-4.7-7.2-1.1-2.9-1.5-5.7-1.2-8.5.3-2.8,1.2-5.3,2.7-7.4,1.5-2.1,3.5-3.7,5.9-4.6,1.6-.6,3.3-.9,5-.8,1.7,0,3.3.5,4.9,1.2l-1.5,7.2c-.9-.4-1.8-.6-2.9-.7-1,0-2,0-2.8.4-1.2.4-2.1,1.2-2.9,2.3-.7,1.1-1.2,2.4-1.3,3.9-.1,1.5,0,3,.6,4.5.6,1.5,1.4,2.8,2.5,3.8,1.1,1,2.3,1.7,3.5,2.1,1.3.3,2.5.3,3.7-.1.9-.4,1.7-.8,2.3-1.4.6-.6,1.2-1.5,1.8-2.6l5.8,4.6c-.7,1.6-1.7,3-2.9,4.2-1.2,1.2-2.7,2.1-4.3,2.7-2.4.9-4.9,1-7.5.4"/>
  <path class="st0" d="M106.4,255.4l-6.7,2.5-3.1-4.2-9.1,3.4.4,5.2-6.7,2.5-1.5-33.8,5.7-2.1,21,26.5ZM86.2,240.7l.7,9.3,5.4-2-5.6-7.5-.8-1.3h0s.2,1.5.2,1.5Z"/>
  <path class="st0" d="M130.1,246.5l-7.3,2.7-7.4-8.2c-.2,0-.4.2-.8.3l-2.6,1,3.6,9.6-6.5,2.4-11.2-30.1,11-4.1c1.7-.7,3.5-.8,5.1-.4,1.7.4,3.2,1.2,4.5,2.4,1.3,1.3,2.4,2.9,3.1,4.9.7,1.9,1,3.7.8,5.3-.2,1.6-.7,3.1-1.5,4.4l9.2,9.8ZM107,228.9l2.5,6.8,3.9-1.4c.6-.2,1-.6,1.3-1,.3-.5.5-1,.6-1.7,0-.6,0-1.3-.3-1.9-.4-1-1-1.7-1.7-2.1-.8-.4-1.6-.4-2.4-.1l-3.9,1.5Z"/>
  <path class="st0" d="M156,236.9l-6.7,2.5-3.1-4.2-9.1,3.4.4,5.2-6.7,2.5-1.5-33.8,5.7-2.1,21,26.5ZM135.8,222.1l.7,9.3,5.4-2-5.6-7.5-.8-1.3h0s.2,1.5.2,1.5Z"/>
  <polygon class="st0" points="168.4 232.2 163 234.3 142.1 207.8 149 205.2 161.6 222.4 161.7 222.4 160 201.1 166.9 198.5 168.4 232.2"/>
  <path class="st0" d="M200.7,220.2l-6.7,2.5-3.1-4.2-9.1,3.4.4,5.2-6.7,2.5-1.5-33.8,5.7-2.1,21,26.5ZM180.5,205.5l.7,9.3,5.4-2-5.6-7.5-.8-1.3h0s.2,1.5.2,1.5Z"/>
  <path class="st0" d="M211.4,200.3l6.1-2.3,4.2,11.1c-.8,1.5-1.8,2.8-3.1,3.9-1.3,1.1-2.8,2-4.4,2.6-2.4.9-4.9,1-7.5.4-2.5-.6-4.8-1.9-6.9-3.9-2.1-1.9-3.6-4.3-4.7-7.2-1.1-2.9-1.5-5.7-1.2-8.5.3-2.8,1.2-5.3,2.7-7.4,1.5-2.1,3.5-3.7,5.9-4.6,1.6-.6,3.3-.9,5-.8,1.7,0,3.3.5,4.9,1.2l-1.6,7.3c-.9-.4-1.8-.6-2.8-.7-1,0-1.9,0-2.7.4-1.2.4-2.1,1.2-2.9,2.3-.7,1.1-1.2,2.4-1.3,3.9-.1,1.5,0,3,.6,4.5.6,1.5,1.4,2.8,2.5,3.9,1.1,1.1,2.3,1.8,3.6,2.2,1.3.4,2.5.3,3.7,0,1-.4,1.8-.8,2.4-1.4l-2.5-6.8Z"/>
  <path class="st0" d="M236.3,191l6.1-2.3,4.2,11.1c-.8,1.5-1.8,2.8-3.1,3.9-1.3,1.1-2.8,2-4.4,2.6-2.4.9-4.9,1-7.5.4-2.5-.6-4.8-1.9-6.9-3.9-2.1-1.9-3.6-4.3-4.7-7.2-1.1-2.9-1.5-5.7-1.2-8.5.3-2.8,1.2-5.3,2.7-7.4,1.5-2.1,3.5-3.7,5.9-4.6,1.6-.6,3.3-.9,5-.8,1.7,0,3.3.5,4.9,1.2l-1.6,7.3c-.9-.4-1.8-.6-2.8-.7-1,0-1.9,0-2.7.4-1.2.4-2.1,1.2-2.9,2.3-.7,1.1-1.2,2.4-1.3,3.9-.1,1.5,0,3,.6,4.5.6,1.5,1.4,2.8,2.5,3.9,1.1,1.1,2.3,1.8,3.6,2.2,1.3.4,2.5.3,3.7,0,1-.4,1.8-.8,2.4-1.4l-2.5-6.8Z"/>
  <rect class="st0" x="246" y="168.8" width="6.9" height="32.1" transform="translate(-48.9 99) rotate(-20.5)"/>
  <path class="st0" d="M268.1,193.2c-2.5-.6-4.8-1.9-6.9-3.9-2.1-1.9-3.6-4.3-4.7-7.2-1.1-2.9-1.5-5.7-1.2-8.5.3-2.8,1.2-5.3,2.7-7.4,1.5-2.1,3.5-3.7,5.9-4.6,2.4-.9,4.9-1.1,7.5-.4,2.5.6,4.8,1.9,6.9,3.9,2,1.9,3.6,4.3,4.7,7.2,1.1,2.8,1.5,5.7,1.2,8.5-.3,2.8-1.2,5.3-2.6,7.5-1.5,2.2-3.5,3.7-5.9,4.6-2.4.9-4.9,1-7.5.4M275.7,183.2c.7-1.1,1.2-2.4,1.3-3.9.1-1.5,0-3-.7-4.5-.6-1.5-1.4-2.8-2.5-3.8-1.1-1-2.3-1.7-3.5-2.1-1.3-.3-2.5-.3-3.7.1-1.2.4-2.1,1.2-2.9,2.3-.7,1.1-1.2,2.4-1.3,3.9-.1,1.5,0,3,.6,4.5.6,1.5,1.4,2.8,2.5,3.8,1.1,1,2.3,1.7,3.5,2.1,1.3.3,2.5.3,3.7-.1,1.2-.4,2.1-1.2,2.9-2.3"/>
  <polygon class="st0" points="307.3 180.4 300.8 182.8 289.6 152.7 307 146.2 309.6 153.2 298.7 157.2 301.1 163.6 309.4 160.5 311.8 167.1 303.5 170.2 307.3 180.4"/>
  <path class="st0" d="M317.9,176.5c-.5-.1-.9-.3-1.3-.7-.4-.3-.7-.8-.8-1.3-.2-.5-.3-1-.2-1.5,0-.5.2-1,.5-1.4.3-.4.7-.7,1.2-.9.5-.2,1-.2,1.5-.1s.9.3,1.3.7c.4.3.7.8.8,1.3.2.5.3,1,.2,1.5,0,.5-.2.9-.5,1.3-.3.4-.7.7-1.2.9-.5.2-1,.2-1.4.1"/>
  <path class="st0" d="M327.5,171c-2.5-.6-4.8-1.9-6.9-3.9-2.1-1.9-3.6-4.3-4.7-7.2-1.1-2.9-1.5-5.7-1.2-8.5.3-2.8,1.2-5.3,2.7-7.4,1.5-2.1,3.5-3.7,5.9-4.6,1.6-.6,3.3-.9,5-.8,1.7,0,3.3.5,4.9,1.2l-1.5,7.2c-.9-.4-1.8-.6-2.9-.7-1,0-2,0-2.8.4-1.2.4-2.1,1.2-2.9,2.3-.7,1.1-1.2,2.4-1.3,3.9-.1,1.5,0,3,.6,4.5.6,1.5,1.4,2.8,2.5,3.8,1.1,1,2.3,1.7,3.6,2.1s2.5.3,3.7-.1c.9-.4,1.7-.8,2.3-1.4.6-.6,1.2-1.5,1.8-2.6l5.8,4.6c-.7,1.6-1.7,3-2.9,4.2-1.2,1.2-2.7,2.1-4.3,2.7-2.4.9-4.9,1-7.5.4"/>
  <path class="st0" d="M345.4,166.2c-.5-.1-.9-.3-1.3-.7-.4-.3-.7-.8-.8-1.3-.2-.5-.3-1-.2-1.5,0-.5.2-1,.5-1.4.3-.4.7-.7,1.2-.9.5-.2,1-.2,1.5-.1.5.1.9.3,1.3.7.4.3.7.8.8,1.3.2.5.3,1,.2,1.5,0,.5-.2.9-.5,1.3-.3.4-.7.7-1.2.9-.5.2-1,.2-1.4.1"/>
  <g class="st5">
    <rect class="st0" x="78.4" y="175.8" width="48.9" height="232.7"/>
    <rect class="st0" x="176.2" y="175.8" width="48.9" height="239.6"/>
    <rect class="st0" x="274.1" y="175.8" width="48.9" height="232.7"/>
  </g>
  <g class="st3">
    <path class="st1" d="M192.8,87.9c-.8.9-2.7,8-4.3,7.9-1.6-.1-6.6,2-8.2,5.3-1.6,3.3-7.4,15.7-7.6,16.2-.2.5,8.4-13.1,10.1-14.7,1.6-1.6,2.3-2.2,4.9-2.7,2.6-.5,5.1-1.5,5.2-2.2.1-.7.4-4.7,1.4-6.9.9-2.1,4.6-14.9,3.4-12.4-1.3,2.5-4.7,9.5-4.7,9.5"/>
    <path class="st1" d="M322.2,126.6l19.3-18.4-48-15.3-29-1.3-19.5-20-25.7-19.7-6.9,5.9-26.2-36.4-31.2,33.8-10.1-2.6-23.4,23.4-5.1-5.9-25.7,30.8-48.4,25.6.7,5.8c5.7-5,54-30.5,54.6-30.9,1.1-.7,17.7-25.6,17.7-25.6l6.2,4.8,24.1-23.7,8.5,4.5s30-37.6,31.7-36.5c1.7,1-9.6,25.2-10.1,26.3-.5,1.1-4.8,10.8-4.8,10.8l5,3-16.7,27.8,30.5-24.3,10.8,4.1,18.8-17.2-2.1,12.9-1.4,20.4,1.2,4.7c4,.8-4.1,4.4-4.1,6.2s-.1.8-.4,1.1v7.9c41.4,3.6,87.5,40.4,87.5,81.6s-.3,8.7-.8,12.9l-26.8,14.1,62-60.1-12.2-30.2Z"/>
    <path class="st1" d="M127.3,93.5c0-.4-.4-.7-.9-.7s-.9.3-.9.7v.5c-3.3.2-5.8,1.2-5.8,2.4s.2.6.5.9c1-.9,3.4-1.5,6.2-1.5s5.2.6,6.2,1.5c.3-.3.4-.6.4-.9,0-1.2-2.5-2.2-5.8-2.4v-.5Z"/>
    <path class="st1" d="M129.2,97.4v6c0,.2.6.3,1.3.3s1.3-.1,1.3-.3v-6c0-.2-.6-.3-1.3-.3s-1.3.1-1.3.3"/>
    <path class="st1" d="M125.2,97.3v5.1c0,.2.6.3,1.3.3s1.3-.1,1.3-.3v-5.1c0-.1-.6-.3-1.3-.3s-1.3.1-1.3.3"/>
    <path class="st1" d="M121.1,97.4v6c0,.2.6.3,1.3.3s1.3-.1,1.3-.3v-6c0-.2-.6-.3-1.3-.3s-1.3.1-1.3.3"/>
    <path class="st1" d="M173.7,137.9c-4.8,7.2-24.1,12.6-47.2,12.6s-42.4-5.4-47.2-12.6c-.8,1.1-1.2,2.3-1.2,3.5,0,8.9,21.7,16.1,48.4,16.1s48.4-7.2,48.4-16.1-.4-2.4-1.2-3.5"/>
    <path class="st0" d="M166.7,134.6c-5.4-17.4-21.6-29.7-40.3-29.7s-34.9,12.2-40.3,29.6c0,0,0,0,0,0-.6,2-1.1,4-1.4,6.1,8.4,4.8,24,8,41.8,8s33.2-3.2,41.6-7.9c-.3-2.1-.8-4.1-1.4-6M142.2,144.6c3.2-23.5-15.9-38-15.9-38,32.9,3.3,38.7,32.6,38.7,32.6-9.9,3.8-22.8,5.3-22.8,5.3"/>
    <path class="st0" d="M126.6,159.4c-8.7,0-15.7,7-15.7,15.7v43.5h3v-8.8h11.9v8.6h1.5v-8.6h11.8v8.8h3v-43.5c0-8.7-7-15.7-15.7-15.7M125.9,185.4h-11.9v-10h11.9v10ZM127.4,162.5c2.9.2,5.4,1.3,7.5,3.1l-7.5,7.5v-10.5ZM125.9,173.1l-7.5-7.5c2-1.8,4.6-2.9,7.5-3v10.5ZM125.9,196.8h-11.9v-9.9h11.9v9.9ZM127.4,186.9h11.8v9.9h-11.8v-9.9ZM127.4,175.5h11.8v10h-11.8v-10ZM128.7,173.9l7.3-7.3c1.8,2,2.9,4.5,3.2,7.3h-10.5ZM117.3,166.6l7.3,7.3h-10.6c.3-2.8,1.4-5.3,3.2-7.3M114,198.4h11.9v9.9h-11.9v-9.9ZM127.4,198.4h11.8v9.9h-11.8v-9.9Z"/>
    <path class="st0" d="M155.3,156.1c-5.5,1.4-10,7.2-10,13v29.4l1.9-.5v-5.9l7.6-1.9v5.8l1-.2v-5.8l7.5-1.8v5.9l1.9-.5v-29.4c0-5.9-4.5-9.5-10-8.1M154.8,167.1v6.7l-7.6,1.9v-6.7l7.6-1.9ZM155.8,158.2c1.8-.3,3.5,0,4.8.9l-4.8,6.2v-7.1ZM154.8,165.5l-4.8-3.9c1.3-1.5,3-2.7,4.8-3.2v7.1ZM154.8,174.9v6.7l-7.6,1.9v-6.7l7.6-1.9ZM155.8,174.7l7.5-1.8v6.7l-7.5,1.8v-6.7ZM155.8,173.6v-6.7l7.5-1.8v6.7l-7.5,1.8ZM156.6,165.7l4.6-6c1.1,1,1.9,2.6,2,4.4l-6.7,1.6ZM149.4,162.5l4.7,3.8-6.7,1.6c.2-1.9.9-3.8,2.1-5.5M147.3,191.2v-6.7l7.6-1.9v6.7l-7.6,1.9ZM155.8,189.1v-6.7l7.5-1.8v6.7l-7.5,1.8Z"/>
    <path class="st0" d="M87.9,164.3v40.1l1.9.5v-16.7l7.5,1.8v11.5l1,.2v-11.5l7.6,1.9v5.9l1.9.5v-29.3c0-5.8-4.5-11.6-9.9-13-5.5-1.3-9.9,2.3-9.9,8.1M105.9,168.9v6.7l-7.6-1.9v-6.7l7.6,1.9ZM97.4,165.3l-4.7-6.2c1.3-.9,2.9-1.2,4.7-.9v7.1ZM98.3,158.4c1.8.6,3.5,1.7,4.8,3.2l-4.8,3.9v-7.1ZM105.9,176.7v6.7l-7.6-1.9v-6.7l7.6,1.9ZM97.4,181.2l-7.5-1.8v-6.7l7.5,1.8v6.7ZM89.9,171.7v-6.7l7.5,1.8v6.7l-7.5-1.8ZM89.9,164c.2-1.8.9-3.4,2-4.4l4.6,6-6.6-1.6ZM105.9,167.9l-6.7-1.6,4.6-3.8c1.1,1.6,1.9,3.5,2.1,5.4M98.3,189.2v-6.7l7.6,1.9v6.7l-7.6-1.9ZM89.9,187.1v-6.7l7.5,1.8v6.7l-7.5-1.8Z"/>
    <path class="st0" d="M84.5,151.7s2.1,1.5,6.6,2.7c0,0-3.9,1.4-4.8,5.4-.5,2-.4,48.4-.4,48.4h-1.3s0-56.5,0-56.5"/>
    <path class="st0" d="M168.3,151.9s-2.1,1.5-6.6,2.7c0,0,3.9,1.4,4.8,5.4.5,2,.4,11.6.4,11.6h1.3s0-19.8,0-19.7"/>
    <path class="st0" d="M106.3,158.4s4.9,1,9.7,1.3c0,0-3.9,2.3-5.8,6.9,0,0-.8-5-3.9-8.2"/>
    <path class="st0" d="M146.7,158.4s-4.9,1-9.7,1.3c0,0,3.9,2.3,5.8,6.9,0,0,.8-5,3.9-8.2"/>
    <path class="st1" d="M219.9,97.7c-1,.8-7.2,10.7-7.2,10.7l-19,70.4s77.3-.8,78.8-1c1.5-.3,29.5-21.8,29.5-21.8,0,0-25-39.8-25.8-40.3-.8-.5-56.3-18-56.3-18"/>
    <polygon class="st0" points="106.6 192.1 85.3 186.9 85.3 206.5 107.2 197 106.6 192.1"/>
    <path class="st0" d="M140.9,236.2c0,24.9-27.9,45-62.2,45s-62.2-20.2-62.2-45,27.9-45,62.2-45,62.2,20.2,62.2,45"/>
    <rect class="st0" x="97.1" y="191.3" width="15.8" height="3.9"/>
  </g>
  <rect class="st0" x="32.9" y="160.9" width="321.3" height="2.9" transform="translate(-44.6 78.2) rotate(-20.5)"/>
  <path class="st0" d="M325.5,389.5H74.5c-18.9,0-34.3-15.4-34.3-34.3v-184.8c0-42.7,16.6-82.9,46.8-113.1,30.2-30.2,70.3-46.8,113-46.8h0c42.7,0,82.8,16.6,113,46.8,30.2,30.2,46.8,70.4,46.8,113.1v184.8c0,18.9-15.4,34.3-34.3,34.3M200,15.3c-85.4,0-154.9,69.6-154.9,155.1v184.8c0,16.3,13.2,29.5,29.4,29.5h250.9c16.2,0,29.4-13.2,29.4-29.5v-184.8c0-85.5-69.5-155.1-154.9-155.1"/>
  <polygon class="st0" points="258.8 62.6 258.7 62.6 255.9 64.2 255.4 62.5 259 60.6 260.9 60.6 260.9 76.9 258.8 76.9 258.8 62.6"/>
  <path class="st0" d="M268.2,75.4c.5,0,1,0,1.8,0,1.3-.2,2.5-.7,3.4-1.6,1.1-1,1.9-2.4,2.2-4.3h0c-.9,1.1-2.2,1.7-3.9,1.7-2.9,0-4.8-2.2-4.8-5s2.2-5.8,5.6-5.8,5.4,2.7,5.4,6.9-1.2,6.1-2.8,7.7c-1.3,1.2-3,2-4.8,2.2-.8.1-1.5.2-2,.1v-1.8ZM269,66c0,2,1.2,3.5,3.2,3.5s2.6-.7,3.2-1.7c.1-.2.2-.5.2-.8,0-2.8-1-4.9-3.4-4.9s-3.2,1.7-3.2,4"/>
  <polygon class="st0" points="290.4 60.6 290.4 62 283.3 76.9 281 76.9 288.1 62.4 288.1 62.4 280.1 62.4 280.1 60.6 290.4 60.6"/>
  <path class="st0" d="M303.7,68.6c0,5.6-2.1,8.6-5.7,8.6s-5.4-3-5.4-8.4c0-5.5,2.4-8.5,5.7-8.5s5.4,3.1,5.4,8.3M294.8,68.8c0,4.3,1.3,6.7,3.3,6.7s3.3-2.6,3.3-6.8-1-6.7-3.3-6.7-3.3,2.4-3.3,6.8"/>
</svg>