<?xml version="1.0" encoding="UTF-8"?>
<!DOCTYPE svg PUBLIC "-//W3C//DTD SVG 1.1//EN" "http://www.w3.org/Graphics/SVG/1.1/DTD/svg11.dtd">
<svg xmlns="http://www.w3.org/2000/svg" version="1.1" width="361px" height="419px" style="shape-rendering:geometricPrecision; text-rendering:geometricPrecision; image-rendering:optimizeQuality; fill-rule:evenodd; clip-rule:evenodd" xmlns:xlink="http://www.w3.org/1999/xlink">
<g><path style="opacity:1" fill="#fef9be" d="M 292.5,26.5 C 282.815,24.1945 273.148,21.6945 263.5,19C 250.847,17.0802 238.347,14.9135 226,12.5C 216.767,12.0853 207.6,11.252 198.5,10C 164.45,8.98103 130.783,11.8144 97.5,18.5C 146.324,5.7333 195.657,4.2333 245.5,14C 261.671,16.7906 277.338,20.9573 292.5,26.5 Z"/></g>
<g><path style="opacity:1" fill="#f6f6f2" d="M 292.5,26.5 C 296.837,27.8348 301.171,29.1681 305.5,30.5C 312.581,35.5417 320.581,38.875 329.5,40.5C 330.609,40.5569 331.609,40.8902 332.5,41.5C 332.5,44.8333 334.167,46.5 337.5,46.5C 337.5,47.8333 337.5,49.1667 337.5,50.5C 340.001,49.1736 342.668,48.6736 345.5,49C 347.107,50.049 347.773,51.549 347.5,53.5C 350.187,53.3359 352.854,53.5026 355.5,54C 356.128,56.9386 356.795,59.7719 357.5,62.5C 358.764,86.8302 358.764,111.164 357.5,135.5C 357.5,135.833 357.5,136.167 357.5,136.5C 356.213,137.871 355.547,139.705 355.5,142C 354.622,150.489 353.956,158.989 353.5,167.5C 353.5,167.833 353.5,168.167 353.5,168.5C 350.866,173.67 349.533,179.337 349.5,185.5C 338.633,231.542 319.966,273.875 293.5,312.5C 291.413,313.585 290.08,315.251 289.5,317.5C 288.214,320.117 286.547,322.45 284.5,324.5C 283.167,324.5 281.833,324.5 280.5,324.5C 280.649,325.552 280.483,326.552 280,327.5C 277.923,329.076 276.423,331.076 275.5,333.5C 274.675,334.386 273.675,334.719 272.5,334.5C 272.5,335.833 272.5,337.167 272.5,338.5C 268.566,339.661 266.233,342.328 265.5,346.5C 264.5,348.167 263.167,349.5 261.5,350.5C 259.473,350.338 257.473,350.505 255.5,351C 256.022,351.561 256.355,352.228 256.5,353C 253.178,355.482 250.844,358.648 249.5,362.5C 248.417,362.539 247.417,362.873 246.5,363.5C 241.346,368.112 236.346,372.945 231.5,378C 230.167,378.667 228.833,379.333 227.5,380C 225.132,382.312 223.132,384.812 221.5,387.5C 217.281,389.535 214.948,388.201 214.5,383.5C 306.876,309.395 352.543,212.728 351.5,93.5C 351.61,81.7828 350.943,70.1162 349.5,58.5C 236.916,1.40509 124.249,1.23842 11.5,58C 10.6948,62.7488 10.1948,67.5821 10,72.5C 9.50007,88.4965 9.33341,104.497 9.5,120.5C 9.58618,127.037 10.2528,133.37 11.5,139.5C 17.1269,204.79 39.4602,263.457 78.5,315.5C 76.5165,315.383 74.8498,316.05 73.5,317.5C 70.2612,315.851 68.7612,313.184 69,309.5C 67.7365,307.393 65.9032,306.393 63.5,306.5C 57.9492,295.961 51.6158,285.961 44.5,276.5C 44.2865,274.856 44.6198,273.356 45.5,272C 43.1141,270.156 41.9474,267.656 42,264.5C 41.3086,266.891 40.3086,266.891 39,264.5C 35.3264,256.316 31.9931,247.983 29,239.5C 28.34,237.676 27.1733,236.343 25.5,235.5C 22.1938,225.273 19.3604,214.94 17,204.5C 16.0656,203.142 15.2323,201.808 14.5,200.5C 14.9282,194.5 13.5949,189.166 10.5,184.5C 10.5,184.167 10.5,183.833 10.5,183.5C 10.2605,178.231 9.26055,173.231 7.5,168.5C 7.5,168.167 7.5,167.833 7.5,167.5C 7.91661,163.183 7.24994,159.183 5.5,155.5C 5.5,155.167 5.5,154.833 5.5,154.5C 5.66644,145.494 5.49977,136.494 5,127.5C 4.09774,125.073 3.2644,122.74 2.5,120.5C 2.30586,101.153 2.6392,81.8195 3.5,62.5C 3.69399,58.6647 5.36065,55.4981 8.5,53C 16.7165,48.8135 25.0499,44.8135 33.5,41C 34.3805,40.2917 35.0472,39.4584 35.5,38.5C 38.5719,38.8174 41.5719,38.4841 44.5,37.5C 46.7319,35.3549 49.3986,33.8549 52.5,33C 55.376,32.5621 58.0427,31.5621 60.5,30C 66.2825,30.4809 71.2825,28.8142 75.5,25C 81.4564,23.8507 87.123,22.0174 92.5,19.5C 93.9187,18.5489 95.5853,18.2155 97.5,18.5C 130.783,11.8144 164.45,8.98103 198.5,10C 207.6,11.252 216.767,12.0853 226,12.5C 238.347,14.9135 250.847,17.0802 263.5,19C 273.148,21.6945 282.815,24.1945 292.5,26.5 Z"/></g>
<g><path style="opacity:1" fill="#040404" d="M 214.5,383.5 C 213.833,383.5 213.5,383.833 213.5,384.5C 202.812,392.506 191.812,400.172 180.5,407.5C 175.805,404.489 171.138,401.489 166.5,398.5C 165.078,397.075 163.411,396.075 161.5,395.5C 160.564,394.026 159.23,393.026 157.5,392.5C 127.812,370.179 101.479,344.512 78.5,315.5C 39.4602,263.457 17.1269,204.79 11.5,139.5C 11.6631,132.938 10.9965,126.605 9.5,120.5C 9.33341,104.497 9.50007,88.4965 10,72.5C 10.1948,67.5821 10.6948,62.7488 11.5,58C 124.249,1.23842 236.916,1.40509 349.5,58.5C 350.943,70.1162 351.61,81.7828 351.5,93.5C 352.543,212.728 306.876,309.395 214.5,383.5 Z"/></g>
<g><path style="opacity:1" fill="#fed71e" d="M 319.5,27.5 C 320.833,28.1667 320.833,28.1667 319.5,27.5 Z"/></g>
<g><path style="opacity:1" fill="#fdf9be" d="M 92.5,19.5 C 87.123,22.0174 81.4564,23.8507 75.5,25C 71.2825,28.8142 66.2825,30.4809 60.5,30C 58.0427,31.5621 55.376,32.5621 52.5,33C 49.3986,33.8549 46.7319,35.3549 44.5,37.5C 41.5719,38.4841 38.5719,38.8174 35.5,38.5C 53.734,30.1837 72.734,23.8503 92.5,19.5 Z"/></g>
<g><path style="opacity:1" fill="#f4f4f4" d="M 185.5,28.5 C 195.07,26.5744 203.236,28.9078 210,35.5C 212.035,38.5612 213.201,41.8945 213.5,45.5C 209.5,46.1667 205.5,46.8333 201.5,47.5C 200.24,41.4253 196.573,39.2586 190.5,41C 186.272,44.6793 184.605,49.346 185.5,55C 184.416,61.1034 186.416,65.7701 191.5,69C 198.027,69.9758 201.36,67.1424 201.5,60.5C 205.325,61.074 208.991,62.2406 212.5,64C 213.359,70.9494 210.692,76.2827 204.5,80C 188.709,85.3038 178.209,80.1371 173,64.5C 172.333,57.1667 172.333,49.8333 173,42.5C 175.115,35.8956 179.281,31.229 185.5,28.5 Z"/></g>
<g><path style="opacity:1" fill="#f7f7f7" d="M 153.5,29.5 C 154.5,29.5 155.5,29.5 156.5,29.5C 159.167,29.5 161.833,29.5 164.5,29.5C 164.5,40.5 164.5,51.5 164.5,62.5C 163.881,73.5946 158.214,80.428 147.5,83C 141.606,84.0375 135.939,83.3708 130.5,81C 128.561,79.5679 127.228,77.7346 126.5,75.5C 124.654,61.2555 123.988,46.9222 124.5,32.5C 128.842,32.2605 133.176,31.9272 137.5,31.5C 137.333,43.5046 137.5,55.5046 138,67.5C 139.691,71.2127 142.525,72.3794 146.5,71C 149.012,69.4729 150.679,67.3063 151.5,64.5C 152.186,52.9318 152.853,41.2651 153.5,29.5 Z"/></g>
<g><path style="opacity:1" fill="#a6a6a6" d="M 153.5,29.5 C 152.853,41.2651 152.186,52.9318 151.5,64.5C 150.855,52.4521 151.522,40.7854 153.5,29.5 Z"/></g>
<g><path style="opacity:1" fill="#9c9c9c" d="M 156.5,29.5 C 159.287,28.5233 162.287,28.19 165.5,28.5C 165.828,40.0123 165.495,51.3456 164.5,62.5C 164.5,51.5 164.5,40.5 164.5,29.5C 161.833,29.5 159.167,29.5 156.5,29.5 Z"/></g>
<g><path style="opacity:1" fill="#f4f4f4" d="M 232.5,33.5 C 237.537,33.9075 242.537,34.5742 247.5,35.5C 251.899,53.7615 257.233,71.7615 263.5,89.5C 258.708,90.2794 254.041,89.6127 249.5,87.5C 248.358,84.6008 247.692,81.6008 247.5,78.5C 242.199,77.623 236.865,76.9564 231.5,76.5C 231.007,78.8056 230.674,81.139 230.5,83.5C 225.545,83.7607 220.878,82.7607 216.5,80.5C 221.686,64.7436 227.019,49.0769 232.5,33.5 Z"/></g>
<g><path style="opacity:1" fill="#fcf7b6" d="M 305.5,30.5 C 313.854,33.2759 321.854,36.6093 329.5,40.5C 320.581,38.875 312.581,35.5417 305.5,30.5 Z"/></g>
<g><path style="opacity:1" fill="#f2f2f2" d="M 101.5,38.5 C 103.451,38.2267 104.951,38.8934 106,40.5C 110.859,55.5368 115.692,70.5368 120.5,85.5C 115.965,87.0072 111.299,88.0072 106.5,88.5C 106.326,86.139 105.993,83.8056 105.5,81.5C 100.391,82.2217 95.3908,83.3883 90.5,85C 89.2728,87.7359 88.2728,90.5692 87.5,93.5C 83.5905,96.5616 79.2572,97.5616 74.5,96.5C 79.9798,78.5793 85.1465,60.5793 90,42.5C 93.8537,40.9741 97.687,39.6408 101.5,38.5 Z"/></g>
<g><path style="opacity:1" fill="#c4c4c4" d="M 124.5,32.5 C 123.988,46.9222 124.654,61.2555 126.5,75.5C 124.989,73.5242 124.156,71.1909 124,68.5C 123.174,56.3262 123.34,44.3262 124.5,32.5 Z"/></g>
<g><path style="opacity:1" fill="#fbfbfb" d="M 270.5,42.5 C 273.941,43.193 277.275,44.193 280.5,45.5C 281.152,62.8662 280.486,79.8662 278.5,96.5C 275.167,95.5 271.833,94.5 268.5,93.5C 267.848,76.1338 268.514,59.1338 270.5,42.5 Z"/></g>
<g><path style="opacity:1" fill="#656565" d="M 280.5,45.5 C 281.497,62.6586 281.83,79.992 281.5,97.5C 280.209,97.7373 279.209,97.404 278.5,96.5C 280.486,79.8662 281.152,62.8662 280.5,45.5 Z"/></g>
<g><path style="opacity:1" fill="#afafaf" d="M 270.5,42.5 C 268.514,59.1338 267.848,76.1338 268.5,93.5C 267.503,76.3414 267.17,59.008 267.5,41.5C 268.791,41.2627 269.791,41.596 270.5,42.5 Z"/></g>
<g><path style="opacity:1" fill="#fdfaca" d="M 35.5,38.5 C 35.0472,39.4584 34.3805,40.2917 33.5,41C 25.0499,44.8135 16.7165,48.8135 8.5,53C 5.36065,55.4981 3.69399,58.6647 3.5,62.5C 2.65833,57.9494 3.99166,54.2827 7.5,51.5C 16.5651,46.6347 25.8985,42.3014 35.5,38.5 Z"/></g>
<g><path style="opacity:1" fill="#fdf9d3" d="M 332.5,41.5 C 340.171,45.0024 347.838,48.5024 355.5,52C 357.037,53.1096 357.703,54.6096 357.5,56.5C 357.5,58.5 357.5,60.5 357.5,62.5C 356.795,59.7719 356.128,56.9386 355.5,54C 352.854,53.5026 350.187,53.3359 347.5,53.5C 347.773,51.549 347.107,50.049 345.5,49C 342.668,48.6736 340.001,49.1736 337.5,50.5C 337.5,49.1667 337.5,47.8333 337.5,46.5C 334.167,46.5 332.5,44.8333 332.5,41.5 Z"/></g>
<g><path style="opacity:1" fill="#f2f2f2" d="M 57.5,52.5 C 65.0715,51.6185 70.0715,54.7852 72.5,62C 68.8645,64.8243 65.1978,67.6576 61.5,70.5C 57.6117,65.2458 53.445,65.2458 49,70.5C 45.6033,77.4358 44.6033,84.7691 46,92.5C 49.7356,97.6501 53.7356,97.6501 58,92.5C 59.6229,89.6731 60.7895,86.6731 61.5,83.5C 65.1073,82.5108 68.774,82.1774 72.5,82.5C 69.6244,100.883 58.9578,110.05 40.5,110C 34.793,104.581 32.1263,97.9143 32.5,90C 32.5238,71.7446 40.8571,59.2446 57.5,52.5 Z"/></g>
<g><path style="opacity:1" fill="#f2f2f2" d="M 301.5,53.5 C 306.51,55.4213 311.343,57.7547 316,60.5C 321.445,79.7441 326.112,99.0774 330,118.5C 326.573,116.871 323.073,115.371 319.5,114C 317.56,110.588 316.227,106.921 315.5,103C 310.67,100.58 305.67,98.7464 300.5,97.5C 300.753,99.8273 300.086,101.827 298.5,103.5C 294.221,102.027 290.221,100.027 286.5,97.5C 291.81,82.9177 296.81,68.251 301.5,53.5 Z"/></g>
<g><path style="opacity:1" fill="#161616" d="M 238.5,48.5 C 239.649,48.7911 240.316,49.6244 240.5,51C 241.614,56.1675 242.614,61.3341 243.5,66.5C 241.473,66.6621 239.473,66.4955 237.5,66C 236.422,65.3261 235.755,64.3261 235.5,63C 236.742,58.2024 237.742,53.3691 238.5,48.5 Z"/></g>
<g><path style="opacity:1" fill="#181818" d="M 96.5,54.5 C 97.5862,54.62 98.2528,55.2867 98.5,56.5C 99.2463,60.5654 100.246,64.5654 101.5,68.5C 99.5971,71.1472 96.9304,72.4806 93.5,72.5C 94.2427,66.4538 95.2427,60.4538 96.5,54.5 Z"/></g>
<g><path style="opacity:1" fill="#161616" d="M 307.5,71.5 C 308.586,71.62 309.253,72.2867 309.5,73.5C 310.717,78.8052 311.717,84.1385 312.5,89.5C 309.735,89.2024 307.235,88.2024 305,86.5C 305.968,81.6025 306.801,76.6025 307.5,71.5 Z"/></g>
<g><path style="opacity:1" fill="#480606" d="M 180.5,93.5 C 185.155,92.8341 189.988,92.5007 195,92.5C 200.216,92.5063 205.049,93.1729 209.5,94.5C 204.167,94.5 198.833,94.5 193.5,94.5C 189.366,93.5151 185.032,93.1818 180.5,93.5 Z"/></g>
<g><path style="opacity:1" fill="#fcf5af" d="M 7.5,51.5 C 3.99166,54.2827 2.65833,57.9494 3.5,62.5C 2.6392,81.8195 2.30586,101.153 2.5,120.5C 3.09782,125.813 3.43116,131.146 3.5,136.5C 1.8921,123.368 0.892104,110.035 0.5,96.5C 1.14543,82.4881 1.97877,68.4881 3,54.5C 4.12901,52.8588 5.62901,51.8588 7.5,51.5 Z"/></g>
<g><path style="opacity:1" fill="#640b0c" d="M 209.5,94.5 C 215.026,94.1786 220.36,94.5119 225.5,95.5C 225.5,95.8333 225.5,96.1667 225.5,96.5C 222.833,96.5 220.167,96.5 217.5,96.5C 214.833,95.8333 212.167,95.1667 209.5,94.5 Z"/></g>
<g><path style="opacity:1" fill="#2c0500" d="M 225.5,96.5 C 225.5,96.1667 225.5,95.8333 225.5,95.5C 234.124,95.1479 242.124,96.8146 249.5,100.5C 241.578,98.6631 233.578,97.3298 225.5,96.5 Z"/></g>
<g><path style="opacity:1" fill="#fdf7b4" d="M 357.5,56.5 C 358.967,69.6362 359.634,82.9696 359.5,96.5C 359.648,109.699 358.981,122.699 357.5,135.5C 358.764,111.164 358.764,86.8302 357.5,62.5C 357.5,60.5 357.5,58.5 357.5,56.5 Z"/></g>
<g><path style="opacity:1" fill="#aa2d29" d="M 225.5,96.5 C 233.578,97.3298 241.578,98.6631 249.5,100.5C 252.313,101.082 254.98,102.082 257.5,103.5C 249.832,102.535 242.166,101.368 234.5,100C 231.031,99.4646 228.031,98.2979 225.5,96.5 Z"/></g>
<g><path style="opacity:1" fill="#390402" d="M 249.5,100.5 C 255.36,100.118 260.693,101.452 265.5,104.5C 262.833,104.167 260.167,103.833 257.5,103.5C 254.98,102.082 252.313,101.082 249.5,100.5 Z"/></g>
<g><path style="opacity:1" fill="#da251d" d="M 217.5,96.5 C 220.167,96.5 222.833,96.5 225.5,96.5C 228.031,98.2979 231.031,99.4646 234.5,100C 242.166,101.368 249.832,102.535 257.5,103.5C 257.791,104.649 258.624,105.316 260,105.5C 267.199,107.59 274.366,109.59 281.5,111.5C 283.435,112.15 285.435,112.483 287.5,112.5C 287.842,113.338 288.508,113.672 289.5,113.5C 289.5,114.5 289.5,115.5 289.5,116.5C 294.685,118.335 300.018,119.669 305.5,120.5C 305.5,120.833 305.5,121.167 305.5,121.5C 307.572,123.076 309.572,124.909 311.5,127C 310.833,127.333 310.167,127.667 309.5,128C 313.046,129.174 316.713,129.84 320.5,130C 321.357,130.689 322.023,131.522 322.5,132.5C 326.326,133.588 329.993,134.921 333.5,136.5C 333.833,136.5 334.167,136.5 334.5,136.5C 332.4,152.525 330.4,168.525 328.5,184.5C 327.539,186.265 327.205,188.265 327.5,190.5C 324.004,195.117 322.338,200.451 322.5,206.5C 321.094,208.474 319.594,210.474 318,212.5C 317.674,217.146 316.34,221.479 314,225.5C 313.503,227.81 313.337,230.143 313.5,232.5C 310.123,239.257 307.29,246.257 305,253.5C 303.128,256.596 301.295,259.596 299.5,262.5C 292.144,272.615 284.977,282.948 278,293.5C 277.495,295.518 276.995,297.518 276.5,299.5C 275.417,299.539 274.417,299.873 273.5,300.5C 271.569,303.365 269.402,306.032 267,308.5C 266.51,309.793 266.343,311.127 266.5,312.5C 262.726,313.938 260.393,316.605 259.5,320.5C 257.758,322.558 255.591,324.225 253,325.5C 245.385,334.944 237.218,343.777 228.5,352C 225.167,353.667 221.833,355.333 218.5,357C 217.773,358.399 217.273,359.899 217,361.5C 213.595,363.402 211.095,366.069 209.5,369.5C 204.976,369.204 202.31,371.204 201.5,375.5C 200.71,376.401 199.71,377.068 198.5,377.5C 196.868,378.446 195.201,379.446 193.5,380.5C 192.697,356.003 192.03,331.503 191.5,307C 191.833,302.833 192.167,298.667 192.5,294.5C 195.092,291.899 196.425,288.732 196.5,285C 195.195,281.605 194.529,278.105 194.5,274.5C 192.219,274.077 190.552,274.744 189.5,276.5C 188.127,276.657 186.793,276.49 185.5,276C 181.584,272.346 180.584,268.012 182.5,263C 190.827,262.5 199.16,262.334 207.5,262.5C 207.824,255.646 207.491,248.979 206.5,242.5C 206.167,242.5 205.833,242.5 205.5,242.5C 198.011,241.671 190.344,241.171 182.5,241C 181.524,234.924 181.19,228.758 181.5,222.5C 188.022,222.823 194.355,222.49 200.5,221.5C 201.49,215.69 201.823,209.69 201.5,203.5C 201.5,203.167 201.5,202.833 201.5,202.5C 201.5,201.5 201.5,200.5 201.5,199.5C 197.13,199.385 192.963,200.052 189,201.5C 187.5,201.167 186,200.833 184.5,200.5C 183.552,195.565 183.219,190.565 183.5,185.5C 191.5,185.5 199.5,185.5 207.5,185.5C 207.5,184.5 207.5,183.5 207.5,182.5C 208.278,181.844 208.944,181.011 209.5,180C 208.746,175.205 208.246,170.372 208,165.5C 207.535,164.069 206.701,162.903 205.5,162C 197.841,161.5 190.174,161.334 182.5,161.5C 182.5,139.5 182.5,117.5 182.5,95.5C 194.183,95.3981 205.85,95.7314 217.5,96.5 Z"/></g>
<g><path style="opacity:1" fill="#cf3132" d="M 193.5,94.5 C 198.833,94.5 204.167,94.5 209.5,94.5C 212.167,95.1667 214.833,95.8333 217.5,96.5C 205.85,95.7314 194.183,95.3981 182.5,95.5C 182.5,117.5 182.5,139.5 182.5,161.5C 190.174,161.334 197.841,161.5 205.5,162C 206.701,162.903 207.535,164.069 208,165.5C 208.246,170.372 208.746,175.205 209.5,180C 208.944,181.011 208.278,181.844 207.5,182.5C 207.167,182.5 206.833,182.5 206.5,182.5C 206.823,176.31 206.49,170.31 205.5,164.5C 205.389,163.883 205.056,163.383 204.5,163C 196.841,162.5 189.174,162.334 181.5,162.5C 181.5,139.833 181.5,117.167 181.5,94.5C 185.5,94.5 189.5,94.5 193.5,94.5 Z"/></g>
<g><path style="opacity:1" fill="#b2312f" d="M 257.5,103.5 C 260.167,103.833 262.833,104.167 265.5,104.5C 268.719,106.718 272.386,107.885 276.5,108C 278.233,109.189 279.9,110.356 281.5,111.5C 274.366,109.59 267.199,107.59 260,105.5C 258.624,105.316 257.791,104.649 257.5,103.5 Z"/></g>
<g><path style="opacity:1" fill="#a32329" d="M 180.5,93.5 C 185.032,93.1818 189.366,93.5151 193.5,94.5C 189.5,94.5 185.5,94.5 181.5,94.5C 181.5,117.167 181.5,139.833 181.5,162.5C 189.174,162.334 196.841,162.5 204.5,163C 205.056,163.383 205.389,163.883 205.5,164.5C 196.833,164.5 188.167,164.5 179.5,164.5C 179.169,140.661 179.502,116.994 180.5,93.5 Z"/></g>
<g><path style="opacity:1" fill="#430607" d="M 265.5,104.5 C 273.693,105.071 281.026,107.738 287.5,112.5C 285.435,112.483 283.435,112.15 281.5,111.5C 279.9,110.356 278.233,109.189 276.5,108C 272.386,107.885 268.719,106.718 265.5,104.5 Z"/></g>
<g><path style="opacity:1" fill="#a82b2d" d="M 289.5,113.5 C 291.564,113.687 293.564,114.187 295.5,115C 298.596,117.421 301.929,119.255 305.5,120.5C 300.018,119.669 294.685,118.335 289.5,116.5C 289.5,115.5 289.5,114.5 289.5,113.5 Z"/></g>
<g><path style="opacity:1" fill="#fffacc" d="M 2.5,120.5 C 3.2644,122.74 4.09774,125.073 5,127.5C 5.49977,136.494 5.66644,145.494 5.5,154.5C 3.94306,148.739 3.27639,142.739 3.5,136.5C 3.43116,131.146 3.09782,125.813 2.5,120.5 Z"/></g>
<g><path style="opacity:1" fill="#c72e2b" d="M 305.5,121.5 C 314.769,125.257 323.769,129.591 332.5,134.5C 333.298,134.957 333.631,135.624 333.5,136.5C 329.993,134.921 326.326,133.588 322.5,132.5C 322.023,131.522 321.357,130.689 320.5,130C 316.713,129.84 313.046,129.174 309.5,128C 310.167,127.667 310.833,127.333 311.5,127C 309.572,124.909 307.572,123.076 305.5,121.5 Z"/></g>
<g><path style="opacity:1" fill="#320a07" d="M 305.5,121.5 C 305.5,121.167 305.5,120.833 305.5,120.5C 312.221,123.571 319.221,126.071 326.5,128C 328.979,131.406 332.312,132.906 336.5,132.5C 336.982,135.302 337.316,138.135 337.5,141C 337.7,143.866 337.033,146.366 335.5,148.5C 335.817,144.298 335.483,140.298 334.5,136.5C 334.167,136.5 333.833,136.5 333.5,136.5C 333.631,135.624 333.298,134.957 332.5,134.5C 323.769,129.591 314.769,125.257 305.5,121.5 Z"/></g>
<g><path style="opacity:1" fill="#797872" d="M 9.5,120.5 C 10.9965,126.605 11.6631,132.938 11.5,139.5C 10.2528,133.37 9.58618,127.037 9.5,120.5 Z"/></g>
<g><path style="opacity:1" fill="#fef4bd" d="M 357.5,136.5 C 357.12,147.086 355.786,157.42 353.5,167.5C 353.956,158.989 354.622,150.489 355.5,142C 355.547,139.705 356.213,137.871 357.5,136.5 Z"/></g>
<g><path style="opacity:1" fill="#bb2f32" d="M 334.5,136.5 C 335.483,140.298 335.817,144.298 335.5,148.5C 335.5,149.5 335.5,150.5 335.5,151.5C 334.883,151.611 334.383,151.944 334,152.5C 333.503,155.146 333.336,157.813 333.5,160.5C 332.395,167.11 331.062,173.776 329.5,180.5C 329.768,182.099 329.434,183.432 328.5,184.5C 330.4,168.525 332.4,152.525 334.5,136.5 Z"/></g>
<g><path style="opacity:1" fill="#430608" d="M 335.5,151.5 C 335.664,154.187 335.497,156.854 335,159.5C 334.617,160.056 334.117,160.389 333.5,160.5C 333.336,157.813 333.503,155.146 334,152.5C 334.383,151.944 334.883,151.611 335.5,151.5 Z"/></g>
<g><path style="opacity:1" fill="#fcf8aa" d="M 5.5,155.5 C 7.24994,159.183 7.91661,163.183 7.5,167.5C 6.20532,163.733 5.53866,159.733 5.5,155.5 Z"/></g>
<g><path style="opacity:1" fill="#af2d29" d="M 271.5,196.5 C 271.825,188.648 271.492,180.982 270.5,173.5C 268.561,169.064 265.228,166.231 260.5,165C 248.5,164.333 236.5,164.333 224.5,165C 220.145,166.846 217.479,170.013 216.5,174.5C 216.167,174.5 215.833,174.5 215.5,174.5C 215.418,168.965 218.085,165.132 223.5,163C 236.548,162.1 249.548,162.433 262.5,164C 266.619,165.705 269.786,168.539 272,172.5C 272.823,180.677 272.656,188.677 271.5,196.5 Z"/></g>
<g><path style="opacity:1" fill="#f8f8f8" d="M 144.5,173.5 C 144.5,181.167 144.5,188.833 144.5,196.5C 138.5,196.5 132.5,196.5 126.5,196.5C 126.819,191.637 126.486,186.97 125.5,182.5C 119.833,182.5 114.167,182.5 108.5,182.5C 108.5,202.5 108.5,222.5 108.5,242.5C 114.167,242.5 119.833,242.5 125.5,242.5C 126.486,238.03 126.819,233.363 126.5,228.5C 132.5,228.5 138.5,228.5 144.5,228.5C 144.5,235.5 144.5,242.5 144.5,249.5C 143.488,254.68 140.488,258.18 135.5,260C 123.5,260.667 111.5,260.667 99.5,260C 96.9746,259.576 94.9746,258.41 93.5,256.5C 92.9695,254.076 92.1362,251.743 91,249.5C 90.5,223.835 90.3334,198.169 90.5,172.5C 92.0208,168.885 94.6875,166.385 98.5,165C 110.833,164.333 123.167,164.333 135.5,165C 139.658,166.659 142.658,169.492 144.5,173.5 Z"/></g>
<g><path style="opacity:1" fill="#fafafa" d="M 179.5,165.5 C 188.167,165.5 196.833,165.5 205.5,165.5C 205.5,170.833 205.5,176.167 205.5,181.5C 197.648,181.175 189.982,181.508 182.5,182.5C 181.833,182.5 181.167,182.5 180.5,182.5C 178.833,182.5 177.167,182.5 175.5,182.5C 175.5,189.5 175.5,196.5 175.5,203.5C 176.833,203.5 178.167,203.5 179.5,203.5C 179.833,203.5 180.167,203.5 180.5,203.5C 186.979,204.491 193.646,204.824 200.5,204.5C 200.5,209.833 200.5,215.167 200.5,220.5C 193.313,220.175 186.313,220.509 179.5,221.5C 178.167,221.5 176.833,221.5 175.5,221.5C 175.5,228.5 175.5,235.5 175.5,242.5C 176.833,242.5 178.167,242.5 179.5,242.5C 180.167,242.5 180.833,242.5 181.5,242.5C 189.316,243.492 197.316,243.826 205.5,243.5C 205.5,248.833 205.5,254.167 205.5,259.5C 196.833,259.5 188.167,259.5 179.5,259.5C 172.167,259.5 164.833,259.5 157.5,259.5C 157.5,228.167 157.5,196.833 157.5,165.5C 164.833,165.5 172.167,165.5 179.5,165.5 Z"/></g>
<g><path style="opacity:1" fill="#fbf7f6" d="M 270.5,173.5 C 270.5,181.167 270.5,188.833 270.5,196.5C 264.5,196.5 258.5,196.5 252.5,196.5C 252.5,191.833 252.5,187.167 252.5,182.5C 246.5,182.5 240.5,182.5 234.5,182.5C 234.5,202.5 234.5,222.5 234.5,242.5C 240.5,242.5 246.5,242.5 252.5,242.5C 253.166,239.311 253.833,235.977 254.5,232.5C 255.287,231.758 255.953,230.925 256.5,230C 261.236,228.782 265.403,229.616 269,232.5C 269.667,237.833 269.667,243.167 269,248.5C 267.555,251.09 266.388,253.757 265.5,256.5C 263.063,256.756 260.729,257.423 258.5,258.5C 247.88,257.689 237.213,257.189 226.5,257C 223.829,255.097 220.829,254.264 217.5,254.5C 217.5,253.833 217.5,253.167 217.5,252.5C 216.536,226.526 216.203,200.526 216.5,174.5C 217.479,170.013 220.145,166.846 224.5,165C 236.5,164.333 248.5,164.333 260.5,165C 265.228,166.231 268.561,169.064 270.5,173.5 Z"/></g>
<g><path style="opacity:1" fill="#cdcdcd" d="M 179.5,164.5 C 179.5,164.833 179.5,165.167 179.5,165.5C 172.167,165.5 164.833,165.5 157.5,165.5C 157.5,196.833 157.5,228.167 157.5,259.5C 164.833,259.5 172.167,259.5 179.5,259.5C 179.5,259.833 179.5,260.167 179.5,260.5C 171.833,260.5 164.167,260.5 156.5,260.5C 156.5,228.5 156.5,196.5 156.5,164.5C 164.167,164.5 171.833,164.5 179.5,164.5 Z"/></g>
<g><path style="opacity:1" fill="#faeea2" d="M 7.5,168.5 C 9.26055,173.231 10.2605,178.231 10.5,183.5C 8.73945,178.769 7.73945,173.769 7.5,168.5 Z"/></g>
<g><path style="opacity:1" fill="#f9c3ba" d="M 179.5,165.5 C 179.5,165.167 179.5,164.833 179.5,164.5C 188.167,164.5 196.833,164.5 205.5,164.5C 206.49,170.31 206.823,176.31 206.5,182.5C 198.5,182.5 190.5,182.5 182.5,182.5C 189.982,181.508 197.648,181.175 205.5,181.5C 205.5,176.167 205.5,170.833 205.5,165.5C 196.833,165.5 188.167,165.5 179.5,165.5 Z"/></g>
<g><path style="opacity:1" fill="#d9d9d9" d="M 90.5,172.5 C 90.3334,198.169 90.5,223.835 91,249.5C 92.1362,251.743 92.9695,254.076 93.5,256.5C 92.1154,255.426 90.9487,254.093 90,252.5C 89.1698,225.664 89.3365,198.997 90.5,172.5 Z"/></g>
<g><path style="opacity:1" fill="#260801" d="M 333.5,160.5 C 333.83,167.2 333.497,173.866 332.5,180.5C 331.473,179.209 330.473,179.209 329.5,180.5C 331.062,173.776 332.395,167.11 333.5,160.5 Z"/></g>
<g><path style="opacity:1" fill="#fef2b6" d="M 353.5,168.5 C 352.831,173.514 351.997,178.514 351,183.5C 350.722,184.416 350.222,185.082 349.5,185.5C 349.533,179.337 350.866,173.67 353.5,168.5 Z"/></g>
<g><path style="opacity:1" fill="#cf2725" d="M 206.5,182.5 C 206.833,182.5 207.167,182.5 207.5,182.5C 207.5,183.5 207.5,184.5 207.5,185.5C 199.5,185.5 191.5,185.5 183.5,185.5C 183.219,190.565 183.552,195.565 184.5,200.5C 186,200.833 187.5,201.167 189,201.5C 192.963,200.052 197.13,199.385 201.5,199.5C 201.5,200.5 201.5,201.5 201.5,202.5C 195.158,202.666 188.825,202.5 182.5,202C 181.359,196.25 181.193,190.416 182,184.5C 190.265,183.847 198.432,183.18 206.5,182.5 Z"/></g>
<g><path style="opacity:1" fill="#db514a" d="M 215.5,175.5 C 215.333,200.169 215.5,224.836 216,249.5C 216.232,250.737 216.732,251.737 217.5,252.5C 217.5,253.167 217.5,253.833 217.5,254.5C 216.034,253.653 215.2,252.32 215,250.5C 214.17,225.33 214.337,200.33 215.5,175.5 Z"/></g>
<g><path style="opacity:1" fill="#130a08" d="M 180.5,182.5 C 179.538,189.412 179.205,196.412 179.5,203.5C 178.167,203.5 176.833,203.5 175.5,203.5C 175.5,196.5 175.5,189.5 175.5,182.5C 177.167,182.5 178.833,182.5 180.5,182.5 Z"/></g>
<g><path style="opacity:1" fill="#fcfef2" d="M 220.5,185.5 C 221.5,185.5 222.5,185.5 223.5,185.5C 223.5,206.5 223.5,227.5 223.5,248.5C 221.897,248.688 220.563,248.188 219.5,247C 219.766,226.586 220.099,206.086 220.5,185.5 Z"/></g>
<g><path style="opacity:1" fill="#fdf2af" d="M 10.5,184.5 C 13.5949,189.166 14.9282,194.5 14.5,200.5C 12.565,195.427 11.2317,190.094 10.5,184.5 Z"/></g>
<g><path style="opacity:1" fill="#8b8b8b" d="M 144.5,173.5 C 145.492,181.316 145.826,189.316 145.5,197.5C 138.833,197.5 132.167,197.5 125.5,197.5C 125.5,192.5 125.5,187.5 125.5,182.5C 126.486,186.97 126.819,191.637 126.5,196.5C 132.5,196.5 138.5,196.5 144.5,196.5C 144.5,188.833 144.5,181.167 144.5,173.5 Z"/></g>
<g><path style="opacity:1" fill="#f6a69d" d="M 270.5,173.5 C 271.492,180.982 271.825,188.648 271.5,196.5C 265.167,197.833 258.833,197.833 252.5,196.5C 258.5,196.5 264.5,196.5 270.5,196.5C 270.5,188.833 270.5,181.167 270.5,173.5 Z"/></g>
<g><path style="opacity:1" fill="#92201e" d="M 327.5,190.5 C 326.435,196.113 324.769,201.447 322.5,206.5C 322.338,200.451 324.004,195.117 327.5,190.5 Z"/></g>
<g><path style="opacity:1" fill="#b1534c" d="M 252.5,196.5 C 251.833,196.5 251.5,196.167 251.5,195.5C 251.5,191.5 251.5,187.5 251.5,183.5C 246.167,183.5 240.833,183.5 235.5,183.5C 235.5,202.833 235.5,222.167 235.5,241.5C 240.833,241.5 246.167,241.5 251.5,241.5C 251.181,236.637 251.514,231.97 252.5,227.5C 252.5,227.833 252.5,228.167 252.5,228.5C 252.5,233.167 252.5,237.833 252.5,242.5C 246.5,242.5 240.5,242.5 234.5,242.5C 234.5,222.5 234.5,202.5 234.5,182.5C 240.5,182.5 246.5,182.5 252.5,182.5C 252.5,187.167 252.5,191.833 252.5,196.5 Z"/></g>
<g><path style="opacity:1" fill="#9d2c2b" d="M 180.5,182.5 C 181.167,182.5 181.833,182.5 182.5,182.5C 190.5,182.5 198.5,182.5 206.5,182.5C 198.432,183.18 190.265,183.847 182,184.5C 181.193,190.416 181.359,196.25 182.5,202C 188.825,202.5 195.158,202.666 201.5,202.5C 201.5,202.833 201.5,203.167 201.5,203.5C 194.5,203.5 187.5,203.5 180.5,203.5C 180.167,203.5 179.833,203.5 179.5,203.5C 179.205,196.412 179.538,189.412 180.5,182.5 Z"/></g>
<g><path style="opacity:1" fill="#fec5bc" d="M 180.5,203.5 C 187.5,203.5 194.5,203.5 201.5,203.5C 201.823,209.69 201.49,215.69 200.5,221.5C 193.833,221.5 187.167,221.5 180.5,221.5C 180.167,221.5 179.833,221.5 179.5,221.5C 186.313,220.509 193.313,220.175 200.5,220.5C 200.5,215.167 200.5,209.833 200.5,204.5C 193.646,204.824 186.979,204.491 180.5,203.5 Z"/></g>
<g><path style="opacity:1" fill="#fcf6ae" d="M 14.5,200.5 C 15.2323,201.808 16.0656,203.142 17,204.5C 19.3604,214.94 22.1938,225.273 25.5,235.5C 20.7581,224.207 17.0914,212.541 14.5,200.5 Z"/></g>
<g><path style="opacity:1" fill="#ad3839" d="M 180.5,221.5 C 187.167,221.5 193.833,221.5 200.5,221.5C 194.355,222.49 188.022,222.823 181.5,222.5C 181.19,228.758 181.524,234.924 182.5,241C 190.344,241.171 198.011,241.671 205.5,242.5C 197.5,242.5 189.5,242.5 181.5,242.5C 180.538,235.588 180.205,228.588 180.5,221.5 Z"/></g>
<g><path style="opacity:1" fill="#ab2d29" d="M 322.5,206.5 C 319.546,214.637 317.046,222.97 315,231.5C 314.617,232.056 314.117,232.389 313.5,232.5C 313.337,230.143 313.503,227.81 314,225.5C 316.34,221.479 317.674,217.146 318,212.5C 319.594,210.474 321.094,208.474 322.5,206.5 Z"/></g>
<g><path style="opacity:1" fill="#b72422" d="M 251.5,195.5 C 250.518,192.038 250.185,188.371 250.5,184.5C 245.833,184.5 241.167,184.5 236.5,184.5C 236.5,202.833 236.5,221.167 236.5,239.5C 240.81,240.08 245.143,240.414 249.5,240.5C 249.062,235.464 249.728,230.631 251.5,226C 257.5,225.333 263.5,225.333 269.5,226C 270.056,226.383 270.389,226.883 270.5,227.5C 264.5,227.5 258.5,227.5 252.5,227.5C 251.514,231.97 251.181,236.637 251.5,241.5C 246.167,241.5 240.833,241.5 235.5,241.5C 235.5,222.167 235.5,202.833 235.5,183.5C 240.833,183.5 246.167,183.5 251.5,183.5C 251.5,187.5 251.5,191.5 251.5,195.5 Z"/></g>
<g><path style="opacity:1" fill="#120b09" d="M 179.5,221.5 C 179.5,228.5 179.5,235.5 179.5,242.5C 178.167,242.5 176.833,242.5 175.5,242.5C 175.5,235.5 175.5,228.5 175.5,221.5C 176.833,221.5 178.167,221.5 179.5,221.5 Z"/></g>
<g><path style="opacity:1" fill="#858585" d="M 144.5,249.5 C 144.5,242.5 144.5,235.5 144.5,228.5C 138.5,228.5 132.5,228.5 126.5,228.5C 126.819,233.363 126.486,238.03 125.5,242.5C 125.5,237.5 125.5,232.5 125.5,227.5C 132.167,227.5 138.833,227.5 145.5,227.5C 145.825,235.019 145.492,242.352 144.5,249.5 Z"/></g>
<g><path style="opacity:1" fill="#ffddd6" d="M 215.5,174.5 C 215.833,174.5 216.167,174.5 216.5,174.5C 216.203,200.526 216.536,226.526 217.5,252.5C 216.732,251.737 216.232,250.737 216,249.5C 215.5,224.836 215.333,200.169 215.5,175.5C 215.5,175.167 215.5,174.833 215.5,174.5 Z"/></g>
<g><path style="opacity:1" fill="#641314" d="M 179.5,221.5 C 179.833,221.5 180.167,221.5 180.5,221.5C 180.205,228.588 180.538,235.588 181.5,242.5C 180.833,242.5 180.167,242.5 179.5,242.5C 179.5,235.5 179.5,228.5 179.5,221.5 Z"/></g>
<g><path style="opacity:1" fill="#f4b2a9" d="M 252.5,228.5 C 252.5,228.167 252.5,227.833 252.5,227.5C 258.5,227.5 264.5,227.5 270.5,227.5C 271.167,227.5 271.5,227.833 271.5,228.5C 271.666,236.174 271.5,243.841 271,251.5C 270.617,252.056 270.117,252.389 269.5,252.5C 270.403,244.542 270.736,236.542 270.5,228.5C 264.5,228.5 258.5,228.5 252.5,228.5 Z"/></g>
<g><path style="opacity:1" fill="#fac3c0" d="M 181.5,242.5 C 189.5,242.5 197.5,242.5 205.5,242.5C 205.833,242.5 206.167,242.5 206.5,242.5C 206.5,248.5 206.5,254.5 206.5,260.5C 197.5,260.5 188.5,260.5 179.5,260.5C 179.5,260.167 179.5,259.833 179.5,259.5C 188.167,259.5 196.833,259.5 205.5,259.5C 205.5,254.167 205.5,248.833 205.5,243.5C 197.316,243.826 189.316,243.492 181.5,242.5 Z"/></g>
<g><path style="opacity:1" fill="#fee020" d="M 334.5,247.5 C 335.833,248.167 335.833,248.167 334.5,247.5 Z"/></g>
<g><path style="opacity:1" fill="#fef5c1" d="M 25.5,235.5 C 27.1733,236.343 28.34,237.676 29,239.5C 31.9931,247.983 35.3264,256.316 39,264.5C 40.3086,266.891 41.3086,266.891 42,264.5C 41.9474,267.656 43.1141,270.156 45.5,272C 44.6198,273.356 44.2865,274.856 44.5,276.5C 36.4652,263.779 30.1318,250.112 25.5,235.5 Z"/></g>
<g><path style="opacity:1" fill="#fce0db" d="M 252.5,228.5 C 258.5,228.5 264.5,228.5 270.5,228.5C 270.736,236.542 270.403,244.542 269.5,252.5C 267.765,257.062 264.431,259.562 259.5,260C 247.833,260.667 236.167,260.667 224.5,260C 222.804,258.824 221.138,257.657 219.5,256.5C 218.5,256.167 217.833,255.5 217.5,254.5C 220.829,254.264 223.829,255.097 226.5,257C 237.213,257.189 247.88,257.689 258.5,258.5C 260.729,257.423 263.063,256.756 265.5,256.5C 266.388,253.757 267.555,251.09 269,248.5C 269.667,243.167 269.667,237.833 269,232.5C 265.403,229.616 261.236,228.782 256.5,230C 255.953,230.925 255.287,231.758 254.5,232.5C 253.833,235.977 253.166,239.311 252.5,242.5C 252.5,237.833 252.5,233.167 252.5,228.5 Z"/></g>
<g><path style="opacity:1" fill="#b03030" d="M 271.5,228.5 C 272.215,235.524 272.882,242.69 273.5,250C 270.973,254.056 267.973,257.722 264.5,261C 250.833,261.667 237.167,261.667 223.5,261C 221.249,260.252 219.916,258.752 219.5,256.5C 221.138,257.657 222.804,258.824 224.5,260C 236.167,260.667 247.833,260.667 259.5,260C 264.431,259.562 267.765,257.062 269.5,252.5C 270.117,252.389 270.617,252.056 271,251.5C 271.5,243.841 271.666,236.174 271.5,228.5 Z"/></g>
<g><path style="opacity:1" fill="#ad3231" d="M 206.5,242.5 C 207.491,248.979 207.824,255.646 207.5,262.5C 199.16,262.334 190.827,262.5 182.5,263C 180.584,268.012 181.584,272.346 185.5,276C 186.793,276.49 188.127,276.657 189.5,276.5C 190.961,275.314 192.295,275.314 193.5,276.5C 190.944,277.543 188.777,279.21 187,281.5C 185.67,277.993 183.17,276.327 179.5,276.5C 179.5,271.167 179.5,265.833 179.5,260.5C 188.5,260.5 197.5,260.5 206.5,260.5C 206.5,254.5 206.5,248.5 206.5,242.5 Z"/></g>
<g><path style="opacity:1" fill="#ffd820" d="M 36.5,274.5 C 37.525,274.897 37.6917,275.563 37,276.5C 36.5357,275.906 36.369,275.239 36.5,274.5 Z"/></g>
<g><path style="opacity:1" fill="#b9bbbb" d="M 179.5,277.5 C 179.5,277.833 179.5,278.167 179.5,278.5C 179.5,280.833 179.5,283.167 179.5,285.5C 179.5,286.167 179.5,286.833 179.5,287.5C 178.288,286.77 177.288,285.77 176.5,284.5C 171.678,290.176 168.512,289.176 167,281.5C 165.075,282.88 163.241,284.38 161.5,286C 163.5,286.333 165.5,286.667 167.5,287C 164.446,287.821 161.446,287.655 158.5,286.5C 161.139,284.527 163.473,282.194 165.5,279.5C 163.516,278.294 161.516,278.294 159.5,279.5C 158.707,278.645 159.04,277.811 160.5,277C 163.636,275.959 166.136,276.793 168,279.5C 170.602,275.66 173.436,275.66 176.5,279.5C 177.518,278.807 178.518,278.141 179.5,277.5 Z"/></g>
<g><path style="opacity:1" fill="#191919" d="M 170.5,278.5 C 171.833,278.5 173.167,278.5 174.5,278.5C 174.663,280.857 174.497,283.19 174,285.5C 172.667,286.833 171.333,286.833 170,285.5C 169.297,283.071 169.463,280.738 170.5,278.5 Z"/></g>
<g><path style="opacity:1" fill="#fed31c" d="M 319.5,281.5 C 320.833,282.167 320.833,282.167 319.5,281.5 Z"/></g>
<g><path style="opacity:1" fill="#a02e2e" d="M 179.5,278.5 C 180.833,278.5 182.167,278.5 183.5,278.5C 183.5,281.167 183.5,283.833 183.5,286.5C 182.041,286.567 180.708,286.234 179.5,285.5C 179.5,283.167 179.5,280.833 179.5,278.5 Z"/></g>
<g><path style="opacity:1" fill="#f1a59f" d="M 179.5,276.5 C 183.17,276.327 185.67,277.993 187,281.5C 188.777,279.21 190.944,277.543 193.5,276.5C 193.82,279.952 193.82,283.285 193.5,286.5C 193.167,286.833 192.833,287.167 192.5,287.5C 190.464,285.655 188.13,285.155 185.5,286C 184.142,286.934 182.808,287.768 181.5,288.5C 181.167,288.5 180.833,288.5 180.5,288.5C 180.5,287.833 180.167,287.5 179.5,287.5C 179.5,286.833 179.5,286.167 179.5,285.5C 180.708,286.234 182.041,286.567 183.5,286.5C 183.5,283.833 183.5,281.167 183.5,278.5C 182.167,278.5 180.833,278.5 179.5,278.5C 179.5,278.167 179.5,277.833 179.5,277.5C 179.5,277.167 179.5,276.833 179.5,276.5 Z"/></g>
<g><path style="opacity:1" fill="#fdf5b7" d="M 44.5,276.5 C 51.6158,285.961 57.9492,295.961 63.5,306.5C 63.5,306.833 63.5,307.167 63.5,307.5C 56.4171,297.676 50.0838,287.342 44.5,276.5 Z"/></g>
<g><path style="opacity:1" fill="#ac302a" d="M 299.5,262.5 C 299.649,263.552 299.483,264.552 299,265.5C 293.45,273.183 288.616,281.183 284.5,289.5C 281.362,292.434 278.696,295.768 276.5,299.5C 276.995,297.518 277.495,295.518 278,293.5C 284.977,282.948 292.144,272.615 299.5,262.5 Z"/></g>
<g><path style="opacity:1" fill="#750a12" d="M 179.5,287.5 C 180.167,287.5 180.5,287.833 180.5,288.5C 180.333,321.835 180.5,355.168 181,388.5C 181.671,389.252 182.504,389.586 183.5,389.5C 182.713,391.104 181.38,391.771 179.5,391.5C 179.5,390.167 179.5,388.833 179.5,387.5C 179.5,356.5 179.5,325.5 179.5,294.5C 179.5,292.167 179.5,289.833 179.5,287.5 Z"/></g>
<g><path style="opacity:1" fill="#2e0a04" d="M 284.5,289.5 C 282.603,294.722 280.269,299.722 277.5,304.5C 276.325,304.281 275.325,304.614 274.5,305.5C 272.431,308.236 270.097,310.569 267.5,312.5C 270.747,308.341 273.747,304.008 276.5,299.5C 278.696,295.768 281.362,292.434 284.5,289.5 Z"/></g>
<g><path style="opacity:1" fill="#b43530" d="M 276.5,299.5 C 273.747,304.008 270.747,308.341 267.5,312.5C 267.167,312.5 266.833,312.5 266.5,312.5C 266.343,311.127 266.51,309.793 267,308.5C 269.402,306.032 271.569,303.365 273.5,300.5C 274.417,299.873 275.417,299.539 276.5,299.5 Z"/></g>
<g><path style="opacity:1" fill="#fbd720" d="M 53.5,310.5 C 56.0009,310.511 56.1676,311.178 54,312.5C 53.5357,311.906 53.369,311.239 53.5,310.5 Z"/></g>
<g><path style="opacity:1" fill="#fbee9f" d="M 293.5,312.5 C 292.92,314.749 291.587,316.415 289.5,317.5C 290.08,315.251 291.413,313.585 293.5,312.5 Z"/></g>
<g><path style="opacity:1" fill="#fbf9d6" d="M 63.5,306.5 C 65.9032,306.393 67.7365,307.393 69,309.5C 68.7612,313.184 70.2612,315.851 73.5,317.5C 74.8498,316.05 76.5165,315.383 78.5,315.5C 78.5,316.833 78.5,318.167 78.5,319.5C 77.5,319.5 76.5,319.5 75.5,319.5C 75.5,320.833 75.5,322.167 75.5,323.5C 71.025,318.563 67.025,313.23 63.5,307.5C 63.5,307.167 63.5,306.833 63.5,306.5 Z"/></g>
<g><path style="opacity:1" fill="#b73533" d="M 266.5,312.5 C 264.883,315.784 262.55,318.451 259.5,320.5C 260.393,316.605 262.726,313.938 266.5,312.5 Z"/></g>
<g><path style="opacity:1" fill="#2f0a05" d="M 266.5,312.5 C 266.833,312.5 267.167,312.5 267.5,312.5C 266.249,317.289 264.249,321.622 261.5,325.5C 259.692,325.491 258.025,325.991 256.5,327C 253.381,332.797 249.048,337.297 243.5,340.5C 248.514,333.496 253.847,326.829 259.5,320.5C 262.55,318.451 264.883,315.784 266.5,312.5 Z"/></g>
<g><path style="opacity:1" fill="#fcf8d4" d="M 93.5,344.5 C 92.5041,344.586 91.6708,344.252 91,343.5C 85.9692,336.978 80.8025,330.644 75.5,324.5C 76.8333,324.5 78.1667,324.5 79.5,324.5C 79.8992,319.377 80.8992,319.21 82.5,324C 81.7555,325.585 81.2555,327.085 81,328.5C 83.1724,328.933 85.3391,329.266 87.5,329.5C 84.77,332.59 85.1034,335.424 88.5,338C 90.4884,338.18 92.4884,338.014 94.5,337.5C 94.3259,339.861 93.9926,342.194 93.5,344.5 Z"/></g>
<g><path style="opacity:1" fill="#fef7c2" d="M 284.5,324.5 C 278.856,332.474 272.522,339.807 265.5,346.5C 266.233,342.328 268.566,339.661 272.5,338.5C 272.5,337.167 272.5,335.833 272.5,334.5C 273.675,334.719 274.675,334.386 275.5,333.5C 276.423,331.076 277.923,329.076 280,327.5C 280.483,326.552 280.649,325.552 280.5,324.5C 281.833,324.5 283.167,324.5 284.5,324.5 Z"/></g>
<g><path style="opacity:1" fill="#fbf3a3" d="M 93.5,345.5 C 96.1667,346.167 97.8333,347.833 98.5,350.5C 96.5,349.167 94.8333,347.5 93.5,345.5 Z"/></g>
<g><path style="opacity:1" fill="#03010e" d="M 166.5,319.5 C 167.833,319.5 169.167,319.5 170.5,319.5C 171.675,339.819 172.175,360.153 172,380.5C 169.021,383.605 165.521,384.938 161.5,384.5C 162.689,383.571 164.022,383.238 165.5,383.5C 165.623,362.163 165.956,340.829 166.5,319.5 Z"/></g>
<g><path style="opacity:1" fill="#260102" d="M 179.5,294.5 C 179.5,325.5 179.5,356.5 179.5,387.5C 177.989,379.388 177.322,371.054 177.5,362.5C 177.946,339.665 178.613,316.998 179.5,294.5 Z"/></g>
<g><path style="opacity:1" fill="#be2c33" d="M 180.5,288.5 C 180.833,288.5 181.167,288.5 181.5,288.5C 181.992,321.515 181.992,354.515 181.5,387.5C 182.833,387.5 184.167,387.5 185.5,387.5C 184.833,388.167 184.167,388.833 183.5,389.5C 182.504,389.586 181.671,389.252 181,388.5C 180.5,355.168 180.333,321.835 180.5,288.5 Z"/></g>
<g><path style="opacity:1" fill="#d32922" d="M 198.5,377.5 C 197.08,379.709 195.413,381.709 193.5,383.5C 190.605,384.399 187.938,385.733 185.5,387.5C 184.167,387.5 182.833,387.5 181.5,387.5C 181.992,354.515 181.992,321.515 181.5,288.5C 182.808,287.768 184.142,286.934 185.5,286C 188.13,285.155 190.464,285.655 192.5,287.5C 192.833,287.167 193.167,286.833 193.5,286.5C 193.82,283.285 193.82,279.952 193.5,276.5C 192.295,275.314 190.961,275.314 189.5,276.5C 190.552,274.744 192.219,274.077 194.5,274.5C 194.529,278.105 195.195,281.605 196.5,285C 196.425,288.732 195.092,291.899 192.5,294.5C 192.167,298.667 191.833,302.833 191.5,307C 192.03,331.503 192.697,356.003 193.5,380.5C 195.201,379.446 196.868,378.446 198.5,377.5 Z"/></g>
<g><path style="opacity:1" fill="#ea1c20" d="M 183.5,383.5 C 184.495,371.011 184.829,358.344 184.5,345.5C 185.5,345.5 186.5,345.5 187.5,345.5C 187.5,328.5 187.5,311.5 187.5,294.5C 187.5,292.5 187.5,290.5 187.5,288.5C 188.675,288.281 189.675,288.614 190.5,289.5C 189.508,320.79 189.174,352.123 189.5,383.5C 187.328,384.801 184.995,385.801 182.5,386.5C 182.263,385.209 182.596,384.209 183.5,383.5 Z"/></g>
<g><path style="opacity:1" fill="#e71a2a" d="M 187.5,294.5 C 187.5,311.5 187.5,328.5 187.5,345.5C 186.5,345.5 185.5,345.5 184.5,345.5C 184.829,358.344 184.495,371.011 183.5,383.5C 183.5,353.833 183.5,324.167 183.5,294.5C 184.833,294.5 186.167,294.5 187.5,294.5 Z"/></g>
<g><path style="opacity:1" fill="#fef4ad" d="M 98.5,350.5 C 102.5,352.5 105.5,355.5 107.5,359.5C 104.167,356.833 101.167,353.833 98.5,350.5 Z"/></g>
<g><path style="opacity:1" fill="#420507" d="M 233.5,349.5 C 233.719,350.675 233.386,351.675 232.5,352.5C 229.961,353.931 227.628,355.597 225.5,357.5C 225.369,356.761 225.536,356.094 226,355.5C 228.663,353.666 231.163,351.666 233.5,349.5 Z"/></g>
<g><path style="opacity:1" fill="#ffd620" d="M 265.5,354.5 C 268.001,354.511 268.168,355.178 266,356.5C 265.536,355.906 265.369,355.239 265.5,354.5 Z"/></g>
<g><path style="opacity:1" fill="#fef6c6" d="M 261.5,350.5 C 258.437,355.379 254.437,359.379 249.5,362.5C 250.844,358.648 253.178,355.482 256.5,353C 256.355,352.228 256.022,351.561 255.5,351C 257.473,350.505 259.473,350.338 261.5,350.5 Z"/></g>
<g><path style="opacity:1" fill="#bc2e2c" d="M 259.5,320.5 C 253.847,326.829 248.514,333.496 243.5,340.5C 240.815,344.183 237.482,347.183 233.5,349.5C 231.163,351.666 228.663,353.666 226,355.5C 225.536,356.094 225.369,356.761 225.5,357.5C 224.29,357.932 223.29,358.599 222.5,359.5C 218.895,361.472 215.895,364.139 213.5,367.5C 212.167,368.167 210.833,368.833 209.5,369.5C 211.095,366.069 213.595,363.402 217,361.5C 217.273,359.899 217.773,358.399 218.5,357C 221.833,355.333 225.167,353.667 228.5,352C 237.218,343.777 245.385,334.944 253,325.5C 255.591,324.225 257.758,322.558 259.5,320.5 Z"/></g>
<g><path style="opacity:1" fill="#fdd61d" d="M 98.5,358.5 C 99.8333,359.167 99.8333,359.167 98.5,358.5 Z"/></g>
<g><path style="opacity:1" fill="#f3f4f1" d="M 78.5,315.5 C 101.479,344.512 127.812,370.179 157.5,392.5C 153.479,393.625 149.479,393.625 145.5,392.5C 145.5,390.833 145.5,389.167 145.5,387.5C 141.879,387.292 138.546,386.292 135.5,384.5C 133.221,381.592 130.721,378.925 128,376.5C 128.979,374.721 128.646,373.055 127,371.5C 126.275,372.059 125.442,372.392 124.5,372.5C 122.823,371.813 121.156,371.146 119.5,370.5C 118.962,368.883 118.629,367.216 118.5,365.5C 117.167,365.5 115.833,365.5 114.5,365.5C 115.052,363.669 115.052,362.003 114.5,360.5C 113.707,360.931 112.873,361.265 112,361.5C 110.594,360.586 109.094,359.92 107.5,359.5C 105.5,355.5 102.5,352.5 98.5,350.5C 97.8333,347.833 96.1667,346.167 93.5,345.5C 93.5,345.167 93.5,344.833 93.5,344.5C 93.9926,342.194 94.3259,339.861 94.5,337.5C 92.4884,338.014 90.4884,338.18 88.5,338C 85.1034,335.424 84.77,332.59 87.5,329.5C 85.3391,329.266 83.1724,328.933 81,328.5C 81.2555,327.085 81.7555,325.585 82.5,324C 80.8992,319.21 79.8992,319.377 79.5,324.5C 78.1667,324.5 76.8333,324.5 75.5,324.5C 75.5,324.167 75.5,323.833 75.5,323.5C 75.5,322.167 75.5,320.833 75.5,319.5C 76.5,319.5 77.5,319.5 78.5,319.5C 78.5,318.167 78.5,316.833 78.5,315.5 Z"/></g>
<g><path style="opacity:1" fill="#450605" d="M 222.5,359.5 C 222.489,361.017 221.823,362.184 220.5,363C 218.266,364.75 215.932,366.25 213.5,367.5C 215.895,364.139 218.895,361.472 222.5,359.5 Z"/></g>
<g><path style="opacity:1" fill="#fdf8cb" d="M 107.5,359.5 C 109.094,359.92 110.594,360.586 112,361.5C 112.873,361.265 113.707,360.931 114.5,360.5C 115.052,362.003 115.052,363.669 114.5,365.5C 115.833,365.5 117.167,365.5 118.5,365.5C 118.629,367.216 118.962,368.883 119.5,370.5C 114.895,367.564 110.895,363.898 107.5,359.5 Z"/></g>
<g><path style="opacity:1" fill="#fdf7c5" d="M 119.5,370.5 C 121.156,371.146 122.823,371.813 124.5,372.5C 125.442,372.392 126.275,372.059 127,371.5C 128.646,373.055 128.979,374.721 128,376.5C 130.721,378.925 133.221,381.592 135.5,384.5C 129.325,380.845 123.992,376.178 119.5,370.5 Z"/></g>
<g><path style="opacity:1" fill="#b1312e" d="M 209.5,369.5 C 209.5,370.167 209.5,370.833 209.5,371.5C 206.818,372.955 204.151,374.289 201.5,375.5C 202.31,371.204 204.976,369.204 209.5,369.5 Z"/></g>
<g><path style="opacity:1" fill="#fef6b6" d="M 249.5,362.5 C 241.48,372.18 232.147,380.513 221.5,387.5C 223.132,384.812 225.132,382.312 227.5,380C 228.833,379.333 230.167,378.667 231.5,378C 236.346,372.945 241.346,368.112 246.5,363.5C 247.417,362.873 248.417,362.539 249.5,362.5 Z"/></g>
<g><path style="opacity:1" fill="#2b0803" d="M 209.5,371.5 C 207.615,373.053 206.615,375.053 206.5,377.5C 203.561,377.918 201.228,379.418 199.5,382C 197.414,382.315 195.414,382.815 193.5,383.5C 195.413,381.709 197.08,379.709 198.5,377.5C 199.71,377.068 200.71,376.401 201.5,375.5C 204.151,374.289 206.818,372.955 209.5,371.5 Z"/></g>
<g><path style="opacity:1" fill="#fdf9c9" d="M 135.5,384.5 C 138.546,386.292 141.879,387.292 145.5,387.5C 145.5,389.167 145.5,390.833 145.5,392.5C 141.793,390.312 138.46,387.645 135.5,384.5 Z"/></g>
<g><path style="opacity:1" fill="#450405" d="M 193.5,383.5 C 190.856,386.495 187.523,388.495 183.5,389.5C 184.167,388.833 184.833,388.167 185.5,387.5C 187.938,385.733 190.605,384.399 193.5,383.5 Z"/></g>
<g><path style="opacity:1" fill="#fcf6d8" d="M 214.5,383.5 C 214.948,388.201 217.281,389.535 221.5,387.5C 217.866,390.984 213.866,393.984 209.5,396.5C 210.637,392.421 211.971,388.421 213.5,384.5C 213.5,383.833 213.833,383.5 214.5,383.5 Z"/></g>
<g><path style="opacity:1" fill="#fafad4" d="M 145.5,392.5 C 149.479,393.625 153.479,393.625 157.5,392.5C 156.817,394.176 155.483,394.843 153.5,394.5C 153.5,395.833 153.5,397.167 153.5,398.5C 150.545,396.878 147.878,394.878 145.5,392.5 Z"/></g>
<g><path style="opacity:1" fill="#f5f5f7" d="M 157.5,392.5 C 159.23,393.026 160.564,394.026 161.5,395.5C 160.078,395.75 159.078,396.583 158.5,398C 156.866,398.494 155.199,398.66 153.5,398.5C 153.5,397.167 153.5,395.833 153.5,394.5C 155.483,394.843 156.817,394.176 157.5,392.5 Z"/></g>
<g><path style="opacity:1" fill="#fbf8da" d="M 161.5,395.5 C 163.411,396.075 165.078,397.075 166.5,398.5C 164.747,400.399 162.747,401.065 160.5,400.5C 162.113,401.427 163.779,402.261 165.5,403C 169.037,406.369 172.371,409.869 175.5,413.5C 167.613,409.274 160.28,404.274 153.5,398.5C 155.199,398.66 156.866,398.494 158.5,398C 159.078,396.583 160.078,395.75 161.5,395.5 Z"/></g>
<g><path style="opacity:1" fill="#fdf7b5" d="M 209.5,396.5 C 205.041,400.897 200.041,404.564 194.5,407.5C 197.502,403.501 201.169,400.168 205.5,397.5C 206.689,396.571 208.022,396.238 209.5,396.5 Z"/></g>
<g><path style="opacity:1" fill="#f6f6f3" d="M 213.5,384.5 C 211.971,388.421 210.637,392.421 209.5,396.5C 208.022,396.238 206.689,396.571 205.5,397.5C 201.169,400.168 197.502,403.501 194.5,407.5C 194.158,408.338 193.492,408.672 192.5,408.5C 188.19,408.489 184.857,410.323 182.5,414C 180.115,414.556 177.782,414.39 175.5,413.5C 172.371,409.869 169.037,406.369 165.5,403C 163.779,402.261 162.113,401.427 160.5,400.5C 162.747,401.065 164.747,400.399 166.5,398.5C 171.138,401.489 175.805,404.489 180.5,407.5C 191.812,400.172 202.812,392.506 213.5,384.5 Z"/></g>
<g><path style="opacity:1" fill="#fef9ae" d="M 192.5,408.5 C 188.483,413.029 183.483,415.529 177.5,416C 176.619,415.292 175.953,414.458 175.5,413.5C 177.782,414.39 180.115,414.556 182.5,414C 184.857,410.323 188.19,408.489 192.5,408.5 Z"/></g>
</svg>
