<?xml version="1.0" encoding="UTF-8"?>
<!DOCTYPE svg PUBLIC "-//W3C//DTD SVG 1.1//EN" "http://www.w3.org/Graphics/SVG/1.1/DTD/svg11.dtd">
<svg xmlns="http://www.w3.org/2000/svg" version="1.1" width="350px" height="390px" style="shape-rendering:geometricPrecision; text-rendering:geometricPrecision; image-rendering:optimizeQuality; fill-rule:evenodd; clip-rule:evenodd" xmlns:xlink="http://www.w3.org/1999/xlink">
<g><path style="opacity:1" fill="#ee252a" d="M 172.5,14.5 C 174.288,14.2148 175.955,14.5481 177.5,15.5C 195.354,41.1935 218.687,60.0268 247.5,72C 253.196,73.2059 258.863,74.5392 264.5,76C 282.497,76.4999 300.497,76.6666 318.5,76.5C 319.823,111.499 317.989,145.832 313,179.5C 303.921,230.133 283.588,275.467 252,315.5C 230.472,339.338 205.972,359.504 178.5,376C 176.801,376.958 174.967,377.458 173,377.5C 163.411,373.281 154.244,368.114 145.5,362C 134.667,353.167 123.833,344.333 113,335.5C 106.706,327.538 100.04,319.871 93,312.5C 88.156,304.812 82.8226,297.479 77,290.5C 69.1363,275.887 61.4697,261.22 54,246.5C 48.7984,233.769 44.4651,220.769 41,207.5C 38.6351,192.65 35.8018,177.983 32.5,163.5C 32.7093,162.914 33.0426,162.414 33.5,162C 31.6613,149.304 30.328,136.804 29.5,124.5C 29.5487,108.286 29.5487,91.9529 29.5,75.5C 49.5736,77.2773 69.5736,76.7773 89.5,74C 98.3695,71.599 107.036,68.599 115.5,65C 138.11,52.222 157.11,35.3886 172.5,14.5 Z"/></g>
<g><path style="opacity:1" fill="#fefcfc" d="M 172.5,24.5 C 173.239,24.369 173.906,24.5357 174.5,25C 208.814,70.4026 254.481,89.9026 311.5,83.5C 313.836,129.813 308.336,175.146 295,219.5C 274.86,282.328 236.693,330.828 180.5,365C 177.826,366.588 174.992,367.755 172,368.5C 100.438,326.477 57.1043,264.144 42,181.5C 36.3725,149.08 33.8725,116.413 34.5,83.5C 78.0492,89.0445 116.383,78.0445 149.5,50.5C 150.39,47.4428 152.39,45.6095 155.5,45C 161.731,38.6056 167.397,31.7723 172.5,24.5 Z"/></g>
<g><path style="opacity:1" fill="#01a650" d="M 172.5,43.5 C 188.637,60.4371 207.304,74.2704 228.5,85C 251.336,93.8671 275.003,98.0338 299.5,97.5C 299.923,118.498 298.589,139.331 295.5,160C 214.167,160.667 132.833,160.667 51.5,160C 48.5407,139.32 46.874,118.487 46.5,97.5C 97.5182,99.6369 139.518,81.6369 172.5,43.5 Z"/></g>
<g><path style="opacity:1" fill="#ee262a" d="M 112.5,167.5 C 127.149,165.652 137.483,171.319 143.5,184.5C 139.117,186.929 134.45,187.763 129.5,187C 128.101,183.936 125.768,181.936 122.5,181C 118.003,180.271 113.67,180.771 109.5,182.5C 109.392,184.783 108.559,186.783 107,188.5C 106.333,194.167 106.333,199.833 107,205.5C 108.399,214.622 113.565,217.789 122.5,215C 126.256,211.954 129.422,208.454 132,204.5C 135.5,205.667 139,206.833 142.5,208C 143.022,208.561 143.355,209.228 143.5,210C 142.396,213.704 140.896,217.204 139,220.5C 129.849,228.477 119.349,230.643 107.5,227C 98.5952,223.081 93.0952,216.248 91,206.5C 87.4475,192.16 91.2808,180.326 102.5,171C 105.85,169.514 109.184,168.347 112.5,167.5 Z"/></g>
<g><path style="opacity:1" fill="#ee262a" d="M 170.5,167.5 C 181.068,165.855 189.901,168.855 197,176.5C 198.707,178.909 199.54,181.575 199.5,184.5C 194.167,184.5 188.833,184.5 183.5,184.5C 183.677,182.019 182.677,180.186 180.5,179C 177.298,177.517 173.964,177.183 170.5,178C 168.476,180.64 168.143,183.473 169.5,186.5C 176.271,188.138 182.937,189.971 189.5,192C 202.709,199.252 205.042,209.252 196.5,222C 187.048,228.516 176.715,230.183 165.5,227C 156.632,224.128 151.965,217.961 151.5,208.5C 156.473,207.836 161.473,207.503 166.5,207.5C 166.575,210.407 167.409,213.073 169,215.5C 173.376,217.526 177.876,217.86 182.5,216.5C 186.218,212.903 186.385,209.237 183,205.5C 176.132,203.409 169.298,201.242 162.5,199C 151.393,190.375 150.726,181.042 160.5,171C 163.85,169.514 167.184,168.347 170.5,167.5 Z"/></g>
<g><path style="opacity:1" fill="#ef282b" d="M 211.5,168.5 C 227.167,168.5 242.833,168.5 258.5,168.5C 258.793,172.437 258.46,176.27 257.5,180C 247.839,180.5 238.172,180.666 228.5,180.5C 228.5,183.833 228.5,187.167 228.5,190.5C 237.5,190.5 246.5,190.5 255.5,190.5C 255.5,194.167 255.5,197.833 255.5,201.5C 246.5,201.5 237.5,201.5 228.5,201.5C 228.5,205.833 228.5,210.167 228.5,214.5C 238.5,214.5 248.5,214.5 258.5,214.5C 258.5,218.833 258.5,223.167 258.5,227.5C 242.833,227.5 227.167,227.5 211.5,227.5C 211.5,207.833 211.5,188.167 211.5,168.5 Z"/></g>
<g><path style="opacity:1" fill="#f58084" d="M 274.5,237.5 C 241.002,236.833 207.335,236.5 173.5,236.5C 139.493,236.5 105.827,237.167 72.5,238.5C 71.596,237.791 71.2627,236.791 71.5,235.5C 139.503,235.167 207.503,235.5 275.5,236.5C 275.376,237.107 275.043,237.44 274.5,237.5 Z"/></g>
<g><path style="opacity:1" fill="#ee1d25" d="M 274.5,237.5 C 270.534,246.103 266.534,254.77 262.5,263.5C 257.373,270.457 252.873,277.791 249,285.5C 243.743,292.105 238.41,298.772 233,305.5C 224.084,314.752 214.917,323.586 205.5,332C 195.241,340.095 184.574,347.595 173.5,354.5C 137.002,332.17 107.836,302.837 86,266.5C 81.2057,257.27 76.7057,247.936 72.5,238.5C 105.827,237.167 139.493,236.5 173.5,236.5C 207.335,236.5 241.002,236.833 274.5,237.5 Z"/></g>
</svg>
