<svg id="Layer_1" data-name="Layer 1" xmlns="http://www.w3.org/2000/svg" viewBox="0 0 500 500"><defs><style>.cls-1{fill:#252954;}.cls-2{fill:#b0372b;}.cls-3{fill:#fdfdfd;}.cls-4{fill:#fcc016;}</style></defs><title>Artboard 1</title><path class="cls-1" d="M500,243.11v13.78c-.06.8-.15,1.6-.18,2.41q-.43,11.1-1.8,22.14a241,241,0,0,1-10.61,47q-25.07,74.65-88.06,122a244.69,244.69,0,0,1-90.25,42.47,250.59,250.59,0,0,1-36,6c-6,.57-12.11.77-18.17,1.1h-9.76c-.33,0-.66-.06-1-.07a265.57,265.57,0,0,1-39.87-4.17,238.23,238.23,0,0,1-53.17-16.17Q66.94,442.43,25.64,360.23a241.51,241.51,0,0,1-21.81-66.6,259.35,259.35,0,0,1-3.78-39v-9.18c0-1.62.1-3.24.16-4.86A255.37,255.37,0,0,1,4.89,200.9a240.88,240.88,0,0,1,21.27-62.15Q64.47,63.06,140.54,25.33A247.83,247.83,0,0,1,238.11.41c.52,0,1.15.22,1.56-.36h3.44a96,96,0,0,0,13.78,0H260c.43.56,1,.32,1.58.34a253.21,253.21,0,0,1,37.22,4.52,237.24,237.24,0,0,1,63.05,21.64q91,46.92,125,143.66a238.92,238.92,0,0,1,11.27,49.63C499.12,227.57,499.52,235.34,500,243.11ZM10.39,250c0,131.35,105.91,238.63,237.9,239.51,133.28.9,240-106.19,241.3-237,1.35-133.16-105.7-241.3-238-242.11C117.88,9.66,10.34,117.77,10.39,250Z"/><path class="cls-2" d="M256.89.05a96,96,0,0,1-13.78,0Z"/><path class="cls-3" d="M10.39,250C10.34,117.77,117.88,9.66,251.55,10.47c132.34.81,239.39,109,238,242.11-1.32,130.78-108,237.87-241.3,237C116.3,488.67,10.39,381.39,10.39,250ZM334.45,106.18c-.43-.29-.84-.61-1.28-.87a165,165,0,0,0-61-20.69,167.91,167.91,0,0,0-50.24.9,164.41,164.41,0,0,0-43,13.5,106.14,106.14,0,0,0-13.33,7.16c-.73.21-1.45.47-2.19.62a321.37,321.37,0,0,0-38.65,9.73,1.54,1.54,0,0,0-1.24,1.81c0,7.12,0,14.23,0,21.35a4.21,4.21,0,0,1-.17,1.83,2.56,2.56,0,0,0-.44.36,166.83,166.83,0,0,0,89.25,270.68,83.33,83.33,0,0,0,11.09,2.08,4.93,4.93,0,0,1,1.62.89c7.83,5.22,15.88,10.07,24.07,14.69a1.93,1.93,0,0,0,2.2,0c8.19-4.62,16.24-9.48,24.07-14.69a4.93,4.93,0,0,1,1.62-.89,2.16,2.16,0,0,0,.56.05,174.32,174.32,0,0,0,27.18-6.9c61-21.12,104.78-75.93,111.44-140.06a168.27,168.27,0,0,0-1.67-47.27A165,165,0,0,0,385.08,152a96.51,96.51,0,0,0-8.43-10.49,4.4,4.4,0,0,1-.17-1.84c0-7.17,0-14.34,0-21.52a1.4,1.4,0,0,0-1.16-1.59A306.5,306.5,0,0,0,342.53,108,64.08,64.08,0,0,1,334.45,106.18ZM47.54,227.25c-.25.47-.5.92-.72,1.38-2,4.15-4.11,8.3-6.14,12.46a1.76,1.76,0,0,1-1.42,1.21c-3.32.43-6.63.88-9.93,1.41a49.12,49.12,0,0,0-5,.75c3.32,3.56,6.7,7.26,10.19,10.87a2.54,2.54,0,0,1,.82,2.51c-.55,2.86-1,5.73-1.51,8.61-.36,2.11-.71,4.23-1.1,6.6,4-2.08,7.77-3.8,11.27-6a6.11,6.11,0,0,1,7.35,0c3.56,2.21,7.39,4,11.24,6,0-.41,0-.64-.08-.86-.82-4.85-1.61-9.7-2.51-14.54a2.05,2.05,0,0,1,.7-2.12c3.38-3.24,6.73-6.52,10.07-9.8.32-.31.79-.54.86-1.17-5.06-.74-10.11-1.5-15.17-2.19a2.08,2.08,0,0,1-1.83-1.29c-2-4.18-4.08-8.32-6.14-12.47C48.22,228.13,48.14,227.57,47.54,227.25Zm391.6,45.81c4.75-2.49,9.24-4.81,13.68-7.23a2.39,2.39,0,0,1,2.62,0c2.72,1.51,5.48,2.92,8.23,4.36L469,273c0-.51,0-.84-.09-1.16-.8-4.66-1.59-9.32-2.44-14a2.4,2.4,0,0,1,.8-2.52c1.88-1.69,3.67-3.48,5.46-5.28s3.51-3.62,5.29-5.47a10.77,10.77,0,0,0-1.15-.28c-4.53-.66-9.07-1.37-13.62-1.93a2.62,2.62,0,0,1-2.35-1.66c-2.16-4.53-4.41-9-6.64-13.5-.57.25-.64.76-.84,1.18q-3.15,6.34-6.28,12.72a1.74,1.74,0,0,1-1.45,1.17c-2.51.31-5,.7-7.52,1.06l-8.38,1.24c.67.61,1.1,1,1.5,1.37,3.33,3.23,6.64,6.48,10,9.69a1.67,1.67,0,0,1,.56,1.74C440.9,262.52,440.05,267.64,439.14,273.06ZM408.85,380.38l.3-1.36a8.48,8.48,0,0,0-8.48-10.25c-3.62.13-6.29,2.1-8.63,4.58-4.06,4.31-8,8.71-12.09,13-.67.7-.6,1.05.07,1.67q12.36,11.35,24.64,22.77c.69.64,1,.63,1.67-.06,3.92-4.31,7.91-8.57,11.85-12.87a18.49,18.49,0,0,0,4.32-7,8.78,8.78,0,0,0-2.66-9.75c-2.93-2.67-6.19-2.91-9.7-1.35C409.79,379.92,409.46,380.09,408.85,380.38ZM196.34,447.5l1.22-.3a8.43,8.43,0,0,0,4.69-13.74,13.84,13.84,0,0,0-6.59-4.13c-5.67-1.84-11.37-3.62-17-5.5-1-.33-1.22,0-1.47.81q-5.08,16-10.22,31.89c-.29.91-.12,1.23.76,1.51,5.6,1.76,11.17,3.58,16.77,5.35a20.34,20.34,0,0,0,7.19,1,9,9,0,0,0,8.41-6c1.4-3.94.57-7-2.67-9.92Zm32.08-402c.5-.43.83-.69,1.15-1a8.11,8.11,0,0,0,2.73-8.38,8,8,0,0,0-5.88-6.23,13.74,13.74,0,0,0-6.24-.44c-5.91.87-11.79,1.83-17.7,2.64-1.35.18-1.57.61-1.37,1.88q2.58,16.4,5,32.83c.14.93.5,1,1.33.86,5.37-.86,10.76-1.66,16.14-2.48,3.47-.53,6.86-1.29,9.68-3.57a8.71,8.71,0,0,0,3.15-9.1,8.05,8.05,0,0,0-6.25-6.56ZM291.68,67.1c-.12-.34-.16-.52-.24-.68-2-3.87-3.93-7.74-5.94-11.59-.43-.81-.59-1.16.51-1.57A12,12,0,0,0,293.19,38c-1.44-4.37-4.81-6.74-9.06-7.73-6.56-1.55-13.32-1.87-20-2.87-.74-.11-.6.4-.65.8-.34,2.65-.66,5.3-1,8Q260.84,49,259.15,61.87c-.1.78.09,1.12.9,1.21q4,.45,8,1c.78.11,1-.17,1-.88.28-2.41.64-4.82.95-7.24s.31-2.43,2.79-2.23a2.56,2.56,0,0,1,2.51,1.62c1.42,3.13,3,6.18,4.55,9.25.22.44.28,1,1,1.13Zm93,14c0-10.45-9.22-19.36-20-19.34a18.65,18.65,0,0,0-18.53,18.53c0,10.4,9.3,19.35,20,19.35A18.55,18.55,0,0,0,384.66,81.07Zm-159,354c-12.79,0-21.76,11.33-18.53,23.45,2,7.56,8.31,12.67,16.92,13.73a18.76,18.76,0,0,0,20.8-21.93C243.22,441.33,235.37,435.1,225.68,435.08ZM149.5,409c-.36.1-.44.45-.59.73q-7.91,15-15.84,30c-.31.6-.41.93.33,1.32q12.14,6.33,24.21,12.75c.64.34.9.19,1.2-.4,1-1.92,1.95-3.83,3-5.7.49-.84.3-1.18-.51-1.6-4-2.07-8-4.2-12-6.33-1.26-.67-3.18-1.11-3.57-2.13-.46-1.18,1.15-2.54,1.69-3.9.36-.88.76-.93,1.59-.49,4.28,2.31,8.62,4.51,12.89,6.86,1.11.61,1.53.35,2-.68a46.73,46.73,0,0,1,2.33-4.43c.58-.95.44-1.39-.56-1.9-4.34-2.21-8.62-4.54-13-6.75-.92-.47-1-.89-.51-1.71a14.58,14.58,0,0,0,1.27-2.41c.41-1,.87-1.17,1.87-.62,4.83,2.61,9.71,5.12,14.55,7.72.84.46,1.2.33,1.6-.51.9-1.84,1.85-3.67,2.87-5.44.47-.82.37-1.16-.47-1.6q-11.81-6.17-23.58-12.4Zm285.36-57.88c.07-.49-.32-.58-.58-.75-1.43-.94-2.88-1.87-4.33-2.8s-1.55-1-2.58.6c-2.51,3.9-5.06,7.77-7.51,11.7-.61,1-1.09,1.1-2,.39a13,13,0,0,0-2.28-1.47c-.9-.47-.94-.88-.38-1.73,3-4.59,6-9.24,9-13.83.52-.8.59-1.2-.32-1.73-1.77-1-3.49-2.17-5.17-3.35-.79-.56-1.15-.39-1.64.37q-7.15,11.18-14.39,22.28c-.5.77-.47,1.13.34,1.64q14.18,9.09,28.31,18.26c.67.43,1,.44,1.44-.27q7.31-11.4,14.68-22.77c.43-.66.45-1-.27-1.43-1.76-1.07-3.52-2.15-5.18-3.35-1-.7-1.35-.44-1.92.46-2.94,4.65-6,9.23-8.9,13.88-.63,1-1.1,1-1.94.37a17.3,17.3,0,0,0-2.53-1.63c-1-.49-.86-1-.33-1.75,2.68-4.07,5.3-8.18,7.95-12.28C434.52,351.66,434.69,351.38,434.86,351.13Zm-357,37.7A12.12,12.12,0,0,0,78,390.4c1.49,7.2,5.94,12,12.38,15.15a12,12,0,0,0,9.75.12,19.9,19.9,0,0,0,6.36-4.06c4.73-4.31,9.43-8.67,14.18-13,.71-.64.57-1,0-1.56-1.81-1.91-3.6-3.83-5.32-5.82-.64-.74-1-.65-1.67,0-4.51,4.2-9.07,8.35-13.6,12.53a13.1,13.1,0,0,1-2.76,2,5.6,5.6,0,0,1-6.66-.77c-3.35-2.87-3.59-6.46-.65-9.75.48-.54,1-1,1.54-1.51,4.43-4.08,8.85-8.16,13.31-12.21.62-.57.75-.91.11-1.58-1.85-1.93-3.67-3.89-5.42-5.91-.63-.72-1-.6-1.57,0-.79.83-1.67,1.57-2.52,2.34-3.87,3.56-7.76,7.09-11.61,10.67C80.42,380.21,78,383.85,77.81,388.83Zm314.93,27.63a16.94,16.94,0,0,0-3.69-10.37c-3.84-5.25-7.78-10.42-11.63-15.66-.55-.76-.9-.69-1.56-.18-2,1.59-4.09,3.16-6.21,4.62-.93.65-.84,1.07-.23,1.88,3.76,5,7.45,9.95,11.17,14.93a11.07,11.07,0,0,1,1.52,2.59c1.12,2.78.4,5.26-2.09,7.24s-5.24,2.11-7.66.35a13.76,13.76,0,0,1-2.74-2.91c-3.59-4.84-7.22-9.65-10.79-14.5-.54-.74-.88-.87-1.63-.28-2.07,1.62-4.17,3.21-6.33,4.71-.84.59-.71,1-.19,1.66,3.86,5.12,7.68,10.26,11.51,15.39a21.6,21.6,0,0,0,3.76,3.94c3,2.36,6.29,3.7,10.11,3,6.73-1.16,11.68-5,15.17-10.73A10.69,10.69,0,0,0,392.74,416.46ZM203.37,68.06a2.87,2.87,0,0,0-.27-.5Q190.16,53.76,177.21,40a1.06,1.06,0,0,0-1.36-.26c-2.36.9-4.73,1.8-7.12,2.62A1.52,1.52,0,0,0,167.58,44c-.36,8.64-.79,17.28-1.18,25.92-.19,4-.34,7.89-.52,12,2.83-1,5.43-2.08,8.11-2.93a2.12,2.12,0,0,0,1.78-2.53c-.1-1.33.13-2.68.09-4a1.28,1.28,0,0,1,1-1.43c3.63-1.31,7.26-2.63,10.87-4a1.4,1.4,0,0,1,1.83.5c1,1.21,2.11,2.34,3.19,3.49.31.34.56.8,1.17.57Zm91.88,376.83c.12,11.73,9.91,20.81,21.82,18.57,7-1.31,12.12-5.14,14.7-12,.31-.83.17-1.15-.67-1.4-2.2-.65-4.39-1.33-6.53-2.13-1-.38-1.37-.11-1.78.82a8.92,8.92,0,0,1-8,5.76c-4.22.24-8.09-3.21-9.06-7.88-1.08-5.17,1.37-9.58,6-10.84a9,9,0,0,1,7.38,1.27c.76.47,1.1.36,1.57-.35q2-3,4.19-6c.52-.71.47-1-.28-1.55a17.76,17.76,0,0,0-13-2.69A18.79,18.79,0,0,0,295.25,444.89Zm-217.6-72.2.73-.46c1.61-1,3.18-2.12,4.84-3.05,1-.57,1.19-1,.5-2-2.61-3.94-5.07-8-7.66-11.94-.56-.86-.66-1.33.36-1.84a18.31,18.31,0,0,0,2.91-1.84c.86-.67,1.27-.52,1.84.39,2.87,4.63,5.83,9.19,8.72,13.81.46.74.78.86,1.53.35,1.85-1.26,3.76-2.45,5.68-3.62.63-.39.7-.68.29-1.33Q90.16,349.86,83,338.53c-.38-.61-.66-.74-1.32-.32Q67.39,347.35,53,356.43c-.71.45-.71.77-.28,1.43q2.18,3.28,4.22,6.66c.46.75.79.8,1.53.32,2.91-1.92,5.89-3.73,8.8-5.65.84-.56,1.21-.47,1.74.38,2.55,4.1,5.16,8.16,7.76,12.22C77,372.13,77.12,372.61,77.65,372.69Zm39.41,57.09c.58-.06.73-.58,1-.93,4.93-6.45,9.87-12.9,14.76-19.38.65-.86,1-1,1.94-.3,2.19,1.79,4.48,3.42,6.7,5.17.59.46.9.42,1.35-.18,1.32-1.82,2.68-3.61,4.09-5.35.55-.68.52-1-.19-1.54q-11.72-8.86-23.37-17.81c-.6-.46-.93-.57-1.44.15-1.31,1.82-2.67,3.61-4.09,5.35-.6.73-.39,1.06.27,1.55,2.24,1.64,4.39,3.39,6.64,5,.89.64.89,1,.24,1.87-5,6.51-10,13.07-15,19.58-.57.74-.56,1.08.21,1.64,2.09,1.51,4.12,3.11,6.17,4.67C116.58,429.45,116.82,429.61,117.06,429.78ZM155.52,57.12c-.08-.16-.16-.33-.25-.49-1.2-2.07-2.42-4.12-3.59-6.2-.35-.62-.63-.62-1.21-.29Q137.66,57.61,124.81,65c-.67.39-.7.7-.32,1.33,1.16,1.92,2.3,3.85,3.36,5.83.44.82.81.8,1.53.35,2.33-1.41,4.74-2.69,7-4.13,1-.61,1.41-.58,2,.5,4,7.05,8.14,14,12.16,21.1.58,1,1,1,1.93.47,2.06-1.29,4.16-2.53,6.32-3.66,1-.52,1-.93.46-1.81-4.15-7.09-8.24-14.21-12.4-21.3-.47-.81-.4-1.16.42-1.62,2.47-1.36,4.89-2.8,7.33-4.22C155,57.66,155.38,57.57,155.52,57.12Zm183.83-1.63.87.37c2.55,1.09,5.1,2.15,7.63,3.28.81.36,1.23.36,1.59-.58.78-2.05,1.67-4.06,2.57-6.06.33-.72.25-1-.53-1.38q-13.58-5.74-27.12-11.57c-.85-.36-1.06,0-1.34.63-.83,2-1.66,4.07-2.59,6-.37.81-.27,1.12.56,1.45,2.57,1,5.08,2.19,7.66,3.2,1,.41,1.21.79.75,1.85-3.24,7.43-6.37,14.91-9.6,22.35-.5,1.13-.25,1.52.83,1.92,2,.76,3.95,1.67,5.93,2.52s1.89.8,2.68-1q4.68-11,9.39-22C338.8,56.12,338.76,55.52,339.35,55.49Zm26.4,385.9c-.13-.26-.25-.52-.38-.77-1-1.92-2-3.81-2.91-5.76-.44-.95-.85-.94-1.7-.49-4.32,2.27-8.68,4.43-13,6.71-1,.54-1.44.48-2-.62-3.64-7.25-7.39-14.46-11.06-21.7-.46-.92-.79-1.17-1.77-.62-2.16,1.22-4.39,2.34-6.63,3.41-.87.42-1.08.77-.58,1.69,1.33,2.42,2.54,4.91,3.81,7.38,3.74,7.31,7.53,14.6,11.2,21.95.67,1.36,1.22,1.45,2.4.71s2.45-1.27,3.68-1.91l18-9.22C365.14,442,365.64,441.92,365.75,441.39Zm-115.51,3.75h0c.59,9,1.21,17.92,1.73,26.88.07,1.24.54,1.34,1.54,1.27,4.38-.32,8.76-.6,13.15-.88,3.86-.25,7.71-.51,11.58-.71.88,0,1.12-.33,1-1.2-.2-2.09-.34-4.19-.4-6.29,0-1-.29-1.38-1.41-1.29-4.85.37-9.72.59-14.57,1-1.19.09-1.51-.11-1.58-1.34-.46-8.2-1-16.39-1.53-24.59,0-.83-.25-1-1.08-1-2.57.21-5.14.35-7.72.47-.87,0-1.29.22-1.19,1.24C250,440.85,250.1,443,250.24,445.14ZM138.6,99.41l-.58-.78-5-6.47c-5.14-6.65-10.31-13.29-15.42-20-.67-.89-1.06-.87-1.86-.21-2,1.63-4.06,3.18-6.11,4.74-.55.41-.74.7-.23,1.35q10.47,13.47,20.89,27c.35.46.59.64,1.12.22,2.25-1.78,4.53-3.53,6.8-5.28C138.38,99.85,138.59,99.72,138.6,99.41ZM305.24,34.27c-.63,0-.54.57-.64.92q-4.5,16.28-9,32.57c-.22.8-.08,1.07.72,1.28,2.59.67,5.16,1.4,7.73,2.15.81.24,1.08-.09,1.28-.81q4.46-16.29,9-32.57c.24-.86,0-1.08-.74-1.27-2.59-.68-5.16-1.39-7.74-2.1ZM252.69,45.6h-.51c0-5.59,0-11.18,0-16.77,0-1.19-.41-1.53-1.58-1.46-2.38.15-4.78.21-7.16.17-1.11,0-1.34.32-1.32,1.37.17,9.22.28,18.44.42,27.67,0,2,.15,4,.17,6,0,.72.26.87.93.85,2.63-.08,5.26-.16,7.88-.14,1,0,1.18-.27,1.17-1.21C252.66,56.59,252.69,51.1,252.69,45.6Z"/><path class="cls-1" d="M223.21,414.64a83.33,83.33,0,0,1-11.09-2.08A167,167,0,0,1,91.38,302.13a167,167,0,0,1,31.49-160.25,2.56,2.56,0,0,1,.44-.36c0,.67,0,1.34,0,2q0,54.93,0,109.86a162.62,162.62,0,0,0,1.87,25.42,158.92,158.92,0,0,0,14.13,44.64c10,20.6,23.59,38.61,39.64,54.83A293.85,293.85,0,0,0,223.21,414.64Z"/><path class="cls-1" d="M376.65,141.5A96.51,96.51,0,0,1,385.08,152a165,165,0,0,1,29.22,68.47A168.27,168.27,0,0,1,416,267.73c-6.66,64.13-50.42,118.94-111.44,140.06a174.32,174.32,0,0,1-27.18,6.9,2.16,2.16,0,0,1-.56-.05c8.27-5.62,16.3-11.55,24-17.93,19.1-15.78,36-33.57,49.38-54.52,17.48-27.38,26.78-57.14,26.51-89.82-.23-28.2-.05-56.41-.05-84.62Q376.63,154.63,376.65,141.5Z"/><path class="cls-4" d="M376.65,141.5q0,13.13,0,26.25c0,28.21-.18,56.42.05,84.62.27,32.68-9,62.44-26.51,89.82-13.39,20.95-30.28,38.74-49.38,54.52-7.7,6.38-15.73,12.31-24,17.93a4.93,4.93,0,0,0-1.62.89c-7.83,5.21-15.88,10.07-24.07,14.69a1.93,1.93,0,0,1-2.2,0c-8.19-4.62-16.24-9.47-24.07-14.69a4.93,4.93,0,0,0-1.62-.89A293.85,293.85,0,0,1,179,378.28c-16.05-16.22-29.64-34.23-39.64-54.83a158.92,158.92,0,0,1-14.13-44.64,162.62,162.62,0,0,1-1.87-25.42q0-54.93,0-109.86c0-.67,0-1.34,0-2a4.21,4.21,0,0,0,.17-1.83c0-7.12,0-14.23,0-21.35a1.54,1.54,0,0,1,1.24-1.81,321.37,321.37,0,0,1,38.65-9.73c.74-.15,1.46-.41,2.19-.62,8.79-1.57,17.59-3.05,26.44-4.21q14.92-1.95,29.93-3c7-.49,13.94-.77,20.91-1,7.5-.24,15,0,22.5.29q14.9.65,29.72,2.17c6.56.69,13.09,1.54,19.62,2.45s13.19,2.14,19.78,3.29a64.08,64.08,0,0,0,8.08,1.8,306.5,306.5,0,0,1,32.81,8.57,1.4,1.4,0,0,1,1.16,1.59c0,7.18,0,14.35,0,21.52A4.4,4.4,0,0,0,376.65,141.5ZM372.2,191q0-34.65,0-69.3a1.87,1.87,0,0,0-1.62-2.18c-2-.52-3.93-1.2-5.91-1.74a441,441,0,0,0-72.8-13.19c-13-1.32-26.12-2-39.22-2.21-6.08-.1-12.14.19-18.21.4-10.76.37-21.47,1.27-32.17,2.42q-14.18,1.51-28.22,4a372.85,372.85,0,0,0-44.52,10.26,2.14,2.14,0,0,0-1.8,2.48q.08,65.64,0,131.29a164.24,164.24,0,0,0,.85,17.32,151.12,151.12,0,0,0,11.79,44.58c9,20.69,21.71,38.84,37.09,55.21,20.45,21.75,44.16,39.3,70,54.17a4.3,4.3,0,0,0,5,0c24-13.83,46.19-30,65.69-49.72,16.57-16.77,30.43-35.47,40.22-57A150.32,150.32,0,0,0,372.19,255Q372.22,223,372.2,191Z"/><path class="cls-1" d="M334.45,106.18c-6.59-1.15-13.16-2.35-19.78-3.29s-13.06-1.76-19.62-2.45q-14.82-1.55-29.72-2.17c-7.49-.33-15-.53-22.5-.29-7,.23-14,.51-20.91,1q-15,1-29.93,3c-8.85,1.16-17.65,2.64-26.44,4.21A106.14,106.14,0,0,1,178.88,99a164.41,164.41,0,0,1,43-13.5,167.91,167.91,0,0,1,50.24-.9,165,165,0,0,1,61,20.69C333.61,105.57,334,105.89,334.45,106.18Z"/><path class="cls-2" d="M47.54,227.25c.6.32.68.88.91,1.33,2.06,4.15,4.13,8.29,6.14,12.47a2.08,2.08,0,0,0,1.83,1.29c5.06.69,10.11,1.45,15.17,2.19-.07.63-.54.86-.86,1.17-3.34,3.28-6.69,6.56-10.07,9.8a2.05,2.05,0,0,0-.7,2.12c.9,4.84,1.69,9.69,2.51,14.54,0,.22,0,.45.08.86-3.85-2-7.68-3.77-11.24-6a6.11,6.11,0,0,0-7.35,0c-3.5,2.2-7.31,3.92-11.27,6,.39-2.37.74-4.49,1.1-6.6.49-2.88,1-5.75,1.51-8.61a2.54,2.54,0,0,0-.82-2.51C31,251.72,27.61,248,24.29,244.46a49.12,49.12,0,0,1,5-.75c3.3-.53,6.61-1,9.93-1.41a1.76,1.76,0,0,0,1.42-1.21c2-4.16,4.09-8.31,6.14-12.46C47,228.17,47.29,227.72,47.54,227.25Z"/><path class="cls-2" d="M439.14,273.06c.91-5.42,1.76-10.54,2.67-15.66a1.67,1.67,0,0,0-.56-1.74c-3.34-3.21-6.65-6.46-10-9.69-.4-.4-.83-.76-1.5-1.37l8.38-1.24c2.51-.36,5-.75,7.52-1.06a1.74,1.74,0,0,0,1.45-1.17q3.12-6.37,6.28-12.72c.2-.42.27-.93.84-1.18,2.23,4.5,4.48,9,6.64,13.5a2.62,2.62,0,0,0,2.35,1.66c4.55.56,9.09,1.27,13.62,1.93a10.77,10.77,0,0,1,1.15.28c-1.78,1.85-3.51,3.69-5.29,5.47s-3.58,3.59-5.46,5.28a2.4,2.4,0,0,0-.8,2.52c.85,4.65,1.64,9.31,2.44,14,.05.32.05.65.09,1.16l-5.31-2.78c-2.75-1.44-5.51-2.85-8.23-4.36a2.39,2.39,0,0,0-2.62,0C448.38,268.25,443.89,270.57,439.14,273.06Z"/><path class="cls-1" d="M408.85,380.38c.61-.29.94-.46,1.29-.61,3.51-1.56,6.77-1.32,9.7,1.35a8.78,8.78,0,0,1,2.66,9.75,18.49,18.49,0,0,1-4.32,7c-3.94,4.3-7.93,8.56-11.85,12.87-.63.69-1,.7-1.67.06Q392.38,399.41,380,388.05c-.67-.62-.74-1-.07-1.67,4.06-4.32,8-8.72,12.09-13,2.34-2.48,5-4.45,8.63-4.58A8.48,8.48,0,0,1,409.15,379Zm1.45,6.46a4.92,4.92,0,0,0-3.34,1.75c-1.69,1.75-3.29,3.58-5,5.33-.52.54-.38.81.1,1.24,1.18,1,2.35,2.1,3.46,3.21.55.55.87.47,1.34-.07,1.56-1.74,3.17-3.44,4.74-5.17a5.51,5.51,0,0,0,1.52-2.86A3,3,0,0,0,410.3,386.84Zm-8-5.06a2.92,2.92,0,0,0-4.12-2.61,10.05,10.05,0,0,0-3,2.61c-1.12,1.23-2.23,2.48-3.34,3.72a44.78,44.78,0,0,0,3.75,3.67c.44.47.76.56,1.24,0,1.39-1.58,2.84-3.09,4.23-4.67A4.64,4.64,0,0,0,402.31,381.78Z"/><path class="cls-1" d="M196.34,447.5l1.06.93c3.24,2.9,4.07,6,2.67,9.92a9,9,0,0,1-8.41,6,20.34,20.34,0,0,1-7.19-1c-5.6-1.77-11.17-3.59-16.77-5.35-.88-.28-1-.6-.76-1.51q5.16-15.93,10.22-31.89c.25-.81.5-1.14,1.47-.81,5.66,1.88,11.36,3.66,17,5.5a13.84,13.84,0,0,1,6.59,4.13,8.43,8.43,0,0,1-4.69,13.74Zm-9,8.22c2.07.08,3.33-.7,3.75-2.09a3,3,0,0,0-1.44-3.56,6.94,6.94,0,0,0-1.65-.84c-2.27-.77-4.55-1.46-6.82-2.22-.61-.2-1-.17-1.17.53-.46,1.55-1,3.09-1.46,4.64-.12.37-.27.79.26.95C181.79,454,184.68,455.19,187.36,455.72Zm3.2-13.3c1.94,0,2.88-.76,3.29-2.35.35-1.37-.29-2.57-2-3.38a71.82,71.82,0,0,0-6.89-2.38c-.46-.17-.69,0-.83.44-.49,1.55-1,3.09-1.5,4.63-.1.32-.23.69.24.82C185.55,441,188.09,442.12,190.56,442.42Z"/><path class="cls-1" d="M228.42,45.46l1.76.48a8.05,8.05,0,0,1,6.25,6.56,8.71,8.71,0,0,1-3.15,9.1c-2.82,2.28-6.21,3-9.68,3.57-5.38.82-10.77,1.62-16.14,2.48-.83.13-1.19.07-1.33-.86q-2.46-16.43-5-32.83c-.2-1.27,0-1.7,1.37-1.88,5.91-.81,11.79-1.77,17.7-2.64a13.74,13.74,0,0,1,6.24.44,8,8,0,0,1,5.88,6.23,8.11,8.11,0,0,1-2.73,8.38C229.25,44.77,228.92,45,228.42,45.46Zm-13,12.86c2.68-.46,5.37-.91,8-1.38a4.22,4.22,0,0,0,1.91-.93,2.8,2.8,0,0,0,1-2.81,2.74,2.74,0,0,0-2.09-2.31,5.05,5.05,0,0,0-2.12-.24c-2.55.37-5.1.77-7.66,1.12-.6.08-.85.3-.75.92.28,1.65.55,3.29.78,5C214.69,58.19,214.9,58.41,215.46,58.32ZM219,37.74c-.67.1-1.58.16-2.46.37-1.57.36-3.9-.21-4.55,1.11s.28,3.2.52,4.85c0,.09,0,.19.05.28,0,.4.24.59.66.52,2.62-.44,5.33-.46,7.83-1.47a2.81,2.81,0,0,0,1.54-4.21C221.85,37.91,220.57,37.76,219,37.74Z"/><path class="cls-1" d="M291.68,67.1l-10.87-1.36c-.68-.08-.74-.69-1-1.13-1.54-3.07-3.13-6.12-4.55-9.25a2.56,2.56,0,0,0-2.51-1.62c-2.48-.2-2.47-.22-2.79,2.23s-.67,4.83-.95,7.24c-.08.71-.26,1-1,.88q-4-.56-8-1c-.81-.09-1-.43-.9-1.21q1.71-12.84,3.36-25.69c.34-2.65.66-5.3,1-7.95.05-.4-.09-.91.65-.8,6.65,1,13.41,1.32,20,2.87,4.25,1,7.62,3.36,9.06,7.73A12,12,0,0,1,286,53.26c-1.1.41-.94.76-.51,1.57,2,3.85,4,7.72,5.94,11.59C291.52,66.58,291.56,66.76,291.68,67.1ZM278.09,46.55c2.84.09,4.45-.73,5.16-2.36,1.22-2.78-.25-5.36-3.53-6-2.15-.41-4.35-.57-6.51-.92-.82-.13-.89.34-.95.87-.28,2.22-.5,4.45-.83,6.66-.1.73.14.89.78,1C274.34,46,276.46,46.34,278.09,46.55Z"/><path class="cls-1" d="M384.66,81.07a18.55,18.55,0,0,1-18.48,18.54c-10.73,0-20-9-20-19.35a18.65,18.65,0,0,1,18.53-18.53C375.44,61.71,384.64,70.62,384.66,81.07ZM366,71.12c-5.12-.14-9.7,4.44-9.9,9.91A9.09,9.09,0,0,0,365,90.27c5.05.13,9.73-4.63,9.84-10A9.06,9.06,0,0,0,366,71.12Z"/><path class="cls-1" d="M225.68,435.08c9.69,0,17.54,6.25,19.19,15.25a18.76,18.76,0,0,1-20.8,21.93c-8.61-1.06-14.91-6.17-16.92-13.73C203.92,446.41,212.89,435.06,225.68,435.08Zm-9,18.79a9.31,9.31,0,0,0,9.11,9.52c5.07.08,9.26-4.45,9.19-9.93a9.26,9.26,0,0,0-9.19-9.43C220.75,444,216.71,448.38,216.72,453.87Z"/><path class="cls-1" d="M149.5,409l.8.4q11.79,6.21,23.58,12.4c.84.44.94.78.47,1.6-1,1.77-2,3.6-2.87,5.44-.4.84-.76,1-1.6.51-4.84-2.6-9.72-5.11-14.55-7.72-1-.55-1.46-.39-1.87.62a14.58,14.58,0,0,1-1.27,2.41c-.53.82-.41,1.24.51,1.71,4.33,2.21,8.61,4.54,13,6.75,1,.51,1.14.95.56,1.9a46.73,46.73,0,0,0-2.33,4.43c-.47,1-.89,1.29-2,.68-4.27-2.35-8.61-4.55-12.89-6.86-.83-.44-1.23-.39-1.59.49-.54,1.36-2.15,2.72-1.69,3.9.39,1,2.31,1.46,3.57,2.13,4,2.13,8,4.26,12,6.33.81.42,1,.76.51,1.6-1.07,1.87-2,3.78-3,5.7-.3.59-.56.74-1.2.4q-12.09-6.42-24.21-12.75c-.74-.39-.64-.72-.33-1.32q7.94-15,15.84-30C149.06,409.46,149.14,409.11,149.5,409Z"/><path class="cls-1" d="M434.86,351.13c-.17.25-.34.53-.52.81-2.65,4.1-5.27,8.21-7.95,12.28-.53.8-.62,1.26.33,1.75a17.3,17.3,0,0,1,2.53,1.63c.84.64,1.31.65,1.94-.37,2.92-4.65,6-9.23,8.9-13.88.57-.9,1-1.16,1.92-.46,1.66,1.2,3.42,2.28,5.18,3.35.72.43.7.77.27,1.43Q440.1,369,432.78,380.44c-.46.71-.77.7-1.44.27q-14.13-9.16-28.31-18.26c-.81-.51-.84-.87-.34-1.64q7.23-11.12,14.39-22.28c.49-.76.85-.93,1.64-.37,1.68,1.18,3.4,2.31,5.17,3.35.91.53.84.93.32,1.73-3,4.59-5.95,9.24-9,13.83-.56.85-.52,1.26.38,1.73a13,13,0,0,1,2.28,1.47c.88.71,1.36.59,2-.39,2.45-3.93,5-7.8,7.51-11.7,1-1.6,1-1.6,2.58-.6s2.9,1.86,4.33,2.8C434.54,350.55,434.93,350.64,434.86,351.13Z"/><path class="cls-1" d="M77.81,388.83c.14-5,2.61-8.62,6-11.77,3.85-3.58,7.74-7.11,11.61-10.67.85-.77,1.73-1.51,2.52-2.34.58-.59.94-.71,1.57,0,1.75,2,3.57,4,5.42,5.91.64.67.51,1-.11,1.58-4.46,4.05-8.88,8.13-13.31,12.21-.53.49-1.06,1-1.54,1.51-2.94,3.29-2.7,6.88.65,9.75a5.6,5.6,0,0,0,6.66.77,13.1,13.1,0,0,0,2.76-2c4.53-4.18,9.09-8.33,13.6-12.53.66-.61,1-.7,1.67,0,1.72,2,3.51,3.91,5.32,5.82.57.59.71.92,0,1.56-4.75,4.29-9.45,8.65-14.18,13a19.9,19.9,0,0,1-6.36,4.06,12,12,0,0,1-9.75-.12C83.9,402.44,79.45,397.6,78,390.4A12.12,12.12,0,0,1,77.81,388.83Z"/><path class="cls-1" d="M392.74,416.46a10.69,10.69,0,0,1-1.51,5.72c-3.49,5.76-8.44,9.57-15.17,10.73-3.82.66-7.15-.68-10.11-3a21.6,21.6,0,0,1-3.76-3.94c-3.83-5.13-7.65-10.27-11.51-15.39-.52-.7-.65-1.07.19-1.66,2.16-1.5,4.26-3.09,6.33-4.71.75-.59,1.09-.46,1.63.28,3.57,4.85,7.2,9.66,10.79,14.5a13.76,13.76,0,0,0,2.74,2.91c2.42,1.76,5.17,1.63,7.66-.35s3.21-4.46,2.09-7.24a11.07,11.07,0,0,0-1.52-2.59c-3.72-5-7.41-10-11.17-14.93-.61-.81-.7-1.23.23-1.88,2.12-1.46,4.17-3,6.21-4.62.66-.51,1-.58,1.56.18,3.85,5.24,7.79,10.41,11.63,15.66A16.94,16.94,0,0,1,392.74,416.46Z"/><path class="cls-1" d="M203.37,68.06,194,71.53c-.61.23-.86-.23-1.17-.57-1.08-1.15-2.18-2.28-3.19-3.49a1.4,1.4,0,0,0-1.83-.5c-3.61,1.39-7.24,2.71-10.87,4a1.28,1.28,0,0,0-1,1.43c0,1.33-.19,2.68-.09,4A2.12,2.12,0,0,1,174,79c-2.68.85-5.28,1.9-8.11,2.93.18-4.12.33-8.06.52-12,.39-8.64.82-17.28,1.18-25.92a1.52,1.52,0,0,1,1.15-1.65c2.39-.82,4.76-1.72,7.12-2.62a1.06,1.06,0,0,1,1.36.26q12.93,13.83,25.89,27.61A2.87,2.87,0,0,1,203.37,68.06ZM176.51,52.59l-.56.08c0,3.18,0,6.36,0,9.55,0,.73.26.77.86.54,1.92-.74,3.84-1.44,5.77-2.13.66-.24.7-.48.23-1C180.7,57.31,178.61,54.94,176.51,52.59Z"/><path class="cls-1" d="M295.25,444.89a18.79,18.79,0,0,1,16.28-18.42,17.76,17.76,0,0,1,13,2.69c.75.5.8.84.28,1.55q-2.16,3-4.19,6c-.47.71-.81.82-1.57.35a9,9,0,0,0-7.38-1.27c-4.6,1.26-7.05,5.67-6,10.84,1,4.67,4.84,8.12,9.06,7.88a8.92,8.92,0,0,0,8-5.76c.41-.93.76-1.2,1.78-.82,2.14.8,4.33,1.48,6.53,2.13.84.25,1,.57.67,1.4-2.58,6.86-7.69,10.69-14.7,12C305.16,465.7,295.37,456.62,295.25,444.89Z"/><path class="cls-1" d="M77.65,372.69c-.53-.08-.64-.56-.85-.9-2.6-4.06-5.21-8.12-7.76-12.22-.53-.85-.9-.94-1.74-.38-2.91,1.92-5.89,3.73-8.8,5.65-.74.48-1.07.43-1.53-.32q-2-3.37-4.22-6.66c-.43-.66-.43-1,.28-1.43q14.36-9.07,28.65-18.22c.66-.42.94-.29,1.32.32q7.17,11.33,14.39,22.61c.41.65.34.94-.29,1.33-1.92,1.17-3.83,2.36-5.68,3.62-.75.51-1.07.39-1.53-.35-2.89-4.62-5.85-9.18-8.72-13.81-.57-.91-1-1.06-1.84-.39a18.31,18.31,0,0,1-2.91,1.84c-1,.51-.92,1-.36,1.84,2.59,4,5,8,7.66,11.94.69,1,.51,1.45-.5,2-1.66.93-3.23,2-4.84,3.05Z"/><path class="cls-1" d="M117.06,429.78c-.24-.17-.48-.33-.7-.51-2-1.56-4.08-3.16-6.17-4.67-.77-.56-.78-.9-.21-1.64,5-6.51,10-13.07,15-19.58.65-.85.65-1.23-.24-1.87-2.25-1.61-4.4-3.36-6.64-5-.66-.49-.87-.82-.27-1.55,1.42-1.74,2.78-3.53,4.09-5.35.51-.72.84-.61,1.44-.15q11.67,8.94,23.37,17.81c.71.53.74.86.19,1.54-1.41,1.74-2.77,3.53-4.09,5.35-.45.6-.76.64-1.35.18-2.22-1.75-4.51-3.38-6.7-5.17-.9-.73-1.29-.56-1.94.3-4.89,6.48-9.83,12.93-14.76,19.38C117.79,429.2,117.64,429.72,117.06,429.78Z"/><path class="cls-1" d="M155.52,57.12c-.14.45-.55.54-.86.72-2.44,1.42-4.86,2.86-7.33,4.22-.82.46-.89.81-.42,1.62,4.16,7.09,8.25,14.21,12.4,21.3.52.88.54,1.29-.46,1.81-2.16,1.13-4.26,2.37-6.32,3.66-.91.56-1.35.55-1.93-.47-4-7.06-8.15-14-12.16-21.1-.61-1.08-1-1.11-2-.5-2.3,1.44-4.71,2.72-7,4.13-.72.45-1.09.47-1.53-.35-1.06-2-2.2-3.91-3.36-5.83-.38-.63-.35-.94.32-1.33q12.85-7.39,25.66-14.86c.58-.33.86-.33,1.21.29,1.17,2.08,2.39,4.13,3.59,6.2C155.36,56.79,155.44,57,155.52,57.12Z"/><path class="cls-1" d="M339.35,55.49c-.59,0-.55.63-.72,1q-4.71,11-9.39,22c-.79,1.84-.79,1.85-2.68,1s-3.93-1.76-5.93-2.52c-1.08-.4-1.33-.79-.83-1.92,3.23-7.44,6.36-14.92,9.6-22.35.46-1.06.27-1.44-.75-1.85-2.58-1-5.09-2.17-7.66-3.2-.83-.33-.93-.64-.56-1.45.93-2,1.76-4,2.59-6,.28-.67.49-1,1.34-.63q13.54,5.84,27.12,11.57c.78.33.86.66.53,1.38-.9,2-1.79,4-2.57,6.06-.36.94-.78.94-1.59.58-2.53-1.13-5.08-2.19-7.63-3.28Z"/><path class="cls-1" d="M365.75,441.39c-.11.53-.61.58-.95.76l-18,9.22c-1.23.64-2.52,1.18-3.68,1.91s-1.73.65-2.4-.71c-3.67-7.35-7.46-14.64-11.2-21.95-1.27-2.47-2.48-5-3.81-7.38-.5-.92-.29-1.27.58-1.69,2.24-1.07,4.47-2.19,6.63-3.41,1-.55,1.31-.3,1.77.62,3.67,7.24,7.42,14.45,11.06,21.7.56,1.1,1,1.16,2,.62,4.31-2.28,8.67-4.44,13-6.71.85-.45,1.26-.46,1.7.49.9,1.95,1.93,3.84,2.91,5.76C365.5,440.87,365.62,441.13,365.75,441.39Z"/><path class="cls-1" d="M250.24,445.14c-.14-2.14-.24-4.29-.46-6.43-.1-1,.32-1.21,1.19-1.24,2.58-.12,5.15-.26,7.72-.47.83-.07,1,.14,1.08,1,.49,8.2,1.07,16.39,1.53,24.59.07,1.23.39,1.43,1.58,1.34,4.85-.39,9.72-.61,14.57-1,1.12-.09,1.38.27,1.41,1.29.06,2.1.2,4.2.4,6.29.08.87-.16,1.16-1,1.2-3.87.2-7.72.46-11.58.71-4.39.28-8.77.56-13.15.88-1,.07-1.47,0-1.54-1.27-.52-9-1.14-17.92-1.73-26.88Z"/><path class="cls-1" d="M138.6,99.41c0,.31-.22.44-.4.58-2.27,1.75-4.55,3.5-6.8,5.28-.53.42-.77.24-1.12-.22q-10.43-13.5-20.89-27c-.51-.65-.32-.94.23-1.35,2-1.56,4.12-3.11,6.11-4.74.8-.66,1.19-.68,1.86.21,5.11,6.68,10.28,13.32,15.42,20l5,6.47Z"/><path class="cls-1" d="M305.24,34.27l.58.17c2.58.71,5.15,1.42,7.74,2.1.72.19,1,.41.74,1.27q-4.53,16.27-9,32.57c-.2.72-.47,1.05-1.28.81-2.57-.75-5.14-1.48-7.73-2.15-.8-.21-.94-.48-.72-1.28q4.53-16.28,9-32.57C304.7,34.84,304.61,34.25,305.24,34.27Z"/><path class="cls-1" d="M252.69,45.6c0,5.5,0,11,0,16.49,0,.94-.21,1.21-1.17,1.21-2.62,0-5.25.06-7.88.14-.67,0-.93-.13-.93-.85,0-2-.14-4-.17-6-.14-9.23-.25-18.45-.42-27.67,0-1.05.21-1.39,1.32-1.37,2.38,0,4.78,0,7.16-.17,1.17-.07,1.59.27,1.58,1.46,0,5.59,0,11.18,0,16.77Z"/><path class="cls-1" d="M372.2,191q0,32,0,64a150.32,150.32,0,0,1-13.81,62.8c-9.79,21.55-23.65,40.25-40.22,57-19.5,19.73-41.7,35.89-65.69,49.72a4.3,4.3,0,0,1-5,0c-25.81-14.87-49.52-32.42-70-54.17-15.38-16.37-28.13-34.52-37.09-55.21a151.12,151.12,0,0,1-11.79-44.58,164.24,164.24,0,0,1-.85-17.32q0-65.65,0-131.29a2.14,2.14,0,0,1,1.8-2.48,372.85,372.85,0,0,1,44.52-10.26q14-2.48,28.22-4c10.7-1.15,21.41-2,32.17-2.42,6.07-.21,12.13-.5,18.21-.4,13.1.2,26.18.89,39.22,2.21a441,441,0,0,1,72.8,13.19c2,.54,3.93,1.22,5.91,1.74a1.87,1.87,0,0,1,1.62,2.18Q372.16,156.35,372.2,191ZM314.43,362.56c.55-.15.84-.62,1.19-1a188.59,188.59,0,0,0,24.71-32.25A112.26,112.26,0,0,0,348,314.89c.24-.47.52-.92.73-1.39a139.45,139.45,0,0,0,12.79-58.75q-.09-59.33,0-118.65c0-3.36,0-3.4-3.22-4.35-20.63-6.08-41.71-9.82-63-12.34-10.88-1.29-21.79-2.08-32.73-2.54a355.06,355.06,0,0,0-44.84,1.24,415.4,415.4,0,0,0-42.15,5.68,320.19,320.19,0,0,0-35.37,8.44,1.86,1.86,0,0,0-1.59,2.16q.06,60.84,0,121.66a137.18,137.18,0,0,0,.89,15.16,134.38,134.38,0,0,0,5.57,26,118.44,118.44,0,0,0,7,17.67,76.17,76.17,0,0,0,4.89,9.72,179.91,179.91,0,0,0,23.47,32.63,34.54,34.54,0,0,0,5.16,5.31,2,2,0,0,0,.27.5A215.31,215.31,0,0,0,206.1,381.7a6.92,6.92,0,0,0,.6.61q8.07,6.62,16.63,12.62c5.31,3.71,10.67,7.35,16.3,10.58,3.14,2.09,6.46,3.88,9.71,5.78a1.14,1.14,0,0,0,1.31,0c3.25-1.91,6.58-3.69,9.71-5.78.26-.13.53-.23.77-.38,6.18-3.79,12.23-7.77,18.1-12,5-3.63,10-7.29,14.67-11.4a211.88,211.88,0,0,0,18.86-17.21A6.71,6.71,0,0,0,314.43,362.56Z"/><path class="cls-3" d="M410.3,386.84a3,3,0,0,1,2.83,3.43,5.51,5.51,0,0,1-1.52,2.86c-1.57,1.73-3.18,3.43-4.74,5.17-.47.54-.79.62-1.34.07-1.11-1.11-2.28-2.17-3.46-3.21-.48-.43-.62-.7-.1-1.24,1.7-1.75,3.3-3.58,5-5.33A4.92,4.92,0,0,1,410.3,386.84Z"/><path class="cls-3" d="M402.31,381.78a4.64,4.64,0,0,1-1.25,2.73c-1.39,1.58-2.84,3.09-4.23,4.67-.48.55-.8.46-1.24,0a44.78,44.78,0,0,1-3.75-3.67c1.11-1.24,2.22-2.49,3.34-3.72a10.05,10.05,0,0,1,3-2.61A2.92,2.92,0,0,1,402.31,381.78Z"/><path class="cls-3" d="M187.36,455.72c-2.68-.53-5.57-1.7-8.53-2.59-.53-.16-.38-.58-.26-.95.49-1.55,1-3.09,1.46-4.64.21-.7.56-.73,1.17-.53,2.27.76,4.55,1.45,6.82,2.22a6.94,6.94,0,0,1,1.65.84,3,3,0,0,1,1.44,3.56C190.69,455,189.43,455.8,187.36,455.72Z"/><path class="cls-3" d="M190.56,442.42c-2.47-.3-5-1.46-7.66-2.22-.47-.13-.34-.5-.24-.82.5-1.54,1-3.08,1.5-4.63.14-.47.37-.61.83-.44a71.82,71.82,0,0,1,6.89,2.38c1.68.81,2.32,2,2,3.38C193.44,441.66,192.5,442.4,190.56,442.42Z"/><path class="cls-3" d="M215.46,58.32c-.56.09-.77-.13-.85-.68-.23-1.66-.5-3.3-.78-5-.1-.62.15-.84.75-.92,2.56-.35,5.11-.75,7.66-1.12a5.05,5.05,0,0,1,2.12.24,2.74,2.74,0,0,1,2.09,2.31,2.8,2.8,0,0,1-1,2.81,4.22,4.22,0,0,1-1.91.93C220.83,57.41,218.14,57.86,215.46,58.32Z"/><path class="cls-3" d="M219,37.74c1.55,0,2.83.17,3.59,1.45a2.81,2.81,0,0,1-1.54,4.21c-2.5,1-5.21,1-7.83,1.47-.42.07-.62-.12-.66-.52,0-.09,0-.19-.05-.28-.24-1.65-1.13-3.62-.52-4.85s3-.75,4.55-1.11C217.44,37.9,218.35,37.84,219,37.74Z"/><path class="cls-3" d="M278.09,46.55c-1.63-.21-3.75-.51-5.88-.76-.64-.07-.88-.23-.78-1,.33-2.21.55-4.44.83-6.66.06-.53.13-1,.95-.87,2.16.35,4.36.51,6.51.92,3.28.61,4.75,3.19,3.53,6C282.54,45.82,280.93,46.64,278.09,46.55Z"/><path class="cls-3" d="M366,71.12a9.06,9.06,0,0,1,8.77,9.14c-.11,5.38-4.79,10.14-9.84,10A9.09,9.09,0,0,1,356.12,81C356.32,75.56,360.9,71,366,71.12Z"/><path class="cls-3" d="M216.72,453.87c0-5.49,4-9.85,9.11-9.84a9.26,9.26,0,0,1,9.19,9.43c.07,5.48-4.12,10-9.19,9.93A9.31,9.31,0,0,1,216.72,453.87Z"/><path class="cls-3" d="M176.51,52.59c2.1,2.35,4.19,4.72,6.3,7,.47.51.43.75-.23,1-1.93.69-3.85,1.39-5.77,2.13-.6.23-.87.19-.86-.54,0-3.19,0-6.37,0-9.55Z"/><path class="cls-3" d="M152.05,314.89a118.44,118.44,0,0,1-7-17.67,134.38,134.38,0,0,1-5.57-26,137.18,137.18,0,0,1-.89-15.16q0-60.83,0-121.66a1.86,1.86,0,0,1,1.59-2.16,320.19,320.19,0,0,1,35.37-8.44,415.4,415.4,0,0,1,42.15-5.68,355.06,355.06,0,0,1,44.84-1.24c10.94.46,21.85,1.25,32.73,2.54,21.32,2.52,42.4,6.26,63,12.34,3.23.95,3.22,1,3.22,4.35q0,59.33,0,118.65a139.45,139.45,0,0,1-12.79,58.75c-.21.47-.49.92-.73,1.39,0-.58-.06-1.15-.06-1.72q0-47.24,0-94.46c0-.55.21-1.15-.21-1.65-.19-.22-.35-.46-.56-.66a279.27,279.27,0,0,0-28-24.81c-4.12-3.14-8.41-6-13.44-7.51a107.5,107.5,0,0,0-11.88-3.22,99.64,99.64,0,0,1-28.38-10,9,9,0,0,1-4.55-5A134.91,134.91,0,0,1,256,147.69c-1.05-4.7-1.23-9.57-1.69-14.37-.11-1.12-.1-2.3-1.16-3.1a4.19,4.19,0,0,0-6.15,1.05,10.62,10.62,0,0,1-1,1.25c-.74.81-1.42.75-2.15-.09-1.81-2.08-2.47-2.16-4.81-.62-.76.49-1.27.52-1.3-.54s-.47-2.1-1.71-2.31-1.5.92-1.93,1.74c-.09.17-.15.35-.23.52-2.42,5.41-4.9,10.79-7.53,16.1s-6.44,9.53-12.47,11.25a9.25,9.25,0,0,0-5.41,4.26,11.39,11.39,0,0,1-4.93,4.45,32.11,32.11,0,0,0-5.86,4.07c-6.12,4.89-12.4,9.58-18.21,14.86a28.77,28.77,0,0,1-7.2,4.93,28.1,28.1,0,0,0-7.83,5.69c-1.36,1.33-3.09,2.3-4.13,3.94a103.87,103.87,0,0,0-8.1,16.42c0,.52-.09,1-.09,1.56v94.43C152.11,313.75,152.07,314.32,152.05,314.89Z"/><path class="cls-2" d="M239.63,405.51c-5.63-3.23-11-6.87-16.3-10.58q-8.57-6-16.63-12.62a6.92,6.92,0,0,1-.6-.61c0-.67.05-1.33.05-2V223.17c0-2,0-3.92,0-5.88l21.51-.06c4,0,8,0,12,.06,0,.53,0,1.06,0,1.58V403.65C239.68,404.27,239.65,404.89,239.63,405.51Z"/><path class="cls-2" d="M293.9,381.7c-4.65,4.11-9.65,7.77-14.67,11.4-5.87,4.26-11.92,8.24-18.1,12-.24.15-.51.25-.77.38,0-.57,0-1.15,0-1.72q0-22.87,0-45.76V217.29c4.15,0,8.31-.06,12.47-.06l21.09.06c0,.34,0,.67,0,1v162C293.85,380.74,293.88,381.22,293.9,381.7Z"/><path class="cls-2" d="M152.05,314.89c0-.57.06-1.14.06-1.71V218.75c0-.52.06-1,.09-1.56l18,0,15.45.06c0,.62,0,1.24,0,1.86v141.4c0,.67-.05,1.34-.08,2a34.54,34.54,0,0,1-5.16-5.31,179.91,179.91,0,0,1-23.47-32.63A76.17,76.17,0,0,1,152.05,314.89Z"/><path class="cls-2" d="M347.67,217.06c.42.5.21,1.1.21,1.65q0,47.23,0,94.46c0,.57,0,1.14.06,1.72a112.26,112.26,0,0,1-7.62,14.43,188.59,188.59,0,0,1-24.71,32.25c-.35.37-.64.84-1.19,1,0-.62-.08-1.24-.08-1.86V300.33q0-41.52,0-83c.57,0,1.14-.06,1.71-.06h29.79A4.06,4.06,0,0,0,347.67,217.06Z"/><path class="cls-3" d="M260.31,217.29V358q0,22.88,0,45.76c0,.57,0,1.15,0,1.72-3.13,2.09-6.46,3.87-9.71,5.78a1.14,1.14,0,0,1-1.31,0c-3.25-1.9-6.57-3.69-9.71-5.78,0-.62.05-1.24.05-1.86V218.87c0-.52,0-1.05,0-1.58Z"/><path class="cls-3" d="M314.34,217.29q0,41.52,0,83V360.7c0,.62,0,1.24.08,1.86a6.71,6.71,0,0,1-1.67,1.93A211.88,211.88,0,0,1,293.9,381.7c0-.48,0-1,0-1.43v-162c0-.33,0-.66,0-1Z"/><path class="cls-3" d="M185.57,362.55c0-.66.08-1.33.08-2V219.15c0-.62,0-1.24,0-1.86h20.47c0,2,0,3.92,0,5.88V379.7c0,.67,0,1.33-.05,2a215.31,215.31,0,0,1-20.26-18.65A2,2,0,0,1,185.57,362.55Z"/><path class="cls-1" d="M206.14,217.29H185.67l-15.45-.06-18,0a103.87,103.87,0,0,1,8.1-16.42c1-1.64,2.77-2.61,4.13-3.94a28.1,28.1,0,0,1,7.83-5.69,28.77,28.77,0,0,0,7.2-4.93c5.81-5.28,12.09-10,18.21-14.86a32.11,32.11,0,0,1,5.86-4.07,11.39,11.39,0,0,0,4.93-4.45,9.25,9.25,0,0,1,5.41-4.26c6-1.72,9.79-5.84,12.47-11.25s5.11-10.69,7.53-16.1c.08-.17.14-.35.23-.52.43-.82.65-2,1.93-1.74s1.66,1.13,1.71,2.31.54,1,1.3.54c2.34-1.54,3-1.46,4.81.62.73.84,1.41.9,2.15.09a10.62,10.62,0,0,0,1-1.25,4.19,4.19,0,0,1,6.15-1.05c1.06.8,1,2,1.16,3.1.46,4.8.64,9.67,1.69,14.37a134.91,134.91,0,0,0,4.91,18.08,9,9,0,0,0,4.55,5,99.64,99.64,0,0,0,28.38,10,107.5,107.5,0,0,1,11.88,3.22c5,1.53,9.32,4.37,13.44,7.51a279.27,279.27,0,0,1,28,24.81c.21.2.37.44.56.66a4.06,4.06,0,0,1-1.83.17H316.05c-.57,0-1.14,0-1.71.06H293.87l-21.09-.06c-4.16,0-8.32,0-12.47.06H239.69c-4,0-8-.06-12-.06Z"/></svg>