<?xml version="1.0" encoding="utf-8"?>
<!-- Generator: Adobe Illustrator 23.0.1, SVG Export Plug-In . SVG Version: 6.00 Build 0)  -->
<svg version="1.1" id="Layer_1" xmlns="http://www.w3.org/2000/svg" xmlns:xlink="http://www.w3.org/1999/xlink" x="0px" y="0px"
	 viewBox="0 0 600 600" style="enable-background:new 0 0 600 600;" xml:space="preserve">
<style type="text/css">
	.st0{fill:#3E4095;}
	.st1{fill:#FFFFFF;}
	.st2{clip-path:url(#SVGID_2_);}
	.st3{fill:#FFD032;}
</style>
<g>
	<path class="st0" d="M300,21.2C140.5,21.2,11.2,150.5,11.2,310S140.5,598.8,300,598.8S588.8,469.5,588.8,310S459.5,21.2,300,21.2
		L300,21.2z"/>
	<path class="st1" d="M300,34c37.3,0,73.4,7.3,107.4,21.7c32.9,13.9,62.4,33.8,87.7,59.2s45.3,54.9,59.1,87.7
		c14.4,34,21.7,70.2,21.7,107.4s-7.3,73.4-21.7,107.4c-13.9,32.9-33.8,62.4-59.1,87.7c-25.4,25.4-54.9,45.3-87.7,59.2
		c-34,14.4-70.2,21.7-107.4,21.7s-73.4-7.3-107.4-21.7c-32.9-13.9-62.4-33.8-87.7-59.2c-25.3-25.4-45.3-54.9-59.2-87.7
		C31.3,383.4,24,347.2,24,310s7.3-73.4,21.7-107.4c13.9-32.9,33.8-62.4,59.2-87.7s54.9-45.3,87.7-59.2C226.6,41.3,262.7,34,300,34"
		/>
	<g>
		<circle class="st0" cx="300" cy="310" r="186.6"/>
		<path class="st0" d="M300,129.1c48.3,0,93.8,18.8,127.9,53s53,79.6,53,127.9s-18.8,93.8-53,127.9s-79.6,53-127.9,53
			s-93.8-18.8-127.9-53s-53-79.6-53-127.9s18.8-93.8,53-127.9S251.7,129.1,300,129.1 M300,123.4c-103.1,0-186.6,83.5-186.6,186.6
			S196.9,496.6,300,496.6S486.6,413,486.6,310S403.1,123.4,300,123.4L300,123.4z"/>
	</g>
	<rect x="234.8" y="178.8" class="st1" width="17.1" height="71"/>
	<rect x="219.1" y="197.2" class="st1" width="48.5" height="17.1"/>
	<g>
		<g>
			<defs>
				<circle id="SVGID_1_" cx="300" cy="310" r="186.6"/>
			</defs>
			<clipPath id="SVGID_2_">
				<use xlink:href="#SVGID_1_"  style="overflow:visible;"/>
			</clipPath>
			<g class="st2">
				<path class="st3" d="M119.6,332.1c0,0,72.5-81,122.2-81.9C282.6,249.4,300,310,300,310s37.9-14.9,61.1-0.6
					c23.6,14.5,26.9,45.7,26.9,45.7s17.5-15.5,31.5-11.8s26.9,30.8,33.6,62.8s0,43.7,0,43.7s19.8,112-147.5,68.2
					S101,368.7,101,368.7L119.6,332.1z"/>
				<path class="st0" d="M242.5,250.2c40.3,0,57.5,59.8,57.5,59.8s17.3-6.8,35.7-6.8c8.8,0,17.9,1.6,25.4,6.2
					c23.6,14.5,26.9,45.7,26.9,45.7s13.9-12.4,26.8-12.4c1.6,0,3.1,0.2,4.7,0.6c14,3.8,26.9,30.8,33.6,62.8s0,43.7,0,43.7
					s13.9,78.4-79.6,78.4c-18.3,0-40.6-3-67.9-10.1C138.1,474.2,101,368.7,101,368.7l18.5-36.6c0,0,72.5-81,122.2-81.9
					C242,250.2,242.3,250.2,242.5,250.2 M242.5,247.3v2.9V247.3L242.5,247.3c-0.3,0-0.6,0-0.9,0c-21.3,0.4-48.7,14.5-81.5,42
					c-24.2,20.3-42.6,40.7-42.8,40.9l-0.3,0.3l-0.2,0.3l-18.5,36.6l-0.6,1.1l0.4,1.1c0.4,1.1,9.8,27.3,40.1,59.3
					c17.7,18.7,38.9,35.4,63.1,49.8c30.1,17.9,64.9,32,103.3,42.1c26,6.8,49.1,10.2,68.7,10.2c31,0,53.9-8.5,68-25.3
					c18.3-21.8,15.4-50,14.6-55.5c1.5-3.5,5.7-16.7-0.2-44.7c-5.6-27-18.3-60.2-35.6-64.9c-1.7-0.5-3.5-0.7-5.4-0.7
					c-9.6,0-19.5,6.1-24.8,10c-2-9.7-8.4-31.3-27.4-42.9c-7.1-4.4-16.2-6.6-26.9-6.6c-14.5,0-28.1,4-33.9,6
					c-1.7-5.1-5.9-16.4-13-27.7C276.1,258.1,260.1,247.3,242.5,247.3L242.5,247.3z"/>
			</g>
		</g>
	</g>
	<path class="st0" d="M300,129.1c48.3,0,93.8,18.8,127.9,53s53,79.6,53,127.9s-18.8,93.8-53,127.9s-79.6,53-127.9,53
		s-93.8-18.8-127.9-53s-53-79.6-53-127.9s18.8-93.8,53-127.9S251.7,129.1,300,129.1 M300,123.4c-103.1,0-186.6,83.5-186.6,186.6
		S196.9,496.6,300,496.6S486.6,413,486.6,310S403.1,123.4,300,123.4L300,123.4z"/>
	<g>
		<path class="st0" d="M131.5,421.2c-0.5-1.4-1.2-2.7-2-4.1c-0.8-1.3-1.6-2.5-2.5-3.5c-1-1.1-2-2.1-3.1-2.9
			c-1.2-0.8-2.4-1.5-3.8-1.9c-1.4-0.4-2.8-0.6-4.3-0.5c-1.2,0.1-2.4,0.3-3.6,0.8c-1.2,0.4-2.5,1.1-4,1.9l-31.4,18.7l6.5,11
			l31.2-18.6c1.2-0.7,2.2-1,3.1-0.8c1,0.2,1.9,1.4,2.4,2.4c0.5,0.9,0.9,1.8,1.3,2.8c0.3,1,0.6,2,0.7,2.9l0.5,3.1l10.2-6.1l-0.2-1.4
			C132.4,423.9,132.1,422.6,131.5,421.2z"/>
		<path class="st0" d="M114,390.2l-12.7-0.2l-5-13.7l9.6-8.3l-4.7-12.8l-40.9,36.3l3.7,10.1l54.7,1.6L114,390.2z M89.1,389.7l-1.3,0
			c-1.3,0-2.8,0-4.4,0c-0.9,0-1.8,0-2.7,0c2-1.7,3.8-3.2,5.4-4.5l1-0.9L89.1,389.7z"/>
		<path class="st0" d="M73.4,360.1c1.5,0,3-0.1,4.6-0.3c3.6-0.5,7-1.5,9.9-3c3-1.5,5.5-3.6,7.4-6.1c2-2.5,3.4-5.5,4.1-8.9
			c0.8-3.4,0.9-7.2,0.3-11.3c-0.3-2.1-0.7-4.1-1.2-6c-0.5-1.9-1.2-3.7-1.9-5.3l-0.6-1.5l-11.8,1.6l1.3,2.7c0.7,1.4,1.3,2.9,1.8,4.6
			c0.5,1.7,0.8,3.3,1.1,5c0.3,2.2,0.3,4.2-0.1,5.9c-0.4,1.7-1,3.2-2.1,4.4c-1,1.3-2.4,2.3-4,3.2c-1.7,0.9-3.9,1.5-6.3,1.8
			c-2.5,0.3-4.7,0.3-6.7-0.2c-1.9-0.4-3.6-1.2-5-2.2c-1.4-1-2.5-2.3-3.4-3.9c-0.9-1.6-1.5-3.4-1.8-5.5c-0.2-1.4-0.3-2.9-0.3-4.4
			c0-1.5,0.2-3.2,0.5-5l0.5-2.9L48,324.5l-0.3,1.5c-0.3,1.6-0.5,3.4-0.5,5.3c0,1.9,0.1,3.9,0.4,5.9c0.6,4.1,1.8,7.7,3.6,10.8
			c1.8,3.1,4.1,5.6,6.9,7.5c2.7,1.9,5.8,3.2,9.2,3.9C69.2,359.8,71.2,360.1,73.4,360.1z"/>
		<path class="st0" d="M53,304.9c2.1,2.3,4.8,4.2,7.9,5.6c3.1,1.4,6.5,2.3,10.3,2.6c1.2,0.1,2.3,0.2,3.4,0.2c2.5,0,4.9-0.3,7.1-0.8
			c3.3-0.8,6.3-2.1,8.8-4c2.6-1.9,4.6-4.4,6.2-7.3c1.6-2.9,2.6-6.4,2.9-10.2c0.4-3.8,0-7.4-1-10.6c-1-3.2-2.6-6-4.8-8.4
			c-2.1-2.3-4.8-4.2-7.9-5.6c-3.1-1.4-6.5-2.3-10.3-2.6c-3.8-0.4-7.3-0.1-10.6,0.6c-3.3,0.8-6.3,2.2-8.8,4.1
			c-2.5,1.9-4.6,4.4-6.2,7.3c-1.6,2.9-2.6,6.4-2.9,10.2c-0.4,3.8,0,7.4,1,10.6C49.2,299.7,50.8,302.5,53,304.9z M58.7,287
			c0.2-1.7,0.6-3.3,1.3-4.6c0.7-1.3,1.7-2.4,2.9-3.3c1.3-0.9,2.9-1.6,4.8-2c1.3-0.3,2.7-0.4,4.2-0.4c0.8,0,1.7,0,2.6,0.1
			c2.6,0.2,4.8,0.8,6.7,1.6c1.8,0.8,3.2,1.7,4.3,2.9c1.1,1.1,1.8,2.4,2.3,3.8c0.5,1.5,0.6,3.1,0.4,4.8c-0.2,1.7-0.6,3.3-1.3,4.6
			c-0.7,1.3-1.7,2.4-2.9,3.3c-1.3,0.9-2.9,1.6-4.8,2c-2,0.4-4.3,0.5-6.8,0.3s-4.8-0.8-6.6-1.6c-1.8-0.8-3.2-1.8-4.3-2.9
			c-1.1-1.1-1.8-2.4-2.2-3.8C58.7,290.3,58.6,288.7,58.7,287z"/>
		<path class="st0" d="M107.8,247.1c0.4-1.2,0.8-2.3,1.1-3.3c0.3-1,0.6-2,0.8-2.8c0.2-0.9,0.4-1.7,0.5-2.4c0.1-0.7,0.2-1.4,0.3-2.1
			c0.2-2.6,0-4.9-0.5-6.9c-0.5-2-1.3-3.7-2.3-5.2c-1-1.5-2.2-2.7-3.5-3.6c-1.3-0.9-2.5-1.5-3.8-2c-1.5-0.5-2.9-0.8-4.3-0.7
			c-1.4,0-2.7,0.3-3.9,0.7c-1.2,0.5-2.4,1.1-3.5,2c-0.1,0.1-0.1,0.1-0.2,0.2c-0.5-1.2-1.2-2.2-2-3.1c-1.5-1.7-3.4-2.9-5.7-3.7
			c-1.3-0.4-2.6-0.7-4-0.7c-1.4,0-2.8,0.2-4.3,0.6c-1.4,0.5-2.8,1.2-4.1,2.1c-1.3,1-2.6,2.2-3.7,3.7c-1.5,2-2.8,4.6-4,8.2l-6,17.3
			l48.1,16.6L107.8,247.1z M96.1,246.1l-8.4-2.9l1.9-5.6c0.4-1.3,0.8-2.3,1.2-3c0.3-0.7,0.7-1.3,1-1.7c0.7-0.9,1.4-1.5,2.1-1.7
			c0.7-0.2,1.5-0.2,2.2,0.1c0.5,0.2,0.9,0.4,1.3,0.7c0.3,0.2,0.6,0.5,0.8,0.9c0.2,0.4,0.4,1,0.5,1.6c0.1,0.7,0.1,1.5,0,2.6
			c-0.1,0.7-0.2,1.5-0.5,2.4c-0.3,1-0.6,2.2-1.1,3.5L96.1,246.1z M77.2,226.7c0.8,0.3,1.3,0.7,1.8,1.2c0.4,0.5,0.6,1.1,0.7,2
			c0,0.7-0.1,1.9-0.9,4.3l-1.8,5.3l-7.4-2.5l1.6-4.6c0.4-1.1,0.7-2,1-2.7c0.3-0.6,0.6-1.2,0.9-1.6c0.6-0.9,1.3-1.4,1.9-1.5
			C75.7,226.4,76.4,226.5,77.2,226.7z"/>
		
			<rect x="93.1" y="177" transform="matrix(0.4734 -0.8809 0.8809 0.4734 -125.9373 194.2142)" class="st0" width="12.8" height="50.9"/>
		<path class="st0" d="M107.8,145.3l18.2,14.5c1.1,0.9,2.5,2,4.3,3.3c-2.3-0.2-4.8-0.4-7.4-0.6l-27.6-1.5l-7.6,9.6l39.8,31.6l8-10
			l-18.2-14.5c-1.2-1-2.6-2-4.3-3.3c2.7,0.3,5.3,0.5,7.6,0.6l27.3,1.5l7.6-9.5l-39.8-31.6L107.8,145.3z"/>
		<path class="st0" d="M140.7,113.4L156,166l10.8-8.4l-3.7-12.2l11.5-9l10.9,6.6l10.8-8.4l-47.1-27.8L140.7,113.4z M164.2,130.1
			l-4.6,3.6l-0.4-1.3c-0.6-2-1.3-4.2-2.1-6.7c2.2,1.4,4.2,2.7,6,3.7L164.2,130.1z"/>
		<polygon class="st0" points="220,111.9 216.8,103.7 234.2,97 230.1,86.4 212.8,93 210,85.7 230.2,78 226.2,67.3 194,79.6 
			212.1,127.2 245.5,114.4 241.4,103.7 		"/>
		<path class="st0" d="M280.5,85.2c-1.3-1.7-2.8-3-4.7-3.9c-1.7-0.8-3.7-1.4-5.7-1.7c-1.9-0.3-3.9-0.4-6-0.5c-1.2,0-2.4-0.1-3.5-0.2
			c-1-0.1-1.8-0.3-2.6-0.6c-0.6-0.2-1.1-0.6-1.5-1c-0.3-0.4-0.6-0.9-0.7-1.7c-0.3-1.7,0.3-2.5,0.9-3c1-1,2.7-1.6,5-2
			c1.8-0.3,3.7-0.4,5.9-0.3s4.4,0.3,6.8,0.9l3.1,0.7l-1.9-11.7l-1.4-0.3c-2.1-0.5-4.5-0.8-7.1-0.9c-2.7-0.1-5.4,0.1-7.9,0.5
			c-2.6,0.4-5,1.2-7.1,2.1c-2.1,1-3.9,2.4-5.3,4c-1.5,1.7-2.5,3.6-3.2,5.9c-0.6,2.2-0.7,4.8-0.3,7.5c0.4,2.5,1.2,4.6,2.4,6.2
			c1.2,1.6,2.6,2.9,4.3,3.8c1.6,0.9,3.4,1.5,5.3,1.8c1.8,0.3,3.7,0.5,5.6,0.6c1.4,0,2.7,0.1,3.9,0.2c1.1,0.1,2.1,0.3,3.1,0.5
			c0.7,0.2,1.3,0.5,1.8,0.9c0.3,0.3,0.5,0.8,0.7,1.5c0.1,0.9,0.1,1.6-0.2,2.3c-0.3,0.7-0.8,1.3-1.4,1.7c-0.8,0.6-1.7,1-2.7,1.4
			c-1.1,0.4-2.3,0.7-3.5,0.9c-2.1,0.4-4.3,0.5-6.3,0.4c-2.1-0.1-4.3-0.4-6.5-1l-3.2-0.8l1.9,11.6l1.2,0.4c2,0.7,4.3,1.1,7,1.2
			c0.5,0,1,0,1.5,0c2.1,0,4.3-0.2,6.5-0.5c3-0.5,5.8-1.3,8.2-2.3c2.5-1.1,4.7-2.4,6.4-4.1c1.7-1.7,3-3.7,3.7-6
			c0.7-2.3,0.8-4.8,0.4-7.6C282.6,89.1,281.7,86.9,280.5,85.2z"/>
		<path class="st0" d="M319.4,58.9c-1.4-0.5-3-0.9-4.8-1.2c-1.8-0.3-3.8-0.5-6.1-0.6l-15.6-0.7l-2.2,50.8l12.8,0.5l0.8-18.1
			c0.7,0.1,1.5,0.1,2.2,0.1c3.5,0.1,6.7-0.1,9.5-0.7c2.8-0.6,5.3-1.6,7.4-2.9c2.1-1.4,3.8-3.1,5-5.1s1.8-4.4,1.9-7
			c0.2-3.8-0.7-7-2.6-9.6C325.7,62.1,323,60.1,319.4,58.9z M305.2,68.4l2.7,0.1c1.7,0.1,3.1,0.2,4.2,0.4c1,0.2,1.9,0.4,2.5,0.6
			c1.1,0.4,1.8,1,2.1,1.5c0.4,0.7,0.6,1.5,0.5,2.4c0,0.8-0.2,1.5-0.5,2.2c-0.3,0.6-0.7,1-1.4,1.5c-0.7,0.5-1.8,0.9-3.1,1.1
			c-1.4,0.3-3.2,0.4-5.3,0.3c-0.7,0-1.4-0.1-2.1-0.1L305.2,68.4z"/>
		<path class="st0" d="M387.1,87.2c-0.2-3.4-1-6.6-2.4-9.4c-1.4-2.8-3.5-5.4-6.1-7.5c-2.6-2.1-5.8-3.7-9.5-4.7
			c-3.7-1.1-7.3-1.4-10.6-1c-3.3,0.4-6.4,1.5-9.1,3.2c-2.7,1.7-5,3.9-7,6.8c-1.9,2.8-3.4,6-4.4,9.6c-1,3.6-1.4,7.2-1.3,10.5
			c0.2,3.4,1,6.6,2.4,9.4c1.4,2.8,3.5,5.3,6.1,7.5c2.6,2.1,5.8,3.7,9.5,4.7c2.7,0.8,5.3,1.1,7.8,1.1c1,0,1.9,0,2.8-0.2
			c3.3-0.4,6.4-1.5,9.1-3.2c2.7-1.7,5-4,7-6.8c1.9-2.8,3.4-6,4.4-9.6C386.9,94.1,387.3,90.6,387.1,87.2z M365.9,76.7
			c1.7,0.5,3.1,1.2,4.3,2.1c1.2,0.9,2.1,2.1,2.8,3.5c0.7,1.4,1.1,3.1,1.1,5.1c0.1,2-0.2,4.3-0.9,6.8s-1.6,4.6-2.7,6.3
			c-1.1,1.6-2.3,2.9-3.6,3.7c-1.3,0.8-2.7,1.3-4.2,1.5c-1.5,0.2-3.1,0-4.8-0.4c-1.7-0.5-3.1-1.2-4.3-2.1c-1.2-1-2.1-2.1-2.8-3.5
			c-0.7-1.4-1.1-3.1-1.1-5.1c-0.1-2,0.2-4.3,0.9-6.8s1.6-4.6,2.7-6.3c1.1-1.6,2.3-2.9,3.6-3.7c1.3-0.8,2.7-1.3,4.2-1.5
			c0.4,0,0.8-0.1,1.3-0.1C363.6,76.2,364.8,76.4,365.9,76.7z"/>
		<path class="st0" d="M426,120.1c3.1-1.3,5.6-3.6,7.5-6.8c1.8-3.1,2.5-6.2,2.1-9.1c-0.3-2.9-1.6-5.7-3.7-8.3
			c-1.1-1.3-2.5-2.6-4.3-3.9c-1.7-1.3-3.6-2.5-5.7-3.7l-14.2-8l-25,44.3l11.2,6.3l8.9-15.7l2.3,1.3l2.2,21.9l13.5,7.6l-2.8-24.9
			C420.9,121.4,423.6,121.1,426,120.1z M416.6,98.4c1.5,0.8,2.7,1.6,3.6,2.3c0.8,0.6,1.4,1.2,1.9,1.8c0.5,0.7,0.8,1.4,0.8,2
			c0,0.7-0.2,1.5-0.7,2.3c-0.5,0.9-1.2,1.6-2,2.1c-0.7,0.4-1.7,0.5-3,0.3c-0.8-0.1-1.8-0.4-2.9-0.9c-1.2-0.5-2.6-1.2-4.2-2.1l-1.8-1
			l4.9-8.7L416.6,98.4z"/>
		<polygon class="st0" points="475.8,143 483.4,134.5 451.3,106.1 443.7,114.6 455,124.6 428.9,154.2 438.5,162.7 464.6,133.1 		"/>
		<polygon class="st0" points="481.7,196.2 467.8,177.9 474.9,172.6 486.1,187.4 495.2,180.5 484,165.7 490.2,161 503.3,178.3 
			512.4,171.4 491.5,143.9 451,174.6 472.6,203.1 		"/>
		<path class="st0" d="M494.7,213.5c-2.5,2.2-4.5,4.8-5.7,7.7c-1.3,2.9-1.9,6.2-1.9,9.7c0.1,3.4,0.9,7.2,2.4,11
			c0.8,2,1.7,3.8,2.7,5.6c1,1.7,2,3.3,3.1,4.7l1,1.3l11.1-4.4l-1.9-2.3c-1-1.2-2-2.5-2.8-4c-0.9-1.5-1.6-3-2.2-4.6
			c-0.8-2-1.3-4-1.3-5.8c0-1.7,0.3-3.3,0.9-4.8c0.7-1.5,1.7-2.8,3.1-4.1c1.5-1.3,3.4-2.4,5.7-3.3c2.3-0.9,4.5-1.4,6.5-1.5
			c2,0,3.8,0.3,5.4,0.9c1.6,0.6,3,1.6,4.2,2.9c1.3,1.3,2.3,3,3,4.9c0.5,1.3,1,2.7,1.3,4.2c0.3,1.4,0.6,3.1,0.7,4.9l0.2,2.9l10.8-4.3
			l-0.1-1.5c-0.1-1.6-0.3-3.4-0.8-5.2c-0.4-1.8-1-3.8-1.8-5.7c-1.5-3.8-3.6-7-6.1-9.6c-2.5-2.6-5.4-4.5-8.5-5.7
			c-3.1-1.2-6.4-1.7-9.9-1.5c-3.5,0.1-7,0.9-10.5,2.3C500.1,209.5,497.1,211.3,494.7,213.5z"/>
		<polygon class="st0" points="502.2,292.2 513.5,290.2 509.6,268.8 548.4,261.7 546.1,249.1 496,258.2 		"/>
		<path class="st0" d="M517.4,310c1.6-0.6,3.9-0.9,6.9-0.8l28.8,1l0.5-12.8l-29.6-1c-2-0.1-3.9,0-5.6,0.1c-1.7,0.2-3.4,0.5-4.8,1
			c-1.8,0.6-3.5,1.5-5,2.7c-1.5,1.1-2.8,2.6-3.9,4.2c-1.1,1.6-1.9,3.5-2.5,5.7c-0.6,2.1-0.9,4.5-1,7.1c-0.1,2.6,0.1,5,0.5,7.1
			c0.4,2.2,1.2,4.2,2.1,5.9c1,1.8,2.2,3.3,3.6,4.6c1.4,1.3,3,2.3,4.8,3c1.4,0.6,3,1.1,4.8,1.4c1.7,0.3,3.5,0.5,5.6,0.5l29.6,1
			l0.4-12.8l-28.8-1c-3-0.1-5.3-0.5-6.8-1.3c-1.6-0.8-2.7-1.8-3.3-3c-0.7-1.4-1-3.1-0.9-5s0.5-3.6,1.3-4.9
			C514.6,311.5,515.8,310.6,517.4,310z"/>
		<path class="st0" d="M495.8,360.3c-0.3,1.3-0.6,2.4-0.9,3.4c-0.2,1-0.4,2-0.6,2.9c-0.2,0.9-0.3,1.7-0.3,2.4
			c-0.1,0.7-0.1,1.4-0.1,2.1c0,2.6,0.3,4.9,1,6.9c0.7,2,1.5,3.6,2.6,5c1.1,1.4,2.4,2.5,3.7,3.3c1.3,0.8,2.6,1.4,3.9,1.7
			c1.5,0.4,3,0.6,4.3,0.5c1.4-0.1,2.7-0.4,3.9-1c1.2-0.5,2.3-1.3,3.3-2.2c0.1-0.1,0.1-0.1,0.2-0.2c0.6,1.1,1.3,2.1,2.2,2.9
			c1.6,1.6,3.6,2.7,5.9,3.3c1.1,0.3,2.3,0.5,3.5,0.5c0.2,0,0.4,0,0.6,0c1.4-0.1,2.8-0.4,4.2-0.9c1.4-0.5,2.7-1.3,4-2.4
			c1.3-1,2.4-2.3,3.4-3.9c1.4-2.1,2.5-4.8,3.5-8.4l4.8-17.7l-49.1-13.4L495.8,360.3z M516.1,362.9l-1.6,5.7c-0.3,1.3-0.7,2.3-1,3.1
			c-0.3,0.7-0.6,1.3-0.9,1.8c-0.6,1-1.3,1.6-2,1.9c-0.7,0.3-1.4,0.3-2.2,0.1c-0.5-0.1-1-0.3-1.4-0.6c-0.3-0.2-0.6-0.5-0.8-0.9
			c-0.3-0.4-0.5-0.9-0.6-1.6c-0.2-0.7-0.2-1.5-0.2-2.6c0-0.7,0.1-1.5,0.3-2.4c0.2-1,0.5-2.2,0.9-3.6l0.9-3.3L516.1,362.9z
			 M534.6,367.9l-1.3,4.7c-0.3,1.1-0.6,2-0.9,2.8c-0.3,0.7-0.5,1.2-0.8,1.6c-0.6,0.9-1.2,1.5-1.8,1.6c-0.7,0.2-1.4,0.2-2.2,0
			c-0.8-0.2-1.4-0.6-1.9-1.1c-0.4-0.4-0.7-1.1-0.8-2c-0.1-0.6,0-1.9,0.6-4.4l1.5-5.4L534.6,367.9z"/>
		<polygon class="st0" points="471,419.3 481.2,424.6 491.7,404.2 499.6,408.3 491,424.8 501.2,430 509.7,413.5 516.6,417.1 
			506.7,436.3 516.8,441.6 532.6,410.9 487.4,387.6 		"/>
	</g>
	<g>
		<polygon class="st0" points="139.3,499.3 157.7,512.9 164.4,503.9 146,490.2 		"/>
		<polygon class="st0" points="234.7,505.8 217.9,506.2 214.4,517.3 227,517.8 219.3,542.5 208.1,539 204.8,549.7 238.4,560.2 
			241.7,549.4 231.3,546.2 243.1,508.4 		"/>
		<path class="st0" d="M287.6,521.7c-1.3-2.3-3.1-4.2-5.4-5.6c-2.2-1.4-4.8-2.2-7.9-2.6c-2.7-0.3-5.2-0.1-7.5,0.5
			c-2.3,0.7-4.3,1.8-5.9,3.2c-1.7,1.5-3,3.3-4,5.4c-1,2.1-1.6,4.4-1.9,6.9c-0.3,2.5-0.1,4.8,0.4,6.8c0.6,2.1,1.5,3.9,2.9,5.4
			c1.3,1.5,2.9,2.8,4.8,3.7c1.9,0.9,4,1.5,6.3,1.7c2.1,0.2,4.1,0.2,6,0c-0.3,0.8-0.6,1.5-0.9,2.1c-0.7,1.3-1.4,2.4-2.3,3.2
			c-0.8,0.7-1.8,1.2-2.9,1.4c-1.2,0.3-2.7,0.3-4.3,0.1c-1.3-0.2-2.7-0.5-4.3-1c-1.5-0.5-2.9-1.2-4.2-2l-2.9-1.9l-1.4,11.9l1.1,0.7
			c1.4,0.9,3.1,1.7,5,2.3c1.9,0.6,3.9,1,6,1.3c1.2,0.1,2.3,0.2,3.3,0.2c1.5,0,2.9-0.1,4.3-0.4c2.3-0.5,4.4-1.2,6.2-2.3
			c1.8-1.1,3.5-2.5,4.8-4.1c1.3-1.6,2.5-3.4,3.4-5.4c0.9-2,1.7-4.1,2.3-6.4c0.6-2.3,1-4.6,1.3-7.1c0.4-3.7,0.4-7.1,0-10
			C289.7,526.7,288.9,524,287.6,521.7z M277.6,535.7c-0.7,0.2-1.4,0.3-2.1,0.4c-1.1,0.1-2.2,0.1-3.5,0c-0.8-0.1-1.6-0.3-2.2-0.6
			c-0.5-0.2-0.9-0.5-1.2-0.9c-0.3-0.4-0.5-1-0.7-1.6c-0.2-0.8-0.2-1.7,0-2.9c0.1-1,0.4-1.9,0.7-2.6c0.3-0.7,0.7-1.3,1.2-1.7
			c0.4-0.4,0.9-0.7,1.4-0.8c0.4-0.1,0.8-0.2,1.2-0.2c0.2,0,0.4,0,0.5,0c0.9,0.1,1.7,0.4,2.4,0.8c0.6,0.4,1,0.9,1.4,1.7
			c0.4,0.9,0.7,2.2,0.9,3.7C277.7,532.3,277.7,533.8,277.6,535.7z"/>
		<path class="st0" d="M332.9,527.6c-1-3-2.3-5.5-4-7.4c-1.7-2-3.9-3.6-6.3-4.5c-2.4-0.9-5.2-1.3-8.2-1.1c-2.7,0.2-5.2,0.8-7.3,1.9
			c-2.1,1.1-3.9,2.5-5.2,4.3c-1.4,1.8-2.3,3.8-2.9,6c-0.6,2.2-0.8,4.6-0.6,7.1s0.7,4.8,1.7,6.6c1,1.9,2.2,3.5,3.8,4.8
			c1.6,1.3,3.4,2.2,5.4,2.7c2,0.5,4.2,0.7,6.5,0.5c2.1-0.2,4.1-0.5,5.9-1.1c-0.1,0.8-0.3,1.6-0.5,2.2c-0.4,1.4-1,2.6-1.7,3.5
			c-0.7,0.9-1.5,1.5-2.6,1.9c-1.1,0.5-2.6,0.8-4.2,0.9c-1.3,0.1-2.8,0-4.4-0.2c-1.6-0.2-3.1-0.6-4.5-1.2l-3.2-1.3l0.9,11.9l1.2,0.5
			c1.6,0.6,3.4,1.1,5.3,1.4c1.2,0.2,2.5,0.3,3.8,0.3c0.8,0,1.5,0,2.3-0.1c2.8-0.2,5.3-0.7,7.4-1.6c2.2-0.9,4.1-2,5.7-3.4
			c1.6-1.4,2.9-3.1,4-5c1-1.8,1.8-3.8,2.4-6c0.5-2.1,0.9-4.4,1-6.7c0.1-2.3,0.1-4.7-0.1-7.2C334.4,533.7,333.8,530.4,332.9,527.6z
			 M315.6,525.8c0.7,0,1.4,0.1,2,0.3c0.6,0.3,1.2,0.7,1.7,1.4c0.6,0.8,1.1,2,1.5,3.5c0.4,1.3,0.7,2.8,0.9,4.6
			c-0.7,0.3-1.3,0.6-2,0.8c-1,0.3-2.2,0.5-3.4,0.6c-0.8,0.1-1.6,0-2.3-0.2c-0.5-0.1-1-0.3-1.4-0.7c-0.4-0.3-0.7-0.8-1-1.5
			c-0.3-0.7-0.5-1.7-0.6-2.8c-0.1-1,0-1.9,0.2-2.7c0.2-0.7,0.5-1.4,0.8-1.9c0.3-0.5,0.7-0.8,1.2-1.1c0.5-0.3,1.1-0.4,1.7-0.5
			C315.3,525.9,315.4,525.8,315.6,525.8z"/>
		<path class="st0" d="M378.1,534.1c-0.8-1.2-1.7-2.2-2.8-3c-1-0.8-2.1-1.4-3.4-1.8c0.8-1.1,1.3-2.3,1.6-3.6
			c0.6-2.4,0.5-4.9-0.1-7.5c-0.5-2-1.5-3.8-2.7-5.4c-1.3-1.5-2.9-2.8-4.7-3.6c-1.8-0.8-3.9-1.3-6.2-1.5c-2.3-0.1-4.7,0.1-7.2,0.8
			c-2.5,0.7-4.8,1.5-6.6,2.4c-1.8,0.9-3.5,1.9-4.9,2.9l-1.2,0.9l3,11.4l2.5-1.9c1.3-1,2.7-1.9,4.1-2.6c1.4-0.7,3-1.4,4.9-1.8
			c0.9-0.2,1.8-0.4,2.6-0.5c0.7-0.1,1.4,0,2,0.2c0.5,0.1,0.9,0.4,1.3,0.7c0.3,0.3,0.6,0.8,0.8,1.5c0.2,0.9,0.3,1.7,0.1,2.3
			c-0.1,0.7-0.4,1.2-0.8,1.8c-0.5,0.6-1.1,1.1-1.9,1.5c-0.9,0.5-1.9,0.9-3.1,1.2l-6.2,1.7l2.9,10.9l8-2.1c1.1-0.3,2.1-0.4,3-0.4
			c0.8,0,1.5,0.1,2.1,0.3c0.5,0.2,1,0.5,1.4,1c0.4,0.5,0.7,1.1,0.9,1.9c0.2,0.8,0.3,1.5,0.2,2.2c-0.1,0.6-0.3,1.2-0.7,1.8
			c-0.4,0.6-1.1,1.2-1.9,1.8c-1,0.6-2.2,1.1-3.8,1.5c-1.8,0.5-3.5,0.7-5.3,0.8c-1.7,0.1-3.3,0-4.5-0.2l-3.3-0.6l3.1,11.5l1.4,0.2
			c1.2,0.2,2.4,0.3,3.7,0.3c2.6,0,5.4-0.4,8.2-1.2c3.1-0.8,5.8-1.9,8-3.3c2.3-1.4,4.1-3,5.4-4.9c1.3-1.9,2.2-4,2.5-6.3
			c0.3-2.2,0.1-4.6-0.5-7C379.4,536.7,378.8,535.3,378.1,534.1z"/>
		
			<rect x="440.6" y="493" transform="matrix(0.7916 -0.611 0.611 0.7916 -210.4792 380.0616)" class="st0" width="22.9" height="11.2"/>
	</g>
	<polygon class="st1" points="370.7,189.6 373.4,198 382.3,198 375.1,203.2 377.9,211.6 370.7,206.4 363.5,211.6 366.3,203.2 
		359.1,198 368,198 	"/>
	<polygon class="st1" points="340.7,206.5 343.4,215 352.3,215 345.1,220.2 347.8,228.6 340.7,223.4 333.5,228.6 336.3,220.2 
		329.1,215 338,215 	"/>
	<polygon class="st1" points="366.1,216.7 368.4,223.7 375.9,223.7 369.8,228.1 372.1,235.2 366.1,230.8 360.1,235.2 362.4,228.1 
		356.4,223.7 363.8,223.7 	"/>
	<polygon class="st1" points="391.3,212.3 393.6,219.4 401,219.4 395,223.8 397.3,230.9 391.3,226.5 385.3,230.9 387.5,223.8 
		381.5,219.4 389,219.4 	"/>
	<polygon class="st1" points="371.2,247.9 373.5,255 380.9,255 374.9,259.3 377.2,266.4 371.2,262 365.2,266.4 367.5,259.3 
		361.5,255 368.9,255 	"/>
</g>
</svg>
