<?xml version="1.0" encoding="UTF-8"?>
<svg id="Camada_1" xmlns="http://www.w3.org/2000/svg" viewBox="0 0 500 500">
  <defs>
    <style>
      .cls-1 {
        fill: #fd2f35;
      }

      .cls-2 {
        fill: #35385c;
      }

      .cls-3 {
        fill: #fefefe;
      }
    </style>
  </defs>
  <path class="cls-2" d="M255.68,13.41c52.59.13,109.04,11.11,163.45,32.65,3.66,1.45,7.25,3.06,10.93,4.44,1.74.65,2.63,1.72,3.05,3.5,4.21,17.77,8,35.62,10.94,53.64,3.38,20.75,6.15,41.59,7.34,62.6,1.11,19.57.28,39.05-2.82,58.43-1.93,12.04-3.31,24.15-6.33,36.01-13.55,53.25-39.41,99.69-76.86,139.8-31.46,33.69-68.62,59.54-109.45,80.48-4.17,2.14-7.31,2.16-11.5.08-40.22-19.99-76.33-45.58-107.47-78.02-12.02-12.52-23.26-25.74-32.82-40.24-7.28-11.04-12.88-23.08-18.88-34.86-6.39-12.55-12.95-25.02-18.3-38.07-6.35-15.51-10.18-31.74-13.32-48.14-4.41-22.99-6.03-46.21-5.32-69.59.51-16.71,2.43-33.29,4.67-49.84,3.27-24.2,7.95-48.12,13.73-71.83.5-2.06,1.5-3.21,3.43-4.04,31.27-13.49,63.65-23.3,97.14-29.44,27.26-5,54.74-7.55,88.4-7.56ZM108.9,51.03c-2.89,1.02-5.77,2.1-8.68,3.05-1.67.54-2.53,1.5-2.93,3.26-2.02,8.82-4,17.65-5.73,26.53-7.3,37.47-11.15,75.22-9.29,113.45,1.13,23.2,4.34,46.07,10.05,68.58,11.86,46.72,33.61,88.21,65.69,124.23,26.13,29.34,56.85,52.99,90.63,72.83,1.15.68,1.94.52,2.98-.13,5.93-3.73,11.98-7.28,17.83-11.13,32.01-21.04,60.83-45.68,84.53-75.96,41.88-53.53,61.16-115.04,64.03-182.27.91-21.37-.27-42.67-2.7-63.93-2.81-24.51-7.02-48.75-12.85-72.72-.23-.95-.54-1.84-1.54-2.22-3.3-1.24-6.51-2.77-10.02-3.41-1.65-1.12-3.57-1.61-5.42-2.21-19.38-6.36-39.1-11.34-59.19-14.94-21.58-3.87-43.32-5.9-65.22-6.4-15.44-.35-30.85.01-46.25,1.3-14.59,1.22-29.1,3-43.49,5.64-14.16,2.6-28.18,5.74-41.99,9.84-6.86,2.04-13.76,3.93-20.41,6.61Z"/>
  <path class="cls-1" d="M108.9,51.03c6.65-2.68,13.55-4.57,20.41-6.61,13.81-4.1,27.84-7.25,41.99-9.84,14.4-2.64,28.91-4.42,43.49-5.64,15.4-1.29,30.82-1.65,46.25-1.3,21.9.5,43.64,2.53,65.22,6.4,20.09,3.6,39.81,8.58,59.19,14.94,1.85.61,3.77,1.09,5.42,2.21.19.84.38,1.69.58,2.53,8.63,35,14.8,70.39,16.38,106.48,1.17,26.6-.03,53.09-4.59,79.34-5.77,33.22-16.7,64.7-32.75,94.36-28.23,52.16-68.31,93.02-118.56,124.18-1.54.96-2.62.8-4.06-.09-42.28-26.18-77.66-59.52-104.89-101.27-30.56-46.86-47.23-98.34-50.62-154.13-1.31-21.51-.8-42.99,1.23-64.45,1.92-20.32,5.07-40.45,9.3-60.41,1.89-8.93,3.99-17.81,5.99-26.71ZM156.63,195.44c-.19.17-.37.34-.56.51-1.68.41-2.17,2.42-3.84,2.84-3.41-.01-4.45,1.08-4.41,4.59,0,.21-.17.42-.23.64-.87,3.08.96,5.96,4.48,7.08,2.67.85,4.19-.18,5.39-3.63.49-.62,1.21-.77,1.91-.97.38.09.75.21,1.13.25,1.51.17,3.13.18,3.07,2.36-.06,2.06-1.15,3.14-3.19,3.37-1.08.12-2.2.24-3.21.6-1.37.49-2.53,1.34-2.52,3.03.01,1.75,2.6,4.24,5.02,4.74,2.1.44,3.72-.18,4.45-2.38,1.27-.35,2.54-.71,3.81-1.06,3.33.24,6.19-.9,8.72-2.99.51,2.33,2.02,3.16,4.29,2.84.61-.09,1.24-.12,1.86-.17,4.24,1.62,7.46,4.37,9.64,8.39.77,1.43,1.84,2.69,2.77,4.03.2.92.47,1.79,1.32,2.35.21.81.4,1.63.64,2.43.51,1.65,1.38,2.91,3.31,3,.2.69.39,1.39.59,2.08-1.65-.11-3.3-.2-4.94-.33-4.75-.37-9.43-.16-14,1.32-5.46,1.77-8.88,5.53-10.45,10.94-1.48,5.11,2.79,9.28,7.97,8,3.28-.82,5.69-3.39,4.46-6.18,1.25-.99,2.57-1.92,3.32-3.4,3.03-.38,5.92.32,8.8,1.13,6.11,1.72,11.95,4.35,18.27,5.41,1.83.31,3.59.43,5.23-.65,1.07.97,2.12,1.98,3.73,1.88,4.04,4.47,9.22,6.93,14.93,8.43,10.13,2.67,20.58,2.14,30.88,3.11.45.04.89.08,1.34.12.18.33.42.65.54,1,3.16,9.19,9.14,15.99,17.51,20.82,7.09,4.1,14.83,6.42,22.68,8.43,1.67.43,3.1,1.09,3.97,2.67,3.02,5.51,6.27,10.91,8.99,16.56,2.85,5.92,7.23,9.08,13.79,9.33,4.88.19,7.33-2.73,6.14-7.48-.88-3.54-3.59-5.54-7.29-5.41-.78.03-1.56.02-2.34.04-.69-.51-1.38-1.03-2.07-1.54-.09-.24-.01-.66-.5-.42l.03.04c.29-.3.1-.56-.07-.81-3.63-5.56-6.35-11.53-7.88-18-.29-1.25-1.01-1.84-2.14-2.22-4.32-1.44-8.53-3.14-12.51-5.39-.6-.34-1.21-.78-1.98-.49-1.51-1.65-2.2-3.97-4.24-5.19-.07-.85-.05-1.72-.22-2.55-.86-4.14-2.48-8.04-3.92-11.99,1.21.18,2.46.23,3.48,1.04-.28,1.17.81,1.21,1.39,1.53,5.41,3,11.17,5.08,17.25,6.2,10.91,2.02,21.95,1.93,32.97,1.83,8.17-.07,16.18.58,23.88,3.62,2.42.96,4.99,1.43,7.64,1.16,1.87-.19,3.3-1.02,4-2.83.7-1.81.22-3.39-1.1-4.75-.94-.97-2.04-1.71-3.25-2.33-5.85-2.99-12.08-4.56-18.62-4.66-8.43-.13-16.86.02-25.29-.07-11.44-.13-22.57-1.86-33.15-6.47-3.88-1.69-7.83-3.26-11.74-4.88l.06.04c-.18-.48-.61-.45-1-.52l.07.03c-1.38-1.5-3.07-2.58-4.78-3.65-6.1-3.84-12.78-6.46-19.44-9.08-8.48-3.33-16.04-7.94-22.4-14.54-3.6-3.74-7.43-7.28-11.31-10.74-3.25-2.9-6.87-5.22-11.18-6.35-7.56-1.99-14.82-4.65-21.43-9.01-5.16-3.4-10.95-5.71-17.05-6.64-3.79-.58-7.6-.94-11.32-1.96-1.36-.37-2.78-.51-4.18-.75-.86-.84-1.96-.58-2.98-.66-3.55-.94-6.92.06-10.28,1-1.17.33-2.21,1.11-2.72,2.35,0,0,.05-.05.05-.05ZM135.78,205.85v.12c-2.45-2.73-5.4-4.56-9.08-5.08-3.89-1.05-7.68-1.24-11.16,1.29-3.37.38-5.23,2.81-7.08,5.24-3.02,3.17-3.9,7.03-3.62,11.26.14.83.18,1.7.46,2.49.63,1.84.7,4,2.73,5.09,1.53,4.06,4.83,5.97,8.7,7.2,4.28,1.79,8.49,1.62,12.66-.37,2.98-1.01,5.65-2.44,7.04-5.49,2.96-1.97,4.89-8.77,3.56-12.53.09-3.59-1.71-6.33-3.98-8.86-.15-.09-.23-.21-.22-.37ZM321.09,122.1c.08.09.17.18.25.26-.1,2.27-.36,4.54.18,6.81,1.04,4.46,4.39,6.62,8.66,5.01,5.71-2.16,9.5-6.3,11.09-12.29.13-.5.49-1.12-.17-1.46-.51-.26-.85.26-1.19.55-1.85,1.59-3.66,3.24-5.54,4.79-1.49,1.23-2.13.95-2.37-.99-.21-1.73-.06-3.45.21-5.18,1.21-7.89,3.26-15.56,6.15-22.99.52-1.34.4-2.01-1.06-2.41-2.7-.74-5.36-1.34-8.04.04-.95.49-1.91.57-2.96.17-6.7-2.56-12.53-.77-17.69,3.76-5.64,4.94-9.14,11.29-10.88,18.44-1.05,4.3-3.89,6.65-7.1,8.98-1.01.73-1.54.47-1.83-.67-.48-1.87-.44-3.75-.05-5.62.98-4.7,2.14-9.35,3.47-13.97.68-2.34,1.52-4.64,1.66-7.11.17-2.92-.66-3.99-3.47-4.64-2.07-.48-4.07-.06-6.09.25-.94.15-1.02.76-1.03,1.54-.22,11-5.57,19.81-12.09,28.09-.97,1.23-2.12,2.33-3.62,2.97-1.46.63-2.29.3-2.33-1.39-.04-1.42.05-2.83.38-4.23,1.6-6.82,3.29-13.62,4.76-20.46,1.26-5.82-.54-7.61-6.43-6.72-.31.05-.63.07-.94.11q-3.49.5-3.35,3.85c.03.79.05,1.58,0,2.36-.37,4.98-1.97,9.7-2.99,14.55-.94,4.46-2.31,8.86-2.25,13.48.06,4.68,3.05,7.25,7.71,6.67,3.42-.42,6.23-2.04,8.7-4.38,2.68-2.54,4.83-5.51,7.24-8.94-.12,2.87-.58,5.19.02,7.52,1.09,4.23,4.5,6.19,8.66,4.84,3.43-1.12,5.93-3.48,8.15-6.21.42-.51.56-1.34,1.54-1.43.16.68.33,1.34.47,2.01,1.16,5.28,4.88,7.63,10.15,6.38,4.14-.98,6.98-3.82,9.62-6.91,1.52-1.78,2.96-3.63,4.44-5.45ZM189.48,121.92c.13.14.26.27.39.41-.04,1.81-.25,3.63-.08,5.43.56,6.05,4.9,8.47,10.39,5.84,3.22-1.54,5.58-4.06,7.52-6.99.58-.87,1.12-1.77,1.85-2.92.24.62.38.88.45,1.16,1.32,4.76,3.81,6.46,8.67,5.86,2.99-.37,5.49-1.81,7.85-3.57,3.05-2.28,5.41-5.22,8.02-8.03-.99,4.77-2.25,9.44-3.3,14.15-.43,1.93-1.36,2.37-3.17,2.04-4.51-.82-9.08-.93-13.65-.72-3.27.15-6.41.92-9.11,2.87-3.05,2.2-3.1,5.81-.14,7.88,7.66,5.37,24.55,6.53,32.34-4.26,1-1.39,1.9-1.55,3.33-.82,1.71.87,3.51,1.56,5.27,2.33l.24-.56c-1.81-1.08-3.59-2.22-5.45-3.21-1.06-.57-1.26-1.11-.75-2.23,1.39-3.09,2.2-6.37,3.04-9.66,2.63-10.35,3.69-21.11,8.11-30.99.52-1.17-.14-1.35-.91-1.64-2.76-1.05-5.54-1.18-8.27.05-.97.44-1.81.65-2.9.24-7.87-2.97-14.71-.97-20.6,4.66-5.33,5.09-8.21,11.46-8.95,18.78-.11,1.12-.25,2.14-1.22,2.94-1.88,1.56-3.66,3.23-5.53,4.8-1.46,1.23-2.08.97-2.43-.97-.37-2.06,0-4.08.33-6.1,1.23-7.56,3.2-14.91,6.01-22.04.36-.9.9-1.81-.52-2.25-2.8-.88-5.65-1.71-8.48-.25-1.25.64-2.31.56-3.58.09-4.82-1.79-9.43-1.26-13.77,1.5-6.22,3.96-10.33,9.63-12.92,16.42-1.75,4.59-2.91,9.33-2.5,14.31.55,6.76,5.74,9.98,12.07,7.5,2.24-.87,4.09-2.32,5.82-3.95,2.54-2.39,4.44-5.3,6.53-8.06ZM135.66,146.5c5.2-.06,9.75-2.43,13.45-6.55,3.32-3.7,5.44-8.1,6.89-12.8,3.61-11.67,5.71-23.7,8.62-35.54.79-3.21,1.62-6.41,2.29-9.65.86-4.18-.99-6.72-4.73-6.52-2.93.16-5.72,1.02-8.38,2.26-1.24.58-1.51,1.28-.41,2.29,1.84,1.68,1.99,3.83,1.59,6.11-.23,1.32-.48,2.63-.74,3.94-2.46,12.83-5.54,25.52-8.95,38.14-.96,3.54-2.38,6.86-5.32,9.27-2.23,1.83-4.63,2.57-7.41,1.09-2.2-1.17-4.09-.46-5.14,1.76-.93,1.97-.12,4.06,2.05,5.05,1.82.84,3.77,1.09,6.18,1.16ZM356.77,108.03c-.37-.88-.02-1.45.11-2.05.52-2.38,1.14-4.75,1.48-7.15.56-4-1.56-6.03-5.51-5.38-1.39.23-2.76.61-4.14.92-1.25.28-1.83.94-1.66,2.33.74,6.06-.68,11.88-2.04,17.7-1.4,5.98-3.47,11.76-5.42,17.57-.2.59-1.1,1.39.18,1.95,4.82,2.12,9.66.21,11.59-4.64,2.14-5.41,4.34-10.79,7.08-15.93,1.12-2.09,2.34-4.13,4.19-5.65,1.99-1.64,4.11-3.15,6.7-1,.57.47.98.3,1.37-.22,2.17-2.93,4.19-5.94,4.29-9.76.06-2.45-1.03-3.46-3.45-3.36-2.8.11-4.85,1.62-6.66,3.58-3.09,3.35-5.72,7.05-8.12,11.1ZM281.32,397.59c-1.73,0-3.47.05-5.2-.02-1.35-.05-1.76.53-1.75,1.83,0,1.36.55,1.8,1.84,1.75,1.81-.07,3.62-.03,5.43,0,.6,0,1.34-.22,1.69.5.34.72-.26,1.15-.68,1.6-3.11,3.38-8.17,3.99-11.81,1.42-3.54-2.51-4.83-7.87-2.86-11.88,1.94-3.95,6.48-5.74,10.82-4.33,2.13.69,3.73,2,4.83,3.91.86,1.5,2.37,1.52,3.5.96,1.38-.69.09-1.83-.27-2.59-2.44-5.07-8.97-7.67-14.7-5.97-5.68,1.68-9.39,7.64-8.64,13.85.77,6.41,5.59,10.95,11.77,11.1,6.21.15,11.46-4.05,12.58-9.95.31-1.63-.05-2.34-1.83-2.21-1.57.12-3.15.03-4.72.03ZM228.08,397.14c0,3.54.03,7.09-.02,10.63-.02,1.22.23,1.94,1.67,1.9,2.91-.08,5.84.1,8.74-.1,6.56-.46,11.38-6.13,11.16-12.92-.22-6.83-5.33-12.01-11.99-12.11-2.52-.04-5.04.08-7.56-.04-1.56-.07-2.08.45-2.04,2.01.09,3.54.03,7.09.03,10.63ZM224.81,409.55c1.12,0,2.25.21,1.59-1.43-3.05-7.59-6.09-15.18-9.13-22.78-.33-.82-.87-1.28-1.77-1.28-.9,0-1.46.4-1.8,1.24-3.05,7.67-6.12,15.34-9.19,23-.38.96-.03,1.21.92,1.29,1.66.13,2.93-.14,3.37-2.04.21-.91.81-1.72,1.03-2.63.54-2.19,1.83-2.62,4.05-2.91,4.88-.63,7.56,1.12,8.47,5.87.28,1.44,1.25,1.9,2.45,1.67ZM261.75,393.35c.07,0,.14,0,.21,0,0-2.28-.1-4.57.03-6.85.09-1.6-.48-2.05-2.01-1.97-2.2.12-4.41.08-6.61.01-1.35-.04-2.18.08-2.16,1.84.01,1.82.97,1.84,2.26,1.79.94-.04,1.89.05,2.83-.02,1.41-.1,1.98.46,1.94,1.91-.08,2.76,0,5.51-.03,8.27-.04,3.27-1.6,5.55-4.71,6.62-1.25.43-2.58.75-3.89.88-1.8.18-1.96,1.59-1.98,2.74-.03,1.49,1.38.93,2.18.88,1.81-.1,3.58-.46,5.28-1.15,4.67-1.9,6.62-4.71,6.66-9.75.02-1.73,0-3.47,0-5.2Z"/>
  <path class="cls-3" d="M108.9,51.03c-2,8.9-4.1,17.78-5.99,26.71-4.23,19.96-7.38,40.08-9.3,60.41-2.02,21.46-2.53,42.94-1.23,64.45,3.39,55.79,20.06,107.26,50.62,154.13,27.23,41.75,62.61,75.09,104.89,101.27,1.44.89,2.51,1.05,4.06.09,50.25-31.16,90.32-72.02,118.56-124.18,16.06-29.66,26.98-61.14,32.75-94.36,4.56-26.26,5.76-52.74,4.59-79.34-1.59-36.09-7.75-71.47-16.38-106.48-.21-.84-.39-1.69-.58-2.53,3.51.64,6.71,2.17,10.02,3.41,1,.38,1.31,1.27,1.54,2.22,5.83,23.96,10.05,48.21,12.85,72.72,2.43,21.25,3.61,42.55,2.7,63.93-2.87,67.23-22.15,128.75-64.03,182.27-23.7,30.29-52.52,54.92-84.53,75.96-5.85,3.85-11.9,7.4-17.83,11.13-1.03.65-1.83.8-2.98.13-33.77-19.84-64.49-43.49-90.63-72.83-32.08-36.02-53.83-77.51-65.69-124.23-5.72-22.51-8.93-45.39-10.05-68.58-1.86-38.23,1.99-75.98,9.29-113.45,1.73-8.88,3.71-17.71,5.73-26.53.4-1.76,1.26-2.72,2.93-3.26,2.92-.95,5.79-2.02,8.68-3.05Z"/>
  <path class="cls-2" d="M332.5,313.61c.69.51,1.38,1.03,2.07,1.54,1.14.9,2.5,1.27,3.87,1.62,1.46.37,3.1.61,3.31,2.49.21,1.92-.55,3.57-2.07,4.76-1.24.97-2.78,1.13-4.29.89-4.75-.76-8.63-2.85-10.86-7.36-2.4-4.86-5.35-9.42-7.21-14.56-1.18-3.24-3.71-5.22-7.06-6.05-2.52-.62-5.06-1.14-7.58-1.74-13.64-3.28-24.04-10.61-29.8-23.77-.41-.94-.82-1.87-1.25-2.8-.15-.33-.23-.9-.73-.7-.52.21-.27.82-.33,1.26-.45-.04-.89-.08-1.34-.12-.66-.91-1.65-1.1-2.67-1.31-5.94-1.23-11.95-1.96-17.95-2.7-8.55-1.05-17-2.37-24.31-7.47-.21-.15-.59-.05-.88-.07-1.61.1-2.66-.91-3.73-1.88,1.54-1.63,3.24-3.17,3.45-5.79-2.75,3.98-6.59,4.87-11.03,4.34-2.68-.32-5.26-.95-7.8-1.79-4.55-1.52-9.07-3.12-13.63-4.6-2.85-.92-4.68-.23-5.84,1.95h2.56c-.75,1.48-2.07,2.41-3.32,3.4-.44-.2-.66-.96-1.41-.52.47,1.48.66,2.92-.66,4.12-1.56,1.41-5.04,1.58-7.15.34-1.99-1.17-2.74-3.23-2.11-5.74,1.38-5.53,6.65-9.93,12.27-10.52,7.38-.78,14.61.45,21.88,1.25,1.06.12,2.13.15,3.19.22,0-.13,0-.25,0-.38-3.02-.84-6.03-1.68-9.05-2.52-.2-.69-.39-1.39-.59-2.08-1.68-2.17-2.45-4.74-2.81-7.61-.52.35-.62.38-.64.44-.18.58-.34,1.16-.51,1.74-.84-.56-1.11-1.43-1.32-2.35-.46-5.67-4.11-9.03-8.62-11.69-1.11-.65-2.39-1.16-3.78-.73-.62.06-1.24.08-1.86.17-2.28.32-3.78-.51-4.29-2.84,1.94-3.23,2.07-4.49.62-6.14.28,2.91-1.98,5.96-5.24,6.97-1.51.47-2.97.99-4.1,2.15-1.27.35-2.54.71-3.81,1.06-2.19.22-4.38.44-6.4-.8-.86-.53-1.47-1.23-1.36-2.28.1-.99.87-1.48,1.74-1.69,1.37-.31,2.76-.55,4.15-.77,1.6-.26,2.9-.89,3.13-2.66.24-1.86-.45-3.44-2.03-4.45-1.44-.92-2.83-.69-3.97.66-.7.2-1.42.35-1.91.97-1.54.55-2.22,2.58-4.1,2.5-3.8-.17-4.92-3.3-6.11-6.03-.83-1.9,1.64-2.01,2.49-3.04.68-.83,1.64-1.41,2.48-2.11,1.67-.41,2.17-2.43,3.84-2.84.28-.07.65-.04.56-.51,0,0-.05.05-.05.05,2.65-.54,5-2.04,7.75-2.32,1.77-.18,3.57-.32,5.25-1.03,1.02.08,2.13-.18,2.98.66-.6.66-1.71.9-1.72,2.3,1.62-.75,3.22-1.03,4.86-.58,3.91,1.05,7.94,1.06,11.93,1.35.55.04,1.22-.12,1.62.14,4.33,2.8,9.56,3.55,13.96,6.23,6.53,3.98,13.42,7.17,20.85,9.16,5.05,1.35,9.2,4.37,13.03,7.83,1.81,1.64,3.64,3.26,5.31,5.04,8.54,9.14,18.63,15.84,30.45,20.02,4.07,1.44,7.96,3.35,11.74,5.47,6.13,3.43,9.92,8.55,11.53,15.36.87,3.67,1.79,7.33,3.18,10.85.82,2.08,1.91,3.96,3.9,5.16,2.03,1.22,2.73,3.54,4.24,5.19,3.85,3.45,8.27,5.92,13.2,7.41,1.35.41,2.06,1.13,2.48,2.49,1.3,4.28,2.96,8.44,5.07,12.4.95,1.78,1.94,3.58,3.83,4.61,0,0-.03-.04-.03-.04,0,.34.16.49.5.42ZM209.36,227.03c6.98,4.22,11.93,9.62,15.41,16.37-1.46-8.1-7.7-14.84-15.41-16.37ZM172.8,200.49c2.05,2.5,7.11.52,9.65-3.71-3.1,1.78-5.44,5.05-9.65,3.71ZM160.68,197.07c-2.07-.23-2.87.5-3.2,2.28,1.31-.46,2.01-1.25,3.2-2.28Z"/>
  <path class="cls-3" d="M189.48,121.92c-2.08,2.76-3.98,5.67-6.53,8.06-1.73,1.63-3.59,3.08-5.82,3.95-6.33,2.47-11.52-.74-12.07-7.5-.41-4.98.75-9.72,2.5-14.31,2.59-6.79,6.7-12.45,12.92-16.42,4.34-2.77,8.95-3.29,13.77-1.5,1.27.47,2.33.55,3.58-.09,2.84-1.46,5.68-.63,8.48.25,1.42.45.87,1.35.52,2.25-2.8,7.13-4.78,14.48-6.01,22.04-.33,2.02-.7,4.05-.33,6.1.35,1.94.97,2.2,2.43.97,1.87-1.57,3.65-3.24,5.53-4.8.96-.8,1.1-1.81,1.22-2.94.74-7.32,3.62-13.69,8.95-18.78,5.89-5.62,12.73-7.62,20.6-4.66,1.09.41,1.93.2,2.9-.24,2.73-1.22,5.5-1.09,8.27-.05.76.29,1.43.48.91,1.64-4.42,9.87-5.48,20.64-8.11,30.99-.84,3.28-1.65,6.57-3.04,9.66-.51,1.12-.31,1.67.75,2.23,1.86.99,3.64,2.13,5.45,3.21l-.24.56c-1.76-.77-3.56-1.46-5.27-2.33-1.43-.73-2.33-.58-3.33.82-7.79,10.79-24.68,9.64-32.34,4.26-2.95-2.07-2.91-5.68.14-7.88,2.7-1.94,5.84-2.72,9.11-2.87,4.57-.21,9.14-.1,13.65.72,1.81.33,2.74-.11,3.17-2.04,1.06-4.72,2.31-9.39,3.3-14.15-2.61,2.81-4.98,5.75-8.02,8.03-2.36,1.76-4.86,3.21-7.85,3.57-4.86.6-7.35-1.09-8.67-5.86-.08-.28-.21-.54-.45-1.16-.73,1.15-1.27,2.05-1.85,2.92-1.94,2.93-4.3,5.45-7.52,6.99-5.49,2.63-9.84.21-10.39-5.84-.16-1.79.04-3.62.08-5.43.04-.17.08-.35.11-.52-.17.04-.34.08-.5.11ZM175.98,122.26c-.13,1.8-.06,3.76,1.82,4.48,1.81.69,2.95-.98,4.09-2.14.38-.39.71-.84,1.05-1.27,4.24-5.51,7.63-11.52,10.32-17.93,1.41-3.36-.48-6.32-4.17-6.54-3.12-.19-5.2,1.53-6.8,3.92-3.94,5.89-5.92,12.44-6.3,19.49ZM220.34,117.92c0,1.87-.02,3.99,1.73,4.89,1.82.94,3.37-.65,4.8-1.7.69-.51,1.31-1.13,1.88-1.78,4.06-4.58,6.92-9.89,9.38-15.45.58-1.3.2-2.23-.79-3.12-3.36-3.03-8.03-2.64-11.2,1.24-3.76,4.6-5.06,10.18-5.81,15.92ZM218.73,135.78c-2.23.07-4.42.21-6.58.71-1.58.37-2.17,1.13-1.04,2.66,3.39,4.6,12.39,7.46,17.45.49,1.32-1.82,1.1-2.62-1.16-2.94-2.88-.41-5.78-.62-8.67-.92Z"/>
  <path class="cls-3" d="M321.09,122.1c-1.48,1.82-2.92,3.67-4.44,5.45-2.63,3.09-5.48,5.92-9.62,6.91-5.27,1.25-9-1.1-10.15-6.38-.15-.67-.31-1.34-.47-2.01-.98.09-1.12.92-1.54,1.43-2.22,2.73-4.72,5.09-8.15,6.21-4.15,1.35-7.56-.61-8.66-4.84-.6-2.32-.14-4.65-.02-7.52-2.4,3.43-4.55,6.4-7.24,8.94-2.47,2.34-5.28,3.96-8.7,4.38-4.65.58-7.65-1.99-7.71-6.67-.06-4.62,1.31-9.02,2.25-13.48,1.02-4.84,2.62-9.57,2.99-14.55.06-.78.04-1.58,0-2.36q-.13-3.36,3.35-3.85c.31-.04.63-.06.94-.11,5.89-.89,7.69.89,6.43,6.72-1.48,6.85-3.16,13.65-4.76,20.46-.33,1.39-.42,2.8-.38,4.23.04,1.69.88,2.02,2.33,1.39,1.5-.65,2.65-1.74,3.62-2.97,6.52-8.29,11.87-17.09,12.09-28.09.02-.79.1-1.39,1.03-1.54,2.02-.32,4.02-.73,6.09-.25,2.81.65,3.64,1.71,3.47,4.64-.15,2.47-.99,4.77-1.66,7.11-1.34,4.61-2.49,9.27-3.47,13.97-.39,1.87-.43,3.75.05,5.62.3,1.14.82,1.4,1.83.67,3.21-2.32,6.05-4.68,7.1-8.98,1.75-7.15,5.25-13.5,10.88-18.44,5.17-4.53,11-6.32,17.69-3.76,1.04.4,2,.32,2.96-.17,2.68-1.37,5.35-.77,8.04-.04,1.45.4,1.58,1.07,1.06,2.41-2.89,7.43-4.94,15.1-6.15,22.99-.26,1.72-.42,3.45-.21,5.18.24,1.94.88,2.23,2.37.99,1.88-1.56,3.69-3.2,5.54-4.79.34-.29.68-.82,1.19-.55.67.34.31.96.17,1.46-1.59,5.99-5.38,10.13-11.09,12.29-4.27,1.61-7.61-.55-8.66-5.01-.53-2.27-.28-4.54-.18-6.81,0-.17,0-.33.01-.5-.09.08-.18.16-.26.24ZM307.45,122.88c-.13,1.16.03,3.12,1.87,3.82,1.79.68,2.95-.98,4.08-2.17.22-.23.41-.48.61-.73,4.49-5.65,8.03-11.86,10.8-18.5,1.31-3.14-.45-6.02-3.87-6.42-3.24-.38-5.43,1.36-7.09,3.82-3.97,5.89-5.96,12.45-6.39,20.18Z"/>
  <path class="cls-3" d="M135.66,146.5c-2.41-.07-4.37-.32-6.18-1.16-2.17-1-2.98-3.08-2.05-5.05,1.05-2.22,2.94-2.92,5.14-1.76,2.78,1.48,5.18.74,7.41-1.09,2.94-2.41,4.36-5.73,5.32-9.27,3.41-12.61,6.49-25.3,8.95-38.14.25-1.31.51-2.62.74-3.94.39-2.27.24-4.42-1.59-6.11-1.1-1.01-.83-1.71.41-2.29,2.66-1.24,5.45-2.11,8.38-2.26,3.75-.2,5.59,2.35,4.73,6.52-.67,3.23-1.5,6.44-2.29,9.65-2.91,11.84-5.02,23.88-8.62,35.54-1.45,4.69-3.57,9.09-6.89,12.8-3.7,4.12-8.25,6.49-13.45,6.55Z"/>
  <path class="cls-3" d="M108.47,207.43c1.85-2.44,3.71-4.86,7.08-5.25,2.3.52,4.54,1.63,6.91.02,1.23-.83,3.12.09,4.25-1.31,3.68.52,6.63,2.35,9.07,5.08-1.02.01-2.62-1.01-2.81.75-.26,2.4-1.51,5.28,1.85,6.8.39.18.76.62.94,1.03,1.14,2.59,2.61,2.15,4.24.53,1.33,3.75-.6,10.55-3.56,12.53-.73-3.55-.67-3.2-4.08-2.63-3.13.52-5,1.61-6.07,4.8-.64,1.92-.37,2.53,1.28,3.02.59.17,1.23.21,1.84.31-4.17,1.99-8.38,2.16-12.66.37.73-.78,1.08-1.43-.09-2.26-.94-.66-1.88-1.51-2.42-2.5-1.44-2.59-3.83-2.39-6.18-2.45-2.03-1.09-2.1-3.25-2.73-5.09-.27-.79-.31-1.66-.46-2.48,1.84-3.55,3.24-7.25,3.62-11.27ZM118.08,220.73c4.87-.17,6.99-2.31,7.02-7.1,0-.9-5.25-4.69-6.44-4.65-1.59.06-5.8,4.02-5.73,5.37.21,3.74,2.41,6.47,5.15,6.37Z"/>
  <path class="cls-2" d="M302.54,267.62c-1.02-.81-2.27-.86-3.48-1.04-1.8-3.09-3.06-6.42-4.31-9.75-.23-.6-.96-1.95.89-1.31,0,0-.07-.03-.07-.03.23.37.49.7,1,.52l-.06-.04c.51,1.39,1.84,1.79,2.97,2.38,16.5,8.65,34.24,11.09,52.59,10.58,5.03-.14,10.08-.27,15.11-.1,6.79.23,13.31,1.55,18.49,6.47.82.78,2.12,1.49,1.7,2.86-.46,1.49-1.98,1.68-3.28,1.89-2.82.44-5.5-.33-8.03-1.43-5.3-2.32-10.89-3.07-16.57-3.18-7.24-.15-14.49-.03-21.73-.16-7.09-.13-14.17-.52-20.98-2.72-4.78-1.55-9.5-3.29-14.24-4.94Z"/>
  <path class="cls-3" d="M356.77,108.03c2.4-4.05,5.03-7.74,8.12-11.1,1.81-1.97,3.86-3.47,6.66-3.58,2.42-.1,3.51.92,3.45,3.36-.09,3.82-2.12,6.83-4.29,9.76-.39.53-.81.69-1.37.22-2.6-2.14-4.71-.63-6.7,1-1.85,1.52-3.07,3.56-4.19,5.65-2.74,5.14-4.94,10.52-7.08,15.93-1.92,4.84-6.76,6.76-11.59,4.64-1.28-.56-.38-1.36-.18-1.95,1.95-5.81,4.02-11.59,5.42-17.57,1.36-5.82,2.78-11.65,2.04-17.7-.17-1.4.41-2.05,1.66-2.33,1.38-.31,2.75-.69,4.14-.92,3.94-.65,6.07,1.38,5.51,5.38-.34,2.41-.96,4.77-1.48,7.15-.13.6-.48,1.16-.11,2.05Z"/>
  <path class="cls-3" d="M302.54,267.62c4.75,1.65,9.46,3.4,14.24,4.94,6.81,2.2,13.9,2.59,20.98,2.72,7.24.13,14.49.01,21.73.16,5.68.11,11.27.86,16.57,3.18,2.53,1.11,5.21,1.88,8.03,1.43,1.3-.2,2.82-.4,3.28-1.89.43-1.38-.88-2.09-1.7-2.86-5.18-4.92-11.7-6.24-18.49-6.47-5.03-.17-10.07-.04-15.11.1-18.35.51-36.09-1.93-52.59-10.58-1.13-.59-2.46-.99-2.97-2.38,3.92,1.62,7.86,3.19,11.74,4.88,10.58,4.61,21.71,6.34,33.15,6.47,8.43.1,16.86-.06,25.29.07,6.54.1,12.77,1.67,18.62,4.66,1.2.61,2.3,1.35,3.25,2.33,1.33,1.37,1.8,2.94,1.1,4.75-.7,1.81-2.14,2.64-4,2.83-2.65.28-5.22-.2-7.64-1.16-7.7-3.04-15.71-3.7-23.88-3.62-11.02.1-22.06.18-32.97-1.83-6.08-1.12-11.84-3.21-17.25-6.2-.58-.32-1.67-.36-1.39-1.53Z"/>
  <path class="cls-3" d="M281.32,397.59c1.57,0,3.16.1,4.72-.03,1.78-.14,2.14.58,1.83,2.21-1.12,5.89-6.38,10.09-12.58,9.95-6.18-.14-11-4.68-11.77-11.1-.75-6.21,2.97-12.17,8.64-13.85,5.74-1.7,12.26.9,14.7,5.97.37.76,1.66,1.9.27,2.59-1.13.57-2.64.54-3.5-.96-1.1-1.92-2.7-3.22-4.83-3.91-4.34-1.41-8.88.38-10.82,4.33-1.97,4.01-.68,9.37,2.86,11.88,3.64,2.57,8.7,1.96,11.81-1.42.42-.46,1.02-.88.68-1.6-.34-.72-1.09-.49-1.69-.5-1.81-.02-3.62-.06-5.43,0-1.29.05-1.84-.39-1.84-1.75,0-1.3.4-1.88,1.75-1.83,1.73.07,3.46.02,5.2.02Z"/>
  <path class="cls-3" d="M295.65,255.53c-1.85-.64-1.12.71-.89,1.31,1.25,3.33,2.5,6.66,4.31,9.75,1.44,3.95,3.06,7.85,3.92,11.99.17.83.15,1.7.22,2.55-1.99-1.2-3.08-3.08-3.9-5.16-1.39-3.52-2.31-7.18-3.18-10.85-1.61-6.81-5.39-11.93-11.53-15.36-3.78-2.12-7.68-4.03-11.74-5.47-11.82-4.18-21.92-10.88-30.45-20.02-1.66-1.78-3.5-3.41-5.31-5.04-3.83-3.46-7.98-6.48-13.03-7.83-7.44-1.99-14.32-5.18-20.85-9.16-4.4-2.68-9.63-3.43-13.96-6.23-.4-.26-1.07-.1-1.62-.14-4-.29-8.02-.3-11.93-1.35-1.65-.44-3.24-.16-4.86.58.02-1.4,1.12-1.64,1.72-2.3,1.39.24,2.82.37,4.18.75,3.72,1.03,7.53,1.39,11.32,1.96,6.1.93,11.89,3.24,17.05,6.64,6.61,4.36,13.87,7.02,21.43,9.01,4.31,1.14,7.93,3.46,11.18,6.35,3.88,3.46,7.71,7,11.31,10.74,6.36,6.6,13.92,11.21,22.4,14.54,6.66,2.62,13.34,5.24,19.44,9.08,1.71,1.07,3.4,2.15,4.78,3.65Z"/>
  <path class="cls-3" d="M228.08,397.14c0-3.54.06-7.09-.03-10.63-.04-1.56.47-2.08,2.04-2.01,2.51.12,5.04,0,7.56.04,6.66.1,11.77,5.28,11.99,12.11.22,6.79-4.6,12.46-11.16,12.92-2.9.2-5.83.02-8.74.1-1.44.04-1.69-.69-1.67-1.9.04-3.54.02-7.09.02-10.63ZM231.76,397.03h.06c0,1.18,0,2.36,0,3.54q.05,5.62,5.62,5.39c4.81-.2,8.38-3.68,8.54-8.34.18-5.18-2.9-8.93-7.86-9.44-1.63-.17-3.3.02-4.95-.04-1.18-.04-1.46.5-1.44,1.57.06,2.44.02,4.88.02,7.32Z"/>
  <path class="cls-3" d="M224.81,409.55c-1.2.22-2.18-.23-2.45-1.67-.91-4.74-3.59-6.5-8.47-5.87-2.22.29-3.51.72-4.05,2.91-.22.91-.82,1.72-1.03,2.63-.45,1.9-1.71,2.17-3.37,2.04-.95-.08-1.3-.33-.92-1.29,3.07-7.66,6.13-15.33,9.19-23,.33-.84.9-1.25,1.8-1.24.91,0,1.44.47,1.77,1.28,3.04,7.6,6.08,15.19,9.13,22.78.66,1.64-.47,1.42-1.59,1.43ZM215.44,390.39c-1.06,2.77-1.93,5.02-2.79,7.28-.14.38-.26.92.25.95,1.64.11,3.29.13,4.94.11.5,0,.59-.46.43-.88-.89-2.31-1.38-4.77-2.84-7.47Z"/>
  <path class="cls-3" d="M270.59,269.19c.05-.44-.2-1.05.33-1.26.5-.2.58.37.73.7.43.93.84,1.87,1.25,2.8,5.76,13.16,16.16,20.49,29.8,23.77,2.52.61,5.07,1.12,7.58,1.74,3.35.83,5.88,2.81,7.06,6.05,1.86,5.14,4.81,9.71,7.21,14.56,2.23,4.51,6.11,6.6,10.86,7.36,1.5.24,3.04.08,4.29-.89,1.52-1.18,2.29-2.84,2.07-4.76-.21-1.88-1.85-2.12-3.31-2.49-1.37-.35-2.73-.72-3.87-1.62.78-.01,1.56,0,2.34-.04,3.7-.13,6.41,1.87,7.29,5.41,1.18,4.76-1.26,7.67-6.14,7.48-6.56-.26-10.93-3.41-13.79-9.33-2.72-5.65-5.98-11.05-8.99-16.56-.86-1.58-2.29-2.24-3.97-2.67-7.85-2.01-15.59-4.34-22.68-8.43-8.37-4.83-14.34-11.63-17.51-20.82-.12-.35-.36-.67-.54-1Z"/>
  <path class="cls-3" d="M261.75,393.35c0,1.73.01,3.47,0,5.2-.04,5.04-1.99,7.85-6.66,9.75-1.7.69-3.47,1.05-5.28,1.15-.8.04-2.2.61-2.18-.88.02-1.14.19-2.56,1.98-2.74,1.32-.13,2.64-.45,3.89-.88,3.11-1.07,4.67-3.34,4.71-6.62.04-2.76-.05-5.52.03-8.27.04-1.45-.53-2.01-1.94-1.91-.94.07-1.89-.02-2.83.02-1.28.05-2.24.03-2.26-1.79-.01-1.76.81-1.89,2.16-1.84,2.2.07,4.42.11,6.61-.01,1.54-.08,2.11.37,2.01,1.97-.13,2.28-.03,4.57-.03,6.85-.07,0-.14,0-.21,0Z"/>
  <path class="cls-3" d="M223.44,257.52c.3.02.67-.07.88.07,7.3,5.1,15.75,6.42,24.31,7.47,6.01.74,12.02,1.47,17.95,2.7,1.02.21,2.01.4,2.67,1.31-10.3-.97-20.75-.45-30.88-3.11-5.71-1.5-10.89-3.96-14.93-8.43Z"/>
  <path class="cls-3" d="M201.06,239.39c3.02.84,6.03,1.68,9.05,2.52,0,.13,0,.25,0,.38-1.06-.07-2.13-.11-3.19-.22-7.27-.79-14.51-2.03-21.88-1.25-5.62.59-10.89,4.99-12.27,10.52-.63,2.51.13,4.57,2.11,5.74,2.11,1.24,5.59,1.07,7.15-.34,1.32-1.2,1.13-2.64.66-4.12.75-.44.96.33,1.41.52,1.23,2.79-1.18,5.36-4.46,6.18-5.17,1.29-9.45-2.89-7.97-8,1.57-5.41,4.99-9.17,10.45-10.94,4.57-1.48,9.26-1.7,14-1.32,1.65.13,3.3.22,4.94.33Z"/>
  <path class="cls-3" d="M187.42,249.75h-2.56c1.17-2.18,2.99-2.87,5.84-1.95,4.56,1.48,9.08,3.08,13.63,4.6,2.54.85,5.13,1.47,7.8,1.79,4.44.53,8.28-.36,11.03-4.34-.22,2.62-1.91,4.16-3.45,5.79-1.64,1.07-3.4.95-5.23.65-6.31-1.06-12.15-3.69-18.27-5.41-2.88-.81-5.77-1.51-8.8-1.13Z"/>
  <path class="cls-3" d="M332.03,313.23c-1.89-1.03-2.88-2.82-3.83-4.61-2.11-3.96-3.76-8.11-5.07-12.4-.41-1.36-1.12-2.08-2.48-2.49-4.94-1.49-9.35-3.97-13.2-7.41.77-.3,1.38.15,1.98.49,3.98,2.24,8.19,3.94,12.51,5.39,1.13.38,1.84.97,2.14,2.22,1.53,6.47,4.25,12.44,7.88,18,.17.26.36.51.07.81Z"/>
  <path class="cls-2" d="M129.39,233.1c-.61-.1-1.25-.13-1.84-.31-1.64-.48-1.92-1.1-1.28-3.02,1.07-3.19,2.94-4.28,6.07-4.8,3.41-.57,3.36-.91,4.08,2.63-1.39,3.05-4.06,4.48-7.04,5.49Z"/>
  <path class="cls-3" d="M159.39,206.5c1.14-1.35,2.53-1.58,3.97-.66,1.58,1.01,2.28,2.59,2.03,4.45-.23,1.77-1.54,2.4-3.13,2.66-1.39.22-2.78.46-4.15.77-.88.2-1.64.7-1.74,1.69-.11,1.05.51,1.75,1.36,2.28,2.01,1.24,4.2,1.02,6.4.8-.73,2.2-2.35,2.82-4.45,2.38-2.41-.51-5-2.99-5.02-4.74-.01-1.7,1.16-2.54,2.52-3.03,1.01-.37,2.13-.48,3.21-.6,2.04-.23,3.13-1.31,3.19-3.37.07-2.19-1.56-2.19-3.07-2.36-.38-.04-.76-.17-1.13-.25Z"/>
  <path class="cls-2" d="M139.99,215.08c-1.64,1.63-3.11,2.07-4.24-.53-.18-.41-.54-.85-.94-1.03-3.36-1.52-2.11-4.4-1.85-6.8.19-1.76,1.79-.74,2.81-.75,0,0,.01-.12.01-.12,0,.16.07.28.22.37,2.28,2.53,4.08,5.27,3.98,8.86Z"/>
  <path class="cls-2" d="M108.04,226.27c2.35.06,4.75-.14,6.18,2.45.55.98,1.49,1.84,2.42,2.5,1.17.83.82,1.48.09,2.26-3.87-1.23-7.17-3.15-8.7-7.2Z"/>
  <path class="cls-3" d="M152.23,198.79c-.84.69-1.8,1.28-2.48,2.11-.85,1.03-3.31,1.15-2.49,3.04,1.19,2.72,2.31,5.85,6.11,6.03,1.88.09,2.56-1.95,4.1-2.5-1.2,3.45-2.73,4.48-5.39,3.63-3.52-1.12-5.35-4-4.48-7.08.06-.22.23-.43.23-.64-.04-3.52,1-4.61,4.41-4.59Z"/>
  <path class="cls-3" d="M182.8,217.11c1.39-.43,2.68.08,3.78.73,4.51,2.66,8.16,6.02,8.62,11.69-.93-1.34-2-2.61-2.77-4.03-2.18-4.02-5.4-6.77-9.64-8.39Z"/>
  <path class="cls-3" d="M167.93,217.43c1.13-1.16,2.59-1.69,4.1-2.15,3.26-1.02,5.52-4.06,5.24-6.97,1.45,1.65,1.32,2.9-.62,6.14-2.53,2.09-5.39,3.22-8.72,2.99Z"/>
  <path class="cls-2" d="M126.7,200.89c-1.13,1.4-3.02.48-4.25,1.31-2.37,1.61-4.61.5-6.91-.02,3.48-2.54,7.27-2.35,11.16-1.29Z"/>
  <path class="cls-2" d="M108.47,207.43c-.39,4.02-1.78,7.72-3.62,11.27-.28-4.24.6-8.1,3.62-11.27Z"/>
  <path class="cls-3" d="M169.59,192.14c-1.68.72-3.48.85-5.25,1.03-2.74.28-5.1,1.78-7.75,2.32.51-1.24,1.55-2.02,2.72-2.35,3.35-.93,6.73-1.94,10.28-1Z"/>
  <path class="cls-3" d="M196.52,231.88c.17-.58.34-1.17.51-1.74.02-.06.12-.09.64-.44.36,2.87,1.13,5.44,2.81,7.61-1.93-.09-2.81-1.35-3.31-3-.24-.8-.43-1.62-.64-2.43Z"/>
  <path class="cls-3" d="M296.58,256.01c-.52.18-.77-.15-1-.52.39.07.82.04,1,.52Z"/>
  <path class="cls-3" d="M136.01,206.22c-.15-.08-.23-.21-.22-.37,0,.16.07.28.22.37Z"/>
  <path class="cls-3" d="M332.5,313.61c-.34.07-.51-.08-.5-.42.49-.24.42.18.5.42Z"/>
  <path class="cls-3" d="M156.63,195.44c.09.47-.28.44-.56.51.19-.17.37-.34.56-.51Z"/>
  <path class="cls-3" d="M209.36,227.03c7.71,1.53,13.95,8.27,15.41,16.37-3.48-6.75-8.43-12.15-15.41-16.37Z"/>
  <path class="cls-3" d="M172.8,200.49c4.21,1.34,6.55-1.93,9.65-3.71-2.54,4.24-7.6,6.22-9.65,3.71Z"/>
  <path class="cls-3" d="M160.68,197.07c-1.19,1.03-1.88,1.83-3.2,2.28.33-1.78,1.12-2.51,3.2-2.28Z"/>
  <path class="cls-1" d="M175.98,122.26c.38-7.05,2.36-13.6,6.3-19.49,1.6-2.39,3.68-4.11,6.8-3.92,3.69.23,5.58,3.18,4.17,6.54-2.69,6.41-6.07,12.42-10.32,17.93-.34.44-.66.88-1.05,1.27-1.14,1.16-2.28,2.83-4.09,2.14-1.88-.72-1.94-2.67-1.82-4.48Z"/>
  <path class="cls-1" d="M220.34,117.92c.75-5.73,2.05-11.32,5.81-15.92,3.17-3.88,7.84-4.27,11.2-1.24.99.89,1.37,1.82.79,3.12-2.46,5.55-5.32,10.87-9.38,15.45-.57.64-1.19,1.27-1.88,1.78-1.44,1.05-2.99,2.64-4.8,1.7-1.75-.9-1.72-3.02-1.73-4.89Z"/>
  <path class="cls-1" d="M218.73,135.78c2.89.3,5.79.51,8.67.92,2.26.32,2.48,1.13,1.16,2.94-5.06,6.97-14.05,4.11-17.45-.49-1.13-1.53-.54-2.3,1.04-2.66,2.16-.5,4.35-.64,6.58-.71Z"/>
  <path class="cls-1" d="M189.48,121.92c.17-.04.34-.08.5-.11-.04.17-.08.35-.11.52-.13-.14-.26-.27-.39-.41Z"/>
  <path class="cls-1" d="M307.45,122.88c.43-7.73,2.42-14.29,6.39-20.18,1.66-2.46,3.85-4.2,7.09-3.82,3.42.4,5.18,3.28,3.87,6.42-2.77,6.65-6.3,12.86-10.8,18.5-.2.25-.39.5-.61.73-1.13,1.19-2.29,2.86-4.08,2.17-1.84-.7-2-2.66-1.87-3.82Z"/>
  <path class="cls-1" d="M321.09,122.1c.09-.08.18-.16.26-.24,0,.17,0,.33-.01.5-.09-.08-.17-.17-.25-.26Z"/>
  <path class="cls-2" d="M118.08,220.73c-2.74.1-4.94-2.63-5.15-6.37-.07-1.36,4.14-5.32,5.73-5.37,1.19-.04,6.45,3.74,6.44,4.65-.04,4.79-2.16,6.93-7.02,7.1Z"/>
  <path class="cls-1" d="M231.76,397.03c0-2.44.04-4.88-.02-7.32-.02-1.07.26-1.61,1.44-1.57,1.65.06,3.32-.13,4.95.04,4.96.51,8.03,4.26,7.86,9.44-.16,4.66-3.72,8.14-8.54,8.34q-5.58.23-5.62-5.39c0-1.18,0-2.36,0-3.54h-.06Z"/>
  <path class="cls-1" d="M215.44,390.39c1.46,2.69,1.95,5.16,2.84,7.47.16.41.06.87-.43.88-1.65.02-3.3,0-4.94-.11-.51-.03-.39-.58-.25-.95.86-2.26,1.73-4.51,2.79-7.28Z"/>
</svg>