<?xml version="1.0" encoding="utf-8"?>
<!-- Generator: Adobe Illustrator 23.0.1, SVG Export Plug-In . SVG Version: 6.00 Build 0)  -->
<svg version="1.1" id="Layer_1" xmlns="http://www.w3.org/2000/svg" xmlns:xlink="http://www.w3.org/1999/xlink" x="0px" y="0px"
	 viewBox="0 0 600 600" style="enable-background:new 0 0 600 600;" xml:space="preserve">
<style type="text/css">
	.st0{fill:#FFFFFF;}
	.st1{fill:#2E3192;}
	.st2{fill:#FFEC00;}
	.st3{clip-path:url(#SVGID_2_);}
	.st4{clip-path:url(#SVGID_4_);}
</style>
<g>
	<g>
		<path class="st0" d="M562.11,44.51c0,0-60.43,9.79-114.74,9.79c-66.5,0-132.59-39.35-147.99-48.38
			c-15.39,9.03-81.49,48.38-147.99,48.38C97.07,54.3,39.72,40,39.72,40S8.1,252.24,54.91,363.08s114.67,180.09,241.94,230.99
			c127.26-50.91,200.2-120.15,247-230.99C590.64,252.24,562.11,44.51,562.11,44.51z"/>
	</g>
	<rect x="297.86" y="39.31" class="st1" width="4.93" height="154.36"/>
	
		<rect x="288.08" y="77.9" transform="matrix(0.9858 -0.1678 0.1678 0.9858 -18.7365 50.6906)" class="st1" width="4.93" height="116.6"/>
	
		<rect x="270.84" y="58.01" transform="matrix(0.9237 -0.3832 0.3832 0.9237 -28.3933 114.5503)" class="st1" width="4.93" height="141.04"/>
	
		<rect x="266.18" y="98.31" transform="matrix(0.8012 -0.5983 0.5983 0.8012 -37.1044 190.8052)" class="st1" width="4.93" height="105.89"/>
	
		<rect x="255.24" y="99.86" transform="matrix(0.6577 -0.7533 0.7533 0.6577 -29.646 247.6602)" class="st1" width="4.93" height="113.18"/>
	
		<rect x="262.21" y="133.03" transform="matrix(0.4864 -0.8738 0.8738 0.4864 -15.9364 320.5527)" class="st1" width="4.93" height="81.6"/>
	<polygon class="st1" points="299.99,196.11 222.95,185.44 223.62,180.56 274.3,187.58 205.67,164.67 207.23,159.99 301.11,191.34 	
		"/>
	<g>
		
			<rect x="252.22" y="133.74" transform="matrix(0.1677 -0.9858 0.9858 0.1677 124.1694 419.4774)" class="st1" width="116.6" height="4.93"/>
		
			<rect x="257.24" y="126.07" transform="matrix(0.3832 -0.9237 0.9237 0.3832 83.4322 382.0169)" class="st1" width="141.04" height="4.93"/>
		
			<rect x="279.47" y="148.79" transform="matrix(0.5984 -0.8012 0.8012 0.5984 12.3248 327.0901)" class="st1" width="105.89" height="4.93"/>
		
			<rect x="286.77" y="153.99" transform="matrix(0.7532 -0.6578 0.6578 0.7532 -18.1753 264.459)" class="st1" width="113.18" height="4.93"/>
		
			<rect x="295.59" y="171.37" transform="matrix(0.8738 -0.4863 0.4863 0.8738 -42.0793 185.5341)" class="st1" width="81.6" height="4.93"/>
		<polygon class="st1" points="301.07,196.11 299.96,191.34 393.83,159.99 395.39,164.67 326.76,187.58 377.44,180.56 
			378.12,185.44 		"/>
	</g>
	<rect x="217.54" y="191.21" class="st1" width="166.4" height="4.93"/>
	<g>
		<path class="st2" d="M343.16,193.67c0-23.43-18.99-42.42-42.42-42.42s-42.42,18.99-42.42,42.42"/>
		<path class="st1" d="M344.39,193.67h-2.46c0-22.71-18.48-41.19-41.19-41.19s-41.19,18.48-41.19,41.19h-2.46
			c0-24.07,19.58-43.65,43.65-43.65C324.81,150.02,344.39,169.6,344.39,193.67z"/>
	</g>
	<g>
		<defs>
			<path id="SVGID_1_" d="M562.11,44.51c0,0-60.43,9.79-114.74,9.79c-66.5,0-132.59-39.35-147.99-48.38
				c-15.39,9.03-81.49,48.38-147.99,48.38C97.07,54.3,39.72,40,39.72,40S8.1,252.24,54.91,363.08s114.67,180.09,241.94,230.99
				c127.26-50.91,200.2-120.15,247-230.99C590.64,252.24,562.11,44.51,562.11,44.51z"/>
		</defs>
		<clipPath id="SVGID_2_">
			<use xlink:href="#SVGID_1_"  style="overflow:visible;"/>
		</clipPath>
		<g class="st3">
			<rect x="15.97" y="12.77" class="st1" width="202.39" height="566.53"/>
		</g>
	</g>
	<g>
		<defs>
			<path id="SVGID_3_" d="M42.7,49.19c0,0,59.32,9.61,112.64,9.61c65.28,0,130.16-38.62,145.28-47.49
				c15.11,8.87,80,47.49,145.28,47.49c53.32,0,111.42-9.61,111.42-9.61s29.24,203.92-16.7,312.74
				c-45.94,108.81-112.57,176.79-237.51,226.76C178.17,538.72,106.57,470.74,60.63,361.93S42.7,49.19,42.7,49.19z"/>
		</defs>
		<clipPath id="SVGID_4_">
			<use xlink:href="#SVGID_3_"  style="overflow:visible;"/>
		</clipPath>
		<g class="st4">
			
				<rect x="381.36" y="18.03" transform="matrix(-1 -4.488777e-11 4.488777e-11 -1 961.411 592.2085)" class="st2" width="198.68" height="556.15"/>
			<path class="st1" d="M565.27,32.81v526.6H396.14V32.81H565.27 M580.05,18.03H381.36v556.15h198.68V18.03L580.05,18.03z"/>
		</g>
	</g>
	<g>
		<path class="st0" d="M158.97,210.23v0.03h-40.23v-0.03c-1.01,0-2,0.01-2.97,0.03h-0.05v0c-27.32,0.59-38.04,9.28-38.04,24.6
			c0,37.76,0,140.67,0,140.67h41.05v-57.1h40.23v57.1h41.05c0,0,0-102.91,0-140.67C200.02,218.99,188.53,210.23,158.97,210.23z
			 M158.97,301.23h-40.23v-73.76h40.23V301.23z"/>
		<g>
			<path class="st0" d="M479.45,213.52v140.3c0,1.66-1.35,3.01-3.01,3.01h-24.56c-1.66,0-3.01-1.35-3.01-3.01v-57.92
				c0-1.66-1.35-3.01-3.01-3.01h-35.03c-1.66,0-3.01,1.35-3.01,3.01v55.01c0,14.49,9.59,23.05,33.76,24.43v0.2h43.25v-0.1
				c25.59-1.03,35.68-9.65,35.68-24.53V213.52c0-1.66-1.35-3.01-3.01-3.01h-35.03C480.8,210.5,479.45,211.85,479.45,213.52z"/>
			<path class="st1" d="M484.82,378h-45.71v-0.36c-22.71-1.81-33.76-10.56-33.76-26.73v-55.01c0-3.02,2.46-5.47,5.47-5.47h35.03
				c3.02,0,5.47,2.46,5.47,5.47v57.92c0,0.3,0.25,0.55,0.55,0.55h24.56c0.3,0,0.55-0.25,0.55-0.55v-140.3
				c0-3.02,2.46-5.47,5.47-5.47h35.03c3.02,0,5.47,2.46,5.47,5.47v137.39c0,16.6-11.68,25.4-35.68,26.87v0.12L484.82,378z
				 M444.04,373.07h39.47l1.22-0.1c29.53-1.19,33.32-12.42,33.32-22.07V213.52c0-0.3-0.25-0.55-0.55-0.55h-35.03
				c-0.3,0-0.55,0.25-0.55,0.55v140.3c0,3.02-2.46,5.47-5.47,5.47h-24.56c-3.02,0-5.47-2.46-5.47-5.47v-57.92
				c0-0.3-0.25-0.55-0.55-0.55h-35.03c-0.3,0-0.55,0.25-0.55,0.55v55.01c0,9.39,3.57,20.38,31.44,21.97l2.32,0.13V373.07z"/>
		</g>
		<path class="st1" d="M326.46,210.23v0.03h-43.25v-0.03h-38.58v165.31h38.58h43.25c29.56,0,41.05-8.76,41.05-24.63
			c0-20.6,0-35.97,0-45.71c0,0,0-4.59,0-12.32c0-12.86,0-34.43,0-58.02C367.52,218.99,356.02,210.23,326.46,210.23z M326.46,305.2
			v51.62h-43.25V227.47h43.25v65.41V305.2z"/>
	</g>
	<path class="st1" d="M299.37,27.23c66.79,37.48,117.1,45.54,147.99,45.54c36.92,0,76.02-4.31,98.59-7.28
		c5.51,52.48,17.29,204.17-19.13,290.4c-22.69,53.73-51.78,96.81-88.95,131.69c-36.31,34.07-82.5,62.43-141.03,86.55
		c-57.65-23.8-102.94-52.09-138.29-86.35c-35.73-34.63-63.26-76.54-86.63-131.89c-36.17-85.66-22.7-239.29-16.43-293.56
		c22.19,4.38,59.43,10.44,95.89,10.44C182.28,72.78,232.58,64.71,299.37,27.23 M299.37,5.92c-15.39,9.03-81.49,48.38-147.99,48.38
		C97.07,54.3,39.72,40,39.72,40S8.1,252.24,54.91,363.08s114.67,180.09,241.94,230.99c127.26-50.91,200.2-120.15,247-230.99
		s18.26-318.57,18.26-318.57s-60.43,9.79-114.74,9.79C380.86,54.3,314.77,14.96,299.37,5.92L299.37,5.92z"/>
	<g>
		<path class="st1" d="M248.88,474.63c0,0.45-0.38,0.82-1.14,1.1c-0.76,0.29-1.74,0.43-2.93,0.43h-13.34c-1.2,0-2.18-0.14-2.93-0.43
			c-0.76-0.28-1.14-0.65-1.14-1.1v-5.48h5.1v5.31h11.29v-19.89h5.09V474.63z"/>
		<path class="st1" d="M275.01,476.17H252.3v-21.59h22.44v1.7h-16.3v8.06h14.85v1.72h-14.85v8.41h16.57V476.17z"/>
		<path class="st1" d="M370.44,476.17h-22.71v-21.59h22.44v1.7h-16.3v8.06h14.85v1.72h-14.85v8.41h16.57V476.17z"/>
		<path class="st1" d="M305.94,475.03c-0.53,0.76-2.02,1.13-4.49,1.13h-19.36c-1.44,0-2.61-0.14-3.52-0.43
			c-0.91-0.28-1.36-0.65-1.36-1.1v-18.53c0-0.45,0.45-0.82,1.36-1.1c0.91-0.29,2.08-0.43,3.52-0.43h19.36c1.44,0,2.6,0.14,3.5,0.43
			s1.34,0.65,1.34,1.1c0,0,0,12.59,0,17.01C306.29,474.47,305.94,475.03,305.94,475.03z M300.17,474.47v-3.17l-7.31-4.98v-1.89h0.57
			l6.73,4.58v-12.73h-16.86v18.2H300.17z"/>
		<path class="st1" d="M333.09,474.63c0,0.45-0.38,0.82-1.15,1.1c-0.77,0.29-1.75,0.43-2.95,0.43h-15.62c-1.2,0-2.18-0.14-2.93-0.43
			c-0.76-0.28-1.14-0.65-1.14-1.1v-20.06h5.09v19.89H328v-19.89h5.1V474.63z"/>
		<g>
			<path class="st1" d="M342.83,476.17c-1.2,0-3.2-0.14-3.96-0.43c-0.76-0.28-1.14-0.65-1.14-1.1v-20.06h5.09v19.89 M342.83,476.17
				h-5.09v-9.73h5.09V476.17z"/>
		</g>
		<path class="st1" d="M367.73,447.97l-8.98,3.19h-3.41v-0.08l5.5-3.16h6.89V447.97z"/>
	</g>
	<g>
		<path class="st1" d="M240.15,517.16h-6.35v-22.11h-2.77v-0.1l3.99-9.68h5.13V517.16z"/>
		<path class="st1" d="M283.52,514.9c0,0.67-0.46,1.21-1.38,1.63c-0.92,0.42-2.13,0.63-3.61,0.63h-17.74
			c-1.48,0-2.71-0.21-3.67-0.63c-0.97-0.42-1.45-0.96-1.45-1.63v-7.05h6.31v6.8h15.24v-11.8h-16.83c-1.48,0-2.69-0.21-3.61-0.63
			c-0.92-0.42-1.38-0.96-1.38-1.63v-13.06c0-0.67,0.46-1.21,1.38-1.63c0.92-0.42,2.12-0.63,3.61-0.63h18.15
			c1.48,0,2.68,0.21,3.61,0.63c0.92,0.42,1.38,0.96,1.38,1.63V514.9z M277.22,500.4v-12.61H261.7v12.61H277.22z"/>
		<path class="st1" d="M326.89,514.9c0,0.67-0.46,1.21-1.38,1.63c-0.92,0.42-2.13,0.63-3.61,0.63h-18.1c-1.48,0-2.69-0.21-3.63-0.63
			c-0.94-0.42-1.41-0.96-1.41-1.63v-27.36c0-0.67,0.47-1.21,1.41-1.63c0.94-0.42,2.15-0.63,3.63-0.63h17.92
			c1.48,0,2.68,0.21,3.61,0.63c0.92,0.42,1.38,0.96,1.38,1.63v7.05h-6.31v-6.8h-15.33v11.82h16.83c1.48,0,2.68,0.21,3.61,0.62
			c0.92,0.41,1.38,0.95,1.38,1.62V514.9z M320.58,514.66v-12.59h-15.52v12.59H320.58z"/>
		<path class="st1" d="M369.72,514.9c0,0.67-0.46,1.21-1.38,1.63c-0.92,0.42-2.13,0.63-3.61,0.63h-17.74
			c-1.48,0-2.71-0.21-3.67-0.63c-0.97-0.42-1.45-0.96-1.45-1.63v-7.05h6.31v6.8h15.24v-11.8h-16.83c-1.48,0-2.69-0.21-3.61-0.63
			c-0.92-0.42-1.38-0.96-1.38-1.63v-13.06c0-0.67,0.46-1.21,1.38-1.63c0.92-0.42,2.12-0.63,3.61-0.63h18.15
			c1.48,0,2.68,0.21,3.61,0.63c0.92,0.42,1.38,0.96,1.38,1.63V514.9z M363.41,500.4v-12.61h-15.52v12.61H363.41z"/>
	</g>
</g>
</svg>
