<?xml version="1.0" encoding="UTF-8"?>
<svg id="Layer_1" data-name="Layer 1" xmlns="http://www.w3.org/2000/svg" viewBox="0 0 148.87 171.95">
  <defs>
    <style>
      .cls-1 {
        fill: #4aa454;
      }

      .cls-2 {
        fill: #fdc22b;
      }

      .cls-3 {
        fill: #2e9d47;
      }

      .cls-4 {
        fill: #040200;
      }

      .cls-5 {
        fill: #404140;
      }

      .cls-6 {
        fill: #2c6ca3;
      }

      .cls-7 {
        fill: #747d64;
      }

      .cls-8 {
        fill: #6b7765;
      }

      .cls-9 {
        fill: #477fc1;
      }

      .cls-10 {
        fill: #e74324;
      }

      .cls-11 {
        fill: #e8b835;
      }

      .cls-12 {
        fill: #1e4383;
      }

      .cls-13 {
        fill: #aac6e3;
      }

      .cls-14 {
        fill: #20396e;
      }

      .cls-15 {
        fill: #336fb6;
      }

      .cls-16 {
        fill: #329d48;
      }

      .cls-17 {
        fill: #2b2b2b;
      }

      .cls-18 {
        fill: #fdfdfd;
      }

      .cls-19 {
        fill: #37703d;
      }

      .cls-20 {
        fill: #fafcfb;
      }

      .cls-21 {
        fill: #2b5282;
      }

      .cls-22 {
        fill: #6e8481;
      }

      .cls-23 {
        fill: #f9fbfd;
      }

      .cls-24 {
        fill: #245caa;
      }

      .cls-25 {
        fill: #0c0801;
      }

      .cls-26 {
        fill: #95b7de;
      }

      .cls-27 {
        fill: #e1b63a;
      }

      .cls-28 {
        fill: #6596cd;
      }
    </style>
  </defs>
  <path class="cls-15" d="m122.85,135.42c-1.41,1.4-2.8,2.81-4.22,4.19-1.27,1.24-2.53,2.48-3.86,3.66-1.95,1.73-3.94,3.41-5.95,5.08-1.92,1.59-3.82,3.2-5.83,4.67-3.62,2.66-7.29,5.25-10.98,7.82-2.51,1.75-5.07,3.44-7.64,5.1-2.45,1.59-4.94,3.11-7.42,4.66-.51.32-1.09.55-1.54.94-.77.67-1.42.42-2.14-.05-5.96-3.87-12-7.63-17.86-11.64-4.64-3.18-9.14-6.58-13.56-10.06-3.32-2.62-6.47-5.47-9.62-8.31-2.06-1.86-4.08-3.79-5.97-5.82-6.39-6.87-11.98-14.32-16.24-22.74-1.88-3.72-3.48-7.54-4.86-11.45-.97-2.74-1.73-5.58-2.35-8.42-.77-3.5-1.38-7.04-1.89-10.59-.39-2.67-.61-5.36-.73-8.06-.16-3.75-.25-7.52-.17-11.27.06-2.81.43-5.62.68-8.42.18-1.99.33-3.99.58-5.97.26-2.1.59-4.19.95-6.27.51-2.94,1.04-5.87,1.62-8.79.38-1.89.83-3.76,1.29-5.63.77-3.1,1.6-6.18,2.35-9.28.19-.76.46-1.21,1.28-1.52,1.6-.61,3.09-1.49,4.65-2.2,1.74-.79,3.51-1.53,5.27-2.28,1.82-.78,3.61-1.65,5.46-2.33,3.56-1.31,7.15-2.55,10.76-3.74,2.46-.81,4.94-1.6,7.46-2.19,4.28-1.01,8.59-1.92,12.91-2.77,2.17-.43,4.65-.91,6.85-1.13,2.49-.26,3.26-.31,5.76-.5.35-.03,2.17,0,2.53-.06.8-.02,1.6-.04,2.4-.05,1.1,0,2.2,0,3.3,0,.86.02,1.72.03,2.58.05,1.75.12,3.52.18,5.26.39,3.18.38,6.67.59,9.82,1.17,4.25.78,8.18,1.89,12.4,2.82,1.71.38,3.43.79,5.1,1.32,2.32.73,4.61,1.56,6.89,2.38,3.21,1.16,6.44,2.29,9.61,3.55,2.34.93,4.61,2.06,6.92,3.09,1.68.75,3.35,1.51,5.04,2.22,1,.42,1.42,1.23,1.67,2.21.39,1.5.83,2.99,1.19,4.5.43,1.81.81,3.63,1.2,5.45.64,3.04,1.31,6.07,1.9,9.12.4,2.05.71,4.11,1.04,6.17.32,1.95.65,3.89.92,5.84.17,1.25.26,2.51.37,3.77.19,2.16.41,4.32.56,6.49.07.94-.02,1.9,0,2.85.01.48.13.95.2,1.42.02.8.03,1.6.05,2.4,0,.73,0,1.47,0,2.2-.02.74-.04,1.48-.05,2.21-.07.47-.16.95-.2,1.42-.25,3.07-.4,6.15-.76,9.21-.36,2.97-.87,5.93-1.45,8.87-.44,2.26-1.03,4.49-1.67,6.71-.67,2.34-1.33,4.71-2.27,6.95-1.4,3.33-2.96,6.6-4.59,9.82-1.15,2.28-2.44,4.5-3.83,6.64-1.49,2.3-3.08,4.55-4.78,6.7-1.66,2.11-3.5,4.07-5.26,6.1-.18.21-.33.44-.49.66-.04.04-.08.08-.12.13,0,0-.06.05-.06.05-.04.04-.08.09-.13.13,0,0-.04.06-.04.06-.05.05-.09.1-.14.14,0,0-.04.04-.04.04-.05.05-.09.1-.14.15ZM1.76,68.66c.13,2.4.2,5.15.45,7.88.35,3.69.62,7.42,1.33,11.04.89,4.53,2,9.05,3.4,13.45,1.71,5.36,4.18,10.42,7,15.31,3.79,6.58,8.41,12.52,13.6,18.01,3.02,3.19,6.28,6.19,9.6,9.06,3.57,3.09,7.3,6,11.04,8.89,8.21,6.33,17.04,11.75,25.79,17.28.21.14.66.14.87,0,5.2-3.31,10.41-6.62,15.57-10,5.95-3.9,11.74-8.03,17.17-12.62,3.47-2.94,6.91-5.92,10.24-9.01,1.99-1.85,3.83-3.87,5.59-5.94,2.56-3.02,5.1-6.08,7.43-9.28,3.19-4.38,5.83-9.1,8.07-14.05,1.88-4.16,3.44-8.43,4.67-12.81,1.49-5.28,2.42-10.69,2.94-16.15.37-3.98.43-7.98.58-11.98.03-.91-.11-1.82-.16-2.74-.13-2.28-.18-4.57-.38-6.85-.31-3.48-.62-6.97-1.11-10.43-.61-4.21-1.28-8.42-2.16-12.59-1.05-5.01-2.36-9.96-3.53-14.94-.2-.84-.63-1.38-1.44-1.73-4.46-1.92-8.88-3.94-13.36-5.83-6.37-2.68-12.91-4.87-19.59-6.63-5.92-1.56-11.91-2.81-18.02-3.37-2.76-.25-5.51-.64-8.28-.7-6.41-.14-12.83-.14-19.19.89-4.05.66-8.11,1.28-12.12,2.16-6.48,1.42-12.85,3.28-18.99,5.77-6.28,2.55-12.48,5.31-18.7,8.01-.32.14-.64.55-.74.9-.4,1.31-.73,2.64-1.07,3.97-1.79,7.09-3.46,14.2-4.43,21.46-.59,4.4-1.19,8.8-1.6,13.22-.31,3.31-.32,6.65-.47,10.33Z"/>
  <path class="cls-28" d="m122.85,135.42c.05-.05.09-.1.14-.15-.05.05-.09.1-.14.15Z"/>
  <path class="cls-28" d="m123.03,135.23s.09-.1.14-.14c-.05.05-.09.1-.14.14Z"/>
  <path class="cls-28" d="m123.21,135.02s.08-.09.13-.13c-.04.04-.08.09-.13.13Z"/>
  <path class="cls-28" d="m123.39,134.85s.08-.08.12-.13c-.04.04-.08.08-.12.13Z"/>
  <path class="cls-24" d="m1.76,68.66c.16-3.68.17-7.02.47-10.33.41-4.42,1.01-8.82,1.6-13.22.97-7.25,2.64-14.37,4.43-21.46.34-1.33.66-2.66,1.07-3.97.11-.35.42-.76.74-.9,6.22-2.7,12.42-5.46,18.7-8.01,6.15-2.49,12.52-4.35,18.99-5.77,4.01-.88,8.07-1.5,12.12-2.16,6.36-1.04,12.78-1.04,19.19-.89,2.76.06,5.52.45,8.28.7,6.11.56,12.1,1.81,18.02,3.37,6.68,1.76,13.23,3.95,19.59,6.63,4.48,1.89,8.9,3.9,13.36,5.83.81.35,1.24.89,1.44,1.73,1.17,4.98,2.48,9.94,3.53,14.94.88,4.16,1.55,8.37,2.16,12.59.5,3.46.81,6.95,1.11,10.43.2,2.28.25,4.57.38,6.85.05.91.2,1.83.16,2.74-.15,3.99-.21,8-.58,11.98-.51,5.46-1.45,10.86-2.94,16.15-1.23,4.38-2.79,8.66-4.67,12.81-2.24,4.95-4.88,9.67-8.07,14.05-2.33,3.2-4.87,6.25-7.43,9.28-1.76,2.07-3.6,4.1-5.59,5.94-3.33,3.09-6.77,6.07-10.24,9.01-5.43,4.6-11.22,8.73-17.17,12.62-5.16,3.38-10.37,6.69-15.57,10-.21.13-.66.13-.87,0-8.76-5.52-17.58-10.95-25.79-17.28-3.74-2.88-7.47-5.8-11.04-8.89-3.33-2.88-6.58-5.87-9.6-9.06-5.19-5.48-9.81-11.43-13.6-18.01-2.82-4.89-5.29-9.95-7-15.31-1.4-4.4-2.5-8.92-3.4-13.45-.72-3.63-.98-7.35-1.33-11.04-.26-2.73-.32-5.48-.45-7.88Zm104-2.7c-1.07,0-2.14-.04-3.2-.02-.9.02-1.79.09-2.69.15-1.04.02-2.07.04-3.11.05-2.88-.01-5.75-.03-8.63-.04-.71-.05-1.43-.16-2.14-.15-1.32.01-2.64.09-3.96.14-.98.02-1.96.04-2.94.06-2.89,0-5.77,0-8.66,0-.06-.02-.12-.02-.18,0-2.99,0-5.99,0-8.98,0-.07,0-.13,0-.2,0-.49,0-.99,0-1.48-.01-.07,0-.13,0-.2.01-1.1,0-2.19,0-3.29,0-.07,0-.14,0-.2,0-.12,0-.24,0-.35,0-1,0-2,.01-3,.02-.05.05-.09.1-.14.15-1.34-.02-2.69-.03-4.03-.05-1.73,0-3.46,0-5.19.01-2.87.01-5.74.03-8.62.04h-.01c-.79-.08-1.59-.19-2.38-.19-1.29,0-2.57.09-3.86.14-.92.02-1.83.04-2.75.06-2.89,0-5.77,0-8.66,0-.06,0-.12,0-.18,0H7.39c.17,3.69.27,7.28.52,10.86.21,2.92.43,5.86.96,8.74.68,3.68,1.51,7.35,2.55,10.95,2.71,9.35,7.06,17.92,12.85,25.74.5.67,1,1.34,1.5,2l1.61,2.02c4.91,6.2,10.58,11.63,16.64,16.66,8.55,7.1,17.8,13.2,27.42,18.74,1,.58,2.03,1.6,3.03,1.57,1.03-.02,2.05-1.06,3.06-1.67,8.35-5.03,16.44-10.44,24.1-16.49,7.2-5.69,13.97-11.84,19.74-19,2.83-3.51,5.3-7.31,7.94-10.98.35-.59.71-1.19,1.06-1.78.45-.82.9-1.64,1.36-2.46.16-.25.35-.49.49-.75,4.14-7.88,7.07-16.18,8.29-25.02.5-3.61.76-7.26,1.13-10.89,0-2.08,0-4.17,0-6.25-.01-.78-.02-1.56-.03-2.33-.3-.08-.6-.23-.9-.24-1.98-.02-3.96-.01-5.94,0-.29,0-.58.09-.87.14-.49.02-.97.04-1.46.06-.06,0-.12,0-.18,0h-8.48c-.06,0-.12,0-.19,0-2.76,0-5.51,0-8.27,0-.3,0-.6,0-.9,0-.62,0-1.23,0-1.85-.01h-.2c-1.16.01-2.32.02-3.48.02-1.04,0-2.08,0-3.12,0Zm17.66-47.49c-.21-.12-.4-.28-.63-.36-6.11-2.12-12.22-4.25-18.34-6.34-1.08-.37-2.21-.59-3.32-.88-.04.06-.07.11-.11.17.46.63.93,1.26,1.39,1.89.44.8.9,1.6,1.32,2.41,3.11,5.99,4.37,12.32,3.7,19.06-.36,3.63-1.26,7.08-2.79,10.38-.52,1.13-1.09,2.23-1.68,3.44,1.92.06,3.76.38,5.31-.97.34-.3.73-.55,1.11-.82,4.52-3.25,8.18-7.25,10.68-12.27,2.26-4.54,3.23-9.38,3.36-14.42,3.3,1.4,6.59,2.81,9.89,4.21-.04.13-.08.27-.12.4-2.49,10.92-8.82,18.83-19.1,23.88h25.99c-.25-2.05-.36-3.97-.74-5.83-1.19-5.86-2.52-11.69-3.7-17.56-.26-1.31-.84-2.07-2.11-2.34-1.9-.81-3.79-1.64-5.71-2.41-1.46-.59-2.95-1.1-4.43-1.65Zm-98.24.37c-.32.07-.66.11-.97.23-1.98.78-3.95,1.57-5.91,2.38-1.09.45-2.15.95-3.23,1.43-.73.18-1.6.19-1.8,1.13-.53,2.47-1.06,4.94-1.49,7.43-.59,3.35-1.15,6.71-1.62,10.08-.32,2.28-.46,4.58-.69,6.92h25.3c-1.21-.66-2.21-1.18-3.19-1.75-5.76-3.34-10.31-7.87-13.18-13.9-1.22-2.57-2-5.36-2.98-8.05,0-.06.02-.13.03-.19.34-.11.69-.2,1.02-.34,2.9-1.23,5.8-2.47,8.7-3.71.13,1.24.24,2.49.38,3.73.52,4.57,2.07,8.77,4.5,12.67,2.64,4.22,6.21,7.5,10.23,10.39,1.66,1.2,3.37,1.32,5.38,1.09-.25-.49-.47-.89-.66-1.29-.53-1.1-1.14-2.17-1.58-3.3-1.95-4.98-2.99-10.09-2.42-15.48.32-2.99.8-5.93,1.94-8.71.82-2,1.8-3.94,2.71-5.9.42-.62.84-1.24,1.36-2-.36.05-.54.04-.7.09-3.99,1.22-7.99,2.39-11.95,3.7-3.09,1.02-6.11,2.23-9.17,3.36Zm111.27,40.15c-.18-.08-.36-.22-.54-.22-1.79,0-3.58.01-5.37.02-.61-.79-.28-2.74.57-3.37,1.75,0,3.51.02,5.26.01.22,0,.43-.13.65-.19.07-.42.13-.84.2-1.26.06-.21.12-.43.2-.75-1.99,0-3.85-.01-5.71,0-.45,0-.89.1-1.34.16-1.24.14-1.91.64-2.21,1.83-.29,1.17-.54,2.36-.7,3.56-.17,1.29.31,1.82,1.62,2.02.17.05.34.14.51.15,2.01.01,4.01.01,6.02,0,.15,0,.31-.13.46-.19.12-.59.24-1.18.36-1.77Zm-45.02,1.83c.91-.12,1.65-.48,1.87-1.46.25-1.11.48-2.22.69-3.34.15-.84.26-1.69.39-2.6-.69,0-1.24.03-1.78,0-.62-.05-.76.27-.82.8-.15,1.28-.34,2.57-.58,3.83-.05.26-.37.62-.62.67-.7.15-1.44.2-2.16.22-1.16.03-1.38-.35-1.15-1.52.26-1.29.43-2.6.64-3.95h-2.48c-.07.38-.16.72-.21,1.08-.21,1.55-.47,3.1-.61,4.66-.08.96.49,1.5,1.44,1.61,1.79,0,3.58,0,5.37,0Zm-24.32,0c1.79,0,3.58,0,5.37,0,1.32-.23,2.06-1.02,2.19-2.32.03-.3.06-.6.11-.9.21-1.36.43-2.72.66-4.18-.59,0-1.11.03-1.62,0-.69-.06-.94.19-1,.91-.1,1.25-.33,2.5-.57,3.74-.05.26-.37.6-.62.66-.67.15-1.37.2-2.07.21-1.26.03-1.47-.31-1.23-1.53.26-1.29.43-2.6.64-3.95h-2.5c-.06.35-.11.68-.16,1-.22,1.58-.5,3.16-.64,4.74-.09.96.49,1.5,1.44,1.61Zm-46.91,0c1.73,0,3.46,0,5.19-.01,1.37-.27,2.11-1.14,2.21-2.52.05-.69.17-1.37.32-2.05.36-1.65-.09-2.6-1.4-2.85-1.8,0-3.61,0-5.41,0-1.18.14-1.86.93-2.11,1.97-.27,1.14-.35,2.34-.42,3.52-.07,1.14.45,1.7,1.62,1.93Zm94.74-1.85c-.45-.05-.82-.18-.71-.75,1.83,0,3.65,0,5.48-.03.31,0,.61-.13.92-.2.07-.6.14-1.2.21-1.79-.31-.06-.62-.18-.93-.18-1.77-.02-3.54-.02-5.3-.03.3-.25.59-.5.89-.75,1.69,0,3.38.02,5.07.02.15,0,.3-.12.45-.19.07-.36.14-.72.21-1.08.05-.21.11-.43.19-.74-2.11,0-4.09,0-6.06,0-.44,0-.89.1-1.33.15-.92.09-1.41.69-1.62,1.51-.3,1.16-.51,2.35-.78,3.52-.34,1.51,0,2.09,1.5,2.38.05.03.1.09.15.09,2.21.02,4.42.05,6.63.04.13,0,.26-.24.39-.36.05-.48.11-.95.16-1.43-.18-.07-.36-.2-.53-.2-1.65,0-3.3.01-4.96.02Zm-54.57-10.48c.17.05.33.14.5.14,3.67,0,7.33,0,11,0,.2,0,.4-.09.6-.14.06-.02.13-.04.19-.06h27.31c1.79-3.65,2.49-7.56,2.62-11.57.05-1.41-.22-2.83-.34-4.25-.23-2.68-1.02-5.21-2.13-7.64-2.37-5.19-5.96-9.31-10.8-12.38-3.91-2.48-8.17-3.83-12.72-4.2-2.99-.24-5.99-.05-8.93.69-6,1.51-11.02,4.59-14.97,9.35-3.29,3.97-5.41,8.49-6.22,13.63-.43,2.7-.43,5.37-.14,8.06.28,2.68,1.04,5.24,2.15,7.69.13.28.52.62.8.62,3.68.03,7.35.01,11.03,0l.05.05Zm40.56,9.47c-.8-1.24-1.67-2.72-2.69-4.1-.3-.41-1.01-.73-1.51-.7-.39.03-.97.63-1.06,1.05-.45,2.21-.77,4.44-1.14,6.69h2.29c.19-1.17.38-2.27.6-3.61.75,1.17,1.33,2.1,1.93,3.01.71,1.07,1.67,1.19,2.62.3.47-.44.9-.92,1.36-1.37.58-.58,1.16-1.15,1.91-1.88-.23,1.27-.43,2.26-.58,3.26-.02.14.09.38.21.46.87.58,2.22-.09,2.38-1.12.27-1.77.56-3.55.89-5.31.23-1.26-.45-1.9-1.67-1.46-.41.15-.79.44-1.12.74-1.48,1.32-2.94,2.67-4.42,4.03Zm-43.02-.02c.04.05-.09-.12-.2-.29-.81-1.26-1.62-2.53-2.43-3.78-.38-.58-.89-.96-1.62-.74-.67.21-.99.66-1.07,1.41-.14,1.27-.4,2.52-.62,3.77-.15.87-.31,1.73-.46,2.6h2.3c.2-1.17.4-2.27.63-3.59.66,1.03,1.19,1.84,1.71,2.66.99,1.55,1.83,1.63,3.14.33.93-.92,1.87-1.83,2.84-2.79-.14,1.22-.28,2.39-.43,3.72.95-.12,1.7-.22,2.34-.31.36-2.12.73-4.08,1.01-6.04.07-.51.07-1.32-.22-1.51-.4-.27-1.12-.17-1.68-.08-.31.05-.59.41-.86.65-1.46,1.32-2.9,2.64-4.39,3.99Zm-42.73-.5c-.07.06-.15.13-.22.19-.14-.23-.24-.49-.42-.68-1-1.12-1.96-2.28-3.05-3.31-.37-.35-1.12-.54-1.63-.44-.4.08-.87.67-.99,1.11-.34,1.25-.52,2.53-.74,3.81-.16.91-.27,1.83-.41,2.79h2.36c.23-1.42.45-2.79.68-4.17.09-.06.19-.12.28-.19.16.26.29.55.49.77,1.03,1.13,2.06,2.27,3.14,3.36.83.85,2.2.54,2.4-.54.41-2.21.74-4.44,1.12-6.69h-2.29c-.24,1.34-.47,2.66-.71,3.98Zm30.01,3.59c.9-.08,1.84-.16,2.85-.25-.98-2.34-1.88-4.54-2.84-6.72-.15-.34-.53-.66-.88-.81-1.05-.43-2.08-.06-2.86.97-1.55,2.05-3.09,4.11-4.62,6.17-.1.13-.17.29-.32.58.83,0,1.53.08,2.21-.03.45-.07,1-.32,1.26-.67.43-.58.86-.86,1.58-.78.48.06.98.01,1.47.01q1.54,0,2.15,1.53Zm-16.63-7.57c.92,2.21,1.82,4.38,2.73,6.54.46,1.09,1.25,1.47,2.36,1.02.54-.22,1.1-.57,1.45-1.02,1.55-1.97,3.03-4,4.52-6.01.11-.15.17-.34.29-.57-.75,0-1.4.06-2.03-.01-.71-.08-1.11.22-1.49.78-.74,1.12-1.55,2.2-2.35,3.28-.16.22-.37.41-.63.69-.69-1.66-1.31-3.16-1.94-4.7h-2.91Zm93.81,7.51c1.32,0,1.64-.28,1.57-1.58-.04-.82-.76-.41-1.15-.43-1.34-.05-1.54.17-1.59,1.24-.05,1,.64.74,1.18.77Zm17.49-2.03c-.62,0-1.2-.03-1.77,0-.8.06-.75.69-.69,1.22.03.28.28.75.45.76,1.73.09,2.42.13,2.01-1.99Z"/>
  <path class="cls-2" d="m60.32,48.43c-3.68,0-7.35.03-11.03,0-.27,0-.67-.34-.8-.62-1.11-2.45-1.86-5.01-2.15-7.69-.29-2.69-.28-5.36.14-8.06.81-5.14,2.93-9.66,6.22-13.63,3.95-4.76,8.97-7.84,14.97-9.35,2.95-.74,5.95-.93,8.93-.69,4.55.37,8.82,1.72,12.72,4.2,4.84,3.07,8.43,7.19,10.8,12.38,1.11,2.43,1.9,4.96,2.13,7.64.12,1.42.39,2.84.34,4.25-.14,4.01-.84,7.92-2.62,11.57-9.11,0-18.21,0-27.31,0,1.51-3.82,3.95-6.64,8.17-7.53.17-.04.31-.22.46-.33.92-.14,1.84-.28,2.76-.42,1.27-.29,2.49-.25,3.66.53.14-1.99-.26-3.68-1.62-5.06-.79-.64-1.58-1.27-2.37-1.91-1.53-.67-2.23-2.01-2.93-3.42-1.2-2.4-3.22-3.84-5.91-4.05-1.56-.12-3.16.02-4.73.15-2.8.22-4.59,1.85-5.81,4.29-1.2,2.4-1.61,5.02-2.14,7.6-.69,3.37-1.25,6.77-1.86,10.16Zm18.54-21.44c.12.03.24.06.36.09,1.07-2.26,2.55-4.03,5.17-4.44.05,0,.1-.07.15-.1.94-.52,1.32-1.19,1.16-2.26-.14-.9-.72-1.45-1.58-1.7-1.05-.31-2.53.19-3.16,1.31-.73,1.31-1.37,2.69-1.82,4.12-.3.93-.19,1.98-.27,2.98Zm-2.25-1.07c.12-.44.23-.71.25-.98.19-1.95.81-3.64,2.49-4.87.48-.35.88-1.06.97-1.65.21-1.36-.7-2.8-2.37-2.28-1.1.34-1.9,1.29-2.14,2.36-.55,2.47-.25,4.91.8,7.43Zm-2.51-.77c0-.3.03-.45,0-.59-.53-1.99-.6-3.91.48-5.79.29-.5.37-1.23.27-1.81-.09-.52-.45-1.11-.86-1.44-.56-.44-1.25-.18-1.76.27-1,.88-1.56,2.18-1.09,3.6.21.64.35,1.3.59,1.92.53,1.39,1.17,2.72,2.37,3.85Zm-3.26-.07c.06-.06.12-.11.17-.17-.13-.27-.26-.53-.39-.8-.8-1.58-1.27-3.2-.77-5,.14-.51.17-1.15-.01-1.63-.2-.52-.63-1.18-1.09-1.31-.5-.14-1.31.09-1.72.45-.78.71-1.11,1.79-.73,2.78.91,2.36,2.42,4.28,4.54,5.68Zm-2.51.79c.13-.17.27-.33.4-.5-.31-.13-.66-.2-.91-.41-1.08-.88-1.97-1.91-2.38-3.28-.13-.43-.21-.88-.36-1.29-.32-.85-.98-1.21-1.99-1.01-.77.15-1.01.83-.93,1.46.08.66.25,1.49.7,1.87,1.15.97,2.46,1.77,3.75,2.56.51.31,1.15.41,1.73.6Zm-2.16.97c-1.55-.52-2.65-1.32-3.41-2.59-.39-.65-1.09-.64-1.63-.1-.61.62-.54,1.29.28,1.88,1.38.98,2.91,1.31,4.76.81Zm-2.39,2.02c-.75-.4-1.38-.78-2.05-1.07-.39-.17-.84-.24-1.26-.24-.12,0-.39.51-.32.65.19.37.47.8.83.95.97.4,1.91.09,2.8-.29Zm-.41,1.81c-.03-.1-.06-.2-.09-.3-.61,0-1.21-.01-1.82,0-.27,0-.58,0-.79.12-.11.07-.15.53-.05.62.22.2.6.43.83.36.66-.2,1.29-.54,1.92-.82Z"/>
  <path class="cls-2" d="m115.32,65.96c2.76,0,5.51,0,8.27,0,0,11.88,0,23.76.02,35.63,0,.37.13.74.2,1.11,2.37,1.64,4.73,3.28,7.15,4.96.42-.72.85-1.46,1.28-2.2.07-.37.19-.74.19-1.11.01-12.8.01-25.6.02-38.4.49-.02.97-.04,1.46-.06.37.01.73.03,1.1.03,2.2.02,4.4.04,6.61.06.01.78.02,1.56.03,2.33,0,2.08,0,4.17,0,6.25-.37,3.63-.63,7.27-1.13,10.89-1.21,8.84-4.15,17.14-8.29,25.02-.14.26-.33.5-.49.75-.74-.52-1.47-1.04-2.21-1.56,0,0-.02,0-.02,0-.06-.07-.12-.13-.19-.2-.06-.07-.12-.14-.19-.2-5.55-4.17-11.1-8.35-16.69-12.47-.38-.28-1.11-.33-1.6-.2-4.22,1.21-8.43,2.48-12.64,3.74-4.23,1.27-8.46,2.56-12.7,3.84-1.38-1.89-2.76-3.79-4.14-5.68-.77-1.05-1.54-2.1-2.31-3.16,0-.34.02-.67.02-1.01,0-9.41,0-18.82,0-28.22.98-.02,1.96-.04,2.94-.06,1.96.02,3.92.04,5.89.06,0,11.23,0,22.45,0,33.68,0,.35.09.71.14,1.06.01.06.02.13.03.19.12,0,.25.02.37.02,2.45-.72,4.89-1.49,7.36-2.11.84-.21.93-.59.93-1.31-.01-10.52,0-21.03,0-31.55,1.04-.02,2.07-.04,3.11-.05,1.95.01,3.91.02,5.86.04v30.06c1.21-.36,2.26-.66,3.31-.99,2.78-.87,2.81-.87,5.17.94.06-.01.13-.02.19-.03.01-.06.02-.12.04-.18.05-.35.14-.71.14-1.06,0-9.27.01-18.53-.01-27.8,0-.63.18-.95.75-1.09Z"/>
  <path class="cls-2" d="m48.38,66.27c1.34.02,2.69.03,4.03.05,0,3.36,0,6.73.02,10.09,0,.3.12.61.19.91,1.49.13,3,.21,4.48.4,1.32.17,2.63.47,3.95.71.07-.3.19-.61.19-.91.02-3.79.03-7.58.03-11.37,2.99,0,5.99,0,8.98,0,0,5.47,0,10.93,0,16.4,0,.35.1.7.16,1.05,3.76,3.26,6.42,7.27,8.01,11.98.89,3.45,1.29,6.94.78,10.5-.64.18-1.28.36-1.92.54.04-1.65.23-3.31.1-4.95-.18-2.12-.37-4.3-.99-6.31-1.7-5.44-5.03-9.74-9.84-12.84-4.14-2.66-8.68-3.85-13.62-3.74-4.02.09-7.77,1.05-11.2,3.07-6.8,4-10.83,9.93-11.96,17.78-.39,2.72-.31,5.44.26,8.08.58,2.65,1.53,5.22,3.07,7.5.88,1.31,1.85,2.57,2.77,3.85l-8.85,2.65c-.92.3-1.83.61-2.75.91-5.8-7.83-10.15-16.39-12.85-25.74-1.04-3.6-1.88-7.26-2.55-10.95-.53-2.87-.76-5.82-.96-8.74-.26-3.58-.35-7.17-.52-10.86h9.34c0,12.76,0,25.52,0,38.28,0,.35.1.71.15,1.06,2.59,4.92,5.37,9.72,8.68,14.47v-53.81c.92-.02,1.83-.04,2.75-.06,2.08.01,4.16.02,6.24.03,0,0,.01.01.01.01,0,6.23,0,12.46,0,18.88,2.62-2.59,5.45-4.48,8.63-5.84.07-.34.19-.68.19-1.03.02-4,.01-7.99.01-11.99,1.66-.02,3.31-.05,4.97-.07Z"/>
  <path class="cls-14" d="m123.43,19.76c-.14,5.04-1.1,9.88-3.36,14.42-2.5,5.01-6.16,9.01-10.68,12.27-.37.27-.76.52-1.11.82-1.55,1.36-3.39,1.03-5.31.97.59-1.21,1.16-2.32,1.68-3.44,1.52-3.3,2.43-6.75,2.79-10.38.66-6.74-.59-13.07-3.7-19.06-.42-.81-.88-1.61-1.32-2.41.09,0,.19,0,.27.02,6.16,1.52,12.2,3.41,18.1,5.75.84.33,1.72.59,2.58.88.02.06.03.11.06.17Z"/>
  <path class="cls-14" d="m25.57,66.33v53.81c-3.31-4.75-6.09-9.55-8.68-14.47,0-.15.03-.31.03-.46,0-12.96,0-25.92,0-38.88,2.89,0,5.77,0,8.66,0Z"/>
  <path class="cls-14" d="m45.65,13.68c-.91,1.97-1.89,3.9-2.71,5.9-1.14,2.78-1.63,5.73-1.94,8.71-.57,5.38.47,10.5,2.42,15.48.44,1.13,1.05,2.21,1.58,3.3.2.4.41.8.66,1.29-2,.22-3.71.1-5.38-1.09-4.01-2.89-7.59-6.17-10.23-10.39-2.43-3.89-3.99-8.1-4.5-12.67-.14-1.24-.25-2.49-.38-3.73.02-.05.04-.11.05-.17.18-.04.36-.06.53-.12,5.27-1.83,10.54-3.69,15.82-5.49,1.32-.45,2.71-.69,4.06-1.03Z"/>
  <path class="cls-4" d="m81.3,40.58c-.15.11-.29.29-.46.33-4.22.89-6.65,3.71-8.17,7.53-.06.02-.13.04-.19.06-4.03,0-8.07,0-12.1,0,0,0-.05-.05-.05-.05.62-3.39,1.18-6.79,1.86-10.16.53-2.58.94-5.19,2.14-7.6,1.21-2.44,3.01-4.06,5.81-4.29,1.57-.13,3.17-.27,4.73-.15,2.69.21,4.71,1.65,5.91,4.05.71,1.41,1.4,2.75,2.93,3.42-.69.21-1.52.23-2.03.65-1.17.97-2.2,2.11-3.23,3.23-.19.21-.24.75-.11,1.03.57,1.22,1.57,1.9,2.94,1.95Zm-3.07-6.27q-.76-1.98-3.53-1.07c.85,1.3,1.92,2.04,3.53,1.07Z"/>
  <path class="cls-14" d="m132.23,105.47c-.43.74-.86,1.48-1.28,2.2-2.42-1.68-4.78-3.32-7.15-4.96,0-.43-.02-.86-.02-1.29,0-11.82,0-23.64,0-35.46,2.83,0,5.65,0,8.48,0,0,1.41,0,2.82,0,4.23,0,11.76,0,23.52-.01,35.28Z"/>
  <path class="cls-1" d="m129.32,115.49c-2.63,3.67-5.11,7.46-7.94,10.98-5.77,7.16-12.54,13.31-19.74,19-7.66,6.05-15.75,11.46-24.1,16.49-1.01.61-2.03,1.65-3.06,1.67-1,.02-2.03-.99-3.03-1.57-9.62-5.54-18.87-11.64-27.42-18.74-6.06-5.03-11.74-10.47-16.64-16.66.92-.29,1.84-.59,2.77-.88.13.27.21.59.41.8,1.11,1.26,2.2,2.54,3.37,3.74,4.04,4.14,8.11,8.24,12.7,11.78,4.39,3.39,8.76,6.82,13.32,9.98,4.44,3.07,9.1,5.83,13.69,8.68.33.2,1,.2,1.33,0,2.86-1.76,5.7-3.56,8.5-5.41,6.52-4.31,12.94-8.76,18.9-13.82,2.86-2.43,5.73-4.85,8.48-7.4,3.72-3.46,7.18-7.18,10.27-11.21,2.19-2.85,4.14-5.89,6.19-8.84.67.47,1.34.95,2.01,1.42Z"/>
  <path class="cls-14" d="m88.1,101.08c-.01-.06-.02-.13-.03-.19.01-.12.03-.24.03-.36,0-11.46,0-22.92,0-34.38l.04-.05c2.88.01,5.75.03,8.63.04,0,10.52-.02,21.03,0,31.55,0,.72-.09,1.1-.93,1.31-2.47.62-4.91,1.4-7.36,2.11-.12,0-.25-.02-.37-.02Z"/>
  <path class="cls-14" d="m114.44,95.92c-.01.06-.02.12-.04.18-.06.01-.13.02-.19.03-2.36-1.82-2.39-1.82-5.17-.94-1.05.33-2.1.63-3.31.99v-30.06s.08,0,.08,0c1.03-.05,2.05-.11,3.08-.16,1.16,0,2.32,0,3.48,0,.07,0,.13,0,.2-.01.62,0,1.23,0,1.85.01,0,8.67-.01,17.34-.01,26.01,0,1.32.02,2.63.03,3.95Z"/>
  <path class="cls-14" d="m137.94,48.26h-23.84c10.28-5.05,16.61-12.96,19.1-23.88.1.14.26.27.31.43.33,1.2.67,2.41.93,3.63.87,4.04,1.78,8.08,2.53,12.14.46,2.54.66,5.12.97,7.68Z"/>
  <path class="cls-14" d="m15.43,24.73c.98,2.69,1.76,5.48,2.98,8.05,2.87,6.03,7.42,10.57,13.18,13.9.98.57,1.98,1.09,3.19,1.75-8.05,0-15.89,0-23.73,0,.06-.27.13-.53.17-.8.38-2.89.68-5.8,1.15-8.68.72-4.44,1.55-8.87,2.38-13.29.06-.34.45-.62.69-.93Z"/>
  <path class="cls-14" d="m78.43,95.57c-1.6-4.71-4.25-8.72-8.01-11.98,0-5.82,0-11.64,0-17.45,2.89,0,5.77,0,8.66,0,0,9.41,0,18.82,0,28.22,0,.34-.01.67-.02,1.01-.15-.1-.29-.19-.45-.3-.06.17-.12.33-.18.49Z"/>
  <path class="cls-20" d="m129.32,115.49c-.67-.47-1.34-.95-2.01-1.42-2.55-1.9-5.11-3.77-7.64-5.7-.65-.5-1.26-.54-2.03-.37-3.06.69-6.13,1-9.29.66-3.46-.37-6.66-1.44-9.7-3.08-.4-.22-1.01-.25-1.47-.14-1.37.33-2.73.76-4.08,1.18-1.7.53-3.39,1.1-5.08,1.65-.41-.66-.81-1.32-1.22-1.98,1.23-.37,2.47-.73,3.7-1.1,6.45-1.93,12.89-3.85,19.33-5.8.66-.2,1.14-.13,1.68.29,2.04,1.56,4.11,3.09,6.17,4.62,3.54,2.62,7.08,5.24,10.61,7.86.69.52,1.37,1.04,2.06,1.56-.35.59-.71,1.19-1.06,1.78Zm-28.14-11.33c4.86,3.04,9.84,3.45,15.2,1.78-2.02-1.49-3.96-2.92-5.91-4.33-.14-.1-.44-.07-.64,0-2.82.82-5.64,1.66-8.65,2.55Z"/>
  <path class="cls-14" d="m43.2,79.36c-3.18,1.36-6.01,3.25-8.63,5.84,0-6.43,0-12.65,0-18.88,2.87-.01,5.74-.03,8.62-.04,0,0,.06.04.06.04-.02,4.34-.03,8.69-.05,13.03Z"/>
  <path class="cls-14" d="m61.04,78.43c-1.31-.24-2.62-.54-3.95-.71-1.49-.19-2.99-.27-4.48-.4,0-3.67,0-7.33,0-11,.98-.05,1.96-.11,2.94-.16.12,0,.24,0,.35,0,.07,0,.14,0,.2,0,1.1,0,2.19,0,3.29,0,.07,0,.13,0,.2-.01.49,0,.99,0,1.48.01-.01,4.09-.02,8.19-.03,12.28Z"/>
  <path class="cls-23" d="m100.94,57.96c1.48-1.36,2.94-2.7,4.42-4.03.33-.3.71-.59,1.12-.74,1.22-.44,1.9.2,1.67,1.46-.32,1.77-.62,3.54-.89,5.31-.16,1.03-1.51,1.7-2.38,1.12-.12-.08-.23-.32-.21-.46.16-1,.35-2,.58-3.26-.74.74-1.33,1.31-1.91,1.88-.46.45-.89.93-1.36,1.37-.95.88-1.91.77-2.62-.3-.6-.92-1.18-1.85-1.93-3.01-.22,1.34-.41,2.44-.6,3.61h-2.29c.37-2.24.69-4.48,1.14-6.69.09-.43.67-1.02,1.06-1.05.49-.04,1.21.29,1.51.7,1.01,1.38,1.89,2.86,2.69,4.1Z"/>
  <path class="cls-23" d="m57.92,57.94c1.48-1.35,2.93-2.67,4.39-3.99.27-.24.54-.6.86-.65.56-.1,1.28-.19,1.68.08.29.19.29,1.01.22,1.51-.28,1.96-.65,3.92-1.01,6.04-.65.09-1.4.18-2.34.31.15-1.34.29-2.5.43-3.72-.98.96-1.92,1.87-2.84,2.79-1.31,1.3-2.16,1.22-3.14-.33-.52-.82-1.05-1.64-1.71-2.66-.23,1.32-.43,2.42-.63,3.59h-2.3c.15-.86.31-1.73.46-2.6.22-1.26.48-2.51.62-3.77.08-.75.41-1.2,1.07-1.41.73-.23,1.24.16,1.62.74.82,1.26,1.62,2.52,2.43,3.78.11.18.24.35.2.29Z"/>
  <path class="cls-21" d="m137.94,48.26c-.32-2.56-.51-5.15-.97-7.68-.75-4.07-1.66-8.1-2.53-12.14-.26-1.22-.61-2.42-.93-3.63-.04-.16-.2-.29-.31-.43.04-.13.08-.27.12-.4.08-.48.16-.96.24-1.44,1.27.27,1.84,1.02,2.11,2.34,1.18,5.86,2.51,11.7,3.7,17.56.38,1.87.49,3.79.74,5.83h-2.16Z"/>
  <path class="cls-18" d="m115.49,55.23c-.3.25-.59.5-.89.75.27.07.54.19.82.19,1.81.02,3.61.01,5.42.02-.07.6-.14,1.2-.21,1.79-1.86,0-3.72.01-5.58.04-.27,0-.54.13-.82.19-.11.58.26.71.71.75.32.05.64.14.96.15,1.51.02,3.02.03,4.53.03-.05.48-.11.95-.16,1.43-.35.07-.7.19-1.04.19-2.04.03-4.09.03-6.13.04-1.49-.29-1.84-.87-1.5-2.38.27-1.17.48-2.36.78-3.52.21-.81.7-1.41,1.62-1.51,2.14,0,4.28.02,6.42.02.41,0,.83-.04.79.56-.07.36-.14.72-.21,1.08-.88,0-1.76,0-2.64.02-.96.03-1.92.1-2.87.15Z"/>
  <path class="cls-23" d="m15.19,57.44c.23-1.32.47-2.63.71-3.98h2.29c-.37,2.25-.71,4.48-1.12,6.69-.2,1.08-1.56,1.38-2.4.54-1.08-1.09-2.11-2.23-3.14-3.36-.2-.22-.33-.51-.49-.77-.09.06-.19.12-.28.19-.22,1.37-.45,2.75-.68,4.17h-2.36c.14-.96.25-1.88.41-2.79.22-1.28.4-2.57.74-3.81.12-.45.59-1.03.99-1.11.5-.1,1.25.09,1.63.44,1.09,1.02,2.06,2.19,3.05,3.31.17.2.28.45.42.68.07-.06.15-.13.22-.19Z"/>
  <path class="cls-18" d="m26.52,53.4c1.31.25,1.76,1.2,1.4,2.85-.15.67-.27,1.36-.32,2.05-.1,1.38-.84,2.25-2.21,2.52-1.73,0-3.46,0-5.19.01-1.17-.23-1.69-.79-1.62-1.93.07-1.18.15-2.37.42-3.52.24-1.05.92-1.83,2.11-1.97,1.8,0,3.61,0,5.41,0Zm-1.09,2.23c-1.28,0-2.38-.05-3.48.01-1.13.06-.71,1.11-.89,1.71-.14.45.09,1.02.19,1.53,0,.05.28.05.43.05.7,0,1.42.06,2.11-.02.4-.05,1.03-.26,1.12-.53.28-.84.35-1.75.51-2.75Z"/>
  <path class="cls-23" d="m45.2,61.03q-.61-1.53-2.15-1.53c-.49,0-.98.04-1.47-.01-.72-.08-1.16.2-1.58.78-.26.35-.8.6-1.26.67-.67.11-1.38.03-2.21.03.16-.28.22-.44.32-.58,1.54-2.06,3.07-4.12,4.62-6.17.78-1.03,1.81-1.4,2.86-.97.35.14.73.47.88.81.96,2.18,1.86,4.38,2.84,6.72-1.02.09-1.95.17-2.85.25Zm-2.06-5.09c-.4.58-.74,1.06-1.12,1.61h1.78c-.24-.59-.43-1.05-.66-1.61Z"/>
  <path class="cls-21" d="m15.43,24.73c-.24.31-.63.59-.69.93-.83,4.42-1.65,8.85-2.38,13.29-.47,2.88-.77,5.79-1.15,8.68-.04.27-.11.54-.17.8-.49,0-.97,0-1.57,0,.23-2.34.37-4.64.69-6.92.47-3.37,1.03-6.73,1.62-10.08.44-2.49.96-4.96,1.49-7.43.2-.94,1.08-.95,1.8-1.13.13.55.25,1.1.38,1.66,0,.06-.02.13-.03.19Z"/>
  <path class="cls-18" d="m67.11,60.81c-.96-.11-1.53-.65-1.44-1.61.15-1.59.42-3.16.64-4.74.05-.32.1-.65.16-1h2.5c-.22,1.35-.39,2.65-.64,3.95-.24,1.22-.02,1.55,1.23,1.53.69-.02,1.39-.07,2.07-.21.25-.05.57-.4.62-.66.24-1.24.46-2.49.57-3.74.06-.72.31-.96,1-.91.51.04,1.03,0,1.62,0-.23,1.46-.45,2.82-.66,4.18-.05.3-.08.6-.11.9-.13,1.31-.87,2.09-2.19,2.32-1.79,0-3.58,0-5.37,0Z"/>
  <path class="cls-18" d="m86.06,60.81c-.95-.11-1.52-.65-1.44-1.61.13-1.56.39-3.11.61-4.66.05-.35.14-.7.21-1.08h2.48c-.21,1.35-.38,2.66-.64,3.95-.24,1.17,0,1.55,1.15,1.52.72-.02,1.45-.07,2.16-.22.25-.05.57-.41.62-.67.24-1.27.42-2.55.58-3.83.06-.54.2-.85.82-.8.54.04,1.1,0,1.78,0-.13.91-.24,1.76-.39,2.6-.21,1.12-.43,2.23-.69,3.34-.22.98-.96,1.34-1.87,1.46-1.79,0-3.58,0-5.37,0Z"/>
  <path class="cls-18" d="m129.1,60.81c-1.32-.2-1.8-.73-1.62-2.02.16-1.2.4-2.38.7-3.56.3-1.19.96-1.69,2.21-1.83,2.02,0,4.03.01,6.05.01.41,0,.83-.04.79.57-.07.42-.13.84-.2,1.26-1.38,0-2.75,0-4.13.03-.6.01-1.19.1-1.78.16-.85.62-1.18,2.57-.57,3.37.32.05.64.14.97.14,1.65.03,3.3.04,4.95.05-.12.59-.24,1.18-.36,1.77-2.33.02-4.66.03-6.99.05Z"/>
  <path class="cls-23" d="m28.57,53.46h2.91c.63,1.53,1.25,3.04,1.94,4.7.26-.28.47-.46.63-.69.79-1.09,1.6-2.16,2.35-3.28.38-.56.78-.86,1.49-.78.63.07,1.28.01,2.03.01-.12.23-.18.42-.29.57-1.5,2.01-2.97,4.04-4.52,6.01-.35.45-.91.8-1.45,1.02-1.11.45-1.9.07-2.36-1.02-.91-2.16-1.8-4.33-2.73-6.54Z"/>
  <path class="cls-21" d="m45.65,13.68c-1.36.34-2.75.59-4.06,1.03-5.28,1.8-10.55,3.66-15.82,5.49-.17.06-.35.08-.53.12-.02-.49-.03-.99-.05-1.48,3.05-1.13,6.08-2.34,9.17-3.36,3.96-1.31,7.96-2.48,11.95-3.7.16-.05.34-.05.7-.09-.52.76-.94,1.38-1.36,2Z"/>
  <path class="cls-21" d="m123.38,19.59c-.86-.29-1.74-.54-2.58-.88-5.9-2.34-11.94-4.23-18.1-5.75-.09-.02-.18-.01-.27-.02-.46-.63-.93-1.26-1.39-1.89.04-.06.07-.11.11-.17,1.11.29,2.24.51,3.32.88,6.12,2.09,12.23,4.22,18.34,6.34.22.08.42.24.63.36-.01.37-.03.75-.04,1.12Z"/>
  <path class="cls-23" d="m84.76,53.44c-.1.65-.2,1.3-.31,2-.8,0-1.53.03-2.26-.01-.63-.04-.84.22-.91.82-.15,1.28-.37,2.56-.57,3.83-.1.65-.43,1.03-1.17.9-.3-.05-.61,0-.92-.01-.47-.01-.66-.08-.53-.71.34-1.55.52-3.13.78-4.81h-3c.18-.76.32-1.39.47-2.02,2.8,0,5.61,0,8.41,0Z"/>
  <path class="cls-20" d="m30.17,125.76c-.92.29-1.84.59-2.77.88l-1.61-2.02c.93-.3,1.85-.6,2.78-.9,3.11-.93,6.21-1.86,9.32-2.8.73.6,1.47,1.21,2.2,1.81-3.31,1.01-6.61,2.01-9.92,3.02Z"/>
  <path class="cls-15" d="m25.18,18.84c.02.49.03.99.05,1.48-.01.06-.03.11-.05.17-2.9,1.24-5.8,2.48-8.7,3.71-.33.14-.68.23-1.02.34-.13-.55-.25-1.1-.38-1.66,1.08-.48,2.14-.98,3.23-1.43,1.96-.81,3.94-1.6,5.91-2.38.31-.12.64-.16.97-.23Z"/>
  <path class="cls-15" d="m123.38,19.59c.01-.37.03-.75.04-1.12,1.48.55,2.97,1.06,4.43,1.65,1.92.77,3.81,1.61,5.71,2.41-.08.48-.16.96-.24,1.44-3.3-1.4-6.59-2.81-9.89-4.21-.02-.06-.04-.11-.06-.17Z"/>
  <path class="cls-7" d="m132.23,105.47c0-11.76,0-23.52.01-35.28,0-1.41,0-2.82,0-4.23.06,0,.12,0,.18,0,0,12.8,0,25.6-.02,38.4,0,.37-.12.74-.19,1.11Z"/>
  <path class="cls-11" d="m16.91,66.33c0,12.96,0,25.92,0,38.88,0,.15-.02.31-.03.46-.05-.35-.15-.71-.15-1.06,0-12.76,0-25.52,0-38.28.06,0,.12,0,.18,0Z"/>
  <path class="cls-1" d="m130.38,113.7c-.69-.52-1.37-1.04-2.06-1.56.62-.72,1.33-1.39,1.21-2.46.74.52,1.47,1.04,2.21,1.56-.45.82-.9,1.64-1.36,2.46Z"/>
  <path class="cls-8" d="m123.77,65.96c0,11.82,0,23.64,0,35.46,0,.43.01.86.02,1.29-.07-.37-.2-.74-.2-1.11-.01-11.88-.01-23.76-.02-35.63.06,0,.12,0,.19,0Z"/>
  <path class="cls-1" d="m28.57,123.73c-.93.3-1.85.6-2.78.9-.5-.67-1-1.34-1.5-2,.92-.3,1.83-.61,2.75-.91.51.67,1.02,1.35,1.54,2.02Z"/>
  <path class="cls-27" d="m114.44,95.92c-.01-1.32-.03-2.63-.03-3.95,0-8.67,0-17.34.01-26.01.3,0,.6,0,.9,0-.57.15-.76.47-.75,1.09.03,9.27.02,18.53.01,27.8,0,.35-.09.71-.14,1.06Z"/>
  <path class="cls-23" d="m122.38,60.97c-.53-.04-1.23.23-1.18-.77.05-1.07.25-1.29,1.59-1.24.39.02,1.11-.39,1.15.43.07,1.31-.25,1.58-1.57,1.58Z"/>
  <path class="cls-18" d="m139.87,58.94c.41,2.12-.28,2.08-2.01,1.99-.17,0-.42-.48-.45-.76-.06-.53-.11-1.16.69-1.22.57-.04,1.15,0,1.77,0Z"/>
  <path class="cls-27" d="m70.43,66.14c0,5.82,0,11.64,0,17.45-.06-.35-.16-.7-.16-1.05-.01-5.47,0-10.93,0-16.4.06-.03.12-.03.18,0Z"/>
  <path class="cls-7" d="m61.04,78.43c.01-4.09.02-8.19.03-12.28.07,0,.13,0,.2,0,0,3.79-.01,7.58-.03,11.37,0,.3-.13.61-.19.91Z"/>
  <path class="cls-12" d="m60.37,48.49c4.03,0,8.07,0,12.1,0-.2.05-.4.14-.6.14-3.67,0-7.33,0-11,0-.17,0-.33-.09-.5-.14Z"/>
  <path class="cls-8" d="m52.61,66.31c0,3.67,0,7.33,0,11-.07-.3-.19-.6-.19-.91-.02-3.36-.01-6.73-.02-10.09.05-.05.09-.1.14-.15.01.05.03.1.06.14Z"/>
  <path class="cls-26" d="m121.21,53.98c.03-.61-.38-.56-.79-.56-2.14,0-4.28-.01-6.42-.02.44-.05.89-.15,1.33-.15,1.98-.02,3.95,0,6.06,0-.08.32-.13.53-.19.74Z"/>
  <path class="cls-6" d="m141.6,65.99c-2.2-.02-4.4-.04-6.61-.06-.37,0-.73-.02-1.1-.03.29-.05.58-.14.87-.14,1.98-.01,3.96-.02,5.94,0,.3,0,.6.15.9.24Z"/>
  <path class="cls-26" d="m137.22,53.98c.04-.61-.38-.57-.79-.57-2.02,0-4.03,0-6.05-.01.45-.06.89-.15,1.34-.16,1.86-.02,3.71,0,5.71,0-.09.32-.15.53-.2.75Z"/>
  <path class="cls-28" d="m113.1,60.81c2.04,0,4.09-.01,6.13-.04.35,0,.7-.12,1.04-.19-.13.13-.26.36-.39.36-2.21,0-4.42-.02-6.63-.04-.05,0-.1-.06-.15-.09Z"/>
  <path class="cls-28" d="m129.1,60.81c2.33-.02,4.66-.03,6.99-.05-.15.07-.31.19-.46.19-2.01.01-4.01.01-6.02,0-.17,0-.34-.09-.51-.15Z"/>
  <path class="cls-28" d="m114.23,58.22c.27-.07.54-.19.82-.19,1.86-.03,3.72-.03,5.58-.04-.31.07-.61.2-.92.2-1.83.03-3.65.02-5.48.03Z"/>
  <path class="cls-22" d="m141.64,74.58c0-2.08,0-4.17,0-6.25,0,2.08,0,4.17,0,6.25Z"/>
  <path class="cls-6" d="m34.56,66.3c-2.08-.01-4.16-.02-6.24-.03,1.29-.05,2.57-.13,3.86-.14.79,0,1.59.11,2.38.17Z"/>
  <path class="cls-28" d="m120.84,56.19c-1.81,0-3.61,0-5.42-.02-.27,0-.54-.13-.82-.19,1.77,0,3.54,0,5.3.03.31,0,.62.12.93.18Z"/>
  <path class="cls-6" d="m87.91,66.14c-1.96-.02-3.92-.04-5.89-.06,1.32-.05,2.64-.13,3.96-.14.71,0,1.43.1,2.14.15,0,0-.04.05-.04.05-.06-.03-.12-.03-.18,0Z"/>
  <path class="cls-7" d="m105.73,66.12c-1.95-.01-3.91-.02-5.86-.04.9-.05,1.79-.13,2.69-.15,1.07-.02,2.13.01,3.2.02,0,.06.02.11.05.17h-.08Z"/>
  <path class="cls-9" d="m131.1,55.43c.59-.05,1.19-.14,1.78-.16,1.38-.03,2.75-.02,4.13-.03-.22.07-.43.19-.65.19-1.75,0-3.51,0-5.26-.01Z"/>
  <path class="cls-9" d="m136.45,58.99c-1.65-.02-3.3-.02-4.95-.05-.32,0-.64-.09-.97-.14,1.79-.01,3.58-.03,5.37-.02.18,0,.36.14.54.22Z"/>
  <path class="cls-26" d="m120.43,59.15c-1.51,0-3.02-.01-4.53-.03-.32,0-.64-.1-.96-.15,1.65,0,3.3-.03,4.96-.02.18,0,.36.13.53.2Z"/>
  <path class="cls-26" d="m115.49,55.23c.96-.05,1.92-.12,2.87-.15.88-.03,1.76-.01,2.64-.02-.15.07-.3.19-.45.19-1.69,0-3.38-.01-5.07-.02Z"/>
  <path class="cls-28" d="m67.11,60.81c1.79,0,3.58,0,5.37,0-1.79,0-3.58,0-5.37,0Z"/>
  <path class="cls-28" d="m86.06,60.81c1.79,0,3.58,0,5.37,0-1.79,0-3.58,0-5.37,0Z"/>
  <path class="cls-13" d="m26.52,53.4c-1.8,0-3.61,0-5.41,0,1.8,0,3.61,0,5.41,0Z"/>
  <path class="cls-28" d="m20.21,60.82c1.73,0,3.46,0,5.19-.01-1.73,0-3.46,0-5.19.01Z"/>
  <path class="cls-22" d="m48.38,66.27c-1.66.02-3.31.05-4.97.07-.05-.02-.11-.02-.16-.01,0,0-.06-.04-.06-.04,1.73,0,3.46,0,5.19-.01Z"/>
  <path class="cls-12" d="m105.81,66.13c-.02-.05-.04-.11-.05-.17,1.04,0,2.08,0,3.12,0-1.03.05-2.05.11-3.08.16Z"/>
  <path class="cls-12" d="m52.61,66.31s-.05-.09-.06-.14c1,0,2-.01,3-.02-.98.05-1.96.11-2.94.16Z"/>
  <path class="cls-12" d="m56.1,66.15c-.07,0-.14,0-.2,0,.07,0,.14,0,.2,0Z"/>
  <path class="cls-12" d="m59.59,66.13c-.07,0-.13,0-.2.01.07,0,.13,0,.2-.01Z"/>
  <path class="cls-12" d="m112.57,65.95c-.07,0-.13,0-.2.01.07,0,.13,0,.2-.01Z"/>
  <path class="cls-10" d="m81.3,40.58c-1.38-.05-2.37-.72-2.94-1.95-.13-.28-.08-.82.11-1.03,1.03-1.13,2.06-2.26,3.23-3.23.51-.42,1.34-.45,2.03-.65.79.63,1.58,1.27,2.37,1.91-.54.49-1.08.98-1.63,1.46-.74.66-1.16,1.38-.59,2.37.12.2.12.46.18.7-.92.14-1.84.28-2.76.42Zm.79-4.51c-.02.14-.04.27-.06.41l1.75.26c-.52-.42-1-1-1.69-.67Z"/>
  <path class="cls-25" d="m78.87,27c.08-1-.03-2.05.27-2.98.45-1.42,1.09-2.81,1.82-4.12.63-1.12,2.11-1.62,3.16-1.31.87.25,1.45.8,1.58,1.7.16,1.07-.21,1.74-1.16,2.26-.05.03-.1.09-.15.1-2.62.41-4.1,2.18-5.17,4.44-.12-.03-.24-.06-.36-.09Z"/>
  <path class="cls-25" d="m76.62,25.93c-1.05-2.52-1.35-4.96-.8-7.43.24-1.07,1.04-2.01,2.14-2.36,1.67-.52,2.58.93,2.37,2.28-.09.6-.49,1.3-.97,1.65-1.68,1.22-2.3,2.92-2.49,4.87-.03.27-.14.54-.25.98Z"/>
  <path class="cls-25" d="m74.11,25.16c-1.2-1.13-1.83-2.47-2.37-3.85-.24-.62-.38-1.28-.59-1.92-.47-1.41.09-2.72,1.09-3.6.51-.45,1.19-.71,1.76-.27.42.33.78.92.86,1.44.1.58.02,1.31-.27,1.81-1.09,1.88-1.01,3.8-.48,5.79.04.14,0,.29,0,.59Z"/>
  <path class="cls-25" d="m70.85,25.09c-2.12-1.4-3.63-3.32-4.54-5.68-.38-.99-.05-2.07.73-2.78.4-.37,1.21-.6,1.72-.45.46.13.89.79,1.09,1.31.18.48.15,1.12.01,1.63-.5,1.8-.03,3.42.77,5,.13.26.26.53.39.8-.06.06-.12.11-.17.17Z"/>
  <path class="cls-25" d="m68.35,25.88c-.58-.19-1.22-.29-1.73-.6-1.29-.79-2.6-1.59-3.75-2.56-.45-.38-.62-1.22-.7-1.87-.08-.63.17-1.31.93-1.46,1.01-.19,1.67.16,1.99,1.01.16.42.24.86.36,1.29.41,1.37,1.3,2.4,2.38,3.28.25.2.61.27.91.41-.13.17-.27.33-.4.5Z"/>
  <path class="cls-25" d="m84.06,40.15c-.06-.23-.07-.5-.18-.7-.57-.99-.16-1.71.59-2.37.55-.48,1.08-.98,1.63-1.46,1.36,1.38,1.76,3.07,1.62,5.06-1.16-.78-2.39-.83-3.66-.53Z"/>
  <path class="cls-25" d="m66.19,26.86c-1.85.49-3.38.16-4.76-.81-.82-.58-.9-1.26-.28-1.88.54-.54,1.23-.54,1.63.1.77,1.27,1.86,2.07,3.41,2.59Z"/>
  <path class="cls-25" d="m63.8,28.88c-.89.38-1.83.69-2.8.29-.35-.15-.63-.58-.83-.95-.07-.13.2-.65.32-.65.42,0,.87.07,1.26.24.67.29,1.3.67,2.05,1.07Z"/>
  <path class="cls-25" d="m63.38,30.68c-.64.28-1.26.62-1.92.82-.23.07-.61-.17-.83-.36-.1-.09-.06-.55.05-.62.21-.13.52-.12.79-.12.61-.01,1.21,0,1.82,0,.03.1.06.2.09.3Z"/>
  <path class="cls-5" d="m86.82,106.28c.41.66.81,1.32,1.22,1.98.12.24.24.5.38.73,5.54,9.39,8.97,19.49,10.18,30.33-.06.18-.13.37-.19.55-.12-.43-.24-.85-.37-1.28-.44-1.46-.85-2.94-1.32-4.38-1.62-4.92-3.58-9.71-6.16-14.21-2.16-3.76-4.62-7.29-7.76-10.31-.58-.55-1.16-1.1-1.74-1.65-.24-.22-.5-.42-.72-.66-.39-.42-.75-.87-1.13-1.3.51-3.56.11-7.05-.78-10.5.06-.16.12-.32.18-.49.15.1.3.2.45.3.77,1.05,1.54,2.1,2.31,3.16,1.38,1.89,2.76,3.79,4.14,5.68.44.69.88,1.37,1.32,2.06Z"/>
  <path class="cls-16" d="m86.82,106.28c-.44-.69-.88-1.37-1.32-2.06,4.23-1.28,8.46-2.57,12.7-3.84,4.21-1.26,8.42-2.53,12.64-3.74.48-.14,1.22-.09,1.6.2,5.59,4.12,11.13,8.3,16.69,12.47.07.05.13.13.19.2.06.07.12.13.19.2,0,0,.02,0,.02,0,.12,1.08-.59,1.75-1.21,2.46-3.54-2.62-7.08-5.24-10.61-7.86-2.06-1.53-4.13-3.06-6.17-4.62-.54-.42-1.03-.49-1.68-.29-6.44,1.95-12.88,3.88-19.33,5.8-1.23.37-2.47.73-3.7,1.1Z"/>
  <path class="cls-11" d="m87.91,66.14c.06-.03.12-.03.18,0,0,11.46,0,22.92,0,34.38,0,.12-.02.24-.03.36-.05-.35-.14-.71-.14-1.06,0-11.23,0-22.45,0-33.68Z"/>
  <path class="cls-11" d="m88.1,101.08c.12,0,.25.02.37.02-.12,0-.25-.02-.37-.02Z"/>
  <path class="cls-27" d="m114.21,96.14c.06-.01.13-.02.19-.03-.06.01-.13.02-.19.03Z"/>
  <path class="cls-1" d="m129.51,109.69c-.06-.07-.12-.13-.19-.2.06.07.12.13.19.2Z"/>
  <path class="cls-17" d="m40.09,122.74c-.73-.6-1.47-1.21-2.2-1.81-.67-.62-1.33-1.25-2-1.87-.93-1.28-1.89-2.54-2.77-3.85-1.54-2.28-2.49-4.86-3.07-7.5-.58-2.64-.66-5.37-.26-8.08,1.13-7.85,5.15-13.78,11.96-17.78,3.43-2.02,7.18-2.98,11.2-3.07,4.95-.11,9.48,1.08,13.62,3.74,4.81,3.09,8.15,7.39,9.84,12.84.63,2.01.82,4.19.99,6.31.14,1.63-.05,3.3-.1,4.95-.2.9-.4,1.79-.6,2.69-.3.81-.59,1.62-.89,2.43-1,2.56-2.41,4.88-4.27,6.9-5.35,5.79-11.94,8.56-19.86,8.01-2.86-.2-5.6-.91-8.18-2.15-1.15-.55-2.27-1.16-3.41-1.75Zm7.14-19.5c.89,2.56,1.61,4.94,1.53,7.48,0,.31.17.82.39.91,1.9.74,3.8,1.5,5.75,2.08,1.51.45,3.08.69,4.64.93.41.06.99-.12,1.3-.39,1.55-1.37,3.05-2.79,4.55-4.23.22-.21.44-.55.43-.82-.01-1.21.03-2.45-.21-3.63-.44-2.24-1.11-4.44-1.57-6.68-.13-.64-.42-.88-.94-1.06-1.99-.67-3.96-1.36-5.96-1.98-.52-.16-1.17-.2-1.68-.04-.45.14-.82.61-1.2.95-2.36,2.16-4.71,4.33-7.05,6.48Zm-9.28-9.2c-.08.02-.15.03-.23.05.48,2.05.94,4.11,1.47,6.15.07.26.45.55.73.62,1.97.47,3.97.84,5.93,1.35.53.14.82.09,1.19-.25,2.45-2.25,4.92-4.46,7.37-6.72.19-.17.29-.55.27-.81-.16-1.61-.42-3.21-.56-4.83-.1-1.21-.34-2.16-1.78-2.47-2.59-.56-5.15-1.28-7.73-1.87-.38-.09-.94.08-1.24.34-1.58,1.33-3.07,2.78-4.68,4.08-1.21.98-1.04,2.21-.9,3.48.03.3.1.59.16.89Zm21.22,21.58c-.85-.14-1.91-.21-2.9-.51-2.4-.72-4.76-1.57-7.16-2.33-.31-.1-.77-.04-1.05.13-1.69,1.02-3.38,2.04-5.38,2.34-.2.03-.39.21-.54.29.08.44.11.8.21,1.14.48,1.72.95,3.45,1.48,5.15.1.31.47.65.79.77,1.87.69,3.73,1.48,5.66,1.89,1.4.3,3,.37,4.37,0,2.22-.59,4.13-1.94,5.79-3.32-.43-1.9-.84-3.7-1.27-5.58Zm12.61-4.63c1.31-1.97,2.56-3.82,3.76-5.7.19-.3.27-.76.22-1.12-.33-2.59-.7-5.17-1.09-7.76-.06-.42-.12-1.03-.4-1.19-1.83-1.06-3.71-2.02-5.44-2.94-1.27,1.68-2.36,3.18-3.52,4.62-.35.43-.45.76-.26,1.3,1.15,3.32,1.81,6.73,1.91,10.25,0,.24.23.65.39.67,1.58.2,3,.78,4.42,1.86Zm-35.37-19.84c-.18,0-.43.04-.66,0-1.41-.29-2.09.42-2.65,1.64-1.43,3.09-2.39,6.28-2.34,9.7.02,1.63.21,3.26.37,4.88.02.19.36.5.56.51,1.13.05,2.27.04,3.4-.01.21,0,.57-.3.59-.48.2-2.1,1.24-3.83,2.26-5.59.24-.42.27-1.03.2-1.53-.09-.67-.44-1.3-.56-1.98-.41-2.33-.77-4.67-1.16-7.12Zm25.21-6.2c.07-.98.15-2.15.23-3.29-5.74-2.01-11.35-2.18-17.01.17.09.83.19,1.63.25,2.2,2.65.77,5.2,1.47,7.71,2.26.98.31,1.89.81,2.79-.13.11-.11.32-.16.49-.19,1.8-.34,3.59-.67,5.54-1.03Zm-19.1,37.59c-.48-2.42-.9-4.59-1.35-6.76-.05-.25-.2-.53-.4-.68-2.05-1.54-3.66-3.44-4.82-5.73-.1-.19-.4-.37-.61-.38-1.22-.04-2.44-.02-3.73-.02.07.3.11.5.17.7,1.65,5.39,4.92,9.56,9.65,12.59.32.21.78.2,1.1.27Zm20.48-40.39c-.1.77-.2,1.49-.27,2.21-.07.76-.03,1.33.83,1.84,1.07.63,1.99,1.56,2.85,2.48,1.35,1.46,2.51,3.09,4.66,3.51.63.12,1.19.59,1.78.9.52.27,1.04.54,1.78.92-2.55-5.5-6.33-9.43-11.64-11.85Zm-7.57,43.59c5.21-.49,9.89-2.5,13.83-6.18-.37-.68-.74-.67-1.37-.24-1.73,1.17-3.52,2.24-5.74,2.2-.34,0-.7.29-1.02.5-1.92,1.24-3.82,2.5-5.7,3.73Zm20.61-18.81c-1.24,1.69-2.37,3.21-3.47,4.76-.23.32-.34.74-.46,1.13-.22.72-.3,1.49-.63,2.16-.51,1.04-1.18,2.01-1.82,3.08.13.15.32.36.53.6,3.1-3.34,5.04-7.15,5.85-11.73Z"/>
  <path class="cls-16" d="m35.88,119.07c.67.62,1.33,1.25,2,1.87-3.11.93-6.21,1.86-9.32,2.8-.51-.67-1.02-1.35-1.54-2.02,2.95-.88,5.9-1.76,8.85-2.65Z"/>
  <path class="cls-16" d="m76.69,109.31c.2-.9.4-1.79.6-2.69.64-.18,1.28-.36,1.92-.54.37.44.74.88,1.13,1.3.22.24.48.44.72.66-1.45.42-2.91.84-4.36,1.27Z"/>
  <path class="cls-27" d="m43.25,66.33c.05,0,.11,0,.16.01,0,4,0,7.99-.01,11.99,0,.34-.13.69-.19,1.03.02-4.34.03-8.69.05-13.03Z"/>
  <path class="cls-11" d="m78.23,34.3c-1.61.97-2.68.23-3.53-1.07q2.77-.92,3.53,1.07Zm-1.65-1.6c-.39.38-.61.59-.82.8.32.26.62.65.98.73.23.05.56-.36.85-.57-.29-.28-.58-.56-1.01-.97Z"/>
  <path class="cls-3" d="m40.09,122.74c1.14.58,2.26,1.2,3.41,1.75,2.59,1.24,5.32,1.95,8.18,2.15,7.92.56,14.51-2.21,19.86-8.01,1.86-2.02,3.27-4.33,4.27-6.9.73-.14,1.46-.29,2.19-.43-.06.33-.04.69-.19.98-.94,1.85-1.86,3.71-2.88,5.52-.46.81-1.12,1.51-1.76,2.37,10.8,3.24,18.66,10.02,24.36,19.49-.05.05-.1.09-.15.14-.17-.17-.37-.32-.52-.51-2.59-3.28-5.48-6.27-8.76-8.86-3.98-3.15-8.34-5.57-13.34-6.66-1.33-.29-2.73-.28-4.07-.53-.63-.12-1.08,0-1.61.32-2,1.18-4.03,2.3-6.05,3.44-.32.18-.66.33-.99.49.66.26,1.25.36,1.85.44,4.68.59,9.27,1.59,13.77,2.97,7.5,2.3,14.43,5.7,20.56,10.66.2.18.39.35.59.53.08-.04.15-.09.23-.13-.14-.87-.28-1.74-.42-2.62-1.21-10.84-4.64-20.94-10.18-30.33-.14-.24-.25-.49-.38-.73,1.69-.55,3.38-1.12,5.08-1.65,1.35-.42,2.7-.85,4.08-1.18.46-.11,1.06-.08,1.47.14,3.04,1.65,6.23,2.71,9.7,3.08,3.15.34,6.23.03,9.29-.66.76-.17,1.38-.13,2.03.37,2.53,1.93,5.09,3.81,7.64,5.7-2.05,2.95-4,5.99-6.19,8.84-3.09,4.03-6.55,7.75-10.27,11.21-2.75,2.55-5.62,4.97-8.48,7.4-5.96,5.07-12.38,9.52-18.9,13.82-2.8,1.85-5.64,3.65-8.5,5.41-.33.2-1,.21-1.33,0-4.59-2.85-9.25-5.61-13.69-8.68-4.56-3.16-8.92-6.59-13.32-9.98-4.59-3.54-8.66-7.65-12.7-11.78-1.17-1.2-2.26-2.48-3.37-3.74-.19-.22-.27-.53-.41-.8,3.31-1.01,6.61-2.01,9.92-3.02Zm37.53,23.67c.9-.74,1.44-2.19,1.06-3.31-.12-.35-.65-.74-1.04-.79-.94-.11-1.9-.1-2.84,0-.39.04-.87.32-1.11.64-.78,1.05-.64,2.5.25,3.47-.92.66-1.65,2.4-1.25,3.25.51,1.08,1.53,1.16,2.57,1.07.18-.02.37,0,.55,0,.91-.05,1.87-.16,2.17-1.16.32-1.06.56-2.2-.36-3.16Zm6.82,0c.96-.74,1.48-2.26,1.02-3.4-.13-.33-.64-.65-1.01-.7-.87-.1-1.79-.15-2.65,0-.55.1-1.21.48-1.51.93-.63.97-.34,2.31.5,3.2-1.2.5-1.23,1.6-1.33,2.64-.08.84.71,1.62,1.57,1.66.52.02,1.04.02,1.56,0,.86-.04,1.82-.1,2.14-1.03.38-1.09.6-2.27-.3-3.3Zm-14.07.66c.08,3.1-2.27,2.24-3.95,2.43v1.07c1.03,0,2,.03,2.98,0,.95-.04,1.69-.6,1.88-1.47.38-1.76.64-3.55.83-5.34.11-1.03-.6-1.65-1.62-1.66-.7,0-1.41-.02-2.11,0-.85.02-1.68.82-1.78,1.67-.03.3-.04.61-.11.9-.31,1.28.52,2.39,1.83,2.41.7.01,1.39,0,2.06,0Zm-4.75-4.97c-.46,0-.92-.03-1.37.01-.21.02-.55.17-.57.3-.05.3,0,.88.12.91.72.19.38.69.33,1.03-.31,2.09-.66,4.17-1,6.26.76.26,1.22.17,1.34-.61.1-.65.21-1.31.3-1.96.28-1.96.56-3.91.85-5.94Z"/>
  <path class="cls-16" d="m101.19,104.15c3-.89,5.82-1.73,8.65-2.55.2-.06.5-.1.64,0,1.95,1.41,3.89,2.84,5.91,4.33-5.35,1.66-10.34,1.26-15.2-1.78Z"/>
  <path class="cls-24" d="m25.43,55.63c-.17,1-.24,1.91-.51,2.75-.09.28-.72.48-1.12.53-.69.09-1.41.03-2.11.02-.15,0-.42,0-.43-.05-.1-.51-.33-1.08-.19-1.53.19-.6-.24-1.64.89-1.71,1.1-.06,2.2-.01,3.48-.01Z"/>
  <path class="cls-24" d="m43.14,55.93c.23.56.42,1.02.66,1.61h-1.78c.38-.55.72-1.04,1.12-1.61Z"/>
  <path class="cls-25" d="m82.09,36.07c.69-.33,1.17.25,1.69.67l-1.75-.26c.02-.14.04-.27.06-.41Z"/>
  <path class="cls-3" d="m82.8,109.69c3.14,3.02,5.61,6.55,7.76,10.31,2.59,4.51,4.54,9.29,6.16,14.21.48,1.45.88,2.92,1.32,4.38-.06,0-.12-.01-.18-.02-1.1-2.78-2.1-5.61-3.33-8.33-2.59-5.71-5.81-11.04-10.21-15.56-1.4-1.44-3-2.68-4.51-4.02.99-.33,1.99-.66,2.98-.99Z"/>
  <path class="cls-20" d="m82.8,109.69c-.99.33-1.99.66-2.98.99-.44-.23-.88-.45-1.32-.68-.19.5-.34.91-.49,1.31-.73.14-1.46.29-2.19.43.3-.81.59-1.62.89-2.43,1.45-.42,2.91-.84,4.36-1.27.58.55,1.16,1.1,1.74,1.65Z"/>
  <path class="cls-19" d="m98.6,139.32c.14.87.28,1.74.42,2.62-.08.04-.15.09-.23.13-.2-.18-.39-.35-.59-.53.66-.49.1-1.1.18-1.65l.03-.02c.06-.18.13-.37.19-.55Z"/>
  <path class="cls-19" d="m97.87,138.58c.06,0,.12.01.18.02.12.43.24.85.37,1.28,0,0-.03.02-.03.02-.17-.44-.35-.88-.52-1.31Z"/>
  <path class="cls-18" d="m47.22,103.25c2.34-2.15,4.69-4.32,7.05-6.48.38-.35.74-.82,1.2-.95.51-.16,1.16-.12,1.68.04,2,.61,3.98,1.31,5.96,1.98.52.17.81.42.94,1.06.46,2.24,1.12,4.44,1.57,6.68.23,1.18.19,2.42.21,3.63,0,.28-.22.62-.43.82-1.5,1.43-3,2.86-4.55,4.23-.32.28-.89.46-1.3.39-1.56-.24-3.13-.48-4.64-.93-1.95-.58-3.85-1.33-5.75-2.08-.22-.09-.4-.6-.39-.91.07-2.55-.64-4.92-1.53-7.48Z"/>
  <path class="cls-18" d="m37.94,94.05c-.05-.3-.12-.59-.16-.89-.14-1.27-.32-2.5.9-3.48,1.61-1.3,3.09-2.75,4.68-4.08.3-.25.87-.42,1.24-.34,2.59.59,5.14,1.31,7.73,1.87,1.44.31,1.67,1.26,1.78,2.47.14,1.61.4,3.22.56,4.83.03.26-.08.64-.27.81-2.44,2.25-4.92,4.47-7.37,6.72-.38.34-.66.39-1.19.25-1.96-.51-3.96-.88-5.93-1.35-.28-.07-.66-.36-.73-.62-.53-2.04-.99-4.1-1.47-6.15.08-.02.15-.03.23-.05Z"/>
  <path class="cls-18" d="m59.16,115.63c.43,1.88.84,3.68,1.27,5.58-1.66,1.38-3.57,2.72-5.79,3.32-1.37.37-2.97.3-4.37,0-1.94-.41-3.79-1.21-5.66-1.89-.32-.12-.69-.46-.79-.77-.54-1.7-1.01-3.43-1.48-5.15-.1-.34-.13-.71-.21-1.14.16-.09.34-.26.54-.29,2.01-.3,3.69-1.33,5.38-2.34.28-.17.74-.22,1.05-.13,2.39.75,4.76,1.6,7.16,2.33.99.3,2.05.37,2.9.51Z"/>
  <path class="cls-18" d="m71.77,110.99c-1.42-1.08-2.84-1.66-4.42-1.86-.16-.02-.38-.43-.39-.67-.09-3.52-.76-6.93-1.91-10.25-.19-.54-.09-.87.26-1.3,1.15-1.44,2.24-2.93,3.52-4.62,1.73.92,3.62,1.88,5.44,2.94.27.16.33.77.4,1.19.38,2.58.75,5.17,1.09,7.76.05.36-.03.82-.22,1.12-1.2,1.88-2.46,3.74-3.76,5.7Z"/>
  <path class="cls-18" d="m36.39,91.15c.39,2.45.75,4.79,1.16,7.12.12.67.47,1.3.56,1.98.07.5.04,1.12-.2,1.53-1.02,1.76-2.06,3.5-2.26,5.59-.02.19-.38.47-.59.48-1.13.05-2.27.06-3.4.01-.2,0-.54-.31-.56-.51-.16-1.62-.35-3.25-.37-4.88-.05-3.42.9-6.61,2.34-9.7.57-1.22,1.24-1.93,2.65-1.64.23.05.49,0,.66,0Z"/>
  <path class="cls-18" d="m61.61,84.95c-1.94.36-3.74.69-5.54,1.03-.17.03-.38.07-.49.19-.9.94-1.8.44-2.79.13-2.52-.8-5.06-1.49-7.71-2.26-.07-.57-.16-1.38-.25-2.2,5.66-2.36,11.27-2.18,17.01-.17-.08,1.14-.16,2.31-.23,3.29Z"/>
  <path class="cls-20" d="m42.51,122.54c-.32-.07-.77-.07-1.1-.27-4.73-3.03-7.99-7.19-9.65-12.59-.06-.2-.1-.4-.17-.7,1.29,0,2.52-.02,3.73.02.21,0,.52.19.61.38,1.17,2.28,2.78,4.18,4.82,5.73.2.15.35.43.4.68.45,2.17.87,4.34,1.35,6.76Z"/>
  <path class="cls-20" d="m62.99,82.15c5.31,2.42,9.08,6.35,11.64,11.85-.74-.38-1.26-.65-1.78-.92-.59-.31-1.16-.78-1.78-.9-2.15-.42-3.32-2.05-4.66-3.51-.85-.92-1.78-1.85-2.85-2.48-.85-.5-.9-1.08-.83-1.84.07-.72.17-1.43.27-2.21Z"/>
  <path class="cls-20" d="m55.42,125.74c1.88-1.23,3.78-2.49,5.7-3.73.32-.21.68-.5,1.02-.5,2.22.05,4.01-1.02,5.74-2.2.63-.43,1-.43,1.37.24-3.94,3.68-8.62,5.68-13.83,6.18Z"/>
  <path class="cls-20" d="m76.03,106.92c-.81,4.58-2.76,8.39-5.85,11.73-.21-.24-.39-.45-.53-.6.64-1.07,1.31-2.04,1.82-3.08.32-.66.41-1.44.63-2.16.12-.39.23-.81.46-1.13,1.1-1.55,2.23-3.07,3.47-4.76Z"/>
  <path class="cls-25" d="m76.58,32.7c.43.41.72.69,1.01.97-.29.2-.62.62-.85.57-.36-.08-.66-.47-.98-.73.22-.21.44-.42.82-.8Z"/>
  <path class="cls-5" d="m97.87,138.58c.17.44.35.88.52,1.31-.08.55.48,1.16-.18,1.65-6.13-4.96-13.06-8.36-20.56-10.66-4.51-1.38-9.1-2.38-13.77-2.97-.6-.08-1.19-.18-1.85-.44.33-.16.67-.31.99-.49,2.02-1.14,4.05-2.26,6.05-3.44.53-.32.98-.44,1.61-.32,1.34.25,2.74.24,4.07.53,5,1.08,9.36,3.51,13.34,6.66,3.28,2.59,6.17,5.58,8.76,8.86.15.19.35.34.52.51.17.26.33.52.5.78.06-.04.12-.08.18-.12-.17-.26-.35-.53-.52-.79-5.7-9.46-13.56-16.25-24.36-19.49.64-.85,1.3-1.55,1.76-2.37,1.02-1.81,1.95-3.67,2.88-5.52.14-.28.13-.65.19-.98.15-.41.31-.81.49-1.31.45.23.89.46,1.32.68,1.51,1.33,3.11,2.58,4.51,4.02,4.41,4.52,7.62,9.85,10.21,15.56,1.23,2.72,2.23,5.55,3.33,8.33Z"/>
  <path class="cls-20" d="m77.62,146.41c.91.97.67,2.11.36,3.16-.3,1-1.26,1.11-2.17,1.16-.18,0-.37-.01-.55,0-1.05.09-2.07.01-2.57-1.07-.4-.85.33-2.59,1.25-3.25-.88-.98-1.03-2.42-.25-3.47.24-.32.72-.6,1.11-.64.94-.09,1.91-.11,2.84,0,.38.05.92.44,1.04.79.38,1.12-.15,2.57-1.06,3.31Zm-1.34-3.03c-1.49-.12-1.69.08-1.78,1.47-.07,1.06.77.9,1.42.9,1.33.01,1.68-.31,1.68-1.64,0-1.08-.86-.65-1.32-.74Zm-1.02,6.05c1.36,0,1.57-.2,1.63-1.24.05-.81-.07-1.18-1.04-1.17-1.81,0-1.83.21-1.93,1.43-.08,1.05.65.99,1.34.99Z"/>
  <path class="cls-20" d="m84.44,146.4c.9,1.03.67,2.21.3,3.3-.32.93-1.28,1-2.14,1.03-.52.02-1.04.02-1.56,0-.86-.04-1.65-.81-1.57-1.66.09-1.03.12-2.14,1.33-2.64-.84-.89-1.13-2.23-.5-3.2.3-.46.95-.84,1.51-.93.86-.15,1.77-.11,2.65,0,.37.04.88.37,1.01.7.45,1.14-.06,2.66-1.02,3.4Zm-1.7-.64c1.29,0,1.62-.33,1.69-1.48.06-.95-.52-.92-1.18-.91-1.68.02-1.94.17-1.94,1.2,0,1.06.16,1.19,1.43,1.2Zm-.5,3.67c.58-.02,1.32.12,1.45-.86.2-1.52.2-1.52-1.37-1.52-.21,0-.48-.08-.63.02-.34.22-.81.48-.89.81-.3,1.23.02,1.55,1.45,1.55Z"/>
  <path class="cls-20" d="m70.37,147.06c-.67,0-1.37,0-2.06,0-1.31-.02-2.14-1.13-1.83-2.41.07-.29.08-.6.11-.9.1-.85.93-1.64,1.78-1.67.7-.02,1.41,0,2.11,0,1.03.01,1.73.63,1.62,1.66-.19,1.79-.45,3.58-.83,5.34-.19.87-.93,1.43-1.88,1.47-.97.04-1.95,0-2.98,0v-1.07c1.68-.19,4.03.66,3.95-2.43Zm.18-1.3c.04-.15.05-.24.08-.32.56-1.73.34-2.06-1.39-2.06-.12,0-.24,0-.37,0-.84.02-1.15.41-1.2,1.34-.05.88.49,1.01,1.15,1.03.55.02,1.1,0,1.73,0Z"/>
  <path class="cls-20" d="m65.62,142.09c-.29,2.03-.57,3.99-.85,5.94-.1.66-.21,1.31-.3,1.96-.12.78-.58.87-1.34.61.34-2.09.69-4.18,1-6.26.05-.34.39-.84-.33-1.03-.12-.03-.16-.61-.12-.91.02-.13.36-.27.57-.3.45-.04.91-.01,1.37-.01Z"/>
  <path class="cls-3" d="m97.53,139.66c.17.26.35.53.52.79-.06.04-.12.08-.18.12-.17-.26-.33-.52-.5-.78.05-.05.1-.09.15-.14Z"/>
  <path class="cls-16" d="m76.28,143.39c.46.09,1.32-.34,1.32.74,0,1.33-.35,1.65-1.68,1.64-.65,0-1.48.16-1.42-.9.09-1.39.29-1.59,1.78-1.47Z"/>
  <path class="cls-16" d="m75.26,149.44c-.69,0-1.42.06-1.34-.99.1-1.22.13-1.42,1.93-1.43.97,0,1.09.37,1.04,1.17-.06,1.04-.28,1.24-1.64,1.24Z"/>
  <path class="cls-16" d="m82.74,145.77c-1.28,0-1.43-.13-1.43-1.2,0-1.03.26-1.18,1.94-1.2.66,0,1.23-.03,1.18.91-.07,1.15-.4,1.48-1.69,1.48Z"/>
  <path class="cls-16" d="m82.24,149.44c-1.43,0-1.75-.32-1.45-1.55.08-.33.55-.59.89-.81.15-.1.42-.02.63-.02,1.57,0,1.57,0,1.37,1.52-.13.98-.87.84-1.45.86Z"/>
  <path class="cls-16" d="m70.55,145.76c-.63,0-1.18.01-1.73,0-.67-.02-1.2-.16-1.15-1.03.05-.93.37-1.33,1.2-1.34.12,0,.24,0,.37,0,1.73,0,1.95.33,1.39,2.06-.03.08-.04.17-.08.32Z"/>
</svg>