<?xml version="1.0" encoding="utf-8"?>
<!-- Generator: Adobe Illustrator 23.0.1, SVG Export Plug-In . SVG Version: 6.00 Build 0)  -->
<svg version="1.1" id="Layer_1" xmlns="http://www.w3.org/2000/svg" xmlns:xlink="http://www.w3.org/1999/xlink" x="0px" y="0px"
	 viewBox="0 0 595.3 595.3" style="enable-background:new 0 0 595.3 595.3;" xml:space="preserve">
<style type="text/css">
	.st0{fill-rule:evenodd;clip-rule:evenodd;fill:#FFCB01;}
	.st1{fill-rule:evenodd;clip-rule:evenodd;fill:#01519E;}
	.st2{fill:#FFCB01;}
</style>
<g>
	<polygon class="st0" points="60,103 79.6,102.6 88.8,102.2 97.8,101.7 106.7,101.1 115.5,100.3 124.1,99.3 132.5,98.2 140.8,96.9 
		148.9,95.5 156.9,93.9 164.7,92.2 172.3,90.3 179.8,88.2 187.1,86 194.2,83.7 201.2,81.1 208,78.5 214.6,75.6 221.1,72.6 
		227.4,69.5 233.5,66.1 239.5,62.7 245.3,59 251,55.2 256.4,51.2 261.8,47.1 266.9,42.8 271.9,38.3 276.7,33.7 281.4,28.9 
		285.8,23.9 298.6,8.7 311.2,23.9 315.7,28.9 320.4,33.8 325.2,38.4 330.2,42.8 335.3,47.1 340.6,51.2 346.1,55.1 351.7,58.8 
		357.5,62.4 363.5,65.9 369.7,69.1 375.9,72.2 382.4,75.1 389,77.9 395.8,80.5 402.7,82.9 409.8,85.2 417.1,87.4 424.5,89.3 
		432.1,91.2 439.8,92.8 447.6,94.4 455.6,95.7 463.8,97 472.1,98 480.5,99 489.1,99.8 497.8,100.4 506.7,100.9 515.7,101.3 
		534.8,101.8 536.3,131.6 536.7,151.3 536.6,170.7 536,189.8 534.8,208.5 533.1,226.9 530.9,245 528.1,262.7 524.8,280.1 
		520.9,297.2 516.6,314 511.7,330.4 506.2,346.5 500.2,362.2 493.7,377.6 486.7,392.6 479.1,407.3 471,421.6 462.4,435.6 
		453.2,449.2 443.5,462.4 433.3,475.3 422.6,487.8 411.3,499.9 399.5,511.7 387.2,523.1 374.4,534.1 361.1,544.8 347.3,555 
		333,564.9 318.2,574.4 297.6,586.6 276.8,574.9 261.7,565.7 247.1,556.1 233.2,546 219.7,535.5 206.8,524.6 194.5,513.3 
		182.7,501.6 171.4,489.5 160.7,476.9 150.6,464 141,450.7 131.9,437 123.3,423 115.4,408.6 107.9,393.8 101,378.7 94.6,363.2 
		88.8,347.4 83.4,331.2 78.6,314.7 74.4,297.9 70.6,280.8 67.3,263.3 64.6,245.6 62.4,227.5 60.7,209.1 59.5,190.5 58.8,171.5 
		58.6,152.3 58.8,132.8 60,103 	"/>
	<path class="st1" d="M70.4,113.5c102.6-1.3,180.3-28.9,228.2-88c47.8,59.7,126.4,85,226,86.8c13,212.3-64.1,368.6-227.1,461.9
		C131.4,485.1,59.7,323.5,70.4,113.5L70.4,113.5z"/>
	<polyline class="st0" points="222.9,172.9 514.4,133.2 517,143.1 518.6,152.4 519.4,161.2 519.3,169.5 519,173.5 518.5,177.3 
		517.8,181 516.9,184.6 515.8,188 514.6,191.4 513.3,194.6 511.7,197.7 214,192.1 216.4,187.5 218.7,182.7 220.9,177.9 222.9,172.9 
			"/>
	<g>
		<path class="st2" d="M222.4,127.9c1-10.6,1-21.2,0-31.6c-47.3,21.1-90.8,25.8-141.7,25.6c-3.2,49.1,0.5,100.6,9.2,141.5
			C159,254.6,213.8,198.6,222.4,127.9z"/>
		<path class="st2" d="M340.7,72.5l-109.1,47.6c-0.6,8.4-1.8,16.5-3.5,24.5l167.5-43.8C372.4,94.7,354.2,84.9,340.7,72.5z"/>
		<path class="st2" d="M502.9,252.1l-303-45c-3.8,5.1-7.8,10-12.1,14.7l300,105.1C500.6,302.4,505.5,276.7,502.9,252.1z"/>
		<path class="st2" d="M164.1,242.9L408.9,462c23.4-17.6,40.6-39.6,48.6-68.1l-283-159.3C171.2,237.6,167.7,240.3,164.1,242.9z"/>
		<path class="st2" d="M144.4,255.2l155.8,304.5c26.6-11.2,46.3-26.2,59-45.2L153.9,249.8C150.8,251.7,147.6,253.5,144.4,255.2z"/>
		<path class="st2" d="M123.6,264.2l13.2,132.3c14,32.9,30.9,53.4,48.3,66l-49.5-203C131.7,261.2,127.7,262.8,123.6,264.2z"/>
	</g>
	<path class="st1" d="M147.3,159.6c1.1,0,2,0.2,2.6,0.7c0.6,0.5,0.9,1.2,0.9,2.2c0,0.9-0.3,1.7-0.9,2.2c-0.6,0.5-1.4,0.8-2.6,0.8
		l-16.5,0c-1.4,0-2.5-0.4-3-1.1c-0.6-0.7-0.8-2-0.8-4l0-21.8c0-2,0.3-3.3,0.8-4c0.5-0.7,1.6-1,3-1l15.6,0c1.1,0,2,0.2,2.6,0.7
		c0.6,0.5,0.9,1.2,0.9,2.1c0,0.9-0.3,1.6-0.9,2c-0.6,0.5-1.4,0.7-2.6,0.7l-13.2,0l0,6.8l11.9,0c1.1,0,2,0.2,2.5,0.7
		c0.6,0.5,0.9,1.1,0.9,2.1c0,0.9-0.3,1.6-0.9,2c-0.6,0.5-1.4,0.7-2.5,0.7l-11.9,0l0,8.2L147.3,159.6L147.3,159.6z M147.3,159.6
		L147.3,159.6L147.3,159.6z M99.2,201.1c0-5.4,1.3-9.7,3.9-12.7c2.6-3,6.3-4.6,11-4.6c1.8,0,3.6,0.3,5.1,0.8c1.6,0.5,3,1.3,4.4,2.4
		c0.9,0.7,1.7,1.6,2.2,2.5c0.5,1,0.8,1.8,0.8,2.7c0,1-0.3,1.7-0.8,2.3c-0.5,0.5-1.3,0.8-2.2,0.8c-0.5,0-1-0.1-1.5-0.3
		c-0.5-0.2-1-0.5-1.4-1c-0.2-0.2-0.5-0.6-0.8-1.1c-0.3-0.5-0.5-0.8-0.6-0.9c-0.7-0.8-1.4-1.4-2.4-1.8c-0.9-0.4-2-0.6-3.2-0.6
		c-2.5,0-4.5,1-5.9,2.9c-1.4,1.9-2.2,4.6-2.2,8c0,3.5,0.7,6.2,2.2,8c1.4,1.9,3.5,2.8,6.2,2.8c1.2,0,2.3-0.2,3.2-0.6
		c0.9-0.4,1.7-0.9,2.3-1.6c0.2-0.3,0.5-0.7,0.7-1.1c0.2-0.5,0.4-0.7,0.5-0.8c0.5-0.7,1-1.2,1.5-1.4c0.5-0.3,1-0.4,1.5-0.4
		c0.8,0,1.6,0.3,2.2,0.9c0.6,0.6,0.9,1.3,0.9,2.1c0,0.8-0.3,1.7-0.8,2.7c-0.5,0.9-1.2,1.8-2.1,2.6c-1.4,1.3-3,2.3-4.6,2.8
		c-1.6,0.6-3.5,0.9-5.6,0.9c-4.5,0-8.1-1.5-10.7-4.4C100.5,210.1,99.2,206.1,99.2,201.1L99.2,201.1z M99.2,201.1L99.2,201.1
		L99.2,201.1z M155.7,190.2l0,9.2l6.2,0c1.7,0,2.9-0.4,3.7-1.1c0.8-0.7,1.1-1.9,1.1-3.5c0-1.5-0.4-2.7-1.1-3.4
		c-0.8-0.8-1.9-1.2-3.3-1.2L155.7,190.2L155.7,190.2z M155.7,190.2L155.7,190.2L155.7,190.2z M155.6,213.4c0,1.1-0.3,2.1-0.8,2.6
		c-0.5,0.6-1.4,0.8-2.4,0.8c-1.1,0-1.9-0.3-2.4-0.9c-0.5-0.6-0.8-1.4-0.8-2.6l0-23.7c0-1.9,0.3-3.3,0.8-4c0.6-0.7,1.6-1.1,3.1-1.1
		l9.9,0c3.3,0,5.7,0.9,7.4,2.6c1.7,1.8,2.5,4.3,2.5,7.6c0,3.3-0.8,5.8-2.5,7.6c-1.7,1.8-4,2.7-7,2.7l-7.9,0L155.6,213.4L155.6,213.4
		z"/>
</g>
</svg>
