<?xml version="1.0" standalone="no"?>
<!DOCTYPE svg PUBLIC "-//W3C//DTD SVG 20010904//EN"
 "http://www.w3.org/TR/2001/REC-SVG-20010904/DTD/svg10.dtd">
<svg version="1.0" xmlns="http://www.w3.org/2000/svg"
 width="1000.000000pt" height="1000.000000pt" viewBox="0 0 1000.000000 1000.000000"
 preserveAspectRatio="xMidYMid meet">

<g transform="translate(0.000000,1000.000000) scale(0.100000,-0.100000)"
fill="#000000" stroke="none">
<path d="M4865 9108 c-592 -331 -1254 -543 -1920 -614 -193 -21 -624 -23 -825
-5 -545 50 -1062 185 -1614 422 -88 38 -162 66 -165 63 -10 -10 -4 -967 8
-1184 90 -1690 416 -2900 1084 -4020 313 -524 662 -966 1156 -1461 527 -527
1031 -935 1736 -1404 276 -184 663 -427 680 -428 25 0 745 476 1060 701 1111
796 1939 1666 2511 2637 119 203 323 610 416 830 393 934 603 1896 678 3105
14 210 25 1097 16 1172 l-7 56 -182 -74 c-541 -224 -1005 -345 -1532 -401
-188 -20 -676 -23 -860 -5 -180 18 -443 58 -601 93 -461 100 -978 291 -1400
515 -67 35 -123 64 -125 64 -2 0 -53 -28 -114 -62z m-957 -1571 c149 -364 272
-666 272 -672 -1 -5 -38 -33 -83 -62 -45 -29 -116 -81 -158 -117 l-76 -64
-769 769 c-423 423 -764 769 -759 769 6 0 46 -6 90 -14 291 -51 609 -43 1030
28 77 13 149 24 160 25 17 0 57 -90 293 -662z m2722 613 c107 -16 251 -34 320
-41 163 -15 478 -5 625 20 61 10 111 18 112 17 1 -1 -342 -346 -762 -766
l-764 -764 -43 40 c-56 51 -149 122 -220 167 l-57 36 16 38 c31 75 515 1249
524 1271 6 17 14 21 31 17 13 -3 111 -18 218 -35z m2595 -1322 c-3 -24 -12
-108 -20 -188 -49 -460 -161 -951 -317 -1392 -35 -99 -45 -118 -63 -118 -11 0
-493 54 -1070 120 -578 66 -1055 120 -1061 120 -7 0 -14 42 -18 117 -8 130
-27 251 -57 363 -11 41 -21 79 -22 84 -1 6 2589 929 2625 935 4 0 5 -18 3 -41z
m-7148 -414 c681 -240 1263 -445 1294 -456 l56 -19 -29 -111 c-27 -105 -38
-179 -56 -388 l-7 -84 -1065 -122 c-586 -67 -1065 -121 -1066 -120 -1 0 -19
53 -41 116 -158 449 -257 872 -312 1340 -30 257 -32 280 -22 280 6 0 567 -196
1248 -436z m3190 400 c199 -34 422 -132 592 -259 421 -315 635 -836 556 -1353
-99 -655 -645 -1158 -1303 -1201 -415 -26 -804 117 -1097 405 -534 525 -567
1373 -76 1941 245 283 554 440 961 487 64 7 277 -4 367 -20z m-1222 -2762
c109 -77 223 -140 330 -182 44 -18 84 -36 89 -41 9 -8 -872 -1968 -886 -1969
-9 0 -295 239 -453 379 -255 226 -553 538 -779 814 -82 101 -87 109 -70 122
11 7 349 263 753 569 l733 556 97 -92 c53 -51 137 -121 186 -156z m2944 -337
c407 -308 740 -564 741 -568 0 -5 -39 -57 -87 -115 -298 -367 -625 -691 -1063
-1056 l-165 -137 -16 38 c-9 21 -211 465 -448 987 -237 523 -428 953 -424 957
5 3 26 12 48 19 58 18 215 93 288 136 97 59 236 166 307 238 35 37 68 65 72
64 4 -2 340 -255 747 -563z"/>
<path d="M4858 6637 c-36 -14 -79 -34 -95 -45 -49 -35 -113 -110 -136 -160
l-22 -47 0 -965 0 -965 23 -56 c32 -80 88 -139 169 -180 65 -33 72 -34 178
-34 97 1 117 4 167 27 76 35 142 98 175 167 26 53 28 66 31 219 l4 162 -110 0
-110 0 -4 -128 c-3 -113 -7 -135 -29 -178 -20 -39 -33 -52 -65 -63 -53 -19
-129 -7 -159 24 -49 48 -49 45 -53 955 -4 930 -2 967 47 1022 31 34 92 50 147
38 83 -19 104 -76 111 -297 l6 -163 108 0 109 0 0 190 c0 147 -4 200 -16 237
-49 148 -184 249 -344 260 -51 3 -79 -1 -132 -20z"/>
<path d="M5475 6538 c-22 -19 -30 -37 -36 -79 -4 -30 -8 -521 -8 -1091 l-1
-1038 110 0 110 0 0 454 0 454 248 4 c214 3 252 5 274 20 43 28 52 73 38 196
-44 403 -189 709 -452 957 -110 104 -158 136 -211 142 -36 4 -48 1 -72 -19z
m286 -451 c109 -144 189 -354 223 -584 l6 -43 -170 0 -170 0 0 377 0 376 26
-24 c14 -13 53 -59 85 -102z"/>
<path d="M4426 6468 c-137 -84 -204 -136 -311 -243 -112 -112 -176 -201 -240
-338 -73 -153 -96 -254 -102 -444 l-6 -163 262 0 261 0 0 -266 0 -265 -34 26
c-95 72 -208 242 -251 375 -10 30 -21 59 -26 64 -4 5 -51 -10 -107 -34 l-100
-42 25 -62 c106 -259 281 -460 513 -588 66 -36 191 -90 196 -85 2 2 1 249 -3
550 l-6 547 -249 0 -248 0 0 38 c0 58 36 188 74 267 39 82 103 169 180 245
l56 54 0 -247 0 -247 110 0 110 0 0 455 c0 250 -4 455 -9 455 -4 0 -47 -24
-95 -52z"/>
</g>
</svg>
