<svg id="Layer_1" data-name="Layer 1" xmlns="http://www.w3.org/2000/svg" viewBox="0 0 500 500"><defs><style>.cls-1{fill:#010101;}.cls-2{fill:#e70008;}.cls-3{fill:#fefefe;}</style></defs><title>Santa Cruz-RN</title><path class="cls-1" d="M249.92,2.18C386.51,2,499,113.1,498.23,252.15,497.46,388,387.25,499.53,248.7,499,109.78,498.46-1,384.41,1.39,246.09,3.74,111.6,113.61,2,249.92,2.18Zm-38,51.76c0-7.85,0-15.7.11-23.55,0-1.1-.51-1.12-1.3-1-1.83.36-3.66.7-5.48,1.07C158.67,40.08,118.84,62,86.47,96.65c-41.82,44.8-62.09,98.17-61.09,159.53A210.89,210.89,0,0,0,30,296.72a225.17,225.17,0,0,0,155.18,169,226.61,226.61,0,0,0,24.91,5.94c.68.13,1.85.86,1.84-.89-.07-7.85-.07-15.71-.1-23.56,0-9,0-18,.11-27,0-1-.3-1.27-1.29-1.44-2.06-.36-4.09-.94-6.11-1.5a174.33,174.33,0,0,1-48.89-21.94,175.59,175.59,0,0,1-38.28-33.89,168.43,168.43,0,0,1-13-17.88,173.94,173.94,0,0,1-15.26-29.9A180,180,0,0,1,80.06,282a157.78,157.78,0,0,1-2.75-24.29,169,169,0,0,1,.59-22.49,158.69,158.69,0,0,1,4.37-25.84q22.26-83.53,101.51-118.17a153.16,153.16,0,0,1,26.37-8.55c.76-.18,1.84,0,1.83-1.46C211.91,72.09,211.9,63,211.87,53.94ZM261.4,26.39a195.89,195.89,0,0,0-22.34-.13c-1.48.07-1.92.39-1.91,1.92.08,10.81,0,21.61,0,32.42,0,5.46,0,10.93,0,16.4,0,1.19.26,1.6,1.5,1.43,1.39-.19,2.81-.23,4.22-.28,6.17-.21,12.33-.1,18.49.2,2.75.28,5.5.54,8.24.85a167.84,167.84,0,0,1,61.28,19.09q48.56,26.08,73.35,75.39a173.22,173.22,0,0,1,13.5,116.53A172.9,172.9,0,0,1,298.5,416.11a178.43,178.43,0,0,1-37.11,6.68,180.55,180.55,0,0,1-22.91-.1c-1-.08-1.31.18-1.31,1.23q0,24.79,0,49.6c0,.82.09,1.25,1.1,1.3a183.88,183.88,0,0,0,23.12-.1,98.07,98.07,0,0,0,11.1-.76,105.14,105.14,0,0,0,13.09-1.83c.57,0,1.16-.05,1.72-.14a224.21,224.21,0,0,0,137.35-80.63q46.51-58.07,49.53-132.47a215.77,215.77,0,0,0-4.48-53.69Q455.37,136.8,405,88.37A221.16,221.16,0,0,0,304,32.62,135.74,135.74,0,0,0,285.63,29,165.63,165.63,0,0,0,261.4,26.39ZM249.69,138q-53.59,0-107.18,0c-1.46,0-2.09.13-2.07,1.88.08,7.14-.05,14.29-.07,21.43q-.09,29.44-.13,58.89,0,56.76-.07,113.54a13.58,13.58,0,0,1-.07,2.12,2.76,2.76,0,0,0,1.48,3q53.11,35.69,106.17,71.47c1.51,1,2.46,1,4-.05q52.74-36.24,105.6-72.32a3.1,3.1,0,0,0,1.51-3q0-97.42,0-194.85c0-1.77-.46-2.16-2.18-2.15Q303.18,138,249.69,138Zm-17-4.83.37.2c5.19-3.67,10.39-7.31,15.54-11a1.65,1.65,0,0,1,2.34,0c2.93,2.2,5.92,4.33,8.88,6.48l6.89,4.94c-2-6.48-3.79-12.43-5.74-18.32a2.32,2.32,0,0,1,1.07-3.13c4.95-3.51,9.83-7.14,14.73-10.72l-.09-.59H259.06c-3,0-2.94,0-3.85-2.82-1.79-5.56-3.62-11.11-5.52-17-.28.68-.44,1-.56,1.39-1.94,5.7-3.92,11.4-5.77,17.14a1.83,1.83,0,0,1-2.16,1.52c-2.51-.08-5,0-7.53,0H222.06c.8.61,1.17.91,1.56,1.2,4.69,3.49,9.37,7,14.09,10.46a1.75,1.75,0,0,1,.79,2.38c-.76,2-1.33,4-2,6Q234.62,127.2,232.72,133.13Z"/><path class="cls-2" d="M285.59,472.13A105.14,105.14,0,0,1,272.5,474a98.07,98.07,0,0,1-11.1.76q0-26,0-51.93a178.43,178.43,0,0,0,37.11-6.68,172.9,172.9,0,0,0,119.24-125.9,173.22,173.22,0,0,0-13.5-116.53q-24.69-49.27-73.35-75.39A167.84,167.84,0,0,0,269.61,79.2c-2.74-.31-5.49-.57-8.24-.85l0-52A165.63,165.63,0,0,1,285.63,29c0,7.73,0,15.45-.05,23.17,0,1,.24,1.47,1.34,1.62,2,.29,4.05.75,6.05,1.2,41,9.38,76.06,29.28,104.5,60.33,27.68,30.22,44.39,65.8,50.47,106.3a195.05,195.05,0,0,1-1.79,68.1c-7.85,38.74-25.46,72.42-53,100.69-29.26,30-64.72,48.73-105.8,56.83-1.41.28-1.74.75-1.73,2.09C285.62,456.94,285.59,464.54,285.59,472.13Z"/><path class="cls-3" d="M285.59,472.13c0-7.59,0-15.19,0-22.78,0-1.34.32-1.81,1.73-2.09,41.08-8.1,76.54-26.86,105.8-56.83,27.59-28.27,45.2-61.95,53-100.69a195.05,195.05,0,0,0,1.79-68.1c-6.08-40.5-22.79-76.08-50.47-106.3C369,84.29,334,64.39,293,55c-2-.45-4-.91-6.05-1.2-1.1-.15-1.34-.61-1.34-1.62,0-7.72,0-15.44.05-23.17A135.74,135.74,0,0,1,304,32.62,221.16,221.16,0,0,1,405,88.37q50.33,48.36,64.72,116.83a215.77,215.77,0,0,1,4.48,53.69q-3.13,74.28-49.53,132.47A224.21,224.21,0,0,1,287.31,472C286.75,472.08,286.16,472.09,285.59,472.13Z"/><path class="cls-3" d="M211.87,447.16c0,7.85,0,15.71.1,23.56,0,1.75-1.16,1-1.84.89a226.61,226.61,0,0,1-24.91-5.94A225.17,225.17,0,0,1,30,296.72a210.89,210.89,0,0,1-4.66-40.54c-1-61.36,19.27-114.73,61.09-159.53C118.84,62,158.67,40.08,205.2,30.49c1.82-.37,3.65-.71,5.48-1.07.79-.15,1.31-.13,1.3,1-.07,7.85-.08,15.7-.11,23.55-2.33.49-4.67.91-7,1.46-46.71,11.24-85,35.6-114.3,73.76C67,160,53.7,195,50.27,233.62a196.65,196.65,0,0,0,1.78,48.46,199.47,199.47,0,0,0,19.09,59,196.52,196.52,0,0,0,41.51,55.45A198.78,198.78,0,0,0,211.87,447.16Z"/><path class="cls-2" d="M211.87,447.16a198.78,198.78,0,0,1-99.22-50.67A196.52,196.52,0,0,1,71.14,341a199.47,199.47,0,0,1-19.09-59,196.65,196.65,0,0,1-1.78-48.46C53.7,195,67,160,90.59,129.16,119.85,91,158.18,66.64,204.89,55.4c2.31-.55,4.65-1,7-1.46,0,9.08,0,18.15.11,27.23,0,1.43-1.07,1.28-1.83,1.46a153.16,153.16,0,0,0-26.37,8.55q-79.21,34.6-101.51,118.17a158.69,158.69,0,0,0-4.37,25.84,169,169,0,0,0-.59,22.49A157.78,157.78,0,0,0,80.06,282a180,180,0,0,0,9.06,31.61,173.94,173.94,0,0,0,15.26,29.9,168.43,168.43,0,0,0,13,17.88,173.56,173.56,0,0,0,87.17,55.83c2,.56,4,1.14,6.11,1.5,1,.17,1.29.48,1.29,1.44C211.92,429.14,211.9,438.15,211.87,447.16Z"/><path class="cls-3" d="M249.69,138q53.49,0,107,0c1.72,0,2.18.38,2.18,2.15q-.09,97.43,0,194.85a3.1,3.1,0,0,1-1.51,3Q304.47,374,251.72,410.2c-1.51,1-2.46,1.07-4,.05q-53-35.81-106.17-71.47a2.76,2.76,0,0,1-1.48-3,13.58,13.58,0,0,0,.07-2.12q0-56.78.07-113.54,0-29.44.13-58.89c0-7.14.15-14.29.07-21.43,0-1.75.61-1.89,2.07-1.88Q196.11,138,249.69,138Zm-.14,13.71q-46.55,0-93.09,0c-1.81,0-2.49.25-2.45,2.32.15,6.43,0,12.87,0,19.3q-.06,33.12-.12,66.24-.07,43.93-.14,87.87a8.78,8.78,0,0,1-.05,1.54,2.13,2.13,0,0,0,1.21,2.32Q201.47,362.51,248,393.9a2.43,2.43,0,0,0,3.31-.07q46-31.59,92.1-63.07a3.28,3.28,0,0,0,1.62-3.11q-.06-86.91,0-173.82c0-1.73-.39-2.21-2.17-2.2Q296.2,151.72,249.55,151.67Z"/><path class="cls-3" d="M261.39,422.79q0,26,0,51.93a183.88,183.88,0,0,1-23.12.1c-1-.05-1.1-.48-1.1-1.3q0-24.79,0-49.6c0-1.05.31-1.31,1.31-1.23A180.55,180.55,0,0,0,261.39,422.79Z"/><path class="cls-3" d="M261.4,26.39l0,52c-6.16-.3-12.32-.41-18.49-.2-1.41,0-2.83.09-4.22.28-1.24.17-1.51-.24-1.5-1.43.07-5.47,0-10.94,0-16.4,0-10.81,0-21.61,0-32.42,0-1.53.43-1.85,1.91-1.92A195.89,195.89,0,0,1,261.4,26.39Z"/><path class="cls-3" d="M232.72,133.13q1.89-5.94,3.8-11.87c.65-2,1.22-4.05,2-6a1.75,1.75,0,0,0-.79-2.38c-4.72-3.46-9.4-7-14.09-10.46-.39-.29-.76-.59-1.56-1.2h11.61c2.51,0,5-.06,7.53,0a1.83,1.83,0,0,0,2.16-1.52c1.85-5.74,3.83-11.44,5.77-17.14.12-.37.28-.71.56-1.39,1.9,5.84,3.73,11.39,5.52,17,.91,2.81.89,2.82,3.85,2.82h17.65l.09.59c-4.9,3.58-9.78,7.21-14.73,10.72a2.32,2.32,0,0,0-1.07,3.13c1.95,5.89,3.73,11.84,5.74,18.32l-6.89-4.94c-3-2.15-6-4.28-8.88-6.48a1.65,1.65,0,0,0-2.34,0c-5.15,3.72-10.35,7.36-15.54,11Z"/><path class="cls-1" d="M249.55,151.67q46.63,0,93.28,0c1.78,0,2.17.47,2.17,2.2q-.08,86.91,0,173.82a3.28,3.28,0,0,1-1.62,3.11q-46.08,31.49-92.1,63.07a2.43,2.43,0,0,1-3.31.07q-46.49-31.39-93.06-62.68a2.13,2.13,0,0,1-1.21-2.32,8.78,8.78,0,0,0,.05-1.54q.08-43.94.14-87.87,0-33.12.12-66.24c0-6.43.15-12.87,0-19.3,0-2.07.64-2.32,2.45-2.32Q203,151.72,249.55,151.67ZM218.2,332.08c-9.58-6.41-18.81-12.62-28.07-18.76a2.91,2.91,0,0,1-1.51-2.78c.06-9.27,0-18.54.06-27.82,0-1.42-.33-1.84-1.8-1.82-6,.1-12,.09-18,0-1.48,0-2,.32-1.94,1.88.13,6.69.12,13.39.17,20.08,0,6.44.11,12.87.09,19.31a2.63,2.63,0,0,0,1.36,2.46q33.08,22.33,66.11,44.72c1.78,1.21,3.58,2.4,5.61,3.75,0-.86.09-1.42.09-2q0-66.54,0-133.07c0-1.67-.5-2-2-2-15.77.06-31.54,0-47.32.06-1.36,0-2-.14-2-1.8q.12-22.7,0-45.39c0-1.43.32-1.81,1.79-1.8q12.54.12,25.1,0c1.52,0,1.91.38,1.89,1.89-.07,9.79,0,19.57-.07,29.36,0,1.56.31,2.08,2,2.05,6.18-.11,12.36-.09,18.54,0,1.5,0,1.91-.35,1.9-1.88q-.09-25.89,0-51.76c0-1.42-.23-1.94-1.83-1.93q-34.77.09-69.53,0c-1.5,0-1.91.36-1.91,1.89q.08,44.91,0,89.81c0,1.63.46,2,2,2,15.71-.06,31.42,0,47.13-.07,1.65,0,2.12.31,2.12,2.06q-.1,34.77-.05,69.53Zm40.88,41.2a7.53,7.53,0,0,0,.74-.31q35.93-24.29,71.87-48.56a2,2,0,0,0,.93-1.92q0-20,0-40c0-1.26-.32-1.62-1.6-1.61-6.37.07-12.74.09-19.11,0-1.62,0-2.18.27-2.16,2.07.11,9,0,18,.08,27a2.63,2.63,0,0,1-1.3,2.5c-8.18,5.68-16.32,11.43-24.47,17.15l-2.52,1.78v-1.5q0-71.26,0-142.51c0-1.38.37-1.67,1.69-1.66q12.75.09,25.49,0c1.48,0,1.8.4,1.79,1.82-.06,10.49,0,21-.07,31.48,0,1.46.29,2,1.87,1.93,6.11-.1,12.23-.11,18.34,0,1.71,0,1.95-.53,1.94-2.05q-.07-26.16,0-52.33c0-1.63-.43-2-2-2q-34.57.08-69.13,0c-1.93,0-2.41.41-2.41,2.38q.09,102.06.05,204.11Z"/><path class="cls-3" d="M218.2,332.08v-2q0-34.77.05-69.53c0-1.75-.47-2.07-2.12-2.06-15.71.06-31.42,0-47.13.07-1.56,0-2-.34-2-2q.08-44.91,0-89.81c0-1.53.41-1.9,1.91-1.89q34.77.07,69.53,0c1.6,0,1.83.51,1.83,1.93q-.08,25.88,0,51.76c0,1.53-.4,1.9-1.9,1.88-6.18-.08-12.36-.1-18.54,0-1.66,0-2-.49-2-2.05.07-9.79,0-19.57.07-29.36,0-1.51-.37-1.9-1.89-1.89q-12.56.12-25.1,0c-1.47,0-1.8.37-1.79,1.8q.08,22.69,0,45.39c0,1.66.6,1.8,2,1.8,15.78,0,31.55,0,47.32-.06,1.55,0,2,.3,2,2q-.07,66.53,0,133.07c0,.55,0,1.11-.09,2-2-1.35-3.83-2.54-5.61-3.75q-33-22.37-66.11-44.72a2.63,2.63,0,0,1-1.36-2.46c0-6.44-.05-12.87-.09-19.31-.05-6.69,0-13.39-.17-20.08,0-1.56.46-1.9,1.94-1.88,6,.08,12,.09,18,0,1.47,0,1.81.4,1.8,1.82-.06,9.28,0,18.55-.06,27.82a2.91,2.91,0,0,0,1.51,2.78C199.39,319.46,208.62,325.67,218.2,332.08Z"/><path class="cls-3" d="M259.08,373.28v-2.16q0-102.06-.05-204.11c0-2,.48-2.39,2.41-2.38q34.56.1,69.13,0c1.58,0,2,.34,2,2q-.1,26.16,0,52.33c0,1.52-.23,2.08-1.94,2.05-6.11-.12-12.23-.11-18.34,0-1.58,0-1.88-.47-1.87-1.93.06-10.49,0-21,.07-31.48,0-1.42-.31-1.83-1.79-1.82q-12.74.12-25.49,0c-1.32,0-1.7.28-1.69,1.66q0,71.25,0,142.51v1.5l2.52-1.78c8.15-5.72,16.29-11.47,24.47-17.15a2.63,2.63,0,0,0,1.3-2.5c0-9,0-18-.08-27,0-1.8.54-2.09,2.16-2.07,6.37.1,12.74.08,19.11,0,1.28,0,1.6.35,1.6,1.61q-.08,20,0,40a2,2,0,0,1-.93,1.92q-36,24.25-71.87,48.56A7.53,7.53,0,0,1,259.08,373.28Z"/></svg>