<svg class="icon" viewBox="0 0 1024 1024" xmlns="http://www.w3.org/2000/svg" width="200" height="200"><defs><style/></defs><path d="M34.133 512a477.867 477.867 0 10955.734 0 477.867 477.867 0 10-955.734 0z" fill="#ECF0F1"/><path d="M512 870.4c-197.632 0-358.4-160.785-358.4-358.4S314.368 153.6 512 153.6 870.4 314.385 870.4 512 709.632 870.4 512 870.4z" fill="#556080"/><path d="M512 750.933c-131.755 0-238.933-107.178-238.933-238.933S380.245 273.067 512 273.067 750.933 380.245 750.933 512 643.755 750.933 512 750.933z" fill="#E64C3C"/><path d="M512 631.467c-65.86 0-119.467-53.607-119.467-119.467S446.14 392.533 512 392.533 631.467 446.14 631.467 512 577.86 631.467 512 631.467z" fill="#F3D55B"/><path d="M512 1024a17.067 17.067 0 01-17.067-17.067V17.067a17.067 17.067 0 1134.134 0v989.866A17.067 17.067 0 01512 1024z" fill="#ECF0F1"/><path d="M1006.933 529.067H17.067a17.067 17.067 0 110-34.134h989.866a17.067 17.067 0 110 34.134z" fill="#ECF0F1"/></svg>