<svg class="icon" viewBox="0 0 1024 1024" xmlns="http://www.w3.org/2000/svg" width="200" height="200"><defs><style/></defs><path d="M882.746 173.058L739.985 29.432A100.798 100.798 0 00668.605.015H409.038A100.798 100.798 0 00306.51 100.813v605.652a100.798 100.798 0 00100.798 100.798h403.624A100.798 100.798 0 00911.73 706.465V243.574a100.798 100.798 0 00-28.985-70.516z" fill="#d81e06" data-spm-anchor-id="a313x.7781069.0.i27" class="selected"/><path d="M688.072 389.363L544.446 245.737a100.798 100.798 0 00-70.516-29.418H214.365a100.798 100.798 0 00-102.528 100.798V922.77a100.798 100.798 0 00100.798 100.797h403.624a100.798 100.798 0 00101.23-100.797V459.878a100.798 100.798 0 00-29.417-70.515z" fill="#f4ea2a" data-spm-anchor-id="a313x.7781069.0.i26"/></svg>