<svg class="icon" viewBox="0 0 1024 1024" xmlns="http://www.w3.org/2000/svg" width="200" height="200"><defs><style/></defs><path d="M820.622 512.051c0 10.642-8.698 19.238-19.237 19.238H222.718c-10.642 0-19.238-8.698-19.238-19.238s8.698-19.238 19.238-19.238h578.564c10.642-.102 19.34 8.596 19.34 19.238zm192.787 0c0 276.491-224.918 501.41-501.409 501.41S10.591 788.541 10.591 512.05 235.509 10.642 512 10.642s501.409 224.918 501.409 501.41zm-57.816 0c0-244.667-198.926-443.593-443.593-443.593S68.509 267.384 68.509 512.05s198.926 443.594 443.593 443.594S955.593 756.718 955.593 512.05z" fill="#fff"/></svg>