<svg version="1.1" id="Layer_2" xmlns="http://www.w3.org/2000/svg" x="0" y="0" width="841.89" height="595.275" viewBox="0 0 841.89 595.275" xml:space="preserve"><path fill="#3DB44A" d="M44.858 13.177h757.461v568.099H44.858z"/><path fill="#23A94A" d="M76.332 13.177h53.424v568.099H76.332zm106.847 0h53.424v568.099h-53.424zm106.849 0h53.424v568.099h-53.424zm106.851 0h53.419v568.099h-53.419zm106.843 0h53.421v568.099h-53.421zm106.842 0h53.427v568.099h-53.427zm106.852 0h53.424v568.099h-53.424z"/><path fill="none" stroke="#FFF" stroke-width="3.082" d="M97.096 49.827H425.37v493.141H97.096zm328.492 0h328.274v493.141H425.588z"/><circle fill="none" stroke="#FFF" stroke-width="3.082" cx="425.127" cy="296.913" r="50.683"/><circle fill="#FFF" cx="425.126" cy="296.913" r="4.109"/><path fill="none" stroke="#FFF" stroke-width="3.082" d="M188.312 257.923c11.29 9.231 18.496 23.27 18.496 38.99 0 15.718-7.203 29.753-18.488 38.982"/><path fill="none" stroke="#FFF" stroke-width="3.082" d="M96.879 186.983h91.438v220.885H96.879z"/><path fill="none" stroke="#FFF" stroke-width="3.082" d="M96.879 246.569h30.822v99.657H96.879zm-16.437 29.796h16.437v40.066H80.442z"/><circle fill="#FFF" cx="156.467" cy="296.913" r="4.11"/><path fill="none" stroke="#FFF" stroke-width="3.082" d="M661.941 336.93c-11.291-9.232-18.496-23.27-18.496-38.99 0-15.718 7.203-29.753 18.487-38.983"/><path fill="none" stroke="#FFF" stroke-width="3.082" d="M661.938 186.983h91.435v220.885h-91.435z"/><path fill="none" stroke="#FFF" stroke-width="3.082" d="M722.551 248.625h30.822v99.658h-30.822zm30.822 29.796h16.439v40.066h-16.439z"/><circle fill="#FFF" cx="693.786" cy="297.939" r="4.108"/><path fill="none" stroke="#FFF" stroke-width="3.082" d="M114.858 50.58c0 9.93-8.051 17.981-17.981 17.981m.002 456.941c9.93 0 17.979 8.052 17.979 17.981m620.732 0c0-9.93 8.049-17.981 17.981-17.981m-.003-456.941c-9.93 0-17.979-8.051-17.979-17.981"/></svg>