<svg width="737.717" height="922.146" xmlns="http://www.w3.org/2000/svg"><g transform="translate(.287 .14)" id="layer1"><g transform="matrix(2.7109 0 0 -2.7109 61.19 845.161)" id="g2861"><g id="g2863"><path d="M-22.678-28.347v340.162h272.13V-28.347h-272.13z" id="path2865" fill="#232323" fill-opacity="1" fill-rule="nonzero" stroke="none"/></g><g id="g2867"><path d="M0-.567v284.035h226.774V0H-.567" id="path2869" fill="none" stroke="rgba(255,255,255,.3)" stroke-width="1" stroke-linecap="butt" stroke-linejoin="miter" stroke-miterlimit="10" stroke-opacity="1" stroke-dasharray="none"/></g><g id="g2871"><path d="M0 141.734h226.774" id="path2873" fill="none" stroke="rgba(255,255,255,.3)" stroke-width="1" stroke-linecap="butt" stroke-linejoin="miter" stroke-miterlimit="10" stroke-opacity="1" stroke-dasharray="none"/></g><g id="g2875"><path d="M139.324 141.734c0 14.325-11.612 25.937-25.937 25.937-14.325 0-25.937-11.612-25.937-25.937 0-14.325 11.612-25.937 25.937-25.937 14.325 0 25.937 11.612 25.937 25.937z" id="path2877" fill="none" stroke="rgba(255,255,255,.3)" stroke-width="1" stroke-linecap="butt" stroke-linejoin="miter" stroke-miterlimit="10" stroke-opacity="1" stroke-dasharray="none"/></g><g id="g2879"><path d="M114.238 141.734a.85.85 0 11-1.701 0 .85.85 0 011.7 0z" id="path2881" fill="rgba(255,255,255,.3)" fill-opacity="1" fill-rule="nonzero" stroke="rgba(255,255,255,.3)" stroke-width="1" stroke-linecap="butt" stroke-linejoin="miter" stroke-miterlimit="10" stroke-opacity="1" stroke-dasharray="none"/></g><g id="g2883"><path d="M2.835 0A2.835 2.835 0 010 2.835" id="path2885" fill="none" stroke="rgba(255,255,255,.3)" stroke-width="1" stroke-linecap="butt" stroke-linejoin="miter" stroke-miterlimit="10" stroke-opacity="1" stroke-dasharray="none"/></g><g id="g2887"><path d="M226.774 2.835A2.835 2.835 0 01223.94 0" id="path2889" fill="none" stroke="rgba(255,255,255,.3)" stroke-width="1" stroke-linecap="butt" stroke-linejoin="miter" stroke-miterlimit="10" stroke-opacity="1" stroke-dasharray="none"/></g><g id="g2891"><path d="M223.94 283.468a2.835 2.835 0 012.834-2.835" id="path2893" fill="none" stroke="rgba(255,255,255,.3)" stroke-width="1" stroke-linecap="butt" stroke-linejoin="miter" stroke-miterlimit="10" stroke-opacity="1" stroke-dasharray="none"/></g><g id="g2895"><path d="M0 280.633a2.835 2.835 0 012.835 2.835" id="path2897" fill="none" stroke="rgba(255,255,255,.3)" stroke-width="1" stroke-linecap="butt" stroke-linejoin="miter" stroke-miterlimit="10" stroke-opacity="1" stroke-dasharray="none"/></g><g id="g2899"><path d="M56.694 0v46.772H170.08V0" id="path2901" fill="none" stroke="rgba(255,255,255,.3)" stroke-width="1" stroke-linecap="butt" stroke-linejoin="miter" stroke-miterlimit="10" stroke-opacity="1" stroke-dasharray="none"/></g><g id="g2903"><path d="M87.875 0v15.59H138.9V0" id="path2905" fill="none" stroke="rgba(255,255,255,.3)" stroke-width="1" stroke-linecap="butt" stroke-linejoin="miter" stroke-miterlimit="10" stroke-opacity="1" stroke-dasharray="none"/></g><g id="g2907"><path d="M92.552 46.772a25.94 25.94 0 0041.43 0" id="path2909" fill="none" stroke="rgba(255,255,255,.3)" stroke-width="1" stroke-linecap="butt" stroke-linejoin="miter" stroke-miterlimit="10" stroke-opacity="1" stroke-dasharray="none"/></g><g id="g2911"><path d="M114.238 31.182a.85.85 0 11-1.701 0 .85.85 0 011.7 0z" id="path2913" fill="rgba(255,255,255,.3)" fill-opacity="1" fill-rule="nonzero" stroke="rgba(255,255,255,.3)" stroke-width="1" stroke-linecap="butt" stroke-linejoin="miter" stroke-miterlimit="10" stroke-opacity="1" stroke-dasharray="none"/></g><g id="g2915"><path d="M103.466 0v-5.67h19.843V0" id="path2917" fill="none" stroke="rgba(255,255,255,.3)" stroke-width="1" stroke-linecap="butt" stroke-linejoin="miter" stroke-miterlimit="10" stroke-opacity="1" stroke-dasharray="none"/></g><g id="g2919"><path d="M56.694 283.468v-46.772H170.08v46.772" id="path2921" fill="none" stroke="rgba(255,255,255,.3)" stroke-width="1" stroke-linecap="butt" stroke-linejoin="miter" stroke-miterlimit="10" stroke-opacity="1" stroke-dasharray="none"/></g><g id="g2923"><path d="M87.875 283.468v-15.59H138.9v15.59" id="path2925" fill="none" stroke="rgba(255,255,255,.3)" stroke-width="1" stroke-linecap="butt" stroke-linejoin="miter" stroke-miterlimit="10" stroke-opacity="1" stroke-dasharray="none"/></g><g id="g2927"><path d="M92.552 236.696a25.94 25.94 0 0141.43 0" id="path2929" fill="none" stroke="rgba(255,255,255,.3)" stroke-width="1" stroke-linecap="butt" stroke-linejoin="miter" stroke-miterlimit="10" stroke-opacity="1" stroke-dasharray="none"/></g><g id="g2931"><path d="M114.238 252.286a.85.85 0 11-1.701 0 .85.85 0 011.7 0z" id="path2933" fill="rgba(255,255,255,.3)" fill-opacity="1" fill-rule="nonzero" stroke="rgba(255,255,255,.3)" stroke-width="1" stroke-linecap="butt" stroke-linejoin="miter" stroke-miterlimit="10" stroke-opacity="1" stroke-dasharray="none"/></g><g id="g2935"><path d="M103.466 283.468v5.67h19.843v-5.67" id="path2937" fill="none" stroke="rgba(255,255,255,.3)" stroke-width="1" stroke-linecap="butt" stroke-linejoin="miter" stroke-miterlimit="10" stroke-opacity="1" stroke-dasharray="none"/></g></g></g></svg>