<svg xmlns="http://www.w3.org/2000/svg" height="1060" width="700" id="svg2" version="1.0"><g id="layer1" fill-opacity="1" fill-rule="evenodd" stroke-linecap="butt" stroke-linejoin="miter" stroke-miterlimit="4" stroke-opacity="1"><path id="rect1872" fill="#00a000" stroke="none" stroke-width="10" stroke-dasharray="none" d="M0 0h700v1060H0z"/><g id="g3772"><path id="path3770" d="M423.451 869.147h2.076c-16.77-23.637-44.364-39.062-75.531-39.062h0c-31.167 0-58.73 15.425-75.5 39.062h2.046" fill="none" stroke="#fff" stroke-width="5.074" stroke-dasharray="none"/><path id="path3747" d="M152.937 1029.99h-2.469V869.126h399.064v160.864h-2.531" fill="none" stroke="#fff" stroke-width="5"/><path transform="matrix(.88725 0 0 .9555 -23.572 114.892)" d="M426.68 845.373a5.635 5.233 0 11-11.272 0 5.635 5.233 0 1111.271 0z" id="path10770" fill="#fff" stroke="none" stroke-width="5" stroke-dasharray="none"/><path transform="matrix(1.0647 0 0 1.1466 -98.286 -439.306)" d="M426.68 845.373a5.635 5.233 0 11-11.272 0 5.635 5.233 0 1111.271 0z" id="path11672" fill="#fff" stroke="none" stroke-width="5" stroke-dasharray="none"/><path transform="matrix(.88725 0 0 .9555 -23.572 -670.108)" d="M426.68 845.373a5.635 5.233 0 11-11.272 0 5.635 5.233 0 1111.271 0z" id="path11674" fill="#fff" stroke="none" stroke-width="5" stroke-dasharray="none"/><path id="path1911" d="M30.57 1015.98c6.96-.178 12.749 5.467 12.922 12.601.003.113.004.208.004.321" fill="none" stroke="#fff" stroke-width="5"/><path id="path3742" d="M262.445 1030h-2.5v-51.91h180.11V1030h-2.5" fill="none" stroke="#fff" stroke-width="5"/><path id="path1905" d="M442.537 530c0 51.08-41.457 92.537-92.537 92.537-51.08 0-92.537-41.457-92.537-92.537 0-51.08 41.457-92.537 92.537-92.537 51.08 0 92.537 41.457 92.537 92.537z" fill="none" stroke="#fff" stroke-width="5"/><path id="path1903" d="M30.351 530h639.298" fill="none" stroke="#fff" stroke-width="5"/><path id="path2803" d="M437.586 30.01h2.469v51.91h-180.11V30.01h2.531" fill="none" stroke="#fff" stroke-width="5"/><path id="path1899" d="M30 30h640v1000H30V30z" fill="none" stroke="#fff" stroke-width="5"/><path id="path2817" d="M547 30.007h2.532v160.864H150.468V30.007h2.5" fill="none" stroke="#fff" stroke-width="5"/><path id="path2832" d="M276.287 190.921l-2.041.012h0c16.744 23.842 44.423 39.437 75.75 39.437 31.329 0 59.037-15.592 75.781-39.437h-2.038" fill="none" stroke="#fff" stroke-width="5"/><path id="path1893" d="M668.564 43.79c-6.96.178-12.75-5.467-12.923-12.601a12.62 12.62 0 01-.004-.321" fill="none" stroke="#fff" stroke-width="5"/><path id="path1891" d="M44.297 30.99c.178 6.96-5.468 12.75-12.602 12.923-.112.003-.208.004-.32.004" fill="none" stroke="#fff" stroke-width="5"/><path id="path13489" d="M655.296 1028.5c-.177-6.96 5.468-12.75 12.602-12.923.113-.003.208-.004.32-.004" fill="none" stroke="#fff" stroke-width="5"/></g></g></svg>