<svg class="icon" viewBox="0 0 1024 1024" xmlns="http://www.w3.org/2000/svg" width="200" height="200"><defs><style/></defs><path d="M164.049 739.783l-30.341 22.756a18.963 18.963 0 1022.755 30.34l30.341-22.755a18.963 18.963 0 10-22.755-30.34zm51.446-361.49l-26.832-26.814a18.963 18.963 0 00-26.814 26.832l26.832 26.814a18.906 18.906 0 0026.814-.02 18.944 18.944 0 000-26.813zm31.024 127.772a18.963 18.963 0 0018.962-18.963v-37.926a18.963 18.963 0 10-37.925 0v37.926a18.963 18.963 0 0018.963 18.963zm0 113.777a18.963 18.963 0 0018.962-18.963v-37.926a18.963 18.963 0 10-37.925 0v37.926a18.963 18.963 0 0018.963 18.963zm-111.484-321.99l-26.813-26.814a18.944 18.944 0 10-26.814 26.813l26.814 26.814a18.906 18.906 0 0026.813 0 18.944 18.944 0 000-26.814zm807.557-26.814a18.944 18.944 0 00-26.814 0l-26.813 26.813a18.944 18.944 0 1026.813 26.814l26.814-26.814a18.944 18.944 0 000-26.813zm-47.54 481.716l-32.161-20.101a18.963 18.963 0 00-20.12 32.161l32.161 20.101a18.925 18.925 0 0026.131-6.03 18.944 18.944 0 00-6.011-26.131zm-117.57-132.912a18.963 18.963 0 0018.962-18.963v-37.926a18.963 18.963 0 10-37.925 0v37.926a18.963 18.963 0 0018.962 18.963zm84.67-241.53a18.963 18.963 0 10-26.815-26.833l-26.832 26.813a18.963 18.963 0 0026.814 26.852l26.832-26.833zm-84.67 127.753a18.963 18.963 0 0018.962-18.963v-37.926a18.963 18.963 0 10-37.925 0v37.926a18.963 18.963 0 0018.962 18.963zm21.086 186.387l-2.124-1.328v-14.393a18.963 18.963 0 10-37.925 0v24.899a18.963 18.963 0 008.912 16.08l11.037 6.903a18.925 18.925 0 0026.13-6.03 18.963 18.963 0 00-6.03-26.131zm-400.346-9.785h-37.926a18.963 18.963 0 100 37.926h37.926a18.963 18.963 0 100-37.926zm94.815 0h-18.963a18.963 18.963 0 100 37.926h18.963a18.963 18.963 0 100-37.926zm-208.593 0h-18.963v-5.936a18.963 18.963 0 10-37.925 0v15.417l-2.807 2.124a18.963 18.963 0 1022.756 30.34l5.328-4.02h31.611a18.963 18.963 0 100-37.925zm417.186 0h-37.926a18.963 18.963 0 100 37.926h37.926a18.963 18.963 0 100-37.926z" fill="#D0E8F9"/><path d="M993.583 834.37h-33.962a30.417 30.417 0 01-30.436-30.416v-519.51H94.815v519.51c0 16.801-13.616 30.416-30.417 30.416H30.417A30.417 30.417 0 010 803.954v-569.23a45.094 45.094 0 0145.094-45.094h927.08A51.977 51.977 0 011024 241.455v562.48c0 16.82-13.615 30.435-30.417 30.435z" fill="#C8D4DB"/><path d="M646.03 640.683l-15.17 4.058-18.963-18.963 2.825-10.563a84.67 84.67 0 00-36.352-8.4 85.068 85.068 0 00-60.34 24.993l12.933 12.933-6.94 25.903-25.904 6.94-3.186-3.185c-1.213 5.746-1.896 11.662-1.896 17.75 0 19.948 7.13 38.058 18.603 52.583l19.323-5.176 18.963 18.963-3.394 12.686a84.992 84.992 0 0031.838 6.276c15.095 0 29.052-4.247 41.359-11.13l-12.914-12.915 6.94-25.903 25.904-6.94 12.913 12.913a84.31 84.31 0 0011.132-41.358 84.613 84.613 0 00-17.674-51.465zm-51.238 67.887l-25.903 6.94-18.963-18.962 6.94-25.904 25.904-6.94 18.963 18.963-6.94 25.903z" fill="#ECF0F1"/><path d="M556.866 670.644l-6.94 25.904 18.963 18.963 25.903-6.94 6.94-25.904-18.962-18.963zm56.89 56.889l-6.941 25.903 12.914 12.914a85.144 85.144 0 0032.843-32.844l-12.913-12.913-25.904 6.94zm17.104-82.792l15.17-4.058a85.239 85.239 0 00-31.308-25.449l-2.825 10.544 18.963 18.963zm-106.837 25.903l6.94-25.903-12.933-12.933a85.257 85.257 0 00-23.097 42.59l3.186 3.187 25.904-6.94zm6.94 68.912l-19.323 5.176a85.163 85.163 0 0034.892 26.473l3.394-12.686-18.963-18.963z" fill="#38454F"/></svg>