<svg class="icon" viewBox="0 0 1024 1024" xmlns="http://www.w3.org/2000/svg" width="200" height="200"><defs><style/></defs><path d="M847.448 132.414L653.241 44.138l59.375 26.995 46.556 131.901H264.828l46.556-131.901 59.375-26.995-194.207 88.276L0 414.897l141.241 105.93 105.931-123.586v582.621h529.656v-582.62l88.275 123.586L1024 414.897z" fill="#F0C419"/><path d="M425.26 158.102zm-48.322-87.517c6.974 24.77 16.225 44.65 26.571 60.593-10.346-15.943-19.597-35.822-26.571-60.593zm135.044 124.487c-5.208.653-8.474.76-8.474.76s-19.968-.301-44.809-13.207c24.84 12.906 44.809 13.206 44.809 13.206s3.266-.106 8.474-.759z" fill="#659C35"/><path d="M264.828 203.034H512v-7.962h-.018c-5.208.653-8.474.777-8.474.777s-19.968-.3-44.809-13.206a137.516 137.516 0 01-33.439-24.523 160.044 160.044 0 01-21.751-26.942c-10.328-15.943-19.58-35.822-26.571-60.593a312.744 312.744 0 01-6.18-26.447l-59.374 26.995-46.556 131.901zm255.664-7.185s-3.284-.106-8.492-.777v7.962h247.172L712.616 71.133 653.24 44.138c-28.44 150.122-132.748 151.71-132.748 151.71zM247.172 838.62h529.656v52.965H247.172zm346.96-317.793a97.015 97.015 0 0041.454-79.449c0-53.53-43.573-97.103-97.103-97.103h-52.966a97.227 97.227 0 00-97.103 97.103c0 32.839 16.437 61.864 41.454 79.449a97.015 97.015 0 00-41.454 79.448c0 53.53 43.573 97.103 97.103 97.103h52.966c53.53 0 97.103-43.573 97.103-97.103 0-32.839-16.437-61.864-41.454-79.448zm-170.408-79.449c0-34.074 27.719-61.793 61.793-61.793h52.966c34.074 0 61.793 27.719 61.793 61.793s-27.719 61.793-61.793 61.793h-52.966c-34.074 0-61.793-27.718-61.793-61.793zm114.759 220.69h-52.966c-34.074 0-61.793-27.719-61.793-61.793s27.719-61.793 61.793-61.793h52.966c34.074 0 61.793 27.718 61.793 61.793s-27.719 61.793-61.793 61.793z" fill="#659C35"/></svg>