<svg class="icon" viewBox="0 0 1024 1024" xmlns="http://www.w3.org/2000/svg" width="200" height="200"><defs><style/></defs><path d="M547.93 89.825h-71.86a17.965 17.965 0 100 35.93h17.965v71.859h35.93v-71.86h17.965a17.965 17.965 0 100-35.93z" fill="#F3D55B"/><path d="M512 215.579c-59.446 0-107.79-48.344-107.79-107.79S452.555 0 512 0s107.79 48.344 107.79 107.79S571.445 215.578 512 215.578zm0-179.65c-39.63 0-71.86 32.23-71.86 71.86s32.23 71.86 71.86 71.86 71.86-32.229 71.86-71.86S551.63 35.93 512 35.93z" fill="#D1D4D1"/><path d="M98.807 610.807a413.193 413.193 0 10826.386 0 413.193 413.193 0 10-826.386 0z" fill="#ECF0F1"/><path d="M530.684 969.387a17.785 17.785 0 01-17.786-16.887c-.36-4.85 1.258-9.504 4.491-13.097s7.546-5.587 12.396-5.928c11.318-.54 22.636-1.815 33.595-3.593 9.88-1.437 19.042 5.21 20.66 14.91a18.324 18.324 0 01-14.912 20.66c-12.575 1.959-25.15 3.234-37.367 3.953l-1.077-.018zm-71.142-3.414c-.898 0-1.796-.18-2.694-.359-12.576-1.814-24.972-4.491-36.828-7.545a17.66 17.66 0 01-10.959-8.264c-2.335-4.132-3.054-8.983-1.796-13.671a17.803 17.803 0 0121.917-12.755c10.958 2.694 22.097 5.03 33.055 6.844 8.803 1.24 15.27 8.785 15.27 17.767 0 .899 0 1.815-.18 2.695a17.965 17.965 0 01-17.785 15.288zM635.06 947.11c-7.366 0-14.013-4.67-16.708-11.497a18.504 18.504 0 01.36-13.851 18.833 18.833 0 019.88-9.504c10.6-3.97 21.02-8.623 30.9-13.671 8.803-4.491 19.761-.898 24.253 7.743 1.257 2.515 1.976 5.39 1.976 8.264 0 5.569-2.695 10.94-7.186 14.192h.898l-4.132 2.138c-10.959 5.587-22.276 10.617-33.774 14.91a15.126 15.126 0 01-6.467 1.276zm-277.2-13.833c-2.695 0-5.57-.539-8.084-1.814-11.318-5.731-22.277-12.037-32.696-18.684-3.953-2.677-6.647-6.647-7.725-11.318a17.444 17.444 0 012.515-13.653c5.21-7.905 16.707-10.42 24.791-5.39 9.342 6.109 19.223 11.857 29.283 16.87 6.108 3.054 9.881 9.162 9.881 16.006 0 2.857-.539 5.57-1.797 8.264-3.233 5.947-9.341 9.72-16.168 9.72zm369.54-39.702a18.055 18.055 0 01-17.785-19.762 17.246 17.246 0 016.467-12.216c8.264-6.647 16.528-14.012 24.433-22.097l.359-.359c.18 0 .18-.18.36-.18 6.646-6.844 18.503-6.844 25.33-.197a17.965 17.965 0 015.39 12.755c0 4.868-1.977 9.36-5.39 12.755v.198c-.18 0-.36.18-.36.359a449.867 449.867 0 01-27.306 24.612c-3.234 2.695-7.186 4.132-11.498 4.132zM271.45 870.92c-4.85 0-9.34-1.958-12.754-5.21-.18-.18-.36-.52-.54-.718h-.179c0-.18 0-.18-.18-.36-8.623-8.443-17.066-17.785-24.97-27.666a17.785 17.785 0 01-3.953-13.294c.539-4.67 2.874-8.982 6.467-12.036a18.684 18.684 0 0125.33 2.695c7.007 8.605 14.732 17.066 22.637 25.132.359.198.539.378.718.719l.36.198c3.233 3.395 5.03 7.725 5.03 12.377 0 4.869-1.976 9.36-5.21 12.756a17.821 17.821 0 01-12.755 5.407zm527.271-56.93c-3.593 0-6.827-.9-9.701-2.875-8.444-5.39-10.779-16.528-5.39-24.792 6.109-9.342 11.678-19.204 16.887-29.283 4.312-8.605 15.45-12.377 24.073-7.886a17.75 17.75 0 017.905 24.073c-5.57 11.138-11.857 22.079-18.683 32.678-3.414 5.03-8.983 8.084-15.091 8.084zm-590.866-30.182c-6.827 0-12.935-3.773-15.989-9.88-5.749-11.139-10.779-22.654-15.27-34.314a17.965 17.965 0 0110.42-23.174c8.982-3.593 19.761 1.437 23.174 10.42 4.132 10.778 8.803 21.018 13.654 30.899 1.437 2.515 1.976 5.21 1.976 8.084 0 6.827-3.773 12.935-9.88 15.989-2.516 1.258-5.21 1.976-8.085 1.976zm633.982-67.368c-1.617 0-3.054-.18-4.671-.54a18.163 18.163 0 01-12.755-22.078c2.874-10.6 5.21-21.738 7.006-33.056 1.437-9.7 10.6-16.545 20.48-15.108a17.965 17.965 0 0115.09 17.785c0 .898 0 1.976-.179 2.875-1.796 12.036-4.491 24.432-7.545 36.648-2.156 7.887-9.342 13.474-17.426 13.474zm-666.858-34.152c-8.803 0-16.348-6.647-17.785-15.27a329.077 329.077 0 01-3.773-37.367c-.359-4.67 1.258-9.342 4.492-12.935 3.233-3.593 7.724-5.587 12.395-5.928 9.881-.539 18.325 7.168 18.864 17.067.538 11.12 1.796 22.456 3.593 33.576a17.965 17.965 0 01-14.911 20.48 14.713 14.713 0 01-2.875.377zm677.637-72.02c-9.522 0-17.426-7.546-17.965-17.068-.54-11.138-1.797-22.456-3.414-33.594-.18-.898-.359-1.796-.359-2.677 0-8.803 6.468-16.527 15.27-17.965 9.701-1.437 19.043 5.21 20.48 15.09 1.977 12.037 3.234 24.613 3.953 37.368.539 9.7-7.007 18.324-16.887 18.863l-1.078-.018zm-677.637-34.673c-.898 0-1.796-.18-2.874-.377a17.965 17.965 0 01-15.09-17.768c0-.916 0-1.814.179-2.695 1.976-12.395 4.491-24.791 7.725-36.828 2.515-9.36 12.575-15.288 21.917-12.755a17.785 17.785 0 0110.959 8.444c2.515 4.114 3.054 8.982 1.976 13.653-2.875 10.42-5.21 21.558-7.006 33.056-1.438 8.802-8.983 15.27-17.786 15.27zm655.54-69.704c-7.545 0-14.192-4.689-16.887-11.516-3.593-9.7-7.905-19.402-12.576-28.743l-1.257-2.156a17.965 17.965 0 017.904-24.253c8.624-4.311 19.762-.718 24.073 7.887 5.929 11.318 11.139 22.833 15.45 34.313 3.414 9.162-1.078 19.581-10.42 23.174a14.623 14.623 0 01-6.287 1.294zm-622.844-31.978c-2.694 0-5.569-.718-8.084-1.976a17.75 17.75 0 01-7.904-24.073c5.748-11.138 12.036-22.079 18.863-32.516 5.21-8.084 16.707-10.6 24.791-5.408 3.953 2.695 6.827 6.647 7.725 11.336 1.078 4.671.18 9.504-2.335 13.474-6.288 9.503-12.037 19.402-16.887 29.283l-.36.52c-3.233 5.767-9.162 9.36-15.809 9.36zm569.308-60.362c-5.569 0-10.599-2.515-14.012-6.647-7.006-8.605-14.372-16.869-22.097-24.414l-2.156-2.156h.18c-2.515-3.234-3.773-7.186-3.952-11.318 0-4.67 1.976-9.162 5.389-12.575 6.647-6.827 18.504-6.827 25.33-.18.18.18.18.36.36.36l.36.538a350.774 350.774 0 0124.431 27.127c3.054 3.593 4.492 8.264 3.953 13.115-.54 4.67-2.695 8.982-6.468 12.036a17.75 17.75 0 01-11.318 4.114zm-506.61-26.067a17.73 17.73 0 01-12.576-5.192 17.965 17.965 0 01-5.389-12.773c0-4.67 1.976-9.162 5.21-12.378l.898-.898c8.264-8.461 17.426-16.725 27.127-24.432 7.366-6.108 19.223-4.85 25.33 2.515a18.145 18.145 0 01-2.694 25.33c-8.623 7.025-17.067 14.57-24.971 22.457l-.18.197a17.821 17.821 0 01-12.755 5.174zm427.206-45.253c-3.593 0-6.827-1.078-9.881-2.875-8.983-5.928-18.504-11.318-28.025-16.348l-1.258-.52a17.785 17.785 0 01-7.905-24.092 18.504 18.504 0 0124.253-8.066c11.138 5.73 22.097 12.036 32.517 18.863 3.952 2.515 6.826 6.647 7.904 11.318.898 4.67 0 9.521-2.515 13.474a17.965 17.965 0 01-15.09 8.246zm-340.795-17.426c-6.827 0-12.935-3.773-16.168-9.881-1.258-2.533-1.797-5.408-1.797-8.084 0-6.827 3.773-12.953 9.701-16.007 10.959-5.73 22.636-10.779 34.493-15.27 8.803-3.414 19.582 1.257 23.175 10.24 1.617 4.491 1.437 9.342-.36 13.833-1.976 4.311-5.569 7.725-10.06 9.36-10.42 4.113-20.66 8.605-30.36 13.473l-.54.36c-2.515 1.257-5.21 1.976-8.084 1.976zm243.245-25.87c-1.617 0-3.234-.18-4.67-.539a367.227 367.227 0 00-33.056-7.006 17.84 17.84 0 01-15.27-17.785c0-.899 0-1.797.18-2.677a17.785 17.785 0 0119.581-15.09l.898.179c.54 0 .898 0 1.258.18 12.216 1.976 24.073 4.49 35.57 7.545 4.671 1.257 8.444 4.132 10.959 8.264 2.335 4.132 3.054 8.982 1.796 13.653a17.857 17.857 0 01-17.246 13.276zm-141.743-7.186c-8.983 0-16.348-6.306-17.785-15.108-.18-.899-.18-1.797-.18-2.677-.18-8.803 6.467-16.528 15.09-17.965 12.217-1.814 24.792-3.252 37.368-3.773 10.06-.898 18.324 7.007 18.863 16.87a17.893 17.893 0 01-16.887 18.88c-11.498.701-22.816 1.797-33.595 3.576-1.078.197-1.976.197-2.874.197z" fill="#38454F"/><path d="M470.753 652.989a44.733 44.733 0 016.377-68.537l232.143-175.607c3.718-2.533 8.192 1.94 5.659 5.66L539.307 646.628a44.733 44.733 0 01-68.554 6.36z" fill="#48A0DC"/></svg>