<svg class="icon" viewBox="0 0 1024 1024" xmlns="http://www.w3.org/2000/svg" width="200" height="200"><defs><style/></defs><path d="M737.941 313.636L539.219 512.051l198.415 198.415c7.47 7.47 7.47 19.75 0 27.22-3.888 3.888-8.698 5.525-13.712 5.525-5.014 0-9.926-1.944-13.712-5.526L512 539.271 313.585 737.685c-3.888 3.889-8.698 5.526-13.712 5.526-5.014 0-9.926-1.944-13.712-5.526-7.47-7.47-7.47-19.75 0-27.22l198.415-198.414-198.415-198.415c-7.47-7.47-7.47-19.749 0-27.219 7.47-7.47 19.75-7.47 27.22 0L511.795 484.73 710.21 286.417c7.47-7.47 19.75-7.47 27.22 0 7.981 7.47 7.981 19.442.511 27.22zm275.468 198.415c0 276.491-224.918 501.41-501.409 501.41S10.591 788.541 10.591 512.05 235.509 10.642 512 10.642s501.409 224.918 501.409 501.41zm-57.816 0c0-244.667-198.926-443.593-443.593-443.593S68.509 267.384 68.509 512.05s198.926 443.594 443.593 443.594S955.593 756.718 955.593 512.05z" fill="#fff"/></svg>