<svg class="icon" viewBox="0 0 1024 1024" xmlns="http://www.w3.org/2000/svg" width="200" height="200"><defs><style/></defs><path d="M213.333 213.333a42.667 42.667 0 000 85.334h597.334a42.667 42.667 0 100-85.334H213.333zm0 170.667a42.667 42.667 0 000 85.333h341.334a42.667 42.667 0 100-85.333H213.333zm-42.666 213.333a42.667 42.667 0 0142.666-42.666h512a42.667 42.667 0 110 85.333h-512a42.667 42.667 0 01-42.666-42.667zm42.666 128a42.667 42.667 0 100 85.334H640a42.667 42.667 0 100-85.334H213.333z" fill="#fff"/></svg>