<svg class="icon" viewBox="0 0 1024 1024" xmlns="http://www.w3.org/2000/svg" width="200" height="200"><defs><style/></defs><path d="M0 0h1024v1024H0z" fill="#FFF"/><path d="M549.804 882.932H712.04a28.532 28.532 0 010 57.068H311.96a28.532 28.532 0 110-57.068h172.732L138.04 282.504C242.32 125.876 367.624 74.28 513.944 127.716c115.5 42.18 217.64 35.52 306.412-19.984 26.76-16.728 62.012-8.6 78.744 18.16a57.144 57.144 0 018.424 24.78c15.2 156.84-56.06 266.692-213.776 329.548-139.396 55.556-213.676 143.62-222.84 264.2l76.02 131.572a28.6 28.6 0 012.876 6.94z" fill="#F85757"/><path d="M304.076 273.2a28.572 28.572 0 01-41.296-39.5c41.268-43.14 102.52-64.14 182.024-64.14a28.572 28.572 0 010 57.144c-65.116 0-111.448 15.88-140.728 46.496z" fill="#FBABAB"/></svg>