<svg version="1.1" id="Layer_1" xmlns="http://www.w3.org/2000/svg" x="0" y="0" viewBox="0 0 512.001 512.001" xml:space="preserve"><path d="M248.506 362.134s0 27.11 21.482 68.029c13.366 25.46 16.449 50.914 16.871 66.517v.004c.048 1.775.062 3.418.051 4.923.716 4.481 3.645 10.393 14.131 10.393h97.093c.768-.006 13.044-.323 11.441-15.321v-.003c-3.663-27.322-7.545-88.154 15.403-157.818 36.307-110.222-110.49-190.014-110.49-190.014v137.944l-23.983-34.341c-11.026-15.784-32.759-19.641-48.545-8.619-15.784 11.025-19.647 32.758-8.621 48.545l48.719 69.76h-33.552z" fill="#f9d18a"/><path d="M233.339 292.374c-11.026-15.787-7.163-37.521 8.621-48.545 15.786-11.023 37.52-7.165 48.545 8.619l23.983 34.341V18.413C314.488 8.245 306.244 0 296.074 0H99.663C89.494 0 81.249 8.245 81.249 18.413V343.72c0 10.168 8.245 18.413 18.414 18.413h182.395l-48.719-69.759z" fill="#ea473b"/><path d="M296.074 0H187.072c-17.664 37.733-27.551 79.832-27.551 124.249 0 97.897 47.955 184.582 121.643 237.886h.894l-48.719-69.76c-11.026-15.787-7.163-37.521 8.621-48.545 15.786-11.023 37.52-7.165 48.545 8.619l23.983 34.341V18.413C314.488 8.245 306.244 0 296.074 0z" fill="#f75652"/><path d="M110.436 343.72V18.413C110.436 8.245 118.681 0 128.851 0H99.663C89.494 0 81.249 8.245 81.249 18.413V343.72c0 10.168 8.245 18.413 18.414 18.413h29.188c-10.17.001-18.415-8.244-18.415-18.413z" fill="#d32420"/><path d="M354.985 317.781l-40.496-57.987v26.972l27.835 39.857a7.719 7.719 0 0010.753 1.909 7.721 7.721 0 001.908-10.751z" fill="#efb860"/></svg>