<svg class="icon" viewBox="0 0 1024 1024" xmlns="http://www.w3.org/2000/svg" width="200" height="200"><defs><style/></defs><path d="M658.286 45.714l-18.286 16v905.673a351.927 351.927 0 0036.571-9.234V46.464c-11.446-.896-18.285-.75-18.285-.75zM493.714 156.91v821.175a846.153 846.153 0 0036.572 0V156.91a31.653 31.653 0 01-36.572 0zm-73.143-63.196v879.452c11.374 1.39 23.552 2.523 36.554 3.383l.018-850.835-36.572-32zm-54.857-48s-6.839-.146-18.285.732v911.689c10.861 3.401 22.966 6.528 36.571 9.234V61.714l-18.286-16zm201.143 80V976.53a630.437 630.437 0 0036.572-3.383V93.714l-36.572 32zm-439.022 30.52c.019.292.165.53.165.822V448h36.571V119.99a303.05 303.05 0 00-36.736 36.243zM713.143 51.546v892.05c16.786-8.484 28.47-17.48 36.571-25.782V60.763a345.472 345.472 0 00-36.571-9.216zm-438.857 9.216v857.052c8.1 8.302 19.785 17.298 36.571 25.783V51.548c-11.136 2.157-23.424 5.138-36.571 9.215zM36.57 448h54.86V209.042C59.575 266.313 37.723 343.552 36.57 448zM201.143 93.678V448h36.571V74.55c-12.013 5.34-24.283 11.63-36.571 19.128zm695.022 62.555a303.05 303.05 0 00-36.736-36.242V448H896V157.056c0-.293.146-.53.165-.823zm-109.88-81.682V448h36.572V93.678a318.263 318.263 0 00-36.571-19.127zM987.43 448c-1.152-104.448-23.004-181.705-54.858-238.958V448h54.858z" fill="#E6E6E6"/><path d="M932.571 209.042a324.078 324.078 0 00-36.406-52.79c-.019.274-.165.511-.165.804V448h36.571V209.042zM822.857 93.678V448h36.572V119.99a306.651 306.651 0 00-36.572-26.312zM164.571 119.99V448h36.572V93.678a306.651 306.651 0 00-36.572 26.313zm-36.736 36.242a325.065 325.065 0 00-36.406 52.81V448H128V157.056c0-.293-.146-.53-.165-.823zm362.954-1.079l-33.646-29.44-.018 850.816a811.13 811.13 0 0036.59 1.536V156.91c-.952-.677-2.049-.97-2.926-1.756zM384 61.714v905.673c11.154 2.231 23.387 4.151 36.571 5.779V93.714l-36.571-32zm-73.143-10.167v892.05c10.185 5.157 22.272 10.094 36.572 14.556V46.464c-9.363.731-21.852 2.213-36.572 5.083zm-73.143 23.004V448H256v438.857s1.7 13.952 18.286 30.94V60.763a337.585 337.585 0 00-36.572 13.788zm295.497 80.603c-.877.787-1.974 1.08-2.925 1.756v821.175a811.429 811.429 0 0036.571-1.536V125.714l-33.646 29.44zm70.218-61.44v879.452c13.184-1.628 25.417-3.548 36.571-5.779V61.714l-36.571 32zm146.285-32.95v857.05C766.3 900.828 768 886.876 768 886.876V448.018h18.286V74.551a337.59 337.59 0 00-36.572-13.788zm-73.143-14.3v911.69a241.39 241.39 0 0036.572-14.556V51.548a324.974 324.974 0 00-36.572-5.084z" fill="#38454F"/><path d="M256 539.429H41.18A41.18 41.18 0 010 498.249v-9.051A41.198 41.198 0 0141.18 448H256v91.429zm726.82 0H768V448h214.82a41.18 41.18 0 0141.18 41.18v9.05a41.18 41.18 0 01-41.18 41.199z" fill="#DF4D60"/><path d="M512 163.127a32.1 32.1 0 01-21.211-7.973L365.714 45.714s-30.628-.804-73.143 9.893v154.679L512 163.126zm0 0a32.1 32.1 0 0021.211-7.973l125.075-109.44s30.628-.804 73.143 9.893v154.679L512 163.126z" fill="#38454F"/></svg>