<svg class="icon" viewBox="0 0 1168 1024" xmlns="http://www.w3.org/2000/svg" width="228.125" height="200"><defs><style/></defs><path d="M166.698 238.14H991.68v552.823H166.698z" fill="#296AEE"/><path d="M250.047 614.06H904.93c39.123 0 71.442 32.319 71.442 71.442v8.505c0 39.123-32.319 71.442-71.442 71.442H250.047c-39.123 0-71.442-32.32-71.442-71.442v-8.505c0-39.123 32.319-71.442 71.442-71.442z" fill="#9BB9F7"/><path d="M768.85 340.2L659.987 554.524l-103.761-136.08L409.94 728.027h505.196L768.85 340.199zM561.33 464.371L666.79 595.35l100.36-190.513 113.966 299.376-425.249-1.701 105.462-238.14z" fill="#FFF"/><path d="M136.08 57.834h28.917c6.804 0 10.206 5.103 10.206 10.206v751.84c0 6.804-5.103 10.206-10.206 10.206H136.08c-6.804 0-10.206-5.103-10.206-10.206V68.04c0-5.103 5.103-10.206 10.206-10.206zm0 719.521h966.166c6.804 0 11.907 5.103 11.907 11.907v30.618c0 6.804-5.103 11.907-11.907 11.907H136.08c-6.804 0-11.907-5.103-11.907-11.907v-30.618c1.7-6.804 6.804-11.907 11.907-11.907zm852.2-581.74h28.916c6.804 0 10.206 5.103 10.206 10.206v750.14c0 6.803-5.103 10.205-10.206 10.205h-28.917c-6.804 0-10.206-5.103-10.206-10.206V205.82c-1.7-5.102 3.402-10.205 10.206-10.205zm-937.25 0h966.166c6.804 0 11.907 5.103 11.907 11.907v28.917c0 6.804-5.103 11.907-11.907 11.907H51.03c-6.804 0-11.907-5.103-11.907-11.907v-28.917c0-6.804 5.103-11.907 11.907-11.907z" fill="#296AEE"/><path d="M369.116 314.684c-57.834 0-103.76 45.927-103.76 103.761 0 57.834 45.926 103.761 103.76 103.761s103.761-45.927 103.761-103.76c0-57.835-45.927-103.762-103.76-103.762zm0 175.203c-39.123 0-71.442-32.319-71.442-71.442s32.32-71.442 71.442-71.442c39.123 0 71.442 32.32 71.442 71.442s-32.319 71.442-71.442 71.442z" fill="#FFF"/></svg>