<svg version="1.1" id="Capa_1" xmlns="http://www.w3.org/2000/svg" x="0" y="0" viewBox="0 0 59 59" xml:space="preserve"><circle cx="29.5" cy="29.5" r="29" fill="#e6e7e8" stroke="#ecf0f1" stroke-miterlimit="10"/><path fill="#38454f" d="M36.863 38.5H23.467l-4.604-12 11-8 11 8z"/><path d="M24.31 37.605a1 1 0 00-1.342.447l-.447.895a1 1 0 101.789.894l.447-.895a.998.998 0 00-.447-1.341zm-1.789 3.578a1 1 0 00-1.342.447l-.447.895a1 1 0 101.789.894l.447-.895a.998.998 0 00-.447-1.341zm15.684-2.236l-.447-.895a1 1 0 00-1.789.895l.447.895a1 1 0 101.789-.895zm1.342 2.683a1 1 0 00-1.789.895l.447.895a1 1 0 101.789-.894l-.447-.896zM16.853 24.551l-.919-.394a1 1 0 00-.789 1.838l.919.394a1 1 0 10.789-1.838zm-3.676-1.576l-.919-.394a1 1 0 00-.789 1.838l.919.394a1 1 0 10.789-1.838zM29.863 10.5a1 1 0 00-1 1v1a1 1 0 102 0v-1a1 1 0 00-1-1zm0 4a1 1 0 00-1 1v1a1 1 0 102 0v-1a1 1 0 00-1-1zm13.929 9.657l-.919.394a1 1 0 10.79 1.837l.919-.394a1 1 0 10-.79-1.837zm4.99-1.051a1 1 0 00-1.313-.525l-.919.394a1 1 0 10.79 1.837l.919-.394a.999.999 0 00.523-1.312z" fill="#38454f"/><path d="M22.345 1.49l-2.497 3.59 10.015 6.42 9-6.882-2.266-3.24a29.075 29.075 0 00-6.915-.874 29.041 29.041 0 00-7.337.986zM49.493 12.5l-1.63 11 10.007 6.077.603-1.151a28.847 28.847 0 00-5.126-15.422l-3.854-.504zm1.173 36.814l.197-4.81-11-.004-4.793 10.605 4.146 1.722a29.025 29.025 0 0011.45-7.513zM20.863 44.5l-12 .004.214 5.208a29.002 29.002 0 0011.27 7.182l4.309-1.789L20.863 44.5zm-9-21l-1.63-11-4.254.556A28.834 28.834 0 00.918 27.785l.939 1.792L11.863 23.5z" fill="#435159"/></svg>