<svg version="1.1" id="Capa_1" xmlns="http://www.w3.org/2000/svg" x="0" y="0" viewBox="0 0 512 512" xml:space="preserve"><path d="M26.483 102.93V35.31A35.303 35.303 0 0161.793 0h388.414a35.301 35.301 0 0135.31 35.31v441.38a35.301 35.301 0 01-35.31 35.31H61.793a35.301 35.301 0 01-35.31-35.31V102.93z" fill="#7f8c8d"/><path d="M141.241 44.138h229.517C448.764 44.138 512 107.374 512 185.379V326.62c0 78.005-63.236 141.241-141.241 141.241H141.241C63.236 467.862 0 404.626 0 326.621V185.379C0 107.374 63.236 44.138 141.241 44.138z" fill="#bdc3c7"/><path d="M414.897 167.724v176.552a17.6 17.6 0 01-5.473 12.712 17.291 17.291 0 01-12.182 4.943H114.759a17.296 17.296 0 01-12.182-4.943 17.6 17.6 0 01-5.473-12.712V167.724a17.6 17.6 0 015.473-12.712 17.29 17.29 0 0112.182-4.943h282.483a17.294 17.294 0 0112.182 4.943 17.603 17.603 0 015.473 12.712z" fill="#4fba6f"/><g fill="#e6e7e8"><path d="M251.586 150.069h8.828v211.862h-8.828z"/><path d="M256 216.276c-21.939 0-39.724 17.785-39.724 39.724s17.785 39.724 39.724 39.724 39.724-17.785 39.724-39.724c-.033-21.925-17.799-39.691-39.724-39.724zm0 70.621c-17.064 0-30.897-13.833-30.897-30.897s13.833-30.897 30.897-30.897 30.897 13.833 30.897 30.897c-.019 17.056-13.841 30.878-30.897 30.897zm-123.586-70.18v-4.855a4.37 4.37 0 00-4.414-4.414H97.103v8.828h26.483v79.448H97.103v8.828H128a4.37 4.37 0 004.414-4.414v-4.855c20.08-2.146 35.309-19.089 35.309-39.283s-15.229-37.137-35.309-39.283zm0 69.738v-60.91c15.186 2.13 26.482 15.121 26.482 30.455s-11.296 28.326-26.482 30.455zm0-69.738v-4.855a4.37 4.37 0 00-4.414-4.414H97.103v8.828h26.483v79.448H97.103v8.828H128a4.37 4.37 0 004.414-4.414v-4.855c20.08-2.146 35.309-19.089 35.309-39.283s-15.229-37.137-35.309-39.283zm0 69.738v-60.91c15.186 2.13 26.482 15.121 26.482 30.455s-11.296 28.326-26.482 30.455zm282.483-70.179v-8.828H384a4.37 4.37 0 00-4.414 4.414v4.855c-20.08 2.146-35.309 19.089-35.309 39.283s15.229 37.137 35.309 39.283v4.855a4.37 4.37 0 004.414 4.414h30.897v-8.828h-26.483v-79.448h26.483zm-35.311 70.179c-15.186-2.13-26.482-15.121-26.482-30.455s11.297-28.326 26.482-30.455v60.91z"/></g><path d="M167.724 79.448v70.621h-52.966a17.294 17.294 0 00-12.182 4.943L65.412 111.58a105.008 105.008 0 0175.829-32.132h26.483z" fill="#802f34"/><path d="M102.577 155.012a17.6 17.6 0 00-5.473 12.712V256H35.31v-70.621a105.293 105.293 0 0130.102-73.799l37.165 43.432z" fill="#cc4b4c"/><path d="M102.577 356.988L65.413 400.42a105.293 105.293 0 01-30.102-73.799V256h61.793v88.276a17.595 17.595 0 005.473 12.712z" fill="#802f34"/><path d="M167.724 361.931v70.621h-26.483a105.012 105.012 0 01-75.829-32.132l37.164-43.432a17.291 17.291 0 0012.182 4.943h52.966z" fill="#cc4b4c"/><path d="M476.69 256v70.621a105.293 105.293 0 01-30.102 73.799l-37.164-43.432a17.6 17.6 0 005.473-12.712V256h61.793z" fill="#802f34"/><path d="M476.69 185.379V256h-61.793v-88.276a17.6 17.6 0 00-5.473-12.712l37.164-43.432a105.301 105.301 0 0130.102 73.799z" fill="#cc4b4c"/><path d="M446.588 111.581l-37.164 43.432a17.291 17.291 0 00-12.182-4.943h-52.966V79.448h26.483a105.013 105.013 0 0175.829 32.133z" fill="#802f34"/><path d="M446.588 400.419a105.008 105.008 0 01-75.829 32.132h-26.483V361.93h52.966c4.553.02 8.93-1.756 12.182-4.943l37.164 43.432z" fill="#cc4b4c"/><path fill="#c03a2b" d="M167.724 79.448h176.552v70.621H167.724z"/><path d="M167.724 101.517h176.552v8.828H167.724zm0 17.285h176.552v8.828H167.724z" fill="#e64c3c"/><path fill="#c03a2b" d="M167.724 361.931h176.552v70.621H167.724z"/><path d="M167.724 384h176.552v8.828H167.724zm0 18.167h176.552v8.828H167.724z" fill="#e64c3c"/></svg>