<svg class="icon" viewBox="0 0 1024 1024" xmlns="http://www.w3.org/2000/svg" width="200" height="200"><defs><style/></defs><path d="M887.328 617.152L533.951 267.008c-.512-.513-1.216-.673-1.76-1.153-.127-.127-.16-.32-.287-.447-12.576-12.417-32.831-12.353-45.28.192L136.512 618.945c-12.448 12.576-12.353 32.8.192 45.248a31.972 31.972 0 0022.528 9.28c8.224 0 16.48-3.168 22.72-9.471l327.841-330.817 332.48 329.408a31.919 31.919 0 0022.528 9.28c8.255 0 16.48-3.168 22.72-9.47 12.447-12.546 12.351-32.803-.193-45.25z" fill="#1afa29"/></svg>