<svg version="1.1" id="Layer_1" xmlns="http://www.w3.org/2000/svg" x="0" y="0" viewBox="0 0 512 512" xml:space="preserve"><path d="M54.559 425.426a110.257 110.257 0 01-4.356-20.787 39.433 39.433 0 00-3.158-.774 39.138 39.138 0 00-7.824-.784 39.28 39.28 0 00-7.845.784A39.118 39.118 0 0010.3 415.818 39.009 39.009 0 000 442.301c0 21.665 17.557 39.221 39.221 39.221 14.708 0 27.528-8.093 34.237-20.065-8.32-10.744-14.801-22.934-18.899-36.031zm-15.338 33.39c-9.124 0-16.515-7.39-16.515-16.515 0-6.286 3.509-11.746 8.67-14.543a16.468 16.468 0 017.845-1.972 16.504 16.504 0 0116.514 16.515c.001 9.125-7.389 16.515-16.514 16.515z" fill="#5bd821"/><path d="M50.203 404.639a39.433 39.433 0 00-3.158-.774 39.138 39.138 0 00-7.824-.784 39.28 39.28 0 00-7.845.784A39.118 39.118 0 0010.3 415.818 39.009 39.009 0 000 442.301v-52.98C0 367.657 17.557 350.1 39.221 350.1c3.571 0 7.029.485 10.321 1.383v41.1c0 .909.01 1.806.031 2.715a99 99 0 00.361 6.585c.073.918.167 1.837.269 2.756z" fill="#0c0"/><path d="M512 227.985v50.381H230.668c.166-.929.248-1.888.248-2.859v-71.064h257.542c13.002.001 23.542 10.541 23.542 23.542z" fill="#f47156"/><path d="M512 278.366v25.423c0 11.222-7.921 20.884-18.925 23.084l-84.857 16.971c-60.741 12.148-113.938 49.1-145.511 102.4-.598 1.022-1.198 2.044-1.786 3.066-19.683 34.349-56.706 57.491-99.137 57.501-36.094.01-69.164-17.99-90.333-45.352-12.582-16.246-20.953-35.785-23.254-56.82a103.707 103.707 0 01-.629-9.341 117.03 117.03 0 01.196-9.94c.092-1.589.227-3.168.393-4.737.898-8.65 2.766-17.02 5.501-24.989 15.348-44.95 57.955-77.267 108.107-77.267h16.587c1.352 7.679 8.05 13.511 16.122 13.511h20.075c8.072 0 14.77-5.832 16.122-13.511l281.329.001z" fill="#ffaa0e"/><path d="M178.102 275.507c0 .97.082 1.93.248 2.859h-16.587c-50.152 0-92.758 32.316-108.107 77.267a112.811 112.811 0 00-5.501 24.989 102.608 102.608 0 00-.393 4.737c-.155 2.394-.227 4.8-.227 7.225v-73.912c0-63.084 51.143-114.227 114.227-114.227h16.339v71.062h.001z" fill="#ff4538"/><path d="M230.916 204.444v71.064c0 .97-.082 1.93-.248 2.859-1.352 7.679-8.05 13.511-16.122 13.511h-20.075c-8.072 0-14.77-5.832-16.122-13.511a16.37 16.37 0 01-.248-2.859v-71.064h.02c.34 8.732 7.534 15.699 16.349 15.699h20.075c8.814 0 16.009-6.967 16.349-15.699h.022z" fill="#f7301b"/><path d="M182.343 504.953a113.462 113.462 0 01-20.56 1.858c-36.094.01-69.164-17.99-90.333-45.352-8.319-10.745-14.801-22.935-18.899-36.033a110.257 110.257 0 01-4.624-23.543 99.641 99.641 0 01-.361-6.585 117.03 117.03 0 01.196-9.94c.092-1.589.227-3.168.393-4.737.113-1.104.248-2.209.393-3.303a108.839 108.839 0 012.157-11.529 108.046 108.046 0 012.952-10.157c.609-1.796 1.27-3.561 1.972-5.316.155-.393.309-.784.475-1.177a86.25 86.25 0 011.362-3.168c.258-.588.526-1.167.795-1.744.217-.465.434-.929.661-1.383a104.044 104.044 0 013.178-6.09 127.576 127.576 0 012.611-4.417c.31-.485.609-.97.919-1.445a113.922 113.922 0 0117.33-20.983c20.488-19.549 48.252-31.542 78.804-31.542h16.587c.145.826.351 1.631.619 2.405-39.686 8.247-71.827 37.095-84.719 74.861a112.811 112.811 0 00-5.501 24.989 104.02 104.02 0 00-.393 4.737 117.03 117.03 0 00-.196 9.94c.072 3.137.279 6.254.629 9.341 2.302 21.035 10.673 40.573 23.254 56.82 17.175 22.2 42.195 38.239 70.299 43.493z" fill="#ff8814"/><path d="M178.102 204.444v1.538c-51.339 8.484-91.138 51.205-95.143 103.927v.021a115.35 115.35 0 00-17.33 20.963c-.31.475-.609.96-.919 1.445a127.867 127.867 0 00-2.611 4.417 117.079 117.079 0 00-3.178 6.09c-.227.454-.444.919-.661 1.383-.268.578-.537 1.156-.795 1.744a84.56 84.56 0 00-1.362 3.168c-.165.393-.32.784-.475 1.177a106.63 106.63 0 00-1.972 5.316 108.473 108.473 0 00-2.952 10.157 108.586 108.586 0 00-2.157 11.529 115.387 115.387 0 00-.393 3.303 102.608 102.608 0 00-.393 4.737c-.155 2.394-.227 4.8-.227 7.225v-73.912c0-63.084 51.143-114.227 114.227-114.227H178.1v-.001z" fill="#f7301b"/><circle cx="162.103" cy="392.593" r="68.809" fill="#5bd821"/><path d="M125.638 392.588c0-32.43 22.441-59.602 52.637-66.878a68.943 68.943 0 00-16.171-1.93c-38.001 0-68.808 30.806-68.808 68.808s30.806 68.808 68.808 68.808c5.572 0 10.983-.68 16.171-1.93-30.197-7.276-52.637-34.448-52.637-66.878z" fill="#0c0"/><path d="M512 278.366v25.422c0 11.22-7.917 20.881-18.93 23.089l-84.852 16.968a224.142 224.142 0 00-21.428 5.408c-35.093-14.533-64.788-39.438-85.286-70.888H512z" fill="#ffb64c"/><path d="M512 227.987v50.379H301.505a185.787 185.787 0 01-28.136-73.922h215.088c13.005 0 23.543 10.538 23.543 23.543z" fill="#ff4d48"/><path d="M301.505 278.366h-70.836c.166-.929.248-1.888.248-2.859v-71.064h42.451a185.808 185.808 0 0028.137 73.923z" fill="#ff4538"/><path d="M214.835 291.867c-.092.01-.196.01-.289.01h-20.075c-8.072 0-14.77-5.832-16.122-13.511a16.37 16.37 0 01-.248-2.859v-71.064h.02c.34 8.732 7.534 15.699 16.349 15.699h4.273v55.364c0 .97.082 1.93.248 2.859 1.333 7.588 7.897 13.378 15.844 13.502zm48.418-30.706a7.74 7.74 0 01-7.741-7.741v-27.352a7.741 7.741 0 0115.482 0v27.352a7.741 7.741 0 01-7.741 7.741z" fill="#ed1304"/><path d="M323.634 261.161a7.74 7.74 0 01-7.741-7.741v-27.352a7.741 7.741 0 0115.482 0v27.352a7.743 7.743 0 01-7.741 7.741zm60.38 0a7.74 7.74 0 01-7.741-7.741v-27.352a7.741 7.741 0 0115.482 0v27.352a7.741 7.741 0 01-7.741 7.741zm60.381 0a7.74 7.74 0 01-7.741-7.741v-27.352a7.741 7.741 0 0115.482 0v27.352a7.742 7.742 0 01-7.741 7.741z" fill="#f7301b"/><path d="M204.509 165.687a7.741 7.741 0 01-7.741-7.741V12.93a7.74 7.74 0 1115.482 0v145.016a7.741 7.741 0 01-7.741 7.741zm41.198 6.709a7.742 7.742 0 01-5.473-13.215l96.764-96.764a7.742 7.742 0 0110.948 10.948l-96.764 96.764a7.724 7.724 0 01-5.475 2.267zm-84.894 0a7.716 7.716 0 01-5.473-2.267L58.576 73.365a7.742 7.742 0 0110.948-10.948l96.764 96.764a7.74 7.74 0 01-5.475 13.215z" fill="#575a60"/></svg>