<svg class="icon" viewBox="0 0 1024 1024" xmlns="http://www.w3.org/2000/svg" width="200" height="200"><defs><style/></defs><path d="M814.994 324.688c7.47 7.47 7.47 19.75 0 27.22L448.66 718.344c-3.889 3.889-8.698 5.526-13.712 5.526-5.014 0-9.926-1.944-13.712-5.526l-212.23-212.127c-7.47-7.47-7.47-19.749 0-27.219 7.47-7.47 19.75-7.47 27.22 0L434.64 677.414 787.263 324.79c7.982-7.572 20.057-7.572 27.731-.102zM1013.41 512.05c0 276.491-224.918 501.41-501.409 501.41S10.591 788.541 10.591 512.05 235.509 10.642 512 10.642s501.409 224.918 501.409 501.41zm-57.816 0c0-244.667-198.926-443.593-443.593-443.593S68.509 267.384 68.509 512.05s198.926 443.594 443.593 443.594S955.593 756.718 955.593 512.05z" fill="#fff"/></svg>