<svg class="icon" viewBox="0 0 1024 1024" xmlns="http://www.w3.org/2000/svg" data-spm-anchor-id="a313x.7781069.0.i12" width="200" height="200"><defs><style/></defs><path d="M858.453 218.453L677.547 37.547A128 128 0 00587.093 0H256a128 128 0 00-128 128v768a128 128 0 00128 128h512a128 128 0 00128-128V308.907a128 128 0 00-37.547-90.454z" fill="#f4ea2a" data-spm-anchor-id="a313x.7781069.0.i13" class="selected"/><path d="M891.307 277.333h-272.64V4.693a128 128 0 0158.88 32.854l180.906 180.906a128 128 0 0132.854 58.88zm-256 359.254h-92.16a21.333 21.333 0 01-21.334-21.334V362.667a42.667 42.667 0 00-85.333 0v252.586a21.333 21.333 0 01-21.333 21.334H323.84a21.333 21.333 0 00-13.653 37.546l154.88 131.414a21.333 21.333 0 0027.733 0l155.307-131.414a21.333 21.333 0 00-14.08-37.546z" fill="#f4ea2a" data-spm-anchor-id="a313x.7781069.0.i14"/><path d="M884.053 256H640V11.947a128 128 0 0137.547 25.6l180.906 180.906a128 128 0 0125.6 37.547zm-222.72 359.253h-91.306a21.333 21.333 0 01-21.334-21.333V341.333a42.667 42.667 0 10-85.333 0V593.92a21.333 21.333 0 01-21.333 21.333h-90.88a21.333 21.333 0 00-13.654 37.547L492.8 784.213a21.333 21.333 0 0027.733 0L675.84 652.8a21.333 21.333 0 00-14.507-37.547z" fill="#f4ea2a" data-spm-anchor-id="a313x.7781069.0.i10"/></svg>