<?xml version="1.0" encoding="UTF-8"?>
<!DOCTYPE svg PUBLIC "-//W3C//DTD SVG 1.1//EN" "http://www.w3.org/Graphics/SVG/1.1/DTD/svg11.dtd">
<svg xmlns="http://www.w3.org/2000/svg" version="1.1" width="2160px" height="2474px" style="shape-rendering:geometricPrecision; text-rendering:geometricPrecision; image-rendering:optimizeQuality; fill-rule:evenodd; clip-rule:evenodd" xmlns:xlink="http://www.w3.org/1999/xlink">
<g><path style="opacity:0.947" fill="#fdfdfe" d="M 1004.5,-0.5 C 1054.5,-0.5 1104.5,-0.5 1154.5,-0.5C 1346.39,3.84129 1535.39,30.008 1721.5,78C 1826.21,105.79 1928.21,141.123 2027.5,184C 2073.46,334.02 2108.96,486.52 2134,641.5C 2147.54,730.177 2156.04,819.177 2159.5,908.5C 2159.5,949.167 2159.5,989.833 2159.5,1030.5C 2154.03,1216.66 2116.87,1396.33 2048,1569.5C 1990.19,1708.56 1913.19,1835.23 1817,1949.5C 1696.17,2091.34 1557.33,2211.51 1400.5,2310C 1299.48,2373.68 1193.48,2428.18 1082.5,2473.5C 1080.5,2473.5 1078.5,2473.5 1076.5,2473.5C 852.612,2382.56 652.612,2255.39 476.5,2092C 367.745,1989.65 275.245,1874.82 199,1747.5C 94.2268,1565.51 30.8934,1369.84 9,1160.5C 4.59084,1117.43 1.42417,1074.43 -0.5,1031.5C -0.5,990.5 -0.5,949.5 -0.5,908.5C 6.70827,737.895 30.8749,569.562 72,403.5C 89.8929,329.758 109.726,256.591 131.5,184C 370.19,82.0793 619.19,22.746 878.5,6C 920.629,3.22714 962.629,1.06048 1004.5,-0.5 Z"/></g>
<g><path style="opacity:1" fill="#612b9b" d="M 1016.5,10.5 C 1199.66,6.61643 1381.33,21.1164 1561.5,54C 1718.71,83.3516 1870.71,129.518 2017.5,192.5C 2066.94,352.247 2103.77,514.914 2128,680.5C 2151.81,844.468 2154.81,1008.8 2137,1173.5C 2101.73,1478.6 1983.06,1745.27 1781,1973.5C 1649.26,2120.15 1498.42,2242.32 1328.5,2340C 1248.44,2386.36 1165.44,2426.86 1079.5,2461.5C 853.041,2369.65 651.375,2240.49 474.5,2074C 171.214,1782.77 16.7144,1425.6 11,1002.5C 9.40047,876.36 18.7338,751.027 39,626.5C 63.4267,479.463 97.5934,334.797 141.5,192.5C 342.279,106.887 551.279,52.0535 768.5,28C 851.083,18.7618 933.75,12.9285 1016.5,10.5 Z"/></g>
<g><path style="opacity:1" fill="#fefdfe" d="M 1006.5,62.5 C 1141,59.7685 1275,66.6019 1408.5,83C 1603.55,108.096 1791.55,159.096 1972.5,236C 2019.05,387.722 2053.89,542.222 2077,699.5C 2099.14,853.43 2102.48,1007.76 2087,1162.5C 2052.02,1478.49 1925.69,1750.82 1708,1979.5C 1528.65,2164.57 1319.15,2305.57 1079.5,2402.5C 839.845,2305.57 630.345,2164.57 451,1979.5C 225.764,1742.26 98.4311,1459.59 69,1131.5C 58.4158,1003.26 60.7492,875.263 76,747.5C 92.5971,611.849 118.93,478.182 155,346.5C 164.723,309.664 175.056,272.997 186,236.5C 376.71,154.886 575.21,102.386 781.5,79C 856.432,70.5434 931.432,65.0434 1006.5,62.5 Z"/></g>
<g><path style="opacity:1" fill="#612b9b" d="M 1002.5,110.5 C 1167.27,106.222 1330.94,117.389 1493.5,144C 1644.5,170.11 1790.83,212.444 1932.5,271C 1976.73,416.119 2009.57,563.952 2031,714.5C 2051.31,863.188 2053.97,1012.19 2039,1161.5C 2007.16,1445.41 1897.49,1693.74 1710,1906.5C 1591.44,2038.9 1455.94,2149.73 1303.5,2239C 1231.5,2281.43 1156.83,2318.93 1079.5,2351.5C 858.092,2258.44 663.259,2126.77 495,1956.5C 403.982,1862.83 327.649,1758.5 266,1643.5C 187.477,1491.93 138.81,1331.26 120,1161.5C 107.072,1032.13 107.405,902.799 121,773.5C 135.604,646.485 158.937,521.151 191,397.5C 201.866,355.702 213.199,314.035 225,272.5C 314.378,234.373 406.211,203.207 500.5,179C 665.358,137.665 832.691,114.832 1002.5,110.5 Z"/></g>
<g><path style="opacity:1" fill="#fee098" d="M 776.5,1378.5 C 776.666,1368.83 776.5,1359.16 776,1349.5C 775.283,1350.04 774.783,1350.71 774.5,1351.5C 742.249,1395.19 699.249,1422.03 645.5,1432C 625.53,1433.76 605.863,1432.1 586.5,1427C 578.628,1425.06 571.628,1421.56 565.5,1416.5C 585.389,1413.97 601.222,1404.64 613,1388.5C 627.104,1368.55 636.771,1346.55 642,1322.5C 644.07,1305.13 646.404,1287.8 649,1270.5C 650.654,1262.04 653.154,1253.88 656.5,1246C 634.224,1260.96 609.891,1271.96 583.5,1279C 536.152,1291.66 492.485,1283.99 452.5,1256C 447.977,1252.98 444.31,1249.14 441.5,1244.5C 457.741,1247.29 473.074,1244.45 487.5,1236C 509.476,1221.69 526.976,1203.19 540,1180.5C 548.288,1162.29 556.955,1144.29 566,1126.5C 570.34,1119.15 575.173,1112.15 580.5,1105.5C 580,1105.17 579.5,1104.83 579,1104.5C 549.243,1116.23 518.41,1120.39 486.5,1117C 446.721,1112.36 413.554,1095.2 387,1065.5C 381.885,1059.72 377.552,1053.38 374,1046.5C 373.219,1045.06 373.386,1043.72 374.5,1042.5C 388.257,1050.52 402.924,1052.69 418.5,1049C 443.381,1042.56 465.381,1030.9 484.5,1014C 500.467,996.365 516.801,979.031 533.5,962C 539.167,957.667 544.833,953.333 550.5,949C 500.517,950.447 455.517,936.447 415.5,907C 398.543,891.72 385.043,873.886 375,853.5C 371.291,845.707 368.791,837.54 367.5,829C 367.833,827.833 368.167,826.667 368.5,825.5C 377.649,835.576 388.983,841.743 402.5,844C 431.92,846.116 459.92,840.783 486.5,828C 498.999,820.918 511.332,813.585 523.5,806C 535.421,799.694 547.755,794.36 560.5,790C 517.319,777.008 481.486,753.175 453,718.5C 431.517,688.599 422.683,655.599 426.5,619.5C 435.93,636.742 450.263,647.908 469.5,653C 492.607,659.046 515.941,660.046 539.5,656C 555.794,652.177 572.127,648.51 588.5,645C 600.093,643.17 611.76,642.17 623.5,642C 579.042,613.253 549.542,573.42 535,522.5C 531.374,500.092 531.707,477.759 536,455.5C 537.584,449.746 539.75,444.246 542.5,439C 543.448,438.517 544.448,438.351 545.5,438.5C 546.088,450.008 550.255,460.008 558,468.5C 574.465,483.933 593.632,494.766 615.5,501C 622.388,503.139 629.388,504.805 636.5,506C 662.848,507.667 689.181,509.5 715.5,511.5C 716.167,511.167 716.833,510.833 717.5,510.5C 688.41,471.729 674.243,428.062 675,379.5C 678.29,351.938 687.957,326.938 704,304.5C 705.242,303.128 706.742,302.128 708.5,301.5C 707.176,316.395 710.342,330.395 718,343.5C 734.925,366.751 756.425,384.584 782.5,397C 807.137,405.451 831.637,414.284 856,423.5C 856.5,423.167 857,422.833 857.5,422.5C 842.369,383.02 839.536,342.686 849,301.5C 857.288,273.234 872.121,249.067 893.5,229C 898.359,224.74 903.692,221.24 909.5,218.5C 910.167,218.833 910.833,219.167 911.5,219.5C 905.252,232.229 903.752,245.562 907,259.5C 913.105,280.903 923.439,299.903 938,316.5C 954.053,332.834 971.386,347.5 990,360.5C 990.772,360.355 991.439,360.022 992,359.5C 1002.51,342.493 1012.51,325.16 1022,307.5C 1039.86,272.443 1057.19,237.11 1074,201.5C 1075.38,199.246 1076.88,197.08 1078.5,195C 1079.64,194.251 1080.64,194.417 1081.5,195.5C 1082.67,197.167 1083.83,198.833 1085,200.5C 1107.18,248.531 1131.18,295.531 1157,341.5C 1160.68,348.213 1164.85,354.546 1169.5,360.5C 1182.64,350.524 1195.64,340.357 1208.5,330C 1230.62,309.602 1245.45,284.769 1253,255.5C 1255.1,242.817 1253.27,230.817 1247.5,219.5C 1250.36,218.401 1253.03,218.901 1255.5,221C 1300.39,257.313 1320.22,304.479 1315,362.5C 1313.99,373.931 1312.32,385.265 1310,396.5C 1307.3,405.932 1304.63,415.265 1302,424.5C 1307.31,421.616 1312.81,419.116 1318.5,417C 1337.98,410.728 1357.32,404.061 1376.5,397C 1399.4,386.633 1418.9,371.8 1435,352.5C 1447.44,337.669 1452.28,320.669 1449.5,301.5C 1452.61,302.091 1455.11,303.758 1457,306.5C 1488.5,354.51 1493.16,405.176 1471,458.5C 1463.35,477.312 1453.51,494.812 1441.5,511C 1466.08,509.149 1490.74,507.816 1515.5,507C 1544.25,503.279 1570.25,492.946 1593.5,476C 1605.18,466.303 1612.18,453.97 1614.5,439C 1615.45,438.383 1616.28,438.549 1617,439.5C 1622.79,452.544 1626.12,466.211 1627,480.5C 1629.36,513.694 1621.69,544.36 1604,572.5C 1586.21,600.621 1563.38,623.788 1535.5,642C 1561.44,642.908 1586.77,647.241 1611.5,655C 1642.53,661.383 1672.86,659.049 1702.5,648C 1715.77,642.392 1725.44,633.059 1731.5,620C 1733.41,619.552 1734.58,620.385 1735,622.5C 1736.13,670.057 1719.3,709.89 1684.5,742C 1659.22,764.478 1630.22,780.478 1597.5,790C 1604.99,792.273 1612.32,794.94 1619.5,798C 1640.17,809.333 1660.83,820.667 1681.5,832C 1706.8,843.162 1733.14,846.829 1760.5,843C 1772.16,840.67 1781.83,835.004 1789.5,826C 1790.45,825.517 1791.45,825.351 1792.5,825.5C 1780.84,874.673 1751.84,909.506 1705.5,930C 1674.56,943.184 1642.23,949.518 1608.5,949C 1617.53,955.52 1626.2,962.52 1634.5,970C 1647.17,984 1659.83,998 1672.5,1012C 1693.06,1030.95 1717.06,1043.62 1744.5,1050C 1758.8,1052.52 1772.13,1050.02 1784.5,1042.5C 1785.63,1044.07 1785.8,1045.74 1785,1047.5C 1755.08,1092.39 1712.91,1115.89 1658.5,1118C 1642.03,1118.45 1625.7,1117.12 1609.5,1114C 1598.94,1111.36 1588.61,1108.36 1578.5,1105C 1592.97,1124.42 1604.47,1145.59 1613,1168.5C 1625.73,1195.23 1644.23,1217.06 1668.5,1234C 1683.54,1244.04 1699.87,1247.21 1717.5,1243.5C 1714.82,1249.02 1710.82,1253.52 1705.5,1257C 1657.2,1288.03 1606.2,1293.03 1552.5,1272C 1535.04,1265.35 1518.87,1256.52 1504,1245.5C 1506.7,1254.97 1509.04,1264.64 1511,1274.5C 1512.97,1294.66 1515.97,1314.66 1520,1334.5C 1526.84,1357.52 1537.84,1378.18 1553,1396.5C 1560.1,1403.6 1568.26,1409.1 1577.5,1413C 1582.87,1414 1588.21,1415.17 1593.5,1416.5C 1593.02,1417.48 1592.36,1418.31 1591.5,1419C 1575.43,1426.88 1558.43,1431.22 1540.5,1432C 1516.84,1434.39 1494.17,1430.72 1472.5,1421C 1436.49,1405.65 1406.99,1382.15 1384,1350.5C 1383.65,1364.18 1382.99,1377.85 1382,1391.5C 1379.08,1406.79 1376.41,1422.12 1374,1437.5C 1371.97,1466.01 1376.64,1493.35 1388,1519.5C 1394.7,1532.53 1404.87,1541.7 1418.5,1547C 1419.83,1547.67 1419.83,1548.33 1418.5,1549C 1371.34,1555.28 1330.34,1542.28 1295.5,1510C 1270.58,1485.73 1252.08,1457.23 1240,1424.5C 1236.8,1436.76 1232.8,1448.76 1228,1460.5C 1219.2,1477.11 1211.2,1494.11 1204,1511.5C 1194.8,1537.38 1193.13,1563.71 1199,1590.5C 1202.53,1602.25 1209.03,1611.91 1218.5,1619.5C 1214.54,1620.66 1210.54,1620.83 1206.5,1620C 1173.41,1611.55 1145.91,1594.38 1124,1568.5C 1105.71,1545.67 1090.88,1520.67 1079.5,1493.5C 1064.94,1528.8 1044.28,1559.96 1017.5,1587C 999.335,1601.58 979.002,1612.25 956.5,1619C 951.566,1620.16 946.566,1620.66 941.5,1620.5C 943.966,1616.51 947.132,1612.85 951,1609.5C 960.283,1595.28 964.449,1579.61 963.5,1562.5C 963.437,1541.79 959.603,1521.79 952,1502.5C 945.682,1489.86 939.349,1477.2 933,1464.5C 927.725,1451.67 923.059,1438.67 919,1425.5C 904.098,1465.82 879.598,1498.99 845.5,1525C 813.62,1546.77 778.787,1554.61 741,1548.5C 757.722,1540.08 769.388,1526.75 776,1508.5C 784.26,1484.83 787.26,1460.5 785,1435.5C 781.28,1416.63 778.447,1397.63 776.5,1378.5 Z"/></g>
<g><path style="opacity:1" fill="#612b9b" d="M 1078.5,367.5 C 1079.5,367.414 1080.33,367.748 1081,368.5C 1093.77,397.376 1108.1,425.376 1124,452.5C 1132.79,466.729 1143.45,479.396 1156,490.5C 1164.21,481.644 1174.04,475.144 1185.5,471C 1213.19,461.378 1240.85,452.545 1268.5,444.5C 1255.04,469.075 1259.71,489.242 1282.5,505C 1289.82,509.159 1297.48,512.492 1305.5,515C 1336.34,510.894 1366.34,514.228 1395.5,525C 1403.32,528.408 1410.65,532.574 1417.5,537.5C 1417,537.833 1416.5,538.167 1416,538.5C 1410.27,536.609 1404.44,535.109 1398.5,534C 1371.46,530.967 1345.13,533.967 1319.5,543C 1304.61,548.112 1289.94,553.778 1275.5,560C 1261.73,564.112 1248.39,563.112 1235.5,557C 1224.39,550.59 1219.56,541.09 1221,528.5C 1223.02,523.481 1226.18,519.315 1230.5,516C 1175.14,516.777 1127.97,536.61 1089,575.5C 1085.62,579.217 1082.62,583.217 1080,587.5C 1054.39,554.596 1021.22,533.096 980.5,523C 963.39,518.709 946.056,516.375 928.5,516C 940.541,526.311 941.708,537.811 932,550.5C 918.405,561.889 902.905,565.389 885.5,561C 859.581,548.916 832.581,540.249 804.5,535C 789.533,533.478 774.533,533.145 759.5,534C 753.052,535.222 746.719,536.555 740.5,538C 765.148,521.288 792.481,513.121 822.5,513.5C 849.461,519.678 872.294,512.678 891,492.5C 901.039,476.624 900.872,460.791 890.5,445C 918.262,453.03 945.928,461.696 973.5,471C 984.673,475.083 994.339,481.416 1002.5,490C 1003.17,490.667 1003.83,490.667 1004.5,490C 1023.89,470.387 1039.73,448.22 1052,423.5C 1061.12,404.928 1069.95,386.261 1078.5,367.5 Z"/></g>
<g><path style="opacity:1" fill="#612c9b" d="M 798.5,584.5 C 812.804,583.069 823.637,588.402 831,600.5C 831.906,607.19 830.072,613.023 825.5,618C 813.354,624.573 801.021,630.907 788.5,637C 782.892,640.276 777.558,643.943 772.5,648C 775.295,649.793 777.795,651.96 780,654.5C 781.457,657.366 781.79,660.366 781,663.5C 772.217,680.739 764.217,698.406 757,716.5C 745.831,748.053 744.498,780.053 753,812.5C 761.054,846.946 776.721,877.279 800,903.5C 814.51,919.686 830.51,934.02 848,946.5C 850.166,968.333 857.832,988 871,1005.5C 879.525,1016.54 888.525,1027.2 898,1037.5C 898.483,1038.45 898.649,1039.45 898.5,1040.5C 889.919,1039.64 881.919,1036.97 874.5,1032.5C 869.667,1049.16 867.001,1066.16 866.5,1083.5C 894.154,1082.4 921.82,1082.24 949.5,1083C 952.78,1083.06 955.78,1083.89 958.5,1085.5C 954.091,1089.03 949.091,1091.53 943.5,1093C 918.495,1096.56 893.828,1101.72 869.5,1108.5C 868.752,1117.46 870.252,1126.13 874,1134.5C 874.561,1135.02 875.228,1135.36 876,1135.5C 905.764,1126.8 935.931,1119.97 966.5,1115C 972.196,1114.17 977.863,1114.34 983.5,1115.5C 980.542,1118.94 976.876,1121.44 972.5,1123C 942.801,1133.52 913.801,1145.68 885.5,1159.5C 891.412,1169.58 897.912,1179.24 905,1188.5C 909.054,1193.06 913.554,1197.06 918.5,1200.5C 929.01,1194.74 939.677,1189.24 950.5,1184C 988.818,1170.34 1026.15,1154.34 1062.5,1136C 1069.43,1132.21 1075.09,1127.04 1079.5,1120.5C 1083.08,1126.12 1087.75,1130.62 1093.5,1134C 1129.56,1153.24 1166.89,1169.57 1205.5,1183C 1217.45,1188.31 1229.11,1194.14 1240.5,1200.5C 1254.87,1189.05 1265.87,1175.05 1273.5,1158.5C 1254.3,1150.9 1235.3,1142.74 1216.5,1134C 1204.49,1129.33 1192.49,1124.66 1180.5,1120C 1173.42,1116.03 1173.92,1114.19 1182,1114.5C 1187.51,1114.9 1193.01,1115.4 1198.5,1116C 1227.77,1121.4 1256.77,1127.9 1285.5,1135.5C 1288.57,1126.77 1290.23,1117.77 1290.5,1108.5C 1265.73,1102.25 1240.73,1097.08 1215.5,1093C 1210.25,1091.71 1205.58,1089.37 1201.5,1086C 1201.64,1085.23 1201.98,1084.56 1202.5,1084C 1232.47,1082.23 1262.47,1082.07 1292.5,1083.5C 1292.32,1066.09 1289.65,1049.09 1284.5,1032.5C 1277.69,1036.15 1270.53,1038.82 1263,1040.5C 1262.17,1040.17 1261.33,1039.83 1260.5,1039.5C 1273.67,1025.17 1285.51,1009.83 1296,993.5C 1304.79,978.619 1310.29,962.619 1312.5,945.5C 1340.97,924.53 1364.8,899.197 1384,869.5C 1410.21,823.921 1417.21,775.587 1405,724.5C 1401.89,714.943 1398.22,705.61 1394,696.5C 1387.87,685.898 1382.53,674.898 1378,663.5C 1377.21,660.366 1377.54,657.366 1379,654.5C 1381.2,651.96 1383.7,649.793 1386.5,648C 1381.44,643.943 1376.11,640.276 1370.5,637C 1359.14,631.318 1347.8,625.651 1336.5,620C 1329.44,614.477 1326.94,607.31 1329,598.5C 1336.7,587.432 1347.2,583.099 1360.5,585.5C 1356.79,593.91 1358.45,601.077 1365.5,607C 1375.63,612.378 1385.96,617.378 1396.5,622C 1410.5,629.333 1421.17,640 1428.5,654C 1416.22,657.26 1412.39,664.76 1417,676.5C 1422.31,682.659 1428.81,684.159 1436.5,681C 1451.42,662.986 1461.42,642.486 1466.5,619.5C 1467.09,619.709 1467.59,620.043 1468,620.5C 1476.12,661.851 1468.29,699.851 1444.5,734.5C 1453.72,790.161 1443.72,841.994 1414.5,890C 1435.66,890.499 1455.99,894.832 1475.5,903C 1483.95,906.392 1492.28,910.059 1500.5,914C 1459.44,915.801 1421.77,927.801 1387.5,950C 1372.39,960.715 1360.39,974.215 1351.5,990.5C 1374.74,985.125 1397.74,986.958 1420.5,996C 1444.96,1007.15 1467.29,1021.48 1487.5,1039C 1475.32,1036.54 1462.98,1034.54 1450.5,1033C 1415.29,1028.98 1381.95,1034.98 1350.5,1051C 1341.8,1055.87 1334.13,1062.04 1327.5,1069.5C 1349.82,1070.83 1369.15,1079 1385.5,1094C 1405.19,1114.34 1421.19,1136.84 1433.5,1161.5C 1398.18,1144.17 1360.84,1135.83 1321.5,1136.5C 1326.96,1148.36 1331.12,1160.7 1334,1173.5C 1337.46,1203.68 1331.12,1231.68 1315,1257.5C 1294.66,1287.17 1270.16,1313.01 1241.5,1335C 1220.52,1350.83 1198.52,1365.16 1175.5,1378C 1148.96,1394.77 1123.29,1412.77 1098.5,1432C 1092.02,1437.65 1085.68,1443.48 1079.5,1449.5C 1038.64,1414.73 994.973,1383.9 948.5,1357C 913.562,1334.25 882.729,1306.75 856,1274.5C 839.986,1254.13 829.652,1231.13 825,1205.5C 822.083,1181.33 826.583,1158.66 838.5,1137.5C 799.931,1135.43 763.265,1142.93 728.5,1160C 727.365,1160.75 726.365,1160.58 725.5,1159.5C 739.611,1134.55 756.611,1111.72 776.5,1091C 792.478,1077.02 811.144,1069.68 832.5,1069C 813.908,1050.54 791.574,1039.2 765.5,1035C 748.297,1031.83 730.964,1030.83 713.5,1032C 699.238,1033.27 685.238,1035.6 671.5,1039C 693.211,1020.47 717.211,1005.47 743.5,994C 755.013,989.964 766.846,987.464 779,986.5C 788.627,987.141 798.127,988.308 807.5,990C 795.394,967.894 778.06,951.227 755.5,940C 725.048,924.375 692.715,915.709 658.5,914C 679.743,903.141 702.076,895.475 725.5,891C 731.833,890.667 738.167,890.333 744.5,890C 715.463,842.157 705.463,790.49 714.5,735C 693.221,703.383 684.721,668.549 689,630.5C 689.452,627.123 690.118,623.789 691,620.5C 691.667,619.167 692.333,619.167 693,620.5C 697.457,640.41 705.457,658.744 717,675.5C 724.959,684.461 733.293,684.795 742,676.5C 746.616,665.248 743.116,657.581 731.5,653.5C 737.171,642.991 744.838,634.158 754.5,627C 767.344,620.078 780.344,613.411 793.5,607C 800.624,600.729 802.291,593.229 798.5,584.5 Z"/></g>
<g><path style="opacity:1" fill="#622c9b" d="M 820.5,720.5 C 839.149,721.803 857.815,722.97 876.5,724C 890.515,724.56 903.181,728.893 914.5,737C 928.546,748.714 942.879,760.048 957.5,771C 964.398,775.118 971.732,778.118 979.5,780C 989.858,780.661 999.525,778.327 1008.5,773C 1013.35,769.406 1018.02,765.572 1022.5,761.5C 1023.65,764.446 1023.82,767.446 1023,770.5C 1021.27,777.371 1018.93,784.037 1016,790.5C 996.156,827.519 976.823,864.853 958,902.5C 957.993,899.521 958.327,896.521 959,893.5C 964.816,877.388 969.816,861.054 974,844.5C 975.872,835.113 975.872,825.78 974,816.5C 969.723,812.289 964.556,809.789 958.5,809C 944.541,807.034 930.541,805.367 916.5,804C 892.765,799.295 871.098,789.962 851.5,776C 835.336,760.846 825.002,742.346 820.5,720.5 Z"/></g>
<g><path style="opacity:1" fill="#622c9b" d="M 1329.5,720.5 C 1332.57,720.183 1335.57,720.516 1338.5,721.5C 1334.4,736.988 1327.9,751.321 1319,764.5C 1307.15,778.18 1292.65,788.014 1275.5,794C 1252.32,802.726 1228.32,807.393 1203.5,808C 1197.02,809.155 1191.18,811.655 1186,815.5C 1184,819.394 1183.17,823.56 1183.5,828C 1183.61,833.205 1184.11,838.372 1185,843.5C 1189.19,860.07 1194.19,876.403 1200,892.5C 1201.21,895.768 1201.55,899.101 1201,902.5C 1182.1,863.697 1162.43,825.364 1142,787.5C 1137.72,779.666 1135.72,771.333 1136,762.5C 1136.33,762.167 1136.67,761.833 1137,761.5C 1145.76,770.63 1156.26,776.796 1168.5,780C 1180.48,780.675 1191.48,777.675 1201.5,771C 1215.79,760.381 1229.79,749.381 1243.5,738C 1254.09,729.803 1266.09,725.136 1279.5,724C 1296.35,723.233 1313.02,722.066 1329.5,720.5 Z"/></g>
<g><path style="opacity:1" fill="#612b9b" d="M 955.5,965.5 C 962.093,969.201 969.093,972.034 976.5,974C 981.833,974.667 987.167,974.667 992.5,974C 1004.48,969.752 1016.82,968.419 1029.5,970C 1039.5,972.667 1049.5,975.333 1059.5,978C 1074.22,980.177 1088.89,979.844 1103.5,977C 1111.17,974.667 1118.83,972.333 1126.5,970C 1134.17,969.333 1141.83,969.333 1149.5,970C 1167.79,977.204 1185.29,975.704 1202,965.5C 1200.63,973.922 1197.29,981.589 1192,988.5C 1186.13,996.04 1179.29,1002.54 1171.5,1008C 1167.93,1010.64 1163.93,1012.3 1159.5,1013C 1151.5,1013.33 1143.5,1013.67 1135.5,1014C 1132.8,1014.69 1130.64,1016.19 1129,1018.5C 1129.06,1024.72 1128.06,1030.72 1126,1036.5C 1110.71,1046.79 1097.71,1059.46 1087,1074.5C 1084.01,1079.97 1081.51,1085.64 1079.5,1091.5C 1073.94,1074.9 1064.27,1061.06 1050.5,1050C 1044.24,1045.29 1038.08,1040.45 1032,1035.5C 1030.76,1029.94 1030.09,1024.28 1030,1018.5C 1028.05,1016.11 1025.55,1014.61 1022.5,1014C 1014.17,1013.67 1005.83,1013.33 997.5,1013C 976.647,1003.31 962.647,987.475 955.5,965.5 Z"/></g>
<g><path style="opacity:1" fill="#fee098" d="M 1050.5,1180.5 C 1083.36,1179.26 1116.03,1181.09 1148.5,1186C 1174.98,1191.71 1199.64,1201.71 1222.5,1216C 1226.19,1219.21 1229.02,1223.04 1231,1227.5C 1231.5,1249.5 1231.67,1271.5 1231.5,1293.5C 1224.56,1292.75 1217.73,1291.41 1211,1289.5C 1210.5,1289.83 1210,1290.17 1209.5,1290.5C 1207.36,1302.77 1202.53,1313.77 1195,1323.5C 1184.57,1330.3 1173.74,1336.47 1162.5,1342C 1156.54,1345.9 1151.04,1350.4 1146,1355.5C 1144.09,1351.96 1141.26,1349.46 1137.5,1348C 1130.06,1344.87 1122.39,1343.7 1114.5,1344.5C 1102.8,1358.52 1091.14,1372.52 1079.5,1386.5C 1067.39,1372.47 1055.39,1358.3 1043.5,1344C 1034.21,1343.16 1025.54,1345.16 1017.5,1350C 1015.65,1351.68 1013.98,1353.52 1012.5,1355.5C 1007.99,1350.83 1002.99,1346.66 997.5,1343C 987.006,1337.59 976.673,1331.92 966.5,1326C 956.666,1315.83 950.999,1303.66 949.5,1289.5C 942.106,1290.52 934.773,1291.85 927.5,1293.5C 926.334,1272.17 926.167,1250.84 927,1229.5C 928.922,1223.57 932.422,1218.74 937.5,1215C 972.188,1193.65 1009.85,1182.15 1050.5,1180.5 Z"/></g>
<g><path style="opacity:1" fill="#cba599" d="M 776.5,1378.5 C 775.833,1369.5 775.167,1360.5 774.5,1351.5C 774.783,1350.71 775.283,1350.04 776,1349.5C 776.5,1359.16 776.666,1368.83 776.5,1378.5 Z"/></g>
<g><path style="opacity:1" fill="#8c65b6" d="M 1170.5,1697.5 C 1169.5,1733.33 1169.17,1769.33 1169.5,1805.5C 1168.17,1769.33 1168.17,1733 1169.5,1696.5C 1170.11,1696.62 1170.44,1696.96 1170.5,1697.5 Z"/></g>
<g><path style="opacity:1" fill="#fdfdfe" d="M 1079.5,1697.5 C 1106.98,1753.13 1133.98,1809.13 1160.5,1865.5C 1149.83,1866.83 1139.17,1866.83 1128.5,1865.5C 1121.96,1850.92 1115.3,1836.42 1108.5,1822C 1094.83,1821.67 1081.17,1821.33 1067.5,1821C 1071.8,1812.24 1075.96,1803.41 1080,1794.5C 1085.08,1793.69 1090.25,1793.19 1095.5,1793C 1090.73,1782.63 1085.57,1772.46 1080,1762.5C 1063.34,1796.99 1047.18,1831.66 1031.5,1866.5C 1020.81,1866.83 1010.15,1866.5 999.5,1865.5C 1026.18,1809.48 1052.84,1753.48 1079.5,1697.5 Z"/></g>
<g><path style="opacity:1" fill="#fefefe" d="M 1170.5,1697.5 C 1204.53,1730.2 1238.86,1762.53 1273.5,1794.5C 1273.56,1795.04 1273.89,1795.38 1274.5,1795.5C 1275.5,1764.51 1275.83,1733.51 1275.5,1702.5C 1285.17,1702.5 1294.83,1702.5 1304.5,1702.5C 1304.83,1757.34 1304.5,1812 1303.5,1866.5C 1268.86,1833.53 1234.19,1800.53 1199.5,1767.5C 1198.83,1799.6 1198.16,1832.26 1197.5,1865.5C 1188.36,1845.41 1179.03,1825.41 1169.5,1805.5C 1169.17,1769.33 1169.5,1733.33 1170.5,1697.5 Z"/></g>
<g><path style="opacity:1" fill="#fdfcfe" d="M 554.5,1699.5 C 601.868,1697.74 633.368,1719.07 649,1763.5C 656.744,1806.5 641.911,1839 604.5,1861C 566.132,1877.73 531.965,1871.56 502,1842.5C 475.324,1809.36 472.658,1774.36 494,1737.5C 509.176,1716.83 529.343,1704.16 554.5,1699.5 Z"/></g>
<g><path style="opacity:1" fill="#fdfcfe" d="M 1582.5,1699.5 C 1629.87,1697.74 1661.37,1719.07 1677,1763.5C 1684.75,1805.49 1670.58,1837.66 1634.5,1860C 1595.55,1877.88 1560.72,1872.05 1530,1842.5C 1501.94,1807.38 1500.27,1771.05 1525,1733.5C 1539.85,1714.83 1559.02,1703.49 1582.5,1699.5 Z"/></g>
<g><path style="opacity:1" fill="#d6c8e5" d="M 688.5,1702.5 C 688.5,1757.17 688.5,1811.83 688.5,1866.5C 698.167,1866.5 707.833,1866.5 717.5,1866.5C 717.168,1821.66 717.501,1777 718.5,1732.5C 718.5,1777.5 718.5,1822.5 718.5,1867.5C 708.167,1867.5 697.833,1867.5 687.5,1867.5C 687.168,1812.33 687.501,1757.33 688.5,1702.5 Z"/></g>
<g><path style="opacity:1" fill="#fefdfe" d="M 688.5,1702.5 C 713.205,1702.06 737.871,1702.56 762.5,1704C 785.26,1708.09 799.76,1721.26 806,1743.5C 810.722,1769.88 801.555,1789.72 778.5,1803C 796.045,1823.71 813.378,1844.54 830.5,1865.5C 818.011,1866.5 805.344,1866.83 792.5,1866.5C 769.698,1839.52 747.031,1812.36 724.5,1785C 735.532,1784.79 746.532,1784.12 757.5,1783C 771.876,1777.93 778.042,1767.77 776,1752.5C 772.566,1741.4 765.066,1734.9 753.5,1733C 741.838,1732.5 730.171,1732.33 718.5,1732.5C 717.501,1777 717.168,1821.66 717.5,1866.5C 707.833,1866.5 698.167,1866.5 688.5,1866.5C 688.5,1811.83 688.5,1757.17 688.5,1702.5 Z"/></g>
<g><path style="opacity:1" fill="#fdfdfe" d="M 861.5,1702.5 C 871.5,1702.5 881.5,1702.5 891.5,1702.5C 891.5,1747.83 891.5,1793.17 891.5,1838.5C 918.508,1838.17 945.508,1838.5 972.5,1839.5C 968.023,1848.29 963.689,1857.12 959.5,1866C 926.835,1866.5 894.168,1866.67 861.5,1866.5C 861.5,1811.83 861.5,1757.17 861.5,1702.5 Z"/></g>
<g><path style="opacity:1" fill="#cdbce0" d="M 1275.5,1702.5 C 1275.83,1733.51 1275.5,1764.51 1274.5,1795.5C 1273.89,1795.38 1273.56,1795.04 1273.5,1794.5C 1274.17,1763.83 1274.83,1733.17 1275.5,1702.5 Z"/></g>
<g><path style="opacity:1" fill="#af94cc" d="M 1304.5,1702.5 C 1305.83,1757.33 1305.83,1812.33 1304.5,1867.5C 1303.89,1867.38 1303.56,1867.04 1303.5,1866.5C 1304.5,1812 1304.83,1757.34 1304.5,1702.5 Z"/></g>
<g><path style="opacity:1" fill="#fdfdfe" d="M 1342.5,1702.5 C 1364.17,1702.33 1385.84,1702.5 1407.5,1703C 1434.65,1706.99 1455.15,1720.82 1469,1744.5C 1485.26,1780.83 1480.43,1813.99 1454.5,1844C 1439.87,1858.48 1422.2,1866.14 1401.5,1867C 1381.84,1867.5 1362.17,1867.67 1342.5,1867.5C 1342.5,1812.5 1342.5,1757.5 1342.5,1702.5 Z"/></g>
<g><path style="opacity:1" fill="#612b9b" d="M 554.5,1729.5 C 588.345,1726.65 610.178,1741.32 620,1773.5C 623.527,1801.95 612.694,1822.78 587.5,1836C 560.234,1845.62 537.734,1839.12 520,1816.5C 503.811,1787.58 507.977,1762.08 532.5,1740C 539.32,1735.24 546.654,1731.74 554.5,1729.5 Z"/></g>
<g><path style="opacity:1" fill="#612b9b" d="M 1583.5,1729.5 C 1616.96,1726.96 1638.46,1741.62 1648,1773.5C 1651.51,1801.99 1640.68,1822.82 1615.5,1836C 1588.23,1845.62 1565.73,1839.12 1548,1816.5C 1531.81,1787.6 1535.98,1762.1 1560.5,1740C 1567.51,1734.83 1575.17,1731.33 1583.5,1729.5 Z"/></g>
<g><path style="opacity:1" fill="#612b9b" d="M 1372.5,1731.5 C 1384.17,1731.33 1395.84,1731.5 1407.5,1732C 1434.78,1738.54 1448.44,1755.87 1448.5,1784C 1449.09,1811.85 1436.09,1829.52 1409.5,1837C 1397.21,1838.37 1384.88,1838.87 1372.5,1838.5C 1372.5,1802.83 1372.5,1767.17 1372.5,1731.5 Z"/></g>
<g><path style="opacity:1" fill="#9874be" d="M 1199.5,1767.5 C 1199.83,1800.51 1199.5,1833.51 1198.5,1866.5C 1197.89,1866.38 1197.56,1866.04 1197.5,1865.5C 1198.16,1832.26 1198.83,1799.6 1199.5,1767.5 Z"/></g>
<g><path style="opacity:1" fill="#d4c5e3" d="M 830.5,1865.5 C 831.043,1865.56 831.376,1865.89 831.5,1866.5C 818.339,1867.83 805.339,1867.83 792.5,1866.5C 805.344,1866.83 818.011,1866.5 830.5,1865.5 Z"/></g>
<g><path style="opacity:1" fill="#fdfdfe" d="M 896.5,1912.5 C 917.938,1910.62 937.772,1915.29 956,1926.5C 956.667,1940.17 956.667,1953.83 956,1967.5C 939.455,1944.9 917.622,1937.4 890.5,1945C 862.276,1957.95 850.776,1979.78 856,2010.5C 863.914,2037.46 881.914,2051.79 910,2053.5C 929.676,2052.33 945.009,2043.67 956,2027.5C 956.833,2041.51 956.666,2055.51 955.5,2069.5C 915.545,2090.99 879.045,2086.32 846,2055.5C 822.95,2027.49 817.95,1996.49 831,1962.5C 844.949,1935.37 866.783,1918.7 896.5,1912.5 Z"/></g>
<g><path style="opacity:1" fill="#8c65b6" d="M 1309.5,1915.5 C 1320.67,1914.18 1332.01,1914.18 1343.5,1915.5C 1343.38,1916.11 1343.04,1916.44 1342.5,1916.5C 1331.68,1915.51 1320.68,1915.17 1309.5,1915.5 Z"/></g>
<g><path style="opacity:1" fill="#ddd2e9" d="M 994.5,1915.5 C 994.5,1970.17 994.5,2024.83 994.5,2079.5C 1004.17,2079.5 1013.83,2079.5 1023.5,2079.5C 1013.68,2080.49 1003.68,2080.83 993.5,2080.5C 993.168,2025.33 993.501,1970.33 994.5,1915.5 Z"/></g>
<g><path style="opacity:1" fill="#fefffe" d="M 994.5,1915.5 C 1004.17,1915.5 1013.83,1915.5 1023.5,1915.5C 1023.5,1970.17 1023.5,2024.83 1023.5,2079.5C 1013.83,2079.5 1004.17,2079.5 994.5,2079.5C 994.5,2024.83 994.5,1970.17 994.5,1915.5 Z"/></g>
<g><path style="opacity:1" fill="#fdfcfe" d="M 1055.5,1915.5 C 1095.17,1915.33 1134.83,1915.5 1174.5,1916C 1178.91,1924.66 1182.91,1933.49 1186.5,1942.5C 1168.69,1944.16 1150.69,1945.16 1132.5,1945.5C 1132.5,1990.5 1132.5,2035.5 1132.5,2080.5C 1122.17,2080.5 1111.83,2080.5 1101.5,2080.5C 1101.5,2035.5 1101.5,1990.5 1101.5,1945.5C 1086.34,1944.5 1071.01,1944.17 1055.5,1944.5C 1055.5,1934.83 1055.5,1925.17 1055.5,1915.5 Z"/></g>
<g><path style="opacity:1" fill="#fefdfe" d="M 1309.5,1915.5 C 1320.68,1915.17 1331.68,1915.51 1342.5,1916.5C 1325.17,1947.83 1307.83,1979.17 1290.5,2010.5C 1289.5,2033.33 1289.17,2056.33 1289.5,2079.5C 1279.5,2079.5 1269.5,2079.5 1259.5,2079.5C 1259.67,2056.5 1259.5,2033.5 1259,2010.5C 1241.63,1978.92 1224.13,1947.42 1206.5,1916C 1217.83,1915.33 1229.17,1915.33 1240.5,1916C 1251.87,1937.25 1263.37,1958.41 1275,1979.5C 1286.27,1957.95 1297.77,1936.61 1309.5,1915.5 Z"/></g>
<g><path style="opacity:1" fill="#d3c3e2" d="M 1055.5,1915.5 C 1055.5,1925.17 1055.5,1934.83 1055.5,1944.5C 1071.01,1944.17 1086.34,1944.5 1101.5,1945.5C 1085.83,1945.5 1070.17,1945.5 1054.5,1945.5C 1054.17,1935.32 1054.51,1925.32 1055.5,1915.5 Z"/></g>
<g><path style="opacity:1" fill="#d5c7e4" d="M 1186.5,1942.5 C 1187.4,1943.21 1187.74,1944.21 1187.5,1945.5C 1169.17,1945.5 1150.83,1945.5 1132.5,1945.5C 1150.69,1945.16 1168.69,1944.16 1186.5,1942.5 Z"/></g>
<g><path style="opacity:1" fill="#d1c1e1" d="M 1290.5,2010.5 C 1290.5,2033.83 1290.5,2057.17 1290.5,2080.5C 1279.99,2080.83 1269.65,2080.49 1259.5,2079.5C 1269.5,2079.5 1279.5,2079.5 1289.5,2079.5C 1289.17,2056.33 1289.5,2033.33 1290.5,2010.5 Z"/></g>
</svg>
