<svg xmlns="http://www.w3.org/2000/svg" viewBox="0 0 131.04 131.04"><defs><style>.cls-1{fill:#fff;}.cls-2{fill:#666;}.cls-3{fill:#ffcb05;}.cls-4{fill:#d71920;}.cls-5{fill:#009964;}.cls-6{fill:#999;}</style></defs><title>Eszköz 1</title><g id="Réteg_2" data-name="Réteg 2"><g id="Layer_1" data-name="Layer 1"><circle class="cls-1" cx="65.52" cy="65.52" r="65.52"/><path class="cls-2" d="M65.52,2.38A63.07,63.07,0,0,0,15.34,103.75L20.66,101a57.24,57.24,0,1,1,89.72,0l5.32,2.73A63.14,63.14,0,0,0,65.52,2.38Z"/><path d="M24.12,105.05l-5.18,3A64.33,64.33,0,0,0,43.2,124.56l2.66-5.26A58.87,58.87,0,0,1,24.12,105.05Z"/><path class="cls-3" d="M112,108.07l-5.18-3A57.76,57.76,0,0,1,85,119.3l2.74,5.26A62.77,62.77,0,0,0,112,108.07Z"/><path class="cls-4" d="M65.52,122.76a56.44,56.44,0,0,1-15.26-2.09l-2.09,5.47a62.86,62.86,0,0,0,17.35,2.45,64.55,64.55,0,0,0,17.21-2.37l-2.09-5.55A55.48,55.48,0,0,1,65.52,122.76Z"/><path class="cls-5" d="M17.14,78.48a50,50,0,1,1,61.2,35.35A50,50,0,0,1,17.14,78.48Z"/><path class="cls-6" d="M65.52,16.7a48.82,48.82,0,0,1,0,97.64v2.37a51.19,51.19,0,0,0,0-102.38ZM16.7,65.52A48.86,48.86,0,0,1,65.52,16.7h0V14.33h0A51.26,51.26,0,0,0,14.33,65.52h0a51.26,51.26,0,0,0,51.19,51.19h0v-2.37h0A48.86,48.86,0,0,1,16.7,65.52Z"/><path class="cls-1" d="M111.24,55.15l-29.38-17v8.57L96.7,55.15,60.34,75.82V55.44l15.33,9V56.23L60.34,47.3V34.2l15.33,8.93V34.49L52.92,21.38V43.06l-5.69-3.32V48l5.69,3.31v28.8h0l-5.69,3.32v8.56l5.69-3.31v21.75l7.42-4.25V84.38l25-14.47L96.7,76.68,66.6,93.89v8.57l44.64-25.78L92.59,65.81Zm-64-15.41-13.1-7.56V99.5l13.1-7.56V83.38l-5.61,3.31-.08-42L47.23,48Z"/></g></g></svg>