<?xml version="1.0" encoding="utf-8"?>
<!--Designed by Vexels.com - 2018 All Rights Reserved - https://vexels.com/terms-and-conditions/-->
<svg version="1.1" id="Layer_1" xmlns="http://www.w3.org/2000/svg" xmlns:xlink="http://www.w3.org/1999/xlink" x="0px" y="0px"
	 viewBox="0 0 1200 1200" enable-background="new 0 0 1200 1200" xml:space="preserve">
<g>
	<path fill="#FFFFFF" d="M213.48,757.652c0,46.708,9.339,280.242,387.693,392.348c387.68-100.415,385.346-380.673,385.346-380.673
		V50H213.48C213.48,50,213.48,710.931,213.48,757.652z M974.847,764.203c0,0,2.259,271.794-373.716,369.185
		c-366.909-108.719-375.975-335.204-375.975-380.51c0-45.292,0-502.028,0-502.028h749.69V764.203z M222.819,61.671H977.18V227.49
		H222.819V61.671z"/>
	<rect x="222.819" y="61.671" fill="#276599" width="754.361" height="165.818"/>
	<path fill="#276599" d="M225.156,752.878c0,45.306,9.065,271.791,375.975,380.51c375.975-97.391,373.716-369.185,373.716-369.185
		V250.851h-749.69C225.156,250.851,225.156,707.586,225.156,752.878z M244.721,273.879h710.558v487.508
		c0,0,2.155,258.101-354.21,350.597c-347.749-103.25-356.348-318.333-356.348-361.351
		C244.721,707.618,244.721,273.879,244.721,273.879z"/>
	<path fill="#FFFFFF" d="M516.631,695.222c-0.339,0.998-0.306,1.702-0.153,2.3C516.836,694.963,517.378,693.037,516.631,695.222z"/>
	<path fill="#FFFFFF" d="M543.034,914.75c-0.179,0.865-0.075,1.468,0.121,1.974C543.181,914.526,543.419,912.875,543.034,914.75z"/>
	<path fill="#FFFFFF" d="M519.705,459.909c-0.378,1.009-0.372,1.72-0.235,2.324C519.92,459.646,520.536,457.691,519.705,459.909z"/>
	<path fill="#FFFFFF" d="M601.069,1111.984c356.365-92.496,354.21-350.597,354.21-350.597V273.879H244.721c0,0,0,433.739,0,476.754
		C244.721,793.652,253.32,1008.734,601.069,1111.984z M625.8,1052.354c-1.079,0-2.083-0.501-3.045-1.147l-2.376,2.97
		c0.134,0.504,0.466,0.962,0.466,1.49c0,5.032-6.298,9.098-14.069,9.098c-7.755,0-14.052-4.066-14.052-9.098
		c0-0.118,0.098-0.216,0.104-0.333l-6.969-1.495c-1.803,2.05-3.941,3.485-6.373,3.485c-5.936,0-10.757-7.228-10.757-16.146
		c0-3.161,0.763-5.936,1.812-8.421l-0.153-0.254c2.484-3.314,4.14-8.269,4.955-12.41c0.049-0.236,0.394-0.547,0.58-0.817
		c-1.408-1.997-2.37-4.194-2.177-6.594c0.512-6.597,7.771-11.417,16.191-10.754c4.032,0.317,7.54,1.882,10.108,4.097h7.266
		c1.64-3.879,4.622-6.611,8.172-6.611c5.242,0,9.505,5.739,9.505,12.817c0,2.385-0.616,4.493-1.457,6.406l0.473,0.475
		c0.6-0.232,1.16-0.676,1.796-0.676c5.046,0,9.114,7.592,9.114,16.959C634.914,1044.763,630.846,1052.354,625.8,1052.354z
		 M758.451,946.153c-7.018,1.128-14.385,6.205-18.362,10.331c-4.006,4.159-33.633,8.119-47.956,8.104
		c-14.369-0.029-21.615,4.367-21.615,4.367l-6.141,0.912l1.066,0.158c0,0-10.001,12.727-13.811,12.923
		c-3.797,0.211-1.972-15.273-1.972-15.273l3.142,0.469l-1.786-7.728l-16.813-3.872c-1.669-0.692-7.168,1.944-7.846-1.173
		c-0.694-3.119,15.845-10.229,15.845-10.229c1.144-1.897,6.747-9.623,6.747-9.623s0.512-0.696,1.519-1.473l-5.75,2.45
		c0,0-4.143-8.209,1.369-10.001c5.499-1.762,10.786,4.82,10.786,4.82l-1.907,0.813c1.799-0.333,3.977-0.339,6.666,0.467
		c8.811,2.605,17.143,9.127,28.695,7.788c11.49-1.357,2.709-9.34-9.039-14.822c-11.673-5.465-5.378-9.517-5.378-9.517
		s7.367-2.562,9.534-2.666c37.776,23.029,88.653,17.442,89.138,18.948C775.05,933.818,765.453,945.023,758.451,946.153z
		 M895.425,845.297c-1.216,0-2.363-0.464-3.442-1.195l-2.572,3.218c0.147,0.559,0.515,1.066,0.515,1.653
		c0,5.575-6.989,10.093-15.604,10.093c-8.615,0-15.588-4.518-15.588-10.093c0-0.13,0.104-0.238,0.111-0.367l-7.735-1.662
		c-1.998,2.265-4.365,3.851-7.064,3.851c-6.581,0-11.93-7.998-11.93-17.892c0-3.503,0.848-6.583,2.008-9.342l-0.169-0.282
		c2.741-3.677,4.58-9.174,5.515-13.768c0.049-0.258,0.43-0.597,0.626-0.891c-1.565-2.218-2.634-4.66-2.419-7.333
		c0.574-7.319,8.615-12.651,17.967-11.912c4.469,0.353,8.361,2.089,11.213,4.548h8.048c1.812-4.305,5.118-7.334,9.055-7.334
		c5.815,0,10.545,6.356,10.545,14.202c0,2.648-0.681,4.986-1.614,7.107l0.293,0.294c0.72-0.306,1.467-0.501,2.239-0.501
		c5.574,0,10.092,8.42,10.092,18.796C905.517,836.877,900.999,845.297,895.425,845.297z M895.425,605.813
		c-1.213,0-2.36-0.463-3.439-1.195l-2.575,3.218c0.147,0.559,0.515,1.066,0.515,1.653c0,5.572-6.989,10.093-15.604,10.093
		c-8.615,0-15.588-4.521-15.588-10.093c0-0.13,0.104-0.238,0.111-0.367l-7.735-1.662c-1.998,2.265-4.365,3.851-7.064,3.851
		c-6.581,0-11.93-7.998-11.93-17.894c0-3.502,0.848-6.581,2.008-9.341l-0.169-0.283c2.741-3.676,4.58-9.174,5.515-13.767
		c0.049-0.258,0.43-0.598,0.629-0.893c-1.565-2.217-2.637-4.657-2.422-7.33c0.574-7.32,8.615-12.653,17.967-11.915
		c4.469,0.354,8.361,2.089,11.213,4.548h8.048c1.816-4.304,5.118-7.333,9.055-7.333c5.815,0,10.545,6.355,10.545,14.203
		c0,2.647-0.681,4.985-1.614,7.105l0.284,0.283c0.724-0.309,1.473-0.507,2.249-0.507c5.574,0,10.092,8.42,10.092,18.816
		C905.517,597.394,900.999,605.813,895.425,605.813z M833.955,342.184c2.741-3.674,4.58-9.173,5.515-13.767
		c0.049-0.257,0.43-0.595,0.629-0.889c-1.565-2.219-2.637-4.661-2.422-7.333c0.574-7.32,8.615-12.652,17.967-11.914
		c4.469,0.353,8.361,2.089,11.213,4.549h8.051c1.816-4.303,5.118-7.335,9.052-7.335c5.815,0,10.545,6.371,10.545,14.218
		c0,2.64-0.678,4.976-1.61,7.095l0.29,0.29c0.72-0.306,1.467-0.501,2.239-0.501c5.574,0,10.092,8.419,10.092,18.812
		c0,10.378-4.518,18.798-10.092,18.798c-1.216,0-2.363-0.464-3.442-1.196l-2.572,3.217c0.147,0.558,0.515,1.066,0.515,1.652
		c0,5.576-6.989,10.093-15.604,10.093c-8.615,0-15.588-4.517-15.588-10.093c0-0.13,0.104-0.238,0.111-0.367l-7.725-1.66
		c-2.001,2.274-4.371,3.867-7.073,3.867c-6.581,0-11.93-8.012-11.93-17.895c0-3.507,0.851-6.589,2.014-9.35L833.955,342.184z
		 M566.953,342.184c2.758-3.674,4.593-9.173,5.512-13.767c0.052-0.258,0.437-0.6,0.636-0.896c-1.561-2.217-2.637-4.657-2.428-7.327
		c0.574-7.32,8.632-12.652,17.97-11.914c4.476,0.353,8.374,2.089,11.223,4.549h8.042c1.816-4.303,5.114-7.335,9.052-7.335
		c5.828,0,10.555,6.371,10.555,14.218c0,2.644-0.678,4.982-1.614,7.104l0.284,0.286c0.727-0.308,1.473-0.505,2.252-0.505
		c5.571,0,10.092,8.419,10.092,18.812c0,10.378-4.521,18.798-10.092,18.798c-1.219,0-2.37-0.464-3.449-1.197l-2.578,3.219
		c0.147,0.558,0.515,1.065,0.515,1.651c0,5.576-6.976,10.093-15.607,10.093c-8.612,0-15.588-4.517-15.588-10.093
		c0-0.131,0.108-0.24,0.114-0.37l-7.725-1.657c-2.001,2.274-4.371,3.867-7.073,3.867c-6.581,0-11.93-8.012-11.93-17.895
		c0-3.507,0.851-6.589,2.011-9.351L566.953,342.184z M419.301,400.117c-1.408-1.056-1.904-2.784-1.173-1.314
		C418.353,399.252,418.881,399.683,419.301,400.117c1.633,1.227,4.508,1.537,8.348-5.29c7.135-12.697,0.795-13.496,2.376-23.016
		c1.597-9.52,9.534-10.317,11.917-16.658c2.38-6.341,9.515-23.013,9.515-23.013s0.799,17.456,7.142,11.898
		c6.356-5.542,17.455-13.496,17.455-13.496s-1.565,20.635,11.914,11.116c13.482-9.518,22.218-13.48,22.218-13.48
		s-7.155,14.279,4.759,15.061c11.914,0.799,20.634,0.799,20.634,0.799s-21.429,11.899-6.356,11.115
		c11.155-0.589,20.52-1.169,23.388-1.433c0.117-0.024,0.336-0.149,0.427-0.149c0.828,0,0.587,0.056-0.427,0.149
		c-3.934,0.816-21.631,14.975-16.249,16.511c5.574,1.581,17.472,7.14,13.498,7.938c-3.964,0.798-15.063,4.759-7.142,8.721
		c7.94,3.976,11.901,5.557,7.142,10.332c-4.759,4.76-0.786,28.556-0.786,28.556l-7.934,3.178c0,0-2.396,3.96-4.779,15.076
		c-2.363,11.115,9.534-3.96-7.139,16.66c-5.082,6.294-7.706,8.055-8.997,7.683c-0.424,0.344-0.724,0.628-1.304,1.052
		c-8.736,6.358-13.495,1.582-15.079,7.14c-1.594,5.559,0,9.52-3.178,10.318c-3.178,0.797-5.558,1.596-7.937,4.759
		c-2.38,3.178-6.356,3.977-8.733,7.936c-2.383,3.978-7.94,3.179-9.521-2.38c-1.581-5.557-7.139-7.923-7.139-0.783
		c0,7.14-3.178,15.078-3.977,3.962c-0.782-11.115-3.964-18.255-7.941-12.698c-3.96,5.558-11.096,0.783-7.135-4.76
		c3.974-5.557,6.356-12.696-0.786-12.696c-7.155,0-10.317-3.179-10.317-7.139c0-3.976-6.356-4.76-6.356-7.941
		c0-3.177-8.736-4.772-3.175-13.494l0.795-3.178c0,0,5.558-13.479-4.762-15.86c-10.314-2.38-10.314-6.354-10.314-6.354
		s16.673,2.379,15.076-4.762C427.088,405.361,421.831,402.736,419.301,400.117z M299.952,342.184
		c2.758-3.674,4.593-9.173,5.512-13.767c0.052-0.258,0.434-0.6,0.636-0.896c-1.565-2.217-2.637-4.657-2.428-7.327
		c0.59-7.32,8.628-12.652,17.97-11.914c4.475,0.353,8.371,2.089,11.223,4.549h8.055c1.816-4.303,5.111-7.335,9.036-7.335
		c5.832,0,10.561,6.371,10.561,14.218c0,2.644-0.685,4.982-1.617,7.104l0.284,0.285c0.727-0.308,1.473-0.505,2.252-0.505
		c5.571,0,10.092,8.419,10.092,18.812c0,10.378-4.521,18.798-10.092,18.798c-1.219,0-2.37-0.463-3.449-1.196l-2.582,3.217
		c0.15,0.558,0.515,1.066,0.515,1.652c0,5.576-6.972,10.093-15.588,10.093c-8.632,0-15.604-4.517-15.604-10.093
		c0-0.131,0.108-0.24,0.114-0.369l-7.722-1.657c-1.998,2.274-4.371,3.866-7.077,3.866c-6.585,0-11.914-8.012-11.914-17.895
		c0-3.502,0.844-6.58,2.001-9.339L299.952,342.184z M296.217,433.537c1.907,0,3.687,1.622,5.199,3.67
		c0.926-1.931,2.412-3.674,4.818-4.274c6.353-1.596,8.736-15.092,3.175-17.472c-2.259-0.968-2.122-2.472-1.31-4.169
		c-4.055-0.68-9.971-2.847-9.244-5.048c0.887-2.637,5.284-6.162,7.921-6.162c2.272,0,6.897,2.47,8.237,3.21
		c6.787,1.335,19.793,5.829,19.793,5.829l-0.795-12.699c0,0,0.988-0.592,2.497-1.283c0.222-1.706,0.678-3.439,1.959-4.725
		c3.524-3.524,10.558-10.574,9.684-4.414c-0.332,2.353-0.932,4.875-1.539,7.202c2.582,0.374,4.978,1.623,6.448,4.802
		c4.762,10.318,4.762,19.038,22.218,29.372c17.455,10.301,46.03,18.24,46.03,18.24s18.254,48.423,34.914,60.321
		c16.673,11.899,21.432,11.101,33.333,1.583c11.898-9.52,51.587-47.611,51.587-47.611l4.756-23.813c0,0,15.076-7.939,46.828-16.659
		c31.736-8.736,69.828-30.154,127.755-13.495c57.944,16.673,120.633,43.65,126.188,19.039c5.541-24.597-12.713-22.215-54.762-27.759
		c-42.056-5.559-92.841,1.581-99.983-41.27c-3.178-19.053,45.231-27.774,45.231-27.774s-3.178-14.294,26.195-15.875
		c29.353-1.597,32.535-15.077,32.535-15.077s7.934,11.914-1.601,16.658c-9.515,4.76-19.835,11.912-19.835,11.912
		s21.435,9.521,33.333-7.152c5.558-1.582-0.782,26.976-23.799,26.192c-23.029-0.799-23.029-0.799-23.029-0.799
		s22.231,10.333,34.93,8.736c0,0-29.373,10.318-43.65,4.76c-14.297-5.557-15.079-14.294-15.079-14.294s-14.294,2.397-26.191,7.156
		c-11.898,4.758,1.594,23.014,23.812,26.976c22.218,3.975,65.868,8.735,90.465,10.316c24.594,1.596,57.142,22.218,39.683,46.03
		c-17.468,23.812-55.544,16.674-100.792,2.38c6.356,15.875,24.61,34.13,67.449,34.927c42.864,0.784,57.94-0.797,57.94-0.797
		s11.901,15.876,5.561,21.418c-6.356,5.557-31.752,19.053-42.069,24.611c-10.32,5.541-17.459,7.139-18.241,18.241
		c-0.346,4.699-2.252,7.769-4.332,9.826c-0.134,1.26-0.313,2.672-0.636,4.285c-0.906,4.52-2.712,3.616-7.233,2.712
		c-4.502-0.905-3.674-8.089-3.674-8.089c-4.016-1.431-8.214-1.815-11.82-1.888c-1.552,0.695-3.664,1.705-5.248,2.762
		c-2.709,1.807-7.214,1.807-9.019-2.712c-1.809-4.503,6.311-7.214,6.311-7.214l0.841,0.535c0.101-1.859,0.31-3.811,2.259-5.762
		c3.977-3.975,0-9.534,0-9.534s-10.314,2.124-9.411-3.283c0.903-5.406,9.926-3.599,12.592-3.856c2.38-2.379,6.356-2.379,9.518-2.379
		c3.178,0,15.874-0.782,17.472-9.519c1.565-8.736-0.812-11.915-0.812-11.915s-109.501,3.193-149.973-37.293
		c-23.016-1.581-52.386,13.496-75.402,35.713c-23.013,22.215-83.32,59.524-126.97,57.943c-43.647-1.597-92.059-12.712-93.64-16.675
		c-1.597-3.961-7.937-11.115-23.812-10.317c-15.861,0.799-23.013,10.317-25.396,10.317c-0.512,0-1.206-0.157-1.91-0.363
		c-0.153,1.002-0.482,1.92-1.284,2.561c-4.41,3.525-7.918,0-12.335-5.286c-4.397-5.287,9.688-8.796,9.688-8.796
		s0.473,0.715,1.092,1.815c1.17-4.3,1.734-9.532-1.591-8.984c-4.759,0.799-20.637-5.542-20.637-5.542l0.74-1.046
		c-2.086-1.542-5.92-4.273-12.172-8.249l20.953-4.202l11.115-0.797c0,0-1.812-6.361-0.378-10.083c0-0.632,0.026-16.103,2.637-11.321
		c2.399,4.392,2.037,7.095,0.971,8.799c0.264-0.009,0.434-0.125,0.733-0.095c7.934,0.799,8.716,17.457,34.112,20.634
		c25.409,3.179,50.006-0.783,50.006-0.783s-4.759-11.899-30.937-29.371c-26.208-17.455-44.445-28.572-62.703-23.813
		c-8.856,2.309-14.861,2.55-18.746,2.202c0.085,0.217,0.16,0.419,0.16,0.419s-14.085-2.635-14.085-5.287
		C291.816,437.933,290.943,433.537,296.217,433.537z M649.165,529.465c0,0-14.962,13.208-19.375,13.208
		c-4.381,0,1.767-16.733,1.767-16.733l3.524,0.706v-8.614l-18.482-5.286c-1.763-0.874-8.798,1.762-8.798-1.763
		c0-3.509,21.119-10.558,21.119-10.558c1.852-2.079,10.558-10.575,10.558-10.575s0.799-0.767,2.21-1.599l-7.484,2.49
		c0,0-2.647-9.686,4.401-11.446c7.047-1.749,11.448,6.174,11.448,6.174l-2.539,0.845c2.236-0.289,4.834-0.179,7.81,0.901
		c9.684,3.511,17.609,11.448,31.69,10.56c14.082-0.874,6.177-10.56-6.161-17.592c-12.322-7.048-3.524-11.448-3.524-11.448
		s9.684-2.635,12.335-2.635c37.838,29.054,101.215,25.53,101.215,27.277c0,1.777-15.845,14.083-24.656,14.972
		c-8.795,0.873-19.353,6.16-25.513,10.558c-6.161,4.414-42.248,7.034-58.967,6.161c-16.735-0.874-26.419,3.525-26.419,3.525
		l-7.334,0.638L649.165,529.465z M622.925,609.489c0,5.572-6.976,10.093-15.607,10.093c-8.612,0-15.588-4.521-15.588-10.093
		c0-0.131,0.108-0.24,0.114-0.37l-7.735-1.659c-2.001,2.265-4.368,3.851-7.064,3.851c-6.581,0-11.93-7.998-11.93-17.894
		c0-3.503,0.848-6.581,2.008-9.341l-0.169-0.282c2.758-3.676,4.593-9.174,5.512-13.767c0.052-0.26,0.437-0.601,0.639-0.899
		c-1.565-2.215-2.64-4.654-2.432-7.324c0.574-7.32,8.632-12.653,17.97-11.915c4.476,0.354,8.371,2.089,11.223,4.548h8.038
		c1.812-4.304,5.118-7.333,9.055-7.333c5.828,0,10.555,6.355,10.555,14.203c0,2.651-0.681,4.991-1.617,7.113l0.277,0.279
		c0.73-0.31,1.48-0.511,2.262-0.511c5.571,0,10.092,8.42,10.092,18.816c0,10.39-4.521,18.809-10.092,18.809
		c-1.219,0-2.37-0.463-3.445-1.195l-2.582,3.22C622.557,608.396,622.925,608.902,622.925,609.489z M529.947,607.502
		c5.47,1.535,17.263,6.896,13.436,7.665c-3.856,0.782-14.535,4.61-6.659,8.466c7.892,3.854,11.823,5.391,7.334,10.015
		c-4.469,4.639,0.29,27.925,0.29,27.925l-7.686,3.118c0,0-2.197,3.885-4.153,14.82c-1.943,10.98,9.231-3.9-6.464,16.495
		c-4.857,6.318-7.399,8.055-8.674,7.643c-0.398,0.335-0.675,0.607-1.219,1.016c-8.407,6.312-13.27,1.565-14.672,7.095
		c-1.385,5.557,0.3,9.503-2.82,10.286c-3.116,0.799-5.45,1.596-7.725,4.775c-2.259,3.179-6.174,3.961-8.42,7.939
		c-2.259,3.991-7.784,3.194-9.518-2.38c-1.718-5.559-7.276-7.924-7.096-0.784c0.183,7.154-2.771,15.121-3.837,3.96
		c-1.072-11.116-4.384-18.239-8.182-12.712c-3.811,5.558-10.995,0.798-7.184-4.744c3.797-5.542,5.981-12.652-1.066-12.652
		c-7.067,0-10.274-3.148-10.349-7.079c-0.075-3.932-6.373-4.731-6.431-7.879c-0.059-3.133-8.69-4.713-3.39-13.313l0.724-3.133
		c0,0,5.183-13.254-4.984-15.589c-10.167-2.335-10.245-6.219-10.245-6.219s16.389,2.332,14.701-4.656
		c-1.451-5.953-6.598-8.517-9.13-11.06c-1.424-1.028-1.956-2.761-1.203-1.32c0.235,0.451,0.769,0.884,1.203,1.32
		c1.627,1.174,4.433,1.419,8.032-5.176c6.718-12.335,0.512-13.103,1.881-22.307c1.356-9.188,9.052-9.956,11.223-16.071
		c2.184-6.085,8.752-22.035,8.752-22.035s1.157,16.702,7.197,11.371c6.011-5.302,16.585-12.894,16.585-12.894
		s-1.01,19.747,11.823,10.633c12.817-9.111,21.145-12.892,21.145-12.892s-6.506,13.645,5.079,14.399
		c11.565,0.753,20.031,0.753,20.031,0.753s-20.409,11.417-5.783,10.664c10.812-0.557,19.887-1.119,22.664-1.376
		c0.111-0.024,0.319-0.145,0.411-0.145c0.802,0,0.567,0.055-0.411,0.145C541.352,592.384,524.653,606.023,529.947,607.502z
		 M355.92,609.489c0,5.572-6.972,10.093-15.588,10.093c-8.632,0-15.604-4.521-15.604-10.093c0-0.131,0.108-0.24,0.114-0.369
		l-7.732-1.659c-1.998,2.265-4.365,3.85-7.067,3.85c-6.585,0-11.914-7.998-11.914-17.894c0-3.497,0.841-6.573,1.998-9.33
		l-0.176-0.293c2.758-3.676,4.593-9.174,5.512-13.767c0.052-0.26,0.434-0.601,0.636-0.899c-1.565-2.215-2.637-4.654-2.428-7.324
		c0.59-7.32,8.628-12.653,17.97-11.915c4.475,0.354,8.371,2.089,11.22,4.548h8.055c1.812-4.304,5.111-7.333,9.039-7.333
		c5.832,0,10.561,6.355,10.561,14.203c0,2.651-0.685,4.992-1.62,7.115l0.277,0.277c0.73-0.311,1.48-0.511,2.262-0.511
		c5.571,0,10.092,8.42,10.092,18.816c0,10.39-4.521,18.809-10.092,18.809c-1.219,0-2.37-0.464-3.449-1.195l-2.578,3.219
		C355.555,608.395,355.92,608.902,355.92,609.489z M329.263,714.391c-0.003-0.537-0.075-16.058,2.543-11.292
		c2.399,4.367,2.057,7.059,1.017,8.757c0.258-0.009,0.424-0.125,0.717-0.095c7.846,0.798,8.749,17.441,33.979,20.62
		c25.23,3.177,49.569-0.784,49.569-0.784s-4.925-11.915-31.104-29.295c-26.025-17.306-44.1-28.256-62.025-23.572
		c-8.703,2.287-14.613,2.525-18.44,2.177c0.082,0.214,0.156,0.412,0.156,0.412s-13.86-2.604-13.86-5.211
		c0-2.591-0.854-6.928,4.326-6.928c1.871,0,3.621,1.594,5.108,3.609c0.909-1.898,2.373-3.61,4.743-4.198
		c6.219-1.579,8.524-14.803,3.074-17.123c-2.223-0.952-2.086-2.425-1.294-4.088c-3.974-0.663-9.782-2.784-9.055-4.936
		c0.844-2.575,5.154-5.995,7.742-5.995c2.233,0,6.839,2.455,8.081,3.136c6.653,1.309,19.362,5.675,19.362,5.675l-0.844-12.379
		c0,0,0.962-0.575,2.432-1.247c0.205-1.662,0.642-3.348,1.891-4.598c3.403-3.419,10.229-10.243,9.414-4.279
		c-0.31,2.284-0.874,4.735-1.447,6.998c2.523,0.363,4.87,1.575,6.327,4.66c4.775,10.062,4.85,18.601,22.097,28.709
		c17.276,10.136,45.518,17.97,45.518,17.97s19.023,48.107,35.814,60.051c16.872,11.974,21.585,11.176,33.154,1.583
		c11.52-9.552,49.524-47.506,49.524-47.506l3.824-23.511c0,0,14.505-7.803,45.309-16.374c30.709-8.539,66.904-29.4,124.47-13.18
		c57.869,16.298,121.503,42.838,125.014,18.634c3.494-24.055-14.173-21.735-55.73-27.142c-41.463-5.391-90.657,1.552-100.055-39.914
		c-4.143-18.254,42.219-26.584,42.219-26.584s-3.947-13.615,24.31-15.122c28.238-1.506,30.364-14.28,30.364-14.28
		s8.495,11.282-0.362,15.8c-8.886,4.519-18.375,11.312-18.375,11.312s21.403,9.098,31.749-6.793
		c5.242-1.507,1.16,25.756-21.237,25.004c-22.365-0.768-22.365-0.768-22.365-0.768s22.26,9.911,34.49,8.389
		c0,0-27.834,9.926-42.098,4.564c-14.219-5.333-15.542-13.705-15.542-13.705s-13.71,2.29-24.975,6.853
		c-11.295,4.564,2.908,22.17,24.793,26.011c21.915,3.827,64.828,8.45,88.953,9.987c24.147,1.535,57.644,21.643,42.49,44.959
		c-15.255,23.499-53.347,16.432-98.878,2.351c7.334,15.648,26.628,33.738,69.026,34.519c42.418,0.8,57.178-0.781,57.178-0.781
		s13.162,15.815,7.364,21.372c-5.812,5.559-29.884,19.099-39.67,24.687c-9.808,5.603-16.797,7.201-16.689,18.45
		c0.036,4.775-1.63,7.894-3.546,9.981c-0.033,1.277-0.104,2.706-0.297,4.344c-0.541,4.58-2.409,3.674-6.985,2.741
		c-4.58-0.918-4.326-8.225-4.326-8.225c-4.11-1.449-8.325-1.838-11.927-1.914c-1.499,0.706-3.543,1.735-5.046,2.804
		c-2.575,1.838-7.08,1.838-9.202-2.743c-2.142-4.578,5.75-7.319,5.75-7.319l0.874,0.539c-0.036-1.881,0.029-3.854,1.822-5.827
		c3.664-4.005-0.704-9.64-0.704-9.64s-10.121,2.155-9.626-3.296c0.512-5.454,9.606-3.63,12.243-3.886
		c2.2-2.397,6.144-2.397,9.28-2.397c3.162,0,15.725-0.782,16.598-9.564c0.887-8.736-1.731-11.914-1.731-11.914
		s-108.282,3.178-150.684-37.067c-22.759-1.581-50.952,13.36-72.658,35.471c-21.84,22.277-80.504,59.976-124.154,58.365
		c-43.634-1.612-92.15-12.876-93.777-16.884c-1.64-4.007-8.042-11.206-23.825-10.408c-15.786,0.799-22.837,10.408-25.2,10.408
		c-0.512,0-1.209-0.159-1.92-0.368c-0.147,1.016-0.469,1.948-1.271,2.598c-4.355,3.554-7.895,0-12.308-5.347
		c-4.394-5.346,9.609-8.872,9.609-8.872s0.473,0.72,1.095,1.829c1.141-4.336,1.666-9.6-1.636-9.042
		c-4.73,0.797-20.516-5.573-20.516-5.573l0.73-1.05c-2.073-1.547-5.884-4.288-12.087-8.274l20.757-4.187l11.011-0.799
		C329.7,724.44,327.874,718.11,329.263,714.391z M647.972,764.868c0,0-14.248,13.374-18.645,13.374
		c-4.401,0,0.919-16.944,0.919-16.944l3.546,0.715l-0.43-8.698l-18.648-5.318c-1.789-0.887-8.661,1.763-8.824-1.793
		c-0.166-3.524,20.467-10.602,20.467-10.602c1.734-2.078,9.958-10.573,9.958-10.573s0.769-0.795,2.171-1.646l-7.37,2.52
		c0,0-3.087-9.67,3.781-11.417c6.884-1.748,11.64,6.145,11.64,6.145l-2.533,0.866c2.213-0.305,4.815-0.206,7.852,0.882
		c9.776,3.524,18.075,11.463,31.99,10.587c13.919-0.889,5.499-10.587-7.109-17.608c-12.559-7.003-4.11-11.37-4.11-11.37
		s9.398-2.637,12.018-2.637c39.207,28.964,101.789,25.438,101.926,27.202c0.121,1.763-14.717,14.127-23.408,15.001
		c-8.674,0.889-18.825,6.206-24.656,10.635c-5.858,4.459-41.616,7.109-58.335,6.22c-16.702-0.889-26.103,3.554-26.103,3.554
		l-7.341,0.655L647.972,764.868z M622.925,848.972c0,5.575-6.976,10.093-15.607,10.093c-8.612,0-15.588-4.518-15.588-10.093
		c0-0.131,0.108-0.24,0.114-0.37l-7.735-1.659c-2.001,2.265-4.368,3.852-7.064,3.852c-6.581,0-11.93-7.998-11.93-17.892
		c0-3.503,0.848-6.584,2.008-9.343l-0.169-0.281c2.758-3.677,4.593-9.174,5.512-13.768c0.052-0.259,0.437-0.601,0.636-0.897
		c-1.561-2.217-2.637-4.657-2.428-7.328c0.574-7.319,8.632-12.651,17.97-11.912c4.476,0.353,8.374,2.089,11.223,4.548h8.038
		c1.812-4.305,5.114-7.334,9.055-7.334c5.828,0,10.555,6.356,10.555,14.202c0,2.652-0.681,4.993-1.617,7.116l0.287,0.288
		c0.727-0.308,1.473-0.504,2.252-0.504c5.571,0,10.092,8.42,10.092,18.796c0,10.392-4.521,18.811-10.092,18.811
		c-1.219,0-2.37-0.464-3.445-1.196l-2.582,3.219C622.557,847.878,622.925,848.386,622.925,848.972z M551.2,915.05
		c-3.485,5.704-5.479,7.306-6.617,6.976c-0.29,0.29-0.476,0.518-0.87,0.871c-6.552,5.814-11.282,1.884-11.868,6.763
		c-0.6,4.896,1.297,8.268-1.323,9.098c-2.621,0.843-4.564,1.642-6.206,4.549c-1.643,2.891-4.984,3.767-6.539,7.412
		c-1.565,3.643-6.519,3.176-8.615-1.702c-2.063-4.867-7.181-6.719-6.311-0.391c0.861,6.369-0.949,13.691-2.996,3.718
		c-2.021-9.852-5.603-15.995-8.42-10.935c-2.833,5.092-9.609,1.177-6.764-3.885c2.849-5.029,4.094-11.326-2.063-11.041
		c-6.177,0.287-9.248-2.334-9.655-5.737c-0.407-3.405-5.949-3.827-6.265-6.554c-0.3-2.71-7.967-3.705-4.019-11.296l0.375-2.681
		c0,0,3.419-11.402-5.528-12.996c-8.931-1.566-9.28-4.836-9.28-4.836s14.281,1.355,12.276-4.414
		c-1.675-4.817-6.187-6.767-8.57-8.759c-1.359-0.787-1.975-2.309-1.203-1.121c0.251,0.39,0.763,0.753,1.203,1.121
		c1.48,0.859,3.85,0.839,6.373-4.616c4.759-10.256-0.541-10.693-0.091-18.164c0.453-7.395,6.855-8.254,8.211-13.163
		c1.34-4.88,5.525-17.548,5.525-17.548s2.288,13.044,6.884,8.676c4.531-4.323,12.592-10.498,12.592-10.498
		s0.903,15.439,10.679,7.923c9.671-7.426,16.116-10.558,16.116-10.558s-3.993,10.738,5.571,11.01
		c9.551,0.255,16.481,0.029,16.481,0.029s-15.542,9.49-3.618,8.481c8.83-0.759,16.21-1.457,18.437-1.733
		c0.085-0.02,0.235-0.117,0.303-0.12c0.649-0.023,0.473,0.024-0.303,0.12c-3.005,0.706-15.249,11.959-10.721,12.956
		c4.671,1.069,15.001,4.969,11.943,5.708c-3.09,0.738-11.494,4.128-4.534,6.973c6.989,2.832,10.424,3.947,7.259,7.834
		c-3.191,3.916,3.556,22.849,3.556,22.849l-6.086,2.876c0,0-1.402,3.315-1.777,12.562C554.391,910.185,562.09,897.187,551.2,915.05z
		 M324.729,848.972c0-0.131,0.108-0.24,0.114-0.369l-7.732-1.658c-1.998,2.264-4.365,3.85-7.067,3.85
		c-6.585,0-11.914-7.998-11.914-17.892c0-3.498,0.844-6.574,1.998-9.331l-0.176-0.293c2.758-3.677,4.593-9.174,5.512-13.768
		c0.052-0.259,0.434-0.601,0.636-0.897c-1.565-2.217-2.637-4.657-2.428-7.328c0.59-7.319,8.628-12.651,17.97-11.912
		c4.475,0.353,8.371,2.089,11.223,4.548h8.048c1.816-4.305,5.114-7.334,9.042-7.334c5.832,0,10.561,6.356,10.561,14.202
		c0,2.653-0.685,4.994-1.62,7.117l0.287,0.289c0.727-0.308,1.473-0.505,2.252-0.505c5.571,0,10.092,8.42,10.092,18.796
		c0,10.392-4.521,18.811-10.092,18.811c-1.219,0-2.37-0.464-3.449-1.196l-2.578,3.219c0.147,0.559,0.512,1.066,0.512,1.653
		c0,5.575-6.972,10.093-15.588,10.093C331.701,859.065,324.729,854.547,324.729,848.972z M344.896,907.186
		c-0.062-2.244-0.949-5.948,3.661-6.144c1.662-0.076,3.273,1.229,4.661,2.907c0.753-1.67,1.998-3.197,4.075-3.794
		c5.466-1.596,7.018-12.969,2.138-14.731c-2.001-0.727-1.933-1.982-1.288-3.418c-3.514-0.416-8.703-1.998-8.126-3.827
		c0.678-2.184,4.339-5.212,6.598-5.303c1.946-0.077,6.024,1.795,7.174,2.344c5.874,0.859,17.198,4.073,17.198,4.073l-1.297-10.317
		c0,0,0.815-0.511,2.07-1.118c0.108-1.384,0.414-2.794,1.438-3.868c2.787-2.922,8.361-8.751,7.94-3.841
		c-0.163,1.899-0.535,3.944-0.922,5.834c2.21,0.216,4.309,1.139,5.727,3.641c4.622,8.208,5.134,15.364,20.754,23.286
		c15.725,7.981,40.905,13.569,40.905,13.569s20.653,41.255,36.648,51.166c16.132,10.031,20.229,9.083,29.415-0.077
		c9.085-9.036,37.431-43.648,37.431-43.648l0.404-20.003c0,0,11.252-7.035,35.833-15.182c24.19-8.012,50.609-25.922,99.68-14.851
		c49.374,11.131,105.629,30.395,103.174,10.738c-2.412-19.127-15.741-16.748-49.54-19.7c-33.858-2.952-72.025,4.096-86.228-28.076
		c-6.115-13.841,28.92-21.329,28.92-21.329s-5.303-10.045,16.298-11.867c21.445-1.778,20.784-11.177,20.784-11.177
		s8.508,8.043,2.546,11.584c-6.011,3.539-12.126,8.839-12.126,8.839s18.166,6.236,23.196-5.844
		c3.732-1.235,5.691,19.203-11.777,19.218c-17.547,0.031-17.547,0.031-17.547,0.031s19.128,6.914,28.359,5.422
		c0,0-19.897,8.343-32.052,4.638c-12.093-3.674-14.535-10.014-14.535-10.014s-10.375,2.108-18.508,5.904
		c-8.211,3.811,5.933,17.035,23.975,19.37c18.032,2.32,52.718,4.623,71.937,5.104c19.131,0.453,49.54,15.108,42.851,34.131
		c-6.884,19.58-38.891,15.183-78.32,5.332c8.958,12.546,28.238,26.811,62.686,25.847c34.161-0.964,45.547-2.816,45.547-2.816
		s14.277,12.592,11.011,17.456c-3.315,4.911-19.476,17.395-26.103,22.608c-6.702,5.258-12.051,6.944-9.339,16.749
		c1.164,4.199,0.515,7.024-0.583,8.951c0.274,1.129,0.554,2.396,0.779,3.85c0.632,4.113-1.144,3.39-5.15,2.787
		c-4.039-0.616-5.499-7.108-5.499-7.108c-3.745-1.092-7.344-1.242-10.356-1.142c-1.089,0.693-2.556,1.693-3.563,2.708
		c-1.731,1.763-5.479,1.958-8.279-2.003c-2.803-3.945,3.162-6.717,3.162-6.717l0.847,0.437c-0.447-1.652-0.831-3.391,0.222-5.212
		c2.106-3.645-2.725-8.359-2.725-8.359s-7.895,2.319-8.664-2.455c-0.769-4.73,7.126-3.541,9.235-3.87
		c1.268-2.17,4.502-2.336,7.077-2.472c2.595-0.136,12.683-1.341,11.419-8.871c-1.248-7.455-4.081-10.016-4.081-10.016
		s-88.157,7.11-130.406-25.2c-19.069-0.481-40.214,13.165-55.215,32.986c-15.47,20.47-61.725,57.342-100.873,58.034
		c-39.461,0.709-84.392-7.335-86.169-10.98c-1.763-3.63-8.058-9.94-22.351-8.451c-14.336,1.491-20.301,10.755-22.485,10.86
		c-0.469,0.026-1.118-0.086-1.777-0.244c-0.085,0.956-0.336,1.842-1.04,2.489c-3.856,3.57-7.276,0.407-11.585-4.354
		c-4.277-4.759,8.42-8.703,8.42-8.703s0.466,0.641,1.085,1.635c0.844-4.044,1.069-8.905-1.913-8.233
		c-4.293,0.949-18.994-4.157-18.994-4.157l0.626-0.988c-1.959-1.323-5.538-3.647-11.334-6.981l18.753-4.729l9.939-1.219
		c0,0-1.926-5.612-0.831-9.001c-0.026-0.469-0.782-14.215,1.783-10.129c2.347,3.768,2.161,6.169,1.301,7.722
		c0.231-0.019,0.378-0.129,0.639-0.116c7.096,0.377,8.736,15.244,31.677,16.977c22.893,1.715,44.341-2.954,44.341-2.954
		s-5.316-10.407-29.748-24.597c-24.086-14.021-40.592-22.756-56.271-18.012c-7.65,2.324-12.895,2.768-16.318,2.622
		c0.072,0.161,0.143,0.329,0.143,0.329S344.988,909.447,344.896,907.186z"/>
	<path fill="#CFA16D" d="M359.183,327.102l-0.284-0.285c-0.098,0.22-0.212,0.42-0.319,0.632
		C358.782,327.338,358.978,327.19,359.183,327.102z"/>
	<path fill="#CFA16D" d="M351.416,346.725c-1.493,5.376-5.6,9.491-11.076,11.066c7.706,0.003,13.808,3.684,15.066,8.437l2.582-3.217
		C354.33,360.527,351.699,354.256,351.416,346.725z"/>
	<path fill="#CFA16D" d="M337.516,322.877c-0.108,1.376-0.711,2.59-1.301,3.797c1.851,0.054,3.608,0.433,5.258,1.033
		c-1.2-2.309-2.06-4.964-2.06-7.994c0-2.548,0.632-4.814,1.506-6.883h-8.055C335.971,315.51,337.823,319.06,337.516,322.877z"/>
	<path fill="#CFA16D" d="M310.044,333.933c3.947,0,7.272,3.057,9.443,7.477c0.202-2.491,1.017-4.735,2.259-6.777
		c-0.75,0.02-1.428,0.233-2.197,0.172c-5.939-0.469-10.718-3.409-13.449-7.284c-0.202,0.296-0.583,0.637-0.636,0.896
		c-0.919,4.594-2.754,10.093-5.512,13.767l0.179,0.301C302.241,337.46,305.794,333.933,310.044,333.933z"/>
	<path fill="#CFA16D" d="M353.968,332.842c-1.239,0.688-2.588,1.091-4.013,1.091c-0.303,0-0.561-0.2-0.857-0.235
		c1.385,1.948,2.285,4.132,2.673,6.571C352.198,337.469,352.948,334.945,353.968,332.842z"/>
	<path fill="#CFA16D" d="M334.808,358.51c-5.584-0.319-10.245-3.346-12.977-7.747c0.013,0.371,0.14,0.684,0.14,1.06
		c0,5.828-1.975,10.762-4.85,14.03l7.722,1.657C325.087,363.375,329.11,359.915,334.808,358.51z"/>
	<path fill="#D3223D" d="M340.339,357.791c-1.486,0.429-2.966,0.903-4.599,0.903c-0.332,0-0.606-0.165-0.932-0.183
		c-5.698,1.405-9.72,4.864-9.965,9c-0.007,0.13-0.114,0.238-0.114,0.369c0,5.576,6.972,10.093,15.604,10.093
		c8.615,0,15.588-4.517,15.588-10.093c0-0.586-0.365-1.094-0.515-1.652C354.147,361.475,348.045,357.794,340.339,357.791z"/>
	<path fill="#D3223D" d="M341.474,327.707c3.191,1.16,5.717,3.312,7.624,5.992c0.297,0.034,0.554,0.235,0.857,0.235
		c1.424,0,2.774-0.403,4.013-1.091c-1.02,2.102-1.77,4.626-2.197,7.428c0.127,0.804,0.492,1.527,0.492,2.366
		c0,1.451-0.479,2.753-0.848,4.089c0.284,7.531,2.914,13.801,6.571,16.285c1.079,0.733,2.23,1.196,3.449,1.196
		c5.571,0,10.092-8.42,10.092-18.798c0-10.393-4.521-18.812-10.092-18.812c-0.779,0-1.526,0.197-2.252,0.505
		c-0.205,0.088-0.401,0.236-0.603,0.347c0.108-0.213,0.222-0.412,0.319-0.632c0.932-2.122,1.617-4.46,1.617-7.104
		c0-7.847-4.73-14.218-10.561-14.218c-3.925,0-7.22,3.032-9.036,7.335c-0.874,2.069-1.506,4.335-1.506,6.883
		C339.414,322.743,340.274,325.398,341.474,327.707z"/>
	<path fill="#D3223D" d="M319.549,334.805c0.769,0.061,1.447-0.152,2.197-0.172c2.875-4.725,7.944-8.053,13.994-8.053
		c0.166,0,0.306,0.089,0.476,0.094c0.59-1.208,1.193-2.422,1.301-3.797c0.306-3.817-1.545-7.367-4.652-10.047
		c-2.852-2.46-6.747-4.196-11.223-4.549c-9.342-0.738-17.38,4.594-17.97,11.914c-0.209,2.67,0.864,5.11,2.428,7.327
		C308.832,331.397,313.61,334.336,319.549,334.805z"/>
	<path fill="#D3223D" d="M310.044,369.72c2.706,0,5.079-1.592,7.077-3.866c2.875-3.268,4.85-8.201,4.85-14.03
		c0-0.376-0.127-0.689-0.14-1.06c-1.503-2.419-2.601-5.095-2.601-8.128c0-0.434,0.222-0.799,0.258-1.226
		c-2.171-4.42-5.496-7.477-9.443-7.477c-4.251,0-7.804,3.527-9.913,8.552c-1.157,2.758-2.001,5.837-2.001,9.339
		C298.13,361.707,303.46,369.72,310.044,369.72z"/>
	<path fill="#FBF9F9" d="M334.808,358.51c0.326,0.019,0.6,0.183,0.932,0.183c1.633,0,3.113-0.474,4.599-0.903
		c5.476-1.574,9.583-5.69,11.076-11.066c0.368-1.336,0.848-2.639,0.848-4.089c0-0.839-0.365-1.561-0.492-2.366
		c-0.388-2.439-1.288-4.623-2.673-6.571c-1.907-2.68-4.433-4.832-7.624-5.992c-1.649-0.6-3.406-0.979-5.258-1.033
		c-0.169-0.005-0.31-0.094-0.476-0.094c-6.05,0-11.119,3.328-13.994,8.053c-1.242,2.042-2.057,4.286-2.259,6.777
		c-0.036,0.426-0.258,0.791-0.258,1.226c0,3.033,1.098,5.708,2.601,8.128C324.563,355.164,329.224,358.191,334.808,358.51z
		 M342.171,342.184c0,3.044-3.09,5.513-6.884,5.513c-3.798,0-6.897-2.468-6.897-5.513c0-3.027,3.1-5.497,6.897-5.497
		C339.081,336.688,342.171,339.158,342.171,342.184z"/>
	<path fill="#F7C937" d="M328.389,342.184c0,3.044,3.1,5.513,6.897,5.513c3.794,0,6.884-2.468,6.884-5.513
		c0-3.027-3.09-5.497-6.884-5.497C331.489,336.688,328.389,339.158,328.389,342.184z"/>
	<path fill="#CFA16D" d="M577.045,333.933c3.931,0,7.256,3.049,9.43,7.458c0.209-2.484,1.017-4.719,2.259-6.756
		c-0.746,0.019-1.418,0.231-2.184,0.17c-5.942-0.469-10.714-3.409-13.449-7.284c-0.199,0.296-0.583,0.637-0.636,0.896
		c-0.919,4.594-2.754,10.093-5.512,13.767l0.173,0.288C569.242,337.455,572.798,333.933,577.045,333.933z"/>
	<path fill="#CFA16D" d="M604.518,322.877c-0.108,1.376-0.711,2.589-1.301,3.797c1.845,0.054,3.599,0.434,5.245,1.031
		c-1.2-2.308-2.06-4.963-2.06-7.992c0-2.548,0.636-4.814,1.506-6.883h-8.042C602.973,315.51,604.824,319.06,604.518,322.877z"/>
	<path fill="#CFA16D" d="M601.806,358.51c-5.581-0.319-10.235-3.334-12.97-7.719c0.013,0.361,0.14,0.667,0.14,1.033
		c0,5.827-1.982,10.761-4.857,14.029l7.725,1.657C592.089,363.373,596.114,359.915,601.806,358.51z"/>
	<path fill="#CFA16D" d="M626.185,327.102l-0.284-0.286c-0.098,0.22-0.212,0.421-0.316,0.634
		C625.787,327.338,625.979,327.19,626.185,327.102z"/>
	<path fill="#CFA16D" d="M618.414,346.725c-1.49,5.378-5.6,9.494-11.076,11.067c7.712,0.006,13.814,3.686,15.073,8.436l2.578-3.219
		C621.331,360.525,618.7,354.256,618.414,346.725z"/>
	<path fill="#CFA16D" d="M620.969,332.842c-1.239,0.688-2.588,1.091-4.009,1.091c-0.306,0-0.561-0.2-0.861-0.235
		c1.382,1.948,2.285,4.133,2.673,6.571C619.199,337.469,619.952,334.944,620.969,332.842z"/>
	<path fill="#D3223D" d="M607.337,357.792c-1.486,0.427-2.966,0.901-4.596,0.901c-0.333,0-0.61-0.165-0.936-0.183
		c-5.691,1.404-9.717,4.863-9.961,8.999c-0.007,0.13-0.114,0.239-0.114,0.37c0,5.576,6.976,10.093,15.588,10.093
		c8.632,0,15.607-4.517,15.607-10.093c0-0.586-0.368-1.093-0.515-1.651C621.152,361.478,615.05,357.798,607.337,357.792z"/>
	<path fill="#D3223D" d="M608.462,327.704c3.198,1.159,5.727,3.31,7.637,5.995c0.3,0.034,0.554,0.235,0.861,0.235
		c1.421,0,2.771-0.403,4.009-1.091c-1.017,2.102-1.77,4.626-2.197,7.428c0.127,0.804,0.492,1.527,0.492,2.366
		c0,1.451-0.479,2.753-0.851,4.089c0.287,7.531,2.917,13.8,6.575,16.284c1.079,0.733,2.23,1.197,3.449,1.197
		c5.571,0,10.092-8.42,10.092-18.798c0-10.393-4.521-18.812-10.092-18.812c-0.779,0-1.526,0.197-2.252,0.505
		c-0.205,0.088-0.398,0.236-0.6,0.348c0.104-0.213,0.218-0.414,0.316-0.634c0.936-2.122,1.614-4.46,1.614-7.104
		c0-7.847-4.727-14.218-10.555-14.218c-3.938,0-7.236,3.032-9.052,7.335c-0.87,2.069-1.506,4.335-1.506,6.883
		C606.402,322.741,607.262,325.396,608.462,327.704z"/>
	<path fill="#D3223D" d="M586.551,334.805c0.766,0.06,1.438-0.152,2.184-0.17c2.875-4.726,7.947-8.055,14.007-8.055
		c0.169,0,0.306,0.088,0.476,0.093c0.59-1.208,1.193-2.421,1.301-3.797c0.306-3.817-1.545-7.367-4.651-10.047
		c-2.849-2.46-6.747-4.196-11.223-4.549c-9.339-0.738-17.397,4.594-17.97,11.914c-0.209,2.67,0.867,5.11,2.428,7.327
		C575.836,331.397,580.608,334.336,586.551,334.805z"/>
	<path fill="#D3223D" d="M577.045,369.72c2.702,0,5.072-1.592,7.073-3.867c2.875-3.268,4.857-8.201,4.857-14.029
		c0-0.366-0.127-0.671-0.14-1.033c-1.512-2.425-2.617-5.11-2.617-8.156c0-0.441,0.222-0.812,0.258-1.244
		c-2.174-4.41-5.499-7.458-9.43-7.458c-4.247,0-7.804,3.521-9.919,8.539c-1.16,2.762-2.011,5.845-2.011,9.351
		C565.115,361.707,570.464,369.72,577.045,369.72z"/>
	<path fill="#FBF9F9" d="M601.806,358.51c0.326,0.019,0.603,0.183,0.936,0.183c1.63,0,3.11-0.474,4.596-0.901
		c5.476-1.574,9.587-5.69,11.076-11.067c0.372-1.336,0.851-2.639,0.851-4.089c0-0.839-0.365-1.561-0.492-2.366
		c-0.388-2.438-1.291-4.623-2.673-6.571c-1.91-2.684-4.44-4.836-7.637-5.995c-1.646-0.597-3.4-0.977-5.245-1.031
		c-0.169-0.005-0.306-0.093-0.476-0.093c-6.06,0-11.132,3.329-14.007,8.055c-1.242,2.037-2.05,4.273-2.259,6.756
		c-0.036,0.432-0.258,0.803-0.258,1.244c0,3.045,1.105,5.73,2.617,8.156C591.57,355.177,596.225,358.191,601.806,358.51z
		 M609.172,342.184c0,3.044-3.103,5.513-6.897,5.513c-3.797,0-6.884-2.468-6.884-5.513c0-3.027,3.087-5.497,6.884-5.497
		C606.069,336.688,609.172,339.158,609.172,342.184z"/>
	<path fill="#F7C937" d="M595.391,342.184c0,3.044,3.087,5.513,6.884,5.513c3.794,0,6.897-2.468,6.897-5.513
		c0-3.027-3.103-5.497-6.897-5.497C598.478,336.688,595.391,339.158,595.391,342.184z"/>
	<path fill="#CFA16D" d="M868.807,358.51c-5.581-0.319-10.235-3.336-12.97-7.721c0.016,0.362,0.14,0.668,0.14,1.035
		c0,5.827-1.982,10.761-4.857,14.029l7.725,1.66C859.09,363.375,863.116,359.914,868.807,358.51z"/>
	<path fill="#CFA16D" d="M871.522,322.877c-0.108,1.376-0.711,2.59-1.304,3.797c1.848,0.054,3.602,0.433,5.248,1.032
		c-1.203-2.309-2.063-4.964-2.063-7.993c0-2.548,0.632-4.814,1.506-6.883h-8.051C869.961,315.51,871.819,319.06,871.522,322.877z"/>
	<path fill="#CFA16D" d="M893.186,327.098l-0.29-0.29c-0.101,0.225-0.215,0.429-0.323,0.645
		C892.778,327.338,892.974,327.187,893.186,327.098z"/>
	<path fill="#CFA16D" d="M844.047,333.933c3.934,0,7.256,3.049,9.433,7.46c0.205-2.484,1.017-4.722,2.256-6.76
		c-0.75,0.02-1.428,0.233-2.2,0.172c-5.936-0.469-10.708-3.406-13.436-7.277c-0.199,0.294-0.58,0.632-0.629,0.889
		c-0.935,4.594-2.774,10.093-5.515,13.767l0.176,0.289C836.243,337.456,839.803,333.933,844.047,333.933z"/>
	<path fill="#CFA16D" d="M887.964,332.842c-1.235,0.688-2.585,1.091-4.003,1.091c-0.31,0-0.574-0.204-0.88-0.24
		c1.389,1.952,2.292,4.142,2.679,6.588C886.187,337.476,886.944,334.947,887.964,332.842z"/>
	<path fill="#CFA16D" d="M885.405,346.711c-1.486,5.383-5.594,9.505-11.07,11.08c7.706,0.004,13.814,3.686,15.076,8.436l2.572-3.217
		C888.326,360.525,885.685,354.248,885.405,346.711z"/>
	<path fill="#D3223D" d="M874.335,357.792c-1.486,0.428-2.963,0.902-4.59,0.902c-0.332,0-0.61-0.165-0.939-0.183
		c-5.691,1.403-9.717,4.865-9.961,9.002c-0.007,0.129-0.111,0.236-0.111,0.367c0,5.576,6.972,10.093,15.588,10.093
		c8.615,0,15.604-4.517,15.604-10.093c0-0.586-0.368-1.094-0.515-1.652C888.15,361.478,882.041,357.796,874.335,357.792z"/>
	<path fill="#D3223D" d="M875.466,327.706c3.185,1.159,5.708,3.309,7.615,5.988c0.306,0.036,0.57,0.24,0.88,0.24
		c1.418,0,2.767-0.403,4.003-1.091c-1.02,2.105-1.776,4.634-2.203,7.439c0.127,0.8,0.489,1.52,0.489,2.354
		c0,1.446-0.476,2.743-0.844,4.075c0.28,7.536,2.921,13.814,6.578,16.299c1.079,0.733,2.226,1.196,3.442,1.196
		c5.574,0,10.092-8.42,10.092-18.798c0-10.393-4.518-18.812-10.092-18.812c-0.773,0-1.519,0.195-2.239,0.501
		c-0.212,0.089-0.407,0.24-0.613,0.354c0.108-0.216,0.222-0.42,0.323-0.645c0.932-2.12,1.61-4.455,1.61-7.095
		c0-7.847-4.73-14.218-10.545-14.218c-3.934,0-7.236,3.032-9.052,7.335c-0.874,2.069-1.506,4.335-1.506,6.883
		C873.403,322.742,874.264,325.397,875.466,327.706z"/>
	<path fill="#D3223D" d="M853.535,334.805c0.773,0.061,1.451-0.152,2.2-0.172c2.878-4.725,7.947-8.053,14.01-8.053
		c0.166,0,0.306,0.089,0.473,0.094c0.593-1.208,1.196-2.422,1.304-3.797c0.297-3.817-1.561-7.367-4.665-10.047
		c-2.852-2.46-6.744-4.196-11.213-4.549c-9.352-0.738-17.393,4.594-17.967,11.914c-0.215,2.672,0.857,5.114,2.422,7.333
		C842.828,331.4,847.6,334.337,853.535,334.805z"/>
	<path fill="#D3223D" d="M844.047,369.72c2.702,0,5.072-1.593,7.073-3.867c2.875-3.268,4.857-8.201,4.857-14.029
		c0-0.367-0.124-0.673-0.14-1.035c-1.512-2.425-2.617-5.109-2.617-8.153c0-0.441,0.222-0.811,0.261-1.243
		c-2.177-4.41-5.499-7.46-9.433-7.46c-4.244,0-7.804,3.522-9.916,8.54c-1.164,2.761-2.014,5.844-2.014,9.35
		C832.116,361.707,837.465,369.72,844.047,369.72z"/>
	<path fill="#FBF9F9" d="M868.807,358.51c0.329,0.019,0.606,0.183,0.939,0.183c1.627,0,3.103-0.474,4.59-0.902
		c5.476-1.575,9.583-5.697,11.07-11.08c0.368-1.332,0.844-2.63,0.844-4.075c0-0.834-0.362-1.554-0.489-2.354
		c-0.388-2.446-1.291-4.636-2.679-6.588c-1.907-2.679-4.43-4.829-7.615-5.988c-1.646-0.599-3.4-0.978-5.248-1.032
		c-0.166-0.005-0.306-0.094-0.473-0.094c-6.063,0-11.132,3.328-14.01,8.053c-1.239,2.037-2.05,4.276-2.256,6.76
		c-0.039,0.432-0.261,0.802-0.261,1.243c0,3.045,1.105,5.728,2.617,8.153C858.572,355.174,863.226,358.191,868.807,358.51z
		 M876.161,342.184c0,3.044-3.09,5.513-6.884,5.513s-6.881-2.468-6.881-5.513c0-3.027,3.087-5.497,6.881-5.497
		S876.161,339.158,876.161,342.184z"/>
	<path fill="#F7C937" d="M862.395,342.184c0,3.044,3.087,5.513,6.881,5.513s6.884-2.468,6.884-5.513c0-3.027-3.09-5.497-6.884-5.497
		S862.395,339.158,862.395,342.184z"/>
	<path fill="#CFA16D" d="M351.416,588.331c-1.486,5.362-5.574,9.475-11.034,11.058c7.69,0.017,13.772,3.692,15.027,8.447
		l2.578-3.219C354.33,602.135,351.702,595.867,351.416,588.331z"/>
	<path fill="#CFA16D" d="M353.968,574.435c-1.239,0.686-2.588,1.089-4.013,1.089c-0.306,0-0.567-0.201-0.867-0.236
		c1.389,1.949,2.295,4.139,2.683,6.584C352.198,579.067,352.948,576.539,353.968,574.435z"/>
	<path fill="#CFA16D" d="M359.174,568.699l-0.277-0.277c-0.095,0.214-0.205,0.409-0.31,0.616
		C358.782,568.931,358.971,568.785,359.174,568.699z"/>
	<path fill="#CFA16D" d="M310.044,575.524c3.947,0,7.276,3.061,9.443,7.484c0.205-2.494,1.024-4.737,2.265-6.779
		c-0.75,0.019-1.434,0.231-2.204,0.169c-5.939-0.469-10.714-3.401-13.449-7.271c-0.202,0.297-0.583,0.639-0.636,0.899
		c-0.919,4.593-2.754,10.091-5.512,13.767l0.176,0.293C302.234,579.056,305.79,575.524,310.044,575.524z"/>
	<path fill="#CFA16D" d="M337.516,564.484c-0.108,1.376-0.711,2.591-1.301,3.798c1.855,0.054,3.612,0.433,5.264,1.032
		c-1.203-2.309-2.067-4.969-2.067-8.007c0-2.545,0.632-4.806,1.503-6.871h-8.055C335.971,557.117,337.823,560.666,337.516,564.484z"
		/>
	<path fill="#CFA16D" d="M334.765,600.109c-5.564-0.332-10.209-3.348-12.934-7.734c0.016,0.364,0.14,0.673,0.14,1.042
		c0,5.843-1.982,10.78-4.86,14.043l7.732,1.659C325.084,604.981,329.09,601.521,334.765,600.109z"/>
	<path fill="#D3223D" d="M340.382,599.39c-1.499,0.436-2.996,0.91-4.642,0.91c-0.346,0-0.632-0.17-0.975-0.191
		c-5.675,1.412-9.681,4.872-9.922,9.01c-0.007,0.13-0.114,0.238-0.114,0.369c0,5.572,6.972,10.093,15.604,10.093
		c8.615,0,15.588-4.521,15.588-10.093c0-0.587-0.365-1.094-0.512-1.653C354.154,603.081,348.071,599.407,340.382,599.39z"/>
	<path fill="#D3223D" d="M341.48,569.314c3.181,1.156,5.704,3.301,7.608,5.973c0.3,0.035,0.561,0.236,0.867,0.236
		c1.424,0,2.774-0.403,4.013-1.089c-1.02,2.104-1.77,4.631-2.197,7.436c0.127,0.808,0.492,1.532,0.492,2.375
		c0,1.45-0.479,2.75-0.848,4.085c0.287,7.536,2.914,13.804,6.571,16.286c1.079,0.732,2.23,1.195,3.449,1.195
		c5.571,0,10.092-8.419,10.092-18.809c0-10.396-4.521-18.816-10.092-18.816c-0.782,0-1.532,0.2-2.262,0.511
		c-0.202,0.086-0.391,0.231-0.587,0.339c0.104-0.207,0.215-0.402,0.31-0.616c0.936-2.123,1.62-4.464,1.62-7.115
		c0-7.848-4.73-14.203-10.561-14.203c-3.928,0-7.227,3.029-9.039,7.333c-0.87,2.065-1.503,4.326-1.503,6.871
		C339.414,564.346,340.277,567.006,341.48,569.314z"/>
	<path fill="#D3223D" d="M319.549,576.398c0.769,0.062,1.454-0.151,2.204-0.169c2.875-4.721,7.941-8.041,13.987-8.041
		c0.166,0,0.306,0.089,0.476,0.094c0.59-1.208,1.193-2.423,1.301-3.798c0.306-3.818-1.545-7.367-4.655-10.047
		c-2.849-2.459-6.744-4.194-11.22-4.548c-9.342-0.738-17.38,4.594-17.97,11.915c-0.209,2.67,0.864,5.109,2.428,7.324
		C308.835,572.997,313.61,575.929,319.549,576.398z"/>
	<path fill="#D3223D" d="M321.831,592.375c-1.503-2.419-2.601-5.095-2.601-8.129c0-0.439,0.222-0.808,0.258-1.238
		c-2.168-4.423-5.496-7.484-9.443-7.484c-4.254,0-7.81,3.532-9.916,8.563c-1.157,2.757-1.998,5.833-1.998,9.33
		c0,9.896,5.33,17.894,11.914,17.894c2.702,0,5.069-1.586,7.067-3.85c2.878-3.264,4.86-8.2,4.86-14.043
		C321.971,593.048,321.847,592.739,321.831,592.375z"/>
	<path fill="#FBF9F9" d="M351.771,581.871c-0.388-2.445-1.294-4.634-2.683-6.584c-1.904-2.672-4.427-4.818-7.608-5.973
		c-1.653-0.6-3.41-0.979-5.264-1.032c-0.169-0.005-0.31-0.094-0.476-0.094c-6.047,0-11.112,3.32-13.987,8.041
		c-1.242,2.042-2.06,4.286-2.265,6.779c-0.036,0.43-0.258,0.799-0.258,1.238c0,3.034,1.098,5.709,2.601,8.129
		c2.725,4.387,7.37,7.403,12.934,7.734c0.342,0.02,0.629,0.191,0.975,0.191c1.646,0,3.142-0.474,4.642-0.91
		c5.46-1.583,9.548-5.696,11.034-11.058c0.368-1.336,0.848-2.635,0.848-4.085C352.263,583.404,351.898,582.679,351.771,581.871z
		 M335.287,589.29c-3.798,0-6.897-2.468-6.897-5.497c0-3.043,3.1-5.515,6.897-5.515c3.794,0,6.884,2.472,6.884,5.515
		C342.171,586.822,339.081,589.29,335.287,589.29z"/>
	<path fill="#F7C937" d="M335.287,578.279c-3.798,0-6.897,2.472-6.897,5.515c0,3.028,3.1,5.497,6.897,5.497
		c3.794,0,6.884-2.468,6.884-5.497C342.171,580.751,339.081,578.279,335.287,578.279z"/>
	<path fill="#CFA16D" d="M620.969,574.435c-1.239,0.686-2.588,1.089-4.009,1.089c-0.31,0-0.567-0.201-0.87-0.236
		c1.389,1.949,2.292,4.139,2.683,6.584C619.199,579.067,619.952,576.54,620.969,574.435z"/>
	<path fill="#CFA16D" d="M601.763,600.108c-5.561-0.332-10.196-3.335-12.924-7.705c0.013,0.354,0.137,0.654,0.137,1.014
		c0,5.842-1.985,10.779-4.867,14.043l7.735,1.659C592.089,604.98,596.091,601.519,601.763,600.108z"/>
	<path fill="#CFA16D" d="M577.045,575.524c3.934,0,7.259,3.052,9.433,7.465c0.209-2.486,1.02-4.724,2.259-6.76
		c-0.743,0.018-1.421,0.231-2.187,0.169c-5.939-0.469-10.714-3.401-13.446-7.271c-0.202,0.297-0.587,0.639-0.639,0.899
		c-0.919,4.593-2.754,10.091-5.512,13.767l0.169,0.282C569.239,579.052,572.798,575.524,577.045,575.524z"/>
	<path fill="#CFA16D" d="M626.175,568.699l-0.277-0.279c-0.095,0.215-0.209,0.411-0.31,0.618
		C625.787,568.931,625.973,568.786,626.175,568.699z"/>
	<path fill="#CFA16D" d="M604.518,564.484c-0.108,1.376-0.711,2.59-1.301,3.797c1.848,0.054,3.602,0.433,5.248,1.03
		c-1.2-2.309-2.063-4.966-2.063-8.004c0-2.545,0.632-4.806,1.503-6.871h-8.038C602.969,557.117,604.824,560.666,604.518,564.484z"/>
	<path fill="#CFA16D" d="M618.417,588.331c-1.49,5.364-5.577,9.477-11.037,11.06c7.696,0.02,13.775,3.692,15.03,8.446l2.582-3.22
		C621.334,602.135,618.7,595.867,618.417,588.331z"/>
	<path fill="#D3223D" d="M607.38,599.391c-1.499,0.434-2.992,0.909-4.638,0.909c-0.346,0-0.636-0.171-0.978-0.191
		c-5.672,1.411-9.675,4.872-9.919,9.01c-0.007,0.13-0.114,0.239-0.114,0.37c0,5.572,6.976,10.093,15.588,10.093
		c8.632,0,15.607-4.521,15.607-10.093c0-0.587-0.368-1.093-0.515-1.652C621.155,603.084,615.076,599.412,607.38,599.391z"/>
	<path fill="#D3223D" d="M608.465,569.311c3.191,1.156,5.717,3.3,7.624,5.977c0.303,0.035,0.561,0.236,0.87,0.236
		c1.421,0,2.771-0.403,4.009-1.089c-1.017,2.105-1.77,4.631-2.197,7.436c0.127,0.808,0.492,1.532,0.492,2.375
		c0,1.45-0.479,2.75-0.847,4.085c0.284,7.536,2.917,13.804,6.575,16.286c1.076,0.733,2.226,1.195,3.445,1.195
		c5.571,0,10.092-8.419,10.092-18.809c0-10.396-4.521-18.816-10.092-18.816c-0.782,0-1.532,0.201-2.262,0.511
		c-0.202,0.086-0.388,0.231-0.587,0.34c0.101-0.208,0.215-0.403,0.31-0.618c0.935-2.122,1.617-4.462,1.617-7.113
		c0-7.848-4.727-14.203-10.555-14.203c-3.938,0-7.243,3.029-9.055,7.333c-0.87,2.065-1.503,4.326-1.503,6.871
		C606.402,564.345,607.266,567.003,608.465,569.311z"/>
	<path fill="#D3223D" d="M586.551,576.398c0.766,0.062,1.444-0.151,2.187-0.169c2.878-4.722,7.947-8.042,14.003-8.042
		c0.169,0,0.306,0.088,0.476,0.093c0.59-1.208,1.193-2.422,1.301-3.797c0.306-3.818-1.548-7.367-4.651-10.047
		c-2.852-2.459-6.747-4.194-11.223-4.548c-9.339-0.738-17.397,4.594-17.97,11.915c-0.209,2.67,0.867,5.109,2.432,7.324
		C575.836,572.997,580.611,575.929,586.551,576.398z"/>
	<path fill="#D3223D" d="M588.839,592.403c-1.516-2.426-2.621-5.111-2.621-8.157c0-0.446,0.225-0.82,0.261-1.257
		c-2.174-4.414-5.499-7.465-9.433-7.465c-4.247,0-7.807,3.528-9.922,8.552c-1.16,2.76-2.008,5.839-2.008,9.341
		c0,9.896,5.349,17.894,11.93,17.894c2.696,0,5.062-1.586,7.064-3.851c2.882-3.264,4.867-8.201,4.867-14.043
		C588.976,593.058,588.852,592.758,588.839,592.403z"/>
	<path fill="#FBF9F9" d="M618.772,581.871c-0.391-2.445-1.294-4.634-2.683-6.584c-1.907-2.676-4.433-4.821-7.624-5.977
		c-1.646-0.597-3.4-0.976-5.248-1.03c-0.169-0.005-0.306-0.093-0.476-0.093c-6.056,0-11.125,3.319-14.003,8.042
		c-1.239,2.036-2.05,4.273-2.259,6.76c-0.036,0.437-0.261,0.811-0.261,1.257c0,3.046,1.105,5.731,2.621,8.157
		c2.728,4.37,7.364,7.373,12.924,7.705c0.342,0.02,0.632,0.191,0.978,0.191c1.646,0,3.139-0.474,4.638-0.909
		c5.46-1.583,9.547-5.696,11.037-11.06c0.368-1.336,0.847-2.635,0.847-4.085C619.264,583.404,618.899,582.679,618.772,581.871z
		 M602.275,589.29c-3.797,0-6.884-2.468-6.884-5.497c0-3.043,3.087-5.515,6.884-5.515c3.794,0,6.897,2.472,6.897,5.515
		C609.172,586.822,606.069,589.29,602.275,589.29z"/>
	<path fill="#F7C937" d="M602.275,578.279c-3.797,0-6.884,2.472-6.884,5.515c0,3.028,3.087,5.497,6.884,5.497
		c3.794,0,6.897-2.468,6.897-5.497C609.172,580.751,606.069,578.279,602.275,578.279z"/>
	<path fill="#CFA16D" d="M844.047,575.524c3.938,0,7.262,3.053,9.433,7.467c0.209-2.488,1.023-4.725,2.262-6.762
		c-0.75,0.019-1.434,0.231-2.207,0.169c-5.936-0.469-10.705-3.399-13.436-7.265c-0.199,0.295-0.58,0.636-0.629,0.893
		c-0.935,4.593-2.774,10.091-5.515,13.767l0.169,0.283C836.24,579.052,839.799,575.524,844.047,575.524z"/>
	<path fill="#CFA16D" d="M885.405,588.318c-1.483,5.369-5.571,9.488-11.027,11.072c7.686,0.019,13.775,3.692,15.034,8.446
		l2.575-3.218C888.329,602.135,885.689,595.86,885.405,588.318z"/>
	<path fill="#CFA16D" d="M871.522,564.484c-0.108,1.376-0.711,2.59-1.304,3.797c1.848,0.054,3.602,0.433,5.251,1.032
		c-1.203-2.309-2.067-4.967-2.067-8.006c0-2.545,0.632-4.806,1.503-6.871h-8.048C869.961,557.117,871.819,560.666,871.522,564.484z"
		/>
	<path fill="#CFA16D" d="M868.768,600.108c-5.561-0.332-10.199-3.336-12.928-7.707c0.013,0.355,0.137,0.656,0.137,1.016
		c0,5.842-1.985,10.779-4.867,14.043l7.735,1.662C859.087,604.982,863.093,601.519,868.768,600.108z"/>
	<path fill="#CFA16D" d="M893.176,568.695l-0.284-0.283c-0.098,0.219-0.212,0.418-0.316,0.629
		C892.778,568.931,892.971,568.783,893.176,568.695z"/>
	<path fill="#CFA16D" d="M887.961,574.435c-1.235,0.686-2.582,1.089-4,1.089c-0.316,0-0.58-0.205-0.89-0.241
		c1.395,1.953,2.301,4.148,2.689,6.6C886.187,579.074,886.94,576.544,887.961,574.435z"/>
	<path fill="#D3223D" d="M874.378,599.39c-1.499,0.435-2.989,0.909-4.632,0.909c-0.349,0-0.636-0.171-0.978-0.191
		c-5.675,1.411-9.681,4.873-9.922,9.014c-0.007,0.129-0.111,0.236-0.111,0.367c0,5.572,6.972,10.093,15.588,10.093
		c8.615,0,15.604-4.521,15.604-10.093c0-0.587-0.368-1.094-0.515-1.653C888.153,603.082,882.064,599.409,874.378,599.39z"/>
	<path fill="#D3223D" d="M895.425,568.188c-0.776,0-1.526,0.198-2.249,0.507c-0.205,0.088-0.398,0.236-0.6,0.346
		c0.104-0.211,0.218-0.41,0.316-0.629c0.932-2.12,1.614-4.458,1.614-7.105c0-7.848-4.73-14.203-10.545-14.203
		c-3.938,0-7.24,3.029-9.055,7.333c-0.87,2.065-1.503,4.326-1.503,6.871c0,3.039,0.864,5.697,2.067,8.006
		c3.181,1.156,5.698,3.299,7.602,5.97c0.31,0.037,0.574,0.241,0.89,0.241c1.418,0,2.764-0.403,4-1.089
		c-1.02,2.108-1.773,4.638-2.2,7.448c0.127,0.803,0.489,1.525,0.489,2.363c0,1.445-0.479,2.741-0.844,4.072
		c0.284,7.542,2.924,13.817,6.581,16.3c1.079,0.732,2.226,1.195,3.439,1.195c5.574,0,10.092-8.419,10.092-18.809
		C905.517,576.608,900.999,568.188,895.425,568.188z"/>
	<path fill="#D3223D" d="M853.535,576.398c0.773,0.062,1.457-0.151,2.207-0.169c2.878-4.721,7.944-8.041,14.003-8.041
		c0.166,0,0.306,0.088,0.473,0.093c0.593-1.208,1.196-2.422,1.304-3.797c0.297-3.818-1.561-7.367-4.665-10.047
		c-2.852-2.459-6.744-4.194-11.213-4.548c-9.352-0.738-17.393,4.594-17.967,11.915c-0.215,2.673,0.857,5.114,2.422,7.33
		C842.831,573,847.6,575.929,853.535,576.398z"/>
	<path fill="#D3223D" d="M855.84,592.401c-1.516-2.425-2.621-5.109-2.621-8.155c0-0.445,0.225-0.819,0.261-1.255
		c-2.171-4.414-5.496-7.467-9.433-7.467c-4.247,0-7.807,3.528-9.922,8.552c-1.16,2.759-2.008,5.839-2.008,9.341
		c0,9.896,5.349,17.894,11.93,17.894c2.699,0,5.065-1.587,7.064-3.851c2.882-3.264,4.867-8.201,4.867-14.043
		C855.977,593.057,855.853,592.756,855.84,592.401z"/>
	<path fill="#FBF9F9" d="M869.746,568.188c-6.06,0-11.125,3.32-14.003,8.041c-1.239,2.037-2.054,4.274-2.262,6.762
		c-0.036,0.436-0.261,0.81-0.261,1.255c0,3.045,1.105,5.73,2.621,8.155c2.728,4.371,7.367,7.376,12.928,7.707
		c0.342,0.02,0.629,0.191,0.978,0.191c1.643,0,3.133-0.474,4.632-0.909c5.457-1.584,9.544-5.703,11.027-11.072
		c0.365-1.332,0.844-2.627,0.844-4.072c0-0.839-0.362-1.56-0.489-2.363c-0.388-2.452-1.294-4.647-2.689-6.6
		c-1.904-2.671-4.42-4.815-7.602-5.97c-1.649-0.599-3.403-0.978-5.251-1.032C870.052,568.276,869.912,568.188,869.746,568.188z
		 M876.161,583.794c0,3.028-3.09,5.497-6.884,5.497s-6.881-2.468-6.881-5.497c0-3.043,3.087-5.515,6.881-5.515
		S876.161,580.751,876.161,583.794z"/>
	<path fill="#F7C937" d="M862.395,583.794c0,3.028,3.087,5.497,6.881,5.497s6.884-2.468,6.884-5.497c0-3.043-3.09-5.515-6.884-5.515
		S862.395,580.751,862.395,583.794z"/>
	<path fill="#CFA16D" d="M353.974,813.919c-1.242,0.689-2.591,1.09-4.019,1.09c-0.306,0-0.567-0.201-0.867-0.236
		c1.389,1.949,2.295,4.139,2.683,6.585C352.198,818.551,352.951,816.024,353.974,813.919z"/>
	<path fill="#CFA16D" d="M334.762,839.594c-5.564-0.333-10.206-3.348-12.931-7.735c0.016,0.365,0.14,0.674,0.14,1.044
		c0,5.842-1.979,10.778-4.86,14.042l7.732,1.658C325.084,844.466,329.087,841.006,334.762,839.594z"/>
	<path fill="#CFA16D" d="M310.044,815.009c3.947,0,7.276,3.059,9.443,7.483c0.205-2.494,1.02-4.737,2.265-6.778
		c-0.75,0.019-1.434,0.231-2.204,0.169c-5.939-0.46-10.718-3.397-13.449-7.27c-0.202,0.297-0.583,0.638-0.636,0.897
		c-0.919,4.594-2.754,10.091-5.512,13.768l0.176,0.293C302.234,818.541,305.79,815.009,310.044,815.009z"/>
	<path fill="#CFA16D" d="M337.516,803.969c-0.108,1.376-0.711,2.59-1.301,3.797c1.855,0.054,3.612,0.433,5.264,1.033
		c-1.203-2.31-2.067-4.969-2.067-8.01c0-2.543,0.632-4.804,1.499-6.868h-8.048C335.971,796.601,337.823,800.151,337.516,803.969z"/>
	<path fill="#CFA16D" d="M351.416,827.815c-1.486,5.361-5.574,9.474-11.027,11.059c7.683,0.019,13.766,3.692,15.02,8.446
		l2.578-3.219C354.33,841.618,351.702,835.351,351.416,827.815z"/>
	<path fill="#CFA16D" d="M359.183,808.195l-0.287-0.289c-0.098,0.222-0.215,0.425-0.323,0.64
		C358.779,808.433,358.975,808.284,359.183,808.195z"/>
	<path fill="#D3223D" d="M355.92,848.972c0-0.587-0.365-1.094-0.512-1.653c-1.255-4.753-7.337-8.427-15.02-8.446
		c-1.503,0.437-2.999,0.912-4.648,0.912c-0.349,0-0.636-0.171-0.978-0.192c-5.675,1.412-9.678,4.872-9.919,9.009
		c-0.007,0.13-0.114,0.238-0.114,0.369c0,5.575,6.972,10.093,15.604,10.093C348.948,859.065,355.92,854.547,355.92,848.972z"/>
	<path fill="#D3223D" d="M341.48,808.799c3.181,1.156,5.704,3.301,7.608,5.973c0.3,0.035,0.561,0.236,0.867,0.236
		c1.428,0,2.777-0.402,4.019-1.09c-1.024,2.105-1.777,4.633-2.204,7.439c0.127,0.806,0.492,1.53,0.492,2.371
		c0,1.45-0.479,2.75-0.848,4.086c0.287,7.536,2.914,13.804,6.571,16.286c1.079,0.733,2.23,1.196,3.449,1.196
		c5.571,0,10.092-8.42,10.092-18.811c0-10.376-4.521-18.796-10.092-18.796c-0.779,0-1.526,0.197-2.252,0.505
		c-0.209,0.089-0.404,0.239-0.61,0.351c0.108-0.214,0.225-0.417,0.323-0.64c0.936-2.123,1.62-4.464,1.62-7.117
		c0-7.847-4.73-14.202-10.561-14.202c-3.928,0-7.227,3.029-9.042,7.334c-0.867,2.064-1.499,4.325-1.499,6.868
		C339.414,803.83,340.277,806.49,341.48,808.799z"/>
	<path fill="#D3223D" d="M319.549,815.883c0.769,0.062,1.454-0.151,2.204-0.169c2.875-4.721,7.941-8.041,13.987-8.041
		c0.166,0,0.306,0.089,0.476,0.094c0.59-1.208,1.193-2.422,1.301-3.797c0.306-3.818-1.545-7.368-4.652-10.048
		c-2.852-2.459-6.747-4.195-11.223-4.548c-9.342-0.738-17.38,4.594-17.97,11.912c-0.209,2.67,0.864,5.111,2.428,7.328
		C308.832,812.487,313.61,815.423,319.549,815.883z"/>
	<path fill="#D3223D" d="M321.831,831.859c-1.503-2.419-2.601-5.096-2.601-8.13c0-0.438,0.222-0.808,0.258-1.237
		c-2.168-4.423-5.496-7.483-9.443-7.483c-4.254,0-7.81,3.532-9.916,8.563c-1.154,2.757-1.998,5.832-1.998,9.331
		c0,9.895,5.33,17.892,11.914,17.892c2.702,0,5.069-1.587,7.067-3.85c2.882-3.264,4.86-8.2,4.86-14.042
		C321.971,832.533,321.847,832.224,321.831,831.859z"/>
	<path fill="#FBF9F9" d="M351.416,827.815c0.368-1.336,0.848-2.636,0.848-4.086c0-0.841-0.365-1.565-0.492-2.371
		c-0.388-2.446-1.294-4.635-2.683-6.585c-1.904-2.672-4.427-4.817-7.608-5.973c-1.653-0.6-3.41-0.979-5.264-1.033
		c-0.169-0.005-0.31-0.094-0.476-0.094c-6.047,0-11.112,3.32-13.987,8.041c-1.245,2.041-2.06,4.284-2.265,6.778
		c-0.036,0.429-0.258,0.799-0.258,1.237c0,3.034,1.098,5.711,2.601,8.13c2.725,4.387,7.367,7.402,12.931,7.735
		c0.342,0.02,0.629,0.192,0.978,0.192c1.649,0,3.146-0.475,4.648-0.912C345.842,837.289,349.929,833.176,351.416,827.815z
		 M335.287,828.777c-3.798,0-6.897-2.472-6.897-5.498c0-3.045,3.1-5.498,6.897-5.498c3.794,0,6.884,2.454,6.884,5.498
		C342.171,826.305,339.081,828.777,335.287,828.777z"/>
	<path fill="#F7C937" d="M335.287,817.781c-3.798,0-6.897,2.454-6.897,5.498c0,3.026,3.1,5.498,6.897,5.498
		c3.794,0,6.884-2.472,6.884-5.498C342.171,820.234,339.081,817.781,335.287,817.781z"/>
	<path fill="#CFA16D" d="M604.518,803.969c-0.108,1.376-0.707,2.589-1.301,3.797c1.848,0.054,3.602,0.433,5.251,1.03
		c-1.203-2.309-2.067-4.967-2.067-8.007c0-2.543,0.632-4.804,1.503-6.868h-8.038C602.973,796.601,604.824,800.151,604.518,803.969z"
		/>
	<path fill="#CFA16D" d="M620.976,813.919c-1.239,0.688-2.591,1.09-4.016,1.09c-0.31,0-0.567-0.201-0.87-0.236
		c1.389,1.949,2.292,4.139,2.683,6.585C619.202,818.551,619.952,816.024,620.976,813.919z"/>
	<path fill="#CFA16D" d="M601.76,839.593c-5.558-0.334-10.193-3.336-12.921-7.707c0.013,0.355,0.137,0.656,0.137,1.016
		c0,5.84-1.985,10.776-4.867,14.04l7.735,1.659C592.089,844.464,596.091,841.005,601.76,839.593z"/>
	<path fill="#CFA16D" d="M577.045,815.009c3.934,0,7.259,3.052,9.433,7.465c0.209-2.486,1.02-4.722,2.259-6.759
		c-0.743,0.018-1.421,0.231-2.187,0.169c-5.942-0.46-10.714-3.397-13.449-7.27c-0.199,0.297-0.583,0.638-0.636,0.897
		c-0.919,4.594-2.754,10.091-5.512,13.768l0.169,0.281C569.239,818.535,572.798,815.009,577.045,815.009z"/>
	<path fill="#CFA16D" d="M618.417,827.815c-1.486,5.363-5.574,9.476-11.034,11.06c7.696,0.022,13.772,3.693,15.027,8.445
		l2.582-3.219C621.334,841.617,618.7,835.35,618.417,827.815z"/>
	<path fill="#CFA16D" d="M626.185,808.194l-0.287-0.288c-0.098,0.223-0.215,0.426-0.323,0.641
		C625.78,808.433,625.976,808.283,626.185,808.194z"/>
	<path fill="#D3223D" d="M607.383,838.875c-1.499,0.436-2.996,0.911-4.642,0.911c-0.349,0-0.639-0.172-0.981-0.192
		c-5.669,1.411-9.671,4.871-9.916,9.009c-0.007,0.13-0.114,0.239-0.114,0.37c0,5.575,6.976,10.093,15.588,10.093
		c8.632,0,15.607-4.518,15.607-10.093c0-0.586-0.368-1.094-0.515-1.653C621.155,842.568,615.079,838.897,607.383,838.875z"/>
	<path fill="#D3223D" d="M608.468,808.796c3.188,1.156,5.714,3.301,7.621,5.977c0.303,0.035,0.561,0.236,0.87,0.236
		c1.424,0,2.777-0.403,4.016-1.09c-1.024,2.105-1.773,4.633-2.204,7.439c0.127,0.806,0.492,1.53,0.492,2.371
		c0,1.45-0.479,2.75-0.847,4.086c0.284,7.536,2.917,13.803,6.575,16.286c1.076,0.733,2.226,1.196,3.445,1.196
		c5.571,0,10.092-8.42,10.092-18.811c0-10.376-4.521-18.796-10.092-18.796c-0.779,0-1.526,0.196-2.252,0.504
		c-0.209,0.089-0.404,0.24-0.61,0.353c0.108-0.215,0.225-0.418,0.323-0.641c0.935-2.123,1.617-4.464,1.617-7.116
		c0-7.847-4.727-14.202-10.555-14.202c-3.941,0-7.243,3.029-9.055,7.334c-0.87,2.064-1.503,4.325-1.503,6.868
		C606.402,803.829,607.266,806.487,608.468,808.796z"/>
	<path fill="#D3223D" d="M586.551,815.883c0.766,0.062,1.444-0.151,2.187-0.169c2.878-4.722,7.947-8.042,14.003-8.042
		c0.169,0,0.306,0.088,0.476,0.093c0.593-1.208,1.193-2.421,1.301-3.797c0.306-3.818-1.545-7.368-4.651-10.048
		c-2.849-2.459-6.747-4.195-11.223-4.548c-9.339-0.738-17.397,4.594-17.97,11.912c-0.209,2.67,0.867,5.111,2.428,7.328
		C575.836,812.487,580.608,815.423,586.551,815.883z"/>
	<path fill="#D3223D" d="M588.839,831.887c-1.516-2.426-2.621-5.112-2.621-8.158c0-0.445,0.225-0.819,0.261-1.255
		c-2.174-4.413-5.499-7.465-9.433-7.465c-4.247,0-7.807,3.526-9.922,8.551c-1.16,2.759-2.008,5.84-2.008,9.343
		c0,9.895,5.349,17.892,11.93,17.892c2.696,0,5.062-1.587,7.064-3.852c2.882-3.265,4.867-8.2,4.867-14.04
		C588.976,832.543,588.852,832.242,588.839,831.887z"/>
	<path fill="#FBF9F9" d="M618.772,821.357c-0.391-2.446-1.294-4.635-2.683-6.585c-1.907-2.675-4.433-4.821-7.621-5.977
		c-1.649-0.597-3.403-0.976-5.251-1.03c-0.169-0.005-0.306-0.093-0.476-0.093c-6.056,0-11.125,3.32-14.003,8.042
		c-1.239,2.036-2.05,4.273-2.259,6.759c-0.036,0.436-0.261,0.81-0.261,1.255c0,3.046,1.105,5.732,2.621,8.158
		c2.728,4.37,7.364,7.372,12.921,7.707c0.342,0.02,0.632,0.192,0.981,0.192c1.646,0,3.142-0.475,4.642-0.911
		c5.46-1.584,9.548-5.697,11.034-11.06c0.368-1.336,0.847-2.636,0.847-4.086C619.264,822.888,618.899,822.163,618.772,821.357z
		 M602.275,828.777c-3.797,0-6.884-2.472-6.884-5.498c0-3.045,3.087-5.498,6.884-5.498c3.794,0,6.897,2.454,6.897,5.498
		C609.172,826.305,606.069,828.777,602.275,828.777z"/>
	<path fill="#F7C937" d="M602.275,817.781c-3.797,0-6.884,2.454-6.884,5.498c0,3.026,3.087,5.498,6.884,5.498
		c3.794,0,6.897-2.472,6.897-5.498C609.172,820.234,606.069,817.781,602.275,817.781z"/>
	<path fill="#CFA16D" d="M579.487,1025.062c3.546,0,6.542,2.744,8.501,6.718c0.189-2.239,0.919-4.254,2.034-6.088
		c-0.668,0.017-1.278,0.209-1.969,0.154c-5.365-0.422-9.671-3.076-12.129-6.571c-0.186,0.271-0.531,0.582-0.58,0.817
		c-0.815,4.141-2.471,9.096-4.955,12.41l0.153,0.254C572.446,1028.232,575.654,1025.062,579.487,1025.062z"/>
	<path fill="#CFA16D" d="M624.004,1019.11l-0.473-0.475c-0.124,0.28-0.267,0.54-0.404,0.806
		C623.407,1019.276,623.711,1019.224,624.004,1019.11z"/>
	<path fill="#CFA16D" d="M601.77,1047.211c-5.013-0.3-9.192-3.01-11.656-6.951c0.013,0.321,0.124,0.593,0.124,0.918
		c0,5.26-1.786,9.713-4.378,12.66l6.969,1.495C593.047,1051.608,596.662,1048.485,601.77,1047.211z"/>
	<path fill="#CFA16D" d="M619.137,1024.05c-1.128,0.634-2.36,0.996-3.654,0.996c-0.284,0-0.525-0.186-0.805-0.219
		c1.32,1.847,2.177,3.934,2.494,6.269C617.553,1028.443,618.172,1026.02,619.137,1024.05z"/>
	<path fill="#CFA16D" d="M616.816,1036.428c-1.297,4.91-5.007,8.69-9.981,10.135c6.93,0.02,12.413,3.334,13.544,7.615l2.376-2.97
		C619.424,1048.971,617.051,1043.303,616.816,1036.428z"/>
	<path fill="#CFA16D" d="M604.26,1015.09c-0.098,1.242-0.642,2.339-1.18,3.429c1.669,0.049,3.253,0.39,4.74,0.93
		c-1.089-2.082-1.871-4.48-1.871-7.219c0-2.298,0.574-4.34,1.363-6.206h-7.266C602.852,1008.442,604.527,1011.647,604.26,1015.09z"
		/>
	<path fill="#D3223D" d="M606.835,1046.563c-1.353,0.393-2.699,0.821-4.185,0.821c-0.313,0-0.574-0.154-0.88-0.173
		c-5.108,1.274-8.723,4.397-8.941,8.123c-0.007,0.117-0.104,0.215-0.104,0.333c0,5.032,6.298,9.098,14.052,9.098
		c7.771,0,14.069-4.066,14.069-9.098c0-0.528-0.332-0.986-0.466-1.49C619.248,1049.897,613.765,1046.583,606.835,1046.563z"/>
	<path fill="#D3223D" d="M625.8,1018.434c-0.636,0-1.196,0.444-1.796,0.676c-0.293,0.114-0.596,0.165-0.877,0.331
		c0.137-0.266,0.28-0.526,0.404-0.806c0.841-1.913,1.457-4.021,1.457-6.406c0-7.078-4.264-12.817-9.505-12.817
		c-3.55,0-6.532,2.732-8.172,6.611c-0.789,1.865-1.363,3.908-1.363,6.206c0,2.739,0.782,5.137,1.871,7.219
		c2.868,1.041,5.14,2.97,6.858,5.378c0.28,0.033,0.522,0.219,0.805,0.219c1.294,0,2.526-0.362,3.654-0.996
		c-0.965,1.97-1.584,4.393-1.966,7.046c0.081,0.622,0.375,1.171,0.375,1.815c0,1.248-0.424,2.362-0.73,3.518
		c0.235,6.875,2.608,12.543,5.939,14.779c0.962,0.646,1.966,1.147,3.045,1.147c5.046,0,9.114-7.591,9.114-16.961
		C634.914,1026.026,630.846,1018.434,625.8,1018.434z"/>
	<path fill="#D3223D" d="M588.053,1025.846c0.691,0.055,1.301-0.137,1.969-0.154c2.595-4.26,7.168-7.258,12.628-7.258
		c0.153,0,0.28,0.081,0.43,0.085c0.538-1.09,1.082-2.187,1.18-3.429c0.267-3.443-1.408-6.647-4.215-9.066
		c-2.569-2.215-6.076-3.78-10.108-4.097c-8.42-0.663-15.679,4.157-16.191,10.754c-0.192,2.4,0.769,4.597,2.177,6.594
		C578.382,1022.769,582.688,1025.423,588.053,1025.846z"/>
	<path fill="#D3223D" d="M590.113,1040.26c-1.363-2.186-2.36-4.605-2.36-7.35c0-0.401,0.202-0.738,0.235-1.13
		c-1.959-3.974-4.955-6.718-8.501-6.718c-3.833,0-7.041,3.17-8.945,7.695c-1.05,2.486-1.812,5.26-1.812,8.421
		c0,8.918,4.821,16.146,10.757,16.146c2.432,0,4.57-1.436,6.373-3.485c2.591-2.948,4.378-7.4,4.378-12.66
		C590.237,1040.852,590.126,1040.581,590.113,1040.26z"/>
	<path fill="#FBF9F9" d="M602.65,1018.434c-5.46,0-10.033,2.997-12.628,7.258c-1.115,1.834-1.845,3.849-2.034,6.088
		c-0.033,0.393-0.235,0.729-0.235,1.13c0,2.745,0.997,5.164,2.36,7.35c2.464,3.942,6.643,6.651,11.656,6.951
		c0.306,0.019,0.567,0.173,0.88,0.173c1.486,0,2.833-0.428,4.185-0.821c4.974-1.445,8.684-5.225,9.981-10.135
		c0.306-1.156,0.73-2.27,0.73-3.518c0-0.644-0.293-1.193-0.375-1.815c-0.316-2.336-1.174-4.422-2.494-6.269
		c-1.718-2.407-3.99-4.336-6.858-5.378c-1.486-0.539-3.071-0.881-4.74-0.93C602.93,1018.515,602.803,1018.434,602.65,1018.434z
		 M608.433,1032.503c0,2.742-2.771,4.956-6.203,4.956c-3.419,0-6.206-2.214-6.206-4.956c0-2.741,2.787-4.969,6.206-4.969
		C605.662,1027.533,608.433,1029.761,608.433,1032.503z"/>
	<path fill="#F7C937" d="M596.023,1032.503c0,2.742,2.787,4.956,6.206,4.956c3.432,0,6.203-2.214,6.203-4.956
		c0-2.741-2.771-4.969-6.203-4.969C598.81,1027.533,596.023,1029.761,596.023,1032.503z"/>
	<path fill="#CFA16D" d="M893.186,808.191l-0.293-0.294c-0.101,0.227-0.218,0.434-0.329,0.653
		C892.772,808.433,892.974,808.281,893.186,808.191z"/>
	<path fill="#CFA16D" d="M871.522,803.969c-0.108,1.376-0.711,2.589-1.304,3.797c1.848,0.054,3.602,0.433,5.251,1.032
		c-1.203-2.309-2.067-4.968-2.067-8.008c0-2.543,0.632-4.804,1.503-6.868h-8.048C869.961,796.601,871.819,800.151,871.522,803.969z"
		/>
	<path fill="#CFA16D" d="M887.97,813.919c-1.239,0.689-2.588,1.09-4.009,1.09c-0.316,0-0.58-0.205-0.89-0.241
		c1.395,1.953,2.301,4.15,2.689,6.602C886.187,818.56,886.944,816.026,887.97,813.919z"/>
	<path fill="#CFA16D" d="M868.761,839.593c-5.558-0.334-10.193-3.338-12.921-7.709c0.013,0.356,0.137,0.658,0.137,1.019
		c0,5.841-1.985,10.777-4.867,14.041l7.735,1.662C859.087,844.466,863.093,841.005,868.761,839.593z"/>
	<path fill="#CFA16D" d="M885.405,827.801c-1.483,5.369-5.567,9.487-11.021,11.074c7.68,0.02,13.769,3.692,15.027,8.445l2.572-3.218
		C888.329,841.617,885.689,835.344,885.405,827.801z"/>
	<path fill="#CFA16D" d="M844.047,815.009c3.938,0,7.262,3.052,9.433,7.465c0.209-2.486,1.023-4.725,2.262-6.761
		c-0.75,0.019-1.434,0.231-2.207,0.169c-5.936-0.46-10.708-3.393-13.44-7.264c-0.196,0.294-0.577,0.634-0.626,0.891
		c-0.935,4.594-2.774,10.091-5.515,13.768l0.169,0.282C836.24,818.535,839.799,815.009,844.047,815.009z"/>
	<path fill="#D3223D" d="M874.384,838.875c-1.503,0.436-2.996,0.911-4.638,0.911c-0.349,0-0.639-0.172-0.984-0.192
		c-5.669,1.411-9.675,4.873-9.916,9.012c-0.007,0.129-0.111,0.236-0.111,0.367c0,5.575,6.972,10.093,15.588,10.093
		c8.615,0,15.604-4.518,15.604-10.093c0-0.587-0.368-1.094-0.515-1.653C888.153,842.567,882.064,838.895,874.384,838.875z"/>
	<path fill="#D3223D" d="M895.425,807.689c-0.773,0-1.519,0.195-2.239,0.501c-0.212,0.09-0.414,0.243-0.623,0.359
		c0.111-0.219,0.228-0.425,0.329-0.653c0.932-2.121,1.614-4.458,1.614-7.107c0-7.847-4.73-14.202-10.545-14.202
		c-3.938,0-7.243,3.029-9.055,7.334c-0.87,2.064-1.503,4.325-1.503,6.868c0,3.04,0.864,5.7,2.067,8.008
		c3.181,1.156,5.698,3.298,7.602,5.97c0.31,0.037,0.574,0.241,0.89,0.241c1.421,0,2.771-0.402,4.009-1.09
		c-1.027,2.107-1.783,4.641-2.21,7.451c0.127,0.803,0.489,1.522,0.489,2.359c0,1.445-0.479,2.741-0.844,4.072
		c0.284,7.544,2.924,13.817,6.578,16.301c1.079,0.732,2.226,1.195,3.442,1.195c5.574,0,10.092-8.42,10.092-18.811
		C905.517,816.109,900.999,807.689,895.425,807.689z"/>
	<path fill="#D3223D" d="M853.535,815.883c0.773,0.062,1.457-0.151,2.207-0.169c2.875-4.721,7.944-8.041,14.003-8.041
		c0.166,0,0.306,0.088,0.473,0.093c0.593-1.208,1.196-2.421,1.304-3.797c0.297-3.818-1.561-7.368-4.665-10.048
		c-2.852-2.459-6.744-4.195-11.213-4.548c-9.352-0.738-17.393,4.594-17.967,11.912c-0.215,2.673,0.854,5.115,2.419,7.333
		C842.828,812.49,847.6,815.423,853.535,815.883z"/>
	<path fill="#D3223D" d="M855.84,831.884c-1.516-2.425-2.621-5.11-2.621-8.156c0-0.445,0.225-0.818,0.261-1.254
		c-2.171-4.414-5.496-7.465-9.433-7.465c-4.247,0-7.807,3.526-9.922,8.552c-1.16,2.759-2.008,5.84-2.008,9.342
		c0,9.895,5.349,17.892,11.93,17.892c2.699,0,5.065-1.587,7.064-3.851c2.882-3.264,4.867-8.2,4.867-14.041
		C855.977,832.542,855.853,832.24,855.84,831.884z"/>
	<path fill="#FBF9F9" d="M869.746,807.673c-6.06,0-11.128,3.32-14.003,8.041c-1.239,2.036-2.054,4.274-2.262,6.761
		c-0.036,0.436-0.261,0.809-0.261,1.254c0,3.045,1.105,5.73,2.621,8.156c2.728,4.371,7.364,7.375,12.921,7.709
		c0.346,0.02,0.636,0.192,0.984,0.192c1.643,0,3.136-0.475,4.638-0.911c5.453-1.587,9.538-5.705,11.021-11.074
		c0.365-1.332,0.844-2.627,0.844-4.072c0-0.837-0.362-1.557-0.489-2.359c-0.388-2.452-1.294-4.648-2.689-6.602
		c-1.904-2.672-4.42-4.815-7.602-5.97c-1.649-0.599-3.403-0.978-5.251-1.032C870.052,807.761,869.912,807.673,869.746,807.673z
		 M876.161,823.279c0,3.026-3.09,5.498-6.884,5.498s-6.881-2.472-6.881-5.498c0-3.045,3.087-5.498,6.881-5.498
		S876.161,820.234,876.161,823.279z"/>
	<path fill="#F7C937" d="M862.395,823.279c0,3.026,3.087,5.498,6.881,5.498s6.884-2.472,6.884-5.498c0-3.045-3.09-5.498-6.884-5.498
		S862.395,820.234,862.395,823.279z"/>
	<path fill="#276599" d="M413.369,416.262c0,0,0,3.974,10.314,6.354c10.32,2.38,4.762,15.86,4.762,15.86l-0.795,3.178
		c-5.561,8.722,3.175,10.318,3.175,13.494c0,3.181,6.356,3.965,6.356,7.941c0,3.96,3.162,7.139,10.317,7.139
		c7.142,0,4.759,7.139,0.786,12.696c-3.96,5.543,3.175,10.318,7.135,4.76c3.977-5.557,7.158,1.583,7.941,12.698
		c0.799,11.115,3.977,3.178,3.977-3.962c0-7.139,5.558-4.774,7.139,0.783c1.581,5.559,7.139,6.357,9.521,2.38
		c2.376-3.96,6.353-4.758,8.733-7.936c2.38-3.163,4.759-3.962,7.937-4.759c3.178-0.799,1.584-4.76,3.178-10.318
		c1.584-5.559,6.343-0.782,15.079-7.14c0.58-0.424,0.88-0.708,1.304-1.052c1.291,0.372,3.915-1.389,8.997-7.683
		c16.673-20.62,4.775-5.545,7.139-16.66c2.383-11.116,4.779-15.076,4.779-15.076l7.934-3.178c0,0-3.974-23.796,0.786-28.556
		c4.759-4.775,0.799-6.356-7.142-10.332c-7.921-3.962,3.178-7.923,7.142-8.721c3.974-0.798-7.924-6.357-13.498-7.938
		c-5.382-1.536,12.315-15.695,16.249-16.511c-2.868,0.264-12.233,0.844-23.388,1.433c-15.073,0.784,6.356-11.115,6.356-11.115
		s-8.72,0-20.634-0.799c-11.914-0.782-4.759-15.061-4.759-15.061s-8.736,3.962-22.218,13.48
		c-13.479,9.519-11.914-11.116-11.914-11.116s-11.099,7.954-17.455,13.496c-6.343,5.559-7.142-11.898-7.142-11.898
		s-7.135,16.672-9.515,23.013c-2.383,6.342-10.32,7.139-11.917,16.658c-1.581,9.52,4.759,10.318-2.376,23.016
		c-3.84,6.827-6.715,6.517-8.348,5.29c2.529,2.619,7.787,5.245,9.143,11.384C430.042,418.64,413.369,416.262,413.369,416.262z
		 M519.705,459.909c0.831-2.218,0.215-0.263-0.235,2.324C519.333,461.629,519.327,460.918,519.705,459.909z M499.071,389.902
		c12.077-2.426,24.31,5.513,24.31,5.513s-24.764,1.611-31.586,9.127C487.894,408.819,486.991,392.326,499.071,389.902z
		 M472.049,377.068c9.851,7.773,7.5,22.926,4.339,19.355c-2.23-2.53-20.774-23.571-20.774-23.571S462.198,369.296,472.049,377.068z
		 M459.186,432.276l-1.884-11.062c0,0,15.848,0.89,22.879-9.684c0,0-0.87,12.321,20.246,18.483
		c-5.274,9.684-23.769,29.054-26.39,32.578c-1.434,1.897-4.084,1.724-6.278,1.182c-2.269,0.426-5.959,0.067-11.331-3.833
		C449.766,455.089,455.157,440.804,459.186,432.276z"/>
	<path fill="#276599" d="M553.038,353.57c-0.091,0-0.31,0.125-0.427,0.149C553.625,353.627,553.866,353.57,553.038,353.57z"/>
	<path fill="#276599" d="M419.301,400.117c-0.421-0.434-0.949-0.865-1.173-1.314C417.397,397.333,417.893,399.06,419.301,400.117z"
		/>
	<path fill="#FFFFFF" d="M491.796,404.542c6.822-7.516,31.586-9.127,31.586-9.127s-12.233-7.939-24.31-5.513
		C486.991,392.326,487.894,408.819,491.796,404.542z"/>
	<path fill="#FFFFFF" d="M472.049,377.068c-9.851-7.772-16.435-4.216-16.435-4.216s18.544,21.041,20.774,23.571
		C479.549,399.994,481.899,384.841,472.049,377.068z"/>
	<path fill="#FFFFFF" d="M494.267,430.884l-23.753,31.707c0,0-0.929,0.839-2.754,1.182c2.194,0.542,4.844,0.715,6.278-1.182
		c2.621-3.524,21.116-22.894,26.39-32.578c-21.116-6.162-20.246-18.483-20.246-18.483c-7.031,10.574-22.879,9.684-22.879,9.684
		l1.884,11.062c1.829-3.865,3.403-6.663,3.403-6.663C477.531,423.85,494.267,430.884,494.267,430.884z"/>
	<path fill="#D3223D" d="M467.759,463.773c1.825-0.343,2.754-1.182,2.754-1.182l23.753-31.707c0,0-16.735-7.034-31.677-5.271
		c0,0-1.574,2.798-3.403,6.663c-4.029,8.528-9.42,22.813-2.758,27.664C461.8,463.84,465.49,464.199,467.759,463.773z"/>
	<path fill="#D3223D" d="M628.919,500.426c0,0-21.119,7.049-21.119,10.558c0,3.525,7.034,0.889,8.798,1.763
		C616.598,512.747,621.885,508.348,628.919,500.426z"/>
	<path fill="#D3223D" d="M650.052,485.469c0,0-4.401-7.923-11.448-6.174c-7.047,1.76-4.401,11.446-4.401,11.446l7.484-2.49
		c1.366-0.806,3.351-1.618,5.825-1.938L650.052,485.469z"/>
	<path fill="#D3223D" d="M635.08,526.646l-3.524-0.706c0,0-6.148,16.733-1.767,16.733c4.414,0,19.375-13.208,19.375-13.208
		l-1.177-0.235l-12.908,1.123V526.646z"/>
	<path fill="#D3223D" d="M330.045,522.597c0.476-0.958,1.085-2.657,1.591-4.511c-0.619-1.1-1.092-1.815-1.092-1.815
		s-14.085,3.509-9.688,8.796c4.417,5.286,7.924,8.811,12.335,5.286c0.802-0.641,1.131-1.56,1.284-2.561
		C331.91,527.045,328.794,525.09,330.045,522.597z"/>
	<path fill="#D3223D" d="M297.977,494.265c6.252,3.976,10.085,6.707,12.172,8.249l8.781-12.45L297.977,494.265z"/>
	<path fill="#D3223D" d="M333.276,476.662c1.066-1.705,1.428-4.408-0.971-8.799c-2.611-4.782-2.637,10.689-2.637,11.321
		C330.234,477.713,331.349,476.726,333.276,476.662z"/>
	<path fill="#D3223D" d="M305.901,445.856c0,0-0.075-0.202-0.16-0.419c-4.12-0.37-5.848-1.405-5.848-1.405s0.007-3.665,1.522-6.825
		c-1.512-2.049-3.292-3.67-5.199-3.67c-5.274,0-4.401,4.396-4.401,7.032C291.816,443.221,305.901,445.856,305.901,445.856z"/>
	<path fill="#D3223D" d="M310.993,403.563c-0.349-0.869,1.418-0.782,4.019-0.271c-1.34-0.74-5.965-3.21-8.237-3.21
		c-2.637,0-7.034,3.525-7.921,6.162c-0.727,2.201,5.189,4.369,9.244,5.048C309.281,408.815,311.938,405.913,310.993,403.563z"/>
	<path fill="#D3223D" d="M346.611,393.202c0.606-2.327,1.206-4.849,1.539-7.202c0.874-6.16-6.161,0.89-9.684,4.414
		c-1.281,1.286-1.737,3.018-1.959,4.725C339.019,393.988,342.993,392.676,346.611,393.202z"/>
	<path fill="#D3223D" d="M792.808,516.135c-0.903,5.407,9.411,3.283,9.411,3.283s0.799-4.744,3.181-7.139
		C802.734,512.535,793.711,510.729,792.808,516.135z"/>
	<path fill="#D3223D" d="M798.262,540.053c1.61-1.605,1.597-3.422,1.698-5.338l-0.841-0.535c0,0-8.12,2.71-6.311,7.214
		c1.806,4.519,6.311,4.519,9.019,2.712c1.584-1.057,3.696-2.067,5.248-2.762C800.7,541.213,796.228,542.084,798.262,540.053z"/>
	<path fill="#D3223D" d="M818.895,543.232c0,0-0.828,7.184,3.674,8.089c4.521,0.904,6.327,1.807,7.233-2.712
		c0.323-1.613,0.502-3.025,0.636-4.285c-2.839,2.808-6.001,3.668-6.001,3.668S821.966,544.332,818.895,543.232z"/>
	<path fill="#276599" d="M305.741,445.437c3.885,0.348,9.89,0.107,18.746-2.202c18.257-4.76,36.495,6.357,62.703,23.813
		c26.178,17.472,30.937,29.371,30.937,29.371s-24.597,3.962-50.006,0.783c-25.396-3.177-26.178-19.836-34.112-20.634
		c-0.3-0.03-0.469,0.086-0.733,0.095c-1.926,0.064-3.041,1.051-3.608,2.521c-1.434,3.722,0.378,10.083,0.378,10.083l-11.115,0.797
		l-8.781,12.45l-0.74,1.046c0,0,15.878,6.341,20.637,5.542c3.325-0.548,2.761,4.684,1.591,8.984
		c-0.505,1.855-1.115,3.553-1.591,4.511c-1.252,2.493,1.865,4.448,4.43,5.194c0.704,0.205,1.398,0.363,1.91,0.363
		c2.383,0,9.534-9.517,25.396-10.317c15.875-0.799,22.215,6.355,23.812,10.317c1.581,3.963,49.993,15.078,93.64,16.675
		c43.65,1.581,103.957-35.727,126.97-57.943c23.016-22.217,52.386-37.294,75.402-35.713
		c40.472,40.486,149.973,37.293,149.973,37.293s2.376,3.179,0.812,11.915c-1.597,8.737-14.294,9.519-17.472,9.519
		c-3.162,0-7.139,0-9.518,2.379c-2.383,2.396-3.181,7.139-3.181,7.139s3.977,5.559,0,9.534c-1.949,1.951-2.158,3.903-2.259,5.762
		c-0.101,1.916-0.088,3.732-1.698,5.338c-2.034,2.032,2.438,1.16,8.814,1.291c3.605,0.073,7.804,0.457,11.82,1.888
		c3.071,1.1,5.541,4.76,5.541,4.76s3.162-0.86,6.001-3.668c2.08-2.057,3.987-5.127,4.332-9.826
		c0.782-11.102,7.921-12.7,18.241-18.241c10.317-5.559,35.713-19.054,42.069-24.611c6.34-5.542-5.561-21.418-5.561-21.418
		s-15.076,1.581-57.94,0.797c-42.838-0.797-61.092-19.053-67.449-34.927c45.247,14.294,83.323,21.431,100.792-2.38
		c17.459-23.812-15.089-44.433-39.683-46.03c-24.597-1.581-68.247-6.341-90.465-10.316c-22.218-3.962-35.709-22.218-23.812-26.976
		c11.898-4.759,26.191-7.156,26.191-7.156s0.782,8.738,15.079,14.294c14.277,5.559,43.65-4.76,43.65-4.76
		c-12.7,1.597-34.93-8.736-34.93-8.736s0,0,23.029,0.799c23.016,0.784,29.356-27.774,23.799-26.192
		c-11.898,16.674-33.333,7.152-33.333,7.152s10.32-7.152,19.835-11.912c9.534-4.744,1.601-16.658,1.601-16.658
		s-3.181,13.479-32.535,15.077c-29.373,1.582-26.195,15.875-26.195,15.875s-48.409,8.721-45.231,27.774
		c7.142,42.851,57.927,35.711,99.983,41.27c42.049,5.544,60.304,3.163,54.762,27.759c-5.554,24.611-68.244-2.366-126.188-19.039
		c-57.927-16.659-96.02,4.759-127.755,13.495c-31.752,8.72-46.828,16.659-46.828,16.659l-4.756,23.813
		c0,0-39.689,38.091-51.587,47.611c-11.901,9.518-16.66,10.317-33.333-1.583c-16.66-11.899-34.914-60.321-34.914-60.321
		s-28.574-7.939-46.03-18.24c-17.455-10.334-17.455-19.053-22.218-29.372c-1.47-3.179-3.866-4.428-6.448-4.802
		c-3.618-0.526-7.592,0.786-10.105,1.937c-1.509,0.692-2.497,1.283-2.497,1.283l0.795,12.699c0,0-13.006-4.494-19.793-5.829
		c-2.601-0.512-4.368-0.598-4.019,0.271c0.945,2.35-1.711,5.252-2.895,7.729c-0.812,1.697-0.949,3.201,1.31,4.169
		c5.561,2.38,3.178,15.875-3.175,17.472c-2.406,0.601-3.892,2.344-4.818,4.274c-1.516,3.159-1.522,6.825-1.522,6.825
		S301.621,445.067,305.741,445.437z"/>
	<path fill="#276599" d="M681.742,525.067c16.719,0.873,52.806-1.746,58.967-6.161c6.161-4.398,16.719-9.685,25.513-10.558
		c8.811-0.889,24.656-13.194,24.656-14.972c0-1.747-63.377,1.777-101.215-27.277c-2.65,0-12.335,2.635-12.335,2.635
		s-8.798,4.4,3.524,11.448c12.338,7.032,20.242,16.717,6.161,17.592c-14.082,0.888-22.006-7.049-31.69-10.56
		c-2.976-1.081-5.574-1.191-7.81-0.901c-2.474,0.319-4.459,1.132-5.825,1.938c-1.411,0.832-2.21,1.599-2.21,1.599
		s-8.707,8.496-10.558,10.575c-7.034,7.923-12.321,12.321-12.321,12.321l18.482,5.286v8.614v3.707l12.908-1.123l7.334-0.638
		C655.323,528.592,665.007,524.193,681.742,525.067z"/>
	<path fill="#276599" d="M545.567,591.446c-0.091,0-0.3,0.121-0.411,0.145C546.134,591.5,546.369,591.446,545.567,591.446z"/>
	<path fill="#276599" d="M545.156,591.591c-2.777,0.257-11.852,0.819-22.664,1.376c-14.626,0.753,5.783-10.664,5.783-10.664
		s-8.465,0-20.031-0.753c-11.585-0.755-5.079-14.399-5.079-14.399s-8.328,3.781-21.145,12.892
		c-12.833,9.114-11.823-10.633-11.823-10.633s-10.574,7.592-16.585,12.894c-6.04,5.331-7.197-11.371-7.197-11.371
		s-6.568,15.95-8.752,22.035c-2.171,6.115-9.867,6.883-11.223,16.071c-1.369,9.204,4.837,9.971-1.881,22.307
		c-3.599,6.595-6.405,6.351-8.032,5.176c2.533,2.543,7.68,5.107,9.13,11.06c1.688,6.989-14.701,4.656-14.701,4.656
		s0.078,3.884,10.245,6.219c10.167,2.336,4.984,15.589,4.984,15.589l-0.724,3.133c-5.3,8.6,3.331,10.181,3.39,13.313
		c0.059,3.148,6.356,3.947,6.431,7.879c0.075,3.931,3.282,7.079,10.349,7.079c7.047,0,4.863,7.109,1.066,12.652
		c-3.811,5.542,3.374,10.302,7.184,4.744c3.797-5.528,7.109,1.596,8.182,12.712c1.066,11.16,4.019,3.194,3.837-3.96
		c-0.179-7.14,5.378-4.775,7.096,0.784c1.734,5.573,7.259,6.37,9.518,2.38c2.246-3.978,6.161-4.76,8.42-7.939
		c2.275-3.178,4.609-3.976,7.725-4.775c3.12-0.782,1.434-4.729,2.82-10.286c1.402-5.531,6.265-0.784,14.672-7.095
		c0.544-0.409,0.821-0.681,1.219-1.016c1.275,0.411,3.817-1.325,8.674-7.643c15.695-20.395,4.521-5.515,6.464-16.495
		c1.956-10.935,4.153-14.82,4.153-14.82l7.686-3.118c0,0-4.759-23.285-0.29-27.925c4.489-4.624,0.557-6.161-7.334-10.015
		c-7.875-3.856,2.803-7.684,6.659-8.466c3.827-0.769-7.967-6.13-13.436-7.665C524.653,606.023,541.352,592.384,545.156,591.591z
		 M516.631,695.222c0.746-2.185,0.205-0.258-0.153,2.3C516.325,696.924,516.292,696.22,516.631,695.222z M467.485,614.113
		c9.805,7.514,7.908,22.246,4.746,18.767c-2.246-2.455-20.862-22.85-20.862-22.85S457.71,606.597,467.485,614.113z M471.625,697.87
		c-1.35,1.88-3.964,1.711-6.141,1.175c-2.23,0.428-5.88,0.077-11.285-3.794c-6.689-4.803-1.705-18.906,2.063-27.305l-2.109-10.846
		c0,0,15.562,0.859,22.188-9.489c0,0-0.528,12.065,20.379,18.12C491.809,675.234,474.158,694.378,471.625,697.87z M487.503,640.803
		c-3.674,4.156-5.033-11.9,6.702-14.25c11.718-2.349,23.903,5.347,23.903,5.347S493.98,633.468,487.503,640.803z"/>
	<path fill="#276599" d="M416.527,636.52c-0.434-0.436-0.968-0.869-1.203-1.32C414.571,633.759,415.103,635.493,416.527,636.52z"/>
	<path fill="#FFFFFF" d="M494.205,626.553c-11.735,2.35-10.375,18.406-6.702,14.25c6.477-7.335,30.605-8.903,30.605-8.903
		S505.923,624.205,494.205,626.553z"/>
	<path fill="#FFFFFF" d="M467.485,614.113c-9.776-7.517-16.116-4.083-16.116-4.083s18.616,20.395,20.862,22.85
		C475.393,636.36,477.29,621.628,467.485,614.113z"/>
	<path fill="#FFFFFF" d="M476.342,647.611c-6.627,10.348-22.188,9.489-22.188,9.489l2.109,10.846
		c1.702-3.793,3.178-6.538,3.178-6.538c14.626-1.732,31.254,5.181,31.254,5.181l-22.531,31.281c0,0-0.893,0.832-2.679,1.175
		c2.177,0.536,4.792,0.705,6.141-1.175c2.533-3.493,20.184-22.636,25.096-32.139C475.814,659.676,476.342,647.611,476.342,647.611z"
		/>
	<path fill="#D3223D" d="M490.694,666.589c0,0-16.627-6.913-31.254-5.181c0,0-1.477,2.745-3.178,6.538
		c-3.768,8.399-8.752,22.502-2.063,27.305c5.404,3.871,9.055,4.222,11.285,3.794c1.786-0.343,2.679-1.175,2.679-1.175
		L490.694,666.589z"/>
	<path fill="#D3223D" d="M626.357,735.602c0,0-20.634,7.078-20.467,10.602c0.163,3.555,7.034,0.905,8.824,1.793
		C614.714,747.997,619.747,743.554,626.357,735.602z"/>
	<path fill="#D3223D" d="M646.538,720.631c0,0-4.756-7.893-11.64-6.145c-6.868,1.747-3.781,11.417-3.781,11.417l7.37-2.52
		c1.291-0.785,3.168-1.563,5.519-1.886L646.538,720.631z"/>
	<path fill="#D3223D" d="M633.793,762.013l-3.546-0.715c0,0-5.32,16.944-0.919,16.944c4.397,0,18.645-13.374,18.645-13.374
		l-1.242-0.25l-12.748,1.138L633.793,762.013z"/>
	<path fill="#D3223D" d="M329.879,757.924c0.473-0.972,1.066-2.688,1.561-4.559c-0.623-1.108-1.095-1.829-1.095-1.829
		s-14.003,3.526-9.609,8.872c4.414,5.347,7.954,8.901,12.308,5.347c0.802-0.65,1.125-1.582,1.271-2.598
		C331.76,762.403,328.654,760.436,329.879,757.924z"/>
	<path fill="#D3223D" d="M297.931,729.427c6.203,3.986,10.014,6.727,12.087,8.274l8.671-12.461L297.931,729.427z"/>
	<path fill="#D3223D" d="M332.823,711.856c1.04-1.698,1.382-4.39-1.017-8.757c-2.617-4.766-2.546,10.755-2.543,11.292
		C329.814,712.915,330.909,711.92,332.823,711.856z"/>
	<path fill="#D3223D" d="M301.25,672.789c-1.486-2.015-3.237-3.609-5.108-3.609c-5.18,0-4.326,4.336-4.326,6.928
		c0,2.607,13.86,5.211,13.86,5.211s-0.075-0.199-0.156-0.412c-4.058-0.367-5.763-1.395-5.763-1.395S299.757,675.899,301.25,672.789z
		"/>
	<path fill="#D3223D" d="M310.585,639.839c-0.346-0.846,1.392-0.758,3.954-0.254c-1.242-0.681-5.848-3.136-8.081-3.136
		c-2.588,0-6.897,3.419-7.742,5.995c-0.727,2.152,5.082,4.273,9.055,4.936C308.926,644.962,311.514,642.133,310.585,639.839z"/>
	<path fill="#D3223D" d="M345.346,629.756c0.574-2.263,1.138-4.714,1.447-6.998c0.815-5.964-6.011,0.86-9.414,4.279
		c-1.248,1.249-1.685,2.936-1.891,4.598C337.937,630.517,341.809,629.246,345.346,629.756z"/>
	<path fill="#D3223D" d="M790.142,751.403c-0.495,5.452,9.626,3.296,9.626,3.296s0.42-4.788,2.617-7.183
		C799.748,747.773,790.654,745.949,790.142,751.403z"/>
	<path fill="#D3223D" d="M797.355,775.576c1.486-1.629,1.333-3.47,1.294-5.41l-0.874-0.539c0,0-7.892,2.741-5.75,7.319
		c2.122,4.581,6.627,4.581,9.202,2.743c1.503-1.069,3.547-2.098,5.046-2.804C799.885,776.75,795.478,777.637,797.355,775.576z"/>
	<path fill="#D3223D" d="M824.12,783.65c0,0-2.754-3.735-5.92-4.851c0,0-0.254,7.307,4.326,8.225
		c4.577,0.933,6.444,1.838,6.985-2.741c0.192-1.637,0.264-3.067,0.297-4.344C827.201,782.778,824.12,783.65,824.12,783.65z"/>
	<path fill="#276599" d="M310.018,737.701l-0.73,1.05c0,0,15.786,6.37,20.516,5.573c3.302-0.558,2.777,4.706,1.636,9.042
		c-0.495,1.871-1.089,3.586-1.561,4.559c-1.226,2.512,1.881,4.479,4.436,5.234c0.711,0.209,1.408,0.368,1.92,0.368
		c2.363,0,9.414-9.609,25.2-10.408c15.783-0.798,22.185,6.401,23.825,10.408c1.627,4.008,50.143,15.272,93.777,16.884
		c43.65,1.611,102.314-36.088,124.154-58.365c21.706-22.11,49.899-37.052,72.658-35.471
		c42.402,40.245,150.684,37.067,150.684,37.067s2.618,3.178,1.731,11.914c-0.874,8.781-13.436,9.564-16.598,9.564
		c-3.136,0-7.08,0-9.28,2.397c-2.197,2.395-2.617,7.183-2.617,7.183s4.368,5.634,0.704,9.64c-1.793,1.973-1.858,3.946-1.822,5.827
		c0.039,1.94,0.192,3.781-1.294,5.41c-1.878,2.061,2.53,1.174,8.918,1.309c3.602,0.076,7.817,0.465,11.927,1.914
		c3.165,1.116,5.92,4.851,5.92,4.851s3.08-0.873,5.688-3.711c1.917-2.087,3.582-5.206,3.546-9.981
		c-0.108-11.25,6.881-12.847,16.689-18.45c9.785-5.588,33.858-19.128,39.67-24.687c5.799-5.557-7.364-21.372-7.364-21.372
		s-14.76,1.581-57.178,0.781c-42.398-0.781-61.692-18.871-69.026-34.519c45.531,14.081,83.623,21.148,98.878-2.351
		c15.154-23.315-18.342-43.423-42.49-44.959c-24.125-1.537-67.038-6.16-88.953-9.987c-21.885-3.841-36.088-21.448-24.793-26.011
		c11.265-4.563,24.975-6.853,24.975-6.853s1.323,8.372,15.542,13.705c14.264,5.363,42.098-4.564,42.098-4.564
		c-12.23,1.522-34.49-8.389-34.49-8.389s0,0,22.365,0.768c22.397,0.752,26.478-26.511,21.237-25.004
		c-10.346,15.891-31.749,6.793-31.749,6.793s9.489-6.793,18.375-11.312c8.856-4.518,0.362-15.8,0.362-15.8
		s-2.125,12.774-30.364,14.28c-28.258,1.508-24.31,15.122-24.31,15.122s-46.362,8.33-42.219,26.584
		c9.398,41.466,58.592,34.523,100.055,39.914c41.557,5.407,59.225,3.087,55.73,27.142c-3.511,24.204-67.146-2.336-125.014-18.634
		c-57.565-16.221-93.761,4.64-124.47,13.18c-30.804,8.571-45.309,16.374-45.309,16.374l-3.824,23.511
		c0,0-38.004,37.955-49.524,47.506c-11.569,9.593-16.282,10.391-33.154-1.583c-16.79-11.944-35.814-60.051-35.814-60.051
		s-28.242-7.834-45.518-17.97c-17.247-10.107-17.322-18.647-22.097-28.709c-1.457-3.085-3.804-4.297-6.327-4.66
		c-3.537-0.51-7.409,0.761-9.857,1.878c-1.47,0.672-2.432,1.247-2.432,1.247l0.844,12.379c0,0-12.709-4.366-19.362-5.675
		c-2.562-0.504-4.299-0.592-3.954,0.254c0.929,2.294-1.659,5.122-2.813,7.54c-0.792,1.662-0.929,3.136,1.294,4.088
		c5.45,2.32,3.146,15.544-3.074,17.123c-2.37,0.588-3.833,2.3-4.743,4.198c-1.493,3.111-1.493,6.722-1.493,6.722
		s1.705,1.028,5.763,1.395c3.827,0.347,9.737,0.11,18.44-2.177c17.925-4.684,36,6.266,62.025,23.572
		c26.178,17.38,31.104,29.295,31.104,29.295s-24.34,3.96-49.569,0.784c-25.23-3.179-26.133-19.822-33.979-20.62
		c-0.293-0.029-0.46,0.086-0.717,0.095c-1.913,0.064-3.009,1.059-3.56,2.535c-1.389,3.719,0.437,10.049,0.437,10.049l-11.011,0.799
		L310.018,737.701z"/>
	<path fill="#276599" d="M680.174,760.409c16.719,0.889,52.477-1.761,58.335-6.22c5.831-4.429,15.982-9.746,24.656-10.635
		c8.69-0.874,23.528-13.238,23.408-15.001c-0.137-1.763-62.719,1.763-101.926-27.202c-2.621,0-12.018,2.637-12.018,2.637
		s-8.449,4.367,4.11,11.37c12.608,7.02,21.028,16.719,7.109,17.608c-13.915,0.875-22.215-7.064-31.99-10.587
		c-3.038-1.088-5.639-1.186-7.852-0.882c-2.35,0.323-4.228,1.101-5.519,1.886c-1.402,0.852-2.171,1.646-2.171,1.646
		s-8.224,8.495-9.958,10.573c-6.611,7.952-11.643,12.395-11.643,12.395l18.648,5.318l0.43,8.698l0.189,3.744l12.748-1.138
		l7.341-0.655C654.071,763.963,663.472,759.52,680.174,760.409z"/>
	<path fill="#276599" d="M555.401,828.925c-0.068,0.002-0.218,0.1-0.303,0.12C555.874,828.949,556.05,828.902,555.401,828.925z"/>
	<path fill="#276599" d="M451.94,869.208c-0.44-0.368-0.952-0.731-1.203-1.121C449.965,866.899,450.581,868.421,451.94,869.208z"/>
	<path fill="#276599" d="M562.602,885.364c0,0-6.747-18.933-3.556-22.849c3.165-3.887-0.271-5.002-7.259-7.834
		c-6.959-2.845,1.444-6.235,4.534-6.973c3.058-0.738-7.272-4.638-11.943-5.708c-4.528-0.997,7.716-12.25,10.721-12.956
		c-2.226,0.276-9.606,0.975-18.437,1.733c-11.924,1.01,3.618-8.481,3.618-8.481s-6.93,0.227-16.481-0.029
		c-9.564-0.272-5.571-11.01-5.571-11.01s-6.444,3.132-16.116,10.558c-9.776,7.516-10.679-7.923-10.679-7.923
		s-8.061,6.175-12.592,10.498c-4.596,4.369-6.884-8.676-6.884-8.676s-4.185,12.668-5.525,17.548
		c-1.356,4.909-7.758,5.768-8.211,13.163c-0.45,7.471,4.85,7.908,0.091,18.164c-2.523,5.455-4.893,5.475-6.373,4.616
		c2.383,1.992,6.894,3.942,8.57,8.759c2.005,5.769-12.276,4.414-12.276,4.414s0.349,3.27,9.28,4.836
		c8.948,1.594,5.528,12.996,5.528,12.996l-0.375,2.681c-3.947,7.592,3.719,8.586,4.019,11.296c0.316,2.727,5.858,3.149,6.265,6.554
		c0.407,3.403,3.478,6.024,9.655,5.737c6.157-0.284,4.912,6.012,2.063,11.041c-2.846,5.062,3.931,8.978,6.764,3.885
		c2.816-5.06,6.399,1.084,8.42,10.935c2.047,9.972,3.856,2.65,2.996-3.718c-0.87-6.328,4.247-4.476,6.311,0.391
		c2.096,4.878,7.051,5.346,8.615,1.702c1.555-3.645,4.896-4.521,6.539-7.412c1.643-2.907,3.586-3.705,6.206-4.549
		c2.621-0.83,0.724-4.202,1.323-9.098c0.587-4.879,5.316-0.949,11.868-6.763c0.394-0.353,0.58-0.581,0.87-0.871
		c1.138,0.33,3.133-1.271,6.617-6.976c10.891-17.863,3.191-4.865,3.54-14.249c0.375-9.247,1.777-12.562,1.777-12.562
		L562.602,885.364z M479.292,846.457c0,0,5.004-2.952,13.86,2.772c8.899,5.739,8.69,17.773,5.678,15.047
		C496.721,862.332,479.292,846.457,479.292,846.457z M504.554,918.831c-0.997,1.68-3.279,1.645-5.219,1.273
		c-1.887,0.467-5.092,0.321-10.177-2.825c-6.259-3.885-3.191-16.13-0.694-23.392l-2.771-9.006c0,0,13.361,0.166,18.016-8.66
		c0,0,0.707,10.047,19.115,14.339C519.63,898.723,506.373,915.727,504.554,918.831z M512.475,870.24
		c-2.683,3.542-5.391-9.548,4.218-11.837c9.548-2.274,20.542,3.555,20.542,3.555S517.205,864.036,512.475,870.24z M543.034,914.75
		c0.385-1.875,0.147-0.224,0.121,1.974C542.959,916.218,542.855,915.616,543.034,914.75z"/>
	<path fill="#FFFFFF" d="M516.693,858.402c-9.609,2.289-6.901,15.379-4.218,11.837c4.73-6.204,24.76-8.283,24.76-8.283
		S526.24,856.128,516.693,858.402z"/>
	<path fill="#FFFFFF" d="M493.152,849.229c-8.856-5.724-13.86-2.772-13.86-2.772s17.429,15.875,19.538,17.819
		C501.842,867.002,502.051,854.967,493.152,849.229z"/>
	<path fill="#FFFFFF" d="M503.71,876.22c-4.655,8.826-18.016,8.66-18.016,8.66l2.771,9.006c1.115-3.241,2.125-5.588,2.125-5.588
		c12.351-1.971,27.185,3.209,27.185,3.209l-16.249,27.473c0,0-0.688,0.75-2.19,1.122c1.94,0.372,4.221,0.407,5.219-1.273
		c1.819-3.103,15.076-20.108,18.27-28.271C504.417,886.267,503.71,876.22,503.71,876.22z"/>
	<path fill="#D3223D" d="M501.526,918.981l16.249-27.473c0,0-14.835-5.18-27.185-3.209c0,0-1.01,2.347-2.125,5.588
		c-2.497,7.263-5.564,19.507,0.694,23.392c5.085,3.146,8.289,3.291,10.177,2.825C500.838,919.732,501.526,918.981,501.526,918.981z"
		/>
	<path fill="#D3223D" d="M626.357,955.372c0.678,3.116,6.177,0.481,7.846,1.173c0,0,3.618-4.142,7.999-11.401
		C642.203,945.143,625.663,952.253,626.357,955.372z"/>
	<path fill="#D3223D" d="M656.874,931.317c0,0-5.287-6.582-10.786-4.82c-5.512,1.792-1.369,10.001-1.369,10.001l5.75-2.45
		c0.978-0.756,2.481-1.543,4.498-1.917L656.874,931.317z"/>
	<path fill="#D3223D" d="M652.803,968.144l-3.142-0.469c0,0-1.825,15.484,1.972,15.273c3.811-0.196,13.811-12.923,13.811-12.923
		l-1.066-0.158l-10.802,1.604L652.803,968.144z"/>
	<path fill="#D3223D" d="M382.444,978.898c0.394-0.92,0.861-2.533,1.222-4.285c-0.619-0.994-1.085-1.635-1.085-1.635
		s-12.696,3.944-8.42,8.703c4.309,4.762,7.729,7.924,11.585,4.354c0.704-0.647,0.955-1.533,1.04-2.489
		C384.4,982.977,381.444,981.305,382.444,978.898z"/>
	<path fill="#D3223D" d="M352.051,954.256c5.796,3.334,9.375,5.658,11.334,6.981l7.419-11.709L352.051,954.256z"/>
	<path fill="#D3223D" d="M382.995,936.9c0.861-1.553,1.046-3.954-1.301-7.722c-2.565-4.086-1.809,9.661-1.783,10.129
		C380.342,937.97,381.284,937.039,382.995,936.9z"/>
	<path fill="#D3223D" d="M357.316,910.82c-3.651-0.155-5.219-0.982-5.219-0.982s-0.114-3.138,1.121-5.889
		c-1.389-1.678-2.999-2.983-4.661-2.907c-4.609,0.196-3.723,3.9-3.661,6.144c0.091,2.261,12.563,3.963,12.563,3.963
		S357.387,910.98,357.316,910.82z"/>
	<path fill="#D3223D" d="M360.35,875.572c-0.329-0.693,1.186-0.682,3.439-0.353c-1.151-0.548-5.228-2.421-7.174-2.344
		c-2.259,0.09-5.92,3.119-6.598,5.303c-0.577,1.829,4.612,3.41,8.126,3.827C359.076,879.928,361.24,877.461,360.35,875.572z"/>
	<path fill="#D3223D" d="M390.215,865.983c0.388-1.89,0.76-3.935,0.922-5.834c0.421-4.909-5.154,0.919-7.94,3.841
		c-1.024,1.074-1.33,2.484-1.438,3.868C383.83,866.854,387.125,865.68,390.215,865.983z"/>
	<path fill="#D3223D" d="M791.648,947.901c-2.109,0.329-10.004-0.86-9.235,3.87c0.769,4.774,8.664,2.455,8.664,2.455
		S790.367,950.053,791.648,947.901z"/>
	<path fill="#D3223D" d="M793.711,972.632c0.874-1.509,0.336-3.125-0.13-4.835l-0.847-0.437c0,0-5.965,2.772-3.162,6.717
		c2.8,3.961,6.549,3.767,8.279,2.003c1.007-1.015,2.474-2.015,3.563-2.708C796.068,973.55,792.603,974.539,793.711,972.632z"/>
	<path fill="#D3223D" d="M817.797,978.52c0,0-3.149-3.162-6.027-4.005c0,0,1.46,6.492,5.499,7.108
		c4.006,0.603,5.783,1.326,5.15-2.787c-0.225-1.455-0.505-2.721-0.779-3.85C820.147,977.607,817.797,978.52,817.797,978.52z"/>
	<path fill="#276599" d="M352.097,909.838c0,0,1.568,0.827,5.219,0.982c3.423,0.146,8.667-0.298,16.318-2.622
		c15.679-4.744,32.186,3.991,56.271,18.012c24.431,14.19,29.748,24.597,29.748,24.597s-21.448,4.669-44.341,2.954
		c-22.941-1.733-24.581-16.601-31.677-16.977c-0.261-0.013-0.407,0.097-0.639,0.116c-1.711,0.139-2.653,1.07-3.084,2.407
		c-1.095,3.388,0.831,9.001,0.831,9.001l-9.939,1.219l-7.419,11.709l-0.626,0.988c0,0,14.701,5.106,18.994,4.157
		c2.983-0.672,2.758,4.189,1.913,8.233c-0.362,1.752-0.828,3.365-1.222,4.285c-1.001,2.406,1.956,4.079,4.342,4.649
		c0.658,0.158,1.307,0.271,1.777,0.244c2.184-0.105,8.149-9.369,22.485-10.86c14.294-1.49,20.588,4.82,22.351,8.451
		c1.776,3.645,46.708,11.689,86.169,10.98c39.148-0.692,85.403-37.564,100.873-58.034c15.001-19.821,36.146-33.467,55.215-32.986
		c42.248,32.31,130.406,25.2,130.406,25.2s2.833,2.561,4.081,10.016c1.265,7.531-8.824,8.735-11.419,8.871
		c-2.575,0.136-5.809,0.302-7.077,2.472c-1.281,2.152-0.57,6.325-0.57,6.325s4.831,4.714,2.725,8.359
		c-1.053,1.821-0.668,3.56-0.222,5.212c0.466,1.71,1.004,3.326,0.13,4.835c-1.108,1.907,2.357,0.918,7.703,0.741
		c3.012-0.1,6.611,0.05,10.356,1.142c2.878,0.843,6.027,4.005,6.027,4.005s2.35-0.913,3.843-3.534
		c1.099-1.927,1.747-4.752,0.583-8.951c-2.712-9.805,2.637-11.491,9.339-16.749c6.627-5.213,22.788-17.697,26.103-22.608
		c3.266-4.864-11.011-17.456-11.011-17.456s-11.386,1.852-45.547,2.816c-34.448,0.965-53.729-13.3-62.686-25.847
		c39.429,9.851,71.435,14.248,78.32-5.332c6.689-19.023-23.721-33.678-42.851-34.131c-19.219-0.481-53.905-2.784-71.937-5.104
		c-18.042-2.336-32.186-15.56-23.975-19.37c8.133-3.796,18.508-5.904,18.508-5.904s2.441,6.34,14.535,10.014
		c12.155,3.705,32.052-4.638,32.052-4.638c-9.231,1.491-28.359-5.422-28.359-5.422s0,0,17.547-0.031
		c17.469-0.015,15.509-20.453,11.777-19.218c-5.03,12.079-23.196,5.844-23.196,5.844s6.115-5.3,12.126-8.839
		c5.962-3.541-2.546-11.584-2.546-11.584s0.662,9.398-20.784,11.177c-21.602,1.822-16.298,11.867-16.298,11.867
		s-35.035,7.487-28.92,21.329c14.202,32.172,52.37,25.124,86.228,28.076c33.799,2.952,47.128,0.573,49.54,19.7
		c2.455,19.656-53.801,0.393-103.174-10.738c-49.071-11.071-75.49,6.839-99.68,14.851c-24.581,8.147-35.833,15.182-35.833,15.182
		l-0.404,20.003c0,0-28.346,34.612-37.431,43.648c-9.186,9.16-13.283,10.107-29.415,0.077
		c-15.995-9.911-36.648-51.166-36.648-51.166s-25.181-5.588-40.905-13.569c-15.62-7.923-16.132-15.078-20.754-23.286
		c-1.418-2.502-3.517-3.425-5.727-3.641c-3.09-0.302-6.386,0.871-8.456,1.875c-1.255,0.607-2.07,1.118-2.07,1.118l1.297,10.317
		c0,0-11.324-3.214-17.198-4.073c-2.252-0.329-3.768-0.341-3.439,0.353c0.89,1.889-1.275,4.356-2.207,6.433
		c-0.645,1.436-0.714,2.691,1.288,3.418c4.88,1.763,3.328,13.136-2.138,14.731c-2.076,0.597-3.322,2.125-4.075,3.794
		C351.983,906.7,352.097,909.838,352.097,909.838z"/>
	<path fill="#276599" d="M675.911,916.045c0,0-6.294,4.053,5.378,9.517c11.748,5.483,20.529,13.466,9.039,14.822
		c-11.552,1.339-19.884-5.183-28.695-7.788c-2.689-0.806-4.867-0.8-6.666-0.467c-2.018,0.373-3.52,1.16-4.498,1.917
		c-1.007,0.777-1.519,1.473-1.519,1.473s-5.603,7.726-6.747,9.623c-4.381,7.259-7.999,11.401-7.999,11.401l16.813,3.872l1.786,7.728
		l0.773,3.327l10.802-1.604l6.141-0.912c0,0,7.246-4.396,21.615-4.367c14.323,0.015,43.95-3.945,47.956-8.104
		c3.977-4.127,11.344-9.204,18.362-10.331c7.002-1.13,16.598-12.335,16.132-13.827c-0.486-1.506-51.362,4.081-89.138-18.948
		C683.277,913.483,675.911,916.045,675.911,916.045z"/>
	<g>
		<path fill="#FFFFFF" d="M350.144,149.61h-35.374v22.818h39.507v17.824h-61.321V94.131h59.326v17.824h-37.512v19.975h35.374V149.61
			z"/>
		<path fill="#FFFFFF" d="M369.089,190.251V94.131h25.386l19.962,35.23c5.698,10.118,11.409,22.1,15.685,32.936h0.43
			c-1.421-12.687-1.852-25.66-1.852-40.068V94.131h19.962v96.121h-22.818l-20.536-37.082c-5.698-10.261-11.982-22.674-16.689-33.939
			l-0.43,0.143c0.574,12.7,0.861,26.247,0.861,41.932v28.946H369.089z"/>
		<path fill="#FFFFFF" d="M547.744,185.831c-6.702,2.282-19.401,5.424-32.088,5.424c-17.55,0-30.237-4.42-39.077-12.986
			c-8.84-8.266-13.691-20.823-13.547-34.93c0.143-31.945,23.391-50.199,54.906-50.199c12.4,0,21.957,2.425,26.664,4.694
			l-4.563,17.407c-5.281-2.282-11.839-4.133-22.387-4.133c-18.111,0-31.801,10.261-31.801,31.084
			c0,19.819,12.4,31.514,30.237,31.514c4.981,0,8.984-0.561,10.692-1.421v-20.106H511.94v-16.976h35.804V185.831z"/>
		<path fill="#FFFFFF" d="M564.682,94.131h21.814v77.867h38.229v18.254h-60.043V94.131z"/>
		<path fill="#FFFFFF" d="M660.763,165.582l-6.845,24.669h-22.531l29.376-96.121h28.528l29.793,96.121h-23.378l-7.419-24.669
			H660.763z M685.145,149.323l-5.985-20.392c-1.708-5.711-3.416-12.843-4.85-18.541h-0.287c-1.421,5.698-2.842,12.973-4.42,18.541
			l-5.698,20.392H685.145z"/>
		<path fill="#FFFFFF" d="M731.902,190.251V94.131h25.386l19.962,35.23c5.698,10.118,11.409,22.1,15.685,32.936h0.43
			c-1.421-12.687-1.851-25.66-1.851-40.068V94.131h19.962v96.121h-22.818l-20.536-37.082c-5.698-10.261-11.982-22.674-16.689-33.939
			l-0.43,0.143c0.574,12.7,0.861,26.247,0.861,41.932v28.946H731.902z"/>
		<path fill="#FFFFFF" d="M830.265,95.422c7.98-1.291,18.398-2.008,29.376-2.008c18.254,0,30.093,3.286,39.364,10.274
			c9.974,7.419,16.259,19.258,16.259,36.221c0,18.397-6.702,31.084-15.972,38.933c-10.131,8.41-25.53,12.413-44.357,12.413
			c-11.265,0-19.258-0.717-24.669-1.434V95.422z M852.078,173.849c1.852,0.43,4.85,0.43,7.562,0.43
			c19.675,0.143,32.518-10.692,32.518-33.653c0.143-19.975-11.552-30.523-30.237-30.523c-4.85,0-7.993,0.43-9.844,0.861V173.849z"/>
	</g>
</g>
</svg>
