<?xml version="1.0" encoding="utf-8"?>
<!-- Generator: Adobe Illustrator 24.0.3, SVG Export Plug-In . SVG Version: 6.00 Build 0)  -->
<svg version="1.1" id="Layer_1" xmlns="http://www.w3.org/2000/svg" xmlns:xlink="http://www.w3.org/1999/xlink" x="0px" y="0px"
	 viewBox="0 0 150 150" style="enable-background:new 0 0 150 150;" xml:space="preserve">
<style type="text/css">
	.st0{fill-rule:evenodd;clip-rule:evenodd;fill:#FFFFFF;}
	.st1{fill:#0052A0;}
	.st2{fill:#ED1A3D;}
</style>
<g>
	<rect x="0.4" y="36.1" class="st0" width="149.2" height="83.4"/>
	<path class="st1" d="M65.6,65.6l3.5-12.6H53.2l-4.6,16.4h11.9C62.9,69.5,65,67.9,65.6,65.6z"/>
	<path class="st1" d="M60.4,77.3l-11.8-7.8h-6.1l4.6-16.4H31.1l-14.1,50.2H33l6.3-22.6l5.2,3.4l-5.4,19.2h15.9l6.4-22.8
		C61.8,79.3,61.4,78,60.4,77.3z"/>
	<path class="st1" d="M118.6,103.3l6.4-22.8c0.4-1.2-0.1-2.5-1.1-3.2l-11.8-7.8l-9.5,33.8H118.6z"/>
	<path class="st1" d="M102,80L85.8,69.3l2-7h5.5l-2,7.3h11.6c2.4,0,4.5-1.6,5.1-3.9l3.5-12.6H76.9c-1.7,0-2.7,0.8-3.1,2l-5.2,18.5
		c-0.4,1.2,0,2.5,1,3.1l16.5,11l-1.8,6.4h-5.5L80,90l-13.5-9l-5.3,19.3c-0.5,1.9,0.5,2.9,2.4,2.9h31.2c1.7,0,2.7-0.8,3.1-2l5.2-18.1
		C103.4,81.9,103,80.6,102,80z"/>
	<path class="st2" d="M116.7,53.1l-4.6,16.4h12c2.4,0,4.5-1.6,5.1-3.9l3.5-12.6C132.7,53.1,116.7,53.1,116.7,53.1z"/>
</g>
</svg>
