<?xml version="1.0" encoding="UTF-8" standalone="no"?>
<svg
   xmlns:dc="http://purl.org/dc/elements/1.1/"
   xmlns:cc="http://creativecommons.org/ns#"
   xmlns:rdf="http://www.w3.org/1999/02/22-rdf-syntax-ns#"
   xmlns:svg="http://www.w3.org/2000/svg"
   xmlns="http://www.w3.org/2000/svg"
   xmlns:sodipodi="http://sodipodi.sourceforge.net/DTD/sodipodi-0.dtd"
   xmlns:inkscape="http://www.inkscape.org/namespaces/inkscape"
   version="1.1"
   id="svg5469"
   xml:space="preserve"
   width="545.26532"
   height="680.31622"
   viewBox="0 0 545.26532 680.31623"
   sodipodi:docname="Logo_Federazione_Italiana_Giuoco_Calcio_-_2021.svg"
   inkscape:version="1.0 (4035a4f, 2020-05-01)"><metadata
     id="metadata5475"><rdf:RDF><cc:Work
         rdf:about=""><dc:format>image/svg+xml</dc:format><dc:type
           rdf:resource="http://purl.org/dc/dcmitype/StillImage" /><dc:title /></cc:Work></rdf:RDF></metadata><defs
     id="defs5473" /><sodipodi:namedview
     inkscape:document-rotation="0"
     pagecolor="#ffffff"
     bordercolor="#666666"
     borderopacity="1"
     objecttolerance="10"
     gridtolerance="10"
     guidetolerance="10"
     inkscape:pageopacity="0"
     inkscape:pageshadow="2"
     inkscape:window-width="1439"
     inkscape:window-height="793"
     id="namedview5471"
     showgrid="false"
     fit-margin-top="0"
     fit-margin-left="0"
     fit-margin-right="0"
     fit-margin-bottom="0"
     inkscape:pagecheckerboard="true"
     inkscape:zoom="0.57270435"
     inkscape:cx="29.600064"
     inkscape:cy="501.01999"
     inkscape:window-x="0"
     inkscape:window-y="25"
     inkscape:window-maximized="1"
     inkscape:current-layer="g5477" /><g
     id="g5477"
     inkscape:groupmode="layer"
     inkscape:label="ink_ext_XXXXXX"
     transform="matrix(1.3333333,0,0,-1.3333333,0,680.31465)"><g
       id="g5479"
       transform="scale(0.1)"><path
         d="M 4074.42,2029.68 C 4074.42,908.719 3165.71,0 2044.75,0 923.785,0 15.0703,908.719 15.0703,2029.68 c 0,1120.96 908.7147,2029.68 2029.6797,2029.68 1120.96,0 2029.67,-908.72 2029.67,-2029.68"
         style="fill:#ffffff;fill-opacity:1;fill-rule:nonzero;stroke:none"
         id="path5481" /><path
         d="m 2617.05,4466.71 -249.08,-130.94 47.56,277.36 -201.51,196.42 278.49,40.46 124.54,252.35 124.54,-252.35 278.48,-40.46 -201.51,-196.42 47.57,-277.36 z m -1144.61,0 -249.08,-130.94 47.56,277.36 -201.5,196.42 278.48,40.46 124.54,252.35 124.54,-252.35 278.49,-40.46 -201.52,-196.42 47.58,-277.36 z M 403.023,3988.58 153.941,3857.63 201.512,4134.99 0,4331.41 l 278.484,40.47 124.539,252.34 124.543,-252.34 278.481,-40.47 -201.52,-196.42 47.575,-277.36 z m 3283.437,0 -249.07,-130.95 47.57,277.36 -201.52,196.42 278.48,40.47 124.54,252.34 124.54,-252.34 278.49,-40.47 -201.51,-196.42 47.56,-277.36 -249.08,130.95 v 0"
         style="fill:#0057b8;fill-opacity:1;fill-rule:evenodd;stroke:none"
         id="path5483" /><path
         d="m 3562.32,2029.68 c 0,392.58 -149.07,750.35 -393.7,1019.78 v 191.86 c 325.25,-301.83 528.86,-732.92 528.86,-1211.64 0,-478.72 -203.61,-909.8 -528.86,-1211.641 v 191.871 c 244.63,269.43 393.7,627.19 393.7,1019.77 z m -3292.425,0 c 0,-553.72 253.613,-1048.16 650.964,-1373.66 V 339.441 C 374.863,703.211 15.0586,1324.39 15.0586,2029.68 c 0,705.3 359.8044,1326.48 905.8084,1690.25 V 3403.34 C 523.508,3077.85 269.895,2583.4 269.895,2029.68 Z m 257.269,0 c 0,392.58 149.074,750.34 393.695,1019.78 v 191.86 C 595.613,2939.49 392.004,2508.4 392.004,2029.68 c 0,-478.71 203.613,-909.8 528.855,-1211.641 V 1009.91 C 676.242,1279.34 527.164,1637.1 527.164,2029.68 Z m 3547.266,0 c 0,705.3 -359.81,1326.48 -905.81,1690.25 V 3403.34 C 3565.98,3077.85 3819.6,2583.4 3819.6,2029.68 3819.6,1475.96 3565.98,981.52 3168.62,656.02 V 339.441 c 546,363.77 905.81,984.949 905.81,1690.239 v 0"
         style="fill:#0057b8;fill-opacity:1;fill-rule:evenodd;stroke:none"
         id="path5485" /><path
         d="m 2419.34,3639.76 v -874.69 h 603.17 v 597.09 c -177.4,130.4 -381.72,226.29 -603.17,277.6 z m 0,-2345.47 V 419.602 c 221.45,51.308 425.77,147.207 603.17,277.597 v 171.973 425.118 h -603.17 v 0"
         style="fill:#cd212a;fill-opacity:1;fill-rule:evenodd;stroke:none"
         id="path5487" /><path
         d="m 2044.74,4059.36 c -354.51,0 -687.74,-90.97 -977.76,-250.72 V 3807.02 3511 c 180.64,119.49 384.41,206.78 603.16,253.78 120.77,25.95 246.07,39.75 374.6,39.75 128.54,0 253.82,-13.79 374.6,-39.75 218.76,-47 422.52,-134.31 603.17,-253.79 v 296.02 1.62 c -290.02,159.76 -623.26,250.73 -977.77,250.73 z m 374.6,-3764.79 c -120.77,-25.949 -246.06,-39.738 -374.6,-39.738 -128.53,0 -253.82,13.789 -374.6,39.738 -218.76,47.008 -422.52,134.309 -603.16,253.789 V 252.34 250.73 C 1357,90.9805 1690.24,-0.0117188 2044.74,-0.0117188 c 354.51,0 687.75,90.9922188 977.77,250.7417188 v 1.61 296.019 C 2841.86,428.879 2638.09,341.578 2419.34,294.57 v 0"
         style="fill:#c5b783;fill-opacity:1;fill-rule:evenodd;stroke:none"
         id="path5489" /><path
         d="M 1066.98,1294.29 V 697.199 C 1244.37,566.809 1448.7,470.922 1670.14,419.602 V 558.738 1294.3 Z m 0,2067.87 v -597.09 h 603.16 v 874.69 c -221.44,-51.31 -425.76,-147.2 -603.16,-277.6 v 0"
         style="fill:#009246;fill-opacity:1;fill-rule:evenodd;stroke:none"
         id="path5491" /><path
         d="m 1432.72,2477.24 v 146.11 h -367.31 v 0 -146.11 0 -153.03 0 -146.11 0 -372.99 h 160.73 v 372.99 h 206.58 v 146.11 h -206.58 v 153.03 z m 947.83,-226.08 h -307.44 v -146.12 h 144.11 c -12.98,-88.49 -47.1,-149.86 -122.83,-149.86 -90.79,0 -129.62,115.98 -129.62,259.05 0,143.07 41.25,259.05 129.62,259.05 71.94,0 106.83,-58.15 121.17,-142.74 l 158.95,0.01 c -20.89,169.24 -95.73,292.81 -281.18,292.81 -196.26,0 -287.87,-183.18 -287.87,-409.13 0,-225.95 86.22,-409.12 287.87,-409.12 192.55,0 263.96,127.02 282.49,299.93 3.73,34.77 5.13,133.94 4.73,146.12 z m 482.64,-146.12 c -0.35,-2.42 -0.78,-4.74 -1.17,-7.12 h -0.49 c -13.45,-79.27 -44.94,-135.36 -108.09,-142.07 -4.22,-0.43 -8.56,-0.67 -13.07,-0.67 -88.38,0 -129.63,115.99 -129.63,259.05 0,143.07 41.25,259.06 129.63,259.06 4.51,0 8.86,-0.25 13.07,-0.67 63.15,-6.72 94.64,-62.79 108.09,-142.07 h 0.49 c 0.39,-2.39 0.82,-4.7 1.17,-7.12 1.29,-8.72 2.29,-17.79 3.16,-27.01 h 157.73 c -0.67,9.08 -1.35,18.16 -2.3,27.01 -18.54,172.92 -89.95,299.92 -282.5,299.92 -201.63,0 -287.86,-183.17 -287.86,-409.12 0,-225.95 86.22,-409.12 287.86,-409.12 192.56,0 263.97,127.01 282.5,299.92 0.76,7.08 1.25,14.4 1.84,21.63 h -157.78 c -0.77,-7.36 -1.62,-14.61 -2.65,-21.62 z M 1545.02,1805.1 h 160.72 v 818.25 h -160.72 v -818.25 0"
         style="fill:#0057b8;fill-opacity:1;fill-rule:evenodd;stroke:none"
         id="path5493" /><path
         d="m 2179.93,1441.05 v 227.8 l 45.09,-0.01 v -227.79 z m -396.69,0 v 185.98 h -40.8 v 41.81 h 126.59 v -41.81 h -40.69 v -185.98 z m 369.64,41.82 h -60.86 v 185.97 h -45.1 v -227.79 h 105.96 z m -232.64,41.59 18.41,85.24 19.28,-85.24 z m 56.56,-83.41 h 47.03 l -66.93,227.8 -35.69,-0.01 -65.1,-227.79 h 46.11 l 9.62,44.52 h 54.9 z m 332.55,83.41 18.41,85.24 19.29,-85.24 z m 56.56,-83.41 h 47.03 l -66.93,227.8 -35.69,-0.01 -65.1,-227.79 h 46.11 l 9.61,44.52 h 54.91 z m -689.37,0 v 227.8 l 45.1,-0.01 v -227.79 h -45.1 v 0"
         style="fill:#c5b783;fill-opacity:1;fill-rule:evenodd;stroke:none"
         id="path5495" /></g></g></svg>
