<svg width="386" height="422" viewBox="0 0 386 422" fill="none" xmlns="http://www.w3.org/2000/svg">
<g clip-path="url(#clip0_1344_32610)">
<path d="M116.79 388.66H115.71V414.39C115.71 414.75 115.63 414.9 115.35 414.9H114.91C114.791 414.898 114.675 414.863 114.574 414.8C114.474 414.736 114.393 414.646 114.34 414.54L96.6998 391.54C96.3674 391.021 95.982 390.539 95.5498 390.1C95.2253 389.769 94.8628 389.476 94.4698 389.23C94.0433 389.004 93.579 388.858 93.0998 388.8C92.4787 388.736 91.854 388.713 91.2298 388.73H82.7998V421.85H89.8598V421.13C89.8598 420.98 89.9298 420.91 89.9298 420.77V396.07C89.9298 395.78 90.0698 395.64 90.2898 395.64H90.7198C90.8499 395.639 90.978 395.672 91.0918 395.735C91.2056 395.798 91.3013 395.889 91.3698 396L109.01 419C109.365 419.543 109.774 420.049 110.23 420.51C110.534 420.843 110.901 421.111 111.31 421.3C111.72 421.507 112.158 421.655 112.61 421.74C113.11 421.74 113.76 421.81 114.48 421.81H122.76V388.66H116.76H116.79Z" fill="white"/>
<path d="M59.26 413.79H69.48V421.79H76.54V388.66H59.26V395.21H69.48V406.73H59.26V413.79ZM41.98 392.19V421.78H48.98V413.78H59.21V406.72H49.03V395.21H59.26V388.66H45.51C44.5738 388.66 43.6759 389.032 43.0139 389.694C42.3519 390.356 41.98 391.254 41.98 392.19V392.19Z" fill="white"/>
<path d="M218.67 413.79H228.89V421.79H235.95V388.66H218.67V395.21H228.89V406.73H218.67V413.79ZM201.39 392.19V421.78H208.44V413.78H218.67V406.72H208.44V395.21H218.67V388.66H204.91C204.445 388.655 203.984 388.742 203.554 388.918C203.124 389.094 202.733 389.354 202.405 389.683C202.077 390.012 201.818 390.403 201.644 390.834C201.47 391.264 201.383 391.725 201.39 392.19V392.19Z" fill="white"/>
<path d="M292.25 388.66H285.05V421.78H292.25V388.66Z" fill="white"/>
<path d="M332.5 388.66H331.5V414.39C331.5 414.75 331.36 414.9 331.14 414.9H330.71C330.58 414.9 330.452 414.867 330.339 414.804C330.225 414.741 330.129 414.65 330.06 414.54L312.49 391.54C312.136 391.018 311.727 390.535 311.27 390.1C310.945 389.769 310.583 389.476 310.19 389.23C309.789 389.003 309.347 388.856 308.89 388.8C308.269 388.737 307.644 388.714 307.02 388.73H298.59V421.85H305.64V396C305.64 395.71 305.79 395.57 306 395.57H306.39C306.52 395.568 306.649 395.601 306.763 395.664C306.877 395.727 306.972 395.819 307.04 395.93L324.68 418.93C325.038 419.473 325.45 419.979 325.91 420.44C326.226 420.79 326.62 421.061 327.06 421.23C327.457 421.46 327.895 421.609 328.35 421.67C328.86 421.67 329.43 421.74 330.15 421.74H338.51V388.66H332.46H332.5Z" fill="white"/>
<path d="M384.84 395.39C384.404 393.911 383.587 392.573 382.47 391.51C381.324 390.427 379.902 389.68 378.36 389.35C376.379 388.876 374.346 388.658 372.31 388.7H364.97V395.25H372.03C373.041 395.236 374.05 395.357 375.03 395.61C375.766 395.73 376.445 396.08 376.97 396.61C377.461 397.185 377.804 397.872 377.97 398.61C378.196 399.627 378.293 400.669 378.26 401.71V408.77C378.294 409.808 378.196 410.846 377.97 411.86C377.803 412.598 377.46 413.284 376.97 413.86C376.421 414.357 375.752 414.702 375.03 414.86C374.049 415.108 373.041 415.229 372.03 415.22H364.97V421.77H372.31C374.35 421.823 376.388 421.58 378.36 421.05C379.877 420.719 381.278 419.988 382.418 418.933C383.557 417.878 384.393 416.537 384.84 415.05C385.336 413.147 385.578 411.187 385.56 409.22V401.19C385.575 399.234 385.332 397.284 384.84 395.39ZM364.97 388.7H357.7C355.635 388.638 353.573 388.88 351.58 389.42C350.049 389.781 348.635 390.524 347.47 391.58C346.378 392.623 345.584 393.938 345.17 395.39C344.639 397.29 344.396 399.258 344.45 401.23V409.29C344.396 411.258 344.639 413.224 345.17 415.12C345.581 416.596 346.374 417.938 347.47 419.01C348.635 420.066 350.049 420.809 351.58 421.17C353.584 421.643 355.64 421.861 357.7 421.82H364.97V415.27L357.97 415.19C356.929 415.222 355.888 415.128 354.87 414.91C354.161 414.768 353.511 414.42 353 413.91C352.459 413.369 352.108 412.667 352 411.91C351.746 410.9 351.625 409.861 351.64 408.82V401.69C351.625 400.645 351.746 399.604 352 398.59C352.106 397.832 352.457 397.13 353 396.59C353.487 396.049 354.149 395.695 354.87 395.59C355.883 395.336 356.925 395.215 357.97 395.23H364.97V388.7Z" fill="white"/>
<path d="M24.99 388.66H8.39C5.51 388.66 3.39 389.38 2.06 390.82C1.37002 391.561 0.83713 392.433 0.493408 393.385C0.149687 394.338 0.00225349 395.349 0.0599976 396.36V399.82C-0.0916172 402.021 0.626531 404.193 2.06 405.87C3.76962 407.35 5.99345 408.097 8.25 407.95H25.99C27.65 407.95 28.44 408.82 28.44 410.62V415.15H0V421.78H35.64V410.26C35.7741 408.077 35.0573 405.926 33.64 404.26C31.93 402.773 29.7015 402.022 27.44 402.17H9.65C7.99 402.17 7.2 401.31 7.2 399.51V397.92C7.18251 397.228 7.38565 396.549 7.78 395.98C8.03085 395.725 8.33465 395.529 8.66989 395.404C9.00513 395.28 9.36363 395.231 9.72 395.26H36.07V392.26C36.0867 391.049 36.331 389.851 36.79 388.73L24.99 388.66Z" fill="white"/>
<path d="M189.72 388.66H185.91C185.331 388.663 184.752 388.709 184.18 388.8C183.702 388.87 183.252 389.071 182.88 389.38C182.433 389.641 182.061 390.013 181.8 390.46C181.443 391.024 181.155 391.628 180.94 392.26L171.07 414.94C171.019 415.068 170.931 415.178 170.817 415.255C170.703 415.331 170.568 415.372 170.43 415.37H169.85C169.709 415.382 169.568 415.346 169.451 415.268C169.333 415.19 169.244 415.074 169.2 414.94L159.39 392.26C159.153 391.623 158.837 391.019 158.45 390.46C158.216 390.019 157.872 389.647 157.45 389.38C157.081 389.073 156.635 388.872 156.16 388.8C155.564 388.713 154.962 388.666 154.36 388.66H145V421.78H151.91V396C151.902 395.942 151.907 395.882 151.926 395.826C151.944 395.77 151.976 395.719 152.017 395.677C152.059 395.636 152.11 395.604 152.166 395.586C152.222 395.567 152.282 395.562 152.34 395.57H152.7C153.06 395.57 153.28 395.71 153.35 395.93L162.93 417.1C163.226 417.863 163.612 418.588 164.08 419.26C164.415 419.817 164.853 420.306 165.37 420.7C165.807 421.095 166.326 421.389 166.89 421.56C167.572 421.719 168.27 421.793 168.97 421.78H171.21C171.91 421.793 172.608 421.719 173.29 421.56C173.869 421.376 174.409 421.084 174.88 420.7C175.357 420.284 175.768 419.799 176.1 419.26C176.568 418.588 176.954 417.863 177.25 417.1L186.83 395.93C186.9 395.71 187.12 395.57 187.48 395.57H187.91C188.13 395.57 188.27 395.71 188.27 396V421.78H195.11V388.66H189.78H189.72Z" fill="white"/>
<path d="M280.23 420.55L272.16 410.55C273.217 410.446 274.242 410.127 275.171 409.611C276.1 409.094 276.913 408.393 277.56 407.55C278.744 405.628 279.322 403.395 279.22 401.14V398.39C279.22 395.22 278.43 392.77 276.84 391.12C275.25 389.47 272.67 388.67 269.07 388.67H260.71V395.15H267.55C268.788 395.036 270.024 395.393 271.01 396.15C271.702 397.051 272.037 398.177 271.95 399.31V401.31C272.05 402.448 271.714 403.581 271.01 404.48C270.536 404.884 269.985 405.187 269.39 405.373C268.796 405.558 268.17 405.622 267.55 405.56H260.71V411.39H264.71L270.71 419.39L272.59 421.84H281.15L280.22 420.69L280.23 420.55ZM260.71 388.66H242.21V421.78H249.48V411.39H260.71V405.63H249.48V395.76C249.474 395.683 249.485 395.605 249.512 395.532C249.539 395.46 249.581 395.394 249.637 395.339C249.692 395.285 249.759 395.244 249.832 395.218C249.905 395.192 249.983 395.182 250.06 395.19H260.71V388.66Z" fill="white"/>
<path d="M37.73 173.74V99.94H199.08C191.67 92.09 186.99 81.94 185.19 69.84H37.73V67.39C37.6172 62.0128 38.1477 56.6414 39.31 51.39C40.1211 47.5518 41.9362 43.9975 44.57 41.09C47.3186 38.4033 50.7601 36.5337 54.51 35.69C59.6784 34.5175 64.9717 33.9868 70.27 34.11H184.54C185.62 20.64 190.44 9.20005 198.94 0.0500488H68.83C56.45 0.0500488 45.83 1.28004 37.23 3.65004C29.3526 5.58349 22.0784 9.44223 16.06 14.8801C10.3936 20.3737 6.25755 27.2499 4.06 34.83C1.54 43.04 0.25 52.9701 0.25 64.7101V191.95C8.53 184.25 18.9 178.63 31.14 175.25C33.27 174.67 35.39 174.17 37.73 173.74Z" fill="white"/>
<path d="M238.61 330.77H385.61V365.55L201.15 365.83V258.77C201.104 252.893 201.488 247.021 202.3 241.2C213.954 239.239 224.75 233.825 233.291 225.657C241.831 217.489 247.722 206.945 250.2 195.39L256.11 194.74C258.99 194.52 262.01 194.38 265.11 194.31C266.62 194.24 268.11 194.24 269.71 194.24H385.56C378.757 202.028 373.7 211.184 370.73 221.09C369.94 223.68 369.22 226.42 368.64 229.16H271.15C265.851 229.035 260.557 229.573 255.39 230.76C254.368 230.968 253.365 231.259 252.39 231.63C250.988 232.215 249.648 232.938 248.39 233.79C247.356 234.458 246.391 235.229 245.51 236.09C244.006 237.734 242.767 239.603 241.84 241.63C241.185 243.121 240.653 244.662 240.25 246.24C239.073 251.557 238.542 256.996 238.67 262.44L238.61 330.77Z" fill="white"/>
<path d="M184.68 263.67V330.77C184.47 338.62 183.31 345.1 181.23 350.07C181.103 350.471 180.932 350.857 180.72 351.22C179.734 353.375 178.422 355.365 176.83 357.12C171.65 362.74 164.09 365.55 154.3 365.55L0.220215 365.83V258.77C0.220215 247.03 1.51021 237.1 4.03021 228.89C6.19212 221.317 10.3345 214.458 16.0302 209.02C21.5002 203.83 28.5602 200.09 37.2002 197.71C45.8402 195.33 56.3502 194.19 68.8002 194.19H134.39C137.009 207.998 144.522 220.398 155.55 229.11H70.2702C64.9687 229.002 59.6744 229.556 54.5102 230.76C50.7559 231.551 47.3066 233.401 44.5702 236.09C41.9808 238.97 40.1702 242.464 39.3102 246.24C38.1329 251.557 37.6024 256.996 37.7302 262.44V330.77H142.06C143.946 330.373 145.658 329.389 146.95 327.96C148.9 325.73 149.95 321.84 149.95 316.37V296.5C149.95 294.41 148.95 293.33 146.95 293.33H69.7702L86.3902 263.67H184.68Z" fill="white"/>
<path d="M381.96 91.15C384.55 96.99 385.78 103.9 385.78 111.96V171.51H250.39C247.762 158.15 240.584 146.113 230.08 137.45H348.39V113.69C348.39 104.55 344.14 99.94 335.64 99.94H243.72C229.54 99.94 218.81 96.34 211.61 89.07C204.41 81.8 200.88 71.39 200.88 57.82V39.96C200.88 28.01 204.34 18.36 211.39 11.02C218.44 3.68002 229.32 0.0200195 244.23 0.0200195H385.78C379.059 7.84761 374.054 16.998 371.09 26.88C370.37 29.18 369.72 31.56 369.15 34.08H251.39C246.64 34.08 243.26 35.3 241.31 37.75C239.36 40.2 238.36 43.58 238.36 47.83V56.11C238.36 65.25 242.61 69.86 251.11 69.86H342.98C357.16 69.86 367.89 73.46 374.98 80.73C377.937 83.7372 380.304 87.2714 381.96 91.15V91.15Z" fill="white"/>
<path d="M186.7 228.67C179.816 227.747 173.231 225.271 167.443 221.431C161.655 217.59 156.816 212.485 153.29 206.5L174.17 209.59L186.7 228.67Z" fill="white"/>
<path d="M213.77 142.39L192.53 151.24L170.86 142.89C177.437 139.338 184.779 137.438 192.253 137.35C199.728 137.263 207.111 138.993 213.77 142.39Z" fill="white"/>
<path d="M160.71 174.53L147.53 190.95C147.167 188.565 146.95 186.161 146.88 183.75C146.853 179.617 147.388 175.499 148.47 171.51C149.742 166.508 151.885 161.769 154.8 157.51C155.181 156.913 155.591 156.336 156.03 155.78L160.71 174.53Z" fill="white"/>
<path d="M232.92 205.63C229.623 211.457 225.104 216.5 219.674 220.415C214.243 224.33 208.03 227.024 201.46 228.31L211.97 209.23L232.92 205.63Z" fill="white"/>
<path d="M238.75 182.74C238.765 185.149 238.598 187.556 238.25 189.94L224.71 173.94L228.96 154.94C235.206 162.87 238.649 172.646 238.75 182.74V182.74Z" fill="white"/>
<path d="M173.16 178.7L192.38 164.74L211.46 178.7L201.89 201.24H182.74L173.16 178.7Z" fill="white"/>
<path d="M120.89 166.18C120.293 166.632 119.544 166.836 118.8 166.75H99.0701C98.9301 167.26 98.8602 167.69 98.7102 168.12C98.3145 169.419 97.7353 170.655 96.9902 171.79H120.46C121.533 171.819 122.604 171.674 123.63 171.36C124.424 171.119 125.142 170.675 125.71 170.07C126.272 169.486 126.672 168.766 126.87 167.98C127.107 167.086 127.228 166.165 127.23 165.24V163.01C127.297 162.049 127.105 161.087 126.674 160.225C126.243 159.364 125.589 158.633 124.78 158.11C125.524 157.556 126.117 156.825 126.507 155.983C126.896 155.141 127.069 154.216 127.01 153.29V151.49C127.072 150.627 126.957 149.76 126.672 148.943C126.386 148.126 125.936 147.377 125.35 146.74C124.27 145.74 122.35 145.23 119.81 145.23H96.9102C97.7125 146.343 98.321 147.584 98.7102 148.9C98.8602 149.33 98.9301 149.76 99.0701 150.27H118.66C119.438 150.183 120.223 150.359 120.89 150.77C121.116 151.009 121.291 151.293 121.402 151.602C121.514 151.912 121.561 152.241 121.54 152.57V153.87C121.568 154.187 121.524 154.506 121.411 154.804C121.299 155.102 121.121 155.37 120.89 155.59C120.103 156.035 119.202 156.237 118.3 156.17H99.3902V160.56H118.26C119.172 160.474 120.087 160.703 120.85 161.21C121.087 161.445 121.273 161.726 121.397 162.035C121.52 162.345 121.579 162.677 121.57 163.01V164.39C121.598 164.72 121.551 165.052 121.433 165.362C121.315 165.672 121.13 165.951 120.89 166.18V166.18Z" fill="white"/>
<path d="M139.83 171.79V145.23H131.39C132.235 146.769 132.727 148.477 132.83 150.23H134.27V171.79H139.83Z" fill="white"/>
<path d="M58.3902 171.79V145.23H49.9702C50.815 146.769 51.3069 148.477 51.4102 150.23H52.8502V171.79H58.3902Z" fill="white"/>
<path d="M87.8402 164.09C87.7288 164.68 87.4552 165.227 87.0502 165.67C86.6082 166.055 86.0953 166.351 85.5402 166.54C84.7095 166.695 83.8651 166.765 83.0202 166.75H79.2702V171.75H83.0202C84.665 171.797 86.3089 171.629 87.9102 171.25C89.1419 170.954 90.282 170.36 91.2302 169.52C92.1207 168.677 92.7668 167.61 93.1002 166.43C93.5321 164.909 93.7244 163.33 93.6702 161.75V155.19C93.7244 153.61 93.5321 152.031 93.1002 150.51C92.7668 149.33 92.1207 148.263 91.2302 147.42C90.282 146.58 89.1419 145.986 87.9102 145.69C86.3089 145.311 84.665 145.143 83.0202 145.19H79.2702V150.08H83.0202C83.8657 150.062 84.7106 150.136 85.5402 150.3C86.1198 150.425 86.647 150.725 87.0502 151.16C87.4551 151.607 87.7285 152.157 87.8402 152.75C88.0013 153.553 88.075 154.371 88.0602 155.19V156.49H79.2702V160.67H88.0602V161.53C88.0775 162.389 88.0037 163.247 87.8402 164.09ZM79.2702 166.75H65.8802V171.75H79.2702V166.75ZM79.2702 145.23H64.9502V154.59C64.9502 158.69 67.3202 160.71 72.0002 160.71H79.2702V156.53H72.7202C72.4016 156.558 72.0808 156.514 71.7814 156.401C71.482 156.289 71.2117 156.111 70.9902 155.88C70.6744 155.335 70.5249 154.709 70.5602 154.08V150.08H79.2702V145.23Z" fill="white"/>
</g>
<defs>
<clipPath id="clip0_1344_32610">
<rect width="385.78" height="421.78" fill="white"/>
</clipPath>
</defs>
</svg>
