<svg height="316.227766" viewBox="0 0 800 800" width="316.227766" xmlns="http://www.w3.org/2000/svg"><g transform="translate(-99.912607 -100.175)"><path d="m344 414.5v196.9 4.1c0 1 .3 1.9 1.1 2.6.3.2.6.5.9.8 4.6 4.2 9.4 8 14.4 11.6 8.3 6 16.9 11.3 25.8 16.3 12.4 6.9 25.2 13.1 38.2 18.8 22.3 9.8 45.1 18.3 68.4 25.7 1.9.6 3.7 1.2 5.6 1.7 1.1.3 2.1.3 3.2 0 .5-.2.9-.3 1.4-.5 4.3-1.4 8.6-2.8 12.8-4.2 22.6-7.4 44.8-16 66.5-25.8 16.3-7.4 32-15.7 47.1-25.2 8.6-5.4 16.7-11.3 24.2-18.1.6-.5 1.2-1.1 1.7-1.6.4-.4.7-1 .7-1.6 0-1.3 0-2.5 0-3.8 0-22.5.1-45.1.1-67.6 0-38.5 0-77 0-115.5 0-61.7 0-123.4 0-185.1 0-8.7 0-17.4-.1-26.2 0-1.5 0-2.9-.1-4.4 0-.9-.5-1.5-1.2-1.8-.4-.2-.9-.4-1.3-.6-21.2-9.5-43-17.4-65.5-23.2-7.6-2-15.2-3.7-22.9-5.1-3.7-.7-7.3-1.3-11-1.9s-7.4-1.1-11-1.6c-2-.3-4.1-.5-6.1-.7-3.8-.5-7.6-.9-11.4-1-.8 0-1.6-.1-2.3-.2-5.5-.5-10.9-.7-16.4-.8-8-.1-16.1-.1-24.1.4-3.8.2-7.6.5-11.4.8-2.1.2-4.3.4-6.4.7-2.5.3-5.1.6-7.6.9-2.2.3-4.5.5-6.7.8-4.1.6-8.1 1.4-12.2 2.1-9.6 1.7-19 3.8-28.4 6.3-17 4.5-33.5 10.1-49.7 16.8-5 2.1-9.9 4.3-14.8 6.4-.8.3-1.2.9-1.2 1.8v3.5c-.3 65.9-.3 131.7-.3 197.5z" fill="#fff"/><path d="m681.4 414.6v211c0 5.3.7 3.7-3.2 7.2-8.4 7.4-17.5 13.8-27.1 19.7-17 10.4-34.6 19.6-52.7 27.7-24.3 10.8-49 20.3-74.2 28.5-7.2 2.3-14.4 4.6-21.5 6.8-.4.1-.7.3-1.1.4-1.1.3-2.1.3-3.2 0-2.5-.8-5.1-1.5-7.6-2.3-21.2-6.6-42.1-14-62.8-22.2-16.9-6.7-33.6-14.1-49.8-22.3-12.8-6.5-25.2-13.5-37.1-21.5-7.3-4.9-14.3-10.2-20.9-16.1-.2-.2-.4-.4-.7-.6-.7-.6-1.1-1.3-1.1-2.3 0-1.1 0-2.2 0-3.2 0-140.8 0-281.7 0-422.5 0-4.1-.5-3.2 3.1-5 13.2-6.5 26.6-12.5 40.3-17.8 16.7-6.4 33.8-11.9 51.2-16.1 8-1.9 16-3.6 24.1-5 5.3-.9 10.6-1.7 16-2.3l11.7-1.5c2.4-.3 4.9-.5 7.3-.7 5.7-.4 11.3-.8 17-.9 9.2 0 18.4-.2 27.6.2 4.4.2 8.8.6 13.2.9 2.6.2 5.3.4 7.9.7 4 .4 8 .9 11.9 1.4 4.4.6 8.7 1.4 13 2.1 9 1.5 17.9 3.4 26.7 5.6 28 7 54.9 17 81 29.3 3 1.4 6 2.9 9 4.4.5.3 1 .5 1.5.9.2.2.4.5.4.7.1.4.1.8.1 1.2v3.2zm-337.4-.1v196.9 4.1c0 1 .3 1.9 1.1 2.6.3.2.6.5.9.8 4.6 4.2 9.4 8 14.4 11.6 8.3 6 16.9 11.3 25.8 16.3 12.4 6.9 25.2 13.1 38.2 18.8 22.3 9.8 45.1 18.3 68.4 25.7 1.9.6 3.7 1.2 5.6 1.7 1.1.3 2.1.3 3.2 0 .5-.2.9-.3 1.4-.5 4.3-1.4 8.6-2.8 12.8-4.2 22.6-7.4 44.8-16 66.5-25.8 16.3-7.4 32-15.7 47.1-25.2 8.6-5.4 16.7-11.3 24.2-18.1.6-.5 1.2-1.1 1.7-1.6.4-.4.7-1 .7-1.6 0-1.3 0-2.5 0-3.8 0-22.5.1-45.1.1-67.6 0-38.5 0-77 0-115.5 0-61.7 0-123.4 0-185.1 0-8.7 0-17.4-.1-26.2 0-1.5 0-2.9-.1-4.4 0-.9-.5-1.5-1.2-1.8-.4-.2-.9-.4-1.3-.6-21.2-9.5-43-17.4-65.5-23.2-7.6-2-15.2-3.7-22.9-5.1-3.7-.7-7.3-1.3-11-1.9s-7.4-1.1-11-1.6c-2-.3-4.1-.5-6.1-.7-3.8-.5-7.6-.9-11.4-1-.8 0-1.6-.1-2.3-.2-5.5-.5-10.9-.7-16.4-.8-8-.1-16.1-.1-24.1.4-3.8.2-7.6.5-11.4.8-2.1.2-4.3.4-6.4.7-2.5.3-5.1.6-7.6.9-2.2.3-4.5.5-6.7.8-4.1.6-8.1 1.4-12.2 2.1-9.6 1.7-19 3.8-28.4 6.3-17 4.5-33.5 10.1-49.7 16.8-5 2.1-9.9 4.3-14.8 6.4-.8.3-1.2.9-1.2 1.8v3.5c-.3 65.9-.3 131.7-.3 197.5z" fill="#004276"/><path d="m399.7 787.6c-21.5 0-43.1 0-64.6 0-4.8 0-4.2.6-4.2-4.2 0-11.8 0-23.5 0-35.3 0-1 0-2 .1-2.9 0-.6.5-1 1.1-1.1.3 0 .6-.1.9-.1h9.1c.3 0 .6 0 .9.1.7.1 1.1.5 1.1 1.1 0 .8.1 1.6.1 2.3v21.4 10.6c0 .7.1 1.4.1 2 0 .3.4.7.8.8.3 0 .6.1.9.1h2.3 20.9 2.3c1.3 0 1.6-.4 1.7-1.8 0-.8 0-1.6 0-2.4 0-4.8 0-9.6 0-14.4 0-.7 0-1.4 0-2.1.1-1.6.7-2.6 2.2-3.1 1.2-.4 2.5-.7 3.7-.8 4.3-.5 8.6-.6 12.9 0 1.4.2 2.9.6 4.3 1 .6.1 1.1.3 1.7.5.4.1.9-.2.9-.5 0-1 .1-2 .1-2.9 0-1.7 0-3.3.1-5 0-.3.5-.7.8-.7.2 0 .4 0 .6.1 3.6 1 7.2 2 10.7 3 .7.2 1 .6 1 1.3.1 1.5.1 2.9.1 4.4 0 .2.4.5.6.5h.3c.2 0 .4-.1.6-.2 4.4-1.6 9-1.8 13.6-1.6 2.4.1 4.9.1 7.3.8.7.2 1.5.5 2.2.8.7.4 1.2 1.1 1.2 1.9v2.3 15 1.8c0 2 .2 2.2 2.2 2.2h12.9c.5 0 1 0 1.5-.2.2-.1.5-.4.6-.6.1-.7.2-1.4.2-2 0-4.1 0-8.2 0-12.3 0-2.4 0-4.7 0-7.1 0-.5 0-1 .1-1.4.1-.2.3-.5.6-.6.2-.1.6-.2.9-.2h10c.3 0 .6.1.9.1.3.1.7.5.7.8 0 .7.1 1.4.1 2.1v14.7 9.4c0 .6 0 1.2-.2 1.7 0 .2-.4.4-.6.5-.3.1-.6.1-.9.1-1 0-2 0-2.9 0-21.7.1-43.1.1-64.5.1zm-7.6-5.2c1.2.1 2.3.1 3.5 0 1.1 0 2.1 0 3.2-.1.3 0 .8-.4.8-.7.1-.4.2-.8.2-1.2 0-2 0-3.9 0-5.9 0-.7 0-1.4-.1-2.1-.2-1.8-1-3.2-2.4-4.2-.6-.4-1.3-.9-2-1.2-1.4-.6-3-1-4.5-1.3-1.2-.2-2.3-.2-3.5-.1-1.2.2-2.1 1-2.4 2.2-.1.4-.1.8-.1 1.2v11.7.3c.1.6.5 1.1 1.1 1.1 2.1.3 4.1.3 6.2.3zm34.3-7.3c0-2.1.1-4.3 0-6.4-.1-1.6-1.2-2.7-2.8-2.9-3.3-.3-6.4.6-9.2 2.2-1.9 1.1-3 2.8-2.9 5.1v7.6c0 .3.1.6.1.9.1.3.4.7.8.8.4 0 .8.1 1.2.1h10.8.9c.6 0 1.1-.5 1.1-1.1 0-2.2 0-4.2 0-6.3z" fill="#004276"/><path d="m523.3 753.9c0 .3.1.6 0 .8-.3.8-.7 1.6-1 2.4-1.6 3.9-2.3 7.9-2 12.1.4 5.2 2.9 9 7.7 11.2 2.8 1.3 5.8 1.9 8.8 2 2.4.1 4.9 0 7.3 0 1 0 1.4-.5 1.4-1.5 0-.9 0-1.8 0-2.6 0-8.3 0-16.6 0-25 0-1 .1-1.9.1-2.9 0-.3.4-.7.8-.7.5 0 1-.1 1.5-.1h10.6c3 0 6.1.4 9 1.2 1.9.5 3.7 1.2 5.4 2.2 3.8 2.3 6 5.8 6.7 10.2.4 2.4.4 4.9.3 7.3 0 .3-.1.6-.1.9-.1.4-.4.7-.8.8-.4 0-.8.1-1.2.1-2.4 0-4.9 0-7.3 0-.4 0-.8-.1-1.2-.1-.3 0-.7-.4-.7-.8 0-1.5-.1-2.9-.1-4.4 0-1.4-.2-2.7-.6-4.1-.9-3.1-2.9-5.3-5.9-6.5-.3-.1-.6-.2-.8-.3-2.3-.8-2.7-.2-2.7 1.8v2.3 23.5c0 1-.1 1.9-.2 2.9 0 .2-.3.5-.6.6-.5.1-1 .1-1.5.1-7.7 0-15.5.1-23.2 0-4.3-.1-8.6-.6-12.8-1.7-1.6-.4-3.2-1-4.7-1.7-5.6-2.6-8.4-7.1-8.8-13.2-.1-2.4.1-4.7.6-7 .7-3.2 1.8-6.2 3.2-9.1.3-.7.8-1.1 1.6-1.1h10.3c.4.3.6.4.9.4z" fill="#004276"/><path d="m656.4 758.4c.4-.1.8-.3 1.1-.3h10.6.3c.5.1 1 .5 1 1 0 .8.1 1.6.1 2.3v13.5 9.7c0 .7-.1 1.4-.1 2 0 .3-.4.8-.8.8-.9 0-1.8.1-2.6.1-8.9 0-17.8 0-26.7 0-2.8 0-5.7 0-8.5 0-.6 0-1.2 0-1.8-.1-.5 0-.9-.5-.9-1s0-1 0-1.5c0-12.8 0-25.7 0-38.5 0-2.4.1-2.5 2.4-2.5h8.5c.5 0 1 .1 1.4.2.2.1.5.3.6.6.1.4.2.8.2 1.1v2.6 29.7c0 1 0 2 .1 2.9 0 .7.5 1.1 1.1 1.2.3 0 .6.1.9.1h11.2c.4 0 .8 0 1.2-.2.2-.1.5-.4.6-.6.1-.7.2-1.4.2-2 0-4.4 0-8.8 0-13.2 0-2.1 0-4.1 0-6.2-.3-.5-.2-1-.1-1.7z" fill="#004276"/><path d="m592.7 787.6c-1.8 0-3.5 0-5.3 0-.6 0-1.2 0-1.8 0-.5 0-1-.4-1-.9 0-1.1 0-2.1 0-3.2 0-.5.4-.9 1-.9h2.6 10.3c2.3 0 4.4-.6 6.4-1.8 4.3-2.4 7.1-7.4 6-13.3-.9-5.2-5.4-9.1-10-9.9-1.3-.2-2.5-.4-3.8-.3-3.1 0-6.3 0-9.4 0-.8 0-1.6-.1-2.3-.1-.4 0-.8-.4-.8-.7 0-.4-.1-.8-.1-1.2.1-6.3-1-5.4 5.4-5.5h7.3c2.8 0 5.5.4 8.1 1 2.7.6 5.2 1.7 7.6 3.1 2.5 1.6 4.6 3.6 6.2 6.2 1.4 2.4 2.2 5 2.3 7.8.2 6.2-2.3 11-7.1 14.7-3.2 2.4-6.8 3.7-10.7 4.5-2.3.4-4.7.6-7 .6-1.3-.2-2.6-.1-3.9-.1z" fill="#004276"/><path d="m575.1 830c.5-.5.8-.9 1.1-1.2l14.7-14.7c.3-.3.6-.5.9-.7.1-.1.4-.1.5 0 .2.1.3.2.5.3 5.2 5.2 10.4 10.3 15.6 15.5.2.2.3.5.5.7-.2.3-.3.6-.5.8-5.3 5.3-10.7 10.6-16 15.9-.1.1-.4.1-.6.2-.2-.2-.5-.3-.7-.5-5.1-5.1-10.2-10.2-15.4-15.3-.1-.3-.3-.5-.6-1z" fill="#df0102"/><path d="m425.7 829.8c0 .2 0 .4-.1.6-.3.4-.6.8-1 1.1-4.8 4.8-9.6 9.6-14.3 14.3-.4.4-.7.9-1.5 1-.2-.2-.6-.4-.8-.7-5-5-10-9.9-15-14.9-.2-.2-.4-.4-.6-.7s-.2-.6 0-.8c.2-.3.5-.6.7-.9 4.9-4.9 9.8-9.8 14.8-14.7.3-.3.7-.6 1.2-1 .5.4 1 .8 1.4 1.2 8.4 8.2 13.5 13.4 15.2 15.5z" fill="#df0102"/><g fill="#004276"><path d="m491 772.7v12c0 .7-.1 1.4-.1 2 0 .3-.4.7-.8.7-.1 0-.2 0-.3 0-3.6 0-7.2 0-10.8 0-.6 0-1.1-.5-1.1-1.1s-.1-1.2-.1-1.8c0-7.9 0-15.8 0-23.7 0-.2 0-.4 0-.6 0-1.9.2-2.3 2.1-2.3h9.1c.4 0 .8.1 1.2.1s.7.4.8.8c0 .8.1 1.6.1 2.3-.1 4-.1 7.8-.1 11.6z"/><path d="m547.7 819.2c-.5.1-1.1.2-1.7.2-1.9 0-3.7 0-5.6 0-1 0-1.9.2-2.9.4-1.4.4-2.4 1.3-3 2.6-.7 1.5-1 3.2-.8 4.9 0 .2.4.6.6.5.4-.2.9-.4 1.3-.6 1.4-.7 2.9-1.1 4.5-1.1 1.8-.1 3.5 0 5.2.4 2.3.6 3.8 2 4.4 4.2.2.6.3 1.1.4 1.7.2 2 .2 4.1 0 6.2-.1.8-.3 1.5-.5 2.3-.6 1.8-1.8 3-3.5 3.8-.4.2-.9.4-1.4.5-3.6.9-7.2.9-10.7.1-2.6-.6-4.3-2.2-5.1-4.8-.5-1.5-.8-3-.9-4.6-.2-3-.2-6.1 0-9.1.1-1.9.5-3.7 1.1-5.4 1-2.9 3-4.7 6-5.4.1 0 .2 0 .3-.1 2.5-.6 8.9-.7 11.4-.1.3.1.6.2.8.3.1.1.3.3.3.5.3.8.2 1.7-.2 2.6zm-14.1 15.5c.1.9.1 1.8.2 2.7.1.8.3 1.5.7 2.2s.9 1.3 1.7 1.6c2.2.8 4.4.9 6.6 0 .9-.3 1.5-.9 1.8-1.8.8-2.4.8-4.8 0-7.2-.3-.9-.9-1.5-1.8-1.8-.5-.2-.9-.4-1.4-.4-2-.3-3.9-.1-5.7.7-1.4.6-2.3 1.5-2 3.1 0 .4-.1.7-.1.9z"/><path d="m480.6 845.8c-2 0-3.9.1-5.8-.4-.3-.1-.6-.1-.8-.3-.2-.1-.3-.3-.3-.4-.1-.7-.1-1.4.1-2 .1-.5.5-.8 1.1-.8h6.2c1.2 0 2.3-.1 3.5-.5 1.5-.4 2.6-1.3 3.2-2.8.7-1.5 1.1-3.1 1-4.8 0-.4-.5-.7-.8-.5-1.3.7-2.6 1.4-4.1 1.6-2.1.4-4.1.4-6.1-.2-3-.8-4.7-2.7-5.3-5.6-.6-2.5-.5-5.1 0-7.6.6-2.6 2.1-4.3 4.6-5.3 2.8-1.1 9.5-1.1 12.2-.1 1.8.7 3.2 1.9 3.9 3.7.3.9.6 1.9.8 2.8.7 4.8.7 9.6 0 14.3-.2 1.1-.5 2.3-1 3.4-1 2.6-2.9 4.1-5.5 4.8-1.2.3-2.5.6-3.8.6-1.1.1-2.1.1-3.1.1zm8.2-19.1c0-1.6-.1-3.1-.6-4.6-.4-1.1-1.1-1.8-2.2-2.2-2-.7-4-.7-6 0-1.1.4-1.8 1.1-2.2 2.2-.1.4-.3.7-.3 1.1-.2 1.5-.2 2.9 0 4.4.3 2 1.6 3.3 3.6 3.6 1.8.3 3.5.2 5.2-.6 2.6-1.3 2.5-1.2 2.5-3.9z"/><path d="m500.2 831.2c.1-1.7.2-3.5.3-5.2.1-1.9.6-3.7 1.3-5.4 1.1-2.4 2.9-3.9 5.4-4.6 2.9-.8 9.6-.9 12.2-.1.5.2.9.5.9 1 0 .6-.1 1.2-.1 1.7 0 .4-.4.7-.8.7-.7 0-1.4.1-2.1.1-1.6 0-3.1 0-4.7 0-.9 0-1.7.2-2.6.4-1.7.4-2.7 1.5-3.3 3s-.7 3-.7 4.6c0 .2.5.6.6.5.3-.1.5-.2.8-.4 1-.7 2.1-1 3.3-1.2 2.5-.4 5.1-.4 7.6.4 1.9.6 3.2 1.8 3.8 3.8.1.2.1.4.2.6.7 2.3.6 7-.1 9.3-.7 2.5-2.3 4-4.7 4.8-.9.3-1.9.6-2.9.6-2 .1-3.9.1-5.9 0-1.1-.1-2.1-.4-3.1-.7-1.8-.6-3-1.7-3.8-3.4-.7-1.5-1.1-3.1-1.2-4.8-.2-2-.3-3.8-.4-5.7zm11.6-1.3c-1.7-.1-3.5.5-5.1 1.5-.6.4-.9 1-.9 1.7v.3c0 1.7.2 3.3.5 4.9.3 1.3 1 2.4 2.3 2.9 2.1.8 4.2.8 6.3 0 1.1-.4 1.8-1.2 2.1-2.3.6-2.1.6-4.2 0-6.4-.3-1.1-1-1.8-2.1-2.3-1-.2-1.9-.3-3.1-.3z"/><path d="m464.4 830.6v12.3c0 .6-.1 1.2-.1 1.7 0 .2-.2.4-.4.4-.6.1-1.2.2-1.7.2-3.6 0-3.4.3-3.4-3.3 0-6.4 0-12.7 0-19.1 0-.6-.1-1.2-.1-1.7 0-.2-.4-.5-.7-.5-1 .2-2.1.5-3.1.7s-2.1.5-3.1.7c-.1 0-.4-.1-.5-.3-.2-.7-.4-1.5-.6-2.3-.1-.3.2-.8.5-1 .3-.1.5-.2.8-.3 1.7-.6 3.3-1.2 5-1.8.9-.4 1.9-.5 2.9-.5 1.2 0 2.3 0 3.5.1.6 0 1 .5 1 1.2v2.3z"/><path d="m484.3 754c-1.9 0-3.7 0-5.6 0-.4 0-.9-.5-.9-1 0-1-.1-1.9-.1-2.9 0-1.5 0-2.9 0-4.4 0-1.1.4-1.4 1.4-1.5h3.5 6.1c.5 0 1 0 1.4.1.2.1.4.4.6.6.1.1.1.2.1.3v7.9c0 .5-.4.9-1 .9-1.8 0-3.6 0-5.5 0z"/><path d="m662.6 754.1c-1.9 0-3.7-.1-5.6-.1-.4 0-.7-.4-.8-.7 0-.1-.1-.2-.1-.3 0-2.5 0-5.1 0-7.6 0-.6.4-1.1 1.1-1.1h10.8.3c.3 0 .8.4.8.7 0 .1.1.2.1.3v7.6c0 .6-.5 1.1-1.2 1.1-1.7 0-3.5 0-5.4.1 0-.1 0-.1 0 0z"/><path d="m462 790.5h4.7c.4 0 .8.1 1.1.2.2.1.4.4.6.6.1.1.1.2.1.3v7.6c0 .5-.5.9-.9 1-.3 0-.6.1-.9.1-3.1 0-6.2 0-9.4 0-.4 0-.8-.1-1.2-.2-.3-.1-.7-.5-.8-.8 0-.1 0-.2 0-.3 0-2.4 0-4.9 0-7.3 0-.6.4-1.1 1.1-1.1.9-.1 1.8-.1 2.6-.1 1.1-.1 2-.1 3 0z"/><path d="m535 800.2c-1.6 0-3.1 0-4.7 0-.3 0-.6-.1-.9-.1-.3-.1-.7-.5-.7-.8 0-2-.1-3.9-.1-5.9 0-.7.1-1.4.1-2 0-.4.4-.7.8-.8s.8-.1 1.2-.1h9.1c.4 0 .8.1 1.2.2.3.1.7.5.8.8 0 .1.1.2.1.3v7.3c0 .6-.6 1.1-1.1 1.1-1.5.1-2.9.1-4.4.1-.6 0-1 0-1.4-.1z"/><path d="m551.9 800.3c-1.8 0-3.5-.1-5.3-.1-.6 0-1.1-.6-1.1-1.2 0-2.4 0-4.9 0-7.3 0-.6.5-1.1 1.1-1.2.3 0 .6-.1.9-.1h9.1c.5 0 1 .1 1.4.2.2 0 .3.3.4.4s.1.2.1.3v7.9c0 .4-.4.8-.7.8-.6.1-1.2.2-1.7.2-1.5.1-2.8.1-4.2.1z"/></g><path d="m499.2 557c-.4-.9-1.1-1.6-1.8-2.3-9.5-10.9-19-21.9-28.6-32.8-2.4-2.8-4.9-5.6-7.3-8.4-.4-.5-1-1-1.1-1.7.4-.9 1.1-1.6 1.8-2.3 8-9.2 16.1-18.5 24.1-27.7 3.9-4.4 7.7-8.9 11.6-13.3.5-.6 1.1-1.1 1.3-1.9-.4-.9-1.1-1.6-1.8-2.3-4.2-4.8-8.4-9.5-12.7-14.3-.6-.7-1.4-1.4-1.8-2.3.2-.8.9-1.3 1.4-1.9 3.7-4.2 7.4-8.4 11.1-12.5 2.1-2.3 1.9-1.9 1.9-5 0-11.9 0-23.9 0-35.8 0-2.8.2-2.5-1.8-4.7-1-1.2-2.1-2.3-3.1-3.5-.3-.4-.6-.8-.8-1.1.1-.3.1-.5.3-.7 2.4-2.7 4.8-5.4 7.2-8.1.1-.1.3-.3.5-.3.2-.1.4-.1.6 0 .3.2.6.5.9.8 2.1 2.3 4.2 4.7 6.2 7 .2.2.4.5.5.7.3.3.3.8 0 1.1-1 1.2-2.1 2.4-3.1 3.5-.6.7-1.2 1.3-1.7 2-.5.5-.7 1.1-.7 1.9v2.1 35c0 3.4-.3 2.7 2.1 5.5 3.6 4.1 7.3 8.2 10.9 12.3.5.6 1.1 1.1 1.4 1.9-.2.8-.8 1.3-1.3 1.9-3.9 4.4-7.8 8.8-11.7 13.2-.5.5-.9 1-1.4 1.5-2.4 2.8-2.5 2.1 0 4.9 11.6 13.4 23.3 26.7 34.9 40.1 2.7 3.1 2.7 2.2 0 5.3-11.6 13.3-23.2 26.6-34.7 39.9-2.7 3.1-2.7 2.3 0 5.3 4.3 4.9 8.6 9.7 12.9 14.5.5.5.9 1 1.3 1.6.1.1.1.4 0 .5-.3.5-.7.9-1.1 1.4-3.4 3.9-6.9 7.8-10.3 11.7-.5.6-1 1.2-1.6 1.8-1.1 1-1.4 2.2-1.4 3.7v36.7.6c-.1 1.1.3 2.1 1.1 2.9 1.3 1.4 2.5 2.8 3.7 4.2.3.3.5.6.8.9.2.3.2.8 0 1.1-.3.4-.6.8-.9 1.1-2.1 2.3-4.2 4.7-6.2 7-.5.6-1 .6-1.5.1-2.4-2.7-4.8-5.4-7.2-8.1-.4-.4-.3-.9 0-1.3 1.2-1.3 2.3-2.6 3.5-4 .5-.5.9-1 1.3-1.6.3-.4.4-.9.5-1.3.1-.6.1-1.2.1-1.8 0-12 0-24.1 0-36.1 0-.1 0-.2 0-.3 0-2.5.1-2.2-1.6-4.2-3.6-4.1-7.3-8.2-10.9-12.3-.3-.4-.7-.7-1-1.1-1.1-1.2-1.1-1.3-.1-2.4.4-.5.9-1 1.4-1.5 4.4-4.9 8.7-9.8 13-14.7.3-.9.9-1.4.9-2.1zm.6-61.3c-.1 0-.2 0-.3.1-.3.3-.6.5-.9.8-4 4.6-8.1 9.3-12.1 13.9-.3.3-.5.6-.7.9-.1.2-.1.6 0 .8.1.3.3.5.5.7 4.2 4.8 8.3 9.6 12.5 14.4l.6.6c.2.1.6.1.8 0 .2-.2.5-.4.6-.6 4.2-4.8 8.3-9.6 12.5-14.4.1-.1.2-.3.4-.5.2-.3.3-.8 0-1.1-.3-.4-.6-.8-.9-1.1-3.8-4.4-7.7-8.8-11.5-13.3-.3-.4-.7-.7-1-1.1-.1 0-.3 0-.5-.1z" fill="#df0102"/><path d="m449.7 259.7c0-7.1 0-14.3 0-21.4 0-.9 0-1.8 0-2.6.1-1.4.4-1.6 1.8-1.8.5-.1 1-.1 1.5-.1 5.1-.1 10.2-.2 15.3-.2 2.5 0 5.1.1 7.6.7 2 .4 4 1 5.8 2 1.2.6 2.4 1.4 3.4 2.3 2.6 2.4 3.7 5.5 3.4 9-.1 1.7-.8 3.2-1.9 4.6-.8 1-1.8 1.8-2.8 2.5-.7.5-1.5.9-2.2 1.4-.2.1-.2.7 0 .8.6.3 1.2.6 1.9.8 1.5.6 3 1.4 4.3 2.5 2 1.6 3.3 3.6 4 6 .7 2.6.8 5.2.2 7.8-.4 1.9-1.5 3.6-2.8 5.1-1 1.1-2.2 2-3.4 2.8-2.8 1.7-5.8 2.8-9 3.4-2.4.5-4.8.7-7.3.6-3.5 0-7 0-10.6 0-2.2 0-4.3 0-6.5 0-.6 0-1.2 0-1.8-.1-.3 0-.7-.4-.8-.8 0-.4-.1-.8-.1-1.2 0-.8 0-1.6 0-2.3 0-7.4 0-14.6 0-21.8zm11 9.9v6.2c0 .6.1 1.2.1 1.7 0 .4.4.7.8.7.1 0 .2 0 .3.1 3.4.4 6.8.3 10.2-.1 1.6-.2 3.1-.6 4.5-1.3 1.8-.8 3.1-2.1 3.7-4s.8-3.8.4-5.8c-.6-2.4-1.9-4-4.1-5-1.2-.5-2.4-.9-3.7-1-3.5-.5-7-.6-10.5-.4-.3 0-.6.1-.9.2s-.7.5-.7.8c0 .4-.1.8-.1 1.2zm0-22.5v5.6c0 .6.5 1.1 1.1 1.2 3.3.4 6.6.3 9.9-.4 1-.2 2.1-.6 3-1.2 1.9-1.2 2.8-3 2.8-5.2 0-2-.9-3.6-2.6-4.6-1.2-.7-2.5-1.1-3.9-1.3-3.1-.3-6.3-.2-9.4 0-.3 0-.8.5-.8.8s-.1.6-.1.9z" fill="#004276"/><path d="m550.2 260v22.3c0 .9 0 1.8-.1 2.6 0 .4-.4.7-.8.8-.1 0-.2 0-.3 0-2.9 0-5.9 0-8.8 0-.5 0-.9-.4-.9-.9 0-.9-.1-1.8-.1-2.6 0-5.7 0-11.4 0-17 0-2.8 0-2.8-2.7-2.8-6.8 0-13.5 0-20.3 0-.6 0-1.2.1-1.8.1-.3 0-.7.4-.7.8 0 .5-.1 1-.1 1.5v5 12.9c0 .8-.1 1.6-.1 2.3 0 .4-.4.8-.7.8-.1 0-.2 0-.3 0-2.9 0-5.9 0-8.8 0-.6 0-.9-.4-1-.9 0-.8-.1-1.6-.1-2.3 0-15.1 0-30.1 0-45.2 0-.8.1-1.6.1-2.3 0-.5.5-.9 1-.9s1-.1 1.5-.1h5.9c.5 0 1 .1 1.5.1s1 .5 1 .9c.1.8.1 1.6.1 2.3v13.5c0 .9.1 1.8.1 2.6 0 .4.4.8.7.8.6 0 1.2.1 1.8.1h20.5c.6 0 1.2 0 1.7-.2.2-.1.6-.3.6-.5.1-.8.2-1.6.2-2.3 0-4.7 0-9.4 0-14.1 0-.8 0-1.6.1-2.3 0-.3.4-.7.8-.8.2 0 .4-.1.6-.1h7.9c.3 0 .6.1.8.2s.5.4.6.6c.1.9.1 1.8.1 2.6z" fill="#004276"/><path d="m572.9 285.6c-3.5.2-12.1.2-14.2-.1 0-.3-.1-.6 0-.8.4-.8.8-1.6 1.3-2.3 7.6-13.1 15.2-26.3 22.8-39.4 1.3-2.2 2.5-4.4 3.8-6.6.3-.6.7-1.2 1.2-1.7 1.3-1.5 3.7-1.5 4.9 0 .6.7 1 1.4 1.5 2.2 3.3 5.8 6.7 11.5 10 17.3 5.5 9.6 11.1 19.1 16.6 28.7.4.7.7 1.4 1.1 2.1.1.2-.2.6-.4.7-.2 0-.4.1-.6.1-4.1 0-8.2 0-12.3 0-.9 0-1.5-.4-1.8-1.2s-.7-1.6-1-2.4c-4.7-11.1-9.4-22.2-14.1-33.2-.3-.7-.5-1.5-1.1-2-.1-.1-.4-.1-.5 0-.3.5-.6 1-.9 1.5-2 4.6-3.9 9.2-5.9 13.8-3 7-6 14.1-9 21.1-.4.6-.6 1.4-1.4 2.2z" fill="#004276"/><path d="m409.1 246.6c-.3.2-.6.3-.7.5-.4.8-.7 1.6-1.1 2.4-4.7 11.1-9.4 22.1-14.1 33.2-1.4 3.4-.8 3-4.4 3-2.9 0-5.9 0-8.8 0-.7 0-1.4 0-2.1 0-.4 0-.7-.4-.5-.8.3-.7.7-1.4 1.1-2.1 1.4-2.5 2.8-4.9 4.3-7.4 7.4-12.7 14.7-25.4 22.1-38.1.5-.8 1-1.7 1.6-2.5.5-.7 1.3-1.2 2.2-1.3 1.3-.1 2.3.3 3.1 1.3.6.8 1.1 1.6 1.5 2.5 5.3 9.2 10.7 18.5 16 27.7 3.4 5.9 6.9 11.8 10.3 17.8.4.7.7 1.4 1.1 2.1.1.3-.1.6-.4.7-.3 0-.6.1-.9.1-3.9 0-7.8 0-11.7 0-.5 0-1-.1-1.4-.1-.8-.8-1-1.8-1.4-2.6-3.4-7.9-6.7-15.8-10.1-23.8-1.5-3.6-3.1-7.2-4.6-10.8-.4-.6-.6-1.3-1.1-1.8z" fill="#004276"/><path d="m546.8 312.6c0-4.5 0-9 0-13.5 0-.8 0-1.6 0-2.3 0-1.1.4-1.4 1.4-1.5h1.2c2.8-.1 5.7-.1 8.5-.2 2.4-.1 4.9 0 7.3.3 2 .2 4 .8 5.9 1.7 1.2.6 2.2 1.2 3.1 2.2.8.9 1.3 1.9 1.5 3.1.4 2.6-.3 4.6-2.5 6.1-.7.5-1.5.9-2.2 1.4-.1.1-.2.3-.2.5s.2.3.4.4c.3.2.7.3 1.1.5.6.3 1.3.5 1.9.9 3.9 2.2 5.1 5.3 4.5 9.3-.2 1.4-.9 2.6-1.9 3.6-1 1.1-2.2 1.9-3.5 2.6-2.6 1.3-5.3 1.9-8.2 2.2-.9.1-1.8.1-2.6.1-4.4 0-8.8 0-13.2 0-.6 0-1.2-.1-1.7-.2-.2 0-.4-.2-.4-.4-.1-.6-.2-1.2-.2-1.7 0-2.8 0-5.7 0-8.5-.2-2.3-.2-4.4-.2-6.6zm12.6.5c-1.1.1-2.4.1-3.6.2-.4 0-.7.4-.8.7 0 .2-.1.4-.1.6v9.1c0 .2 0 .4.1.6s.3.5.5.6.6.2.8.2c2.8.2 5.7.1 8.4-.4.8-.2 1.5-.4 2.2-.7 1.6-.7 2.6-2 3-3.7.5-2.6-.6-5.3-3.5-6.2-1-.3-2.1-.6-3.1-.7-1.2-.1-2.4-.2-3.9-.3zm-.2-13.3c-1.1 0-2.1.1-3.2.1-.6 0-1 .5-1.1 1.2v.6 5.3c0 .3.1.6.1.9s.4.7.8.8c2.8.3 5.6.3 8.4-.5.6-.2 1.1-.4 1.6-.8 1.3-.9 1.9-2.2 1.7-3.8-.2-1.4-1-2.3-2.3-2.8-.3-.2-.7-.3-1.1-.4-1.5-.6-3.2-.6-4.9-.6z" fill="#004276"/><path d="m536.7 308.3v9.1 1.8c-.1 3.4-1.5 6-4.3 7.9-1.9 1.3-4 2.2-6.2 2.6-4.9 1.1-9.9 1.1-14.9.1-1.9-.4-3.8-1.1-5.4-2.2-2.6-1.7-4.2-4.1-4.4-7.2-.1-.8-.1-1.6-.1-2.3 0-6.6 0-13.1 0-19.7 0-.6 0-1.2.1-1.8.1-.8.5-1.2 1.3-1.2h5.6c.8 0 1.2.4 1.2 1.3v2.4 17.9 2.3c.1 1.6.8 2.8 1.9 3.8 1.3 1.2 2.8 1.8 4.5 2 2.5.4 5.1.3 7.6-.5.6-.2 1.1-.4 1.6-.7 1.8-1 3-2.5 3.2-4.6.1-1 .1-2 .1-2.9 0-5.8 0-11.6 0-17.3 0-.9 0-1.8.1-2.6 0-.6.5-1 1.2-1h1.2c4.6-.1 5.3 0 5.4.4.6 1.7.2 3.5.3 5.2z" fill="#004276"/><path d="m455.5 297.2c-.7 1.5-1.7 2.7-2.6 4-.2.3-.7.4-1.1.3-.5-.2-.9-.4-1.4-.5-3.7-1.2-7.5-1.5-11.3-.5-4.6 1.2-7.7 4.1-9.1 8.7-.8 2.6-.7 5.2 0 7.8.9 3.2 2.9 5.5 5.9 6.9 1.3.7 2.7 1.1 4.2 1.2 2.7.3 5.5.2 8.1-.6 1.5-.5 2.9-1.2 4.2-2.1.5-.3 1-.2 1.3.2.7.9 1.5 1.8 2.2 2.7.8 1.1.8 1.5-.3 2.1s-2.3 1.2-3.4 1.6c-2 .7-4.1 1.2-6.3 1.3-2.4.1-4.9.1-7.3 0-3.1-.2-6-.9-8.7-2.3-3.7-1.9-6.4-4.8-7.8-8.7-1.2-3.5-1.4-7.1-.6-10.7.6-2.7 2-5.1 3.9-7.1 3-3.2 6.6-5.1 10.8-6.1 4.1-.9 8.1-.9 12.3-.3 2 .3 4.1.7 6 1.5.4 0 .7.3 1 .6z" fill="#004276"/><path d="m479.1 329.9c-3.8 0-7.6 0-11.4 0-.8 0-1.6-.1-2.3-.1-.3 0-.7-.4-.8-.8 0-.3-.1-.6-.1-.9 0-.7 0-1.4 0-2.1 0-9 0-18 0-27 0-1 .1-1.9.1-2.9 0-.4.4-.7.8-.8h6.4c.4 0 .7.4.7.8 0 .9.1 1.8.1 2.6v22 2.6c0 .8.4 1.2 1.3 1.2h2.6 14.1c.8 0 1.6 0 2.3.1.6 0 1.1.5 1.1 1.1v2.9c0 .1 0 .2-.1.3-.2.2-.4.6-.6.6-.7.1-1.4.1-2 .1-4 .3-8.1.3-12.2.3z" fill="#004276"/></g></svg>