<?xml version="1.0" encoding="UTF-8"?>
<svg xmlns="http://www.w3.org/2000/svg" version="1.1" viewBox="0 0 800 800">
  <defs>
    <style>
      .cls-1 {
        fill: #6bb8e0;
      }
    </style>
  </defs>
  <!-- Generator: Adobe Illustrator 28.6.0, SVG Export Plug-In . SVG Version: 1.2.0 Build 709)  -->
  <g>
    <g id="Layer_1">
      <g>
        <path class="cls-1" d="M381.8,33.5v18.1h3.8c3.5,0,3.8-.6,3.8-6.8s.3-6.8,3.8-6.8c5.1,0,5.6-7.1.5-7.8-5.3-.8-4.7-6.3.8-6.9,3.2-.5,4.1-1.4,4.1-4.2s-.5-3.6-8.3-3.6h-8.3v18.1Z"/>
        <path class="cls-1" d="M405.1,16.6c-3.5,2.3-5.1,8-5.1,17.2s2.6,16.3,10.6,16.3,10.6-3.9,10.6-10.1-.8-3.5-4.5-3.5-4.5.6-4.5,3-.6,3-1.5,3-1.5-4.2-1.5-9.8.6-9.8,1.5-9.8,1.5,1.7,1.5,3.8c0,3.2.8,3.8,4.5,3.8s4.5-.5,4.5-4.5-1.4-5.9-3-7.5c-3-3-9.8-3.9-13-1.8Z"/>
        <path class="cls-1" d="M356.9,18c-49.8,6.8-106.9,22.3-144.3,39.4l-10.3,4.7v137.9c0,147.4.2,150.8,7.7,174.5,5.4,17.5,21.7,48.1,34.8,65.6,15.2,20.5,51.9,57.3,75.9,76.5,17,13.6,48.9,35.9,51,35.9s1.2-39.8,1.4-88.7l.5-88.5,12.1,12.1c18.2,18.2,30.9,42.2,39.2,73.8,3.6,14,3.8,17,3.8,53.1s.3,38.3.8,38.3c1.5,0,23.4-15.1,39.2-26.8,64.3-48.3,107.1-102.1,124-156.4l4.2-13.6.5-147.2.5-147.4-13.3-5.6c-41.5-17.5-103.9-33.6-145.5-37.9l-10-1.1-.6,35.3c-.6,33.5-.9,36-4.8,48.9-5.3,16.9-15.2,38.2-23.5,50.5-6.2,9.2-23.4,27.1-25.9,27.1s-1.2-36.3-1.2-80.7V16.9l-5.6.2c-3.2.2-7.7.6-10.3.9ZM315.2,352.8l-.5,90.2-11.8-13.6c-21.4-24.6-35-48.4-40.3-70.6-2.9-11.8-3-18.2-3-134.1v-121.6l16.3-6.5c8.9-3.5,21.3-7.8,27.4-9.7l11.3-3.3.5,89.4c.2,49.3.2,130.2,0,179.6ZM508.5,90.5c4.5,1.7,13.9,5.1,20.8,7.8l12.5,4.8-.5,124.6-.5,124.7-4.8,14c-8.1,23.4-21.1,44.2-38.9,63.2l-11.2,11.8-.2-179V83.4l7.2,2.1c3.9,1.2,10.9,3.5,15.4,5ZM433.3,224.4c0,14.9-.2,53.8-.2,86.6v59.6l-6.6-13c-14-27.8-38.3-55.2-63.9-72.2-3.5-2.3-3.3-2.4,7.5-10.6,13.4-10.1,35.1-31.7,43.7-43.4,7.2-9.8,17.8-29.4,17.8-33s.3-2.1.8-1.7.9,13,.9,27.8Z"/>
        <path class="cls-1" d="M448.8,599.7c-.5,1.2-.6,4.4-.3,7.2.5,4.7.8,5,6.9,5.4l6.3.5v-15.2h-6c-3.9,0-6.5.8-6.9,2.1Z"/>
        <path class="cls-1" d="M510,605.1v7.5h7.7c5.4,0,7.4-.6,7.1-2-.5-.9-2.1-2-3.9-2.3-4.7-.8-4.2-4.8.5-4.8s3.8-.8,3.8-3-1.1-3-7.5-3h-7.5v7.5Z"/>
        <path class="cls-1" d="M536.3,599.5c-.5,1.2-.6,15.4-.3,31.7l.5,29.7h-11.3v-42.2h-15.1v42.2h-5.1c-4.8,0-5.1.5-6.8,6.9-1.1,3.9-1.5,7.4-1.1,7.7.3.5,12.8.9,27.6.9l26.8.3.5-39.7.3-39.5h-7.5c-5,0-7.8.8-8.4,2Z"/>
        <path class="cls-1" d="M563.1,637.1l.5,39.7h15.1v-78.4l-8-.5-7.8-.5.3,39.7Z"/>
        <path class="cls-1" d="M250.6,639.8v21.1h-14.3c-7.8,0-14.3.2-14.3.3,0,.3-1.1,3.6-2.3,7.5l-2.1,7.2h48.1v-57.3h-15.1v21.1Z"/>
        <path class="cls-1" d="M276.6,647.6l.5,29.1,13.1.5,13.1.5.5,6.3.5,6.3,8,.5,7.8.5v-72.5h-43.7l.3,29ZM303.4,647.3v13.6h-12.1v-12.5c0-6.9.5-13.1,1.1-13.6.5-.6,3.2-1.1,6-1.1h5v13.6Z"/>
        <path class="cls-1" d="M358.8,619.6c-.6.6-1.1,10.1-1.1,21.1v20.1l-13.9.5-13.9.5-2.3,7.1c-1.2,4.1-1.8,7.5-1.5,7.8.5.5,37.7.3,83-.3l82.3-1.1-2.1-7.2c-1.7-5.9-2.7-7.1-5.7-7.1h-3.6l-.5-20.8-.5-20.7-24.4-.5-24.6-.3v25.6h15.1v-10.6h18.1v27.1h-88.8l-.5-20.8-.5-20.7-6.8-.5c-3.8-.3-7.4,0-8,.6Z"/>
        <path class="cls-1" d="M229.6,706.6c-2,.9-5.1,3.8-6.8,6-2.9,3.9-3.2,6.6-3.6,30.2-.3,22.9-.2,26.5,2.4,31.2,7.4,13.9,30.2,14.2,39.1.5,2.4-3.5,2.7-7.5,2.7-29.9s-.2-26.1-3.8-31.4c-2-3-5.3-6.2-7.2-6.9-4.7-2.3-18.4-2.1-22.8.3ZM246.1,722.6c.8,1.7,1.5,11.6,1.5,22,0,19.6-1.2,24.9-5.7,24.9s-6.3-3-6.3-24.3.5-21.7.9-23.1c1.4-3.3,7.7-3,9.7.5Z"/>
        <path class="cls-1" d="M272.8,705.6c-.6.6-1.1,18.2-1.1,39.4v38.2h16.6v-15.8c0-19,2.4-21.1,6.6-5.7,1.5,5.7,3.5,12.8,4.4,16l1.5,5.6h9c7.8,0,8.9-.3,8.1-2.7-.5-1.4-3.5-10.4-6.9-20.2l-6-17.5,5.9-17.6c3.3-9.7,6-18.2,6-19s-3.8-1.4-8.6-1.1l-8.7.5-3.8,14.9c-5.3,20.2-7.4,20.4-7.8.6l-.5-15.5-6.8-.5c-3.8-.3-7.4,0-8,.6Z"/>
        <path class="cls-1" d="M324.5,743.7v39.4h16.6v-31.7h12.1v31.7h16.6l-.3-38.9-.5-38.8-7.8-.5-8-.5v31.8h-11.9l-.5-15.5-.5-15.4-7.8-.5-8-.5v39.2Z"/>
        <path class="cls-1" d="M378.5,705.6c-.8.6-1.2,18.2-1.2,39.4v38.2h14.5c18.4,0,24-2.3,28.1-11.8,2.6-5.9,2.9-9.4,2.4-29.6-.5-24.7-1.5-28.2-9.7-33.5-4.1-2.7-32-5-34.1-2.7ZM403.5,722.1c2,1.8,2.4,6.2,2.4,21.9s-.3,19.8-3,22.5-4.1,3-5.3,3c-2,0-2.3-3.8-2.3-24.9s.2-24.9,2.9-24.9,4.1,1.1,5.3,2.4Z"/>
        <path class="cls-1" d="M440.6,706.6c-9.8,5-12.8,16.9-11.8,45.4.5,13.3,1.2,18.1,3.6,22.2,8.1,14,31.5,13.9,39.4-.5,2.3-4.2,2.7-8.7,2.7-29.9s-1.1-31.5-9.8-36.8c-5-2.9-18.7-3.2-24.1-.5ZM457.2,723.7c.9,2.1,1.5,11.5,1.5,21,0,19.9-1.4,24.9-6.6,24.9s-4.1-1.1-4.5-2.4c-1.2-3.2-1.2-45.1.2-46.3,2.6-2.6,8.1-.9,9.5,2.9Z"/>
        <path class="cls-1" d="M491,707.5c-7.7,4.7-9.7,12.1-9.7,37.3s1.2,28.8,8.3,35.3c3.5,3.3,5.4,3.8,14.3,3.8s10.9-.5,14.3-3.8c7.5-7.1,8.3-10.1,8.3-35.4s-1.4-32.1-9.4-37c-6.6-4.1-19.8-4.1-26.2-.2ZM509.1,722.1c1.8,4.7,1.1,43.6-.9,45.5s-6.9,2.1-8.7-1.1c-2.3-4.2-2-42.8.3-45.1s8.3-2.3,9.4.6Z"/>
        <path class="cls-1" d="M535.4,705.6c-.8.6-1.2,18.4-1.2,39.5v38.3l16.4-.6c15.8-.5,16.7-.6,21-4.7,6.6-6.3,8.3-14.3,7.5-37.4-.6-22.8-2.4-28.2-10.7-32.4-5.1-2.7-31.1-4.8-33-2.7ZM560.7,723.5c2,3,2.3,7.1,1.8,22.6-.5,17-.8,19.3-3.5,21.3-6.8,5-7.5,2.9-8-21.3-.2-12.4,0-23.4.3-24.4,1.4-3.2,6.6-2.3,9.4,1.8Z"/>
      </g>
    </g>
  </g>
</svg>