<?xml version="1.0" encoding="UTF-8"?>
<svg xmlns="http://www.w3.org/2000/svg" xmlns:xlink="http://www.w3.org/1999/xlink" width="316px" height="316px" viewBox="0 0 316 316" version="1.1">
<g id="surface1">
<path style=" stroke:none;fill-rule:nonzero;fill:rgb(100%,100%,100%);fill-opacity:1;" d="M 310.089844 158.007812 C 310.089844 242.003906 241.996094 310.09375 158 310.09375 C 74.003906 310.09375 5.910156 242.003906 5.910156 158.007812 C 5.910156 74.011719 74.003906 5.917969 158 5.917969 C 241.996094 5.917969 310.089844 74.011719 310.089844 158.007812 "/>
<path style=" stroke:none;fill-rule:nonzero;fill:rgb(10.588235%,30.196078%,22.745098%);fill-opacity:1;" d="M 315.480469 146.949219 C 314.046875 126.503906 308.765625 106.839844 299.792969 88.5 C 290.492188 69.519531 277.625 52.800781 261.542969 38.832031 C 246.929688 26.132812 230.386719 16.347656 212.363281 9.742188 C 194.957031 3.363281 176.691406 0.128906 158.074219 0.128906 L 158.058594 0.128906 C 112.28125 0.128906 68.824219 19.929688 38.832031 54.453125 C 24.855469 70.539062 14.445312 88.890625 7.890625 108.988281 C 1.5625 128.398438 -0.914062 148.605469 0.519531 169.050781 C 1.953125 189.496094 7.226562 209.160156 16.207031 227.5 C 25.507812 246.480469 38.375 263.199219 54.457031 277.167969 C 69.070312 289.867188 85.613281 299.652344 103.640625 306.257812 C 121.046875 312.636719 139.3125 315.871094 157.9375 315.871094 C 203.710938 315.871094 247.175781 296.070312 277.167969 261.542969 C 291.144531 245.460938 301.554688 227.109375 308.109375 207.011719 C 314.4375 187.601562 316.914062 167.394531 315.480469 146.949219 M 63.054688 267.273438 C 2.707031 214.835938 -3.710938 123.40625 48.726562 63.058594 C 77.34375 30.113281 117.597656 13.238281 158.0625 13.238281 C 191.726562 13.234375 225.53125 24.910156 252.941406 48.726562 C 313.292969 101.164062 319.710938 192.59375 267.273438 252.945312 C 238.65625 285.886719 198.402344 302.761719 157.9375 302.761719 C 124.273438 302.761719 90.460938 291.089844 63.054688 267.273438 "/>
<path style=" stroke:none;fill-rule:nonzero;fill:rgb(10.588235%,30.196078%,22.745098%);fill-opacity:1;" d="M 96.847656 96.804688 C 80.625 113.023438 71.695312 134.597656 71.695312 157.546875 C 71.695312 179.9375 80.203125 201.015625 95.6875 217.109375 L 103.289062 209.460938 C 90.609375 196.027344 82.835938 177.921875 82.835938 157.996094 C 82.835938 116.609375 116.394531 83.039062 157.78125 83.039062 C 177.53125 83.039062 195.484375 90.683594 208.875 103.164062 L 216.738281 95.246094 C 200.707031 80.011719 179.800781 71.644531 157.597656 71.644531 C 134.652344 71.644531 113.078125 80.582031 96.847656 96.804688 "/>
<path style=" stroke:none;fill-rule:nonzero;fill:rgb(56.078431%,17.647059%,11.764706%);fill-opacity:1;" d="M 232.742188 158 C 232.742188 199.394531 199.179688 232.957031 157.785156 232.957031 C 138.171875 232.957031 120.320312 225.414062 106.964844 213.089844 L 99.382812 220.71875 C 115.296875 235.398438 135.832031 243.441406 157.597656 243.441406 C 180.535156 243.441406 202.105469 234.515625 218.335938 218.292969 C 234.5625 202.0625 243.496094 180.496094 243.496094 157.542969 C 243.496094 135.574219 235.304688 114.871094 220.371094 98.917969 L 212.527344 106.808594 C 225.0625 120.207031 232.742188 138.210938 232.742188 158 "/>
<path style=" stroke:none;fill-rule:nonzero;fill:rgb(10.588235%,30.196078%,22.745098%);fill-opacity:1;" d="M 26.792969 155.316406 C 26.792969 155.316406 34.066406 153.988281 35.871094 169.070312 C 35.871094 169.070312 37.273438 187.015625 45.523438 205.679688 C 45.523438 205.679688 34.667969 203.804688 32.039062 193.875 C 32.039062 193.875 26.011719 178.375 26.792969 155.316406 "/>
<path style=" stroke:none;fill-rule:nonzero;fill:rgb(10.588235%,30.196078%,22.745098%);fill-opacity:1;" d="M 43.472656 118.355469 C 43.472656 118.355469 36.285156 110.96875 50.792969 103.136719 C 50.792969 103.136719 55.019531 119.054688 43.472656 118.355469 "/>
<path style=" stroke:none;fill-rule:nonzero;fill:rgb(10.588235%,30.196078%,22.745098%);fill-opacity:1;" d="M 57.304688 203.191406 C 57.304688 203.191406 65.4375 220.542969 75.070312 230.152344 C 75.070312 230.152344 83.917969 237.488281 78.332031 246.25 C 78.332031 246.25 62.539062 233.265625 54.253906 217.292969 C 49.351562 207.847656 57.304688 203.191406 57.304688 203.191406 "/>
<path style=" stroke:none;fill-rule:nonzero;fill:rgb(10.588235%,30.196078%,22.745098%);fill-opacity:1;" d="M 51.515625 218.890625 C 51.515625 218.890625 60.296875 234.59375 75.605469 248.09375 C 75.605469 248.09375 64.957031 250.933594 58.410156 243.015625 C 58.410156 243.015625 46.453125 231.460938 37.515625 210.191406 C 37.515625 210.191406 43.566406 205.949219 51.515625 218.890625 "/>
<path style=" stroke:none;fill-rule:nonzero;fill:rgb(10.588235%,30.196078%,22.745098%);fill-opacity:1;" d="M 48.78125 205.148438 C 48.78125 205.148438 39.867188 186.746094 39.023438 168.773438 C 38.527344 158.144531 47.699219 157.242188 47.699219 157.242188 C 47.699219 157.242188 47.824219 176.402344 52.550781 189.160156 C 52.550781 189.160156 57.515625 199.527344 48.78125 205.148438 "/>
<path style=" stroke:none;fill-rule:nonzero;fill:rgb(10.588235%,30.196078%,22.745098%);fill-opacity:1;" d="M 35.785156 110.457031 C 35.785156 110.457031 44.171875 112.589844 39.289062 126.972656 C 39.289062 126.972656 36.496094 134.984375 34.984375 155.136719 C 34.984375 155.136719 25.996094 148.757812 27.90625 138.664062 C 27.90625 138.664062 28.363281 131.113281 35.785156 110.457031 "/>
<path style=" stroke:none;fill-rule:nonzero;fill:rgb(10.588235%,30.196078%,22.745098%);fill-opacity:1;" d="M 38.152344 156.058594 C 38.152344 156.058594 36.742188 144.976562 41.015625 127.871094 C 43.589844 117.550781 53.8125 121.214844 53.8125 121.214844 C 53.8125 121.214844 49.691406 129.714844 48.453125 143.261719 C 48.453125 143.261719 48.453125 154.757812 38.152344 156.058594 "/>
<path style=" stroke:none;fill-rule:nonzero;fill:rgb(10.588235%,30.196078%,22.745098%);fill-opacity:1;" d="M 288.835938 155.316406 C 288.835938 155.316406 281.558594 153.988281 279.753906 169.070312 C 279.753906 169.070312 278.355469 187.015625 270.101562 205.679688 C 270.101562 205.679688 280.960938 203.804688 283.589844 193.875 C 283.589844 193.875 289.617188 178.375 288.835938 155.316406 "/>
<path style=" stroke:none;fill-rule:nonzero;fill:rgb(10.588235%,30.196078%,22.745098%);fill-opacity:1;" d="M 272.152344 118.355469 C 272.152344 118.355469 279.339844 110.96875 264.835938 103.136719 C 264.835938 103.136719 260.609375 119.054688 272.152344 118.355469 "/>
<path style=" stroke:none;fill-rule:nonzero;fill:rgb(10.588235%,30.196078%,22.745098%);fill-opacity:1;" d="M 258.320312 203.191406 C 258.320312 203.191406 250.1875 220.542969 240.558594 230.152344 C 240.558594 230.152344 231.707031 237.488281 237.289062 246.25 C 237.289062 246.25 253.085938 233.265625 261.367188 217.292969 C 266.273438 207.847656 258.320312 203.191406 258.320312 203.191406 "/>
<path style=" stroke:none;fill-rule:nonzero;fill:rgb(10.588235%,30.196078%,22.745098%);fill-opacity:1;" d="M 264.113281 218.890625 C 264.113281 218.890625 255.328125 234.59375 240.027344 248.09375 C 240.027344 248.09375 250.675781 250.933594 257.214844 243.015625 C 257.214844 243.015625 269.179688 231.460938 278.113281 210.191406 C 278.113281 210.191406 272.058594 205.949219 264.113281 218.890625 "/>
<path style=" stroke:none;fill-rule:nonzero;fill:rgb(10.588235%,30.196078%,22.745098%);fill-opacity:1;" d="M 266.847656 205.148438 C 266.847656 205.148438 275.761719 186.746094 276.605469 168.773438 C 277.101562 158.144531 267.929688 157.242188 267.929688 157.242188 C 267.929688 157.242188 267.800781 176.402344 263.078125 189.160156 C 263.078125 189.160156 258.109375 199.527344 266.847656 205.148438 "/>
<path style=" stroke:none;fill-rule:nonzero;fill:rgb(10.588235%,30.196078%,22.745098%);fill-opacity:1;" d="M 279.84375 110.457031 C 279.84375 110.457031 271.457031 112.589844 276.332031 126.972656 C 276.332031 126.972656 279.132812 134.984375 280.644531 155.136719 C 280.644531 155.136719 289.625 148.757812 287.714844 138.664062 C 287.714844 138.664062 287.265625 131.113281 279.84375 110.457031 "/>
<path style=" stroke:none;fill-rule:nonzero;fill:rgb(10.588235%,30.196078%,22.745098%);fill-opacity:1;" d="M 277.476562 156.058594 C 277.476562 156.058594 278.886719 144.976562 274.613281 127.871094 C 272.039062 117.550781 261.8125 121.214844 261.8125 121.214844 C 261.8125 121.214844 265.9375 129.714844 267.171875 143.261719 C 267.171875 143.261719 267.167969 154.757812 277.476562 156.058594 "/>
<path style=" stroke:none;fill-rule:nonzero;fill:rgb(10.588235%,30.196078%,22.745098%);fill-opacity:1;" d="M 65.699219 157.449219 C 65.699219 106.722656 106.96875 65.457031 157.691406 65.457031 C 182.179688 65.457031 204.453125 75.066406 220.957031 90.71875 L 223.023438 88.628906 C 214.71875 80.730469 205.175781 74.472656 194.628906 70.011719 C 182.929688 65.0625 170.503906 62.554688 157.691406 62.554688 C 144.882812 62.554688 132.460938 65.0625 120.753906 70.011719 C 109.457031 74.789062 99.308594 81.632812 90.59375 90.347656 C 81.878906 99.0625 75.039062 109.210938 70.257812 120.511719 C 65.3125 132.210938 62.800781 144.640625 62.800781 157.449219 C 62.800781 170.261719 65.3125 182.6875 70.257812 194.386719 C 74.835938 205.203125 81.300781 214.960938 89.492188 223.421875 L 91.558594 221.335938 C 75.558594 204.773438 65.699219 182.242188 65.699219 157.449219 "/>
<path style=" stroke:none;fill-rule:nonzero;fill:rgb(56.078431%,17.647059%,11.764706%);fill-opacity:1;" d="M 245.132812 120.511719 C 240.75 110.160156 234.644531 100.789062 226.957031 92.582031 L 224.882812 94.675781 C 240.261719 111.125 249.691406 133.207031 249.691406 157.449219 C 249.691406 208.175781 208.421875 249.441406 157.691406 249.441406 C 133.761719 249.441406 111.933594 240.257812 95.550781 225.222656 L 93.484375 227.316406 C 101.527344 234.71875 110.679688 240.621094 120.753906 244.886719 C 132.460938 249.835938 144.882812 252.34375 157.691406 252.34375 C 170.503906 252.34375 182.929688 249.835938 194.628906 244.886719 C 205.933594 240.109375 216.082031 233.265625 224.796875 224.550781 C 233.511719 215.835938 240.351562 205.683594 245.132812 194.386719 C 250.078125 182.6875 252.589844 170.257812 252.589844 157.449219 C 252.589844 144.636719 250.078125 132.210938 245.132812 120.511719 "/>
<path style=" stroke:none;fill-rule:nonzero;fill:rgb(10.588235%,30.196078%,22.745098%);fill-opacity:1;" d="M 198.257812 172.144531 C 202.40625 159.214844 197.175781 152.863281 180.921875 155.355469 C 178.722656 151.972656 175.191406 149.457031 170.910156 148.664062 C 168.105469 148.136719 165.339844 148.421875 162.84375 149.335938 C 163.894531 148.609375 165.359375 147.914062 167.394531 147.453125 C 162.910156 145.410156 158.128906 141.199219 153.980469 132.035156 C 156.058594 130.046875 160.601562 137.609375 160.601562 137.609375 C 167.410156 114.203125 148.304688 104.140625 146.964844 103.800781 L 146.394531 103.640625 L 146.402344 103.601562 C 146.402344 103.601562 144.105469 100.964844 142.964844 98.503906 C 141.085938 101.277344 142.042969 102.835938 142.042969 102.835938 L 128.765625 112.292969 L 128.582031 117.246094 L 132.132812 118.503906 L 135.394531 114.617188 C 140.132812 117.636719 144.511719 115.683594 144.511719 115.683594 C 138.921875 120.914062 136.046875 127.679688 136.046875 127.679688 C 130.933594 129.863281 129.3125 135.441406 129.046875 137.835938 L 129.085938 137.832031 C 129.085938 137.832031 128.976562 138.578125 128.992188 139.703125 L 128.996094 139.800781 L 128.992188 139.800781 C 129.03125 141.753906 129.46875 144.773438 131.523438 147.050781 C 131.523438 147.050781 128.042969 144.546875 127.394531 139.5 L 118.421875 137.832031 C 118.421875 137.832031 118.242188 138.804688 116.75 146.835938 C 115.222656 155.027344 121.710938 157.335938 121.710938 157.335938 L 122.855469 150.984375 C 122.855469 150.984375 120.101562 150.136719 120.390625 148.574219 C 120.6875 147.011719 121.3125 143.398438 121.3125 143.398438 C 121.3125 143.398438 122.421875 143.421875 124.097656 144.234375 C 125.984375 145.152344 128.585938 147.066406 131.117188 151.089844 L 126.324219 153.425781 L 125.210938 159.378906 L 132.949219 163.9375 C 141.75 169.21875 144.863281 163.894531 144.863281 163.894531 L 139.476562 160.855469 C 138.554688 162.074219 136.78125 161.953125 136.78125 161.953125 L 129.796875 157.808594 L 130.167969 155.804688 C 130.167969 155.804688 134.40625 154.589844 136.863281 153.984375 L 142.917969 152.21875 L 139.082031 154.871094 C 145.269531 162.472656 162.128906 166.941406 166.328125 166.484375 C 166.328125 166.484375 163.25 167.488281 160.441406 167.753906 C 160.441406 167.753906 159.039062 173.125 164.242188 176.546875 C 166.644531 178.125 170.917969 180.484375 170.917969 180.484375 C 169.046875 181.824219 166.773438 183.457031 165.128906 184.644531 L 164.859375 186.097656 C 163.542969 194.324219 170.402344 195.644531 170.402344 195.644531 L 171.328125 189.820312 C 171.328125 189.820312 168.46875 189.578125 168.734375 188.007812 L 168.964844 186.699219 C 170.074219 185.898438 172.53125 184.152344 174.605469 182.679688 L 177.332031 184.613281 C 179.742188 187.894531 176.042969 196.714844 176.042969 196.714844 C 170.328125 196.714844 169.769531 202.488281 169.769531 202.488281 L 177.269531 202.515625 C 177.835938 198.742188 180.75 198.960938 180.75 198.960938 L 183.699219 183.609375 L 179.054688 179.929688 L 180.515625 178.40625 L 178.160156 175.214844 C 180.667969 173.03125 182.484375 170.015625 183.144531 166.492188 C 183.648438 163.769531 183.394531 161.078125 182.542969 158.640625 C 191.164062 159.105469 189.699219 163.226562 187.546875 170.832031 C 182.207031 189.734375 203 192.742188 203 192.742188 C 194.269531 187.195312 198.257812 172.144531 198.257812 172.144531 "/>
<path style=" stroke:none;fill-rule:nonzero;fill:rgb(56.078431%,17.647059%,11.764706%);fill-opacity:1;" d="M 76.308594 86.808594 C 74.714844 89.652344 72.207031 93.144531 70 96.203125 C 68.183594 98.722656 65.386719 99.273438 62.996094 97.558594 L 52.261719 89.832031 C 49.871094 88.113281 49.523438 85.257812 51.324219 82.757812 C 53.519531 79.699219 56.03125 76.210938 58.222656 73.796875 L 61.671875 76.640625 L 56.671875 83.59375 C 56.125 84.347656 56.238281 85.042969 56.992188 85.578125 L 59.246094 87.199219 L 64.367188 80.089844 L 67.824219 82.578125 L 62.710938 89.691406 L 65.523438 91.722656 C 66.277344 92.257812 66.972656 92.144531 67.507812 91.394531 L 72.511719 84.445312 Z M 76.308594 86.808594 "/>
<path style=" stroke:none;fill-rule:nonzero;fill:rgb(56.078431%,17.647059%,11.764706%);fill-opacity:1;" d="M 74.171875 64.007812 L 86.601562 77.058594 L 82.09375 81.339844 L 69.671875 68.292969 L 64.929688 72.808594 L 61.625 69.335938 L 75.628906 56 L 78.933594 59.464844 Z M 74.171875 64.007812 "/>
<path style=" stroke:none;fill-rule:nonzero;fill:rgb(56.078431%,17.647059%,11.764706%);fill-opacity:1;" d="M 92.914062 50 L 102.675781 65.140625 L 97.449219 68.511719 L 87.691406 53.371094 L 82.1875 56.914062 L 79.589844 52.886719 L 95.847656 42.40625 L 98.441406 46.433594 Z M 92.914062 50 "/>
<path style=" stroke:none;fill-rule:nonzero;fill:rgb(56.078431%,17.647059%,11.764706%);fill-opacity:1;" d="M 110.640625 60.769531 L 101.105469 40.042969 L 106.691406 37.472656 L 116.226562 58.199219 Z M 110.640625 60.769531 "/>
<path style=" stroke:none;fill-rule:nonzero;fill:rgb(56.078431%,17.647059%,11.764706%);fill-opacity:1;" d="M 122.097656 36.921875 C 121.082031 37.226562 120.722656 37.855469 120.992188 38.746094 L 121.917969 41.808594 L 129.992188 39.367188 L 131.238281 43.480469 L 123.167969 45.925781 L 125.828125 54.691406 L 119.875 56.496094 L 114.671875 39.3125 C 113.800781 36.433594 115.285156 33.941406 118.261719 33.039062 C 121.746094 31.984375 125.761719 30.765625 128.820312 30.253906 L 129.816406 34.578125 Z M 122.097656 36.921875 "/>
<path style=" stroke:none;fill-rule:nonzero;fill:rgb(56.078431%,17.647059%,11.764706%);fill-opacity:1;" d="M 141.277344 45.53125 L 140.558594 51.070312 L 134.25 51.804688 L 138.007812 30.039062 C 138.121094 29.023438 138.902344 28.300781 139.890625 28.1875 L 145.601562 27.523438 C 146.585938 27.410156 147.511719 27.929688 147.890625 28.886719 L 156.519531 49.21875 L 150.207031 49.945312 L 148.238281 44.71875 Z M 144.449219 34.746094 C 144.199219 34.011719 143.898438 33.179688 143.742188 32.429688 L 142.859375 32.535156 C 142.816406 33.304688 142.75 34.179688 142.675781 34.949219 L 141.902344 40.929688 L 146.570312 40.386719 Z M 144.449219 34.746094 "/>
<path style=" stroke:none;fill-rule:nonzero;fill:rgb(56.078431%,17.647059%,11.764706%);fill-opacity:1;" d="M 178.542969 39.8125 C 177.699219 49.0625 174.792969 51.394531 167.253906 50.699219 C 159.78125 50.019531 157.316406 47.207031 158.160156 37.957031 C 159.007812 28.699219 161.941406 26.382812 169.417969 27.0625 C 176.953125 27.75 179.390625 30.566406 178.542969 39.8125 Z M 165.394531 51.066406 C 168.449219 52.503906 171.6875 53.429688 175.589844 54.351562 L 173.535156 59.414062 C 169.386719 57.871094 166.179688 55.953125 163.765625 54.003906 Z M 164.648438 38.546875 C 164.136719 44.140625 164.820312 45.699219 167.683594 45.964844 C 170.589844 46.226562 171.507812 44.816406 172.023438 39.222656 C 172.535156 33.625 171.878906 32.070312 168.980469 31.800781 C 166.117188 31.546875 165.15625 32.949219 164.648438 38.546875 "/>
<path style=" stroke:none;fill-rule:nonzero;fill:rgb(56.078431%,17.647059%,11.764706%);fill-opacity:1;" d="M 203.835938 59.203125 C 201.492188 59.136719 199.476562 58.664062 196.265625 57.457031 C 189.421875 54.902344 188 51.046875 191.054688 42.910156 C 194.101562 34.765625 197.699219 32.792969 204.539062 35.355469 C 207.730469 36.550781 209.164062 37.335938 211 38.660156 L 208.964844 42.765625 C 206.882812 41.917969 205.53125 41.378906 202.6875 40.308594 C 200.148438 39.359375 198.945312 40.394531 197.148438 45.191406 C 195.351562 49.988281 195.578125 51.554688 198.117188 52.511719 C 201.121094 53.636719 202.894531 54.261719 204.957031 54.789062 Z M 203.835938 59.203125 "/>
<path style=" stroke:none;fill-rule:nonzero;fill:rgb(56.078431%,17.647059%,11.764706%);fill-opacity:1;" d="M 214.40625 58.714844 C 213.933594 59.507812 214.105469 60.1875 215.019531 60.726562 L 221.675781 64.671875 L 219.554688 68.828125 C 216.570312 67.519531 213.382812 65.636719 210.335938 63.835938 C 207.347656 62.066406 206.800781 59.359375 208.316406 56.800781 L 217.421875 41.410156 L 222.777344 44.570312 Z M 214.40625 58.714844 "/>
<path style=" stroke:none;fill-rule:nonzero;fill:rgb(56.078431%,17.647059%,11.764706%);fill-opacity:1;" d="M 241.394531 75.8125 C 236.691406 81.140625 233.109375 81.457031 227.976562 76.929688 C 222.464844 72.078125 222.214844 68.367188 226.917969 63.035156 L 235.886719 52.871094 L 240.546875 56.984375 L 231.578125 67.148438 C 228.996094 70.074219 228.890625 71.390625 230.875 73.140625 C 232.855469 74.890625 234.152344 74.621094 236.734375 71.699219 L 245.703125 61.535156 L 250.363281 65.648438 Z M 241.394531 75.8125 "/>
<path style=" stroke:none;fill-rule:nonzero;fill:rgb(56.078431%,17.647059%,11.764706%);fill-opacity:1;" d="M 255.097656 89.253906 C 256.992188 92.292969 256.046875 94.5625 253.128906 96.738281 C 249.371094 99.546875 246.898438 98.335938 243.558594 93.859375 C 240.769531 90.117188 239.234375 88.007812 237.582031 85.40625 L 255.867188 71.761719 C 257.714844 73.855469 259.164062 75.738281 261.632812 79.054688 C 265.3125 83.984375 265.613281 86.480469 261.847656 89.289062 C 259.226562 91.25 257.207031 91.308594 255.257812 89.132812 Z M 246.402344 90.375 C 247.789062 92.226562 248.566406 92.390625 250.398438 91.027344 C 252.332031 89.582031 252.449219 88.75 251.027344 86.839844 L 249.167969 84.347656 L 244.53125 87.804688 Z M 254.039062 84.515625 C 255.246094 86.132812 255.976562 86.289062 257.617188 85.058594 C 259.207031 83.875 259.226562 83.121094 257.941406 81.394531 L 256.21875 79.089844 L 252.214844 82.078125 Z M 254.039062 84.515625 "/>
<path style=" stroke:none;fill-rule:nonzero;fill:rgb(10.588235%,30.196078%,22.745098%);fill-opacity:1;" d="M 102.417969 253.820312 C 102.566406 253.585938 102.75 253.394531 102.972656 253.242188 C 103.191406 253.09375 103.429688 252.988281 103.683594 252.929688 C 103.9375 252.871094 104.195312 252.859375 104.453125 252.90625 C 104.714844 252.949219 104.964844 253.046875 105.203125 253.203125 C 105.4375 253.351562 105.628906 253.535156 105.78125 253.757812 C 105.929688 253.976562 106.03125 254.214844 106.085938 254.472656 C 106.136719 254.726562 106.140625 254.988281 106.101562 255.253906 C 106.058594 255.519531 105.960938 255.769531 105.8125 256 C 105.664062 256.234375 105.476562 256.425781 105.253906 256.574219 C 105.027344 256.722656 104.789062 256.824219 104.539062 256.878906 C 104.285156 256.933594 104.027344 256.9375 103.761719 256.898438 C 103.496094 256.855469 103.246094 256.757812 103.015625 256.609375 C 102.773438 256.457031 102.582031 256.265625 102.4375 256.046875 C 102.292969 255.824219 102.191406 255.585938 102.136719 255.335938 C 102.082031 255.082031 102.078125 254.824219 102.125 254.5625 C 102.171875 254.300781 102.269531 254.050781 102.417969 253.820312 Z M 98.1875 251.101562 C 98.335938 250.871094 98.523438 250.675781 98.742188 250.527344 C 98.960938 250.375 99.203125 250.269531 99.460938 250.214844 C 99.71875 250.15625 99.980469 250.152344 100.238281 250.195312 C 100.496094 250.238281 100.746094 250.335938 100.988281 250.492188 C 101.21875 250.640625 101.410156 250.824219 101.554688 251.042969 C 101.703125 251.261719 101.804688 251.496094 101.855469 251.753906 C 101.90625 252.007812 101.914062 252.269531 101.871094 252.535156 C 101.828125 252.800781 101.734375 253.050781 101.585938 253.285156 C 101.433594 253.515625 101.246094 253.707031 101.023438 253.855469 C 100.800781 254.003906 100.5625 254.105469 100.308594 254.160156 C 100.058594 254.214844 99.800781 254.222656 99.539062 254.183594 C 99.277344 254.144531 99.03125 254.050781 98.796875 253.902344 C 98.554688 253.746094 98.363281 253.558594 98.21875 253.335938 C 98.074219 253.113281 97.972656 252.875 97.914062 252.621094 C 97.855469 252.367188 97.847656 252.109375 97.894531 251.84375 C 97.941406 251.582031 98.039062 251.332031 98.1875 251.101562 Z M 94.234375 262.09375 C 93.765625 262.824219 93.558594 263.507812 93.617188 264.140625 C 93.671875 264.773438 94.023438 265.296875 94.667969 265.714844 C 95.390625 266.175781 96.050781 266.425781 96.652344 266.457031 L 97.769531 264.71875 C 98.058594 264.269531 98.285156 263.84375 98.457031 263.445312 C 98.625 263.042969 98.722656 262.671875 98.742188 262.328125 C 98.765625 261.984375 98.703125 261.667969 98.558594 261.382812 C 98.414062 261.097656 98.171875 260.84375 97.832031 260.628906 C 97.492188 260.410156 97.164062 260.289062 96.84375 260.265625 C 96.523438 260.242188 96.214844 260.296875 95.917969 260.433594 C 95.617188 260.570312 95.328125 260.78125 95.042969 261.066406 C 94.761719 261.355469 94.492188 261.695312 94.234375 262.09375 Z M 99.238281 269.984375 C 98.511719 271.113281 97.648438 272.003906 96.648438 272.660156 C 95.644531 273.316406 94.535156 273.71875 93.316406 273.859375 C 92.101562 274.003906 90.792969 273.882812 89.390625 273.492188 C 87.988281 273.101562 86.53125 272.417969 85.011719 271.441406 C 83.628906 270.550781 82.488281 269.625 81.597656 268.660156 C 80.707031 267.695312 80.074219 266.699219 79.695312 265.671875 C 79.320312 264.644531 79.207031 263.59375 79.359375 262.519531 C 79.507812 261.441406 79.9375 260.355469 80.648438 259.25 L 82.4375 256.464844 L 85.871094 258.671875 L 84.554688 260.722656 C 84.101562 261.429688 83.796875 262.117188 83.648438 262.789062 C 83.5 263.457031 83.523438 264.117188 83.71875 264.765625 C 83.917969 265.417969 84.300781 266.054688 84.859375 266.6875 C 85.421875 267.316406 86.191406 267.945312 87.171875 268.574219 C 88.164062 269.214844 89.066406 269.660156 89.871094 269.914062 C 90.671875 270.167969 91.378906 270.292969 91.988281 270.292969 C 92.601562 270.292969 93.117188 270.203125 93.539062 270.03125 C 93.960938 269.855469 94.292969 269.664062 94.53125 269.457031 C 93.894531 269.257812 93.207031 268.921875 92.460938 268.441406 C 91.753906 267.988281 91.164062 267.460938 90.6875 266.863281 C 90.210938 266.265625 89.886719 265.605469 89.71875 264.886719 C 89.546875 264.167969 89.539062 263.402344 89.699219 262.589844 C 89.855469 261.777344 90.222656 260.929688 90.792969 260.039062 C 91.28125 259.277344 91.871094 258.617188 92.554688 258.0625 C 93.238281 257.507812 93.980469 257.101562 94.773438 256.851562 C 95.566406 256.601562 96.402344 256.527344 97.277344 256.632812 C 98.152344 256.738281 99.027344 257.070312 99.898438 257.632812 C 100.859375 258.25 101.566406 258.933594 102.015625 259.683594 C 102.460938 260.4375 102.707031 261.222656 102.75 262.039062 C 102.792969 262.855469 102.660156 263.695312 102.355469 264.554688 C 102.050781 265.414062 101.625 266.265625 101.082031 267.109375 Z M 99.238281 269.984375 "/>
<path style=" stroke:none;fill-rule:nonzero;fill:rgb(10.588235%,30.196078%,22.745098%);fill-opacity:1;" d="M 110.339844 275.453125 C 110.039062 276.097656 109.746094 276.5 109.453125 276.664062 C 109.160156 276.828125 108.824219 276.820312 108.449219 276.644531 L 107.242188 276.085938 C 106.597656 275.785156 106.042969 275.445312 105.574219 275.058594 C 105.109375 274.671875 104.753906 274.226562 104.519531 273.71875 C 104.28125 273.210938 104.183594 272.632812 104.222656 271.984375 C 104.265625 271.335938 104.476562 270.597656 104.859375 269.777344 L 111.78125 254.878906 L 115.484375 256.597656 L 108.789062 271 C 108.636719 271.332031 108.542969 271.609375 108.507812 271.839844 C 108.472656 272.066406 108.484375 272.261719 108.546875 272.417969 C 108.609375 272.578125 108.714844 272.714844 108.867188 272.828125 C 109.023438 272.945312 109.210938 273.054688 109.433594 273.15625 L 109.957031 273.402344 C 110.101562 273.46875 110.230469 273.546875 110.355469 273.632812 C 110.476562 273.722656 110.5625 273.84375 110.613281 273.992188 C 110.664062 274.140625 110.671875 274.332031 110.636719 274.566406 C 110.605469 274.800781 110.507812 275.097656 110.339844 275.453125 "/>
<path style=" stroke:none;fill-rule:nonzero;fill:rgb(10.588235%,30.196078%,22.745098%);fill-opacity:1;" d="M 121.492188 262.730469 C 121.582031 262.46875 121.714844 262.238281 121.894531 262.039062 C 122.070312 261.839844 122.277344 261.679688 122.515625 261.5625 C 122.753906 261.445312 123.003906 261.378906 123.265625 261.359375 C 123.527344 261.335938 123.792969 261.375 124.0625 261.464844 C 124.324219 261.554688 124.554688 261.6875 124.75 261.863281 C 124.945312 262.039062 125.097656 262.246094 125.210938 262.480469 C 125.320312 262.71875 125.390625 262.96875 125.414062 263.238281 C 125.433594 263.507812 125.402344 263.773438 125.3125 264.03125 C 125.222656 264.292969 125.089844 264.523438 124.90625 264.722656 C 124.722656 264.921875 124.515625 265.074219 124.285156 265.191406 C 124.054688 265.304688 123.804688 265.371094 123.542969 265.398438 C 123.28125 265.421875 123.015625 265.390625 122.753906 265.300781 C 122.484375 265.207031 122.253906 265.070312 122.058594 264.890625 C 121.867188 264.710938 121.710938 264.503906 121.589844 264.269531 C 121.472656 264.039062 121.40625 263.789062 121.386719 263.519531 C 121.367188 263.253906 121.402344 262.992188 121.492188 262.730469 Z M 117.683594 272.976562 C 117.511719 273.480469 117.425781 273.941406 117.421875 274.363281 C 117.417969 274.78125 117.480469 275.15625 117.609375 275.480469 C 117.738281 275.804688 117.929688 276.078125 118.183594 276.300781 C 118.433594 276.523438 118.730469 276.691406 119.066406 276.804688 L 120.757812 277.382812 L 121.625 274.835938 C 121.753906 274.464844 121.855469 274.085938 121.933594 273.707031 C 122.011719 273.328125 122.027344 272.972656 121.976562 272.644531 C 121.925781 272.3125 121.800781 272.019531 121.601562 271.757812 C 121.398438 271.496094 121.085938 271.292969 120.667969 271.148438 C 120.265625 271.011719 119.90625 270.96875 119.585938 271.023438 C 119.265625 271.074219 118.984375 271.191406 118.738281 271.375 C 118.492188 271.554688 118.285156 271.789062 118.109375 272.074219 C 117.933594 272.359375 117.792969 272.660156 117.683594 272.976562 Z M 113.410156 274.875 C 113.382812 274.679688 113.382812 274.453125 113.410156 274.195312 C 113.433594 273.9375 113.472656 273.671875 113.523438 273.398438 C 113.574219 273.125 113.640625 272.855469 113.714844 272.589844 C 113.789062 272.324219 113.863281 272.089844 113.933594 271.882812 C 114.195312 271.109375 114.589844 270.394531 115.105469 269.746094 C 115.625 269.09375 116.238281 268.566406 116.945312 268.160156 C 117.648438 267.757812 118.433594 267.503906 119.289062 267.398438 C 120.148438 267.296875 121.054688 267.40625 122.003906 267.730469 C 122.75 267.984375 123.378906 268.304688 123.890625 268.6875 C 124.398438 269.070312 124.8125 269.488281 125.125 269.945312 C 125.4375 270.398438 125.664062 270.886719 125.804688 271.402344 C 125.945312 271.921875 126.023438 272.445312 126.03125 272.980469 C 126.042969 273.515625 126 274.046875 125.90625 274.570312 C 125.808594 275.09375 125.683594 275.589844 125.523438 276.054688 L 124.621094 278.699219 L 126.507812 279.34375 C 126.667969 279.398438 126.8125 279.464844 126.941406 279.539062 C 127.074219 279.617188 127.171875 279.726562 127.238281 279.867188 C 127.304688 280.011719 127.332031 280.199219 127.316406 280.433594 C 127.304688 280.667969 127.234375 280.972656 127.109375 281.347656 C 126.878906 282.019531 126.628906 282.453125 126.359375 282.644531 C 126.089844 282.839844 125.753906 282.867188 125.355469 282.730469 L 109.652344 277.375 C 109.492188 277.320312 109.347656 277.253906 109.21875 277.179688 C 109.089844 277.105469 108.992188 276.996094 108.925781 276.851562 C 108.859375 276.710938 108.832031 276.519531 108.847656 276.28125 C 108.859375 276.039062 108.933594 275.730469 109.0625 275.347656 C 109.292969 274.675781 109.539062 274.246094 109.808594 274.0625 C 110.074219 273.875 110.40625 273.851562 110.808594 273.988281 Z M 113.410156 274.875 "/>
<path style=" stroke:none;fill-rule:nonzero;fill:rgb(10.588235%,30.196078%,22.745098%);fill-opacity:1;" d="M 136.269531 266.902344 C 136.328125 266.632812 136.4375 266.390625 136.589844 266.171875 C 136.742188 265.953125 136.929688 265.773438 137.148438 265.628906 C 137.367188 265.484375 137.605469 265.386719 137.863281 265.339844 C 138.121094 265.289062 138.390625 265.292969 138.667969 265.355469 C 138.9375 265.414062 139.183594 265.519531 139.402344 265.675781 C 139.617188 265.828125 139.796875 266.015625 139.933594 266.238281 C 140.074219 266.460938 140.167969 266.703125 140.222656 266.96875 C 140.273438 267.230469 140.273438 267.5 140.214844 267.769531 C 140.152344 268.039062 140.046875 268.28125 139.886719 268.5 C 139.726562 268.714844 139.539062 268.894531 139.324219 269.035156 C 139.105469 269.171875 138.863281 269.269531 138.601562 269.324219 C 138.335938 269.375 138.070312 269.371094 137.800781 269.3125 C 137.519531 269.253906 137.273438 269.144531 137.0625 268.984375 C 136.851562 268.828125 136.675781 268.640625 136.535156 268.421875 C 136.394531 268.207031 136.300781 267.964844 136.253906 267.703125 C 136.207031 267.441406 136.210938 267.171875 136.269531 266.902344 Z M 131.359375 265.828125 C 131.417969 265.558594 131.523438 265.3125 131.679688 265.09375 C 131.832031 264.875 132.019531 264.695312 132.246094 264.554688 C 132.46875 264.410156 132.707031 264.3125 132.964844 264.265625 C 133.222656 264.214844 133.492188 264.222656 133.773438 264.28125 C 134.042969 264.339844 134.28125 264.449219 134.496094 264.601562 C 134.710938 264.753906 134.886719 264.941406 135.023438 265.164062 C 135.164062 265.382812 135.257812 265.628906 135.3125 265.890625 C 135.363281 266.15625 135.363281 266.421875 135.300781 266.691406 C 135.242188 266.960938 135.132812 267.203125 134.976562 267.421875 C 134.816406 267.640625 134.628906 267.816406 134.410156 267.957031 C 134.195312 268.097656 133.957031 268.191406 133.699219 268.246094 C 133.4375 268.300781 133.175781 268.296875 132.90625 268.238281 C 132.625 268.179688 132.378906 268.070312 132.167969 267.910156 C 131.953125 267.753906 131.773438 267.566406 131.632812 267.347656 C 131.488281 267.128906 131.390625 266.890625 131.34375 266.625 C 131.292969 266.363281 131.300781 266.097656 131.359375 265.828125 Z M 131.125 280.21875 L 133.019531 271.582031 L 137.007812 272.453125 L 134.347656 284.585938 L 126.863281 282.945312 C 126.699219 282.910156 126.550781 282.863281 126.410156 282.800781 C 126.273438 282.742188 126.164062 282.644531 126.082031 282.511719 C 126 282.375 125.953125 282.1875 125.941406 281.949219 C 125.925781 281.710938 125.964844 281.390625 126.050781 280.996094 C 126.203125 280.304688 126.402344 279.851562 126.644531 279.636719 C 126.886719 279.421875 127.21875 279.359375 127.628906 279.449219 Z M 131.125 280.21875 "/>
<path style=" stroke:none;fill-rule:nonzero;fill:rgb(10.588235%,30.196078%,22.745098%);fill-opacity:1;" d="M 156.757812 266.0625 L 154.789062 287.117188 L 138.757812 285.617188 L 139.089844 282.054688 L 144.125 282.523438 L 143.136719 268.324219 L 147.199219 268.703125 L 148.292969 282.914062 L 151.058594 283.171875 L 152.695312 265.683594 Z M 156.757812 266.0625 "/>
<path style=" stroke:none;fill-rule:nonzero;fill:rgb(10.588235%,30.196078%,22.745098%);fill-opacity:1;" d="M 163.609375 265.769531 L 164.015625 286.910156 L 159.9375 286.988281 L 159.527344 265.847656 Z M 163.609375 265.769531 "/>
<path style=" stroke:none;fill-rule:nonzero;fill:rgb(10.588235%,30.196078%,22.745098%);fill-opacity:1;" d="M 191.191406 290.394531 C 191.128906 290.125 191.121094 289.859375 191.167969 289.59375 C 191.210938 289.332031 191.300781 289.089844 191.4375 288.863281 C 191.574219 288.640625 191.746094 288.453125 191.957031 288.296875 C 192.167969 288.140625 192.414062 288.03125 192.695312 287.96875 C 192.960938 287.90625 193.226562 287.894531 193.492188 287.941406 C 193.753906 287.984375 193.996094 288.078125 194.21875 288.222656 C 194.4375 288.363281 194.628906 288.539062 194.789062 288.757812 C 194.949219 288.972656 195.0625 289.214844 195.125 289.484375 C 195.1875 289.75 195.191406 290.019531 195.144531 290.28125 C 195.09375 290.546875 195 290.789062 194.863281 291.007812 C 194.726562 291.226562 194.550781 291.417969 194.335938 291.578125 C 194.121094 291.738281 193.878906 291.851562 193.609375 291.914062 C 193.328125 291.976562 193.0625 291.984375 192.800781 291.933594 C 192.542969 291.882812 192.300781 291.789062 192.082031 291.652344 C 191.863281 291.515625 191.675781 291.339844 191.519531 291.121094 C 191.363281 290.90625 191.253906 290.664062 191.191406 290.394531 Z M 186.292969 291.53125 C 186.230469 291.261719 186.222656 290.996094 186.269531 290.730469 C 186.3125 290.46875 186.40625 290.222656 186.546875 290 C 186.6875 289.773438 186.863281 289.585938 187.074219 289.429688 C 187.285156 289.273438 187.53125 289.164062 187.808594 289.097656 C 188.078125 289.035156 188.34375 289.027344 188.601562 289.074219 C 188.859375 289.121094 189.097656 289.214844 189.320312 289.355469 C 189.539062 289.496094 189.730469 289.675781 189.890625 289.890625 C 190.050781 290.105469 190.164062 290.347656 190.226562 290.617188 C 190.289062 290.886719 190.296875 291.152344 190.246094 291.417969 C 190.195312 291.683594 190.101562 291.925781 189.964844 292.144531 C 189.828125 292.363281 189.65625 292.550781 189.445312 292.710938 C 189.234375 292.871094 188.996094 292.984375 188.726562 293.046875 C 188.445312 293.109375 188.175781 293.117188 187.917969 293.066406 C 187.65625 293.015625 187.417969 292.921875 187.191406 292.785156 C 186.96875 292.652344 186.777344 292.472656 186.621094 292.257812 C 186.464844 292.042969 186.355469 291.796875 186.292969 291.53125 Z M 180.601562 280.78125 C 180.734375 281.359375 180.964844 281.878906 181.296875 282.34375 C 181.625 282.808594 182.089844 283.175781 182.683594 283.441406 C 183.273438 283.710938 184.011719 283.859375 184.894531 283.894531 C 185.777344 283.925781 186.839844 283.800781 188.078125 283.511719 C 189.566406 283.167969 190.75 282.824219 191.628906 282.484375 C 192.503906 282.144531 193.164062 281.808594 193.601562 281.480469 C 194.042969 281.148438 194.308594 280.828125 194.40625 280.519531 C 194.5 280.210938 194.511719 279.90625 194.445312 279.609375 C 194.378906 279.328125 194.242188 279.109375 194.035156 278.953125 C 193.824219 278.792969 193.570312 278.660156 193.269531 278.558594 C 192.964844 278.457031 192.628906 278.375 192.253906 278.308594 C 191.878906 278.246094 191.492188 278.167969 191.089844 278.078125 C 190.691406 277.988281 190.296875 277.875 189.90625 277.738281 C 189.511719 277.601562 189.152344 277.410156 188.816406 277.164062 C 188.480469 276.917969 188.183594 276.605469 187.921875 276.222656 C 187.660156 275.84375 187.464844 275.367188 187.332031 274.789062 C 187.15625 274.042969 187.121094 273.257812 187.226562 272.4375 C 187.332031 271.621094 187.59375 270.84375 188.015625 270.109375 C 188.4375 269.375 189.027344 268.71875 189.789062 268.140625 C 190.550781 267.566406 191.503906 267.144531 192.648438 266.878906 C 193.019531 266.792969 193.378906 266.734375 193.722656 266.707031 C 194.066406 266.675781 194.382812 266.660156 194.675781 266.660156 C 194.96875 266.65625 195.234375 266.667969 195.472656 266.695312 C 195.710938 266.722656 195.910156 266.746094 196.066406 266.769531 L 196.886719 270.3125 C 196.128906 270.316406 195.488281 270.355469 194.964844 270.425781 C 194.4375 270.496094 194.039062 270.5625 193.757812 270.628906 C 193.230469 270.75 192.789062 270.917969 192.433594 271.132812 C 192.078125 271.347656 191.796875 271.582031 191.589844 271.835938 C 191.378906 272.09375 191.242188 272.359375 191.179688 272.636719 C 191.121094 272.914062 191.117188 273.179688 191.175781 273.429688 C 191.242188 273.71875 191.382812 273.949219 191.601562 274.121094 C 191.816406 274.292969 192.082031 274.433594 192.390625 274.542969 C 192.699219 274.652344 193.042969 274.75 193.425781 274.828125 C 193.808594 274.90625 194.203125 274.984375 194.605469 275.070312 C 195.011719 275.152344 195.40625 275.253906 195.800781 275.375 C 196.191406 275.5 196.554688 275.664062 196.886719 275.875 C 197.21875 276.085938 197.511719 276.355469 197.765625 276.683594 C 198.019531 277.007812 198.199219 277.410156 198.3125 277.890625 C 198.511719 278.753906 198.527344 279.625 198.355469 280.5 C 198.183594 281.375 197.746094 282.210938 197.046875 283.011719 C 196.347656 283.8125 195.335938 284.554688 194.019531 285.238281 C 192.699219 285.921875 191 286.507812 188.914062 286.992188 C 187.0625 287.421875 185.429688 287.597656 184.015625 287.519531 C 182.601562 287.441406 181.390625 287.164062 180.382812 286.683594 C 179.375 286.203125 178.566406 285.554688 177.957031 284.734375 C 177.347656 283.914062 176.917969 282.972656 176.671875 281.90625 L 175.921875 278.679688 L 179.898438 277.757812 Z M 180.601562 280.78125 "/>
<path style=" stroke:none;fill-rule:nonzero;fill:rgb(10.588235%,30.196078%,22.745098%);fill-opacity:1;" d="M 212.804688 271.324219 C 213.007812 271.816406 213.125 272.316406 213.148438 272.824219 C 213.171875 273.332031 213.085938 273.820312 212.890625 274.289062 C 212.699219 274.761719 212.382812 275.199219 211.949219 275.601562 C 211.511719 276.007812 210.941406 276.355469 210.230469 276.652344 L 203.265625 279.542969 L 201.894531 276.238281 L 207.519531 273.902344 C 207.964844 273.71875 208.296875 273.527344 208.507812 273.332031 C 208.71875 273.136719 208.78125 272.925781 208.683594 272.699219 C 208.636719 272.582031 208.570312 272.46875 208.488281 272.363281 C 208.410156 272.257812 208.269531 272.132812 208.074219 271.984375 C 207.878906 271.835938 207.605469 271.640625 207.25 271.40625 C 206.894531 271.167969 206.421875 270.859375 205.824219 270.476562 L 202.140625 268.003906 L 204.625 264.425781 L 208.820312 267.4375 C 209.386719 267.84375 209.886719 268.21875 210.332031 268.566406 C 210.773438 268.910156 211.15625 269.238281 211.480469 269.542969 C 211.808594 269.851562 212.078125 270.148438 212.292969 270.4375 C 212.507812 270.730469 212.679688 271.023438 212.804688 271.324219 "/>
<path style=" stroke:none;fill-rule:nonzero;fill:rgb(10.588235%,30.196078%,22.745098%);fill-opacity:1;" d="M 224.011719 267.726562 C 224.34375 268.355469 224.488281 268.832031 224.441406 269.164062 C 224.394531 269.496094 224.1875 269.761719 223.824219 269.953125 L 222.648438 270.582031 C 222.023438 270.914062 221.414062 271.152344 220.824219 271.292969 C 220.234375 271.433594 219.667969 271.445312 219.117188 271.328125 C 218.570312 271.210938 218.050781 270.941406 217.558594 270.519531 C 217.0625 270.09375 216.605469 269.480469 216.175781 268.679688 L 208.460938 254.179688 L 212.0625 252.261719 L 219.523438 266.28125 C 219.695312 266.601562 219.859375 266.847656 220.019531 267.011719 C 220.183594 267.179688 220.34375 267.285156 220.507812 267.332031 C 220.671875 267.378906 220.847656 267.375 221.03125 267.320312 C 221.214844 267.269531 221.414062 267.183594 221.632812 267.066406 L 222.144531 266.796875 C 222.28125 266.722656 222.421875 266.664062 222.566406 266.621094 C 222.710938 266.578125 222.859375 266.578125 223.007812 266.628906 C 223.15625 266.679688 223.316406 266.785156 223.484375 266.953125 C 223.648438 267.121094 223.828125 267.378906 224.011719 267.726562 "/>
<path style=" stroke:none;fill-rule:nonzero;fill:rgb(10.588235%,30.196078%,22.745098%);fill-opacity:1;" d="M 225.789062 264.554688 L 221.058594 257.082031 L 224.507812 254.898438 L 231.148438 265.394531 L 224.675781 269.492188 C 224.535156 269.582031 224.394531 269.652344 224.253906 269.707031 C 224.113281 269.761719 223.964844 269.769531 223.8125 269.730469 C 223.660156 269.691406 223.496094 269.59375 223.320312 269.433594 C 223.140625 269.269531 222.945312 269.019531 222.726562 268.675781 C 222.347656 268.078125 222.167969 267.617188 222.191406 267.292969 C 222.214844 266.96875 222.40625 266.695312 222.761719 266.46875 Z M 218.257812 252.625 C 218.109375 252.394531 218.011719 252.144531 217.96875 251.878906 C 217.925781 251.617188 217.933594 251.355469 217.988281 251.097656 C 218.046875 250.839844 218.152344 250.601562 218.300781 250.386719 C 218.449219 250.167969 218.644531 249.984375 218.886719 249.832031 C 219.117188 249.683594 219.367188 249.589844 219.625 249.546875 C 219.882812 249.503906 220.140625 249.515625 220.394531 249.574219 C 220.648438 249.636719 220.886719 249.742188 221.113281 249.890625 C 221.335938 250.042969 221.519531 250.234375 221.667969 250.46875 C 221.816406 250.699219 221.910156 250.949219 221.949219 251.214844 C 221.988281 251.484375 221.980469 251.742188 221.925781 251.992188 C 221.867188 252.246094 221.765625 252.480469 221.621094 252.703125 C 221.476562 252.921875 221.285156 253.105469 221.050781 253.253906 C 220.808594 253.40625 220.558594 253.503906 220.296875 253.539062 C 220.035156 253.578125 219.777344 253.570312 219.519531 253.515625 C 219.265625 253.460938 219.027344 253.359375 218.808594 253.203125 C 218.589844 253.050781 218.40625 252.859375 218.257812 252.625 "/>
<path style=" stroke:none;fill-rule:nonzero;fill:rgb(10.588235%,30.196078%,22.745098%);fill-opacity:1;" d="M 139.441406 206.78125 L 139.441406 221.785156 L 136.539062 221.785156 L 136.539062 209.679688 L 134.839844 209.679688 L 134.839844 206.78125 Z M 139.441406 206.78125 "/>
<path style=" stroke:none;fill-rule:nonzero;fill:rgb(10.588235%,30.196078%,22.745098%);fill-opacity:1;" d="M 148.484375 211.972656 C 148.484375 212.5 148.671875 212.953125 149.054688 213.332031 C 149.425781 213.707031 149.875 213.894531 150.402344 213.894531 C 150.929688 213.894531 151.378906 213.707031 151.753906 213.332031 C 152.132812 212.953125 152.324219 212.5 152.324219 211.972656 L 152.324219 211.292969 C 152.324219 210.765625 152.132812 210.316406 151.753906 209.941406 C 151.378906 209.566406 150.929688 209.382812 150.402344 209.382812 C 149.875 209.382812 149.425781 209.566406 149.054688 209.941406 C 148.671875 210.316406 148.484375 210.765625 148.484375 211.292969 Z M 146.113281 219.476562 L 148.621094 218.023438 C 149.078125 218.804688 149.667969 219.195312 150.402344 219.195312 C 150.929688 219.195312 151.378906 219.007812 151.753906 218.632812 C 152.132812 218.253906 152.324219 217.804688 152.324219 217.285156 L 152.324219 216.394531 C 151.710938 216.660156 151.070312 216.792969 150.402344 216.792969 C 149.078125 216.792969 147.941406 216.324219 147.003906 215.382812 C 146.054688 214.4375 145.582031 213.300781 145.582031 211.972656 L 145.582031 211.292969 C 145.582031 209.964844 146.054688 208.832031 147.003906 207.890625 C 147.941406 206.945312 149.078125 206.46875 150.402344 206.46875 C 151.730469 206.46875 152.863281 206.945312 153.804688 207.890625 C 154.75 208.832031 155.226562 209.964844 155.226562 211.292969 L 155.226562 217.285156 C 155.226562 218.605469 154.75 219.738281 153.804688 220.683594 C 152.863281 221.625 151.730469 222.097656 150.402344 222.097656 C 148.5625 222.097656 147.132812 221.222656 146.113281 219.476562 "/>
<path style=" stroke:none;fill-rule:nonzero;fill:rgb(10.588235%,30.196078%,22.745098%);fill-opacity:1;" d="M 166.167969 206.78125 L 162.253906 215.34375 L 164.738281 215.34375 L 164.738281 211.800781 L 167.636719 211.800781 L 167.636719 215.34375 L 168.769531 215.34375 L 168.769531 218.246094 L 167.636719 218.246094 L 167.636719 221.785156 L 164.738281 221.785156 L 164.738281 218.246094 L 158.484375 218.246094 L 158.484375 216.613281 L 162.976562 206.78125 Z M 166.167969 206.78125 "/>
<path style=" stroke:none;fill-rule:nonzero;fill:rgb(10.588235%,30.196078%,22.745098%);fill-opacity:1;" d="M 171.878906 219.476562 L 174.386719 218.023438 C 174.847656 218.804688 175.441406 219.195312 176.167969 219.195312 C 176.695312 219.195312 177.144531 219.007812 177.519531 218.632812 C 177.898438 218.253906 178.089844 217.804688 178.089844 217.285156 L 178.089844 216.59375 C 178.089844 216.066406 177.898438 215.617188 177.519531 215.242188 C 177.144531 214.871094 176.695312 214.683594 176.167969 214.683594 C 175.394531 214.683594 174.800781 215.082031 174.386719 215.882812 L 172.21875 215.292969 L 173.15625 206.78125 L 180.210938 206.78125 L 180.210938 209.679688 L 175.777344 209.679688 L 175.578125 211.8125 C 175.804688 211.785156 176.003906 211.773438 176.167969 211.773438 C 177.496094 211.773438 178.632812 212.246094 179.582031 213.191406 C 180.527344 214.132812 181 215.265625 181 216.59375 L 181 217.285156 C 181 218.605469 180.527344 219.738281 179.582031 220.683594 C 178.632812 221.625 177.496094 222.097656 176.167969 222.097656 C 174.328125 222.097656 172.898438 221.222656 171.878906 219.476562 "/>
</g>
</svg>
