<?xml version="1.0" encoding="UTF-8"?>
<svg xmlns="http://www.w3.org/2000/svg" version="1.1" xmlns:cc="http://creativecommons.org/ns#" xmlns:dc="http://purl.org/dc/elements/1.1/" xmlns:inkscape="http://www.inkscape.org/namespaces/inkscape" xmlns:rdf="http://www.w3.org/1999/02/22-rdf-syntax-ns#" xmlns:sodipodi="http://sodipodi.sourceforge.net/DTD/sodipodi-0.dtd" xmlns:svg="http://www.w3.org/2000/svg" viewBox="0 0 400 400">
  <defs>
    <style>
      .cls-1 {
        fill: #2b2933;
      }

      .cls-2 {
        fill: #1e1c26;
      }

      .cls-3 {
        fill: #656469;
      }

      .cls-4 {
        fill: #46464c;
      }

      .cls-5 {
        fill: #f9c904;
      }

      .cls-6 {
        fill: #70664a;
      }

      .cls-7 {
        fill: #1f130f;
      }

      .cls-8 {
        fill: #523d18;
      }

      .cls-9 {
        fill: #424048;
      }

      .cls-10 {
        fill: #382c17;
      }

      .cls-11 {
        fill: #322a18;
      }

      .cls-12 {
        fill: #ebc32a;
      }

      .cls-13 {
        fill: #233765;
      }

      .cls-14 {
        fill: #24232c;
      }

      .cls-15 {
        fill: #71581a;
      }

      .cls-16 {
        fill: #3b3a41;
      }

      .cls-17 {
        fill: #233766;
      }

      .cls-18 {
        fill: #fcfcfc;
      }

      .cls-19 {
        fill: #45434b;
      }

      .cls-20 {
        fill: #f8c906;
      }

      .cls-21 {
        fill: #e3e2e4;
      }

      .cls-22 {
        fill: #564718;
      }

      .cls-23 {
        fill: #0e6f49;
      }

      .cls-24 {
        fill: #3d3019;
      }

      .cls-25 {
        fill: #0e6f48;
      }

      .cls-26 {
        fill: #261f12;
      }

      .cls-27 {
        fill: #10704a;
      }

      .cls-28 {
        fill: #36343d;
      }

      .cls-29 {
        fill: #f3c406;
      }

      .cls-30 {
        fill: #231d18;
      }

      .cls-31 {
        fill: #ebeaec;
      }

      .cls-32 {
        fill: #1f1e27;
      }

      .cls-33 {
        fill: #35343b;
      }

      .cls-34 {
        fill: #fdf6da;
      }

      .cls-35 {
        fill: #8d7f4b;
      }

      .cls-36 {
        fill: #fac905;
      }

      .cls-37 {
        fill: #fcc909;
      }

      .cls-38 {
        fill: #2d2c34;
      }

      .cls-39 {
        fill: #8a7a4d;
      }

      .cls-40 {
        fill: #dfb30f;
      }

      .cls-41 {
        fill: #302f38;
      }

      .cls-42 {
        fill: #515055;
      }

      .cls-43 {
        fill: #0c6e47;
      }

      .cls-44 {
        fill: #2a2932;
      }

      .cls-45 {
        fill: #f8c905;
      }

      .cls-46 {
        fill: #1a3472;
      }

      .cls-47 {
        fill: #6f5716;
      }

      .cls-48 {
        fill: #65531b;
      }

      .cls-49 {
        fill: #282315;
      }

      .cls-50 {
        fill: #112d6e;
      }

      .cls-51 {
        fill: #fbfbfb;
      }

      .cls-52 {
        fill: #0d6e48;
      }

      .cls-53 {
        fill: #0f7049;
      }

      .cls-54 {
        fill: #e1b60f;
      }

      .cls-55 {
        fill: #1a1821;
      }

      .cls-56 {
        fill: #fbd021;
      }

      .cls-57 {
        fill: #0d6f48;
      }

      .cls-58 {
        fill: #0f6f49;
      }

      .cls-59 {
        fill: #4d5055;
      }

      .cls-60 {
        fill: #3a3940;
      }

      .cls-61 {
        fill: #755c0e;
      }

      .cls-62 {
        fill: #3e755f;
      }

      .cls-63 {
        fill: #c3c2c6;
      }

      .cls-64 {
        fill: #112d6d;
      }

      .cls-65 {
        fill: #eec210;
      }

      .cls-66 {
        fill: #201f28;
      }

      .cls-67 {
        fill: #6f7ea8;
      }

      .cls-68 {
        fill: #243766;
      }

      .cls-69 {
        fill: #7b641c;
      }

      .cls-70 {
        fill: #101218;
      }

      .cls-71 {
        fill: #f5c60a;
      }

      .cls-72 {
        fill: #34333b;
      }

      .cls-73 {
        fill: #c1a331;
      }

      .cls-74 {
        fill: #282730;
      }

      .cls-75 {
        fill: #333139;
      }

      .cls-76 {
        fill: #fbfcfc;
      }

      .cls-77 {
        fill: #2d2b34;
      }

      .cls-78 {
        fill: #15131d;
      }

      .cls-79 {
        fill: #201a17;
      }

      .cls-80 {
        fill: #42765d;
      }

      .cls-81 {
        fill: #607a45;
      }

      .cls-82 {
        fill: #6b6a70;
      }

      .cls-83 {
        fill: #251e12;
      }

      .cls-84 {
        fill: #fdcb01;
      }

      .cls-85 {
        fill: #112c6d;
      }

      .cls-86 {
        fill: #dab22f;
      }

      .cls-87 {
        fill: #72674a;
      }

      .cls-88 {
        fill: #856822;
      }

      .cls-89 {
        fill: #434249;
      }

      .cls-90 {
        fill: #25242e;
      }

      .cls-91 {
        fill: #e3ba1a;
      }

      .cls-92 {
        fill: #424957;
      }

      .cls-93 {
        fill: #443816;
      }

      .cls-94 {
        fill: #3b3941;
      }

      .cls-95 {
        fill: #392e18;
      }

      .cls-96 {
        fill: #cfac26;
      }

      .cls-97 {
        fill: #d4ac0e;
      }

      .cls-98 {
        fill: #f4c806;
      }

      .cls-99 {
        fill: #070e18;
      }

      .cls-100 {
        fill: #191720;
      }

      .cls-101 {
        fill: #fdcb02;
      }

      .cls-102 {
        fill: #fccb04;
      }

      .cls-103 {
        fill: #13121b;
      }

      .cls-104 {
        fill: #1f1916;
      }

      .cls-105 {
        fill: #2c231b;
      }

      .cls-106 {
        fill: #352717;
      }

      .cls-107 {
        fill: #12714b;
      }

      .cls-108 {
        fill: #393840;
      }

      .cls-109 {
        fill: #322919;
      }

      .cls-110 {
        fill: #24232b;
      }

      .cls-111 {
        fill: #f7c905;
      }

      .cls-112 {
        fill: #fefefe;
      }

      .cls-113 {
        fill: #fecb01;
      }

      .cls-114 {
        fill: #26252e;
      }

      .cls-115 {
        fill: #3c465d;
      }

      .cls-116 {
        fill: #f6c807;
      }

      .cls-117 {
        fill: #2d2b33;
      }

      .cls-118 {
        fill: #f6c608;
      }

      .cls-119 {
        fill: #221c1d;
      }

      .cls-120 {
        fill: #1d1c25;
      }

      .cls-121 {
        fill: #142e6c;
      }

      .cls-122 {
        fill: #3e3d45;
      }

      .cls-123 {
        fill: #4b3b18;
      }

      .cls-124 {
        fill: #48795a;
      }

      .cls-125 {
        fill: #4b4951;
      }
    </style>
  </defs>
  <!-- Generator: Adobe Illustrator 28.6.0, SVG Export Plug-In . SVG Version: 1.2.0 Build 709)  -->
  <g>
    <g id="Layer_1">
      <g>
        <path class="cls-113" d="M140.9,144c3.7-4,3.8-8.7,3.1-13.7-.3-2.4-.7-5,.7-7.3,1.2-2,2.1-4.1,5.3-3.2,2.6.7,5.6.9,5.9-3.1.3-4.2-3.2-4.4-5.8-4.3-3.4,0-5.7-.3-5.3-4.4.2-.1.4-.3.6-.4,5.6-1.8,9.6-5.9,13.6-9.9,2.4-2.3,4.8-3.6,7.9-1.2,12.3,8.9,25.4,16.5,38.5,24.2,4.8,2.8,5.3,3.6,3.3,8.8-3.4,9.2-6.3,18.6-8.5,28.2-.6,2.9-.5,5.6.3,8.4.8,2.6.2,4.6-2.4,5.8-10.2,4.3-19.7,9.8-29.3,15.2-1.1,1.6-4.4-1.4-4.5,2.2-.3.6-.8,1.1-1.4,1.4-1.4.3-2.9.2-3.4,2-.1.4-.4.7-.6,1.1-.9.8-1.8,1.7-2.6,2.7-.3.3-.7.5-1.1.6-2.5.1-3,2.1-3.6,4-2.3,3.2-5.2,5.7-8.9,7.2-8.3-1.6-16.7-1.7-25.1-1.2-.8,0-1.6-.2-2.2-.9-.6-5.1-2.6-10.6-1.3-15.2,1.9-7.3-.7-14-.4-21,.2-4.6-2.7-9-1-13.7,1.3-4.6,1.4-9.4,2-14.2h0c1.9-1.2,3.3-6,6.2-.9h0c1.6,1.4-2.6,3.3.1,4.4,2.8,1.2,4.6-1.6,6.8-2.6h-.1c.7-.4,1.8-1,2.2-.4,3.2,4.6,7.1,2.5,11,1.5Z"/>
        <path class="cls-113" d="M257,113.8c-.1,3.8-.3,7.7-.4,11.5,0,1.8.5,4.1-.4,5.4-3.8,5.5-1.2,8.4,2.9,12.4,6.1,5.8,9.4,13.3,8.1,22.3-.4,2.6-.6,5.3,1.4,7.6.7.7.7,1.8.5,2.8-.9,5.3,3.2,8.5,8.5,6.8,1.2-.4,2.6-2.5,3.4-1.2,1.4,2.4,5.3,3.9,4.8,5.9-1.2,4.9,1.1,8.7,2.2,12.9.5,2,.2,4.3.2,6.5-1.2,1.4-2.8.7-4.2.5-11.8-1.7-23.2-1.1-33.9,4.8-1.4.8-3,1.6-4.7,1.5-2-.6-2.7-2.3-3.5-4-5.7-12.3-14.2-22.1-25.5-29.6-3.8-2.5-7.6-4.8-11.1-7.8-4.6-3.9-6.6-8.7-5.2-14.7,2.4-10.3,5.4-20.3,9.4-30.1.8-1.9,1.9-3.5,3.7-4.6,6.4-4,12.9-7.6,20.3-9.5,4.5-1.2,8.9.4,13.4.3,3.2,0,6.6-1.6,9.8.2Z"/>
        <path class="cls-113" d="M157,72.9c-2.3-.6-3.7-2.1-4.6-4.3-.5-1.2-.5-3.1.3-3.2,6.7-1.2,1.6-7.7,4.8-10.4.3-.3.2-1.3.1-1.9-.4-2.8-2.9-6.6,3.2-5.8.7-4.4,9.7-4.6,5.9-11.5-.6-1.2,0-3,0-4.5-.2-3.1,1-4,4.1-3.9,2.8.1,6.6,1.4,6.6-4,0-1.8,2.4-1.9,4.2-1.3,4.2,1.4,5.8-.8,6.6-4.5.9-4.4,6.3-8.7,10.8-9,.8,0,2,.2,2.4-.3,4.4-4.9,8.1-1.5,12.1.6,2.5,1.3,5,2.4,8,2.7,2.8.3,5.7,2.1,4.8,5.3-2.2,7.3,3,11.1,6.6,15.8.8,1,1.2,1.9,1.1,3.2-.1,1.9-1.8,4.1,0,5.7,2.4,2,5.2,3.7,8.5,3.9,2.7.2,5.4.6,8,.1,5.7-1,9.9,3.9,15.4,3.4.4,0,1.1.6,1.1.9-.9,6.3,6,11.2,3.2,17.9-.6,1.4-.4,2.9,0,4.4.6,2.5,1.9,5.1-2.1,6.3-1.5.4-.4,2.8-1.4,4-4.4.4-7.9-2.3-11.8-3.6-11.4-3.8-23.2-5.9-35-8.3-3.3-1.1-6.8-.2-10.1-.8-6.8-1.2-13.5-.8-20.3-.3-9.7.8-19.4,1.8-29,3.7-1.2.2-2.3.2-3.4-.2Z"/>
        <path class="cls-84" d="M272.4,322.7c2.2.1,4.7-.9,6,2.2.8,1.8,2.8-.8,4,.5.4,2.1-1.4,2.5-2.6,3.2-19.9,11.5-41.3,18.3-64.2,20.4-20.3,1.9-40.2,0-59.6-6.2-.2-3,4.2-1.8,4.2-4.5,1.6-2.9,4.4-2.9,7.2-2.9,2.3,0,4.6.4,6.3-1.7.9-.9.6-1.8,0-2.7-.3-.5-.6-1.1-.9-1.5-1.2-1-1.4.4-2,.9-.4.6-1,.9-1.7,1-.5,0-.9-.2-1.3-.5-.4-.6-.7-1.3-.8-2-.1-1.4-.7-2.8-.6-4.2-.4,1.1,0,2.2,0,3.4,0,1.4.3,2.8.4,4.2-.2,2.9-2.2,3.5-4.6,3.6-1.2,0-2.1.3-2.2,1.7-.1.4-.3.8-.5,1.2-.3.4-.6.6-1,.8-1.1.4-2.2.5-3.3.8-1.7.8-3.4,1.5-5.3.5-9.9-2.7-18.8-7.4-27.6-12.4-4.5-2.6-8.6-5.8-12.9-8.5-2.2-1.4-1.9-2.3-.4-4.2,3.7-4.6,8.9-7.4,12.7-11.8,1.3-1.5,3.3-1.4,5.2-1.3,2.5.1,4.6-.6,6-2.8,3.9-2.9,8.7-3.1,13.1-4.3,3.1,1.4,4.8-1.7,7.3-2.3,3.4.7,4.2,3.5,5.2,6.3-1.9,3.6,2.6.6,2.5,2.4,6,4.7,10.8,10.9,18.1,14,5.1,2.2,10.6,3,15.8,5,4,.9,8,.7,12,0,15.9-3,28.4-11,36.6-25.1,2.1-3.6,4.4-4.7,8-2.2,2.7,1.9,6.9,1.3,8.8,4.8-2.1,7-7.1,12.1-12,17-3.4,3.4-3.9,7.4-4.8,11.5-.2.9-.2,2.1,1,2.6,1.3.6,2.2-.3,2.9-1.3.5-.7,1-1.5,1-2.2,0-5.5,3.9-7.9,7.6-10.7,3.8-2.9,7.4-3.9,10.9.2,1.5,1.8,3.2,1.5,5,1.1,1.8-.4,3.4-1.1,5.6-.3-1,3.2-4.3,3.7-6.1,5.6-.9,1.7-2.9,2.1-4.6,3.8,2.7-.2,3.4-3.1,5.6-2.9Z"/>
        <path class="cls-43" d="M146.7,296.5c-4.7,1.1-9.3,2.2-14,3.3-4,0-8-.6-11.9.5-9.4,0-17.6-3.6-24.9-9.2-23.5-18.1-26.6-48.5-7.2-70.9,4.3-4.9,9.5-8.9,16-10.8,1.4.1,2.8-.1,3.8-1.2.7-1.3,1.7-2.1,3.2-1.9,1.3,1.3,2.4.4,3.6-.2,9.5-1.9,18.8-1.2,28.1,1.1,1.5-.7,2.6.5,3.9.9,1.9.8,3.8,1.6,5.6,2.6,3,1.7,5.9,3.6,8.4,6.1,1.5,1.5,3,3,4.5,4.5,3.5,3.1,4.6,9.6,8.5,10.4,3.5.8,8-3.1,12.4-4.2,4.5-1.1,9.1-1.8,13.7-1.9.7.1,1.4.3,2.1.5,1.4.2,2.9.1,4.3.1.7,0,1.4,0,2.1.1,5.4,1.1,10.7,2.5,15.6,5.2,2,1.1,2.9.7,3.8-1.2,1.9-4.1,5.1-7.4,7.8-11,1.5-1.8,3.5-2.9,5.3-4.3,1.1-.8,2.2-1.6,3.7-1.5,13.5-8.4,27.9-10.3,43.2-6.4,1.2.6,2.5,1.9,3.7,0,7.8,3.3,14.8,7.9,20.4,14.4,1.1,1.3,2.3,2.4,2.6,4.1.3,1.4.8,2.7,2.4,3.2,5,4.6,6.2,11,7.1,17.2,4.3,27.8-19.4,55.1-47.5,55.3-2.8,0-5.7,0-8.5,0-2,0-4-.2-5.2-2.2-1-.1-2.1-.2-3.1-.4-.3-.2-.6-.4-.9-.5-4.4-1-8.8-5.4-12.3-4.5-3.1.8-4.6,6.9-7.4,10.1-8.5,10-19.3,16.4-32.5,18.1-4.3.8-8.7.8-13,0-13.6-2.3-25-8.6-33.9-19.2-.9-.8-1.5-1.9-2.2-2.8-1.8-1.9-1.6-5.5-5-6.1-2,1.1-4,2.2-6.2,2.8Z"/>
        <path class="cls-84" d="M266.6,83.8c.3,2.3,1.6,3.2,3.9,3.9,5.8,1.8,1.8,6.2,2,9.5.1,2.5-1.5,1.9-3,1.7-1-.2-2-.1-2.1-1.5-.4-4.7-3.5-3.3-6.2-2.7-1.3.3-2.2,2.3-1.8,2.3,4.9.6.2,7.9,5.4,7.8,1.1,0,2.6-3.4,3.1.2.3,2.4-.2,5.2-3.3,5.8-2.3.4-4.6.2-7,.2-3.7,2.9-8.2,2.9-12.4,2.3-9.2-1.4-17.6.6-25.3,5.6-6.2,4-11.4,3.9-17.8-.2-10.5-6.8-21.4-12.8-31.7-19.9-1.6-1.1-3.4-2.2-4.6-3.8-1.4-2.1-1-4.2.6-6,3.9-4.6,7.2-9.6,10.2-14.9,1.4-2.4,3.4-3.5,6.1-3.8,9.6-1.2,19.3-1.3,29-.5,2.6.8,5.4.3,8,.8.8,0,1.6.1,2.4.2,1.7.7,3.6.9,5.4.9,11.3,2.4,22.6,4.8,33.3,9.2,2,.8,4,1.6,5.8,2.9Z"/>
        <path class="cls-64" d="M315.1,225.2c-6.3-6.4-12.4-13-21.1-16.3-.8-.3-1.3-1.4-1.9-2.2.4-6.8-3.8-12.7-2.9-19.9.7-5-7.1-9.2-12.4-7.7-2.5.7-3.7.5-4.6-2.9-2.3-9-.3-18.7-4.4-27.4-2-4.1-5.1-7.4-8.7-10.1-1.8-1.4-2.6-2.2-.7-4.2,1.9-1.9,1.2-4.7,1.4-7.2.3-3.5-.7-7,.6-10.9,8,3.2,15.6,7.4,23.9,9.8,1.1.3,1.8,1.9,2.6,3,9.4,13,19,25.8,28.2,39,7.6,11,10,23.9,12.2,36.7.3,1.8-.7,2.8-1.7,3.9-4.3,5-7.7,10.5-10.7,16.3Z"/>
        <path class="cls-64" d="M263.3,298.7c17.7,3.2,33.6-.5,46.4-13.6,15.7-16.1,18.1-34.6,8.4-54.7-.3-.6-.4-1.3-.6-1.9,4.4-9.5,9.5-18.2,19.3-23.4,4.4-2.4,8.2-6.1,12.7-9.6,2.2,20,0,38.8-6.3,57.2-10,29.3-28.6,52.1-53.7,69.8-.9.6-2.7,3.2-3.4.7-.9-3.1-8.9,1.2-5.3-5.7,1.3-2.6-1.1-4.9-3.6-4.5-4.8.7-8.9-.3-13-2.8-1.6-1-4.2-.4-6.9-.5,3.1-3.2,5.1-6.8,6-10.8Z"/>
        <path class="cls-85" d="M104.8,209.3c-3.1,2.2-6.3,4.3-9.3,6.6-21.9,17.1-24.3,48.8-4.9,68.9,6.7,6.9,15,11.6,24.5,13.7,1.9.4,3.8,1.1,5.7,1.7-4.6,4.5-10.1,8.1-14.2,13.2-1.7,2.1-2.9,2.4-5.2.4-20.5-17.6-35.2-39-43.9-64.7-1.1-3.3.4-5.7,1-8.5,2.3-11.8,5.3-23.4,10.1-34.5,2.1-4.9,4.7-9.6,8.2-13.7,1.6-1.9,2.9-2.6,5.3-.7,7.4,6,15,11.6,22.6,17.4Z"/>
        <path class="cls-64" d="M294.9,98.6c15.7,12,27.9,26.3,37.5,43,8,13.9,13.1,28.8,16,44.5.6,3.5.4,6.1-3.1,8.3-4.8,3.2-8.9,7.4-14.3,10.4-1.3-5.8-2.5-11.3-3.7-16.7-2.8-12.3-9.4-22.6-17-32.5-6.8-8.9-13.1-18.1-19.8-27.1-1.9-2.6-2.2-4.7-1.3-7.8,2.1-7.1,3.7-14.4,5.7-22.1Z"/>
        <path class="cls-64" d="M111.9,206.2c-1.1.6-2.2,1.3-3.2,1.9-7.1-5.5-14.1-11.4-21.5-16.4-4.6-3.1-6.1-7.1-6.4-12.2-.6-9.9,1.9-19.2,5.3-28.4,7.3-19.7,11.4-23.6,31.4-29.5,2.9-.8,5.7.6,7.8,1.7,2,1-.3,4.2-.6,6.4-.2,1.4-1.1,1.9-2.8,1.9-5.9,0-9.8,4.1-10.9,10.2-2.3,13-1.5,25.9,1,38.7.6,3.2-1.1,5.8-1.1,8.8,0,5.7,2,11.2,1.2,16.9Z"/>
        <path class="cls-64" d="M55.4,238.7c-9.6-43.1-1-81.9,26.4-116.4,1.7-2.1,2.6-2.1,4.5-.3,6.6,6.2,6.5,6,2.6,14.1-6.7,13.8-12.5,27.9-11.2,43.6.4,5.1-.8,8.2-4.1,12-8.4,9.7-11.7,22-15,34.1-1.2,4.3-2.2,8.6-3.2,12.9Z"/>
        <path class="cls-52" d="M52.6,280.5c-2.2-2.3-5.1-3-8-4-4.7-1.7-5.7-2.9-6.8-7.7,2.6.8,6.1,3.7,7.4.9,1.3-2.8-2.9-4.2-5.3-5.4-5.7-2.9-6.9-4.1-8.4-9.4,1.1.2,2.1.4,3.2.6,2,.4,4.8,2,5.7-.8.8-2.4-1.7-4.1-3.9-5.1-2.6-1.1-4.5-2.9-6.2-4.9-1-1.1-2.1-2.6-1.4-4,.6-1.2,2.1-.2,3.2-.4,1.2-.2,3.1.7,3.3-1.1.2-1.7-1.6-1.6-2.9-1.9-5.1-1.2-7.7-4.7-7.3-9.7,0-.9-.1-2.2,1-2.6,1.2-.4,1.7.7,2.4,1.4.4.5.7,1.1,1.2,1.6,1.4,1.3,3.2,1.9,4.4.3,1.2-1.6-.8-2.6-1.8-3.5-.6-.5-1.4-.8-2.2-1.2-7-3.2-8-5.6-5.1-13.2.7,1,1.2,1.8,1.7,2.6,1.7,2.4,3.9,3,5.9.9,2-2.1,0-3.9-1.7-4.8-6.2-3.6-7.1-9.2-6-16.3,3.1,2.8,4.4,8,9.7,6.4,2.3.7,4.4,3,6.9.6,1-1,1.7-2.4,3.7-2.7,1,4.7.4,8.6-4,11.2-.1,0-.3.2-.4.3-1.7,1.3-4.6,3.1-3.1,4.9,1.7,2.1,3.5-1,5.1-2.2.4-.3.8-.5,1.2-.8,2.4,5.3,1.8,7.8-2.6,11.1-2,1.5-5.9,3.2-4.1,5.7,2,2.8,4.6-.2,6.6-2,2.1-1.9,2.4-.3,2.8,1.3.9,3.5-1.2,5.6-3.5,7.7-1.6,1.4-3.6,2.7-3.6,5.1,0,1.1,1,1.3,1.8,1.3,2.6,0,3.7-2,4.8-3.9.2-.4.6-.7,1.1-1.3,2.6,3.3,2,6.5.2,9.7,0,2.4-3.1,4-1.9,6.7,3.1,0,.7-6,5.1-4.3,4.3,6,4.2,8.9-.5,14.8-.5.6-1,1.3-1.3,2.1-.6,1.5-1.9,3.1.2,4.3,1.9,1.1,3-.5,4-1.8.8-1,1.4-2.2,2.1-3.4,4.9,4.7,4.8,5.5-.3,12.9-1.7.8.8,3.8-2,4Z"/>
        <path class="cls-64" d="M139.7,78.9c-.5,3.1-1.7,5.9,0,8.6.5.8,0,1.6-.5,2.3-4.3,4.7-2.4,9.3-.1,14.1.7,1.4,3.1,3,.9,4.7-2,1.6-4,1.4-5.9-1-1.8-2.3-4.8-1.7-5.8.7-2.3,5.6-7.6,7.5-12,10.2-5.2,3.2-11.3,4.8-16.9,7.4-2.4,1.1-3.8.5-5.6-1.2-8-7.6-8.1-7.5-.3-15.1,13.4-13.1,28.7-23.2,46.3-30.7Z"/>
        <path class="cls-52" d="M374.6,233.7c-.4,7.6-1.8,9.3-8.7,11.1-.9.2-2.2.2-2.2,1.5,0,1.4,1.3,1.3,2.3,1.3,1.5.1,2.9,0,4.5,0,0,4.2-2.8,6.3-6,8.1-.7.4-1.6.5-2.3,1-2,1.3-5.3,2.5-3.9,5.4,1.2,2.6,4.1.9,6.3.3.6-.2,1.2-.4,2.2-.8-.1,4.4-2.7,6.5-5.9,8.1-3.2,1.7-6.6,3.1-9.2,5.8-2.9-.2-.8-3-2-4-3-3.7-6.8-7.1-4.4-12.8.9-2.3,2.1-4,4.9-5.4.2,2.3.3,4.2.6,6,.2,1.3,1.1,2.2,2.4,2,1.1-.1,1.5-1.1,1.7-2.2.5-2.7-.7-4.8-2.5-6.7-2.8-3.1-3.2-6.4-.7-10,.4.2.8.2.9.4,1.5,1.9,1.9,4.8,5.2,4.7.8,0,1.9,0,1.8-1.2-.3-2.7-2.1-4.6-4-6.1-3.4-2.7-3.4-5.8-1.3-9.5,1.5,1.4,2.9,2.8,4.5,3.9,1.1.8,2.6,1,3.6-.2.9-1.1.2-2.3-.6-3.1-.9-1-1.9-1.9-3-2.7-4.4-2.9-4.8-6.7-2.8-11.3,2,.3,2.6,2.3,4.1,3,.9.4,1.7,1.3,2.7.3.8-.9.3-2-.3-2.8-.7-.9-1.6-1.7-2.6-2.4-4.5-2.9-5.2-6.9-3.9-11.6,3.3,0,4.6,6.8,8.7,2.2.3-.6.7-.6,1.1,0,5.1,1.6,7.6-1.8,9.9-5.6,2,6.4.3,11.4-4.7,14.9-.3.2-.5.4-.8.6-1.6,1-3.1,2.1-3,4.3,0,1.4,1,2,2.3,2.2,2.1.3,3.5-.6,4.5-2.4.3-.5.7-1,1.4-2,1.7,5.1,1.6,9.2-2.8,12.4-1.1,1.7-3.4,2-4.7,3.6,2.4,1.4,4.1-4.5,6.5-.3Z"/>
        <path class="cls-57" d="M91.9,325.6q4.9,1.2,5.2-7.9c5.3,1.7,5.8,6.2,6.8,10.6.5,2.2-1.4,6.2,1.8,6.3,3.4.1,1.7-3.9,2.2-6.1.2-.8-.3-1.8.6-2.2,1.1-.5,1.9.3,2.6,1,2.3,2.3,3.6,5,3.6,8.5,0,2.1-.9,5.7,2.2,5.7,2.7,0,1.7-3.3,1.9-5.3,0-.3.2-.6.3-1.2,4.7,2,6.9,5.6,7,10.5,0,1.9.6,3.6,2.7,3.4,2.6-.3,1.3-2.5,1.2-4,0-1.3-2.3-2.9-.3-3.9,1.7-.9,3.6.1,5.1,1.3,2.6,2.1,3.4,5.2,4.1,8.4.3,1.5.4,3.4,2.4,3,1.7-.4,1.7-2.2,1.4-3.8-.3-1.4-1.1-2.8-.4-4.5,7.6,1.9,7.5,10.1,11.8,14.6.2.9,0,1.4-1.1,1.1-3.8,1.1-6.9,4-11.2,3.8-2,0-3.8-.5-5.5-1.2,0-.6,0-.8.2-.9,1.6-1.6,6.1-1.5,4.3-4.8-1.9-3.4-4.5-.4-6.6,1-4.7,3.2-6.8,2.8-12-2.7,1-1.6,5.2-.7,3.8-3.9-1.2-2.8-4-1.9-6.1-1.1-4.9,2-9,1-12.7-2.9,2-1.2,3.7.4,5.5,0,1.6-.3,3-.9,3.2-2.7.3-2.1-1.6-2.3-3-2.7-1.7-.5-3.3,0-4.9.5-3.7.9-7.2.5-10.7-2.1.7-.3,1.1-.5,1.4-.6,1.9-.2,4.2-.5,3.5-3-.6-2.1-2.7-2.1-4.6-1.5-5.4,1.6-9.3-.4-12.3-4.8,1.5-2.4,7.1.9,5.7-4.7-.2-1,.1-1.5,1.2-1.1Z"/>
        <path class="cls-52" d="M241.3,359.9c2.4-5,4.1-10.6,10.7-12.2.2,3-2.8,7,.5,7.9,3.4.9,2.3-3.8,3.5-5.9,2.1-3.8,4.5-6.6,9.3-5.7.3,1.8-1,3-1.3,4.4-.4,1.4-1.4,3.1.9,3.6,1.7.4,2.8-.7,3-2.5.3-3.8,1.7-7.1,4.9-9.5.8-.6,1.7-.9,2.4-1.3,1.5.8.6,1.9.8,2.7.3,1.5-.7,3.9,1.7,3.9,2,0,2.1-2.4,2.3-4,.4-3.5.5-7,3.4-9.6.9-.8,1.8-1.8,3-1.2,1,.5.8,1.7.9,2.7.2,2-1.2,5.4,1.5,5.5,3.3.2,1.7-3.6,2.2-5.5,1.1-4.5,1.9-9.1,7.4-11.3.2,3.1-.6,5.7.3,8.3,1.9,1.3,4.9,1.2,5.2,4.4,1.8.4,3.6.7,5.3,1.1-1.9,4.4-5.6,6.6-10,5.8-1.1-.2-2.2-.6-3.4-.8-1.3-.1-2.9-.6-3.4,1.2-.5,1.9.7,2.7,2.4,3.1.6.1,1.1.5,2.3,1-3.4,2.4-6.7,2.1-9.9,1.8-.5,0-1-.2-1.4-.4-2.3-.9-4.6-1.2-6.7.3-.9.7-.9,1.8-.3,2.7,1.6,2.5,4.1,1.5,6.4,1.4.5,0,1,0,1.5,0-2.6,3.6-7.2,5-11.5,3.6-.5-.2-.9-.4-1.4-.6-2.2-1.2-5.1-1.8-6.1.7-1.2,2.9,2.2,2.9,4,3.8-5.4,5.8-7.6,6-13.4,1.4-1.8-1.5-3.9-2.9-5.5-.5-1.7,2.5,1,3.3,2.6,4.3.5.3,1.1.6,1.8,1-5.1,2.7-9.9,1.9-14.9-2.4-.6-1-1.5-1.8-.9-3.1Z"/>
        <path class="cls-62" d="M166.9,94.8c13.2,9.1,26.9,17.3,40.7,25.3,2.4,1.4,4.2,1.9,6.8.3,9.9-6.2,20.3-10.6,32.6-8.1,3.4.7,7.2-.8,10.8-1.2.6,1.2,0,2-.7,2.8-5.9,1.4-11.9,1.4-17.9.6-6.1-.8-11.2,2.5-16.6,4.6-7.5,3-12.2,8-14.2,16-2,7.6-4.7,14.9-6.5,22.6-1.3,5.9.4,10.5,5.1,14.1,1.7,1.3,3.5,2.6,5.3,3.7,15,9.1,26.6,21.2,33,37.8-.9.7-1.9,1.4-2.8,2-1.7-1-1.8-3.1-3.2-4.3-2.1-2.8-3.5-6-4.9-9.1-.5-1.8-1.8-3.1-2.8-4.5-6-8.1-14.1-13.8-22.4-19.2-.9-.6-1.8-1.2-2.7-1.9-.3-.2-.7-.5-1-.8-.9-.8-1.9-1.3-3.2-1.2-1.5,0-2.9.5-4.3.8-2.5.4-4.6,1.6-6.8,2.8-5.1,2.2-9.7,5.2-14.5,7.8-1.2.6-2.3,1.3-3.2,2.2-1.3,1.2-2.7,2.2-4.3,3-1.8.9-3.1,2.3-4.5,3.7-.5.5-1,.9-1.5,1.2-1.1.7-2.1,1.4-3,2.4-3,3.3-6.7,5.9-10.1,8.7-1,.7-2.1,1.3-2.9,2.3-1.2-.7-2.3-1.3-3.5-2,2.5-2.2,4.9-4.5,7.4-6.7.9-2.3,3.1-3.1,5-4.2h0c.8-1.2,1.6-2.5,3.2-2.8h0c.6-1.7,2.1-2.5,3.6-3.2.4-.3.7-.7,1.1-1,.8-1.8,2.9-1.8,4.1-2.9,9.3-5.9,19.1-10.9,29.2-15.3,2-.9,3.4-1.6,2.2-4.4-1.8-4.2-.8-8.5.3-12.7,2.1-8.4,4.5-16.7,7.9-24.7,1.5-3.6,1.1-5.3-2.5-7.3-12.7-7.1-25.1-14.4-37-22.9-.8-.6-1.5-1.3-2.2-2-.6-1.2-.7-2.1,1-2.1Z"/>
        <path class="cls-25" d="M303.8,334.6c-1-2.4-3.8-2.5-5.2-4.4,4.6.9,6.3-.7,5.6-5-.9-5-.6-6,3.5-9.4,1,0,.7.9.9,1.4.6,1.9.9,4.6,3.5,3.9,2.2-.6.6-2.9.4-4.4-.8-5.1.6-8.1,5.3-11.3,1,.2.6,1,.6,1.6.2,2-.6,5.3,2.2,5.3,3.1,0,3.5-3.3,3-5.9-.9-4.8-1.6-9.3,4.5-12.1,1,2.5,1,5.3,2.7,7.3,1.3.8,3.3.1,4.1,1.9,2.5,1.7,5.4,1.2,8.5,1-1.9,5.1-5.9,6.7-10.5,7.3-.3,0-.7,0-1,.2-2.2.7-6.1-.9-6.4,2.2-.4,4,4.2,1.7,6.1,3.2-1.7,4.3-6.5,6.8-11.5,5.9-1-.2-2-.4-2.9-.8-1.5-.6-2.6-.2-3.5,1-.6.8-1.2,1.7-.4,2.7,1,1.1,2.3.9,3.7.8,1.5,0,3.5-2.1,4.3,0,.7,1.9-1.6,3.1-3,4.1-3.2,2.2-6.5,2.1-10,.8-2.2-.8-5-1.7-4.3,2.6Z"/>
        <path class="cls-101" d="M144.8,107.8c-1.2-2.3-2.5-4.6-3.6-7-1-2.1-1.8-4.3-.5-6.7,1.7-3.1,3.9-6.1,1.3-10-.7-1.1.3-2.6,1.6-3.3.4-.2,1-.3,1.5-.3,2.3.2,1.6-4.5,4.2-3,1.5.9.4,3.4.7,5.2.1.9.4,1.7,1.4,1.5,1.3-.2,2.8-.4,3.4-1.7,1.1-2.4,3.1-4.4,3.1-7.3,4.3-3.7,9.6-3.5,14.7-3.6,4,0,3.1,3.1,1.8,5.5-3.3,6.1-7.7,11.4-12.3,16.4-5.1,5.5-10.3,10.9-17.3,14.2h0Z"/>
        <path class="cls-50" d="M275.4,86.4c5.7,2.2,9.9,5.5,14.3,8.3,1.7,1.1,2.1,2.4,1.6,4.2-1.8,6.9-3.5,13.9-5.1,20.9-.6,2.7-1.9,3.3-4.6,2.3-5.6-2.2-11.1-4.5-16.9-7.5,1.7-.6,3.8-.9,3.9-1.6,1.8-8,9.5-14,8-23.1-.1-.9-.6-1.8-1.3-3.4Z"/>
        <path class="cls-23" d="M365.9,206.1h-1.1c-.7-1.9-2.5-2.4-4.2-3.2-2.9-1.4-4.6-3.8-4.9-7.1-.1-1.6-.6-3.7,1.1-4.6,1.4-.7,2.1,1.1,3.1,1.9,1.1.9,2.5,2.1,3.4.8,1.4-1.8-1-2-1.9-2.5-4.8-3.3-8.5-7.2-8.9-13.5,3.4-.3,3.9,3.7,6.9,4,0-3.4-2.6-6.2-2-9.7.4-2.1.5-4.4,2.6-5,1.9-.5,3.2,1.5,4.2,3.1.8,1.4,1.1,3.1,1.7,4.7.4,1.3-.3,3.4,1.7,3.8,1.9.4,2.3-1.6,3.1-2.7.3-.4.5-.9.8-1.6,3.1,5.5,2.3,9.6-2,13.1-.5.4-1,.9-1.5,1.4-1.3,1.4-2.6,3.4-.8,4.8,1.5,1.1,3-.7,4.1-1.9,1.2-1.3,1.4-3.4,3.1-4.5,2,5.9,0,11.6-5.6,15-1.5.9-3.8,1.1-2.9,3.8Z"/>
        <path class="cls-80" d="M144.9,107.8c.4-1.9,2.2-2.4,3.5-3.4,10.6-7.6,18.7-17.5,25.5-28.5.5-.8,1.2-1.6.6-3.1-5.6-.3-11,1.5-16.5,2.6-.3-.8-.7-1.6-1-2.4,17.5-4.3,35.1-6.2,53.1-4.4,3.4,1.5,7-.2,10.4,1,15.9,2.4,31.6,5.5,46.1,12.9,0,.4,0,.9,0,1.3-6.3-.9-11.7-4.4-17.8-5.9-7.2-1.8-14.4-3.5-21.7-5.2-1.6-1.1-3.6,0-5.3-.9h-1.7c-2.7-1.4-5.7,0-8.4-1-9.7.1-19.3-.5-29,.6-2.2.3-3.6,1-4.7,2.9-3.2,5.7-6.8,11.1-11,16.1-1.3,1.5-1.5,2.9-.1,4.4-.8.5-1,1.3-1,2.1-1.8-1.4-3.3-1.4-5,.5-3.4,3.8-7.4,7-11.6,9.9-1.4.9-2.7,2.1-4.3.5Z"/>
        <path class="cls-23" d="M80.5,316.7c-4.5,1.2-9.1,2.1-13.4-.7-1.6-1-2.9-2.2-3.3-4.2.4-.2.9-.4,1.3-.6,2-.6,5.6.8,5.3-2.7-.2-2.9-3.6-2.5-5.7-2.6-5.7-.2-9.6-2.9-12.9-8.7,3.9,1.6,6.8,1.8,9.7.2.9-2.6,3.8-.5,5-2.3.8-2.2,1.6-4.3,2.4-6.6,4,2,5.4,5,4.6,9.1,0,.3-.1.7-.2,1-.6,3.1-2,7.4,1.8,8.1,3.6.6,2.1-4.3,3-6.6,5.2,3,6.2,5.7,4.6,11.4-2,1.1,1.2,4.6-2.3,5Z"/>
        <path class="cls-23" d="M334.7,303.6c-1.4-.6-2.8-1.3-4.1-1.9,5.5-.7,3.6-4.6,2.4-7-2.8-5.4-.7-9.1,2.6-12.7,1.4,0,1.2.8,1.3,1.3.2,2.1.8,3.9,3,4.8.9.3,1.7.2,2.1-.7,1.1-2.1.9-4.3-.3-6.2-1.4-2.4-3.4-4.7-1.8-7.7.7-1.3,1.2-3.1,2.8-3.2,1.4-.1,1.1,1.7,1.8,2.6,1,1.3,2,2.9,4,2.4,2.2-.5,1-2.5,1.3-3.8,1.5,1,.2,3.2,2,4,2.1,4.9,5.2,0,8,.9-.6,4.3-3.7,6-7.4,6.8-2.3.5-4.6,1-6.3,2.7-1,1-2.6,2.1-1.4,3.7.9,1.3,2.4.8,3.6.2,1.3-.7,2.6-1.4,3.9-2.1-.5,5.2-4.8,9.9-9.9,10.2-3.9.2-6.7,1.6-7.6,5.7Z"/>
        <path class="cls-58" d="M241.3,359.9c.3,1,.6,2.1.9,3.1-2.3.3-4.7.6-1.4,3.2,1,.8,2.2,1.5,4.3,2.8-5.5.9-9.7,0-13.8-1.6-1.3-.5-2.8-1.4-3.7-.3-1.2,1.6.6,2.6,1.7,3.6.8.8,2.6,1.1,2,2.5-.6,1.3-2.3,1.2-3.6,1.2-2.1-.2-4.8.1-6.1-1.7-3.8-5.4-9-4.7-14.3-3.8-.3-.2-.4-.4-.3-.7,0-.2.2-.4.3-.4,1.2-.5,2.4-1.2,3.7-1.4,3.7-.4,5.8-2.3,7.1-5.8,1.4-3.8,4.6-5.9,8.8-6.7.5,2.2-1.3,3.5-1.4,5.2,0,1.1-.7,2.6.7,3,1.2.4,2.3-.5,2.9-1.6.9-1.8,1.4-3.8,2.5-5.4,2-2.9,4.9-4.4,8.6-4.3,0,2.5-2.4,3.2-3.1,5-.6,1.8-1.5,3.9-.2,5.2,1.8,1.9,3.2-.5,4.6-1.3Z"/>
        <path class="cls-53" d="M152.8,360.9c.4-.4.8-.7,1.1-1.1,2.8.7,3.4-.7,3.3-3.2,0-2.8-2.7-4.4-3.5-7.4,5.3.1,8.1,3,9.9,7.2.8,1.9.8,5.3,3.6,4.2,2.2-.9.6-3.7-.1-5.7-.2-.4-.1-.9-.2-1.4,4.8.5,6.8,1.7,8.5,6.7,1.2,3.4,3.2,5.2,6.5,5.8-1.3,3-4.2.4-6,1.8-3,1.8-4.9,5.6-9.2,5.3-1.9-.2-4,.4-5.4-1.4.4-2.7,5.8-2.5,4.1-5.2-1.6-2.7-4.7.5-7.2.8-3.2.3-6.4,1.4-9.4-.3.4-2.7,6.9-.9,3.8-5.8Z"/>
        <path class="cls-53" d="M207.1,367.9c0,.3,0,.7,0,1-10.4,7.7-10,7.4.3,15.5,2.4,1.9,5.3,2.8,8.2,3.6,2.1.6,3.7,2.5,3.1,4.5-.7,2.3-3.1,1.4-4.8.9-6.1-1.8-10.9-5.9-15-10.5-2.1-2.3-3.4-2.3-5.5-.1-4.1,4-8.8,7.2-14.3,9.1-2.1.8-5,2.4-6-.6-.8-2.4,1.6-4,4.2-4.5,4.9-1,8.7-3.9,12.7-6.8,3.7-2.8,3.5-5.1.2-7.8-.8-.7-2.2-1-2.2-2.5h0c.5,0,1.1-.3,1.4,0,6.5,5.1,11.9.1,17.7-1.9Z"/>
        <path class="cls-58" d="M35.6,184.1c-1-1.3-1.9-2.8-3.2-3.8-4.4-3.7-4.6-7.9-2-12.7,1.4.5,1.6,1.8,2.2,2.7.6.8,1.3,1.7,2.4,1.4,1.1-.3,1.4-1.2,1.4-2.3,0-2.4.8-4.6,2.5-6.3,1.2-1.2,2.3-3.4,4.4-2.4,1.7.8,2.2,3,2,4.8-.3,2.9-1.1,5.7-1.7,8.6,2.7.2,3.5-2.9,6.3-2.6-.4,5.3-3.3,8.9-7.4,11.8-1,1.4-2.4,2-4,2.1-1.1,0-2.1-.3-2.9-1.1Z"/>
        <path class="cls-102" d="M140.9,144c-2.5,3.9-6.6,1.4-9.8,2.4-.5.2-1.8,0-1-1.8,1-2.1-1.4-1.3-2.4-1.7.3-2.3,1.1-4.6-1.3-6.3-1.7-1.2-.4-2.2.2-3.3,1.6-3,2.5-6.1,2.4-9.5,0-1.9-.4-3.7-2.9-3.9-1.1,0-2.5.6-3.1-.7-.6-1.2.6-1.8,1.4-2.2,1.4-.8,2.5-2.5,4.4-1.4,1.2.7,2,1.7,2.2,3.2.7,1.8,3.8-.9,3.9,2.1-3.4,4.1-1.3,12.7,3.6,14.4,1.7.6,2.2,1.5.7,2.8-.6.5-1.4.8-2.2,1.2-1.4.7-2.8,1.7-2.4,3.3.3,1.5,2.1,1.4,3.4,1.5,1,0,2,0,3,0Z"/>
        <path class="cls-27" d="M66.5,295.2c-1.1,2.1-3.6,1.1-5,2.3-.5-3.9-3-5.6-6.7-6-5.4-.6-8.6-3.8-9.9-9.7,2.4-1.6,6.5,6.3,7.8-1.4,1.6-.9.3-3.2,2-4,.4,1.8-1.5,5,2,5.1,3.6.1,3.5-3.3,4.1-5.8,4.9,3.6,5.8,6.9,3.2,12.2-2.5,5.1-1.7,7.5,2.6,7.3Z"/>
        <path class="cls-107" d="M35.6,184.1c1.1,0,2.1,0,3.2.1,1.7,2.9,3.3-.2,5,0,4.4,2.1,1.9,5.4,1,8.1-.7,2.1-2.8,3.2-4.9,4-1.5.6-3.9,1.1-3.1,3.1.9,2.4,3,.6,4.7.4-2.6,2.9-4.8,1.5-6.9-.6,2.1-2.4-.2-2.9-1.6-3.9-5.6-3.7-7.6-9.7-5.1-15.4,1.2,1.9,2.1,3.9,3.5,5.5,2,2.3,3.9,2.8,4.4-1.3Z"/>
        <path class="cls-27" d="M80.5,316.7c2.1-1.1.1-4,2.3-5,.3,1.5-1.5,4,.6,4.3,3.3.5,3.1-3,4.1-5.5,3.4,2.4,4.8,5.2,3.7,9-.6,2.2-.7,4.2.6,6.1-.4.4-.8.7-1.2,1.1-1.7-.4-3.2.3-4.8.8-4,1.1-7.5,0-10.5-2.7-1-.9-2.3-1.9-1.7-3.3.9-1.8,2.2,0,3.4,0,1.6.1,3.4,1.1,4.6-.4,1.4-1.8-.7-2.9-1.2-4.3Z"/>
        <path class="cls-46" d="M145.9,116.8c-4.6,2.8-5.3,7.2-5.1,12.1,0,1.2,1,3.3-1.7,3.1-2.2-.1-2.1-1.7-2.1-3.2,0-2.4-.4-4.8,1.4-7,1.5-1.8,1.5-4.3,1.5-6.6,0-1-.6-2.5.8-3.1,1.5-.7,1.8,1,2.6,1.6.5.4,1.1.8,1.6,1.1.5.6,1.6.8,1,1.9Z"/>
        <path class="cls-56" d="M134.8,120.8c-.9-1.5-3.3-.1-3.9-2.1,2.8.6,4.1,0,2.3-2.9-1.1-1.7-3.4-2.9-2.1-5.5,5.9,1.9,6.4,5.7,3.7,10.5Z"/>
        <path class="cls-102" d="M127.8,142.8c-1.5,1.8-2.6,3.8-5.4,4.2-4.1.5-3.4-3-4.1-4.8-.6-1.6,3,1.8,2.6-1.3,1.6,3.2,4.4,2,6.9,1.9Z"/>
        <path class="cls-102" d="M120.9,140.9c-2.7-3.6-4,1.4-6.2.9,0-.5,0-1,0-1.5.7-2.8,2.7-5.4,5.2-5.1,2.1.3.8,3.6,1,5.6Z"/>
        <path class="cls-34" d="M272.4,322.7c-1.5.9-2.4,2.1-2.7,3.8-.2,1.2-1.2,1.5-2.3,1.3-1.3-.2-2.1-1.1-2.3-2.3-.3-1.3.9-1.5,1.8-1.9,1.5-.6,3-1.2,4.5-1.8.3.3.7.6,1,.9Z"/>
        <path class="cls-71" d="M161,338.8c.1,3.6-3.7,2.2-5.1,4-2.2-.1-4.3-.7-6.1-2,2.2.4,3.6-1.4,5.5-1.9,1.3,1.2,2.5,1,3.7-.2h0c.7-.5,1.4-.6,2.1,0Z"/>
        <path class="cls-23" d="M176,367.7c1.6-2,4.4.1,6-1.8,2.3.9,5.6.2,6,4,0,0,0,0,0,0-3.9-1.3-7.8-2.6-12.1-2.1Z"/>
        <path class="cls-102" d="M114.7,141.8c.2,4.8.3,9.7-2,14.2,0-4.8.8-9.5,2-14.2Z"/>
        <path class="cls-67" d="M145.9,116.8c-.3-.6-.6-1.3-1-1.9,2.1,0,4.2,0,6.8,0-1.6,3-4,1.6-5.8,1.9Z"/>
        <path class="cls-20" d="M162.8,190.1c-.6,1.8-2.1,2.6-3.6,3.3-.4-1-1.7-1.9-.4-3,1.2-1.1,2.6-1.2,4-.2Z"/>
        <path class="cls-20" d="M156,196.2c-1.3,1.8-3.1,3.1-5,4.2-.2-3.7,1.3-5.2,5-4.2Z"/>
        <path class="cls-20" d="M168.1,186.2c-1.1,1.4-2.3,2.6-4.1,2.9-2-5.6,2.5-2.3,4.1-2.9Z"/>
        <path class="cls-20" d="M159.2,193.3c-.7,1.3-1.8,2.2-3.2,2.9.1-2,1.1-3.1,3.2-2.9Z"/>
        <path class="cls-124" d="M220.5,69.5c-3.5-.3-7.1,1.3-10.4-1,3.5,0,7-.4,10.4,1Z"/>
        <path class="cls-109" d="M161,338.8c-.7,0-1.4,0-2.1,0,0-.3,0-.7,0-1,.9-.9.8-2.5,2.3-2.9,1.8-.7,4.5.1,4.6-3.1.8-.2,1.7-.2,2.2-1.1.5,0,1-.2,1.4-.2,1.1.8,1.2,3.2,3.4,2,1.1-.2,1.7.3,2.1,1.2-1.2,3.9-4.4,3.2-7.2,3-2.6-.1-5.2-.9-6.8,2.1Z"/>
        <path class="cls-30" d="M219,337.7c2.3-2.5,4-6,8.1-6-.7,2.8,2.2,1.9,3,3-2.4,3.7-7,.6-9.8,3-.5.4-.9.3-1.3-.1Z"/>
        <path class="cls-54" d="M173.1,332.7c-.2,1.9-1.8,2.2-2.9,1.6-1.4-.7-.6-2.5-.8-3.9.2-.1.3-.2.5-.3,1-1.5,2.1-2.6,4.1-1.4,0,.6,0,1.2,0,1.8,0,.9-.2,1.6-.9,2.2Z"/>
        <path class="cls-123" d="M211,331c0,.8,0,1.6,0,2.4-.4,1,0,2.6-1.7,2.7-1.1-.5-2.4-.2-3.2-1.4,1.9-1.2.2-4.5,3-5.1,1.3-.3,1.6.5,1.9,1.5Z"/>
        <path class="cls-29" d="M211,331c-.6-.5-1.3-1-1.9-1.5-.9-1.1-2.7-1.7-1.5-3.6.5-.7,1.2-1.3,2.1-1.1,2.1.5,1.3,2.3,1.4,3.7,0,.8,0,1.6-.1,2.5Z"/>
        <path class="cls-93" d="M165,327.7c-.3-1.6-.3-3.2,1.8-4.9.4,2.2.8,4,1.1,5.9-1.5,1.2-2.1,0-2.9-1Z"/>
        <path class="cls-29" d="M194.1,321.7c4.3,0,8.7,0,13,0-4.3,1.7-8.7,1.6-13,0Z"/>
        <path class="cls-29" d="M213,333.7c-1.4-3.4-1.5-6.8,0-10.1.2.1.3.3.5.4.9,1.6.5,3.5,1.1,5.1.1.4.2.9.3,1.3,0,1.5-.2,2.8-2,3.3Z"/>
        <path class="cls-88" d="M228.1,331.7c0-1.8,0-3.5.1-5.3.1-1.4.6-2.3,2.1-1,.2,1.8-.1,3.6.6,5.3,0,.5-.2.9-.4,1.4-.9.5-2,2.1-2.4-.4Z"/>
        <path class="cls-26" d="M199.2,334.6c.8.1,1.6.4,1.9-.8.3-.4.7-.4,1.2-.2.4.7.4,1.3-.2,1.8-1.4-.3-2.3,5.3-4.2.5-.2-1.1.3-1.5,1.3-1.3Z"/>
        <path class="cls-8" d="M165,327.7c1,.3,1.9.7,2.9,1,0,.7.1,1.3.2,2,0,2-1.1,1.5-2.2,1.1-1.5-1.1-1-2.6-.9-4.1Z"/>
        <path class="cls-24" d="M236.4,327.3c.9,2.8,2.3,5.7-1.4,7.7-.3-.6-.4-1.3-.6-1.9,0-1.6.2-3.1.4-4.6.3-.6.8-1.1,1.5-1.2Z"/>
        <path class="cls-61" d="M235.1,328.8c1,1.3,1.1,2.5.1,3.9-2.9.4-.7-2.4-1.9-3.1,0-1.7-.5-3.5.8-5,1.4,1.1,1,2.7,1,4.2Z"/>
        <path class="cls-10" d="M216.1,326.9c0,2.7,1.2,5.5-.8,8-.4-.3-.6-.7-.8-1.1-.3-1.2,1-2.7-.5-3.8l.2-.4c-1-1.3-.2-2.3.8-3.1.5-.2.9,0,1.1.5Z"/>
        <path class="cls-69" d="M199.2,334.6c-.4.4-.9.9-1.3,1.3-1.1-2.4-1.9-4.6,1.2-6.2h0c0,1.6.1,3.2.2,4.8Z"/>
        <path class="cls-40" d="M228.1,331.7c.6,1.2,1.4.4,2.1.2.7.6.6,1.2.1,1.9,0,.3,0,.7,0,1-1.6-.4-4.2.2-3-3,.3,0,.6,0,.9,0Z"/>
        <path class="cls-119" d="M206,334.7c1,.3,2.2-.2,3,.8,0,.8-.6.9-1.1,1.2-1.3-.2-2.9.8-3.9-.9-.2-1,.2-1.4,1.2-1.2.3,0,.5,0,.8,0Z"/>
        <path class="cls-98" d="M146.7,296.5c1.9-1.3,3.9-2.4,6.2-2.8-1.6,2-3.2,3.9-6.2,2.8Z"/>
        <path class="cls-105" d="M235.1,328.8c-1.4-1.1-.7-2.8-1-4.2,2.8-.8,1.8,1.6,2.3,2.8-.4.5-.9.9-1.3,1.4Z"/>
        <path class="cls-49" d="M205.2,334.6c-.4.4-.8.8-1.2,1.2-.7-.1-1.3-.3-2-.4,0-.7-.1-1.4-.2-2.1-.4-1.2-.1-2,1.2-2,1.6,0,1.3,1.7,1.9,2.5,0,.3,0,.6.2.8Z"/>
        <path class="cls-12" d="M190,330.6c-2.6,1.7-5.3,1.6-8,0,2.7-.8,5.3-.7,8,0Z"/>
        <path class="cls-11" d="M230.3,330.5c-1.7-1.7-1-3.4,0-5.1,1.1.8.9,2,1,3.2.4,1,.8,2.1-1,1.9Z"/>
        <path class="cls-7" d="M190,330.6c-2.7,0-5.3,0-8,0,2.6-1.9,5.3-1.7,8,0Z"/>
        <path class="cls-29" d="M205.1,333.8c-1.1-.4-.5-2.4-2.1-2.3-1.1.1-1.1,1-1,1.8-.3.1-.6.3-.8.4,0-1.3-.1-2.8,1.8-3,2.2-.2,2.2,1.5,2.2,3Z"/>
        <path class="cls-29" d="M205.1,324.7c1.9,1.8.6,2.9-.8,4.1-.9-1-2.5,0-3.3-1.3v-1c1.3-.9,2.7-1.2,4.1-1.8Z"/>
        <path class="cls-70" d="M205.1,324.7c-.2,3.1-2.5,1.5-3.9,1.8,0-.6,0-1.2,0-1.7,1.3-.8,2.6-.7,3.9,0h0Z"/>
        <path class="cls-29" d="M208,336.6c.4-.4.7-.8,1.1-1.2.6-.7,1.3-1.4,1.9-2.1.4.9,1.2,1.2,2.1,1.3.8,2-1.5,1.1-1.9,2-1.1.7-2.1.6-3.2,0Z"/>
        <path class="cls-15" d="M159,338.7c.3,1.4-.4,2-1.8,2.1-1.3,0-2.2-.3-1.9-1.9,1.2,0,2.5-.1,3.7-.2Z"/>
        <path class="cls-106" d="M174,328.7c-1.4.5-2.7,1-4.1,1.4,0-1.5.4-3,2-3.4,1.2-.3,1.8.8,2.1,2Z"/>
        <path class="cls-97" d="M233.3,329.5c1.1.8.4,2.6,1.9,3.1,0,.8-.1,1.6-.2,2.5-2.2-1.3-1.9-3.4-1.7-5.5Z"/>
        <path class="cls-22" d="M201.1,327.5c1.1.5,2.7-.6,3.3,1.3-1.9-.2-3.6.3-5.3.9,0,0,0,0,0,0,0-1.3.5-2.2,2-2.2Z"/>
        <path class="cls-47" d="M230.3,330.5c.3-.6.7-1.3,1-1.9,1.5,2.1,1.3,3.8-1.1,5.2,0-.6,0-1.3-.1-1.9,0-.5.1-.9.2-1.4Z"/>
        <path class="cls-29" d="M216.1,326.9c-.3-.1-.5-.3-.8-.4-1.2-.5-1.3-1.8-2-2.6,0,0-.2-.3-.2-.3,2.6-.7,2.9-.4,3,3.3Z"/>
        <path class="cls-48" d="M219.1,339.7c-.9,1.2-2.1,1.2-3.4,1-.3,0-.9-.6-.8-.8,0-.7.7-.9,1.4-.9.9.6,2.1-.3,2.8.7Z"/>
        <path class="cls-29" d="M205.1,324.6c-1.3,0-2.6,0-3.9,0-.4-.2-1.6-.6-.9-.8,1.5-.5,3.4-.9,4.8.7Z"/>
        <path class="cls-83" d="M173.1,332.7c-.4-1,0-1.7.9-2.2,1.5.7,2,1.7.9,3.1-.6-.3-1.2-.7-1.8-1Z"/>
        <path class="cls-71" d="M161.2,334.8c-.4,1.3-1.2,2.2-2.3,2.9.6-1.1-1.5-4.3,2.3-2.9Z"/>
        <path class="cls-104" d="M211.2,336.7c0-1.4,1.7-.9,1.9-2,0,0,0,0,0,0,.5-.6.9-1.4,1.9-1.3,0,.5.1,1,.2,1.5-.7,2.2-2.4,1.9-4,1.8Z"/>
        <path class="cls-95" d="M219.1,339.7c-1,0-2.1.3-2.8-.7.9-.4,1.8-.9,2.7-1.3.4,0,.9,0,1.3.1-.4.6-.8,1.3-1.2,1.9Z"/>
        <path class="cls-98" d="M157.9,299.7c1.4.4,1.8,1.6,2.2,2.8-.1-1.4-5.1,1-2.2-2.8Z"/>
        <path class="cls-86" d="M215,333.4c-.6.4-1.3.9-1.9,1.3,0-.3,0-.6-.1-1,.7-1.2,1.3-2.3,1-3.7,2,.6.8,2.2,1,3.3Z"/>
        <path class="cls-99" d="M225.8,326.6c.5.6.9,1,1,1.3,0,.7-.5,1.2-1.1,1.1-.3,0-.9-.7-.9-.9.1-.5.6-.9,1-1.5Z"/>
        <path class="cls-112" d="M273.7,294.6c-7.9.1-15.1-1.9-22.1-5.6-2.2-1.1-3.1-2.3-2.5-5,3.6-17.5-1.6-32.3-14.5-44.4-2.1-2-1.9-3.3-.8-5.5,8.5-17.4,29.1-27.1,48.9-23.2,20.2,4.1,34.4,20.1,35.4,39.9,1.2,23.6-19.3,43.7-44.4,43.7Z"/>
        <path class="cls-112" d="M127.3,294.6c-21.4,0-40-14.6-43.7-34.3-4.6-24.8,13.6-48.3,39.1-50.1,19-1.3,33.8,6,43.7,22.6,1.7,2.9,1.9,4.8-1,7.6-12.3,11.7-17,26.1-13.8,42.8.6,2.9,0,4.6-2.8,6-6.9,3.4-14,5.5-21.7,5.3Z"/>
        <path class="cls-112" d="M209.1,315.5c-.8,0-1.7.2-2.5.2-4.3.6-8.5.7-12.8,0-.6,0-1.2-.1-1.8-.2-2.9-1.3-5.7-2.9-9.1-2.8h0c-.7-.7-1.6-1.1-2.5-1.6-3.3-1.9-3.8-4-.5-6.4,1-1,2.1-2,3.7-1.7.5,0,.9.2,1.3.3.9,1-.2,3.3,2.1,3.5.4,0,.8,0,1.2.1,1.2.3,2.2,1.1,3.4,1.4,1.2.3,2.5.6,3.7.9,1.3.5,2.6-.6,3.8,0,2,.7,3.9.3,5.8-.3-.4-1.8-1.3-.2-1.9-.3-2.8,1.4-5.4.3-8.1-.3-.8-.8-1-1.9-1.4-2.8-.2-.3-.4-.7-.7-1-.5-.6-1.3-1-1.9-1.4-.6-.5-1.2-1-2-1.1-1.7,0-3.2,1.1-4.9.9-.4-.2-.8-.4-1.1-.7-1.8-1.5-2-4.4-4.6-5.2-.6-.2-1.3-.4-1.9-.7-1.6,0-1.3-2.6-3.1-2-.8,1.4-1.3,3-2.8,3.8-4.9,1.1-7.4-2-9.7-5.5-2.1-2.1-1.7-3.6.5-5.7,12.8-11.9,18-26.6,14.5-43.9-.7-3.3.6-4.5,3-5.7,14.4-7.2,28.8-7.1,43.3,0,3,1.5,3.4,3.2,2.8,6.3-3,15.9,1,30.1,12.6,41.2,4.6,4.4,3.6,7.2.9,11.2-.9,1.4-2.1,2.5-3.3,3.6-1,.7-1.2,2.1-2.1,2.9h0c-4.9,2.8-4.5-1.7-5.7-4.1-.8-.8-1.7-1.5-2.6-2.2-2.9-1.3-2.6.9-2.7,2.6,0,1.4-.5,2.7-1.5,3.8-2,1.3-4.7,1.6-5.6,4.3-.3.9-.8,1.6-1.6,2.1-.4,1.3-3.7-.7-2.6,2.3,1.4,2.2-.3,3.1-1.7,4.2Z"/>
        <path class="cls-113" d="M198.1,174c1.5-1.3,3.3-1,5-1,1,.8,1.8,1.7,3,2h0c.3,1.7,1.5,2,3,2,9,5.1,17.2,11.2,23.2,19.8.5,1.7,2,2.8,2.9,4.3,1.7,3.1,3.4,6.1,5.1,9.2.6,2.1,3.4,4.6-1.2,5.9-.8.2-1.2,2.2-1.7,3.4-2.9,4-6.5,7.6-8.4,12.3-.9,2.1-2,2.1-3.8,1-4.9-2.9-10.4-4.4-15.9-5.7-.6-.8,0-1.7-.5-2.5-1.1-1.1-2.5-.5-3.8-.8-.9-.2-1.7-.7-2.1-1.6-.1-.8.3-1.3.8-1.7,1.6-.7,1.7-2.2,1.7-3.7.6-1.8,1.7-3.2,3-4.5,2.8-3,5.4-6.2,7-10,.8-1.3,1.3-2.7.8-4.3,0-.4-.1-.9-.1-1.4,0-.6.5-1.7.1-1.8-3.1-1.5-6.9,0-8.8,3.6-.5.7-1.1,1.4-1.8,1.6-7.4,2.6-13,7.6-18.6,12.8-1.4.7-2.6,1.6-3.7,2.7-.9.7-1.9,1.1-3,1.4-1.7.3-3.4.9-4.6,2.2-.4.3-.8.5-1.2.7-3.1,0-6.2.7-9.3.1-1.5-.7-2.5-2.2-4.1-2.9-2.7-1.9-5.4-3.9-8.1-5.8-.6-2.2-5.2-1.3-3.9-5,3.7-3.1,7.4-6.2,11.1-9.3.9-.9,2.4-1,2.8-2.4l.9-.7c.7-1,1.7,2,2.4-.2.5-1.5,1.9-2.6,2.7-4,1.3-.9,2.6-1.9,3.9-2.8,2.7,2,1.6-2.2,3.2-2,4.7-3.2,9.7-5.9,15.1-7.9,2.4-.9,4.8-1.9,7.1-3.1Z"/>
        <path class="cls-76" d="M230.7,244.1c10.6,7,16.1,23.3,13.1,38.1-10.1-4.8-16.5-23.6-13.1-38.1Z"/>
        <path class="cls-18" d="M157.5,282.3c-3.8-13.1,1.7-29.8,12.5-38.3,4.5,11.9-2,31.6-12.5,38.3Z"/>
        <path class="cls-5" d="M165,219.3c3.3.2,6.5-1.1,9.8,0,.8-.8,1.6-.7,2.3,0,.2.4.2.8.2,1.2-.4,2.2,1.3,1.3,2.2,1.5,5.9.3,11-2.4,16.3-4.3,1.2.4,1.8,1.3,2.2,2.4.5,1.4,1.4,2.5,2.4,3.6.4.5.8,1,1,1.6,0,.4-.1.8-.4,1.1-9,.8-17.8,2.2-25.7,6.9-1.5.9-2.3.6-3-.9-1.8-4.1-4.7-7.5-7.3-11.2-.6-.6-.7-1.2,0-1.8Z"/>
        <path class="cls-51" d="M181,305.6c-2.7,1.4-3.1,3-.4,4.8,1,.6,2,1.1,2.4,2.3-10.1-3.7-17.5-10.4-22.1-20.2,2.7,3,6.1,4.7,10.2,5,1.1-1.2,1.8-2.6,1.9-4.3.1-1,.5-1.9,1.9-2.5.8,1.6-.4,4.3,2.3,4.9.1,1.8-1,3.4-.8,5.4.8-1,1.6-2.1,3-1.4,2.4,1.5,1.2,4,1.6,6Z"/>
        <path class="cls-51" d="M209.1,315.5c-.2-1.5,2.3-2.2,1-3.9.4-1.6,2-1.9,3-2.8.4-.7.7-1.5,1.1-2.2,2-1.5,4.6-1.8,6.5-3.4,1.4-1.4,3.1-2.4,4.8-3.4,1.1-.8,1.6-2,2.3-3,1.5.4,1.5,1.7,1.4,2.8-.2,3,1.7,3.1,3.9,2.9-6.4,7.2-14.4,11.4-23.9,13Z"/>
        <path class="cls-13" d="M201,226.3c0-.4.1-.7.2-1.1.4-1.2.6-2.5,2-3.1.6.4,1.2.8,1.7,1.2,1.6,1,3.8-.6,5.2,1.2,2,1.6-.8,1.7-.8,2.7-.8,0-1.6,0-2.3,0-1.6-.7-3.2-.7-4.7,0-.4-.3-.8-.6-1.2-.9Z"/>
        <path class="cls-45" d="M237.4,219.6c1.5-1.4-3.6-6.9,3.4-4.9-.2-1.6-.4-3-.6-4.4,1.7,1.2,1.7,3.2,2.2,4.9-1.7,1.4-3.4,2.9-5.1,4.3Z"/>
        <path class="cls-51" d="M182.9,312.7c3.8-1.6,6.6,0,9.1,2.8-3.2-.2-6.3-1.1-9.1-2.8Z"/>
        <path class="cls-111" d="M148.9,206.5c-.1,2.8,4.1,2.2,3.9,5-1.9-.8-3.8-1.6-5.7-2.4-.3-1.5.4-2.3,1.8-2.6Z"/>
        <path class="cls-51" d="M193.8,315.7c4.3,0,8.5,0,12.8,0-4.3,1.3-8.5,1.2-12.8,0Z"/>
        <path class="cls-111" d="M165,219.3c0,.6,0,1.2,0,1.8-1.4-1.3-2.7-2.6-4.1-3.8,1.9-.4,2.9.9,4,2Z"/>
        <path class="cls-51" d="M233.1,302.4c0-1.4.1-2.8,2.1-2.9,0,1.5-1,2.2-2.1,2.9Z"/>
        <path class="cls-81" d="M202.2,227.2c1.6-1.4,3.2-1.4,4.8,0-1.6,0-3.2,0-4.8,0Z"/>
        <path class="cls-124" d="M211.8,70.8c2.8.2,5.7-1.1,8.4.9-2.8,0-5.7.3-8.4-.9Z"/>
        <path class="cls-124" d="M221.9,71.8c1.8,0,3.7-.8,5.3.9-1.8,0-3.6.1-5.3-.9Z"/>
        <path class="cls-20" d="M168.9,189.8c-1.2,2,.5,7.5-5.1,4.2,1.4-1.7,3.1-3.2,5.1-4.2Z"/>
        <path class="cls-116" d="M198.1,174c-2,1.9-4.3,3.1-7.1,3.1,2.1-1.5,4.4-2.9,7.1-3.1Z"/>
        <path class="cls-20" d="M176,184.9c-1.1.7.3,5.1-3.2,2,.8-1.1,1.9-1.7,3.2-2Z"/>
        <path class="cls-116" d="M206.1,175.1c-2.8,2-2.4-.8-3-2,1.5,0,2.3,1,3,2Z"/>
        <path class="cls-45" d="M235.2,201.2c-1.6-1-3-2.1-2.9-4.3,1.4,1.1,2.7,2.3,2.9,4.3Z"/>
        <path class="cls-116" d="M209.1,177.1c-1.7.3-3.5.8-3-2,1,.7,2,1.4,3,2Z"/>
        <path class="cls-20" d="M162.8,194.8c.3,2.2-1.2,2.4-2.8,2.4.6-1.2,1.7-1.9,2.8-2.4Z"/>
        <path class="cls-79" d="M213.3,323.8c1.5.2,2,1.3,2,2.6-.4,1-.7,2.1-1.1,3.1-2.4-1.6-.8-3.8-.8-5.8Z"/>
        <path class="cls-120" d="M285.9,239c1.4,4,1.3,7.5,1.5,10.9.1,2.1-.3,4.7,3.1,4.4,2.5-.3,6,1.2,6.2-3.4,0-.6.6-1.1,1-1.8,2.7,2.1,1.6,4.2.2,6.1-2.6,3.4-6.3,3.1-10,2.6-3.7-.5-2.3-3.5-2.7-5.5-.8-4.2-2-8.6.7-13.3Z"/>
        <path class="cls-78" d="M268.5,255.6c.9,2.3,5.8.3,5,4.2-.9,4-4.7,4.2-7.8,5-2.3.6-4.9.3-6.2-2.1-1.2-2.2-.8-4.5,1.5-6.6-.2,6,3.6,5.6,8,4.9-3-1.9-3.8-4.1-1.5-6.7.9,0,1.4.2,1,1.2Z"/>
        <path class="cls-77" d="M283.3,252.2c0,2.3-.7,4.1-2.9,4.8-1.5.4-3.8,1.4-4.5-.3-.7-1.6.8-3,2.9-3.2.9,0,2.3,0,1.4-1.6-1-1.6-1.4-3.8.6-4,1.8-.1,2.2,2.5,2.5,4.3Z"/>
        <path class="cls-125" d="M273.5,266.4c-.6,2.1-2.2,3-4.3,3.2-.8,0-1.7,0-1.6-1.2.4-2.7,2.6-3.2,4.7-3.7,1.1-.3,1.3.7,1.2,1.7Z"/>
        <path class="cls-122" d="M268.5,255.6c-.3-.4-.7-.8-1-1.2,1-2.3,3-2.9,5.2-2.8.7,0,.9.9.7,1.6-.7,2.6-3.3,1.5-4.9,2.4Z"/>
        <path class="cls-89" d="M296.5,243.9c-.4,1-.7,2.3-2.1,2.2-.8,0-1.5-.7-1.3-1.7.3-1,.7-1.9,1.9-2,1,0,1.5.5,1.5,1.6Z"/>
        <path class="cls-114" d="M98.7,260.4c.4,1.3.3,2.4-.8,3.3-1.7,2.3-4.1,1-6.2,1-2.8-1.6-2.5-3.5-.5-6.1.8,1.2,0,3.1,1.7,3.6.9.3,1.9-.1,1.7-.9-1.6-4.6,2.4-4.4,4.5-4.8,3.3-.5,6.3-1.1,8.9-3.6,1.4-1.4,3.8-1.3,4.8.2,1.2,1.8.4,3.7-2,4.5-2.4.9-4.6,2.7-7.3.9-1.2.4-2.5.4-3.8.5-.9,0-1.6.4-.9,1.5Z"/>
        <path class="cls-66" d="M116.9,256.3c3,.5,5.9.7,7.3-3.5,1.3,5.8-2.2,7.8-8.5,5.9-.4-1.2-.7-2.4,1.3-2.4Z"/>
        <path class="cls-100" d="M131.7,260.4c.2-2.2,1.6-3.1,3.7-3.2,1.8-.1,3.6-.5,5.4-.8,1.1-.1,1.8,0,1.3,1.4-2.4,3.5-6.5.7-9.3,2.6-.4.4-.7.4-1.1,0Z"/>
        <path class="cls-1" d="M142.1,257.8c-.4-.5-.8-.9-1.3-1.4,0-2.7,0-5.3,0-8,0-.7,0-1.9,1.2-1.6.4.1.6,1,.9,1.6,1.8,2.7,1.8,5.4.1,8.1-.3.4-.7.9-1,1.3Z"/>
        <path class="cls-108" d="M116.9,256.3c-1,.5-1.1,1.5-1.3,2.4-1.5-4.1-1.7-8.3-.6-13.4,2,4,1.4,7.6,1.9,11Z"/>
        <path class="cls-33" d="M131.7,260.4h1.1c-.4.9-.6,1.9-1.2,2.7-1.1,1.5-2.7,1.6-4.4,1.3-.7-.1-1.5-.5-1.3-1.1.5-1.7,2.2-1.7,3.5-2.1.8-.3,1.5-.5,2.3-.8Z"/>
        <path class="cls-103" d="M145.7,248.5c.5,3.6,1.4,7.2.2,10.9-2.6-.9-1.2-3.3-2-4.9.5-2-1.3-4.7,1.8-6Z"/>
        <path class="cls-31" d="M144.7,254.6c.5,1.5-.9,3.6,1.2,4.7-3.4,1.5-1.2-2.6-2.8-2.9,0-2.7,0-5.4-.1-8.1.3,0,.5,0,.8,0,1.3,1.9,0,4.3.9,6.3Z"/>
        <path class="cls-72" d="M124.7,261.7c-1,1.9-2,3-4,2.3-.2,0-.3-.9-.1-1.3.9-2.2,2.4-1.3,4.1-1Z"/>
        <path class="cls-94" d="M97.7,264.1c2,1.6,1.3,2.8-.6,3.7-1.4.7-2.6.9-2.4-1.4.6-1.3,2-1.5,3-2.3Z"/>
        <path class="cls-74" d="M98.7,260.4c-.8-.1-1.9-.1-2-1.1-.2-1.3,1-.9,1.7-.9,1.7,0,3.3,0,5,0-1.3,1.4-3.8-.3-4.7,1.9Z"/>
        <path class="cls-63" d="M97.7,264.1l-3,2.3c-1-.6-2-1.1-3.1-1.7,2.1,0,4.2,0,6.2-1v.4Z"/>
        <path class="cls-42" d="M144.7,254.6c-1.4-1.9-.6-4.2-.9-6.3.7-1.2,1.4-1.8,2,.1-1.8,1.8-.2,4.2-1,6.2Z"/>
        <path class="cls-2" d="M198.9,285.5c0-1.7,1.3-2.5,2.6-2.5,2.9-.1,5.3,0,6.9-3.6.9-2,4-.7,4.4,1.5.4,3.1,2,2.3,3.8,2,2.2-.4,2.6-1.7,2.2-3.6-.5-2.3-1-4.5.9-7.1,1.7,3.4,1.5,6.7,1.3,9.8-.2,2.9-2.8,3.5-5.2,3.6-5.1.1-10.2,0-15.4,0-.6.3-1.2.2-1.7-.3Z"/>
        <path class="cls-32" d="M182.2,282.5c2-.3,5.2,1.1,4-3.4-.3-1,1.3-1.8,2.6-1.7,1.3.1,1.5,1.2,1.6,2.2.3,3.5-2.3,4.2-4.8,5.1-1.9.4-3.7.8-5.5-.1h0c-.9-2.3-3.3-.9-4.7-2-.3-4.2,2.1-5.3,5.7-4.9,1.3,1.4-.4,3.5,1.2,4.9Z"/>
        <path class="cls-122" d="M192.9,272.1c1.1,4.2,2.7,8.3.3,12.5-.9-4.2-2.9-8.3-.3-12.5Z"/>
        <path class="cls-41" d="M198.9,285.5c.6,0,1.1.2,1.7.3-2.1,3.2-4.3,6.4-9.3,3.5,2.1-2.5,5.6-1.7,7.6-3.8Z"/>
        <path class="cls-117" d="M179,299.5c-2.3.6-.9,3.9-3.7,4.6,1.1-2.9-2.7-6.4,1.9-8.5.5,0,1,0,1.5,0,1.4.8,1.1,2.1.9,3.3-.2.2-.3.4-.5.6Z"/>
        <path class="cls-21" d="M221.2,298.6c-1.1-1.6-1.3-3,.8-3.9,1.1-.4,2.5-2.5,3.2.5.5,1.6,2.4,3.1.2,4.8-1.8.7-3-.2-4.2-1.4Z"/>
        <path class="cls-14" d="M185,303.6c-.3-.1-.7-.3-1-.4,0,0,0-.4,0-.4,2-.6,3.5-2.7,5.9-2.2,1.6,3,.3,5.1-1.9,6.9-.3,0-.6.1-.9.2-2.5-.5-.9-3-2-4.2Z"/>
        <path class="cls-51" d="M188,307.6c.1-2.5,3.1-4.1,1.9-6.9.9.3,1.1,1,1.1,1.8.7,1.2,2.3,1.1,3.1,2.2h0c.6,2.4-1.8,3.2-2.7,4.8-1.1-.6-2.2-1.3-3.4-1.9Z"/>
        <path class="cls-16" d="M221.5,303.7c-2.1,1.9-4.2,3.6-7.3,2.8.3-3.8,3.7-3.1,5.9-4.1.7.2,1.2.6,1.4,1.3Z"/>
        <path class="cls-55" d="M225,279.5c.1,2,.9,4.1-1.5,6.9-.2-3.2-.4-5.4-.5-7.6-.4-1.8-.6-3.6,0-5.4.2-.3.5-.6.7-.9.2.2.3.5.5.7.8,2-.2,4.3.7,6.3Z"/>
        <path class="cls-100" d="M195.1,307.4c2.6,1.3,5.2,1.1,7.8,0,1.8-.4,4-1.4,3.4,2.1-2.4.9-4.8.5-7.2.2-1.5-1-2.5,1.5-4,.6-.8-1-.9-2,0-3Z"/>
        <path class="cls-44" d="M221.5,303.7c-.5-.4-.9-.9-1.4-1.3,0-1.4,1.8-2.3,1.1-3.9,1.3.3,2.5.6,3.8.9,1-.4,1.3.1,1.2,1.1-1.6,1.1-3.1,2.1-4.7,3.2Z"/>
        <path class="cls-38" d="M195.1,307.4c0,1,0,2,0,3-1.2-.3-2.5-.7-3.7-1-1.4-2.9,2.3-3,2.7-5,1.8.4.8,1.9,1.1,2.9Z"/>
        <path class="cls-110" d="M184,302.8v.4c-1.2.4-2.6.8-3,2.4-3-1.2,0-4.5-2-6.1,0,0,0,.1,0,.1.7-.8,2.1-2.2,2.3-.2.2,2.4,1.9,1.5,2.8,2.3,0,.4,0,.8,0,1.1Z"/>
        <path class="cls-19" d="M213.1,308.8c.4,2.3-1.8,2-3,2.8-.9-.6-2.5-1.4-1.7-2.4,1.1-1.5,3.1-.2,4.7-.4Z"/>
        <path class="cls-51" d="M184,301.7c-1.1,0-2.9,1.8-2.7-1.3.1-2.4-1.2-1.6-2.3-.8-.1-1.3-.2-2.6-.4-4,3.3.6,3.4,4.2,5.4,6Z"/>
        <path class="cls-75" d="M176.5,276.4c-.8,0-1.6,0-1.5-1,.2-2.3,2.2-2.1,3.7-2.6.9-.3,1.2.6,1.1,1.2-.5,1.7-2,2-3.3,2.5Z"/>
        <path class="cls-51" d="M185,303.6c2.8.3.3,3.3,2,4.2-4.3.4-3-2-2-4.2Z"/>
        <path class="cls-108" d="M226.2,300.5c-.4-.4-.8-.7-1.2-1.1,1.7-1.4-.8-2.9.2-4.3.9.5,1.8,1.1,2.6,1.6,1,1.9,0,3-1.6,3.8Z"/>
        <path class="cls-51" d="M199.1,309.9c2.3,0,4.7.1,6.9-.6.3-.2.6-.2.9,0-2.4,2.5-5.1,1.5-7.8.7Z"/>
        <path class="cls-82" d="M210.8,274.3c.7.1,1.3.4,1.1,1.2-.2,1-.7,1.8-1.9,1.8-.8,0-1.1-.7-1.1-1.3,0-1.1.7-1.7,1.9-1.7Z"/>
        <path class="cls-4" d="M185.3,273.6c1.8,0,2,.7,1.9,1.3-.1.8-.7,1.5-1.7,1.5-.8,0-1.3-.8-1.2-1.3.2-.8.8-1.4.9-1.4Z"/>
        <path class="cls-60" d="M173,293.3c1.2,2.2.7,3.7-1.9,4.3.1-1.6.2-3.3,1.9-4.3Z"/>
        <path class="cls-9" d="M225,279.5c-1.4-2-.9-4.2-.7-6.3,1,2,.9,4.2.7,6.3Z"/>
        <path class="cls-90" d="M175.3,282.5c1.7.4,4.2-1.1,4.7,2-1.1-1.7-3.6-.2-4.7-2Z"/>
        <path class="cls-3" d="M194.1,304.6c-1.5-.1-3.4.5-3.1-2.2,1.2.5,3.6-.7,3.1,2.2Z"/>
        <path class="cls-28" d="M206.9,309.2c-.3,0-.6,0-.9,0-.4-1.8-1.9-1.5-3.1-1.8,2-1,4-2,4,1.7Z"/>
        <path class="cls-9" d="M223.1,273.4c0,1.8,0,3.6,0,5.4-.9-1.8-1.2-3.6,0-5.4Z"/>
        <path class="cls-90" d="M182.2,282.5c-2-1.3-.9-3.2-1.2-4.9,1.4,1.4,0,3.4,1.2,4.9Z"/>
        <path class="cls-90" d="M180,284.5c1.8,0,3.7,0,5.5.1-1.9,1-3.7,1.3-5.5-.1Z"/>
        <path class="cls-51" d="M231.8,297.7c.3.3.7.6.7.7-.4.5-.7,1.1-1.2,1.4-.7.4-.9-.2-.7-.7.3-.5.8-.9,1.2-1.4Z"/>
        <path class="cls-121" d="M186.1,212.3c5.6-6.8,13.2-10.7,21-14.3,4.2-4.4,6.8-4.6,10-.7,0,.3,0,.5-.1.8-.3,1.1-.8,2.1-1.6,3-3.4,1.9-5.6,4.8-6.8,8.5-1.8,2.4-4.7,3.2-7.2,4.6-1.3.5-2.7,1-4.1,1.1-3.5-.4-6.8-2.1-10.4-1.4-.7-.3-1.2-.8-.9-1.6Z"/>
        <path class="cls-17" d="M201.2,213.2c2.4-1.3,4.7-2.7,7.1-4,2.3,1.1,2,2.4.4,3.9-.9,1.4-1.7,2.8-2.6,4.2-1.2,1-.4,3.3-2.3,3.9-.6.1-.8.5-.7,1.1-1,.8.3,3.1-2,3.1-.4-.3-.8-.6-1.2-.9-.7-1.5-1.3-3-1-4.6.3-1.5.8-3,1-4.6.2-.8.6-1.4,1.2-2Z"/>
        <path class="cls-91" d="M208.7,213.1c-.2-1.3,1.3-2.8-.4-3.9-1-2.7,4.5-4.7-.1-8.3,4.1,4.4,5.3.5,7-1.1.9.4,1.2,1.1,1,2.1-.6,5-3.9,8.2-7.5,11.2Z"/>
        <path class="cls-36" d="M217.1,197.3c-3.7-4.7-6.7.2-10,.7-1.1-5.1,3.5-5,5.5-4.5,2.4.6,3.7-.4,5.9-1.4-.5,2-1.7,3.4-1.4,5.2Z"/>
        <path class="cls-96" d="M177,220.3c-.5-1-1.4-1-2.3-1,0-.2,0-.5.1-.7,1.5-1.5,3.8-1,5.3-2.4.7-.5,1.2-1.4,2.3-1,.9-.2,1.4.3,1.8,1,.2,1.1-.4,1.9-1.2,2.6-2,.7-3.6,2.8-6.1,1.5Z"/>
        <path class="cls-59" d="M184.1,216.5c-.5-.4-1-.8-1.6-1.3.5-1.8,2.1-2.3,3.6-2.9.3.3.7.7,1,1,.3.4.3.8,0,1.2-.9.9-1.6,2.1-3.1,2Z"/>
        <path class="cls-118" d="M203.8,221.1c.5-1.5.9-2.9,2.3-3.9.4,2,1.1,4.2-2.3,3.9Z"/>
        <path class="cls-87" d="M216.2,201.9c-.3-.7-.7-1.4-1-2.1.6-.6,1.2-1.1,1.8-1.7.5,1.4,1.8,3-.8,3.7Z"/>
        <path class="cls-115" d="M180.2,216.2c-.9,2.8-3.4,1.8-5.3,2.4,1-2.5,3.2-2.2,5.3-2.4Z"/>
        <path class="cls-118" d="M210,224.5c-1.7-.4-3.4-.8-5.2-1.2,1.9-.3,4-1.5,5.2,1.2Z"/>
        <path class="cls-36" d="M220.7,200.6c-.3-.5-.7-.8-.8-1.2-.3-.8,0-1.2.9-1.1.5,0,.9.4.7.9-.2.4-.4.8-.8,1.4Z"/>
        <path class="cls-68" d="M177,220.3c2.3,0,3.7-2.5,6.1-2.3,2.6-1.5,5.3-2.3,8.3-2.2,1.5.1,3.1-.7,4.6.3.6.7.6,1.4,0,2.1-5.2,3.2-10.8,5.3-17,4.9-1.1-.5-2.4-.9-1.9-2.6h-.1Z"/>
        <path class="cls-92" d="M196.1,218.2c0-.5,0-1,0-1.5,0-.5.2-.9.7-1.1.9-.3,1.8-.3,2.7,0,1.9,1.2,0,2.5.1,3.7-.3,1.2-.7,2.3-2.4,1.8-.4-1-.7-2-1.1-3Z"/>
        <path class="cls-35" d="M197.2,221.2c.8-.7,1.5-1.4,2.3-2.1h.2c0,1.8.2,3.6.3,5.3-1.5-.5-2.3-1.7-2.8-3.2Z"/>
        <path class="cls-6" d="M177.1,220.4c.6.9,1.3,1.8,1.9,2.6-1.8.8-3.3,0-5.1-1.4,1.3-.5,2.2-.9,3.2-1.3Z"/>
        <path class="cls-39" d="M196,216.7l-4.1.4c-1-2-4.1-.7-4.9-2.9,0-.3,0-.5.1-.8,3.5-1.3,6.8.2,10.1,1,.4,1-.5,1.4-1,1.8,0,.2,0,.3,0,.5Z"/>
        <path class="cls-37" d="M196.1,216.1c.3-.6.7-1.2,1-1.8,1.4,0,2.4-1.6,4-1.1,0,.7,0,1.4,0,2-.5.7-1.4.5-2.1.7-1,0-1.9.1-2.9.2Z"/>
        <path class="cls-73" d="M199,215.9c.5-.8,1.3-.7,2.1-.7.4,1.6-.5,2.7-1.4,3.9,0,0-.2,0-.2,0-.4-1,1-2.3-.5-3.1Z"/>
        <path class="cls-65" d="M187,214.1c1.2.2,2.5.4,3.7.5,1.9.1,2.2,1,1.2,2.5-2.9.3-5.9.7-8.8,1,.3-.5.6-1,.9-1.6,1.1-.6,1.1-2.6,2.9-2.4Z"/>
      </g>
    </g>
  </g>
</svg>