<?xml version="1.0" encoding="UTF-8"?>
<!DOCTYPE svg PUBLIC "-//W3C//DTD SVG 1.1//EN" "http://www.w3.org/Graphics/SVG/1.1/DTD/svg11.dtd">
<svg xmlns="http://www.w3.org/2000/svg" version="1.1" width="1040px" height="1853px" style="shape-rendering:geometricPrecision; text-rendering:geometricPrecision; image-rendering:optimizeQuality; fill-rule:evenodd; clip-rule:evenodd" xmlns:xlink="http://www.w3.org/1999/xlink">
<g><path style="opacity:0.942" fill="#f9b800" d="M 424.5,4.5 C 430.879,5.57579 437.212,6.90913 443.5,8.5C 444.666,33.1599 444.833,57.8266 444,82.5C 443.459,88.1003 440.626,91.9336 435.5,94C 426.553,95.5127 417.553,95.846 408.5,95C 404.189,94.0941 400.356,92.2607 397,89.5C 387.092,96.5338 376.592,97.3671 365.5,92C 364.333,90.8333 363.167,89.6667 362,88.5C 357.213,93.2664 351.379,95.5997 344.5,95.5C 339.459,95.2958 334.792,93.9625 330.5,91.5C 327.713,93.2275 324.713,94.3942 321.5,95C 292.167,95.6667 262.833,95.6667 233.5,95C 231.899,94.7266 230.399,94.2266 229,93.5C 231.002,107.349 225.502,116.516 212.5,121C 201.418,124.695 190.584,124.195 180,119.5C 179.436,114.806 179.603,110.14 180.5,105.5C 187.486,106.332 194.486,106.499 201.5,106C 208.353,104.492 211.186,100.325 210,93.5C 190.504,99.2602 178.837,92.2602 175,72.5C 173.276,44.8906 186.109,32.0573 213.5,34C 218.855,34.4646 224.022,35.6312 229,37.5C 228.862,50.2453 229.696,62.7453 231.5,75C 238.856,75.8313 246.189,75.6646 253.5,74.5C 250.806,70.4455 248.639,66.1122 247,61.5C 246.299,58.0717 246.632,54.7383 248,51.5C 254.227,45.9724 260.727,40.8058 267.5,36C 275.709,31.0968 283.709,31.4301 291.5,37C 297.333,41.5 303.167,46 309,50.5C 310.931,53.614 311.598,56.9473 311,60.5C 309.137,65.524 306.637,70.1906 303.5,74.5C 310.468,75.497 317.468,75.8303 324.5,75.5C 324.5,63.8333 324.5,52.1667 324.5,40.5C 330.833,40.5 337.167,40.5 343.5,40.5C 343.334,50.8387 343.5,61.172 344,71.5C 345.752,75.3824 348.585,76.3824 352.5,74.5C 353.806,73.0878 354.64,71.4211 355,69.5C 355.5,58.1716 355.667,46.8382 355.5,35.5C 361.833,35.5 368.167,35.5 374.5,35.5C 374.333,47.5046 374.5,59.5046 375,71.5C 377.053,75.2916 380.219,76.4582 384.5,75C 386.068,72.6959 387.235,70.1959 388,67.5C 390.144,55.914 389.977,44.414 387.5,33C 394.082,32.19 400.582,32.3567 407,33.5C 409.34,47.2445 408.506,60.7445 404.5,74C 410.661,75.6198 416.994,75.9532 423.5,75C 424.494,51.5749 424.827,28.0749 424.5,4.5 Z M 204.5,50.5 C 206.5,50.8333 208.5,51.1667 210.5,51.5C 209.997,58.5467 209.164,65.5467 208,72.5C 205.353,76.7628 202.019,77.4295 198,74.5C 194.439,67.3191 194.772,60.3191 199,53.5C 200.876,52.3913 202.709,51.3913 204.5,50.5 Z M 275.5,52.5 C 280.856,52.5111 285.189,54.6777 288.5,59C 286.196,63.7742 284.029,68.6075 282,73.5C 279.53,75.7309 277.197,75.7309 275,73.5C 272.971,68.6075 270.804,63.7742 268.5,59C 270.708,56.6223 273.042,54.4557 275.5,52.5 Z"/></g>
<g><path style="opacity:0.917" fill="#f9b800" d="M 471.5,4.5 C 472.5,4.5 473.5,4.5 474.5,4.5C 474.5,34.8333 474.5,65.1667 474.5,95.5C 467.833,95.5 461.167,95.5 454.5,95.5C 454.167,66.4923 454.5,37.4923 455.5,8.5C 460.982,7.276 466.315,5.94267 471.5,4.5 Z"/></g>
<g><path style="opacity:0.938" fill="#f9b800" d="M 713.5,4.5 C 719.879,5.57579 726.212,6.90913 732.5,8.5C 733.666,33.1599 733.833,57.8266 733,82.5C 732.459,88.1003 729.626,91.9336 724.5,94C 715.553,95.5127 706.553,95.846 697.5,95C 693.189,94.0941 689.356,92.2607 686,89.5C 684.059,92.1093 681.559,93.9426 678.5,95C 657.167,95.6667 635.833,95.6667 614.5,95C 612.782,94.654 611.115,94.154 609.5,93.5C 608.827,111.671 599.493,121.505 581.5,123C 579.756,119.676 578.423,116.176 577.5,112.5C 580.154,109.736 582.988,107.069 586,104.5C 587.751,102.51 588.751,100.177 589,97.5C 589.5,77.5028 589.667,57.5028 589.5,37.5C 595.833,37.5 602.167,37.5 608.5,37.5C 608.333,49.5046 608.5,61.5046 609,73.5C 609.75,74.1258 610.584,74.6258 611.5,75C 631.175,75.833 650.842,75.6664 670.5,74.5C 671.913,71.3388 673.58,68.3388 675.5,65.5C 665.66,56.9415 654.326,53.7748 641.5,56C 639.336,56.9143 637.336,58.081 635.5,59.5C 632.667,55.1667 629.833,50.8333 627,46.5C 626.333,45.5 626.333,44.5 627,43.5C 633.984,37.259 642.151,33.5923 651.5,32.5C 656.384,32.8429 661.05,34.0095 665.5,36C 676.112,40.6394 686.446,45.8061 696.5,51.5C 699.872,56.1541 700.372,61.1541 698,66.5C 696.877,69.2487 695.377,71.7487 693.5,74C 693.833,74.3333 694.167,74.6667 694.5,75C 700.5,75.6667 706.5,75.6667 712.5,75C 713.494,51.5749 713.827,28.0749 713.5,4.5 Z"/></g>
<g><path style="opacity:0.917" fill="#f9b800" d="M 760.5,4.5 C 761.5,4.5 762.5,4.5 763.5,4.5C 763.5,34.8333 763.5,65.1667 763.5,95.5C 756.833,95.5 750.167,95.5 743.5,95.5C 743.167,66.4923 743.5,37.4923 744.5,8.5C 749.982,7.276 755.315,5.94267 760.5,4.5 Z"/></g>
<g><path style="opacity:0.932" fill="#f9b800" d="M 983.5,4.5 C 984.5,4.5 985.5,4.5 986.5,4.5C 986.333,27.8357 986.5,51.169 987,74.5C 993.418,75.6433 999.918,75.81 1006.5,75C 1008.85,74.6541 1010.68,73.4875 1012,71.5C 1013.09,68.064 1013.92,64.564 1014.5,61C 1013.77,53.4997 1013.1,45.9997 1012.5,38.5C 1019.5,38.5 1026.5,38.5 1033.5,38.5C 1039.48,88.7022 1018.48,106.202 970.5,91C 968.354,88.2052 967.187,85.0386 967,81.5C 966.167,57.1598 966.334,32.8265 967.5,8.5C 972.982,7.276 978.315,5.94267 983.5,4.5 Z"/></g>
<g><path style="opacity:0.867" fill="#f9b800" d="M 596.5,8.5 C 606.416,8.99757 609.916,13.9976 607,23.5C 603.146,27.6706 598.646,28.5039 593.5,26C 587.632,18.8514 588.632,13.018 596.5,8.5 Z"/></g>
<g><path style="opacity:0.861" fill="#f9b800" d="M 1019.5,13.5 C 1029.85,13.6867 1033.35,18.6867 1030,28.5C 1024.67,33.8333 1019.33,33.8333 1014,28.5C 1011.23,21.6226 1013.07,16.6226 1019.5,13.5 Z"/></g>
<g><path style="opacity:0.934" fill="#f9b800" d="M 130.5,31.5 C 150.427,32.9228 161.927,43.5895 165,63.5C 165.667,70.1667 165.667,76.8333 165,83.5C 162.305,89.2701 157.805,92.7701 151.5,94C 137.207,95.3693 122.874,95.8693 108.5,95.5C 108.5,88.8333 108.5,82.1667 108.5,75.5C 120.505,75.6665 132.505,75.4999 144.5,75C 147.593,67.0319 145.927,60.0319 139.5,54C 137.134,52.767 134.634,51.9336 132,51.5C 126.839,52.277 121.673,52.9436 116.5,53.5C 116.5,46.8333 116.5,40.1667 116.5,33.5C 121.324,33.0076 125.99,32.341 130.5,31.5 Z"/></g>
<g><path style="opacity:0.934" fill="#f9b800" d="M 923.5,31.5 C 943.427,32.9228 954.927,43.5895 958,63.5C 958.667,70.1667 958.667,76.8333 958,83.5C 955.305,89.2701 950.805,92.7701 944.5,94C 930.207,95.3693 915.874,95.8693 901.5,95.5C 901.5,88.8333 901.5,82.1667 901.5,75.5C 913.505,75.6665 925.505,75.4999 937.5,75C 940.593,67.0319 938.927,60.0319 932.5,54C 930.134,52.767 927.634,51.9336 925,51.5C 919.839,52.277 914.673,52.9436 909.5,53.5C 909.5,46.8333 909.5,40.1667 909.5,33.5C 914.324,33.0076 918.99,32.341 923.5,31.5 Z"/></g>
<g><path style="opacity:0.936" fill="#f9b800" d="M 75.5,33.5 C 84.7417,32.7148 93.4083,34.5481 101.5,39C 102.022,39.5613 102.355,40.228 102.5,41C 100.981,46.3968 98.9809,51.5635 96.5,56.5C 85.9905,51.3108 76.6572,52.8108 68.5,61C 74.1667,62 79.8333,63 85.5,64C 100.41,70.7922 103.577,81.2922 95,95.5C 89.055,102.391 81.555,106.557 72.5,108C 56.0956,110.268 39.7622,109.935 23.5,107C 2.25625,96.614 -3.57708,80.4473 6,58.5C 8.31243,55.0205 11.1458,52.0205 14.5,49.5C 19.1518,52.8207 23.4851,56.4874 27.5,60.5C 26.5771,62.9242 25.0771,64.9242 23,66.5C 16.1305,78.2594 19.2972,85.7594 32.5,89C 44.4893,90.853 56.4893,90.853 68.5,89C 72.8437,88.5023 76.177,86.5023 78.5,83C 78.1802,81.3468 77.1802,80.3468 75.5,80C 68.1441,79.8313 60.8108,79.3313 53.5,78.5C 50.9267,71.6104 48.26,64.7771 45.5,58C 51.1667,52.3333 56.8333,46.6667 62.5,41C 66.6017,37.9539 70.935,35.4539 75.5,33.5 Z"/></g>
<g><path style="opacity:0.946" fill="#f9b800" d="M 535.5,33.5 C 562.88,31.3795 576.046,44.0461 575,71.5C 571.855,91.6624 560.355,99.1624 540.5,94C 537.048,92.7743 533.715,91.2743 530.5,89.5C 528.005,91.1492 526.505,93.4826 526,96.5C 525.5,108.162 525.333,119.829 525.5,131.5C 518.5,131.5 511.5,131.5 504.5,131.5C 504.333,119.162 504.5,106.829 505,94.5C 506.449,84.8938 511.282,77.5605 519.5,72.5C 520.333,60.8476 520.833,49.1809 521,37.5C 525.845,35.8381 530.679,34.5048 535.5,33.5 Z M 541.5,50.5 C 550.182,50.6422 554.516,55.1422 554.5,64C 553.946,66.8236 553.446,69.657 553,72.5C 551.666,76.1044 549.166,77.271 545.5,76C 543.667,75.5 542.5,74.3333 542,72.5C 540.838,66.5632 540.004,60.5632 539.5,54.5C 539.803,52.8857 540.47,51.5523 541.5,50.5 Z"/></g>
<g><path style="opacity:0.936" fill="#f9b800" d="M 868.5,33.5 C 877.742,32.7148 886.408,34.5481 894.5,39C 895.022,39.5613 895.355,40.228 895.5,41C 893.981,46.3968 891.981,51.5635 889.5,56.5C 878.991,51.3108 869.657,52.8108 861.5,61C 867.167,62 872.833,63 878.5,64C 893.41,70.7922 896.577,81.2922 888,95.5C 882.055,102.391 874.555,106.557 865.5,108C 849.096,110.268 832.762,109.935 816.5,107C 795.256,96.614 789.423,80.4473 799,58.5C 801.312,55.0205 804.146,52.0205 807.5,49.5C 812.152,52.8207 816.485,56.4874 820.5,60.5C 819.577,62.9242 818.077,64.9242 816,66.5C 809.13,78.2594 812.297,85.7594 825.5,89C 837.489,90.853 849.489,90.853 861.5,89C 865.844,88.5023 869.177,86.5023 871.5,83C 871.18,81.3468 870.18,80.3468 868.5,80C 861.144,79.8313 853.811,79.3313 846.5,78.5C 843.927,71.6104 841.26,64.7771 838.5,58C 844.167,52.3333 849.833,46.6667 855.5,41C 859.602,37.9539 863.935,35.4539 868.5,33.5 Z"/></g>
<g><path style="opacity:0.884" fill="#f9b800" d="M 39.5,114.5 C 50.1599,113.328 54.3266,117.994 52,128.5C 46.9106,134.408 41.5773,134.741 36,129.5C 33.2044,123.452 34.3711,118.452 39.5,114.5 Z"/></g>
<g><path style="opacity:0.871" fill="#f9b800" d="M 60.5,114.5 C 72.2874,114.448 75.7874,119.782 71,130.5C 66.621,134.184 62.121,134.351 57.5,131C 52.8468,124.416 53.8468,118.916 60.5,114.5 Z"/></g>
<g><path style="opacity:0.884" fill="#f9b800" d="M 832.5,114.5 C 843.16,113.328 847.327,117.994 845,128.5C 839.911,134.408 834.577,134.741 829,129.5C 826.204,123.452 827.371,118.452 832.5,114.5 Z"/></g>
<g><path style="opacity:0.871" fill="#f9b800" d="M 853.5,114.5 C 865.287,114.448 868.787,119.782 864,130.5C 859.621,134.184 855.121,134.351 850.5,131C 845.847,124.416 846.847,118.916 853.5,114.5 Z"/></g>
<g><path style="opacity:0.924" fill="#f9b800" d="M 28.5,156.5 C 34.5,156.5 40.5,156.5 46.5,156.5C 54.9589,180.541 63.6256,204.541 72.5,228.5C 65.8582,229.664 59.1915,229.831 52.5,229C 50.1287,223.719 48.4621,218.219 47.5,212.5C 40.5,212.5 33.5,212.5 26.5,212.5C 25.3744,218.171 23.7077,223.671 21.5,229C 14.8085,229.831 8.1418,229.664 1.5,228.5C 10.9034,204.62 19.9034,180.62 28.5,156.5 Z M 36.5,181.5 C 38.7387,186.216 40.4054,191.216 41.5,196.5C 38.5,196.5 35.5,196.5 32.5,196.5C 33.8333,191.5 35.1667,186.5 36.5,181.5 Z"/></g>
<g><path style="opacity:0.918" fill="#f9b800" d="M 77.5,156.5 C 84.1667,156.5 90.8333,156.5 97.5,156.5C 97.5,175.5 97.5,194.5 97.5,213.5C 105.5,213.5 113.5,213.5 121.5,213.5C 121.5,218.833 121.5,224.167 121.5,229.5C 106.833,229.5 92.1667,229.5 77.5,229.5C 77.5,205.167 77.5,180.833 77.5,156.5 Z"/></g>
<g><path style="opacity:0.942" fill="#f9b800" d="M 126.5,156.5 C 133.167,156.5 139.833,156.5 146.5,156.5C 146.5,165.5 146.5,174.5 146.5,183.5C 153.5,183.5 160.5,183.5 167.5,183.5C 167.5,174.5 167.5,165.5 167.5,156.5C 173.833,156.5 180.167,156.5 186.5,156.5C 186.5,180.833 186.5,205.167 186.5,229.5C 180.167,229.5 173.833,229.5 167.5,229.5C 167.5,219.5 167.5,209.5 167.5,199.5C 160.5,199.5 153.5,199.5 146.5,199.5C 146.5,209.5 146.5,219.5 146.5,229.5C 139.833,229.5 133.167,229.5 126.5,229.5C 126.5,205.167 126.5,180.833 126.5,156.5 Z"/></g>
<g><path style="opacity:0.924" fill="#f9b800" d="M 218.5,156.5 C 224.5,156.5 230.5,156.5 236.5,156.5C 244.959,180.541 253.626,204.541 262.5,228.5C 255.858,229.664 249.192,229.831 242.5,229C 240.129,223.719 238.462,218.219 237.5,212.5C 230.5,212.5 223.5,212.5 216.5,212.5C 215.374,218.171 213.708,223.671 211.5,229C 204.808,229.831 198.142,229.664 191.5,228.5C 200.903,204.62 209.903,180.62 218.5,156.5 Z M 226.5,181.5 C 228.739,186.216 230.405,191.216 231.5,196.5C 228.5,196.5 225.5,196.5 222.5,196.5C 223.833,191.5 225.167,186.5 226.5,181.5 Z"/></g>
<g><path style="opacity:0.925" fill="#f9b800" d="M 264.5,156.5 C 281.5,156.5 298.5,156.5 315.5,156.5C 315.666,161.844 315.499,167.177 315,172.5C 306.5,185.667 298,198.833 289.5,212C 298.827,212.5 308.161,212.666 317.5,212.5C 317.5,218.167 317.5,223.833 317.5,229.5C 299.833,229.5 282.167,229.5 264.5,229.5C 264.334,224.821 264.501,220.155 265,215.5C 273.459,201.412 282.292,187.579 291.5,174C 283.5,173.667 275.5,173.333 267.5,173C 266.056,167.61 265.056,162.11 264.5,156.5 Z"/></g>
<g><path style="opacity:0.922" fill="#f9b800" d="M 325.5,156.5 C 341.167,156.5 356.833,156.5 372.5,156.5C 372.5,161.833 372.5,167.167 372.5,172.5C 363.5,172.5 354.5,172.5 345.5,172.5C 345.5,176.5 345.5,180.5 345.5,184.5C 352.833,184.5 360.167,184.5 367.5,184.5C 367.158,189.548 366.492,194.548 365.5,199.5C 358.833,199.5 352.167,199.5 345.5,199.5C 345.5,204.167 345.5,208.833 345.5,213.5C 354.833,213.5 364.167,213.5 373.5,213.5C 373.5,218.833 373.5,224.167 373.5,229.5C 357.5,229.5 341.5,229.5 325.5,229.5C 325.5,205.167 325.5,180.833 325.5,156.5 Z"/></g>
<g><path style="opacity:0.93" fill="#f9b800" d="M 383.5,156.5 C 389.425,156.192 395.259,156.525 401,157.5C 406.876,172.963 413.042,188.296 419.5,203.5C 425.831,188.176 432.164,172.843 438.5,157.5C 444.128,156.505 449.794,156.171 455.5,156.5C 456.755,180.838 458.089,205.171 459.5,229.5C 453.167,229.5 446.833,229.5 440.5,229.5C 440.249,219.491 439.749,209.491 439,199.5C 435.195,209.248 431.195,218.914 427,228.5C 421.886,229.804 416.719,229.804 411.5,228.5C 407.057,218.615 402.891,208.615 399,198.5C 398.673,208.85 398.173,219.183 397.5,229.5C 391.5,229.5 385.5,229.5 379.5,229.5C 380.677,205.157 382.01,180.824 383.5,156.5 Z"/></g>
<g><path style="opacity:0.93" fill="#f9b800" d="M 505.5,156.5 C 513.668,155.95 521.668,156.783 529.5,159C 532.533,160.178 535.199,161.844 537.5,164C 535.557,168.72 533.224,173.22 530.5,177.5C 525.799,174.646 520.799,172.646 515.5,171.5C 510.052,171.898 508.718,174.398 511.5,179C 517.707,182.603 524.04,185.936 530.5,189C 539.339,198.217 540.506,208.383 534,219.5C 530.476,224.694 525.643,227.861 519.5,229C 508.027,230.739 497.361,228.572 487.5,222.5C 487.167,221.833 486.833,221.167 486.5,220.5C 488.39,215.718 490.557,211.052 493,206.5C 498.255,210.377 504.089,213.044 510.5,214.5C 515.844,213.655 517.677,210.655 516,205.5C 510.207,201.353 504.041,197.853 497.5,195C 487.848,186.698 486.015,176.865 492,165.5C 495.86,161.335 500.36,158.335 505.5,156.5 Z"/></g>
<g><path style="opacity:0.924" fill="#f9b800" d="M 566.5,156.5 C 572.5,156.5 578.5,156.5 584.5,156.5C 592.959,180.541 601.626,204.541 610.5,228.5C 603.858,229.664 597.192,229.831 590.5,229C 588.129,223.719 586.462,218.219 585.5,212.5C 578.5,212.5 571.5,212.5 564.5,212.5C 563.374,218.171 561.708,223.671 559.5,229C 552.808,229.831 546.142,229.664 539.5,228.5C 548.903,204.62 557.903,180.62 566.5,156.5 Z M 574.5,181.5 C 576.739,186.216 578.405,191.216 579.5,196.5C 576.5,196.5 573.5,196.5 570.5,196.5C 571.833,191.5 573.167,186.5 574.5,181.5 Z"/></g>
<g><path style="opacity:0.942" fill="#f9b800" d="M 614.5,156.5 C 621.167,156.5 627.833,156.5 634.5,156.5C 634.333,173.17 634.5,189.837 635,206.5C 638.343,213.248 643.51,215.081 650.5,212C 652.487,210.681 653.654,208.848 654,206.5C 655.391,189.872 655.891,173.205 655.5,156.5C 661.833,156.5 668.167,156.5 674.5,156.5C 674.948,175.222 674.448,193.888 673,212.5C 667.337,224.836 657.67,230.503 644,229.5C 630.67,230.178 621.337,224.511 616,212.5C 614.552,193.888 614.052,175.222 614.5,156.5 Z"/></g>
<g><path style="opacity:0.936" fill="#f9b800" d="M 685.5,156.5 C 695.506,156.334 705.506,156.5 715.5,157C 730.664,158.5 739.83,166.666 743,181.5C 745.89,194.155 744.224,206.155 738,217.5C 731.966,224.933 724.133,228.767 714.5,229C 704.839,229.5 695.172,229.666 685.5,229.5C 685.5,205.167 685.5,180.833 685.5,156.5 Z M 705.5,171.5 C 714.491,170.742 719.991,174.742 722,183.5C 724.369,192.879 723.369,201.879 719,210.5C 715.106,213.741 710.606,215.075 705.5,214.5C 705.5,200.167 705.5,185.833 705.5,171.5 Z"/></g>
<g><path style="opacity:0.92" fill="#f9b800" d="M 753.5,156.5 C 760.167,156.5 766.833,156.5 773.5,156.5C 773.5,180.833 773.5,205.167 773.5,229.5C 766.833,229.5 760.167,229.5 753.5,229.5C 753.5,205.167 753.5,180.833 753.5,156.5 Z"/></g>
<g><path style="opacity:0.932" fill="#f9b800" d="M 826.5,156.5 C 832.509,156.334 838.509,156.501 844.5,157C 849.914,158.41 854.247,161.41 857.5,166C 853.667,169.833 849.833,173.667 846,177.5C 841.714,171.527 836.214,170.027 829.5,173C 827.239,175.772 825.739,178.938 825,182.5C 824.333,189.167 824.333,195.833 825,202.5C 825.814,210.15 829.98,214.15 837.5,214.5C 842.329,214.125 846.996,213.125 851.5,211.5C 852.802,216.218 853.968,220.885 855,225.5C 841.767,230.984 828.6,230.817 815.5,225C 806.397,216.537 802.064,206.037 802.5,193.5C 802.426,180.536 807.092,169.702 816.5,161C 819.815,159.17 823.149,157.67 826.5,156.5 Z"/></g>
<g><path style="opacity:0.918" fill="#f9b800" d="M 863.5,156.5 C 870.167,156.5 876.833,156.5 883.5,156.5C 883.5,175.5 883.5,194.5 883.5,213.5C 891.5,213.5 899.5,213.5 907.5,213.5C 907.5,218.833 907.5,224.167 907.5,229.5C 892.833,229.5 878.167,229.5 863.5,229.5C 863.5,205.167 863.5,180.833 863.5,156.5 Z"/></g>
<g><path style="opacity:0.942" fill="#f9b800" d="M 911.5,156.5 C 918.167,156.5 924.833,156.5 931.5,156.5C 931.333,173.17 931.5,189.837 932,206.5C 935.343,213.248 940.51,215.081 947.5,212C 949.487,210.681 950.654,208.848 951,206.5C 952.391,189.872 952.891,173.205 952.5,156.5C 958.833,156.5 965.167,156.5 971.5,156.5C 971.948,175.222 971.448,193.888 970,212.5C 964.337,224.836 954.67,230.503 941,229.5C 927.67,230.178 918.337,224.511 913,212.5C 911.552,193.888 911.052,175.222 911.5,156.5 Z"/></g>
<g><path style="opacity:0.937" fill="#f9b800" d="M 982.5,156.5 C 992.172,156.334 1001.84,156.5 1011.5,157C 1029.43,159.055 1035.6,168.555 1030,185.5C 1028.13,187.709 1025.96,189.542 1023.5,191C 1035.17,198.436 1037.67,208.269 1031,220.5C 1024.38,226.454 1016.55,229.288 1007.5,229C 999.173,229.5 990.84,229.666 982.5,229.5C 982.5,205.167 982.5,180.833 982.5,156.5 Z M 1002.5,170.5 C 1008.64,169.75 1011.64,172.416 1011.5,178.5C 1011.42,184.389 1008.42,186.722 1002.5,185.5C 1002.5,180.5 1002.5,175.5 1002.5,170.5 Z M 1002.5,199.5 C 1013.7,199.835 1016.36,204.668 1010.5,214C 1007.83,214.567 1005.17,215.067 1002.5,215.5C 1002.5,210.167 1002.5,204.833 1002.5,199.5 Z"/></g>
<g><path style="opacity:0.996" fill="#f9b800" d="M -0.5,299.5 C 345.5,299.5 691.5,299.5 1037.5,299.5C 1037.83,448.835 1037.5,598.168 1036.5,747.5C 791.33,889.253 545.997,1030.75 300.5,1172C 297.821,1173.35 295.821,1175.35 294.5,1178C 304.555,1207.96 319.388,1235.12 339,1259.5C 387.947,1317.44 448.114,1359.28 519.5,1385C 574.825,1362.7 624.158,1331.36 667.5,1291C 703.245,1257.22 728.412,1216.72 743,1169.5C 750.224,1138.6 753.224,1107.27 752,1075.5C 753.167,1074.33 754.333,1073.17 755.5,1072C 849.109,1017.37 943.109,963.532 1037.5,910.5C 1037.67,962.501 1037.5,1014.5 1037,1066.5C 1031.75,1185.28 992.751,1291.28 920,1384.5C 857.972,1461.22 785.472,1525.72 702.5,1578C 645.375,1613.9 585.375,1644.56 522.5,1670C 518.833,1670.67 515.167,1670.67 511.5,1670C 374.472,1615.9 254.972,1536.06 153,1430.5C 101.119,1374.79 60.7861,1311.46 32,1240.5C 15.6364,1197.38 4.80308,1153.05 -0.5,1107.5C -0.5,1076.83 -0.5,1046.17 -0.5,1015.5C 247.309,872.092 495.309,728.926 743.5,586C 590.167,585.5 436.834,585.333 283.5,585.5C 283.667,619.502 283.5,653.502 283,687.5C 282.215,689.286 281.049,690.786 279.5,692C 186.275,745.776 92.9415,799.276 -0.5,852.5C -0.5,668.167 -0.5,483.833 -0.5,299.5 Z"/></g>
<g><path style="opacity:0.941" fill="#f9b800" d="M 462.5,1741.5 C 483.371,1738.33 496.871,1746.67 503,1766.5C 506.587,1780.6 506.253,1794.6 502,1808.5C 491.996,1830.19 475.163,1838.36 451.5,1833C 448.851,1832.55 446.351,1831.71 444,1830.5C 444.976,1826.17 446.309,1821.84 448,1817.5C 448.408,1815.59 449.575,1814.59 451.5,1814.5C 459.298,1817.25 466.965,1817.08 474.5,1814C 478.104,1810.18 479.937,1805.68 480,1800.5C 470.871,1806.59 461.371,1807.09 451.5,1802C 438.238,1791.55 433.738,1778.05 438,1761.5C 442.474,1750.18 450.64,1743.52 462.5,1741.5 Z M 465.5,1757.5 C 471.392,1756.07 475.559,1758.07 478,1763.5C 479.471,1769.43 479.804,1775.43 479,1781.5C 474.33,1787.21 468.996,1787.88 463,1783.5C 457.99,1774.23 458.823,1765.56 465.5,1757.5 Z"/></g>
<g><path style="opacity:0.939" fill="#f9b800" d="M 526.5,1741.5 C 543.833,1741.5 561.167,1741.5 578.5,1741.5C 577.5,1748.17 576.5,1754.83 575.5,1761.5C 565.833,1761.5 556.167,1761.5 546.5,1761.5C 546.205,1765.9 545.538,1770.23 544.5,1774.5C 574.744,1772.59 586.577,1786.59 580,1816.5C 575.593,1826.9 567.76,1832.74 556.5,1834C 542.891,1835.26 530.224,1832.43 518.5,1825.5C 520.788,1819.63 523.454,1813.96 526.5,1808.5C 533.563,1813.04 541.229,1815.21 549.5,1815C 556.568,1811.47 558.735,1805.97 556,1798.5C 553.089,1794.8 549.256,1793.14 544.5,1793.5C 540.256,1793.56 536.256,1794.56 532.5,1796.5C 528.441,1794.14 524.774,1791.31 521.5,1788C 523.661,1772.56 525.328,1757.06 526.5,1741.5 Z"/></g>
<g><path style="opacity:0.939" fill="#f9b800" d="M 405.5,1743.5 C 411.833,1743.5 418.167,1743.5 424.5,1743.5C 424.5,1773.83 424.5,1804.17 424.5,1834.5C 416.833,1834.5 409.167,1834.5 401.5,1834.5C 401.667,1812.5 401.5,1790.5 401,1768.5C 396.692,1772.07 391.859,1774.74 386.5,1776.5C 382.53,1772.59 379.53,1767.92 377.5,1762.5C 385.199,1758.97 392.532,1754.8 399.5,1750C 401.706,1747.96 403.706,1745.8 405.5,1743.5 Z"/></g>
<g><path style="opacity:0.936" fill="#f9b800" d="M 587.5,1743.5 C 608.5,1743.5 629.5,1743.5 650.5,1743.5C 650.666,1748.18 650.499,1752.85 650,1757.5C 640.803,1782.76 631.803,1808.09 623,1833.5C 614.919,1834.48 606.752,1834.82 598.5,1834.5C 606.138,1810.75 614.471,1787.25 623.5,1764C 612.505,1763.5 601.505,1763.33 590.5,1763.5C 589.241,1756.87 588.241,1750.21 587.5,1743.5 Z"/></g>
</svg>
