<?xml version="1.0" encoding="UTF-8"?>
<svg xmlns="http://www.w3.org/2000/svg" version="1.1" viewBox="0 0 800 800">
  <defs>
    <style>
      .cls-1 {
        fill: #9d112e;
      }
    </style>
  </defs>
  <!-- Generator: Adobe Illustrator 28.6.0, SVG Export Plug-In . SVG Version: 1.2.0 Build 709)  -->
  <g>
    <g id="Layer_1">
      <path class="cls-1" d="M359.2,8.2c-1.3,1.3-1.9,8.9-1.9,23.7v21.8l9.2,8.7c4.9,4.8,10.8,10.2,13,11.9l4,3.2-19.1,19.7c-10.7,10.7-19.9,19.7-20.7,20-1.1.5-11.5-29.6-11.9-34.5,0-.2,2.5,1.7,5.6,4.5,3.2,2.7,7.3,4.9,9.2,4.9,4.8,0,15.9-11.3,14.6-14.8-1-2.1-62.8-61.1-71.1-67.6-2.1-1.6-1.1,3.7,4.5,24.7,3.8,14.6,11.1,42.5,16.1,61.7,4.9,19.2,9.4,35.5,10,36.3.5.6,7.8-.3,16.1-2.1,8.3-1.6,19.2-3.5,24.5-4.1q9.5-1.1,23.2-15.4l13.7-14.5,15.4,14.5c15,13.8,15.7,14.5,24.5,15.6,4.9.5,16.1,2.4,24.8,4.1,8.6,1.7,15.9,2.9,16.4,2.4,1-1,3-9.1,18.6-72.4l13.4-54.6-10.7,10c-38.8,37.2-60.6,59.8-60.6,62.7s2.9,6,6.4,9.5l6.2,6,6.5-4.5c3.5-2.4,6.4-5.1,6.4-6s.5-1.1,1-.6c1.1,1.1-7,31-8.9,33.4-.5.6-9.7-7.6-20.4-18.3l-19.2-19.6,12.6-12.7,12.7-12.7v-20.8c0-18.1-.3-21.2-2.9-23.4-2.5-2.4-7.8-2.7-41-2.7s-38.7.5-40.1,1.9ZM417.7,37.2c0,6.2-1,8.1-8.1,15.9l-8.1,8.9-9.4-8.3c-9.1-7.8-9.4-8.4-9.4-15.7v-7.8h35v7ZM364.4,148.7c-90.7,11.6-171.3,65.7-216.2,145.1-8.1,14.5-24.8,52.8-24.8,57.3s24.7,2.1,117.7,2.1h117.7v39.8H114.4l-1.1,5.9c-4.1,24.2-2.4,65.2,4,96.6,22.3,109.9,109.4,197.7,221.1,222.7,96.4,21.5,198.7-9.1,268.5-80.2,22.3-22.6,43.7-53.4,56-80.5,4.5-9.9,15.7-39.5,15.7-41.2s-54.4-.8-120.9-.8h-121.1l.5-19.6.5-19.4,124.4-.5,124.4-.3,1.3-6c2.4-11.6,1.4-60.6-1.6-78.9-20.7-123.4-114.2-218.3-236.5-239.7-24.2-4.1-62-5.2-85.1-2.2ZM433,229.8c75.1,13.2,138.2,67.3,160.3,137.3,2.2,7.2,4.6,15.9,5.1,19.4l1.1,6.4h-26.1c-14.3,0-50.3-.5-79.7-1.1l-53.8-1v-118.8l-47.2-.2c-26.1-.2-63.2-.6-82.4-1.3l-35-1,8-5.9c19.1-14.3,53.9-29.1,79.7-33.7,17.2-3,52.5-3.2,70-.2ZM358.8,535.2c0,32.8.2,59.8.5,59.8.2.2,37.5.8,83,1.3l82.7,1-12.7,8.4c-22.9,15.4-46.8,25.3-75.7,31.5-18.6,4-60.4,4.1-79.4.2-48.2-10.3-90.5-35.8-118.4-71.7-18.9-24.2-31.5-50.6-38-79.4l-2.4-10.7h160.3v59.7ZM430.4,753.9v5.9l-14.6,33.5h-9.9l14.1-32h-10.7v6.4h-8.1v-13.9h29.2ZM433.3,773.1c0-13.3,6.8-20.9,15.9-20.9s15.9,7.6,15.9,20.9-6.7,20.9-15.9,20.9-15.9-7.6-15.9-20.9ZM455.6,773.1c0-8-2.6-11.4-6.4-11.4s-6.3,3.3-6.3,11.4,2.6,11.4,6.3,11.4,6.4-3.3,6.4-11.4ZM396.9,766c0,4.7-1.6,8.7-4.6,12.8l-11.2,14.6c-.3.3-.6.6-1.2.6h-8.6c-.4,0-.6-.1-.3-.5l6.6-7.6c1.4-1.7,3.5-4.6,5.5-7.2-1.1.3-2.1.6-3.1.6-7.5,0-13.4-5.4-13.4-12.9s7.1-14,15.3-14,15,6,15,13.6ZM386.7,766.1c0-3.2-2.3-5.3-5.3-5.3s-5.4,2.2-5.4,5.4,2.4,5.6,5.4,5.6,5.3-2.2,5.3-5.7ZM354.7,753.8v39.5h-9.3v-30.1l-5.4,3.2-4.7-4.7,12.2-7.9h7.3Z"/>
    </g>
  </g>
</svg>