<?xml version="1.0" encoding="UTF-8" standalone="no"?>
<!-- Generator: Adobe Illustrator 27.5.0, SVG Export Plug-In . SVG Version: 6.00 Build 0)  -->

<svg
   version="1.1"
   id="Layer_1"
   x="0px"
   y="0px"
   viewBox="0 0 248.71402 300"
   xml:space="preserve"
   sodipodi:docname="Khaleej Club-01.svg"
   width="248.71402"
   height="300"
   inkscape:version="1.3.2 (091e20e, 2023-11-25, custom)"
   xmlns:inkscape="http://www.inkscape.org/namespaces/inkscape"
   xmlns:sodipodi="http://sodipodi.sourceforge.net/DTD/sodipodi-0.dtd"
   xmlns="http://www.w3.org/2000/svg"
   xmlns:svg="http://www.w3.org/2000/svg"><defs
   id="defs47" /><sodipodi:namedview
   id="namedview47"
   pagecolor="#ffffff"
   bordercolor="#999999"
   borderopacity="1"
   inkscape:showpageshadow="2"
   inkscape:pageopacity="0"
   inkscape:pagecheckerboard="0"
   inkscape:deskcolor="#d1d1d1"
   inkscape:zoom="0.674"
   inkscape:cx="277.44807"
   inkscape:cy="335.31157"
   inkscape:window-width="1500"
   inkscape:window-height="912"
   inkscape:window-x="-8"
   inkscape:window-y="-8"
   inkscape:window-maximized="1"
   inkscape:current-layer="Layer_1" />
<style
   type="text/css"
   id="style1">
	.st0{fill:#00703E;}
	.st1{fill:#006134;}
	.st2{fill:#FFCA05;}
	.st3{fill:url(#SVGID_1_);}
	.st4{fill:url(#SVGID_00000075873904778413818900000003617947724024199072_);}
	.st5{fill:url(#SVGID_00000022553833759500970620000000626126988657357719_);}
</style>
<g
   id="g47"
   transform="matrix(0.44829647,0,0,0.44829647,-99.824616,-74.148236)">
	<path
   class="st0"
   d="m 756.5,437.6 c 0.2,8.6 0,17.3 -0.7,26 0,0.3 -0.1,0.7 -0.1,1 -0.1,1 -0.2,2 -0.3,3 0,0.4 -0.1,0.8 -0.1,1.3 -0.1,0.5 -0.1,1.1 -0.2,1.6 -0.6,5.6 -1.3,11.1 -2.3,16.6 -2.4,13.9 -5.9,27.8 -10.7,41.3 -0.6,1.9 -1.3,3.8 -2,5.7 -1.1,2.9 -2.2,5.7 -3.4,8.6 -0.4,1 -0.9,2.1 -1.4,3.1 -2.4,5.6 -5,11.1 -7.9,16.6 -4.1,7.9 -8.7,15.8 -13.8,23.3 l -16.8,25.3 -29.4,44.2 -14.9,22.5 -6.4,9.6 -32.7,49.2 -2.6,3.9 -9,13.5 -4.4,6.6 c -2.2,3.4 -4.6,6.6 -7.1,9.6 -6.2,7.5 -13.1,14.1 -20.4,19.6 -0.2,0.1 -0.3,0.3 -0.5,0.3 -2.1,1.5 -4.2,3 -6.3,4.4 -0.3,0.2 -0.5,0.3 -0.8,0.5 -1.3,0.9 -2.7,1.7 -4,2.4 -1.1,0.6 -2.2,1.2 -3.3,1.8 -0.2,0.1 -0.4,0.2 -0.5,0.3 -0.8,0.4 -1.7,0.9 -2.5,1.3 -1.4,0.7 -2.7,1.3 -4.1,1.9 -0.3,0.1 -0.6,0.2 -0.8,0.3 -0.3,0.2 -0.7,0.3 -1,0.4 -0.3,0.1 -0.5,0.2 -0.8,0.3 -1.2,0.5 -2.4,1 -3.7,1.5 -0.8,0.3 -1.5,0.6 -2.3,0.8 0,0 -0.1,0 -0.1,0 -0.1,0.1 -0.3,0.1 -0.4,0.1 -0.2,0.1 -0.4,0.2 -0.5,0.2 -0.3,0.1 -0.6,0.2 -0.9,0.3 -1.1,0.3 -2.2,0.7 -3.3,1 -0.4,0.1 -0.8,0.2 -1.2,0.3 -0.1,0 -0.3,0.1 -0.4,0.1 -0.2,0.1 -0.4,0.1 -0.6,0.2 -1,0.3 -2,0.5 -3,0.8 v 0 c 0,0 0,0 0,0 -0.4,0.1 -0.8,0.2 -1.2,0.3 -0.1,0 -0.1,0 -0.1,0 -1.1,0.3 -2.3,0.5 -3.4,0.8 -0.1,0 -0.1,0 -0.2,0 -0.3,0.1 -0.6,0.1 -0.8,0.2 0,0 -0.1,0 -0.1,0 v 0 c -0.4,0.1 -0.8,0.2 -1.2,0.3 -0.6,0.1 -1.3,0.2 -1.9,0.3 -0.3,0.1 -0.5,0.1 -0.7,0.1 -0.1,0 -0.2,0 -0.3,0.1 -0.1,0 -0.1,0 -0.2,0 -0.6,0.1 -1.1,0.2 -1.7,0.3 -0.6,0.1 -1.1,0.2 -1.7,0.2 0,0 0,0 -0.1,0 h -0.1 c -0.1,0 -0.2,0 -0.2,0 -0.9,0.1 -1.7,0.2 -2.5,0.3 -0.2,0 -0.4,0.1 -0.6,0.1 -0.2,0 -0.3,0 -0.4,0.1 0,0 0,0 0,0 -0.2,0 -0.5,0 -0.7,0.1 -0.2,0 -0.4,0 -0.6,0.1 -0.3,0 -0.6,0.1 -0.9,0.1 -0.2,0 -0.4,0 -0.6,0 -0.2,0 -0.3,0 -0.5,0 -0.1,0 -0.1,0 -0.2,0 -0.3,0 -0.6,0 -0.9,0 -0.4,0 -0.8,0.1 -1.1,0.1 -0.2,0 -0.3,0 -0.5,0.1 h -1.4 c -0.5,0 -1,0 -1.5,0.1 h -4.4 c -0.5,0 -1,0 -1.4,0 h -0.1 c -0.2,0 -0.4,0 -0.6,0 h -0.6 c -0.2,0 -0.4,0 -0.7,-0.1 H 494 c -0.5,0 -1,-0.1 -1.4,-0.1 h -0.2 c -0.1,0 -0.3,0 -0.4,0 h -0.2 c -0.5,-0.1 -1,-0.1 -1.6,-0.1 0,0 -0.1,0 -0.1,0 -0.2,0 -0.4,0 -0.6,0 0,0 0,0 -0.1,0 -0.2,0 -0.4,0 -0.6,-0.1 -0.4,0 -0.8,-0.1 -1.2,-0.1 -0.5,-0.1 -1,-0.1 -1.4,-0.2 -0.2,0 -0.4,0 -0.5,-0.1 0,0 -0.1,0 -0.1,0 -0.3,0 -0.5,-0.1 -0.8,-0.1 -0.3,0 -0.7,-0.1 -1,-0.1 -0.3,0 -0.6,-0.1 -0.9,-0.1 -0.2,0 -0.3,-0.1 -0.5,-0.1 -0.3,0 -0.7,-0.1 -1,-0.1 -0.1,0 -0.3,0 -0.4,-0.1 -0.5,-0.1 -1,-0.2 -1.6,-0.3 -0.1,0 -0.3,0 -0.4,0 0,0 0,0 -0.1,0 -0.6,-0.1 -1.3,-0.2 -1.9,-0.4 -0.1,0 -0.2,0 -0.2,0 -0.1,0 -0.1,0 -0.2,0 -0.3,-0.1 -0.6,-0.1 -0.9,-0.2 -0.1,0 -0.2,-0.1 -0.3,-0.1 -1.2,-0.3 -2.4,-0.5 -3.6,-0.8 0,0 0,0 0,0 v 0 c 0,0 -0.1,0 -0.1,0 -0.2,0 -0.4,-0.1 -0.6,-0.2 -0.7,-0.2 -1.4,-0.3 -2.2,-0.5 -0.4,-0.1 -0.9,-0.3 -1.3,-0.4 0,0 0,0 0,0 -0.3,-0.1 -0.6,-0.2 -0.9,-0.3 -1.1,-0.3 -2.2,-0.6 -3.2,-1 -0.2,0 -0.3,-0.1 -0.4,-0.1 -0.1,0 -0.1,0 -0.2,-0.1 -0.4,-0.2 -0.9,-0.3 -1.3,-0.4 -0.1,-0.1 -0.3,-0.1 -0.4,-0.2 -0.6,-0.2 -1.2,-0.4 -1.8,-0.6 -0.5,-0.2 -0.9,-0.3 -1.4,-0.5 -0.2,-0.1 -0.4,-0.2 -0.6,-0.2 -0.9,-0.3 -1.7,-0.7 -2.6,-1 -0.6,-0.3 -1.2,-0.5 -1.8,-0.8 -0.3,-0.2 -0.7,-0.3 -1,-0.4 -0.4,-0.2 -0.8,-0.3 -1.1,-0.5 -0.6,-0.3 -1.3,-0.6 -1.9,-0.9 -1,-0.4 -1.9,-0.9 -2.8,-1.4 -0.5,-0.3 -1,-0.5 -1.5,-0.8 -0.7,-0.4 -1.5,-0.8 -2.2,-1.2 -1.2,-0.7 -2.4,-1.4 -3.6,-2.1 -0.3,-0.1 -0.5,-0.3 -0.7,-0.4 -1.1,-0.7 -2.3,-1.5 -3.5,-2.2 -1.1,-0.8 -2.2,-1.5 -3.3,-2.3 -0.7,-0.4 -1.3,-0.9 -1.9,-1.4 -5,-3.8 -9.9,-8.2 -14.4,-13 l -0.1,-0.1 c -1.5,-1.6 -2.9,-3.1 -4.3,-4.8 l -0.1,-0.1 c -0.3,-0.4 -0.7,-0.8 -1,-1.2 -0.7,-0.9 -1.4,-1.7 -2.1,-2.6 v 0 c -1.7,-2.2 -3.4,-4.5 -5,-7 l -13.4,-20.1 -2.2,-3.3 -33.2,-49.9 v 0 l -51,-76.7 -0.1,-0.2 -16.4,-24.7 c -2.3,-3.5 -4.6,-7.1 -6.7,-10.7 -2.5,-4.2 -4.8,-8.4 -7,-12.6 -3.3,-6.4 -6.4,-12.9 -9.1,-19.4 -0.4,-1 -0.8,-1.9 -1.2,-2.9 -5.9,-14.6 -10.4,-29.5 -13.5,-44.7 -0.3,-1.3 -0.5,-2.6 -0.8,-4 -0.3,-1.7 -0.6,-3.3 -0.9,-4.9 -1,-5.9 -1.8,-11.8 -2.3,-17.8 -0.2,-1.9 -0.3,-3.8 -0.5,-5.7 0,-0.3 -0.1,-0.7 -0.1,-1 -0.5,-7.6 -0.8,-15.2 -0.6,-22.9 0,-0.8 0,-1.6 0.1,-2.3 0,-0.1 0,-0.3 0,-0.4 V 436 c 0.4,-13.1 1.8,-26.3 4.3,-39.2 0.3,-1.7 0.6,-3.3 1,-5 0.1,-0.5 0.2,-1 0.3,-1.6 1,-4.9 2.2,-9.7 3.6,-14.6 0.1,-0.1 0.1,-0.2 0.1,-0.3 1.4,-5 3,-10.1 4.7,-15 0,-0.1 0,-0.1 0.1,-0.2 1.1,-3.4 2.4,-6.7 3.7,-10 V 350 l 0.4,-1 c 1.8,-4.7 3.8,-9.3 6,-13.9 3.5,-7.4 7.3,-14.7 11.6,-21.9 0.2,-0.3 0.3,-0.5 0.4,-0.8 0.9,-1.5 1.8,-3 2.8,-4.5 0,0 0,-0.1 0.1,-0.1 1.9,-3 3.8,-6 5.9,-9 0,0 0,0 0.1,-0.1 3.6,-5.2 7.4,-10.4 11.4,-15.4 l 1.9,-2.4 c 0.1,-0.2 0.3,-0.3 0.4,-0.5 5.2,-6.3 10.7,-12.3 16.5,-18.2 2.3,-2.3 4.7,-4.6 7.1,-6.9 0,0 0,0 0.1,-0.1 0.7,-0.7 1.5,-1.3 2.2,-2 0.1,-0.2 0.3,-0.3 0.4,-0.3 1,-0.9 1.9,-1.7 2.9,-2.5 0,0 0,0 0,0 3.4,-3 6.8,-5.8 10.3,-8.5 5.2,-4.1 10.5,-7.9 15.9,-11.6 0.1,-0.1 0.2,-0.2 0.3,-0.2 6.8,-4.5 13.8,-8.8 21,-12.6 0,0 0,0 0,0 1.3,-0.8 2.7,-1.5 4.1,-2.2 0,0 0,0 0,0 2.2,-1.1 4.3,-2.2 6.5,-3.3 0.1,0 0.2,-0.1 0.3,-0.1 0.3,-0.1 0.6,-0.3 0.8,-0.4 10.7,-5 21.6,-9.3 32.7,-12.8 0.1,0 0.2,0 0.3,-0.1 4.8,-1.5 9.7,-2.9 14.5,-4.1 0.7,-0.2 1.4,-0.3 2.2,-0.5 1.4,-0.3 2.7,-0.6 4,-0.9 4.7,-1 9.4,-2 14.1,-2.7 0.1,0 0.1,0 0.2,0 11.8,-1.9 23.6,-3 35.5,-3.3 h 0.2 c 2,-0.1 4,-0.1 6,-0.1 v 0 c 9.8,0 19.7,0.6 29.5,1.7 0.1,0 0.1,0 0.2,0 8.8,1 17.6,2.5 26.3,4.4 1.6,0.3 3.2,0.7 4.8,1.1 0.7,0.2 1.5,0.3 2.2,0.5 0.6,0.2 1.2,0.3 1.8,0.5 0.1,0 0.2,0 0.2,0.1 11.5,3 22.9,6.8 34,11.4 0.1,0.1 0.2,0.1 0.3,0.1 3.5,1.5 7,3 10.4,4.7 2.8,1.3 5.5,2.7 8.3,4.1 0,0 0,0 0,0 1.4,0.7 2.7,1.4 4.1,2.2 0,0 0,0 0,0 3.2,1.7 6.3,3.5 9.4,5.4 0.1,0.1 0.2,0.1 0.3,0.2 9.2,5.5 18.2,11.7 26.7,18.4 1.1,0.9 2.1,1.7 3.2,2.6 0.1,0.1 0.2,0.2 0.3,0.3 2.5,2 4.9,4.1 7.3,6.2 v 0 c 1.8,1.6 3.7,3.3 5.5,5 0,0 0,0 0.1,0.1 2.2,2 4.4,4.1 6.5,6.3 2.6,2.6 5.1,5.2 7.6,7.9 0.1,0.1 0.3,0.3 0.4,0.4 3.8,4.1 7.4,8.4 10.9,12.7 4.2,5.2 8.2,10.6 11.9,16.1 0,0 0.1,0 0.1,0.1 0.2,0.3 0.4,0.6 0.6,0.9 0.1,0.2 0.3,0.4 0.4,0.6 1.7,2.5 3.3,5 4.9,7.5 0,0 0,0.1 0.1,0.1 5.3,8.5 10,17.3 14.3,26.3 0,0 0,0.1 0,0.1 0.1,0.3 0.3,0.5 0.4,0.8 2.2,4.8 4.3,9.6 6.2,14.5 1.4,3.5 2.7,7 3.9,10.6 0,0.1 0,0.1 0.1,0.2 1.4,4.3 2.8,8.5 4,12.9 0.1,0.4 0.3,0.9 0.3,1.3 0.1,0.3 0.2,0.7 0.3,1 0,0.1 0.1,0.2 0.1,0.3 1.8,6.6 3.3,13.3 4.5,20 1.3,7 2.3,14.1 3,21.2 0.1,0.6 0.2,1.2 0.2,1.9 0.5,5.7 0.9,11.6 1,17.4 -0.6,0.1 -0.6,0.3 -0.6,0.5 z"
   id="path1" />
	<g
   id="g14">
		<path
   class="st1"
   d="m 497.7,812.9 c 0.1,0 0.3,0 0.4,0 h 0.6 c 0.4,0 0.8,0 1.2,0 0.4,0 0.9,0 1.3,0 h 0.6 c 0.1,0 0.2,0 0.3,0 v 0 L 500,187.1 Z"
   id="path2" />
		<path
   class="st1"
   d="m 489.6,812.5 c 0.2,0 0.4,0 0.6,0 0,0 0.1,0 0.1,0 0.5,0.1 1,0.1 1.6,0.1 0.1,0 0.1,0 0.2,0 0.1,0 0.2,0 0.4,0 0.1,0 0.1,0 0.2,0 0.5,0 1,0.1 1.5,0.1 l -56.3,-618 z"
   id="path3" />
		<path
   class="st1"
   d="m 378.6,217.6 102.5,593.8 c 0.1,0 0.2,0 0.4,0.1 0.3,0.1 0.7,0.1 1,0.2 0.2,0 0.3,0.1 0.5,0.1 0.3,0 0.6,0.1 0.9,0.1 0.3,0 0.6,0.1 1,0.1 0.3,0.1 0.5,0.1 0.8,0.1 z"
   id="path4" />
		<path
   class="st1"
   d="m 325.7,255.4 146.2,554.1 c 0,0 0,0 0,0 1.2,0.3 2.4,0.6 3.6,0.8 0.1,0 0.2,0 0.3,0.1 0.3,0.1 0.6,0.1 0.9,0.2 z"
   id="path5" />
		<path
   class="st1"
   d="m 282.3,307.9 179.3,498.6 c 0.5,0.2 0.9,0.3 1.4,0.5 0.1,0 0.1,0 0.2,0.1 0.1,0 0.3,0.1 0.4,0.1 1.1,0.4 2.2,0.7 3.3,1 L 282.3,307.7 c 0,0.1 0,0.1 0,0.2 z"
   id="path6" />
		<path
   class="st1"
   d="M 252.6,375.5 449,801.3 c 0.6,0.3 1.3,0.6 1.9,0.9 0.4,0.2 0.8,0.3 1.1,0.5 0.3,0.2 0.7,0.3 1,0.4 0.6,0.3 1.2,0.5 1.8,0.8 L 252.7,375.2 c -0.1,0.1 -0.1,0.2 -0.1,0.3 z"
   id="path7" />
		<path
   class="st1"
   d="m 244.1,463.1 187.2,327.7 c 1.1,0.8 2.2,1.6 3.3,2.3 1.1,0.8 2.3,1.5 3.4,2.2 0.2,0.2 0.5,0.3 0.7,0.5 L 244,462 c 0,0.4 0.1,0.7 0.1,1.1 z"
   id="path8" />
		<path
   class="st1"
   d="m 506.7,812.7 c 0.3,0 0.6,0 0.9,0 0.1,0 0.1,0 0.2,0 0.2,0 0.3,0 0.5,0 0.2,0 0.4,0 0.6,0 0.3,0 0.6,0 0.9,-0.1 0.2,0 0.4,0 0.7,-0.1 0.2,0 0.5,-0.1 0.7,-0.1 L 563,194.9 Z"
   id="path9" />
		<path
   class="st1"
   d="m 622.1,217.9 -107,594 c 0,0 0,0 0.1,0 0.1,0 0,0 0.1,0 0.6,-0.1 1.1,-0.1 1.7,-0.2 0.6,-0.1 1.1,-0.2 1.7,-0.3 0.1,0 0.1,0 0.2,0 0.1,0 0.2,0 0.3,0 0.2,0 0.5,-0.1 0.7,-0.1 z"
   id="path10" />
		<path
   class="st1"
   d="M 674.9,255.9 524.1,810.4 c 1.2,-0.2 2.3,-0.5 3.4,-0.8 0,0 0.1,0 0.1,0 0.4,-0.1 0.8,-0.2 1.3,-0.3 0,0 0,0 0,0 l 146,-553.4 c 0,0.1 0,0 0,0 z"
   id="path11" />
		<path
   class="st1"
   d="m 718.1,308.5 -184,499.4 c 1.1,-0.3 2.2,-0.7 3.3,-1 0.3,-0.1 0.6,-0.2 0.9,-0.3 0.2,-0.1 0.4,-0.1 0.5,-0.2 0.1,0 0.3,-0.1 0.4,-0.1 0,0 0.1,0 0.1,0 L 718.2,308.7 c 0,-0.1 -0.1,-0.2 -0.1,-0.2 z"
   id="path12" />
		<path
   class="st1"
   d="M 747.6,376.3 546.1,803.6 c 0.3,-0.1 0.7,-0.3 1,-0.4 0.3,-0.1 0.6,-0.2 0.8,-0.4 1.4,-0.6 2.7,-1.2 4.1,-1.9 L 747.7,376.6 c -0.1,-0.1 -0.1,-0.2 -0.1,-0.3 z"
   id="path13" />
		<path
   class="st1"
   d="m 562.4,795 c 0.3,-0.2 0.6,-0.3 0.8,-0.5 2.1,-1.4 4.2,-2.8 6.3,-4.3 0.2,-0.1 0.3,-0.2 0.5,-0.3 L 755.8,464.7 c 0,-0.4 0.1,-0.7 0.1,-1.1 z"
   id="path14" />
	</g>
	<path
   class="st0"
   d="m 500.3,834.6 c -0.2,0 -0.4,0 -0.6,0 -14.9,-0.1 -29.6,-2.5 -43.5,-7.1 -1.6,-0.5 -3.1,-1.1 -4.6,-1.7 l -0.8,-0.3 c -1,-0.4 -2,-0.8 -2.9,-1.2 -0.6,-0.3 -1.3,-0.6 -2,-0.9 -0.4,-0.2 -0.8,-0.3 -1.2,-0.5 -0.4,-0.2 -0.9,-0.4 -1.4,-0.6 -0.7,-0.3 -1.4,-0.7 -2.2,-1 -1,-0.5 -2.1,-1 -3.2,-1.6 -0.7,-0.4 -1.2,-0.6 -1.8,-0.9 -0.9,-0.5 -1.8,-1 -2.7,-1.5 -1.3,-0.7 -2.7,-1.5 -4,-2.3 -0.4,-0.2 -0.7,-0.4 -1.1,-0.7 -1.2,-0.8 -2.6,-1.6 -3.9,-2.5 -1.3,-0.9 -2.5,-1.7 -3.8,-2.7 -0.8,-0.5 -1.5,-1.1 -2.3,-1.7 -5.9,-4.5 -11.5,-9.5 -16.7,-15 l -0.2,-0.2 c -1.5,-1.6 -2.9,-3.2 -4.4,-4.9 l -0.4,-0.4 -0.6,-0.8 c -0.2,-0.3 -0.5,-0.6 -0.7,-0.9 -1,-1.2 -1.7,-2.1 -2.5,-3.1 l -0.1,-0.1 c -2,-2.6 -3.9,-5.2 -5.6,-7.8 L 269,596.2 c -2.5,-3.8 -5,-7.7 -7.3,-11.6 -2.7,-4.5 -5.3,-9.1 -7.6,-13.7 -3.5,-6.7 -6.8,-13.8 -9.8,-20.9 -0.4,-1 -0.9,-2.1 -1.3,-3.2 -6.3,-15.4 -11.2,-31.7 -14.6,-48.2 -0.3,-1.3 -0.6,-2.8 -0.9,-4.3 -1.5,-8.1 -2.7,-16.4 -3.5,-24.5 -0.2,-2 -0.4,-4.1 -0.5,-6.1 0,-0.4 -0.1,-0.9 -0.1,-1.3 -0.6,-8.1 -0.8,-16.3 -0.7,-24.6 0,-0.8 0,-1.6 0.1,-2.5 V 435 434.6 434 c 0.4,-14.1 2,-28.3 4.6,-42.2 0.3,-1.8 0.7,-3.6 1.1,-5.4 l 0.1,-0.5 c 0.1,-0.4 0.2,-0.8 0.3,-1.3 1.1,-5.3 2.4,-10.5 3.8,-15.5 0,-0.2 0.1,-0.4 0.2,-0.6 1.5,-5.5 3.2,-10.9 5,-16.1 l 0.2,-0.5 c 1.3,-3.8 2.6,-7.2 3.9,-10.5 l 0.5,-1.2 c 2,-5 4.2,-10.1 6.4,-14.9 3.7,-8 7.9,-15.9 12.4,-23.6 0.1,-0.2 0.3,-0.5 0.5,-0.8 l 0.1,-0.2 c 0.9,-1.5 1.8,-3.1 2.8,-4.6 0.1,-0.2 0.3,-0.5 0.4,-0.7 1.7,-2.7 3.5,-5.5 5.4,-8.3 l 2.5,-3.6 c 3.3,-4.8 6.9,-9.5 10.6,-14.1 0.6,-0.8 1.3,-1.7 2,-2.5 0.1,-0.1 0.5,-0.6 0.5,-0.6 5.6,-6.8 11.6,-13.4 17.8,-19.6 1.8,-1.8 3.6,-3.6 5.4,-5.3 l 4.2,-3.9 c 0.1,-0.1 0.2,-0.2 0.3,-0.3 0.2,-0.2 0.5,-0.4 0.7,-0.6 l 0.3,-0.3 c 0.9,-0.8 1.8,-1.6 2.7,-2.4 l 4.5,-4.1 h 0.3 c 2.1,-1.8 4.3,-3.5 6.4,-5.2 5.5,-4.4 11.3,-8.6 17.1,-12.5 0,0 0.4,-0.2 0.5,-0.4 6.7,-4.5 13.7,-8.7 20.7,-12.5 l 8.7,-4.5 c 1.5,-0.8 3,-1.5 4.6,-2.3 l 0.3,-0.1 c 0.4,-0.2 0.7,-0.3 1.1,-0.5 11.2,-5.3 22.9,-9.9 34.8,-13.6 0.3,-0.1 0.5,-0.2 0.8,-0.2 5,-1.6 10.3,-3.1 15.5,-4.3 0.8,-0.2 1.6,-0.4 2.4,-0.6 1.3,-0.3 2.7,-0.6 4.1,-1 h 0.2 c 5,-1.1 10.1,-2.1 15.2,-2.9 l 0.4,-0.1 c 12.4,-2 25.3,-3.3 38.1,-3.6 0.1,0 0.7,0 0.7,0 1.9,-0.1 3.9,-0.1 6.1,-0.1 10.5,0 21.2,0.6 31.6,1.8 0.3,0 0.6,0.1 0.8,0.1 9.5,1.1 19,2.7 28.2,4.8 1.6,0.4 3.4,0.8 5.2,1.2 0.8,0.2 1.6,0.4 2.4,0.6 0.5,0.1 1.2,0.3 1.8,0.5 0.1,0 0.3,0.1 0.6,0.2 12.3,3.2 24.5,7.3 36.3,12.2 0.2,0.1 0.4,0.2 0.6,0.3 4,1.7 7.7,3.3 11.1,5 2.1,1 4.2,2 6.4,3.1 l 2.5,1.3 c 0.7,0.3 1.3,0.7 1.9,1 l 8.6,4.7 c 1.3,0.7 2.5,1.5 3.9,2.3 0.3,0.1 0.6,0.3 0.9,0.5 9.9,6 19.6,12.6 28.6,19.8 1.2,0.9 2.3,1.8 3.4,2.7 l 0.4,0.4 c 2.7,2.2 5.3,4.4 7.9,6.7 l 0.3,0.3 c 1.2,1.1 2.5,2.2 3.7,3.4 l 0.3,0.2 1.8,1.8 c 2.2,2.1 4.6,4.3 6.9,6.6 2.6,2.6 5.3,5.4 8,8.3 0.2,0.2 0.4,0.5 0.6,0.7 4.1,4.5 8.1,9.1 11.8,13.7 4.2,5.2 8.2,10.5 11.9,15.9 l 2.3,3.4 c 1.7,2.6 3.4,5.2 5,7.7 0.1,0.2 0.3,0.4 0.4,0.6 5.6,9 10.7,18.5 15.2,28.1 l 0.1,0.3 c 0.1,0.2 0.3,0.5 0.4,0.8 4,8.7 7.7,17.8 10.8,26.9 v 0.1 c 1.6,4.7 3,9.3 4.4,14 l 0.1,0.2 c 0.1,0.5 0.3,0.9 0.4,1.4 l 0.3,1.1 c 2,7.4 3.7,14.7 5,21.8 1.4,7.6 2.5,15.3 3.3,22.9 0.1,0.6 0.1,1.4 0.2,2.2 0.6,6 1,12.3 1.1,18.6 v 0.7 c 0.2,9.3 0,18.7 -0.7,27.8 0,0.4 -0.1,0.8 -0.1,1.3 -0.1,1 -0.2,2 -0.3,3 0,0.5 -0.1,1 -0.1,1.5 l -0.2,1.8 c -2.2,21.3 -6.9,42.4 -14,62.6 -0.7,2.1 -1.5,4.2 -2.3,6.2 -1.1,2.9 -2.3,6 -3.6,9.1 -0.4,1 -0.9,2.2 -1.5,3.5 -2.6,5.9 -5.4,12 -8.5,17.9 -4.5,8.6 -9.5,17.1 -14.9,25.2 L 612.8,774.1 c -2.6,3.9 -5.3,7.6 -8.2,11.1 -7,8.5 -14.9,16.1 -23.6,22.6 -0.2,0.2 -0.5,0.4 -0.7,0.6 -2.3,1.7 -4.8,3.4 -7.3,5 -0.3,0.2 -0.7,0.4 -1,0.6 -1.5,0.9 -3,1.9 -4.6,2.8 -1.2,0.7 -2.5,1.4 -3.8,2.1 -0.3,0.1 -0.6,0.3 -0.8,0.4 -0.9,0.5 -1.8,0.9 -2.8,1.4 -1.7,0.8 -3.2,1.6 -4.8,2.2 l -0.7,0.3 c -0.4,0.2 -0.8,0.4 -1.3,0.6 -0.3,0.1 -0.7,0.3 -1,0.4 -1.5,0.6 -2.9,1.2 -4.3,1.7 -0.8,0.3 -1.8,0.7 -2.7,1 l -0.3,0.1 c -0.3,0.1 -0.7,0.3 -1.1,0.4 -0.3,0.1 -0.6,0.2 -1,0.3 -13.5,4.6 -27.9,6.9 -42.5,6.9 z m -45.9,-18.4 0.7,0.3 c 1.4,0.6 2.8,1.1 4.2,1.5 13,4.3 26.6,6.6 40.4,6.6 13.7,0.1 27.3,-2.1 40.1,-6.4 h 0.1 c 0.3,-0.1 0.5,-0.2 0.7,-0.2 h 0.1 c 0.3,-0.1 0.6,-0.2 0.8,-0.3 l 0.4,-0.1 c 0.8,-0.3 1.6,-0.6 2.5,-0.9 1.3,-0.5 2.6,-1 4,-1.6 0.3,-0.1 0.6,-0.2 0.9,-0.4 l 0.1,-0.1 c 0.4,-0.1 0.7,-0.3 1.1,-0.5 l 0.8,-0.4 c 1.4,-0.6 2.8,-1.3 4.4,-2.1 0.9,-0.4 1.7,-0.9 2.6,-1.3 0.3,-0.1 0.5,-0.2 0.7,-0.3 l 0.1,-0.1 c 1.2,-0.6 2.3,-1.3 3.5,-1.9 1.5,-0.8 2.9,-1.7 4.3,-2.6 0.3,-0.2 0.6,-0.4 0.9,-0.6 2.3,-1.4 4.5,-3 6.7,-4.6 0.2,-0.2 0.4,-0.3 0.6,-0.4 8.1,-6.1 15.4,-13.1 21.9,-21 2.7,-3.2 5.2,-6.7 7.6,-10.3 L 722.8,590.6 c 5.2,-7.8 10,-16 14.4,-24.3 3,-5.7 5.7,-11.5 8.2,-17.3 0.6,-1.3 1,-2.3 1.4,-3.3 1.3,-3.1 2.5,-6 3.5,-8.9 0.8,-2 1.5,-3.9 2.2,-5.9 6.8,-19.5 11.4,-39.8 13.5,-60.4 l 0.2,-1.8 c 0,-0.4 0.1,-0.9 0.1,-1.3 0.1,-1 0.2,-2 0.3,-3 0,-0.4 0.1,-0.8 0.1,-1.2 0.7,-8.9 0.9,-18 0.7,-27 v -0.7 c -0.2,-6.1 -0.5,-12.1 -1.1,-18 -0.1,-0.8 -0.1,-1.4 -0.2,-2 -0.7,-7.3 -1.8,-14.8 -3.2,-22.1 -1.3,-6.9 -2.9,-13.9 -4.8,-20.9 l -0.3,-1.2 c -0.1,-0.4 -0.2,-0.8 -0.3,-1.2 l -0.1,-0.2 c -1.3,-4.5 -2.7,-9.1 -4.2,-13.5 v -0.1 c -3,-8.9 -6.5,-17.6 -10.4,-26.1 -0.1,-0.3 -0.2,-0.5 -0.3,-0.7 l -0.1,-0.3 C 738,319.9 733.1,310.8 727.7,302 l -0.1,-0.1 c -0.1,-0.1 -0.1,-0.2 -0.2,-0.3 l -0.1,-0.1 c -1.6,-2.5 -3.2,-5.1 -5,-7.7 l -0.6,-0.9 -0.9,-1.4 -0.3,-0.4 c -3.6,-5.3 -7.6,-10.6 -11.7,-15.7 -3.5,-4.4 -7.4,-8.9 -11.4,-13.3 -0.2,-0.2 -0.3,-0.3 -0.4,-0.5 l -0.1,-0.1 c -2.6,-2.8 -5.2,-5.5 -7.7,-8.1 -2.3,-2.3 -4.5,-4.4 -6.7,-6.5 l -1.4,-1.3 c -1.4,-1.3 -2.8,-2.5 -4.2,-3.8 l -0.3,-0.3 c -2.4,-2.1 -5,-4.3 -7.6,-6.4 l -0.4,-0.3 c -1.1,-0.9 -2.2,-1.8 -3.3,-2.7 -8.8,-6.9 -18.1,-13.3 -27.6,-19.1 l -0.1,-0.1 c -0.2,-0.1 -0.3,-0.2 -0.5,-0.3 l -0.2,-0.1 c -1.3,-0.8 -2.5,-1.5 -3.8,-2.2 l -8.4,-4.6 c -0.5,-0.3 -1.1,-0.6 -1.7,-0.9 l -2.4,-1.2 c -2,-1 -4.1,-2 -6.1,-3 -3.4,-1.6 -6.9,-3.2 -10.8,-4.8 -0.1,-0.1 -0.2,-0.1 -0.3,-0.1 l -0.2,-0.1 c -11.4,-4.7 -23.2,-8.7 -35.1,-11.8 -0.2,-0.1 -0.3,-0.1 -0.4,-0.1 -0.7,-0.2 -1.3,-0.3 -1.8,-0.5 -0.8,-0.2 -1.6,-0.4 -2.3,-0.6 -1.7,-0.4 -3.4,-0.8 -5,-1.1 -8.9,-2 -18.1,-3.6 -27.2,-4.6 h -0.1 c -0.1,0 -0.2,0 -0.4,0 h -0.1 c -10.1,-1.2 -20.4,-1.7 -30.6,-1.7 -2.1,0 -4.1,0 -6,0.1 -0.1,0 -0.4,0 -0.5,0 -12.4,0.3 -24.8,1.5 -36.9,3.5 l -0.3,0.1 c -4.8,0.8 -9.8,1.8 -14.6,2.8 h -0.2 c -1.3,0.3 -2.6,0.6 -4,0.9 -0.8,0.2 -1.6,0.4 -2.3,0.6 -5.1,1.2 -10.1,2.6 -15,4.2 -0.2,0.1 -0.3,0.1 -0.5,0.1 h -0.1 c -11.6,3.6 -22.9,8.1 -33.7,13.2 l -0.1,0.1 c -0.3,0.1 -0.6,0.3 -0.9,0.4 l -0.3,0.1 c -1.6,0.7 -3,1.5 -4.4,2.2 l -8.5,4.5 c -6.7,3.6 -13.4,7.7 -19.9,12 l -0.5,0.3 c -5.6,3.8 -11.2,7.8 -16.5,12 -2.5,2 -5.1,4 -7.5,6.2 l -1.4,1.2 H 326 l -1.8,1.7 c -0.9,0.8 -1.7,1.5 -2.6,2.3 l -0.3,0.3 c -0.1,0.1 -0.3,0.2 -0.4,0.4 l -1.5,1.4 -1.6,1.5 -0.7,0.6 c -1.9,1.8 -3.9,3.7 -5.9,5.7 -6,6 -11.8,12.4 -17.2,18.9 l -0.4,0.5 c -0.7,0.8 -1.3,1.7 -2,2.5 -3.8,4.7 -7.4,9.5 -10.7,14.3 l -0.5,0.7 -1,1.4 -0.2,0.3 c -2,2.9 -3.8,5.6 -5.5,8.4 l -0.1,0.1 c -0.1,0.1 -0.1,0.2 -0.2,0.3 l -0.1,0.1 c -0.9,1.5 -1.9,3 -2.8,4.5 l -0.1,0.2 c -0.1,0.2 -0.2,0.4 -0.3,0.6 -4.4,7.5 -8.4,15.1 -12,22.8 -2.2,4.7 -4.3,9.5 -6.2,14.4 l -0.5,1.2 c -1.2,3.2 -2.5,6.5 -3.8,10.2 l -0.2,0.4 c -1.7,5 -3.4,10.3 -4.8,15.6 l -0.1,0.4 c -1.3,4.8 -2.6,9.9 -3.7,15.1 -0.1,0.4 -0.2,0.8 -0.2,1.1 l -0.1,0.6 c -0.4,1.7 -0.7,3.5 -1,5.2 -2.5,13.4 -4,27.1 -4.4,40.8 v 1.1 c 0,0.8 0,1.6 -0.1,2.4 -0.1,8 0.1,15.9 0.6,23.8 0,0.4 0.1,0.8 0.1,1.2 0.2,2.1 0.3,4 0.5,6 0.8,7.8 1.9,15.8 3.4,23.6 0.3,1.4 0.5,2.8 0.8,4.1 3.3,15.9 8,31.6 14.1,46.5 0.4,1.1 0.8,2.1 1.2,3 2.9,6.9 6.1,13.7 9.5,20.2 2.3,4.4 4.8,8.8 7.4,13.2 2.2,3.7 4.6,7.5 7,11.2 l 118.2,177.9 c 1.6,2.4 3.4,4.9 5.2,7.3 l 0.1,0.2 c 0.6,0.8 1.3,1.7 2.2,2.8 l 0.1,0.1 c 0.2,0.3 0.4,0.6 0.7,0.8 l 0.8,0.9 c 1.4,1.6 2.8,3.2 4.2,4.7 l 0.2,0.2 c 4.7,5 9.9,9.7 15.4,13.9 0.7,0.5 1.4,1 2,1.5 l 0.1,0.1 c 1.2,0.9 2.3,1.7 3.5,2.5 1.2,0.8 2.4,1.6 3.6,2.3 0.3,0.2 0.6,0.4 0.9,0.5 l 0.1,0.1 c 1.2,0.7 2.5,1.5 3.7,2.2 0.8,0.5 1.6,0.9 2.5,1.3 0.5,0.3 1,0.5 1.6,0.9 0.9,0.5 1.9,1 2.9,1.4 0.7,0.4 1.4,0.7 2,1 0.4,0.2 0.8,0.4 1.2,0.6 0.4,0.2 0.7,0.3 1.1,0.5 0.7,0.3 1.3,0.6 1.9,0.8 1,0.4 1.9,0.8 2.8,1.1 z"
   id="path15" />
	<path
   class="st2"
   d="m 567.1,530.2 c -19.7,-3.2 -36.1,-7.6 -49.9,-12.9 0,0 0,0 0,0 -33.6,-12.8 -51,-30.6 -59.4,-48.5 -3.5,-7.4 -5.4,-14.9 -6.2,-22 0,0 0,-0.1 0,-0.1 -0.8,-6.5 -0.7,-12.7 -0.1,-18.3 0,0 0,-0.1 0,-0.2 0.8,-7.4 2.4,-13.9 3.9,-18.8 2,-6.4 4,-10.2 4,-10.2 v 0 z"
   id="path16" />
	<path
   class="st2"
   d="m 630,556.6 c -1.8,-0.6 -3.6,-1.1 -5.4,-1.7 -0.6,-0.2 -1.2,-0.4 -1.8,-0.6 -0.7,-0.2 -1.5,-0.5 -2.2,-0.7 -0.6,-0.2 -1.3,-0.4 -1.9,-0.6 -0.5,-0.1 -0.9,-0.3 -1.3,-0.4 -0.6,-0.2 -1.2,-0.3 -1.8,-0.5 -0.6,-0.2 -1.3,-0.4 -1.9,-0.6 -1.2,-0.3 -2.3,-0.7 -3.4,-1 -0.8,-0.2 -1.5,-0.4 -2.2,-0.6 -0.9,-0.3 -1.9,-0.5 -2.8,-0.8 -0.8,-0.3 -1.6,-0.5 -2.5,-0.7 -1.2,-0.3 -2.3,-0.7 -3.5,-1 -0.6,-0.2 -1.1,-0.3 -1.7,-0.5 -0.6,-0.2 -1.1,-0.3 -1.7,-0.5 -0.6,-0.1 -1.1,-0.3 -1.7,-0.5 -1.7,-0.5 -3.4,-1 -5,-1.4 -1.7,-0.5 -3.3,-1 -5,-1.4 -0.7,-0.2 -1.4,-0.4 -2,-0.6 -0.7,-0.2 -1.3,-0.4 -2,-0.6 -0.8,-0.2 -1.7,-0.5 -2.5,-0.7 -1.1,-0.3 -2.1,-0.6 -3.2,-0.9 v 0 c -14.4,-3.9 -27.7,-7.3 -40.1,-10.1 -6.8,-1.5 -13.2,-3 -19.4,-4.3 -5.1,-1 -10,-2 -14.7,-2.9 -3,-0.6 -5.9,-1.1 -8.7,-1.6 -0.6,-0.1 -1.2,-0.2 -1.9,-0.3 v 0 c -11.6,-2 -22.1,-3.4 -31.4,-4.4 0,0 0,0 -0.1,0 -6.2,-0.8 -12,-1.3 -17.3,-1.6 -7,-0.3 -13.4,-0.3 -19,0.1 0,0 -0.1,0 -0.1,0 -2.1,0.1 -4.1,0.3 -6.1,0.6 -0.1,0 -0.1,0 -0.2,0 -5.2,0.5 -9.9,1.4 -14.3,2.6 -0.2,0.1 -0.5,0.1 -0.6,0.2 0,0 -0.1,0 -0.1,0 -6.5,1.9 -11.9,4.2 -15.8,6.2 0,0 0,0 0,0 -3.9,2.2 -5.7,4 -5.9,4.1 0,0 0,0 0,0 -0.8,3.2 0.7,6.1 1.9,7.8 0.4,0.6 0.7,1 0.8,1.1 v 0 c 0,0 0,0 0,0.1 -0.4,-0.1 -19.8,-5.6 -7,-24.3 0,0 0,0 0,0 0,0 0,-0.1 0.1,-0.1 0.1,-0.2 0.3,-0.5 0.4,-0.7 0.2,-0.3 0.4,-0.6 0.6,-0.9 0,0 1.9,-2.6 4.4,-5.1 0.5,-1.3 0.6,-3.8 1.2,-6.5 0.6,-2.7 1.5,-5.6 3.8,-7.7 0,0 0,-0.1 0.1,-0.1 0.4,-0.3 0.8,-0.7 1.3,-1 0.1,-0.1 0.2,-0.1 0.3,-0.2 6.4,-4.8 16.3,-9.7 31.4,-14.2 7.5,-2.2 16.3,-4.3 26.5,-6.2 0.1,0 0.1,0 0.2,-0.1 v 0 c 2.3,-0.4 4.8,-0.8 7.3,-1.2 1.8,-0.3 3.6,-0.6 5.5,-0.8 1.5,-0.2 3,-0.5 4.6,-0.7 0.3,-0.1 0.7,-0.1 1,-0.1 0.2,0 0.4,0 0.6,-0.1 0.1,0 0.2,0 0.3,-0.1 h 0.1 c 0,0 0,0 0,0 0,-0.1 -0.1,-0.1 -0.1,-0.2 v 0.1 0.1 c 0,0 -0.5,-0.2 -1.3,-0.7 -0.4,-0.2 -0.8,-0.5 -1.3,-0.9 -0.2,-0.2 -0.4,-0.3 -0.6,-0.5 -2.8,-2.4 -6.8,-7 -8.8,-15.6 -0.2,-0.9 -0.4,-1.8 -0.6,-2.8 -0.1,-0.2 -0.1,-0.4 -0.1,-0.5 v -0.1 c -0.5,-3.3 -0.8,-7.1 -0.6,-11.4 0,-0.3 0,-0.5 0,-0.8 0,-0.3 0,-0.6 0,-0.9 0.1,-1.7 0.2,-3.4 0.5,-5.2 v -0.1 c 0.1,-1 0.3,-2.1 0.5,-3.2 0,-0.2 0.1,-0.4 0.1,-0.5 0.9,-5.4 1.7,-8.8 2.5,-10.7 0.1,-0.5 0.3,-1 0.4,-1.4 0.2,-0.8 0.5,-1.6 0.8,-2.5 1,-3.1 2.3,-6.6 3.7,-10.6 6.2,-17.1 16.2,-41.5 26.9,-66.8 0.1,-0.1 0.1,-0.3 0.1,-0.4 0.1,-0.1 0.1,-0.3 0.2,-0.4 0.6,-1.4 1.1,-2.9 1.7,-4.3 0.3,-0.7 0.6,-1.4 0.8,-2.1 0.9,-2.3 1.8,-4.6 2.8,-6.9 0.3,-0.7 0.6,-1.4 0.8,-2.1 1.2,-3 2.4,-5.9 3.6,-8.8 0.6,-1.5 1.2,-3 1.9,-4.5 0.4,-1 0.8,-2 1.2,-2.9 0.2,-0.5 0.4,-1 0.6,-1.5 1.1,-2.6 2.2,-5.2 3.3,-7.7 0.3,-0.7 0.6,-1.5 1,-2.3 0.7,-1.7 1.4,-3.3 2.1,-4.9 0.5,-1 0.9,-2.1 1.3,-3.1 1.7,-3.9 3.3,-7.7 4.9,-11.3 0.3,-0.6 0.5,-1.2 0.8,-1.7 0.5,-1.2 1,-2.3 1.5,-3.5 0.3,-0.6 0.5,-1.1 0.8,-1.7 0.4,-0.9 0.8,-1.9 1.3,-2.8 0.2,-0.5 0.4,-0.9 0.6,-1.4 0.4,-0.9 0.8,-1.8 1.2,-2.7 0.4,-0.8 0.8,-1.7 1.2,-2.6 0.8,-1.7 1.6,-3.4 2.3,-5.1 0.2,-0.4 0.4,-0.8 0.5,-1.2 0.4,-0.8 0.8,-1.6 1.1,-2.4 0.3,-0.7 0.6,-1.3 0.9,-1.9 0.1,-0.1 0.1,-0.1 0.1,-0.2 0.1,-0.4 0.3,-0.7 0.5,-1.1 0.3,-0.6 0.6,-1.2 0.9,-1.8 0.3,-0.7 0.6,-1.3 0.9,-1.9 0.7,-1.5 1.3,-2.8 1.9,-4.1 0.2,-0.3 0.3,-0.6 0.5,-1 0.3,-0.7 0.6,-1.3 0.9,-1.9 0,0 0,0 0,-0.1 0.1,-0.3 0.3,-0.5 0.3,-0.8 0.3,-0.5 0.5,-1 0.7,-1.5 0.1,-0.1 0.1,-0.3 0.2,-0.5 0.1,-0.2 0.1,-0.3 0.2,-0.5 0.1,-0.1 0.1,-0.3 0.2,-0.4 0.7,-1.4 1.2,-2.6 1.7,-3.4 0,-0.1 0.1,-0.2 0.1,-0.2 0.2,-0.4 0.3,-0.7 0.5,-0.9 0,-0.1 0.1,-0.1 0.1,-0.1 0,-0.1 0.1,-0.1 0.1,-0.1 0,0 0,-0.1 0.1,-0.1 0,0.3 -0.2,1 -0.5,2.2 -0.8,3.8 -2.4,12.1 -4.1,23.8 l -4.7,11.7 c -1.2,2.6 -2.6,5.6 -4.1,9 -2.7,6.2 -5.9,13.4 -9,21.2 -3.2,7.8 -6.5,16.2 -9.6,24.7 -1.5,4.3 -3.1,8.5 -4.5,12.7 -1.4,4.2 -2.9,8.3 -4.1,12.4 -1.3,4 -2.5,7.9 -3.5,11.7 -1,3.8 -2,7.3 -2.8,10.6 -0.8,3.3 -1.5,6.3 -1.9,9 -0.4,2.7 -1,5.1 -1.1,7 -0.1,1.3 -0.2,2.4 -0.3,3.3 -0.1,1.5 -0.2,2.5 -0.2,2.7 0.1,-0.5 0.5,-2.6 1,-6 0.3,-1.9 0.9,-4.3 1.5,-6.9 0.1,-0.5 0.2,-1 0.3,-1.4 0.5,-2.1 1.2,-4.3 1.8,-6.6 0.1,-0.3 0.2,-0.5 0.2,-0.8 0.6,-2.4 1.4,-4.8 2.2,-7.4 0.3,-1 0.6,-2 1,-3 1.1,-3.7 2.5,-7.5 3.8,-11.5 1.3,-4 2.8,-8.1 4.2,-12.3 1.5,-4.2 3.1,-8.4 4.6,-12.6 0.9,-2.5 1.9,-5.1 2.8,-7.6 l 20.6,-47.8 c 0,-0.1 0,-0.1 0,-0.1 0.1,-0.1 0.1,-0.1 0.1,-0.1 0,0.1 0,0.2 -0.1,0.3 0,0 0,0.1 0,0.1 -6,48.1 -10.7,132.8 16.8,202.2 0.5,1.3 1,2.5 1.5,3.8 1,2.3 2,4.6 3,6.9 3,6.7 6.5,13.2 10.2,19.5 0.7,1.1 1.4,2.3 2.1,3.4 l 1.6,2.5 c 0.5,0.8 1,1.5 1.5,2.3 1.3,2 2.7,3.9 4.1,5.8 1.9,2.6 3.9,5.2 6,7.8 l 0.5,0.5 c 4.4,5.2 9.1,10.3 14.2,15 2.6,2.4 5.2,4.7 8,6.9 9.7,7.5 20.4,14.3 32.3,19.9 z"
   id="path17" />
	<path
   class="st2"
   d="m 452.1,425.1 c -0.2,1.1 -0.3,2.2 -0.5,3.2 0.8,-7.4 2.4,-13.9 3.9,-18.8 l 0.3,0.4 c -0.3,0.9 -0.5,1.7 -0.8,2.5 -0.1,0.5 -0.3,1 -0.4,1.4 -0.8,2 -1.7,5.4 -2.5,10.7 0,0.2 0,0.4 0,0.6 z"
   id="path18" />
	<path
   class="st2"
   d="m 463,467.3 c 0.8,0.5 1.3,0.7 1.3,0.7 -0.1,0 -0.2,0 -0.3,0.1 -0.2,0 -0.4,0 -0.6,0.1 -0.3,0.1 -0.7,0.1 -1,0.1 -1.5,0.2 -3.1,0.5 -4.6,0.7 -3.5,-7.4 -5.4,-14.9 -6.2,-22 0.1,0.2 0.1,0.3 0.1,0.5 0.2,1 0.4,1.9 0.6,2.8 2.1,8.6 6,13.3 8.8,15.6 0.2,0.2 0.4,0.3 0.6,0.5 0.5,0.3 0.9,0.6 1.3,0.9 z"
   id="path19" />
	<path
   class="st2"
   d="m 464.4,468 c 0,0 0,0 0,0 h -0.1 v -0.1 -0.1 c 0,0 0.1,0.1 0.1,0.2 z"
   id="path20" />
	<g
   id="g42">
		<g
   id="g40">
			<g
   id="g39">
				<path
   class="st2"
   d="m 476.7,718.1 c 0,2.3 -1.4,3.8 -3.6,3.8 v 2.1 h 2.6 v 16.8 h 3.1 v -22.7 z"
   id="path21" />
				<path
   class="st2"
   d="m 490.5,717.9 c -4.4,0 -7.3,3 -7.3,7.6 0,4.6 2.7,7.6 6.8,7.6 2.6,0 4.8,-1.6 6,-3.9 v 0.3 c 0,5.5 -2.6,9.2 -6.5,9.2 -1.3,0 -2.7,-0.5 -4,-1.4 v 3.1 c 1.4,0.4 2.8,0.7 4.1,0.7 5.6,0 9.4,-4.6 9.4,-11.6 0,-7 -3.4,-11.6 -8.5,-11.6 z m 0.1,12.8 c -2.6,0 -4.4,-2.1 -4.4,-5.2 0,-3.1 1.7,-5.2 4.3,-5.2 2.5,0 4.3,2.1 5.1,5.5 -0.1,2.6 -2.3,4.9 -5,4.9 z"
   id="path22" />
				<path
   class="st2"
   d="m 515,733 v -14.9 h -4.7 l -9.2,15.1 v 1.9 H 512 v 5.7 h 2.9 v -5.7 h 2.3 V 733 Z m -3,0 h -8.2 l 8.2,-13.5 z"
   id="path23" />
				<path
   class="st2"
   d="m 524.3,726.6 h -1.1 v -5.9 h 8.5 v -2.6 h -11.4 v 11.1 h 3.9 c 3.4,0 5.6,1.9 5.6,4.7 0,2.8 -2.3,4.7 -5.7,4.7 -1.6,0 -3.2,-0.4 -4.5,-1.4 v 3.1 c 1.7,0.4 3.1,0.6 4.5,0.6 5.4,0 9,-2.9 9,-7.3 0,-4.1 -3.5,-7 -8.8,-7 z"
   id="path24" />
				<g
   id="g38">
					<g
   id="g31">
						<rect
   x="557.79999"
   y="631.79999"
   class="st2"
   width="3.9000001"
   height="3"
   id="rect24" />
						<rect
   x="565.90002"
   y="631.79999"
   class="st2"
   width="4"
   height="3"
   id="rect25" />
						<rect
   x="464.20001"
   y="595.59998"
   class="st2"
   width="3.9000001"
   height="3"
   id="rect26" />
						<polygon
   class="st2"
   points="521.9,621.6 521.9,624.6 525.8,624.6 525.8,621.6 525.8,608.9 525.8,605.9 525.8,598.6 525.8,595.6 521.9,595.6 521.9,598.6 521.9,605.9 521.9,608.9 "
   id="polygon26" />
						<path
   class="st2"
   d="m 517.9,624.6 v -3 -12.7 -3 -7.3 -3 H 514 v 3 7.3 3 12.7 h -22 v -17.2 c 0,-2.3 -0.7,-4.2 -2,-5.7 0,0 -0.1,-0.1 -0.1,-0.1 -0.5,-0.6 -1.1,-1.1 -1.8,-1.6 -0.1,0 -0.1,-0.1 -0.2,-0.1 -0.9,-0.6 -2,-1 -3.1,-1.2 -0.1,0 -0.3,-0.1 -0.5,-0.1 -0.7,-0.1 -1.5,-0.2 -2.3,-0.2 -0.8,0 -1.6,0.1 -2.3,0.2 -0.1,0 -0.3,0.1 -0.5,0.1 -1.2,0.2 -2.2,0.7 -3.1,1.2 0,0 -0.1,0 -0.1,0.1 -0.7,0.5 -1.4,1 -1.9,1.6 0,0 -0.1,0.1 -0.1,0.1 -0.4,0.5 -0.8,1 -1,1.6 -0.6,1.2 -0.9,2.6 -0.9,4.1 v 1.5 h 3.9 v -1.5 c 0,-0.2 0,-0.4 0,-0.6 0,-0.2 0,-0.4 0.1,-0.6 0.4,-2.3 1.8,-3.9 3.8,-4.5 0.1,0 0.2,-0.1 0.4,-0.1 0.5,-0.1 1.1,-0.2 1.7,-0.2 0.6,0 1.2,0.1 1.7,0.2 0.1,0 0.2,0.1 0.4,0.1 2.1,0.6 3.5,2.3 3.8,4.5 0.1,0.4 0.1,0.8 0.1,1.2 v 17.2 h -12 -22 v -12.7 -3 -7.3 -3 h -4 v 3 7.3 3 12.7 h -1.1 -24 -4 0.1 -3.9 v -12.7 -3 h -4 v 3 12.7 h -13.4 -3.9 -4 -0.1 v -17.2 c 0,-2.3 -0.7,-4.2 -2,-5.7 0,0 -0.1,-0.1 -0.1,-0.1 -0.5,-0.6 -1.1,-1.1 -1.8,-1.6 -0.1,0 -0.1,-0.1 -0.2,-0.1 -0.9,-0.6 -2,-1 -3.1,-1.2 -0.1,0 -0.3,-0.1 -0.5,-0.1 -0.7,-0.1 -1.5,-0.2 -2.3,-0.2 -0.8,0 -1.6,0.1 -2.3,0.2 -0.1,0 -0.3,0.1 -0.5,0.1 -1.2,0.2 -2.2,0.7 -3.1,1.2 0,0 -0.1,0 -0.1,0.1 -0.7,0.5 -1.4,1 -1.9,1.6 0,0 -0.1,0.1 -0.1,0.1 -0.4,0.5 -0.8,1 -1,1.6 -0.6,1.2 -0.9,2.6 -0.9,4.1 v 1.5 h 3.9 v -1.5 c 0,-0.2 0,-0.4 0,-0.6 0,-0.2 0,-0.4 0.1,-0.6 0.4,-2.3 1.8,-3.9 3.8,-4.5 0.1,0 0.2,-0.1 0.4,-0.1 0.5,-0.1 1.1,-0.2 1.7,-0.2 0.6,0 1.2,0.1 1.7,0.2 0.1,0 0.2,0.1 0.4,0.1 2.1,0.6 3.5,2.3 3.8,4.5 0.1,0.4 0.1,0.8 0.1,1.2 v 17.2 h -12 -4 v 3 7.2 3 h 4 12.1 3.9 v -3 h -3.9 -12.1 v -7.2 h 12.1 3.9 4 3.9 13.4 4 3.9 0.1 4 24 1.1 4 22 12.1 25.8 z"
   id="path26" />
						<rect
   x="421.10001"
   y="631.79999"
   class="st2"
   width="4"
   height="3"
   id="rect27" />
						<rect
   x="395.79999"
   y="631.79999"
   class="st2"
   width="3.9000001"
   height="3"
   id="rect28" />
						<rect
   x="413.10001"
   y="631.79999"
   class="st2"
   width="3.9000001"
   height="3"
   id="rect29" />
						<path
   class="st2"
   d="m 601.8,598.6 c -0.6,-0.7 -1.2,-1.2 -2,-1.7 -0.9,-0.6 -2,-1 -3.1,-1.2 -0.2,0 -0.3,-0.1 -0.5,-0.1 -0.7,-0.1 -1.5,-0.2 -2.3,-0.2 -0.8,0 -1.6,0.1 -2.3,0.2 -0.2,0 -0.3,0.1 -0.5,0.1 -1.2,0.2 -2.2,0.7 -3.1,1.2 -0.8,0.5 -1.4,1 -2,1.7 0,0 -0.1,0.1 -0.1,0.1 -0.4,0.5 -0.8,1 -1,1.6 -0.6,1.2 -0.9,2.6 -0.9,4.1 v 1.5 h 1.8 2.1 v -1.5 c 0,-0.4 0,-0.8 0.1,-1.2 0.4,-2.3 1.8,-3.9 3.8,-4.5 0.1,0 0.2,-0.1 0.4,-0.1 0.5,-0.1 1.1,-0.2 1.7,-0.2 0.6,0 1.2,0.1 1.7,0.2 0.1,0 0.2,0.1 0.4,0.1 2.1,0.6 3.5,2.3 3.8,4.5 0.1,0.4 0.1,0.8 0.1,1.2 v 20.2 h 3.9 v -20.2 c 0.1,-2.3 -0.6,-4.2 -2,-5.8 0.1,0.1 0.1,0 0,0 z"
   id="path29" />
						<path
   class="st2"
   d="m 625.5,622.7 c 0.5,-0.3 1,-0.7 1.5,-1.1 v 0 c 1.6,-1.5 2.6,-3.6 2.6,-6 0,0 0,-0.1 0,-0.1 v -6.5 -3 h -4 v 2 0 7.6 c 0,3.4 -2.5,5.7 -6.4,6 -0.3,0 -0.5,0 -0.8,0 h -4.5 v -12.7 h 0.1 v -3 h -0.1 V 595.7 H 610 v 28.9 h 8.1 c 2.9,0 5.4,-0.7 7.4,-1.9 z"
   id="path30" />
						<polygon
   class="st2"
   points="587.9,621.6 587.9,621.6 584,621.6 584,624.6 587.9,624.6 599.9,624.6 599.9,621.6 "
   id="polygon30" />
						<path
   class="st2"
   d="m 579.8,595.6 v 3 h -2.3 c -0.5,-0.1 -1.1,-0.2 -1.7,-0.2 -0.6,0 -1.2,0.1 -1.7,0.2 -0.1,0 -0.2,0.1 -0.4,0.1 -2.1,0.6 -3.5,2.3 -3.8,4.5 0,0 0,0.1 0,0.1 -0.1,0.4 -0.1,0.8 -0.1,1.1 v 20.2 h -18.3 c -1.1,-0.2 -2.1,-0.6 -3,-1.1 -0.3,-0.2 -0.6,-0.3 -0.9,-0.5 -0.7,-0.4 -1.4,-0.9 -2,-1.5 v 0 c -0.1,-0.1 -0.3,-0.3 -0.4,-0.4 -2.6,-2.6 -4,-6.4 -4,-11.1 0,-0.4 0,-0.8 0,-1.2 0.1,-1.1 0.2,-2.1 0.4,-3 h 4.2 c -0.3,0.9 -0.4,1.9 -0.5,3 0,0.4 0,0.8 0,1.2 0,6.7 3.8,11.3 9.5,11.4 0.1,0 0.2,0 0.4,0 h 0.3 c 0.2,0 0.3,0 0.4,0 h 10 v -17.2 c 0,-2.3 0.7,-4.2 2,-5.7 0,0 0.1,-0.1 0.1,-0.1 0.6,-0.7 1.2,-1.2 2,-1.7 0,0 0,0 0,0 0.9,-0.6 2,-1 3.1,-1.2 0.2,0 0.3,-0.1 0.5,-0.1 0.7,-0.1 1.5,-0.2 2.3,-0.2 0.8,0 1.6,0.1 2.3,0.2 h 1.6 z"
   id="path31" />
						<rect
   x="625.40002"
   y="595.70001"
   class="st2"
   width="4"
   height="3"
   id="rect31" />
					</g>
					<rect
   x="371.79999"
   y="649"
   class="st2"
   width="3.9000001"
   height="28.9"
   id="rect32" />
					<polygon
   class="st2"
   points="388.9,652 391.3,649 386.6,649 384.4,652 376.5,663.2 377.6,664.7 379.7,667.7 384.9,674.9 387,677.9 392.3,677.9 389.8,674.9 383.8,667.7 381.3,664.7 380,663.2 "
   id="polygon32" />
					<polygon
   class="st2"
   points="396.6,649 396.6,677.9 400.5,677.9 400.5,664.4 413.1,664.4 413.1,677.9 417.1,677.9 417.1,649 413.1,649 413.1,661.4 400.5,661.4 400.5,649 "
   id="polygon33" />
					<path
   class="st2"
   d="m 444.9,674.9 -2.6,-7.2 -1.1,-3 -4.5,-12.6 -1.1,-3 h -4 l -1.1,3 -4.5,12.6 -1.1,3 -2.6,7.2 -1.1,3 h 4 l 1,-3 1,-3.2 H 440 l 1,3.2 1,3 h 4 z m -16.7,-6 0.4,-1.2 1,-3 4.1,-12.6 v -0.1 0.1 l 4.1,12.6 1,3 0.4,1.2 z"
   id="path33" />
					<polygon
   class="st2"
   points="466.2,677.9 466.2,674.9 454.1,674.9 454.1,649 450.2,649 450.2,677.9 "
   id="polygon34" />
					<polygon
   class="st2"
   points="474.6,674.9 474.6,664.7 484.8,664.7 484.8,661.7 474.6,661.7 474.6,652 487.3,652 487.3,649 470.7,649 470.7,677.9 487.3,677.9 487.3,674.9 "
   id="polygon35" />
					<polygon
   class="st2"
   points="496,674.9 496,664.7 506.2,664.7 506.2,661.7 496,661.7 496,652 508.6,652 508.6,649 492.1,649 492.1,677.9 508.6,677.9 508.6,674.9 "
   id="polygon36" />
					<path
   class="st2"
   d="m 512.3,652 h 9.6 v 17.2 c 0,2.9 -1.3,5 -3.4,5.7 -0.5,0.2 -1.1,0.3 -1.8,0.3 -0.7,0 -1.3,-0.1 -2,-0.3 -1,-0.3 -1.9,-0.8 -2.8,-1.4 v 4 c 0.7,0.2 1.3,0.4 2,0.5 0.9,0.2 1.9,0.3 2.8,0.3 0.9,0 1.7,-0.1 2.5,-0.3 2,-0.5 3.6,-1.5 4.7,-3 1.1,-1.5 1.8,-3.5 1.8,-5.7 V 649 h -13.6 v 3 z"
   id="path36" />
					<path
   class="st2"
   d="m 554.5,648.7 c -1.1,0 -2.1,0.1 -3,0.3 -2.3,0.5 -4.3,1.5 -5.9,3 -2.8,2.6 -4.4,6.6 -4.4,11.4 0,0.4 0,0.8 0,1.2 0.1,1.1 0.2,2.1 0.4,3 0.6,3 2,5.4 3.9,7.2 1.6,1.5 3.6,2.5 5.9,3 1,0.2 2,0.3 3,0.3 1.1,0 2.2,-0.1 3.3,-0.3 0.9,-0.2 1.8,-0.4 2.7,-0.6 v -4 c -1.7,1.2 -3.8,1.6 -5.9,1.6 -4.3,0 -7.5,-2.8 -8.7,-7.2 -0.3,-0.9 -0.4,-2 -0.5,-3 0,-0.4 0,-0.8 0,-1.2 0,-6.9 4,-11.4 9.9,-11.4 2,0 3.6,0.4 5.3,1.6 v -4.1 c -0.8,-0.2 -1.7,-0.4 -2.5,-0.5 -1.2,-0.2 -2.4,-0.3 -3.5,-0.3 z"
   id="path37" />
					<polygon
   class="st2"
   points="579.9,677.9 579.9,674.9 569.8,674.9 569.8,649 565.9,649 565.9,677.9 "
   id="polygon37" />
					<path
   class="st2"
   d="m 600,669.2 c 0,2.9 -1.5,5 -4,5.7 -0.6,0.2 -1.3,0.3 -2.1,0.3 -0.8,0 -1.4,-0.1 -2.1,-0.3 -2.4,-0.8 -3.9,-2.9 -3.9,-5.7 V 649 H 584 v 20.2 c 0,2.3 0.7,4.2 2,5.7 1.2,1.5 3,2.6 5.2,3 0.9,0.2 1.8,0.3 2.8,0.3 1,0 1.9,-0.1 2.8,-0.3 2.2,-0.5 4,-1.5 5.2,-3 1.3,-1.5 2,-3.5 2,-5.7 V 649 h -4 z"
   id="path38" />
				</g>
			</g>
		</g>
		<g
   id="g41">
			<path
   class="st2"
   d="m 629,665.9 c -0.8,-1.2 -1.8,-2.2 -3,-2.9 0.8,-0.8 1.5,-1.6 2,-2.7 0.5,-1 0.7,-2.1 0.7,-3.3 0,-1.1 -0.2,-2.1 -0.6,-3.1 -0.4,-1 -1,-1.8 -1.7,-2.5 -0.7,-0.7 -1.6,-1.3 -2.5,-1.7 -1,-0.4 -2,-0.6 -3.1,-0.6 H 610 v 27.8 l -0.1,1.2 h 12.2 c 1.1,0 2.1,-0.2 3.1,-0.6 1,-0.4 1.8,-1 2.5,-1.7 0.7,-0.7 1.3,-1.6 1.7,-2.5 0.4,-1 0.6,-2 0.6,-3.1 0.1,-1.7 -0.3,-3.1 -1,-4.3 z m -16,-13.8 h 7.7 c 0.7,0 1.3,0.1 1.9,0.4 0.6,0.3 1.1,0.6 1.6,1.1 0.5,0.4 0.8,1 1.1,1.6 0.3,0.6 0.4,1.2 0.4,1.9 0,0.7 -0.1,1.4 -0.4,1.9 -0.3,0.6 -0.6,1.1 -1.1,1.6 -0.5,0.5 -1,0.8 -1.6,1.1 -0.6,0.3 -1.2,0.4 -1.9,0.4 H 613 Z m 13.7,19.9 c -0.3,0.6 -0.6,1.1 -1,1.6 -0.4,0.4 -1,0.8 -1.6,1 -0.6,0.3 -1.2,0.4 -1.9,0.4 H 613 v -9.9 h 9.1 c 0.7,0 1.3,0.1 1.9,0.4 0.6,0.3 1.1,0.6 1.6,1.1 0.4,0.5 0.8,1 1,1.6 0.3,0.6 0.4,1.2 0.4,1.9 0.1,0.6 -0.1,1.2 -0.3,1.9 z"
   id="path40" />
		</g>
	</g>
	<linearGradient
   id="SVGID_1_"
   gradientUnits="userSpaceOnUse"
   x1="378.9715"
   y1="517.75519"
   x2="500.36081"
   y2="517.75519">
		<stop
   offset="6.238362e-02"
   style="stop-color:#D0A609"
   id="stop42" />
		<stop
   offset="0.6844"
   style="stop-color:#FFCA05"
   id="stop43" />
	</linearGradient>
	<path
   class="st3"
   d="m 500.4,522.9 c -3.6,-0.7 -7.1,-1.3 -10.5,-1.9 v 0 c -11.6,-2 -22.1,-3.4 -31.4,-4.4 0,0 0,0 0,0 -6.2,-0.8 -12,-1.3 -17.3,-1.6 -7,-0.3 -13.3,-0.3 -19,0.1 0,0 -0.1,0 -0.1,0 -2.1,0.1 -4.1,0.3 -6.1,0.6 0,0 -0.1,0 -0.2,0 -5.4,0.5 -10.4,1.5 -14.9,2.8 0,0 0,0 -0.1,0 -6.5,1.9 -11.9,4.2 -15.8,6.2 0,0 0,0 0,0 -3.9,2.2 -5.7,4 -5.9,4.1 0.2,-0.2 30.8,-46 121.3,-5.9 z"
   id="path43"
   style="fill:url(#SVGID_1_)" />
	
		<linearGradient
   id="SVGID_00000168105728071648000950000014619007233920164737_"
   gradientUnits="userSpaceOnUse"
   x1="481.82031"
   y1="375.87131"
   x2="560.06458"
   y2="375.87131">
		<stop
   offset="6.238362e-02"
   style="stop-color:#D2A709"
   id="stop44" />
		<stop
   offset="0.6844"
   style="stop-color:#FFCA05"
   id="stop45" />
	</linearGradient>
	<path
   style="fill:url(#SVGID_00000168105728071648000950000014619007233920164737_)"
   d="m 560.1,492.3 -19.9,-27 c 2.4,0.2 4.6,0.4 6.7,0.5 -0.5,-1.3 -1,-2.5 -1.5,-3.8 v 0 c -27.6,-69.6 -22.8,-154.5 -16.7,-202.5 0,0 0,0 -0.1,0.2 -1.5,2.9 -23.8,47.9 -37,94.9 -3.3,11.6 -6,23.3 -7.7,34.6 v 0 c 0,0 -2.8,11.2 -1.9,26.4 0.3,11.1 2.3,21.1 6.5,29 8.9,20.8 28.9,41.2 71.6,47.7 z"
   id="path45" />
	
		<linearGradient
   id="SVGID_00000010294688458100206950000012545471433694995601_"
   gradientUnits="userSpaceOnUse"
   x1="473.51859"
   y1="484.01941"
   x2="406.2515"
   y2="470.66141">
		<stop
   offset="6.238362e-02"
   style="stop-color:#D2A709"
   id="stop46" />
		<stop
   offset="0.6844"
   style="stop-color:#FFCA05"
   id="stop47" />
	</linearGradient>
	<path
   style="fill:url(#SVGID_00000010294688458100206950000012545471433694995601_)"
   d="m 472.4,489.7 v 0 c -6.5,-6.7 -11.2,-13.7 -14.5,-20.8 -4.5,0.7 -8.8,1.4 -12.8,2.1 v 0 c -0.1,0 -0.1,0 -0.2,0 -10.3,1.9 -19,4 -26.5,6.2 -5.5,1.6 -10.2,3.3 -14.4,5 1,-0.1 2,-0.1 3.1,-0.2 38.9,-7.8 65.3,7.7 65.3,7.7 z"
   id="path47" />
</g>
</svg>
