<?xml version="1.0" encoding="UTF-8" standalone="no"?>
<svg
   xmlns:dc="http://purl.org/dc/elements/1.1/"
   xmlns:cc="http://creativecommons.org/ns#"
   xmlns:rdf="http://www.w3.org/1999/02/22-rdf-syntax-ns#"
   xmlns:svg="http://www.w3.org/2000/svg"
   xmlns="http://www.w3.org/2000/svg"
   xmlns:sodipodi="http://sodipodi.sourceforge.net/DTD/sodipodi-0.dtd"
   xmlns:inkscape="http://www.inkscape.org/namespaces/inkscape"
   height="700"
   viewBox="0 0 446.75331 446.40041"
   width="700"
   version="1.1"
   id="svg143"
   sodipodi:docname="al-nassr-fc.svg"
   inkscape:version="0.92.0 r15299"
   inkscape:export-filename="C:\Users\suitedoalex\sites\al-nassr-fc-logo-0.png"
   inkscape:export-xdpi="561.73712"
   inkscape:export-ydpi="561.73712">
  <metadata
     id="metadata149">
    <rdf:RDF>
      <cc:Work
         rdf:about="">
        <dc:format>image/svg+xml</dc:format>
        <dc:type
           rdf:resource="http://purl.org/dc/dcmitype/StillImage" />
        <dc:title></dc:title>
      </cc:Work>
    </rdf:RDF>
  </metadata>
  <defs
     id="defs147" />
  <sodipodi:namedview
     pagecolor="#ffffff"
     bordercolor="#666666"
     borderopacity="1"
     objecttolerance="10"
     gridtolerance="10"
     guidetolerance="10"
     inkscape:pageopacity="0"
     inkscape:pageshadow="2"
     inkscape:window-width="1920"
     inkscape:window-height="1017"
     id="namedview145"
     showgrid="false"
     inkscape:zoom="0.64422774"
     inkscape:cx="174.11955"
     inkscape:cy="314.41535"
     inkscape:window-x="-8"
     inkscape:window-y="-8"
     inkscape:window-maximized="1"
     inkscape:current-layer="svg143" />
  <clipPath
     id="a">
    <path
       d="M 0,1080 H 1919.999 V 0 H 0 Z"
       id="path2"
       inkscape:connector-curvature="0" />
  </clipPath>
  <path
     d="m 179.72641,123.59882 c 0,0 44.48372,-9.40423 86.57912,0 0,0 5.52326,0.64664 2.93614,-3.4337 0,0 -0.7963,-1.79081 2.28836,-2.18896 3.08524,-0.39815 0,-3.78157 0,-3.78157 l 11.54406,-10.84717 c 0,0 3.28406,0.39757 4.37851,-1.29384 1.0945,-1.692 0,-5.075424 0,-5.075424 l 2.5877,-3.482803 5.67236,-0.796304 -2.48829,-4.179734 c 0,0 9.80297,-13.882678 -2.28893,-28.511445 0,0 -9.25456,-9.255133 -29.2575,-6.120173 0,0 -5.82201,-9.106078 -16.86797,-8.508555 -11.04651,0.596953 -15.8232,3.582207 -15.8232,3.582207 0,0 -0.19877,-4.130004 -3.58278,-5.622671 v -2.885843 l 1.75399,-2.761366 1.30671,-2.538005 -4.66499,-9.366793 -4.49777,9.38551 2.78123,5.280654 -0.0749,3.284015 c 0,0 -2.76137,0.933111 -2.57484,5.038007 0,0 -24.1078,-9.292569 -33.06418,4.963743 0,0 -31.27278,-6.817106 -35.95005,18.26119 0,0 -0.92083,7.861345 4.3785,16.146541 l -3.58278,4.776642 6.1202,0.447849 3.20919,4.253972 c 0,0 -1.56688,2.040458 0.0749,4.179716 1.6423,2.13985 3.88153,1.54291 3.88153,1.54291 l 11.89196,9.75211 c 0,0 0.19879,1.34354 -2.6871,3.93124 -2.88586,2.58712 5.52328,1.19446 5.52328,1.19446 0,0 1.50549,1.97731 0.0871,2.35091 -1.4178,0.37301 -2.27667,2.38833 0.41041,3.02268"
     id="path5"
     style="fill:#21539e;fill-opacity:1;stroke-width:0.58465821"
     inkscape:connector-curvature="0"
     inkscape:export-filename="C:\Users\suitedoalex\sites\al-nassr-fc-logo-4.png"
     inkscape:export-xdpi="84.879532"
     inkscape:export-ydpi="84.879532" />
  <g
     id="g61"
     style="fill:#ffd02d"
     transform="matrix(0.58465818,0,0,-0.58465822,-337.89504,535.0863)"
     inkscape:export-filename="C:\Users\suitedoalex\sites\al-nassr-fc-logo-4.png"
     inkscape:export-xdpi="84.879532"
     inkscape:export-ydpi="84.879532">
    <path
       d="m 0,0 c 0,0 -1.277,-14.426 8.425,-28.468 0,0 -3.702,-4.596 -3.446,-7.021 l -6.894,1.021 5.17,-8.426 h -6.149 v -6.468 c 0,0 -2.894,-4.766 -5.872,-4.936 l 0.511,-2.128 5.957,-1.532 c 0,0 2.979,-2.468 2.128,-7.063 l 4.425,3.319 h 6.128 c 0,0 1.191,-8.766 -4.511,-10.468 -5.702,-1.703 -9.957,1.787 -9.957,1.787 l -0.341,7.574 c 0,0 -0.68,2.894 -5.191,2.554 -4.511,-0.341 -4.341,-9.447 -4.341,-9.447 0,0 5.788,-4.851 0.937,-6.468 -4.852,-1.617 -9.958,4.425 -9.958,4.425 0,0 -0.681,3.405 3.234,3.575 3.915,0.17 4.596,11.319 4.596,11.319 0,0 -1.788,6.127 -5.788,5.532 -4,-0.596 -7.914,-4.426 -10.808,-2.894 -2.894,1.532 -8.936,8.851 -8.936,8.851 l 0.596,10.553 -4.085,8.681 0.425,13.702 c 0,0 4.766,14.468 21.702,14.639 C -5.106,2.383 0,0 0,0"
       transform="translate(891.4683,812.3193)"
       id="path7"
       inkscape:connector-curvature="0" />
    <path
       d="m 0,0 c 0,0 1.276,-14.269 -8.426,-28.16 0,0 3.702,-4.546 3.447,-6.945 l 6.893,1.01 -5.17,-8.334 h 6.15 v -6.398 c 0,0 2.893,-4.715 5.872,-4.882 L 8.255,-55.814 2.298,-57.33 c 0,0 -2.98,-2.441 -2.128,-6.987 l -4.426,3.283 h -6.128 c 0,0 -1.191,-8.671 4.511,-10.355 5.702,-1.683 9.958,1.768 9.958,1.768 l 0.34,7.493 c 0,0 0.68,2.862 5.191,2.525 4.511,-0.336 4.341,-9.344 4.341,-9.344 0,0 -5.787,-4.799 -0.936,-6.398 4.851,-1.6 9.958,4.378 9.958,4.378 0,0 0.68,3.367 -3.235,3.535 -3.915,0.169 -4.596,11.197 -4.596,11.197 0,0 1.788,6.061 5.788,5.472 4,-0.59 7.915,-4.378 10.808,-2.862 2.894,1.515 8.937,8.755 8.937,8.755 l -0.596,10.439 4.085,8.586 -0.426,13.554 c 0,0 -4.765,14.312 -21.702,14.48 C 5.105,2.357 0,0 0,0"
       transform="translate(1029.9248,811.4912)"
       id="path9"
       inkscape:connector-curvature="0" />
    <path
       d="m 0,0 v -24.17 c 0,0 -6.809,-3.234 2.042,-12.085 0,0 1.159,-2.298 -2.271,-2.894 -3.431,-0.596 0.314,-5.957 -0.963,-6.383 -1.276,-0.426 -9.617,0 -9.617,0 l 0.426,-6.298 c 0,0 2.723,-2.808 0.51,-4.17 -2.212,-1.362 -4.595,0.851 -4.766,-1.873 -0.17,-2.723 3.32,-6.382 3.575,-6.467 0.255,-0.086 3.064,-1.362 3.064,-1.362 l 1.021,-5.873 c 0,0 2.128,5.533 8,5.022 5.873,-0.511 8.766,0.511 5.021,-8.085 -3.744,-8.596 -13.957,-5.277 -13.957,-5.277 0,0 -4.085,-0.085 -4.681,5.447 -0.596,5.532 -0.596,8.085 -0.596,8.085 0,0 -1.191,3.234 -3.914,3.064 -0.682,-0.043 -1.384,-0.383 -2.054,-0.87 -2.47,-1.794 -3.645,-4.886 -3.231,-7.912 l 0.603,-4.41 c 0,0 1.277,-5.872 -7.914,-5.872 -9.192,0 -9.702,9.021 -9.702,9.021 l 11.489,2.213 1.362,4.936 5.616,4.681 c 0,0 -7.574,0.256 -11.063,10.383 0,0 -2.128,-2.893 -3.66,-2.127 -1.532,0.765 -0.17,9.787 -0.17,9.787 0,0 -5.532,-5.617 -6.213,-3.064 -0.681,2.553 2.383,7.149 2.383,7.149 l -1.106,4.851 c 0,0 -6.857,8.34 -5.854,18.808 C -45.617,-5.276 -39.873,2 -28.894,4.17 -17.915,6.34 0,0 0,0"
       transform="translate(948.5747,825.7661)"
       id="path11"
       inkscape:connector-curvature="0" />
    <path
       d="m 0,0 v -24.17 c 0,0 6.809,-3.234 -2.043,-12.085 0,0 -1.158,-2.298 2.272,-2.894 3.43,-0.596 -0.314,-5.957 0.962,-6.383 1.277,-0.426 9.618,0 9.618,0 l -0.426,-6.298 c 0,0 -2.724,-2.808 -0.511,-4.17 2.213,-1.362 4.596,0.851 4.767,-1.873 0.17,-2.723 -3.32,-6.382 -3.576,-6.467 C 10.809,-64.426 8,-65.702 8,-65.702 l -1.021,-5.873 c 0,0 -2.127,5.533 -8,5.022 -5.873,-0.511 -8.766,0.511 -5.022,-8.085 3.745,-8.596 13.958,-5.277 13.958,-5.277 0,0 4.085,-0.085 4.681,5.447 0.595,5.532 0.595,8.085 0.595,8.085 0,0 1.192,3.234 3.915,3.064 0.681,-0.043 1.383,-0.383 2.053,-0.87 2.471,-1.794 3.646,-4.886 3.232,-7.912 l -0.604,-4.41 c 0,0 -1.276,-5.872 7.915,-5.872 9.192,0 9.702,9.021 9.702,9.021 l -11.489,2.213 -1.361,4.936 -5.617,4.681 c 0,0 7.574,0.255 11.063,10.383 0,0 2.128,-2.893 3.659,-2.128 1.532,0.766 0.171,9.788 0.171,9.788 0,0 5.531,-5.617 6.213,-3.064 0.681,2.553 -2.384,7.149 -2.384,7.149 l 1.107,4.851 c 0,0 6.857,8.34 5.854,18.808 C 45.617,-5.277 39.872,2 28.894,4.17 17.915,6.34 0,0 0,0"
       transform="translate(973.4482,826.3057)"
       id="path13"
       inkscape:connector-curvature="0" />
    <path
       d="M 0,0 C -0.146,0 -0.292,0.016 -0.439,0.049 -2.53,0.518 -4.608,0.964 -6.672,1.391 -7.754,1.614 -8.449,2.672 -8.227,3.754 -8.003,4.835 -6.94,5.534 -5.863,5.308 -3.776,4.877 -1.677,4.426 0.436,3.952 1.514,3.71 2.191,2.641 1.949,1.563 1.741,0.632 0.915,0 0,0"
       transform="translate(1040.1514,713.4678)"
       id="path15"
       inkscape:connector-curvature="0" />
    <path
       d="m 0,0 c -0.091,0 -0.183,0.006 -0.275,0.019 -5.279,0.726 -10.645,1.347 -15.951,1.846 -1.099,0.103 -1.907,1.078 -1.803,2.178 0.103,1.1 1.071,1.907 2.178,1.804 C -10.489,5.343 -5.065,4.715 0.27,3.982 1.363,3.832 2.129,2.822 1.979,1.728 1.841,0.726 0.983,0 0,0"
       transform="translate(1008.7773,719.1309)"
       id="path17"
       inkscape:connector-curvature="0" />
    <path
       d="m 0,0 c -0.024,0 -0.049,0 -0.073,0.001 -6.769,0.247 -13.606,0.305 -20.318,0.174 -1.079,-0.044 -2.017,0.856 -2.038,1.96 -0.022,1.105 0.856,2.017 1.96,2.039 6.785,0.133 13.698,0.074 20.54,-0.175 C 1.176,3.958 2.038,3.031 1.998,1.927 1.958,0.848 1.071,0 0,0"
       transform="translate(971.3857,722.3789)"
       id="path19"
       inkscape:connector-curvature="0" />
    <path
       d="m 0,0 c -0.986,0 -1.844,0.729 -1.979,1.732 -0.148,1.095 0.619,2.102 1.714,2.25 5.739,0.775 11.674,1.411 17.64,1.89 1.113,0.084 2.066,-0.733 2.154,-1.834 C 19.618,2.937 18.797,1.973 17.696,1.884 11.8,1.411 5.937,0.783 0.27,0.018 0.179,0.006 0.089,0 0,0"
       transform="translate(912.1431,719.6196)"
       id="path21"
       inkscape:connector-curvature="0" />
    <path
       d="m 0,0 c -0.846,0 -1.632,0.541 -1.904,1.389 -0.338,1.051 0.239,2.176 1.29,2.515 0.091,0.029 2.268,0.724 7.468,1.908 C 7.931,6.056 9.003,5.383 9.249,4.306 9.494,3.229 8.819,2.157 7.742,1.912 2.75,0.775 0.631,0.103 0.61,0.096 0.408,0.031 0.202,0 0,0"
       transform="translate(881.6401,713.6313)"
       id="path23"
       inkscape:connector-curvature="0" />
    <path
       d="M 0,0 C 0,-1.836 1.489,-3.325 3.325,-3.325 5.162,-3.325 6.65,-1.836 6.65,0 6.65,1.836 5.162,3.325 3.325,3.325 1.489,3.325 0,1.836 0,0"
       transform="translate(897.8389,719.6196)"
       id="path25"
       inkscape:connector-curvature="0" />
    <path
       d="M 0,0 C 0,-1.836 1.489,-3.325 3.325,-3.325 5.162,-3.325 6.65,-1.836 6.65,0 6.65,1.837 5.162,3.326 3.325,3.326 1.489,3.326 0,1.837 0,0"
       transform="translate(935.6899,724.5)"
       id="path27"
       inkscape:connector-curvature="0" />
    <path
       d="M 0,0 C 0,-1.836 1.488,-3.325 3.325,-3.325 5.162,-3.325 6.65,-1.836 6.65,0 6.65,1.837 5.162,3.326 3.325,3.326 1.488,3.326 0,1.837 0,0"
       transform="translate(979.541,724.5)"
       id="path29"
       inkscape:connector-curvature="0" />
    <path
       d="M 0,0 C 0,-1.836 1.488,-3.325 3.325,-3.325 5.162,-3.325 6.65,-1.836 6.65,0 6.65,1.836 5.162,3.325 3.325,3.325 1.488,3.325 0,1.836 0,0"
       transform="translate(1016.4346,719.1309)"
       id="path31"
       inkscape:connector-curvature="0" />
    <path
       d="M 0,0 C 0,-1.439 1.166,-2.605 2.605,-2.605 4.044,-2.605 5.21,-1.439 5.21,0 5.21,1.438 4.044,2.605 2.605,2.605 1.166,2.605 0,1.438 0,0"
       transform="translate(1062.7109,743.9424)"
       id="path33"
       inkscape:connector-curvature="0" />
    <path
       d="M 0,0 C 0,-1.438 1.166,-2.605 2.605,-2.605 4.044,-2.605 5.21,-1.438 5.21,0 5.21,1.438 4.044,2.605 2.605,2.605 1.166,2.605 0,1.438 0,0"
       transform="translate(1014.5498,761.4316)"
       id="path35"
       inkscape:connector-curvature="0" />
    <path
       d="M 0,0 C 0,-1.438 1.167,-2.605 2.605,-2.605 4.044,-2.605 5.21,-1.438 5.21,0 5.21,1.438 4.044,2.605 2.605,2.605 1.167,2.605 0,1.438 0,0"
       transform="translate(901.8843,761.4316)"
       id="path37"
       inkscape:connector-curvature="0" />
    <path
       d="M 0,0 C 0,-1.439 1.167,-2.605 2.605,-2.605 4.043,-2.605 5.21,-1.439 5.21,0 5.21,1.438 4.043,2.605 2.605,2.605 1.167,2.605 0,1.438 0,0"
       transform="translate(854.395,744.1978)"
       id="path39"
       inkscape:connector-curvature="0" />
    <path
       d="m 0,0 c 0,-1.729 1.401,-3.129 3.129,-3.129 1.728,0 3.13,1.4 3.13,3.129 0,1.728 -1.402,3.129 -3.13,3.129 C 1.401,3.129 0,1.728 0,0"
       transform="translate(957.4727,769.105)"
       id="path41"
       inkscape:connector-curvature="0" />
    <path
       d="m 0,0 c 0,-1.728 1.401,-3.129 3.129,-3.129 1.728,0 3.129,1.401 3.129,3.129 0,1.729 -1.401,3.129 -3.129,3.129 C 1.401,3.129 0,1.729 0,0"
       transform="translate(958.0415,800.5942)"
       id="path43"
       inkscape:connector-curvature="0" />
    <path
       d="m 0,0 c 0,-1.41 1.143,-2.553 2.553,-2.553 1.41,0 2.553,1.143 2.553,2.553 0,1.41 -1.143,2.553 -2.553,2.553 C 1.143,2.553 0,1.41 0,0"
       transform="translate(958.6177,820.6597)"
       id="path45"
       inkscape:connector-curvature="0" />
    <path
       d="m 0,0 c -5.504,0.887 -11.098,1.64 -16.769,2.264 -0.247,0.027 -0.505,0.049 -0.764,0.078 2.448,0.095 5.212,0.6 7.211,1.813 1.247,0.759 2.168,1.73 3.301,2.876 C -4.953,3.717 -2.695,1.354 0,0"
       transform="translate(1023.0176,733.603)"
       id="path47"
       inkscape:connector-curvature="0" />
    <path
       d="M 0,0 C 1.994,-1.213 4.757,-1.718 7.206,-1.813 6.953,-1.842 6.694,-1.864 6.442,-1.892 0.775,-2.515 -4.824,-3.269 -10.322,-4.155 c 2.696,1.353 4.953,3.717 7.014,7.03 C -2.174,1.73 -1.247,0.758 0,0"
       transform="translate(908.5078,737.7583)"
       id="path49"
       inkscape:connector-curvature="0" />
    <path
       d="M 0,0 C 1.259,0.944 2.651,2.309 3.752,3.791 5.959,2.803 7.936,2.213 9.795,2 6.499,1.387 3.235,0.725 0,0"
       transform="translate(881.2251,730.3618)"
       id="path51"
       inkscape:connector-curvature="0" />
    <path
       d="M 0,0 C 1.551,0.394 3.162,0.995 4.791,1.865 6.818,2.949 8.778,4.415 10.632,6.24 12.277,4.785 14.069,3.617 15.754,2.735 16.995,2.09 18.253,1.619 19.527,1.303 18.376,1.258 17.225,1.213 16.079,1.157 10.705,0.882 5.336,0.495 0,0"
       transform="translate(921.2837,736.5)"
       id="path53"
       inkscape:connector-curvature="0" />
    <path
       d="m 0,0 c -3.818,0.017 -7.66,-0.023 -11.49,-0.107 1.74,0.573 3.505,1.455 5.28,2.669 C -4.032,4.054 -1.864,6.076 0,8.363 1.864,6.076 4.032,4.054 6.211,2.562 7.985,1.348 9.738,0.466 11.49,-0.107 7.66,-0.023 3.818,0.017 0,0"
       transform="translate(960.6016,738.1909)"
       id="path55"
       inkscape:connector-curvature="0" />
    <path
       d="M 0,0 C -1.146,0.056 -2.303,0.101 -3.448,0.146 -2.179,0.461 -0.922,0.933 0.325,1.578 2.01,2.46 3.796,3.627 5.446,5.083 7.301,3.257 9.255,1.792 11.288,0.708 12.917,-0.162 14.522,-0.764 16.073,-1.157 10.749,-0.663 5.368,-0.275 0,0"
       transform="translate(983.8408,737.6572)"
       id="path57"
       inkscape:connector-curvature="0" />
    <path
       d="M 0,0 C 1.853,0.213 3.83,0.803 6.043,1.791 7.144,0.309 8.536,-1.056 9.795,-2 6.56,-1.275 3.29,-0.613 0,0"
       transform="translate(1030.1836,732.3618)"
       id="path59"
       inkscape:connector-curvature="0" />
  </g>
  <path
     d="m 79.00963,268.5878 c 0,79.73219 64.63513,144.36731 144.36673,144.36731 79.73216,0 144.36732,-64.63512 144.36732,-144.36731 0,-79.7316 -64.63516,-144.36672 -144.36732,-144.36672 -79.7316,0 -144.36673,64.63512 -144.36673,144.36672"
     id="path63"
     style="fill:#21539e;fill-opacity:1;stroke-width:0.58465821"
     inkscape:connector-curvature="0"
     inkscape:export-filename="C:\Users\suitedoalex\sites\al-nassr-fc-logo-4.png"
     inkscape:export-xdpi="84.879532"
     inkscape:export-ydpi="84.879532" />
  <path
     d="m 223.37652,404.6687 c -36.34819,0 -70.52146,-14.15516 -96.22362,-39.85732 -25.70216,-25.70275 -39.85674,-59.87543 -39.85674,-96.22364 0,-36.34878 14.15458,-70.52146 39.85674,-96.22363 25.70216,-25.70217 59.87543,-39.85673 96.22362,-39.85673 36.34764,0 70.5209,14.15456 96.22365,39.85673 25.70215,25.70217 39.85673,59.87485 39.85673,96.22363 0,36.34821 -14.15458,70.52089 -39.85673,96.22364 -25.70275,25.70216 -59.87601,39.85732 -96.22365,39.85732"
     id="path65"
     inkscape:connector-curvature="0"
     style="fill:#ffd02d;stroke-width:0.58465821"
     inkscape:export-filename="C:\Users\suitedoalex\sites\al-nassr-fc-logo-4.png"
     inkscape:export-xdpi="84.879532"
     inkscape:export-ydpi="84.879532" />
  <path
     d="m 223.37623,391.41052 c -32.80692,0 -63.64998,-12.77654 -86.84863,-35.97402 -23.19807,-23.19865 -35.97344,-54.0423 -35.97344,-86.84864 0,-32.80693 12.77537,-63.65057 35.97344,-86.84863 23.19806,-23.19808 54.04171,-35.97344 86.84863,-35.97344 32.80633,0 63.65,12.77536 86.84864,35.97344 23.19808,23.19865 35.97401,54.04229 35.97401,86.84863 0,32.80634 -12.77593,63.64999 -35.97401,86.84864 -23.19864,23.19748 -54.04231,35.97402 -86.84864,35.97402"
     id="path67"
     style="fill:#21539e;fill-opacity:1;stroke-width:0.58465821"
     inkscape:connector-curvature="0"
     inkscape:export-filename="C:\Users\suitedoalex\sites\al-nassr-fc-logo-4.png"
     inkscape:export-xdpi="84.879532"
     inkscape:export-ydpi="84.879532" />
  <path
     d="m 223.37623,351.63552 c -22.18191,0 -43.03727,-8.63832 -58.72365,-24.3247 -15.68521,-15.6858 -24.32295,-36.54055 -24.32295,-58.72308 0,-22.18252 8.63774,-43.03727 24.32354,-58.72365 15.6852,-15.68522 36.54054,-24.32353 58.72306,-24.32353 22.18252,0 43.0373,8.63831 58.72365,24.32411 19.01777,19.01776 24.32411,29.9766 24.32411,58.72307 0,22.18253 -8.63833,43.03728 -24.32529,58.72367 -15.68517,15.68579 -36.54053,24.32411 -58.72247,24.32411"
     id="path69"
     inkscape:connector-curvature="0"
     style="fill:#ffd02d;stroke-width:0.58465821"
     inkscape:export-filename="C:\Users\suitedoalex\sites\al-nassr-fc-logo-4.png"
     inkscape:export-xdpi="84.879532"
     inkscape:export-ydpi="84.879532" />
  <path
     d="m 156.14113,233.98732 c 0,0 2.68708,3.58279 5.74719,-0.97054 0,0 3.50794,10.89745 9.1803,14.62874 l 0.5221,3.35887 13.06185,12.24039 v 3.80672 l -1.49264,2.6865 v 3.80672 l 6.41838,3.50794 v 3.28402 l 2.98586,4.3294 1.86564,6.19446 0.67177,1.19445 6.56863,3.5822 v 10.59868 l 3.20918,4.03063 3.58221,7.68768 h 9.18029 l 0.74662,-2.76134 c 0,0 10.64839,-0.3736 32.98995,-16.94281 l 1.24354,-3.53309 5.02572,-0.44784 c 0,0 12.24043,-9.52818 16.94281,-16.02198 l 0.74604,-10.15084 7.46432,-0.59693 v -11.71831 c 0,0 -2.16442,-3.65703 -13.73363,-4.92574 0,0 -2.54969,0.91498 -4.03938,-5.14676 -0.34731,-1.4172 -1.32367,-2.64674 -2.6871,-3.16592 -1.44644,-0.55075 -3.38692,-0.38237 -5.36481,2.49123 l -0.67179,4.40364 -11.56863,1.64172 -2.76132,-6.41896 -4.6276,-0.37301 -0.89627,-3.8067 -11.7177,-14.40482 3.50794,-1.49263 0.1491,-4.03063 7.46431,0.8957 0.67117,5.00058 c 0,0 2.38835,4.77666 9.85265,7.98643 7.46318,3.20919 15.15085,1.86564 15.15085,1.86564 0,0 1.56807,-2.46317 3.58278,-1.94047 0.91089,0.2362 1.97443,1.43358 2.8666,2.67422 2.26146,3.14722 6.10849,4.84389 9.90763,4.08033 1.60311,-0.32156 3.38456,-0.96995 5.28765,-2.12699 l 0.44842,-6.49379 c 0,0 11.88084,19.07974 6.12018,49.03703 -6.7177,34.92982 -42.39412,51.49962 -42.39412,51.49962 l 0.29876,-10.54899 c 0,0 -0.69693,-5.77174 -13.73362,-1.09447 l -10.53612,4.67725 -4.09262,0.79632 -7.86191,3.28402 0.10001,-6.1699 -7.56373,-0.89569 0.10001,-6.76684 c 0,0 -3.98095,-1.09506 -5.67293,-7.46433 0,0 -9.45394,-0.79573 -12.85665,-10.00935 l -0.57827,-8.8985 c 0,0 -11.04595,-2.48831 -9.85208,-17.21642 l -4.27912,-7.165 c 0,0 -6.76683,-1.5926 -6.06992,-15.92258 l -6.26987,-6.46865 c 0,0 2.09016,-4.42821 -2.33863,-9.18031"
     id="path71"
     inkscape:connector-curvature="0"
     style="fill:#21539e;stroke-width:0.58465821"
     inkscape:export-filename="C:\Users\suitedoalex\sites\al-nassr-fc-logo-4.png"
     inkscape:export-xdpi="84.879532"
     inkscape:export-ydpi="84.879532" />
  <path
     d="m 226.1511,274.73923 -11.79318,-16.34588 3.43373,-2.53742 9.5381,11.73058 c 1.83289,2.25504 1.28099,5.6057 -1.17865,7.15272 m 12.91217,6.26987 -5.67236,4.17913 -4.25455,-6.56804 0.1906,-0.13154 c 3.96515,-2.73621 4.8509,-8.22497 1.94692,-12.06852 l -10.12397,-13.40037 4.4785,-2.46317 -6.86683,-0.89569 -7.46374,4.17971 -13.50913,-19.40597 4.92635,-3.20918 -6.56807,-0.82086 c -8.80727,10.52383 -13.21151,0 -13.21151,0 1.41838,12.53915 11.46983,6.5926 11.46983,6.5926 l 37.91569,53.93823 12.73793,-9.35453 z"
     id="path73"
     inkscape:connector-curvature="0"
     style="fill:#21539e;stroke-width:0.58465821"
     inkscape:export-filename="C:\Users\suitedoalex\sites\al-nassr-fc-logo-4.png"
     inkscape:export-xdpi="84.879532"
     inkscape:export-ydpi="84.879532" />
  <path
     d="m 248.24361,275.37358 c 0,1.38096 1.11904,2.5 2.50001,2.5 1.38096,0 2.50056,-1.11904 2.50056,-2.5 0,-1.38097 -1.1196,-2.5 -2.50056,-2.5 -1.38097,0 -2.50001,1.11903 -2.50001,2.5"
     id="path75"
     inkscape:connector-curvature="0"
     style="fill:#21539e;stroke-width:0.58465821"
     inkscape:export-filename="C:\Users\suitedoalex\sites\al-nassr-fc-logo-4.png"
     inkscape:export-xdpi="84.879532"
     inkscape:export-ydpi="84.879532" />
  <path
     d="m 138.99275,315.83777 c 0.14324,0.22743 0.30052,0.47943 0.47241,0.75656 0.17189,0.27653 0.34787,0.55308 0.5297,0.82962 0.18124,0.27714 0.3619,0.55367 0.5408,0.83079 0.1795,0.27656 0.34436,0.52504 0.49404,0.74486 0.27771,0.40751 0.82905,1.2085 1.67855,2.36729 0.84951,1.15879 2.02292,2.72919 3.57402,4.63692 -0.42738,0.25433 -0.86997,0.54432 -1.32718,0.86998 -0.4572,0.32565 -0.92551,0.67528 -1.40493,1.05063 -0.19761,-0.23504 -0.29583,-0.35256 -0.49169,-0.58935 0.32682,-0.41041 0.57939,-0.77582 0.75713,-1.09623 0.17773,-0.31981 0.26835,-0.64137 0.27245,-0.96468 0.005,-0.3239 -0.0836,-0.66885 -0.2631,-1.03835 -0.17949,-0.36892 -0.46246,-0.808 -0.84542,-1.3225 -0.57706,-0.77642 -0.86178,-1.16873 -1.42422,-1.96328 -0.21984,-0.31046 -0.38295,-0.49463 -0.49228,-0.54958 -0.10935,-0.0556 -0.2631,-0.0147 -0.46072,0.12453 -1.74228,1.21843 -2.61342,1.82764 -4.35628,3.04607 1.53473,2.10535 2.32636,3.125 3.95288,5.09998 0.002,0.069 0.003,0.10347 0.007,0.17247 -0.39115,0.28998 -0.58642,0.43556 -0.97755,0.72556 -0.69165,-1.0027 -1.34471,-1.95451 -1.96504,-2.85196 -0.62032,-0.89688 -1.21141,-1.76918 -1.77619,-2.61519 -1.50024,1.04947 -2.25036,1.57391 -3.75058,2.62279 -0.19001,0.1333 -0.33384,0.27244 -0.43148,0.4192 -0.0982,0.14675 -0.12161,0.34553 -0.0696,0.59576 0.052,0.25081 0.18826,0.5788 0.41043,0.97931 0.22159,0.40166 0.56244,0.92784 1.02666,1.57213 -0.17774,0.11051 -0.26602,0.16605 -0.44376,0.27655 -0.16896,-0.22859 -0.37827,-0.51684 -0.62557,-0.86647 -0.24791,-0.34962 -0.50808,-0.71737 -0.7817,-1.10325 -0.27303,-0.38529 -0.53379,-0.76298 -0.78286,-1.13247 -0.24964,-0.36951 -0.45837,-0.67996 -0.62791,-0.93079 -0.13741,-0.20346 -0.30052,-0.44083 -0.48878,-0.71503 -0.18826,-0.27362 -0.37769,-0.55601 -0.56771,-0.84717 -0.1906,-0.29058 -0.37769,-0.57531 -0.56243,-0.85419 -0.18475,-0.2783 -0.34262,-0.52268 -0.47475,-0.73199 0.15259,-0.12804 0.2286,-0.19118 0.3812,-0.31864 0.34962,0.49988 0.65189,0.88518 0.90505,1.15997 0.25257,0.27361 0.49111,0.45719 0.71446,0.55074 0.22333,0.093 0.44901,0.10635 0.67761,0.0398 0.22802,-0.066 0.49111,-0.1982 0.78812,-0.39699 3.24252,-2.1644 4.86377,-3.24659 8.10687,-5.411 0.19235,-0.12863 0.33677,-0.26018 0.43382,-0.39406 0.0964,-0.1339 0.13739,-0.30403 0.12277,-0.50924 -0.0141,-0.20638 -0.0976,-0.46949 -0.24848,-0.79162 -0.15143,-0.32215 -0.37768,-0.73668 -0.67703,-1.24767 0.18885,-0.0924 0.28298,-0.13798 0.47182,-0.22977"
     id="path77"
     inkscape:connector-curvature="0"
     style="fill:#ffd02d;stroke-width:0.58465821"
     inkscape:export-filename="C:\Users\suitedoalex\sites\al-nassr-fc-logo-4.png"
     inkscape:export-xdpi="84.879532"
     inkscape:export-ydpi="84.879532" />
  <path
     d="m 138.99275,315.83777 c 0.14324,0.22743 0.30052,0.47943 0.47241,0.75656 0.17189,0.27653 0.34787,0.55308 0.5297,0.82962 0.18124,0.27714 0.3619,0.55367 0.5408,0.83079 0.1795,0.27656 0.34436,0.52504 0.49404,0.74486 0.27771,0.40751 0.82905,1.2085 1.67855,2.36729 0.84951,1.15879 2.02292,2.72919 3.57402,4.63692 -0.42738,0.25433 -0.86997,0.54432 -1.32718,0.86998 -0.4572,0.32565 -0.92551,0.67528 -1.40493,1.05063 -0.19761,-0.23504 -0.29583,-0.35256 -0.49169,-0.58935 0.32682,-0.41041 0.57939,-0.77582 0.75713,-1.09623 0.17773,-0.31981 0.26835,-0.64137 0.27245,-0.96468 0.005,-0.3239 -0.0836,-0.66885 -0.2631,-1.03835 -0.17949,-0.36892 -0.46246,-0.808 -0.84542,-1.3225 -0.57706,-0.77642 -0.86178,-1.16873 -1.42422,-1.96328 -0.21984,-0.31046 -0.38295,-0.49463 -0.49228,-0.54958 -0.10935,-0.0556 -0.2631,-0.0147 -0.46072,0.12453 -1.74228,1.21843 -2.61342,1.82764 -4.35628,3.04607 1.53473,2.10535 2.32636,3.125 3.95288,5.09998 0.002,0.069 0.003,0.10347 0.007,0.17247 -0.39115,0.28998 -0.58642,0.43556 -0.97755,0.72556 -0.69165,-1.0027 -1.34471,-1.95451 -1.96504,-2.85196 -0.62032,-0.89688 -1.21141,-1.76918 -1.77619,-2.61519 -1.50024,1.04947 -2.25036,1.57391 -3.75058,2.62279 -0.19001,0.1333 -0.33384,0.27244 -0.43148,0.4192 -0.0982,0.14675 -0.12161,0.34553 -0.0696,0.59576 0.052,0.25081 0.18826,0.5788 0.41043,0.97931 0.22159,0.40166 0.56244,0.92784 1.02666,1.57213 -0.17774,0.11051 -0.26602,0.16605 -0.44376,0.27655 -0.16896,-0.22859 -0.37827,-0.51684 -0.62557,-0.86647 -0.24791,-0.34962 -0.50808,-0.71737 -0.7817,-1.10325 -0.27303,-0.38529 -0.53379,-0.76298 -0.78286,-1.13247 -0.24964,-0.36951 -0.45837,-0.67996 -0.62791,-0.93079 -0.13741,-0.20346 -0.30052,-0.44083 -0.48878,-0.71503 -0.18826,-0.27362 -0.37769,-0.55601 -0.56771,-0.84717 -0.1906,-0.29058 -0.37769,-0.57531 -0.56243,-0.85419 -0.18475,-0.2783 -0.34262,-0.52268 -0.47475,-0.73199 0.15259,-0.12804 0.2286,-0.19118 0.3812,-0.31864 0.34962,0.49988 0.65189,0.88518 0.90505,1.15997 0.25257,0.27361 0.49111,0.45719 0.71446,0.55074 0.22333,0.093 0.44901,0.10635 0.67761,0.0398 0.22802,-0.066 0.49111,-0.1982 0.78812,-0.39699 3.24252,-2.1644 4.86377,-3.24659 8.10687,-5.411 0.19235,-0.12863 0.33677,-0.26018 0.43382,-0.39406 0.0964,-0.1339 0.13739,-0.30403 0.12277,-0.50924 -0.0141,-0.20638 -0.0976,-0.46949 -0.24848,-0.79162 -0.15143,-0.32215 -0.37768,-0.73668 -0.67703,-1.24767 0.18885,-0.0924 0.28298,-0.13798 0.47182,-0.22977 z"
     stroke-miterlimit="10"
     id="path79"
     inkscape:connector-curvature="0"
     style="fill:none;stroke:#ffd02d;stroke-width:1.75397456;stroke-miterlimit:10"
     inkscape:export-filename="C:\Users\suitedoalex\sites\al-nassr-fc-logo-4.png"
     inkscape:export-xdpi="84.879532"
     inkscape:export-ydpi="84.879532" />
  <path
     d="m 153.11791,334.28362 c -0.59342,-0.58875 -1.23304,-1.08512 -1.92644,-1.49321 -0.69341,-0.40809 -1.41721,-0.66827 -2.17843,-0.78169 -0.76123,-0.11281 -1.5476,-0.0509 -2.36261,0.19177 -0.81443,0.24146 -1.63529,0.72381 -2.45557,1.45872 -0.96469,0.86296 -1.63119,1.75047 -1.98724,2.66955 -0.35665,0.91909 -0.49112,1.82413 -0.40283,2.7093 0.0895,0.88518 0.36015,1.72942 0.81033,2.52222 0.45076,0.79338 0.98983,1.49965 1.61131,2.11354 0.67002,0.66125 1.39617,1.20966 2.17084,1.63997 0.77526,0.43089 1.56805,0.6823 2.37196,0.75771 0.8039,0.0754 1.60254,-0.0544 2.39301,-0.38177 0.79103,-0.32801 1.54291,-0.91441 2.26321,-1.74756 0.84659,-0.98046 1.39909,-1.94048 1.67037,-2.87301 0.27186,-0.93194 0.35138,-1.80776 0.24145,-2.63213 -0.10992,-0.82436 -0.36891,-1.58325 -0.78051,-2.28484 -0.41043,-0.70158 -0.88868,-1.32249 -1.43885,-1.86857 m 0.62559,-0.48175 c 0.93078,0.92083 1.68499,1.86506 2.26672,2.8543 0.58232,0.98866 0.96936,1.96796 1.1588,2.95135 0.18884,0.98398 0.17949,1.95394 -0.0357,2.91512 -0.21514,0.96 -0.65832,1.86212 -1.34587,2.69878 -0.68172,0.82903 -1.48562,1.44819 -2.42282,1.84108 -0.93721,0.39406 -1.94867,0.56185 -3.03263,0.49112 -1.08337,-0.0707 -2.21,-0.38413 -3.36705,-0.9495 -1.15761,-0.56594 -2.28952,-1.38505 -3.37464,-2.45848 -1.06466,-1.05414 -1.90833,-2.16499 -2.52631,-3.30975 -0.6174,-1.14417 -0.99099,-2.2673 -1.12664,-3.35126 -0.13563,-1.08513 -0.0274,-2.10243 0.31397,-3.04842 0.34203,-0.94539 0.93194,-1.76449 1.7563,-2.46549 0.81619,-0.69457 1.72066,-1.15353 2.70347,-1.39325 0.9828,-0.2397 1.98666,-0.27011 3.01216,-0.10289 1.02608,0.16721 2.0463,0.53263 3.0712,1.08806 1.02491,0.55483 2.00128,1.30086 2.94902,2.23924"
     id="path81"
     inkscape:connector-curvature="0"
     style="fill:#ffd02d;stroke-width:0.58465821"
     inkscape:export-filename="C:\Users\suitedoalex\sites\al-nassr-fc-logo-4.png"
     inkscape:export-xdpi="84.879532"
     inkscape:export-ydpi="84.879532" />
  <path
     d="m 153.11791,334.28362 c -0.59342,-0.58875 -1.23304,-1.08512 -1.92644,-1.49321 -0.69341,-0.40809 -1.41721,-0.66827 -2.17843,-0.78169 -0.76123,-0.11281 -1.5476,-0.0509 -2.36261,0.19177 -0.81443,0.24146 -1.63529,0.72381 -2.45557,1.45872 -0.96469,0.86296 -1.63119,1.75047 -1.98724,2.66955 -0.35665,0.91909 -0.49112,1.82413 -0.40283,2.7093 0.0895,0.88518 0.36015,1.72942 0.81033,2.52222 0.45076,0.79338 0.98983,1.49965 1.61131,2.11354 0.67002,0.66125 1.39617,1.20966 2.17084,1.63997 0.77526,0.43089 1.56805,0.6823 2.37196,0.75771 0.8039,0.0754 1.60254,-0.0544 2.39301,-0.38177 0.79103,-0.32801 1.54291,-0.91441 2.26321,-1.74756 0.84659,-0.98046 1.39909,-1.94048 1.67037,-2.87301 0.27186,-0.93194 0.35138,-1.80776 0.24145,-2.63213 -0.10992,-0.82436 -0.36891,-1.58325 -0.78051,-2.28484 -0.41043,-0.70158 -0.88868,-1.32249 -1.43885,-1.86857 z m 0.62559,-0.48175 c 0.93078,0.92083 1.68499,1.86506 2.26672,2.8543 0.58232,0.98866 0.96936,1.96796 1.1588,2.95135 0.18884,0.98398 0.17949,1.95394 -0.0357,2.91512 -0.21514,0.96 -0.65832,1.86212 -1.34587,2.69878 -0.68172,0.82903 -1.48562,1.44819 -2.42282,1.84108 -0.93721,0.39406 -1.94867,0.56185 -3.03263,0.49112 -1.08337,-0.0707 -2.21,-0.38413 -3.36705,-0.9495 -1.15761,-0.56594 -2.28952,-1.38505 -3.37464,-2.45848 -1.06466,-1.05414 -1.90833,-2.16499 -2.52631,-3.30975 -0.6174,-1.14417 -0.99099,-2.2673 -1.12664,-3.35126 -0.13563,-1.08513 -0.0274,-2.10243 0.31397,-3.04842 0.34203,-0.94539 0.93194,-1.76449 1.7563,-2.46549 0.81619,-0.69457 1.72066,-1.15353 2.70347,-1.39325 0.9828,-0.2397 1.98666,-0.27011 3.01216,-0.10289 1.02608,0.16721 2.0463,0.53263 3.0712,1.08806 1.02491,0.55483 2.00128,1.30086 2.94902,2.23924 z"
     stroke-miterlimit="10"
     id="path83"
     inkscape:connector-curvature="0"
     style="fill:none;stroke:#ffd02d;stroke-width:1.75397456;stroke-miterlimit:10"
     inkscape:export-filename="C:\Users\suitedoalex\sites\al-nassr-fc-logo-4.png"
     inkscape:export-xdpi="84.879532"
     inkscape:export-ydpi="84.879532" />
  <path
     d="m 168.64989,346.85834 c -0.67645,-0.44258 -1.38096,-0.78579 -2.12056,-1.03134 -0.74017,-0.24497 -1.48328,-0.34144 -2.23514,-0.2859 -0.75188,0.055 -1.49674,0.28356 -2.23749,0.69224 -0.74017,0.40867 -1.44352,1.05004 -2.10243,1.93288 -0.7741,1.03893 -1.2576,2.03637 -1.43709,2.99696 -0.17949,0.96117 -0.1485,1.86155 0.0941,2.69468 0.24264,0.83315 0.65307,1.58853 1.22779,2.25796 0.5753,0.66885 1.22018,1.23538 1.92819,1.69667 0.76416,0.49754 1.56105,0.87348 2.38483,1.12781 0.82379,0.25373 1.63354,0.33092 2.42224,0.23561 0.78813,-0.0953 1.53531,-0.38645 2.23866,-0.8688 0.70392,-0.48291 1.32307,-1.20673 1.86798,-2.16557 0.63962,-1.12663 0.99917,-2.17201 1.09273,-3.13201 0.0941,-0.96059 0.0135,-1.82647 -0.24088,-2.60174 -0.25433,-0.77466 -0.64079,-1.45461 -1.1623,-2.04746 -0.52211,-0.59168 -1.09332,-1.09156 -1.72066,-1.50199 m 0.51626,-0.59752 c 1.06057,0.69223 1.95627,1.44703 2.69528,2.2825 0.73842,0.83548 1.28858,1.70311 1.64814,2.61752 0.35957,0.91498 0.52619,1.85804 0.49229,2.835 -0.0339,0.97698 -0.29876,1.94458 -0.81093,2.89875 -0.50807,0.9448 -1.17165,1.71186 -2.00537,2.28776 -0.83315,0.57531 -1.77911,0.94773 -2.83677,1.10442 -1.05822,0.1561 -2.20065,0.0877 -3.4179,-0.21691 -1.21727,-0.30519 -2.45498,-0.85945 -3.69095,-1.66628 -1.21375,-0.79221 -2.22404,-1.68439 -3.02151,-2.65492 -0.79807,-0.96995 -1.357,-1.9703 -1.67856,-2.98352 -0.32273,-1.0138 -0.39874,-2.01532 -0.23737,-2.99696 0.16136,-0.98281 0.58408,-1.89722 1.25175,-2.74906 0.66183,-0.84425 1.44937,-1.48153 2.35149,-1.92529 0.90214,-0.44374 1.86098,-0.69047 2.87652,-0.75128 1.01614,-0.0608 2.06151,0.0701 3.14605,0.38588 1.08455,0.31513 2.15739,0.82671 3.23784,1.53239"
     id="path85"
     inkscape:connector-curvature="0"
     style="fill:#ffd02d;stroke-width:0.58465821"
     inkscape:export-filename="C:\Users\suitedoalex\sites\al-nassr-fc-logo-4.png"
     inkscape:export-xdpi="84.879532"
     inkscape:export-ydpi="84.879532" />
  <path
     d="m 168.64989,346.85834 c -0.67645,-0.44258 -1.38096,-0.78579 -2.12056,-1.03134 -0.74017,-0.24497 -1.48328,-0.34144 -2.23514,-0.2859 -0.75188,0.055 -1.49674,0.28356 -2.23749,0.69224 -0.74017,0.40867 -1.44352,1.05004 -2.10243,1.93288 -0.7741,1.03893 -1.2576,2.03637 -1.43709,2.99696 -0.17949,0.96117 -0.1485,1.86155 0.0941,2.69468 0.24264,0.83315 0.65307,1.58853 1.22779,2.25796 0.5753,0.66885 1.22018,1.23538 1.92819,1.69667 0.76416,0.49754 1.56105,0.87348 2.38483,1.12781 0.82379,0.25373 1.63354,0.33092 2.42224,0.23561 0.78813,-0.0953 1.53531,-0.38645 2.23866,-0.8688 0.70392,-0.48291 1.32307,-1.20673 1.86798,-2.16557 0.63962,-1.12663 0.99917,-2.17201 1.09273,-3.13201 0.0941,-0.96059 0.0135,-1.82647 -0.24088,-2.60174 -0.25433,-0.77466 -0.64079,-1.45461 -1.1623,-2.04746 -0.52211,-0.59168 -1.09332,-1.09156 -1.72066,-1.50199 z m 0.51625,-0.59752 c 1.06057,0.69223 1.95627,1.44703 2.69528,2.2825 0.73843,0.83548 1.28858,1.70311 1.64814,2.61752 0.35957,0.91498 0.52619,1.85804 0.49229,2.835 -0.0339,0.97698 -0.29876,1.94458 -0.81093,2.89875 -0.50806,0.9448 -1.17164,1.71186 -2.00537,2.28776 -0.83314,0.57531 -1.77911,0.94773 -2.83676,1.10442 -1.05823,0.1561 -2.20065,0.0877 -3.41791,-0.21691 -1.21725,-0.30519 -2.45498,-0.85945 -3.69094,-1.66628 -1.21376,-0.79221 -2.22405,-1.68439 -3.02152,-2.65492 -0.79806,-0.96995 -1.357,-1.9703 -1.67856,-2.98352 -0.32273,-1.0138 -0.39873,-2.01532 -0.23737,-2.99696 0.16136,-0.98281 0.58408,-1.89722 1.25175,-2.74906 0.66185,-0.84425 1.44937,-1.48153 2.3515,-1.92529 0.90213,-0.44374 1.86097,-0.69047 2.87651,-0.75128 1.01614,-0.0608 2.06152,0.0701 3.14605,0.38588 1.08455,0.31513 2.15739,0.82671 3.23784,1.53239 z"
     stroke-miterlimit="10"
     id="path87"
     inkscape:connector-curvature="0"
     style="fill:none;stroke:#ffd02d;stroke-width:1.75397456;stroke-miterlimit:10"
     inkscape:export-filename="C:\Users\suitedoalex\sites\al-nassr-fc-logo-4.png"
     inkscape:export-xdpi="84.879532"
     inkscape:export-ydpi="84.879532" />
  <path
     d="m 184.22471,354.66902 c 0.3584,0.15319 0.78988,0.33208 1.29502,0.53438 0.50515,0.20229 1.04479,0.41627 1.62008,0.64079 0.58642,0.22859 1.19622,0.45778 1.83058,0.68638 0.63435,0.22802 1.27514,0.4537 1.92235,0.67704 -0.14382,0.30811 -0.27654,0.59167 -0.39814,0.85185 -0.12104,0.25958 -0.23562,0.51624 -0.34321,0.77057 -0.10762,0.25433 -0.21106,0.51217 -0.30928,0.77467 -0.0983,0.26251 -0.20171,0.54899 -0.31103,0.85887 -0.25784,-0.0777 -0.38705,-0.11694 -0.64489,-0.19587 0.076,-0.52677 0.11694,-0.97871 0.12395,-1.35582 0.006,-0.37827 -0.0602,-0.71269 -0.19995,-1.00502 -0.13915,-0.29234 -0.37477,-0.55075 -0.70744,-0.77877 -0.33268,-0.22801 -0.79922,-0.45662 -1.40025,-0.69282 -0.73375,-0.28765 -1.09916,-0.43498 -1.82764,-0.73725 -1.75866,4.19785 -2.63798,6.29736 -4.39722,10.49578 -0.0895,0.214 -0.14032,0.40167 -0.1526,0.56478 -0.0118,0.16195 0.0461,0.3245 0.17481,0.48761 0.12863,0.16195 0.3549,0.33559 0.67937,0.518 0.32391,0.183 0.7782,0.40049 1.36344,0.64781 -0.0907,0.18827 -0.13623,0.28298 -0.22686,0.47123 -0.2549,-0.0982 -0.54138,-0.2134 -0.86061,-0.34495 -0.31922,-0.13154 -0.64722,-0.26602 -0.98515,-0.404 -0.33793,-0.13797 -0.67119,-0.27771 -0.99976,-0.42095 -0.32917,-0.14325 -0.63727,-0.27654 -0.92494,-0.39991 -0.2397,-0.10289 -0.50105,-0.21339 -0.78402,-0.33208 -0.28298,-0.11927 -0.56712,-0.24205 -0.85361,-0.37009 -0.2859,-0.12863 -0.57237,-0.25608 -0.85944,-0.38237 -0.28765,-0.12569 -0.54374,-0.24203 -0.76824,-0.34728 0.0625,-0.18827 0.0935,-0.28239 0.15669,-0.47065 0.55483,0.22743 1.01087,0.38762 1.36634,0.48468 0.35548,0.0976 0.6443,0.11986 0.86529,0.0701 0.22101,-0.0503 0.40401,-0.1678 0.549,-0.35196 0.14558,-0.18416 0.29175,-0.44434 0.44083,-0.78052 1.75398,-3.9669 2.63097,-5.95065 4.38494,-9.91756 -0.70451,-0.3087 -1.05531,-0.46714 -1.75456,-0.79046 -0.58817,-0.27186 -1.0822,-0.45311 -1.48503,-0.53964 -0.40225,-0.0865 -0.76357,-0.0831 -1.08453,0.0123 -0.3204,0.0953 -0.61917,0.27303 -0.89512,0.53437 -0.27654,0.26194 -0.58056,0.60103 -0.91265,1.01848 -0.23737,-0.13272 -0.35606,-0.19995 -0.59226,-0.33384 0.16721,-0.32506 0.25081,-0.48702 0.41803,-0.81209 0.19937,-0.38645 0.38178,-0.76064 0.54782,-1.12079 0.16606,-0.36015 0.34028,-0.7811 0.52444,-1.26227 0.61506,0.31629 1.22135,0.62324 1.81945,0.92025 0.59753,0.29759 1.17751,0.57647 1.74054,0.83781 0.56243,0.26134 1.08746,0.50164 1.57273,0.72264 0.48584,0.22041 0.91381,0.40867 1.28273,0.56654"
     id="path89"
     inkscape:connector-curvature="0"
     style="fill:#ffd02d;stroke-width:0.58465821"
     inkscape:export-filename="C:\Users\suitedoalex\sites\al-nassr-fc-logo-4.png"
     inkscape:export-xdpi="84.879532"
     inkscape:export-ydpi="84.879532" />
  <path
     d="m 184.22471,354.66902 c 0.3584,0.15319 0.78988,0.33208 1.29502,0.53438 0.50515,0.20229 1.04479,0.41627 1.62008,0.64079 0.58642,0.22859 1.19622,0.45778 1.83058,0.68638 0.63435,0.22802 1.27514,0.4537 1.92235,0.67704 -0.14382,0.30811 -0.27654,0.59167 -0.39814,0.85185 -0.12104,0.25958 -0.23562,0.51624 -0.34321,0.77057 -0.10762,0.25433 -0.21106,0.51217 -0.30928,0.77467 -0.0983,0.26251 -0.20171,0.54899 -0.31103,0.85887 -0.25784,-0.0777 -0.38705,-0.11694 -0.64489,-0.19587 0.076,-0.52677 0.11694,-0.97871 0.12395,-1.35582 0.006,-0.37827 -0.0602,-0.71269 -0.19995,-1.00502 -0.13915,-0.29234 -0.37477,-0.55075 -0.70744,-0.77877 -0.33268,-0.22801 -0.79922,-0.45662 -1.40025,-0.69282 -0.73375,-0.28765 -1.09916,-0.43498 -1.82764,-0.73725 -1.75866,4.19785 -2.63798,6.29736 -4.39722,10.49578 -0.0895,0.214 -0.14032,0.40167 -0.1526,0.56478 -0.0118,0.16195 0.0461,0.3245 0.17481,0.48761 0.12863,0.16195 0.3549,0.33559 0.67937,0.518 0.32391,0.183 0.7782,0.40049 1.36344,0.64781 -0.0907,0.18827 -0.13623,0.28298 -0.22686,0.47123 -0.2549,-0.0982 -0.54138,-0.2134 -0.86061,-0.34495 -0.31922,-0.13154 -0.64722,-0.26602 -0.98515,-0.404 -0.33793,-0.13797 -0.67119,-0.27771 -0.99976,-0.42095 -0.32917,-0.14325 -0.63727,-0.27654 -0.92494,-0.39991 -0.2397,-0.10289 -0.50105,-0.21339 -0.78402,-0.33208 -0.28298,-0.11927 -0.56712,-0.24205 -0.85361,-0.37009 -0.2859,-0.12863 -0.57237,-0.25608 -0.85944,-0.38237 -0.28765,-0.12569 -0.54374,-0.24203 -0.76824,-0.34728 0.0625,-0.18827 0.0935,-0.28239 0.15669,-0.47065 0.55483,0.22743 1.01087,0.38762 1.36634,0.48468 0.35548,0.0976 0.6443,0.11986 0.86529,0.0701 0.22101,-0.0503 0.40401,-0.1678 0.549,-0.35196 0.14558,-0.18416 0.29175,-0.44434 0.44083,-0.78052 1.75398,-3.9669 2.63097,-5.95065 4.38494,-9.91756 -0.70451,-0.3087 -1.05531,-0.46714 -1.75456,-0.79046 -0.58817,-0.27186 -1.0822,-0.45311 -1.48503,-0.53964 -0.40225,-0.0865 -0.76357,-0.0831 -1.08453,0.0123 -0.3204,0.0953 -0.61917,0.27303 -0.89512,0.53437 -0.27654,0.26194 -0.58056,0.60103 -0.91265,1.01848 -0.23737,-0.13272 -0.35606,-0.19995 -0.59226,-0.33384 0.16721,-0.32506 0.25081,-0.48702 0.41803,-0.81209 0.19937,-0.38645 0.38178,-0.76064 0.54782,-1.12079 0.16606,-0.36015 0.34028,-0.7811 0.52444,-1.26227 0.61506,0.31629 1.22135,0.62324 1.81945,0.92025 0.59753,0.29759 1.17751,0.57647 1.74054,0.83781 0.56243,0.26134 1.08746,0.50164 1.57273,0.72264 0.48584,0.22041 0.91381,0.40867 1.28273,0.56654 z"
     stroke-miterlimit="10"
     id="path91"
     inkscape:connector-curvature="0"
     style="fill:none;stroke:#ffd02d;stroke-width:1.75397456;stroke-miterlimit:10"
     inkscape:export-filename="C:\Users\suitedoalex\sites\al-nassr-fc-logo-4.png"
     inkscape:export-xdpi="84.879532"
     inkscape:export-ydpi="84.879532" />
  <path
     d="m 192.97115,370.11563 c -0.0882,0.30578 -0.13975,0.56537 -0.15436,0.77701 -0.0141,0.21165 0.0461,0.39757 0.18124,0.55543 0.13565,0.15844 0.36191,0.3046 0.67938,0.43557 0.31688,0.13214 0.76766,0.27654 1.35349,0.42856 1.30787,0.33968 2.42516,0.34202 3.33198,0.0251 0.90622,-0.31689 1.46161,-0.97405 1.67911,-1.95452 0.12806,-0.57529 0.10993,-1.10091 -0.048,-1.57564 -0.15845,-0.47591 -0.42971,-0.89805 -0.81266,-1.26989 -0.38357,-0.37183 -0.86824,-0.69574 -1.4558,-0.97579 -0.5876,-0.28063 -1.25584,-0.51976 -2.00597,-0.72147 -0.56303,-0.15201 -0.84425,-0.22977 -1.40553,-0.38939 -0.53729,1.86623 -0.80566,2.79935 -1.34295,4.665 m 1.54759,-5.37477 c 0.57822,0.1637 0.86822,0.24439 1.44819,0.3999 1.44411,0.38823 2.56548,0.42272 3.34248,0.13506 0.77702,-0.28824 1.26052,-0.87582 1.46167,-1.75104 0.0731,-0.32039 0.0918,-0.65074 0.0572,-0.99041 -0.035,-0.33969 -0.1602,-0.66768 -0.37534,-0.98574 -0.21457,-0.31805 -0.54784,-0.61565 -0.99801,-0.89569 -0.44961,-0.27947 -1.05532,-0.51685 -1.81829,-0.7203 -0.39818,-0.10646 -0.71273,-0.16956 -0.9454,-0.18885 -0.23268,-0.0193 -0.40985,-0.005 -0.53205,0.0467 -0.12159,0.0514 -0.20815,0.13155 -0.25783,0.24322 -0.0503,0.11108 -0.0964,0.24146 -0.13974,0.38997 -0.49695,1.72649 -0.74543,2.59003 -1.24297,4.31712 m -2.29713,-7.08549 c 0.17364,0.0573 0.37886,0.12688 0.61564,0.20874 0.23738,0.0819 0.48644,0.16311 0.7472,0.24555 0.27187,0.0848 0.54899,0.17307 0.83081,0.26368 0.2818,0.0907 0.55951,0.17656 0.83254,0.25666 0.43674,0.12921 0.93606,0.2479 1.49732,0.3543 0.5607,0.10578 1.14244,0.23738 1.74696,0.39465 0.69283,0.17891 1.34528,0.39756 1.96034,0.65832 0.61566,0.26018 1.14242,0.5677 1.58329,0.92669 0.44082,0.35897 0.76585,0.76999 0.974,1.23714 0.20814,0.46772 0.25375,0.9986 0.13099,1.59436 -0.10116,0.4917 -0.29115,0.88985 -0.5718,1.19211 -0.28123,0.3017 -0.60807,0.53672 -0.98048,0.70451 -0.37241,0.16722 -0.76709,0.28123 -1.18158,0.34203 -0.41396,0.0602 -0.80684,0.11108 -1.17633,0.15318 1.27807,0.46949 2.21585,1.06643 2.81863,1.82122 0.60337,0.7548 0.81559,1.63002 0.61737,2.63447 -0.1438,0.72965 -0.46827,1.30963 -0.98104,1.73351 -0.51333,0.42446 -1.14125,0.72732 -1.88201,0.90447 -0.74133,0.17656 -1.56278,0.23795 -2.45906,0.18007 -0.89629,-0.0579 -1.79842,-0.20522 -2.70114,-0.44083 -0.56361,-0.14792 -1.17925,-0.3432 -1.84342,-0.58933 -0.66418,-0.24614 -1.27515,-0.45312 -1.83349,-0.62033 -0.24848,-0.0737 -0.51274,-0.15025 -0.7928,-0.23153 -0.28064,-0.0807 -0.56302,-0.16545 -0.84776,-0.25549 -0.28413,-0.0888 -0.55658,-0.17307 -0.81793,-0.25199 -0.26075,-0.0795 -0.48936,-0.15142 -0.68697,-0.21632 0.0404,-0.19411 0.0602,-0.29116 0.10116,-0.48586 0.52444,0.14266 0.95592,0.23503 1.29326,0.28122 0.33736,0.0461 0.61273,0.031 0.82496,-0.0444 0.21282,-0.076 0.38002,-0.21399 0.50222,-0.41394 0.12278,-0.20054 0.23738,-0.47591 0.34612,-0.82671 1.15353,-3.72661 1.73,-5.59051 2.88295,-9.31711 0.0684,-0.22158 0.10347,-0.41277 0.1052,-0.57413 0.001,-0.16137 -0.0561,-0.3128 -0.17422,-0.45488 -0.11811,-0.14324 -0.31164,-0.28179 -0.58116,-0.41744 -0.26953,-0.1368 -0.63552,-0.28882 -1.09741,-0.46129 0.0795,-0.19412 0.1187,-0.29058 0.19763,-0.48526"
     id="path93"
     inkscape:connector-curvature="0"
     style="fill:#ffd02d;stroke-width:0.58465821"
     inkscape:export-filename="C:\Users\suitedoalex\sites\al-nassr-fc-logo-4.png"
     inkscape:export-xdpi="84.879532"
     inkscape:export-ydpi="84.879532" />
  <path
     d="m 192.97115,370.11563 c -0.0882,0.30578 -0.13975,0.56537 -0.15436,0.77701 -0.0141,0.21165 0.0461,0.39757 0.18124,0.55543 0.13565,0.15844 0.36191,0.3046 0.67938,0.43557 0.31688,0.13214 0.76766,0.27654 1.35349,0.42856 1.30787,0.33968 2.42516,0.34202 3.33198,0.0251 0.90622,-0.31689 1.46161,-0.97405 1.67911,-1.95452 0.12806,-0.57529 0.10993,-1.10091 -0.048,-1.57564 -0.15845,-0.47591 -0.42971,-0.89805 -0.81266,-1.26989 -0.38357,-0.37183 -0.86824,-0.69574 -1.4558,-0.97579 -0.5876,-0.28063 -1.25584,-0.51976 -2.00597,-0.72147 -0.56303,-0.15201 -0.84425,-0.22977 -1.40553,-0.38939 -0.53729,1.86623 -0.80566,2.79935 -1.34295,4.665 z m 1.54758,-5.37476 c 0.57823,0.1637 0.86822,0.24439 1.4482,0.3999 1.44412,0.38823 2.56547,0.42271 3.34249,0.13506 0.77701,-0.28824 1.26051,-0.87582 1.46165,-1.75105 0.0731,-0.3204 0.0918,-0.65073 0.0573,-0.99042 -0.035,-0.33967 -0.16021,-0.66766 -0.37534,-0.98572 -0.21458,-0.31806 -0.54785,-0.61565 -0.99802,-0.8957 -0.44961,-0.27947 -1.05531,-0.51684 -1.81829,-0.72029 -0.39817,-0.10647 -0.71272,-0.16956 -0.9454,-0.18886 -0.23268,-0.0193 -0.40984,-0.005 -0.53205,0.0467 -0.12159,0.0514 -0.20813,0.13154 -0.25783,0.24322 -0.0503,0.11108 -0.0964,0.24146 -0.13973,0.38995 -0.49695,1.72651 -0.74544,2.59004 -1.24298,4.31712 z m -2.29711,-7.08547 c 0.17363,0.0572 0.37885,0.12687 0.61564,0.20872 0.23737,0.0819 0.48644,0.16311 0.74719,0.24556 0.27186,0.0848 0.549,0.17306 0.8308,0.26368 0.28181,0.0907 0.55952,0.17656 0.83255,0.25666 0.43674,0.12921 0.93606,0.2479 1.49733,0.3543 0.56069,0.10589 1.14242,0.23737 1.74695,0.39465 0.69282,0.1789 1.34528,0.39756 1.96034,0.65832 0.61566,0.26018 1.14243,0.56771 1.58329,0.92668 0.44081,0.35899 0.76586,0.77001 0.97401,1.23714 0.20813,0.46773 0.25375,0.9986 0.13099,1.59437 -0.10116,0.49169 -0.29117,0.88985 -0.57182,1.19211 -0.28122,0.30169 -0.60805,0.53672 -0.98048,0.70452 -0.37241,0.16721 -0.76708,0.28122 -1.18157,0.34202 -0.41396,0.0602 -0.80684,0.11108 -1.17633,0.15318 1.27807,0.46949 2.21585,1.06642 2.81863,1.82121 0.60338,0.7548 0.81558,1.63003 0.61738,2.63447 -0.14381,0.72966 -0.46829,1.30964 -0.98105,1.73352 -0.51333,0.42446 -1.14125,0.72731 -1.882,0.90446 -0.74134,0.17656 -1.56279,0.23795 -2.45908,0.18008 -0.89627,-0.0579 -1.79841,-0.20521 -2.70113,-0.44083 -0.5636,-0.14793 -1.17924,-0.3432 -1.84342,-0.58934 -0.66418,-0.24614 -1.27514,-0.45311 -1.83348,-0.62033 -0.2485,-0.0737 -0.51276,-0.15025 -0.7928,-0.23151 -0.28065,-0.0807 -0.56303,-0.16547 -0.84776,-0.25551 -0.28414,-0.0888 -0.5566,-0.17305 -0.81794,-0.25199 -0.26075,-0.0795 -0.48936,-0.15142 -0.68697,-0.21632 0.0404,-0.19411 0.0602,-0.29115 0.10115,-0.48584 0.52444,0.14265 0.95593,0.23503 1.29327,0.28121 0.33736,0.0461 0.61273,0.031 0.82496,-0.0444 0.21281,-0.076 0.38002,-0.214 0.50222,-0.41394 0.12278,-0.20054 0.23737,-0.47591 0.34612,-0.82671 1.15353,-3.72662 1.73,-5.59051 2.88295,-9.31712 0.0684,-0.22158 0.10346,-0.41277 0.10519,-0.57413 0.001,-0.16137 -0.0561,-0.3128 -0.17422,-0.45487 -0.1181,-0.14324 -0.31162,-0.2818 -0.58115,-0.41744 -0.26953,-0.13681 -0.63552,-0.28882 -1.09741,-0.46129 0.0795,-0.19412 0.11869,-0.29058 0.19762,-0.48527 z"
     stroke-miterlimit="10"
     id="path95"
     inkscape:connector-curvature="0"
     style="fill:none;stroke:#ffd02d;stroke-width:1.75397456;stroke-miterlimit:10"
     inkscape:export-filename="C:\Users\suitedoalex\sites\al-nassr-fc-logo-4.png"
     inkscape:export-xdpi="84.879532"
     inkscape:export-ydpi="84.879532" />
  <path
     d="m 209.35869,369.68684 c 2.1153,0.28356 3.17586,0.40049 5.30052,0.58173 -0.77934,-2.36903 -1.143,-3.55705 -1.81767,-5.93719 -1.33422,2.16323 -2.03111,3.2355 -3.48285,5.35546 m 5.57766,1.4482 c -2.45088,-0.20171 -3.67457,-0.33677 -6.11259,-0.67352 -0.72265,1.05238 -1.09157,1.57623 -1.84225,2.61635 -0.33445,0.5063 -0.51512,0.83021 -0.53735,0.97286 -0.0391,0.24848 0.0888,0.44434 0.38414,0.58642 0.29644,0.14207 0.84249,0.28765 1.63997,0.42445 -0.0515,0.20405 -0.0772,0.30579 -0.12919,0.50866 -0.47244,-0.0644 -1.00213,-0.14382 -1.58679,-0.24204 -0.58523,-0.0977 -1.16405,-0.19411 -1.73702,-0.28883 -0.47066,-0.0783 -0.95765,-0.15728 -1.46163,-0.23736 -0.5034,-0.0807 -0.98983,-0.16605 -1.45873,-0.2561 0.0224,-0.19644 0.0338,-0.29467 0.056,-0.49051 0.49816,0.066 0.91089,0.0958 1.2383,0.0912 0.32741,-0.005 0.6221,-0.0696 0.88517,-0.19587 0.26255,-0.1257 0.5227,-0.3163 0.77937,-0.57237 0.25609,-0.25492 0.56246,-0.60338 0.91559,-1.04538 2.77418,-3.52548 4.07156,-5.33149 6.4809,-9.00665 0.16956,-0.27246 0.31398,-0.51099 0.43443,-0.71621 0.11984,-0.2058 0.24964,-0.42739 0.38938,-0.66477 0.42972,-0.001 0.64428,-0.003 1.07343,-0.008 0.0789,0.473 0.1713,0.90856 0.27771,1.30613 0.10646,0.39757 0.20871,0.76005 0.30694,1.08864 1.2167,3.8985 1.8978,5.84074 3.4039,9.6989 0.16721,0.43322 0.32273,0.77408 0.4636,1.02255 0.14149,0.24791 0.31163,0.44143 0.51044,0.57999 0.19879,0.13856 0.45425,0.23796 0.76648,0.29701 0.31163,0.0591 0.71736,0.11051 1.21665,0.15142 -0.0285,0.20814 -0.0427,0.31221 -0.0707,0.51977 -0.5408,-0.0129 -1.136,-0.0363 -1.78557,-0.0719 -0.64953,-0.0351 -1.30202,-0.0713 -1.95803,-0.1082 -0.54018,-0.031 -1.08684,-0.0608 -1.63993,-0.0907 -0.55308,-0.0292 -1.09974,-0.0667 -1.63884,-0.11224 -0.006,-0.19877 -0.009,-0.29758 -0.015,-0.49578 0.71912,0.0223 1.23599,-0.005 1.54936,-0.0743 0.3128,-0.0695 0.47764,-0.22977 0.49517,-0.48059 0.008,-0.10635 -0.009,-0.23094 -0.0503,-0.37359 -0.041,-0.14325 -0.0936,-0.30402 -0.1567,-0.48293 -0.4496,-1.26871 -0.6665,-1.90423 -1.08627,-3.17645"
     id="path97"
     inkscape:connector-curvature="0"
     style="fill:#ffd02d;stroke-width:0.58465821"
     inkscape:export-filename="C:\Users\suitedoalex\sites\al-nassr-fc-logo-4.png"
     inkscape:export-xdpi="84.879532"
     inkscape:export-ydpi="84.879532" />
  <path
     d="m 209.35869,369.68684 c 2.1153,0.28356 3.17586,0.40049 5.30052,0.58173 -0.77934,-2.36903 -1.143,-3.55705 -1.81767,-5.93719 -1.33422,2.16323 -2.03111,3.2355 -3.48285,5.35546 z m 5.57766,1.4482 c -2.45088,-0.20171 -3.67457,-0.33677 -6.11259,-0.67352 -0.72265,1.05238 -1.09157,1.57623 -1.84225,2.61635 -0.33445,0.5063 -0.51512,0.83021 -0.53735,0.97286 -0.0391,0.24848 0.0888,0.44434 0.38414,0.58642 0.29644,0.14207 0.84249,0.28765 1.63997,0.42445 -0.0515,0.20405 -0.0772,0.30579 -0.12919,0.50866 -0.47244,-0.0644 -1.00213,-0.14382 -1.58679,-0.24204 -0.58523,-0.0977 -1.16405,-0.19411 -1.73702,-0.28883 -0.47066,-0.0783 -0.95765,-0.15728 -1.46163,-0.23736 -0.5034,-0.0807 -0.98983,-0.16605 -1.45873,-0.2561 0.0224,-0.19644 0.0338,-0.29467 0.056,-0.49051 0.49816,0.066 0.91089,0.0958 1.2383,0.0912 0.32741,-0.005 0.6221,-0.0696 0.88517,-0.19587 0.26255,-0.1257 0.5227,-0.3163 0.77937,-0.57237 0.25609,-0.25492 0.56246,-0.60338 0.91559,-1.04538 2.77418,-3.52548 4.07156,-5.33149 6.4809,-9.00665 0.16956,-0.27246 0.31398,-0.51099 0.43443,-0.71621 0.11984,-0.2058 0.24964,-0.42739 0.38938,-0.66477 0.42972,-0.001 0.64428,-0.003 1.07343,-0.008 0.0789,0.473 0.1713,0.90856 0.27771,1.30613 0.10646,0.39757 0.20871,0.76005 0.30694,1.08864 1.2167,3.8985 1.8978,5.84074 3.4039,9.6989 0.16721,0.43322 0.32273,0.77408 0.4636,1.02255 0.14149,0.24791 0.31163,0.44143 0.51044,0.57999 0.19879,0.13856 0.45425,0.23796 0.76648,0.29701 0.31163,0.0591 0.71736,0.11051 1.21665,0.15142 -0.0285,0.20814 -0.0427,0.31221 -0.0707,0.51977 -0.5408,-0.0129 -1.136,-0.0363 -1.78557,-0.0719 -0.64953,-0.0351 -1.30202,-0.0713 -1.95803,-0.1082 -0.54018,-0.031 -1.08684,-0.0608 -1.63993,-0.0907 -0.55308,-0.0292 -1.09974,-0.0667 -1.63884,-0.11224 -0.006,-0.19877 -0.009,-0.29758 -0.015,-0.49578 0.71912,0.0223 1.23599,-0.005 1.54936,-0.0743 0.3128,-0.0695 0.47764,-0.22977 0.49517,-0.48059 0.008,-0.10635 -0.009,-0.23094 -0.0503,-0.37359 -0.041,-0.14325 -0.0936,-0.30402 -0.1567,-0.48293 -0.4496,-1.26871 -0.6665,-1.90423 -1.08627,-3.17645 z"
     stroke-miterlimit="10"
     id="path99"
     inkscape:connector-curvature="0"
     style="fill:none;stroke:#ffd02d;stroke-width:1.75397456;stroke-miterlimit:10"
     inkscape:export-filename="C:\Users\suitedoalex\sites\al-nassr-fc-logo-4.png"
     inkscape:export-xdpi="84.879532"
     inkscape:export-ydpi="84.879532" />
  <path
     d="m 228.8203,363.12996 c -0.46482,0.0509 -0.84074,0.1105 -1.12901,0.18359 -0.28822,0.0731 -0.50982,0.17656 -0.66592,0.31162 -0.15609,0.13446 -0.26013,0.31864 -0.31161,0.55133 -0.0509,0.23269 -0.0724,0.52794 -0.0638,0.88575 0.0924,3.67693 0.13854,5.51568 0.23154,9.19258 0.008,0.32859 0.0402,0.59811 0.097,0.80919 0.0556,0.21105 0.17189,0.37475 0.34728,0.49051 0.17542,0.11576 0.42095,0.19294 0.73607,0.23094 0.31516,0.0368 0.73494,0.0456 1.25878,0.0217 0.40752,-0.0187 0.61037,-0.0286 1.01729,-0.0503 0.7408,-0.041 1.34533,-0.12629 1.81072,-0.25082 0.46539,-0.12453 0.85185,-0.30928 1.15761,-0.55192 0.30637,-0.24263 0.56363,-0.55309 0.77059,-0.92961 0.20757,-0.3771 0.43089,-0.8384 0.6665,-1.38447 0.28825,0.0251 0.43267,0.0368 0.72208,0.0602 -0.0707,0.28825 -0.13392,0.59577 -0.19004,0.92084 -0.0561,0.32623 -0.10762,0.64663 -0.15317,0.96118 -0.0457,0.31513 -0.0807,0.60922 -0.10577,0.88341 -0.0245,0.27363 -0.0362,0.49755 -0.0322,0.67236 -1.17051,0.10993 -1.75631,0.15787 -2.92858,0.23795 -0.84835,0.0585 -1.58206,0.0971 -2.20005,0.12337 -0.61739,0.0257 -1.14476,0.0445 -1.58325,0.0608 -0.43732,0.0157 -0.81734,0.0246 -1.13893,0.0286 -0.32212,0.003 -0.6057,0.007 -0.85009,0.0118 -0.2707,0.005 -0.40518,0.008 -0.67586,0.0115 -0.25783,0.003 -0.54081,0.008 -0.8501,0.0152 -0.30926,0.007 -0.618,0.0104 -0.92726,0.009 -0.30869,-4e-4 -0.60163,0 -0.8793,0.001 -0.27656,0.002 -0.50516,10e-4 -0.68584,-0.001 -0.0199,-0.19702 -0.0296,-0.29583 -0.0497,-0.49285 0.52619,-0.0205 0.95297,-0.0638 1.2798,-0.12454 0.32684,-0.0614 0.58,-0.15786 0.7583,-0.28824 0.17893,-0.13096 0.29938,-0.31045 0.36191,-0.5373 0.0625,-0.22743 0.0924,-0.52444 0.0901,-0.89161 -0.0224,-3.89849 -0.0333,-5.84775 -0.0556,-9.74624 0,-0.23153 -0.0285,-0.42388 -0.0807,-0.57882 -0.052,-0.15376 -0.1561,-0.28122 -0.31045,-0.38237 -0.15378,-0.10116 -0.37595,-0.17597 -0.66592,-0.22567 -0.29059,-0.0491 -0.67996,-0.0859 -1.16876,-0.11281 0.024,-0.20872 0.0358,-0.31221 0.0596,-0.52094 0.18064,0.003 0.40456,0.009 0.66999,0.0158 0.26605,0.007 0.55196,0.0115 0.85715,0.0115 0.30575,0 0.61737,10e-4 0.93424,0.003 0.31691,0.002 0.61157,4.1e-4 0.88285,-0.005 0.21515,-0.005 0.45837,-0.0115 0.73023,-0.0228 0.27129,-0.0115 0.54315,-0.0211 0.81384,-0.0305 0.27186,-0.008 0.52912,-0.0205 0.77233,-0.0345 0.24266,-0.0152 0.44376,-0.0257 0.60164,-0.0333 0.0297,0.19586 0.0445,0.2935 0.0743,0.48937"
     id="path101"
     inkscape:connector-curvature="0"
     style="fill:#ffd02d;stroke-width:0.58465821"
     inkscape:export-filename="C:\Users\suitedoalex\sites\al-nassr-fc-logo-4.png"
     inkscape:export-xdpi="84.879532"
     inkscape:export-ydpi="84.879532" />
  <path
     d="m 228.8203,363.12996 c -0.46482,0.0509 -0.84074,0.1105 -1.12901,0.18359 -0.28822,0.0731 -0.50982,0.17656 -0.66592,0.31162 -0.15609,0.13446 -0.26013,0.31864 -0.31161,0.55133 -0.0509,0.23269 -0.0724,0.52794 -0.0638,0.88575 0.0924,3.67693 0.13854,5.51568 0.23154,9.19258 0.008,0.32859 0.0402,0.59811 0.097,0.80919 0.0556,0.21105 0.17189,0.37475 0.34728,0.49051 0.17542,0.11576 0.42095,0.19294 0.73607,0.23094 0.31516,0.0368 0.73494,0.0456 1.25878,0.0217 0.40752,-0.0187 0.61037,-0.0286 1.01729,-0.0503 0.7408,-0.041 1.34533,-0.12629 1.81072,-0.25082 0.46539,-0.12453 0.85185,-0.30928 1.15761,-0.55192 0.30637,-0.24263 0.56363,-0.55309 0.77059,-0.92961 0.20757,-0.3771 0.43089,-0.8384 0.6665,-1.38447 0.28825,0.0251 0.43267,0.0368 0.72208,0.0602 -0.0707,0.28825 -0.13392,0.59577 -0.19004,0.92084 -0.0561,0.32623 -0.10762,0.64663 -0.15317,0.96118 -0.0457,0.31513 -0.0807,0.60922 -0.10577,0.88341 -0.0245,0.27363 -0.0362,0.49755 -0.0322,0.67236 -1.17051,0.10993 -1.75631,0.15787 -2.92858,0.23795 -0.84835,0.0585 -1.58206,0.0971 -2.20005,0.12337 -0.61739,0.0257 -1.14476,0.0445 -1.58325,0.0608 -0.43732,0.0157 -0.81734,0.0246 -1.13893,0.0286 -0.32212,0.003 -0.6057,0.007 -0.85009,0.0118 -0.2707,0.005 -0.40518,0.008 -0.67586,0.0115 -0.25783,0.003 -0.54081,0.008 -0.8501,0.0152 -0.30926,0.007 -0.618,0.0104 -0.92726,0.009 -0.30869,-4e-4 -0.60163,0 -0.8793,0.001 -0.27656,0.002 -0.50516,10e-4 -0.68584,-0.001 -0.0199,-0.19702 -0.0296,-0.29583 -0.0497,-0.49285 0.52619,-0.0205 0.95297,-0.0638 1.2798,-0.12454 0.32684,-0.0614 0.58,-0.15786 0.7583,-0.28824 0.17893,-0.13096 0.29938,-0.31045 0.36191,-0.5373 0.0625,-0.22743 0.0924,-0.52444 0.0901,-0.89161 -0.0224,-3.89849 -0.0333,-5.84775 -0.0556,-9.74624 0,-0.23153 -0.0285,-0.42388 -0.0807,-0.57882 -0.052,-0.15376 -0.1561,-0.28122 -0.31045,-0.38237 -0.15378,-0.10116 -0.37595,-0.17597 -0.66592,-0.22567 -0.29059,-0.0491 -0.67996,-0.0859 -1.16876,-0.11281 0.024,-0.20872 0.0358,-0.31221 0.0596,-0.52094 0.18064,0.003 0.40456,0.009 0.66999,0.0158 0.26605,0.007 0.55196,0.0115 0.85715,0.0115 0.30575,0 0.61737,10e-4 0.93424,0.003 0.31691,0.002 0.61157,4.1e-4 0.88285,-0.005 0.21515,-0.005 0.45837,-0.0115 0.73023,-0.0228 0.27129,-0.0115 0.54315,-0.0211 0.81384,-0.0305 0.27186,-0.008 0.52912,-0.0205 0.77233,-0.0345 0.24266,-0.0152 0.44376,-0.0257 0.60164,-0.0333 0.0297,0.19586 0.0445,0.2935 0.0743,0.48937 z"
     stroke-miterlimit="10"
     id="path103"
     inkscape:connector-curvature="0"
     style="fill:none;stroke:#ffd02d;stroke-width:1.75397456;stroke-miterlimit:10"
     inkscape:export-filename="C:\Users\suitedoalex\sites\al-nassr-fc-logo-4.png"
     inkscape:export-xdpi="84.879532"
     inkscape:export-ydpi="84.879532" />
  <path
     d="m 242.04706,361.65522 c -0.45486,0.1105 -0.82084,0.21925 -1.09738,0.32858 -0.27655,0.10992 -0.48354,0.24088 -0.62035,0.39464 -0.13799,0.15377 -0.21689,0.34963 -0.23737,0.58758 -0.0203,0.23737 -0.005,0.53263 0.0532,0.88576 0.57416,3.63424 0.86182,5.45136 1.43652,9.08558 0.0514,0.3245 0.11869,0.58759 0.20227,0.78871 0.0836,0.20229 0.22044,0.34963 0.40985,0.44143 0.18947,0.0924 0.44379,0.13739 0.76184,0.13329 0.31744,-0.003 0.73608,-0.0497 1.25348,-0.1409 0.40167,-0.0713 0.60281,-0.1082 1.00331,-0.18242 0.73196,-0.13622 1.32131,-0.29992 1.76798,-0.48351 0.44612,-0.18416 0.80567,-0.41802 1.07811,-0.69807 0.27246,-0.28064 0.48704,-0.6215 0.64432,-1.02199 0.15609,-0.40108 0.31805,-0.88751 0.48056,-1.45989 0.29058,-0.0129 0.43557,-0.0198 0.72616,-0.0345 -0.0322,0.29526 -0.055,0.60804 -0.0684,0.9378 -0.0122,0.33091 -0.0211,0.65539 -0.0256,0.97345 -0.005,0.31746 0,0.61447 0.0104,0.88927 0.0115,0.27536 0.0293,0.4987 0.0562,0.67059 -1.14886,0.26251 -1.72535,0.38589 -2.88003,0.61799 -0.83606,0.16838 -1.55989,0.30227 -2.17028,0.40751 -0.61037,0.10635 -1.13244,0.19352 -1.56513,0.26543 -0.43264,0.0731 -0.80916,0.13096 -1.1284,0.17598 -0.3198,0.0456 -0.59983,0.0859 -0.84248,0.12219 -0.26775,0.0404 -0.40223,0.0602 -0.67,0.0983 -0.25493,0.0368 -0.53615,0.0789 -0.84191,0.12511 -0.30577,0.0467 -0.61214,0.0894 -0.91907,0.12921 -0.30694,0.0392 -0.59813,0.0777 -0.87289,0.11576 -0.27422,0.0374 -0.50108,0.0667 -0.68058,0.0865 -0.0461,-0.19293 -0.069,-0.28941 -0.11454,-0.48235 0.51976,-0.0882 0.9384,-0.18533 1.2547,-0.28823 0.3163,-0.10289 0.55484,-0.23094 0.71443,-0.38412 0.16078,-0.15259 0.25669,-0.34554 0.28884,-0.57881 0.0322,-0.23386 0.0227,-0.53205 -0.0269,-0.89569 -0.53497,-3.86226 -0.80215,-5.79338 -1.33595,-9.65564 -0.0314,-0.22977 -0.0836,-0.41744 -0.15548,-0.56361 -0.0726,-0.14616 -0.19179,-0.259 -0.359,-0.33968 -0.16606,-0.0801 -0.39641,-0.12571 -0.69049,-0.1374 -0.29466,-0.0116 -0.6864,0.002 -1.17515,0.0385 -0.005,-0.20931 -0.005,-0.31397 -0.009,-0.52385 0.18006,-0.0204 0.4028,-0.0438 0.66767,-0.0713 0.26486,-0.0269 0.54902,-0.0596 0.85242,-0.0994 0.30344,-0.0392 0.61273,-0.0783 0.92785,-0.1175 0.31456,-0.0385 0.60689,-0.0783 0.87583,-0.11812 0.21342,-0.0316 0.4537,-0.0701 0.72207,-0.11634 0.26776,-0.0467 0.53611,-0.0918 0.80506,-0.13623 0.26836,-0.0438 0.52269,-0.0882 0.76179,-0.13447 0.23973,-0.0456 0.43736,-0.083 0.59403,-0.1105 0.055,0.19002 0.0825,0.28532 0.13799,0.47534"
     id="path105"
     inkscape:connector-curvature="0"
     style="fill:#ffd02d;stroke-width:0.58465821"
     inkscape:export-filename="C:\Users\suitedoalex\sites\al-nassr-fc-logo-4.png"
     inkscape:export-xdpi="84.879532"
     inkscape:export-ydpi="84.879532" />
  <path
     d="m 242.04706,361.65522 c -0.45486,0.1105 -0.82084,0.21925 -1.09738,0.32858 -0.27655,0.10992 -0.48354,0.24088 -0.62035,0.39464 -0.13799,0.15377 -0.21689,0.34963 -0.23737,0.58758 -0.0203,0.23737 -0.005,0.53263 0.0532,0.88576 0.57416,3.63424 0.86182,5.45136 1.43652,9.08558 0.0514,0.3245 0.11869,0.58759 0.20227,0.78871 0.0836,0.20229 0.22044,0.34963 0.40985,0.44143 0.18947,0.0924 0.44379,0.13739 0.76184,0.13329 0.31744,-0.003 0.73608,-0.0497 1.25348,-0.1409 0.40167,-0.0713 0.60281,-0.1082 1.00331,-0.18242 0.73196,-0.13622 1.32131,-0.29992 1.76798,-0.48351 0.44612,-0.18416 0.80567,-0.41802 1.07811,-0.69807 0.27246,-0.28064 0.48704,-0.6215 0.64432,-1.02199 0.15609,-0.40108 0.31805,-0.88751 0.48056,-1.45989 0.29058,-0.0129 0.43557,-0.0198 0.72616,-0.0345 -0.0322,0.29526 -0.055,0.60804 -0.0684,0.9378 -0.0122,0.33091 -0.0211,0.65539 -0.0256,0.97345 -0.005,0.31746 0,0.61447 0.0104,0.88927 0.0115,0.27536 0.0293,0.4987 0.0562,0.67059 -1.14886,0.26251 -1.72535,0.38589 -2.88003,0.61799 -0.83606,0.16838 -1.55989,0.30227 -2.17028,0.40751 -0.61037,0.10635 -1.13244,0.19352 -1.56513,0.26543 -0.43264,0.0731 -0.80916,0.13096 -1.1284,0.17598 -0.3198,0.0456 -0.59983,0.0859 -0.84248,0.12219 -0.26775,0.0404 -0.40223,0.0602 -0.67,0.0983 -0.25493,0.0368 -0.53615,0.0789 -0.84191,0.12511 -0.30577,0.0467 -0.61214,0.0894 -0.91907,0.12921 -0.30694,0.0392 -0.59813,0.0777 -0.87289,0.11576 -0.27422,0.0374 -0.50108,0.0667 -0.68058,0.0865 -0.0461,-0.19293 -0.069,-0.28941 -0.11454,-0.48235 0.51976,-0.0882 0.9384,-0.18533 1.2547,-0.28823 0.3163,-0.10289 0.55484,-0.23094 0.71443,-0.38412 0.16078,-0.15259 0.25669,-0.34554 0.28884,-0.57881 0.0322,-0.23386 0.0227,-0.53205 -0.0269,-0.89569 -0.53497,-3.86226 -0.80215,-5.79338 -1.33595,-9.65564 -0.0314,-0.22977 -0.0836,-0.41744 -0.15548,-0.56361 -0.0726,-0.14616 -0.19179,-0.259 -0.359,-0.33968 -0.16606,-0.0801 -0.39641,-0.12571 -0.69049,-0.1374 -0.29466,-0.0116 -0.6864,0.002 -1.17515,0.0385 -0.005,-0.20931 -0.005,-0.31397 -0.009,-0.52385 0.18006,-0.0204 0.4028,-0.0438 0.66767,-0.0713 0.26486,-0.0269 0.54902,-0.0596 0.85242,-0.0994 0.30344,-0.0392 0.61273,-0.0783 0.92785,-0.1175 0.31456,-0.0385 0.60689,-0.0783 0.87583,-0.11812 0.21342,-0.0316 0.4537,-0.0701 0.72207,-0.11634 0.26776,-0.0467 0.53611,-0.0918 0.80506,-0.13623 0.26836,-0.0438 0.52269,-0.0882 0.76179,-0.13447 0.23973,-0.0456 0.43736,-0.083 0.59403,-0.1105 0.055,0.19002 0.0825,0.28532 0.13799,0.47534 z"
     stroke-miterlimit="10"
     id="path107"
     inkscape:connector-curvature="0"
     style="fill:none;stroke:#ffd02d;stroke-width:1.75397456;stroke-miterlimit:10"
     inkscape:export-filename="C:\Users\suitedoalex\sites\al-nassr-fc-logo-4.png"
     inkscape:export-xdpi="84.879532"
     inkscape:export-ydpi="84.879532" />
  <path
     d="m 265.57271,361.19901 c 0.35841,0.85594 0.832,1.60431 1.42714,2.23983 0.59579,0.63553 1.29735,1.10968 2.10832,1.41603 0.8109,0.30577 1.72179,0.42563 2.72973,0.35081 1.0068,-0.0754 2.09834,-0.39641 3.2548,-0.9717 0.63085,-0.31397 1.2003,-0.68523 1.70602,-1.11144 0.50576,-0.42622 0.89746,-0.90506 1.17576,-1.42657 0.2625,-0.49346 0.43557,-1.02082 0.51569,-1.57974 0.0795,-0.55777 0.11396,-1.18336 0.10058,-1.87559 0.29408,-0.0994 0.44082,-0.14968 0.73377,-0.25199 0.13151,0.66066 0.27885,1.26696 0.44431,1.81771 0.16545,0.55132 0.36542,1.12663 0.59984,1.7265 -0.79276,0.70333 -1.61247,1.34997 -2.45378,1.93755 -0.84134,0.58758 -1.72359,1.10968 -2.64208,1.56454 -1.33068,0.65832 -2.64324,1.08689 -3.91837,1.29093 -1.27513,0.20346 -2.45031,0.18591 -3.51381,-0.041 -1.06406,-0.22627 -1.9861,-0.66243 -2.76661,-1.29443 -0.78051,-0.63203 -1.35814,-1.45289 -1.74927,-2.45207 -0.45021,-1.15178 -0.57592,-2.2597 -0.39992,-3.32261 0.17538,-1.06292 0.57766,-2.05508 1.19798,-2.98877 0.6203,-0.93371 1.41836,-1.78556 2.39765,-2.57133 0.97991,-0.78695 2.06797,-1.48094 3.27645,-2.09542 0.62442,-0.31805 1.30963,-0.62675 2.05624,-0.92902 0.74777,-0.30343 1.46049,-0.56069 2.14216,-0.76999 0.24557,0.57179 0.49697,1.10442 0.75598,1.59671 0.25957,0.49227 0.5408,1.00735 0.84599,1.54524 -0.2514,0.16896 -0.37767,0.25316 -0.6308,0.42038 -0.31924,-0.47475 -0.68351,-0.839 -1.08865,-1.09625 -0.40516,-0.25667 -0.84017,-0.41569 -1.30613,-0.47766 -0.46539,-0.0619 -0.94833,-0.0345 -1.45173,0.0807 -0.50336,0.11576 -1.01669,0.30578 -1.54406,0.57004 -1.03427,0.51801 -1.88376,1.09156 -2.55437,1.73818 -0.67061,0.64605 -1.17282,1.33537 -1.5061,2.07613 -0.33266,0.74136 -0.49754,1.52537 -0.48875,2.35501 0.009,0.83021 0.18767,1.67387 0.54606,2.52922"
     id="path109"
     inkscape:connector-curvature="0"
     style="fill:#ffd02d;stroke-width:0.58465821"
     inkscape:export-filename="C:\Users\suitedoalex\sites\al-nassr-fc-logo-4.png"
     inkscape:export-xdpi="84.879532"
     inkscape:export-ydpi="84.879532" />
  <path
     d="m 265.57271,361.19901 c 0.35841,0.85594 0.832,1.60431 1.42714,2.23983 0.59579,0.63553 1.29735,1.10968 2.10832,1.41603 0.8109,0.30577 1.72179,0.42563 2.72973,0.35081 1.0068,-0.0754 2.09834,-0.39641 3.2548,-0.9717 0.63085,-0.31397 1.2003,-0.68523 1.70602,-1.11144 0.50576,-0.42622 0.89746,-0.90506 1.17576,-1.42657 0.2625,-0.49346 0.43557,-1.02082 0.51569,-1.57974 0.0795,-0.55777 0.11396,-1.18336 0.10058,-1.87559 0.29408,-0.0994 0.44082,-0.14968 0.73377,-0.25199 0.13151,0.66066 0.27885,1.26696 0.44431,1.81771 0.16545,0.55132 0.36542,1.12663 0.59984,1.7265 -0.79276,0.70333 -1.61247,1.34997 -2.45378,1.93755 -0.84134,0.58758 -1.72359,1.10968 -2.64208,1.56454 -1.33068,0.65832 -2.64324,1.08689 -3.91837,1.29093 -1.27513,0.20346 -2.45031,0.18591 -3.51381,-0.041 -1.06406,-0.22627 -1.9861,-0.66243 -2.76661,-1.29443 -0.78051,-0.63203 -1.35814,-1.45289 -1.74927,-2.45207 -0.45021,-1.15178 -0.57592,-2.2597 -0.39992,-3.32261 0.17538,-1.06292 0.57766,-2.05508 1.19798,-2.98877 0.6203,-0.93371 1.41836,-1.78556 2.39765,-2.57133 0.97991,-0.78695 2.06797,-1.48094 3.27645,-2.09542 0.62442,-0.31805 1.30963,-0.62675 2.05624,-0.92902 0.74777,-0.30343 1.46049,-0.56069 2.14216,-0.76999 0.24557,0.57179 0.49697,1.10442 0.75598,1.59671 0.25957,0.49227 0.5408,1.00735 0.84599,1.54524 -0.2514,0.16896 -0.37767,0.25316 -0.6308,0.42038 -0.31924,-0.47475 -0.68351,-0.839 -1.08865,-1.09625 -0.40516,-0.25667 -0.84017,-0.41569 -1.30613,-0.47766 -0.46539,-0.0619 -0.94833,-0.0345 -1.45173,0.0807 -0.50336,0.11576 -1.01669,0.30578 -1.54406,0.57004 -1.03427,0.51801 -1.88376,1.09156 -2.55437,1.73818 -0.67061,0.64605 -1.17282,1.33537 -1.5061,2.07613 -0.33266,0.74136 -0.49754,1.52537 -0.48875,2.35501 0.009,0.83021 0.18767,1.67387 0.54606,2.52922 z"
     stroke-miterlimit="10"
     id="path111"
     inkscape:connector-curvature="0"
     style="fill:none;stroke:#ffd02d;stroke-width:1.75397456;stroke-miterlimit:10"
     inkscape:export-filename="C:\Users\suitedoalex\sites\al-nassr-fc-logo-4.png"
     inkscape:export-xdpi="84.879532"
     inkscape:export-ydpi="84.879532" />
  <path
     d="m 282.02476,345.13119 c -0.37827,0.30053 -0.67471,0.55894 -0.88753,0.77995 -0.21164,0.22099 -0.35019,0.43089 -0.4151,0.63142 -0.0638,0.20054 -0.0561,0.41336 0.0232,0.63963 0.0795,0.22567 0.21807,0.48759 0.41572,0.78577 2.04103,3.06595 3.06126,4.59951 5.10168,7.66604 0.18242,0.27362 0.35374,0.48409 0.51512,0.63201 0.16135,0.14792 0.35021,0.22334 0.56478,0.22452 0.21513,0.001 0.47007,-0.0684 0.76472,-0.21107 0.29465,-0.14207 0.66536,-0.36775 1.11085,-0.6782 0.34495,-0.24088 0.51683,-0.36249 0.86003,-0.60687 0.62617,-0.44669 1.10854,-0.85594 1.44881,-1.22195 0.34084,-0.36541 0.57997,-0.73842 0.71792,-1.11552 0.13917,-0.3771 0.19821,-0.78519 0.17893,-1.22135 -0.0191,-0.43616 -0.0701,-0.953 -0.15435,-1.54934 0.266,-0.14149 0.39874,-0.21282 0.66417,-0.35665 0.0918,0.28531 0.19997,0.58173 0.32449,0.88985 0.12451,0.30753 0.25082,0.60806 0.37827,0.90096 0.12744,0.29291 0.25375,0.56302 0.3777,0.80976 0.12394,0.24613 0.23386,0.44258 0.32974,0.58816 -0.96527,0.75246 -1.45231,1.12195 -2.43453,1.84459 -0.71037,0.52269 -1.33011,0.96351 -1.85569,1.32835 -0.52562,0.36483 -0.97641,0.67352 -1.34939,0.92844 -0.3736,0.2555 -0.69924,0.47297 -0.97872,0.65306 -0.27891,0.18065 -0.52388,0.33968 -0.73433,0.47825 -0.23272,0.15259 -0.34963,0.22918 -0.58292,0.38061 -0.22275,0.14383 -0.46653,0.30402 -0.73196,0.47883 -0.26545,0.17482 -0.53266,0.3467 -0.80217,0.51509 -0.26955,0.16838 -0.52387,0.32917 -0.76416,0.48235 -0.2391,0.15259 -0.43849,0.27653 -0.59633,0.37242 -0.12278,-0.1561 -0.18475,-0.23444 -0.30696,-0.39113 0.44669,-0.30343 0.79571,-0.57238 1.04714,-0.80333 0.25197,-0.22977 0.42035,-0.45018 0.50629,-0.6589 0.0859,-0.20873 0.0953,-0.42622 0.0285,-0.65306 -0.0667,-0.22686 -0.19878,-0.49521 -0.39637,-0.80508 -2.0972,-3.29222 -3.14608,-4.93861 -5.24322,-8.23082 -0.12513,-0.19586 -0.2514,-0.34495 -0.37829,-0.44667 -0.12806,-0.10174 -0.28646,-0.15319 -0.47474,-0.15436 -0.18768,-10e-4 -0.42097,0.0561 -0.69983,0.17305 -0.2789,0.11636 -0.63728,0.2976 -1.07634,0.54081 -0.0901,-0.18942 -0.13506,-0.28413 -0.22629,-0.47298 0.15963,-0.0964 0.35666,-0.21339 0.59166,-0.35313 0.23503,-0.13856 0.48587,-0.29175 0.75186,-0.45838 0.26605,-0.1672 0.53735,-0.33618 0.81502,-0.50807 0.27655,-0.17247 0.53262,-0.335 0.76652,-0.48818 0.18532,-0.12162 0.39345,-0.26135 0.62438,-0.42095 0.23036,-0.15903 0.4619,-0.31749 0.69345,-0.47416 0.23267,-0.15787 0.45073,-0.30987 0.6548,-0.45663 0.20404,-0.14616 0.37299,-0.26718 0.50748,-0.36132 0.13037,0.14968 0.19467,0.22452 0.32566,0.37418"
     id="path113"
     inkscape:connector-curvature="0"
     style="fill:#ffd02d;stroke-width:0.58465821"
     inkscape:export-filename="C:\Users\suitedoalex\sites\al-nassr-fc-logo-4.png"
     inkscape:export-xdpi="84.879532"
     inkscape:export-ydpi="84.879532" />
  <path
     d="m 282.02476,345.13119 c -0.37827,0.30053 -0.67471,0.55894 -0.88753,0.77995 -0.21164,0.22099 -0.35019,0.43089 -0.4151,0.63142 -0.0638,0.20054 -0.0561,0.41336 0.0232,0.63963 0.0795,0.22567 0.21807,0.48759 0.41572,0.78577 2.04103,3.06595 3.06126,4.59951 5.10168,7.66604 0.18242,0.27362 0.35374,0.48409 0.51512,0.63201 0.16135,0.14792 0.35021,0.22334 0.56478,0.22452 0.21513,0.001 0.47007,-0.0684 0.76472,-0.21107 0.29465,-0.14207 0.66536,-0.36775 1.11085,-0.6782 0.34495,-0.24088 0.51683,-0.36249 0.86003,-0.60687 0.62617,-0.44669 1.10854,-0.85594 1.44881,-1.22195 0.34084,-0.36541 0.57997,-0.73842 0.71792,-1.11552 0.13917,-0.3771 0.19821,-0.78519 0.17893,-1.22135 -0.0191,-0.43616 -0.0701,-0.953 -0.15435,-1.54934 0.266,-0.14149 0.39874,-0.21282 0.66417,-0.35665 0.0918,0.28531 0.19997,0.58173 0.32449,0.88985 0.12451,0.30753 0.25082,0.60806 0.37827,0.90096 0.12744,0.29291 0.25375,0.56302 0.3777,0.80976 0.12394,0.24613 0.23386,0.44258 0.32974,0.58816 -0.96527,0.75246 -1.45231,1.12195 -2.43453,1.84459 -0.71037,0.52269 -1.33011,0.96351 -1.85569,1.32835 -0.52562,0.36483 -0.97641,0.67352 -1.34939,0.92844 -0.3736,0.2555 -0.69924,0.47297 -0.97872,0.65306 -0.27891,0.18065 -0.52388,0.33968 -0.73433,0.47825 -0.23272,0.15259 -0.34963,0.22918 -0.58292,0.38061 -0.22275,0.14383 -0.46653,0.30402 -0.73196,0.47883 -0.26545,0.17482 -0.53266,0.3467 -0.80217,0.51509 -0.26955,0.16838 -0.52387,0.32917 -0.76416,0.48235 -0.2391,0.15259 -0.43849,0.27653 -0.59633,0.37242 -0.12278,-0.1561 -0.18475,-0.23444 -0.30696,-0.39113 0.44669,-0.30343 0.79571,-0.57238 1.04714,-0.80333 0.25197,-0.22977 0.42035,-0.45018 0.50629,-0.6589 0.0859,-0.20873 0.0953,-0.42622 0.0285,-0.65306 -0.0667,-0.22686 -0.19878,-0.49521 -0.39637,-0.80508 -2.0972,-3.29222 -3.14608,-4.93861 -5.24322,-8.23082 -0.12513,-0.19586 -0.2514,-0.34495 -0.37829,-0.44667 -0.12806,-0.10174 -0.28646,-0.15319 -0.47474,-0.15436 -0.18768,-10e-4 -0.42097,0.0561 -0.69983,0.17305 -0.2789,0.11636 -0.63728,0.2976 -1.07634,0.54081 -0.0901,-0.18942 -0.13506,-0.28413 -0.22629,-0.47298 0.15963,-0.0964 0.35666,-0.21339 0.59166,-0.35313 0.23503,-0.13856 0.48587,-0.29175 0.75186,-0.45838 0.26605,-0.1672 0.53735,-0.33618 0.81502,-0.50807 0.27655,-0.17247 0.53262,-0.335 0.76652,-0.48818 0.18532,-0.12162 0.39345,-0.26135 0.62438,-0.42095 0.23036,-0.15903 0.4619,-0.31749 0.69345,-0.47416 0.23267,-0.15787 0.45073,-0.30987 0.6548,-0.45663 0.20404,-0.14616 0.37299,-0.26718 0.50748,-0.36132 0.13037,0.14968 0.19467,0.22452 0.32566,0.37418 z"
     stroke-miterlimit="10"
     id="path115"
     inkscape:connector-curvature="0"
     style="fill:none;stroke:#ffd02d;stroke-width:1.75397456;stroke-miterlimit:10"
     inkscape:export-filename="C:\Users\suitedoalex\sites\al-nassr-fc-logo-4.png"
     inkscape:export-xdpi="84.879532"
     inkscape:export-ydpi="84.879532" />
  <path
     d="m 296.59555,344.64874 c 0.45954,0.52268 0.97055,0.86704 1.53767,1.02841 0.56708,0.16079 1.15235,0.18066 1.75395,0.0561 0.60163,-0.12394 1.20147,-0.36307 1.79549,-0.71796 0.59403,-0.3543 1.15001,-0.78578 1.66513,-1.28974 0.52444,-0.51451 0.96468,-1.06759 1.31956,-1.65635 0.35488,-0.58816 0.58292,-1.19387 0.68465,-1.81244 0.10116,-0.61739 0.0514,-1.22896 -0.14678,-1.83115 -0.19878,-0.60161 -0.58698,-1.16756 -1.15997,-1.70136 -1.78084,-1.66043 -2.67071,-2.49005 -4.45155,-4.14989 -0.31105,-0.29 -0.58934,-0.49404 -0.83492,-0.61332 -0.24497,-0.11926 -0.49343,-0.14966 -0.74544,-0.0918 -0.25197,0.0573 -0.52852,0.20347 -0.83077,0.43791 -0.30287,0.23386 -0.67121,0.55601 -1.10853,0.96059 -0.13799,-0.15669 -0.20757,-0.23503 -0.34552,-0.39231 0.29522,-0.30225 0.65539,-0.6665 1.07517,-1.09564 0.42039,-0.42914 0.85303,-0.88575 1.29677,-1.37161 0.3613,-0.39639 0.73201,-0.81911 1.10968,-1.26812 0.3777,-0.45019 0.69282,-0.82554 0.94889,-1.12372 0.15377,0.12337 0.23036,0.18476 0.38471,0.30812 -0.32448,0.43732 -0.57938,0.79864 -0.76355,1.08804 -0.1836,0.29 -0.28647,0.56128 -0.30694,0.81619 -0.0211,0.25491 0.0543,0.51158 0.22568,0.76766 0.17188,0.25725 0.44961,0.56127 0.83488,0.91323 1.81185,1.65225 2.71808,2.47837 4.52936,4.13061 0.69982,0.63786 1.14418,1.34238 1.32542,2.11764 0.18124,0.77641 0.17364,1.57857 -0.0253,2.40178 -0.19934,0.8226 -0.55776,1.63587 -1.07634,2.42924 -0.51801,0.79397 -1.1249,1.52655 -1.81536,2.19306 -0.68115,0.65657 -1.40261,1.20849 -2.15798,1.65283 -0.75536,0.44492 -1.50492,0.74017 -2.24335,0.88926 -0.73783,0.1485 -1.43941,0.12805 -2.10065,-0.0555 -0.66187,-0.18301 -1.23948,-0.57472 -1.73878,-1.16582 -1.99721,-2.36669 -2.99578,-3.55004 -4.99299,-5.91674 -0.14968,-0.17774 -0.29817,-0.31103 -0.44551,-0.40224 -0.14677,-0.0907 -0.32272,-0.1222 -0.52618,-0.0958 -0.20464,0.0269 -0.44904,0.12102 -0.73319,0.28179 -0.2853,0.1608 -0.64079,0.40343 -1.06874,0.72441 -0.11983,-0.17189 -0.18007,-0.25784 -0.29933,-0.42915 0.16546,-0.13388 0.36187,-0.29057 0.5893,-0.47064 0.22805,-0.18066 0.46425,-0.3736 0.71036,-0.57882 0.25433,-0.2134 0.51219,-0.42739 0.77295,-0.64371 0.26076,-0.21632 0.50336,-0.42271 0.7279,-0.61797 0.17949,-0.15612 0.37767,-0.33268 0.59284,-0.53029 0.21571,-0.19702 0.4344,-0.39581 0.65596,-0.59519 0.22218,-0.19995 0.43031,-0.39231 0.62561,-0.57823 0.1947,-0.18534 0.36658,-0.34729 0.51625,-0.48643 0.1491,0.13038 0.22392,0.19527 0.3736,0.32565 -0.35956,0.37419 -0.63729,0.69281 -0.83199,0.96177 -0.19524,0.26835 -0.31219,0.51626 -0.35139,0.74485 -0.0378,0.22859 -0.005,0.45429 0.10232,0.67586 0.10692,0.22217 0.27828,0.46773 0.51389,0.73608 1.77328,2.01592 2.6596,3.02445 4.43287,5.04093"
     id="path117"
     inkscape:connector-curvature="0"
     style="fill:#ffd02d;stroke-width:0.58465821"
     inkscape:export-filename="C:\Users\suitedoalex\sites\al-nassr-fc-logo-4.png"
     inkscape:export-xdpi="84.879532"
     inkscape:export-ydpi="84.879532" />
  <path
     d="m 296.59555,344.64874 c 0.45954,0.52268 0.97055,0.86704 1.53767,1.02841 0.56708,0.16079 1.15235,0.18066 1.75395,0.0561 0.60163,-0.12394 1.20147,-0.36307 1.79549,-0.71796 0.59403,-0.3543 1.15001,-0.78578 1.66513,-1.28974 0.52444,-0.51451 0.96468,-1.06759 1.31956,-1.65635 0.35488,-0.58816 0.58292,-1.19387 0.68465,-1.81244 0.10116,-0.61739 0.0514,-1.22896 -0.14678,-1.83115 -0.19878,-0.60161 -0.58698,-1.16756 -1.15997,-1.70136 -1.78084,-1.66043 -2.67071,-2.49005 -4.45155,-4.14989 -0.31105,-0.29 -0.58934,-0.49404 -0.83492,-0.61332 -0.24497,-0.11926 -0.49343,-0.14966 -0.74544,-0.0918 -0.25197,0.0573 -0.52852,0.20347 -0.83077,0.43791 -0.30287,0.23386 -0.67121,0.55601 -1.10853,0.96059 -0.13799,-0.15669 -0.20757,-0.23503 -0.34552,-0.39231 0.29522,-0.30225 0.65539,-0.6665 1.07517,-1.09564 0.42039,-0.42914 0.85303,-0.88575 1.29677,-1.37161 0.3613,-0.39639 0.73201,-0.81911 1.10968,-1.26812 0.3777,-0.45019 0.69282,-0.82554 0.94889,-1.12372 0.15377,0.12337 0.23036,0.18476 0.38471,0.30812 -0.32448,0.43732 -0.57938,0.79864 -0.76355,1.08804 -0.1836,0.29 -0.28647,0.56128 -0.30694,0.81619 -0.0211,0.25491 0.0543,0.51158 0.22568,0.76766 0.17188,0.25725 0.44961,0.56127 0.83488,0.91323 1.81185,1.65225 2.71808,2.47837 4.52936,4.13061 0.69982,0.63786 1.14418,1.34238 1.32542,2.11764 0.18124,0.77641 0.17364,1.57857 -0.0253,2.40178 -0.19934,0.8226 -0.55776,1.63587 -1.07634,2.42924 -0.51801,0.79397 -1.1249,1.52655 -1.81536,2.19306 -0.68115,0.65657 -1.40261,1.20849 -2.15798,1.65283 -0.75536,0.44492 -1.50492,0.74017 -2.24335,0.88926 -0.73783,0.1485 -1.43941,0.12805 -2.10065,-0.0555 -0.66187,-0.18301 -1.23948,-0.57472 -1.73878,-1.16582 -1.99721,-2.36669 -2.99578,-3.55004 -4.99299,-5.91674 -0.14968,-0.17774 -0.29817,-0.31103 -0.44551,-0.40224 -0.14677,-0.0907 -0.32272,-0.1222 -0.52618,-0.0958 -0.20464,0.0269 -0.44904,0.12102 -0.73319,0.28179 -0.2853,0.1608 -0.64079,0.40343 -1.06874,0.72441 -0.11983,-0.17189 -0.18007,-0.25784 -0.29933,-0.42915 0.16546,-0.13388 0.36187,-0.29057 0.5893,-0.47064 0.22805,-0.18066 0.46425,-0.3736 0.71036,-0.57882 0.25433,-0.2134 0.51219,-0.42739 0.77295,-0.64371 0.26076,-0.21632 0.50336,-0.42271 0.7279,-0.61797 0.17949,-0.15612 0.37767,-0.33268 0.59284,-0.53029 0.21571,-0.19702 0.4344,-0.39581 0.65596,-0.59519 0.22218,-0.19995 0.43031,-0.39231 0.62561,-0.57823 0.1947,-0.18534 0.36658,-0.34729 0.51625,-0.48643 0.1491,0.13038 0.22392,0.19527 0.3736,0.32565 -0.35956,0.37419 -0.63729,0.69281 -0.83199,0.96177 -0.19524,0.26835 -0.31219,0.51626 -0.35139,0.74485 -0.0378,0.22859 -0.005,0.45429 0.10232,0.67586 0.10692,0.22217 0.27828,0.46773 0.51389,0.73608 1.77328,2.01592 2.6596,3.02445 4.43287,5.04093 z"
     stroke-miterlimit="10"
     id="path119"
     inkscape:connector-curvature="0"
     style="fill:none;stroke:#ffd02d;stroke-width:1.75397456;stroke-miterlimit:10"
     inkscape:export-filename="C:\Users\suitedoalex\sites\al-nassr-fc-logo-4.png"
     inkscape:export-xdpi="84.879532"
     inkscape:export-ydpi="84.879532" />
  <path
     d="m 313.01224,330.714 c 0.25258,0.19411 0.47472,0.33559 0.66999,0.42329 0.19411,0.0877 0.39407,0.0918 0.60165,0.0104 0.20639,-0.0806 0.44023,-0.25783 0.69924,-0.53145 0.25839,-0.2742 0.58641,-0.67879 0.97873,-1.21843 0.87581,-1.20557 1.35289,-2.34564 1.4394,-3.38108 0.0859,-1.0366 -0.29933,-1.83115 -1.13481,-2.38832 -0.48937,-0.32683 -0.99452,-0.48643 -1.5125,-0.48586 -0.51687,4.1e-4 -1.03252,0.13506 -1.5476,0.3999 -0.51508,0.26486 -1.02784,0.64898 -1.54292,1.14945 -0.51508,0.50105 -1.0243,1.09506 -1.53356,1.78204 -0.3812,0.5145 -0.57356,0.77 -0.96119,1.27747 1.53706,1.18511 2.3059,1.77737 3.84357,2.96247 m -4.4288,-3.41324 c 0.39874,-0.52267 0.59752,-0.78636 0.9904,-1.31724 0.9793,-1.32191 1.48856,-2.45205 1.54704,-3.34366 0.0579,-0.89161 -0.29234,-1.58733 -1.03545,-2.09249 -0.27187,-0.18358 -0.57589,-0.3157 -0.91266,-0.39522 -0.33675,-0.0806 -0.70099,-0.0638 -1.09387,0.0473 -0.39175,0.1105 -0.81503,0.34904 -1.27049,0.71037 -0.45661,0.36248 -0.9378,0.89511 -1.45406,1.59494 -0.26892,0.36483 -0.46242,0.65949 -0.57879,0.88692 -0.11635,0.22686 -0.17714,0.41045 -0.18007,0.55018 -0.005,0.13973 0.037,0.25432 0.12102,0.34318 0.0842,0.0882 0.18711,0.18008 0.30986,0.27422 1.42248,1.0968 2.13403,1.64463 3.55707,2.74145 m -7.66196,-0.18475 c 0.12688,-0.15143 0.2783,-0.32974 0.4549,-0.53555 0.17595,-0.20638 0.35838,-0.42445 0.54487,-0.65423 0.1947,-0.24029 0.39467,-0.48468 0.59926,-0.73316 0.20409,-0.24964 0.40169,-0.49637 0.59285,-0.74135 0.30638,-0.39172 0.62971,-0.84951 0.96706,-1.37628 0.33733,-0.52737 0.7086,-1.06818 1.11316,-1.62594 0.46307,-0.63844 0.94776,-1.22661 1.4558,-1.76566 0.50809,-0.53907 1.02374,-0.97463 1.55172,-1.30613 0.52732,-0.33033 1.0553,-0.52619 1.58618,-0.58349 0.53143,-0.0561 1.05412,0.076 1.5657,0.40458 0.42272,0.27129 0.71854,0.6022 0.88399,0.99509 0.16603,0.39289 0.24965,0.81034 0.24908,1.25116 0,0.44026 -0.0608,0.88401 -0.1801,1.33011 -0.11927,0.44609 -0.23854,0.86411 -0.35605,1.25642 0.98751,-1.14475 1.95395,-1.90948 2.9262,-2.27781 0.97173,-0.36834 1.89198,-0.29467 2.75788,0.25022 0.62904,0.39523 1.03951,0.92845 1.2219,1.6043 0.18242,0.67528 0.2017,1.42715 0.0526,2.25035 -0.14909,0.82378 -0.44085,1.68733 -0.87698,2.58185 -0.43676,0.8957 -0.95888,1.76158 -1.56514,2.59239 -0.37829,0.51975 -0.82378,1.07226 -1.33711,1.65399 -0.51395,0.58173 -0.96704,1.1202 -1.35993,1.62008 -0.17481,0.22159 -0.35837,0.45838 -0.55252,0.70862 -0.19409,0.2514 -0.39345,0.50222 -0.59752,0.75362 -0.20403,0.25081 -0.39813,0.49112 -0.5823,0.72146 -0.18356,0.22978 -0.34788,0.4309 -0.4923,0.60279 -0.16602,-0.10762 -0.24964,-0.16137 -0.41628,-0.26953 0.35431,-0.46832 0.62328,-0.86237 0.80802,-1.18043 0.18593,-0.31863 0.28648,-0.59751 0.30459,-0.83488 0.0175,-0.23738 -0.0433,-0.45195 -0.18007,-0.64372 -0.13738,-0.19118 -0.34962,-0.40166 -0.63553,-0.6326 -3.03669,-2.44562 -4.55563,-3.66931 -7.59294,-6.11611 -0.18066,-0.14499 -0.3467,-0.24614 -0.49811,-0.30402 -0.15145,-0.0585 -0.31984,-0.0532 -0.50401,0.0141 -0.18413,0.0678 -0.39695,0.21165 -0.63842,0.43148 -0.24146,0.21925 -0.53904,0.52795 -0.89571,0.92318 -0.14966,-0.14617 -0.2245,-0.21867 -0.37477,-0.36482"
     id="path121"
     inkscape:connector-curvature="0"
     style="fill:#ffd02d;stroke-width:0.58465821"
     inkscape:export-filename="C:\Users\suitedoalex\sites\al-nassr-fc-logo-4.png"
     inkscape:export-xdpi="84.879532"
     inkscape:export-ydpi="84.879532" />
  <path
     d="m 313.01224,330.714 c 0.25258,0.19411 0.47472,0.33559 0.66999,0.42329 0.19411,0.0877 0.39407,0.0918 0.60165,0.0104 0.20639,-0.0806 0.44023,-0.25783 0.69924,-0.53145 0.25839,-0.2742 0.58641,-0.67879 0.97873,-1.21843 0.87581,-1.20557 1.35289,-2.34564 1.4394,-3.38108 0.0859,-1.0366 -0.29933,-1.83115 -1.13481,-2.38832 -0.48937,-0.32683 -0.99452,-0.48643 -1.5125,-0.48586 -0.51687,4.1e-4 -1.03252,0.13506 -1.5476,0.3999 -0.51508,0.26486 -1.02784,0.64898 -1.54292,1.14945 -0.51508,0.50105 -1.0243,1.09506 -1.53356,1.78204 -0.3812,0.5145 -0.57356,0.77 -0.96119,1.27747 1.53706,1.18511 2.3059,1.77737 3.84357,2.96247 z m -4.4288,-3.41324 c 0.39874,-0.52269 0.59752,-0.78637 0.9904,-1.31724 0.9793,-1.3219 1.48856,-2.45205 1.54704,-3.34365 0.0579,-0.89161 -0.29234,-1.58736 -1.03545,-2.0925 -0.27187,-0.18359 -0.57589,-0.31571 -0.91266,-0.39523 -0.33675,-0.0806 -0.70099,-0.0638 -1.09387,0.0473 -0.39175,0.1105 -0.81503,0.34904 -1.27049,0.71037 -0.45661,0.36249 -0.9378,0.8951 -1.45406,1.59494 -0.26892,0.36482 -0.46242,0.65949 -0.57879,0.88692 -0.11635,0.22686 -0.17714,0.41043 -0.18007,0.55016 -0.005,0.13974 0.037,0.25435 0.12102,0.34321 0.0842,0.0882 0.18711,0.18007 0.30986,0.27419 1.42248,1.09683 2.13403,1.64465 3.55707,2.74147 z m -7.66196,-0.18475 c 0.12688,-0.15142 0.2783,-0.32975 0.4549,-0.53555 0.17595,-0.20638 0.35838,-0.42446 0.54487,-0.65423 0.1947,-0.24029 0.39467,-0.48469 0.59926,-0.73316 0.20409,-0.24965 0.40169,-0.49638 0.59285,-0.74134 0.30638,-0.39173 0.62971,-0.84951 0.96706,-1.3763 0.33733,-0.52735 0.7086,-1.06817 1.11316,-1.62592 0.46307,-0.63847 0.94776,-1.22662 1.4558,-1.76568 0.50809,-0.53905 1.02374,-0.97462 1.55172,-1.30613 0.52732,-0.33033 1.0553,-0.52619 1.58618,-0.58348 0.53143,-0.0562 1.05412,0.076 1.5657,0.40458 0.42272,0.27128 0.71854,0.6022 0.88399,0.99509 0.16603,0.39289 0.24965,0.81034 0.24908,1.25117 0,0.44025 -0.0608,0.884 -0.1801,1.3301 -0.11927,0.44609 -0.23854,0.86412 -0.35605,1.25642 0.98751,-1.14476 1.95395,-1.90949 2.9262,-2.27782 0.97173,-0.36834 1.89198,-0.29466 2.75788,0.25024 0.62904,0.39523 1.03951,0.92843 1.2219,1.60429 0.18242,0.67529 0.2017,1.42715 0.0526,2.25035 -0.14909,0.82378 -0.44085,1.68733 -0.87698,2.58185 -0.43676,0.8957 -0.95888,1.76158 -1.56514,2.59238 -0.37829,0.51976 -0.82378,1.07226 -1.33711,1.654 -0.51395,0.58173 -0.96704,1.12021 -1.35993,1.62009 -0.17481,0.22158 -0.35837,0.45837 -0.55252,0.7086 -0.19409,0.2514 -0.39345,0.50223 -0.59752,0.75363 -0.20403,0.25081 -0.39813,0.4911 -0.5823,0.72146 -0.18356,0.22977 -0.34788,0.43089 -0.4923,0.60278 -0.16602,-0.10761 -0.24964,-0.16136 -0.41628,-0.26953 0.35431,-0.4683 0.62328,-0.86236 0.80802,-1.18042 0.18593,-0.31864 0.28648,-0.59751 0.30459,-0.8349 0.0175,-0.23736 -0.0433,-0.45193 -0.18007,-0.6437 -0.13738,-0.19118 -0.34962,-0.40166 -0.63553,-0.6326 -3.03669,-2.44563 -4.55563,-3.66933 -7.59294,-6.11611 -0.18066,-0.14499 -0.3467,-0.24613 -0.49811,-0.30402 -0.15145,-0.0585 -0.31984,-0.0532 -0.50401,0.0141 -0.18413,0.0678 -0.39695,0.21165 -0.63842,0.43148 -0.24146,0.21924 -0.53904,0.52795 -0.89571,0.92317 -0.14966,-0.14615 -0.2245,-0.21866 -0.37477,-0.36482 z"
     stroke-miterlimit="10"
     id="path123"
     inkscape:connector-curvature="0"
     style="fill:none;stroke:#ffd02d;stroke-width:1.75397456;stroke-miterlimit:10"
     inkscape:export-filename="C:\Users\suitedoalex\sites\al-nassr-fc-logo-4.png"
     inkscape:export-xdpi="84.879532"
     inkscape:export-ydpi="84.879532" />
  <path
     d="m 310.07012,202.5848 c -1.50841,1.28625 -2.88295,1.85336 -4.08093,1.69551 -1.34471,-0.1754 -2.74203,-1.01731 -4.15751,-2.49065 l 6.89373,-5.85827 c 0.17539,-0.15201 0.34495,-0.28648 0.50805,-0.40341 0.11751,0.0935 0.28122,0.24555 0.5034,0.47357 1.19798,1.25117 1.85861,2.47895 1.96444,3.64826 0.0293,0.35665 0.12277,1.44411 -1.63118,2.93499 m 6.89312,-3.25069 c -0.28065,-1.15763 -0.76647,-2.29772 -1.44469,-3.38518 -0.62499,-1.01146 -1.33247,-1.9703 -2.10419,-2.84729 -0.54958,-0.62557 -1.13425,-1.21024 -1.74288,-1.73643 -0.49111,-0.4268 -0.95297,-0.88868 -1.37336,-1.3681 -0.2748,-0.31571 -0.56126,-0.64897 -0.8536,-0.99977 -0.31043,-0.36833 -0.61974,-0.72497 -0.92375,-1.06992 -0.28708,-0.32741 -0.55015,-0.63143 -0.7893,-0.92376 -0.25726,-0.30402 -0.48526,-0.57297 -0.67818,-0.79514 l -1.0822,-1.23363 -2.62456,3.03438 0.83024,0.93545 c 0.52033,0.64898 0.81266,0.98808 0.94129,1.2044 0.0293,0.0526 0.0585,0.0994 0.0754,0.14031 -0.0754,0.0819 -0.18062,0.19879 -0.33851,0.34496 l -13.42375,11.68147 c -0.52619,0.47942 -0.85417,0.71913 -1.03484,0.83606 -0.0526,0.0351 -0.0941,0.0526 -0.11753,0.0585 -0.0285,-0.0117 -0.0871,-0.0351 -0.16951,-0.0935 -0.18654,-0.11694 -0.51977,-0.37418 -1.04014,-0.88283 l -1.21608,-1.18686 -1.37454,1.17516 1.08221,1.22778 c 0.16956,0.19878 0.3853,0.43265 0.63728,0.70744 0.23972,0.25725 0.47882,0.5262 0.73082,0.81267 0.28005,0.32156 0.56713,0.63729 0.8536,0.95299 0.26894,0.29233 0.51452,0.56712 0.73084,0.81852 0.56126,0.63729 1.14006,1.3155 1.73641,2.01708 0.60807,0.72498 1.2044,1.41487 1.77739,2.07554 l 1.25115,1.44411 1.64291,-1.11671 -1.15179,-1.37394 c -0.59052,-0.69574 -0.86527,-1.11085 -0.98809,-1.33303 -0.041,-0.076 -0.0707,-0.13447 -0.0941,-0.18123 0.0882,-0.0994 0.21107,-0.22803 0.37477,-0.38004 l 4.64802,-3.73596 0.22803,0.25725 c 0.25665,0.29232 0.35663,0.45018 0.3917,0.50864 -0.0293,0.0994 -0.0591,0.19878 -0.0818,0.29817 -0.40341,1.30965 -0.8127,2.5842 -1.21607,3.78859 -0.40929,1.23949 -0.79517,2.37956 -1.15236,3.4144 -0.35024,1.03486 -0.3327,1.25703 -0.61332,2.02292 -0.26897,0.75422 -0.21107,0.6139 -0.36309,0.99392 l 0.49754,0.6022 0.83606,0.83022 c 0.16371,0.16371 0.33913,0.33909 0.51976,0.53788 0.19296,0.20465 0.3631,0.39172 0.52094,0.57297 0.52561,0.59637 1.06348,1.22778 1.61951,1.88846 0.57298,0.6776 1.03483,1.22192 1.39732,1.63703 l 1.08163,1.23305 2.06968,-1.51952 -0.99976,-1.35642 c -0.33909,-0.46189 -0.60221,-0.85361 -0.78344,-1.14593 -0.11695,-0.19877 -0.19878,-0.38003 -0.23972,-0.53789 -0.0293,-0.11693 -0.0358,-0.2631 -0.0232,-0.43264 0.0346,-0.31571 0.1052,-0.73668 0.19879,-1.2161 0.0877,-0.39172 0.23385,-0.94129 0.42621,-1.62535 0.19934,-0.69574 0.10577,-0.81852 0.39812,-1.72474 0.29234,-0.91791 0.625,-1.92937 0.98809,-3.02268 0.18125,-0.54958 0.37417,-1.11085 0.57295,-1.67798 0.28008,0.0877 0.56655,0.16957 0.85364,0.23387 0.91203,0.20464 1.83521,0.26895 2.74142,0.19878 0.93023,-0.0701 1.8423,-0.29232 2.71925,-0.67235 0.88225,-0.38004 1.71249,-0.92375 2.45557,-1.61366 1.15704,-1.07576 1.90602,-2.28017 2.21584,-3.56641 0.29234,-1.22777 0.29234,-2.47896 -0.006,-3.73012"
     id="path125"
     inkscape:connector-curvature="0"
     style="fill:#ffd02d;stroke-width:0.58465821"
     inkscape:export-filename="C:\Users\suitedoalex\sites\al-nassr-fc-logo-4.png"
     inkscape:export-xdpi="84.879532"
     inkscape:export-ydpi="84.879532" />
  <path
     d="m 182.26377,185.54208 c 0,0 -10.15551,6.52478 -18.2121,13.85054 l -1.22194,-1.53765 2.31526,-1.85921 v -3.08114 l -11.04421,-14.33583 -2.4848,1.69551 -0.60219,-1.29209 9.85733,-7.26731 0.49697,1.59027 -1.69551,1.69552 12.04396,16.4172 5.92258,-4.47849 c 0,0 0.99977,-1.82413 0.45019,-5.44316 -0.0585,-0.39172 0.43265,-0.60805 0.67821,-0.30403 z"
     id="path127"
     inkscape:connector-curvature="0"
     style="fill:#ffd02d;stroke-width:0.58465821"
     inkscape:export-filename="C:\Users\suitedoalex\sites\al-nassr-fc-logo-4.png"
     inkscape:export-xdpi="84.879532"
     inkscape:export-ydpi="84.879532" />
  <path
     d="m 144.12453,207.52838 -4.32881,-7.38892 8.1741,2.36027 z m 18.70497,-9.67317 -3.25654,2.61927 -22.19364,-7.56022 -2.78297,3.4793 11.95626,20.31688 -1.38563,1.97556 1.19854,2.20415 6.34354,-7.57657 -1.1927,-1.15763 -2.42633,2.42575 c 0,0 -1.49673,-0.1871 -2.76544,-2.50234 -1.2687,-2.3094 -0.11108,-3.61904 -0.11108,-3.61904 0,0 3.20978,-3.80612 3.80613,-4.62405 0.59635,-0.82496 3.20977,-1.5324 4.96375,0.51975 1.75397,2.05215 -0.18709,3.61904 -0.18709,3.61904 l 1.04654,0.78344 c 1.72474,-2.97007 4.77665,-6.24415 8.20859,-9.36037 v -0.006 z"
     id="path129"
     inkscape:connector-curvature="0"
     style="fill:#ffd02d;stroke-width:0.58465821"
     inkscape:export-filename="C:\Users\suitedoalex\sites\al-nassr-fc-logo-4.png"
     inkscape:export-xdpi="84.879532"
     inkscape:export-ydpi="84.879532" />
  <path
     d="m 228.54567,166.51495 2.74147,-6.01612 c 0.23853,-0.52329 0.99273,-0.48879 1.18275,0.0532 l 2.11119,6.01263 z m 13.5553,8.63307 -4.40658,-22.34097 -4.24345,0.0813 -11.17572,20.47006 -2.29655,0.18825 -0.95768,2.20476 9.40891,0.0274 0.17363,-1.56747 -3.24369,-0.29583 c 0,0 -0.73433,-1.20089 0.26605,-3.52432 0.99566,-2.31935 2.65727,-2.26965 2.65727,-2.26965 0,0 4.73981,0.0305 5.70451,-0.0316 0.96818,-0.0648 2.58069,1.78848 3.0104,4.32121 0.59985,3.5331 -3.38342,3.03556 -3.38342,3.03556 l 0.0532,1.44468 c 3.24251,-0.54314 7.50993,0.25199 11.86036,0.8612 l 0.005,-0.003 0.4426,-1.81829 z"
     id="path131"
     inkscape:connector-curvature="0"
     style="fill:#ffd02d;stroke-width:0.58465821"
     inkscape:export-filename="C:\Users\suitedoalex\sites\al-nassr-fc-logo-4.png"
     inkscape:export-xdpi="84.879532"
     inkscape:export-ydpi="84.879532" />
  <path
     d="m 201.42104,178.08394 c 0,0 -5.37358,1.6423 -5.62265,-4.27911 l -1.19446,-10.44902 15.82317,12.83735 h 3.88097 l -3.53251,-21.64464 h 3.53251 l -0.24846,-2.98585 -10.29995,1.49264 0.49754,2.28893 3.58279,-0.0497 2.6871,12.63855 -14.9772,-12.2404 -9.20543,1.6423 v 1.64172 l 3.73186,0.44785 4.27911,18.8681 -2.98525,0.58757 0.44785,2.68709 10.24962,-1.49321 z"
     id="path133"
     inkscape:connector-curvature="0"
     style="fill:#ffd02d;stroke-width:0.58465821"
     inkscape:export-filename="C:\Users\suitedoalex\sites\al-nassr-fc-logo-4.png"
     inkscape:export-xdpi="84.879532"
     inkscape:export-ydpi="84.879532" />
  <path
     d="m 269.44033,170.43375 3.84357,-6.56806 -3.46998,-1.04478 c 0,0 -5.67231,-6.7259 -14.4802,-2.05274 -8.80671,4.67317 7.48889,14.62873 7.14041,15.87289 0,0 1.46516,3.53485 -1.87208,4.77022 -2.48361,0.91968 -5.31687,0.0473 -6.93288,-2.05038 -1.27451,-1.65576 -2.41288,-4.39372 -2.39005,-8.88681 l -1.39325,-0.25199 c 0,0 -3.63247,6.0705 0.34788,9.40422 l 6.1699,3.93125 c 0,0 4.52817,2.7859 9.35453,-1.74171 2.07143,-1.94281 2.58476,-3.95929 2.49647,-5.62791 -0.10058,-1.88786 -1.10032,-3.6085 -2.58884,-4.77316 -2.28311,-1.78671 -6.68734,-5.76998 -5.38063,-9.05459 1.74112,-4.37851 8.20979,0.98456 8.20979,0.98456 z"
     id="path135"
     inkscape:connector-curvature="0"
     style="fill:#ffd02d;stroke-width:0.58465821"
     inkscape:export-filename="C:\Users\suitedoalex\sites\al-nassr-fc-logo-4.png"
     inkscape:export-xdpi="84.879532"
     inkscape:export-ydpi="84.879532" />
  <path
     d="m 291.80523,184.32505 4.71524,-5.97287 -3.29219,-1.51544 c 0,0 -4.68781,-7.44562 -14.05635,-4.03588 -9.36973,3.40972 5.39231,15.52442 4.87487,16.70835 0,0 0.96237,3.70322 -2.51404,4.46504 -2.58651,0.56712 -5.27186,-0.68814 -6.5815,-2.98994 -1.03423,-1.81595 -1.78202,-4.68487 -1.13832,-9.13178 l -1.34528,-0.442 c 0,0 -4.43756,5.50923 -0.95651,9.36155 l 5.56769,4.74683 c 0,0 4.09848,3.38576 9.50478,-0.4303 2.31994,-1.63821 3.10807,-3.56408 3.25074,-5.22918 0.16191,-1.8826 -0.59054,-3.72546 -1.9031,-5.08478 -2.01413,-2.08548 -5.82433,-6.63996 -4.07682,-9.71176 2.33105,-4.09611 7.99524,2.11121 7.99524,2.11121 z"
     id="path137"
     inkscape:connector-curvature="0"
     style="fill:#ffd02d;stroke-width:0.58465821"
     inkscape:export-filename="C:\Users\suitedoalex\sites\al-nassr-fc-logo-4.png"
     inkscape:export-xdpi="84.879532"
     inkscape:export-ydpi="84.879532" />
  <path
     d="m 245.50761,177.56097 c 1.14356,0.0848 2.27195,-0.005 3.39509,-0.23446 1.10443,-0.22684 0.63671,-1.91768 -0.46653,-1.69141 -0.97055,0.19879 -1.9411,0.24497 -2.92856,0.17188 -1.12665,-0.0836 -1.12079,1.67096 0,1.75399"
     id="path139"
     inkscape:connector-curvature="0"
     style="fill:#ffd02d;stroke-width:0.58465821"
     inkscape:export-filename="C:\Users\suitedoalex\sites\al-nassr-fc-logo-4.png"
     inkscape:export-xdpi="84.879532"
     inkscape:export-ydpi="84.879532" />
</svg>
