<?xml version="1.0" encoding="UTF-8"?>
<svg xmlns="http://www.w3.org/2000/svg" xmlns:xlink="http://www.w3.org/1999/xlink" version="1.1" viewBox="0 0 800 800">
  <defs>
    <style>
      .cls-1 {
        filter: url(#outer-glow-1);
      }

      .cls-1, .cls-2 {
        fill: #005a65;
      }

      .cls-2 {
        filter: url(#outer-glow-2);
      }
    </style>
    <filter id="outer-glow-1" filterUnits="userSpaceOnUse">
      <feOffset dx="0" dy="0"/>
      <feGaussianBlur result="blur" stdDeviation="5.4"/>
      <feFlood flood-color="#e0c600" flood-opacity="1"/>
      <feComposite in2="blur" operator="in"/>
      <feComposite in="SourceGraphic"/>
    </filter>
    <filter id="outer-glow-2" filterUnits="userSpaceOnUse">
      <feOffset dx="0" dy="0"/>
      <feGaussianBlur result="blur-2" stdDeviation="5.4"/>
      <feFlood flood-color="#e0c600" flood-opacity="1"/>
      <feComposite in2="blur-2" operator="in"/>
      <feComposite in="SourceGraphic"/>
    </filter>
  </defs>
  <!-- Generator: Adobe Illustrator 28.6.0, SVG Export Plug-In . SVG Version: 1.2.0 Build 709)  -->
  <g>
    <g id="Layer_1">
      <g>
        <path class="cls-1" d="M521.4,318.8c4.2,1.7,8.4,3.1,12.3,5.1,6.9,3.5,11.9,9,14.3,16.4,1.1,3.3,1.6,7,1.6,10.5.1,30,.2,60,0,90-.2,20.7-10.9,34.6-29,43.4-7.8,3.8-16.1,5.5-24.8,5.5-5,0-9.9,0-14.9,0-2.9,0-3.4-.5-3.5-3.4,0-1.1,0-2.2,0-3.2,0-38.6,0-77.3,0-115.9,0-3.7-.4-7.6-1.4-11.2-2.2-7.8-7.6-13.1-14.5-17.1-4-2.3-8.3-3.5-12.8-4.3-1.1-.2-2.1-.2-3.2-.2-1.6,0-2.4.8-2.4,2.4,0,1.8-.1,3.7-.1,5.5,0,30.8,0,61.5,0,92.3,0,8.4-1.8,16.3-5.7,23.7-5.3,10.1-13.1,17.6-23,23-9.9,5.5-20.6,8.4-31.9,8.4-20,0-39.9.4-59.9-.2-16.4-.5-30.9-6.7-42.7-18.3-10.3-10.1-15.6-22.4-15.6-36.8,0-1,0-1.9,0-2.9,0-107.3,0-214.6,0-321.9,0-1.3,0-2.6,0-3.9.1-2.3.4-2.6,2.7-2.8.9,0,1.7,0,2.6,0,91.7,0,183.5,0,275.2,0q5.2,0,5.2,5.1c0,58.7,0,117.4,0,176.2,0,4-.4,8.1-1.5,11.8-2.6,8.8-8.6,14.8-16.8,18.7-3.2,1.5-6.5,2.7-10,4.1ZM370.6,296.6c0-47.6,0-95.2,0-142.8,0-2.4,0-4.7,0-7.1,0-3.4-1.4-6.3-3.6-8.8-4.6-4.9-10.3-6.8-16.8-5.6-9,1.6-14.4,8.3-14.1,16.3,0,1.1,0,2.2,0,3.2,0,96.5,0,193,0,289.4,0,1.5,0,3,0,4.5.3,4.4,2.2,8.1,5.8,10.8,5.9,4.5,12.5,5.2,19.3,2.3,6.1-2.6,9.6-7.2,9.5-14.1,0-1.7,0-3.5,0-5.2,0-47.7,0-95.4,0-143.1ZM442.8,217.7c0,25.4,0,50.7,0,76.1,0,1.8,0,3.7,0,5.5.1,3.6.6,4.1,4.3,3.8,4.8-.4,9.4-1.7,13.6-4,7-3.8,12.3-9.1,15-16.7,1.3-3.6,1.6-7.4,1.6-11.1,0-35.5,0-71,0-106.5,0-2.4,0-4.8-.6-7.1-.8-3.1-1.8-6.3-3.3-9-4.1-7.3-10.6-11.8-18.4-14.4-3.1-1-6.2-2-9.5-1.8-2.1.2-2.5.5-2.7,2.5-.2,1.8-.1,3.7-.1,5.5,0,25.8,0,51.6,0,77.4ZM543.1,79.2c1,0,1.9,0,2.9,0,3.1,0,3.5-.5,3.7-3.6,0-1,0-1.9,0-2.9-.2-17.2-.4-34.3-.5-51.5,0-5,0-5-5-5-20.6,0-41.2,0-61.8,0-.6,0-1.3,0-1.9,0-2.4.1-2.8.5-3,2.9,0,1,0,1.9,0,2.9,0,5.5,0,11,0,16.5,0,3.5-.5,4-3.9,4.1-8.8,0-17.7,0-26.5,0-3.6,0-4.1-.5-4.1-4.2,0-5.8,0-11.7,0-17.5,0-4.6,0-4.6-4.7-4.6-20.9,0-41.9,0-62.8,0-.5,0-1.1,0-1.6,0-2.2.1-2.5.4-2.7,2.7,0,1,0,1.9,0,2.9,0,5.4,0,10.8,0,16.2,0,3.9-.6,4.5-4.2,4.5-9,0-17.9,0-26.9,0-3.3,0-3.7-.5-3.8-3.8,0-5.8,0-11.7,0-17.5,0-1,0-1.9,0-2.9,0-1.3-.7-2-2-2.1-.6,0-1.3,0-1.9,0-21.3,0-42.5,0-63.8,0-3.9,0-4,.1-4.1,4,0,.6,0,1.3,0,1.9,0,17.1,0,34.1,0,51.2q0,5.9,5.9,5.9c45.7,0,91.3,0,137,0,45.4,0,90.9,0,136.3,0ZM478.1,743.8c-1.9-1.9-3.8-3.8-5.6-5.8-2.3-2.7-4.5-5.5-6.5-8.4-3.2-4.7-4.2-10-3.9-15.7.1-1.9.8-3.1,2.5-3.6,4.6-1.5,9.2-3.2,13.9-4.3,16.6-4,32.7-2.2,48.6,3.9,2.8,1.1,3.6,2.7,3.7,5.6.2,7.9-3.4,14.1-8.1,19.9-2,2.4-4.2,4.6-6.4,6.9-.6.6-1.1,1.2-1.9,2.2.9.2,1.4.5,2,.5,10.6,0,21.1.2,31.7.2,3.1,0,3.5-.5,3.5-3.7,0-4.7,0-9.5,0-14.2,0-12.9,0-25.9,0-38.8,0-.9,0-1.7,0-2.6,0-3.7.3-4,4.1-4,3,0,6,0,9.1,0,2.4,0,2.8.5,2.9,2.9,0,.6,0,1.3,0,1.9,0,21.8,0,43.6,0,65.4,0,5.2,0,5.2-5.2,5.2-14.7,0-29.3,0-44,0-6.7,0-13.3-.5-19.8-2.5-1.5-.5-3.5-.4-5,0-6.1,1.8-12.3,2.4-18.5,2.4-14.3,0-28.7,0-43.1,0-1.7,0-3.5,0-5.2.1-2.6.2-2.7.6-3.2,3.1-.7,3.3-1.2,6.6-2.5,9.6-3,6.8-8.6,10.9-15.8,12.8-4.1,1.1-8.3,1.3-12.5.9-2.5-.2-3.1-.8-3.1-3.2,0-2.2.3-4.3.4-6.5.1-1.6.9-2.3,2.5-2.3,1.4,0,2.8,0,4.2,0,4.9-.2,8.5-2.8,9.7-7.6.7-2.7,1-5.5,1-8.3,0-15.8,0-31.5,0-47.3,0-4.9,0-4.9,4.8-4.9,2.2,0,4.3,0,6.5,0,4.6,0,4.8.3,4.8,4.7,0,9.5,0,19,0,28.5,0,1.6,0,3.2,0,4.9.2,2.7.6,3.2,3.3,3.4.9,0,1.7,0,2.6,0,13.5,0,27,0,40.5,0,2.5,0,5.1-.2,7.6-.3,0-.3.2-.6.3-.9ZM497.9,715.3c-3.9.5-7.2.8-10.5,1.3-2,.3-4.1.7-6,1.3-2.2.7-2.7,1.7-2.1,4,.1.6.4,1.2.6,1.8,3.1,6.8,8.1,11.9,14.4,15.8,1.6,1,3.1,1,4.5,0,1.8-1.3,3.8-2.5,5.4-4,4-3.7,7.6-7.7,9.3-13,1-3,.5-4-2.5-4.7-4.5-1-9.1-1.7-13.2-2.4ZM451.3,624.3c1.6,1.7,2.6,2.9,3.7,4,2.3,2.1,4.6,4.2,6.9,6.3,1.2,1.1,1.8,2.4,1.7,4,0,3.8.1,7.6,0,11.3-.4,7.9-4.4,12.3-12.2,13.5-3.3.5-6.6.8-10,.9-8.5.1-17,0-25.6,0-3.5,0-3.9-.3-3.9-3.9,0-14.7,0-29.3,0-44,0-17.8,0-35.6,0-53.4,0-5.3,0-5.2,5.2-5.2,8.8,0,17.7,0,26.5.1,1.3,0,2.6.2,3.8.5,9.8,2.4,13.9,7,14.5,17.1.3,4.7.1,9.5.1,14.2,0,8.4,0,16.8,0,25.2,0,4.7,0,4.7-4.5,6.5-1.9.8-3.7,1.7-6.3,2.8ZM428.9,620.1c2-.6,3.5-.9,4.8-1.4,3.1-1.2,6.1-2.7,9.2-3.8,2.1-.8,3-2.1,3-4.4,0-11,0-22,0-33,0-4-2.2-6.6-6.2-7-3-.3-6,0-9,0-1.4,0-2.2.8-2.2,2.3,0,.6,0,1.3,0,1.9,0,13.7,0,27.4,0,41.1,0,1.3.2,2.5.4,4.4ZM428.5,642.2s0,0,0,0c0,2.3,0,4.5,0,6.8,0,1.4.7,2.3,2.1,2.3,3.9,0,7.7.2,11.6-.2,3.1-.3,5-2.4,5.4-5.5.6-4.4.5-8.7-4.1-11.3-.2-.1-.3-.3-.5-.4-5.4-4.5-4-5-12.2-1.5,0,0-.2.1-.3.1-1.5.6-2.2,1.6-2.2,3.2,0,2.1,0,4.3,0,6.4ZM194.7,610.8c0-11.7,0-23.3,0-35,0-2.9.3-5.9,1.3-8.6,2.1-6.2,7.4-8.9,13.3-9.2,8.6-.5,17.3-.6,25.9,0,8.5.6,13.1,5.9,14,14.3.3,2.7.5,5.4.5,8.1,0,20.5,0,41,0,61.5,0,2.6-.2,5.2-.5,7.7-.9,7.8-5.2,12.4-12.9,13.6-9.7,1.5-19.4,1.5-29,0-7.4-1.2-12-6.5-12.5-14-.1-1.9-.1-3.9-.1-5.8,0-10.9,0-21.8,0-32.7h0ZM233.3,610.8h0c0-11.3,0-22.6,0-34,0-3.8-1.4-5.8-4.8-6.2-4.3-.4-8.6-.4-12.9-.1-3.1.2-4.5,2.1-4.8,5.1-.2,1.5-.2,3-.2,4.5,0,20.4,0,40.7,0,61.1,0,1.7,0,3.5.3,5.2.3,2.7,1.6,4.4,4.2,4.6,4.7.3,9.5.3,14.2,0,2.6-.2,3.8-2,4-4.7,0-1.2,0-2.4,0-3.6,0-10.7,0-21.3,0-32ZM392.5,611.1c0,11,0,22,0,33,0,2,0,4.1-.2,6.1-.7,6.7-5.1,11.6-11.7,12.9-.7.2-1.5.3-2.2.4-9.3,1-18.5,1.3-27.7-.3-7.3-1.2-11.7-5.9-12.6-13.2-.3-2.8-.5-5.6-.5-8.4,0-20.7,0-41.4,0-62.2,0-2.2.2-4.3.4-6.5.7-9.9,6.4-14.4,14.8-15,8.1-.7,16.4-.4,24.6-.1,2.6,0,5.3,1.1,7.7,2.3,4.8,2.3,6.9,6.6,7.4,11.8.2,1.9.2,3.9.2,5.8,0,11.1,0,22.2,0,33.3ZM353.9,610.8c0,7.7,0,15.3,0,23,0,4,0,8,0,12,0,3.1,1.4,5.1,4.2,5.3,4.7.4,9.5.3,14.2,0,2.6-.2,3.8-2,4.1-4.7.2-1.7.2-3.4.2-5.2,0-20.3,0-40.5,0-60.8,0-1.5,0-3-.2-4.5-.3-3.2-1.9-5.2-5-5.4-4.2-.3-8.4-.3-12.6,0-3.3.3-4.8,2.4-5,5.7,0,1.2,0,2.4,0,3.6,0,10.3,0,20.7,0,31ZM516.4,626.4c-1.5.4-2.4.6-3.2.9-4.3,1.7-8.6,3.6-12.9,5.3-1.9.7-2.7,2-2.8,3.9,0,1.3-.1,2.6-.1,3.9,0,6.7,0,13.4,0,20.1,0,3.5-.4,3.8-3.9,3.9-2.8,0-5.6,0-8.4,0-3.1,0-3.4-.4-3.5-3.6,0-.5,0-1.1,0-1.6,0-27,0-53.9,0-80.9,0-2.9.2-5.8.8-8.7,1.1-5.3,4.5-8.6,9.6-10.4,3.2-1.1,6.5-1.5,9.9-1.5,4.2,0,8.4-.1,12.6.1,2.6.1,5.2.5,7.6,1.2,6.7,1.9,10.2,6.3,10.8,13.4.1,1.7.1,3.4.1,5.2,0,27.3,0,54.6,0,81.9,0,.6,0,1.3,0,1.9-.1,2.5-.6,3-3.1,3-3.2,0-6.5,0-9.7,0-2.6,0-3-.5-3.1-3,0-.9,0-1.7,0-2.6,0-9,0-17.9,0-26.9,0-1.7-.3-3.3-.4-5.4ZM498.3,620.4c2.1-.7,3.6-1,5-1.6,3.5-1.4,6.9-3,10.5-4.3,2.4-.9,3.2-2.4,3.2-4.9,0-11.4,0-22.9,0-34.3,0-3.9-1-4.9-5-5-3,0-6,0-9.1,0-4,.1-5.3,1.3-5.3,5.3,0,13.2,0,26.3,0,39.5,0,1.7.5,3.3.8,5.4ZM269.2,611c0-16.2,0-32.4,0-48.6,0-4.7.1-4.8,4.9-4.8,8.6,0,17.3,0,25.9,0,3,0,6.1.3,8.9,1.1,6.5,1.9,10.2,6.6,10.8,13.4.1,1.6.1,3.2.1,4.9,0,13.1,0,26.1,0,39.2,0,3.1-.9,4.9-3.8,5.8-1.7.5-3.4,1.4-5,2.2-1.3.6-1.7,1.6-1.4,2.9.3,1.1.6,2.3,1,3.4,3.2,9.8,6.4,19.7,9.6,29.5,1.3,3.9,1,4.2-3.2,4.2-2.2,0-4.3,0-6.5,0-4.2,0-4.3,0-5.6-3.9-2.6-7.8-5.1-15.6-7.6-23.4-2-6.3-2.2-6.4-8.2-3.9-4.1,1.7-4.3,1.9-4.3,6.5,0,6.7,0,13.4,0,20.1,0,.9,0,1.7,0,2.6,0,1.3-.8,2-2.1,2-3.9,0-7.8,0-11.6,0-1.3,0-2-.8-2-2.1,0-1.1,0-2.2,0-3.2,0-16,0-31.9,0-47.9ZM285.8,619c.8,0,1.4.1,1.9,0,4.6-1.8,9.2-3.6,13.8-5.4,2-.8,2.3-2.4,2.3-4.2,0-10.6,0-21.1,0-31.7,0-3.9-1.9-6.4-5.8-7-3.5-.5-7.1-.2-10.6-.2-1.2,0-1.9.8-2,2.1,0,.6-.1,1.3-.1,1.9,0,13.8,0,27.6,0,41.3,0,1,.3,2.1.5,3.2ZM568.7,610.7c0-15.8,0-31.5,0-47.3,0-1.1,0-2.2,0-3.2-.2-1.9-.7-2.4-2.7-2.5-2.6-.1-5.2-.1-7.8-.2-5.8-.1-5.8,0-5.8,5.6,0,31.7,0,63.4,0,95.2,0,.8,0,1.5,0,2.3.1,3.2.5,3.6,3.6,3.6,2.5,0,5,0,7.4,0q5.3,0,5.3-5.1c0-7.1.1-14.2,0-21.4,0-2.7,1-4.4,3.6-5.3,4.1-1.5,8.2-3.4,12.2-5.1,1.1-.4,2.2-.7,3.7-1.1.3,1.2.7,2.1.8,3,.1,1.4.1,2.8.1,4.2,0,9.1,0,18.1,0,27.2,0,3.2.4,3.6,3.5,3.6,3.1,0,6.3,0,9.4,0,2.6,0,3-.6,3.2-3,0-.6,0-1.3,0-1.9,0-32.3,0-64.5,0-96.8,0-.9,0-1.7,0-2.6,0-1.2-.7-2.1-2-2.1-3.9,0-7.8-.2-11.6-.2-1.6,0-2.4.9-2.4,2.5,0,1,0,1.9,0,2.9,0,11.9,0,23.7,0,35.6,0,3.8,0,7.6,0,11.3,0,2.1-.9,3.4-2.9,4.2-3.8,1.6-7.5,3.3-11.3,4.9-1.6.7-3.4,1.1-5.8,1.9-.2-3.9-.5-7-.5-10.1ZM262.5,757c-12.1,0-24.2.1-36.3,0-4.4,0-8.9-.4-13.2-1.4-9.3-2.1-15.1-7.8-16.9-17.4-.8-4.5-.8-9-.3-13.5.2-1.8.6-3.6,1.1-5.4,1.6-7.1,6.1-11.8,12.7-14.4,4-1.6,8.2-2.6,12.6-2.6,9.3,0,18.6,0,27.8,0,3.4,0,3.7.3,3.7,3.7,0,10.7,0,21.4,0,32q0,7,6.9,7.1c9.5,0,19,0,28.5,0,4.5,0,4.8-.3,4.8-4.8,0-10.9,0-21.8,0-32.7,0-1,0-1.9,0-2.9,0-1.6.8-2.4,2.4-2.4,3.8,0,7.6,0,11.3,0,1.6,0,2.3.9,2.3,2.4,0,.6,0,1.3,0,1.9,0,15.2,0,30.4,0,45.6,0,4.6-.1,4.8-4.7,4.8-14.4,0-28.7,0-43.1,0ZM237.7,729.7h0c0-.5,0-1.1,0-1.6,0-3.7,0-7.3,0-11,0-1.4-.4-2.6-2.1-2.8-5.8-.5-11.6-.7-17.3.9-2.5.7-4.4,2.4-5.1,5-1.7,5.8-2,11.6-.6,17.6.9,3.9,3.3,6.3,7.3,6.7,4.7.4,9.5.5,14.2.5,3.1,0,3.6-.5,3.7-3.6,0-3.9,0-7.8,0-11.6ZM383.4,733.2c0,8.5,0,17,0,25.6.1,10.8-4.6,17.8-15.2,22-7.3,2.9-14.9,3.3-22.6,2.8-4.2-.3-8.4-.9-12.5-1.5-2.8-.4-3.1-1-2.5-3.7.4-1.9.9-3.8,1.3-5.7.3-1.4,1.1-2,2.5-2,1.2,0,2.4.2,3.6.2,5.4.2,10.8.5,16.1.5,2.1,0,4.3-.6,6.3-1.3,4.4-1.6,6.9-5.6,6.7-10-.1-2.2-.5-2.7-2.6-2.9-1.7-.2-3.4-.2-5.2-.2-4.1-.2-8.2-.3-12.3-.5-3.8-.2-7.4-1.4-10.8-3.2-5.1-2.7-8.5-7-10-12.6-2.1-7.7-1.7-15.4.5-23,2.1-6.9,6.9-11.3,13.8-13.5,4-1.3,8.1-2.1,12.4-2.1,8.8,0,17.7,0,26.5,0,3.7,0,4,.3,4,4.1,0,9,0,17.9,0,26.9ZM367.5,730s0,0,.1,0c0-3.1,0-6.2,0-9.4,0-1.4,0-2.8-.5-4.1-.2-.8-1.1-1.8-1.8-1.9-5.9-.8-11.8-1-17.6.6-2.9.8-4.8,2.9-5.5,5.9-1.2,5.6-1.5,11.3-.2,17,.7,3.3,2.7,5.4,6,6.1,1.9.4,3.8.7,5.7.8,3.2,0,6.5,0,9.7,0,3.4-.1,3.9-.5,4.1-3.9.2-3.7,0-7.3,0-11ZM604.2,695.3c0-3.6,0-7.1,0-10.7,0-2.6-.5-3-3.1-3-3,0-6,0-9.1,0-3.4,0-3.7.3-3.8,3.7,0,.5,0,1.1,0,1.6,0,21.5,0,42.9,0,64.4,0,.9,0,1.7,0,2.6.2,2.5.6,3,3.1,3.1,2.9,0,5.8,0,8.7,0,3.8,0,4-.3,4.1-4,0-.5,0-1.1,0-1.6,0-10.7,0-21.4,0-32,0-8,0-16,0-24ZM226.8,691.7c5.3,0,10.5,0,15.8,0,2.9,0,3.3-.5,3.4-3.4,0-1.5,0-3,0-4.5,0-3.4-.3-3.7-3.7-3.7-8.9,0-17.9,0-26.8,0-1.7,0-3.4,0-5.2,0-1.6,0-2.4.8-2.4,2.4,0,1.6,0,3.2,0,4.8,0,4.2.2,4.4,4.3,4.4,4.8,0,9.7,0,14.5,0,0,0,0,0,0,0ZM302.3,779.8c1.8,0,3.7,0,5.5,0,1.6,0,2.4-.8,2.4-2.4,0-2.3,0-4.5,0-6.8,0-1.5-.7-2.4-2.3-2.4-3.8,0-7.5,0-11.3,0-1.6,0-2.4.8-2.4,2.4,0,2.3,0,4.5,0,6.8,0,1.9.6,2.3,2.7,2.5,1.8,0,3.7,0,5.5,0,0,0,0,0,0,0Z"/>
        <path class="cls-2" d="M521.4,318.8c4.2,1.7,8.4,3.1,12.3,5.1,6.9,3.5,11.9,9,14.3,16.4,1.1,3.3,1.6,7,1.6,10.5.1,30,.2,60,0,90-.2,20.7-10.9,34.6-29,43.4-7.8,3.8-16.1,5.5-24.8,5.5-5,0-9.9,0-14.9,0-2.9,0-3.4-.5-3.5-3.4,0-1.1,0-2.2,0-3.2,0-38.6,0-77.3,0-115.9,0-3.7-.4-7.6-1.4-11.2-2.2-7.8-7.6-13.1-14.5-17.1-4-2.3-8.3-3.5-12.8-4.3-1.1-.2-2.1-.2-3.2-.2-1.6,0-2.4.8-2.4,2.4,0,1.8-.1,3.7-.1,5.5,0,30.8,0,61.5,0,92.3,0,8.4-1.8,16.3-5.7,23.7-5.3,10.1-13.1,17.6-23,23-9.9,5.5-20.6,8.4-31.9,8.4-20,0-39.9.4-59.9-.2-16.4-.5-30.9-6.7-42.7-18.3-10.3-10.1-15.6-22.4-15.6-36.8,0-1,0-1.9,0-2.9,0-107.3,0-214.6,0-321.9,0-1.3,0-2.6,0-3.9.1-2.3.4-2.6,2.7-2.8.9,0,1.7,0,2.6,0,91.7,0,183.5,0,275.2,0q5.2,0,5.2,5.1c0,58.7,0,117.4,0,176.2,0,4-.4,8.1-1.5,11.8-2.6,8.8-8.6,14.8-16.8,18.7-3.2,1.5-6.5,2.7-10,4.1ZM370.6,296.6c0-47.6,0-95.2,0-142.8,0-2.4,0-4.7,0-7.1,0-3.4-1.4-6.3-3.6-8.8-4.6-4.9-10.3-6.8-16.8-5.6-9,1.6-14.4,8.3-14.1,16.3,0,1.1,0,2.2,0,3.2,0,96.5,0,193,0,289.4,0,1.5,0,3,0,4.5.3,4.4,2.2,8.1,5.8,10.8,5.9,4.5,12.5,5.2,19.3,2.3,6.1-2.6,9.6-7.2,9.5-14.1,0-1.7,0-3.5,0-5.2,0-47.7,0-95.4,0-143.1ZM442.8,217.7c0,25.4,0,50.7,0,76.1,0,1.8,0,3.7,0,5.5.1,3.6.6,4.1,4.3,3.8,4.8-.4,9.4-1.7,13.6-4,7-3.8,12.3-9.1,15-16.7,1.3-3.6,1.6-7.4,1.6-11.1,0-35.5,0-71,0-106.5,0-2.4,0-4.8-.6-7.1-.8-3.1-1.8-6.3-3.3-9-4.1-7.3-10.6-11.8-18.4-14.4-3.1-1-6.2-2-9.5-1.8-2.1.2-2.5.5-2.7,2.5-.2,1.8-.1,3.7-.1,5.5,0,25.8,0,51.6,0,77.4ZM543.1,79.2c1,0,1.9,0,2.9,0,3.1,0,3.5-.5,3.7-3.6,0-1,0-1.9,0-2.9-.2-17.2-.4-34.3-.5-51.5,0-5,0-5-5-5-20.6,0-41.2,0-61.8,0-.6,0-1.3,0-1.9,0-2.4.1-2.8.5-3,2.9,0,1,0,1.9,0,2.9,0,5.5,0,11,0,16.5,0,3.5-.5,4-3.9,4.1-8.8,0-17.7,0-26.5,0-3.6,0-4.1-.5-4.1-4.2,0-5.8,0-11.7,0-17.5,0-4.6,0-4.6-4.7-4.6-20.9,0-41.9,0-62.8,0-.5,0-1.1,0-1.6,0-2.2.1-2.5.4-2.7,2.7,0,1,0,1.9,0,2.9,0,5.4,0,10.8,0,16.2,0,3.9-.6,4.5-4.2,4.5-9,0-17.9,0-26.9,0-3.3,0-3.7-.5-3.8-3.8,0-5.8,0-11.7,0-17.5,0-1,0-1.9,0-2.9,0-1.3-.7-2-2-2.1-.6,0-1.3,0-1.9,0-21.3,0-42.5,0-63.8,0-3.9,0-4,.1-4.1,4,0,.6,0,1.3,0,1.9,0,17.1,0,34.1,0,51.2q0,5.9,5.9,5.9c45.7,0,91.3,0,137,0,45.4,0,90.9,0,136.3,0ZM478.1,743.8c-1.9-1.9-3.8-3.8-5.6-5.8-2.3-2.7-4.5-5.5-6.5-8.4-3.2-4.7-4.2-10-3.9-15.7.1-1.9.8-3.1,2.5-3.6,4.6-1.5,9.2-3.2,13.9-4.3,16.6-4,32.7-2.2,48.6,3.9,2.8,1.1,3.6,2.7,3.7,5.6.2,7.9-3.4,14.1-8.1,19.9-2,2.4-4.2,4.6-6.4,6.9-.6.6-1.1,1.2-1.9,2.2.9.2,1.4.5,2,.5,10.6,0,21.1.2,31.7.2,3.1,0,3.5-.5,3.5-3.7,0-4.7,0-9.5,0-14.2,0-12.9,0-25.9,0-38.8,0-.9,0-1.7,0-2.6,0-3.7.3-4,4.1-4,3,0,6,0,9.1,0,2.4,0,2.8.5,2.9,2.9,0,.6,0,1.3,0,1.9,0,21.8,0,43.6,0,65.4,0,5.2,0,5.2-5.2,5.2-14.7,0-29.3,0-44,0-6.7,0-13.3-.5-19.8-2.5-1.5-.5-3.5-.4-5,0-6.1,1.8-12.3,2.4-18.5,2.4-14.3,0-28.7,0-43.1,0-1.7,0-3.5,0-5.2.1-2.6.2-2.7.6-3.2,3.1-.7,3.3-1.2,6.6-2.5,9.6-3,6.8-8.6,10.9-15.8,12.8-4.1,1.1-8.3,1.3-12.5.9-2.5-.2-3.1-.8-3.1-3.2,0-2.2.3-4.3.4-6.5.1-1.6.9-2.3,2.5-2.3,1.4,0,2.8,0,4.2,0,4.9-.2,8.5-2.8,9.7-7.6.7-2.7,1-5.5,1-8.3,0-15.8,0-31.5,0-47.3,0-4.9,0-4.9,4.8-4.9,2.2,0,4.3,0,6.5,0,4.6,0,4.8.3,4.8,4.7,0,9.5,0,19,0,28.5,0,1.6,0,3.2,0,4.9.2,2.7.6,3.2,3.3,3.4.9,0,1.7,0,2.6,0,13.5,0,27,0,40.5,0,2.5,0,5.1-.2,7.6-.3,0-.3.2-.6.3-.9ZM497.9,715.3c-3.9.5-7.2.8-10.5,1.3-2,.3-4.1.7-6,1.3-2.2.7-2.7,1.7-2.1,4,.1.6.4,1.2.6,1.8,3.1,6.8,8.1,11.9,14.4,15.8,1.6,1,3.1,1,4.5,0,1.8-1.3,3.8-2.5,5.4-4,4-3.7,7.6-7.7,9.3-13,1-3,.5-4-2.5-4.7-4.5-1-9.1-1.7-13.2-2.4ZM451.3,624.3c1.6,1.7,2.6,2.9,3.7,4,2.3,2.1,4.6,4.2,6.9,6.3,1.2,1.1,1.8,2.4,1.7,4,0,3.8.1,7.6,0,11.3-.4,7.9-4.4,12.3-12.2,13.5-3.3.5-6.6.8-10,.9-8.5.1-17,0-25.6,0-3.5,0-3.9-.3-3.9-3.9,0-14.7,0-29.3,0-44,0-17.8,0-35.6,0-53.4,0-5.3,0-5.2,5.2-5.2,8.8,0,17.7,0,26.5.1,1.3,0,2.6.2,3.8.5,9.8,2.4,13.9,7,14.5,17.1.3,4.7.1,9.5.1,14.2,0,8.4,0,16.8,0,25.2,0,4.7,0,4.7-4.5,6.5-1.9.8-3.7,1.7-6.3,2.8ZM428.9,620.1c2-.6,3.5-.9,4.8-1.4,3.1-1.2,6.1-2.7,9.2-3.8,2.1-.8,3-2.1,3-4.4,0-11,0-22,0-33,0-4-2.2-6.6-6.2-7-3-.3-6,0-9,0-1.4,0-2.2.8-2.2,2.3,0,.6,0,1.3,0,1.9,0,13.7,0,27.4,0,41.1,0,1.3.2,2.5.4,4.4ZM428.5,642.2s0,0,0,0c0,2.3,0,4.5,0,6.8,0,1.4.7,2.3,2.1,2.3,3.9,0,7.7.2,11.6-.2,3.1-.3,5-2.4,5.4-5.5.6-4.4.5-8.7-4.1-11.3-.2-.1-.3-.3-.5-.4-5.4-4.5-4-5-12.2-1.5,0,0-.2.1-.3.1-1.5.6-2.2,1.6-2.2,3.2,0,2.1,0,4.3,0,6.4ZM194.7,610.8c0-11.7,0-23.3,0-35,0-2.9.3-5.9,1.3-8.6,2.1-6.2,7.4-8.9,13.3-9.2,8.6-.5,17.3-.6,25.9,0,8.5.6,13.1,5.9,14,14.3.3,2.7.5,5.4.5,8.1,0,20.5,0,41,0,61.5,0,2.6-.2,5.2-.5,7.7-.9,7.8-5.2,12.4-12.9,13.6-9.7,1.5-19.4,1.5-29,0-7.4-1.2-12-6.5-12.5-14-.1-1.9-.1-3.9-.1-5.8,0-10.9,0-21.8,0-32.7h0ZM233.3,610.8h0c0-11.3,0-22.6,0-34,0-3.8-1.4-5.8-4.8-6.2-4.3-.4-8.6-.4-12.9-.1-3.1.2-4.5,2.1-4.8,5.1-.2,1.5-.2,3-.2,4.5,0,20.4,0,40.7,0,61.1,0,1.7,0,3.5.3,5.2.3,2.7,1.6,4.4,4.2,4.6,4.7.3,9.5.3,14.2,0,2.6-.2,3.8-2,4-4.7,0-1.2,0-2.4,0-3.6,0-10.7,0-21.3,0-32ZM392.5,611.1c0,11,0,22,0,33,0,2,0,4.1-.2,6.1-.7,6.7-5.1,11.6-11.7,12.9-.7.2-1.5.3-2.2.4-9.3,1-18.5,1.3-27.7-.3-7.3-1.2-11.7-5.9-12.6-13.2-.3-2.8-.5-5.6-.5-8.4,0-20.7,0-41.4,0-62.2,0-2.2.2-4.3.4-6.5.7-9.9,6.4-14.4,14.8-15,8.1-.7,16.4-.4,24.6-.1,2.6,0,5.3,1.1,7.7,2.3,4.8,2.3,6.9,6.6,7.4,11.8.2,1.9.2,3.9.2,5.8,0,11.1,0,22.2,0,33.3ZM353.9,610.8c0,7.7,0,15.3,0,23,0,4,0,8,0,12,0,3.1,1.4,5.1,4.2,5.3,4.7.4,9.5.3,14.2,0,2.6-.2,3.8-2,4.1-4.7.2-1.7.2-3.4.2-5.2,0-20.3,0-40.5,0-60.8,0-1.5,0-3-.2-4.5-.3-3.2-1.9-5.2-5-5.4-4.2-.3-8.4-.3-12.6,0-3.3.3-4.8,2.4-5,5.7,0,1.2,0,2.4,0,3.6,0,10.3,0,20.7,0,31ZM516.4,626.4c-1.5.4-2.4.6-3.2.9-4.3,1.7-8.6,3.6-12.9,5.3-1.9.7-2.7,2-2.8,3.9,0,1.3-.1,2.6-.1,3.9,0,6.7,0,13.4,0,20.1,0,3.5-.4,3.8-3.9,3.9-2.8,0-5.6,0-8.4,0-3.1,0-3.4-.4-3.5-3.6,0-.5,0-1.1,0-1.6,0-27,0-53.9,0-80.9,0-2.9.2-5.8.8-8.7,1.1-5.3,4.5-8.6,9.6-10.4,3.2-1.1,6.5-1.5,9.9-1.5,4.2,0,8.4-.1,12.6.1,2.6.1,5.2.5,7.6,1.2,6.7,1.9,10.2,6.3,10.8,13.4.1,1.7.1,3.4.1,5.2,0,27.3,0,54.6,0,81.9,0,.6,0,1.3,0,1.9-.1,2.5-.6,3-3.1,3-3.2,0-6.5,0-9.7,0-2.6,0-3-.5-3.1-3,0-.9,0-1.7,0-2.6,0-9,0-17.9,0-26.9,0-1.7-.3-3.3-.4-5.4ZM498.3,620.4c2.1-.7,3.6-1,5-1.6,3.5-1.4,6.9-3,10.5-4.3,2.4-.9,3.2-2.4,3.2-4.9,0-11.4,0-22.9,0-34.3,0-3.9-1-4.9-5-5-3,0-6,0-9.1,0-4,.1-5.3,1.3-5.3,5.3,0,13.2,0,26.3,0,39.5,0,1.7.5,3.3.8,5.4ZM269.2,611c0-16.2,0-32.4,0-48.6,0-4.7.1-4.8,4.9-4.8,8.6,0,17.3,0,25.9,0,3,0,6.1.3,8.9,1.1,6.5,1.9,10.2,6.6,10.8,13.4.1,1.6.1,3.2.1,4.9,0,13.1,0,26.1,0,39.2,0,3.1-.9,4.9-3.8,5.8-1.7.5-3.4,1.4-5,2.2-1.3.6-1.7,1.6-1.4,2.9.3,1.1.6,2.3,1,3.4,3.2,9.8,6.4,19.7,9.6,29.5,1.3,3.9,1,4.2-3.2,4.2-2.2,0-4.3,0-6.5,0-4.2,0-4.3,0-5.6-3.9-2.6-7.8-5.1-15.6-7.6-23.4-2-6.3-2.2-6.4-8.2-3.9-4.1,1.7-4.3,1.9-4.3,6.5,0,6.7,0,13.4,0,20.1,0,.9,0,1.7,0,2.6,0,1.3-.8,2-2.1,2-3.9,0-7.8,0-11.6,0-1.3,0-2-.8-2-2.1,0-1.1,0-2.2,0-3.2,0-16,0-31.9,0-47.9ZM285.8,619c.8,0,1.4.1,1.9,0,4.6-1.8,9.2-3.6,13.8-5.4,2-.8,2.3-2.4,2.3-4.2,0-10.6,0-21.1,0-31.7,0-3.9-1.9-6.4-5.8-7-3.5-.5-7.1-.2-10.6-.2-1.2,0-1.9.8-2,2.1,0,.6-.1,1.3-.1,1.9,0,13.8,0,27.6,0,41.3,0,1,.3,2.1.5,3.2ZM568.7,610.7c0-15.8,0-31.5,0-47.3,0-1.1,0-2.2,0-3.2-.2-1.9-.7-2.4-2.7-2.5-2.6-.1-5.2-.1-7.8-.2-5.8-.1-5.8,0-5.8,5.6,0,31.7,0,63.4,0,95.2,0,.8,0,1.5,0,2.3.1,3.2.5,3.6,3.6,3.6,2.5,0,5,0,7.4,0q5.3,0,5.3-5.1c0-7.1.1-14.2,0-21.4,0-2.7,1-4.4,3.6-5.3,4.1-1.5,8.2-3.4,12.2-5.1,1.1-.4,2.2-.7,3.7-1.1.3,1.2.7,2.1.8,3,.1,1.4.1,2.8.1,4.2,0,9.1,0,18.1,0,27.2,0,3.2.4,3.6,3.5,3.6,3.1,0,6.3,0,9.4,0,2.6,0,3-.6,3.2-3,0-.6,0-1.3,0-1.9,0-32.3,0-64.5,0-96.8,0-.9,0-1.7,0-2.6,0-1.2-.7-2.1-2-2.1-3.9,0-7.8-.2-11.6-.2-1.6,0-2.4.9-2.4,2.5,0,1,0,1.9,0,2.9,0,11.9,0,23.7,0,35.6,0,3.8,0,7.6,0,11.3,0,2.1-.9,3.4-2.9,4.2-3.8,1.6-7.5,3.3-11.3,4.9-1.6.7-3.4,1.1-5.8,1.9-.2-3.9-.5-7-.5-10.1ZM262.5,757c-12.1,0-24.2.1-36.3,0-4.4,0-8.9-.4-13.2-1.4-9.3-2.1-15.1-7.8-16.9-17.4-.8-4.5-.8-9-.3-13.5.2-1.8.6-3.6,1.1-5.4,1.6-7.1,6.1-11.8,12.7-14.4,4-1.6,8.2-2.6,12.6-2.6,9.3,0,18.6,0,27.8,0,3.4,0,3.7.3,3.7,3.7,0,10.7,0,21.4,0,32q0,7,6.9,7.1c9.5,0,19,0,28.5,0,4.5,0,4.8-.3,4.8-4.8,0-10.9,0-21.8,0-32.7,0-1,0-1.9,0-2.9,0-1.6.8-2.4,2.4-2.4,3.8,0,7.6,0,11.3,0,1.6,0,2.3.9,2.3,2.4,0,.6,0,1.3,0,1.9,0,15.2,0,30.4,0,45.6,0,4.6-.1,4.8-4.7,4.8-14.4,0-28.7,0-43.1,0ZM237.7,729.7h0c0-.5,0-1.1,0-1.6,0-3.7,0-7.3,0-11,0-1.4-.4-2.6-2.1-2.8-5.8-.5-11.6-.7-17.3.9-2.5.7-4.4,2.4-5.1,5-1.7,5.8-2,11.6-.6,17.6.9,3.9,3.3,6.3,7.3,6.7,4.7.4,9.5.5,14.2.5,3.1,0,3.6-.5,3.7-3.6,0-3.9,0-7.8,0-11.6ZM383.4,733.2c0,8.5,0,17,0,25.6.1,10.8-4.6,17.8-15.2,22-7.3,2.9-14.9,3.3-22.6,2.8-4.2-.3-8.4-.9-12.5-1.5-2.8-.4-3.1-1-2.5-3.7.4-1.9.9-3.8,1.3-5.7.3-1.4,1.1-2,2.5-2,1.2,0,2.4.2,3.6.2,5.4.2,10.8.5,16.1.5,2.1,0,4.3-.6,6.3-1.3,4.4-1.6,6.9-5.6,6.7-10-.1-2.2-.5-2.7-2.6-2.9-1.7-.2-3.4-.2-5.2-.2-4.1-.2-8.2-.3-12.3-.5-3.8-.2-7.4-1.4-10.8-3.2-5.1-2.7-8.5-7-10-12.6-2.1-7.7-1.7-15.4.5-23,2.1-6.9,6.9-11.3,13.8-13.5,4-1.3,8.1-2.1,12.4-2.1,8.8,0,17.7,0,26.5,0,3.7,0,4,.3,4,4.1,0,9,0,17.9,0,26.9ZM367.5,730s0,0,.1,0c0-3.1,0-6.2,0-9.4,0-1.4,0-2.8-.5-4.1-.2-.8-1.1-1.8-1.8-1.9-5.9-.8-11.8-1-17.6.6-2.9.8-4.8,2.9-5.5,5.9-1.2,5.6-1.5,11.3-.2,17,.7,3.3,2.7,5.4,6,6.1,1.9.4,3.8.7,5.7.8,3.2,0,6.5,0,9.7,0,3.4-.1,3.9-.5,4.1-3.9.2-3.7,0-7.3,0-11ZM604.2,695.3c0-3.6,0-7.1,0-10.7,0-2.6-.5-3-3.1-3-3,0-6,0-9.1,0-3.4,0-3.7.3-3.8,3.7,0,.5,0,1.1,0,1.6,0,21.5,0,42.9,0,64.4,0,.9,0,1.7,0,2.6.2,2.5.6,3,3.1,3.1,2.9,0,5.8,0,8.7,0,3.8,0,4-.3,4.1-4,0-.5,0-1.1,0-1.6,0-10.7,0-21.4,0-32,0-8,0-16,0-24ZM226.8,691.7c5.3,0,10.5,0,15.8,0,2.9,0,3.3-.5,3.4-3.4,0-1.5,0-3,0-4.5,0-3.4-.3-3.7-3.7-3.7-8.9,0-17.9,0-26.8,0-1.7,0-3.4,0-5.2,0-1.6,0-2.4.8-2.4,2.4,0,1.6,0,3.2,0,4.8,0,4.2.2,4.4,4.3,4.4,4.8,0,9.7,0,14.5,0,0,0,0,0,0,0ZM302.3,779.8c1.8,0,3.7,0,5.5,0,1.6,0,2.4-.8,2.4-2.4,0-2.3,0-4.5,0-6.8,0-1.5-.7-2.4-2.3-2.4-3.8,0-7.5,0-11.3,0-1.6,0-2.4.8-2.4,2.4,0,2.3,0,4.5,0,6.8,0,1.9.6,2.3,2.7,2.5,1.8,0,3.7,0,5.5,0,0,0,0,0,0,0Z"/>
      </g>
    </g>
  </g>
</svg>