<?xml version="1.0" encoding="UTF-8"?>
<svg xmlns="http://www.w3.org/2000/svg" version="1.1" xmlns:cc="http://creativecommons.org/ns#" xmlns:dc="http://purl.org/dc/elements/1.1/" xmlns:inkscape="http://www.inkscape.org/namespaces/inkscape" xmlns:rdf="http://www.w3.org/1999/02/22-rdf-syntax-ns#" xmlns:sodipodi="http://sodipodi.sourceforge.net/DTD/sodipodi-0.dtd" xmlns:svg="http://www.w3.org/2000/svg" viewBox="0 0 400 400">
  <defs>
    <style>
      .cls-1 {
        fill: #fff;
      }

      .cls-2 {
        fill: #020505;
      }

      .cls-3 {
        fill: #211e1e;
      }

      .cls-4 {
        fill: #110f0c;
      }

      .cls-5 {
        fill: #ee2633;
      }

      .cls-6 {
        fill: #33b351;
      }
    </style>
  </defs>
  <!-- Generator: Adobe Illustrator 28.6.0, SVG Export Plug-In . SVG Version: 1.2.0 Build 709)  -->
  <g>
    <g id="Layer_1">
      <sodipodi:namedview id="base" bordercolor="#666666" borderopacity="1.0" inkscape:current-layer="layer1" inkscape:cx="292.41409" inkscape:cy="273.85715" inkscape:document-rotation="0" inkscape:document-units="px" inkscape:pageopacity="0.0" inkscape:pageshadow="2" inkscape:window-height="728" inkscape:window-maximized="0" inkscape:window-width="1267" inkscape:window-x="78" inkscape:window-y="0" inkscape:zoom="0.35" pagecolor="#ffffff" showgrid="false"/>
      <g>
        <path id="path12" class="cls-1" d="M367,96.2L288.7,3.8c-10.7,9.4-30.6,24-59,30.3-11.1,2.5-21.2,3.1-29.6,3h0c-8.5,0-18.5-.5-29.6-3-28.4-6.3-48.3-20.9-59-30.3L33,96.2c6.9,11.2,14.3,25.5,20.5,42.6,9.4,26.3,12.4,49.9,13.2,67.2-2,74,22.5,106,35.9,119.2,5.8,5.7,12.9,11.1,27,21.9,28.9,22.2,53.7,38.5,70.4,49h0c17.1-10.8,41.8-27.1,70.4-49,14.1-10.8,21.1-16.2,27-21.9,13.4-13.2,38-45.2,35.9-119.2.8-17.4,3.8-41,13.2-67.2,6.2-17.1,13.6-31.4,20.5-42.6"/>
        <path id="path14" class="cls-5" d="M245.2,163.6l-8.6,14.9,8.6,14.9h14c2.4-6.7,3.8-13.9,3.8-21.5s-.2-5.5-.5-8.2h-17.3Z"/>
        <path id="path16" class="cls-5" d="M248.3,131.6c-2.3-2.7-4.8-5.2-7.5-7.5l4.3,7.5h3.2Z"/>
        <path id="path18" class="cls-2" d="M185.1,111.1c-4.8,1.2-9.3,2.9-13.6,5.2h10.6l3-5.2Z"/>
        <path id="path20" class="cls-5" d="M218.5,178h17.2l8.6-14.9-8.6-14.9h-17.2l-8.6,14.9,8.6,14.9Z"/>
        <path id="path22" class="cls-5" d="M208.9,131.7l8.6-14.9-3.5-6c-4.4-1-9-1.5-13.7-1.5s-9.3.5-13.7,1.5l-3.4,6,8.6,14.9h17.1,0Z"/>
        <path id="path24" class="cls-5" d="M165.1,147.1h17.1l8.6-14.9-8.6-14.9h-12.7c-2.5,1.4-5,3-7.2,4.8l-5.8,10.1,8.6,14.9h0Z"/>
        <path id="path26" class="cls-5" d="M159.9,124c-2.7,2.3-5.3,4.9-7.6,7.6h3.2l4.4-7.6h0Z"/>
        <path id="path28" class="cls-5" d="M209.9,193.9l8.6,14.9h17.2l8.6-14.9-8.6-14.9h-17.2l-8.6,14.9Z"/>
        <path id="path30" class="cls-2" d="M229.1,116.2c-4.3-2.2-8.8-3.9-13.6-5.1l3,5.1h10.7,0Z"/>
        <path id="path32" class="cls-2" d="M182.9,147.7l8.7,15.1h17.4l8.7-15.1-8.8-15.1h-17.4l-8.7,15.1h.1Z"/>
        <path id="path34" class="cls-2" d="M249.2,132.7h-4l-8.6,14.9,8.6,14.9h17.1c-1.7-11.2-6.3-21.4-13.1-29.8"/>
        <path id="path36" class="cls-5" d="M182.2,208.9l8.6-14.9-8.6-14.9h-17.2l-8.6,14.9,8.6,14.9h17.2Z"/>
        <path id="path38" class="cls-2" d="M155.5,132.8h-4.1c-6.7,8.4-11.3,18.6-13,29.8h17.1l8.6-14.9-8.6-14.9h0Z"/>
        <path id="path40" class="cls-5" d="M183.2,178.6l8.6,14.8h17.2l8.6-14.9-8.6-14.9h-17.1l-8.6,14.9h0Z"/>
        <path id="path42" class="cls-5" d="M190.8,224.8l-8.6-14.9h-17.2l-5.5,9.6c7.5,6.4,16.6,11.2,26.6,13.5l4.7-8.2h0Z"/>
        <path id="path44" class="cls-2" d="M236.6,209.3l5.4,9.3c7.4-6.6,13.1-14.9,16.8-24.2h-13.6l-8.6,14.9h0Z"/>
        <path id="path46" class="cls-5" d="M191.8,225.4l-4.6,7.9c4.3.9,8.6,1.4,13.1,1.4s8.9-.5,13.1-1.4l-4.5-7.9h-17.1Z"/>
        <path id="path48" class="cls-2" d="M155.5,194.5h-13.7c3.6,9.4,9.4,17.7,16.8,24.3l5.4-9.4-8.6-14.9h.1Z"/>
        <path id="path50" class="cls-5" d="M141.5,193.4h14.1l8.6-14.9-8.6-14.9h-17.2v.3c-.4,2.6-.6,5.3-.6,8.1,0,7.5,1.3,14.7,3.8,21.4"/>
        <path id="path52" class="cls-2" d="M208.9,194.5h-17.2l-8.6,14.9,8.6,14.9h17.2l8.6-14.9-8.6-14.9Z"/>
        <path id="path54" class="cls-5" d="M182.2,178l8.6-14.9-8.6-14.9h-17.1l-8.6,14.9,8.6,14.9h17.1Z"/>
        <path id="path56" class="cls-5" d="M218.5,209.9l-8.6,14.9,4.7,8.2c10-2.3,19.1-7,26.6-13.5l-5.5-9.5h-17.2Z"/>
        <path id="path58" class="cls-5" d="M244.2,132.2l-5.8-10c-2.4-1.8-4.8-3.4-7.4-4.9h-12.6l-8.6,14.9,8.6,14.9h17.2l8.6-14.9Z"/>
        <path id="path60" class="cls-2" d="M218.5,208.8l-8.6-14.9,8.6-14.9h17.2l8.6,14.9-8.6,14.9h-17.2ZM218.5,178l-8.6-14.9,8.6-14.9h17.2l8.6,14.9-8.6,14.9h-17.2ZM191.8,193.4l-8.6-14.8,8.6-14.9h17.1l8.6,14.9-8.6,14.9h-17.2,0ZM208.9,132.7l8.6,14.9-8.6,14.8h-17.1l-8.6-14.8,8.6-14.9h17.1ZM182.2,148.2l8.6,14.9-8.6,14.9h-17.1l-8.6-14.9,8.6-14.9h17.1ZM165.1,208.9l-8.6-14.9,8.6-14.9h17.2l8.6,14.9-8.6,14.9h-17.2ZM191.8,224.3l-8.6-14.9,8.6-14.9h17.1l8.6,14.9-8.6,14.9h-17.1ZM262.4,163.6h0v-1.1c-.1,0,0,0,0,0h-17.2l-8.6-14.9,8.6-14.9h4l-.9-1.1h-3.2l-4.3-7.5h0l-2.3-1.9h0l5.8,10-8.6,14.9h-17.2l-8.6-14.9,8.6-14.9h12.6l-2-1.1h-10.6l-3-5.1-1.4-.3,3.5,6-8.6,14.9h-17.1l-8.6-14.9,3.5-6-1.5.3-3,5.1h-10.7l-2,1.1h12.7l8.6,14.9-8.6,14.9h-17.1l-8.6-14.9,5.8-10.1h0l-2.3,1.9h0l-4.4,7.7h-3.2l-.9,1.1h4.1l8.6,14.9-8.6,14.9h-17.2v1.1c-.1,0-.1.3-.1.3v-.2h17.2l8.6,14.9-8.6,14.9h-14.1l.4,1.1h13.7l8.6,14.9-5.4,9.4h0l.8.7,5.5-9.6h17.2l8.6,14.9-4.7,8.2h0l1.1.3h0l4.6-7.9h17.1l4.5,7.9,1.1-.3-4.7-8.2,8.6-14.9h17.2l5.5,9.5.8-.7h0l-5.4-9.4,8.6-14.9h13.6l.4-1.1h-14l-8.6-14.9,8.6-14.9h17.2,0Z"/>
        <path id="path62" class="cls-5" d="M198.3,69.8s-.4,2.6,1.1,3c0,0,1.1.4,2.1-.9,1-1.2,5.1-11.1-3.5-19.6,0,0,1.3,6.9-1.7,12.5-.9,1.8-2.5,5.8-1.2,7.5,0,0,1.8,2.1,3.3-2.5"/>
        <path id="path64" class="cls-5" d="M200.2,92.3s-.2,2.7-1.6,2.8c0,0-1.1.2-1.7-1.3-.6-1.5-2.3-12.2,7.4-19.1,0,0-2.7,6.7-1.1,13,.5,2,1,6.3-.5,7.7,0,0-2.1,1.7-2.4-3.1"/>
        <path id="path66" class="cls-5" d="M209.3,76s-.1.5,0,1.1.5,1,.9,1.3c.2,0,.5.2.9,0,1.8-.4,2.8-5.6,1.8-9.6-.3-1.3-1.1-3.8-3.8-6.4,0,0,1,5.4-1.3,9.8-.7,1.4-2,4.5-.9,5.8.2.2.5.4.8.4,1,0,1.5-2.4,1.7-2.3"/>
        <path id="path68" class="cls-5" d="M208.7,90.8s-1.3,1.8,0,2.7c0,0,.9.8,2.2.2,1.4-.5,8.5-6.2,3.4-16.3,0,0-1.1,5.7-5.8,8.7-1.5,1-4.3,3.3-3.7,5.1,0,0,.9,2.3,3.9-.5"/>
        <path id="path70" class="cls-5" d="M193.6,80.3s.6,1.7-.5,2.2l-1.8-.3c-1-.7-5.3-7,.8-13.9,0,0-.4,4.9,2.7,8.4.9,1.1,2.7,3.7,1.8,5,0,0-1.2,1.6-2.9-1.3"/>
        <path id="path72" class="cls-5" d="M190.6,91.3s1.2,1.7,0,2.5c0,0-.8.7-2.1.2s-7.9-5.8-3.2-15.1c0,0,1,5.3,5.4,8.1,1.4.9,4.1,3.1,3.4,4.8,0,0-.9,2.1-3.6-.5"/>
        <path id="path74" class="cls-2" d="M215.2,98.9c0-1.1-.9-2-2-2.1h-26.3c-1.2,0-2.1.9-2,2.1l1.1,1.8-.8,2.1c0,1.7,1.4,3.1,3.1,3.1h.5c1,1.6,2.5,3,4.2,4,.2,1.3,1,2.3,2,3l1.7,18.7h6.9l1.6-18.7c1.1-.6,1.8-1.7,2-2.9,1.8-1,3.2-2.4,4.3-4.1h.5c1.7,0,3.1-1.4,3.1-3.1l-.8-2.1,1-1.8h-.1Z"/>
        <path id="path76" class="cls-5" d="M198.8,157h0c0,.1,1.2,1.1,1.2,1.1l1.2-1,2.3-25.4h-6.9l2.3,25.3h-.1Z"/>
        <path id="path78" class="cls-6" d="M296.9,180.3c1.6-6.6.3-10.7.3-10.7-.9,1.9-2.5,2.8-6.2,4.9-1.9,1-3.2,2.7-4,4.6.2-2.4.4-4.9.3-7.4,0-1.2,0-2.5-.1-3.7,1.3-.5,8.3-3.4,9.5-9.2.9-4.4-.3-5.5,0-9.4,0,0-1.2,1.9-7.4,5.1-1.6.9-2.6,2.2-3.1,3.7-.4-2.3-.8-4.6-1.4-6.9,1.9-1.5,7-6,7-11.7s-1.5-5.5-2-9.7c0,0-.8,2.3-6.3,7.4-1.1,1-1.7,2.2-2.1,3.4-.8-2.2-1.8-4.3-2.8-6.4.8-.9,6.5-7.2,4.6-12.7-1.3-3.8-4.4-7.4-5.8-9.1.4.7,1.1,2.6-1,6.7-2,3.8-.6,9,.7,12.2-2.3-4.3-5-8.4-8-12.3,1-1.5,5-8.3,2.2-13.2-2-3.5-5.7-6.5-7.4-7.9.6.6,1.6,2.4.3,6.7-1.2,3.9.8,8.5,2.6,11.4-2.8-3.4-6-6.5-9.3-9.4.5-1.1,3.6-8.9-.2-13.2-2.6-3-6.8-5.2-8.7-6.2.7.5,2,2,1.5,6.4s2.9,8.8,5.3,11.2c-3.3-2.6-6.8-5.1-10.4-7.3-1.5-3-5.8-9.7-12.9-9.3-9.1.6-11.8-.4-11.8-.4,3.6,3.3,3.2,4.9,7.7,8.3,5.7,4.2,14.6,3.3,16.9,2.9,1.7,1,3.3,2.1,4.8,3.3-2.4-1-5.2-1.5-8.2-.4-8,3-10.7,2.9-10.7,2.9,4.1,1.9,4.2,3.4,9.2,5.1,6.6,2.2,14.7-1.5,16.2-2.3,2.5,2.2,4.9,4.7,7.2,7.2-2.6-1.7-6-3.1-9.9-2.9-8.8.6-9.9.9-9.9.9,3.9,2.7,3.8,4.2,8.6,6.8,5.7,3,13,1.5,15.7.7,1.4,1.8,2.6,3.7,3.8,5.6-1.6-1.1-3.5-1.9-5.8-1.9-8.6,0-11.2-1-11.2-1,3.2,3.3,2.8,4.8,7,8.1,4.6,3.8,11.9,3.8,15,3.7,1,2.1,1.9,4.3,2.8,6.5-1.4-1.5-3.2-2.7-5.5-3.2-8.4-1.8-10.6-3.4-10.6-3.4,2.5,3.9,1.7,5.2,5.1,9.3,3.8,4.8,11.1,6.3,14,6.8.5,2,.9,4,1.3,6-.9-1.6-2.3-3.1-4.2-3.9-7.7-3.2-9.5-5.2-9.5-5.2,1.3,4.4.2,5.6,2.3,10.4,2.7,6.2,10.8,9,12.6,9.6v3.7c0,1.5,0,2.9-.1,4.3-.5-2.3-1.6-4.5-3.9-6-6.9-4.4-8.2-6.6-8.2-6.6.6,4.4-.7,5.4.6,10.4,1.6,6.4,8.9,10.5,10.6,11.3-.7,4.3-1.7,8.6-3,12.7.5-3.9.5-9.4-2.5-12.8-4.1-4.6-4.5-4.9-5.2-7.5.6,2.4-1.6,6.4-1.3,11.6.4,6.4,5.9,11.3,7.7,12.7-1.3,3.5-2.9,6.9-4.6,10.1.7-2.7,1.1-6,.3-9.3-1.4-5.1-2.6-5.4-5-9.5,0,0-.7,2.9-3.2,9.2-2.9,7.1,2.9,13.1,4.9,14.9-1.4,2.3-3,4.5-4.6,6.6.4-1.4.7-2.8.5-4.3-.5-5.2-2.6-6.9-3.6-11.4,0,0-1.8,1.9-5.3,7.7-3.7,5.9-.2,14.3.8,16.6-1.5,1.5-3.1,3-4.8,4.4.8-1.4,1.3-3.1,1.3-4.8,0-5.2-1.5-6.5-2-11.2,0,0-1.7,2.7-6.4,7.5-4.9,5.1-2.7,12-1.4,14.9-2.3,1.5-4.7,2.9-7.1,4.2,1.6-1.4,2.9-3.3,3.6-5.5,1.3-5,0-6.2.7-10.7,0,0-2.1,2-8.8,5.6-6,3.2-4.5,11.8-3.8,14.5-1.4.4-3.4,1-5.9,1.7-6.4,2-11.3,3.8-16.9,5.9-2,.8-4.8,1.8-8,3.1-3.6-1.3-7.2-2.7-11-4-5.5-1.9-10.9-3.8-16.3-5.5-1.2-.4-2.4-.8-3.6-1.1.6-2.7,2.1-11.3-3.9-14.5-6.6-3.6-8.8-5.6-8.8-5.6.7,4.5-.6,5.7.7,10.7.6,2.2,2,4.1,3.6,5.6-2.5-1.3-4.9-2.7-7.2-4.2,1.3-3,3.5-9.8-1.4-14.9-4.7-4.9-6.5-7.5-6.5-7.5-.5,4.6-2,6-1.9,11.2,0,1.8.5,3.4,1.3,4.8-1.7-1.4-3.3-2.9-4.8-4.5,1.1-2.3,4.5-10.7.8-16.6-3.6-5.8-5.3-7.7-5.3-7.7-1,4.6-3.1,6.2-3.5,11.4-.2,1.5,0,2.9.6,4.3-1.7-2.1-3.2-4.4-4.6-6.6,2-1.9,7.7-7.9,4.8-14.9-2.6-6.3-3.3-9.2-3.3-9.2-2.3,4.1-3.6,4.4-4.9,9.5-.9,3.3-.5,6.6.2,9.3-1.8-3.3-3.3-6.7-4.6-10.1,1.7-1.4,7.2-6.3,7.6-12.7.3-5.2-1.9-9.1-1.3-11.6-.7,2.6-1.1,2.9-5.2,7.5-3.1,3.5-3,9-2.5,12.8-1.3-4.1-2.4-8.4-3.1-12.7,1.7-.9,9-4.9,10.6-11.3,1.2-5,0-6,.6-10.4,0,0-1.4,2.2-8.2,6.7-2.3,1.5-3.4,3.7-3.9,6,0-1.4,0-2.9,0-4.3v-3.7c1.8-.5,10-3.3,12.6-9.6,2.1-4.8.9-6,2.3-10.4,0,0-1.7,2-9.4,5.2-2,.8-3.4,2.3-4.3,3.9.4-2,.8-4,1.3-6,2.9-.5,10.2-2,14.1-6.8,3.4-4.2,2.6-5.5,5-9.3,0,0-2.2,1.5-10.6,3.3-2.3.5-4.1,1.7-5.5,3.2.8-2.2,1.8-4.4,2.7-6.5,3.2.1,10.4,0,15-3.7,4.2-3.4,3.7-4.8,7-8.2,0,0-2.5,1.1-11.2,1-2.3,0-4.2.7-5.9,1.9,1.2-1.9,2.5-3.8,3.8-5.6,2.7.7,10.1,2.3,15.7-.8,4.8-2.6,4.6-4.2,8.6-6.8,0,0-1.1-.4-9.9-.9-4-.2-7.3,1.2-9.9,2.9,2.3-2.6,4.7-4.9,7.2-7.2,1.6.8,9.7,4.5,16.3,2.3,5-1.7,5.1-3.2,9.2-5.1,0,0-2.7,0-10.7-2.9-2.9-1.1-5.8-.6-8.1.4,1.6-1.1,3.2-2.2,4.8-3.3,2.4.4,11.3,1.3,17-2.9,4.5-3.4,4.1-4.9,7.7-8.3,0,0-2.7,1-11.8.5-7.1-.4-11.4,6.3-12.9,9.3-3.6,2.2-7.1,4.6-10.4,7.3,2.4-2.4,5.8-6.8,5.3-11.2-.5-4.4.8-5.9,1.5-6.4-1.9,1-6.2,3.2-8.8,6.2-3.8,4.3-.7,12.1-.2,13.2-3.3,2.9-6.4,6-9.3,9.4,1.8-3,3.8-7.5,2.6-11.4-1.3-4.4-.4-6.1.3-6.7-1.7,1.4-5.4,4.4-7.4,7.9-2.7,4.9,1.2,11.7,2.2,13.2-3,3.9-5.7,8-8,12.3,1.2-3.2,2.6-8.4.7-12.3-2.1-4-1.5-5.9-1-6.6-1.4,1.6-4.5,5.3-5.8,9.1-1.9,5.5,3.8,11.8,4.6,12.7-1,2.1-2,4.2-2.8,6.4-.3-1.2-1-2.4-2.1-3.4-5.5-5.1-6.3-7.3-6.3-7.3-.5,4.2-2,4.9-2,9.6s5.1,10.2,7,11.7c-.5,2.2-1,4.6-1.4,6.9-.5-1.5-1.4-2.8-3.1-3.7-6.2-3.3-7.4-5.1-7.4-5.1.3,4-.9,5,0,9.4,1.2,5.8,8.2,8.7,9.5,9.2v3.7c0,2.5,0,4.9.3,7.4-.8-1.8-2.1-3.5-4-4.5-3.7-2.1-5.4-2.9-6.3-4.9,0,0-1.3,4.1.3,10.7,1.3,5.5,8.4,5.9,10.9,5.9.7,4,1.7,8,2.9,11.8-1.3-2.3-3.5-4.8-6.7-5.3-5.7-.9-6.5-4.2-6.5-4.2,0,.9.8,7.5,3,10.8,3.2,4.7,10.4,3.5,11.8,3.2,1.2,3.3,2.7,6.4,4.3,9.5-1.6-1.5-3.8-2.8-6.8-3.4-5.6-1-6.3-2.1-7.6-3.3,0,0,1.2,5.4,4.7,10.1,4.7,6.4,12,3.4,13.3,2.7,2.4,3.8,5,7.3,8,10.7-1.9-1.2-4.5-2.2-7.7-2.3-4.9-.2-5.5-1.3-8.9-2.6,0,0,2.6,5.2,6.4,9.3,5.7,6.1,13.4,1.6,14.9.6,2.3,2.3,4.7,4.4,7.3,6.4-1.9-.6-4.2-.9-6.9-.6-4.7.6-3.6,1.2-9.1.5,0,0,2.9,3.5,7.7,6.7,6.3,4.2,12.9-.9,14.4-2.2,3.4,2.2,7,4.3,10.7,6-2.3-.5-5.3-.7-8.7.3-4.5,1.4-3.3,1.7-8.7,2.1,0,0,3.5,2.8,9,5,8.1,3.3,13.8-5,13.8-5l-.4-.3c.5.2,3.3,1.2,3.8,1.4,3.4,1.3,8.9,3.3,15.8,5.9,1.9.7,6.7,2.5,8.7,3.2-1.3.6-2.6,1.4-4,2.3-1.3.8-2.5,1.6-3.6,2.5l-.7.5c1.4.2,3.3.4,5.6.6,2-1.4,4.1-2.7,6.1-3.9,2,1.2,4.1,2.5,6.1,3.9,2.4-.2,4.2-.4,5.6-.6l-.7-.5c-1.1-.8-2.3-1.6-3.6-2.4-1.5-.9-2.9-1.7-4.2-2.4,1.5-.7,3.4-1.5,5.5-2.4,6.5-2.7,12-4.5,17.3-6.2,1.7-.5,3.6-1.2,5.8-1.8l-.4.3s5.7,8.3,13.8,5c5.5-2.2,8.9-5,8.9-5-5.5-.4-4.2-.7-8.7-2.1-3.4-1.1-6.4-.9-8.7-.3,3.7-1.8,7.3-3.8,10.7-6,1.6,1.3,8,6.4,14.4,2.2,4.9-3.3,7.7-6.7,7.7-6.7-5.4.7-4.3,0-9-.5-2.7-.3-5,0-6.9.6,2.5-2,5-4.2,7.3-6.5,1.5,1,9.2,5.5,14.9-.6,3.9-4.1,6.4-9.4,6.4-9.4-3.4,1.3-4,2.3-8.9,2.6-3.2.2-5.8,1.1-7.7,2.3,2.9-3.3,5.6-6.9,8-10.6,1.3.6,8.6,3.6,13.3-2.7,3.5-4.7,4.7-10.1,4.7-10.1-1.3,1.2-2,2.3-7.6,3.3-3,.5-5.2,1.9-6.8,3.3,1.6-3.1,3-6.2,4.3-9.5,1.3.3,8.6,1.4,11.8-3.3,2.3-3.4,2.9-10,3-10.8,0,0-.8,3.4-6.5,4.3-3.2.5-5.4,2.9-6.7,5.3,1.2-3.8,2.2-7.8,2.8-11.8,2.5,0,9.6-.5,10.9-5.9"/>
        <path id="path82" class="cls-6" d="M136.3,98.1l.3-.3-.3.3Z"/>
        <path id="path84" class="cls-6" d="M151.7,87.5l.3-.2-.3.2Z"/>
        <path id="path86" class="cls-6" d="M277.1,112.2l.3.3-.3-.3Z"/>
        <path id="path88" class="cls-6" d="M263.8,98l-.3-.3.3.3Z"/>
        <path id="path90" class="cls-6" d="M248.5,87.4l-.4-.2.4.2Z"/>
        <path id="path92" class="cls-5" d="M200,185.7c39.4,0,73.1,24.8,86.2,59.6l24.2-18.3c-5.3-11.2-16.8-31-38.8-47.1-14.9-10.9-28.8-16.1-36-18.3-7.3-2.2-19.8-5.3-35.7-5.3-49,0-91.2,29.1-110.4,70.9l24.3,18.3c2.9-7.6,12.5-30.1,37-45.6,20.5-12.9,40.6-14.2,49.1-14.2"/>
        <path id="path94" class="cls-5" d="M97.1,232.8s-12,20.5-3.8,49.5l10.2-14s.9,10.1,16.4,22.3c0,0-7.2-27.1,4.5-52.1l-10.6,7-16.8-12.7h0Z"/>
        <path id="path96" class="cls-5" d="M118.9,234.3l5.5,4.1-10.6,7s2-5.5,5-11.1"/>
        <path id="path98" class="cls-5" d="M303,232.6s12,20.5,3.8,49.5l-10.2-14s-.9,10.1-16.3,22.3c0,0,7.2-27.1-4.6-52.1l10.6,6.9,16.8-12.7h0Z"/>
        <path id="path100" class="cls-5" d="M281.2,234.2l-5.6,4.2,10.6,7s-2-5.5-5-11.1"/>
        <path id="path104" class="cls-4" d="M89.9,227.1l24,18.1c4-10.6,11.9-25.8,27.3-38.6,22-18.3,46.2-21,58.7-21.1h.2c12,0,30,2.3,48.2,13.4,23.2,14.2,33.8,34.9,38.1,46.1l23.9-18.1c-6.8-14.2-16-26.8-27.5-37.5-11.8-11-25.8-19.7-40.6-25.2-13.5-5.1-28.1-7.8-42.2-7.8h-.2c-24.8,0-44.4,7.7-56.6,14.2-30.9,16.5-46.7,42.4-53.4,56.5M114,245.7l-24.6-18.5h0c6.6-14.3,22.4-40.4,53.6-57,12.2-6.5,31.9-14.2,56.7-14.2h.2c14.1,0,28.8,2.7,42.3,7.8,14.8,5.6,28.9,14.3,40.7,25.3,11.5,10.8,20.8,23.5,27.6,37.7h0c0,.1-24.5,18.7-24.5,18.7v-.2c-4.3-11.1-14.9-31.9-38.1-46.2-18.1-11.1-36-13.4-48-13.4h-.2c-12.5,0-36.6,2.8-58.5,21-15.4,12.8-23.4,28.1-27.3,38.7v.2h.1Z"/>
        <path id="path106" class="cls-4" d="M103.7,267.8v.4c1.4,6.2,5.7,12,9.2,15.6,3,3.2,5.8,5.5,6.8,6.3-6.1-27.1,2.6-47.5,4.3-51.2l-10.2,6.8h0l-16.6-12.8c-11.2,23.3-4.7,45.9-3.8,48.8l10.3-14h0ZM120.3,291l-.4-.3c0,0-13.7-10.1-16.4-22l-10.2,13.9v-.3c-.2-.2-8.5-24.5,3.7-49.6v-.2h.3c0,.1,16.7,12.8,16.7,12.8l10.3-6.9-5.3-4,.2-.3,5.7,4.3h-.2c-.5,1.2-11.3,22.6-4.5,52.1v.5h.1Z"/>
        <path id="path108" class="cls-4" d="M275.9,238.4c10.7,21.5,5.5,47.7,4.7,51.6,7.8-6.1,11.7-11.7,13.6-15.3,2.1-4,2.3-6.5,2.3-6.6v-.5l10.4,14.1c7.4-27-2.7-46.7-3.8-48.8-5.6,4.2-11.2,8.5-16.8,12.7h-.1c0-.8-3-7.1-4.9-11.1l-5.3,3.9h-.1ZM279.9,290.9v-.5c.2-.3,7.1-28.9-4.5-52h0c0-.1,5.9-4.5,5.9-4.5v.2c.9,1.6,4.7,9.5,5.1,11,1.3-.7,10.5-7.8,16.5-12.6h.2c0-.1.1,0,.1,0,.1.2,11.9,20.8,3.8,49.6v.4c-.1,0-10.3-13.9-10.3-13.9-.3,2.1-2.6,11.4-16.4,22l-.4.3h0Z"/>
        <path id="path110" class="cls-4" d="M286.2,245.6l-10.6-7.1.2-.3,10.6,7.1-.2.3Z"/>
        <path id="path112" class="cls-3" d="M183.9,252.9v-11.3l-2.5,1-.3-1.6,3.1-1.1h1.4v13h-1.8.1Z"/>
        <path id="path114" class="cls-3" d="M195.1,241.9c-.5-.5-1.1-.8-1.9-.8s-1.4.3-1.8.8c-.5.5-.7,1.2-.7,2s.2,1.5.6,1.9c.4.5,1.1.8,1.9.8s1.4-.3,1.9-.8.7-1.1.7-1.8-.2-1.6-.7-2.2M196,251.1c-1.1,1.3-2.7,1.9-4.8,1.9s-1.1,0-1.6-.1v-1.6c.5.1,1.1.2,1.8.2,2.4,0,3.8-1.3,4.3-3.9,0-.1,0-.3.1-.5v-.4h0c-.7.9-1.7,1.4-3.1,1.4s-2.2-.4-2.9-1.1c-.7-.7-1.1-1.7-1.1-2.9s.4-2.4,1.3-3.2c.9-.9,1.9-1.3,3.3-1.3s2.8.6,3.6,1.9c.5,1,.8,2.2.8,3.7,0,2.6-.6,4.5-1.8,5.9"/>
        <path id="path116" class="cls-3" d="M207.2,246.8c-.5-.5-1.1-.8-1.9-.8s-1.4.3-1.9.8-.7,1.1-.7,1.8.2,1.6.7,2.2c.5.5,1.1.8,1.9.8s1.4-.3,1.9-.8.7-1.2.7-2-.2-1.5-.6-1.9M208.4,251.8c-.9.9-2,1.3-3.3,1.3s-2.8-.6-3.5-1.9c-.6-1-.8-2.2-.8-3.7,0-2.6.6-4.6,1.9-5.9s2.7-1.9,4.7-1.9.9,0,1.2,0v1.5h-1.3c-2.5,0-4,1.3-4.5,4v.8h-.1c.7-.9,1.7-1.4,3.1-1.4s2.2.4,2.9,1.1c.7.7,1.1,1.6,1.1,2.8s-.4,2.4-1.3,3.3"/>
        <path id="path118" class="cls-3" d="M219.2,241.3c-1.7,3.7-3,7.5-3.8,11.5h-2c1-4.1,2.3-7.9,3.9-11.4h-5.8v-1.7h7.7v1.5h0Z"/>
        <path id="path120" class="cls-3" d="M154.8,283.4c-.2-.5-.4-1.1-.5-1.7h0c-.2.6-.3,1.1-.5,1.6l-1.6,4.6h4.3l-1.6-4.5h0ZM157.8,292.1l-1-2.8h-5.2l-1,2.8h-1.7l4.4-12.1h1.9l4.4,12.1h-1.8,0Z"/>
        <path id="path122" class="cls-3" d="M161.4,292.1v-12.1h1.7v10.7h4.3v1.4h-6Z"/>
        <path id="path124" class="cls-3" d="M171.8,281.2h-1.1v4.1h1c.9,0,1.5-.2,2-.6s.7-.9.7-1.6c0-1.3-.9-2-2.7-2M174.9,292.1l-4-5.4h-.2v5.4h-1.6v-12.1h3c2.7,0,4.1,1.1,4.1,3.2s-.3,1.8-1.1,2.4c-.7.6-1.5.9-2.5,1,.4.5.7.9,1,1.3l3.3,4.3h-2.1.1Z"/>
        <path id="path126" class="cls-3" d="M183.4,283.4c-.2-.5-.4-1.1-.5-1.7h0c-.2.6-.3,1.1-.5,1.6l-1.6,4.6h4.3l-1.6-4.5h0ZM186.5,292.1l-1-2.8h-5.1l-1,2.8h-1.7l4.4-12.1h1.9l4.4,12.1h-1.9Z"/>
        <path id="path128" class="cls-3" d="M193.1,287.7v4.4h-1.7v-4.4l-3.8-7.7h1.8l1.9,4.1c.3.7.6,1.4.9,2.1h0c.2-.5.5-1.3,1-2.3l1.9-3.9h1.7l-3.9,7.7h.2Z"/>
        <path id="path130" class="cls-3" d="M202.7,287.7v4.4h-1.7v-4.4l-3.8-7.7h1.8l1.9,4.1c.3.7.6,1.4.9,2.1h0c.2-.5.5-1.3,1-2.3l1.9-3.9h1.7l-3.9,7.7h.2Z"/>
        <path id="path132" class="cls-3" d="M211.3,283.4c-.2-.5-.4-1.1-.5-1.7h0c-.2.6-.3,1.1-.5,1.6l-1.6,4.6h4.3l-1.6-4.5h0ZM214.4,292.1l-1-2.8h-5.2l-1,2.8h-1.7l4.4-12.1h1.9l4.4,12.1h-1.8,0Z"/>
        <path id="path134" class="cls-3" d="M225.3,292.1l-4.7-7.8c-.5-.9-1-1.7-1.3-2.4,0,1.5.1,3.7.1,6.8v3.4h-1.6v-12.1h2.2l4.6,7.6c.5.8.9,1.6,1.3,2.5,0-2.3-.1-4.7-.1-7v-3.1h1.6v12.1h-2.2,0Z"/>
        <path id="path136" class="cls-3" d="M239.5,291.2c-.8.7-1.9,1-3.3,1s-1.9-.1-2.7-.3l.2-1.6c.8.3,1.7.5,2.6.5s1.4-.2,1.8-.5c.5-.4.8-.9.8-1.6s-.3-1.1-.9-1.5c-.3-.2-.9-.5-1.9-.9-.9-.3-1.5-.7-1.9-1.1-.6-.5-.9-1.3-.9-2.1s.4-1.8,1.1-2.5c.8-.7,1.8-1,3.1-1s1.5,0,2.2.2l-.2,1.5c-.7-.2-1.4-.3-2.1-.3-1.6,0-2.4.6-2.4,1.9s.3,1,.9,1.4c.2.2.9.5,1.9.9.9.4,1.5.7,1.9,1.1.6.5.9,1.2.9,2.1s-.4,2-1.2,2.7"/>
        <path id="path138" class="cls-3" d="M251.2,291.6c-1,.4-2.2.6-3.3.6-1.9,0-3.3-.6-4.2-1.7-.9-1-1.3-2.4-1.3-4.2s.5-3.5,1.4-4.6c1-1.2,2.5-1.9,4.5-1.9s1.9.1,2.8.4l-.3,1.5c-.9-.3-1.8-.5-2.7-.5-1.3,0-2.3.5-3,1.4-.6.8-.9,2-.9,3.4,0,3.1,1.4,4.7,4.1,4.7s1.8-.2,2.7-.6l.3,1.4h-.1Z"/>
        <path id="path140" class="cls-3" d="M178.5,299.6c-.7-.9-1.6-1.3-2.9-1.3s-2,.4-2.7,1.2c-.7.9-1.1,2-1.1,3.5s.3,2.7.9,3.5c.7.9,1.6,1.4,2.9,1.4s2-.4,2.7-1.2c.8-.9,1.1-2,1.1-3.5s-.3-2.7-.9-3.5M181.9,310.3c-1.1.1-2.2,0-3.2-.4-1.2-.4-2.1-.7-2.8-.7h-.5c-1.8,0-3.1-.5-4.1-1.7-.9-1.1-1.3-2.5-1.3-4.4s.6-3.5,1.7-4.7c1.1-1.1,2.4-1.7,4-1.7s3.1.6,4.1,1.7c.9,1.1,1.3,2.5,1.3,4.4,0,2.8-1,4.6-2.9,5.4.3,0,.9.1,1.6.3.7.2,1.4.3,2,.2v1.5h0Z"/>
        <path id="path142" class="cls-3" d="M189.5,300.4c-.2-.5-.4-1.1-.5-1.7h0c-.2.6-.3,1.1-.5,1.6l-1.6,4.6h4.3l-1.6-4.5h0ZM192.6,309.1l-1-2.8h-5.2l-1,2.8h-1.7l4.4-12.1h1.9l4.4,12.1h-1.9.1Z"/>
        <path id="path144" class="cls-3" d="M201.3,298.4v10.7h-1.7v-10.7h-3.5v-1.4h8.6v1.4h-3.5,0Z"/>
        <path id="path146" class="cls-3" d="M212.3,300.4c-.2-.5-.4-1.1-.5-1.7h0c-.2.6-.3,1.1-.5,1.6l-1.6,4.6h4.3l-1.6-4.5h0ZM215.3,309.1l-1-2.8h-5.2l-1,2.8h-1.7l4.4-12.1h1.9l4.4,12.1h-1.9.1Z"/>
        <path id="path148" class="cls-3" d="M223.7,298.3h-1.1v4.1h1c.9,0,1.5-.2,2-.6s.7-.9.7-1.6c0-1.4-.9-2-2.7-2M226.8,309.1l-4-5.4h-.2v5.4h-1.7v-12.1h3c2.7,0,4.1,1.1,4.1,3.2s-.3,1.8-1,2.4-1.5.9-2.5,1c.4.5.7.9,1,1.3l3.3,4.3h-2.1,0Z"/>
        <path id="path150" class="cls-3" d="M128.8,214.5c-.2.3-.5.4-.8.5-.3,0-.6,0-.9-.3-.3-.2-.5-.5-.5-.8s0-.6.3-.8c.2-.3.5-.4.8-.4s.6,0,.9.3c.3.2.5.5.5.8s0,.6-.2.8M127.1,216.7c-.2.3-.5.4-.8.4s-.6,0-.9-.3c-.3-.2-.5-.5-.5-.8s0-.6.3-.8c.2-.3.5-.4.8-.4s.6,0,.9.3c.3.2.5.5.5.8s0,.6-.3.8M127.6,203c-.4.5-.8.8-1.1,1.1-.4.2-.9.4-1.6.4h-3.3c-.4,0-.7.2-.8.4,0,.1-.2.4-.2.7v.9c0,.3.2.5.3.6.2.1.4.2.6.1.3,0,.6-.2.9-.4.6-.4,1.1-.7,1.5-.8s.7-.2,1.1-.1c.3,0,.7.2,1,.5.8.6,1.1,1.4,1,2.3,0,.9-.6,2.1-1.6,3.3l-2.5,3.1c-.4.5-.9.9-1.5,1.1s-1.2.2-1.8.1c-.6-.1-1.2-.4-1.8-.9-.9-.7-1.6-1.5-2.2-2.4l1.4-1.8c.3.4.6.7.9,1s.7.6,1.2,1c.3.2.6.4,1,.4h1.1c.3-.1.6-.3.8-.6l1.8-2.3c.6-.7.9-1.2,1-1.6,0-.3,0-.6-.2-.8,0-.1-.3-.1-.6,0-.2,0-.5.2-.8.5-.8.6-1.4.9-2,1-.5,0-1.1-.1-1.6-.6-.5-.4-.8-.9-1-1.6s-.3-1.5-.3-2.3.3-1.4.7-1.9c.2-.3.5-.5.8-.7.3-.1.6-.3,1-.3h4.2c.4-.1.7-.3.9-.6h0q0-.1,0,0l1.5,1.1h0c0,.1,0,.1,0,.1Z"/>
        <path id="path152" class="cls-3" d="M133.8,195l-1.4-1.5c-.5-.6-1.1-.9-1.6-1-.5,0-1.1.2-1.7.7-1.1,1-1.4,2.6-.9,4.9l.9,1,4.7-4.1h0ZM126.7,191c-.3.2-.5.3-.8.3s-.6-.2-.8-.5c-.3-.3-.4-.6-.4-.9s0-.6.4-.8.5-.3.8-.3.6.2.8.5c.2.3.4.6.3.9,0,.3,0,.6-.4.8M127.1,203.6h0l-1.2-1.4h0c0-.1,1.5-1.4,1.5-1.4l-4.1-4.7,1.9-1.7,1.9,2.2c-.6-2.2,0-4,1.4-5.3,1-.9,2-1.3,3-1.2,1,0,2,.7,3,1.8l2.7,3-9.9,8.7h-.1Z"/>
        <path id="path154" class="cls-3" d="M141.5,189.5h.1l1.1,1.5h0c0,.1-3.8,2.7-3.8,2.7l-7.3-10.4,2.1-1.4,6.1,8.8,1.7-1.2h0Z"/>
        <path id="path156" class="cls-3" d="M146.3,193.7c-.3.2-.6.2-.9.1-.3,0-.5-.3-.7-.6s-.3-.6-.2-.9c0-.3.2-.5.5-.7s.6-.2.9-.1c.3,0,.5.3.7.6s.3.6.2.9c0,.3-.2.5-.5.7M143.8,195.1c-.3.2-.6.2-.9.1-.3,0-.5-.3-.7-.6s-.3-.6-.2-.9c0-.3.2-.5.5-.7s.6-.2.9-.1c.3,0,.5.3.7.6s.3.6.2.9c0,.3-.2.5-.5.7M142.3,191.4h-.1l-1-1.6h0l2.5-1.5-3.2-5.4,2.1-1.3,4.2,7.1-4.7,2.8h.2Z"/>
        <path id="path158" class="cls-3" d="M153.9,182.7h.1l.8,1.7h0c0,.1-2,1.1-2,1.1v.2c.6,1,.8,2,.5,2.9s-.9,1.6-1.8,2c-.5.3-1,.4-1.5.5h-1.7l.2-1.9h.9c.2,0,.5-.1.8-.3.4-.2.6-.5.7-.9,0-.4,0-.9-.2-1.3l-3.8-7.5,2.2-1.1,2.8,5.6,2-1Z"/>
        <path id="path160" class="cls-3" d="M154.4,184.8h-.1l-.7-1.7h0l1.9-.8-4.1-9.9,2.3-.9,4.8,11.7-4.2,1.8v-.2Z"/>
        <path id="path162" class="cls-3" d="M157,170.1l2.4-.8,4.2,12-2.4.8-4.2-12Z"/>
        <path id="path164" class="cls-3" d="M175.1,169.7c-.3,0-.6,0-.9-.2-.2-.2-.4-.4-.5-.8,0-.4,0-.7.1-.9.2-.2.4-.4.8-.5.3,0,.6,0,.9.2.2.2.4.4.5.8,0,.4,0,.7-.1.9-.2.2-.4.4-.7.5M176.8,181.8c-.9.2-1.8.1-2.5-.1-.7-.3-1.4-.7-1.9-1.3s-.8-1.4-1-2.3c-.1-.6-.2-1.3-.1-1.9,0-.7.1-1.3.3-1.9l2.2-.4v1.9c0,.7,0,1.3.2,1.8.1.8.5,1.4,1,1.8.5.4,1.1.5,1.7.4h.5c.9-.3,1.4-.6,1.7-1.1s.4-1.2.2-2l-1.5-7.5,2.5-.5,1.5,7.5c.6,3-.7,4.8-4,5.4h-.7v.2Z"/>
        <path id="path166" class="cls-3" d="M188.4,174.1h0l.2,1.9h0l-4.6.5-1.4-12.6,2.5-.3,1.2,10.6,2.1-.2h0Z"/>
        <path id="path168" class="cls-3" d="M191.2,173.9h0v1.9q.1,0,0,0l-3,.2h0v-1.9q-.1,0,0,0l3-.2Z"/>
        <path id="path170" class="cls-3" d="M194,173.7h0v1.9c.1,0,0,0,0,0l-3,.2h0v-1.9c-.1,0,0,0,0,0l3-.2Z"/>
        <path id="path172" class="cls-3" d="M196.8,173.7h0v1.9h-3v-1.9h3Z"/>
        <path id="path174" class="cls-3" d="M199.7,173.6h0v1.9h-3v-1.9h3Z"/>
        <path id="path176" class="cls-3" d="M202.5,173.7h0v1.9h-3.1v-2h3.1Z"/>
        <path id="path178" class="cls-3" d="M205.3,173.8h0v1.9h-3.2v-2.1h3.2v.2Z"/>
        <path id="path180" class="cls-3" d="M208.1,174h0v1.9h-.2l-3-.2h0v-1.9h.2l3,.2Z"/>
        <path id="path182" class="cls-3" d="M200.5,180.4c-.3,0-.6-.1-.8-.3s-.3-.5-.3-.9.1-.7.3-.9.5-.3.8-.3.6.1.8.3.3.5.3.9-.1.7-.3.9-.5.3-.8.3M207.7,176h0l.2-1.9h0l2.9.3.7-6.2,2.5.3-.9,8.2-5.4-.6h0ZM197.7,180.4c-.3,0-.6-.1-.8-.3s-.3-.5-.3-.9,0-.7.3-.9c.2-.2.5-.3.8-.3s.6.1.8.3.3.5.3.9-.1.7-.3.9-.5.3-.8.3"/>
        <path id="path184" class="cls-3" d="M222.2,176h0l-.3,1.8h0l-2.1-.4v.3c-.2,1.1-.7,2-1.5,2.5-.7.6-1.6.7-2.7.6-.6,0-1.1-.3-1.5-.5s-.9-.5-1.4-1l1.3-1.4c.3.2.5.4.7.5s.5.2.8.3c.4,0,.8,0,1.2-.3.3-.3.5-.7.6-1.2l1.5-8.3,2.5.4-1.1,6.2,2.1.4h-.1Z"/>
        <path id="path186" class="cls-3" d="M221.5,178h0l.4-1.8h0l2,.5,2.5-10.4,2.4.6-3,12.3-4.5-1.1h.2Z"/>
        <path id="path188" class="cls-3" d="M232.2,167.6l2.4.7-3.6,12.2-2.4-.7,3.6-12.2Z"/>
        <path id="path190" class="cls-3" d="M243.4,190.9c-.3-.1-.5-.4-.6-.6v-.9c.2-.3.4-.6.7-.7s.6,0,.9,0c.3.2.5.4.6.6,0,.3,0,.6-.1.9-.2.3-.4.6-.7.7-.3.1-.6,0-.9,0M240.8,189.6c-.3-.1-.5-.4-.6-.6v-.9c.2-.3.4-.6.7-.7s.6,0,.9,0c.3.1.5.4.6.6,0,.3,0,.6-.1.9-.2.3-.4.6-.7.7h-.9M241.4,185.4c-.6-.3-1-.7-1.4-1.2s-.5-1.1-.5-1.7.1-1.3.5-2c.5-1,1.1-1.9,1.9-2.7l2,1c-.3.4-.6.7-.8,1.1-.2.4-.5.8-.7,1.4-.2.3-.2.7-.2,1.1s.1.7.3,1,.4.5.7.7l2.6,1.2c.8.4,1.4.6,1.8.6s.7-.1.9-.4c0-.2.1-.4,0-.7,0-.2-.2-.5-.4-.9-.3-.5-.6-1-1-1.6s-.6-1.1-.7-1.5c0-.4,0-.7.1-1.1.3-.6.9-1.1,1.8-1.6.9-.5,1.8-.8,2.8-.9,1-.1,1.8,0,2.5.3.2.1.5.3.7.5s.5.6.8,1.1l-1.6,1.3c-.1-.2-.3-.4-.5-.6-.2-.2-.3-.3-.5-.4-.3-.1-.7-.2-1.3,0-.6,0-1.1.2-1.5.4s-.7.4-.8.7v.7c0,.3.3.7.7,1.2.3.5.6,1,.9,1.6.3.6.4,1.1.5,1.5,0,.4,0,.8-.1,1.2-.4.9-1.2,1.4-2.1,1.5-1,0-2.2-.2-3.7-.9l-3.6-1.7v-.2Z"/>
        <path id="path192" class="cls-3" d="M252.2,187.4l4.8,3c.3-1,.5-1.8.6-2.6,0-.7,0-1.4-.2-2.1-.2-.7-.5-1.3-1-2l2-1.5c.9,1.3,1.5,2.7,1.6,4.3s-.2,3.3-.9,5.2l-1,1.6-6.9-4.3,1.1-1.7h-.1Z"/>
        <path id="path194" class="cls-3" d="M264.6,195.8h0c0,.1-1.1,1.6-1.1,1.6h-.1l-3.7-2.7,7.6-10.2,2,1.5-6.4,8.6,1.7,1.3h0Z"/>
        <path id="path196" class="cls-3" d="M266.7,197.6h0c0,.1-1.2,1.5-1.2,1.5h-.1l-2.3-1.9h0c0-.1,1.2-1.5,1.2-1.5h.1l2.3,1.9Z"/>
        <path id="path198" class="cls-3" d="M268.9,199.4h0c0,.1-1.2,1.5-1.2,1.5h-.1l-2.3-2h0c0-.1,1.2-1.5,1.2-1.5h.1l2.3,2Z"/>
        <path id="path200" class="cls-3" d="M270.9,201.4h0c0,.1-1.3,1.5-1.3,1.5h-.1l-2.2-2.1h0c0-.1,1.3-1.5,1.3-1.5h.1l2.2,2.1Z"/>
        <path id="path202" class="cls-3" d="M272.9,203.3h0c0,.1-1.3,1.4-1.3,1.4h-.1l-2.2-2.1h0c0-.1,1.3-1.4,1.3-1.4h.1l2.2,2.1Z"/>
        <path id="path204" class="cls-3" d="M274.8,205.4h0c0,.1-1.4,1.4-1.4,1.4h-.1l-2.1-2.2h0c0-.1,1.4-1.4,1.4-1.4h.1l2.1,2.2Z"/>
        <path id="path206" class="cls-3" d="M276.7,207.5h0c0,.1-1.4,1.3-1.4,1.3h-.1l-2-2.3h0c0-.1,1.4-1.3,1.4-1.3h.1l2,2.3Z"/>
        <path id="path208" class="cls-3" d="M278.5,209.7h0c0,.1-1.4,1.3-1.4,1.3h-.1l-1.9-2.3h0c0-.1,1.4-1.3,1.4-1.3h.1l1.9,2.3Z"/>
        <path id="path210" class="cls-3" d="M276.4,197.7c-.2-.3-.3-.6-.2-.9,0-.3.2-.5.5-.8.3-.2.6-.3.9-.3s.5.2.8.5c.2.3.3.6.2.8,0,.3-.2.5-.5.8-.3.2-.6.3-.9.3s-.5-.2-.7-.5M276.7,210.6h0c0-.1,1.5-1.2,1.5-1.2h.1l1.3,1.7,5-3.7,1.5,2-6.6,4.9-2.7-3.7h0Z"/>
      </g>
    </g>
  </g>
</svg>