<?xml version="1.0" encoding="UTF-8"?>
<svg id="Camada_1" data-name="Camada 1" xmlns="http://www.w3.org/2000/svg" viewBox="0 0 1000 1000">
  <defs>
    <style>
      .cls-1 {
        fill: #201b1b;
      }

      .cls-1, .cls-2, .cls-3, .cls-4, .cls-5, .cls-6, .cls-7, .cls-8, .cls-9, .cls-10, .cls-11, .cls-12, .cls-13, .cls-14, .cls-15, .cls-16, .cls-17, .cls-18, .cls-19, .cls-20, .cls-21, .cls-22, .cls-23, .cls-24, .cls-25, .cls-26, .cls-27, .cls-28 {
        fill-rule: evenodd;
        stroke-width: 0px;
      }

      .cls-2 {
        opacity: .97;
      }

      .cls-2, .cls-3, .cls-5, .cls-21, .cls-27 {
        fill: #9d9d9d;
      }

      .cls-2, .cls-3, .cls-6, .cls-7, .cls-10, .cls-12, .cls-21, .cls-29, .cls-23, .cls-24, .cls-25, .cls-26, .cls-30, .cls-27 {
        isolation: isolate;
      }

      .cls-3, .cls-30 {
        opacity: .95;
      }

      .cls-4 {
        fill: #957147;
      }

      .cls-6 {
        fill: #181313;
        opacity: 1;
      }

      .cls-7 {
        fill: #a7a6a6;
        opacity: .99;
      }

      .cls-8, .cls-25 {
        fill: #191414;
      }

      .cls-9 {
        fill: #fafafa;
      }

      .cls-10 {
        fill: #1a1514;
      }

      .cls-10, .cls-12 {
        opacity: 1;
      }

      .cls-11 {
        fill: #6c6969;
      }

      .cls-12 {
        fill: #181414;
      }

      .cls-13 {
        fill: #957248;
      }

      .cls-14 {
        fill: #957247;
      }

      .cls-15 {
        fill: #937045;
      }

      .cls-16 {
        fill: #f0ece6;
      }

      .cls-17 {
        fill: #f2ede8;
      }

      .cls-18 {
        fill: #211b1b;
      }

      .cls-19 {
        fill: #211c1c;
      }

      .cls-20 {
        fill: #fbfaf8;
      }

      .cls-21 {
        opacity: .79;
      }

      .cls-29, .cls-25, .cls-27 {
        opacity: 1;
      }

      .cls-22 {
        fill: #f8f8f8;
      }

      .cls-23 {
        fill: #1a1515;
        opacity: 1;
      }

      .cls-24 {
        fill: #b5b5b5;
        opacity: .94;
      }

      .cls-26 {
        fill: #bababa;
        opacity: .91;
      }

      .cls-28 {
        fill: #221c1c;
      }
    </style>
  </defs>
  <path class="cls-1" d="M491.79,44.73c160.04,3.75,271.8,78.56,335.29,224.45,16.98,52.15,23.45,105.72,19.4,160.72-26.49,159.51-117.94,260.18-274.33,302.04-163.01,24.23-287.7-33.04-374.08-171.8-2.03-3.35-2.96-7.04-2.77-11.08,8.25-1.58,16.1-4.35,23.55-8.31,80.1,132.17,196.95,186.21,350.53,162.1,139.81-39.13,222.47-130.11,248-272.94,9.35-155.46-55.76-266.76-195.35-333.9-70.11-27.31-141.23-30.55-213.36-9.7-5.24-7.68-9.86-15.99-13.85-24.94,1.27-2.21,3.11-3.13,5.54-2.77,29.72-9.16,60.2-13.78,91.44-13.85Z"/>
  <g class="cls-29">
    <path class="cls-21" d="M430.83,44.73c-5.58,3.95-12.05,5.79-19.4,5.54,5.58-3.95,12.05-5.79,19.4-5.54Z"/>
  </g>
  <g class="cls-30">
    <path class="cls-27" d="M508.41,39.18c-5.54,1.85-11.08,3.69-16.63,5.54-31.24.07-61.72,4.69-91.44,13.85-1.96-2.5-4.74-3.43-8.31-2.77,5.58-3.95,12.05-5.79,19.4-5.54s13.81-1.6,19.4-5.54c25.63-4.5,51.49-6.35,77.59-5.54Z"/>
  </g>
  <path class="cls-9" d="M392.03,55.81c3.58-.66,6.35.27,8.31,2.77-2.43-.36-4.28.56-5.54,2.77,4,8.95,8.62,17.26,13.85,24.94,72.13-20.85,143.26-17.61,213.36,9.7,139.59,67.14,204.71,178.44,195.35,333.9-25.53,142.83-108.2,233.81-248,272.94-153.58,24.1-270.42-29.93-350.53-162.1-7.45,3.96-15.3,6.73-23.55,8.31-.19,4.04.74,7.74,2.77,11.08h-8.31c-5.37-9.82-9.99-19.98-13.85-30.48.78-3.54,2.63-6.31,5.54-8.31,60.63-25.46,121.13-51.33,181.5-77.59-22.87-83.81,3.45-147.07,78.97-189.81-25.36-60.4-50.3-120.9-74.82-181.5-1.85-1.85-3.69-3.69-5.54-5.54,9.13-5.82,19.29-9.52,30.48-11.08Z"/>
  <path class="cls-18" d="M367.09,72.44c24.52,60.6,49.46,121.1,74.82,181.5-75.52,42.74-101.84,106.01-78.97,189.81-60.37,26.26-120.87,52.12-181.5,77.59-2.76.08-4.61-1.3-5.54-4.16-10.3-28.75-17.69-57.85-22.17-87.29v-19.4c-2.38-146.3,59.51-255.76,185.65-328.36,9.02-4.08,18.26-7.32,27.71-9.7Z"/>
  <path class="cls-28" d="M472.39,100.15c147.78-3.08,248.92,63.42,303.42,199.51,34.08,124.97,3.13,230.73-92.83,317.28-85.13,62.57-178.42,78.27-279.87,47.11-67.22-26.6-118.95-70.94-155.17-133.01,6.82-5.69,14.67-9.85,23.55-12.47,79.48,119.36,188.01,157.69,325.59,115,105.76-48,160.26-130.21,163.49-246.62-10.23-138.62-83.2-223.6-218.91-254.93-38.28-2.5-76.15-.65-113.61,5.54-3.29-7.98-6.99-15.83-11.08-23.55,18.36-6.42,36.83-11.04,55.42-13.85Z"/>
  <path class="cls-22" d="M344.93,111.23c2.76-.24,5.07.69,6.93,2.77,3.61,6.76,6.84,13.69,9.7,20.78-115.82,71.38-163.85,174.37-144.09,308.96,8.02-3.44,15.87-7.13,23.55-11.08-11.85-94.95,17.24-174.85,87.29-239.69,13.65-11.33,28.43-21.03,44.34-29.1,11.45,26.14,22.54,52.47,33.25,78.97-63.06,45.34-89.39,106.76-78.97,184.27-7.31,4.81-15.16,8.5-23.55,11.08-13.72-55.17-5.86-106.89,23.55-155.17,13.31-17.93,27.63-35.02,42.95-51.26-2.91-8.3-6.61-16.15-11.08-23.55-76.33,62.2-104.04,141.63-83.13,238.3-.92,1.85-1.85,3.69-2.77,5.54-25.45,11.7-51.31,21.4-77.59,29.1-37.14-158.89,12.74-282.2,149.63-369.92Z"/>
  <g class="cls-30">
    <path class="cls-2" d="M508.41,39.18c157.55,9.01,265.62,86.6,324.2,232.76-1.85-.92-3.69-1.85-5.54-2.77-63.49-145.88-175.25-220.7-335.29-224.45,5.54-1.85,11.08-3.69,16.63-5.54Z"/>
  </g>
  <path class="cls-3" d="M361.55,66.89c1.85,1.85,3.69,3.69,5.54,5.54-9.45,2.38-18.69,5.61-27.71,9.7-126.15,72.6-188.03,182.06-185.65,328.36-1.85-13.85-3.69-27.71-5.54-41.56v-22.17c20.03-122.74,84.69-213.72,193.97-272.94,6.52-2.35,12.99-4.66,19.4-6.93Z"/>
  <path class="cls-19" d="M472.39,158.34c115.77-4.74,197.51,45.14,245.23,149.63,32.99,106.05,7.59,195.18-76.2,267.4-70.39,49.05-146.12,59.21-227.22,30.48-48.59-20.42-86.46-53.21-113.61-98.37,8.55-5.77,17.78-9,27.71-9.7,63.5,89.56,147.55,116.35,252.16,80.36,91.25-46.24,131.43-120.59,120.54-223.06-32.46-117.41-109.59-172.37-231.38-164.87-6.27.65-12.28,2.04-18.01,4.16-5.18-8.6-8.41-17.84-9.7-27.71,10.8-1.54,20.96-4.31,30.48-8.31Z"/>
  <path class="cls-11" d="M519.5,219.3c-8.9-.86-17.22.06-24.94,2.77-1.5-.17-2.43-1.09-2.77-2.77,9.64-3.62,18.88-3.62,27.71,0Z"/>
  <path class="cls-28" d="M519.5,219.3c78.41,12.37,128.75,56.71,151.02,133.01,13.49,97.31-24.84,165.2-115,203.67-82.85,21.8-149.35-1.75-199.51-70.66,7.54-7.9,16.78-11.14,27.71-9.7,53.8,64.69,118.45,77.63,193.97,38.79,67.44-50.36,84.53-114.55,51.26-192.58-28.04-47.98-70.07-72.92-126.08-74.82-1.98-8.57-4.75-16.89-8.31-24.94,7.72-2.71,16.04-3.63,24.94-2.77Z"/>
  <path class="cls-24" d="M827.07,269.17c1.85.92,3.69,1.85,5.54,2.77,8.7,24.64,15.17,49.58,19.4,74.82v88.67c-1.85,0-2.77.92-2.77,2.77-2.5-1.96-3.43-4.74-2.77-8.31,4.05-55-2.41-108.57-19.4-160.72Z"/>
  <path class="cls-15" d="M439.14,371.7h13.85v44.34h-8.31v-36.02c-2.92.41-5.69-.05-8.31-1.39,2.08-1.86,3.01-4.17,2.77-6.93Z"/>
  <path class="cls-13" d="M475.16,371.7c16.62-1.38,22.63,6.01,18.01,22.17-3.46,7.84-7.61,15.23-12.47,22.17-2.77-.92-4.62-2.77-5.54-5.54,4.02-3.74,5.87-8.36,5.54-13.85-10.09-2.44-13.33-8.91-9.7-19.4,1.99-1.51,3.37-3.36,4.16-5.54Z"/>
  <path class="cls-14" d="M541.66,371.7c5.62-.45,11.16.01,16.63,1.39,3.86,2.65,5.71,6.34,5.54,11.08-3.22,11.52-8.3,22.14-15.24,31.87-4.38-5.43-3.91-10.97,1.39-16.63-14.64-5.8-17.41-15.04-8.31-27.71Z"/>
  <path class="cls-4" d="M516.73,371.7c6.55,4.39,6.55,9.47,0,15.24,10.29,4.69,13.52,12.54,9.7,23.55-7.39,7.39-14.78,7.39-22.17,0-.46-2.77-.92-5.54-1.39-8.31,2.39-11.25,7.01-21.41,13.85-30.48Z"/>
  <path class="cls-20" d="M477.93,380.01h8.31c-2.77,14.78-5.54,14.78-8.31,0Z"/>
  <path class="cls-16" d="M544.44,380.01h11.08c.77,5.12-1.08,8.81-5.54,11.08-4.46-2.27-6.31-5.97-5.54-11.08Z"/>
  <path class="cls-5" d="M148.19,368.93c1.85,13.85,3.69,27.71,5.54,41.56v19.4c.66,3.58-.27,6.35-2.77,8.31,0-1.85-.92-2.77-2.77-2.77v-66.5Z"/>
  <path class="cls-17" d="M511.18,396.64c5.12-.77,8.81,1.08,11.08,5.54-2.27,4.46-5.97,6.31-11.08,5.54v-11.08Z"/>
  <path class="cls-5" d="M153.73,429.89c4.47,29.44,11.86,58.53,22.17,87.29.93,2.85,2.78,4.24,5.54,4.16-2.91,2-4.76,4.77-5.54,8.31-13.29-28.84-21.61-59.32-24.94-91.44,2.5-1.96,3.43-4.74,2.77-8.31Z"/>
  <path class="cls-7" d="M846.47,429.89c-.66,3.58.27,6.35,2.77,8.31-20.97,130.17-91.16,223-210.59,278.48-19.62,8.54-39.94,14.54-60.96,18.01-.95-2.32-2.79-3.25-5.54-2.77,156.39-41.85,247.83-142.53,274.33-302.04Z"/>
  <path class="cls-26" d="M189.75,560.13h8.31c86.38,138.76,211.07,196.03,374.08,171.8,2.75-.48,4.59.45,5.54,2.77-142.76,27.22-261.45-14.34-356.07-124.69-11.34-16.24-21.97-32.86-31.87-49.88Z"/>
  <path class="cls-23" d="M630.34,781.8c5.68,5.8,12.15,10.88,19.4,15.24-4.39,18.63-6.69,37.57-6.93,56.8-2.32,5.13-4.63,10.21-6.93,15.24-81.28,1.85-162.56,1.85-243.84,0-3.96-1.29-7.2-3.6-9.7-6.93-3.93,2.66-8.09,4.97-12.47,6.93-12.93,1.85-25.86,1.85-38.79,0-10.39-7.65-10.85-16.42-1.39-26.32,2.08,1.73,4.39,3.12,6.93,4.16,10.12,1.38,20.28,1.84,30.48,1.39.41-2.92-.05-5.69-1.39-8.31-11.06-8.92-14.75-19.08-11.08-30.48,6.42,1.2,11.96,3.97,16.63,8.31,4.38,9.68,9.46,18.92,15.24,27.71,44.3,2.77,88.63,3.69,133.01,2.77-.14-7.2-2.91-13.21-8.31-18.01,8.27-20.19,16.12-19.73,23.55,1.39,1.37,5.47,1.83,11.01,1.39,16.63,4.71.44,9.33-.02,13.85-1.39-2.25-5.83-5.02-11.37-8.31-16.63,6.71-19.65,13.63-19.18,20.78,1.39,1.37,5.47,1.83,11.01,1.39,16.63,4.95.79,9.57-.13,13.85-2.77-2.44-5.35-5.21-10.43-8.31-15.24,5.15-19.42,12.08-19.88,20.78-1.39.76,4.44,2.14,8.59,4.16,12.47-1.27,1.15-2.19,2.53-2.77,4.16,11.87,2.75,23.87,3.67,36.02,2.77,1.45-17.26-.4-33.89-5.54-49.88,2.74-5.53,5.51-11.07,8.31-16.63Z"/>
  <path class="cls-6" d="M671.9,781.8c5.39,22.44,6.78,45.53,4.16,69.27-2.47,9.57-7.09,17.88-13.85,24.94-3.42-25.79-4.34-51.66-2.77-77.59,4.85-5.13,9.01-10.67,12.47-16.63Z"/>
  <path class="cls-25" d="M386.49,973h-22.17c-1.84-6.38-3.68-12.85-5.54-19.4-4.28-2.64-8.9-3.56-13.85-2.77-.92,7.39-1.85,14.78-2.77,22.17h-13.85c6.46-29.54,12.93-59.1,19.4-88.67,6.35-.71,12.36.21,18.01,2.77,6.5,28.78,13.43,57.42,20.78,85.9ZM350.47,925.89c5.44,1.24,6.37,4.01,2.77,8.31-2.45-2.29-3.38-5.06-2.77-8.31Z"/>
  <path class="cls-8" d="M441.91,973h-49.88v-88.67h19.4v72.05h30.48v16.63Z"/>
  <path class="cls-8" d="M494.56,973h-38.79v-16.63h24.94v-11.08c-8.9,1.35-16.75-.5-23.55-5.54-1.85-15.7-1.85-31.4,0-47.11,1.39-3.23,3.69-5.54,6.93-6.93,11.05-1.38,22.13-1.85,33.25-1.39v16.63h-22.17v11.08c7.26-.74,14.18.18,20.78,2.77,2.2,19.62,1.74,39.02-1.39,58.19Z"/>
  <path class="cls-25" d="M561.06,973h-22.17c-1.55-6.38-2.94-12.84-4.16-19.4-4.71-2.51-9.79-3.43-15.24-2.77-.92,7.39-1.85,14.78-2.77,22.17h-13.85c7.17-29.39,13.64-58.94,19.4-88.67,6.35-.71,12.36.21,18.01,2.77,7.38,28.58,14.3,57.21,20.78,85.9ZM525.04,925.89c5.44,1.24,6.37,4.01,2.77,8.31-2.46-2.29-3.38-5.06-2.77-8.31Z"/>
  <path class="cls-12" d="M613.71,973h-41.56v-88.67c12.97-.46,25.89,0,38.79,1.39,3.33,2.5,5.64,5.73,6.93,9.7,1.85,23.09,1.85,46.18,0,69.27-1.42,2.85-2.81,5.62-4.16,8.31ZM591.54,900.95c1.8.84,3.65,1.77,5.54,2.77,2.76,17.45,3.69,35,2.77,52.65h-8.31v-55.42Z"/>
  <path class="cls-10" d="M669.13,973h-38.79v-88.67c12.97-.46,25.89,0,38.79,1.39,1.73,2.08,3.12,4.39,4.16,6.93,1.85,24.94,1.85,49.88,0,74.82-1.99,1.51-3.37,3.36-4.16,5.54ZM646.96,900.95c4.2.03,7.44,1.88,9.7,5.54,1.85,15.7,1.85,31.4,0,47.11-2.8,2.32-6.04,3.24-9.7,2.77v-55.42Z"/>
</svg>