<?xml version="1.0" encoding="UTF-8"?>
<svg xmlns="http://www.w3.org/2000/svg" xmlns:xlink="http://www.w3.org/1999/xlink" version="1.1" viewBox="0 0 800 800">
  <defs>
    <style>
      .cls-1 {
        fill: url(#linear-gradient-2);
      }

      .cls-2 {
        fill: url(#linear-gradient);
      }

      .cls-3 {
        fill: #fff;
      }
    </style>
    <linearGradient id="linear-gradient" x1="53.1" y1="402.3" x2="752.9" y2="402.3" gradientUnits="userSpaceOnUse">
      <stop offset="0" stop-color="#a44324"/>
      <stop offset=".5" stop-color="#ff7c62"/>
      <stop offset=".9" stop-color="#a44324"/>
    </linearGradient>
    <linearGradient id="linear-gradient-2" x1="160.8" y1="402.3" x2="645.3" y2="402.3" xlink:href="#linear-gradient"/>
  </defs>
  <!-- Generator: Adobe Illustrator 28.6.0, SVG Export Plug-In . SVG Version: 1.2.0 Build 709)  -->
  <g>
    <g id="Layer_1">
      <path class="cls-3" d="M403,18C190.8,18,18.7,190.1,18.7,402.3s172.1,384.3,384.3,384.3,384.3-172.1,384.3-384.3S615.3,18,403,18Z"/>
      <path d="M403,18C190.8,18,18.7,190.1,18.7,402.3s172.1,384.3,384.3,384.3,384.3-172.1,384.3-384.3S615.3,18,403,18ZM403,769.2c-202.6,0-366.8-164.2-366.8-366.8S200.4,35.5,403,35.5s366.8,164.2,366.8,366.8-164.2,366.8-366.8,366.8Z"/>
      <path class="cls-2" d="M403,52.4c-193.2,0-349.9,156.7-349.9,349.9s156.7,349.9,349.9,349.9,349.9-156.7,349.9-349.9S596.3,52.4,403,52.4ZM403,744.9c-189.2,0-342.6-153.4-342.6-342.6S213.8,59.7,403,59.7s342.6,153.4,342.6,342.6-153.4,342.6-342.6,342.6Z"/>
      <path class="cls-1" d="M403,160.1c-133.8,0-242.3,108.5-242.3,242.3s108.5,242.3,242.3,242.3,242.3-108.5,242.3-242.3-108.5-242.3-242.3-242.3ZM403,626.1c-123.6,0-223.8-100.2-223.8-223.8s100.2-223.8,223.8-223.8,223.8,100.2,223.8,223.8-100.2,223.8-223.8,223.8Z"/>
      <path d="M402.8,110.5c-.7,12.5-1.1,22.9-.8,23.2s5.1.8,10.8,1.1c11.5.7,20.3-1.5,22.6-5.7,3.2-5.8.2-15.5-5.1-17.2-1.1-.4-.4-1.6,2.1-3.6,2.9-2.5,3.6-4.1,3.6-8.1,0-8.9-6.3-12.1-23.8-12.3h-7.9l-1.5,22.7ZM426.6,98.4c3.8,5.2,0,8.9-9.1,8.9h-6.7l.7-3.8c.4-2.1.7-5,.7-6.3,0-2.2.5-2.3,6.4-1.7,3.9.5,6.9,1.6,7.9,2.9ZM426.7,116.2c2.3,1.5,1.6,9-1,10.4-2.8,1.5-14.3,1.7-15,.2-.4-.5-.4-3.6,0-7l.6-6.1,7,.8c3.9.5,7.6,1.2,8.4,1.6ZM364.5,92.9c-2.8,6.8-14.6,44.6-14,45.1.2.2,2.3.1,4.5-.1,3.5-.6,4.1-1.3,5.3-5.9,1.6-5.8,2.3-6.2,15.5-6.8,6.6-.4,6.7-.2,9.1,4.1,2.2,4,2.9,4.6,7,4.6s4.5-.4,4.5-1-5.3-10.4-11.9-22.1c-10.4-18.7-12.3-21.2-15.2-21.6-2.8-.4-3.6.2-5,3.6ZM374.1,108.4c2.3,4.6,4.2,8.6,4.2,9s-3,.7-6.7,1c-3.9.2-6.7-.1-6.7-.8,0-1.6,4.1-17.6,4.5-17.6s2.3,3.8,4.6,8.5ZM313.8,99.8c-4.5,1.2-9,2.5-9.9,2.9-1.5.6-1.2,2.8,1.8,13.8,1.9,7.2,4.7,17.3,6.1,22.6,2.1,7.5,3,9.3,4.6,8.9,16.5-4.7,20-6.1,23.8-9.5,5.7-5,5.9-11.5.7-16.9-1.9-1.9-4.7-3.5-6.2-3.5h-2.5l2.7-3.5c2.1-2.8,2.4-4.5,1.8-7.8-1.6-8.5-9-10.8-22.8-7ZM326.3,106c1.5.8,2.3,2.5,2.3,5s-.7,4-4.2,5.5c-7.9,3.3-9.2,2.9-11-3.2-.8-2.9-1.5-5.5-1.3-5.6s2.7-.7,5.7-1.5c3-.6,5.6-1.2,5.8-1.3s1.5.5,2.8,1.1ZM333.9,124.9c4.4,4.2,1.6,9.8-6.4,12.5-6.3,2.1-7.2,1.7-8.5-3.3-2.2-7.6-1.8-8.4,4.5-9.7,8.1-1.7,8.4-1.7,10.4.5ZM479.9,100c-13.1,4.1-21.2,22.8-15,34.6,5.8,11.3,21.2,17.2,31.3,12.1,3.4-1.8,3.5-1.9,1.6-4.9-2.3-3.5-2.4-3.5-7.5-1.7-8.1,2.8-17.1-3.4-18.1-12.6-1.3-11.8,4.1-19.2,14.7-20,6.2-.5,6.9-.2,10.6,3.4,3.8,3.6,4.1,3.8,7.5,2.2l3.5-1.7-3.3-3.9c-1.8-2.2-4.9-4.7-6.7-5.7-4.2-2.2-14.3-3.3-18.6-1.8ZM519.2,116c-1.2,2.9-5.6,12.5-9.7,21.5-4.1,9-7.3,16.4-7.2,16.5.2,0,5.9,2.7,12.7,5.8l12.5,5.6,1.8-3.4,1.7-3.5-9-3.9c-5-2.2-9.1-4.1-9.1-4.4s3.5-8.1,7.9-17.7c4.4-9.5,7.9-17.3,7.9-17.6s-1.7-1.2-3.6-2.2l-3.6-1.9-2.3,5.2ZM267.5,117.1c-2.1,1.2-2.2,2.9-1.3,26.3.5,13.8,1,25.2,1.1,25.5.2.2,2.1-.5,4.1-1.6,3.4-1.7,3.8-2.4,3.8-7.8v-5.8l8.3-3.9c4.6-2.1,8.9-3.8,9.3-3.8s2.8,1.7,5,3.8l3.9,3.8,4.2-2.3,4.4-2.2-18.7-16.7c-10.3-9.1-19.4-16.6-20.3-16.6s-2.5.6-3.8,1.3ZM280.7,143.1c-3.3,1.6-6.1,2.7-6.2,2.5s-.6-4.6-1-9.9l-.8-9.7,7,7.2,7,7.2-6.1,2.8ZM554.5,133c-1.2,2.2-5.5,8.9-9.2,14.8-7.9,12.5-8.7,18.1-4,25.1,3,4.7,11.8,9.6,17,9.6,7.8,0,11.6-3.4,21.7-18.7l9.5-14.7-2.8-2.1c-1.5-1.2-3-2.2-3.5-2.2s-5,6.3-9.9,14c-9.5,14.4-11.8,16.3-18.3,14.7-4.2-1.1-7.9-5.5-7.9-9.7s2.8-7.9,8.5-16.6c4.7-7.2,8.5-13.3,8.5-13.8,0-1.2-3.9-4.1-5.7-4.2-.7,0-2.4,1.8-3.8,3.9ZM232.7,136.1l-2.8,2.3,5.2,7.4c2.9,4.1,5.1,7.6,4.7,7.9-3.4,2.5-16.9,11.8-17.2,11.8s-2.8-3.3-5.6-7.3l-5.1-7.3-3.5,2.1c-1.9,1.1-3.2,2.5-2.8,3.3,1.8,3,22.7,33,24.4,34.9s2.1,1.9,5.2.1l3.3-1.9-5.8-8.7-5.9-8.7,9-6.2,9-6.2,5.7,8.1c3.2,4.5,5.9,8.4,6.1,8.5.7,1,6.4-4.1,6.1-5.2-.7-2.2-25-36.4-26.1-36.8-.5-.1-2.2.7-3.8,1.9ZM587.1,176.6l-16,17.3,7,6.6c3.9,3.5,8.7,7.5,10.7,8.7,4,2.5,10.4,3,14.1,1.1,3.6-2.1,6.3-8.3,5.3-12.9-.7-4-.6-4.1,3.5-4.1s4.9-.8,7.3-3.8c5.5-6.4,3.9-10.9-8.1-22.7l-7.8-7.8-16,17.5ZM613.7,181.7c0,2.4-3.4,5.6-5.9,5.6s-4.2-1.8-6.9-4.1l-4.7-4.1,4.2-4.5,4.2-4.4,4.6,4.9c2.4,2.7,4.5,5.7,4.5,6.7ZM597.1,190.5c2.4,2.8,4.5,6.1,4.5,7.4,0,6.3-7.5,7-14.2,1.3-2.5-2.2-4.9-4.1-5.1-4.2-.7-.6,8.7-10.2,9.6-9.8.5.2,2.8,2.7,5.2,5.3ZM188.3,169.8c-11.8,5.7-15.4,19.7-7.2,26.8,4,3.5,9.5,3.5,17,.4,9-3.9,14-2.8,14,2.9-.1,4.6-5.6,9.2-10.8,9.2s-2.5.7-2.5,4.2.4,4.2,3.4,4.2c7.9,0,18.4-10.9,18.4-18.9s-3.9-10.7-8.5-12.6c-3.6-1.6-5-1.3-14.2,1.9-10.1,3.4-10.3,3.4-12,1.1-1-1.2-1.7-3-1.7-4,0-2.3,6.7-8.7,9-8.7s1.9-1.2,1.9-4.2c0-4.7-1.1-5.1-6.8-2.3Z"/>
      <path d="M332.7,255.6c21.6,14.1,39.6,34.5,49.3,55.8,10.3,22.8,14.3,52.5,9.9,73.3-.7,3.4-2.2,4.5-13,9.9-34.2,17.1-59,49.1-67,86.4-2.4,11.8-2.9,46.8-.6,52,1.2,2.7,1.3,2.4,1.3-3.2.1-8.9,3.2-25.1,6.6-35.1,6.2-18.2,15.2-33,28.6-47.1,13.7-14.3,29.7-25.1,45.5-30.7,4.7-1.7,5-1.7,9.7,1.8,21.5,15.4,43.9,23.1,70.2,24.1,17.3.6,29-.8,43.9-5.5,15.4-4.9,35.9-16.1,42.3-23.3,2.1-2.3,1.5-2.2-5.7,1.1-40.8,18.4-88.7,14.3-125.2-11-5-3.4-9.5-6.8-10.1-7.5-.6-.8-.6-5.8-.1-11.2,4.6-50.1-23.7-100.9-68.9-123.6-7.5-3.8-20.1-8.6-16.9-6.4Z"/>
      <path d="M409.9,264.6c21.2,15.2,37,33.4,46.6,53.9,9,19,10.8,28.3,11,55.1l.4,23.1,11.9,3.3c6.6,1.8,12.3,3,12.6,2.7s.6-9.8.6-20.9c-.1-17.1-.6-21.8-2.9-30.6-9.7-36.3-36.8-68.9-69.6-83.6-4.2-1.9-9-3.8-10.7-4.2l-2.9-.8,3,2.2Z"/>
      <path d="M351.9,323.8c-9.2,4.2-25.2,14.9-33.4,22.3-15.3,14.1-30.3,38.8-35.9,59.4-3.9,14.1-5.3,31.7-3.8,45.6.7,6.7,1.5,12.3,1.7,12.5.4.2.8-2.8,1.3-6.7,5.1-43.3,23.2-73.6,57.3-96.2,6.8-4.5,15.9-9.7,20.1-11.5l7.9-3.3-3.3-12.3c-1.8-6.7-3.8-12.4-4.4-12.5-.7-.2-4.1,1-7.6,2.5Z"/>
      <path d="M94.4,378.6c-1,.4-4.1,2.5-7,4.9-5,4.1-5.1,4.4-3.2,6.6,1.8,2.1,2.3,2.2,4.1.5,1.1-1,2.4-1.8,2.8-1.8s.8,6.8.8,15.2v15.2h7.3l-.2-20.3c-.2-12.1-.8-20.3-1.6-20.5-.6-.1-2.1,0-3,.4ZM119.2,379c-3.9,1.6-7.8,7.2-7.8,11.2,0,7.4,5,13.1,11.4,13.1s4,1.2-1.1,9.1l-4.2,6.7h4c3.6,0,4.4-.7,10.9-11.8,8.6-14.6,9.1-19,2.8-25.4s-5.1-4.1-8.7-4c-2.7,0-5.9.5-7.3,1.1ZM131.3,386.5c2.8,3.9,2.4,6.6-1.2,9.3-4.2,3.3-5.9,3.2-9.7-.5-3-3.2-3.2-6.3-.2-10.1,2.2-2.5,9.1-1.8,11.2,1.2ZM671,396c-4.1,6.6-7.9,13.7-8.3,15.8l-.7,3.6h17.2v4.2c0,3.8.4,4.2,3,4.2s3-.5,3-4.2.4-4.2,3.2-4.2,3-.5,2.7-2.8c-.2-1.7-1.3-2.8-3-3-2.7-.4-2.8-.8-2.8-13.1v-12.6h-3.4c-3,0-4.4,1.5-10.9,12.1ZM678.8,409c-.4.2-2.5.4-4.9.1l-4.4-.4,4.5-7.3,4.5-7.3.4,7.2c.2,3.9.1,7.3-.1,7.6ZM698.6,386.9c0,2.9.2,3,8.5,3s8.5.5,8.5,1-3.3,8.1-7.3,16.7l-7.3,15.7,3.2.4c1.8.2,3.6,0,4.1-.6,1.9-2.3,14.8-32.5,14.9-35.4l.2-3.2-12.4-.4-12.5-.4v3.2Z"/>
      <path d="M363.8,467.2l-8.6,9.5,3.4,2.8c1.8,1.6,7.5,5.2,12.5,8.3,36.3,21.5,83.7,22.8,121.4,3.4,9.1-4.7,26.6-16.5,26.6-18s-4.5,1.5-9.9,3.8c-29.7,12.6-61.8,14.7-89.2,5.7-12.5-4.1-24.8-10.1-36.5-18-5.6-3.8-10.3-6.8-10.6-6.8s-4.2,4.2-9.1,9.3Z"/>
      <path d="M583.8,600.4c-1.2,3,.5,5.5,3.6,5.5s3.2-.8,3.6-1.8c1.1-3-.6-5.5-3.6-5.5s-3.3.8-3.6,1.8Z"/>
      <path d="M593.4,609.8l-2.5,2.8,8.4,9.1,8.4,9.1-6.3,5.8c-6.3,5.8-27.3,21.5-28.8,21.5s-5.3-7.2-10.9-15.8c-5.6-8.7-10.4-15.8-10.9-15.8s-1.9,1-3.3,2.2l-2.7,2.1,11.5,17.6c6.3,9.7,11.9,18.4,12.5,19.4.8,1.3,2.3.8,8.1-3,8.6-5.7,27.9-20.5,36-27.7l5.8-5.1-11.2-12.5c-6.2-6.8-11.3-12.4-11.4-12.4s-1.5,1.2-2.8,2.7Z"/>
      <path d="M200.1,612.9c-6.6,3.3-9.2,7.8-9.2,15.7v6.8l9.3,8.6c8.6,8,27.5,22.6,29.4,22.6s20.1-24,20.1-25.2-1.2-1.6-2.7-2.5c-2.5-1.6-3-1.3-7.6,4.1-2.7,3.3-6.3,7.5-8,9.5l-3.2,3.6-5.8-4c-8.4-5.7-22.2-17.8-23.8-20.7-1-1.8-1-3.4.2-6.1,1.7-4.4,4.4-5.9,10.1-5.9s4.6-.7,5.6-2.3c1.7-3.3,1.7-3.4-2.5-4.9-5.2-1.8-7-1.7-11.9.8Z"/>
      <path d="M255.5,653.4c-5.8,10.2-10.7,19.3-10.9,20.1-1.1,4.9,64.1,33,76.3,33s5.6,1.1,8.4,2.5c4.2,2.1,5.9,2.2,9.6,1.2,3.8-1,5-.7,8.7,1.8,4.7,3.2,7,3.5,11.8,1.8,2.2-.8,3.4-.7,4.4.6,1.2,1.3,4.9,1.7,15.8,1.7h14.2l.7-16.6c.5-9.1.8-19.4.8-23.1,0-6.3-.1-6.4-3.5-6.4h-3.4l-.7,9.9c-.5,5.6-.8,14.3-.8,19.4s-.5,9.6-1.1,10.1c-.6.4-5,.2-9.6-.1l-8.4-.8,2.4-11.9c1.3-6.7,2.2-12.3,1.9-12.5-.2-.4-1.9-.8-3.6-1.3-3-.7-3.3-.5-4.6,6.9-2.4,12.6-3.6,15.4-7,16.3-2.2.6-3.8.1-5.5-1.7-2.5-2.4-2.5-2.7-.5-13.1,1.8-8.7,1.8-10.7.5-11.5-1.6-1.1-5.8-1.5-5.8-.6s-.8,4.7-1.9,9.9c-2.7,13.1-6.8,17.1-11.9,11.5-1.9-2.2-2.1-3-.1-12.7,1.1-5.8,1.6-11,1.2-11.6-.4-.7-2.1-1.2-3.6-1.2-3.3,0-3-.5-6.1,14.4-1.1,5-2.1,9.2-2.2,9.3-1,1-17.8-5-17.8-6.3s1.7-6.2,3.9-11.9c3.8-10.7,3.8-11.9-.8-13.3-2.2-.6-2.9.7-6.6,10.8-2.2,6.3-4.4,11.8-4.9,12-1.9,1.2-37.6-15.5-39.4-18.6-.4-.5,3.5-8.1,8.6-17.1,8.5-15,9-16.4,6.9-17.8-1.2-.8-2.8-1.6-3.5-1.6s-6.1,8.4-11.8,18.4Z"/>
      <path d="M201.2,655c-3.2,3.8,2.2,8.6,5.7,5.1,2.3-2.3,1-6.9-1.9-6.9s-2.9.8-3.8,1.8Z"/>
      <path d="M521.8,656.8c-7.2,3.6-8.4,5.5-6.4,9.1l1.6,2.9,5.1-2.9c6.9-4.1,13.8-4,18.7.1,7.8,6.6,7.5,7-5.9,13.8-11.8,5.9-12,6.2-10.7,9.1.7,1.7,1.8,3,2.4,3,1.6,0,31.3-15,31.3-15.9s-2.1-3.6-4.6-7.2c-9-13-20.7-17.6-31.4-12.1Z"/>
      <path d="M349.7,662.2c-1.1,2.9.5,5.8,2.8,5.3,1.5-.2,2.2-1.5,2.2-3.4,0-3.5-3.9-5-5-1.9Z"/>
      <path d="M344.5,667.8c-.8.5-1.3,1.9-1.1,3.2.5,2.7,4.5,3.8,5.8,1.6,1.9-3-1.7-6.7-4.7-4.7Z"/>
      <path d="M495,669.6c-11.8,2.7-15.3,9.1-12,21.7,1.5,5.2,1.5,7,.5,7.4-4.7,1.6-16.9,4.2-19.4,4.2-3.6,0-8.1-5.1-8.1-9.2s1.1-4,2.4-5.3c4.2-4.2,2.4-11.2-2.2-8.6-4.9,2.7-7.5,7.4-7.5,13.7s2.8,12.5,9.2,15.7l5.1,2.4,14.1-3.3c7.6-1.8,14.7-3.8,15.4-4.2,1.1-.6.8-3.4-1.1-10.9-2.5-10.4-2.3-13.3,1.7-14.9,3-1.1,3.5-.2,6.6,12.3,2.7,11,2.8,11.3,5.9,10.6,1.7-.5,3.4-1,3.6-1.3.5-.4-6.9-31.1-7.5-31.4-.1-.1-3.2.5-6.7,1.3Z"/>
      <path d="M352.5,669.8c-1.6,1.5-.8,5,1.2,5.7,1.1.5,2.8,0,3.8-1,1.6-1.5,1.6-2.2.2-3.6-1.6-2.1-3.9-2.5-5.2-1.1Z"/>
      <path d="M405,682.7c0,6.3.4,16.4.7,22.4l.8,11.2h6.9v-10.7c0-5.8-.4-15.9-.8-22.4l-.7-11.8h-6.9v11.3Z"/>
      <path d="M291.2,702.8c-1,.5-1.5,2.3-1.2,3.9.2,2.2,1.1,2.9,3.4,2.9s3.2-.7,3.4-2.9c.4-2.4-1.3-5-3.4-5s-1.3.5-2.2,1.1Z"/>
      <path d="M489.5,709.9c-.5,1.1,0,2.8,1.1,3.9,1.6,1.7,2.1,1.7,3.8-.1,1.1-1.1,1.7-2.9,1.3-3.9-1-2.5-5.2-2.4-6.2.1Z"/>
      <path d="M480.7,712c-.5,1.1-.2,2.5.5,3.3,1.9,1.9,5.7.6,5.7-2.1s-5.1-4.1-6.2-1.2Z"/>
    </g>
  </g>
</svg>