<?xml version="1.0" encoding="UTF-8" standalone="no"?>
<!-- Generator: Adobe Illustrator 28.0.0, SVG Export Plug-In . SVG Version: 6.00 Build 0)  -->

<svg
   version="1.1"
   id="Layer_1"
   x="0px"
   y="0px"
   viewBox="0 0 259.03717 300"
   xml:space="preserve"
   sodipodi:docname="Altaawoun FC-01 (1).svg"
   width="259.03717"
   height="300"
   inkscape:version="1.3.2 (091e20e, 2023-11-25, custom)"
   xmlns:inkscape="http://www.inkscape.org/namespaces/inkscape"
   xmlns:sodipodi="http://sodipodi.sourceforge.net/DTD/sodipodi-0.dtd"
   xmlns="http://www.w3.org/2000/svg"
   xmlns:svg="http://www.w3.org/2000/svg"><defs
   id="defs38" /><sodipodi:namedview
   id="namedview38"
   pagecolor="#ffffff"
   bordercolor="#999999"
   borderopacity="1"
   inkscape:showpageshadow="2"
   inkscape:pageopacity="0"
   inkscape:pagecheckerboard="0"
   inkscape:deskcolor="#d1d1d1"
   inkscape:zoom="0.674"
   inkscape:cx="252.22552"
   inkscape:cy="292.28487"
   inkscape:window-width="1500"
   inkscape:window-height="912"
   inkscape:window-x="-8"
   inkscape:window-y="-8"
   inkscape:window-maximized="1"
   inkscape:current-layer="Layer_1" />
<style
   type="text/css"
   id="style1">
	.st0{fill:#FFE000;}
	.st1{fill:#003665;}
	.st2{fill:#FFFFFF;}
</style>
<g
   id="g38"
   transform="matrix(0.51396265,0,0,0.51396265,-127.46274,-107.00702)">
	<path
   class="st0"
   d="m 533.1,208.6 c -93.2,-0.9 -285.1,0 -285.1,0 v 274 c 0.9,0.6 0.5,1.6 0.5,2.5 0.1,6.6 0.9,13.4 1.5,19.9 1.5,15.5 4.2,30.6 7.9,45.7 7.6,30 18.8,58.3 34.2,85.1 19.7,34.3 45.1,64 75.8,88.8 24.1,19.5 50.8,35.2 79.2,47.9 16.6,7.4 52.3,19.4 53.1,19.4 0.7,0 27.6,-9.1 40.1,-14.2 23.7,-9.6 46.4,-21.3 67.8,-35.5 26.4,-17.8 49.9,-38.8 70,-63.5 12,-14.7 22.6,-30.2 31.9,-46.8 15.4,-27.6 26.4,-56.9 33.5,-87.9 5.4,-23.9 8.5,-48.1 8.5,-72.6 V 264.1 c 0,-17.3 0,-55.1 0,-55.1"
   id="path1" />
	<path
   class="st1"
   d="m 693.7,512.5 c 0,-30.8 1.9,-61.5 1.9,-92.3 0,-0.7 0,-1.5 0,-2.1 v -0.5 c 0,-1.6 -0.9,-2.5 -2.7,-2.5 -0.4,0 -0.9,0 -1.3,0 h -80.1 -58 c -1.5,0 -3.1,0 -4.5,0 -1.1,-0.1 -1.5,0.5 -1.5,1.5 0,1.3 0,2.7 0,4.1 0,11 0,22.1 0,33 0,1.1 -0.3,2.3 0.6,3.3 1.5,1.8 3,3.9 4.5,5.7 3.3,3.7 7.6,6.3 12.2,8.1 10,4.1 19.9,8.5 29.8,12.5 3.7,1.5 7.5,2.9 10.7,5.2 10.1,7.4 14.6,17 13.2,29.2 -0.6,5.2 -3.1,9.9 -5.5,14.4 -7.3,12.9 -14.4,25.8 -21.5,38.7 -1.8,3.3 -3.7,6.3 -4.9,9.9 -1.8,5.3 -1.5,10.9 -1.8,16.4 -0.6,7.9 -0.7,16 -0.9,24 -0.6,13.2 -10.3,25.2 -24.2,28.4 -3.3,0.7 -6.8,0.8 -10.3,0.5 -1.5,-0.1 -1.9,0.5 -1.8,1.7 0,0.5 0,0.9 0,1.3 0,15.5 0,30.8 0,46.3 0,1.3 0,11.1 0,12.5 0.1,0.5 0.2,0.9 0.5,0.9 0.3,0.1 0.6,0.1 0.8,-0.1 0.5,-0.3 0.9,-0.5 1.5,-0.8 3.1,-1.7 13,-8.5 16,-10.3 16,-10.1 33.5,-21.4 46.4,-35.2 21.3,-22.6 48.2,-52.8 58.2,-82 0.6,-1.9 2.2,-3.9 2.8,-5.7 3.9,-12 10.7,-24.3 12.4,-36.7 1.5,-9.6 7,-16.4 7,-26.1 z"
   id="path2" />
	<path
   class="st1"
   d="m 305.8,512.5 c 0,-30.8 -1.9,-61.5 -1.9,-92.3 0,-0.7 0,-1.5 0,-2.1 v -0.5 c 0,-1.6 0.9,-2.5 2.7,-2.5 0.4,0 0.9,0 1.3,0 h 80.1 58 c 1.5,0 3.1,0 4.5,0 1.1,-0.1 1.5,0.5 1.5,1.5 0,1.3 0,2.7 0,4.1 0,11 0,22.1 0,33 0,1.1 0.3,2.3 -0.6,3.3 -1.5,1.8 -3,3.9 -4.5,5.7 -3.3,3.7 -7.6,6.3 -12.2,8.1 -10,4.1 -19.9,8.5 -29.8,12.5 -3.7,1.5 -7.5,2.9 -10.7,5.2 -10.1,7.4 -14.6,17 -13.2,29.2 0.6,5.2 3.1,9.9 5.5,14.4 7.3,12.9 14.4,25.8 21.5,38.7 1.8,3.3 3.7,6.3 4.9,9.9 1.8,5.3 1.5,10.9 1.8,16.4 0.6,7.9 0.7,16 0.9,24 0.6,13.2 10.3,25.2 24.2,28.4 3.3,0.7 6.8,0.8 10.3,0.5 1.5,-0.1 1.9,0.5 1.8,1.7 0,0.5 0,0.9 0,1.3 0,15.5 0,30.8 0,46.3 0,1.3 0,11.1 0,12.5 -0.1,0.5 -0.2,0.9 -0.5,0.9 -0.3,0 -0.6,0.1 -0.8,-0.1 -0.5,-0.3 -0.9,-0.5 -1.5,-0.8 -3.1,-1.7 -13,-8.5 -16,-10.3 -16,-10.1 -33.5,-21.4 -46.4,-35.2 -21.3,-22.6 -48.2,-52.8 -58.2,-82 -0.6,-1.9 -2.2,-3.9 -2.8,-5.7 -3.9,-12 -10.7,-24.3 -12.4,-36.7 -1.5,-9.6 -7,-16.4 -7,-26.1 z"
   id="path3" />
	<path
   class="st1"
   d="M 303.7,399.8 V 267.3 H 693 c 0,38.8 0,132.4 0,132.4 z"
   id="path4" />
	<g
   id="g8">
		<path
   class="st1"
   d="m 455.2,534.2 c 1.1,0 1.9,0 3,0 3.1,0 5.9,-1.1 8.5,-2.8 2.3,-1.5 2.5,-2.3 1.3,-4.6 -0.5,-0.9 -1.1,-1.8 -1.5,-2.8 -2.8,-5.2 -4.5,-10.7 -4.8,-16.4 0,-0.4 0,-0.9 0.4,-1.1 0.5,-0.2 0.8,0.2 0.9,0.5 0.9,1.8 1.8,3.7 3.1,5.5 7.1,9.7 15,19 22.4,28.5 0.6,0.9 2.1,1.7 1.3,2.8 -0.6,0.9 -1.9,-0.1 -2.9,-0.5 -3.9,-1.5 -7.9,-3 -11.8,-4.4 -0.3,-0.1 -0.6,0 -0.9,0 0.1,0.3 0.2,0.5 0.3,0.8 1.3,1.5 2.4,3.1 3.7,4.8 3.9,5.3 9.1,9.3 13.4,14.4 5.5,6.6 10.3,13.6 13.4,21.6 2.4,5.9 5,11.6 8.1,17.2 7,12.2 17.6,19.2 31.5,21 1.8,0.3 3.9,0.2 5.5,0.9 1.3,0.5 2.6,2.1 3.5,1.1 0.6,-0.6 -0.6,-2.4 -1.1,-3.7 0,-0.1 0,-0.2 -0.1,-0.3 -5.3,-12.3 -9.7,-25 -13.4,-37.6 -0.3,-1.1 -0.6,-2.3 -0.9,-3.3 -0.1,-0.4 -0.2,-0.9 0.2,-1.1 0.6,-0.3 0.9,0.3 1.1,0.8 0.5,0.5 0.9,1.3 1.3,1.7 2.9,3.7 5.7,7.3 9.1,10.5 3.5,3.1 7.3,5.9 12.2,6.9 1.1,0.2 2.3,0.4 3.3,0.5 -0.5,-1.1 -1.7,-1.1 -2.5,-1.9 -0.4,-0.5 -0.9,-0.9 -1.3,-1.3 -3.5,-3.5 -6.3,-7.7 -9,-11.7 -6.4,-9.8 -12.9,-19.9 -21.2,-28.2 -1.6,-1.6 -1.6,-2.1 -0.3,-4 3,-4.2 5.5,-8.8 7,-13.6 1.5,-4.9 2.5,-9.7 2.3,-14.9 0,-2.5 -0.9,-3.5 -3.3,-3.9 -1.5,-0.3 -3.1,-0.4 -4.8,-0.5 -3.1,-0.2 -6.1,0.3 -9.1,0.5 -2.5,0.2 -2.6,0.1 -2.6,-2.5 0,-1.3 0,-2.8 -0.1,-4.1 -0.3,-2.7 -0.9,-3.3 -3.7,-3.1 -3.5,0.2 -6.7,0.9 -9.7,2.3 -2.7,1.3 -5.1,1.3 -7.9,-0.1 -3.9,-1.8 -7.9,-3.1 -12.3,-4 -7.6,-1.5 -14.2,-4.5 -19.4,-10.3 -2.9,-3.1 -6.3,-5.7 -9.3,-8.5 -1.3,-1.3 -2.9,-1.8 -4.5,-0.9 -3.9,1.9 -6.9,4.4 -7.1,9.2 0,1.5 -0.8,2.8 -1.8,3.9 -1.3,1.3 -2.7,2.7 -3.7,4.3 -0.5,1.1 -1.3,1.8 -1.5,3.1 1.1,-0.1 2.1,-0.3 3,-0.3 4.1,-0.3 5.7,0.9 7.1,4.5 0.2,0.5 0.3,1.1 0.5,1.5 1.1,3.7 1.5,7.5 3.3,10.9 0.6,1.3 0.2,1.9 -1.1,2.4 -2.9,1.1 -5.7,1.1 -8.7,0.1 -3.9,-1.3 -4.6,-3.1 -3.1,-6.9 0.2,-0.5 0.9,-0.9 0.4,-1.3 -0.4,-0.4 -1.1,-0.1 -1.5,0 -5.2,1.5 -9.5,9.6 -7.1,15.7 1.5,4.1 4.6,6.6 8.1,8.8 4.6,2.9 9.5,5.5 14,8.7 5.3,3.7 10.3,7.9 12.9,14 1.5,3.7 2.7,7.6 3.7,11.3 1.5,5.9 3.1,11.8 6.3,17.1 3,5.1 6.3,9.8 11.2,13.4 0.4,0.3 0.8,0.6 1.1,0.4 0.6,-0.5 0,-0.9 -0.3,-1.3 -3.9,-7.9 -6.3,-16.2 -7,-25.1 0,-0.5 -0.4,-1.1 0.2,-1.5 0.5,-0.3 1.1,0 1.5,0.3 1.9,1.3 4,2.8 5.7,4.3 2.1,1.7 4.1,3.5 5.4,6.1 0.2,0.4 0.9,0.6 1.3,0.9 0,-0.4 0.1,-0.9 0,-1.3 -0.4,-1.5 -0.8,-3.1 -1.3,-4.5 -2.6,-8.1 -7.5,-14.8 -12.7,-21.2 -4.1,-5 -9.1,-8.8 -13.8,-13.3 -4.3,-4.2 -9.2,-7.9 -14.7,-10.7 -1.3,-0.8 -3.1,-1.3 -3.9,-2.9 1.6,-0.6 3.8,-0.6 5.2,-0.8 z m 96.2,105.7 c -3.9,0.2 -7.2,-1.3 -10.7,-2.2 -10.7,-2.8 -21.2,-5.7 -31.8,-8.5 -6.9,-1.7 -14,-1.5 -21,0.5 -7.5,2.2 -14.9,4.4 -22.4,6.3 -4.4,1.1 -8.9,2.3 -13.4,3.3 -12.4,3.1 -25.4,-6.6 -25.8,-19.2 -0.5,-10.3 -0.9,-20.6 -1.3,-31 -0.2,-7.3 -2.2,-14 -5.5,-20.5 -8.1,-15 -16.2,-30 -24.5,-44.9 -6.1,-10.9 -2.2,-25.4 10.7,-30.8 9.7,-4.1 19.6,-8.5 29.3,-12.5 6.4,-2.7 12.7,-5.5 17.7,-10.7 3.7,-3.7 6.6,-7.9 9.7,-12 6.5,-8.3 13.1,-16.9 19.6,-25.2 4.6,-6.1 10.7,-9.2 18.6,-8.8 5.9,0.3 10.9,2.6 14.6,7 6.6,8.1 12.9,16.4 19.3,24.6 3.5,4.4 6.9,9 10.7,13.4 3.9,4.5 8.8,7.5 14.2,9.7 11.6,5.1 23.2,9.9 34.8,15 11.1,5 16,18 10.5,29 -4,7.9 -8.5,15.8 -12.7,23.6 -4.4,8.3 -8.9,16.4 -13.4,24.6 -3.3,6.1 -4.3,12.6 -4.6,19.4 -0.4,9.6 -0.6,19.1 -0.9,28.7 -0.4,10.2 -7.5,18.6 -17.3,20.6 -1.3,0.3 -2.7,0.3 -4.1,0.4 z"
   id="path5" />
		<path
   class="st1"
   d="m 523,581 c -0.8,-3.7 -1.5,-7.6 -2.3,-11.3 -1.5,-7.9 -3.7,-15.6 -5.7,-23.2 -0.2,-0.5 -0.3,-1.3 -0.5,-1.8 -0.1,-0.5 0,-0.9 0.3,-1.1 0.5,-0.3 1.1,0 1.3,0.5 1.1,1.6 2.2,3.3 3.1,5.1 4.5,8.5 7.6,17.6 9.9,26.8 2.7,10.3 5.9,20.4 10.3,30.2 0.1,0.2 0.2,0.4 0.3,0.5 0.3,0.8 1.1,1.5 0.5,2.3 -0.8,0.9 -1.7,0.1 -2.6,-0.1 -3.5,-0.9 -6.6,-2.8 -9.3,-5.2 -7.9,-6.9 -12.6,-15.8 -15.6,-25.8 -0.2,-0.5 -0.2,-1.3 -0.2,-1.8 0,-0.3 0.1,-0.6 0.3,-0.9 0.4,-0.3 0.9,-0.1 1.1,0.2 1.3,1.3 2.8,2.8 4.1,4.2 0.9,0.9 1.9,1.8 3.1,2.6 0.4,0.2 0.6,0.6 1.1,0.5 0.6,-0.3 0.1,-0.9 0.4,-1.5 h 0.4 z"
   id="path6" />
		<path
   class="st1"
   d="m 476.3,509.6 c 0,0 0.5,0.3 0.9,0.5 5.4,3.7 11.5,6.3 17.1,9.6 0.3,0.2 0.5,0.9 0.9,0.3 0.1,-0.2 0,-0.6 0,-0.9 -0.2,-0.5 -0.5,-0.9 -0.6,-1.3 -0.4,-0.9 -1.5,-1.9 -0.6,-2.7 0.9,-0.9 2.1,0.4 2.8,0.8 4.1,2.3 7.3,5.5 9.7,9.7 0.2,0.4 0.5,0.9 0.3,1.1 -0.3,0.5 -0.9,0.3 -1.3,0 -2.8,-1.1 -5.5,-2.2 -8.3,-2.7 -0.5,-0.1 -1.1,-0.2 -1.5,-0.2 -0.4,0 -0.9,-0.2 -1.1,0.3 0,0.2 0.2,0.5 0.4,0.9 1.7,3 3.5,5.9 5.2,8.9 3,5.1 4.9,10.7 6.4,16.4 0,0.2 0.2,0.4 0.2,0.5 0,0.5 0,0.9 -0.5,1.1 -0.6,0.3 -0.5,-0.4 -0.8,-0.6 -2.8,-5.1 -6.1,-9.8 -9,-14.8 -3.1,-5.4 -7.6,-9.7 -11.6,-14.5 -2.9,-3.3 -6.1,-6.4 -8.3,-10.3 -0.3,-0.5 -0.5,-0.9 -0.6,-1.3 -0.1,-0.3 0.2,-0.5 0.8,-0.6 h -0.5 z"
   id="path7" />
		<path
   class="st1"
   d="m 526.3,520.8 c 5.7,0 6.1,0.8 4.6,5.9 -1.3,4.2 -3.1,8.1 -5.7,11.8 -0.3,0.5 -0.6,0.9 -1.3,0.6 -0.2,-0.1 -0.4,-0.8 -0.3,-1.1 0.6,-3.3 1.3,-6.8 2.2,-10.2 0.6,-3.1 0.6,-3 -2.3,-3.9 -1.3,-0.5 -3.7,-0.5 -3.7,-1.7 0,-1.2 2.4,-0.9 3.9,-1.3 1.1,-0.1 2,-0.1 2.6,-0.1 z"
   id="path8" />
	</g>
	<g
   id="g12">
		<path
   class="st1"
   d="m 461.5,670.3 -1.1,-3.1 c 1.3,-0.4 2.1,-1.1 2.9,-1.8 0.8,-0.8 1.5,-1.6 1.9,-2.6 h 0.4 l 2.9,1.6 v 32.3 H 464 v -27.2 z"
   id="path9" />
		<path
   class="st1"
   d="m 482.7,688.7 v 1.3 c 0,1.6 0.7,2.4 2,2.4 h 0.7 c 1.3,0 1.8,-0.7 1.8,-2 v -8.1 l -2.9,1.9 h -1.1 c -3.7,0 -5.4,-2 -5.4,-6.1 v -9.4 c 0,-3.9 1.8,-5.9 5.4,-5.9 h 3 c 3.7,0 5.4,2 5.4,5.9 v 21.8 c 0,4 -1.8,6.1 -5.4,6.1 h -2.7 c -3.7,0 -5.4,-2 -5.4,-6.1 v -1.9 z m 4.4,-8.4 v -11.1 c 0,-1.3 -0.8,-2 -2.2,-2 h -0.5 c -1.3,0 -2,0.7 -2,2 v 8.7 c 0,1.6 0.7,2.4 2,2.4 z"
   id="path10" />
		<path
   class="st1"
   d="m 500.1,688.7 h 4.5 v 1.8 c 0,1.3 0.6,2 1.8,2 h 0.5 c 1.3,0 2,-0.7 2,-2 v -7.8 c 0,-1.5 -0.6,-2.2 -1.9,-2.2 h -6.8 v -17.8 h 12.7 v 4.2 h -8.5 v 9.5 h 3.7 c 3.7,0 5.4,2 5.4,6.1 v 8.1 c 0,3.9 -1.8,6.1 -5.4,6.1 h -2.6 c -3.7,0 -5.4,-1.9 -5.4,-5.7 z"
   id="path11" />
		<path
   class="st1"
   d="m 531.1,672.4 v -3 c 0,-1.6 -0.7,-2.4 -2,-2.4 h -0.8 c -1.3,0 -1.8,0.7 -1.8,2 v 10.3 l 2.9,-1.9 h 1.3 c 3.5,0 5.2,1.9 5.2,5.7 v 7.8 c 0,3.7 -1.7,5.7 -5.2,5.7 h -3.5 c -3.5,0 -5.2,-1.9 -5.2,-5.7 v -22.4 c 0,-3.9 1.7,-5.7 5.2,-5.7 h 3.3 c 3.5,0 5.2,1.9 5.2,5.7 v 3.7 z m -4.6,9 v 9.1 c 0,1.3 0.7,2 2,2 h 0.9 c 1.3,0 2,-0.7 2,-2 v -6.7 c 0,-1.6 -0.7,-2.4 -2,-2.4 z"
   id="path12" />
	</g>
	<path
   d="m 742.5,479.7 c 0,13.6 -1.6,27.2 -3.9,40.5 -2.9,17.3 -7,34.2 -12.6,50.8 -6.1,18.2 -13.8,35.6 -22.8,52.5 -13,23.9 -28.9,45.7 -47.9,65.4 -25.8,27 -55.8,48.4 -89.1,65.4 -18.2,9.1 -66,26 -66,26 0,0 -30.2,-10 -41.2,-14.6 -25.1,-10.2 -48.4,-23.4 -70.4,-39.1 -16.2,-11.5 -31.1,-24.4 -44.7,-38.9 -12.5,-13.4 -23.8,-27.6 -33.8,-43.1 -15.2,-23.6 -27.1,-48.4 -35.9,-75 -6.7,-20.4 -11.3,-41.3 -14,-62.5 -1.3,-10.9 -2,-21.5 -2,-32.4 0,-84.6 0,-257.8 0,-257.8 h 3.9 c 79.4,0 480.5,0.2 480.5,0.2 0,0 -0.1,176.2 -0.1,262.6 z M 248,208.6 v 274 c 0,0 1.5,15.8 1.9,22.4 1.5,15.5 4.2,30.6 7.9,45.7 7.6,30 18.8,58.3 34.2,85.1 19.7,34.3 45.1,64 75.8,88.8 24.1,19.5 50.8,35.2 79.2,47.9 16.6,7.4 52.3,19.4 53.1,19.4 0.7,0 27.6,-9.1 40.1,-14.2 23.7,-9.6 46.4,-21.3 67.8,-35.5 26.4,-17.8 49.9,-38.8 70,-63.5 12,-14.7 22.6,-30.2 31.9,-46.8 15.4,-27.6 26.4,-56.9 33.5,-87.9 5.4,-23.9 8.5,-48.1 8.5,-72.6 V 264.1 c 0,-17.3 0,-55.1 0,-55.1"
   id="path13" />
	<path
   class="st1"
   d="m 290.9,253.3 c 0,71.5 0,147.3 0,218.6 0,9.7 0.4,19.5 1.5,29.2 2,19.4 6.1,38.3 11.8,57.1 8.3,26.6 20.4,51.5 35.8,74.6 19,27.8 42.6,51.4 70.2,70.7 61.4,40.1 88.6,42.9 88.6,42.9 10.7,-3.7 23.8,-7.9 34.2,-12.5 22.1,-9.6 42.9,-21.7 61.9,-36.1 16.2,-12.2 31.1,-26 44.4,-41.7 14.2,-16.7 26.3,-34.8 36.2,-54.4 11,-22.2 19.3,-45.5 24.5,-69.6 3.9,-17.6 6.4,-35.4 6.4,-53.3 0,-73.5 0,-147.1 0,-220.7 v -5.2 z m 434.9,224.9 c 0,16.7 -2,33.2 -5.2,49.7 -4.2,21.8 -10.5,42.9 -19,63.1 -7.4,17.3 -16,33.7 -26.3,49.4 -14.5,22.1 -31.8,41.7 -51.8,59 -18.4,16 -38.7,29.6 -60.2,41 -14,7.4 -28.4,13.8 -43.3,19.3 -6.5,2.5 -21.7,6.8 -21.7,6.8 0,0 -19.2,-5.7 -27.6,-9.1 -14.9,-6.1 -29.6,-12.8 -43.6,-20.8 -15.1,-8.5 -29.5,-18 -43.1,-28.8 -14,-10.9 -26.6,-23.4 -38.3,-36.6 -12.9,-14.5 -23.9,-30.2 -33.6,-47.1 -14.9,-26 -25.8,-53.8 -32.6,-82.9 -3.7,-15.5 -6.1,-30.9 -7.3,-46.8 -0.5,-7.6 -0.6,-15 -0.6,-22.6 0,-78.1 0,-238.4 0,-238.4 0,0 380.4,-0.2 454.5,-0.2 z"
   id="path14" />
	<path
   class="st2"
   d="m 299.6,262.3 v 228 0.4 0.4 c 0.9,7.8 2,15.5 3.3,23 3,17.1 6.9,33.5 12.1,48.7 v 0 0 c 7.6,22 17.8,42.7 30.4,62.1 13.8,21 30.8,40.1 50.3,56.4 8.7,7.4 18.1,14.3 27.8,20.8 v 0 0 c 4.4,2.7 8.8,5.4 13.4,7.9 18.2,10 38.5,18.4 59.9,25.2 l 2.2,0.7 2.2,-0.7 c 21.2,-6.6 40.9,-14.9 58.9,-24.6 4.7,-2.6 9.5,-5.3 14,-8.1 v 0 0 c 19.7,-12.8 37.4,-27.6 52.5,-44.1 25.4,-27.5 44.4,-59.7 56.7,-95.9 0.7,-2 1.5,-4.3 2.3,-7 v 0 0 c 4.4,-14.3 7.8,-29.4 10.3,-45.1 1.1,-6.1 1.8,-12.5 2.6,-18.8 V 491 490.6 262.1 Z m 391.8,7.5 v 89.9 0.7 130 c -0.7,6.3 -1.5,12.5 -2.5,18.4 -2.5,15.5 -5.9,30.2 -10.1,44.1 -0.8,2.3 -1.5,4.6 -2.2,6.9 -11.8,34.8 -30,66 -55.1,93.3 -15.2,16.6 -32.4,30.8 -51.2,42.9 -4.4,2.7 -8.8,5.4 -13.4,7.9 -17.6,9.5 -36.7,17.6 -57.5,24.1 -21.2,-6.6 -40.7,-14.8 -58.4,-24.5 -4.5,-2.5 -8.7,-4.9 -13.1,-7.7 -9.5,-6.1 -18.6,-12.9 -27.3,-20.1 -18.9,-16 -35.2,-34.1 -48.8,-54.7 -12.6,-19 -22.4,-39.2 -29.7,-60.3 -5.1,-15 -9,-30.9 -11.8,-47.5 -1.3,-7.4 -2.3,-14.9 -3.1,-22.5 V 473 469.1 362.3 359.7 269.8 c -0.1,0 384.2,0 384.2,0 z"
   id="path15" />
	<g
   id="g27">
		<path
   class="st0"
   d="m 337.9,384.8 -1.8,-9.1 h -7.6 l -2.1,9.1 h -6.6 l 10.1,-43.6 h 5.3 l 9.9,43.6 z m -5.7,-26.9 -2.5,11.8 h 4.8 z"
   id="path16" />
		<path
   class="st0"
   d="m 353.4,384.8 v -43.6 h 6.8 v 37.9 h 10.3 v 5.5 h -17.1 z"
   id="path17" />
		<path
   class="st0"
   d="m 391.6,346.9 v 37.9 h -6.8 V 346.9 H 378 v -5.7 h 20.2 v 5.5 h -6.7 v 0.1 z"
   id="path18" />
		<path
   class="st0"
   d="m 422.9,384.8 -1.8,-9.1 h -7.6 l -2.1,9.1 h -6.6 l 10.1,-43.6 h 5.3 l 9.9,43.6 z m -5.6,-26.9 -2.5,11.8 h 4.8 z"
   id="path19" />
		<path
   class="st0"
   d="m 454.3,384.8 -1.8,-9.1 h -7.6 l -2.1,9.1 h -6.6 l 10.1,-43.6 h 5.3 l 9.9,43.6 z m -5.7,-26.9 -2.5,11.8 h 4.8 z"
   id="path20" />
		<path
   class="st0"
   d="m 493.8,384.8 h -5.5 l -3.5,-25.2 -3.7,25.2 h -5.5 l -7.8,-43.6 h 7.2 l 3.5,25.6 3.5,-25.6 h 5.4 l 3.5,25.6 3.3,-25.6 h 7.1 z"
   id="path21" />
		<path
   class="st0"
   d="m 526.9,384.8 h -11 c -3.5,0 -4.6,-1.1 -4.6,-4.5 V 346 c 0,-3.3 1.3,-4.8 5.1,-4.8 h 10.7 c 3.7,0 5,1.3 5,4.5 v 34.6 c -0.1,3.5 -1.3,4.5 -5.2,4.5 z m -1.7,-37.9 h -7.1 v 32.4 h 7.1 z"
   id="path22" />
		<path
   class="st0"
   d="m 559.7,384.8 h -11 c -2.8,0 -4.6,-1.1 -4.6,-4.5 v -39.1 h 6.8 v 37.9 h 7.1 v -37.9 h 6.8 v 38.9 c 0.1,2.4 -0.6,4.7 -5.1,4.7 z"
   id="path23" />
		<path
   class="st0"
   d="m 592.8,384.8 -9.4,-24.7 v 24.7 h -6.5 v -43.6 h 4.5 l 9.9,24.7 v -24.7 h 6.4 v 43.6 z"
   id="path24" />
		<path
   class="st0"
   d="m 606.8,384.8 v -6.4 h 6.8 v 6.4 z"
   id="path25" />
		<path
   class="st0"
   d="m 632,346.9 v 12.5 h 9 v 5.5 h -9 v 19.9 h -6.8 v -43.6 h 16.6 v 5.5 h -9.7 z"
   id="path26" />
		<path
   class="st0"
   d="M 668.3,384.8 H 658 c -4.1,0 -5.4,-1.3 -5.4,-4.5 V 346 c 0,-3.5 1.3,-4.8 5.1,-4.8 h 9.7 c 3.7,0 5.5,1.1 5.5,4.5 v 9.6 H 666 v -8.5 h -6.7 v 32.4 h 7.1 v -11.3 h 6.8 v 12.2 c 0.3,3.4 -1.5,4.7 -4.9,4.7 z"
   id="path27" />
	</g>
	<g
   id="g37">
		<polygon
   class="st0"
   points="624.8,281 618.6,281 618.6,326.1 668.5,326.1 668.5,299.8 662.3,299.8 662.3,319.9 624.8,319.9 "
   id="polygon27" />
		<rect
   x="533.5"
   y="281"
   class="st0"
   width="6.6999998"
   height="45.299999"
   id="rect27" />
		<path
   class="st0"
   d="m 440.3,326.3 h 87.3 V 281 h -6.7 v 39.1 0 h -39.7 v -20.3 h -6.7 v 20.3 h -31.3 l -2.4,-3.1 c -0.3,-0.4 -0.5,-0.9 -0.5,-1.3 v -9.9 h 3.5 c 1.1,0 2.1,0.9 2.1,2.1 v 5.7 h 6.7 v -9 c 0,-2.7 -2.1,-4.8 -4.8,-4.8 h -14.3 v 16 c 0,0.3 0.1,0.6 0.3,0.9 l 2.6,3.5 H 386.5 V 281 h -6.7 v 45.3 h 60.5"
   id="path28" />
		<path
   class="st0"
   d="m 342.1,320.1 h -11.6 v -20.5 0 c -3.7,0 -6.7,3 -6.7,6.7 v 19.9 h 25.1 v -26.6 h -6.7 v 20.5 z"
   id="path29" />
		<path
   class="st0"
   d="m 354.5,326.1 h 13.4 v 0.6 c 0,1.6 -1.3,2.9 -2.9,2.9 h -10.5 v 4.8 h 14.2 c 2.9,0 5.2,-2.3 5.2,-5.2 v -29.7 h -13.2 c -3.5,0 -6.3,2.8 -6.3,6.3 z m 9.2,-20.3 h 4 v 14.4 h -6.6 v -11.8 c 0.2,-1.4 1.3,-2.6 2.6,-2.6 z"
   id="path30" />
		<path
   class="st0"
   d="m 575.5,294.8 h 4.3 c 1.3,0 2.2,0.9 2.2,2.2 v 4.7 h 6.7 V 294 c 0,-2.8 -2.2,-5 -5,-5 h -14.4 v 24.7 h 12 c 1.8,0 3.3,1.5 3.3,3.3 v 3 h -25.8 v -17 0 c -3.7,0 -6.7,3 -6.7,6.7 v 16.4 h 39.3 v -11.3 c 0,-3.9 -3.3,-7.2 -7.2,-7.2 h -8.7 z"
   id="path31" />
		<path
   class="st0"
   d="m 599.2,304.9 h 6.7 V 320 h -8.7 v 6.1 h 15.4 v -21.9 c 0,-2.4 -2,-4.4 -4.4,-4.4 h -9 z"
   id="path32" />
		<rect
   x="464.70001"
   y="289.39999"
   class="st0"
   width="7.6999998"
   height="5.9000001"
   id="rect32" />
		<rect
   x="332.60001"
   y="289.39999"
   class="st0"
   width="7.6999998"
   height="5.9000001"
   id="rect33" />
		<rect
   x="474.39999"
   y="289.39999"
   class="st0"
   width="7.6999998"
   height="5.9000001"
   id="rect34" />
		<rect
   x="564.5"
   y="329.60001"
   class="st0"
   width="7.6999998"
   height="5.9000001"
   id="rect35" />
		<rect
   x="574.20001"
   y="329.60001"
   class="st0"
   width="7.6999998"
   height="5.9000001"
   id="rect36" />
		<rect
   x="652.40002"
   y="289.39999"
   class="st0"
   width="7.6999998"
   height="5.9000001"
   id="rect37" />
	</g>
</g>
</svg>
