<?xml version="1.0" encoding="UTF-8" standalone="no"?>
<!-- Generator: Adobe Illustrator 27.5.0, SVG Export Plug-In . SVG Version: 6.00 Build 0)  -->

<svg
   version="1.1"
   id="Layer_1"
   x="0px"
   y="0px"
   viewBox="0 0 260.20834 300"
   xml:space="preserve"
   sodipodi:docname="Al Wahda FC-01.svg"
   width="260.20834"
   height="300"
   inkscape:version="1.3.2 (091e20e, 2023-11-25, custom)"
   xmlns:inkscape="http://www.inkscape.org/namespaces/inkscape"
   xmlns:sodipodi="http://sodipodi.sourceforge.net/DTD/sodipodi-0.dtd"
   xmlns="http://www.w3.org/2000/svg"
   xmlns:svg="http://www.w3.org/2000/svg"><defs
   id="defs90">
	
	

		
		
	</defs><sodipodi:namedview
   id="namedview90"
   pagecolor="#ffffff"
   bordercolor="#999999"
   borderopacity="1"
   inkscape:showpageshadow="2"
   inkscape:pageopacity="0"
   inkscape:pagecheckerboard="0"
   inkscape:deskcolor="#d1d1d1"
   inkscape:zoom="0.674"
   inkscape:cx="311.5727"
   inkscape:cy="359.05045"
   inkscape:window-width="1500"
   inkscape:window-height="912"
   inkscape:window-x="-8"
   inkscape:window-y="-8"
   inkscape:window-maximized="1"
   inkscape:current-layer="Layer_1" />
<style
   type="text/css"
   id="style1">
	.st0{fill:#FFFFFF;}
	.st1{fill:#616261;}
	.st2{fill:#3C3C3C;}
	.st3{fill:#DB800B;}
	.st4{fill:#F4F4F4;}
	.st5{fill:url(#SVGID_1_);}
	.st6{fill:#C5CFDB;}
	.st7{fill:url(#SVGID_00000077289955174484168790000012351551052888501686_);}
	.st8{fill:url(#SVGID_00000056398406184319183840000014023454747708141713_);}
	.st9{fill:url(#SVGID_00000005263725748814378830000007037555961083220629_);}
	.st10{fill:url(#SVGID_00000075845111505968863190000003761624027551808421_);}
	.st11{fill:url(#SVGID_00000058572113056285147850000010491165467116044728_);}
	.st12{fill:url(#SVGID_00000098213316068474586450000015625393596449104020_);}
	.st13{fill:url(#SVGID_00000055667262059514735300000017880155134866050725_);}
	.st14{fill:url(#SVGID_00000054960871878766897970000004566193147353393580_);}
	.st15{fill:url(#SVGID_00000081631377775198799080000015277309212368056193_);}
	.st16{fill:url(#SVGID_00000169559142052655617720000016293092093321451144_);}
	.st17{fill:url(#SVGID_00000023276671395724634700000015386870941109905815_);}
</style>
<g
   id="g88"
   style="display:inline"
   transform="matrix(0.41666667,0,0,0.41666667,-78.208334,-58.666667)">
		<path
   d="m 812.2,629.9 c 0,0 -91.4,-24.2 -102.6,-24.2 l -2.7,9.5 -9.3,-10.5 c 0,0 63.5,-167 57.5,-288.2 l -41.4,6 c -1.2,14.9 -4,23.7 -4,23.7 -9.7,28 -22.1,40.6 -22.1,40.6 -4.9,15.5 7.3,22.8 7.3,22.8 3.8,-1.1 9.7,-9 9.7,-9 -5.4,30 -30.5,40.5 -30.5,40.5 -3.5,0 -8.4,4 -8.4,4 -7,7.6 -13.5,15.5 -13.5,15.5 -2.4,46.3 -22.4,59.6 -22.4,59.6 0.2,-7.9 -3,-18.2 -3,-18.2 -4.3,16.9 -31.6,61.5 -31.6,61.5 -3.5,-1.4 -20.8,-2.7 -20.8,-2.7 l -6,13.3 c 31.9,4.6 54.5,15.5 54.5,15.5 -22.9,-3.3 -71.2,-7.3 -71.2,-7.3 2.4,-16.6 15.1,-29.7 15.1,-29.7 h 22.4 c 25.4,-41.6 38.1,-79.4 38.1,-79.4 3.2,5.2 7.9,26.7 7.9,26.7 0.8,-5.4 6.2,-27.7 6.2,-27.7 5.4,-27.2 -0.3,-63.4 -0.3,-63.4 6.5,6.3 16.7,23.9 16.7,23.9 1.9,-60.3 -38,-97.9 -38,-97.9 8.3,-3.5 30.2,7.9 30.2,7.9 -18.4,-31.8 -49.1,-40.5 -49.1,-40.5 2.4,-4.1 21.3,-12 21.3,-12 -75.3,-6.9 -109.6,20.9 -109.6,20.9 -10.6,4.9 9.5,-16.3 9.5,-16.3 -19.4,5.1 -27,12.2 -27,12.2 4.9,-19.9 20,-35.9 20,-35.9 -52.9,22.8 -77.5,60.1 -77.5,60.1 C 432.8,323 419,313 419,313 c 3,9.5 3.2,35.6 3.2,35.6 0.9,14.1 -4.3,18.2 -4.3,18.2 -6.8,13.6 -32.1,47.6 -32.1,47.6 l 14.6,3.5 c 0,1.7 -25.7,22.3 -25.7,22.3 -10.2,7.9 -1.3,26.4 -1.3,26.4 8.4,22.6 35.9,20.4 35.9,20.4 l -0.8,-2.2 c 2.1,3.8 22.9,3 22.9,3 16.5,-2.5 26.5,-12.8 26.5,-12.8 l -9.7,0.8 c -6.2,0 4.1,-13.9 4.1,-13.9 16.7,-18.5 40.8,-13.3 40.8,-13.3 l -55.4,56 c -43.7,40.6 -24.8,81 -24.8,81 l -40.1,3.7 3.3,16.2 -32.2,5.9 v -2.8 c 6.2,-1.9 25.3,-5.8 25.3,-5.8 1.6,-0.2 0.7,-1 0.7,-1 L 358,581.5 c 8.4,-2.8 41.5,-7.1 41.5,-7.1 -3.8,-52.5 35.2,-78.3 35.2,-78.3 h -0.9 c -12.4,4.6 -21.1,0.8 -21.1,0.8 -2.1,-1.9 -14.1,-1.1 -14.1,-1.1 -28.1,-4.8 -35.8,-31.3 -35.8,-31.3 -4.5,-12.1 -2,-26.9 -2,-26.9 10.9,-3.3 21.9,-14.4 21.9,-14.4 l -9.5,-3.4 33.4,-48.9 -132.4,29.4 c 0,0 4.2,117.1 31.4,201.1 0,0 -97.1,21.8 -117.9,28.3 l 38.8,32.8 -22,111 c 0,0 87.4,-54.1 157.1,-60.6 0,0 90.6,125.2 126.7,147.9 0,0 102.6,-81.6 145.8,-147.1 0,0 84.3,9.7 160.4,59.8 L 775.3,663 Z M 500,332 c 23.1,-23.2 67.4,-25.9 67.4,-25.9 -4.9,1.5 -15.3,7.9 -15.3,7.9 35.7,-1.1 45,6 45,6 -4.5,-0.7 -12.6,3 -12.6,3 41.6,28.1 44.9,69.7 44.9,69.7 -4.4,-4.5 -13.3,-7.1 -13.3,-7.1 14.1,30.7 13.3,67.1 13.3,67.1 -2.3,-4.1 -7.1,-7.4 -7.1,-7.4 -0.2,0.9 -0.5,1.7 -0.7,2.6 l -0.2,0.9 c -0.1,0.6 -0.3,1.2 -0.5,1.8 -0.1,0.3 -0.2,0.7 -0.3,1 -0.2,0.5 -0.3,1.1 -0.4,1.6 -0.1,0.4 -0.2,0.7 -0.3,1.2 -0.1,0.4 -0.3,0.9 -0.4,1.4 -0.1,0.4 -0.2,0.7 -0.4,1.1 -0.2,0.5 -0.3,0.9 -0.4,1.4 -0.1,0.4 -0.2,0.8 -0.4,1.2 l -0.4,1.4 c -0.1,0.4 -0.2,0.8 -0.3,1.1 -0.2,0.4 -0.3,0.9 -0.4,1.4 -0.1,0.3 -0.3,0.7 -0.3,1.1 -0.1,0.4 -0.3,0.9 -0.5,1.3 -0.1,0.4 -0.2,0.8 -0.3,1.2 -0.2,0.4 -0.3,0.8 -0.5,1.3 -0.1,0.4 -0.3,0.7 -0.4,1.1 -0.1,0.4 -0.3,0.8 -0.4,1.2 -0.2,0.4 -0.2,0.7 -0.3,1.1 -0.1,0.4 -0.3,0.8 -0.5,1.3 -0.1,0.3 -0.3,0.7 -0.4,1.1 l -0.4,1.2 c -0.1,0.4 -0.3,0.8 -0.5,1.2 -0.1,0.4 -0.3,0.7 -0.4,1.1 -0.1,0.4 -0.3,0.8 -0.5,1.2 -0.1,0.4 -0.2,0.8 -0.3,1.2 -0.2,0.3 -0.3,0.8 -0.4,1.2 -0.2,0.3 -0.3,0.7 -0.4,1 -0.2,0.4 -0.3,0.8 -0.4,1.2 -0.1,0.3 -0.3,0.7 -0.4,1 -0.1,0.4 -0.3,0.9 -0.4,1.3 -0.1,0.3 -0.3,0.5 -0.4,0.8 -0.1,0.5 -0.3,0.9 -0.5,1.4 l -0.1,0.4 c -0.8,1.9 -1.6,3.8 -2.3,5.7 v 0.1 c -0.3,0.6 -0.4,1.2 -0.6,1.7 -0.1,0.2 -0.1,0.3 -0.2,0.4 -0.2,0.6 -0.4,1 -0.6,1.6 l -0.2,0.5 -0.7,1.5 c 0,0.1 -0.1,0.3 -0.2,0.5 -0.2,0.5 -0.4,0.9 -0.6,1.4 0,0.2 -0.1,0.3 -0.2,0.5 -0.2,0.4 -0.4,0.9 -0.6,1.4 -0.1,0.2 -0.2,0.3 -0.2,0.4 -0.2,0.5 -0.4,1 -0.6,1.4 -0.1,0.2 -0.1,0.3 -0.2,0.5 -0.3,0.4 -0.4,0.9 -0.6,1.4 l -0.2,0.3 c -0.2,0.5 -0.4,1 -0.6,1.4 -0.1,0.1 -0.1,0.3 -0.2,0.3 -0.2,0.5 -0.4,1 -0.7,1.4 l -0.1,0.3 c -0.3,0.5 -0.5,1 -0.8,1.4 0,0 0,0.1 0,0.2 -0.2,0.5 -0.5,1 -0.7,1.5 -9.2,19.2 -16.6,30.5 -16.6,30.5 -77.4,-0.4 -121.3,37.1 -121.3,37.1 -5.6,2.2 -11.9,1.1 -11.9,1.1 0.8,-6.4 3.3,-12.5 6.3,-18.1 5.8,-10.9 13.9,-20.3 22.4,-29.2 C 504.2,506.7 541,479 551,438 c 1.8,-7.6 3.1,-15.4 3.5,-23.1 0,-0.4 -0.2,-9 -0.2,-9 l 14.1,-5.6 c -29.9,-15 -34,-36.9 -31.7,-53.3 0,-0.3 0.1,-0.7 0.2,-1 0,-0.1 0.1,-0.1 0.1,-0.2 0,-0.3 0.1,-0.7 0.1,-1 0,0 0.1,-0.1 0.1,-0.1 0,-0.3 0.1,-0.7 0.1,-1 0,0 0,-0.1 0,-0.1 0.2,-0.7 0.4,-1.4 0.5,-2 0,-0.1 0,-0.1 0,-0.2 l 0.2,-1 v -0.1 c 0.1,-0.3 0.1,-0.6 0.2,-1 0,0 0,-0.1 0,-0.1 0.2,-0.6 0.3,-1.3 0.5,-1.9 v -0.1 c 0.1,-0.3 0.1,-0.6 0.3,-0.8 v -0.1 c 0.1,-0.3 0.2,-0.6 0.3,-0.8 0,0 0,-0.1 0,-0.1 0.2,-0.6 0.4,-1.1 0.5,-1.7 h 0.1 c 0.1,-0.3 0.2,-0.5 0.3,-0.8 0.1,0 0.1,-0.1 0.1,-0.1 0.1,-0.3 0.2,-0.5 0.3,-0.7 h 0.1 c 0.1,-0.5 0.3,-1 0.5,-1.4 v 0 c 0.1,-0.2 0.2,-0.4 0.3,-0.6 0,0 0,-0.1 0,-0.1 0.1,-0.2 0.2,-0.3 0.3,-0.5 l 0.1,-0.1 c 0.1,-0.4 0.3,-0.7 0.5,-1.1 v 0 c 0.1,-0.2 0.2,-0.3 0.3,-0.5 v -0.1 c 0.1,-0.1 0.2,-0.3 0.2,-0.4 0.2,-0.3 0.3,-0.5 0.4,-0.8 0.1,-0.1 0.1,-0.2 0.1,-0.2 l 0.1,-0.1 c 0,-0.1 0,-0.2 0.1,-0.3 0.1,-0.2 0.1,-0.3 0.2,-0.4 0,0 0.1,-0.1 0.1,-0.2 h 0.1 v 0 -0.1 c -14.9,-3.4 -40.6,8.3 -40.6,8.3 -4.1,-0.1 -3.4,-1.5 -3.4,-1.5 m -15.2,106.7 h -0.1 c -0.4,0.1 -0.6,0.1 -1,0.1 0,0 -0.1,0.1 -0.2,0.1 -0.3,0 -0.7,0 -0.9,0 -0.1,0.1 -0.1,0.1 -0.1,0.1 -0.4,0 -0.7,0.1 -1,0.1 0,0 -0.1,0 -0.2,0.1 -0.3,0 -0.7,0.1 -1,0.1 0,0 -0.1,0 -0.2,0.1 -0.3,0 -0.6,0.1 -1,0.2 -0.1,0 -0.1,0 -0.2,0 l -1,0.2 c 0,0 -0.1,0 -0.2,0.1 -0.4,0.1 -0.7,0.2 -1.1,0.2 0,0 -0.1,0 -0.2,0 -0.3,0.1 -0.7,0.2 -0.9,0.2 h -0.2 c -0.3,0.1 -0.7,0.2 -1,0.3 -0.1,0 -0.1,0 -0.3,0 -0.4,0.1 -0.7,0.2 -1,0.3 -0.1,0 -0.1,0 -0.2,0 -0.3,0.1 -0.7,0.2 -1,0.3 -0.1,0 -0.1,0 -0.2,0 -0.3,0.1 -0.7,0.2 -1,0.3 -0.1,0 -0.1,0 -0.3,0 -0.3,0.1 -0.7,0.2 -1,0.3 0,0 -0.1,0 -0.1,0 -0.3,0.1 -0.7,0.3 -1,0.3 -0.1,0 -0.2,0 -0.2,0 -0.3,0.2 -0.7,0.3 -1,0.4 l -0.2,0.1 c -0.3,0.1 -0.7,0.3 -1,0.4 h -0.1 c -0.4,0.1 -0.7,0.3 -1.1,0.4 0,0 0,0.1 -0.1,0.1 -0.4,0.2 -0.7,0.3 -1.1,0.4 -0.1,0.1 -0.1,0.1 -0.2,0.2 -0.3,0.1 -0.7,0.2 -1,0.4 h -0.1 c -0.3,0.2 -0.7,0.3 -1,0.5 0,0 -0.1,0.1 -0.2,0.1 -0.4,0.2 -0.7,0.3 -1.1,0.5 l -0.2,0.1 c -0.4,0.2 -0.6,0.3 -1,0.6 0,0 0,0 -0.1,0 l -1,0.6 c -0.1,0.1 -0.1,0.1 -0.3,0.1 l -1,0.6 c -0.1,0 -0.2,0.1 -0.2,0.1 -0.3,0.2 -0.6,0.4 -0.9,0.6 -0.1,0 -0.1,0.1 -0.1,0.1 -0.3,0.2 -0.6,0.4 -1,0.7 l -0.2,0.2 c -0.4,0.2 -0.6,0.5 -0.9,0.7 -0.1,0 -0.1,0.1 -0.2,0.1 -0.3,0.2 -0.6,0.5 -0.9,0.7 -0.1,0 -0.1,0.1 -0.1,0.1 -0.3,0.3 -0.6,0.5 -0.9,0.8 -0.1,0.1 -0.1,0.1 -0.2,0.2 -0.3,0.3 -0.6,0.6 -0.9,0.8 0,0.1 -0.1,0.1 -0.1,0.2 -0.3,0.2 -0.6,0.5 -0.9,0.8 h -0.1 c -0.3,0.3 -0.6,0.6 -0.9,0.9 l -0.2,0.2 c -0.3,0.3 -0.6,0.6 -0.8,0.9 0,0 -0.1,0.1 -0.1,0.1 -0.2,0.3 -0.5,0.6 -0.7,0.9 -0.1,0.1 -0.1,0.1 -0.1,0.1 l -0.8,1 c 0,0 0,0.1 -0.1,0.3 -0.3,0.3 -0.5,0.7 -0.8,1 0,0 0,0 -0.1,0 -0.2,0.4 -0.4,0.7 -0.7,1 0,0.1 -0.1,0.1 -0.1,0.2 -0.3,0.4 -0.4,0.8 -0.7,1.1 -0.1,0.1 -0.1,0.2 -0.2,0.2 -0.2,0.4 -0.4,0.8 -0.7,1.2 0,0 0,0.1 0,0.1 -0.2,0.4 -0.4,0.7 -0.6,1.1 0,0.1 0,0.2 -0.1,0.2 -0.2,0.4 -0.4,0.8 -0.6,1.2 -0.1,0.1 -0.1,0.2 -0.1,0.3 -0.2,0.5 -0.3,0.9 -0.6,1.3 v 0.1 c -0.2,0.4 -0.3,0.8 -0.5,1.3 l -0.1,0.2 c -0.1,0.4 -0.3,0.9 -0.4,1.4 0,0 -0.1,0.1 -0.1,0.3 -0.1,0.5 -0.3,0.9 -0.5,1.4 v 0 c -0.2,0.5 -0.3,1 -0.4,1.4 0,0.1 0,0.2 0,0.3 -0.2,0.4 -0.3,1 -0.5,1.4 0,0.1 0,0.2 -0.1,0.3 -0.1,0.5 -0.2,1 -0.3,1.5 0,0 -12.7,4.9 -20.4,1.9 0,0 3.3,-2.6 7.8,-7.1 0,0 -8.2,-1.5 -10.8,3 v 0.1 h -0.1 c -0.1,0.1 -0.1,0.1 -0.1,0.1 -0.1,0.1 -0.1,0.1 -0.2,0.1 -0.1,0 -0.1,0.1 -0.2,0.1 -0.1,0 -0.2,0.1 -0.2,0.1 v 0 l -0.6,0.3 c -0.3,0.1 -0.5,0.2 -0.8,0.3 -0.3,0.1 -0.6,0.2 -0.9,0.4 -0.5,0.2 -1,0.4 -1.6,0.5 -0.4,0.2 -0.7,0.3 -1.1,0.4 -0.4,0.1 -0.8,0.2 -1.3,0.3 -0.4,0.1 -0.9,0.2 -1.3,0.2 -0.7,0.2 -1.5,0.2 -2.1,0.3 v 0 c -0.5,0 -1,0 -1.4,0 h -0.1 c -0.5,0 -1,0 -1.5,0 v 0 c -0.5,0 -1,-0.1 -1.5,-0.3 -0.3,0 -0.5,-0.1 -0.8,-0.1 v 0 c -0.2,-0.1 -0.5,-0.1 -0.7,-0.2 -0.1,-0.1 -0.3,-0.1 -0.4,-0.1 0,0 -0.1,0 -0.1,0 l -0.3,-0.1 c 0,0 -0.1,0 -0.1,-0.1 -0.1,0 -0.3,-0.1 -0.3,-0.1 l -0.1,-0.1 c -0.1,0 -0.2,-0.1 -0.3,-0.2 -0.1,0 -0.1,-0.1 -0.2,-0.1 -0.1,0 -0.2,0 -0.3,-0.1 -0.1,0 -0.1,0 -0.2,0 l -0.3,-0.2 c -0.1,0 -0.1,-0.1 -0.2,-0.1 -0.1,-0.1 -0.3,-0.2 -0.5,-0.3 -0.1,0 -0.1,-0.1 -0.2,-0.1 0,0 -0.1,-0.1 -0.2,-0.2 0,-0.1 -0.1,-0.1 -0.2,-0.2 -0.1,0 -0.1,-0.1 -0.2,-0.1 -0.1,-0.1 -0.2,-0.1 -0.3,-0.2 -0.1,0 -0.1,0 -0.2,-0.1 -0.1,0 -0.2,-0.2 -0.2,-0.2 l -0.2,-0.2 c -0.1,-0.1 -0.1,-0.1 -0.3,-0.2 0,0 -0.1,0 -0.1,-0.1 -0.1,-0.1 -0.2,-0.1 -0.3,-0.2 -0.1,-0.1 -0.2,-0.1 -0.2,-0.2 -0.1,-0.1 -0.2,-0.2 -0.3,-0.3 l -0.1,-0.1 c -0.1,-0.2 -0.3,-0.3 -0.4,-0.5 0,0 -15.6,-13.5 -6,-30.7 0,0 0.2,-0.2 0.5,-0.5 3.5,-2.8 23.6,-19.4 28.3,-28.4 l 0.2,-0.3 -8.9,-5.1 -2.3,-1.2 c 0,0 20.5,-33.4 24.2,-39.7 0,0 3.7,-6 4.8,-26.2 0,0 4.1,7.1 4.8,12.4 0,0 10.8,-30.1 43.7,-48.9 1.7,-1 3.5,-1.9 5.4,-2.9 0,0 -10,22.1 -9.2,26.6 0,0 15.9,-8.3 21.5,-8.3 0,0 -8.9,12.4 -8.9,16.9 l 8.5,8.6 c 0,0 15.6,-9.4 20.9,-9.4 0,0 -17.8,13.1 -19,16.5 l 0.4,3.7 c 0,0 8.9,-10.5 29.7,-16.5 0,0 -3.3,36 6.4,46.5 0,0 -11.6,-0.8 -26.1,-11.3 l 0.8,4.5 c 0,0 12.1,9.8 30.3,14.9 3.7,1 7.6,1.9 11.8,2.4 0,0 -32,15 -40.9,30.7 0,0 -5.2,-24.3 -8.2,-29.6 l -1.5,2.2 c 0,0 3.1,9.4 3.1,9.8 0,0.4 1.1,9.5 1.1,9.8 0,0.2 -0.9,4.5 -1.3,6.4 0.1,3.8 0,7.8 -0.3,11.9 h -0.1 v 0 0 c -0.1,0 -0.2,0 -0.3,-0.1 h -0.1 c 0,0 -0.1,0 -0.2,0 h -0.1 -0.2 v 0 c -0.1,0 -0.3,0 -0.5,0 v 0 h -0.4 -0.1 c -0.1,0 -0.2,0 -0.3,0 v 0 c -0.1,0 -0.2,0 -0.3,0 h -0.1 c -0.3,0 -0.6,0 -0.9,0 h -0.1 c -0.2,0 -0.2,0 -0.4,0 h -0.1 -0.5 c -0.3,0 -0.4,0 -0.7,0 h -0.7 -0.1 c -0.5,0 -0.9,0 -1.4,0 h -0.1 -0.7 -0.1 c -0.6,0 -1.1,0 -1.6,0 h -0.1 c -0.3,0 -0.6,0 -0.8,0 h -0.1 c -0.3,0 -0.6,0 -0.9,0 H 491 v 0 l -0.9,0.1 h -0.1 -1 -0.1 c -0.3,0 -0.6,0 -0.9,0.1 h -0.1 c -0.4,0 -0.7,0.1 -1,0.1 h -0.1 l -0.9,0.1 h -0.1 c -0.4,0.9 -0.6,1 -1,1 m 47.5,-6.6 -17.8,20.9 -8.8,-3.7 9.1,-1 0.1,-11.1 4.9,-6.4 z m -30,19 c 0,0 13.6,10.2 32.9,9.6 0,0 -1.2,6 -6.5,6.1 0,0 -12.9,0.2 -19.6,-6.7 l -21.6,23.3 c 0,0 -4.6,-1.4 -9.5,-8.1 z m -26.1,26.3 c 0,0 8.7,15.2 27.8,16.6 2.2,0.2 1.8,2.3 0.1,2.9 -4.1,1.8 -9.1,1.3 -13.2,0 -1.3,-0.4 -11.8,-5.9 -11.4,-6.3 l -21.5,21.5 -8.2,-8.5 z M 424.7,535 c 0,0 7,-15.6 22.6,-28.9 0,0 7.5,12.7 21.7,19.1 0,0 4.6,3 5.8,5.1 0,0 -11.9,3.4 -22.8,-9.5 0,0 -11.2,7.2 -21.3,31.9 0,0 -11.3,-8.7 -6,-17.7 m -4.3,11.9 c 0,0 7,16.4 23.1,21.2 0.6,0.1 -2.1,2.8 -2.3,2.9 -3.2,1.2 -9.9,-2.2 -11.5,-5.1 0,0 -1.2,10.7 0.7,18 H 422 c -0.1,0 -6.9,-16.8 -1.6,-37"
   id="path1" />
		<path
   class="st0"
   d="m 418.2,408 c 0,0 16.9,-39.2 42.5,-61.2 0,0 -10.6,5 -22.2,13.4 0,0 -2.4,0.4 0.2,-3.1 0,0 20.6,-35.2 39.6,-47.8 0,0 1.6,0 1.1,-4.4 -32.9,18.7 -43.7,48.8 -43.7,48.8 -0.7,-5.2 -4.8,-12.4 -4.8,-12.4 -1.1,20.3 -4.8,26.3 -4.8,26.3 -3.8,6.4 -24.2,39.7 -24.2,39.7 l 2.3,1.3 c 3.2,0.3 8.6,0.5 14,-0.6"
   id="path2" />
		<path
   class="st1"
   d="m 420.4,546.9 c 0,0 7,16.4 23.1,21.2 0.6,0.1 -2.1,2.8 -2.3,2.9 -3.2,1.2 -9.9,-2.2 -11.5,-5.1 0,0 -1.2,10.7 0.7,18 H 422 c -0.1,0 -6.9,-16.8 -1.6,-37"
   id="path3" />
		<path
   class="st1"
   d="m 447.3,506.2 c 0,0 7.5,12.6 21.7,19 0,0 4.6,3 5.8,5.1 0,0 -11.9,3.3 -22.8,-9.5 0,0 -11.2,7.2 -21.3,31.9 0,0 -11.4,-8.6 -6,-17.6 0,-0.1 7,-15.7 22.6,-28.9"
   id="path4" />
		<path
   class="st1"
   d="m 449.8,503.7 26.4,-26.3 c 0,0 8.8,15.2 27.8,16.5 2.2,0.2 1.8,2.3 0.1,2.9 -4.1,1.8 -9.1,1.3 -13.2,0.1 -1.3,-0.4 -11.8,-5.9 -11.4,-6.4 L 458,512.1 Z"
   id="path5" />
		<path
   class="st1"
   d="m 477.9,475.3 24.3,-24.1 c 0,0 13.7,10.2 32.9,9.5 0,0 -1.2,6 -6.5,6.1 0,0 -12.9,0.2 -19.6,-6.7 l -21.6,23.3 c 0,0 -4.6,-1.4 -9.5,-8.1"
   id="path6" />
		<polygon
   class="st1"
   points="514.8,448.3 515,437.2 519.9,430.9 532.3,432 514.5,453 505.8,449.4 "
   id="polygon6" />
		<path
   class="st2"
   d="m 447.7,582.3 c 0,0 6.3,1.1 11.9,-1.1 0,0 43.9,-37.5 121.3,-37.1 0,0 26.8,-40.9 41.6,-99 0,0 4.9,3.4 7.1,7.5 0,0 0.8,-36.4 -13.3,-67.1 0,0 8.9,2.6 13.3,7.1 0,0 -3.4,-41.6 -44.9,-69.7 0,0 8.1,-3.7 12.6,-3 0,0 -9.3,-7.1 -45,-6 0,0 10.4,-6.4 15.3,-7.9 0,0 -44.3,2.6 -67.3,25.9 0,0 -0.7,1.5 3.3,0.7 0,0 25.6,-11.6 40.5,-8.2 0,0 -28.6,48.7 24.5,75.3 l -14.1,5.7 c 0,-0.1 0.3,8.5 0.2,8.9 -0.4,7.8 -1.7,15.6 -3.5,23.2 -10,41 -46.8,68.7 -74.7,97.5 -8.6,8.8 -16.6,18.3 -22.4,29.2 -3.1,5.7 -5.7,11.8 -6.4,18.1"
   id="path7" />
		<path
   class="st1"
   d="m 616.1,385.6 c 0,0 8.9,2.6 13.3,7.1 0,0 -3.4,-41.6 -45,-69.7 0,0 8.2,-3.7 12.7,-3 0,0 -9.3,-7.1 -45,-6 0,0 10.5,-6.4 15.3,-7.9 0,0 -44.3,2.7 -67.3,25.9 0,0 -0.8,1.5 3.3,0.8 0,0 25.7,-11.7 40.6,-8.3 0,0 -5.5,9.3 -7.3,22 8.3,-2.4 25.9,-6.9 39.1,-3.8 0,0 -18.5,5.7 -27.2,14.6 0,0 46.3,-9.9 67.5,21.6 l -8.4,-0.3 c 0,0 16.5,30.8 16.1,58.9 l -6.7,-6.4 c 0,0 -3.9,42.2 -19.8,82.6 8.3,-17.2 18,-40.9 25,-68.5 0,0 4.9,3.4 7.1,7.5 0.1,0 0.9,-36.4 -13.3,-67.1"
   id="path8" />
		<path
   class="st2"
   d="m 540,394.8 c -4.2,1.5 -13.4,1.9 -31,-7.8 0,0 -7.2,9.7 -8,12.1 l 0.1,1.5 1.5,-2.2 c 3,5.3 8.2,29.6 8.2,29.6 8.9,-15.8 40.9,-30.7 40.9,-30.7 -4.1,-0.6 -8,-1.5 -11.7,-2.5"
   id="path9" />
		<path
   class="st3"
   d="m 465.7,364 c -11.8,7.3 -21.5,16.2 -29.8,27.5 -0.9,1.2 -9.9,17.5 -10.6,17.5 l -8.4,-0.7 c 6.1,2.1 11.1,4.4 11.1,4.4 l 4.4,-5.1 c 9.4,2.7 20.2,-1.3 20.2,-1.3 -8.7,0.6 -15.5,-2 -15.5,-2 31.5,-5.7 36.9,-37.6 36.9,-37.6 9.1,0 10.8,16.9 10.8,16.9 1.5,-5.7 5.2,-17.7 1.3,-23.5 -4.5,-6.5 -15.9,1.1 -20.4,3.9"
   id="path10" />
		<path
   class="st1"
   d="m 509.8,379.9 -0.7,-4.5 c 14.5,10.5 26,11.2 26,11.2 -9.7,-10.5 -6.4,-46.5 -6.4,-46.5 -20.8,6 -29.7,16.5 -29.7,16.5 l -0.4,-3.7 c 1.2,-3.4 19,-16.5 19,-16.5 -5.2,0 -20.8,9.4 -20.8,9.4 l -8.5,-8.6 c 0,-4.5 8.9,-16.9 8.9,-16.9 -5.6,0 -21.5,8.3 -21.5,8.3 -0.8,-4.5 9.3,-26.6 9.3,-26.6 -1.9,1 -3.7,1.9 -5.4,2.9 0.5,4.4 -1.1,4.4 -1.1,4.4 -18.9,12.6 -39.6,47.8 -39.6,47.8 -2.6,3.6 -0.2,3.1 -0.2,3.1 11.6,-8.4 22.2,-13.4 22.2,-13.4 -25.6,21.9 -42.5,61.2 -42.5,61.2 -5.4,1 -10.8,0.9 -14.1,0.6 l 8.9,5.1 -0.2,0.3 10.4,0.7 c -3.2,10 -8.6,17.3 -8.6,17.3 0,0 0.1,0 0.2,0.1 2.7,1.6 3.5,10 3.5,10 2.1,-0.5 6.4,-5.9 6.4,-5.9 1.8,-4.9 9.4,-15.6 9.4,-15.6 1.7,-3.2 1.4,-3.6 1.4,-3.6 l -2.6,-4.4 c 53.4,7.3 58.7,-12.5 63.5,-8.7 4.7,3.8 7.5,23.3 7.5,23.3 0,0 0.1,-0.4 0.2,-0.9 0.4,-1.9 1.3,-6.3 1.3,-6.4 0,-0.3 -1.1,-9.4 -1.1,-9.8 0,-0.4 -3.1,-9.8 -3.1,-9.8 l -0.1,-1.5 c 0.8,-2.4 8,-12.1 8,-12.1 17.6,9.7 26.8,9.3 31,7.8 -18.4,-4.8 -30.5,-14.6 -30.5,-14.6"
   id="path11" />
		<path
   d="m 484.8,383.6 c 0,0 -1.6,-16.9 -10.8,-16.9 0,0 -5.4,31.8 -37,37.6 0,0 6.8,2.7 15.5,2 0,0 -10.8,4.1 -20.2,1.4 l -4.4,5.1 c 0,0 -5.1,-2.3 -11.1,-4.3 l 8.4,0.7 c 0.6,0 9.7,-16.3 10.6,-17.5 8.3,-11.3 18,-20.1 29.8,-27.5 4.5,-2.8 15.8,-10.3 20.4,-3.9 4,5.6 0.3,17.6 -1.2,23.3"
   id="path12" />
		<path
   class="st0"
   d="m 395.4,462.9 c 0,0 -3.6,-15.2 -0.3,-21.8 0,0 1.6,1.3 1.9,4.9 0,0 9.6,-11.4 17.9,-13.9 -0.1,0 -0.1,-0.1 -0.2,-0.1 0,0 5.4,-7.3 8.6,-17.3 L 412.9,414 c -4.8,9 -24.8,25.6 -28.3,28.5 -0.7,4 -0.7,13.2 10.8,20.4"
   id="path13" />
		<path
   class="st4"
   d="m 437.1,396.8 c 0,0 16.1,-23 27.6,-25.7 0,0 1,9.8 -5.7,18 -0.1,-0.1 -13.2,12.8 -21.9,7.7"
   id="path14" />
		<path
   class="st1"
   d="m 494.4,435.3 c -8.3,-2.7 -18.6,-1.2 -26.9,1 -10.7,2.9 -20.2,8.9 -28.3,16.4 -1.3,1.2 -2.5,2.5 -3.8,3.7 0,0 -3.7,-3.4 -4.3,-15 0,0 -0.4,0.3 -1,1.6 -0.8,2.1 -1.7,6.9 -1.1,17.1 0,0 -14.5,11.7 -32.3,17.6 8.3,2.4 16.6,-2.6 16.6,-2.6 2.6,-4.5 10.8,-3 10.8,-3 -4.4,4.5 -7.8,7.1 -7.8,7.1 7.8,3 20.4,-1.8 20.4,-1.8 7.7,-37.8 48.5,-39.8 62.4,-39.3 -1.1,-1.4 -3.3,-2.3 -4.7,-2.8"
   id="path15" />
		<path
   d="m 431.1,441.4 c 0.5,11.6 4.3,15 4.3,15 1.2,-1.2 2.5,-2.5 3.8,-3.6 -2.8,-6.3 -6.6,-19.8 2.2,-34.9 0,0 -8.6,5.5 -11.2,25.1 0.4,-1.3 0.9,-1.6 0.9,-1.6"
   id="path16" />
		<path
   class="st2"
   d="m 503.9,427.3 c 0,0 -2.8,-19.6 -7.5,-23.3 -4.7,-3.8 -10.1,16 -63.5,8.7 l 2.5,4.4 c 0,0 0.3,0.3 -1.4,3.6 0,0 -7.5,10.7 -9.4,15.6 0,0 -4.4,5.4 -6.4,5.9 0,0 -0.7,-8.4 -3.4,-10 -8.2,2.3 -17.8,13.8 -17.8,13.8 -0.3,-3.6 -1.9,-4.9 -1.9,-4.9 -3.2,6.6 0.3,21.8 0.3,21.8 -11.5,-7.2 -11.5,-16.4 -10.8,-20.5 -0.3,0.3 -0.5,0.4 -0.5,0.4 -9.6,17.3 5.9,30.8 5.9,30.8 2.2,2.2 4.5,3.4 6.8,4.1 17.8,-5.9 32.2,-17.6 32.2,-17.6 -0.6,-10.3 0.3,-15 1.1,-17.1 2.7,-19.6 11.2,-25.1 11.2,-25.1 -8.8,15.1 -5,28.6 -2.2,34.9 8.1,-7.5 17.6,-13.5 28.3,-16.4 8.3,-2.2 18.6,-3.7 26.9,-1 1.4,0.5 3.6,1.4 4.8,2.8 2.8,0.1 4.6,0.3 4.6,0.3 0.4,-4 0.4,-8 0.4,-11.9 -0.1,0.4 -0.2,0.7 -0.2,0.7 m -100.1,31.4 c 0,0 -1,-5.7 2.4,-16.9 0,0 6.7,-0.7 9.7,5.4 z"
   id="path17" />
		<path
   d="m 406.2,441.8 c 0,0 6.7,-0.7 9.7,5.4 l -12.1,11.5 c 0,0 -1,-5.7 2.4,-16.9"
   id="path18" />
		<path
   class="st2"
   d="m 489.3,582 c 0,0 -1.4,-4.4 36.8,-13.2 v 12.6 z"
   id="path19" />
		<linearGradient
   id="SVGID_1_"
   gradientUnits="userSpaceOnUse"
   x1="499.90509"
   y1="826.60419"
   x2="499.90509"
   y2="368.84052">
			<stop
   offset="0"
   style="stop-color:#9C1915"
   id="stop19" />
			<stop
   offset="1"
   style="stop-color:#E10716"
   id="stop20" />
		</linearGradient>
		<path
   class="st5"
   d="m 395.6,705.8 c 8.3,13.4 39.9,61.3 95.6,112.6 0,0 66.1,-45.8 113,-110.6 -36.2,-6 -73.2,-8 -106.3,-8 -45.9,0 -84.1,3.8 -102.3,6"
   id="path20"
   style="fill:url(#SVGID_1_)" />
		<g
   id="g21">
			<path
   class="st0"
   d="m 604.2,707.8 c -46.9,64.8 -113,110.7 -113,110.7 -55.7,-51.3 -87.2,-99.3 -95.5,-112.8 -7.3,1 -11.3,1.5 -11.3,1.5 49.1,76.5 106.8,124.9 106.8,124.9 63.8,-44.6 123.4,-122.5 123.4,-122.5 -3.5,-0.6 -7,-1.2 -10.4,-1.8"
   id="path21" />
		</g>
		<g
   id="g41">
			<path
   d="m 558.1,437.7 c 0,0 -13.8,40.8 -37.9,65.6 C 496,528 467.4,552 461.8,570 c 0,0 43.1,-26.6 117.5,-36.7 0,0 17.1,-24.3 21.2,-42.3 0,0 -12.6,28.4 -39.4,24.4 -4.5,-0.7 -7,-7.3 -7.8,-11.1 -2.6,-12.4 2.8,-24.9 4.4,-37.1 0.7,-5.1 1.2,-10.2 1.3,-15.3 0.1,-2.6 0.1,-5.3 0,-7.9 -0.1,-1.6 -1.3,-5.2 -0.9,-6.3"
   id="path22" />
			<path
   class="st2"
   d="m 498.6,352.9 c 1.2,-3.4 19,-16.5 19,-16.5 -5.2,0 -20.8,9.4 -20.8,9.4 l -8.5,-8.6 c 0,-4.5 8.9,-16.9 8.9,-16.9 -5.6,0 -21.5,8.3 -21.5,8.3 -0.8,-4.5 9.2,-26.6 9.2,-26.6 -1.9,0.9 -3.7,1.9 -5.4,2.9 0.5,4.4 -1.1,4.5 -1.1,4.5 -2.2,1.5 -4.5,3.3 -6.8,5.3 -3.1,6.4 -5.8,14.3 -7.1,23.2 0,0 22,-1.7 24.5,6.9 0,0 -29.2,12.3 -30.9,17.9 0,0 24.6,-12.4 29.7,-8.1 0,0 3.3,3 2.1,15 0,0 3.4,-6.1 9.4,-13.1 -0.2,0.2 -0.3,0.3 -0.3,0.3 z"
   id="path23" />
			<path
   class="st2"
   d="m 509.6,375.8 c 14.2,10.2 25.5,10.9 25.5,10.9 -9.7,-10.5 -6.4,-46.5 -6.4,-46.5 -4.8,1.4 -8.8,3 -12.4,4.6 -2.9,3.5 -12.9,13.6 -13.9,14.9 0,0 6.3,9.5 7.2,16.1"
   id="path24" />
			<path
   class="st0"
   d="m 436.1,685.8 7.8,-30.3 7.2,29.7 c 9.1,-0.5 18.3,-0.9 27.6,-1.1 L 496.4,600 c -8.2,0.1 -16.4,0.1 -24.5,0.3 l -9.5,46.2 -11.4,-45.6 c -4.8,0.2 -9.7,0.5 -14.5,0.7 L 425.3,649.1 416,603 c -8.2,0.6 -16.3,1.2 -24.4,2 l 18.4,83.5 c 3.2,-0.4 6.6,-0.6 9.8,-1 z"
   id="path25" />
			<path
   class="st0"
   d="m 556.7,665.2 c -7.1,-0.3 -28.3,-0.8 -28.3,-0.8 v -13.1 h 11.8 l 5.6,-19.9 h -17.4 l 0.7,-12.8 22,-0.3 5.4,-17.1 c -17.1,-0.8 -34.4,-1.3 -51.9,-1.4 l 0.3,83.8 c 15.7,0.1 31.1,0.6 46.3,1.5 z"
   id="path26" />
			<path
   class="st0"
   d="m 588.3,688 v -34.1 c 1.1,2.3 14.8,2.3 14.8,2.3 v 33 c 5.2,0 22.3,3.7 22.3,3.7 v -86.1 c -7.4,-0.9 -15,-1.6 -22.7,-2.3 l -0.7,31.1 -13,-1.1 -0.3,-31.2 c -7.9,-0.6 -15.8,-1.2 -23.8,-1.6 l 1.1,84.1 c 4,0.3 22.3,2.2 22.3,2.2"
   id="path27" />
			<path
   class="st0"
   d="m 694.2,700.8 v -76.5 l -8.2,-9 c -16.4,-2.8 -33.2,-5.3 -50.6,-7.4 V 694 c 0,0 3.7,0.8 9,2.2 14.7,2.7 29,5.7 42.8,9 z m -22.7,-19.1 c 0,0 -10,-3.4 -13.4,-3.4 v -48.4 l 13.4,2.6 z"
   id="path28" />
			<path
   class="st0"
   d="m 737.4,661.8 5.2,34.1 -8.2,-2.6 5.6,24.4 6.7,1.8 1.2,4.1 c 8.2,3 16.1,6.1 23.9,9.4 l -13.2,-76.8 21.7,-19 c -1.7,-0.5 -3.4,-1 -5.1,-1.5 L 720.6,622 c 0,0 -17.3,73.4 -19.5,86.8 8.3,2.2 16.3,4.6 24.3,7.1 z"
   id="path29" />
			<path
   class="st0"
   d="m 263.6,661.7 c 0,2.7 6,30.4 6,30.4 l -8.6,3 5.9,19.6 6.7,-2.2 1.1,3.3 c 7.6,-2.4 15.5,-4.7 23.5,-6.9 l -19.3,-86.3 -49.1,11.6 c -3,0.9 -6.1,1.7 -9,2.6 l 21.6,19.4 -13.8,76.6 c 7.8,-3.3 15.8,-6.5 24.1,-9.5 z"
   id="path30" />
			<path
   class="st0"
   d="M 351.6,677.2 330,682 329.2,612.7 c -7.7,1.2 -15.2,2.5 -22.7,3.9 v 90.2 c 12.5,-3.3 25.5,-6.2 38.8,-8.7 z"
   id="path31" />
			<path
   class="st6"
   d="m 460.6,645.1 c -11.1,0.5 -22.3,1.4 -33.3,2.4 l -2.1,8.8 -1.7,-8.5 c -6.7,0.6 -13.6,1.4 -20.3,2.2 l 8.1,36.7 c 2.8,-0.3 5.7,-0.6 8.5,-0.8 l 15.2,-1.6 9.1,-35.3 8.4,34.4 c 8.3,-0.5 16.8,-0.8 25.1,-1 l 8.1,-38.2 c -7,0.2 -14.1,0.4 -21.1,0.7 l -1.8,8.5 z"
   id="path32" />
			<path
   class="st6"
   d="M 526.8,665.9 V 649.7 H 539 l 1.5,-5 c -11.3,-0.5 -22.8,-0.7 -34.2,-0.8 l 0.1,38.1 c 14.6,0.1 29.2,0.6 43.6,1.4 l 4.6,-16.9 c -8.2,-0.3 -26.1,-0.6 -26.3,-0.6 z"
   id="path33" />
			<path
   class="st6"
   d="M 586.7,686.3 V 648 c -6.6,-0.6 -13.2,-1.2 -19.7,-1.7 l 0.5,38 c 4.6,0.5 15,1.6 19.2,2"
   id="path34" />
			<path
   class="st6"
   d="m 603.1,654.6 h 1.6 v 33 c 5.1,0.4 15,2.5 19.2,3.3 v -38.3 c -12,-1.8 -24.3,-3.3 -36.8,-4.6 l 2.5,5 c 1.2,1 7.8,1.6 13.5,1.6"
   id="path35" />
			<path
   class="st6"
   d="m 658.2,679.9 h -1.6 v -21.6 c -6.4,-1.3 -13,-2.5 -19.6,-3.6 v 38.1 c 1.5,0.3 4.3,1 7.8,1.9 14.3,2.5 28.5,5.6 42.2,8.9 l 5.6,-3.6 v -33.5 c -6.4,-1.6 -13,-3.2 -19.6,-4.7 v 22.1 l -2.1,-0.7 c -2.6,-1 -10.2,-3.3 -12.7,-3.3"
   id="path36" />
			<path
   class="st6"
   d="m 710.8,671.3 c -4.2,18.6 -6.9,30.8 -7.9,36.4 7.2,1.9 14.3,4 21.3,6.2 l 8,-36 c -6.9,-2.3 -14.1,-4.5 -21.4,-6.6"
   id="path37" />
			<path
   class="st6"
   d="m 762.7,689.2 c -6.7,-2.8 -13.7,-5.4 -20.8,-7.9 l 2.6,16.9 -8,-2.6 4.7,20.8 6.7,1.9 1.2,4.1 c 7,2.6 14,5.3 20.6,8.1 z"
   id="path38" />
			<path
   class="st6"
   d="m 237.3,692.6 -6.8,37.7 c 6.7,-2.8 13.6,-5.5 20.7,-8.1 l 6.8,-37.9 c -7.1,2.7 -14,5.4 -20.7,8.3"
   id="path39" />
			<path
   class="st6"
   d="m 268.7,680.4 c 1.3,6.1 2.4,11.3 2.4,11.4 l 0.3,1.3 -8.5,2.9 5.1,16.7 6.7,-2.2 1.2,3.3 c 6.8,-2.1 13.7,-4.1 20.6,-6 l -7.7,-34 c -6.9,2.2 -13.6,4.3 -20.1,6.6"
   id="path40" />
			<path
   class="st6"
   d="m 328.3,663.3 c -6.8,1.6 -13.6,3.3 -20.1,5.1 v 36.4 c 11.7,-2.9 23.8,-5.6 36,-8 l 5.2,-17.4 -20.9,4.8 z"
   id="path41" />
		</g>
		
			<linearGradient
   id="SVGID_00000078009516879999918160000008574139248617096625_"
   gradientUnits="userSpaceOnUse"
   x1="643.13733"
   y1="826.63019"
   x2="643.13733"
   y2="368.8381">
			<stop
   offset="0"
   style="stop-color:#9C1915"
   id="stop41" />
			<stop
   offset="1"
   style="stop-color:#E10716"
   id="stop42" />
		</linearGradient>
		<path
   style="fill:url(#SVGID_00000078009516879999918160000008574139248617096625_)"
   d="m 704.6,359.2 v 0 m -17,27.6 c -4.9,15.5 7.3,22.9 7.3,22.9 3.8,-1.1 9.7,-9 9.7,-9 -5.5,30 -30.5,40.5 -30.5,40.5 -3.5,0 -8.4,4.1 -8.4,4.1 -7,7.6 -13.5,15.5 -13.5,15.5 -2.4,46.2 -22.4,59.6 -22.4,59.6 0.3,-7.9 -3,-18.3 -3,-18.3 -4.4,16.9 -31.6,61.5 -31.6,61.5 -3.5,-1.4 -20.8,-2.7 -20.8,-2.7 l -6,13.3 c 24.9,3.7 44.2,11.1 51.4,14.1 16.9,2.2 33.5,5 49.6,8.1 h 0.1 c 5.7,-14.5 47.2,-123.5 48.1,-236.6 l -13.2,-0.5 v 0 c -8.3,18.8 -16.8,27.5 -16.8,27.5 m 17,-27.6 c 0,0 0,-0.1 0,-0.1 0,0 0,0 0,0.1"
   id="path42" />
		<g
   id="g44">
			<path
   class="st0"
   d="m 312,430.2 65.3,-16.1 7.4,-10.8 2,-2.9 -86.4,19.2 c 0,0 3.5,129 27.5,178.1 3,-0.5 6,-1.2 9,-1.7 -3.4,-11.5 -27.6,-95.2 -24.8,-165.8"
   id="path43" />
			<path
   class="st0"
   d="m 708.9,348.3 c -0.8,2.4 -1.8,4.8 -2.7,7 0,0.1 -0.1,0.1 -0.1,0.2 l -0.5,1 c 0,0.1 -0.1,0.2 -0.2,0.3 l -0.3,0.9 c -0.1,0.1 -0.1,0.2 -0.2,0.3 -0.1,0.3 -0.3,0.6 -0.5,1 0,0.1 0,0.1 0,0.2 l 13.2,0.5 C 716.9,473 675.3,582 669.7,596.4 l 7.8,1.6 c 53.1,-120.2 53.1,-251.6 53.1,-251.6 z"
   id="path44" />
		</g>
		
			<linearGradient
   id="SVGID_00000098190485097031861360000010469075333618445210_"
   gradientUnits="userSpaceOnUse"
   x1="570.13013"
   y1="773.79669"
   x2="570.13013"
   y2="75.177902">
			<stop
   offset="0"
   style="stop-color:#FFDC44"
   id="stop44" />
			<stop
   offset="0.278"
   style="stop-color:#FFDA43"
   id="stop45" />
			<stop
   offset="0.3781"
   style="stop-color:#FED341"
   id="stop46" />
			<stop
   offset="0.4495"
   style="stop-color:#FCC83E"
   id="stop47" />
			<stop
   offset="0.5072"
   style="stop-color:#F9B739"
   id="stop48" />
			<stop
   offset="0.5567"
   style="stop-color:#F5A133"
   id="stop49" />
			<stop
   offset="0.6004"
   style="stop-color:#F1852B"
   id="stop50" />
			<stop
   offset="0.639"
   style="stop-color:#EB6621"
   id="stop51" />
			<stop
   offset="0.6545"
   style="stop-color:#E9571D"
   id="stop52" />
			<stop
   offset="0.8384"
   style="stop-color:#E42620"
   id="stop53" />
			<stop
   offset="0.8838"
   style="stop-color:#EB5329"
   id="stop54" />
			<stop
   offset="0.9864"
   style="stop-color:#FCC43E"
   id="stop55" />
			<stop
   offset="1"
   style="stop-color:#FED341"
   id="stop56" />
			<stop
   offset="1"
   style="stop-color:#E42620"
   id="stop57" />
		</linearGradient>
		<path
   style="fill:url(#SVGID_00000098190485097031861360000010469075333618445210_)"
   d="m 763.9,177.9 c 0,0 1.7,14.9 18.4,16.3 0,0 20.1,-4.1 12.7,-13.1 0,0 -38.6,-54.6 -105.9,-14.1 -4.9,-1.6 -10.9,-3.8 -11.4,-4.8 0,0 14.4,-15 40.9,-16.7 0,0 -10.5,-4.7 -26.9,-4.7 -9.7,0 -21.6,1.7 -34.6,7 0,0 -3.1,1.4 0,5.9 0,0 0.1,0.1 0.2,0.3 0,0 0.1,0.1 0.1,0.1 0.1,0.2 0.3,0.4 0.4,0.6 0.1,0.1 0.2,0.2 0.3,0.3 0.2,0.3 0.4,0.5 0.6,0.9 0.1,0.2 0.3,0.3 0.4,0.5 0.3,0.3 0.5,0.6 0.8,1 0.2,0.2 0.4,0.4 0.6,0.6 0.3,0.4 0.6,0.7 1,1.1 0.2,0.2 0.4,0.5 0.7,0.7 0.4,0.4 0.8,0.8 1.2,1.2 0.3,0.2 0.5,0.5 0.8,0.7 0.4,0.4 0.9,0.8 1.3,1.2 0.3,0.3 0.6,0.5 0.9,0.8 0.5,0.4 0.9,0.8 1.4,1.1 0.4,0.3 0.7,0.5 1.1,0.8 0.5,0.3 1,0.7 1.5,1 0.4,0.3 0.9,0.5 1.3,0.8 0.5,0.3 1,0.6 1.5,0.9 0.5,0.2 1,0.5 1.5,0.7 0.5,0.2 1,0.4 1.5,0.6 0.6,0.2 1.2,0.4 1.8,0.6 0.4,0.1 0.9,0.3 1.4,0.4 0.7,0.2 1.4,0.3 2.1,0.4 0.4,0.1 0.8,0.1 1.1,0.2 0.8,0.1 1.7,0.1 2.6,0.1 0.3,0 0.5,0 0.8,0 1,0 2.1,-0.1 3.1,-0.3 0.1,0 0.2,0 0.3,-0.1 1.2,-0.2 2.4,-0.5 3.6,-1 10.3,5.8 34,20.6 42.3,40.2 0,0 -10,5.5 -32.8,5.5 0,0 -24.6,1.5 -28.7,-9.4 0,0 -9.5,-12.1 -3.5,-26.2 0,0 -31.9,-23.5 -68.8,-7.9 0,0 -28.8,7.6 -45.3,39.2 0,0 28,1.4 23.7,26.8 0,0 -1.5,29.7 -29.1,42.1 0,0 6.4,-17.9 0,-25 0,0 -8.3,-13.6 -28,-11.3 0,0 13.1,-16.7 30,-13.9 0,0 5.2,0.4 4.2,5.6 0,0 0.6,4.4 -7,5.3 l -5.4,0.6 c 0,0 1.9,8.3 12.6,9.4 0,0 12.3,-0.2 15,-13.6 0,0 1,-15.4 -24.1,-14.8 0,0 -44.7,-1.3 -74.3,49.6 0,0 26.6,-13.3 37,-8.7 0,0 1.3,3.3 -1.4,4.6 0,0 -58.5,34.8 -68,56.3 0,0 -1.4,1 -3.3,-1.7 0,0 -19.8,-24.2 -30,-21.5 0,0 7.5,32.8 8.9,51.8 0,0 -1,6.9 -4.3,10 l -39,57.2 9.5,3.2 c 0,0 -10.9,11.1 -21.9,14.5 0,0 -2.5,14.8 2,26.9 0,0 7.7,26.5 35.8,31.3 0,0 12,-0.8 14.1,1.1 0,0 8.7,3.8 21.1,-0.9 h 0.9 c 0,0 -39,25.8 -35.3,78.4 0,0 -33,4.2 -41.4,7 l 11.6,20.7 c 0,0 0.8,0.8 -0.8,1 0,0 -19,3.9 -25.2,5.8 v 2.8 0 l 32.1,-5.9 -3.3,-16.2 40.1,-3.7 c 0,0 -18.9,-40.5 24.8,-81 l 55.4,-56 c 0,0 -24,-5.2 -40.8,13.3 0,0 -10.3,13.8 -4.1,13.8 l 9.7,-0.7 c 0,0 -10,10.3 -26.5,12.7 0,0 -20.7,0.8 -22.9,-3 l 0.8,2.2 c 0,0 -27.6,2.1 -35.9,-20.4 0,0 -8.9,-18.5 1.3,-26.4 0,0 25.7,-20.7 25.7,-22.3 l -14.6,-3.6 c 0,0 25.4,-34 32.1,-47.6 0,0 5.1,-4.1 4.3,-18.3 0,0 -0.3,-26.1 -3.2,-35.6 0,0 13.8,10 18.6,18.2 0,0 24.6,-37.3 77.5,-60.1 0,0 -15.2,16.1 -20,35.9 0,0 7.6,-7.1 27,-12.1 0,0 -19.9,21.1 -9.4,16.3 0,0 34.3,-27.7 109.6,-20.9 0,0 -18.9,7.9 -21.3,12 0,0 30.8,8.7 49.1,40.5 0,0 -21.9,-11.4 -30.2,-7.9 0,0 39.9,37.6 38.1,98 0,0 -10.3,-17.7 -16.7,-23.9 0,0 5.7,36.2 0.3,63.4 0,0 -5.5,22.3 -6.3,27.7 0,0 -4.6,-21.5 -7.8,-26.7 0,0 -12.7,37.9 -38.1,79.5 h -22.3 c 0,0 -12.7,13 -15.1,29.6 0,0 48.3,4.1 71.3,7.4 0,0 -22.7,-10.9 -54.6,-15.5 l 6,-13.3 c 0,0 17.3,1.4 20.8,2.7 0,0 27.2,-44.6 31.6,-61.5 0,0 3.2,10.4 3,18.3 0,0 20,-13.4 22.4,-59.6 0,0 6.4,-7.9 13.5,-15.5 0,0 4.9,-4.1 8.4,-4.1 0,0 25,-10.5 30.5,-40.5 0,0 -6,7.9 -9.7,9 0,0 -12.1,-7.4 -7.3,-22.9 0,0 12.4,-12.5 22.1,-40.5 0,0 3.5,-10.9 4.3,-28.8 0,0 0.6,-3.2 2.2,-5.7 0,0 7.3,-10.7 7,-20.9 0,0.7 -1,1.3 -2.5,1.9 1.7,-1.9 4.3,-3.6 5.7,-5.6 3.6,-5.2 5.7,-11.2 2.9,-17.3 -1.1,-2.5 -3.3,-3.3 -5.7,-3.3 -2.6,0 -5.4,1 -7.2,2.1 -6.1,3.8 -9.3,11.4 -11.4,17.8 1.3,-4.1 8.9,-4.8 12.4,-4.5 6.5,0.8 5.1,6.3 2.9,10.9 -3,1 -7.3,1.5 -8.3,1.4 -5.6,-0.8 -10.7,-6.6 -13.4,-11.3 -3.1,-5.2 -3.3,-11.6 -2.7,-17.5 0,0 23,-35.6 92.3,-11.4 0,0 13.3,-20.1 2.7,-36.2 0,0 -14.1,-20.9 -33.7,-35.1 0,0 -8.2,-6.6 -6.5,-10.1 0,0 14.6,-4.3 24.9,6.8 -0.4,-0.4 -5.6,2.4 -12.1,-2 z m -143.2,43.2 c 5.5,17.7 5.2,38.3 -10.5,50.8 2.1,-1.7 -3.7,-19.3 -4.6,-22.1 -3.5,-9.8 -5.8,-21.7 -1.6,-31.6 4.4,-10.4 15.6,-7.9 24.7,-6.4 -5.1,1.5 -9.8,3.3 -8,9.3 z"
   id="path57" />
		
			<linearGradient
   id="SVGID_00000152962443506179407250000001175892727918790316_"
   gradientUnits="userSpaceOnUse"
   x1="373.29181"
   y1="826.62183"
   x2="373.29181"
   y2="368.8313">
			<stop
   offset="0"
   style="stop-color:#9C1915"
   id="stop58" />
			<stop
   offset="1"
   style="stop-color:#E10716"
   id="stop59" />
		</linearGradient>
		<path
   style="fill:url(#SVGID_00000152962443506179407250000001175892727918790316_)"
   d="m 312.1,430.2 c -2.8,70.5 21.3,154.3 24.7,165.7 l 6.1,13.2 c 0,0 0.3,0 0.8,-0.2 2.9,-0.9 8.8,-2.2 14.1,-3.4 4.7,-1.1 9,-2.1 10.2,-2.1 0.5,-0.2 0.8,-0.2 0.8,-0.2 0.4,-0.1 0.7,-0.1 0.8,-0.2 0,-0.1 0.2,-0.1 0.2,-0.2 0.1,-0.1 0,-0.3 -0.1,-0.4 v -0.1 l -6.2,-10.9 -5.4,-9.8 c 8.4,-2.8 41.4,-7 41.4,-7 -3.7,-52.6 35.3,-78.4 35.3,-78.4 h -0.9 c -12.4,4.6 -21.1,0.9 -21.1,0.9 -2.1,-1.9 -14.1,-1.1 -14.1,-1.1 -28.1,-4.8 -35.8,-31.3 -35.8,-31.3 -4.5,-12.1 -2,-26.9 -2,-26.9 10.9,-3.3 21.9,-14.5 21.9,-14.5 l -9.5,-3.2 4,-5.9 z"
   id="path59" />
		
			<linearGradient
   id="SVGID_00000144328952551423681040000001979374902699180468_"
   gradientUnits="userSpaceOnUse"
   x1="628.0163"
   y1="205.2968"
   x2="772.7674"
   y2="205.2968">
			<stop
   offset="0"
   style="stop-color:#E9571D"
   id="stop60" />
			<stop
   offset="0.4606"
   style="stop-color:#FFDC44"
   id="stop61" />
			<stop
   offset="1"
   style="stop-color:#FFDC44"
   id="stop62" />
		</linearGradient>
		<path
   style="fill:url(#SVGID_00000144328952551423681040000001979374902699180468_)"
   d="m 711.7,169.4 c 14,-0.6 25.7,9.2 34,19.4 5,6.1 23.4,30.8 5,32.4 -26.9,2.5 -52.3,0.7 -79.1,-2.4 -10.1,-1.2 -38,-5.5 -43,7.5 -2.5,6.7 4,14.7 7.5,19.8 -1.1,-1.6 10.1,-10.7 11.6,-11.7 4.6,-2.9 9.8,-4.5 15,-5.8 13.6,-3.3 27.6,-4.3 41.5,-4.2 14.7,0.1 29.8,-0.2 44.4,1.9 4.3,0.6 8.5,1.8 12.9,1.9 4.6,0.1 10.7,0.4 11.3,-5.6 0.7,-7.5 -7.2,-14.3 -11,-20.1 -5.4,-8.1 -12.3,-14.7 -19.4,-21.4 -3.1,-3 -6.4,-7.4 -10.4,-9.1 0.3,-4.3 8.3,-6 11.8,-6.7 -2.5,-0.5 -5.2,-0.8 -7.8,-0.8 -8.3,0 -16.7,2.4 -24.3,4.9"
   id="path62" />
		
			<linearGradient
   id="SVGID_00000157307333916394372500000015547860054934772642_"
   gradientUnits="userSpaceOnUse"
   x1="627.34082"
   y1="215.52631"
   x2="656.18988"
   y2="215.52631">
			<stop
   offset="0"
   style="stop-color:#E9571D"
   id="stop63" />
			<stop
   offset="0.4606"
   style="stop-color:#FFDC44"
   id="stop64" />
			<stop
   offset="1"
   style="stop-color:#FFDC44"
   id="stop65" />
		</linearGradient>
		<path
   style="fill:url(#SVGID_00000157307333916394372500000015547860054934772642_)"
   d="m 627.3,221 c 2.3,-1.8 14.4,-11.6 28.8,-7.7 0,0 -8.1,-3.2 -15.8,-3.2 -6.3,0 -12.5,2.3 -13,10.9"
   id="path65" />
		
			<linearGradient
   id="SVGID_00000114758584273248577190000005927203481519712906_"
   gradientUnits="userSpaceOnUse"
   x1="503.0289"
   y1="266.43839"
   x2="547.245"
   y2="266.43839">
			<stop
   offset="0"
   style="stop-color:#FFDC44"
   id="stop66" />
			<stop
   offset="1"
   style="stop-color:#FBBD0B"
   id="stop67" />
		</linearGradient>
		<path
   style="fill:url(#SVGID_00000114758584273248577190000005927203481519712906_)"
   d="m 503,258.1 c 5.3,-2.6 8.7,1.5 13.1,3.7 2.7,1.4 8.7,0.1 8.7,4.4 0,4.6 -7,6.4 -9.9,8.4 -4,2.8 -6,7.2 -7.9,11.5 2.6,-2.8 5.7,-4.6 9.1,-6.2 5.1,-2.4 7.4,-5.1 11.1,-7.7 6,-4.3 12.9,-10.5 20.1,-4 -1.7,-1.4 -2.8,-4.1 -4.6,-5.7 -1.8,-1.6 -3.9,-3 -6,-4.1 -3.7,-1.9 -7.8,-3 -11.9,-3.8 -2.4,-0.5 -8,-0.5 -9.3,-2.9 -1.6,-2.9 4.5,-4.7 6.5,-5 -7.8,1.4 -15.8,3.3 -19,11.4"
   id="path67" />
		
			<linearGradient
   id="SVGID_00000168807064768363076020000005057386775020160953_"
   gradientUnits="userSpaceOnUse"
   x1="725.26648"
   y1="164.8701"
   x2="567.28473"
   y2="439.9277">
			<stop
   offset="0"
   style="stop-color:#FFDC44"
   id="stop68" />
			<stop
   offset="3.619776e-02"
   style="stop-color:#FED843"
   id="stop69" />
			<stop
   offset="7.565284e-02"
   style="stop-color:#FCCA3F"
   id="stop70" />
			<stop
   offset="0.1166"
   style="stop-color:#F8B538"
   id="stop71" />
			<stop
   offset="0.1587"
   style="stop-color:#F39630"
   id="stop72" />
			<stop
   offset="0.2011"
   style="stop-color:#ED6F24"
   id="stop73" />
			<stop
   offset="0.2242"
   style="stop-color:#E9571D"
   id="stop74" />
			<stop
   offset="0.4417"
   style="stop-color:#F9B539"
   id="stop75" />
			<stop
   offset="0.8148"
   style="stop-color:#FDD241"
   id="stop76" />
		</linearGradient>
		<path
   style="fill:url(#SVGID_00000168807064768363076020000005057386775020160953_)"
   d="m 674.6,438.1 c -0.1,-0.1 -0.2,-0.3 -0.4,-0.4 -1.3,-0.7 -2.4,-2.9 -3.2,-4 -1.1,-1.4 -2.1,-2.8 -3.1,-4.3 -6.8,5 -12.4,9.4 -24.2,11.6 -0.3,-17.6 -2.6,-32.2 -2.6,-32.2 6.4,6.2 16.7,23.9 16.7,23.9 0.3,-11.8 -0.9,-22.7 -3.1,-32.6 3,-0.1 5,0 5,0 0.4,0 1.2,-0.2 2.3,-0.5 -0.1,-1.6 -0.2,-3.1 -0.2,-4.7 0,-1.9 0.4,-3.9 0,-5.8 -0.3,-1.7 -1.4,-3 -2,-4.6 -1.6,-3.9 -2.6,-8.1 -3.8,-12.2 -0.4,-1.1 -4.8,-12.7 -4.6,-12.8 3.3,-2.3 6.3,-5 9.1,-7.8 0.8,-0.8 3.6,-3 1.3,-3.3 -2.3,-0.3 -3.8,-0.9 -5.5,-2.6 -2.9,-3 -5,-6.5 -7.8,-9.5 -1.9,-2 -4.1,-3.6 -6.4,-5.2 1.3,-1.5 2.6,-3 3.9,-4.5 4.3,-5.4 8.3,-11 11.9,-17 4.1,-6.9 6.8,-14.4 8.6,-22.1 -0.1,0 -0.2,0.1 -0.2,0.1 -0.4,-0.1 -1.6,0.7 -2,0.9 -1.5,0.7 -2.9,1.3 -4.4,1.9 -10.4,4.5 -21,8.5 -32,11.4 -7.4,1.9 -15.5,-1.6 -22.7,-3 1.5,-0.9 3,-1.8 4.6,-2.7 4.1,-2.2 8.3,-4.2 12.6,-5.9 -4.2,-0.3 -8.5,-0.6 -12.7,-0.8 -7,-0.3 -14,-0.3 -20.9,0 -6.1,0.3 -12.1,0.9 -18.2,1.6 -0.4,-0.9 -0.8,-1.7 -1.2,-2.6 -0.4,-0.9 -1.2,-2.4 -1,-3.4 0.2,-0.7 0.9,-1.1 1.4,-1.6 2,-2.1 3,-5.2 4.5,-7.7 2.1,-3.6 4.2,-7 5.7,-10.8 1.8,-4.5 3.3,-9.2 4.3,-13.9 1.2,-5.3 1.3,-10.7 0.6,-16.1 -0.5,-3.6 -1.4,-7.1 -2.4,-10.6 -0.4,-1.5 -0.3,-3.1 -0.3,-4.7 0,-2.7 0.4,-5.1 1.6,-7.5 1.6,-3.1 3.6,-6.1 6.3,-8.2 16.8,-13.2 56.9,-22.1 70.8,-0.1 2.1,3.3 2.6,7.2 3,11.1 -0.1,-0.1 -0.1,-0.3 -0.2,-0.3 -0.5,-0.4 -0.8,-1.2 -1.3,-1.7 -0.7,-0.9 -1.6,-1.8 -2.4,-2.6 -2.8,-2.8 -6,-5.3 -9.3,-7.5 -4.2,-2.8 -8.9,-5 -13.8,-6.1 -19.4,-4.1 -36,13.3 -39.7,30.9 -0.8,3.8 -1.4,7.7 -1.5,11.7 -0.3,7.4 0.6,14.8 2.9,21.8 1.8,5.9 4.6,11.6 8.2,16.5 2.1,2.8 4.6,5.6 7.6,7.5 2,1.3 4.4,2.2 6.9,2 3.4,-0.3 6,-2.7 7.8,-5.4 3,-4.7 4.2,-10.5 4.7,-16 0.6,-6 0.4,-12.1 -0.3,-18.1 -0.5,-3.9 -1.3,-7.8 -2.3,-11.6 0.3,0.5 0.6,1 0.9,1.5 3.2,5.7 5.7,11.8 6.1,18.3 0.1,-0.2 0.1,-0.4 0.2,-0.6 0.6,-1.3 1,-2.7 1.6,-4.1 1.2,-2.6 2.6,-5.2 4.2,-7.5 2.1,-3 4.7,-5.7 7.8,-7.6 5.7,-3.4 12.9,-3.3 19.3,-3.8 8.1,-0.6 16.3,-1.1 24.4,-1.3 17,-0.4 34.2,0.2 51,2.9 9.9,1.6 21.7,5.3 29.3,-3.7 6.3,-7.4 -6.5,-20.9 -9.8,-27.1 8.4,7.9 20.9,17.1 23.1,29.2 1.9,10.4 -5.8,12.8 -14.6,12 -11.5,-1.1 -22.5,-4.2 -34.3,-3.8 -3.6,0.1 -7.2,0.5 -10.7,1.1 -12,2 -23.3,5.9 -34.8,9.3 -5.7,1.7 -10.2,5.2 -15.5,7.8 -5.2,2.6 -10,5.8 -14.6,9.3 -4.5,3.5 -8.7,7.5 -12.9,11.4 1,-0.2 1.9,-0.4 2.8,-0.6 4.9,-1.2 9.8,-2.7 14.6,-4.5 6.4,-2.4 12.3,-5.9 18,-9.6 0,0.1 -0.1,0.3 -0.1,0.3 0,0.5 -0.5,1.4 -0.6,2 -0.4,1.2 -0.8,2.5 -1.2,3.8 -1.5,4.5 -3.1,9 -4.7,13.4 -2.2,5.9 -4.4,11.8 -6.8,17.6 -2.6,6.3 -5.3,12.5 -8.3,18.5 -2.8,5.6 -6,11.1 -9.3,16.5 0,0 0.1,0.1 0.2,0.1 0.4,0.7 2.4,0.5 3,0.4 3.8,-0.9 6.5,-5.3 8.5,-8.3 4.6,-7.1 7.9,-14.9 11.1,-22.7 2.8,-6.7 5.3,-13.5 7.7,-20.4 0.9,-2.6 1.7,-5.1 2.5,-7.8 0.1,1 0.4,2.1 0.7,3.1 1.4,5 3.7,9.9 6.9,14.1 4.7,6.2 11.1,8.5 18.4,10.3 0,0.1 -0.1,0.2 -0.1,0.3 0.1,1 -1.2,3 -1.6,3.8 -1.3,2.9 -2.8,5.8 -4.2,8.7 -2.2,4.2 -4.5,8.3 -7.1,12.2 -3,4.5 -6.5,8.6 -10.3,12.5 -4.2,4.2 -8.8,7.9 -13.3,11.6 0.9,-0.3 1.9,-0.7 2.8,-1 4.5,-1.7 8.8,-3.7 12.8,-6.2 4.5,-2.8 7.9,-6 10.3,-10.7 -0.1,0.3 -0.2,0.5 -0.3,0.8 -0.7,1.9 -1.1,3.8 -1.6,5.8 -1.1,4.1 -2.4,8.2 -4,12.2 -2.2,5.3 -4.8,10.3 -7.8,15.1 -2.5,3.9 -5.2,7.6 -8,11.2 -1.7,2.1 -3.4,4.2 -5.2,6.3 -1.8,2.1 -3.6,5.7 -6,7.2 2.2,-1.4 4.3,-3 5.7,-4.9 0,0 4.2,-1.3 6,-0.8 0,0 -4.6,12.6 8,22.6 0,0 3.8,3.1 4.9,-0.3 -0.3,-0.1 1.3,10 -21.7,26.2 z"
   id="path76" />
		
			<linearGradient
   id="SVGID_00000183242949186179078610000003949759805833409973_"
   gradientUnits="userSpaceOnUse"
   x1="499.57819"
   y1="284.21011"
   x2="558.99481"
   y2="284.21011">
			<stop
   offset="0"
   style="stop-color:#E9571D"
   id="stop77" />
			<stop
   offset="0.1541"
   style="stop-color:#EA621E"
   id="stop78" />
			<stop
   offset="0.6552"
   style="stop-color:#FFDC44"
   id="stop79" />
			<stop
   offset="1"
   style="stop-color:#FFDC44"
   id="stop80" />
		</linearGradient>
		<path
   style="fill:url(#SVGID_00000183242949186179078610000003949759805833409973_)"
   d="m 538.5,264.7 c -2.7,0.6 -4.4,2.6 -6.7,4.1 -2.1,1.5 -4.1,3 -6.3,4.4 -3.7,2.4 -6.4,5.4 -9.7,6.8 -3.8,1.6 -7.4,4.1 -9.4,6.8 -1.7,2.4 0.1,4.9 -1.1,7.5 -0.8,1.6 -2.1,2.8 -3.1,4.1 -1.2,1.6 -2,3.5 -2.7,5.4 3.7,-1.7 7.1,-3.8 10.9,-5.3 1.9,-0.7 3.8,-1.4 5.7,-2.1 1.8,-0.6 3.8,-1.6 5.8,-1.6 -1.5,1.6 -3.2,3 -4.4,4.8 2.9,0.2 5.8,0 8.6,0.5 2.6,0.4 4.7,1 7.3,0 5.2,-2.2 10.6,-3.7 16,-5.2 3.1,-0.9 6.3,-1.5 9.4,-2.2 -4.4,-1.6 -9.4,-2.5 -13.5,-4.7 1.4,-3.3 2.9,-6.7 3.4,-10.2 0.5,-3.3 0.3,-7.6 -2.1,-10.2 -1.9,-2 -4.6,-3.5 -7.4,-3.2 -0.1,0.2 -0.4,0.2 -0.7,0.3 z"
   id="path80" />
		
			<linearGradient
   id="SVGID_00000003823324792644307280000014966000681239082391_"
   gradientUnits="userSpaceOnUse"
   x1="571.90723"
   y1="185.72701"
   x2="660.06543"
   y2="185.72701">
			<stop
   offset="0"
   style="stop-color:#E9571D"
   id="stop81" />
			<stop
   offset="0.4606"
   style="stop-color:#FFDC44"
   id="stop82" />
			<stop
   offset="1"
   style="stop-color:#FFDC44"
   id="stop83" />
		</linearGradient>
		<path
   style="fill:url(#SVGID_00000003823324792644307280000014966000681239082391_)"
   d="m 585.4,185.9 c -5.2,4.1 -9.8,8.7 -13.4,14.1 3.3,-2.7 7.6,-1 11.5,-1 4,0 7.6,-1.7 11,-3.6 9.3,-5.4 20,-7.7 30.8,-8.6 9.8,-0.8 21.7,1.6 31.2,-1.1 5,-1.4 4.8,-6.1 1.2,-8.5 -7.3,-4.9 -21.7,-5.7 -30.3,-5.7 -19,0 -32.9,7.2 -42,14.4"
   id="path83" />
		
			<linearGradient
   id="SVGID_00000060750894223853501640000015711745513272007067_"
   gradientUnits="userSpaceOnUse"
   x1="608.4317"
   y1="316.5675"
   x2="676.0791"
   y2="316.5675"
   gradientTransform="matrix(0.999,-0.0456,0.0456,0.999,-21.1182,18.2555)">
			<stop
   offset="0"
   style="stop-color:#E9571D"
   id="stop84" />
			<stop
   offset="0.7209"
   style="stop-color:#FFDC44"
   id="stop85" />
			<stop
   offset="1"
   style="stop-color:#FFDC44"
   id="stop86" />
		</linearGradient>
		<path
   style="fill:url(#SVGID_00000060750894223853501640000015711745513272007067_)"
   d="m 600.9,302.2 c 0,0 22.9,6.5 41.1,28.9 7,4.3 16.6,-18.1 19.5,-24.1 4.3,-9.2 7.4,-18.7 5.8,-30 -0.6,3.1 -6.8,6.8 -9.2,8.3 -4.1,2.6 -8.7,4.4 -13.3,5.8 -8.7,2.8 -17.9,4.1 -27,5.6 -3.5,0.6 -7,-0.5 -10.5,0.7 -2.5,1.4 -4.6,2.8 -5.7,4 -0.2,0.2 -0.5,0.5 -0.7,0.8 z"
   id="path86" />
		
			<linearGradient
   id="SVGID_00000073694927258765177310000013333093882116414081_"
   gradientUnits="userSpaceOnUse"
   x1="620.86041"
   y1="264.83401"
   x2="671.50488"
   y2="264.83401"
   gradientTransform="matrix(1.1355,-0.0353,0.0311,0.9995,-67.0739,14.0955)">
			<stop
   offset="0"
   style="stop-color:#FFDC44"
   id="stop87" />
			<stop
   offset="1"
   style="stop-color:#FBBD0B"
   id="stop88" />
		</linearGradient>
		<path
   style="fill:url(#SVGID_00000073694927258765177310000013333093882116414081_)"
   d="m 646.6,271.8 c 0,0 4,-36.9 56.6,-30.6 0,0.1 -45.8,8.8 -56.6,30.6 z"
   id="path88" />
	<path
   class="st0"
   d="m 528.8,714.5 h -21.4 c -4.2,0 -7.5,3.4 -7.5,7.5 v 43.3 c 0,4.2 3.4,7.5 7.5,7.5 h 21.4 c 4.2,0 7.5,-3.4 7.5,-7.5 V 750 H 522 v 5.7 c 0,1.4 -0.3,2.5 -1.7,2.5 H 517 c -1.4,0 -2,-1.1 -2,-2.5 V 729 c 0,-1.4 0.5,-2.5 1.8,-2.5 h 3.5 c 1.4,0 1.8,1.1 1.8,2.5 v 9.1 l 14.4,-9.5 V 722 c -0.1,-4.2 -3.5,-7.5 -7.7,-7.5 z"
   id="path89" /><polygon
   class="st0"
   points="489.4,736 478,736 478,728.5 490.5,728.5 494.7,714.5 463.6,714.5 463.6,772.9 478.7,772.9 478.7,750.6 484.8,750.6 "
   id="polygon89" /></g>
</svg>
