<?xml version="1.0" encoding="utf-8"?>
<!-- Generator: Adobe Illustrator 22.1.0, SVG Export Plug-In . SVG Version: 6.00 Build 0)  -->
<svg version="1.1" id="Layer_1" xmlns="http://www.w3.org/2000/svg" xmlns:xlink="http://www.w3.org/1999/xlink" x="0px" y="0px"
	 viewBox="0 0 68 68" enable-background="new 0 0 68 68" xml:space="preserve">
<g>
	<path fill="#FFFFFF" d="M62.153,26.352c-0.127-0.058-1.319-0.669-3.651-1.077V13.427c0,0-0.013-0.459-0.549-0.665
		c-0.538-0.206-2.718-1.023-2.718-1.023s-0.229-1.17-1.248-2.306c-1.019-1.135-1.994-1.347-1.994-1.347s-1.113,0.141-2.033,1.359
		h-4.088c0,0-1.099-2.265-2.717-2.265c-1.211,0-1.803,1.2-1.803,1.2h-2.174l-2.593-6.329c0,0-0.532-1.682-2.585-1.682
		c-2.052,0-2.585,1.682-2.585,1.682L28.822,8.38h-2.174c0,0-0.593-1.2-1.804-1.2c-1.619,0-2.717,2.265-2.717,2.265h-4.088
		c-0.92-1.218-2.033-1.359-2.033-1.359s-0.975,0.212-1.994,1.347c-1.018,1.135-1.248,2.306-1.248,2.306s-2.18,0.818-2.717,1.023
		c-0.537,0.206-0.55,0.665-0.55,0.665v11.848c-2.331,0.408-3.523,1.02-3.65,1.077c-0.127,0.058-0.106,0.152-0.106,0.152V40.16
		c0,0.13,0.071,0.162,0.071,0.162c1.122,0.524,2.46,0.909,4.012,1.16c0.618,3.917,2.644,7.329,2.644,7.329s-0.778,1.022-1.111,1.458
		c-0.334,0.435-0.396,0.623-0.247,1.011c0.148,0.388,0.679,1.27,0.679,1.27C17.866,61.584,34,67.63,34,67.63
		s16.134-6.046,22.211-15.08c0,0,0.531-0.882,0.68-1.27c0.148-0.388,0.086-0.577-0.248-1.011c-0.333-0.436-1.111-1.458-1.111-1.458
		s2.026-3.411,2.644-7.329c1.553-0.25,2.891-0.636,4.013-1.16c0,0,0.071-0.032,0.071-0.162V26.504
		C62.259,26.504,62.28,26.41,62.153,26.352z"/>
	<path fill="#666666" d="M34,24.41c-9.895,0-23.289,0.57-27.381,2.408v13.075c4.093,1.838,17.486,2.436,27.381,2.436
		c9.895,0,23.288-0.598,27.381-2.436V26.818C57.289,24.981,43.896,24.41,34,24.41z"/>
	<path fill="#050041" d="M54.55,48.908C51.221,55.686,44.149,61.983,34,66.699c9.599-4.059,18.743-9.836,21.813-16.128L54.55,48.908
		z"/>
	<path fill="#050041" d="M55.337,12.637v23.874c0,4.789-1.173,10.534-4.759,16.037c-0.813,1.442-1.733,2.84-2.748,4.131
		c0,0,9.505-8.031,9.505-18.45V13.392L55.337,12.637z"/>
	<path fill="#050041" d="M13.45,48.908C16.779,55.686,23.851,61.983,34,66.699c-9.598-4.059-18.742-9.836-21.813-16.128
		L13.45,48.908z"/>
	<path fill="#050041" d="M12.663,12.637v23.874c0,4.789,1.174,10.534,4.759,16.037c0.813,1.442,1.733,2.84,2.748,4.131
		c0,0-9.504-8.031-9.504-18.45V13.392L12.663,12.637z"/>
	<path fill="#DCDAD7" d="M54.792,24.096v-9.705c0,0,0.316-3.811-2.798-5.505c0,0-1.113,0.377-1.531,1.365h-5.116
		c0,0-1.086-2.329-2.346-2.282c0,0-0.568,0-1.161,1.223H38.58l-2.842-6.964c-0.312-0.675-0.984-1.051-1.722-1.056
		c-0.005,0-0.011,0-0.016,0c-0.005,0-0.011,0-0.016,0c-0.738,0.005-1.409,0.382-1.722,1.056L29.42,9.192h-3.261
		c-0.593-1.223-1.161-1.223-1.161-1.223c-1.26-0.047-2.346,2.282-2.346,2.282h-5.116c-0.418-0.988-1.531-1.365-1.531-1.365
		c-3.114,1.695-2.798,5.505-2.798,5.505v9.705c0,0-0.11,12.198,0.297,16.185C14.761,52.604,22.346,61.166,34,66.57
		c11.655-5.404,19.239-13.966,20.495-26.29C54.902,36.293,54.792,24.096,54.792,24.096z"/>
	<path fill="#1E439B" d="M25.501,27.118V27.04l-11.16,3.814c0.003,0.69,0.009,1.396,0.018,2.101l12.962-5.838H25.501z"/>
	<path fill="#1E439B" d="M28.535,27.118l-14.148,7.699c0.017,0.872,0.039,1.714,0.067,2.49L29.56,27.118H28.535z"/>
	<path fill="#1E439B" d="M25.501,26.036h-3.125l-8.039,1.315c-0.002,0.579-0.002,1.213-0.001,1.883l11.165-2.911V26.036z"/>
	<path fill="#1E439B" d="M19.818,25.205h-5.47c-0.001,0.193-0.003,0.408-0.004,0.644l5.474-0.484V25.205z"/>
	<path fill="#1E439B" d="M31.411,27.118L15.495,45.022c0.292,1.101,0.642,2.166,1.05,3.196l15.336-21.1H31.411z"/>
	<path fill="#1E439B" d="M32.97,27.118L21.61,56.438c0.874,0.99,1.821,1.932,2.839,2.827l8.85-32.147H32.97z"/>
	<path fill="#1E439B" d="M32.262,27.118l-14.52,23.715c0.573,1.097,1.217,2.149,1.93,3.157l12.972-26.871H32.262z"/>
	<path fill="#1E439B" d="M30.27,27.118l-15.7,12.434c0.018,0.243,0.037,0.467,0.058,0.669c0.079,0.774,0.185,1.532,0.314,2.275
		l15.974-15.379H30.27z"/>
	<path fill="#1E439B" d="M33.6,27.118L27.092,61.37c1.233,0.892,2.546,1.729,3.935,2.512l2.903-36.763H33.6z"/>
	<path fill="#050041" d="M32.644,27.118L19.671,53.99c0.598,0.847,1.246,1.663,1.939,2.449l11.359-29.32H32.644z"/>
	<path fill="#050041" d="M31.88,27.118l-15.336,21.1c0.356,0.898,0.756,1.77,1.197,2.614l14.52-23.715H31.88z"/>
	<path fill="#050041" d="M30.917,27.118L14.943,42.497c0.151,0.862,0.335,1.704,0.552,2.526l15.916-17.904H30.917z"/>
	<path fill="#050041" d="M27.321,27.118l-12.962,5.838c0.007,0.626,0.016,1.251,0.028,1.862l14.148-7.699H27.321z"/>
	<path fill="#050041" d="M25.501,26.322l-11.165,2.911c0.001,0.523,0.002,1.066,0.005,1.621l11.16-3.814V26.322z"/>
	<path fill="#050041" d="M19.818,26.036v-0.67l-5.474,0.484c-0.002,0.437-0.005,0.944-0.006,1.501l8.039-1.315H19.818z"/>
	<path fill="#050041" d="M29.56,27.118L14.455,37.307c0.03,0.844,0.068,1.609,0.116,2.245l15.7-12.434H29.56z"/>
	<path fill="#050041" d="M33.299,27.118l-8.85,32.147c0.835,0.733,1.716,1.434,2.643,2.104L33.6,27.118H33.299z"/>
	<path fill="#050041" d="M34,27.118h-0.071l-2.903,36.763c0.956,0.539,1.947,1.052,2.973,1.542V27.118z"/>
	<path fill="#050041" d="M42.499,27.118V27.04l11.159,3.814c-0.003,0.69-0.009,1.396-0.017,2.101l-12.962-5.838H42.499z"/>
	<path fill="#050041" d="M39.466,27.118l14.147,7.699c-0.017,0.872-0.039,1.714-0.067,2.49L38.439,27.118H39.466z"/>
	<path fill="#050041" d="M42.499,26.036h3.125l8.039,1.315c0.002,0.579,0.002,1.213,0.002,1.883l-11.165-2.911V26.036z"/>
	<path fill="#050041" d="M48.183,25.205h5.469c0.002,0.193,0.003,0.408,0.004,0.644l-5.473-0.484V25.205z"/>
	<path fill="#050041" d="M36.589,27.118l15.916,17.904c-0.291,1.101-0.642,2.166-1.05,3.196l-15.336-21.1H36.589z"/>
	<path fill="#050041" d="M35.03,27.118l11.36,29.32c-0.874,0.99-1.821,1.932-2.839,2.827l-8.85-32.147H35.03z"/>
	<path fill="#050041" d="M35.738,27.118l14.52,23.715c-0.573,1.097-1.217,2.149-1.93,3.157L35.356,27.118H35.738z"/>
	<path fill="#050041" d="M37.73,27.118l15.7,12.434c-0.018,0.243-0.037,0.467-0.058,0.669c-0.079,0.774-0.185,1.532-0.314,2.275
		L37.084,27.118H37.73z"/>
	<path fill="#050041" d="M34.401,27.118l6.507,34.251c-1.233,0.892-2.545,1.729-3.934,2.512l-2.903-36.763H34.401z"/>
	<path fill="#1E439B" d="M35.356,27.118L48.329,53.99c-0.598,0.847-1.245,1.663-1.939,2.449l-11.36-29.32H35.356z"/>
	<path fill="#1E439B" d="M36.119,27.118l15.336,21.1c-0.356,0.898-0.755,1.77-1.197,2.614l-14.52-23.715H36.119z"/>
	<path fill="#1E439B" d="M37.084,27.118l15.974,15.379c-0.151,0.862-0.335,1.704-0.552,2.526L36.589,27.118H37.084z"/>
	<path fill="#1E439B" d="M40.679,27.118l12.962,5.838c-0.008,0.626-0.017,1.251-0.029,1.862l-14.147-7.699H40.679z"/>
	<path fill="#1E439B" d="M42.499,26.322l11.165,2.911c-0.001,0.523-0.002,1.066-0.006,1.621L42.499,27.04V26.322z"/>
	<path fill="#1E439B" d="M48.183,26.036v-0.67l5.473,0.484c0.003,0.437,0.005,0.944,0.006,1.501l-8.039-1.315H48.183z"/>
	<path fill="#1E439B" d="M38.439,27.118l15.106,10.189c-0.031,0.844-0.069,1.609-0.116,2.245l-15.7-12.434H38.439z"/>
	<path fill="#1E439B" d="M34.701,27.118l8.85,32.147c-0.835,0.733-1.716,1.434-2.643,2.104l-6.507-34.251H34.701z"/>
	<path fill="#1E439B" d="M34,27.118h0.071l2.903,36.763c-0.956,0.539-1.948,1.052-2.974,1.542V27.118z"/>
	<path fill="#333333" d="M34,28.445c-19.489,0.114-23.341-0.437-27.369-1.526v12.934c3.58-0.995,7.826-1.525,27.369-1.525
		s23.789,0.53,27.369,1.525V26.919C57.341,28.009,53.489,28.559,34,28.445z"/>
	<path fill="#D1D3D4" d="M34,28.811c-9.895,0-23.278,0.084-27.369-1.993V39.83c4.091-2.078,17.474-1.823,27.369-1.823
		c9.895,0,23.279-0.255,27.369,1.823V26.818C57.279,28.895,43.895,28.811,34,28.811z"/>
	<path fill="#050041" d="M34,29.157c9.895,0,23.279,0.083,27.369-1.993v12.408c-4.09-2.075-17.474-1.823-27.369-1.823
		c-9.895,0-23.278-0.253-27.369,1.823V27.164C10.722,29.24,24.105,29.157,34,29.157z"/>
	<path fill="#03357A" d="M7.47,38.29c0,0,0.699-0.313,2.599-0.62c-0.492-0.727-0.831-2.262-0.831-4.039
		c0-2.129,0.488-3.912,1.142-4.374c-1.287-0.237-2.257-0.426-2.91-0.696V38.29z"/>
	<path fill="#03357A" d="M60.531,38.29c0,0-0.7-0.313-2.599-0.62c0.493-0.727,0.832-2.262,0.832-4.039
		c0-2.129-0.488-3.912-1.142-4.374c1.287-0.237,2.257-0.426,2.91-0.696V38.29z"/>
	<path fill="#000036" d="M32.202,6.102l0.006-0.044c-0.001,0.001-0.004,0.018-0.006,0.035V6.102z M30.866,10.152
		C30.83,8.9,31.338,8.233,31.338,8.233l0.182,0.207c-0.182-0.967,0.108-1.277,0.314-1.703c0.05-0.037,0.186,0.265,0.186,0.265
		s0.064-0.094,0.182-0.899c0.002-0.026,0.005-0.043,0.007-0.059c0.122-0.821,0.518-0.848,0.518-0.848
		c0.049-1.129,0.431-0.764,0.484-1.117c0.103-0.701,0.332-0.707,0.394-0.695l0.009-0.039V3.23L33.66,3.07
		c0,0,0.047-0.251,0.047-0.41c0-0.159,0.233-0.141,0.233-0.141s0.231-0.018,0.231,0.141c0,0.159,0.048,0.41,0.048,0.41l0.046,0.159
		v0.115l0.008,0.039c0.063-0.012,0.292-0.005,0.394,0.695c0.054,0.353,0.437-0.012,0.483,1.117c0,0,0.401,0.027,0.52,0.863
		c0.121,0.846,0.188,0.943,0.188,0.943s0.124-0.277,0.175-0.276c0.218,0.437,0.507,0.748,0.326,1.715l0.181-0.207
		c0,0,0.508,0.667,0.472,1.922c0.016,0.017,0.063,0.026,0.092,0.095c0.036,0.087,0.047,0.104,0.047,0.156v0.086l0.008,0.052
		c0,0,0.01,0.087,0.019,0.13c0.008,0.044,0.026,0.096,0.026,0.096h5.897c0.088,0.002-0.013-0.433,0.036-0.784
		c0.006-0.074,0.065-0.117,0.174-0.087c0.127,0.012,0.736,0.248,1.095,1.742l0.025,0.032c0.017-0.003,7.534,0,7.534,0
		c0.017-0.47,0.009-0.894,0.225-1.022c0.767-0.007,1.369,2.725,1.369,2.725c0.014,0.032,0.025,0.067,0.016,0.097
		c-0.009,0.031-0.003,0.034,0,0.075c0.006,0.09,0.006,0.119,0.006,0.119s0.011,0.028,0.013,0.058l-0.002,9.843h-2.04
		c0.006,0.336,0.016,0.636,0.016,0.636l-7.172-0.002l-0.009,0.799h-3.963v0.179H27.054v-0.179H23.31v-0.797l-6.813-0.034
		l0.001-0.602h-2.093V13.87c0.016-0.344,0.166-2.498,1.47-3.314c0.293,0.156,0.404,0.896,0.535,1.213h7.109
		c0,0,0.68-1.739,0.99-1.98c0.258-0.199,0.399,0.013,0.399,0.013c0.098,0.144,0.157,0.594,0.157,0.594s0.014,0.062,0.007,0.123
		c-0.005,0.047-0.006,0.093-0.006,0.151c0.008,0.013,0.023,0.021,0.039,0.021h5.605c0.013,0-0.067-0.459,0.066-0.55
		C30.79,10.131,30.834,10.139,30.866,10.152"/>
	<g>
		<path fill="#FFFFFF" d="M25.333,21.338c0-0.125-0.045-0.178-0.045-0.178l-0.453-0.005c0,0,0.328-0.043,0.366-0.279
			c0.038-0.238,0.006-0.251,0.006-0.251l-0.134,0.099c0,0,0.103-0.079,0.096-0.191c-0.006-0.112-0.045-0.277-0.045-0.277
			s-0.13,0.067-0.164,0.119c0.012-0.035-0.007-0.127-0.051-0.217c-0.071-0.144-0.255-0.257-0.255-0.257s-0.326,0.342-0.262,0.468
			l-0.1-0.119c0,0-0.151,0.178-0.114,0.297c0.039,0.119,0.059,0.145,0.059,0.145s-0.122-0.151-0.141-0.099
			c-0.019,0.053,0,0.165,0.077,0.33c0.077,0.164,0.224,0.252,0.237,0.298c0.013,0.046,0.008,0.215,0.014,0.262
			c0.006,0.046,0.02,0.124,0.162,0.143c0.141,0.019,0.239-0.021,0.329-0.041c0.09-0.021,0.36-0.068,0.36-0.068
			S25.333,21.463,25.333,21.338z"/>
		<path fill="#FFFFFF" d="M27.186,13.133c-0.846-0.011-2.784-0.053-2.979-0.547c-0.352-0.888,0.507-2.394,0.507-2.394l-0.048-0.139
			c0,0-0.87,1.508-1.196,3.154h3.819C27.289,13.209,27.699,13.133,27.186,13.133z"/>
		<path fill="#FFFFFF" d="M22.068,12.233c0.296,0.003,0.623,0.02,0.634,1.424c-0.018,0.622,0.146,0.662,0.146,0.662
			s0.157-1.496,0.562-2.233l-6.962-0.006c0.005,0.005,0.041,0.121,0.041,0.121L22.068,12.233z"/>
		<path fill="#FFFFFF" d="M30.481,13.519l-0.653-0.01c-0.656-0.024-6.499-0.014-6.501-0.002c-0.004,0.045-0.004,0.086,0.032,0.12
			c0.074,0.069,6.974-0.077,6.974-0.077C30.365,13.549,30.486,13.533,30.481,13.519z"/>
		<path fill="#FFFFFF" d="M20.811,14.302c0,0-3.324-0.081-4.122-0.092c-0.985-0.014-1.401-0.288-1.365-1.393
			c0.078-1.34,0.379-1.628,0.418-1.659c-0.297,0.207-0.884,1.08-0.902,3.156l7.125,0.063C22.065,14.334,20.998,14.313,20.811,14.302
			z"/>
		<path fill="#FFFFFF" d="M15.743,11.157c0.001-0.001,0.003-0.003,0.004-0.003C15.747,11.154,15.746,11.155,15.743,11.157z"/>
		<path fill="#FFFFFF" d="M14.809,19.653c-0.003,0.435-0.004,0.723-0.002,0.735c0.006,0.054,0.029,0.076,0.029,0.076
			s0.167,0.086,0.195,0.054c0.027-0.032-0.115-0.11-0.115-0.11l-0.011-0.911c0,0,0.07-3.963,0.037-4.246l-0.005-0.102l0.101-0.061
			l-0.127,0.01c-0.022-0.009-0.089-0.016-0.096-0.016c-0.02,0-0.012,0.291-0.013,0.354c-0.006,0.377-0.014,0.747-0.014,1.127
			C14.788,16.911,14.798,18.621,14.809,19.653z"/>
		<path fill="#FFFFFF" d="M23.449,14.62l-0.026-0.062l-0.084-0.021c0,0-0.064,5.239-0.054,5.291
			c0.011,0.052,0.044,0.073,0.044,0.073s0.252,0.042,0.292,0.011c0.04-0.031-0.185-0.071-0.172-0.333v-4.854V14.62z"/>
		<path fill="#FFFFFF" d="M20.461,21.072c-0.033,0-0.025,0.19,0,0.19l0.549-0.004c0.03,0,0.032-0.185,0-0.185L20.461,21.072z"/>
		<path fill="#FFFFFF" d="M16.972,21.073c-0.029,0-0.037,0.186,0,0.186l0.62,0.001c0.029,0,0.033-0.186,0-0.186L16.972,21.073z"/>
		<path fill="#FFFFFF" d="M14.986,21.236l1.397-0.035c0.011-0.03-0.063-0.046-0.222-0.048c-0.269,0.008-0.814-0.002-1.633-0.026
			c-0.009,0,0.001,0.066-0.007,0.112C14.676,21.216,14.832,21.239,14.986,21.236z"/>
		<path fill="#FFFFFF" d="M23.57,20.924c0.039,0,0.114,0.02,0.138-0.013c0.051-0.07,0.06-0.217-0.004-0.318
			c-0.042-0.032-6.659,0.039-6.735-0.012c-0.14-0.091-0.126-0.272-0.068-0.262c0.019,0.004,0.039,0.055,0.067,0.008
			c0.025-0.042,0.061-0.207,0.06-0.263c-0.002-0.123-0.084-0.762-0.697-0.73l-0.011,0.035c0.056,0.081,0.091,0.191,0.064,0.299
			c-0.006,0.025-0.052,0.07-0.085,0.097c-0.015,0.068,0.075,0.141,0.159,0.132c0.053-0.006-0.032,0.097-0.042,0.114
			c-0.009,0.015,0.001,0.046,0.01,0.064c0.018,0.037,0.003,0.162,0.001,0.199c-0.011,0.268,0.11,0.642,0.538,0.653
			c0.186,0.005,4.178,0,4.178,0L23.57,20.924z"/>
		<path fill="#FFFFFF" d="M22.793,14.739c0-0.071-7.553-0.172-7.898-0.179c-0.084-0.001-0.003,0.284,0.021,0.284
			c0.134-0.002,7.937-0.024,7.937-0.024L22.793,14.739z"/>
		<path fill="#FFFFFF" d="M23.75,20.14c-0.03-0.023-1.298-0.019-1.443-0.023C22.01,20.108,22.03,20.083,22,20.028
			c-0.012-0.022-0.023-0.068,0.064-0.056c0.017-0.03,0.043-0.146,0.043-0.186c-0.002-0.126,0.022-0.513-0.491-0.514l-0.009,0.026
			c0.04,0.057,0.065,0.135,0.046,0.21c-0.003,0.017-0.037,0.05-0.06,0.069c-0.011,0.048,0.053,0.1,0.113,0.093
			c0.037-0.004-0.027,0.05-0.023,0.126c-0.022,0.4,0.144,0.595,0.69,0.591c0.054-0.001,1.341,0.028,1.357,0.006
			C23.765,20.343,23.76,20.147,23.75,20.14z"/>
		<path fill="#FFFFFF" d="M16.614,18.814h2.637c0,0,1.262,0.041,1.92,0c0.175-0.047,0.164-0.477,0.131-0.746l0.007-0.201
			c0.018-0.309,0.029-0.63,0.034-0.963l0.009-0.138l-0.001-0.077l0.002-0.088l0.006-0.165l0.009-0.248
			c0.004-0.08-0.006-0.133-0.02-0.161c-0.009-0.08-0.022-0.146-0.042-0.185c0.025-0.018,0.086-0.036-0.029-0.047l-0.177-0.002
			c-0.146-0.007-0.31-0.007-0.458-0.004c-1.412-0.01-4.366-0.029-4.404,0.026c-0.166,0.248-0.049,2.288-0.029,2.67
			C16.224,18.779,16.614,18.814,16.614,18.814z"/>
		<path fill="#FFFFFF" d="M24.115,21.367c0-0.022-0.978-0.016-1.014-0.016h-0.825l-1.856,0.001c-0.608,0-1.203,0.008-1.806,0.008
			c-0.616,0-1.227-0.007-1.857-0.007l-0.015,0.014l-0.006,0.367c0,0.015,0.19,0.019,0.227,0.019h0.774
			c0.619,0,1.232-0.011,1.857-0.011l1.857-0.001c0.623,0,2.001,0.004,2.651-0.008C24.101,21.601,24.115,21.491,24.115,21.367z"/>
		<path fill="#FFFFFF" d="M38.016,22.068l-7.987,0.021c-0.036,0-0.168-0.021-0.168,0c0,0.02-0.135,0.259-0.099,0.259
			c0.467,0.008,7.731-0.039,8.445,0C38.207,22.348,38.166,22.087,38.016,22.068z"/>
		<path fill="#FFFFFF" d="M51.429,21.741l0.003-0.356c0-0.017-0.204-0.007-0.244-0.007c-0.256,0-0.524-0.004-0.788-0.004
			l-1.888-0.001l-1.888-0.002c-0.633,0-1.683,0.006-2.316,0.006c-0.039,0-0.03,0.3-0.03,0.365c0,0.013,0.626,0.009,0.667,0.009
			l0.788,0.002h1.886l1.889-0.003L51.429,21.741z"/>
		<path fill="#FFFFFF" d="M44.536,22.087c-0.027-0.019-0.239-0.022-0.443-0.017l-0.091-0.002l-5.378,0.023
			c0.099,0.143,0.01,0.044,0.078,0.147c0.029,0.005,0.051,0.011,0.056,0.014c0.031,0.029,0.062,0.159,0.109,0.145
			c0.243-0.072,4.314-0.04,4.314-0.04l0.005,1.824L42.372,24.2l0.01,0.537l0.916-0.021l0.705-0.002c0.039,0,0.212,0.006,0.212-0.023
			c0-0.036-0.008-0.074-0.008-0.11l-0.021-0.466c-0.04,0-0.147,0.025-0.147-0.014l0.003-0.957l-0.003-0.23
			c0-0.061,0.172,0.026,0.172-0.045l0.025-0.314l0.005-0.081c0.004-0.062,0.019-0.244,0.074-0.282l0.162-0.094
			C44.497,22.099,44.582,22.12,44.536,22.087z"/>
		<path fill="#FFFFFF" d="M47.153,22.444c0.009-0.033,0.088-0.287,0.061-0.338c-0.022-0.043-0.16-0.057-0.268-0.068h-1.079
			c0,0,0.752,0.073,0.746,0.42l0.008,1.025c0.006,0.225,0.469,0.44,0.499,0.437c0.011-0.002,0.024-0.016,0.031-0.048
			c-0.002-0.019,0.025-0.269,0.008-0.273c-0.022-0.003-0.044,0.005-0.067,0.003c-0.013,0.02-0.029-0.035-0.029-0.044
			c-0.001-0.073,0.012-1.096,0.012-1.096L47.153,22.444z"/>
		<path fill="#FFFFFF" d="M51.115,21.972l-0.047,0.003c0,0,0,0.003-0.268,0.003l-1.318-0.003c-0.037,0.001,0.14,0.086,0.14,0.086
			l0.542,0.04c0.447,0.001,0.649,0.205,0.618,0.895c-0.053,1.048,0.348,0.91,0.348,0.91c0.002-0.023,0.002-0.053,0.002-0.085v-0.17
			L51.13,22.71L51.115,21.972z"/>
		<path fill="#FFFFFF" d="M16.319,21.58c0,0-1.668-0.092-1.764-0.062c-0.001,0.041-0.006,0.19,0,0.19l1.874-0.087
			C16.432,21.62,16.437,21.583,16.319,21.58z"/>
		<path fill="#FFFFFF" d="M53.473,23.178c0-0.043-0.073-0.097-0.073-0.097l-0.27-0.032v-0.251l-0.063-0.028l-0.377,0.01v-0.107
			c0,0,0-0.043,0.011-0.096c0.011-0.054-0.011-0.076-0.051-0.086c-0.043-0.011-0.438,0.022-0.438,0.022L52.2,22.218
			c0,0,0.004-0.008-0.059-0.041c-0.062-0.032-0.356-0.008-0.356-0.008v-0.163l-0.017-0.082l-0.424,0.009v0.095l0.326,0.009
			l0.011,0.217l0.376,0.014c0,0-0.034,0.339,0.039,0.339c0.073,0,0.416-0.019,0.416-0.019l-0.011,0.273l0.405-0.003
			c0.052,0,0.022,0.279,0.022,0.279l0.343,0.003l0.015,0.248l0.208,0.004C53.494,23.393,53.473,23.221,53.473,23.178z"/>
		<path fill="#FFFFFF" d="M17.045,22.46c-0.005,0.113-0.026,0.284-0.026,0.37l-0.01,0.924l-0.038,0.102l0.252,0.003l1.442-0.004
			l-0.206-0.046l-0.965-0.041l0.001-1.484c0.11,0.001,0.214-0.253,0.311-0.256c0.431-0.019,0.528,0.002,0.906,0l0.209-0.078h-1.956
			C16.967,21.95,17.049,22.385,17.045,22.46z"/>
		<path fill="#FFFFFF" d="M20.926,21.944c-0.094-0.009-0.198-0.008-0.233-0.007c-0.141-0.004-0.307,0.032-0.378,0.075
			c-0.015,0.009,0.038,0.023,0.049,0.033c0.017,0.021,0.042,0.303,0.058,0.33c0.025,0.013,0.085-0.004,0.088,0.001
			c0.004,0.006-0.003,0.321-0.003,0.368c-0.001,0.108,0.011,0.806,0.001,0.839c0.027,0.008-0.042,0.017-0.091,0.039
			c-0.001,0.096-0.001,0.225,0.003,0.327c0.034,0.014,1.381,0,1.381,0l-0.531-0.123c0,0-0.339,0.002-0.325-0.222v-0.567v-0.631
			c0.009-0.202,0.131-0.324,0.51-0.327l0.466-0.036c0,0,0.151-0.087,0.119-0.089L20.926,21.944z"/>
		<path fill="#FFFFFF" d="M16.279,22.006v0.163c0,0-0.294-0.024-0.357,0.008c-0.062,0.032-0.057,0.041-0.057,0.041l-0.013,0.295
			c0,0-0.396-0.032-0.438-0.022c-0.042,0.011-0.062,0.032-0.053,0.086c0.011,0.053,0.011,0.096,0.011,0.096v0.107l-0.375-0.01
			l-0.063,0.028v0.251l-0.27,0.032c0,0-0.074,0.053-0.074,0.097c0,0.042-0.02,0.215-0.02,0.215l0.208-0.004l0.015-0.248l0.344-0.003
			c0,0-0.031-0.279,0.021-0.279l0.405,0.003l-0.013-0.273c0,0,0.344,0.019,0.417,0.019c0.074,0,0.04-0.339,0.04-0.339l0.374-0.014
			l0.012-0.217l0.327-0.009v-0.095l-0.424-0.009L16.279,22.006z"/>
		<path fill="#FFFFFF" d="M24.389,21.784c-0.045,0-0.034,0.19,0,0.19l0.759-0.003c0.042,0,0.044-0.185,0-0.185L24.389,21.784z"/>
		<path fill="#FFFFFF" d="M30.144,20.232c0.004,0.186-0.542,0.144-0.542,0.144l-0.075,0.093c0,0,0.574,0.009,0.795,0.006
			c0.067-0.001,0.143-0.071,0.148-0.183c0.044-0.984,0.044-5.732,0.044-5.732h-1.104l-0.068,0.102
			c0.532-0.021,0.801,0.12,0.809,0.425C30.151,15.087,30.143,20.166,30.144,20.232z"/>
		<path fill="#FFFFFF" d="M29.171,22.099c0,0-6.031-0.053-6.075-0.021c-0.047,0.035,0.061,0.019,0.091,0.05
			c0.05,0.048,0.143,0.057,0.163,0.118c0.017,0.056,0.023,0.299,0.061,0.299l0.102,0.001c0.03,0,0.098,0.004,0.098,0.004
			c0.014,0.013,0.001,0.362,0.001,0.407c0,0.07,0.167-0.021,0.167,0.044l0.001,1.161c0,0.037-0.07,0.018-0.102,0.018
			c-0.02,0-0.045-0.01-0.057,0.019c0.022,0.173-0.005,0.369-0.005,0.543c0,0.038,0.109,0.018,0.141,0.018l1.408-0.009l-0.033-0.47
			l-0.601-0.076l0.014-1.858c0,0,4.777,0.029,4.769,0c-0.025-0.089,0.082-0.124,0.144-0.226
			C29.477,22.089,29.217,22.099,29.171,22.099z"/>
		<path fill="#FFFFFF" d="M51.506,20.673c0.026-0.082,0.071-0.143,0.092-0.228c0.029-0.111-0.019-0.228,0.021-0.309
			c0.018-0.04-0.086-0.189-0.047-0.184c0.088,0.009,0.153-0.042,0.153-0.118c0-0.013-0.056-0.041-0.064-0.058
			c-0.039-0.076-0.025-0.214,0.005-0.287c0.007-0.02,0.022-0.036,0.032-0.052l-0.01-0.003c-0.49-0.025-0.81,0.982-0.511,0.927
			c0.004,0,0.025,0.041,0.023,0.053c-0.002,0.015-0.045,0.067-0.067,0.077c-0.094,0.046-0.248,0.068-0.35,0.081
			c-0.319,0.039-0.623,0.021-0.948,0.021c-0.616,0-1.198-0.005-1.823-0.005c-0.6,0-1.722,0.007-2.315,0.007
			c-0.276,0-0.543,0.011-0.819,0.011c-0.119,0-0.088,0.241-0.037,0.306c0.02,0.028,0.536,0.006,0.601,0.006l2.485,0.004
			c0.64,0,1.271,0.009,1.903,0.009c0.348,0,0.715-0.013,1.082-0.013c0.094,0,0.181,0.025,0.275,0.018
			c0.026-0.002,0.191-0.046,0.213-0.06C51.487,20.824,51.481,20.747,51.506,20.673z"/>
		<path fill="#FFFFFF" d="M44.724,14.175h0.065c0.025-0.098,0.257-0.541,0.212-1.289c-0.012-0.318,0.138-0.679,0.767-0.679h6.21
			l0.002-0.104c0,0-6.531,0.035-7.435,0C44.845,13.024,44.76,13.76,44.724,14.175z"/>
		<path fill="#FFFFFF" d="M44.212,20.691c0,0,0.019-0.026,0.058-0.145c0.038-0.119-0.115-0.297-0.115-0.297l-0.1,0.119
			c0.066-0.126-0.262-0.468-0.262-0.468s-0.183,0.113-0.253,0.257c-0.044,0.09-0.064,0.182-0.051,0.217
			c-0.033-0.052-0.163-0.119-0.163-0.119s-0.038,0.165-0.044,0.277c-0.007,0.112,0.095,0.191,0.095,0.191l-0.134-0.099
			c0,0-0.032,0.013,0.007,0.251c0.039,0.236,0.366,0.279,0.366,0.279l-0.452,0.005c0,0-0.046,0.052-0.046,0.178
			s0.058,0.178,0.058,0.178s0.27,0.048,0.359,0.068c0.091,0.019,0.189,0.06,0.33,0.041c0.142-0.019,0.156-0.097,0.162-0.143
			c0.007-0.046,0.002-0.216,0.015-0.262c0.013-0.046,0.16-0.134,0.238-0.298c0.076-0.165,0.096-0.277,0.076-0.33
			C44.335,20.54,44.212,20.691,44.212,20.691z"/>
		<path fill="#FFFFFF" d="M52.717,13.588c-0.242,0.484-1.299,0.53-2.042,0.53h-5.164l-0.025,0.057h7.823
			c-0.29-2.544-0.968-3.165-0.968-3.165v0.092C52.342,11.103,53.32,12.382,52.717,13.588z"/>
		<path fill="#FFFFFF" d="M44.011,21.737l-0.759-0.002c-0.045,0-0.034,0.152,0,0.152l0.759-0.004
			C44.052,21.883,44.055,21.737,44.011,21.737z"/>
		<path fill="#FFFFFF" d="M44.656,14.499c0.001,0.225,0.037,0.234,0.138,0.232c0,0,8.481-0.182,8.613-0.138
			c0.012-0.023-0.557-0.085-0.58-0.086C52.374,14.484,44.655,14.409,44.656,14.499z"/>
		<path fill="#FFFFFF" d="M44.29,13.956c0.03-0.134-6.781,0.036-6.833-0.035c0.034,0.102,0.055,0.243,0.083,0.359
			c0.009,0.035,6.601-0.215,6.601-0.215C44.193,14.065,44.259,14.101,44.29,13.956z"/>
		<path fill="#FFFFFF" d="M38.719,14.84l-0.064-0.087c0,0-0.958-0.068-0.958,0.049c0,0-0.051,5.679,0,5.693
			c0.02,0.006,0.487,0,0.487,0s-0.2-0.022-0.202-0.183c0.008-0.262,0.05-5.472,0.05-5.472H38.719z"/>
		<rect x="46.522" y="21.067" fill="#FFFFFF" width="0.611" height="0.157"/>
		<path fill="#FFFFFF" d="M30.407,13.841c0,0-6.794,0.186-7.074,0.014l-0.044,0.32c0.016,0.069,6.417-0.092,7.046-0.092
			C30.334,14.083,30.37,13.951,30.407,13.841z"/>
		<path fill="#FFFFFF" d="M51.575,21.434c0,0.028-0.006,0.128,0.001,0.128l1.872-0.059c0.004,0.001,0.009-0.025-0.108-0.027
			L51.575,21.434z"/>
		<path fill="#FFFFFF" d="M50.734,21.068c-0.033,0-0.032,0.157,0,0.157l0.632-0.001c0.033,0,0.034-0.158,0-0.158L50.734,21.068z"/>
		<path fill="#FFFFFF" d="M51.584,21.127c-0.009,0,0,0.044-0.007,0.075c0.155-0.016,0.311,0,0.465-0.002l1.397-0.023
			c0.011-0.019-0.063-0.031-0.222-0.032C52.949,21.15,52.405,21.143,51.584,21.127z"/>
		<path fill="#FFFFFF" d="M45.655,20.044c-0.019,0.004-0.047-0.01-0.065-0.008c-0.143,0.014-0.836,0-0.867,0.023
			c-0.011,0.008-0.017,0.203,0.02,0.253c0.017,0.023,0.729-0.006,0.781-0.006c0.13,0,0.278,0.03,0.406,0.008
			c0.028-0.005,0.138-0.039,0.158-0.054c0.048-0.042,0.131-0.357,0.134-0.43c0-0.027-0.02-0.09,0-0.161
			c-0.008-0.012-0.067-0.085-0.03-0.08c0.061,0.007,0.124-0.046,0.105-0.098c-0.016-0.013-0.048-0.046-0.053-0.063
			c-0.019-0.076,0.005-0.154,0.047-0.21l-0.009-0.025c-0.218-0.012-0.309,0.168-0.394,0.327c-0.031,0.056-0.086,0.132-0.097,0.187
			c-0.008,0.038,0.025,0.155,0.089,0.18c0.042-0.007,0.029,0.039,0.018,0.061C45.868,20.002,45.747,20.011,45.655,20.044z"/>
		<path fill="#FFFFFF" d="M53.098,20.552l-0.011,0.107c0,0,0.184,0.001,0.188-0.003c0.024-0.028,0.024-5.592,0.024-5.592H52.79
			l0.072,0.198l0.3-0.007l0.036,0.058l-0.002,5.238H53.098z"/>
		<path fill="#FFFFFF" d="M34.213,11.754c0.229,0.11,0.033,0.25,0.344,0.421c0.311,0.171,0.654,0.436,0.686,0.593
			c0.035,0.156,0.035,0.297,0.035,0.297s0.03,0.016,0.164,0.031c0.079,0.01,0.123,0.074,0.098-0.078
			c-0.065-0.39-0.05-0.437-0.443-0.748c-0.393-0.312-0.441-0.452-0.441-0.593c0-0.14-0.348-0.273-0.348-0.351
			c0-0.078-0.061-0.429-0.225-0.336c-0.163,0.094-0.212,0.175-0.393,0.452c-0.08,0.121-0.317,0.312-0.328,0.39
			c-0.089,0.72-0.567,0.551-0.637,1.248c-0.037,0.364,0.555,0.062,0.868,0.109c0.311,0.047,0.68-0.013,0.892,0.002
			c0.214,0.017,0.366,0.002,0.362-0.046c-0.044-0.095-0.137-0.142-0.279-0.14h-1.354c0.247-0.245,0.334-0.832,0.466-1.111
			c0.148-0.312,0.355-0.389,0.355-0.389S33.984,11.645,34.213,11.754z"/>
		<path fill="#FFFFFF" d="M31.235,14.147l-0.171-0.004c-0.06,0.014-0.047,0.383-0.047,0.383l0.115,0.002v6.327l-0.277,0.026
			l-0.163,0.061c0,0-0.031,0.525,0.012,0.529c0.268,0.026,0.604,0.031,0.782,0.018c0.178-0.013,0.065-0.416,0.065-0.416l0.05-6.904
			L31.235,14.147z"/>
		<path fill="#FFFFFF" d="M35.312,20.575c-0.614-0.016-2.146,0.024-2.758-0.03c-0.044-0.004-0.078-0.014-0.147,0.028
			c0.014,0.047-0.012,0.185,0.006,0.24c0.002,0.009,0.112,0.03,0.156,0.022c0.169-0.028,2.777,0.068,2.765,0.018
			C35.319,20.793,35.433,20.579,35.312,20.575z"/>
		<path fill="#FFFFFF" d="M35.737,14.481c0.003-0.085,0.011-0.346-0.009-0.388c-0.022-0.041-0.185-0.028-0.348-0.061
			c-0.162-0.034-0.228-0.05-0.466-0.058c-0.237-0.008-1.287,0.017-1.393,0.017c-0.11,0-0.629-0.075-0.953-0.008
			c-0.324,0.066-0.421,0.233-0.432,0.267c-0.011,0.032,0,0.091,0,0.215c0,0.125,0.194,0.184,0.194,0.184s0.13,0.049,0.174,0.033
			c0.043-0.017,2.908,0.042,3.016,0.042C35.629,14.722,35.733,14.558,35.737,14.481z"/>
		<path fill="#FFFFFF" d="M30.383,12.656c0.069,0.12,0.109-0.081,0.109-0.081c0.006-0.788,0.242-1.565,0.242-1.565l-5.759-0.012
			l-0.036,0.155h3.758C29.571,11.154,30.376,12.017,30.383,12.656z"/>
		<path fill="#FFFFFF" d="M28.283,17.214l0.014-0.841c0.003-0.124-0.007-0.193-0.019-0.211c-0.012-0.125-0.035-0.219-0.074-0.242
			c-0.186-0.024-0.458-0.023-0.681-0.018c-0.77-0.012-2.068-0.026-2.086,0.034c-0.093,0.29-0.003,2.684-0.016,3.13
			c-0.002,0.07-0.03,0.273,0.019,0.334l0.207,0.052l1.47-0.016c0,0,0.704,0.048,1.071,0c0.097-0.054,0.091-0.544,0.074-0.858
			l0.003-0.236C28.274,17.98,28.281,17.604,28.283,17.214z"/>
		<path fill="#FFFFFF" d="M37.789,13.378c-0.101,0-0.056,0.086-0.153,0.095c-0.048,0.004-0.002,0.094,0.003,0.119
			c4.182,0.013,6.854,0.027,6.654-0.129C44.278,13.449,38.251,13.378,37.789,13.378z"/>
		<path fill="#FFFFFF" d="M43.792,12.69c-0.351,0.455-4.695,0.368-4.695,0.368l0.074,0.06l5.13,0.001
			c0.048-0.804-0.226-1.826-0.573-2.546c-0.112-0.212-0.274-0.348-0.361-0.326C43.997,11.551,43.949,12.472,43.792,12.69z"/>
		<path fill="#FFFFFF" d="M38.927,13.119l-0.072-0.058h-0.146c-0.449-0.037-0.673-0.343-0.833-1.232
			c-0.082-0.533-0.193-0.69-0.193-0.69h5.449l0.003-0.093h-5.803c0.404,0.92,0.404,1.657,0.416,2.072H38.927z"/>
		<path fill="#FFFFFF" d="M30.858,13.429l0.048,0.052l1.047-0.031c-0.034-0.419-0.005-0.671-0.07-1.067
			c0.228-0.385,0.427-0.604,0.649-0.969l0.065-0.544c1.31-1.301,1.585-1.88,2.903,0.022c0.171,0.92,0.349,0.552,0.711,1.327
			c-0.053,0.44,0.013,0.813,0.093,1.256l0.93-0.017c0-0.157,0.085-0.457-0.096-0.551l0.03-0.682l-0.009-0.018l-0.563-0.058
			l-0.121-0.143l-0.008-0.402l-0.17-0.163c-0.016-0.24-0.096-0.514-0.232-0.718c-0.446-0.162-0.261-0.058-0.467-0.609
			c-0.073,0.061-0.164-0.183-0.185-0.213l-0.351-0.374c-0.275-0.2-0.849-0.369-1.027-0.587c-0.957,0.507-1.308,0.821-1.763,1.705
			l-0.234,0.181c-0.155,0.199-0.234,0.396-0.25,0.641l-0.155,0.139L31.633,12l-0.151,0.166l-0.545,0.078l0.056,0.613l-0.144,0.205
			L30.858,13.429z"/>
		<path fill="#FFFFFF" d="M44.218,19.665l0.084,0.021c0,0,0.007-5.054,0-5.093c-0.008-0.031-0.023-0.044-0.023-0.044
			s-0.056-0.083-0.083-0.052c-0.017,0.021,0,5.001,0,5.001v0.105L44.218,19.665z"/>
		<path fill="#FFFFFF" d="M33.949,8.268V3.691c0,0-0.316,0.851-1.138,2.669c-0.822,1.819-1.705,5.334-1.656,5.214
			C32.425,8.508,33.949,8.268,33.949,8.268z"/>
		<path fill="#FFFFFF" d="M36.505,21.489c0.177,0.012,0.512,0.007,0.781-0.018c0.042-0.004,0.027-0.603,0.027-0.603l-0.18,0.013
			l-0.276-0.026v-6.327l0.099,0.021c0,0,0.027-0.392-0.032-0.406l-0.538,0.026l0.05,6.904
			C36.438,21.073,36.326,21.476,36.505,21.489z"/>
	</g>
	<path fill="#FFFFFF" d="M42.136,18.579c0.017,0.314,0.022,0.804-0.074,0.858c-0.367,0.048-1.071,0-1.071,0l-1.469,0.016
		l-0.208-0.052c-0.05-0.061-0.021-0.263-0.019-0.334c0.013-0.446-0.076-2.84,0.017-3.13c0.023-0.079,2.409-0.031,2.808-0.025
		c0.036,0.007,0.04,0.017,0.036,0.028l0.008,0.263c0.006,0.036,0.009,0.092,0.009,0.17l-0.016,0.841
		c-0.002,0.39-0.008,0.766-0.018,1.13L42.136,18.579z"/>
	<path fill="#FFFFFF" d="M51.468,18.068c0.032,0.268,0.043,0.698-0.133,0.745c-0.658,0.042-1.92,0-1.92,0H46.78
		c0,0-0.39-0.035-0.405-0.329c-0.02-0.381-0.138-2.422,0.028-2.67c0.017-0.025,0.642-0.036,1.447-0.038h0.812h2.841
		c0.011,0.034,0.007,0.04,0,0.045v0.189c0.019,0.02,0.036,0.078,0.03,0.176l-0.024,0.717l-0.006,0.283v0.707L51.468,18.068z"/>
	<path fill="#FFFFFF" d="M35.603,16.466c0.03,0.593-0.055,3.79-0.108,3.856c-0.18-0.02-0.371-0.032-0.559-0.037l-2.357,0.004
		l-0.169-0.016c-0.022-1.727,0.064-3.496-0.015-5.213l0.105-0.022c0.868,0.047,2.089,0.068,2.971-0.037l0.107-0.007
		C35.578,14.995,35.587,16.13,35.603,16.466"/>
	<path fill="#FFFFFF" d="M36.002,21.436c0.017,0.048-3.713-0.03-3.957,0.004c-0.064,0.009-0.221-0.007-0.226-0.017
		c-0.025-0.053,0.015-0.189-0.003-0.233c0.099-0.043,0.148-0.035,0.212-0.032c0.878,0.032,3.087-0.062,3.971-0.067
		C36.172,21.09,35.982,21.378,36.002,21.436"/>
	<path fill="#FFFFFF" d="M30.335,23.006c0.08,0.1,7.579,0.028,7.749,0.092L38.2,23.25v0.094c-1.001,0.011-8.468,0-8.468,0
		c0.08-0.154,0.019-0.234,0.139-0.284C29.953,23.024,30.222,23.047,30.335,23.006"/>
	<path fill="#FFFFFF" d="M29.362,23.603c0.279,0.006,0.006,0.016,0.406,0.016h7.38c0.535,0,1.114,0.016,1.578,0.005
		c0.331-0.007,0.349,0.125,0.504,0.283h0.102v0.077l-10.721,0.004v-0.155c0.192-0.077,0.206-0.117,0.333-0.243L29.362,23.603z"/>
	<path fill="#FFFFFF" d="M39.407,24.256h0.304l0.508,0.545h-6.6h-5.992v-0.091h0.102c0.196-0.184,0.395-0.416,0.718-0.494
		c-0.018,0.286,11.021,0.172,11.018,0.169C39.461,24.383,39.473,24.368,39.407,24.256"/>
	<path fill="#000036" d="M44.087,33.701h0.583c-0.089-0.224-0.185-0.446-0.289-0.666C44.284,33.24,44.187,33.461,44.087,33.701
		 M15.639,32.209c0.088,0,0.413-0.065,0.413-0.179c-0.008-0.034-0.027-0.053-0.045-0.063c-0.116-0.072-0.266-0.121-0.46-0.121
		h-0.796v0.364H15.639z M15.637,35.209c0.206,0,0.321-0.037,0.381-0.069c0.062-0.035,0.15-0.099,0.15-0.389
		c0-0.199-0.06-0.298-0.165-0.377c-0.105-0.08-0.323-0.156-0.628-0.156h-0.625v0.993L15.637,35.209z M18.649,33.969v-1.55
		c-0.058,0.328-0.197,0.631-0.434,0.892l0.06,0.066C18.434,33.561,18.559,33.758,18.649,33.969 M27.799,33.477
		c0.575,0.071,0.974-0.094,1.115-0.207c0.134-0.109,0.242-0.285,0.242-0.642c0-0.207-0.072-0.356-0.272-0.498
		c-0.207-0.147-0.47-0.234-0.83-0.234h-0.255V33.477z M31.629,33.757c-0.116,0.263-0.28,0.507-0.493,0.724
		c-0.099,0.101-0.205,0.195-0.319,0.28l0.812,0.249V33.757z M36.756,33.477c0.574,0.071,0.974-0.094,1.114-0.207
		c0.135-0.109,0.242-0.285,0.242-0.642c0-0.207-0.073-0.356-0.272-0.498c-0.207-0.147-0.47-0.234-0.829-0.234h-0.255V33.477z
		 M36.756,35.939v1.242h-2.472h-0.196h-2.46l-0.488-0.006c-0.536,0-1.161-0.185-1.836-0.473c-0.49-0.205-0.991-0.46-1.506-0.763
		v1.236h-2.667v-1.648c-0.098,0.244-0.231,0.474-0.402,0.685c-0.616,0.755-1.748,1.025-2.731,1.025
		c-1.625,0-2.839-0.643-3.222-1.966c-0.118,0.596-0.48,1.083-1.055,1.424c-0.575,0.341-1.262,0.487-2.014,0.487h-3.589v-7.274h3.977
		c1.073,0,2.34,0.683,2.554,1.808v-1.813h2.63v4.678c0,0.46,0.193,0.64,0.712,0.64c0.385,0,0.524-0.103,0.588-0.184
		c0.068-0.083,0.128-0.216,0.128-0.456v-4.678l2.424-0.002h3.244c0.859,0,1.638,0.207,2.302,0.647
		c0.431,0.286,0.752,0.64,0.95,1.053v-1.7h2.46h0.196h3.05c0.858,0,1.638,0.207,2.301,0.647c0.756,0.502,1.176,1.211,1.176,2.08
		c0,0.711-0.225,1.347-0.718,1.853c-0.101,0.101-0.206,0.195-0.32,0.28c0.345,0.108,0.691,0.213,1.038,0.317v0.383
		c0.179-0.769,0.405-1.522,0.725-2.286c0.507-1.205,1.134-2.211,1.912-3.274h1.876c0.767,1.046,1.425,2.085,1.921,3.274
		c0.36,0.854,0.597,1.7,0.784,2.568v-5.842h1.677c0.831,0,1.904,1.78,2.253,2.358c0.181-0.287,0.385-0.588,0.611-0.904
		c0.35-0.499,0.958-1.454,1.639-1.454h1.675v7.28h-2.653v-2.086c-0.117,0.262-0.219,0.52-0.31,0.77l-0.109,0.339
		c-0.164,0.334-0.455,0.545-0.854,0.545c-0.361,0-0.606-0.217-0.724-0.373c-0.102-0.144-0.184-0.347-0.24-0.516
		c-0.09-0.255-0.193-0.511-0.311-0.772v2.093h-2.652l-0.892-0.006h-0.538h-0.899c-0.11-0.482-0.22-0.964-0.353-1.441h-1.926
		c-0.112,0.416-0.209,0.836-0.301,1.26l-0.037,0.181h-0.907h-0.538h-0.825h-0.337h-0.378c-0.535,0-1.16-0.185-1.834-0.473
		C37.772,36.497,37.27,36.242,36.756,35.939"/>
	<path fill="#FFFFFF" d="M39.568,34.02c0.352-0.36,0.528-0.823,0.528-1.391c0-0.63-0.289-1.139-0.869-1.522
		c-0.528-0.35-1.159-0.526-1.894-0.526h-2.533v5.922h1.241v-5.286h0.969c0.492,0,0.911,0.125,1.258,0.371
		c0.373,0.266,0.559,0.613,0.559,1.042c0,0.509-0.166,0.894-0.497,1.162c-0.325,0.261-0.958,0.461-1.719,0.354
		c-0.088-0.012-0.173-0.031-0.257-0.054v0.781c0.149,0.103,0.327,0.218,0.536,0.344c0.569,0.351,1.122,0.638,1.661,0.865
		c0.647,0.277,1.161,0.416,1.545,0.416v-0.272v-0.379v-0.27c-0.34-0.103-0.68-0.21-1.017-0.318
		c-0.451-0.159-0.817-0.331-1.099-0.514c0.249-0.046,0.426-0.086,0.532-0.119C38.952,34.492,39.305,34.29,39.568,34.02z"/>
	<path fill="#FFFFFF" d="M17.043,33.309c0.295-0.157,0.5-0.297,0.613-0.421c0.207-0.216,0.311-0.496,0.311-0.835
		c0-0.385-0.189-0.725-0.567-1.021c-0.378-0.296-0.812-0.444-1.304-0.444h-3.263v5.914h2.876c0.657,0,1.203-0.128,1.637-0.384
		c0.507-0.301,0.761-0.732,0.761-1.294c0-0.384-0.127-0.721-0.38-1.012C17.545,33.605,17.317,33.437,17.043,33.309z M16.377,35.727
		c-0.197,0.108-0.444,0.163-0.739,0.163c0,0-1.602,0.005-1.602,0v-4.725h1.51c0.321,0,0.603,0.076,0.846,0.23
		c0.248,0.147,0.373,0.359,0.373,0.635c0,0.184-0.081,0.358-0.24,0.526c-0.213,0.221-0.508,0.332-0.886,0.332h-1.362v0.651h1.097
		c0.409,0,0.803,0.102,1.073,0.303c0.29,0.221,0.434,0.525,0.434,0.91C16.881,35.214,16.713,35.54,16.377,35.727z"/>
	<path fill="#FFFFFF" d="M54.206,30.581c-0.155,0-0.505,0.385-1.048,1.154c-0.544,0.764-0.945,1.425-1.204,1.981
		c-0.264-0.562-0.66-1.218-1.189-1.966c-0.548-0.779-0.901-1.169-1.062-1.169h-0.963v5.922h1.226v-4
		c0.307,0.377,0.622,0.862,0.94,1.454c0.316,0.58,0.57,1.145,0.761,1.693c0.057,0.168,0.105,0.28,0.148,0.339
		c0.041,0.054,0.088,0.081,0.139,0.081c0.088,0,0.151-0.036,0.186-0.11l0.102-0.31c0.191-0.543,0.444-1.107,0.763-1.693
		c0.313-0.587,0.626-1.072,0.936-1.454v4h1.228v-5.922H54.206z"/>
	<path fill="#FFFFFF" d="M44.952,30.581h-1.131c-0.669,0.913-1.209,1.861-1.624,2.848c-0.408,0.981-0.703,2.003-0.884,3.069h0.323
		h0.538h0.324c0.223-1.037,0.515-2.01,0.877-2.921c0.333-0.831,0.67-1.484,1.012-1.957c0.196,0.271,0.393,0.612,0.591,1.025
		c0.253,0.527,0.488,1.105,0.699,1.736l-2.301,0.001c-0.099,0.237-0.158,0.39-0.179,0.459c-0.019,0.063-0.03,0.135-0.03,0.214h2.718
		c0.151,0.484,0.281,0.964,0.389,1.443h0.324h0.538h0.323c-0.181-1.085-0.473-2.109-0.877-3.069
		C46.178,32.462,45.634,31.512,44.952,30.581z"/>
	<path fill="#FFFFFF" d="M23.421,34.581c0,0.354-0.092,0.645-0.277,0.873c-0.242,0.297-0.626,0.446-1.153,0.446
		c-0.527,0-0.911-0.15-1.153-0.451c-0.182-0.224-0.272-0.514-0.272-0.868v-3.997h-1.203v3.72c0,0.605,0.156,1.101,0.466,1.486
		c0.414,0.513,1.27,0.769,2.171,0.769c0.9,0,1.752-0.254,2.167-0.762c0.316-0.389,0.473-0.887,0.473-1.493v-3.72h-1.218V34.581z"/>
	<path fill="#FFFFFF" d="M30.613,34.02c0.351-0.36,0.528-0.823,0.528-1.391c0-0.63-0.29-1.139-0.87-1.522
		c-0.528-0.35-1.159-0.526-1.895-0.526h-2.531v5.916h1.24v-5.281h0.968c0.492,0,0.911,0.125,1.257,0.371
		c0.373,0.266,0.559,0.613,0.559,1.042c0,0.509-0.165,0.894-0.497,1.162c-0.326,0.261-0.958,0.461-1.718,0.354
		c-0.088-0.012-0.174-0.031-0.256-0.054v0.781c0.148,0.103,0.326,0.218,0.535,0.344c0.57,0.351,1.124,0.638,1.662,0.865
		c0.647,0.277,1.162,0.416,1.546,0.416v-0.272v-0.379v-0.27c-0.342-0.103-0.681-0.21-1.017-0.318
		c-0.451-0.159-0.818-0.331-1.1-0.514c0.249-0.046,0.426-0.086,0.533-0.119C29.996,34.492,30.348,34.29,30.613,34.02z"/>
	<rect x="32.343" y="30.581" fill="#FFFFFF" width="1.227" height="5.922"/>
	<polygon fill="#050041" points="49.467,42.796 50.515,42.506 44.698,47.595 47.598,44.047 46.46,44.296 51.902,39.906 	"/>
	<polygon fill="#FFFFFF" points="50.925,40.825 48.997,43.058 49.867,42.845 45.772,46.472 48.075,43.741 47.166,43.979 	"/>
	<polygon fill="#050041" points="18.535,42.796 17.485,42.506 23.303,47.595 20.404,44.047 21.541,44.296 16.098,39.906 	"/>
	<polygon fill="#FFFFFF" points="17.076,40.825 19.005,43.058 18.134,42.845 22.229,46.472 19.927,43.741 20.835,43.979 	"/>
	<polygon fill="#000036" points="32.933,42.316 34.138,42.316 34.138,45.334 35.565,45.334 35.565,42.316 36.791,42.316 
		36.791,41.097 32.933,41.097 	"/>
	<path fill="#000036" d="M44.706,41.828c-0.285-0.3-0.678-0.498-1.151-0.608c-0.362-0.086-0.816-0.124-1.319-0.124
		c-0.013,0.001-1.052,0.001-1.052,0.001v4.237h1.734c0.684,0,1.412-0.266,1.838-0.792c0.303-0.365,0.438-0.824,0.438-1.345
		C45.194,42.654,45.045,42.184,44.706,41.828z M43.525,44.074c-0.163,0.125-0.448,0.217-0.913,0.224l-0.001-2.152
		c0.517,0.023,0.827,0.163,1.001,0.361c0.14,0.155,0.227,0.377,0.227,0.701C43.84,43.672,43.709,43.931,43.525,44.074z"/>
	<polygon fill="#000036" points="37.047,45.334 40.918,45.334 40.918,44.133 38.472,44.13 38.472,43.819 40.27,43.819 40.27,42.604 
		38.472,42.604 38.472,42.324 40.918,42.324 40.918,41.097 37.045,41.097 	"/>
	<path fill="#000036" d="M25.26,43.843c0,0.158-0.04,0.259-0.095,0.326c-0.061,0.075-0.175,0.141-0.425,0.141
		c-0.352,0-0.517-0.139-0.517-0.468v-2.746h-1.418v2.576c0,1.136,0.77,1.692,1.94,1.692c0.585,0,1.235-0.16,1.583-0.587
		c0.248-0.305,0.359-0.683,0.359-1.105v-2.576H25.26V43.843z"/>
	<path fill="#000036" d="M29.412,42.228c-0.216-0.199-1.241-1.131-1.601-1.131h-0.866v4.237h1.436v-2.257
		c0.213,0.209,0.953,1.035,1.03,1.175v1.082h1.434v-4.237h-1.434V42.228z"/>
	<rect x="31.2" y="41.097" fill="#000036" width="1.433" height="4.238"/>
	<path fill="#FFFFFF" d="M37.392,45.006h3.18v-0.544c0,0-2.439-0.002-2.445-0.005v-0.966h1.798v-0.558h-1.798v-0.937h2.445v-0.57
		h-3.18C37.388,41.428,37.392,44.847,37.392,45.006z"/>
	<polygon fill="#FFFFFF" points="33.278,41.988 34.482,41.988 34.482,45.006 35.219,45.006 35.219,41.988 36.444,41.988 
		36.444,41.426 33.278,41.426 	"/>
	<path fill="#FFFFFF" d="M44.448,42.049c-0.227-0.24-0.552-0.41-0.977-0.51c-0.327-0.077-0.731-0.116-1.219-0.116
		c-0.03,0.003-0.718,0.003-0.724,0v3.582h1.389c0.257,0,0.514-0.044,0.773-0.132c0.335-0.115,0.6-0.293,0.795-0.534
		c0.243-0.295,0.364-0.675,0.364-1.143C44.848,42.712,44.715,42.329,44.448,42.049z M43.743,44.33
		c-0.259,0.2-0.655,0.299-1.191,0.299h-0.285l-0.001-2.814h0.188c0.663,0,1.136,0.159,1.422,0.479
		c0.206,0.229,0.309,0.533,0.309,0.914C44.185,43.727,44.038,44.101,43.743,44.33z"/>
	<rect x="31.544" y="41.426" fill="#FFFFFF" width="0.743" height="3.579"/>
	<path fill="#FFFFFF" d="M29.757,43.041c-0.862-0.916-1.839-1.615-1.945-1.615H27.29v3.579h0.746V42.35
		c0.097,0.016,0.667,0.524,1.387,1.34c0.223,0.268,0.334,0.443,0.334,0.524v0.792h0.744v-3.579h-0.744V43.041z"/>
	<path fill="#FFFFFF" d="M25.605,43.843c0,0.214-0.055,0.39-0.167,0.528c-0.147,0.18-0.379,0.27-0.698,0.27
		c-0.319,0-0.551-0.091-0.698-0.273c-0.11-0.135-0.165-0.311-0.165-0.525v-2.416h-0.727v2.247c0,0.367,0.094,0.666,0.282,0.899
		c0.25,0.311,0.767,0.466,1.313,0.466c0.545,0,1.059-0.154,1.311-0.461c0.191-0.235,0.286-0.537,0.286-0.904v-2.247h-0.737V43.843z"
		/>
	<rect x="38.472" y="43.819" fill="#130848" width="1.798" height="0.244"/>
	<polygon fill="#130848" points="37.045,41.34 37.045,41.34 37.047,45.579 40.918,45.579 40.918,45.334 37.047,45.334 	"/>
	<rect x="38.472" y="42.324" fill="#130848" width="2.446" height="0.244"/>
	<path fill="#130848" d="M43.613,42.751c0.122,0.135,0.203,0.32,0.223,0.58c0.002-0.04,0.004-0.08,0.004-0.123
		c0-0.324-0.087-0.546-0.227-0.701c-0.174-0.198-0.484-0.337-1.001-0.361v0.245C43.128,42.415,43.439,42.555,43.613,42.751z"/>
	<path fill="#130848" d="M44.756,44.542c-0.427,0.526-1.154,0.792-1.838,0.792h-1.734v0.245h1.734c0.684,0,1.412-0.266,1.838-0.791
		c0.303-0.367,0.438-0.825,0.438-1.346c0-0.04-0.002-0.079-0.004-0.119C45.17,43.792,45.034,44.207,44.756,44.542z"/>
	<rect x="32.933" y="42.316" fill="#130848" width="1.205" height="0.244"/>
	<rect x="35.565" y="42.316" fill="#130848" width="1.225" height="0.244"/>
	<rect x="34.138" y="45.334" fill="#130848" width="1.428" height="0.245"/>
	<rect x="26.946" y="45.334" fill="#130848" width="1.436" height="0.245"/>
	<rect x="29.412" y="45.334" fill="#130848" width="1.434" height="0.245"/>
	<path fill="#130848" d="M28.382,43.077v0.244c0.213,0.209,0.953,1.035,1.03,1.174v-0.244
		C29.335,44.112,28.595,43.285,28.382,43.077z"/>
	<path fill="#130848" d="M24.745,45.365c-1.17,0-1.94-0.556-1.94-1.692v0.245c0,1.136,0.77,1.694,1.94,1.694
		c0.585,0,1.235-0.162,1.583-0.588c0.248-0.306,0.359-0.684,0.359-1.106v-0.245c0,0.422-0.11,0.8-0.359,1.105
		C25.981,45.205,25.33,45.365,24.745,45.365z"/>
	<rect x="31.2" y="45.335" fill="#130848" width="1.433" height="0.245"/>
</g>
</svg>
