<?xml version="1.0" encoding="UTF-8"?>
<svg xmlns="http://www.w3.org/2000/svg" version="1.1" viewBox="0 0 500 500">
  <defs>
    <style>
      .cls-1 {
        fill: #010101;
      }

      .cls-2 {
        fill: #012e5b;
      }

      .cls-3 {
        fill: #fcc835;
      }

      .cls-4 {
        fill: #fefefe;
      }

      .cls-5 {
        fill: #0a3662;
      }

      .cls-6 {
        fill: #04305d;
      }
    </style>
  </defs>
  <!-- Generator: Adobe Illustrator 28.6.0, SVG Export Plug-In . SVG Version: 1.2.0 Build 709)  -->
  <g>
    <g id="Layer_1">
      <g>
        <path class="cls-5" d="M236.8,494.9c-1.5-.9-3.1-.6-4.7-.7-22.5-2-44.2-7.4-64.7-16.8-54.8-25-91.7-66.2-111.1-123.2-8.7-25.5-11.8-51.9-9.6-78.8,3.9-47.7,22-89.3,54.7-124.3,30.1-32.1,67.1-52.3,110.2-60.6,43.5-8.4,85.5-2.9,125.5,16,41.7,19.7,72.9,50.3,94.1,91.2,11.7,22.7,18.9,46.7,21.5,72.1,4,38.5-2.4,75.3-19.3,110.1-19.8,40.8-50.2,71.6-90.5,92.4-23,11.9-47.4,18.9-73.2,21.6-2.7.3-5.5.2-8.2.9h-24.9ZM249.7,492.1c109.4-.1,201-87.4,201.2-200.6.2-110.9-87.9-200.4-198.7-201.6-111-1.2-201.7,86.6-203.1,198.6-1.3,112.9,89,203.3,200.6,203.6Z"/>
        <path class="cls-1" d="M47.4,225.8v-2.2c0-63,0-126,0-189,0-1.9.5-2.3,2.3-2.3,19.6,0,39.2.2,58.8,0,8.2,0,11.9,3,13.3,11.8.4,2.7.5,5.4.5,8.1,0,22.2,0,44.5,0,66.7,0,1.4-.4,2.3-1.5,3.2-5.8,4.4-11.3,9.1-16.9,14.3,0-1,0-1.7,0-2.4,0-26.5,0-53.1,0-79.6,0-6.3-4.1-7.2-8.8-6.2-.5.1-.7.4-.7.8,0,.5,0,1.1,0,1.6,0,31.2,0,62.3,0,93.5,0,1.3-.3,2.3-1.2,3.3-6.2,6.7-11.8,13.8-17.5,21.8,0-1.3,0-2,0-2.6,0-35.8,0-71.6,0-107.3,0-.7,0-1.4,0-2-.3-4.4-4.3-6.9-8.4-5.3-.5.2-.6.5-.6.9,0,.5,0,1.1,0,1.6,0,42.2,0,84.5,0,126.7,0,1.5-.3,2.7-1.1,4-7.1,12.4-12.9,25.4-17.4,38.9-.2.5-.4,1.1-.6,1.6,0,0-.2,0-.3,0Z"/>
        <path class="cls-1" d="M414.5,127.7c3.4,2.3,6.7,4.5,10,6.7.6.4,1.1.8,1.7,1.2,1.4.9,2.2.4,2.7-1.1,1.3-4,1.4-8.1.7-12.1-2.9-18.4-7.2-36.5-12.7-54.2-2.6-8.3-3.7-16.5-1.8-25.1.6-2.5,1.6-4.9,3.2-7,1.9-2.4,4.3-3.7,7.5-3.7,8.6,0,17.1,0,25.7,0,1.3,0,1.8.2,1.7,1.6,0,4.8-.1,9.5,0,14.3,0,1.6-.6,1.7-1.9,1.6-3-.3-5.9-.6-8.9-.7-3.2-.2-4,.6-4.5,3.8-.6,4,.7,7.7,1.8,11.4,5.5,19.5,9.7,39.2,12.8,59.2,1.8,11.6,1.7,23.3,1.1,35-.4,7.9-.9,15.8-3,23.4-1.5,5.3-4,10.1-9,13.1-1.3.8-1.7.6-2.4-.7-6.8-13.4-14.9-25.9-24.4-37.5-.5-.6-.7-1.1-.7-1.8,0-8.8,0-17.7,0-26.5,0-.2,0-.4.2-.8Z"/>
        <path class="cls-1" d="M410.9,152c-2.3-2.5-4.3-4.8-6.4-7-4.6-4.9-9.4-9.6-14.5-14-.9-.8-1.1-1.7-1.2-2.7-1.8-11.5-4-22.9-6.1-34.3-.5-2.6-2.1-3.6-4.2-5v31.8c-.9.4-1.2-.2-1.6-.5-5.3-3.9-10.7-7.5-16.2-10.9-1-.6-1.4-1.2-1.4-2.4,0-24.3,0-48.6,0-72.9,0-1.4.4-1.8,1.8-1.8,11.8,0,23.5,0,35.3,0,5.5,0,8.9,2.3,11,7.4,1.7,4.1,2.3,8.4,2.3,12.7,0,8.7.4,17.4-.3,26.1-.3,4.2-.9,8.4-2.9,12.2-.9,1.7-2,3.2-3.7,4-1.3.5-1.3,1.3-1.1,2.4,1.7,9.1,3.4,18.3,5,27.4,1.6,8.9,3,17.9,4.2,27.3ZM378.3,58.2c0,4.1,0,8.2,0,12.2,0,1.1.3,1.7,1.3,2.1,2.2.8,4.2,1.9,6.4,2.7,2.4.9,3.5.2,4.2-2.2.2-.7.4-1.5.4-2.2.3-6.8.2-13.6,0-20.4,0-.9-.2-1.9-.5-2.8-.4-1.6-1.5-2.4-3.1-2.5-2.4-.2-4.9-.2-7.3-.4-1.4-.1-1.6.4-1.6,1.7,0,3.9,0,7.9,0,11.8Z"/>
        <path class="cls-1" d="M158.8,98.9c-.8-3.1-1.5-6.1-2.3-9.3-3.5,1.7-6.9,3.4-10.2,5.1-1.1.5-2.1,1.3-3.2,1.7-3.9,1.3-5.4,4.1-5.5,7.9-.1,4.8-1.9,8.5-6.6,10.6-1.9.9-3.6,2.4-5.4,3.7-.3.2-.6.5-.9.3-.4-.3-.2-.7-.1-1.1,2.5-11.8,4.3-23.8,6.4-35.6,2.9-16.1,5.7-32.2,8.5-48.3.2-1.1.6-1.4,1.7-1.4,6.9,0,13.9,0,20.8,0,1.1,0,1.5.4,1.7,1.4,4.4,18.5,8.9,37.1,13.3,55.6.3,1.3.1,1.9-1.2,2.3-5.7,2-11.2,4.4-17,7.1ZM147.2,50.2c-1.9,10.6-3.6,20.7-5.4,31,3.5-1.7,6.8-3.3,10.1-4.8,1.2-.5,1.4-1.1,1-2.3-.5-1.3-.7-2.8-1-4.1-1.5-6.4-3-12.8-4.7-19.7Z"/>
        <path class="cls-1" d="M180.1,89.9v-1.8c0-17.9,0-35.8,0-53.7,0-1.8.6-2,2.2-2,11.5,0,23,0,34.5,0,8.6,0,12.9,3.7,13.8,12.2.3,3.4.2,6.8,0,10.2-.2,4.1-2.4,6.8-6,8.5-1,.5-1.2.9-.7,1.9,2.3,4.2,3.8,8.9,6.4,12.9.6,1,.2,1.1-.7,1.2-5.6.4-11.2,1.3-16.7,2.3-1.1.2-1.5-.4-1.8-1.1-1.6-3.9-3.3-7.7-4.9-11.6-.6-1.5-1.1-1.9-2.8-1.4-4.3,1.5-4.3,1.4-4.3,6,0,3.2,0,6.4,0,9.6,0,.7,0,1.4-1,1.6-5.9,1.5-11.6,3.2-17.3,5.2-.2,0-.4,0-.7,0ZM199.1,59.4c3.1-.7,6-1.5,8.9-2,2.1-.4,3.3-1.6,3.5-3.6.3-2.4.3-4.7,0-7.1-.4-3.1-2.5-4.8-5.5-4.8-1.9,0-3.8,0-5.7,0-.7,0-1.2,0-1.2.9,0,5.5,0,11,0,16.6Z"/>
        <path class="cls-1" d="M260.6,55.4c0-7,0-14,0-21,0-1.7.5-2,2-2,12,0,24.1,0,36.1,0,7.6,0,11.3,3.1,12.2,10.7.2,1.4.3,2.8.3,4.3,0,12.6,0,25.2,0,37.7,0,2-.5,2.2-2.3,1.6-4.8-1.5-9.7-2.7-14.6-3.7-1.2-.2-1.6-.7-1.6-2,0-10.1,0-20.1,0-30.2,0-.5,0-1,0-1.4-.3-5.7-2.1-7.4-7.8-7.4-1.7,0-3.9-.8-4.8.4-.8,1-.3,3.1-.3,4.7,0,10.4,0,20.8,0,31.2,0,1.7-.4,2.1-2,1.8-5.3-.8-10.7-1.3-16-1.5-1.3,0-1.4-.7-1.3-1.7,0-7.2,0-14.4,0-21.6Z"/>
        <path class="cls-1" d="M336,68.9c0,3.4-.2,6.5,0,9.6.2,2.4,1.3,4.3,3.9,5.1,4.4,1.4,8.7,3.1,13,4.6,1,.3,1.4.7,1.4,1.8,0,5.1,0,10.2,0,15.6-1.9-1-3.5-1.9-5.3-2.8-7.7-4-15.6-7.6-23.7-10.6-5.5-2.1-8.2-6.2-9-11.8-.5-3.1-.3-6.2-.3-9.4.1-9.5-.4-19,.3-28.5.2-2.4.9-4.7,2.3-6.6,1.8-2.4,4.2-3.4,7.1-3.4,9.1,0,18.2,0,27.3,0,.9,0,1.3.2,1.3,1.2,0,3,0,6,0,9,0,1-.3,1.2-1.3,1.1-4.3-.2-8.7-.3-13-.5-2.4,0-3.4.5-3.8,2.9-.6,3.4-.2,6.8-.2,10.2,0,1.2,1.1.8,1.7.9,4,.5,8.1.9,12.2,1.3,1.2.1,1.8.4,1.7,1.8-.1,3.3-.1,6.7,0,10,0,1.5-.6,1.5-1.7,1.3-4.6-.9-9.2-1.7-13.9-2.6Z"/>
        <path class="cls-1" d="M235.5,55.6c0-7.1,0-14.3,0-21.4,0-1.2.2-1.7,1.6-1.7,5.4,0,10.9,0,16.3,0,1.2,0,1.7.2,1.7,1.6,0,14.2,0,28.4,0,42.6,0,1.3-.2,1.8-1.6,1.7-5.4-.5-10.9,0-16.3.3-1.6,0-1.7-.4-1.7-1.7,0-7.1,0-14.3,0-21.4Z"/>
        <path class="cls-6" d="M343.8,5.1c2,0,4.1,0,6.1,0,2.3,0,3.8,1.1,4.1,3.4.5,4,.5,8,0,12-.3,2.2-1.6,3.3-3.9,3.4-4.3,0-8.6,0-12.8,0-2.5,0-4-1.4-4.1-3.9-.1-3.6-.2-7.2,0-10.8.1-2.8,1.7-4.1,4.5-4.1,2,0,4.1,0,6.1,0ZM340.8,14.5c0,1.4,0,2.7,0,4.1,0,1.7,1.1,2.1,2.6,2.1,1.5,0,2.8-.2,2.9-2,0-2.8,0-5.6,0-8.4,0-1.8-1.4-2.1-2.9-2-1.5,0-2.6.4-2.6,2.1,0,1.4,0,2.7,0,4.1Z"/>
        <path class="cls-6" d="M196.1,23.9c-2.7,0-5.2,0-7.7,0-.8,0-1.1-.5-1.3-1-.7-1.4-1.5-2.9-2.2-4.4-.3-.5-.6-.9-1.2-.7-.7.2-.4.8-.5,1.2,0,0,0,.1,0,.2-.1,1.5.7,4.1-.3,4.4-2,.7-4.4.3-6.6.3-.7,0-.6-.6-.6-1,0-5.6,0-11.1,0-16.7,0-.8.3-1,1.1-1,5,0,9.9,0,14.9,0,2.4,0,4.1,1.9,4.1,4.2,0,1.8.3,3.5-.2,5.3,0,.3-.2.8-.4.9-3,1.9-1,3.9,0,5.8.4.8.8,1.5,1.3,2.5ZM183.1,11.7c.4.7-.7,2.2.5,2.6,1.3.4,3,.6,4-1,.5-.8.6-4.2,0-4.7-.1-.1-.3-.2-.5-.3-2.6-.9-4,0-4,2.7,0,.1,0,.3,0,.7Z"/>
        <path class="cls-2" d="M108.1,14.4c0-2.7,0-5.3,0-8,0-1.1.3-1.4,1.4-1.3,4.9,0,9.8,0,14.7,0,2.4,0,3.9,1.3,4,3.7.1,4.7,0,9.4.1,14.1,0,.7-.2,1.1-.9,1,0,0-.1,0-.2,0q-6.3.5-6.3-5.7c0-2.5,0-5,0-7.5,0-1-.2-1.9-1.2-2.1-1.2-.3-2.4-.3-3.6,0-.5.2-.2,1-.2,1.5,0,4.1,0,8.2,0,12.2,0,1.2-.2,1.7-1.6,1.6-1.6-.1-3.3,0-4.9,0-1.1,0-1.4-.3-1.4-1.4,0-2.7,0-5.4,0-8.2Z"/>
        <path class="cls-6" d="M368.5,24c2-6.2,3.9-12.1,5.8-18.1.2-.8.7-.9,1.4-.9,2.4,0,4.9,0,7.3,0,.9,0,1.2.4,1.4,1.1,1.6,5.5,3.3,10.9,5,16.4.3,1,.2,1.5-1,1.4-1.4,0-2.7-.1-4.1,0-1.9.2-3.3-.1-3.5-2.4,0-.7-.5-1-1.3-.9-1.1,0-2.2.1-3.3,0-1.9-.2-3.1.2-3.6,2.3-.6,2.1-2.5.5-4,1.1ZM377.3,9.5c-.3.1-.4.2-.4.2-.5,1.5-1,2.9-1.4,4.4-1,3.2-1,3.1,2.4,3.1,1.2,0,1.5-.4,1.2-1.5-.6-2-1.2-4-1.8-6.1Z"/>
        <path class="cls-6" d="M209.8,23.8c1.9-5.9,3.8-11.7,5.6-17.5.3-.9.6-1.2,1.5-1.2,2.4,0,4.8,0,7.1,0,.8,0,1.2.3,1.4,1.1,1.7,5.5,3.3,11,5,16.5.3.9.2,1.4-1,1.3-1.3,0-2.6-.1-3.9,0-2,.2-3.6,0-3.8-2.5,0-.6-.5-.8-1.2-.8-1.7,0-3.4,0-5.1,0-.7,0-1.2.2-1.3.9-.3,2.8-2.3,2.7-4.5,2.2ZM218.6,9.5c-.2.1-.4.2-.4.3-.5,1.4-.9,2.8-1.4,4.2-1.1,3.5-1.1,3.5,2.6,3.2,1,0,1.2-.4.9-1.2-.6-2.1-1.2-4.3-1.8-6.4Z"/>
        <path class="cls-6" d="M410.7,23.9c-1.8,0-3.7,0-5.5,0-1.3,0-1.2-.7-1.2-1.5,0-.9-.2-1.9,1.2-1.7.9,0,1.9,0,2.9,0,1.9,0,2.4-1.1,1.3-2.6-1.4-2-2.8-3.9-4.2-5.7-1.2-1.5-1.6-3.1-.8-4.9.9-1.8,2.5-2.3,4.4-2.3,3.2,0,6.4,0,9.6,0,1.4,0,1.3.7,1.3,1.6,0,.8.3,1.9-1.2,1.7-1-.1-2,0-3.1,0-.6,0-1.2-.2-1.6.5-.4.7,0,1.3.3,1.9,1.5,2.1,3,4.2,4.6,6.2,1.2,1.6,1.5,3.2.6,4.9-.8,1.7-2.4,2-4.1,2-1.5,0-3,0-4.5,0Z"/>
        <path class="cls-5" d="M77.3,14.4c0-1.8,0-3.5,0-5.3.1-2.8,1.4-3.9,4.1-3.9,3.2,0,6.4,0,9.6,0,1.2,0,1.6.3,1.6,1.6,0,1.3-.4,1.8-1.7,1.7-1.1-.1-2.3,0-3.5,0-1.7,0-2.9,2.3-2.2,3.8.2.5.7.4,1,.4,1,0,2.1.1,3.1,0,1.7-.2,2.2.4,2.1,2.1,0,1-.4,1.3-1.3,1.2-.9,0-1.8-.1-2.6,0-.9.1-2.3-.8-2.3,1.3,0,2.3.6,3.5,2.3,3.6,1.3,0,2.6,0,3.9,0,1.5,0,1.1,1,1.2,1.8,0,.9,0,1.5-1.3,1.5-3.5,0-6.9,0-10.4,0-2.2,0-3.5-1.3-3.6-3.6-.1-2,0-3.9,0-5.9,0,0,0,0,0,0Z"/>
        <path class="cls-5" d="M55.8,5.1c1.7,0,3.4,0,5.1,0,1.4-.1,1.2.7,1.2,1.5,0,.8.3,1.8-1.2,1.7-1.5-.1-3,0-4.5,0-1.2,0-1.8.4-1.8,1.6,0,3.1,0,6.1,0,9.2,0,1.2.7,1.7,1.9,1.6,1.5,0,3,0,4.5,0,1.5,0,1.1,1,1.2,1.8,0,.8.1,1.6-1.2,1.5-3.3-.1-6.7,0-10,0-2.9,0-4.5-1.7-4.6-4.6-.1-3.2-.1-6.4,0-9.6.1-3.1,1.8-4.5,4.9-4.6,1.6,0,3.1,0,4.7,0Z"/>
        <path class="cls-6" d="M311.5,5.1c1.6,0,3.3,0,4.9,0,1.4-.1,1.3.7,1.3,1.6,0,.9,0,1.8-1.3,1.6-1.4-.1-2.9,0-4.3,0-1.3,0-1.9.4-1.8,1.8,0,2.9,0,5.8,0,8.8,0,1.4.6,1.9,2,1.9,1.4,0,2.9,0,4.3,0,1.5,0,1.1.9,1.2,1.8,0,.9,0,1.5-1.2,1.5-3.3-.1-6.7,0-10,0-2.8,0-4.4-1.6-4.5-4.4-.1-3.3-.1-6.5,0-9.8.1-3,1.8-4.5,4.9-4.5,1.6,0,3.1,0,4.7,0Z"/>
        <path class="cls-6" d="M443.3,5.1c2.6,0,5.3,0,7.9,0,1.5,0,1.2.8,1.3,1.7,0,.9,0,1.6-1.3,1.6-3.9,0-3.9.1-3.9,4.1s0,6.5,0,9.8c0,1.4-.4,1.7-1.7,1.7-1.7-.1-3.4,0-5.1,0-1.1,0-1.4-.3-1.3-1.4,0-4.2,0-8.4,0-12.6,0-1.3-.4-1.7-1.6-1.5-.5,0-1.1,0-1.6,0-1.2,0-2,0-2-1.6,0-1.6.6-1.7,1.9-1.7,2.4,0,4.9,0,7.3,0Z"/>
        <path class="cls-6" d="M152,5.1c2.7,0,5.3,0,7.9,0,1.4,0,1.3.8,1.3,1.7,0,.9,0,1.7-1.3,1.7-1.3,0-3-.6-3.7.3-.7.9-.3,2.6-.3,3.9,0,3.3,0,6.5,0,9.8,0,1.1-.2,1.6-1.4,1.5-1.8-.1-3.5-.1-5.3,0-1.2,0-1.5-.4-1.4-1.5,0-4.1,0-8.2,0-12.2,0-1.4-.3-2-1.7-1.8-.5,0-1.1,0-1.6,0-1.3.2-1.8-.2-1.7-1.6,0-1.3.3-1.8,1.7-1.7,2.5.1,5,0,7.5,0Z"/>
        <path class="cls-5" d="M245.4,14.5c0-2.7,0-5.3,0-8,0-1.2.4-1.5,1.5-1.5,1.6,0,3.3.1,4.9,0,1.3,0,1.6.4,1.6,1.6,0,4.1,0,8.3,0,12.4,0,1.3.3,1.7,1.6,1.6,1.6-.1,3.1,0,4.7,0,1.3,0,1.4.6,1.4,1.6,0,.9.2,1.7-1.3,1.7-4.3,0-8.6,0-12.8,0-1.2,0-1.5-.4-1.4-1.5,0-2.6,0-5.3,0-8Z"/>
        <path class="cls-4" d="M249.7,492.1c-111.5-.3-201.9-90.7-200.6-203.6,1.3-112,92.1-199.7,203.1-198.6,110.8,1.2,198.9,90.7,198.7,201.6-.2,113.2-91.8,200.4-201.2,200.6ZM250.1,487.9c108-.7,194.6-85.6,196.6-193.4,2.1-108.9-84-199.3-194.8-200.3-109.1-1-197.7,85.5-198.6,194.9-.9,109.9,86.5,198,196.8,198.7Z"/>
        <path class="cls-6" d="M250.1,487.9c-110.3-.7-197.7-88.8-196.8-198.7.9-109.4,89.5-195.9,198.6-194.9,110.8,1,196.8,91.4,194.8,200.3-2,107.7-88.6,192.7-196.6,193.4ZM60.2,290.9c.5,104,83,189.3,189.2,189.7,104.5.4,188.8-82.8,190.2-187.2,1.4-104.9-81.6-190.1-185.8-192.1-105.5-2-192.9,82.1-193.5,189.5Z"/>
        <path class="cls-3" d="M60.2,290.9c.6-107.4,88-191.5,193.5-189.5,104.3,2,187.2,87.2,185.8,192.1-1.4,104.4-85.7,187.6-190.2,187.2-106.2-.4-188.7-85.7-189.2-189.7ZM327.7,239.1c.1.1.3.3.3.3.3-.2.1-.4,0-.6-.4-.7-.7-1.5-1.1-2.2-13-24-32.1-41.8-56.4-53.9-22-11-45.4-16.4-69.9-16.8-15-.3-29.8,1-44,6-22.8,8.1-43,20.7-60.6,37.3-2,1.9-3.9,3.7-5.1,6.3-10.4,22.5-16.2,46-16.9,70.8,0,1.9-.2,3.8,0,6.1.4-.9.6-1.3.8-1.8,10.3-24.6,25.3-46,44.9-63.8,34.9-31.6,76.1-43.4,122.6-36.1,27.1,4.3,50.8,16.1,71.4,34.2,5,4.4,9.4,9.2,13.9,14ZM98.8,201.4c1-.4,1.6-1.2,2.4-1.8,14.5-12.3,30.5-22.3,48-29.6,18.2-7.6,37.3-9.6,56.9-9.1,18,.5,35.5,3.7,52.4,9.9,40.8,14.9,69.6,42.1,84.6,83.2,1.2,3.2,2.1,6.5,3.2,9.7.3-.4.4-.7.4-1-.2-5.7-.7-11.4-1.7-17-6.3-36.4-24.1-65.8-53.4-88.3-18.7-14.4-39.8-23.1-63.1-26.5-15-2.2-30.1-2-45.1-.4-3.4.4-6.9.4-10.1,2-31.1,15.3-55.8,37.6-73.8,67.3-.3.5-.9.9-.6,1.6-.1,0-.2,0-.3,0,0,0,0,.2.1.3,0-.1.1-.2.2-.3ZM228.4,249.4c-.9.5-1.8,1-2.7,1.5-16.1,10-29.7,22.8-40.7,38.4-14,19.9-22.2,41.9-24.5,66.1-1.3,13.9-.8,27.7,1.1,41.5,2.5,18.8,8,36.7,16.8,53.5.7,1.3,1.6,2.2,3,2.8,19.9,8.4,40.7,13,62.3,13.8,4.8.2,9.6.2,14.7-.2-3.9-3.5-7.5-7-10.8-10.6-12.4-13.3-22-28.5-30.8-44.2-15.4-27.6-21.9-57.1-18.4-88.7,2.2-19.8,8.4-38.4,18.3-55.7,3.6-6.3,7.8-12.1,12-17.9l.2-.3c-.1,0-.3,0-.4.1ZM263.8,223.9c-.7-.1-1.5-.3-2.2-.4-13-1.4-25.9-1.2-38.8,1.1-38.7,7.1-69.9,26.4-91.8,59.1-21,31.5-29.2,66.9-26.9,104.7,0,.9.4,1.5.9,2.2,16.2,23.4,36.7,41.9,61.8,55.4,1.8.9,3.5,1.8,5.7,2.9-.3-.8-.5-1.2-.6-1.5-4-8.3-7.2-17-9.8-25.9-3.7-12.9-5.4-26.2-6.6-39.5-1.3-14.8-1.3-29.5,1.7-44.1,9.2-45,33.9-78.7,74-101.1,10.3-5.7,21.3-9.8,32.6-13ZM214.7,296.4c-.3.6-.4.8-.5,1-7.9,21.1-10.5,42.8-7.9,65.1,1.8,15.4,6.3,30,12.8,44,10.2,22.1,23.8,41.7,42.1,58,1.9,1.7,3.7,2.1,6,1.8,22.3-2.4,43.4-8.5,63.3-18.8,6.5-3.3,12.7-7,18.7-11.2-.2-.2-.3-.3-.4-.3-1.2-.3-2.5-.6-3.8-.9-35.6-9.5-66.5-27.2-92-53.9-19.2-20.1-31.2-44.1-36.5-71.4-.8-4.3-1.3-8.7-2-13.4ZM99.1,381.6c0-1.6,0-2.6,0-3.6,0-1-.1-2-.1-3.1-.3-21.1,3.4-41.5,10.1-61.4,18.7-56.2,66.2-94.3,125.1-100.1,21-2.1,41.5.7,61.4,7.8.7.3,1.4.9,2.3.5-.2-.7-.8-.9-1.3-1.2-6.8-4.8-14.1-9-21.7-12.5-23.8-10.8-48.7-14.7-74.7-11.6-16.3,1.9-31.7,6.7-46.3,14.1-17.1,8.7-31.5,20.7-44,35.2-15.4,17.8-27.4,37.6-34.5,60.2-.3.8-.6,1.6-.5,2.6,1.9,18.8,6.7,36.8,14.4,54.1,2.8,6.4,6,12.6,9.9,19ZM237.1,342.3c.2.5.3,1,.5,1.5,1.8,4,3.7,7.8,5.8,11.6,10,18,23.9,32.6,39.8,45.4,19.7,15.8,41.6,27,66.4,32.4,2.3.5,4,.2,5.9-1.3,21.5-16.3,38.4-36.4,50.8-60.3.7-1.4,1.4-2.8,2.1-4.3-1.1-.2-1.7.3-2.4.5-5.4,1.9-10.9,3.5-16.4,4.9-12.6,3.3-25.3,5.6-38.3,6.1-15.6.6-30.9-1.1-46.1-4.3-19.7-4.3-38.2-11.3-55-22.7-4.4-3-8.7-6.3-13.2-9.5ZM283.5,358.9c.2.1.5.3.7.4,23.6,9.8,48.1,15.1,73.8,14.5,17.6-.4,34.6-3.9,51.1-10.2,1-.4,1.7-.9,2.1-1.9,7.7-17.5,12.4-35.8,14.1-54.8,1.3-14.7.8-29.5-1.6-44.1-.7-4.1-1.4-8.1-2.6-12.5-2.8,12.7-6.1,24.8-10.9,36.4-6.7,16.3-15.6,31.1-28.6,43.1-23,21.5-50.9,30.1-81.9,30-5.4,0-10.8-.5-16.2-.9ZM188.8,126.2c5.3-.2,10.5-.6,15.7-.8,14.8-.4,29.4.6,43.6,4.8,51,14.9,84.7,47.8,101.5,98,4.9,14.6,7,29.7,6.4,45.2,0,2.2-.6,4.5-.9,6.7.5-.6.8-1.2.9-1.9,6.1-22.5,6.8-45.2,1.6-68-8.7-37.9-29.1-67.8-62-88.8-.8-.5-1.6-1-2.6-1.2-12.2-3.1-24.5-4.8-37-5.3-17.6-.6-35,1.5-52,6.1-5.1,1.4-10.2,3-15.1,5.1ZM290.7,271.7c-4,0-8,0-12,0-1.2,0-1.8.3-2.2,1.5-2.5,7.8-5,15.6-7.6,23.4-.3,1.1-.1,1.5.7,2.2,6.7,4.8,13.3,9.6,20,14.5.9.6,1.4.6,2.3,0,6.6-4.9,13.3-9.7,19.9-14.5.9-.6,1-1.3.7-2.2-2.6-7.9-5.1-15.7-7.7-23.6-.3-.9-.8-1.2-1.7-1.2-4.1,0-8.3,0-12.4,0ZM350.2,294c.3-1.1-.2-2.1-1.2-3-1.2-1.1-2.4-2.2-3.5-3.5-.7-.8-1.1-.8-1.9,0-4.2,4.6-8.5,9.2-12.8,13.7-.9.9-1.2,1.8-1,3.1.8,5.7,1.4,11.5,2.1,17.2.3,2.7.4,2.7,3,2.4,1.3-.2,2.7-.5,4-.6,1-.1,1.6-.5,2.1-1.3,5.3-8.5,8.4-17.8,9.1-28ZM291,349.6c2.4.2,5-.2,7.7-.4,5.1-.5,9.9-1.4,11.5-7.5.3-1.3.3-1.7-.9-2.2-5.7-2.6-11.3-5.2-16.9-7.9-1-.5-1.8-.5-2.8,0-4.5,2.1-9,4.2-13.4,6.3-1.6.7-3.9,1.2-4.5,2.5-.6,1.4,1.3,3.2,2,4.8.1.3.3.6.4.9.4,1.2,1.2,1.6,2.4,1.9,4.7,1.1,9.5,1.8,14.6,1.6ZM251.3,303.3c.2-.9-.5-1.3-1-1.9-3.8-4.1-7.7-8.2-11.5-12.4q-2.4-2.5-4.7-.1c-.7.7-1.4,1.5-2.2,2.2-.6.5-.8,1.2-.8,2,.6,9.5,3.2,18.4,7.8,26.7,1.3,2.4,2.8,3.8,5.7,4,4,.3,4,.6,4.5-3.3.8-5.7,1.4-11.4,2.1-17.2ZM243.5,255c.2,1.1.5,2.7.7,4.3.1,1.2.7,1.4,1.8,1.2,6.2-1.2,12.5-2.4,18.8-3.6,1-.2,1.5-.7,1.9-1.6,2.4-4.3,4.8-8.7,7.2-13,.9-1.6,2.7-3.7,2.3-4.7-.6-1.4-3.1-1.8-4.7-2.8-1.1-.7-2-.6-3.2,0-9.5,4-17.5,10-24,18-.4.5-1,1-.7,2.3ZM337.5,253.4c0-.4,0-.5-1.1-1.8-5.8-6.9-12.9-12.1-21-16-3.5-1.7-6.5-1.9-9.7.4-.9.6-1.2.9-.6,2,3.2,5.6,6.3,11.3,9.3,16.9.4.7.9,1.1,1.7,1.3,6.4,1.2,12.8,2.4,19.2,3.6.8.2,1.3,0,1.4-.8.2-1.7.5-3.5.9-5.5ZM237.1,341.7s0,0-.1-.1c0,0-.1,0-.1.1,0,0,0,0,0,.1,0,0,0,0,.1-.1Z"/>
        <path class="cls-2" d="M263.8,223.9c-11.3,3.2-22.3,7.3-32.6,13-40.1,22.4-64.8,56.1-74,101.1-3,14.6-3,29.3-1.7,44.1,1.2,13.3,2.9,26.6,6.6,39.5,2.5,8.9,5.8,17.5,9.8,25.9.2.3.3.7.6,1.5-2.1-1.1-3.9-2-5.7-2.9-25.1-13.5-45.6-32-61.8-55.4-.5-.7-.8-1.3-.9-2.2-2.3-37.8,5.9-73.1,26.9-104.7,21.8-32.8,53-52.1,91.8-59.1,12.9-2.3,25.8-2.6,38.8-1.1.7,0,1.5.2,2.2.4Z"/>
        <path class="cls-2" d="M228.6,249.6c-4.2,5.8-8.4,11.7-12,17.9-9.9,17.3-16.1,35.9-18.3,55.7-3.5,31.6,3,61.1,18.4,88.7,8.8,15.8,18.5,30.9,30.8,44.2,3.4,3.6,6.9,7.1,10.8,10.6-5.2.5-9.9.4-14.7.2-21.6-.8-42.4-5.4-62.3-13.8-1.4-.6-2.3-1.4-3-2.8-8.8-16.8-14.3-34.7-16.8-53.5-1.8-13.8-2.4-27.6-1.1-41.5,2.3-24.2,10.6-46.2,24.5-66.1,10.9-15.6,24.5-28.3,40.7-38.4.9-.5,1.8-1,2.7-1.5,0,0,.1.2.2.2Z"/>
        <path class="cls-2" d="M214.7,296.4c.7,4.7,1.2,9.1,2,13.4,5.3,27.3,17.3,51.3,36.5,71.4,25.4,26.7,56.3,44.4,92,53.9,1.2.3,2.5.6,3.8.9.1,0,.2.2.4.3-6,4.2-12.2,7.9-18.7,11.2-19.9,10.2-41,16.4-63.3,18.8-2.4.3-4.2-.2-6-1.8-18.3-16.2-31.9-35.8-42.1-58-6.5-14-11-28.6-12.8-44-2.6-22.3,0-44,7.9-65.1,0-.2.2-.5.5-1Z"/>
        <path class="cls-2" d="M99.1,381.6c-3.9-6.4-7.1-12.6-9.9-19-7.7-17.3-12.4-35.3-14.4-54.1,0-.9.2-1.7.5-2.6,7.1-22.6,19-42.4,34.5-60.2,12.5-14.4,26.9-26.5,44-35.2,14.6-7.4,30-12.1,46.3-14.1,26-3.1,50.9.8,74.7,11.6,7.6,3.5,14.9,7.6,21.7,12.5.5.3,1.1.5,1.3,1.2-.9.4-1.6-.2-2.3-.5-19.9-7.1-40.4-9.9-61.4-7.8-58.9,5.8-106.4,43.9-125.1,100.1-6.6,19.9-10.4,40.4-10.1,61.4,0,1,.1,2,.1,3.1,0,1,0,2,0,3.6Z"/>
        <path class="cls-2" d="M98.8,201.5c-.3-.7.3-1.1.6-1.6,18-29.6,42.7-52,73.8-67.3,3.2-1.6,6.7-1.6,10.1-2,15-1.6,30.1-1.9,45.1.4,23.3,3.4,44.5,12.2,63.1,26.5,29.2,22.5,47.1,51.9,53.4,88.3,1,5.6,1.5,11.3,1.7,17,0,.3,0,.6-.4,1-1.1-3.2-2-6.5-3.2-9.7-15-41.2-43.9-68.3-84.6-83.2-16.9-6.2-34.4-9.4-52.4-9.9-19.5-.6-38.7,1.5-56.9,9.1-17.5,7.3-33.5,17.3-48,29.6-.8.6-1.4,1.5-2.4,1.8h0Z"/>
        <path class="cls-2" d="M327.7,239.1c-4.5-4.8-9-9.6-13.9-14-20.6-18.1-44.3-29.9-71.4-34.2-46.5-7.4-87.6,4.5-122.6,36.1-19.7,17.8-34.7,39.2-44.9,63.8-.2.4-.4.9-.8,1.8-.2-2.4,0-4.2,0-6.1.6-24.8,6.4-48.3,16.9-70.8,1.2-2.6,3.1-4.4,5.1-6.3,17.6-16.7,37.8-29.3,60.6-37.3,14.2-5,29-6.3,44-6,24.5.4,47.9,5.8,69.9,16.8,24.3,12.2,43.4,29.9,56.4,53.9.4.7.7,1.5,1.1,2.2-.1,0-.2.2-.3.3Z"/>
        <path class="cls-2" d="M237.1,342.3c4.5,3.2,8.7,6.4,13.2,9.5,16.7,11.4,35.3,18.5,55,22.7,15.2,3.3,30.6,4.9,46.1,4.3,13-.5,25.8-2.8,38.3-6.1,5.5-1.5,11-3,16.4-4.9.7-.2,1.3-.7,2.4-.5-.7,1.5-1.4,2.9-2.1,4.3-12.4,23.9-29.3,44-50.8,60.3-1.9,1.4-3.6,1.8-5.9,1.3-24.8-5.4-46.7-16.6-66.4-32.4-15.9-12.8-29.8-27.4-39.8-45.4-2.1-3.8-4.1-7.7-5.8-11.6-.2-.5-.4-1-.5-1.5Z"/>
        <path class="cls-2" d="M283.5,358.9c5.4.4,10.8.9,16.2.9,31,0,58.8-8.5,81.9-30,13-12.1,21.9-26.9,28.6-43.1,4.8-11.6,8.1-23.7,10.9-36.4,1.3,4.4,1.9,8.4,2.6,12.5,2.4,14.6,2.9,29.3,1.6,44.1-1.7,19-6.4,37.3-14.1,54.8-.5,1-1.1,1.5-2.1,1.9-16.4,6.3-33.4,9.8-51.1,10.2-25.7.6-50.2-4.7-73.8-14.5-.2-.1-.5-.2-.7-.4Z"/>
        <path class="cls-2" d="M188.8,126.2c4.9-2.2,10-3.7,15.1-5.1,17-4.6,34.4-6.7,52-6.1,12.5.4,24.9,2.2,37,5.3.9.2,1.8.7,2.6,1.2,32.9,21,53.3,50.9,62,88.8,5.2,22.7,4.6,45.4-1.6,68-.2.7-.4,1.3-.9,1.9.3-2.2.8-4.4.9-6.7.6-15.4-1.5-30.6-6.4-45.2-16.8-50.2-50.5-83.2-101.5-98-14.2-4.1-28.8-5.2-43.6-4.8-5.2.1-10.4.6-15.7.8Z"/>
        <path class="cls-1" d="M290.7,271.7c4.1,0,8.3,0,12.4,0,1,0,1.4.3,1.7,1.2,2.5,7.9,5.1,15.7,7.7,23.6.3,1,.2,1.6-.7,2.2-6.7,4.8-13.3,9.6-19.9,14.5-.9.6-1.5.6-2.3,0-6.6-4.9-13.3-9.7-20-14.5-.9-.6-1.1-1.1-.7-2.2,2.6-7.8,5.1-15.6,7.6-23.4.4-1.2,1-1.5,2.2-1.5,4,0,8,0,12,0Z"/>
        <path class="cls-1" d="M350.2,294c-.7,10.2-3.8,19.5-9.1,28-.5.8-1.1,1.2-2.1,1.3-1.3.1-2.7.4-4,.6-2.6.4-2.7.4-3-2.4-.7-5.7-1.4-11.5-2.1-17.2-.2-1.3.2-2.1,1-3.1,4.3-4.5,8.6-9.1,12.8-13.7.8-.8,1.2-.8,1.9,0,1.1,1.2,2.2,2.4,3.5,3.5,1,.9,1.5,1.9,1.2,3Z"/>
        <path class="cls-1" d="M291,349.6c-5.1.2-9.9-.6-14.6-1.6-1.1-.3-2-.7-2.4-1.9,0-.3-.3-.6-.4-.9-.7-1.7-2.6-3.4-2-4.8.5-1.2,2.9-1.7,4.5-2.5,4.5-2.1,9-4.1,13.4-6.3,1-.5,1.8-.5,2.8,0,5.6,2.7,11.3,5.3,16.9,7.9,1.1.5,1.2.9.9,2.2-1.6,6.1-6.4,7-11.5,7.5-2.6.3-5.3.6-7.7.4Z"/>
        <path class="cls-1" d="M251.3,303.3c-.7,5.7-1.4,11.5-2.1,17.2-.5,3.9-.6,3.6-4.5,3.3-2.9-.2-4.4-1.6-5.7-4-4.6-8.3-7.2-17.2-7.8-26.7,0-.8.1-1.4.8-2,.8-.7,1.4-1.4,2.2-2.2q2.4-2.4,4.7.1c3.8,4.1,7.7,8.2,11.5,12.4.5.5,1.2,1,1,1.9Z"/>
        <path class="cls-1" d="M243.5,255c-.3-1.3.3-1.8.7-2.3,6.5-8,14.5-14,24-18,1.2-.5,2.1-.6,3.2,0,1.6,1,4.1,1.5,4.7,2.8.5,1-1.4,3.1-2.3,4.7-2.4,4.3-4.8,8.6-7.2,13-.5.8-1,1.4-1.9,1.6-6.3,1.2-12.5,2.4-18.8,3.6-1.1.2-1.6,0-1.8-1.2-.2-1.6-.5-3.2-.7-4.3Z"/>
        <path class="cls-1" d="M337.5,253.4c-.3,2-.6,3.8-.9,5.5-.1.9-.6,1-1.4.8-6.4-1.2-12.8-2.4-19.2-3.6-.8-.2-1.3-.6-1.7-1.3-3.1-5.7-6.2-11.3-9.3-16.9-.6-1.1-.2-1.3.6-2,3.2-2.2,6.2-2.1,9.7-.4,8.1,4,15.2,9.2,21,16,1.1,1.3,1.1,1.3,1.1,1.8Z"/>
        <path class="cls-2" d="M98.8,201.4c0,.1-.1.2-.2.3,0,0,0-.2-.1-.3.1,0,.2,0,.3,0,0,0,0,0,0,0Z"/>
        <path class="cls-2" d="M328,238.8c.1.2.3.4,0,.6,0,0-.2-.2-.3-.3,0,0,.2-.2.3-.3Z"/>
        <path class="cls-2" d="M228.4,249.4c.1,0,.3,0,.4-.1l-.2.3c0,0-.2-.1-.2-.2Z"/>
        <path class="cls-2" d="M237.1,341.7s0,0-.1.1c0,0,0,0,0-.1,0,0,0,0,.1-.1,0,0,0,0,.1.1Z"/>
      </g>
    </g>
  </g>
</svg>