<?xml version="1.0" encoding="UTF-8"?>
<svg xmlns="http://www.w3.org/2000/svg" version="1.1" xmlns:cc="http://creativecommons.org/ns#" xmlns:dc="http://purl.org/dc/elements/1.1/" xmlns:inkscape="http://www.inkscape.org/namespaces/inkscape" xmlns:rdf="http://www.w3.org/1999/02/22-rdf-syntax-ns#" xmlns:sodipodi="http://sodipodi.sourceforge.net/DTD/sodipodi-0.dtd" xmlns:svg="http://www.w3.org/2000/svg" viewBox="0 0 400 400">
  <defs>
    <style>
      .cls-1 {
        fill: #1e5194;
      }

      .cls-2 {
        fill: #fafbfc;
      }

      .cls-3 {
        fill: #4a74aa;
      }

      .cls-4 {
        fill: #0b438b;
      }

      .cls-5 {
        fill: #09418a;
      }

      .cls-6 {
        fill: #3d69a3;
      }

      .cls-7 {
        fill: #076dae;
      }

      .cls-8 {
        fill: #3966a1;
      }

      .cls-9 {
        fill: #12488f;
      }

      .cls-10 {
        fill: #67bdda;
      }

      .cls-11 {
        fill: #0f468d;
      }

      .cls-12 {
        fill: #4b74aa;
      }

      .cls-13 {
        fill: #3d6aa3;
      }

      .cls-14 {
        fill: #09428b;
      }

      .cls-15 {
        fill: #f9fafb;
      }

      .cls-16 {
        fill: #11488e;
      }

      .cls-17 {
        fill: #406ba4;
      }

      .cls-18 {
        fill: #0a428b;
      }

      .cls-19 {
        fill: #2d5d9c;
      }

      .cls-20 {
        fill: #4a74a9;
      }

      .cls-21 {
        fill: #2f5e9d;
      }

      .cls-22 {
        fill: #2a5b9a;
      }

      .cls-23 {
        fill: #fdfdfe;
      }

      .cls-24 {
        fill: #2f5f9c;
      }

      .cls-25 {
        fill: #07408a;
      }

      .cls-26 {
        fill: #456fa7;
      }

      .cls-27 {
        fill: #08408a;
      }

      .cls-28 {
        fill: #3e6aa4;
      }

      .cls-29 {
        fill: #edf1f6;
      }

      .cls-30 {
        fill: #0d448c;
      }

      .cls-31 {
        fill: #1d5194;
      }

      .cls-32 {
        fill: #e0e7f0;
      }

      .cls-33 {
        fill: #4872a8;
      }

      .cls-34 {
        fill: #3564a0;
      }

      .cls-35 {
        fill: #08418a;
      }

      .cls-36 {
        fill: #30609d;
      }

      .cls-37 {
        fill: #2e5d9c;
      }

      .cls-38 {
        fill: #0e458d;
      }

      .cls-39 {
        fill: #154b90;
      }

      .cls-40 {
        fill: #fefefe;
      }

      .cls-41 {
        fill: #0c448c;
      }
    </style>
  </defs>
  <!-- Generator: Adobe Illustrator 28.6.0, SVG Export Plug-In . SVG Version: 1.2.0 Build 709)  -->
  <g>
    <g id="Layer_1">
      <g>
        <path class="cls-7" d="M200,390.5c-104.9,0-190.5-85.8-190.2-190.7C10,94.7,95.2,9.4,200,9.5c104.9,0,190.5,85.8,190.2,190.7-.3,105.2-85.4,190.4-190.2,190.4Z"/>
        <path class="cls-40" d="M199.9,25.3c95.8-.3,174,78.1,174.2,174.6.2,96.3-77.7,174.6-173.9,174.8-95.8.3-174-78.1-174.2-174.6-.2-96.3,77.7-174.6,173.9-174.8Z"/>
        <path class="cls-7" d="M53.5,255.8c-2.5-6.2-4.2-12-5.7-17.9-4.7-19.4-6.1-39.1-3.1-58.9,7.7-51.9,34.6-90.9,80-117,20-11.5,41.8-17.6,64.9-19,37.6-2.3,71.9,7.4,102.4,29.6,29.7,21.6,49.8,50.3,59.2,85.8,12.1,45.6,5.2,88.5-20.2,128.4-5.3,8.3-11.1,16-19.1,21.8-20.7,14.9-49.2,15.1-69.9.2-1.7-1.2-2.7-1.2-4.4,0-21.5,15.4-50.9,14.7-71.7-1.7-1.7-1.3-2.7-1.7-4.7-.1-35.7,28.1-88.7,7.8-96.6-36.9-6.2-34.8,17.5-67.1,52.6-71.3,16.3-1.9,31.1,2.3,44,12.5,1.7,1.3,2.7,1.5,4.5,0,20.6-16.5,50.4-17.3,71.8-1.9,1.8,1.3,2.9,1.2,4.6-.1,10.6-8.7,17.7-19.9,23.1-32.3,7.2-16.2,11-33.1,10.2-50.9-.8-18.2-6.4-34.6-19.6-47.8-11-11-24.7-17.1-39.7-20.3-38.2-8.2-72.5.8-102.9,24.7-29.7,23.2-47.8,53.8-55.2,90.7-3.8,18.7-3.4,37.6.5,56.3.2.9.5,1.8,0,2.7-3.3,7.3-3.6,15.2-5,23.5Z"/>
        <path class="cls-25" d="M167.5,102.1c4.2-3.1,8.1-3.2,12.2-.2.6-.8-.4-2.6,1.7-2.5,2,0,3,.3,2.8,2.7-.3,2.9,0,5.9,0,8.9,0,2,1,2.4,2.6,2.4,1.5,0,2.7-.3,2.6-2.4-.1-3.2,0-6.4,0-9.7-.1-2,1-1.8,2.3-1.9,1.5,0,2.3.1,2.2,2-.2,3.2,0,6.4,0,9.7,0,1.9.9,2.3,2.4,2.3,1.4,0,2.8-.1,2.8-2.2,0-3.2,0-6.4,0-9.7-.1-2,.9-2,2.4-2.1,1.8,0,2,.6,2,2.1,0,3.1,0,6.3,0,9.4,0,2,1,2.4,2.6,2.4,1.6,0,2.7-.4,2.6-2.4-.1-3,0-5.9,0-8.9,0-1.7.1-2.7,2.3-2.7,2.1,0,2.2.9,2.1,2.5,0,3,0,5.9,0,8.9,0,2.1,1,2.6,2.7,2.6,1.7,0,2.7-.6,2.6-2.7-.1-3,0-5.9,0-8.9,0-1.5.3-2.2,2-2.2,1.8,0,2.2.6,2.1,2.3-.1,2.8,0,5.6,0,8.4,0,5.6-4.1,8.6-9.4,6.7-1.6-.6-2.8-.6-4.3,0-2.5,1-5-.5-7.4-.5-2.3,0-4.7,1.4-7.2.5-1.6-.6-2.8-.5-4.4,0-3.1.9-6.1.7-8.3-2-.7-.9-1.1-.5-1.7,0-4,2.8-7.3,2.8-11.1,0-.8-.6-1.1-.8-1.9.1-2.3,2.8-5.4,2.9-8.6,1.9-1.3-.4-2.2-.5-3.5,0-2.1.8-4.2.8-6.3-.1-2.1-.9-3.3-2.4-3.3-4.8,0-6.9,0-13.9,0-20.8,0-2,1.2-1.5,2.3-1.6,1.3-.1,1.9.2,1.9,1.7,0,6.4,0,12.9,0,19.3,0,1.9.6,2.7,2.5,2.8,1.9,0,2.8-.7,2.7-2.8,0-6.2,0-12.4,0-18.6,0-1.8.7-2.1,2.3-2.2,1.9,0,1.9.8,1.9,2.2,0,6.2,0,12.4,0,18.6,0,1.9.6,2.7,2.5,2.7,1.9,0,2.8-.7,2.7-2.8-.2-2.7-.1-5.4,0-8.2,0-1-.9-2.7,1.4-2.7,1.6,0,3.3-.3,2.9,2.4Z"/>
        <path class="cls-25" d="M141.3,101.8c0,3.3,0,6.6,0,9.9,0,3.6-2.5,5.6-6.7,5.7-4.1,0-6.6-2.1-6.7-5.6,0-3.2,0-6.4,0-9.6,0-1.9,1.1-1.6,2.2-1.6,1.2,0,2,0,1.9,1.6-.1,2.7,0,5.4,0,8.2-.1,2.1.6,3.1,2.7,3.1,2.2,0,2.7-1.2,2.6-3.2-.1-6.1,0-12.2,0-18.3,0-1.7.6-2,2.1-2,1.7,0,2.1.5,2,2.1-.1,3.3,0,6.6,0,9.9Z"/>
        <path class="cls-27" d="M225.5,102.9c0-3.8,0-7.6,0-11.4,0-1.5.3-2.2,2-2.1,3.5,0,3.5,0,3.5,3.5,0,7.1-.1,14.2,0,21.2,0,2.5-1.3,2.1-2.8,2.1-1.4,0-3,.6-2.8-2,.2-3.8,0-7.6,0-11.4Z"/>
        <path class="cls-5" d="M220,346.8c0,1.3-.2,3-.9,4.6-.2.5-.5,1-1,1-.7,0-.9-.6-1-1.2-.2-1.3-.4-2.6-.5-3.9-.2-1.6-.5-3.2-1.6-4.3-2-2.1-.4-3.6.6-5.2.7-1,1,0,1.4.4,1.1,1.1,2.3,1.8,3.4,0,.6-.9,1-.9,1.5,0,.9,1.7,1.8,1.3,2.7,0,.2-.3.5-.8.9-.6.5.2.7.7.7,1.2.3,3-1.6,4.9-4.7,4.6-1.6-.1-1.8.3-1.7,3.5Z"/>
        <path class="cls-14" d="M252.2,340c-.3,2.6-1.7,3.9-3.5,4.1-2.3.3-2.4,1.3-2.1,3.2.2,1.4-.1,2.9-.7,4.3-.2.4-.4.8-.8.8-.5,0-.7-.5-.7-.9-.3-1.3-.5-2.6-.7-3.9-.3-1.8-.8-3.6-2.1-4.9-2-2-.2-3.4.6-4.9.3-.6.9-.4,1.1,0,.9,1.5,1.7.7,2.6,0,1.3-1,2.8-1.4,4.4-.5.6.3,1.2.8.9,1.5-.3.7-1,.4-1.5.3-1.3-.4-2.6-.4-3.7.6-.3.3-.1.6.2.8,1.3.9,2.6.8,4,.4.5-.2,1-.5,2-.9Z"/>
        <path class="cls-2" d="M165.6,138.6c-.4-.1-1-.1-1.1-.3-.3-.8.5-.7.9-.7,4.9,0,9.7,0,14.7,0-.2,1.2-1,.9-1.6,1-.7-.3-1.4.2-2.1.2-1.1,0-1.3.5-1.3,1.5.2,2.4,0,4.9.1,7.3,0,1.6-.4,3-1.5,4.2-2.8,0-5.5,0-8.3.1-.4,0-1.1.1-.9-.7,0-.2.7-.2,1.1-.3,0,0,.1.1.2.1,3.2-.4,3.2-.4,3.1-3.6,0-2.1-.2-4.3,0-6.4.2-1.8,0-2.7-2-2.5-.4,0-.9-.5-1.4,0Z"/>
        <path class="cls-5" d="M230.2,337.3c3,2.5,3.4,2.6,6.2.3.8-.7,1.4-.5,1.5.5.2,2.1,0,4.2-2.2,5.1-1.6.7-1.6,1.5-1.4,2.8.2,1.6,0,3.3-.5,4.9-.2.6-.3,1.5-1.1,1.5-.8,0-.8-.9-.9-1.5-.4-1.8-.4-3.8-1.1-5.5-.3-.7-.5-1.5-1-1.9-2.4-2.3-1-4.2.6-6Z"/>
        <path class="cls-35" d="M193.4,93.3c0,1.6-.5,2.6-1.6,3.2-1.2.7-2.4.7-3.5,0-.9-.7-1.4-1.1-2.5-.1-1.4,1.2-3.1,1-4.4-.5-1.2-1.4-1.2-2.9,0-4.2,1.3-1.5,3-1.6,4.4-.4,1,.8,1.5.7,2.3,0,1-.9,2.3-.9,3.5-.2,1.1.6,1.7,1.5,1.8,2.4Z"/>
        <path class="cls-35" d="M175.6,93.7c0,1.3-.5,2.2-1.6,2.9-1.2.7-2.4.7-3.5,0-.9-.7-1.4-1.1-2.5-.1-1.4,1.2-3.1,1-4.4-.4-1.2-1.4-1.2-2.9,0-4.2,1.3-1.4,3-1.7,4.4-.5,1.1,1,1.6.5,2.5-.1,2.2-1.4,5,0,5,2.6Z"/>
        <path class="cls-18" d="M92.8,146c-.6-.5-1.3-1.3-2.1-.8-.6.4-.3,1.2-.2,1.8.1,1.3-.8,3.2.9,3.7,2,.7,4,0,5.4-1.8,1,0,.7.6.6,1.1,0,.9-.1,1.6-1.3,1.6-2.8,0-5.6,0-8.4,0-.8,0-1,0-.9-1.2.5-4.1.3-8.2,0-12.6,2.8,0,6,0,9.1,0,1,0,1,.2.8,3.6-.7-.2-.6-1.1-1-1.5-.9-1.1-4.1-2-5-1.3-.3.2-.6,4.8-.2,5,1.1.8,1.8.1,2.4-.7.9,1.3.9,1.9-.1,2.9Z"/>
        <path class="cls-35" d="M137.4,150.6c0,.9-.5,1.1-1.2,1.1-3.1,0-6.2,0-9.4,0,.7-4.6.6-9.1,0-13.8,2.9,0,5.8-.2,8.8,0,2.6.2.8,2.3,1,3.6-.3-.5-.5-1.2-.9-1.6-1.3-1.5-3.1-1.4-4.8-1.1-.4,0-.6,4.5-.3,5,.4.6,1.1.4,1.5.1.6-.4.9-1.1,1.6-1.8v5.1c-1-.8-1.5-2.5-2.7-1.9-1.1.5-.5,1.9-.5,2.9,0,2.8.9,3.4,3.7,2.6,1.1-.3,1.9-.9,2.6-1.7,1.2.2.5,1,.5,1.6Z"/>
        <path class="cls-18" d="M235.9,142v5.9c-.5-.9-.8-1.5-1.3-2-.5-.5-1.3-.9-2-.7-.8.3-.4,1.1-.4,1.7,0,1.5-.2,3.1.6,4.6-1.6.2-3.1.2-4.4,0,.6-4.5.6-9,0-13.7,2.8,0,5.9,0,8.9,0,2.6,0,.7,2.2,1.3,3.4-1-2.2-2.9-2.6-5-2.7-1.2,0-1.7.4-1.5,1.6,0,.4,0,.8,0,1.2.2,1-.7,2.5.6,2.8,1.4.3,2.4-.8,3.1-2.2Z"/>
        <path class="cls-18" d="M111.7,141.6c-.8-2.9-.1-4,2.5-3.7,2.5.2,5.1.2,7.7,0,2.2-.1,2.5.8,2,2.6-.4,0-.6.1-.8-.3-.5-1.3-1.6-1.7-2.8-1.5-1.5.3-.7,1.6-.7,2.5-.1,2.6,0,5.1,0,7.7,0,.9,0,1.8.8,2.6-1.6.5-3.2.2-4.7.2.9-4.1.3-8.2.4-12.2,0-.9-.6-.8-1.2-.8-1.6,0-2.5,1-3.1,2.9Z"/>
        <path class="cls-11" d="M173.1,341.1c.8-1.1,1.5-2.1,2.3-3.2.4-.5.8-1.2,1.5-1,.9.2.6,1.1.6,1.7,0,1.6,0,3.1,0,4.7,0,1.1-.6,2.4,1.1,3.1.5.2.5,1.4-.1,1.6-1.3.4-1,1.3-1,2.2,0,1.2-.6,1.3-1.5,1.3-.8,0-1.6,0-1.4-1.1.4-2.9-1.6-2.2-3.1-2.2-2.1,0-3-.5-1.8-2.6.4-.2.9-.2,1.4-.2,3,0,3.4-.5,2.6-3.7-.3-.1-.5-.3-.5-.6Z"/>
        <path class="cls-18" d="M203.6,151.7c.4-4.7.3-9.1,0-13.6h4c-.9,3.9-.4,7.8-.4,11.7,0,.8.5,1.2,1.3,1.2,1.7,0,3.4.2,4.5-1.3.5-.7.9-1.5,1.3-2.3.1.1.3.2.3.3-.5,4.7.6,4-4.2,4.1-2.4,0-4.7,0-6.9,0Z"/>
        <path class="cls-41" d="M187.4,350.1c1.1-2.8-.2-4.8-3.6-5.5-3.2-.7-2.9-.6-2.1-3.8.8-3,2.3-4.2,5.3-3.7.9.2,1.8,0,2.7,0-.1,2.1-.9,3.1-3,2.8-.6,0-1.3,0-2,0-.7,0-1.7-.3-1.8.7-.1,1.2,1,.8,1.7.9,2.4.5,4.5,1.4,5.2,3.9.5,2.2-.2,4.1-2.4,5.1-.1-.1-.2-.2-.1-.4,0-.1.1-.2.2-.2Z"/>
        <path class="cls-18" d="M173.7,151.9c1.4-4.5.7-9.1.5-13.8,1.2.1,2.9-1,4.3.5-1,.6-.6,1.6-.7,2.4,0,2.2-.1,4.4,0,6.6,0,1.1-.7,2.7,1,3.2,1.6.4,3.3.4,4.6-.9.4-.4.7-.9,1-1.4,1.2.2.6,1,.5,1.6.2,1.3-.5,1.6-1.7,1.6-3.2,0-6.4,0-9.5.2Z"/>
        <path class="cls-11" d="M148.2,339.2c1.3-.6,2.6-1.1,3.8-1.7,1.5-.8,1.6,0,1.6,1.2,0,3.3,0,6.6,0,9.9,0,1.2,0,2.4,1.4,2.8h-6.6c1.6-.4,1.9-1.5,1.9-2.7,0-2.5,0-5,0-7.4,0-1.5-.6-2.2-2.2-2.1Z"/>
        <path class="cls-4" d="M250.6,151.5c-3.2-.9-5-3-5.2-6.3-.2-3.1,1.9-5.9,5.3-7.1.8-.1,1.6-.8,2,.5-3,1.2-3.6,3.7-3.5,6.6.1,2.6.7,4.9,3.5,5.9-.5,1.3-1.4.6-2.1.5Z"/>
        <path class="cls-18" d="M106.2,151.1c1.8-1.5,1.4-2.8-.3-3.9-1.2-.8-2.5-1.3-3.6-2.1-3.1-2-3.1-4.9,0-7,.6-.3,1-.4,1,.5-1.6,1.4-1.1,2.5.5,3.5,1.3.8,2.6,1.3,3.8,2.2,3.3,2.2,3,5.6-.7,7.4-.5.2-.7,0-.6-.5Z"/>
        <path class="cls-18" d="M191.3,143.1c.8-1.8,1.6-3.5,2.5-5.6,2.5,4.7,4,9.5,6.8,14.2-1.5,0-2.8,0-4.1,0-.3,0-1,0-.7-.6.6-1.2-.5-2-.6-3-.6-.5-1.1-1.1-1.4-1.8-.7-.8-.7-2.3-2.2-2.5-.3-.1-.6-.3-.4-.7Z"/>
        <path class="cls-4" d="M145.1,151.6c-3.4-1.1-5.2-3.3-5.3-6.5,0-3.3,1.9-5.9,5.3-7,.6,0,1.4-.7,1.6.5-4.3,2.7-4.3,10,0,12.5-.2,1.2-1,.5-1.6.5Z"/>
        <path class="cls-18" d="M165.6,138.6c1.3-1.5,3-.3,4.5-.7-.7,4.6-.6,9.1-.1,13.6-1.3-.2-2.9,1-4.4-.6,1.3-1.9.6-3.9.5-5.9.2-2.1.6-4.3,0-6.4h-.2s-.2,0-.2,0Z"/>
        <path class="cls-4" d="M210.7,346.6c0,1.6,0,3.1-.5,4.6-.2.6-.4,1.2-1.1,1.1-.6,0-.7-.7-.7-1.1-.5-3.3-1.1-6.6-2.5-9.7-.7-1.4.8-2.7,1.8-3.8.7-.7,1.1.3,1.3.8,1.4,2.5,1.7,5.3,1.7,8.1Z"/>
        <path class="cls-5" d="M161.2,145.2c.2,2.1-.4,4.2.7,6.3-1.6.2-3.1.2-4.3,0,.6-4.5.6-9,0-13.5,1.3-.2,2.7-.2,4.3,0-1,1.9-.5,3.9-.7,5.8.2.5.2.9,0,1.4Z"/>
        <path class="cls-4" d="M160.7,350.6c1.7-.9,2.7-2.3,3.5-4,.4-.8-1.2-1-.6-1.9,1.1-2.5,0-4.7-.7-7,0-.3.1-.5.3-.7.5-.1,1-.2,1.5.1,2.8,1.7,3.6,4.2,3,7.2-.7,3.6-2.8,5.9-6.3,6.8-.5.2-.7,0-.6-.5Z"/>
        <path class="cls-30" d="M163.1,337.1v.5c-1.9,2.6-1.2,5.1.5,7.5.1.5,1.5.5.5,1.4-.2-.5-.5-.5-1-.5-2.1.4-3.8-.2-4.6-2.3-.8-2.1-.3-4,1.2-5.7.4-.4.9-.7,1.3-1.1.7-.2,1.3-.3,2,0Z"/>
        <path class="cls-38" d="M149.8,151c.8-1.7.9-3.3-.5-4.9h5.9c-1.8.6-1.6,1.7-1.5,2.7.3,1.9-.6,2.7-2.4,2.7-.6.1-1.3.7-1.5-.5Z"/>
        <path class="cls-16" d="M199.8,347.6c-.3,0-.7,0-1,0-.8-.1-2,.5-2-1.1,0-1.5,1.2-1,2-1,1,0,2,0,2.9,0,.7,0,1.5,0,1.5,1.1,0,1.1-.8,1.1-1.5,1.1-.7,0-1.3,0-2,0Z"/>
        <path class="cls-1" d="M243.7,150.4c-.3,1-.8,1.7-1.9,1.6-1-.1-1.6-.8-1.5-1.9.1-1,.8-1.5,1.7-1.5,1,0,1.6.8,1.7,1.8Z"/>
        <path class="cls-9" d="M185.8,351.4c-1.5.3-2.9.4-4.3-.2-.6-.3-1.2-.7-.9-1.5.3-.8,1-.9,1.7-.6,1.1.4,2,1,3.1,1.5.4.2.6.4.5.8Z"/>
        <path class="cls-39" d="M103.2,151.6c-1.1-.5-3,.2-3,0-.4-1.3-.1-2.7-.1-4.4,1.1,1.4,1.7,3.1,3.2,3.8.2.2.2.4,0,.6Z"/>
        <path class="cls-24" d="M194.4,146c.3.7.6,1.4.9,2.1-2,0-4.2-1.3-5.9,1-.3,0-.4-.3-.5-.6.3-1.1.7-2.1,1.4-3,.3,0,.6.3.8.5,1.1.8,2.1.2,3.2,0Z"/>
        <path class="cls-31" d="M161.2,145.2c0-.5,0-.9,0-1.4,5.8.3,5.2,1.2,4.8-5.3,1.1,2.1.8,4.3,0,6.4-1.6,0-3.2.1-4.9.2Z"/>
        <path class="cls-31" d="M188.9,148.5c.2.2.3.4.5.6,0,.9-.3,1.8.8,2.3-1.2.6-2.3.2-3.6.2,1.2-.8,1.6-2,2.2-3Z"/>
        <path class="cls-38" d="M257.2,138.6c.8-.3,1.8-1.2,1.5.7-.1.8.2,1.7-.3,2.8-.7-1.2-1.2-2.2-2.2-3,0-.9.5-.7,1-.5Z"/>
        <path class="cls-11" d="M152.7,141.1c-.8-1.1-1.7-1.9-3-2.5,0-.5,0-.7.6-.5.8.2,1.5.3,2.3.5,1.2.8,1.2,1.5.1,2.6Z"/>
        <path class="cls-36" d="M257.2,138.6c-.3.2-.7.3-1,.5-1.1-.5-2.3-.5-3.5-.5-.5-.7-1.4-.3-2-.5,2.3-1,4.4-.5,6.5.5Z"/>
        <path class="cls-28" d="M149.8,151c.4.6,1,.3,1.5.5-2,.7-4.1.8-6.1,0,.5-.2,1.2,0,1.6-.5,1,0,2,0,3,0Z"/>
        <path class="cls-22" d="M108.2,141.1c-.6-1-1.4-1.9-2.5-2.5,0-.5,0-.8.6-.5.5.4,1.1.6,1.7.3.7-.4.8,0,.8.6,0,.8.8,1.7-.6,2.2Z"/>
        <path class="cls-19" d="M92.8,146c.8-1,.7-1.9.1-2.9.2-.6.3-1.1.5-1.7.1,0,.2,0,.3,0v6.4c-.7-.6-.8-1.2-.9-1.9Z"/>
        <path class="cls-13" d="M150.3,138c-.2.2-.4.4-.6.5-1,0-2,0-3,0-.4-.6-1-.3-1.6-.5,1.7-.8,3.4-.8,5.1,0Z"/>
        <path class="cls-38" d="M250.6,151.5c.7-.1,1.5.2,2.1-.5.8,0,1.6,0,2.4,0,.5-.2,1-.5,1,.4-1.8.7-3.7.9-5.6.1Z"/>
        <path class="cls-33" d="M106.3,138c-.2.2-.4.4-.6.5-.8,0-1.7,0-2.5,0-.2-.5-.6-.4-1-.5,1.3-.9,2.7-.8,4.1,0Z"/>
        <path class="cls-21" d="M152.7,141.1c.7-.9.8-1.7-.1-2.6.3-.3.8-1.5,1.1,0,.2,1.2,0,2.5,0,3.9-.8-.3-.9-.7-1-1.2Z"/>
        <path class="cls-24" d="M170.6,346.1c-.3-.1-.7-.3-1-.4.5-1,1.1-1.8,1.9-2.5.5-.2.6.1.7.5,0,1.2-.8,1.9-1.7,2.5Z"/>
        <path class="cls-37" d="M103.2,151.6c0-.2,0-.4,0-.6,1,.2,2,.3,3,0,.2.2.4.3.6.5-1.2.7-2.4.6-3.6,0Z"/>
        <path class="cls-12" d="M256.2,151.4c-.3-.1-.7-.3-1-.4.9-.5,1.7-1,2.9-1.7-.2,1.6-1.1,1.8-1.9,2.1Z"/>
        <path class="cls-16" d="M190.8,146c-.1-.2-.3-.3-.4-.5.2-.9.3-1.8,1-2.4l.4.5c.7,1.2.1,2-1,2.5Z"/>
        <path class="cls-8" d="M172,343.5c-.2-.1-.3-.3-.5-.4.3-.8.8-1.5,1.5-2,.1.1.3.2.4.4.3,1.2,0,2-1.5,2Z"/>
        <path class="cls-26" d="M108.2,141.1c.7-.6.3-1.5.6-2.2,0,.9.2,1.7.2,2.6,0,.4-.3.5-.6.3-.1-.1-.1-.4-.2-.7Z"/>
        <path class="cls-3" d="M185,150.1c-.2-.5,0-1.2-.5-1.6,0-.6.1-1.1.9-1.4.2,1.1.1,2-.3,3Z"/>
        <path class="cls-34" d="M137.4,150.6c-.2-.5,0-1.2-.5-1.6.1-.5.2-1,.9-1.4.1,1.1.1,2.1-.4,3Z"/>
        <path class="cls-20" d="M97.3,150.1c-.2-.4-.1-.9-.6-1.1,0-.6.2-1.1.9-1.4.3.9.2,1.7-.3,2.5Z"/>
        <path class="cls-29" d="M163.1,337.1c-.7,0-1.3,0-2,0,1.2-.7,2.3-.8,3.5,0-.5,0-1,0-1.5,0Z"/>
        <path class="cls-6" d="M185.8,351.4c-.2-.3-.3-.5-.5-.8.7-.2,1.3-.3,2-.5,0,.2,0,.4,0,.5-.3.6-.9.7-1.5.8Z"/>
        <path class="cls-17" d="M160.7,350.6c.2.2.4.4.6.5-.7.6-1.5.4-2.5.5.6-.9,1.4-.8,1.9-1Z"/>
        <path class="cls-40" d="M74.9,259.4c0-29.5,24.9-52.1,53.8-49.5,9.3.9,17.7,4.3,25.2,9.9,1.3,1,1.3,1.6.4,2.9-9,12.1-12.9,25.8-11.9,40.9.8,11.4,4.6,21.9,11.5,31.1,1.4,1.9,1.1,2.7-.6,3.9-27.4,20.8-68.1,6.5-76.7-27.1-1.1-4.2-1.7-8.4-1.6-12.2Z"/>
        <path class="cls-10" d="M263.3,255c0-10.1-4.4-22.7-13.2-33.8q-2-2.5,1.5-4.5c29.1-16.8,65-1.5,72.9,31.3,6.5,26.9-11.7,54.7-39,59.6-12.8,2.3-24.5-.3-35.5-7.1-1.4-.9-1.7-1.5-.5-2.9,9.1-11.2,13.8-24,13.7-42.5Z"/>
        <path class="cls-40" d="M203.6,308.4c-12-.2-21.9-3.5-30.7-10.2-1.2-.9-1.4-1.5-.5-2.8,16.2-22.4,16.2-50,0-72.6-.9-1.2-1-1.8.4-2.9,16.2-12.6,39.6-13.5,56.5-2.3,1.4.9,1.7,1.5.5,2.9-17.6,22.2-18.5,50.4-2.6,73.7.8,1.2,1.7,2.5,2.7,3.5,1.1,1.2.9,1.7-.4,2.6-7.4,5-17.8,8.2-26,8.1Z"/>
        <path class="cls-10" d="M251.8,258.9c0,11.5-3.6,21.8-10.7,30.9-1.1,1.4-1.7,1.3-2.7,0-14.4-17.2-14.3-44.6.2-62,.9-1.1,1.4-1,2.2,0,5.6,6.8,8.9,14.6,10.4,23.2.5,2.6.6,5.2.6,7.9Z"/>
        <path class="cls-40" d="M163.4,288.2c-12.9-16-12.9-41.4-.1-58.4,12.2,14.6,13.9,40.7.1,58.4Z"/>
        <path class="cls-23" d="M179.1,108.3c0,2.9-2.3,5.3-5.3,5.3-3,0-5.3-2.3-5.3-5.3,0-2.9,2.4-5.3,5.3-5.3,2.9,0,5.3,2.4,5.3,5.3Z"/>
        <path class="cls-15" d="M172,343.5c.7-.5,1.3-1.1,1.5-2,.1,0,.4-.3.4-.2,1.3,1,.3,2.5.5,3.7.2.8-.4,1.1-1.2,1.1-.9,0-1.8,0-2.7,0,.5-.8.9-1.7,1.4-2.5Z"/>
        <path class="cls-32" d="M190.8,146c.3-.8.7-1.6,1-2.5.4,0,.5-1.7,1.2-.3.5.9.9,1.8,1.3,2.8-1,1.4-2.8,1.4-3.6,0Z"/>
        <path class="cls-29" d="M163.6,345.2c-2.9-.5-2-3-2.2-4.7-.1-1.1-.3-2.8,1.8-2.8,1.7,2.5,1.9,5.8.5,7.5Z"/>
      </g>
    </g>
  </g>
</svg>