<?xml version="1.0" encoding="UTF-8"?>
<svg xmlns="http://www.w3.org/2000/svg" version="1.1" viewBox="0 0 400 400">
  <defs>
    <style>
      .cls-1 {
        fill: #fff;
      }

      .cls-2 {
        fill: #7e1112;
      }
    </style>
  </defs>
  <!-- Generator: Adobe Illustrator 28.6.0, SVG Export Plug-In . SVG Version: 1.2.0 Build 709)  -->
  <g>
    <g id="Layer_1">
      <g>
        <ellipse class="cls-1" cx="194.4" cy="361.3" rx="34.9" ry="34.8"/>
        <path class="cls-1" d="M72.7,248.2c-.2.6.2.6.5,2.2,1.7,7.5-5.4,12.5-4.1,16.9.9,3.2,5.6,4.5,10.4,5.5,25.3,5.2,32.6-3.8,53.5,0,3.9.7,9.8,2.1,14.5-1.1,2.7-1.9,5.2-5.5,5.2-9.8,0-.4,0-4.4-2.7-7.4-4.7-5.2-14.3-3.4-19.4-2.7-30.4,4.1-56.3-8.6-57.9-3.5Z"/>
        <path class="cls-1" d="M114,302.2c-3.4-2.1-10.1,2-12.3,7.1-.5,1.2-1.5,4.3,2.2,13.9,1.8,4.6,4.8,10.9,9.8,17.7,5.7,5.4,11.5,10.7,17.2,16.1,5.7,1.3,9.6,3.1,12.3,4.6,1.5.8,2.6,1.6,4.1,1.4,3.5-.7,5-6.7,5.5-8.7.9-3.5,1.8-7.2,0-9.8-2.7-4.1-11-8.6-16.3-9.7-6.6-1.4-13.3-2-20-26,0-1.3-.1-5.1-2.5-6.6Z"/>
        <path class="cls-1" d="M239.6,346.8c-1.8,5.1.6,11.5,4.7,13.4,1.4.6,2.6.6,4.9.4,3.4-.2,11.1-.6,12.8-4.7.7-1.8-.6-4.7-3.4-10.3-1.7-3.6-2.6-5.4-3.8-6.1-4.2-2.4-12.9.6-15.2,7.2Z"/>
        <g>
          <path class="cls-2" d="M124,286.8s-23,11.5-26,22c-2.4,8.6,2.9,25.4,10.1,34.7,18.1,23.8,47.8,27.1,47.8,27.1,0,0-4.6-16.5,5.4-31,0,0-21.9,0-33.5-19.6-11.6-19.6-3.7-33.2-3.7-33.2h0ZM111.6,307.7c2.2,0,3.6,1,4.4,2.5.4.8.5,1.5.5,2l-2.3.7c0-.4,0-.9-.4-1.4-.7-1.4-2.5-2-5.8-.3-3.1,1.6-3.7,3.2-3.2,4.1.1.2.2.3.3.4l3.1-1.6-.5-1,2-1,1.5,2.9-6.9,3.5c-.5-.4-1.2-1.2-1.6-2-.6-1.2-.7-2.4-.2-3.6.6-1.5,2.2-3,4.5-4,1.8-.9,3.3-1.2,4.6-1.2h0ZM116.9,314l1.1,2.2-4.9,3c-1.4.9-2.9,1.7-4.4,2.6h0c1.7-.6,3.2-1,4.9-1.5l5.5-1.7.8,1.7-4.8,3.2c-1.4.9-2.7,1.8-4.4,2.7h0c1.8-.6,3.2-1.2,4.8-1.7l5.4-1.9,1,2.1-13.9,4.3-1.1-2.2,3.9-2.7c1.1-.8,2.5-1.6,4-2.5h0c-1.7.5-3.2,1-4.6,1.4l-4.6,1.3-1-2.1,12.1-8.1ZM123.1,326.7l1.7,2.3-10.1,10.5-1.4-1.8,2.3-2.4-1.3-1.8-3,1.5-1.4-1.8,13.1-6.5ZM121.8,329.4c-.8.5-2.2,1.2-2.9,1.6l-2.7,1.4,1,1.4,2.2-2.1c.6-.6,1.7-1.6,2.4-2.3h0ZM126.7,331.2l1.6,1.5-2.6,5.4c-.5,1.1-1.4,2.8-2,3.9h0c1-1.1,2.6-3,4.5-4.9l2.2-2.3,1.5,1.5-10,10.4-1.6-1.5,2.5-5.2c.6-1.2,1.4-2.9,2.1-4h0c-1,1.1-2.4,2.7-4.5,4.8l-2.2,2.3-1.5-1.5,10-10.4ZM133.8,338.8c.1,0,.2,0,.4,0,.9,0,1.6.3,2.3.8.8.5,1.2,1.1,1.4,1.5l-1.7,1.8c-.2-.4-.5-.7-1-1.1-1.3-.9-3.1-.6-5.3,2.6-1.9,2.9-1.7,4.5-.8,5.2.2.1.3.2.4.2l2-2.9-.9-.6,1.3-1.9,2.7,1.9-4.3,6.4c-.6,0-1.7-.5-2.4-1-1.2-.8-1.8-1.8-1.9-3-.2-1.6.5-3.7,2-5.7,1.9-2.8,4-3.9,5.8-4ZM140.4,342l2.1,1.1-4.4,8.8c-1.9,3.7-3.7,3.5-5.2,2.7-.4-.2-.8-.5-1-.7l1.2-2c.2.2.4.3.7.4.6.3,1.3.3,2.1-1.4l4.5-8.9ZM144.2,343.9l2.2.8-3.1,8.8c-.7,2-.4,2.8.2,3,.7.2,1.3-.2,2-2.2l3.1-8.8,2.2.8-2.9,8.4c-1.2,3.5-3,5-5.2,4.2-2.4-.8-2.7-3.1-1.5-6.5l2.9-8.4Z"/>
          <path class="cls-2" d="M73.6,239.3c-3.5,1.5-6.3,4.6-8.5,8-5.6,9.2-5.4,15.4-5.4,15.4,1.2,19.6,36.4,16.1,74.6,14.1,32.7-1.7,34.7,6.7,34.7,6.7,0,0,1.3-2.3,2.5-10.6.6-4,.4-10.5.4-10.5-.4-18.4-51.1-14.4-75.5-13.6-17.3.6-21.7-5.7-22.8-9.4ZM80.2,254.4c.2,0,.4,0,.5,0,3.3.5,3.6,4.2,3.2,7.3-.8,5.1-2.9,6.8-5.4,6.5-3.1-.5-3.8-3.9-3.2-7.6.5-3.4,2.2-6.2,4.9-6.2h0ZM85.5,255.3l2.6.2-.7,8.8c-.2,2,.4,2.6,1.1,2.7.8,0,1.4-.4,1.5-2.5l.7-8.8,2.6.2-.7,8.3c-.3,3.5-1.7,5.3-4.4,5-2.8-.2-3.8-2.3-3.5-5.7l.7-8.4ZM133.7,255.4c1.7,0,2.9.4,3.8,1.2,1.2,1.1,1.8,2.9,1.7,5.5,0,2.7-.7,4.7-1.9,5.7-.9.9-2.3,1.3-4.2,1.3-.8,0-1.7,0-2.2-.1v-13.4c.7-.2,1.7-.3,2.7-.2h0ZM128.2,255.6l.4,13.6h-2.6c0,0-.4-13.5-.4-13.5h2.6ZM141.5,255.6l5.9.3v2.3c-.1,0-3.4-.2-3.4-.2l-.2,3.1,3.1.2v2.2c-.1,0-3.2-.2-3.2-.2l-.2,3.7,3.5.2v2.3c-.1,0-6.3-.3-6.3-.3l.7-13.6ZM119.3,255.8c1.2,0,2.3.2,3.1.9.9.7,1.1,1.6,1.2,2.8,0,1.4-.6,2.8-1.9,3.5h0c.9.4,1.4,1.2,1.8,2.6.3,1.5.8,3.2,1,3.6h-2.8c-.2-.3-.5-1.6-.8-3.1-.3-1.7-.8-2.1-1.7-2.1h-.4s.2,5.4.2,5.4h-2.6c0,.1-.6-13.3-.6-13.3.8-.2,1.9-.3,2.9-.4.2,0,.4,0,.5,0h0ZM97.1,256c.3,0,.5,0,.8,0,1.4,0,2.7.3,3.6,1.1.8.8,1,1.7,1,2.9,0,1.4-.8,2.7-2.2,3.3h0c.9.4,1.3,1.3,1.6,2.8.2,1.5.5,3.2.7,3.7h-2.8c-.1-.5-.4-1.9-.6-3.4-.2-1.7-.6-2.2-1.5-2.2h-.4s-.2,5.4-.2,5.4h-2.6c0,0,.4-13.5.4-13.5.6-.1,1.4-.2,2.1-.2h0ZM109.8,256.1c1.6,0,2.8.2,3.7,1,.8.7,1.2,1.8,1.2,3,0,1.5-.4,2.5-1.1,3.3-.8.9-2.2,1.3-3.3,1.3-.2,0-.4,0-.5,0v5.1c0,0-2.6,0-2.6,0l-.2-13.4c.7-.2,1.7-.3,2.8-.3h0ZM80.1,256.7c-.9,0-1.7,1.7-2.1,4.4-.5,3.1-.1,4.7.9,4.9,1.1.2,1.8-1.8,2.2-4.5.4-2.4.3-4.5-.9-4.7,0,0-.1,0-.2,0h0ZM134.2,257.6c-.2,0-.4,0-.5,0v9.4c0,0,.3,0,.4,0,1.3,0,2.4-1.2,2.4-5,0-2.8-.7-4.5-2.3-4.5h0ZM119.2,257.9c-.2,0-.5,0-.6.1l.2,4h.5c1.1,0,1.8-1,1.7-2.2,0-1.1-.6-2-1.7-1.9h0ZM98.2,258.1c-.2,0-.5,0-.6,0v4.1c-.1,0,.3,0,.3,0,1.1,0,1.8-.9,1.9-2.1,0-1.1-.4-2-1.6-2.1h0ZM110.3,258.3c-.2,0-.5,0-.6.1v4.2c.2,0,.3,0,.5,0,1.3,0,1.9-1,1.9-2.3,0-1.2-.5-2.1-1.7-2.1h0Z"/>
          <path class="cls-2" d="M142.6,279.3c-2.1,0-4.3,0-6.7.2-2,1.7-3.9,3.5-5.7,5.5-3.3,3.7-4.7,8-5,12.2,1.4-2.1,3.5-4.8,6.4-6.4,0,0-3.9,4.6-6.3,11.6.1,1,.3,1.9.5,2.8,1.2-2.1,3.7-5.9,7.3-7.9,0,0-4,4.7-6.3,11.8.2.6.4,1.3.6,1.9,1.1-2,3.7-6.1,7.5-8.2,0,0-3.9,4.5-6.2,11.4,1.4,3.1,2.7,5.1,2.7,5.1.8-15,17.7-23.9,31.8-31.7,1.9-1.1,5.4-3.8-3.2-6.4-3.6,5.2-7.3,5-7.3,5,2.1-1.6,3.7-3.6,4.8-5.5-1.2-.2-2.5-.5-4-.6-3.4,4.7-6.9,4.4-6.9,4.4,1.8-1.3,3.2-3.1,4.3-4.7-1.4-.1-2.9-.2-4.5-.3-3.1,3.4-5.9,3.2-5.9,3.2,1.3-1,2.4-2.1,3.3-3.3-.5,0-.9,0-1.4,0h0Z"/>
          <path class="cls-2" d="M88.8,208.3s-5.2,5-15.9,11c-5.6,3.1-10.8,7.5-14.1,13.7,1.3-1,2.8-1.7,4.6-1.9,0,0-3.6,2-6.6,6.6-.4,1.2-.7,2.4-.9,3.6,1.5-2,3.8-4.2,6.8-4.7,0,0-4.7,3-7.4,9.4,0,1.2,0,2.5,0,3.8.9-2.2,3.1-6.5,7.1-7.7,0,0-5.3,4.5-6.5,12.9.2,1.3.5,2.6.8,4,0,0,9.4-33.9,31.8-20.3,0,0,1.8-13-10.6-13.3,0,0,11.8-6.8,10.9-17.2h0Z"/>
          <path class="cls-2" d="M259.7,321.7c-11.8,17.9-32.5,17.9-32.5,17.9,10.1,14.4,5.4,31,5.4,31,0,0,29.6-3.3,47.8-27.1,1.9-2.5,3.4-5.3,4.6-8.2h0c-1-.3-2-.6-3.1-1-.2,0-.4-.1-.6-.2-.1,0-.3-.1-.4-.1-4.4,4.7-9.8,6-9.8,6,3.2-2.1,5.3-4.8,6.6-7.3-.8-.3-1.6-.7-2.4-1.1-.1,0-.3-.1-.4-.2-.2-.1-.5-.2-.7-.3-4.3,4.3-9.3,5.5-9.3,5.5,3-2,5.1-4.5,6.4-7-.8-.4-1.6-.9-2.4-1.4,0,0-.2-.1-.3-.2-.2-.1-.4-.3-.7-.4-4.3,4.3-9.4,5.5-9.4,5.5,3.2-2.1,5.3-4.8,6.6-7.3-.8-.6-1.7-1.2-2.5-1.8,0,0-.1,0-.1-.1-1-.7-1.9-1.5-2.9-2.3,0,0,0,0,0,0h0ZM252.4,339.4c.1,0,.2,0,.3,0l.7,2.4c-.3,0-.7,0-1.1.3-1.2.6-1.7,2.5,0,5.7,1.6,3.2,3.3,3.9,4.6,3.2.4-.2.7-.5.9-.7l1.3,2c-.2.3-.8.8-1.5,1.2-2.9,1.5-5.7-.6-7.6-4.4-2.6-5-1.2-8.1,1-9.3.6-.3,1.1-.4,1.4-.4h0ZM245.1,342.9l.8,2.4-2.9,1,1.2,3.6,2.7-.9.8,2.3-2.7.9,1.9,5.8-2.3.8-4.7-14.1,5.2-1.7Z"/>
          <path class="cls-2" d="M243.2,303.6c-5.2.1-12.6,1.8-14.4,9.7,0,0,10.6-4.3,17.3-.4,0,0-3.9,11-3,15,0,0,3.4-7.2,14.8-7.9-5.3-4.6-10.2-10.1-14.6-16.5h0Z"/>
          <path class="cls-2" d="M229,366.5c-1,4-4.5,12.2-9.5,13.8-2.9.9-6.8-1.4-8.3-2.4,1,1.5,3.3,5.4,2.4,8.3-1.6,5-9.8,8.5-13.8,9.5,3.3-.3,6.6-1.1,9.7-2.4.3-.1.6-.3,1-.4,2.4-1,5.7-2.3,8.2-2.4,3.6-.2,9.5,5,11.7,6.7-1.6-2.2-6.8-8.1-6.7-11.7.1-2.5,1.4-5.8,2.4-8.2.2-.4.3-.7.4-1,1.3-3.1,2.1-6.4,2.4-9.7h0Z"/>
          <path class="cls-2" d="M158.1,324.9c1.6,2.2,6.8,8.1,6.7,11.8-.1,2.5-1.4,5.8-2.4,8.2-.2.4-.3.7-.4,1-1.3,3.1-2.1,6.4-2.4,9.7,1-4,4.5-12.2,9.5-13.8,2.9-.9,6.8,1.4,8.3,2.4-1-1.5-3.3-5.4-2.4-8.3,1.6-5,9.8-8.5,13.8-9.5-3.3.3-6.6,1.1-9.7,2.4-.3.1-.6.3-1,.4-2.4,1-5.7,2.3-8.2,2.4-3.6.1-9.5-5-11.7-6.7Z"/>
          <path class="cls-2" d="M159.5,366.5c.3,3.3,1.1,6.6,2.4,9.7.1.3.3.6.4,1,1,2.4,2.3,5.7,2.4,8.2.1,3.6-5,9.5-6.7,11.7,2.2-1.6,8.1-6.8,11.7-6.7,2.5.1,5.8,1.4,8.2,2.4.4.2.7.3,1,.4,3.1,1.3,6.4,2.1,9.7,2.4-4-1-12.2-4.5-13.8-9.5-.9-2.9,1.4-6.8,2.4-8.3-1.5,1-5.4,3.3-8.3,2.4-5-1.6-8.5-9.8-9.5-13.8h0Z"/>
          <path class="cls-2" d="M230.3,324.9c-2.2,1.6-8.1,6.8-11.7,6.7-2.5-.1-5.8-1.4-8.2-2.4-.4-.2-.7-.3-1-.4-3.1-1.3-6.4-2.1-9.7-2.4,4,1,12.2,4.5,13.8,9.5.9,2.9-1.4,6.8-2.4,8.3,1.5-1,5.4-3.3,8.3-2.4,5,1.6,8.5,9.8,9.5,13.8-.3-3.3-1.1-6.6-2.4-9.7-.1-.3-.3-.6-.4-1-1-2.3-2.3-5.7-2.4-8.2-.1-3.7,5-9.5,6.7-11.7h0Z"/>
          <path class="cls-2" d="M179.5,346.3c3.3,4,7.6,10.3,7.6,14.7,0,4.5-4.3,10.7-7.6,14.7,4-3.3,10.2-7.6,14.7-7.6h0c4.5,0,10.7,4.3,14.7,7.6-3.3-4-7.6-10.3-7.6-14.7,0-4.5,4.3-10.7,7.6-14.7-4,3.3-10.3,7.6-14.7,7.6h0c-4.5,0-10.7-4.3-14.7-7.6h0Z"/>
          <path class="cls-2" d="M200.3,2.8c-15.1,5.1-28.3,25.9-30.4,33.6-1.6,5.8-2.1,7,.6,14.7,3.6,10.3-1.2,23-1.2,23,0,0,.8-6.6.5-14.3-.3-7.7-3.4-12.5-3.4-12.5-3.6,2.5-6.2,6.3-7.7,10.6-4.3,12-4.1,27.2-4.1,27.2-3.4-5.8-.2-18.7-.2-18.7-1-4.2-8-9.6-8-9.6-2.2,1.9-4.4,5.5-5.6,8.7-5.1,13.9-1.4,28.5-1.4,28.5-4.5-2.6-3.1-17.2-3.1-17.2-1.5-6.2-8.2-9-8.2-9-2.6,2.6-4,6.3-4.9,9.7-4.2,14.9.1,30.3.1,30.3-4.4-3.2-4.2-15.9-4.2-15.9-3.2-7.9-10.3-8.9-10.3-8.9-3,6.9-3.1,14.7-1.8,21,2,10,7.5,16.8,7.5,16.8-7-2.6-9.7-14.9-9.7-14.9-2.8-5.6-12.3-3.8-12.3-3.8,0,0-1,7.7,3.8,17.9,4.8,10.2,13.6,13.8,13.6,13.8-9.4-.2-15-11.5-15-11.5-6-1.7-11.8,1.6-11.8,1.6-.4,2.4,1.7,8.8,7.1,13.6,7.3,6.6,18.3,9.7,18.3,9.7-7.2,1.3-13.6-3.5-13.6-3.5-11.5-1.6-14.1,4.1-14.1,4.1.7,5.6,5.6,8.8,13,10.8,7.3,2,16.4,1.4,16.4,1.4-5.8,3.2-15.2,1.2-15.2,1.2-7,1.6-9.3,8.2-9.3,8.2,3.5,4.7,7.8,6,12.7,5.7,8.1-.4,16.7-4.7,16.7-4.7-3.5,5.4-12.5,6.7-12.5,6.7-3.1,4.9-4.3,11.2-4.3,11.2,12,5.4,26-8.9,26-8.9-.2,5.4-11.7,10.5-11.7,10.5-1.2,5.5.8,10.1.8,10.1,17.2.6,24.3-15.7,24.3-15.7,1,6.1-9.2,13.8-9.2,13.8-.7,2.9,1.2,7.6,1.2,7.6,7.1.7,11.2-3.1,11.2-3.1,2.6-8.7,8.1-13.8,12.4-17.2,5.6-4.4,13.9-7.1,13.9-7.1,0,0-19.9,10.1-23.8,28-3.7,17.4,2.8,23.2,9.1,28.2,5,3.9,10.6,9.5,10.6,9.5-.4-1.6-1.9-5.5-2.3-10.4-.5-6.7.5-15.4,4.3-23,6.7-13.3,14.5-21,22.3-31.2,7.8-10.3,10.4-21.3,7.5-27.5-2.9-6.2-10-6.8-12.3-11.1-2.3-4.3,9.7-5.8,9.7-5.8-.6-6.1,6.9-9.8,11.4-11.1,4.5-1.3,9.1-6.4,9.1-6.4-3.9,0-10.6.9-16.2,4.3-5.6,3.5-13.4,6.9-19.1,6.9s-11.6,1-11.6,1c-1.2-4.6,2.6-9.7,7.7-12.6,5.1-2.9,16.2-7.5,24.4-18.5,8.2-11,6.8-24.6,6.8-24.6,0,0-2.2,6.2-7.5,10.4-4.5,3.5-9.8,3-9.8,3-2.9,15.8-16.6,21.5-24.4,24.9-7.8,3.3-6.8,8.4-5.8,10,1,1.6,2.6,6.2,2.6,7.1s-.9,1.7-.9,1.7c-2,.9-4.6,3-5.5,4.9-.9,1.9-1.6,2.6-3.6,3.8-2.9,1.6-8.8,2-10.4,7.6-1.7,5.6,1.3,7.6,1.3,7.6.5-2,1.7-3.8,3.8-5.2-.3.5-.4,1.1-.4,1.7,0,2,1.6,3.7,3.7,3.7-1.5,1.8-2,3.5-2,3.5,0,0,4.1-2.3,7.5-4.3,3.4-2.1,7.9-2.6,7.9-2.6,0-1.9-1-3.4-1.9-4.5,3.5,1,5.1,3.5,4.7,5.7-.5,3.3,1.2,6.3,1.2,6.3,2.3-3.1,7.2-5.9,7.2-5.9.2-4.1-3.8-8.6-3.8-8.6,5.4,1.2,6.4,6.9,6.4,6.9,0,0,3.1.2,4.8,4.1,2.5,5.9-8.6,16.5-17.8,19.8-9.2,3.3-20.4,2.8-28.8-1.3-7.1-3.5-17.1-20.4-9.7-40,7.4-19.6,34.3-29.5,42.8-33.9,8.6-4.4,8.9-8.7,10-31.8,1.2-23.1,15.6-42.5,21.4-51.7,5.8-9.2,2.8-14.2,2.8-14.2h0ZM168.7,13.3s-7.4,2.4-13,14.4c-5.6,12-8.6,27.2-8.6,27.2,3.9,1.5,7.7,7.9,7.7,7.9,1.7-12.3,10.9-18.2,10.9-18.2.5-9.1,6.7-18.2,6.7-18.2.4-8.3-3.7-13.3-3.7-13.3ZM262.7,15.8c-7.5,2.5-11.3,13.5-15.9,28.2-4.6,14.5-24.7,44.3-27,47.4-2.3,3.1-8.6,9.2-.6,13.4,7.9,4.2,13.6,15.3,13.8,27.6.2,12.3-9.8,24.9-20.9,28.6-11.1,3.8-13.6,1.3-13.6,1.3-.4,10.7-11.5,22.3-18.3,30.9-6.8,8.6-14.9,18.1-16.2,35.5-1.3,17.3,11.7,28.5,20.9,38.7,9.2,10.2,9.6,28.3,10,34,.4,5.6-.9,10.5-4.9,12.6-3.9,2.1-13.4,3.3-17.5,5-4.1,1.7-2.8,4.2-2.8,4.2-5.1,3.7-1.4,9.3-1.4,9.3.5-4.9,3.9-6.7,3.9-6.7,3,2.8,15-3,17.2-4.3,2.2-1.3,8.1-3.1,9.3-3.4,1.2-.3,5.6,1.6,8.4,3.3,2.7,1.7,4.7,4.2,6.4,6,1.7,1.8,3.3,1.3,3.3,1.3,4.2,2.5,3.8,4.3,3.8,4.3,1.7-.1,1.4-3,.8-4.4-.7-1.5-1.6-2.1-1.6-2.1,0,0,1.1-1,.3-3.2-1.2-3.3-10.5-8-13.3-10.9-2.8-2.9-4.2-2.4-5.4-13.9-1.2-11.6-1.6-17.3-4.1-23.9-1.1-2.9-1.8-5.1-1.1-7.9.8-2.8,16.1-4.3,16.1-4.3-24.1-16.5-26.1-37.3-20.9-50.7.8.9,1.6,1.9,2.3,3.2,4.2,7.6,10.2,7.9,10.2,7.9,2.4-4.2-1.4-11.9-2.6-17.2-1.2-5.2.7-7.6.7-7.6,0,0,.5,6.2,4.3,13.5,5,9.4,11.9,9.3,11.9,9.3,4.5-2.7-2.5-13.7-3.9-18.4-1.4-4.7-.2-6.7-.2-6.7,0,0,3.4,10.6,10.7,17.6,5.4,5.1,10.7,3.2,10.7,3.2,3.6-6-3.9-13-7-17-3.1-4-2.8-7.4-2.8-7.4,0,0,3.1,4.8,10.7,11.8,7.6,7,16.2,6.2,16.2,6.2,1.7-6.6-6.2-13.1-10.3-16.6-4-3.5-4.5-6.9-4.5-6.9,0,0,5.7,5.6,13.6,10.2,11.4,6.6,18.6,3.5,18.6,3.5,1.2-6.8-11.1-12.3-16-15.3-4.9-2.9-5.3-5.5-5.3-5.5,0,0,11.3,6.4,23.7,7.9,12.5,1.5,16.7-3.9,16.7-3.9-2.6-6-12.8-7.8-20.4-9-7.6-1.1-9.5-4.6-9.5-4.6,2,.3,20.1,2,31.1-.7,11-2.7,14-10.4,14-10.4-.4-1.1-2.5-4.3-13.2-2.1-10.8,2.2-27.8,1.8-27.8,1.8,0,0,1.4,2.5.7,5,0,0-2.5,4.3-8.5,5,0,0,.8,3.4-.7,5.9,0,0-2.1,3.3-9,3.2,0,0,.3,2.6-.8,4.8,0,0-4.7,2.6-9.2,2.1,0,0-1.6,3.6-3.1,5.1,0,0-5,1.2-7.8.2,0,0-2.7,3.4-4.9,4.4,0,0-3.3.9-6.8-.7,0,0-3.4,2.9-5.8,3.8,0,0-2,.2-4.9-2h0c6.6-9.5,9.9-16.9,9.9-16.9,6.8.8,9.7-.4,9.3-1.3-.4-.9.9-2.4.9-2.4,8.1.3,10.1-2.2,9.8-3.4-.3-1.2.5-2.5.5-2.5,10.5-1.2,10.5-5.1,10-6.2-.5-1,0-3.1,0-3.1,8-.5,10.2-7.3,8.3-9.3-1.2-1.3-1.8-3.9-1.8-3.9,0,0,4.1,2,13.5-.9s12.4-12.4,12.4-12.4c-5.1-1.8-10.4.3-16.7.5-6.3.3-7.8,0-7.8,0,0,0,8.7-.5,16.3-5.1,7.6-4.6,8.5-11.6,8.5-11.6-3.8-2.5-9.1-2.3-9.1-2.3-12.3,8.4-16.4,6.7-16.4,6.7,23.6-9.4,22.6-23.4,22.6-23.4-4.7-2.5-10.2-2.2-10.2-2.2,0,0-.7,2.1-7.8,7.3-7.1,5.2-9.1,4.3-9.1,4.3,0,0,10.6-6.4,15.4-13.4,4.5-6.5,4.8-14.6,4.8-14.6-6.3-1.3-12.3,1.1-12.3,1.1-8.6,12.5-15.1,14-15.1,14,0,0,9.2-9.2,13-15.5,3.8-6.3,4.6-15.7,4.6-15.7,0,0-4.8-.6-10.2,3.8-5.4,4.4-11.7,14.6-11.7,14.6.4-5.4,4.3-10.7,9.7-15.9,5.4-5.2,12.1-5.4,12.1-5.4,0,0,4.9-8.6,8.3-22.4,3.9-16.3-1.4-22.1-1.4-22.1h0ZM143.6,24.9c-13.4,11.2-15.2,40.6-15.2,40.6,4.1,1,8.2,6.9,8.2,6.9,1.9-11.8,8.5-17.6,8.5-17.6.3-3.6,3.2-12.6,3.2-12.6,2-13.4-4.7-17.3-4.7-17.3ZM281.9,34.4c-11.2.2-16.8,13.5-16.8,13.5-1.8,6.4-7.1,13.5-7.1,13.5.5,5.9-3.3,16.2-3.3,16.2,4.1-1.7,11.3-.9,11.3-.9,0,0,3.7-4.3,10.4-18.1,8.6-17.8,5.5-24.3,5.5-24.3ZM120.1,38.9c-3.1,2.3-5.9,6.5-7.1,9.6-5.3,12.8-4.4,31.9-4.4,31.9,5.9.6,10.6,7.2,10.6,7.2,1.1-15.3,7.2-21.6,7.2-21.6,1.4-20.2-6.3-27.1-6.3-27.1ZM294.2,53.3c-2.8,0-6.8,1.3-10.2,6-3.6,5-9.7,11.6-9.7,11.6-1.9,2.7-6.4,7.3-6.4,7.3.5,8.5-3.8,15.4-3.8,15.4,5.9.3,8.6,1.9,8.6,1.9,0,0,11.4-11.2,18.2-22.3,6.8-11.2,3.8-19.8,3.8-19.8-.2,0-.4,0-.5,0h0ZM93.7,60.8c-7.3,10.6-1.7,38.8-1.7,38.8,6.2-1.1,11.8,1.6,11.8,1.6-.8-14.8,2.4-18.9,2.4-18.9-2.2-16.9-12.5-21.5-12.5-21.5ZM304.7,76.4c-6.8-.1-11.9,5.8-16.6,10.2-4.7,4.4-13.4,11.2-13.4,11.2-.5,9.8-6.9,15.1-6.9,15.1,3.6-.5,7.4,1.7,7.4,1.7,0,0,14.9-8.8,22.8-18.4,9.6-11.6,6.6-19.8,6.6-19.8h0ZM72.6,87.9c-3.9,15.4,9,33.6,9,33.6,4.5-2.5,11.9-1.8,11.9-1.8-3.8-8.6-3.2-15.2-3.2-15.2-6.5-16.8-17.6-16.6-17.6-16.6ZM307.3,101.7c-3.3,0-7.5,1.6-12.3,4.8-6.4,4.3-17.3,10-17.3,10-1.1,9.8-11.9,14.7-11.9,14.7,0,0,15.9-2.3,30-10.5,14.1-8.2,14.5-18.5,14.5-18.5-.9-.4-1.9-.6-2.9-.6ZM63.7,117.3c-2.6,0-4.2.7-4.2.7-.5,15.2,21.2,25.9,21.2,25.9,3.1-3.1,10.3-2.7,10.3-2.7-8.9-5.9-10.3-14.8-10.3-14.8-7-7.5-13.2-9.1-17-9.1ZM306.2,123.3c-3,0-7,1-11.8,3.1-8.4,3.8-20.2,4.8-20.2,4.8,1.7.4,2.9,1.1,2.9,1.1-1.7,6.7-7.4,11.6-7.4,11.6,0,0,11.4.3,25.2-4.1,14.7-4.7,16.6-15.2,16.6-15.2-1.2-.9-2.9-1.3-5.3-1.3h0ZM169.5,135.4s-1.3,2.1-4.1,2.8c0,0-.3,5.3-4,5.9-3.6.7-4.6-2.6-4.4-4.1,0,0-1.5.5-2.5,1.5,0,0-1-3.1,4.8-4,5.8-.8,7.2-.8,10.2-2.1ZM67.4,145c-7.6-.1-10.7,3.4-10.7,3.4,6.5,12.6,28,16.8,28,16.8,1.1-2,6.3-4.8,6.3-4.8-13.8-5.1-12.5-13.1-12.5-13.1-4.4-1.6-8.1-2.2-11-2.3h0ZM155.2,147c.6,0,1.2,0,1.8,0-.3,2.3-3.2,4-5.8,5.6,0-.3.1-.6.1-1,0-1.8-1.2-3.2-2.8-3.6,1.4-.4,3-.8,4.8-.9.7,0,1.3-.1,2-.1h0ZM81.7,169.8c-13.2.2-16.9,7.2-16.9,7.2,0,0,2.9,5.7,12,6.7,9.1,1,20.2-.8,20.2-.8.3-1.7,2.4-5.4,2.4-5.4-13.1.4-16.4-7.7-16.4-7.7-.4,0-.9,0-1.3,0h0ZM96.5,185.6c-14.8,3-15.8,14.2-15.8,14.2,0,0,2.8,3.3,12,1.7,9.2-1.6,17.1-5.7,17.1-5.7-.3-1.5.1-4.9.1-4.9-10.4,2.3-14.3-.8-14.3-.8,0-2.2.9-4.5.9-4.5ZM110.1,197.9s-3.2,2.4-7.1,6c-3.9,3.6-3,9.5-3,9.5,14.9,2.3,26.1-9.6,26.1-9.6-.3-1.6-.4-4.4-.4-4.4-7,3.7-14.3,2.5-14.3,2.5-.6-1.2-1.4-4-1.4-4h0ZM140,205.2c-5.2,4.2-11.8,3-11.8,3-1.1-1.2-1.2-2.4-1.2-2.4-1.9,2.3-5.2,5.5-5.2,5.5-5.1,4.6,1.9,8.4,1.9,8.4,3.7.2,8.4-1.9,11.4-3.7,3-1.8,4,1.2,4,1.2-1.1-4.2.8-12,.8-12ZM242.5,215.7s3.2,6.6-3.2,8.5c-6.4,1.9-14.4-4.9-14.4-4.9,0,0,2.8,7.6-4.2,7.6s-11.2-4.7-11.2-4.7c-1.4,5.2-5.8,4.9-9.4,3.1-3.8-1.9-6.8-5.4-6.8-5.4-2.9,20.6,15.5,36.1,22.7,40.6,7.2,4.5,12.4,12.2,23.1,31.3,14.2,25.5,36.7,44.1,64.7,42.9,22.1-1,21.4-19.1,21.4-19.1-5.5,5.1-28.6,5.9-51.1-5.9-22.5-11.9-24.8-25.5-24.8-25.5,12.7,22.1,61.3,37.3,79.6,26.5,18.2-10.8,17.4-24.6,14.2-29.9-3.2-5.3-8.3-3.4-8.3-3.4,8.6,5.9,1.3,16.8-11.9,21.9-11.9,4.6-28.8,4.1-41.8-3.4-27.4-15.7-37.3-39-37.1-45.4.2-6.4,19.1-8.7,32.5-8.9,13.4-.2,23.8,5.3,22.7,12.1-1.1,6.8-8.7,6.4-8.7,6.4,12.9,7,21.6-1.7,24-9.3,2.3-7.6-.8-23.1-14-27.4-13.2-4.2-26.9,2.5-38.6,1.9-11.9-.6-19.3-9.5-19.3-9.5h0Z"/>
          <path class="cls-2" d="M158.5,139.4s1.4-.7,5.5-1.1c0,0-.7,3.9-2.9,4.2-2.2.3-2.8-1.9-2.6-3.1"/>
          <path class="cls-2" d="M240,383.1h-.7v-2.1c.1,0,.4,0,.8,0,.8,0,1.2.4,1.2,1s-.5,1.1-1.3,1.1M241.7,383.7h0c.6-.3,1.3-.9,1.3-1.9s-.2-1.2-.7-1.6c-.5-.4-1.3-.6-2.4-.6s-1.7,0-2.3.2v7.4h1.7v-2.9h.5c.7,0,1,.3,1.2,1.2.2.9.4,1.5.5,1.7h1.7c-.1-.3-.4-1.3-.6-2.1-.2-.7-.5-1.2-1-1.4M240.3,388.8c-2.8,0-5.1-2.3-5.1-5.1s2.3-5.1,5.1-5.1,5.1,2.3,5.1,5.1-2.3,5.1-5.1,5.1M240.3,377.4c-3.5,0-6.3,2.8-6.3,6.3s2.8,6.3,6.3,6.3,6.3-2.8,6.3-6.3-2.8-6.3-6.3-6.3"/>
        </g>
      </g>
    </g>
  </g>
</svg>