<?xml version="1.0" encoding="utf-8"?>
<!-- Generator: Adobe Illustrator 27.7.0, SVG Export Plug-In . SVG Version: 6.00 Build 0)  -->
<svg version="1.1"
	 id="svg152713" xmlns:svg="http://www.w3.org/2000/svg" xmlns:dc="http://purl.org/dc/elements/1.1/" xmlns:cc="http://creativecommons.org/ns#" xmlns:sodipodi="http://sodipodi.sourceforge.net/DTD/sodipodi-0.dtd" xmlns:inkscape="http://www.inkscape.org/namespaces/inkscape" xmlns:rdf="http://www.w3.org/1999/02/22-rdf-syntax-ns#" inkscape:version="1.0.1 (3bc2e813f5, 2020-09-07)" sodipodi:docname="Pakhtakor Tashkent FK logo.svg"
	 xmlns="http://www.w3.org/2000/svg" xmlns:xlink="http://www.w3.org/1999/xlink" x="0px" y="0px" viewBox="0 0 215.3 224.08"
	 style="enable-background:new 0 0 215.3 224.08;" xml:space="preserve">
<style type="text/css">
	.st0{fill-rule:evenodd;clip-rule:evenodd;fill:#FFFFFF;}
	.st1{fill-rule:evenodd;clip-rule:evenodd;fill:#00ABEE;}
	.st2{fill-rule:evenodd;clip-rule:evenodd;fill:#2E3091;}
	.st3{fill-rule:evenodd;clip-rule:evenodd;fill:#FFF000;}
	.st4{fill-rule:evenodd;clip-rule:evenodd;fill:#2E2828;}
	.st5{fill-rule:evenodd;clip-rule:evenodd;fill:#F3EE11;}
	.st6{fill-rule:evenodd;clip-rule:evenodd;fill:#0C0707;}
	.st7{fill-rule:evenodd;clip-rule:evenodd;fill:#D48F1E;}
	.st8{fill-rule:evenodd;clip-rule:evenodd;fill:#211E1E;}
</style>
<sodipodi:namedview  bordercolor="#666666" borderopacity="1.0" id="base" inkscape:current-layer="layer1" inkscape:cx="143.53102" inkscape:cy="227.62583" inkscape:document-rotation="0" inkscape:document-units="px" inkscape:pageopacity="0.0" inkscape:pageshadow="2" inkscape:window-height="705" inkscape:window-maximized="1" inkscape:window-width="1366" inkscape:window-x="-8" inkscape:window-y="-8" inkscape:zoom="1.0931708" pagecolor="#ffffff" showgrid="false">
	</sodipodi:namedview>
<g id="layer1" transform="translate(-650.75469,-431.71428)" inkscape:groupmode="layer" inkscape:label="Layer 1">
	<path id="path112360" class="st0" d="M758.4,443.28c57.91,0,104.87,46.96,104.87,104.87c0,57.91-46.96,104.87-104.87,104.87
		c-57.94,0-104.87-46.96-104.87-104.87S700.47,443.28,758.4,443.28"/>
	<path id="path112364" class="st1" d="M755.38,593.73L755.38,593.73 M755.32,593.76l0.03-0.03 M755.29,593.76L755.29,593.76
		 M755.26,593.76h0.03H755.26z M755.26,593.76L755.26,593.76 M755.26,593.76L755.26,593.76 M755.2,593.76h0.03 M755.2,593.76
		L755.2,593.76 M755.17,593.76L755.17,593.76 M755.17,593.79v-0.03 M755.14,593.79L755.14,593.79z M755.05,593.79h0.06H755.05z
		 M755.01,593.79h0.03H755.01z M754.98,593.82l0.03-0.03L754.98,593.82z M754.95,593.82h0.03H754.95z M754.92,593.82h0.03H754.92z
		 M754.89,593.82h0.03H754.89z M806.73,567.05c0.21,0,0.42,0,0.6,0c3.38-5.65,5.89-9.27,5.89-16.18c0-6.58-2.69-12.53-7-16.87
		c-1.32-1.32-2.81-2.48-4.43-3.47v-28.12c-2.33-2.18-4.85-4.16-7.42-6.01v31.14c-1.62-0.33-3.32-0.54-5.02-0.54
		c-1.17,0-2.33,0.09-3.47,0.27c-0.87,0.12-1.7,0.3-2.51,0.51c0.03-0.12,0.03-0.27,0.03-0.39c0-0.48,0.03-0.93,0.03-1.38
		c0-6.67-2.72-12.71-7.09-17.11c-3.77-3.74-8.73-6.28-14.3-6.94l0.06-1.17c-1.65-0.15-5.56-0.12-7.42-0.03v1.44
		c-4.88,0.93-9.24,3.32-12.59,6.7c-4.4,4.4-7.12,10.44-7.12,17.11c0,0.75,0.03,1.53,0.09,2.27c0.06,0.36,0.09,0.75,0.15,1.11
		c-1.11-0.42-2.27-0.78-3.5-1.02c-1.53-0.33-3.11-0.48-4.73-0.48c-1.59,0-3.14,0.15-4.64,0.45V496.4c-2.6,1.85-5.08,3.83-7.45,6.01
		v28.86c-1.65,0.99-3.14,2.15-4.46,3.5c-4.25,4.25-6.88,10.08-6.88,16.54c0,3.14,0.63,6.16,1.76,8.91c1.17,2.75,2.81,5.26,4.88,7.39
		v0.57c-1.76,0.27-3.17,0.66-4.04,1.14c0.09,0,0.18,0.03,0.24,0.03c2.96,0.51,5.74,2.21,8.49,4.52v20.01
		c2.3,2.09,4.79,4.13,7.45,6.07v-18.87c1.05,1.05,2.12,2.09,3.2,3.14l0.06,0.06c0.18,0.15,0.36,0.3,0.51,0.48h0.03
		c0.15,0.18,0.36,0.33,0.54,0.51h0.03c0.18,0.18,0.36,0.33,0.54,0.51c0.21,0.18,0.36,0.33,0.57,0.48l0.03,0.03
		c0.18,0.15,0.36,0.33,0.54,0.48h0.03c0.18,0.15,0.36,0.3,0.54,0.45l0.09,0.06c0.18,0.15,0.36,0.3,0.54,0.42l0.03,0.03
		c0.18,0.15,0.36,0.3,0.57,0.45l0.03,0.03c0.18,0.12,0.39,0.3,0.57,0.42v0.03c0.45,0.27,0.84,0.57,1.23,0.84h0.03
		c0.21,0.15,0.42,0.27,0.6,0.39l0.03,0.03c0.21,0.15,0.42,0.27,0.63,0.39v0.03c0.21,0.12,0.45,0.24,0.63,0.36h0.03
		c0.21,0.12,0.42,0.24,0.63,0.36l0.06,0.03c0.21,0.09,0.39,0.21,0.57,0.3l0.12,0.06c0.18,0.09,0.39,0.18,0.57,0.27l0.09,0.06
		c0.21,0.09,0.39,0.18,0.63,0.27l0.06,0.03c0.21,0.09,0.42,0.18,0.6,0.27l0.12,0.03c0.21,0.09,0.39,0.15,0.63,0.24l0.06,0.03
		c0.21,0.09,0.45,0.15,0.63,0.21l0.12,0.06c0.21,0.06,0.42,0.12,0.63,0.18l0.09,0.03c0.24,0.06,0.45,0.12,0.66,0.18l0.09,0.03
		c0.21,0.06,0.45,0.09,0.66,0.15l0.09,0.03c0.24,0.03,0.45,0.09,0.69,0.12l0.06,0.03c0.24,0.03,0.48,0.09,0.72,0.12h0.03
		c0.27,0.03,0.51,0.06,0.78,0.09l0.24,0.06l0.18,0.03h0.09l0.18,0.03l0.15,0.03h0.03l0.18,0.03l0.15,0.03h0.03l0.18,0.03h0.12
		l0.03,0.03l0.18,0.03h0.21l0.12,0.03h0.15l0.06,0.03c0.15,0,0.33,0.03,0.51,0.03l0.18,0.03h0.18l0.15,0.03h0.39
		c0.12,0.03,0.21,0.03,0.33,0.03h0.36l0.36,0.03h0.72c0.12,0,0.21,0,0.36,0h0.33c0.12,0,0.27,0,0.39,0l0.18-0.03h0.54l0.15-0.03
		h0.36l0.18-0.03h0.18l0.15-0.03h0.21l0.36-0.03h0.03c0.18-0.03,0.33-0.06,0.51-0.06h0.03l0.15-0.03l0.21-0.03h0.03l0.15-0.03h0.12
		l0.21-0.03h0.03l0.27-0.03v-0.03h0.06l0.21-0.03l0.18-0.03h0.06l0.12-0.03h0.15l0.03-0.03v3.35l7.42-0.03v-3.5l0.15,0.03l0.06,0.03
		h0.06l0.12,0.03l0.15,0.06h0.03l0.15,0.06h0.03l0.12,0.03h0.09l0.15,0.06h0.06l0.3,0.06h0.03v0c0.15,0.03,0.27,0.03,0.36,0.06h0.03
		l0.15,0.03l0.12,0.03l0.09,0.03h0.06l0.12,0.03h0.03l0.15,0.03h0.03l0.12,0.03h0.15l0.12,0.03h0.03l0.09,0.03h0.21l0.12,0.03h0.06
		l0.09,0.03h0.15l0.15,0.03h0.18l0.12,0.03h0.12l0.09,0.03h0.42l0.12,0.03h0.66l0.06,0.03h0.93l0.15-0.03h0.6l0.15-0.03h0.27
		l0.12-0.03h0.21l0.15-0.03h0.09c0.09,0,0.18,0,0.3-0.03h0.06l0.15-0.03h0.03l0.12-0.03h0.12l0.12-0.03h0.09l0.15-0.03
		c0.21-0.06,0.42-0.12,0.63-0.18c9.06-2.48,16.15-6.97,22.01-11.55l0.15-0.09v17.47c2.63-1.94,5.11-3.98,7.42-6.07V576.2l0.15-0.12
		l0.06-0.06c3.08-2.72,7.15-6.7,11.37-8.08c-0.15-0.06-0.24-0.15-0.39-0.21c-1.85-0.27-4.28-0.57-6.25-0.69 M762.12,607.4h-7.42
		v3.77c2.3,0.21,4.79,0.21,7.42-0.03V607.4z M754.71,488.71l7.42,0.09v-3.65c-1.65-0.15-5.56-0.12-7.42-0.03V488.71z M777.98,599.32
		h3.05l-3.41,2.27c0.27,0,0.48-0.03,0.66-0.03c0.18-0.03,0.33-0.03,0.48-0.03c1.23,0,2.27,0.21,3.11,0.66
		c0.87,0.42,1.29,0.96,1.29,1.59c0,0.27-0.09,0.54-0.36,0.81c-0.21,0.27-0.51,0.51-0.93,0.72c-0.54,0.27-1.14,0.48-1.76,0.63
		c-0.66,0.12-1.38,0.18-2.24,0.18c-0.72,0-1.41-0.06-2.06-0.15c-0.63-0.12-1.17-0.3-1.67-0.51c-0.48-0.24-0.9-0.48-1.14-0.75
		c-0.27-0.27-0.42-0.57-0.42-0.84c0-0.33,0.15-0.66,0.45-1.02c0.3-0.33,0.84-0.78,1.67-1.32L777.98,599.32z M775.4,603.75
		c0,0.33,0.24,0.6,0.72,0.84c0.48,0.24,1.08,0.33,1.73,0.33c0.72,0,1.29-0.09,1.73-0.3c0.48-0.21,0.69-0.51,0.69-0.84
		c0-0.33-0.21-0.63-0.66-0.84c-0.45-0.21-1.02-0.33-1.73-0.33c-0.69,0-1.29,0.12-1.76,0.33C775.64,603.18,775.4,603.42,775.4,603.75
		 M769.39,599.32v1.17h-5.14l-0.45,1.14c0.3-0.09,0.63-0.15,0.96-0.18c0.33-0.03,0.69-0.06,1.08-0.06c1.38,0,2.57,0.24,3.53,0.69
		c0.96,0.45,1.47,1.02,1.47,1.67c0,0.27-0.15,0.57-0.33,0.84c-0.27,0.27-0.6,0.51-1.02,0.72c-0.54,0.27-1.14,0.48-1.82,0.63
		c-0.66,0.15-1.41,0.21-2.18,0.21c-1.44,0-2.63-0.21-3.59-0.63c-0.99-0.39-1.56-0.93-1.65-1.59h2.78c0.09,0.3,0.36,0.54,0.81,0.72
		c0.45,0.18,0.99,0.27,1.62,0.27c0.69,0,1.26-0.09,1.7-0.33c0.48-0.21,0.69-0.51,0.69-0.87c0-0.33-0.21-0.63-0.69-0.84
		c-0.45-0.21-1.08-0.3-1.82-0.3c-0.45,0-0.84,0.03-1.17,0.12c-0.33,0.06-0.57,0.18-0.78,0.36l-2.48-0.27l1.44-3.47L769.39,599.32z
		 M753.3,605.99h-3.05l3.38-2.27c-0.24,0.03-0.48,0.06-0.66,0.06c-0.15,0-0.33,0.03-0.48,0.03c-1.2,0-2.27-0.24-3.11-0.66
		c-0.87-0.45-1.29-0.99-1.29-1.62c0-0.24,0.12-0.51,0.36-0.78c0.21-0.27,0.54-0.51,0.93-0.72c0.54-0.3,1.14-0.51,1.79-0.63
		c0.66-0.15,1.41-0.21,2.24-0.21c0.69,0,1.41,0.06,2.03,0.18c0.63,0.12,1.2,0.27,1.67,0.51c0.51,0.21,0.9,0.45,1.14,0.72
		c0.27,0.3,0.42,0.57,0.42,0.87c0,0.33-0.15,0.66-0.45,0.99c-0.3,0.36-0.84,0.78-1.65,1.35L753.3,605.99z M755.84,601.6
		c0-0.33-0.21-0.63-0.69-0.87c-0.48-0.21-1.08-0.33-1.73-0.33c-0.72,0-1.29,0.12-1.76,0.33c-0.48,0.21-0.69,0.51-0.69,0.84
		c0,0.33,0.21,0.6,0.69,0.81c0.45,0.24,1.02,0.33,1.73,0.33c0.66,0,1.26-0.09,1.73-0.33C755.63,602.17,755.84,601.9,755.84,601.6
		 M743.04,605.99h-2.84v-5.68h-2.6v-0.99h5.44V605.99z M763.62,499.75c1.91,0,3.26-1.14,4.04-2.27c0.09-0.09,0.06-0.15,0-0.18
		l-0.21-0.21c-0.09-0.06-0.15,0-0.21,0.12c-0.51,0.75-1.7,1.47-3.26,1.47c-0.45,0-1.26-0.12-2.12-1.02
		c-0.99-1.05-1.23-2.72-1.23-3.59c-0.03-2.03,0.81-3.86,2.84-3.86c1.05,0,1.76,0.45,2.36,1.02c0.57,0.6,0.96,1.29,1.11,1.85
		c0.03,0.12,0.09,0.15,0.18,0.15l0.3-0.09c0.03-0.03,0.06-0.09,0.03-0.18c-0.03-0.42-0.3-2.75-0.3-3.02c0-0.18-0.03-0.21-0.24-0.21
		c-0.21,0-0.24,0-0.24,0.09l-0.12,0.33c-0.03,0.09-0.09,0.12-0.3,0.03c-0.48-0.27-1.5-0.6-2.75-0.6c-1.73,0-2.87,0.66-3.65,1.5
		c-0.96,1.02-1.41,2.3-1.41,3.71c0,1.2,0.48,2.78,1.53,3.68C760.81,499.24,761.77,499.75,763.62,499.75 M752.85,494.04
		c0-0.84,0.03-3.59,0.03-3.77c0.6,0,2.06,0.06,2.42,0.15c0.33,0.09,0.69,0.33,0.93,0.6c0.57,0.6,0.9,1.05,1.08,1.29
		c0.09,0.15,0.12,0.15,0.21,0.15l0.24-0.18c0.06,0,0.09-0.06,0.06-0.09l-0.54-2.24c-0.03-0.15-0.06-0.24-0.15-0.24
		c-0.09,0-0.39,0.06-0.69,0.06c-0.66,0-4.31,0.03-4.49,0.03c-1.67,0-2.21-0.03-2.36-0.03c-0.03,0-0.06,0.03-0.06,0.09v0.39
		c0,0.06,0.03,0.09,0.09,0.09h0.6c0.33,0,0.54,0.12,0.54,0.39c0,0.15,0.03,2.06,0.03,2.69v0.96c0,2.36-0.03,4.1-0.06,4.37
		c0,0.21-0.12,0.27-0.39,0.27h-0.48c-0.09,0-0.12,0-0.12,0.09v0.36c0,0.09,0.03,0.12,0.09,0.12c0.21,0,0.72-0.03,2.06-0.03
		c1.44,0,2,0.03,2.12,0.03c0.09,0,0.09-0.03,0.09-0.12v-0.36c0-0.06-0.03-0.09-0.09-0.09h-0.81c-0.21,0-0.33-0.06-0.33-0.45
		c0-0.18-0.03-2.48-0.03-2.9v-0.51c0.57,0,1.05,0,1.5,0.09c0.24,0.09,0.51,0.33,0.66,0.57c0.09,0.12,0.24,0.54,0.27,0.66
		c0.03,0.06,0.06,0.12,0.09,0.09l0.3-0.06c0.09-0.03,0.12-0.03,0.12-0.12c-0.03-0.27-0.09-0.93-0.09-1.41c0-0.21,0-1.35,0.06-1.59
		c0-0.06-0.06-0.09-0.09-0.09l-0.33-0.03c-0.03,0-0.09,0.06-0.12,0.12c-0.03,0.24-0.15,0.51-0.3,0.72c-0.21,0.3-0.48,0.48-0.69,0.51
		c-0.27,0.03-0.84,0.06-1.38,0.06L752.85,494.04z M758.42,484.86c34.88,0,63.29,28.45,63.29,63.29c0,34.88-28.42,63.29-63.29,63.29
		c-34.85,0-63.29-28.42-63.29-63.29C695.12,513.3,723.57,484.86,758.42,484.86"/>
	<path id="path112366" class="st2" d="M758.4,484.85c34.88,0,63.29,28.45,63.29,63.29c0,34.88-28.42,63.29-63.29,63.29
		c-34.85,0-63.29-28.42-63.29-63.29C695.11,513.3,723.56,484.85,758.4,484.85 M804.88,501.66c-11.9-11.9-28.36-19.29-46.48-19.29
		c-18.1,0-34.55,7.39-46.48,19.29c-11.9,11.93-19.29,28.39-19.29,46.48c0,18.13,7.39,34.58,19.29,46.48
		c11.93,11.9,28.39,19.29,46.48,19.29c18.13,0,34.58-7.39,46.48-19.29c11.9-11.9,19.29-28.36,19.29-46.48
		C824.18,530.05,816.79,513.6,804.88,501.66 M758.4,479.17c18.99,0,36.22,7.75,48.75,20.25c12.47,12.47,20.25,29.73,20.25,48.72
		c0,19.02-7.78,36.25-20.25,48.75c-12.53,12.5-29.76,20.25-48.75,20.25c-18.99,0-36.25-7.75-48.72-20.25
		c-12.53-12.5-20.25-29.73-20.25-48.75c0-18.99,7.72-36.25,20.25-48.72C722.15,486.92,739.41,479.17,758.4,479.17 M674.65,529.66
		c6.31-0.12,11.55,5.71,12.59,13.16c0.33,7.54-6.34,13.58-12.53,13.58c-6.85-0.39-12.83-6.22-13.46-13.4
		C661.52,535.46,667.8,528.76,674.65,529.66 M843.11,529.66c6.31-0.12,11.52,5.71,12.59,13.16c0.33,7.54-6.34,13.58-12.53,13.58
		c-6.85-0.39-12.86-6.22-13.49-13.4C829.98,535.46,836.23,528.76,843.11,529.66 M758.4,443.72c57.52,0,104.45,46.9,104.45,104.42
		c0,57.52-46.93,104.45-104.45,104.45c-57.52,0-104.45-46.93-104.45-104.45C653.96,490.62,700.88,443.72,758.4,443.72"/>
	<path id="path112370" class="st3" d="M804.88,501.69c-11.9-11.93-28.36-19.32-46.48-19.32c-18.1,0-34.55,7.39-46.48,19.32
		c-11.93,11.9-19.29,28.36-19.29,46.45c0,18.13,7.36,34.58,19.29,46.48c11.93,11.93,28.39,19.29,46.48,19.29
		c18.13,0,34.58-7.36,46.48-19.29c11.9-11.9,19.29-28.36,19.29-46.48C824.18,530.05,816.79,513.6,804.88,501.69 M758.4,479.17
		c18.99,0,36.22,7.75,48.75,20.25c12.47,12.5,20.25,29.73,20.25,48.72c0,18.99-7.78,36.25-20.25,48.75
		c-12.53,12.5-29.76,20.25-48.75,20.25c-18.99,0-36.25-7.75-48.72-20.25c-12.53-12.5-20.25-29.76-20.25-48.75
		c0-18.99,7.72-36.22,20.25-48.72C722.15,486.92,739.41,479.17,758.4,479.17"/>
	<path id="path112372" class="st4" d="M668.28,554.33c-2.09-1.17-3.89-2.87-5.14-4.85c-1.17-2.06-1.94-4.4-1.94-6.73
		c-0.09-2.45,0.45-4.79,1.56-6.91c1.05-2,2.6-3.56,4.46-4.76c1.94-1.14,4.22-1.7,6.46-1.67c2.3-0.03,4.61,0.54,6.67,1.7
		c2.03,1.11,3.74,2.78,4.97,4.76c1.32,2.03,2.06,4.37,2.21,6.67c0.24,2.33-0.21,4.61-1.23,6.46c-1.14,2.18-2.75,3.92-4.67,5.17
		c-1.91,1.26-4.13,1.94-6.4,1.97C672.89,556.19,670.56,555.59,668.28,554.33 M676.99,530.38c0.84,0.75,1.73,1.44,2.45,1.85
		c0.6,0.33,1.26,0.6,1.82,0.9c0.63,0.24,1.17,0.36,1.35,0.36c-0.42-0.54-1.32-1.23-2.51-1.88c-0.96-0.54-2.09-0.96-3.02-1.17
		L676.99,530.38z M683.75,541.65c0.15,0.09,0.48,0.06,0.84,0.18c0.72,0.18,1.32,0.3,1.5,0.3c0,0,0.06-0.15,0.12-0.21
		c0.03-0.09,0.18-0.33,0.27-0.57c0.12-0.21,0.27-0.45,0.27-0.45c0.09-0.57-0.03-1.35-0.36-2.12c-0.33-0.9-0.78-1.85-1.35-2.57
		c-0.66-0.93-1.29-1.7-1.76-1.97c-0.39-0.21-1.05-0.36-1.65-0.39c-0.21,0.39-0.3,1.14-0.48,1.85c-0.12,0.24-0.06,0.57-0.15,0.72
		c-0.03,0.06,0.03,0.33,0.3,0.66c0.18,0.18,0.48,0.78,0.81,1.56c0.42,0.84,0.72,1.41,0.81,1.65c0.15,0.69,0.42,1.17,0.66,1.29
		L683.75,541.65z M672.86,532.32c0.3,0.06,0.9-0.12,1.56-0.36c0.78-0.27,1.5-0.69,2.06-0.96c0.03-0.09-0.06-0.33-0.06-0.33
		c-0.06-0.06-0.24-0.27-0.42-0.33c-0.33-0.21-0.9-0.3-1.29-0.33c-0.48-0.06-1.11,0-1.56-0.06c-0.51,0.03-1.14,0.09-1.59,0.12
		c-2.12,0.33-3.86,1.02-4.82,2.06c0.18,0.21,0.48,0.48,0.81,0.66c0,0,0.63-0.03,1.76-0.24c1.76-0.21,3.05-0.3,3.62-0.21
		L672.86,532.32z M665.5,536.51c-0.09,0.15,0.36,0.9,1.17,2.15c0.78,1.23,1.35,1.94,1.59,2.06c0.18,0.09,0.96,0.15,2.27,0.03
		c1.29-0.06,2.15-0.3,2.21-0.45c0.09-0.18,0.42-0.45,0.72-0.93c0.99-1.35,1.85-2.39,2.3-3.05c-0.18-0.48-0.57-1.32-1.14-2.03
		c-0.63-0.75-1.14-1.32-1.47-1.53c-0.15-0.09-1.02-0.06-2.3,0.06c-1.35,0.15-2.48,0.36-2.99,0.54c-0.15,0.12-0.6,0.57-1.14,1.41
		c-0.54,0.81-0.93,1.38-1.08,1.67L665.5,536.51z M673.1,540.61c-0.03,0.06,0.27,0.87,0.84,1.94c0.6,1.26,1.02,2,1.35,2.18
		c0.48,0.27,2.03,0.42,4.46,0.36c0.24,0,0.57,0,0.57,0c0.06,0.03,0.39-0.18,0.69-0.63c0.33-0.42,0.63-0.75,0.78-0.99
		c0,0,0.15-0.12,0.18-0.18c0.27-0.48,0.6-0.9,0.66-1.08c0.15-0.3,0.21-0.57,0.12-0.84c-0.09-0.24-0.15-0.69-0.21-0.93
		c-0.09-0.24-0.3-0.66-0.45-0.93c-0.27-0.54-0.6-1.11-0.78-1.47c-0.3-0.45-0.63-0.84-0.96-0.99c-0.3-0.21-0.93-0.42-1.47-0.54
		c-1.29-0.12-2.15-0.09-2.36,0c-0.3,0.15-0.96,0.78-1.7,1.79c-0.87,1.32-1.5,2.06-1.59,2.24L673.1,540.61z M686.95,541.44
		l-0.39,0.75c0,2.54-0.3,4.49-0.96,5.74l0.39,0.3c0.12-0.24,0.24-0.48,0.33-0.63c0.15-0.3,0.39-0.9,0.54-1.41
		c0.12-0.63,0.18-1.2,0.18-1.41C687.16,544.26,687.13,543.12,686.95,541.44 M661.61,540.97c-0.18,1.53-0.09,3.11,0.33,4.34
		c0.36,1.29,0.9,2.21,1.65,2.6c0,0,0.63-0.24,1.62-0.72c0.96-0.48,1.56-0.84,1.65-0.99c0.12-0.24,0.27-1.08,0.42-2.39
		c0.12-0.84,0.18-1.5,0.3-1.73c0.12-0.63,0.18-1.14,0-1.23c-1.47-2.3-2.36-3.62-2.51-3.68c-0.18-0.09-0.75,0.06-1.5,0.48
		c-0.75,0.48-1.29,0.9-1.38,1.05C662.06,538.93,661.85,539.71,661.61,540.97 M673.01,553.02c0.48,0.27,1.38,0.36,2.42,0.36
		c1.08-0.12,1.94-0.36,2.24-0.57c0.48-0.33,1.2-0.87,1.97-1.56c0.75-0.69,1.35-1.17,1.41-1.32c0.21-0.39,0.12-1.26-0.24-2.33
		c-0.42-1.17-0.69-1.82-0.84-1.91c-0.09-0.03-0.39-0.09-0.78-0.12c-0.09-0.06-0.33,0.03-0.33,0.03c-2.33-0.09-3.68-0.12-3.74-0.15
		c-1.14,1.11-1.91,1.85-2.27,2.15c-0.36,0.3-0.69,0.54-0.78,0.69c-0.18,0.3-0.21,0.78-0.12,1.23l0.03,0.12
		c0.39,2.03,0.78,3.26,1.11,3.44L673.01,553.02z M677.59,553.44l0.18,1.41l0.36,0.12c1.05-0.06,2.42-0.69,3.92-1.76
		c1.5-1.08,2.63-2.27,3.26-3.44c0.09-0.15,0.18-0.6,0.42-1.2l-0.27-0.24c-0.33,0.15-1.14,0.36-2.21,0.81
		c-0.75,0.27-1.26,0.42-1.26,0.42c-1.47,1.79-2.99,3.17-4.37,3.8L677.59,553.44z M664.39,550.27c0.33,0.57,0.93,1.23,1.73,1.85
		c0.87,0.69,1.76,1.41,2.57,1.82c0.48,0.27,1.17,0.27,1.97,0c0.84-0.24,1.41-0.54,1.56-0.84c0.09-0.15,0.06-0.69-0.18-1.41
		c-0.12-0.36-0.27-0.87-0.36-1.32c-0.24-0.93-0.51-1.59-0.66-1.68c-0.18-0.09-0.78-0.33-1.67-0.81c-1.14-0.54-2.09-0.96-2.39-1.14
		c-0.3,0.15-0.93,0.39-1.65,0.81c-0.75,0.39-1.23,0.72-1.32,0.9c-0.15,0.3,0,0.99,0.45,1.85"/>
	<path id="path112374" class="st4" d="M836.71,554.33c-2.06-1.17-3.86-2.87-5.11-4.85c-1.17-2.06-1.94-4.4-1.94-6.73
		c-0.09-2.45,0.42-4.79,1.56-6.91c1.05-2,2.57-3.56,4.46-4.76c1.94-1.14,4.19-1.7,6.43-1.67c2.3-0.03,4.64,0.54,6.7,1.7
		c2,1.11,3.74,2.78,4.97,4.76c1.32,2.03,2.06,4.37,2.21,6.67c0.21,2.33-0.24,4.61-1.23,6.46c-1.14,2.18-2.75,3.92-4.67,5.17
		c-1.91,1.26-4.13,1.94-6.4,1.97C841.34,556.19,838.98,555.59,836.71,554.33 M845.44,530.38c0.84,0.75,1.73,1.44,2.45,1.85
		c0.57,0.33,1.23,0.6,1.82,0.9c0.6,0.24,1.17,0.36,1.35,0.36c-0.42-0.54-1.32-1.23-2.54-1.88c-0.93-0.54-2.06-0.96-2.99-1.17
		L845.44,530.38z M852.17,541.65c0.18,0.09,0.48,0.06,0.87,0.18c0.72,0.18,1.32,0.3,1.5,0.3c0,0,0.06-0.15,0.12-0.21
		c0.03-0.09,0.18-0.33,0.27-0.57c0.12-0.21,0.27-0.45,0.27-0.45c0.09-0.57-0.03-1.35-0.36-2.12c-0.36-0.9-0.78-1.85-1.38-2.57
		c-0.63-0.93-1.26-1.7-1.73-1.97c-0.39-0.21-1.05-0.36-1.65-0.39c-0.21,0.39-0.33,1.14-0.48,1.85c-0.12,0.24-0.06,0.57-0.15,0.72
		c-0.03,0.06,0.03,0.33,0.27,0.66c0.21,0.18,0.51,0.78,0.84,1.56c0.42,0.84,0.72,1.41,0.81,1.65c0.15,0.69,0.42,1.17,0.66,1.29
		L852.17,541.65z M841.32,532.32c0.3,0.06,0.9-0.12,1.56-0.36c0.78-0.27,1.47-0.69,2.06-0.96c0.03-0.09-0.06-0.33-0.06-0.33
		c-0.06-0.06-0.27-0.27-0.42-0.33c-0.33-0.21-0.9-0.3-1.29-0.33c-0.48-0.06-1.14,0-1.56-0.06c-0.51,0.03-1.17,0.09-1.59,0.12
		c-2.15,0.33-3.86,1.02-4.82,2.06c0.18,0.21,0.48,0.48,0.81,0.66c0,0,0.63-0.03,1.76-0.24c1.76-0.21,3.05-0.3,3.62-0.21
		L841.32,532.32z M833.96,536.51c-0.09,0.15,0.36,0.9,1.14,2.15c0.81,1.23,1.38,1.94,1.62,2.06c0.15,0.09,0.96,0.15,2.24,0.03
		c1.29-0.06,2.18-0.3,2.24-0.45c0.09-0.18,0.42-0.45,0.72-0.93c0.99-1.35,1.82-2.39,2.3-3.05c-0.18-0.48-0.57-1.32-1.14-2.03
		c-0.63-0.75-1.14-1.32-1.47-1.53c-0.15-0.09-1.02-0.06-2.3,0.06c-1.35,0.15-2.48,0.36-2.99,0.54c-0.15,0.12-0.6,0.57-1.14,1.41
		c-0.54,0.81-0.93,1.38-1.08,1.67L833.96,536.51z M841.52,540.61c-0.03,0.06,0.3,0.87,0.87,1.94c0.6,1.26,1.02,2,1.35,2.18
		c0.48,0.27,2.03,0.42,4.46,0.36c0.24,0,0.54,0,0.54,0c0.09,0.03,0.39-0.18,0.72-0.63c0.33-0.42,0.63-0.75,0.78-0.99
		c0,0,0.15-0.12,0.18-0.18c0.27-0.48,0.57-0.9,0.63-1.08c0.18-0.3,0.24-0.57,0.15-0.84c-0.09-0.24-0.15-0.69-0.24-0.93
		c-0.06-0.24-0.27-0.66-0.42-0.93c-0.27-0.54-0.6-1.11-0.81-1.47c-0.27-0.45-0.6-0.84-0.93-0.99c-0.3-0.21-0.93-0.42-1.5-0.54
		c-1.29-0.12-2.12-0.09-2.36,0c-0.27,0.15-0.93,0.78-1.67,1.79c-0.87,1.32-1.5,2.06-1.59,2.24L841.52,540.61z M855.4,541.44
		l-0.39,0.75c0,2.54-0.3,4.49-0.96,5.74l0.39,0.3c0.09-0.24,0.24-0.48,0.33-0.63c0.15-0.3,0.36-0.9,0.54-1.41
		c0.12-0.63,0.18-1.2,0.18-1.41C855.61,544.26,855.55,543.12,855.4,541.44 M830.04,540.97c-0.18,1.53-0.06,3.11,0.36,4.34
		c0.36,1.29,0.9,2.21,1.65,2.6c0,0,0.63-0.24,1.62-0.72c0.96-0.48,1.56-0.84,1.65-0.99c0.12-0.24,0.27-1.08,0.42-2.39
		c0.12-0.84,0.15-1.5,0.3-1.73c0.12-0.63,0.18-1.14,0-1.23c-1.47-2.3-2.36-3.62-2.51-3.68c-0.18-0.09-0.78,0.06-1.5,0.48
		c-0.75,0.48-1.29,0.9-1.38,1.05C830.49,538.93,830.31,539.71,830.04,540.97 M841.47,553.02c0.48,0.27,1.38,0.36,2.42,0.36
		c1.08-0.12,1.91-0.36,2.24-0.57c0.48-0.33,1.2-0.87,1.97-1.56c0.75-0.69,1.35-1.17,1.41-1.32c0.21-0.39,0.12-1.26-0.24-2.33
		c-0.42-1.17-0.69-1.82-0.84-1.91c-0.09-0.03-0.39-0.09-0.78-0.12c-0.09-0.06-0.33,0.03-0.33,0.03c-2.36-0.09-3.68-0.12-3.74-0.15
		c-1.14,1.11-1.94,1.85-2.27,2.15c-0.36,0.3-0.69,0.54-0.78,0.69c-0.18,0.3-0.21,0.78-0.15,1.23l0.06,0.12
		c0.39,2.03,0.78,3.26,1.08,3.44L841.47,553.02z M846.01,553.44l0.21,1.41l0.36,0.12c1.05-0.06,2.42-0.69,3.92-1.76
		c1.5-1.08,2.63-2.27,3.26-3.44c0.09-0.15,0.18-0.6,0.42-1.2l-0.3-0.24c-0.3,0.15-1.11,0.36-2.21,0.81
		c-0.75,0.27-1.23,0.42-1.23,0.42c-1.47,1.79-3.02,3.17-4.37,3.8L846.01,553.44z M832.85,550.27c0.33,0.57,0.93,1.23,1.73,1.85
		c0.87,0.69,1.76,1.41,2.57,1.82c0.48,0.27,1.17,0.27,1.94,0c0.87-0.24,1.44-0.54,1.59-0.84c0.09-0.15,0.06-0.69-0.18-1.41
		c-0.12-0.36-0.3-0.87-0.36-1.32c-0.24-0.93-0.54-1.59-0.66-1.68c-0.18-0.09-0.78-0.33-1.67-0.81c-1.14-0.54-2.09-0.96-2.39-1.14
		c-0.3,0.15-0.96,0.39-1.65,0.81c-0.75,0.39-1.26,0.72-1.32,0.9c-0.15,0.3,0,0.99,0.45,1.85"/>
	<path id="path112376" class="st0" d="M777.96,599.32h3.05l-3.41,2.27c0.24,0,0.48-0.03,0.66-0.03c0.18-0.03,0.33-0.03,0.48-0.03
		c1.23,0,2.27,0.21,3.11,0.66c0.87,0.42,1.29,0.96,1.29,1.59c0,0.27-0.09,0.54-0.33,0.81c-0.24,0.27-0.54,0.51-0.96,0.72
		c-0.54,0.27-1.14,0.48-1.76,0.63c-0.66,0.12-1.38,0.18-2.27,0.18c-0.69,0-1.38-0.06-2.03-0.15c-0.63-0.12-1.17-0.3-1.67-0.51
		c-0.48-0.24-0.87-0.48-1.14-0.75c-0.27-0.27-0.42-0.57-0.42-0.84c0-0.33,0.15-0.66,0.45-1.02c0.3-0.33,0.84-0.78,1.67-1.32
		L777.96,599.32z M775.39,603.75c0,0.33,0.24,0.6,0.72,0.84c0.48,0.24,1.08,0.33,1.7,0.33c0.75,0,1.32-0.09,1.76-0.3
		c0.48-0.21,0.69-0.51,0.69-0.84c0-0.33-0.21-0.63-0.66-0.84c-0.48-0.21-1.02-0.33-1.73-0.33c-0.69,0-1.29,0.12-1.76,0.33
		C775.63,603.18,775.39,603.42,775.39,603.75 M769.38,599.32v1.17h-5.14l-0.48,1.14c0.33-0.09,0.66-0.15,0.99-0.18
		c0.33-0.03,0.69-0.06,1.08-0.06c1.38,0,2.57,0.24,3.53,0.69c0.96,0.45,1.44,1.02,1.44,1.68c0,0.27-0.09,0.57-0.33,0.84
		c-0.24,0.27-0.57,0.51-0.99,0.72c-0.54,0.27-1.14,0.48-1.82,0.63c-0.69,0.15-1.41,0.21-2.18,0.21c-1.41,0-2.63-0.21-3.59-0.63
		c-0.99-0.39-1.56-0.93-1.65-1.59h2.78c0.12,0.3,0.36,0.54,0.81,0.72c0.45,0.18,0.99,0.27,1.62,0.27c0.69,0,1.26-0.09,1.7-0.33
		c0.48-0.21,0.69-0.51,0.69-0.87c0-0.33-0.21-0.63-0.69-0.84c-0.48-0.21-1.08-0.3-1.79-0.3c-0.48,0-0.87,0.03-1.2,0.12
		c-0.33,0.06-0.57,0.18-0.78,0.36l-2.48-0.27l1.44-3.47L769.38,599.32z M753.29,605.99h-3.05l3.38-2.27
		c-0.24,0.03-0.48,0.06-0.66,0.06c-0.15,0-0.33,0.03-0.48,0.03c-1.2,0-2.27-0.24-3.11-0.66c-0.87-0.45-1.29-0.99-1.29-1.62
		c0-0.24,0.12-0.51,0.36-0.78c0.21-0.27,0.54-0.51,0.93-0.72c0.54-0.3,1.17-0.51,1.79-0.63c0.66-0.15,1.41-0.21,2.24-0.21
		c0.72,0,1.41,0.06,2.03,0.18c0.63,0.12,1.2,0.27,1.68,0.51c0.51,0.21,0.9,0.45,1.14,0.72c0.27,0.3,0.42,0.57,0.42,0.87
		c0,0.33-0.15,0.66-0.45,0.99c-0.3,0.36-0.84,0.78-1.65,1.35L753.29,605.99z M755.83,601.59c0-0.33-0.21-0.63-0.69-0.87
		c-0.48-0.21-1.08-0.33-1.73-0.33c-0.72,0-1.29,0.12-1.76,0.33c-0.48,0.21-0.69,0.51-0.69,0.84c0,0.33,0.21,0.6,0.69,0.81
		c0.45,0.24,1.02,0.33,1.73,0.33c0.66,0,1.26-0.09,1.73-0.33C755.62,602.16,755.83,601.89,755.83,601.59 M743.03,605.99h-2.84v-5.68
		h-2.6v-0.99h5.44"/>
	<path id="path112378" class="st5" d="M826.48,519.25l-3.92-9.18l4.7-1.97l0.57,1.35l10.14-4.31l-0.57-1.38l4.67-1.97l3.89,9.18
		c0.36,0.81,0.66,1.59,0.93,2.3c0.27,0.72,0.48,1.35,0.63,1.88c0.18,0.51,0.27,1.02,0.36,1.5c0.21,1.29-0.03,2.51-0.69,3.65
		c-0.66,1.2-1.68,2.03-3.02,2.6c-0.99,0.45-2.03,0.6-3.02,0.51c-1.02-0.12-1.88-0.45-2.57-1.02l-3.47,4.22l0.51,1.23l-4.67,1.97
		l-2.57-6.1l6.4-7.06l-0.9-2.06l-3.26,1.41l0.51,1.26L826.48,519.25z M841.14,511.5l-3.71,1.56l0.33,0.75
		c0.39,0.96,0.69,1.59,0.9,1.91c0.24,0.33,0.54,0.54,0.96,0.66c0.42,0.15,0.87,0.09,1.38-0.12c0.48-0.21,0.84-0.51,1.02-0.9
		c0.21-0.36,0.27-0.78,0.15-1.2c-0.06-0.39-0.33-1.08-0.75-2.06L841.14,511.5z M815.11,485.39c1.32-1.2,2.84-2.06,4.55-2.63
		c1.73-0.54,3.53-0.63,5.41-0.21c0.66,0.15,1.26,0.36,1.85,0.63c0.54,0.3,1.11,0.63,1.65,1.08c0.57,0.42,1.11,0.9,1.59,1.47
		c2.21,2.45,3.11,5.08,2.66,7.9c-0.24,1.41-0.66,2.72-1.29,3.92c-0.66,1.17-1.53,2.27-2.57,3.23c-2.18,1.97-4.73,2.99-7.6,3.05
		c-2.87,0.09-5.38-1.05-7.51-3.41c-2.03-2.27-2.96-4.82-2.69-7.6C811.37,490,812.72,487.54,815.11,485.39 M820.44,491.28
		c-1.76,1.59-2.78,2.81-3.14,3.65c-0.36,0.84-0.27,1.56,0.27,2.15c0.51,0.6,1.23,0.78,2.09,0.54c0.87-0.27,2.18-1.2,3.95-2.78
		c1.73-1.56,2.81-2.78,3.17-3.62c0.36-0.84,0.27-1.56-0.3-2.18c-0.51-0.6-1.23-0.75-2.09-0.51
		C823.55,488.77,822.2,489.7,820.44,491.28 M796.54,484.97l-8.23-5.56l2.84-4.22l1.17,0.78l6.16-9.15l-1.2-0.81l2.84-4.19l8.29,5.56
		l-2.84,4.22l-1.23-0.81l-6.16,9.15l1.2,0.81L796.54,484.97z M806.02,491.34l-7.9-5.29l2.84-4.22l0.75,0.48l0.03-7.24l6.67-1.56
		l-1.26-0.81l2.87-4.22l7.48,5.05l-2.84,4.22l-1.17-0.81l-5.35,1.23l-0.03,8.43l0.75,0.51L806.02,491.34z M774.17,476.24l-7.12-1.53
		l1.05-4.97l1.38,0.3l5.65-10.08l-1.44-0.3l1.08-4.97l12.89,2.72l-1.08,4.97l-1.44-0.3l1.14,11.55l1.32,0.27l-1.05,4.97l-9.36-2
		l0.96-4.55l1.59,0.33l-0.15-2.75l-4.58-0.96l-1.35,2.42l1.47,0.33L774.17,476.24z M779.13,461.13l-2.9,5.35l3.2,0.69L779.13,461.13
		z M763.13,474.35h-10.29v-5.08h1.59v-11.04h-2.12v3.86h-3.41v-8.94h18.19v8.94h-3.47v-3.86h-2.06v11.04h1.59V474.35z
		 M735.46,478.21l-9.27,2.66l-1.38-4.88l1.32-0.39l-3.05-10.62l-1.38,0.39l-1.38-4.88l9.3-2.66l1.41,4.88l-1.14,0.33l0.9,3.08
		l4.07-1.17l-0.9-3.08l-1.14,0.33l-1.38-4.88l9.3-2.69l1.38,4.91l-1.32,0.36l3.02,10.62l1.35-0.39l1.38,4.88l-9.27,2.69l-1.41-4.91
		l1.14-0.33l-0.96-3.32l-4.07,1.17l0.96,3.35l1.14-0.33L735.46,478.21z M715.48,488.5l-7.96,5.98l-3.05-4.04l1.14-0.84l-6.64-8.82
		l-1.14,0.87l-3.08-4.07l7.99-6.01l3.05,4.07l-1.17,0.87l6.64,8.82l1.17-0.87L715.48,488.5z M724.57,481.65l-7.57,5.71l-3.05-4.07
		l0.69-0.54l-6.82-2.39l0.72-6.79l-1.2,0.9l-3.05-4.07l7.21-5.41l3.05,4.04l-1.14,0.87l-0.57,5.44l7.96,2.81l0.72-0.57
		L724.57,481.65z M698.25,505.49l-4.49,5.74l-3.98-3.14l0.87-1.11l-6.61-9.48l-0.9,1.14l-3.98-3.11l8.11-10.38l3.98,3.11l-0.9,1.17
		l10.89,4.04l0.81-1.08l3.98,3.11l-5.89,7.57l-3.65-2.87l0.99-1.26l-2.51-1.08l-2.9,3.68l1.59,2.27l0.93-1.17L698.25,505.49z
		 M686.86,494.39l3.56,4.97l2.03-2.57L686.86,494.39z M690.54,519.46l-4.01,9.93l-4.73-1.88l0.69-1.67l-10.26-4.13l-0.66,1.65
		l-4.7-1.88l4.22-10.44c0.96-2.39,1.94-4.04,2.93-4.94c0.99-0.9,2.06-1.41,3.23-1.56c1.14-0.12,2.27,0.03,3.41,0.48
		c1.38,0.57,2.39,1.32,3.05,2.3c0.66,1.02,1.02,2.09,1.02,3.29c0,1.17-0.42,2.78-1.26,4.88l-1.08,2.66l2.75,1.11l0.69-1.7
		L690.54,519.46z M674.5,514.97l3.71,1.47l0.51-1.29c0.36-0.87,0.51-1.59,0.42-2.09c-0.09-0.48-0.48-0.87-1.2-1.17
		c-0.45-0.18-0.9-0.24-1.29-0.15c-0.42,0.09-0.72,0.27-0.93,0.57c-0.21,0.3-0.48,0.84-0.81,1.62"/>
	<path id="path112380" class="st5" d="M847.75,569.86l-1.53,6.64l-2.84-0.66l0.27-1.02l-6.16-1.44l-0.33,1.38l2.15,0.51l-0.51,2.21
		l-5-1.17l2.72-11.69l4.97,1.14l-0.51,2.21l-2.12-0.48l-0.33,1.35l6.13,1.41l0.27-1.05L847.75,569.86z M841.43,589.06l-1.94,4.58
		l-2.66-1.14l0.39-0.96l-5.8-2.48l-0.42,0.99l-2.66-1.14l2.24-5.29l7.54-1.59l-3.17-1.35l-0.36,0.9l-2.69-1.14l1.91-4.49l2.69,1.14
		l-0.45,0.96l8.64,3.68l-1.53,3.68l-8.76,1.82l3.92,1.68l0.42-0.99L841.43,589.06z M838.41,595.58l-6.31,9.72l-2.45-1.59l0.51-0.81
		l-5.29-3.44l-0.51,0.81l-2.45-1.59l6.31-9.72l3.26,2.12l-1.7,2.66l-0.84-0.54l-1.5,2.33l1.56,1.02l1.32-2.03l2.06,1.35l-1.29,2
		l1.65,1.11l1.53-2.33l-0.84-0.51l1.73-2.69L838.41,595.58z M825.67,612.87l-4.67,4.67l-2.03-2.06l0.63-0.66l-4.46-4.46l-0.66,0.66
		l-2.06-2.03l4.67-4.67l2.03,2.03l-0.66,0.69l4.46,4.46l0.69-0.66L825.67,612.87z M831,607.55l-4.43,4.43l-2.06-2.03l0.39-0.42
		l-4.31-0.57l0.15-4.22l-0.69,0.72l-2.03-2.06l4.19-4.22l2.06,2.06l-0.66,0.66l-0.12,3.38l5.02,0.66l0.42-0.45L831,607.55z
		 M812.72,624.03l-5.38,3.47l-1.59-2.42l0.78-0.51l-3.44-5.29l-0.78,0.51l-1.59-2.45l5.35-3.47l1.59,2.42l-0.66,0.42l1.02,1.56
		l2.36-1.53l-0.99-1.56l-0.66,0.42l-1.59-2.42l5.35-3.47l1.59,2.42l-0.78,0.51l3.44,5.29l0.78-0.51l1.59,2.45l-5.38,3.47l-1.59-2.42
		l0.66-0.45l-1.05-1.67l-2.36,1.56l1.08,1.65l0.66-0.42L812.72,624.03z M799.5,631.56l-2.45,1.2l-1.7-3.5l2.45-1.2
		c0.75,0.81,1.56,1.02,2.36,0.63c0.57-0.3,0.75-0.69,0.51-1.14c-0.09-0.24-0.3-0.39-0.57-0.48c-0.33-0.06-0.9-0.09-1.76-0.06
		c-1.08,0.03-1.91,0-2.48-0.06c-0.51-0.09-1.02-0.3-1.53-0.63c-0.51-0.33-0.9-0.78-1.17-1.35c-0.51-1.02-0.57-1.97-0.18-2.84
		c0.36-0.9,1.05-1.59,2-2.06c0.96-0.45,1.91-0.57,2.81-0.36l-0.33-0.66l2.48-1.23l1.5,3.11l-2.42,1.2c-0.72-0.72-1.44-0.9-2.21-0.51
		c-0.51,0.24-0.69,0.6-0.48,1.08c0.12,0.21,0.3,0.33,0.48,0.36c0.21,0.06,0.81,0.09,1.79,0.09c1.35,0,2.21,0.03,2.72,0.12
		c0.24,0.03,0.51,0.09,0.81,0.21c0.27,0.15,0.57,0.3,0.78,0.45c0.57,0.39,0.96,0.87,1.26,1.47c0.45,0.9,0.48,1.85,0.12,2.81
		c-0.36,0.96-1.08,1.7-2.09,2.21c-0.96,0.48-2,0.6-3.02,0.42L799.5,631.56z M787.72,635.84l-4.67,1.14l-0.72-2.81l0.9-0.21l0.66-6.7
		l-0.93,0.24l-0.69-2.81l8.46-2.12l0.69,2.84l-0.96,0.24l3.77,5.56l0.87-0.21l0.72,2.81l-6.16,1.53l-0.63-2.57l1.05-0.27l-0.81-1.38
		l-3.02,0.75l-0.15,1.62l0.96-0.24L787.72,635.84z M786.61,626.78l-0.3,3.53l2.09-0.54L786.61,626.78z M780.09,637.96l-6.73,0.93
		l-0.42-2.87l1.05-0.15l-0.9-6.25l-1.38,0.21l0.33,2.18l-2.27,0.3l-0.72-5.05l11.9-1.67l0.72,5.05l-2.27,0.33l-0.3-2.18l-1.35,0.18
		l0.87,6.28l1.08-0.18L780.09,637.96z M756.37,640.06l-5,0.18l-0.09-2.9l1.05-0.03l-0.21-6.31l-1.08,0.03l-0.06-2.9l5.74-0.21
		l4.61,6.16l-0.12-3.41l-0.99,0.03l-0.12-2.9l4.94-0.18l0.06,2.9l-1.02,0.03l0.33,9.39l-4.01,0.15l-5.38-7.15l0.15,4.25l1.11-0.03
		L756.37,640.06z M741.92,638.53l-4.76-0.75l0.45-2.87l0.93,0.15l3.23-5.89l-0.96-0.15l0.45-2.87l8.61,1.38l-0.45,2.87l-0.96-0.18
		l1.29,6.61l0.87,0.15l-0.45,2.87l-6.25-0.99l0.42-2.63l1.05,0.18l-0.21-1.59l-3.08-0.48l-0.78,1.41l1.02,0.15L741.92,638.53z
		 M744.46,629.77l-1.65,3.14l2.12,0.36L744.46,629.77z M734.32,636.8l-6.58-1.76l0.75-2.78l1.02,0.24l1.62-6.1l-1.32-0.36l-0.6,2.15
		l-2.18-0.6l1.35-4.94l11.61,3.11l-1.35,4.94l-2.18-0.6l0.57-2.12l-1.35-0.36l-1.62,6.1l1.02,0.27L734.32,636.8z M717.28,630.76
		l-2.51-1.08l1.53-3.59l2.51,1.08c-0.12,1.11,0.24,1.82,1.08,2.18c0.57,0.24,0.99,0.15,1.2-0.36c0.12-0.24,0.09-0.48-0.06-0.75
		c-0.15-0.27-0.51-0.72-1.11-1.35c-0.72-0.81-1.26-1.44-1.56-1.91c-0.27-0.45-0.45-0.99-0.51-1.59c-0.12-0.6,0-1.2,0.21-1.76
		c0.45-1.05,1.14-1.7,2.06-2c0.9-0.3,1.85-0.24,2.84,0.18c0.96,0.42,1.7,1.05,2.15,1.88l0.27-0.69l2.51,1.08l-1.32,3.17l-2.51-1.05
		c0.09-1.02-0.3-1.67-1.08-2c-0.54-0.24-0.9-0.12-1.11,0.36c-0.09,0.21-0.09,0.42,0.03,0.6c0.09,0.18,0.45,0.63,1.14,1.38
		c0.84,1.02,1.41,1.73,1.67,2.15c0.12,0.18,0.27,0.45,0.36,0.75c0.09,0.3,0.15,0.6,0.21,0.9c0.03,0.66-0.06,1.29-0.3,1.88
		c-0.42,0.93-1.08,1.59-2.06,1.94c-0.96,0.36-1.97,0.3-3.05-0.15c-0.96-0.39-1.73-1.08-2.3-2L717.28,630.76z M713.06,628.54
		l-6.04-3.35l1.41-2.54l0.96,0.54l3.08-5.5l-0.99-0.54l1.41-2.54l6.07,3.35l-1.44,2.54l-0.96-0.54l-3.05,5.5l0.96,0.54
		L713.06,628.54z M699.87,619.9l-5.23-3.98l1.76-2.3l0.72,0.54l3.8-5.05l-0.75-0.57l1.73-2.3l5.26,3.98l-1.73,2.3l-0.78-0.57
		l-3.77,5.05l0.75,0.57L699.87,619.9z M705.91,624.41l-4.99-3.77l1.73-2.33l0.48,0.36l-0.06-4.37l4.19-0.42l-0.78-0.6l1.73-2.3
		l4.79,3.59l-1.76,2.3l-0.75-0.57l-3.35,0.36l0.03,5.08l0.48,0.36L705.91,624.41z M693.17,614.19l-8.17-8.2l2.03-2.03l0.66,0.66
		l4.49-4.46l-0.66-0.69l2.03-2.06l8.2,8.2l-2.75,2.75l-2.24-2.24l0.69-0.69l-1.94-1.94l-1.32,1.32l1.67,1.67l-1.73,1.76l-1.68-1.7
		l-1.41,1.41l1.94,1.94l0.69-0.69l2.24,2.24L693.17,614.19z M679.98,598.57l-3.83-5.71l2.39-1.62l0.57,0.87l5.26-3.53l-0.6-0.87
		l2.42-1.62l4.16,6.13c0.81,1.2,1.35,2.18,1.65,2.93c0.3,0.75,0.36,1.47,0.18,2.12c-0.18,0.66-0.57,1.2-1.14,1.59
		c-0.6,0.39-1.17,0.51-1.73,0.39c-0.57-0.12-1.14-0.39-1.62-0.84c0.27,0.87,0.3,1.62,0.15,2.3c-0.21,0.69-0.6,1.23-1.17,1.62
		c-0.69,0.45-1.38,0.63-2.15,0.51c-0.78-0.12-1.47-0.51-2.12-1.17C681.77,601.02,680.93,599.98,679.98,598.57 M687.22,592.32
		l-1.85,1.26l0.57,0.87c0.42,0.57,0.75,0.9,1.02,0.96c0.3,0.06,0.57,0,0.87-0.18c0.21-0.15,0.39-0.39,0.48-0.66
		c0.06-0.3-0.12-0.78-0.6-1.5L687.22,592.32z M683.54,594.8l-1.97,1.35l0.57,0.87c0.39,0.57,0.75,0.93,1.05,1.05
		c0.3,0.15,0.66,0.12,0.99-0.15c0.36-0.21,0.54-0.51,0.54-0.84c0.03-0.33-0.18-0.78-0.6-1.41L683.54,594.8z M675.37,591.21
		l-5.08-10.86l2.54-1.17l8.58,2.57l-1.29-2.75l-1.38,0.66l-1.14-2.54l3.74-1.76l5,10.68l-2.24,1.05l-9-2.72l1.47,3.17l1.53-0.72
		l1.17,2.57L675.37,591.21z M675.34,564.83l-0.27-0.9l2.75-0.84l1.82,5.92l-2.78,0.87l-0.18-0.57l-3.89,1.2
		c-0.93,0.3-1.56,0.6-1.82,0.87c-0.3,0.27-0.36,0.66-0.21,1.11c0.12,0.39,0.33,0.63,0.66,0.69c0.33,0.12,0.96,0,1.79-0.24l4.22-1.29
		l-0.18-0.57l2.75-0.87l1.32,4.37l-2.75,0.84l-0.3-0.9l-4.19,1.29c-1.08,0.33-2,0.42-2.78,0.33c-0.75-0.12-1.47-0.45-2.06-1.08
		c-0.6-0.6-1.05-1.44-1.38-2.48c-0.27-0.84-0.42-1.65-0.39-2.36c0-0.72,0.12-1.35,0.42-1.85s0.69-0.96,1.23-1.32
		c0.51-0.36,1.35-0.72,2.48-1.08"/>
	<path id="path112382" class="st6" d="M766.03,499.54c-0.66,0.39-1.5,0.63-2.42,0.63c-0.99,0-1.73-0.15-2.36-0.39
		c-0.63-0.24-1.14-0.57-1.59-0.99c-0.51-0.48-0.93-1.11-1.2-1.76c-0.3-0.75-0.45-1.56-0.45-2.21c0-0.78,0.12-1.53,0.39-2.18
		c0.27-0.69,0.63-1.29,1.14-1.85c0.42-0.45,0.96-0.87,1.62-1.14c0.66-0.3,1.41-0.48,2.3-0.48c0.6,0,1.14,0.06,1.62,0.18
		c0.48,0.09,0.87,0.21,1.17,0.36v-0.03c0.12-0.36,0.21-0.36,0.66-0.36c0.24,0,0.36,0.03,0.51,0.15c0.12,0.12,0.15,0.27,0.15,0.48
		c0,0.12,0.06,0.75,0.15,1.38c0.06,0.66,0.12,1.38,0.18,1.59c0.03,0.33-0.06,0.57-0.42,0.66l-0.27,0.06
		c-0.18,0.06-0.33,0.03-0.45-0.09h-0.03c-0.06-0.06-0.12-0.15-0.18-0.27l-0.03-0.06v-0.03c-0.06-0.24-0.18-0.54-0.36-0.84
		c-0.18-0.27-0.39-0.57-0.63-0.81c-0.27-0.27-0.57-0.48-0.9-0.66c-0.33-0.15-0.69-0.24-1.17-0.24h-0.03c-0.81,0-1.41,0.36-1.79,0.96
		c-0.42,0.63-0.6,1.5-0.6,2.42v0.06c0,0.45,0.06,1.2,0.33,1.91c0.18,0.51,0.42,0.99,0.78,1.38c0.39,0.42,0.78,0.63,1.08,0.75
		c0.3,0.12,0.57,0.15,0.75,0.15c0.66,0,1.26-0.15,1.73-0.36c0.51-0.24,0.93-0.57,1.17-0.9c0.21-0.36,0.48-0.51,0.84-0.24v0.03
		l0.21,0.18c0.12,0.09,0.21,0.21,0.21,0.39c0,0.12-0.03,0.24-0.12,0.36C767.55,498.37,766.89,499.06,766.03,499.54 M753.26,491.07
		c0,0.78,0,2,0,2.96v0.21c0.12,0,0.21,0,0.3,0c0.27-0.03,0.45-0.06,0.6-0.06c0.06-0.03,0.09-0.03,0.18-0.09
		c0.06-0.06,0.18-0.15,0.24-0.24v-0.03c0.06-0.03,0.09-0.12,0.12-0.21c0.06-0.09,0.09-0.21,0.12-0.33c0.03-0.12,0.06-0.21,0.15-0.3
		c0.09-0.09,0.21-0.15,0.36-0.15h0.03l0.3,0.03c0.33,0,0.48,0.21,0.48,0.51v0.06c0,0.21,0,1.32,0,1.53c0,0.21,0,0.45,0,0.66
		c0.03,0.3,0.03,0.57,0.06,0.72v0.03c0,0.15-0.06,0.27-0.12,0.36c-0.09,0.09-0.21,0.15-0.3,0.18l-0.3,0.06h-0.03
		c-0.15,0.03-0.3,0-0.42-0.12c-0.09-0.06-0.15-0.15-0.18-0.27v-0.03c0-0.06-0.06-0.18-0.12-0.33c-0.03-0.09-0.06-0.15-0.06-0.21
		c-0.09-0.09-0.15-0.18-0.27-0.24c-0.03-0.06-0.12-0.12-0.18-0.12c-0.18-0.03-0.39-0.06-0.63-0.06c-0.09-0.03-0.18-0.03-0.33-0.03
		v0.09c0,0.66,0,1.35,0,1.94v0.99H754c0.12,0,0.21,0.03,0.33,0.09c0.15,0.09,0.21,0.24,0.21,0.42v0.36c0,0.18-0.03,0.3-0.15,0.39
		c-0.09,0.12-0.21,0.15-0.39,0.15h-0.18c-0.27,0-0.84-0.03-1.91-0.03c-1.02,0-1.53,0.03-1.82,0.03c-0.15,0-0.24,0-0.27,0
		c-0.36,0-0.51-0.12-0.51-0.54v-0.39c0-0.39,0.24-0.48,0.54-0.48h0.48c0-0.27,0-0.9,0.03-1.76c0-0.63,0-1.44,0-2.45v-0.96
		c0-0.54,0-1.5,0-2.09l-0.03-0.57c-0.03,0-0.09,0-0.15,0h-0.57c-0.36,0-0.54-0.18-0.54-0.51v-0.39c0-0.36,0.21-0.51,0.51-0.51h0.21
		c0.27,0,0.84,0.03,2.15,0.03h1.2c1.23-0.03,2.99-0.03,3.29-0.03c0.18,0,0.33-0.03,0.45-0.06c0.12,0,0.21,0,0.24,0
		c0.21,0,0.36,0.09,0.45,0.27c0.06,0.09,0.09,0.18,0.12,0.3l0.51,2.21c0.03,0.12,0.03,0.24,0,0.33c-0.03,0.12-0.12,0.21-0.24,0.27
		l-0.27,0.15l-0.03,0.03c-0.21,0.06-0.33,0.06-0.51-0.09c-0.06-0.03-0.12-0.09-0.18-0.21l-0.03-0.03c-0.18-0.24-0.51-0.63-1.02-1.2
		c-0.12-0.12-0.27-0.24-0.39-0.33c-0.12-0.06-0.24-0.15-0.36-0.18c-0.12-0.03-0.45-0.06-0.78-0.06c-0.36-0.03-0.78-0.03-1.14-0.03
		L753.26,491.07z M763.6,499.75c1.91,0,3.26-1.14,4.04-2.27c0.06-0.09,0.06-0.15,0-0.18l-0.21-0.21c-0.09-0.06-0.15,0-0.21,0.12
		c-0.54,0.75-1.67,1.47-3.26,1.47c-0.48,0-1.26-0.09-2.12-1.02c-0.99-1.05-1.26-2.72-1.26-3.59c0-2.03,0.87-3.89,2.87-3.89
		c1.02,0,1.76,0.48,2.36,1.05c0.57,0.6,0.96,1.29,1.11,1.82c0.03,0.15,0.09,0.21,0.15,0.18l0.3-0.09c0.06-0.03,0.09-0.09,0.06-0.18
		c-0.06-0.42-0.3-2.75-0.3-3.02c0-0.18,0-0.21-0.24-0.21c-0.21,0-0.24,0-0.24,0.09l-0.12,0.33c-0.03,0.09-0.09,0.12-0.3,0.03
		c-0.48-0.27-1.5-0.6-2.78-0.6c-1.67,0-2.84,0.66-3.62,1.5c-0.96,1.02-1.41,2.3-1.41,3.74c0,1.17,0.48,2.75,1.5,3.65
		C760.8,499.24,761.75,499.75,763.6,499.75 M752.84,494.04c0-0.84,0.03-3.59,0.03-3.77c0.6,0,2.06,0.06,2.42,0.15
		c0.33,0.09,0.69,0.33,0.93,0.63c0.57,0.57,0.9,1.02,1.08,1.26c0.09,0.12,0.12,0.15,0.21,0.12l0.24-0.15c0.06,0,0.09-0.03,0.06-0.09
		l-0.54-2.24c-0.03-0.15-0.06-0.24-0.15-0.24c-0.09,0-0.39,0.06-0.69,0.06c-0.66,0-4.31,0.03-4.49,0.03c-1.67,0-2.21-0.03-2.36-0.03
		c-0.03,0-0.06,0.03-0.06,0.09v0.39c0,0.06,0.03,0.09,0.09,0.09h0.57c0.39,0,0.57,0.12,0.57,0.39c0,0.12,0.03,2.06,0.03,2.69v0.96
		c0,2.36-0.06,4.1-0.06,4.37c-0.03,0.21-0.12,0.27-0.39,0.27h-0.48c-0.09,0-0.12,0.03-0.12,0.06v0.39c0,0.09,0.03,0.12,0.09,0.12
		c0.21,0,0.72-0.03,2.09-0.03c1.41,0,1.97,0.03,2.09,0.03c0.09,0,0.12-0.03,0.12-0.12v-0.36c0-0.06-0.06-0.09-0.12-0.09h-0.81
		c-0.21,0-0.33-0.06-0.33-0.42c0-0.21-0.03-2.51-0.03-2.93v-0.51c0.57,0,1.05,0,1.5,0.09c0.24,0.06,0.51,0.33,0.66,0.57
		c0.09,0.12,0.24,0.54,0.27,0.66c0.03,0.06,0.06,0.12,0.09,0.09l0.33-0.06c0.06,0,0.09-0.03,0.09-0.12
		c-0.03-0.27-0.09-0.93-0.09-1.41c0-0.21,0-1.35,0.06-1.59c0-0.06-0.06-0.09-0.09-0.09l-0.33-0.03c-0.03,0-0.09,0.03-0.12,0.12
		c-0.03,0.24-0.15,0.54-0.3,0.72c-0.21,0.3-0.48,0.48-0.69,0.51c-0.27,0.03-0.84,0.06-1.38,0.06"/>
	<path id="path112384" class="st0" d="M763.61,499.75c1.91,0,3.26-1.14,4.04-2.27c0.09-0.09,0.06-0.15,0-0.18l-0.21-0.21
		c-0.09-0.06-0.15,0-0.21,0.12c-0.54,0.75-1.67,1.47-3.26,1.47c-0.48,0-1.26-0.12-2.12-1.02c-0.99-1.05-1.26-2.72-1.26-3.59
		c0-2.03,0.87-3.86,2.87-3.86c1.02,0,1.76,0.45,2.36,1.02c0.57,0.6,0.96,1.29,1.11,1.85c0.03,0.12,0.09,0.15,0.15,0.15l0.3-0.09
		c0.06-0.03,0.09-0.09,0.06-0.18c-0.06-0.42-0.3-2.75-0.3-3.02c0-0.18,0-0.21-0.21-0.21c-0.24,0-0.27,0-0.27,0.09l-0.12,0.33
		c-0.03,0.09-0.09,0.12-0.27,0.03c-0.51-0.27-1.53-0.6-2.78-0.6c-1.7,0-2.87,0.66-3.65,1.5c-0.96,1.02-1.41,2.3-1.41,3.71
		c0,1.2,0.48,2.78,1.5,3.68C760.8,499.24,761.76,499.75,763.61,499.75 M752.84,494.04c0-0.84,0.03-3.59,0.03-3.77
		c0.6,0,2.06,0.06,2.42,0.15c0.33,0.09,0.69,0.33,0.93,0.6c0.57,0.6,0.9,1.05,1.08,1.29c0.09,0.12,0.12,0.15,0.21,0.12l0.24-0.15
		c0.06,0,0.09-0.06,0.06-0.09l-0.54-2.24c-0.03-0.15-0.06-0.24-0.15-0.24c-0.09,0-0.39,0.06-0.69,0.06c-0.66,0-4.31,0.03-4.49,0.03
		c-1.67,0-2.21-0.03-2.36-0.03c-0.03,0-0.06,0.03-0.06,0.09v0.39c0,0.06,0.03,0.09,0.09,0.09h0.57c0.39,0,0.57,0.12,0.57,0.39
		c0,0.15,0.03,2.06,0.03,2.69v0.96c0,2.36-0.06,4.1-0.06,4.37c0,0.21-0.12,0.27-0.39,0.27h-0.48c-0.09,0-0.12,0-0.12,0.09v0.36
		c0,0.09,0.03,0.12,0.09,0.12c0.21,0,0.72-0.03,2.09-0.03c1.41,0,1.97,0.03,2.09,0.03c0.09,0,0.12-0.03,0.12-0.12v-0.36
		c0-0.06-0.06-0.09-0.12-0.09h-0.81c-0.21,0-0.33-0.06-0.33-0.45c0-0.18-0.03-2.48-0.03-2.9v-0.51c0.57,0,1.05,0,1.5,0.09
		c0.24,0.09,0.51,0.33,0.66,0.54c0.09,0.15,0.24,0.57,0.27,0.69c0.03,0.06,0.06,0.12,0.09,0.09l0.33-0.06
		c0.06-0.03,0.09-0.03,0.09-0.12c-0.03-0.27-0.09-0.93-0.09-1.41c0-0.21,0-1.35,0.06-1.59c0-0.06-0.06-0.09-0.09-0.09l-0.33-0.03
		c-0.03,0-0.09,0.06-0.12,0.12c-0.03,0.24-0.15,0.51-0.3,0.72c-0.21,0.3-0.48,0.48-0.69,0.51c-0.27,0.03-0.84,0.06-1.38,0.06"/>
	<path id="path112386" class="st4" d="M668.28,554.33c-2.09-1.17-3.89-2.87-5.14-4.85c-1.17-2.06-1.94-4.4-1.94-6.73
		c-0.09-2.45,0.45-4.79,1.56-6.91c1.05-2,2.6-3.56,4.46-4.76c1.94-1.14,4.22-1.7,6.46-1.67c2.3-0.03,4.61,0.54,6.67,1.7
		c2.03,1.11,3.74,2.78,4.97,4.76c1.32,2.03,2.06,4.37,2.21,6.67c0.24,2.33-0.21,4.61-1.23,6.46c-1.14,2.18-2.75,3.92-4.67,5.17
		c-1.91,1.26-4.13,1.94-6.4,1.97C672.89,556.19,670.56,555.59,668.28,554.33 M676.99,530.38c0.84,0.75,1.73,1.44,2.45,1.85
		c0.6,0.33,1.26,0.6,1.82,0.9c0.63,0.24,1.17,0.36,1.35,0.36c-0.42-0.54-1.32-1.23-2.51-1.88c-0.96-0.54-2.09-0.96-3.02-1.17
		L676.99,530.38z M683.75,541.65c0.15,0.09,0.48,0.06,0.84,0.18c0.72,0.18,1.32,0.3,1.5,0.3c0,0,0.06-0.15,0.12-0.21
		c0.03-0.09,0.18-0.33,0.27-0.57c0.12-0.21,0.27-0.45,0.27-0.45c0.09-0.57-0.03-1.35-0.36-2.12c-0.33-0.9-0.78-1.85-1.35-2.57
		c-0.66-0.93-1.29-1.7-1.76-1.97c-0.39-0.21-1.05-0.36-1.65-0.39c-0.21,0.39-0.3,1.14-0.48,1.85c-0.12,0.24-0.06,0.57-0.15,0.72
		c-0.03,0.06,0.03,0.33,0.3,0.66c0.18,0.18,0.48,0.78,0.81,1.56c0.42,0.84,0.72,1.41,0.81,1.65c0.15,0.69,0.42,1.17,0.66,1.29
		L683.75,541.65z M672.86,532.32c0.3,0.06,0.9-0.12,1.56-0.36c0.78-0.27,1.5-0.69,2.06-0.96c0.03-0.09-0.06-0.33-0.06-0.33
		c-0.06-0.06-0.24-0.27-0.42-0.33c-0.33-0.21-0.9-0.3-1.29-0.33c-0.48-0.06-1.11,0-1.56-0.06c-0.51,0.03-1.14,0.09-1.59,0.12
		c-2.12,0.33-3.86,1.02-4.82,2.06c0.18,0.21,0.48,0.48,0.81,0.66c0,0,0.63-0.03,1.76-0.24c1.76-0.21,3.05-0.3,3.62-0.21
		L672.86,532.32z M665.5,536.51c-0.09,0.15,0.36,0.9,1.17,2.15c0.78,1.23,1.35,1.94,1.59,2.06c0.18,0.09,0.96,0.15,2.27,0.03
		c1.29-0.06,2.15-0.3,2.21-0.45c0.09-0.18,0.42-0.45,0.72-0.93c0.99-1.35,1.85-2.39,2.3-3.05c-0.18-0.48-0.57-1.32-1.14-2.03
		c-0.63-0.75-1.14-1.32-1.47-1.53c-0.15-0.09-1.02-0.06-2.3,0.06c-1.35,0.15-2.48,0.36-2.99,0.54c-0.15,0.12-0.6,0.57-1.14,1.41
		c-0.54,0.81-0.93,1.38-1.08,1.67L665.5,536.51z M673.1,540.61c-0.03,0.06,0.27,0.87,0.84,1.94c0.6,1.26,1.02,2,1.35,2.18
		c0.48,0.27,2.03,0.42,4.46,0.36c0.24,0,0.57,0,0.57,0c0.06,0.03,0.39-0.18,0.69-0.63c0.33-0.42,0.63-0.75,0.78-0.99
		c0,0,0.15-0.12,0.18-0.18c0.27-0.48,0.6-0.9,0.66-1.08c0.15-0.3,0.21-0.57,0.12-0.84c-0.09-0.24-0.15-0.69-0.21-0.93
		c-0.09-0.24-0.3-0.66-0.45-0.93c-0.27-0.54-0.6-1.11-0.78-1.47c-0.3-0.45-0.63-0.84-0.96-0.99c-0.3-0.21-0.93-0.42-1.47-0.54
		c-1.29-0.12-2.15-0.09-2.36,0c-0.3,0.15-0.96,0.78-1.7,1.79c-0.87,1.32-1.5,2.06-1.59,2.24L673.1,540.61z M686.95,541.44
		l-0.39,0.75c0,2.54-0.3,4.49-0.96,5.74l0.39,0.3c0.12-0.24,0.24-0.48,0.33-0.63c0.15-0.3,0.39-0.9,0.54-1.41
		c0.12-0.63,0.18-1.2,0.18-1.41C687.16,544.26,687.13,543.12,686.95,541.44 M661.61,540.97c-0.18,1.53-0.09,3.11,0.33,4.34
		c0.36,1.29,0.9,2.21,1.65,2.6c0,0,0.63-0.24,1.62-0.72c0.96-0.48,1.56-0.84,1.65-0.99c0.12-0.24,0.27-1.08,0.42-2.39
		c0.12-0.84,0.18-1.5,0.3-1.73c0.12-0.63,0.18-1.14,0-1.23c-1.47-2.3-2.36-3.62-2.51-3.68c-0.18-0.09-0.75,0.06-1.5,0.48
		c-0.75,0.48-1.29,0.9-1.38,1.05C662.06,538.93,661.85,539.71,661.61,540.97 M673.01,553.02c0.48,0.27,1.38,0.36,2.42,0.36
		c1.08-0.12,1.94-0.36,2.24-0.57c0.48-0.33,1.2-0.87,1.97-1.56c0.75-0.69,1.35-1.17,1.41-1.32c0.21-0.39,0.12-1.26-0.24-2.33
		c-0.42-1.17-0.69-1.82-0.84-1.91c-0.09-0.03-0.39-0.09-0.78-0.12c-0.09-0.06-0.33,0.03-0.33,0.03c-2.33-0.09-3.68-0.12-3.74-0.15
		c-1.14,1.11-1.91,1.85-2.27,2.15c-0.36,0.3-0.69,0.54-0.78,0.69c-0.18,0.3-0.21,0.78-0.12,1.23l0.03,0.12
		c0.39,2.03,0.78,3.26,1.11,3.44L673.01,553.02z M677.59,553.44l0.18,1.41l0.36,0.12c1.05-0.06,2.42-0.69,3.92-1.76
		c1.5-1.08,2.63-2.27,3.26-3.44c0.09-0.15,0.18-0.6,0.42-1.2l-0.27-0.24c-0.33,0.15-1.14,0.36-2.21,0.81
		c-0.75,0.27-1.26,0.42-1.26,0.42c-1.47,1.79-2.99,3.17-4.37,3.8L677.59,553.44z M664.39,550.27c0.33,0.57,0.93,1.23,1.73,1.85
		c0.87,0.69,1.76,1.41,2.57,1.82c0.48,0.27,1.17,0.27,1.97,0c0.84-0.24,1.41-0.54,1.56-0.84c0.09-0.15,0.06-0.69-0.18-1.41
		c-0.12-0.36-0.27-0.87-0.36-1.32c-0.24-0.93-0.51-1.59-0.66-1.68c-0.18-0.09-0.78-0.33-1.67-0.81c-1.14-0.54-2.09-0.96-2.39-1.14
		c-0.3,0.15-0.93,0.39-1.65,0.81c-0.75,0.39-1.23,0.72-1.32,0.9c-0.15,0.3,0,0.99,0.45,1.85"/>
	<path id="path112388" class="st4" d="M836.71,554.33c-2.06-1.17-3.86-2.87-5.11-4.85c-1.17-2.06-1.94-4.4-1.94-6.73
		c-0.09-2.45,0.42-4.79,1.56-6.91c1.05-2,2.57-3.56,4.46-4.76c1.94-1.14,4.19-1.7,6.43-1.67c2.3-0.03,4.64,0.54,6.7,1.7
		c2,1.11,3.74,2.78,4.97,4.76c1.32,2.03,2.06,4.37,2.21,6.67c0.21,2.33-0.24,4.61-1.23,6.46c-1.14,2.18-2.75,3.92-4.67,5.17
		c-1.91,1.26-4.13,1.94-6.4,1.97C841.34,556.19,838.98,555.59,836.71,554.33 M845.44,530.38c0.84,0.75,1.73,1.44,2.45,1.85
		c0.57,0.33,1.23,0.6,1.82,0.9c0.6,0.24,1.17,0.36,1.35,0.36c-0.42-0.54-1.32-1.23-2.54-1.88c-0.93-0.54-2.06-0.96-2.99-1.17
		L845.44,530.38z M852.17,541.65c0.18,0.09,0.48,0.06,0.87,0.18c0.72,0.18,1.32,0.3,1.5,0.3c0,0,0.06-0.15,0.12-0.21
		c0.03-0.09,0.18-0.33,0.27-0.57c0.12-0.21,0.27-0.45,0.27-0.45c0.09-0.57-0.03-1.35-0.36-2.12c-0.36-0.9-0.78-1.85-1.38-2.57
		c-0.63-0.93-1.26-1.7-1.73-1.97c-0.39-0.21-1.05-0.36-1.65-0.39c-0.21,0.39-0.33,1.14-0.48,1.85c-0.12,0.24-0.06,0.57-0.15,0.72
		c-0.03,0.06,0.03,0.33,0.27,0.66c0.21,0.18,0.51,0.78,0.84,1.56c0.42,0.84,0.72,1.41,0.81,1.65c0.15,0.69,0.42,1.17,0.66,1.29
		L852.17,541.65z M841.32,532.32c0.3,0.06,0.9-0.12,1.56-0.36c0.78-0.27,1.47-0.69,2.06-0.96c0.03-0.09-0.06-0.33-0.06-0.33
		c-0.06-0.06-0.27-0.27-0.42-0.33c-0.33-0.21-0.9-0.3-1.29-0.33c-0.48-0.06-1.14,0-1.56-0.06c-0.51,0.03-1.17,0.09-1.59,0.12
		c-2.15,0.33-3.86,1.02-4.82,2.06c0.18,0.21,0.48,0.48,0.81,0.66c0,0,0.63-0.03,1.76-0.24c1.76-0.21,3.05-0.3,3.62-0.21
		L841.32,532.32z M833.96,536.51c-0.09,0.15,0.36,0.9,1.14,2.15c0.81,1.23,1.38,1.94,1.62,2.06c0.15,0.09,0.96,0.15,2.24,0.03
		c1.29-0.06,2.18-0.3,2.24-0.45c0.09-0.18,0.42-0.45,0.72-0.93c0.99-1.35,1.82-2.39,2.3-3.05c-0.18-0.48-0.57-1.32-1.14-2.03
		c-0.63-0.75-1.14-1.32-1.47-1.53c-0.15-0.09-1.02-0.06-2.3,0.06c-1.35,0.15-2.48,0.36-2.99,0.54c-0.15,0.12-0.6,0.57-1.14,1.41
		c-0.54,0.81-0.93,1.38-1.08,1.67L833.96,536.51z M841.52,540.61c-0.03,0.06,0.3,0.87,0.87,1.94c0.6,1.26,1.02,2,1.35,2.18
		c0.48,0.27,2.03,0.42,4.46,0.36c0.24,0,0.54,0,0.54,0c0.09,0.03,0.39-0.18,0.72-0.63c0.33-0.42,0.63-0.75,0.78-0.99
		c0,0,0.15-0.12,0.18-0.18c0.27-0.48,0.57-0.9,0.63-1.08c0.18-0.3,0.24-0.57,0.15-0.84c-0.09-0.24-0.15-0.69-0.24-0.93
		c-0.06-0.24-0.27-0.66-0.42-0.93c-0.27-0.54-0.6-1.11-0.81-1.47c-0.27-0.45-0.6-0.84-0.93-0.99c-0.3-0.21-0.93-0.42-1.5-0.54
		c-1.29-0.12-2.12-0.09-2.36,0c-0.27,0.15-0.93,0.78-1.67,1.79c-0.87,1.32-1.5,2.06-1.59,2.24L841.52,540.61z M855.4,541.44
		l-0.39,0.75c0,2.54-0.3,4.49-0.96,5.74l0.39,0.3c0.09-0.24,0.24-0.48,0.33-0.63c0.15-0.3,0.36-0.9,0.54-1.41
		c0.12-0.63,0.18-1.2,0.18-1.41C855.61,544.26,855.55,543.12,855.4,541.44 M830.04,540.97c-0.18,1.53-0.06,3.11,0.36,4.34
		c0.36,1.29,0.9,2.21,1.65,2.6c0,0,0.63-0.24,1.62-0.72c0.96-0.48,1.56-0.84,1.65-0.99c0.12-0.24,0.27-1.08,0.42-2.39
		c0.12-0.84,0.15-1.5,0.3-1.73c0.12-0.63,0.18-1.14,0-1.23c-1.47-2.3-2.36-3.62-2.51-3.68c-0.18-0.09-0.78,0.06-1.5,0.48
		c-0.75,0.48-1.29,0.9-1.38,1.05C830.49,538.93,830.31,539.71,830.04,540.97 M841.47,553.02c0.48,0.27,1.38,0.36,2.42,0.36
		c1.08-0.12,1.91-0.36,2.24-0.57c0.48-0.33,1.2-0.87,1.97-1.56c0.75-0.69,1.35-1.17,1.41-1.32c0.21-0.39,0.12-1.26-0.24-2.33
		c-0.42-1.17-0.69-1.82-0.84-1.91c-0.09-0.03-0.39-0.09-0.78-0.12c-0.09-0.06-0.33,0.03-0.33,0.03c-2.36-0.09-3.68-0.12-3.74-0.15
		c-1.14,1.11-1.94,1.85-2.27,2.15c-0.36,0.3-0.69,0.54-0.78,0.69c-0.18,0.3-0.21,0.78-0.15,1.23l0.06,0.12
		c0.39,2.03,0.78,3.26,1.08,3.44L841.47,553.02z M846.01,553.44l0.21,1.41l0.36,0.12c1.05-0.06,2.42-0.69,3.92-1.76
		c1.5-1.08,2.63-2.27,3.26-3.44c0.09-0.15,0.18-0.6,0.42-1.2l-0.3-0.24c-0.3,0.15-1.11,0.36-2.21,0.81
		c-0.75,0.27-1.23,0.42-1.23,0.42c-1.47,1.79-3.02,3.17-4.37,3.8L846.01,553.44z M832.85,550.27c0.33,0.57,0.93,1.23,1.73,1.85
		c0.87,0.69,1.76,1.41,2.57,1.82c0.48,0.27,1.17,0.27,1.94,0c0.87-0.24,1.44-0.54,1.59-0.84c0.09-0.15,0.06-0.69-0.18-1.41
		c-0.12-0.36-0.3-0.87-0.36-1.32c-0.24-0.93-0.54-1.59-0.66-1.68c-0.18-0.09-0.78-0.33-1.67-0.81c-1.14-0.54-2.09-0.96-2.39-1.14
		c-0.3,0.15-0.96,0.39-1.65,0.81c-0.75,0.39-1.26,0.72-1.32,0.9c-0.15,0.3,0,0.99,0.45,1.85"/>
	<path id="path112390" class="st3" d="M826.48,519.25l-3.92-9.18l4.7-1.97l0.57,1.35l10.14-4.31l-0.57-1.38l4.67-1.97l3.89,9.18
		c0.36,0.81,0.66,1.59,0.93,2.3c0.27,0.72,0.48,1.35,0.63,1.88c0.18,0.51,0.27,1.02,0.36,1.5c0.21,1.29-0.03,2.51-0.69,3.65
		c-0.66,1.2-1.68,2.03-3.02,2.6c-0.99,0.45-2.03,0.6-3.02,0.51c-1.02-0.12-1.88-0.45-2.57-1.02l-3.47,4.22l0.51,1.23l-4.67,1.97
		l-2.57-6.1l6.4-7.06l-0.9-2.06l-3.26,1.41l0.51,1.26L826.48,519.25z M841.14,511.5l-3.71,1.56l0.33,0.75
		c0.39,0.96,0.69,1.59,0.9,1.91c0.24,0.33,0.54,0.54,0.96,0.66c0.42,0.15,0.87,0.09,1.38-0.12c0.48-0.21,0.84-0.51,1.02-0.9
		c0.21-0.36,0.27-0.78,0.15-1.2c-0.06-0.39-0.33-1.08-0.75-2.06L841.14,511.5z M815.11,485.39c1.32-1.2,2.84-2.06,4.55-2.63
		c1.73-0.54,3.53-0.63,5.41-0.21c0.66,0.15,1.26,0.36,1.85,0.63c0.54,0.3,1.11,0.63,1.65,1.08c0.57,0.42,1.11,0.9,1.59,1.47
		c2.21,2.45,3.11,5.08,2.66,7.9c-0.24,1.41-0.66,2.72-1.29,3.92c-0.66,1.17-1.53,2.27-2.57,3.23c-2.18,1.97-4.73,2.99-7.6,3.05
		c-2.87,0.09-5.38-1.05-7.51-3.41c-2.03-2.27-2.96-4.82-2.69-7.6C811.37,490,812.72,487.54,815.11,485.39 M820.44,491.28
		c-1.76,1.59-2.78,2.81-3.14,3.65c-0.36,0.84-0.27,1.56,0.27,2.15c0.51,0.6,1.23,0.78,2.09,0.54c0.87-0.27,2.18-1.2,3.95-2.78
		c1.73-1.56,2.81-2.78,3.17-3.62c0.36-0.84,0.27-1.56-0.3-2.18c-0.51-0.6-1.23-0.75-2.09-0.51
		C823.55,488.77,822.2,489.7,820.44,491.28 M796.54,484.97l-8.23-5.56l2.84-4.22l1.17,0.78l6.16-9.15l-1.2-0.81l2.84-4.19l8.29,5.56
		l-2.84,4.22l-1.23-0.81l-6.16,9.15l1.2,0.81L796.54,484.97z M806.02,491.34l-7.9-5.29l2.84-4.22l0.75,0.48l0.03-7.24l6.67-1.56
		l-1.26-0.81l2.87-4.22l7.48,5.05l-2.84,4.22l-1.17-0.81l-5.35,1.23l-0.03,8.43l0.75,0.51L806.02,491.34z M774.17,476.24l-7.12-1.53
		l1.05-4.97l1.38,0.3l5.65-10.08l-1.44-0.3l1.08-4.97l12.89,2.72l-1.08,4.97l-1.44-0.3l1.14,11.55l1.32,0.27l-1.05,4.97l-9.36-2
		l0.96-4.55l1.59,0.33l-0.15-2.75l-4.58-0.96l-1.35,2.42l1.47,0.33L774.17,476.24z M779.13,461.13l-2.9,5.35l3.2,0.69L779.13,461.13
		z M763.13,474.35h-10.29v-5.08h1.59v-11.04h-2.12v3.86h-3.41v-8.94h18.19v8.94h-3.47v-3.86h-2.06v11.04h1.59V474.35z
		 M735.46,478.21l-9.27,2.66l-1.38-4.88l1.32-0.39l-3.05-10.62l-1.38,0.39l-1.38-4.88l9.3-2.66l1.41,4.88l-1.14,0.33l0.9,3.08
		l4.07-1.17l-0.9-3.08l-1.14,0.33l-1.38-4.88l9.3-2.69l1.38,4.91l-1.32,0.36l3.02,10.62l1.35-0.39l1.38,4.88l-9.27,2.69l-1.41-4.91
		l1.14-0.33l-0.96-3.32l-4.07,1.17l0.96,3.35l1.14-0.33L735.46,478.21z M715.48,488.5l-7.96,5.98l-3.05-4.04l1.14-0.84l-6.64-8.82
		l-1.14,0.87l-3.08-4.07l7.99-6.01l3.05,4.07l-1.17,0.87l6.64,8.82l1.17-0.87L715.48,488.5z M724.57,481.65l-7.57,5.71l-3.05-4.07
		l0.69-0.54l-6.82-2.39l0.72-6.79l-1.2,0.9l-3.05-4.07l7.21-5.41l3.05,4.04l-1.14,0.87l-0.57,5.44l7.96,2.81l0.72-0.57
		L724.57,481.65z M698.25,505.49l-4.49,5.74l-3.98-3.14l0.87-1.11l-6.61-9.48l-0.9,1.14l-3.98-3.11l8.11-10.38l3.98,3.11l-0.9,1.17
		l10.89,4.04l0.81-1.08l3.98,3.11l-5.89,7.57l-3.65-2.87l0.99-1.26l-2.51-1.08l-2.9,3.68l1.59,2.27l0.93-1.17L698.25,505.49z
		 M686.86,494.39l3.56,4.97l2.03-2.57L686.86,494.39z M690.54,519.46l-4.01,9.93l-4.73-1.88l0.69-1.67l-10.26-4.13l-0.66,1.65
		l-4.7-1.88l4.22-10.44c0.96-2.39,1.94-4.04,2.93-4.94c0.99-0.9,2.06-1.41,3.23-1.56c1.14-0.12,2.27,0.03,3.41,0.48
		c1.38,0.57,2.39,1.32,3.05,2.3c0.66,1.02,1.02,2.09,1.02,3.29c0,1.17-0.42,2.78-1.26,4.88l-1.08,2.66l2.75,1.11l0.69-1.7
		L690.54,519.46z M674.5,514.97l3.71,1.47l0.51-1.29c0.36-0.87,0.51-1.59,0.42-2.09c-0.09-0.48-0.48-0.87-1.2-1.17
		c-0.45-0.18-0.9-0.24-1.29-0.15c-0.42,0.09-0.72,0.27-0.93,0.57c-0.21,0.3-0.48,0.84-0.81,1.62"/>
	<path id="path112392" class="st3" d="M847.75,569.86l-1.53,6.64l-2.84-0.66l0.27-1.02l-6.16-1.44l-0.33,1.38l2.15,0.51l-0.51,2.21
		l-5-1.17l2.72-11.69l4.97,1.14l-0.51,2.21l-2.12-0.48l-0.33,1.35l6.13,1.41l0.27-1.05L847.75,569.86z M841.43,589.06l-1.94,4.58
		l-2.66-1.14l0.39-0.96l-5.8-2.48l-0.42,0.99l-2.66-1.14l2.24-5.29l7.54-1.59l-3.17-1.35l-0.36,0.9l-2.69-1.14l1.91-4.49l2.69,1.14
		l-0.45,0.96l8.64,3.68l-1.53,3.68l-8.76,1.82l3.92,1.68l0.42-0.99L841.43,589.06z M838.41,595.58l-6.31,9.72l-2.45-1.59l0.51-0.81
		l-5.29-3.44l-0.51,0.81l-2.45-1.59l6.31-9.72l3.26,2.12l-1.7,2.66l-0.84-0.54l-1.5,2.33l1.56,1.02l1.32-2.03l2.06,1.35l-1.29,2
		l1.65,1.11l1.53-2.33l-0.84-0.51l1.73-2.69L838.41,595.58z M825.67,612.87l-4.67,4.67l-2.03-2.06l0.63-0.66l-4.46-4.46l-0.66,0.66
		l-2.06-2.03l4.67-4.67l2.03,2.03l-0.66,0.69l4.46,4.46l0.69-0.66L825.67,612.87z M831,607.55l-4.43,4.43l-2.06-2.03l0.39-0.42
		l-4.31-0.57l0.15-4.22l-0.69,0.72l-2.03-2.06l4.19-4.22l2.06,2.06l-0.66,0.66l-0.12,3.38l5.02,0.66l0.42-0.45L831,607.55z
		 M812.72,624.03l-5.38,3.47l-1.59-2.42l0.78-0.51l-3.44-5.29l-0.78,0.51l-1.59-2.45l5.35-3.47l1.59,2.42l-0.66,0.42l1.02,1.56
		l2.36-1.53l-0.99-1.56l-0.66,0.42l-1.59-2.42l5.35-3.47l1.59,2.42l-0.78,0.51l3.44,5.29l0.78-0.51l1.59,2.45l-5.38,3.47l-1.59-2.42
		l0.66-0.45l-1.05-1.67l-2.36,1.56l1.08,1.65l0.66-0.42L812.72,624.03z M799.5,631.56l-2.45,1.2l-1.7-3.5l2.45-1.2
		c0.75,0.81,1.56,1.02,2.36,0.63c0.57-0.3,0.75-0.69,0.51-1.14c-0.09-0.24-0.3-0.39-0.57-0.48c-0.33-0.06-0.9-0.09-1.76-0.06
		c-1.08,0.03-1.91,0-2.48-0.06c-0.51-0.09-1.02-0.3-1.53-0.63c-0.51-0.33-0.9-0.78-1.17-1.35c-0.51-1.02-0.57-1.97-0.18-2.84
		c0.36-0.9,1.05-1.59,2-2.06c0.96-0.45,1.91-0.57,2.81-0.36l-0.33-0.66l2.48-1.23l1.5,3.11l-2.42,1.2c-0.72-0.72-1.44-0.9-2.21-0.51
		c-0.51,0.24-0.69,0.6-0.48,1.08c0.12,0.21,0.3,0.33,0.48,0.36c0.21,0.06,0.81,0.09,1.79,0.09c1.35,0,2.21,0.03,2.72,0.12
		c0.24,0.03,0.51,0.09,0.81,0.21c0.27,0.15,0.57,0.3,0.78,0.45c0.57,0.39,0.96,0.87,1.26,1.47c0.45,0.9,0.48,1.85,0.12,2.81
		c-0.36,0.96-1.08,1.7-2.09,2.21c-0.96,0.48-2,0.6-3.02,0.42L799.5,631.56z M787.72,635.84l-4.67,1.14l-0.72-2.81l0.9-0.21l0.66-6.7
		l-0.93,0.24l-0.69-2.81l8.46-2.12l0.69,2.84l-0.96,0.24l3.77,5.56l0.87-0.21l0.72,2.81l-6.16,1.53l-0.63-2.57l1.05-0.27l-0.81-1.38
		l-3.02,0.75l-0.15,1.62l0.96-0.24L787.72,635.84z M786.61,626.78l-0.3,3.53l2.09-0.54L786.61,626.78z M780.09,637.96l-6.73,0.93
		l-0.42-2.87l1.05-0.15l-0.9-6.25l-1.38,0.21l0.33,2.18l-2.27,0.3l-0.72-5.05l11.9-1.67l0.72,5.05l-2.27,0.33l-0.3-2.18l-1.35,0.18
		l0.87,6.28l1.08-0.18L780.09,637.96z M756.37,640.06l-5,0.18l-0.09-2.9l1.05-0.03l-0.21-6.31l-1.08,0.03l-0.06-2.9l5.74-0.21
		l4.61,6.16l-0.12-3.41l-0.99,0.03l-0.12-2.9l4.94-0.18l0.06,2.9l-1.02,0.03l0.33,9.39l-4.01,0.15l-5.38-7.15l0.15,4.25l1.11-0.03
		L756.37,640.06z M741.92,638.53l-4.76-0.75l0.45-2.87l0.93,0.15l3.23-5.89l-0.96-0.15l0.45-2.87l8.61,1.38l-0.45,2.87l-0.96-0.18
		l1.29,6.61l0.87,0.15l-0.45,2.87l-6.25-0.99l0.42-2.63l1.05,0.18l-0.21-1.59l-3.08-0.48l-0.78,1.41l1.02,0.15L741.92,638.53z
		 M744.46,629.77l-1.65,3.14l2.12,0.36L744.46,629.77z M734.32,636.8l-6.58-1.76l0.75-2.78l1.02,0.24l1.62-6.1l-1.32-0.36l-0.6,2.15
		l-2.18-0.6l1.35-4.94l11.61,3.11l-1.35,4.94l-2.18-0.6l0.57-2.12l-1.35-0.36l-1.62,6.1l1.02,0.27L734.32,636.8z M717.28,630.76
		l-2.51-1.08l1.53-3.59l2.51,1.08c-0.12,1.11,0.24,1.82,1.08,2.18c0.57,0.24,0.99,0.15,1.2-0.36c0.12-0.24,0.09-0.48-0.06-0.75
		c-0.15-0.27-0.51-0.72-1.11-1.35c-0.72-0.81-1.26-1.44-1.56-1.91c-0.27-0.45-0.45-0.99-0.51-1.59c-0.12-0.6,0-1.2,0.21-1.76
		c0.45-1.05,1.14-1.7,2.06-2c0.9-0.3,1.85-0.24,2.84,0.18c0.96,0.42,1.7,1.05,2.15,1.88l0.27-0.69l2.51,1.08l-1.32,3.17l-2.51-1.05
		c0.09-1.02-0.3-1.67-1.08-2c-0.54-0.24-0.9-0.12-1.11,0.36c-0.09,0.21-0.09,0.42,0.03,0.6c0.09,0.18,0.45,0.63,1.14,1.38
		c0.84,1.02,1.41,1.73,1.67,2.15c0.12,0.18,0.27,0.45,0.36,0.75c0.09,0.3,0.15,0.6,0.21,0.9c0.03,0.66-0.06,1.29-0.3,1.88
		c-0.42,0.93-1.08,1.59-2.06,1.94c-0.96,0.36-1.97,0.3-3.05-0.15c-0.96-0.39-1.73-1.08-2.3-2L717.28,630.76z M713.06,628.54
		l-6.04-3.35l1.41-2.54l0.96,0.54l3.08-5.5l-0.99-0.54l1.41-2.54l6.07,3.35l-1.44,2.54l-0.96-0.54l-3.05,5.5l0.96,0.54
		L713.06,628.54z M699.87,619.9l-5.23-3.98l1.76-2.3l0.72,0.54l3.8-5.05l-0.75-0.57l1.73-2.3l5.26,3.98l-1.73,2.3l-0.78-0.57
		l-3.77,5.05l0.75,0.57L699.87,619.9z M705.91,624.41l-4.99-3.77l1.73-2.33l0.48,0.36l-0.06-4.37l4.19-0.42l-0.78-0.6l1.73-2.3
		l4.79,3.59l-1.76,2.3l-0.75-0.57l-3.35,0.36l0.03,5.08l0.48,0.36L705.91,624.41z M693.17,614.19l-8.17-8.2l2.03-2.03l0.66,0.66
		l4.49-4.46l-0.66-0.69l2.03-2.06l8.2,8.2l-2.75,2.75l-2.24-2.24l0.69-0.69l-1.94-1.94l-1.32,1.32l1.67,1.67l-1.73,1.76l-1.68-1.7
		l-1.41,1.41l1.94,1.94l0.69-0.69l2.24,2.24L693.17,614.19z M679.98,598.57l-3.83-5.71l2.39-1.62l0.57,0.87l5.26-3.53l-0.6-0.87
		l2.42-1.62l4.16,6.13c0.81,1.2,1.35,2.18,1.65,2.93c0.3,0.75,0.36,1.47,0.18,2.12c-0.18,0.66-0.57,1.2-1.14,1.59
		c-0.6,0.39-1.17,0.51-1.73,0.39c-0.57-0.12-1.14-0.39-1.62-0.84c0.27,0.87,0.3,1.62,0.15,2.3c-0.21,0.69-0.6,1.23-1.17,1.62
		c-0.69,0.45-1.38,0.63-2.15,0.51c-0.78-0.12-1.47-0.51-2.12-1.17C681.77,601.02,680.93,599.98,679.98,598.57 M687.22,592.32
		l-1.85,1.26l0.57,0.87c0.42,0.57,0.75,0.9,1.02,0.96c0.3,0.06,0.57,0,0.87-0.18c0.21-0.15,0.39-0.39,0.48-0.66
		c0.06-0.3-0.12-0.78-0.6-1.5L687.22,592.32z M683.54,594.8l-1.97,1.35l0.57,0.87c0.39,0.57,0.75,0.93,1.05,1.05
		c0.3,0.15,0.66,0.12,0.99-0.15c0.36-0.21,0.54-0.51,0.54-0.84c0.03-0.33-0.18-0.78-0.6-1.41L683.54,594.8z M675.37,591.21
		l-5.08-10.86l2.54-1.17l8.58,2.57l-1.29-2.75l-1.38,0.66l-1.14-2.54l3.74-1.76l5,10.68l-2.24,1.05l-9-2.72l1.47,3.17l1.53-0.72
		l1.17,2.57L675.37,591.21z M675.34,564.83l-0.27-0.9l2.75-0.84l1.82,5.92l-2.78,0.87l-0.18-0.57l-3.89,1.2
		c-0.93,0.3-1.56,0.6-1.82,0.87c-0.3,0.27-0.36,0.66-0.21,1.11c0.12,0.39,0.33,0.63,0.66,0.69c0.33,0.12,0.96,0,1.79-0.24l4.22-1.29
		l-0.18-0.57l2.75-0.87l1.32,4.37l-2.75,0.84l-0.3-0.9l-4.19,1.29c-1.08,0.33-2,0.42-2.78,0.33c-0.75-0.12-1.47-0.45-2.06-1.08
		c-0.6-0.6-1.05-1.44-1.38-2.48c-0.27-0.84-0.42-1.65-0.39-2.36c0-0.72,0.12-1.35,0.42-1.85s0.69-0.96,1.23-1.32
		c0.51-0.36,1.35-0.72,2.48-1.08"/>
	<path id="path112394" class="st7" d="M706.18,569.32c6.61-3.71,43.22-1.44,48.84,7.39c-0.3-10.95,1.65-19.26,5.17-25.72
		c-0.36,12.44,5.65,15.34,4.64,25.51c3.41-7.06,39.51-11.55,48.54-8.55c-9.12,2.99-19.71,20.55-41.79,26.35
		c-4.19,0.63-8.17,0.09-11.99-1.56c-5.59,1.59-11.01,2.09-16.27,1.11c-16.93-1.91-25.24-22.55-36.91-24.5
		C706.36,569.35,706.27,569.32,706.18,569.32"/>
	<path id="path112396" class="st3" d="M834.47,472.08c-19.5-19.5-46.42-31.59-76.06-31.59c-29.64,0-56.56,12.08-76.06,31.59
		c-19.5,19.5-31.59,46.42-31.59,76.06c0,29.64,12.08,56.56,31.59,76.06c19.5,19.5,46.42,31.59,76.06,31.59
		c29.64,0,56.56-12.08,76.06-31.59c19.5-19.5,31.59-46.42,31.59-76.06S853.97,491.58,834.47,472.08 M653.96,548.14
		c0-57.52,46.93-104.42,104.45-104.42c57.52,0,104.45,46.9,104.45,104.42c0,57.55-46.93,104.45-104.45,104.45
		C700.88,652.59,653.96,605.69,653.96,548.14"/>
	<path id="path112400" class="st3" d="M762.11,607.4h-7.42v3.8c2.3,0.18,4.79,0.18,7.42-0.06V607.4z M754.69,593.85v3.35l7.42-0.03
		v-3.5c-0.87-0.27-1.67-0.57-2.54-0.93C757.92,593.22,756.31,593.58,754.69,593.85 M794.39,582.48v17.47
		c2.63-1.94,5.11-3.98,7.42-6.07v-17.65C799.53,578.2,797.11,580.36,794.39,582.48 M801.8,530.52v-28.12
		c-2.33-2.18-4.85-4.16-7.42-6.01v31.14C797.02,528.1,799.53,529.12,801.8,530.52 M754.69,488.74l7.42,0.06v-3.65
		c-1.65-0.15-5.56-0.12-7.42-0.03V488.74z M714.91,502.41v28.83c2.27-1.35,4.79-2.33,7.45-2.9V496.4
		C719.76,498.25,717.28,500.23,714.91,502.41 M762.11,501.96v-1.17c-1.65-0.15-5.56-0.12-7.42-0.03v1.47
		c1.47-0.3,2.99-0.45,4.52-0.45C760.2,501.78,761.18,501.84,762.11,501.96 M722.36,581.07c-1.85-1.88-3.68-3.74-5.47-5.41
		c-0.66-0.63-1.29-1.2-1.97-1.76v19.98c2.3,2.09,4.79,4.13,7.45,6.07"/>
	<path id="path112402" class="st8" d="M737.59,599.32h5.44v6.67h-2.84v-5.68h-2.6V599.32z M751.16,599.41
		c0.66-0.15,1.41-0.21,2.24-0.21c0.72,0,1.41,0.06,2.03,0.18c0.63,0.12,1.2,0.27,1.67,0.51c0.51,0.21,0.9,0.45,1.14,0.72
		c0.27,0.3,0.42,0.57,0.42,0.87c0,0.33-0.15,0.66-0.45,0.99c-0.3,0.36-0.84,0.78-1.65,1.35l-3.29,2.18h-3.05l3.38-2.27
		c-0.24,0.03-0.48,0.06-0.66,0.06c-0.15,0-0.33,0.03-0.48,0.03c-1.2,0-2.27-0.24-3.11-0.66c-0.87-0.45-1.29-0.99-1.29-1.62
		c0-0.24,0.12-0.51,0.36-0.78c0.21-0.27,0.54-0.51,0.93-0.72C749.91,599.74,750.54,599.53,751.16,599.41 M751.1,599.11
		c-0.36,0.06-0.69,0.15-0.99,0.27c-0.3,0.09-0.6,0.24-0.87,0.39c-0.24,0.12-0.45,0.24-0.6,0.36c-0.18,0.15-0.33,0.27-0.45,0.42
		c-0.12,0.18-0.21,0.33-0.3,0.48c-0.09,0.18-0.12,0.33-0.12,0.51c0,0.39,0.15,0.75,0.39,1.05c0.24,0.33,0.6,0.6,1.08,0.84
		c0.45,0.21,0.96,0.39,1.47,0.51c0.57,0.12,1.14,0.18,1.76,0.18h0.09l-2.51,1.65l-0.81,0.54h4.16l0.06-0.03l3.26-2.21
		c0.42-0.27,0.78-0.54,1.05-0.75c0.3-0.24,0.54-0.45,0.69-0.63c0.18-0.21,0.3-0.39,0.36-0.57c0.12-0.21,0.15-0.42,0.15-0.63
		c0-0.18-0.03-0.39-0.15-0.57c-0.06-0.15-0.18-0.33-0.33-0.48c-0.15-0.18-0.33-0.33-0.54-0.45c-0.21-0.15-0.42-0.27-0.72-0.36
		c-0.24-0.12-0.51-0.24-0.81-0.33c-0.3-0.06-0.63-0.15-0.96-0.21c-0.3-0.06-0.66-0.09-0.99-0.12c-0.36-0.03-0.72-0.06-1.08-0.06
		c-0.45,0-0.84,0.03-1.23,0.06C751.79,598.99,751.44,599.05,751.1,599.11 M751.79,601c0.18-0.09,0.42-0.18,0.69-0.24
		c0.3-0.03,0.6-0.06,0.93-0.06c0.33,0,0.6,0.03,0.87,0.06c0.24,0.06,0.51,0.15,0.72,0.24c0.18,0.12,0.36,0.21,0.45,0.33
		c0.06,0.09,0.09,0.18,0.09,0.27c0,0.09-0.03,0.15-0.09,0.24c-0.09,0.09-0.24,0.18-0.45,0.27c-0.21,0.12-0.48,0.18-0.75,0.24
		c-0.24,0.03-0.54,0.09-0.87,0.09c-0.36,0-0.66-0.06-0.93-0.09c-0.27-0.06-0.48-0.12-0.69-0.21c-0.21-0.12-0.33-0.21-0.42-0.3
		c-0.06-0.09-0.09-0.18-0.09-0.27c0-0.09,0.03-0.21,0.09-0.27C751.46,601.18,751.58,601.09,751.79,601 M753.41,600.4
		c-0.72,0-1.29,0.12-1.76,0.33c-0.48,0.21-0.69,0.51-0.69,0.84c0,0.33,0.21,0.6,0.69,0.81c0.45,0.24,1.02,0.33,1.73,0.33
		c0.66,0,1.26-0.09,1.73-0.33c0.51-0.21,0.72-0.48,0.72-0.78c0-0.33-0.21-0.63-0.69-0.87C754.66,600.52,754.07,600.4,753.41,600.4
		 M762.32,599.32h7.06v1.17h-5.14l-0.48,1.14c0.33-0.09,0.66-0.15,0.99-0.18c0.33-0.03,0.69-0.06,1.08-0.06
		c1.38,0,2.57,0.24,3.53,0.69c0.96,0.45,1.44,1.02,1.44,1.68c0,0.27-0.09,0.57-0.33,0.84c-0.24,0.27-0.57,0.51-0.99,0.72
		c-0.54,0.27-1.14,0.48-1.82,0.63c-0.69,0.15-1.41,0.21-2.18,0.21c-1.41,0-2.63-0.21-3.59-0.63c-0.99-0.39-1.56-0.93-1.65-1.59h2.78
		c0.12,0.3,0.36,0.54,0.81,0.72c0.45,0.18,0.99,0.27,1.62,0.27c0.69,0,1.26-0.09,1.7-0.33c0.48-0.21,0.69-0.51,0.69-0.87
		c0-0.33-0.21-0.63-0.69-0.84c-0.48-0.21-1.08-0.3-1.79-0.3c-0.48,0-0.87,0.03-1.2,0.12c-0.33,0.06-0.57,0.18-0.78,0.36l-2.48-0.27
		L762.32,599.32z M762.02,599.2l-1.44,3.47l-0.15,0.39l0.42,0.03l2.48,0.27h0.12l0.12-0.09c0.06-0.06,0.15-0.12,0.24-0.15
		c0.12-0.06,0.27-0.12,0.42-0.15c0.15-0.03,0.33-0.06,0.48-0.06c0.18-0.03,0.39-0.03,0.63-0.03c0.36,0,0.66,0,0.96,0.06
		c0.27,0.06,0.51,0.12,0.72,0.21c0.18,0.09,0.33,0.18,0.42,0.3c0.06,0.09,0.09,0.18,0.09,0.27c0,0.12-0.03,0.21-0.09,0.3
		c-0.12,0.12-0.24,0.21-0.45,0.3c-0.18,0.12-0.42,0.18-0.66,0.24c-0.27,0.06-0.57,0.06-0.9,0.06c-0.3,0-0.57,0-0.84-0.06
		c-0.24-0.03-0.48-0.09-0.66-0.18s-0.33-0.18-0.45-0.27c-0.09-0.09-0.15-0.18-0.18-0.27l-0.03-0.21h-3.44l0.09,0.36
		c0.06,0.39,0.24,0.72,0.57,1.05c0.3,0.3,0.72,0.54,1.23,0.75c0.51,0.24,1.11,0.39,1.73,0.51c0.6,0.09,1.29,0.15,2,0.15
		c0.39,0,0.78-0.03,1.17-0.06c0.36-0.03,0.75-0.09,1.11-0.15c0.33-0.09,0.66-0.18,0.99-0.27c0.3-0.12,0.6-0.24,0.9-0.39
		c0.21-0.12,0.42-0.24,0.6-0.39c0.18-0.12,0.36-0.27,0.48-0.42c0.12-0.15,0.24-0.33,0.3-0.48c0.09-0.18,0.12-0.36,0.12-0.54
		c0-0.42-0.15-0.78-0.45-1.11c-0.27-0.3-0.66-0.6-1.2-0.84c-0.48-0.24-1.08-0.42-1.67-0.54c-0.63-0.12-1.29-0.18-1.97-0.18
		c-0.18,0-0.39,0-0.57,0c-0.21,0.03-0.36,0.06-0.54,0.06c-0.15,0.03-0.3,0.06-0.45,0.06l0.15-0.42h5.26v-1.76h-7.57L762.02,599.2z
		 M775.78,603.51c0.12-0.09,0.27-0.21,0.45-0.3c0.24-0.09,0.48-0.15,0.75-0.21c0.3-0.06,0.57-0.09,0.9-0.09
		c0.36,0,0.63,0.03,0.9,0.09c0.27,0.06,0.48,0.12,0.69,0.21c0.21,0.09,0.33,0.18,0.42,0.3c0.06,0.06,0.12,0.15,0.12,0.27
		c0,0.09-0.06,0.18-0.12,0.27c-0.09,0.12-0.21,0.21-0.42,0.3c-0.21,0.09-0.42,0.15-0.69,0.21c-0.3,0.06-0.6,0.06-0.96,0.06
		c-0.3,0-0.6,0-0.84-0.06c-0.27-0.06-0.54-0.15-0.75-0.24c-0.18-0.09-0.33-0.21-0.45-0.3c-0.03-0.09-0.09-0.18-0.09-0.27
		C775.69,603.66,775.72,603.57,775.78,603.51 M777.87,602.61c-0.69,0-1.26,0.12-1.76,0.33c-0.48,0.24-0.72,0.48-0.72,0.81
		c0,0.33,0.24,0.6,0.72,0.84c0.48,0.24,1.08,0.33,1.7,0.33c0.75,0,1.32-0.09,1.76-0.3c0.48-0.21,0.69-0.51,0.69-0.84
		c0-0.33-0.21-0.63-0.66-0.84C779.13,602.73,778.59,602.61,777.87,602.61 M774.67,601.54l3.29-2.21h3.05l-3.41,2.27
		c0.24,0,0.48-0.03,0.66-0.03c0.18-0.03,0.33-0.03,0.48-0.03c1.23,0,2.27,0.21,3.11,0.66c0.87,0.42,1.29,0.96,1.29,1.59
		c0,0.27-0.09,0.54-0.33,0.81c-0.24,0.27-0.54,0.51-0.96,0.72c-0.54,0.27-1.14,0.48-1.76,0.63c-0.66,0.12-1.38,0.18-2.27,0.18
		c-0.69,0-1.38-0.06-2.03-0.15c-0.63-0.12-1.17-0.3-1.68-0.51c-0.48-0.24-0.87-0.48-1.14-0.75c-0.27-0.27-0.42-0.57-0.42-0.84
		c0-0.33,0.15-0.66,0.45-1.02C773.3,602.52,773.84,602.07,774.67,601.54 M777.78,599.08l-3.29,2.21c-0.39,0.27-0.78,0.54-1.05,0.75
		c-0.27,0.24-0.54,0.45-0.69,0.63c-0.15,0.18-0.27,0.39-0.36,0.57c-0.09,0.21-0.15,0.42-0.15,0.63c0,0.18,0.06,0.36,0.15,0.54
		c0.09,0.18,0.18,0.33,0.33,0.51c0.15,0.15,0.33,0.3,0.57,0.42c0.21,0.15,0.42,0.27,0.69,0.39c0.27,0.12,0.54,0.21,0.81,0.3
		c0.3,0.09,0.63,0.15,0.96,0.21c0.33,0.06,0.66,0.12,1.02,0.15c0.36,0.03,0.72,0.03,1.05,0.03c0.45,0,0.87,0,1.26-0.03
		c0.36-0.03,0.75-0.09,1.08-0.18c0.36-0.06,0.66-0.15,0.99-0.24c0.3-0.12,0.57-0.24,0.87-0.39c0.21-0.12,0.42-0.24,0.57-0.36
		c0.18-0.15,0.33-0.3,0.48-0.45c0.12-0.15,0.21-0.3,0.3-0.48c0.06-0.15,0.09-0.33,0.09-0.51c0-0.36-0.12-0.72-0.36-1.05
		c-0.27-0.3-0.63-0.57-1.08-0.81c-0.45-0.24-0.96-0.39-1.5-0.51c-0.54-0.12-1.14-0.18-1.76-0.18h-0.06l2.48-1.67l0.81-0.54h-4.13
		L777.78,599.08z M743.03,599.02h-5.74v1.59h2.6v5.68h3.44v-7.27"/>
	<path id="path112404" class="st8" d="M806.02,567.02c3.32-5.62,5.92-9.3,5.92-16.15c0-6.22-2.54-11.87-6.61-15.94
		c-4.1-4.1-9.75-6.64-15.97-6.64c-1.14,0-2.21,0.09-3.29,0.24c-1.11,0.18-2.18,0.42-3.23,0.72l-0.93,0.3l0.12-0.99
		c0.06-0.42,0.09-0.84,0.09-1.26c0.03-0.39,0.03-0.84,0.03-1.29c0-6.31-2.57-12.05-6.73-16.21c-4.16-4.16-9.9-6.73-16.21-6.73
		s-12.05,2.57-16.21,6.73c-4.16,4.16-6.76,9.9-6.76,16.21c0,0.75,0.06,1.47,0.12,2.15c0.06,0.72,0.15,1.41,0.3,2.12l0.21,1.17
		l-1.11-0.45c-1.35-0.6-2.78-1.08-4.28-1.38c-1.44-0.3-2.96-0.45-4.49-0.45c-6.1,0-11.64,2.48-15.64,6.49
		c-4.04,4.01-6.49,9.54-6.49,15.64c0,2.99,0.57,5.83,1.65,8.4c1.11,2.72,2.75,5.14,4.79,7.18l0.18,0.21v0.9h-0.03l-0.39,0.06h-0.24
		v0.03c-0.15,0-0.33,0.03-0.45,0.06h-0.18v-0.54c-2.03-2.12-3.68-4.64-4.85-7.39c-1.14-2.75-1.76-5.77-1.76-8.91
		c0-6.46,2.63-12.29,6.88-16.54c4.22-4.25,10.08-6.88,16.54-6.88c1.62,0,3.2,0.18,4.73,0.48c1.23,0.24,2.39,0.6,3.5,1.02
		c-0.03-0.36-0.09-0.72-0.15-1.11c-0.06-0.75-0.09-1.53-0.09-2.27c0-6.67,2.72-12.71,7.09-17.11c4.43-4.4,10.47-7.12,17.14-7.12
		c6.67,0,12.71,2.72,17.14,7.12c4.37,4.4,7.09,10.44,7.09,17.11c0,0.45-0.03,0.9-0.03,1.38c0,0.12,0,0.24-0.03,0.39
		c0.81-0.21,1.65-0.39,2.51-0.51c1.14-0.18,2.3-0.27,3.47-0.27c6.58,0,12.53,2.69,16.87,7c4.31,4.34,7,10.32,7,16.87
		c0,6.91-2.51,10.53-5.89,16.18C806.92,567.05,806.47,567.02,806.02,567.02"/>
</g>
</svg>
