<?xml version="1.0" encoding="utf-8"?>
<!-- Generator: Adobe Illustrator 24.1.1, SVG Export Plug-In . SVG Version: 6.00 Build 0)  -->
<svg version="1.1" id="Layer_1" xmlns="http://www.w3.org/2000/svg" xmlns:xlink="http://www.w3.org/1999/xlink" x="0px" y="0px"
	 viewBox="0 0 60 60" style="enable-background:new 0 0 60 60;" xml:space="preserve">
<style type="text/css">
	.st0{fill:#D1D1D1;}
	.st1{fill:#FFFFFF;}
	.st2{fill:#FB342E;}
	.st3{fill:#FAA74A;}
	.st4{fill:#707070;}
</style>
<g>
	<path class="st0" d="M58.1,15l-1.9-2.4c0,0-9.8-12.5-9.8-12.5l-1.9,0.8c0,0-0.8,0.3-0.9,0.3c-0.1,0-5.7,2.2-13.7,2.3
		c-7.9,0-13.6-2.2-13.6-2.3c0,0-0.9-0.3-0.9-0.3l-1.9-0.8L1.9,15l1.8,2.4c0,0,3.2,4.5,5.4,14.1l0-0.1C11.7,45.9,24,55.6,27.7,58.3
		l2.3,1.6l2.3-1.6c3.7-2.6,16-12.4,18.6-26.9l0,0.1c2.2-9.6,5.4-14.1,5.5-14.1L58.1,15"/>
	<path class="st1" d="M44.7,3.7c-0.1,0-6.1,2.4-14.7,2.4c-8.5-0.1-14.6-2.4-14.6-2.4l-0.9-0.3L5.4,15l0.6,0.8c0,0,3.5,4.8,5.9,15.2
		c2.4,13.5,13.9,22.6,17.4,25.1l0.7,0.5l0.7-0.5c3.5-2.5,15-11.6,17.5-25.2c2.4-10.3,5.9-15,5.9-15.1l0.6-0.8l-0.6-0.7L45.5,3.4
		L44.7,3.7z"/>
	<path d="M53.1,15c0,0-3.6,4.8-6.1,15.6C44.5,44.4,32,53.6,30,55c-2-1.5-14.5-10.7-17-24.4C10.5,19.8,6.9,15,6.9,15l8-10.2
		c0,0,6.2,2.5,15.1,2.5c8.9-0.1,15.1-2.5,15.1-2.5L53.1,15z"/>
	<g>
		<path class="st2" d="M43.8,20.3c-0.8,0.9-2.1,2.4-3.2,4.5c-1.1,2.3-1.9,4.7-2,7.9c-4.6-4.5-3.1-9.5-3.1-9.5s-4.2,0.5-7,0.1
			c0,0-0.3,4.3,4.2,7.6c7,5,6.8,8.7,5.5,11.5c-1.1,2.3-5.3,6.3-8.2,8.7c0,0-13.2-9.9-14.5-22.2c0,0,2,4.5,7.7,6.6
			c0,0,6.5,2.4,5.6,7.5c5.5-3.8,3.3-9.1-2.2-12.4c-4.3-2.6-6.5-6.1-7.7-8.9c0,0-1-2-2.4-2.4c0.8,0.1,2,0.6,2.6,0.7
			c0.9,0.3,1.9,0.5,1.9,0.5c11.1,2,19.5,0.3,22.5-0.5c0.8-0.2,1.4-0.5,1.4-0.5S44.3,19.8,43.8,20.3z"/>
		<path class="st3" d="M23.9,31.3c-4.1-2.7-5.1-4.3-6.5-7.5c-1.1-2.6-2.7-4.8-6.6-6.6c2.3,1.8,2.7,3,3.8,5.9c0,0,1,3,2.3,4.6
			c1.1,1.5,2.7,2.9,4.8,3.8c1.4,0.6,4.3,1.8,6,2.8C27.6,34.2,25.1,32,23.9,31.3z"/>
	</g>
	<g>
		<path class="st1" d="M22.3,9.4l0.2,0c0.2,0,0.2,0.1,0.1,0.4C22.5,10,22.4,10,22.3,10l-0.2,0L22.3,9.4z M22,10.3l0.2,0
			c0.7,0.1,0.9,0.1,1-0.3l0.1-0.4c0.1-0.4-0.1-0.5-0.8-0.7l-0.8-0.2L21.2,11l0.7,0.1L22,10.3z"/>
		<path class="st1" d="M25.2,9.9c0-0.1,0.1-0.1,0.2-0.1c0.1,0,0.2,0.1,0.2,0.1l-0.2,1.2c0,0.1-0.1,0.1-0.2,0.1
			c-0.1,0-0.2-0.1-0.2-0.1L25.2,9.9z M24.3,11.1c0,0.4,0.2,0.5,0.8,0.6c0.6,0.1,0.9,0,0.9-0.4l0.2-1.2c0.1-0.4-0.2-0.5-0.8-0.6
			c-0.6-0.1-0.9,0-0.9,0.4L24.3,11.1z"/>
		<path class="st1" d="M27.7,9.7l0.7,0l0,0.8l0.4,0l0-0.8l0.7,0l-0.1,2.2l-0.7,0l0-0.9l-0.4,0l0,0.9l-0.7,0L27.7,9.7z"/>
		<path class="st1" d="M31.7,10.2L31.7,10.2l0.2,1l-0.3,0L31.7,10.2z M31.4,12l0.1-0.4l0.5,0L32,12l0.7,0l-0.6-2.2l-0.9,0L30.7,12
			L31.4,12z"/>
		<path class="st1" d="M35.4,9.5L36,9.4l0.2,2.2l-0.9,0.1l-0.8-1.4h0l0.2,1.5l-0.7,0.1l-0.2-2.1l0.9-0.1l0.8,1.4h0L35.4,9.5z"/>
		<path class="st1" d="M39.5,11l-0.4,0.1L38.9,11c-0.1,0.2-0.2,0.3-0.5,0.3c-0.4,0.1-0.7,0-0.7-0.3l-0.3-1.3
			c-0.1-0.4,0.1-0.5,0.7-0.7c0.7-0.1,0.9,0,1,0.3l0,0.1l-0.7,0.1l0-0.1c0-0.1-0.1-0.1-0.2-0.1c-0.1,0-0.2,0.1-0.2,0.2l0.2,1.2
			c0,0.1,0.1,0.1,0.2,0.1c0.1,0,0.2-0.1,0.2-0.2l-0.1-0.5l-0.2,0l-0.1-0.4l0.9-0.2L39.5,11z"/>
	</g>
	<path class="st3" d="M49.2,17.7c0,0-8.6,6.9-8.6,18.9c0,0,2.3-1.9,3.8-9C44.4,27.6,46,20.8,49.2,17.7z"/>
	<g>
		<g>
			<g>
				<path class="st0" d="M22.1,12.7L22.1,12.7L22,13l0.1,0c0.4,0.1,0.5,0.1,0.5,0.3c0,0,0,0.1,0,0.2l0,0.2l0,0.2l-1,4l3.3,0.5
					l0.1-0.5l-0.1,0l-0.9-0.1l-0.6-0.1c-0.2,0-0.3,0-0.3-0.1c0,0,0,0,0-0.1c0,0,0-0.1,0-0.2c0,0,0.3-1.5,0.4-1.7
					c0.1,0,0.6,0.1,0.6,0.1l0.9,0.1l0.1-0.5l-0.9-0.1c0,0-0.4-0.1-0.6-0.1c0-0.1,0.3-1.4,0.3-1.4c0.1-0.2,0.1-0.2,0.4-0.2l0.4,0
					l1,0.2l0.1,0l0.1-0.5l-0.1,0L22.1,12.7z"/>
				<path class="st0" d="M28.3,13.8l0.4,0l1,0.1c0,0,0.1,0,0.1,0v-0.5L26,13.3l0,0.1l0,0.2l0.1,0c0.5,0.1,0.6,0.1,0.6,0.5
					c0,0,0,0.2,0,0.2l0,0.2l-0.3,4.1l3.4,0.2l0-0.6c0,0-0.1,0-0.1,0l-0.9,0L28,18c-0.3,0-0.3,0-0.3-0.2c0,0,0-0.1,0-0.1
					c0,0,0.1-1.5,0.1-1.7c0.1,0,0.6,0,0.6,0l1,0l0-0.5l-1,0c0,0-0.4,0-0.6,0c0-0.1,0.1-1.4,0.1-1.4C27.9,13.8,27.9,13.8,28.3,13.8z"
					/>
				<path class="st0" d="M38.1,17.7l-0.9,0.1l-0.6,0.1c-0.4,0-0.4,0-0.4-0.3c0,0-0.3-1.5-0.3-1.8c0.1,0,0.6,0,0.6,0l1-0.1l-0.1-0.5
					l-0.9,0.1c0,0-0.4,0-0.6,0.1c0-0.1-0.2-1.4-0.2-1.4c0,0,0-0.1,0-0.1c0,0,0,0,0-0.1c0,0,0.1-0.1,0.3-0.1l0.4,0l1-0.1h0.1
					l-0.1-0.5l0,0l-3.6,0.3l0,0.3l0.1,0c0.6,0,0.6,0,0.7,0.4l0,0.2c0,0,0,0.2,0,0.2l0.7,4.1l3.3-0.4l-0.1-0.5L38.1,17.7z"/>
				<path class="st0" d="M33.6,18.1l-1.3,0c0,0-0.1,0-0.1,0c0,0,0-0.1,0-0.1c0,0-0.1-4.5-0.1-4.5v-0.1H32h0l-1.8,0l0,0.2l0.1,0
					c0.5,0.1,0.6,0.1,0.6,0.4l0,0.1l0,4.5l3.6-0.1l0-0.5h-0.1L33.6,18.1z"/>
				<path class="st0" d="M47.7,14c-0.7-1-1.8-1.1-2.8-1.3h0c-0.7-0.1-1.5-0.2-1.7-0.7c-0.1-0.2-0.1-0.4-0.1-0.5
					c0.1-0.2,0.3-0.3,0.4-0.3c0.2-0.1,0.4-0.1,0.7-0.1c0.3,0,0.6,0,0.9,0.3c0,0,0.1,0.1,0.1,0.1l0,0l0,0l0.3-0.1l-0.7-1h0l-0.1,0
					c-0.2,0-0.8,0.1-1.3,0.2c-0.7,0.2-1.1,0.5-1.3,1c-0.1,0.3-0.1,0.7,0.1,1c0.5,1,1.6,1.1,2.6,1.2c0.8,0.1,1.6,0.2,2,0.8
					c0.2,0.3,0.3,0.6,0.2,0.8c-0.1,0.2-0.3,0.4-0.6,0.5c-0.7,0.2-1.6,0.1-2,0.1L44,16l0.6,1.1l0.2,0c0.3,0,1.1-0.1,1.7-0.3
					c0.6-0.2,1.3-0.6,1.5-1.3C48.2,15.1,48.1,14.6,47.7,14z"/>
				<path class="st0" d="M21.8,12.9l0.1-0.3l-3.7-0.8l0,0l-0.2,0.4l1.1,0.3c0,0,0.2,0,0.3,0.1c0,0.1-1.6,3.9-1.6,3.9L17,17.7
					l0.3-0.1c0.2-0.1,0.5-0.3,0.8-0.5c0,0,0,0,0,0c0,0,0.1,0,0.2-0.1l0,0c0.2-0.1,0.3-0.3,0.4-0.4c0,0,0.2-0.3,0.2-0.3c0,0,0,0,0,0
					l0.2-0.4c0,0,1.1-2.8,1.3-3.2c0.1,0,0.3,0.1,0.3,0.1l1.1,0.2L21.8,12.9z"/>
				<path class="st0" d="M41.6,14.9c0.4-0.2,0.7-0.5,0.6-0.9c0-0.1,0-0.3-0.1-0.5c-0.5-1.3-2-1-2.5-0.9l-2,0.4l0,0.1l0.1,0.2l0.1,0
					c0.5,0,0.6,0,0.7,0.2c0,0,0,0.1,0,0.1s0,0,1.8,5.5l0,0.1l0.1-0.2c0,0,0.2-0.4,0.3-0.7c0,0,0.1-0.2,0.1-0.2l0,0
					c0-0.2,0.1-0.4,0.1-0.5l0-0.3c0,0,0,0,0,0l-0.1-0.4c0,0,0,0-0.5-1.5c0,0,0.1,0,0.1,0c0,0,2.2,2.1,2.2,2.1l1.3-0.2l-0.2-0.2
					C43.7,16.9,41.7,15,41.6,14.9z M40.1,13.1c0.4-0.1,0.7,0.1,0.9,0.7c0,0.1,0.1,0.2,0.1,0.3c0,0.1,0,0.2-0.1,0.3
					c-0.1,0.1-0.2,0.2-0.4,0.3c0,0-0.4,0.1-0.5,0.1c0-0.1-0.4-1.3-0.4-1.3c0,0,0,0,0-0.1C39.6,13.3,39.7,13.2,40.1,13.1z"/>
				<path class="st0" d="M18.1,10.9L18,10.8c-0.2-0.1-0.7-0.4-1.2-0.6c-1.2-0.4-2.3-0.1-2.8,0.8c-0.6,1,0,1.6,0.5,2.3
					c0.4,0.5,0.8,1,0.5,1.6c-0.4,0.8-1.1,0.7-1.5,0.6c-0.6-0.2-1.1-0.8-1.3-1.1l-0.1-0.2l-0.6,1l0.1,0.1c0.2,0.1,0.7,0.5,1.4,0.7
					c0.9,0.3,2.5,0.6,3.4-1.1c0.6-1.1-0.1-1.8-0.6-2.4l0,0c-0.4-0.5-0.8-0.9-0.5-1.4c0.4-0.6,0.9-0.5,1.1-0.4
					c0.2,0.1,0.4,0.2,0.6,0.3c0.2,0.1,0.4,0.3,0.4,0.7c0,0,0,0.1,0,0.1l0,0l0,0l0.3,0.1L18.1,10.9z"/>
			</g>
		</g>
		<g>
			<path class="st4" d="M22.7,17.4c0-0.1,0-0.2,0-0.2l0.2-1l0.5-1.9l0.2-0.7c0,0,0-0.1,0.1-0.2c0.1-0.1,0.1-0.1,0.1-0.1
				s-0.2,0-0.3,0.1c-0.1,0.1-0.1,0.2-0.1,0.2l-0.2,0.7l-0.5,1.9l-0.2,1c0,0,0,0.1,0,0.2c0.1,0.1,0.2,0.2,0.2,0.2
				S22.7,17.5,22.7,17.4z"/>
			<path class="st4" d="M27.4,17.9c0-0.1,0-0.2,0-0.2l0.1-1l0.2-2l0-0.7c0,0,0-0.1,0-0.2c0.1-0.1,0.1-0.1,0.1-0.1s-0.2,0-0.3,0.1
				c-0.1,0.1-0.1,0.2-0.1,0.2l0,0.7l-0.2,2l-0.1,1c0,0,0,0.2,0,0.3c0.1,0.1,0.3,0.1,0.3,0.1S27.5,18,27.4,17.9z"/>
			<path class="st4" d="M35.9,17.9c-0.1-0.1-0.1-0.2-0.1-0.2l-0.2-1.1l-0.3-2L35.2,14c0,0,0-0.1,0-0.2c0-0.1,0.1-0.2,0.1-0.2
				s-0.2,0-0.2,0.1c0,0.1,0,0.2,0,0.2l0.1,0.7l0.3,2l0.2,1.1c0,0,0,0.2,0.1,0.2c0.1,0.1,0.3,0.1,0.3,0.1S36,18,35.9,17.9z"/>
			<g>
				<path class="st4" d="M47.1,13.7c0.6,0.5,1.3,1.8,0.1,2.6C47.7,15.5,47.9,14.7,47.1,13.7z"/>
				<path class="st4" d="M43.4,12.6c-0.4-0.4-1-1-0.1-1.5C42.7,11.2,42.2,12,43.4,12.6z"/>
			</g>
			<path class="st4" d="M17.9,16.9c0.6-0.4,0.8-0.7,1-1c0.2-0.3,1.4-3.3,1.4-3.3l-0.1,0l-1.2,3C18.7,15.9,18.4,16.5,17.9,16.9z"/>
			<path class="st4" d="M39.2,13.3c0,0.1,0,0.2,0,0.2l0,0l0,0l1,3c0.1,0.4,0.2,1.1,0.1,1.6c0.2-0.6,0.2-0.9,0.2-1.3
				c-0.1-0.3-1.2-3.3-1.2-3.3l0,0l0,0c0,0,0-0.1,0-0.2c0-0.1,0.1-0.2,0.1-0.2S39.3,13.2,39.2,13.3z"/>
			<path class="st4" d="M16.3,14.5c-0.1,0.7-0.9,1.9-2.5,1.7C14.8,16,15.7,15.7,16.3,14.5z"/>
			<path class="st4" d="M14.9,11.7c0.1-0.5,0.4-1.3,1.5-1.1C15.8,10.3,14.7,10.6,14.9,11.7z"/>
			<path class="st4" d="M41.2,14.9c0.7-0.3,0.7-0.8,0.7-0.8c-0.1,0.4-0.7,0.7-0.9,0.8l2.2,2.1l0.2,0L41.2,14.9z"/>
			<path class="st4" d="M31.7,13.9l0.1,4.1c0,0,0,0.2,0.1,0.3c0.1,0.1,0.3,0.1,0.3,0.1s-0.1-0.1-0.1-0.2c0-0.1,0-0.2,0-0.2l-0.1-4.1
				L31.7,13.9z"/>
		</g>
	</g>
</g>
</svg>
