<?xml version="1.0" encoding="utf-8"?>
<!-- Generator: Adobe Illustrator 24.1.1, SVG Export Plug-In . SVG Version: 6.00 Build 0)  -->
<svg version="1.1"
	 id="Camada_1" xmlns:cc="http://creativecommons.org/ns#" xmlns:dc="http://purl.org/dc/elements/1.1/" xmlns:rdf="http://www.w3.org/1999/02/22-rdf-syntax-ns#" xmlns:svg="http://www.w3.org/2000/svg"
	 xmlns="http://www.w3.org/2000/svg" xmlns:xlink="http://www.w3.org/1999/xlink" x="0px" y="0px" viewBox="0 0 138 138"
	 style="enable-background:new 0 0 138 138;" xml:space="preserve">
<style type="text/css">
	.st0{fill:#2A57A5;}
	.st1{fill:#FDBB2F;}
	.st2{fill:#FFFFFF;}
	.st3{fill:#F89734;}
</style>
<g>
	<g id="g20">
		<path id="path22" class="st0" d="M128.8,26.3c-3.3,0.8-6.8,1.1-10.4,1.1c-9.7,0-20.1-2.7-29.7-7.6c0.2-1,0.3-2,0.3-3
			c0-9.2-7.5-16.7-16.7-16.7c-9.2,0-16.7,7.5-16.7,16.7c0,1,0.1,2,0.3,3c-9.7,4.9-20.1,7.6-29.8,7.6c-3.6,0-7.1-0.4-10.4-1.1
			c-0.1,21.3-2.6,77.9,56.6,110.3C131.4,104.3,128.8,47.6,128.8,26.3"/>
	</g>
	<g id="g24">
		<path id="path26" class="st0" d="M23.7,75.6c6.4,20.4,19.9,42.3,48.5,58.3V75.6H23.7z"/>
	</g>
	<g id="g28">
		<path id="path30" class="st0" d="M120.7,75.6c5.7-18.3,5.7-35.5,5.7-46.2c-2.6,0.4-5.3,0.6-8,0.6c-15.7,0-32.7-6.7-46.1-17.9v63.5
			H120.7z"/>
	</g>
	<g id="g32">
		<path id="path34" class="st1" d="M72.2,75.6V12.1c0,0,0,0,0,0C58.8,23.3,41.7,29.9,26,29.9c-2.7,0-5.4-0.2-8-0.6
			C18,40,18,57.2,23.7,75.6H72.2L72.2,75.6z"/>
	</g>
	<g id="g36">
		<path id="path38" class="st1" d="M120.7,75.6H72.2h0v58.3C100.7,117.9,114.3,96,120.7,75.6"/>
	</g>
	<g id="g40">
		<path id="path42" class="st0" d="M33.4,66.3l0-6.5c0.4-0.1,0.7-0.1,1.1-0.2l0,5.8l-0.7,2.2L33.4,66.3z M34.6,47.9l0,5.9l-0.1,0
			c-0.4,0-0.7,0.1-1.1,0.1l0-6l0.6-1.9C34.1,46.1,34.6,47.9,34.6,47.9z M48.9,47.2c-0.4,1-0.7,1.9-1.1,2.9c-0.3-0.9-0.6-1.9-1-2.8
			l1-1.4L48.9,47.2z M62.4,47.6l-0.1,10.8c-0.4,0-0.8,0.1-1.2,0.1l0.1-10.8l0.6-1.4C61.9,46.2,62.4,47.6,62.4,47.6z M83.9,61.2
			l-0.3,0.6L83.2,61l-0.1-13.4l0.3-0.7l0.3,0.7L83.9,61.2z M90.8,59.2c-0.4,0-0.8-0.1-1.2-0.1l-0.1-8.7c0.3,0,0.5,0,0.8,0l0.4,0
			L90.8,59.2z M117.4,70.3c0,0-0.6-2.4-0.8-3l0-19.4l0.8-2.7H110l0.8,2.7l0.1,17.6c0,0,0,0,0,0c-1.3-5.9-2.8-11.9-4.3-17.9l0.7-2.3
			h-8l0.8,2.3c-1.1,4.6-2.3,9.1-3.5,13.5l-0.2-13.7L96.1,47c-0.6-0.5-1.2-1-1.7-1.5L94,45.3H76.3l1,2.4l0,3.6
			c-1.1-2-3.1-5.8-3.1-5.8l-0.1-0.1H26.9l0.8,2.7l0,19.4l-0.9,3.5l3.1-1c0.7-0.2,1.3-0.4,2-0.6l2.2-0.7v0l2.6-0.7
			c0.7-0.2,1.3-0.4,2-0.5l2.3-0.6l-0.8-2.1l0.2-16.7l0.1-0.2c0.2,0.3,0.4,0.5,0.6,0.8c1.2,3.3,2.6,6.6,3.9,9.9L44.9,63l-1,2.9
			l3.1-0.6c0.7-0.1,1.3-0.3,2-0.4l2.5-0.4l-0.8-2.1l0.1-4.7c1.3-3.1,2.6-6.2,4.1-9.4c0.2-0.3,0.4-0.5,0.6-0.8l0,0.1L55.3,62l0.5,0.4
			c0.6,0.4,1.1,0.8,1.7,1.2l0.4,0.2l0.4,0c2.4-0.2,4.7-0.4,7-0.5l0.4,0l0.3-0.2c0.6-0.5,1.2-0.9,1.7-1.4l0.4-0.3l0.1-13.6l0.3-0.7
			l0.3,0.7l0,13l-1,2.4l2.9,0c0.5,0,1,0,1.4,0l3.5,0l-1-2.4l0-3.5c1,1.8,1.9,3.6,2.9,5.4l0.3,0.6l0.7,0c1.3,0.1,2.6,0.1,3.9,0.2
			l2.1,0.2l4.2,0.5c1.7,0.2,3.3,0.4,4.8,0.7l0.5,0.1l0.4-0.3c0.3-0.2,0.6-0.4,0.9-0.6c-0.2,0.4-0.4,0.6-0.4,0.6l-0.2,0.3l2.9,0.5
			c0.7,0.1,1.3,0.3,2,0.4l3.1,0.7l-0.8-2.3l0.4-1.7c0.7,0.1,1.4,0.3,2.2,0.4c0.2,0.9,0.4,1.7,0.6,2.6l-0.5,1.5l2.3,0.6
			c0.7,0.2,1.3,0.4,2,0.5l3.5,1c0.7,0.2,1.3,0.4,2,0.6l3.1,1L117.4,70.3L117.4,70.3z"/>
	</g>
	<g id="g44">
		<path id="path46" class="st2" d="M115.4,48.3L115.4,48.3v-0.5c0.1-0.5,0.3-0.9,0.4-1.4h-0.4h-0.7h-2H112h-0.4
			c0.1,0.4,0.3,0.9,0.4,1.3c0,6.1,0.1,12.2,0.1,18.3h0v0.5c-0.1,0.4-0.3,0.8-0.4,1.2c0.1,0,0.3,0.1,0.4,0.1c0.2,0.1,0.5,0.1,0.7,0.2
			c0.7,0.2,1.3,0.4,2,0.6c0.2,0.1,0.4,0.2,0.7,0.2c0.1,0,0.3,0.1,0.4,0.1c-0.1-0.5-0.3-1-0.4-1.5C115.4,61.1,115.4,54.7,115.4,48.3"
			/>
	</g>
	<g id="g48">
		<path id="path50" class="st2" d="M39.6,46.4h-0.4h-0.7h-2h-0.7h-0.4c0.1,0.4,0.3,0.8,0.4,1.2c0,2.2,0,4.4-0.1,6.7
			c-0.2,0.2-0.4,0.4-0.5,0.5c-0.8,0.1-1.7,0.2-2.5,0.3c-0.1-0.1-0.3-0.2-0.4-0.3c0-2.2,0-4.4,0-6.6h0c0-0.2,0-0.3,0-0.5
			c0.1-0.4,0.3-0.9,0.4-1.3h-0.4h-0.7h-2h-0.7h-0.4c0.1,0.5,0.3,0.9,0.4,1.4c0,6.4,0,12.8,0,19.2h0v0.5c-0.1,0.5-0.3,1-0.4,1.5
			c0.1,0,0.3-0.1,0.4-0.1c0.2-0.1,0.5-0.2,0.7-0.2c0.7-0.2,1.3-0.4,2-0.6c0.2-0.1,0.4-0.1,0.7-0.2c0.1,0,0.3-0.1,0.4-0.1
			c-0.1-0.4-0.3-0.8-0.4-1.2c0-2.5,0-4.9,0-7.3c0.1-0.1,0.2-0.3,0.4-0.4c0.9-0.2,1.8-0.3,2.6-0.4c0.2,0.1,0.3,0.2,0.5,0.3
			c0,2.1,0,4.3-0.1,6.4c0,0.2,0,0.3,0,0.5c-0.1,0.5-0.3,0.9-0.4,1.4c0.1,0,0.3-0.1,0.4-0.1c0.2-0.1,0.5-0.1,0.7-0.2
			c0.7-0.2,1.3-0.4,2-0.5c0.2-0.1,0.5-0.1,0.7-0.2c0.1,0,0.3-0.1,0.4-0.1c-0.1-0.4-0.3-0.7-0.4-1.1c0.1-5.5,0.1-11.1,0.2-16.6
			c0-0.1,0-0.3,0-0.4C39.4,47.2,39.5,46.8,39.6,46.4"/>
	</g>
	<g id="g52">
		<path id="path54" class="st2" d="M92,56.6c0,1.2,0,2.3,0,3.5c-0.2,0.1-0.3,0.2-0.5,0.3c-0.9-0.1-1.8-0.2-2.7-0.3
			c-0.2-0.1-0.3-0.3-0.4-0.4c0-3.4-0.1-6.9-0.1-10.3c0.1-0.1,0.3-0.2,0.4-0.3c0.9,0,1.8,0,2.6,0.1c0.2,0.1,0.3,0.2,0.5,0.4
			c0,1.2,0,2.3,0,3.5C92,54.3,92,55.5,92,56.6 M88.7,46.4h-0.4h-0.7h-1h-1h-0.7h-0.4c0.1,0.3,0.3,0.7,0.4,1C85,52,85,56.5,85,61.1
			c0,0.1,0,0.2,0,0.4c-0.1,0.3-0.3,0.6-0.4,1c0.1,0,0.3,0,0.4,0c0.2,0,0.5,0,0.7,0.1c0.3,0,0.7,0.1,1,0.1c0.3,0,0.7,0.1,1,0.1
			c0.2,0,0.5,0.1,0.7,0.1c0.1,0,0.3,0,0.4,0c1.6,0.2,3.3,0.4,4.9,0.7c0.6-0.4,1.1-0.8,1.7-1.2c0-1.8,0-3.6-0.1-5.4
			c0-1.2,0-2.4,0-3.7c0-1.8,0-3.6-0.1-5.4c-0.6-0.5-1.2-1-1.7-1.5C93.6,46.4,88.7,46.4,88.7,46.4z"/>
	</g>
	<g id="g56">
		<path id="path58" class="st2" d="M67,46.4h-0.7h-2h-0.7h-0.4c0.1,0.3,0.3,0.6,0.4,1c0,3.9-0.1,7.9-0.1,11.8
			c-0.2,0.1-0.3,0.2-0.5,0.4c-0.9,0-1.8,0.1-2.7,0.2c-0.2-0.1-0.3-0.2-0.4-0.3c0-4,0.1-8,0.1-12c0.1-0.3,0.3-0.7,0.4-1h-0.4h-0.7h-2
			h-0.7h-0.4c0.1,0.3,0.3,0.7,0.4,1c-0.1,4.6-0.1,9.3-0.2,13.9c0.6,0.4,1.1,0.8,1.7,1.2c2.3-0.2,4.7-0.4,7-0.5
			c0.6-0.5,1.2-0.9,1.7-1.4c0-4.4,0-8.8,0.1-13.2c0.1-0.3,0.3-0.6,0.4-1H67z"/>
	</g>
	<g id="g60">
		<path id="path62" class="st2" d="M82.1,60.9v-0.1c0-4.4-0.1-8.9-0.1-13.3c0.1-0.3,0.3-0.6,0.4-1h-0.4h-0.7h-2h-0.7h-0.4
			c0.1,0.3,0.3,0.6,0.4,1c0,2.9,0,5.7,0.1,8.6c-1.7-3.2-3.4-6.4-5.1-9.6h-3.8c0.1,0.3,0.3,0.6,0.4,1c0,4.5,0,9,0,13.5
			c-0.1,0.3-0.3,0.6-0.4,1c0.1,0,0.3,0,0.4,0c0.2,0,0.5,0,0.7,0c0.7,0,1.4,0,2.1,0c0.2,0,0.5,0,0.7,0c0.1,0,0.3,0,0.4,0
			c-0.1-0.3-0.3-0.6-0.4-1c0-2.8,0-5.6,0-8.4c1.7,3.1,3.4,6.3,5.1,9.5c1.3,0.1,2.6,0.1,3.9,0.2c-0.1-0.3-0.3-0.7-0.4-1
			C82.1,61.1,82.1,61,82.1,60.9"/>
	</g>
	<g id="g64">
		<path id="path66" class="st2" d="M102.1,57.8c0.4-1.9,0.9-3.9,1.3-5.9c0.5,2.1,0.9,4.2,1.4,6.3c-0.1,0.1-0.2,0.1-0.3,0.2
			c-0.7-0.1-1.4-0.2-2.1-0.3C102.3,58,102.2,57.9,102.1,57.8 M105.3,47.5L105.3,47.5c0.1-0.4,0.2-0.7,0.4-1.1h-0.2h-0.9h-2.5H101
			c0.1,0.3,0.3,0.7,0.4,1h0c-1.4,5.5-2.7,10.6-4.1,15.6c-0.2,0.3-0.4,0.7-0.6,1c0.1,0,0.2,0,0.4,0.1c0.3,0.1,0.5,0.1,0.8,0.2
			c0.7,0.1,1.4,0.3,2,0.4c0.2,0,0.5,0.1,0.7,0.1c0.1,0,0.3,0.1,0.4,0.1c-0.1-0.2-0.2-0.5-0.2-0.7c0.2-0.9,0.5-1.9,0.7-2.8
			c0.1-0.1,0.3-0.2,0.4-0.2c1.1,0.2,2.3,0.4,3.4,0.6c0.1,0.1,0.3,0.3,0.4,0.4c0.3,1.1,0.5,2.2,0.8,3.3c-0.1,0.2-0.2,0.4-0.2,0.6
			c0.1,0,0.3,0.1,0.4,0.1c0.2,0.1,0.5,0.1,0.7,0.2c0.7,0.2,1.3,0.4,2,0.6c0.3,0.1,0.5,0.2,0.8,0.2c0.1,0,0.2,0.1,0.4,0.1
			c-0.2-0.5-0.4-1-0.7-1.5C108.3,59.4,106.8,53.3,105.3,47.5"/>
	</g>
	<g id="g68">
		<path id="path70" class="st2" d="M53.8,47.7c0.4-0.4,0.7-0.9,1.1-1.3h-0.5h-0.7h-2.8h-0.4h-0.7c0.2,0.2,0.3,0.4,0.5,0.6
			c-0.8,2.1-1.6,4.3-2.4,6.5c-0.8-2.1-1.5-4.3-2.3-6.5c0.2-0.2,0.3-0.4,0.5-0.7h-0.7H45h-2.8h-0.7H41c0.3,0.5,0.7,1,1,1.5
			c1.3,3.6,2.7,7,4,10.2c0,1.7,0,3.4-0.1,5.1c-0.1,0.4-0.3,0.8-0.4,1.2c0.1,0,0.3-0.1,0.4-0.1c0.2,0,0.5-0.1,0.7-0.1
			c0.7-0.1,1.4-0.3,2-0.4c0.2,0,0.5-0.1,0.7-0.1c0.1,0,0.3,0,0.4-0.1c-0.1-0.3-0.3-0.7-0.4-1c0-1.7,0-3.4,0.1-5.1
			C51,54.1,52.4,50.9,53.8,47.7"/>
	</g>
	<g id="g72">
		<path id="path74" class="st2" d="M118.4,78.3c-8,23-23.6,41.2-46.2,54.1C49.5,119.5,34,101.3,26,78.3c-6.5-18.7-6.7-36.9-6.7-47.5
			c2.2,0.3,4.4,0.4,6.7,0.4c7.8,0,16.3-1.7,24.4-4.8c2.8-1.1,5.6-2.4,8.4-3.8c2.2,5.2,7.4,8.9,13.4,8.9c6,0,11.2-3.7,13.4-8.9
			c2.7,1.4,5.5,2.7,8.3,3.8c8.1,3.2,16.6,4.8,24.4,4.8c2.3,0,4.5-0.1,6.7-0.4C125.1,41.4,124.9,59.6,118.4,78.3 M126.4,29.3
			c-2.6,0.4-5.3,0.6-8,0.6h0c-10.6,0-21.9-3.1-32.3-8.6c0.4-1.4,0.7-2.9,0.7-4.4c0-8-6.5-14.5-14.5-14.5c-8,0-14.5,6.5-14.5,14.5
			c0,1.5,0.2,3,0.7,4.4C48,26.9,36.7,29.9,26,29.9c-2.8,0-5.4-0.2-8-0.6c-0.1,22.7,0,74.2,54.2,104.6
			C126.4,103.5,126.5,52,126.4,29.3"/>
	</g>
	<g id="g76">
		<path id="path78" class="st0" d="M72.2,30.2c-7.3,0-13.2-5.9-13.2-13.2S64.9,3.7,72.2,3.7c7.3,0,13.2,5.9,13.2,13.2
			S79.5,30.2,72.2,30.2"/>
	</g>
	<g id="g80">
		<path id="path82" class="st2" d="M76.3,10.9L76.3,10.9c1.4-0.2,2.5-0.3,3.6-0.3l0,0c0-1-0.1-1.9-0.4-2.6c-1.3-1-2.7-1.8-4.3-2.2
			c-1,0.1-1.8,0.5-2.6,1l0,1.4l0,0C74,9,75.2,9.9,76.3,10.9"/>
	</g>
	<g id="g84">
		<path id="path86" class="st2" d="M68.1,10.9L68.1,10.9c1-1,2.3-1.9,3.7-2.8l0,0l0-1.4c0,0-1.1-0.9-2.6-1c-1.6,0.4-3.1,1.2-4.3,2.2
			c-0.2,0.8-0.3,1.6-0.4,2.6l0,0C65.7,10.6,66.8,10.7,68.1,10.9"/>
	</g>
	<g id="g88">
		<path id="path90" class="st2" d="M62.8,19.3c-0.7-1.6-1.1-3.2-1.2-4.9c0,0-0.4,0-0.8,0.2c-0.2,0.8-0.2,1.6-0.2,2.4
			c0,2.6,0.9,5,2.3,7l0,0C62.7,23.3,62.4,21.7,62.8,19.3"/>
	</g>
	<g id="g92">
		<path id="path94" class="st2" d="M69.3,15.3c-0.6-1.3-1-2.5-1.3-3.7l0,0c-1.1-0.2-2.2-0.3-3.6-0.3l-0.1,0
			c-0.7,0.8-1.4,1.7-1.9,2.9l0,0c0.2,3,1,4.6,1,4.6l3,0.8L69.3,15.3L69.3,15.3z"/>
	</g>
	<g id="g96">
		<path id="path98" class="st2" d="M69.1,24.4c-0.2,0.3-0.6,1.1-0.8,2.6c0.4,0.6,0.8,1,1.2,1.3c0.1,0,0.2,0.1,0.4,0.1
			c0.8,0.1,1.6,0.2,2.4,0.2c0.8,0,1.6-0.1,2.4-0.2c0.1,0,0.2-0.1,0.4-0.1c0.3-0.2,0.5-0.5,0.8-0.8l0.4-0.6c-0.2-1.4-0.6-2.2-0.8-2.4
			C72.4,25.1,70,24.7,69.1,24.4"/>
	</g>
	<g id="g100">
		<path id="path102" class="st2" d="M74.5,15.7L74.5,15.7c0,0-1,0.2-2.3,0.2c-1.3,0-2.3-0.3-2.3-0.3l0,0L67,20.1l0,0.1l1.6,2.7
			c0.2,0.4,0.4,0.6,0.5,0.7l0,0c1,0.2,2,0.3,3,0.3c1,0,2-0.1,3-0.3l0,0c0-0.1,0.2-0.3,0.5-0.7l1.6-2.7l0-0.1L74.5,15.7z"/>
	</g>
	<g id="g104">
		<path id="path106" class="st2" d="M82,14.2c-0.5-1.2-1.2-2.1-1.9-2.9l-0.1,0c-1.4,0-2.5,0.1-3.6,0.3l0,0c-0.2,1.1-0.7,2.3-1.3,3.7
			l0,0l2.8,4.4l3-0.8C81,18.9,81.8,17.3,82,14.2L82,14.2z"/>
	</g>
	<g id="g108">
		<path id="path110" class="st2" d="M83.8,17c0-0.8-0.1-1.6-0.2-2.4c-0.4-0.2-0.8-0.2-0.8-0.2c-0.1,1.7-0.5,3.2-1.1,4.7l0,0
			c0.4,2.1,0.2,3.8-0.1,4.6C83,21.9,83.8,19.5,83.8,17"/>
	</g>
	<g id="g112">
		<path id="path114" class="st2" d="M72.2,114.1c-0.1,0-0.2,0-0.4,0c-1.4,0-2.7-0.1-3.5-0.4c-0.4-0.1-0.6-0.3-0.9-0.8
			c-0.1-0.2-0.3-0.5-0.4-0.7c-0.8-1.4-1.7-3.2-4.3-4.4l-0.2-0.1c-1.6-0.8-4.6-2.2-6-6.9c-0.3,0.4-0.7,1.1-0.9,2l-0.1,0.5l-0.4-0.4
			c-0.1-0.2-3.4-4.1-1.9-12.5c-0.5,0.1-1.4,0.5-2.2,1.4l-0.4,0.5l0-0.7c0-0.1-0.1-3.3,1.9-6.5c-0.1-0.2-0.5-0.7-1.2-1l-0.3-0.1
			l0.2-0.3c0,0,0.8-1,2.4-1.4c-0.2-0.3-0.5-0.9-1-1.2l-0.4-0.2l0.3-0.3c0,0,1.3-1,1.4-2.1c0-0.5-0.2-1-0.6-1.4c-2-2-3-4.1-2.9-6.3
			c0-1.5,0.6-2.6,1.6-3.3c0.5-0.3,1.3-0.5,2.1-0.5c2.3,0,5.8,1.3,8.3,4.7c0.8-0.8,3.9-3.4,9.7-3.4h0c5.8,0,8.8,2.6,9.6,3.4
			c2.5-3.5,6-4.7,8.3-4.7c0.9,0,1.6,0.2,2.1,0.5c1.1,0.7,1.6,1.8,1.6,3.3c0.1,2.2-0.9,4.3-2.9,6.3c-0.4,0.4-0.6,0.9-0.6,1.4
			c0.1,1.1,1.3,2.1,1.4,2.1l0.3,0.3l-0.4,0.2c-0.5,0.3-0.9,0.8-1,1.2c1.5,0.5,2.3,1.4,2.4,1.4l0.2,0.3L93,84.3
			c-0.7,0.3-1.1,0.8-1.2,1c2,3.1,1.9,6.3,1.9,6.5l0,0.7l-0.4-0.5c-0.8-0.9-1.7-1.3-2.2-1.4c1.6,8.4-1.7,12.3-1.9,12.5l-0.4,0.4
			l-0.1-0.5c-0.2-0.9-0.6-1.6-0.9-2c-1.4,4.7-4.4,6.1-6,6.9l-0.2,0.1c-2.5,1.2-3.5,3-4.3,4.4c-0.1,0.3-0.3,0.5-0.4,0.7
			c-0.3,0.5-0.5,0.7-0.9,0.8c-0.8,0.2-2.1,0.4-3.5,0.4h0C72.4,114.1,72.3,114.1,72.2,114.1"/>
	</g>
	<g id="g116">
		<path id="path118" class="st3" d="M83.4,86c-0.8,2.3-2.9,2.4-4,2.7c-0.8,0.2-1,0.6-1,0.8c-0.2,1-0.2,1.1-0.2,1.1l-1.4-3.4
			c0,0-0.1-1.6,0.7-3.4c-0.7-0.4-0.9-1.2-0.9-1.2c2.2-0.2,3.1-1.3,3.3-1.6c0,0,0.4-1,0.4-0.8c0.6-0.1,1.1-0.3,1.5-0.5
			c2.1-0.6,2.1-2.2,2-2.4c-0.2-0.4,1.2,0.3,0.9,4.8C86.6,83.9,84,84.3,83.4,86 M67.7,87.2l-1.4,3.4c0,0,0-0.1-0.2-1.1
			c-0.1-0.2-0.3-0.6-1-0.8c-1.1-0.2-3.2-0.4-4-2.7c-0.6-1.7-3.2-2.1-1.3-4c-0.3-4.6,1.1-5.2,0.9-4.8c-0.1,0.3-0.1,1.8,2,2.4
			c0.4,0.2,0.9,0.3,1.5,0.5c0.1-0.2,0.5,0.8,0.5,0.8c0.2,0.3,1.2,1.5,3.3,1.6c0,0-0.3,0.8-0.9,1.2C67.9,85.6,67.7,87.2,67.7,87.2
			 M94.3,71.9c0.2-1.3-1-4.2-2.2-4.4c-1-0.4-2.1-1-5.6,0.3c-3.6,1.3-4.5,3.4-4.7,3.8c0,0-1.3-3.1-9.7-3.2h0h0h0
			c-8.4,0-9.7,3.2-9.7,3.2c-0.2-0.4-1.1-2.5-4.7-3.8c-3.5-1.3-4.6-0.7-5.6-0.3c-1.2,0.2-2.4,3.1-2.2,4.4c0.3,2.7,2.7,4.7,3.4,5.5
			c0.6,0.6,0.9,2.2-1.3,3.5c1,0.4,1.6,1.4,1.6,1.4c-0.9,0.3-2.2,1.3-2.6,1.6c0.5,0.2,1.6,0.5,1.8,1.4c0,0-1.1,1.3-0.4,3.8
			c0.9-0.8,3.3,0.3,2.1,3.1c0,0,1.5-0.5,1.7-1.3c0,0,1,2.8-1.7,3.4c0,0,1.6,1,5.3-1.5c1,0.4,2.9,0.5,4.7,0c0,0-4.3,3.3,1,6.1
			c1.7,1,4.1,1.2,6,0.7c0.2-0.1,0.4-0.2,0.5-0.3c0.2,0.1,0.3,0.2,0.5,0.3c1.9,0.6,4.3,0.3,6-0.7c5.2-2.8,1-6.1,1-6.1
			c1.8,0.5,3.7,0.4,4.7,0c3.8,2.5,5.3,1.5,5.3,1.5c-2.6-0.7-1.7-3.4-1.7-3.4c0.2,0.8,1.7,1.3,1.7,1.3c-1.2-2.8,1.2-3.9,2.1-3.1
			c0.7-2.4-0.4-3.8-0.4-3.8c0.2-0.9,1.3-1.2,1.8-1.4c-0.4-0.3-1.6-1.3-2.6-1.6c0,0,0.6-1,1.6-1.4c-2.1-1.3-1.8-2.9-1.3-3.5
			C91.6,76.7,94.1,74.6,94.3,71.9"/>
	</g>
	<g id="g120">
		<path id="path122" class="st3" d="M59.2,99.8c0,4.3,4.2,5,6.4,5.2c-0.4-1-1.5-2.9-1.8-3.7C62.8,100.6,61,99.6,59.2,99.8"/>
	</g>
	<g id="g124">
		<path id="path126" class="st2" d="M66.3,85.5c0.1,0.4-0.2,1.1-1.1,1c-0.9-0.2-1-1-0.9-1.5c0-0.2,0.1-0.3,0.2-0.4
			c-0.3-0.1-0.6-0.2-1-0.3c0,0-0.4,1.9,1.1,2.6c1.7,0.7,2.2-0.9,2.2-0.9S66.7,85.8,66.3,85.5"/>
	</g>
	<g id="g128">
		<path id="path130" class="st0" d="M63.5,84.4c0.4,0.1,0.7,0.2,1,0.3c-0.1,0.1-0.1,0.2-0.2,0.4c-0.1,0.5,0,1.3,0.9,1.5
			c0.9,0.2,1.2-0.6,1.1-1c0.4,0.3,0.5,0.5,0.5,0.5s-0.5,1.6-2.2,0.9C63.1,86.3,63.5,84.4,63.5,84.4 M59,79c1.3,2.8-1.4,5.4-1.4,5.4
			s2.4-0.2,3.2,1.6c0.9,2.1,2.7,2.3,2.7,2.3c-1.3-0.6-1.7-1.6-1.9-2.4c-0.2-0.7,0.3-0.9,0.5-0.9c1,0,0.1,2,2.6,2.9
			c0.9,0.3,1.2,0.9,1.4,1.5c0.2,1-0.2,2.1-0.2,2.1s1.6-1.9,1.8-3.7c0-0.3,0.1-0.7,0-1.2c-0.1-0.8-0.6-1.7-1.9-2.4
			C63,82.8,61,82.8,61,82.8s0.6,0.2,1,0.7c0.1,0.2,0.3,0.5-0.2,0.4c-0.5-0.1-1.2-0.3-1.2-0.3c-0.4-0.2-0.8-0.3-0.8-0.3
			c1.7-2.2,0.7-3.7,0.5-4.6c0.1-0.7,0.2-1.2,0.4-1.6c0.2-0.4,0.4-0.7,0.7-0.9C60.4,76.7,59.5,77.5,59,79"/>
	</g>
	<g id="g132">
		<path id="path134" class="st0" d="M59.4,85.6c0,0-0.5,1.4,0.1,2.7c0.9,1.8,3.1,2.3,3.1,2.3s-3-1-1.7-3.2
			C60.9,87.4,59.5,87.1,59.4,85.6"/>
	</g>
	<g id="g136">
		<path id="path138" class="st0" d="M64.7,83.1c0,0-1.4-1.1-1.8-1.5c-0.2-0.2-0.3-1.2-0.2-2c0-0.7,0.1-1.3,0.1-1.3s-0.2,0.5-0.3,1.2
			c-0.2,0.9-0.4,2.1-0.2,2.4C62.7,82.7,64.7,83.1,64.7,83.1"/>
	</g>
	<g id="g140">
		<path id="path142" class="st0" d="M67.9,78.5C67,79,66,79,65.3,78.9c-0.5-0.1-0.8,0.3-0.9,0.6c0,0.2-0.1,0.4-0.2,0.6
			c-0.1,0.3-0.2,0.7-0.4,1c0.3,1.1,1.5,1.9,1.5,1.9c-0.4-0.6-0.7-1.8-0.7-1.8l0.1-0.3l0.4-0.6c0,0,0.3-0.7,0.6-0.7
			C67.4,79.4,67.9,78.5,67.9,78.5"/>
	</g>
	<g id="g144">
		<path id="path146" class="st0" d="M55.5,85.6c-0.1-3.2,2.8-5.7,3-5.9c-4.6,1.9-4.6,7-4.6,7c2.2,2.5,0.6,5.5,0.6,5.5
			C57.5,89.6,55.6,86.6,55.5,85.6"/>
	</g>
	<g id="g148">
		<path id="path150" class="st0" d="M68.5,89.2c0,0,2.7,0.4,2.1-2.7C70.6,86.5,70.2,88.6,68.5,89.2"/>
	</g>
	<g id="g152">
		<path id="path154" class="st0" d="M71.1,80.4c0,0-0.8,1.9-1.8,2.2c-0.1,0-0.1-0.6-0.1-1.6c0,0-1.8,2.3-0.1,5.2c0,0-0.5-0.9,0.1-2
			c0.4-0.7,1.2-1,1.6-2.2C71,81.7,71.1,81.3,71.1,80.4"/>
	</g>
	<g id="g156">
		<path id="path158" class="st0" d="M66.2,81.1c0.7-1.5,2.7-0.8,3.5-2.5c0,0,0,1.5-1.3,2c-1.9,0.8-2,2.3-2,2.3S65.9,81.8,66.2,81.1"
			/>
	</g>
	<g id="g160">
		<path id="path162" class="st2" d="M56.8,75.8c0-0.1-0.8,0.7-1.2,1.2c-4.7-3.8-2.7-6.7-2.5-7.6c3.6-2.1,7.6,4.2,7.6,4.2
			C58.7,74.1,56.8,75.8,56.8,75.8"/>
	</g>
	<g id="g164">
		<path id="path166" class="st0" d="M56.6,75.9c1.2-1,2.4-1.8,4.1-2.4c-0.8-2.6-5.2-5.8-7.6-4.2C56.5,68.9,57.2,74.8,56.6,75.9"/>
	</g>
	<g id="g168">
		<path id="path170" class="st2" d="M87.6,75.8c0-0.1,0.8,0.7,1.2,1.2c4.7-3.8,2.7-6.7,2.5-7.6c-3.6-2.1-7.6,4.2-7.6,4.2
			C85.6,74.1,87.6,75.8,87.6,75.8"/>
	</g>
	<g id="g172">
		<path id="path174" class="st0" d="M87.8,75.9c-1.2-1-2.4-1.8-4.1-2.4c0.8-2.6,5.2-5.8,7.6-4.2C87.8,68.9,87.2,74.8,87.8,75.9"/>
	</g>
	<g id="g176">
		<path id="path178" class="st3" d="M85.2,99.8c0,4.3-4.2,5-6.4,5.2c0.4-1,1.5-2.9,1.8-3.7C81.6,100.6,83.4,99.6,85.2,99.8"/>
	</g>
	<g id="g180">
		<path id="path182" class="st2" d="M78.1,85.5c-0.1,0.4,0.2,1.1,1.1,1c0.9-0.2,1-1,0.9-1.5c0-0.2-0.1-0.3-0.2-0.4
			c0.3-0.1,0.6-0.2,1-0.3c0,0,0.4,1.9-1.1,2.6c-1.7,0.7-2.2-0.9-2.2-0.9S77.7,85.8,78.1,85.5"/>
	</g>
	<g id="g184">
		<path id="path186" class="st0" d="M79.8,86.9c-1.7,0.7-2.2-0.9-2.2-0.9s0.1-0.2,0.5-0.5c-0.1,0.4,0.2,1.1,1.1,1
			c0.9-0.2,1-1,0.9-1.5c0-0.2-0.1-0.3-0.2-0.4c0.3-0.1,0.6-0.2,1-0.3C80.9,84.4,81.3,86.3,79.8,86.9 M83.1,76.3
			c0.2,0.2,0.5,0.5,0.7,0.9c0.2,0.4,0.4,0.9,0.4,1.6c-0.3,0.9-1.2,2.4,0.5,4.6c0,0-0.3,0.1-0.8,0.3c0,0-0.7,0.2-1.2,0.3
			c-0.5,0.1-0.4-0.3-0.2-0.4c0.4-0.5,1-0.7,1-0.7s-2.1,0-4.8,1.4c-1.3,0.7-1.8,1.6-1.9,2.4c-0.1,0.5,0,0.9,0,1.2
			c0.2,1.8,1.8,3.7,1.8,3.7s-0.4-1.1-0.2-2.1c0.1-0.6,0.5-1.2,1.4-1.5c2.5-1,1.6-3,2.6-2.9c0.2,0,0.6,0.2,0.5,0.9
			c-0.2,0.9-0.6,1.8-1.9,2.4h0c0,0,1.7-0.2,2.7-2.3c0.8-1.8,3.2-1.6,3.2-1.6s-2.7-2.6-1.4-5.4C84.9,77.5,84,76.7,83.1,76.3"/>
	</g>
	<g id="g188">
		<path id="path190" class="st0" d="M85,85.6c0,0,0.5,1.4-0.1,2.7c-0.9,1.8-3.1,2.3-3.1,2.3s3-1,1.7-3.2
			C83.5,87.4,84.9,87.1,85,85.6"/>
	</g>
	<g id="g192">
		<path id="path194" class="st0" d="M79.7,83.1c0,0,1.4-1.1,1.8-1.5c0.2-0.2,0.3-1.2,0.2-2c0-0.7-0.1-1.3-0.1-1.3s0.2,0.5,0.3,1.2
			c0.2,0.9,0.4,2.1,0.2,2.4C81.6,82.7,79.7,83.1,79.7,83.1"/>
	</g>
	<g id="g196">
		<path id="path198" class="st0" d="M76.5,78.5c0.9,0.5,1.9,0.5,2.6,0.4c0.5-0.1,0.8,0.3,0.9,0.6c0,0.2,0.1,0.4,0.2,0.6
			c0.1,0.3,0.3,0.7,0.4,1c-0.3,1.1-1.5,1.9-1.5,1.9c0.4-0.6,0.7-1.8,0.7-1.8l-0.1-0.3l-0.4-0.6c0,0-0.3-0.7-0.6-0.7
			C77,79.4,76.5,78.5,76.5,78.5"/>
	</g>
	<g id="g200">
		<path id="path202" class="st0" d="M88.8,85.6c0.1-3.2-2.8-5.7-3-5.9c4.6,1.9,4.6,7,4.6,7c-2.2,2.5-0.6,5.5-0.6,5.5
			C86.9,89.6,88.8,86.6,88.8,85.6"/>
	</g>
	<g id="g204">
		<path id="path206" class="st0" d="M75.9,89.2c0,0-2.7,0.4-2.1-2.7C73.8,86.5,74.2,88.6,75.9,89.2"/>
	</g>
	<g id="g208">
		<path id="path210" class="st0" d="M73.3,80.4c0,0,0.8,1.9,1.8,2.2c0.1,0,0.1-0.6,0.1-1.6c0,0,1.8,2.3,0.1,5.2c0,0,0.5-0.9-0.1-2
			c-0.4-0.7-1.2-1-1.6-2.2C73.3,81.7,73.3,81.3,73.3,80.4"/>
	</g>
	<g id="g212">
		<path id="path214" class="st0" d="M78.2,81.1c-0.7-1.5-2.8-0.8-3.5-2.5c0,0,0,1.5,1.3,2c1.9,0.8,2,2.3,2,2.3S78.5,81.8,78.2,81.1"
			/>
	</g>
	<g id="g216">
		<path id="path218" class="st0" d="M75.7,74.1c-1.9,0.3-3.5-0.9-3.5-0.9s-1.5,1.1-3.5,0.9c-4-0.5-6.6,1.7-6.6,1.7
			c1.8-0.9,3.6-0.7,4.7-0.5c1.7,0.3,3.7-0.5,3.7,0c0,0.5-1.2,1.3-1.2,1.3c0.9-0.4,2.1-0.4,2.9-0.4c0.8,0,2,0,2.9,0.4
			c0,0-1.2-0.8-1.2-1.3c0-0.4,2,0.4,3.7,0c1-0.2,2.8-0.4,4.7,0.5C82.3,75.8,79.6,73.5,75.7,74.1"/>
	</g>
	<g id="g220">
		<path id="path222" class="st0" d="M76.9,106.8c0,0,0.4-1.9-1-3.8c0,0,1.3,0.2,2.5-0.5C78.2,104.1,77.6,105.8,76.9,106.8
			 M75.9,110.3c-1.3-0.4-3.1-0.5-3.7-0.5c-0.7,0-2.4,0.1-3.7,0.5c0,0-0.5-1.4-0.3-3.1c0,0,0.3,1.3,0.8,2.1l0.7-0.3l0.7,0.1l0.9-0.3
			l0.9,0.2l0.9-0.2l0.9,0.3h0l0.7-0.1l0.7,0.3c0.6-0.8,0.8-2.1,0.8-2.1C76.4,108.9,75.9,110.3,75.9,110.3 M65.9,102.5
			c1.3,0.6,2.5,0.5,2.5,0.5c-1.4,1.9-1,3.8-1,3.8C66.8,105.8,66.2,104.1,65.9,102.5 M89.8,94.4c0,0-2.7,0-2.9-2.3
			c0,0,0.9-1.7,0.5-3.6C87,86.6,86.3,86,86.3,86s2.1,4-2.3,7c0,0,0,0-0.1,0c0,0,2,0.4,1.9,2.3c-0.1,1.6-1.9,3-3.8,4
			c0-0.1,0.1-0.2,0.1-0.3c0.1-0.6,0.2-1.4,0.1-2.2c1-1.4,2.2-1.1,2.2-1.1c-1.1-0.7-2.1-0.4-2.5-0.1c-0.4-1-1.1-2-2.2-2.7
			c0,0,1.3,1.3,1.6,3.1c-0.2,0.5-0.5,1-0.8,1.3c-1.4,1.4-3.6,1.6-3.6,1.6c0.7,0.1,1.4,0.1,1.9,0.1c1-0.1,1.8-0.3,2.3-0.5
			c0,0-0.5,1.8-3.1,3c-2.2,1-4.6,0.5-5.1-0.1c-0.2-0.2-0.3-1.4-0.1-1.6c0.1-0.2,0.3-0.6,0.7-0.9c1-0.8,2.1-1.4,2.7-1.8
			c1.2-0.7,1.4-2,0.3-2.7c0,0,0.1,0.9-1.2,0.9c-0.1,0-1.9-0.5-3.1-0.5c-1.1,0-2.9,0.5-3.1,0.5c-1.3,0-1.2-0.9-1.2-0.9
			c-1.1,0.7-0.9,2.1,0.3,2.7c0.6,0.3,1.8,0.9,2.7,1.8c0.4,0.4,0.6,0.7,0.7,0.9c0.1,0.3,0.1,1.4-0.1,1.6c-0.6,0.7-3,1.2-5.1,0.1
			c-2.6-1.2-3.1-3-3.1-3c0.5,0.2,1.3,0.5,2.3,0.5c0.6,0,1.2,0,1.9-0.1c0,0-2.2-0.2-3.6-1.6c-0.4-0.4-0.6-0.8-0.8-1.3
			c0.3-1.8,1.6-3.1,1.6-3.1c-1.1,0.7-1.9,1.7-2.2,2.7c-0.4-0.2-1.4-0.6-2.5,0.1c0,0,1.2-0.3,2.2,1.1c-0.1,0.8-0.1,1.6,0.1,2.2
			c0,0.1,0.1,0.2,0.1,0.3c-1.9-1-3.6-2.3-3.8-4c-0.2-1.9,1.9-2.3,1.9-2.3c0,0,0,0-0.1,0c-4.4-3-2.3-7-2.3-7s-0.7,0.6-1.2,2.5
			c-0.5,1.9,0.5,3.6,0.5,3.6c-0.2,2.3-2.9,2.3-2.9,2.3c1.3,2,3.4,2,3.4,2c-1.7,0.8-2,2.3-2,2.3c1.5-0.9,3.4,0.2,3.4,0.2
			c-1,0.8-1.1,2.1-1.1,2.1c0.4-0.2,0.7-0.3,1.1-0.3c1.8-0.2,3.6,0.7,4.6,1.4c0.3,0.8,2.2,5.6,4.2,8.9c0,0,1.6-0.5,3.9-0.5
			c2.3,0,3.9,0.5,3.9,0.5c2-3.3,4-8.1,4.2-8.9c1.1-0.7,2.9-1.6,4.6-1.4c0.4,0,0.8,0.1,1.1,0.3c0,0-0.2-1.3-1.1-2.1
			c0,0,1.9-1.1,3.4-0.2c0,0-0.3-1.5-2-2.3C86.4,96.4,88.5,96.4,89.8,94.4"/>
	</g>
	<g id="g224">
		<path id="path226" class="st0" d="M72.4,70.7c0,0,2.8-0.5,6,0.8c0,0-2.3-2.4-6.3-1.9c-4-0.5-6.3,1.9-6.3,1.9c3.2-1.4,6-0.8,6-0.8
			c-1.2,1.4-4-0.3-7.2,2.9c2.7-1.5,5.7,0.1,7.4-1.1c1.8,1.2,4.7-0.4,7.4,1.1C76.5,70.4,73.6,72.1,72.4,70.7"/>
	</g>
	<g id="g228">
		<path id="path230" class="st0" d="M93.4,91.7c-1.2-1.4-2.7-1.6-2.7-1.6c1.8,8.7-1.7,12.7-1.7,12.7c-0.3-1.6-1.3-2.5-1.3-2.5
			c-1.4,5.1-4.5,6.5-6.2,7.2c-3.1,1.5-3.9,3.8-4.8,5.3c-0.3,0.5-0.4,0.6-0.8,0.7c-0.5,0.1-2.1,0.4-3.8,0.4c-1.7,0-3.3-0.2-3.8-0.4
			c-0.3-0.1-0.5-0.2-0.8-0.7c-0.9-1.5-1.7-3.8-4.8-5.3c-1.7-0.8-4.8-2.1-6.2-7.2c0,0-1,0.9-1.3,2.5c0,0-3.5-4-1.7-12.7
			c0,0-1.5,0.2-2.7,1.6c0,0-0.1-3.3,2-6.4c0,0-0.4-0.8-1.4-1.2c0,0,0.9-1,2.5-1.4c0,0-0.4-1.1-1.3-1.6c0,0,2.6-2.1,0.8-3.9
			c-1.1-1.1-3.1-3.1-2.7-5.7c0.4-2.3,1-3.8,1-3.8c3.1-1,6.1,0.6,7.5,1.5c1.9,1.2,3.1,3.1,3.1,3.1s3-3.5,9.7-3.6
			c6.7,0,9.7,3.6,9.7,3.6s1.2-2,3.1-3.1c1.3-0.8,4.4-2.5,7.5-1.5c0,0,0.6,1.5,1,3.8c0.4,2.5-1.6,4.6-2.7,5.7
			c-1.8,1.8,0.8,3.9,0.8,3.9c-0.8,0.4-1.3,1.6-1.3,1.6c1.7,0.4,2.5,1.4,2.5,1.4c-1.1,0.4-1.4,1.2-1.4,1.2
			C93.5,88.4,93.4,91.7,93.4,91.7 M94.6,85c-0.5-1.8-2.7-2.7-2.7-2.7c0.6-1,1.9-1.2,1.9-1.2c-3-1.5-2.6-2.8-2.2-3.2
			c2.3-2.1,3.7-4,2.9-7.2c-0.6-2.4-0.8-3.5-0.8-3.5c-2-1.1-4.5-1.1-7-0.2c-3.5,1.3-5,3.4-5,3.4c-2.3-2-6.7-3-9.6-2.6
			c-3-0.4-7.3,0.6-9.6,2.6c0,0-1.5-2.1-5-3.4c-2.5-0.9-5-0.9-7,0.2c0,0-0.1,1-0.8,3.5c-0.8,3.2,0.6,5.1,2.9,7.2
			c0.5,0.4,0.8,1.7-2.2,3.2c0,0,1.4,0.2,1.9,1.2c0,0-2.2,1-2.7,2.7c0,0,1.3-0.6,2.1,0.4c0,0-3.1,3.9-2,9.9c0,0,0.4-0.7,2.2-2.6
			c0,0-1.8,8.4,4.3,13.5c0,0-0.4-1.8,0-3.2c0,0,1.1,3.5,5.4,5.3c2.5,1.1,3.7,3.1,4.5,5c0.4,1,0.8,1.5,2,1.5c0.9,0,3.8,0.1,3.8,0.1
			s2.9-0.1,3.7-0.1c1.2,0,1.5-0.5,2-1.5c0.9-2,2-4,4.5-5c4.3-1.8,5.4-5.3,5.4-5.3c0.4,1.4,0,3.2,0,3.2c6.1-5.1,4.3-13.5,4.3-13.5
			c1.9,1.9,2.2,2.6,2.2,2.6c1-6.1-2-9.9-2-9.9C93.3,84.4,94.6,85,94.6,85"/>
	</g>
	<g id="g232">
		<path id="path234" class="st0" d="M59.2,35v5.5h-0.6l0-5.5l0.3-0.9L59.2,35z M65.4,40.5l0-5.5l0.4-1.3h-3.5h-0.1h-6.8l0.4,1.3v7.1
			l1.1,1.1h3.8l1.1-1.1l0-7.1l0.4-1.1l0.4,1.2l0,6.9l-0.4,1.3h6.4v-3.2l-1.5,0.5C67.2,40.5,65.4,40.5,65.4,40.5z"/>
	</g>
	<g id="g236">
		<path id="path238" class="st0" d="M74.6,38.2L74,37.6H75l-0.4-1.3v-1.5l-1.1-1.1H70l-1.1,1.1v3.9l0.7,0.7h-1.1l0.4,1.3v1.4
			l1.1,1.1h3.5l1.1-1.1L74.6,38.2z"/>
	</g>
	<g id="g240">
		<path id="path242" class="st0" d="M86.1,43.2h3l-0.4-1.3l0-6.9l0.4-1.3h-3.6l0.4,1.3v1.3l-1.1-2.6h-2.9l0.4,1.3l0,6.9L82,42.7
			l-0.5-0.9l-1.8-7l0.4-1.1h-3.8l0.4,1.1l-1.8,7l-0.8,1.4h3.8l-0.3-1l0.3-0.9l0.6,0l0.2,0.9l-0.3,0.9H82l0,0l0,0l0.2,0h3.1L85,41.9
			v-1.3L86.1,43.2z"/>
	</g>
	<g id="g244">
		<path id="path246" class="st2" d="M64.8,41.2h2.5l0.6-0.2v1.6h-4.7l0.2-0.5l0-7.1l-0.2-0.5H65l-0.2,0.5L64.8,41.2L64.8,41.2z"/>
	</g>
	<g id="g248">
		<path id="path250" class="st2" d="M78.8,39.4l-0.6-2.8l-0.6,2.8H78.8z M77.3,40.7L77,42.3l0.1,0.3h-1.8l0.3-0.5l1.8-7.3l-0.2-0.5
			h2L79,34.8l1.8,7.3l0.3,0.5h-1.8l0.1-0.3L79,40.7C79,40.7,77.3,40.7,77.3,40.7z"/>
	</g>
	<g id="g252">
		<path id="path254" class="st2" d="M71,41.2h1.5v-1.9h-2.2l-0.7-0.7v-3.4l0.7-0.7h3l0.7,0.7v1.3l0.2,0.5h-1.8l0.2-0.5l0-0.5h0H71
			v1.9h0h2.2l0.8,0.7l0,3.3l-0.7,0.7h-3l-0.7-0.7v-1.3l-0.2-0.5h1.8L71,40.6L71,41.2L71,41.2z"/>
	</g>
	<g id="g256">
		<path id="path258" class="st2" d="M59.8,41.2v-6.2l-0.2-0.5h1.8l-0.2,0.5l0,6.9l-0.7,0.7h-3.3l-0.7-0.7v-6.9l-0.2-0.5h1.8L58,34.9
			l0,6.3H59.8z"/>
	</g>
	<g id="g260">
		<path id="path262" class="st2" d="M86.5,42.6l-2.2-5l0,4.5l0.2,0.5h-1.8l0.2-0.5l0-7.1l-0.2-0.5h1.6l2.2,5.1l0-4.6l-0.2-0.5h1.8
			L88,34.9l0,7.1l0.2,0.5H86.5z"/>
	</g>
	<g id="g264">
		<path id="path266" class="st0" d="M65.3,119.4v4.6l-0.1,0.4h0.1h0.2h0.6h0.2h0.1l-0.1-0.4v-6h-0.9h-0.1h-0.2l-0.4,1.3h0.4"/>
	</g>
	<g id="g268">
	</g>
	<g id="g270">
		<path id="path272" class="st0" d="M73.3,120.5l-0.1-0.1v-0.1v-1.2l0.1-0.1h0.8l0.1,0.1v1.2v0.1l-0.1,0.1H73.3z M73.2,123.1v-1.3
			v-0.1l0.1-0.1h0.8l0.1,0.1v0.1v1.3l-0.1,0.1h-0.8L73.2,123.1z M72.7,117.9l-0.5,0.5v0.2v1.6v0.2l0.5,0.5l-0.5,0.5v0.2v1.7v0.2
			l0.5,0.5h2.2l0.5-0.5v-0.2v-1.7v-0.2l-0.5-0.5l0.5-0.5v-0.2v-1.7v-0.2l-0.5-0.5H72.7z"/>
	</g>
	<g id="g274">
		<path id="path276" class="st0" d="M80.6,118.2l-0.9-0.9h-2.7l-0.9,0.9l-0.9-0.9h-2.7l-0.9,0.9l-0.9-0.9h-2.7l-0.9,0.9v-0.9h-2.4
			l-0.8,2.7h0.8v3.9l-0.4,1.2h3.2l-0.3-0.8l0.8,0.8h2.7l0.9-0.9l0.9,0.9h2.7l0.9-0.9l0.9,0.9h2.7l0.9-0.9v-2.7l-0.3-0.3l0.3-0.3
			V118.2z"/>
	</g>
	<g id="g278">
		<path id="path280" class="st2" d="M65.3,119.2v4.7l-0.1,0.4h0.1h0.2h0.6h0.2h0.1l-0.1-0.4v-6h-0.9h-0.1h-0.2l-0.4,1.3H65.3z"/>
	</g>
	<path id="path282" class="st2" d="M69.9,120.6h-1.1V119h1.1V120.6z M70.4,117.9h-2.2l-0.5,0.5v2.7l0.5,0.5h1.6v1.6h-1.1v-0.6
		l0.1-0.4h-0.1h-0.2h-0.6h-0.2h-0.1l0.1,0.4v1.1l0.5,0.5h2.2l0.5-0.5v-0.5h0v-1.9h0v-2.9C70.9,118.5,70.4,117.9,70.4,117.9z"/>
	<path id="path284" class="st2" d="M74.3,120.5h-1.1V119h1.1V120.5z M74.3,123.3h-1.1v-1.6h1.1V123.3z M74.8,117.9h-2.2l-0.5,0.5
		v0.2v1.6v0.2l0.5,0.5l-0.5,0.5v0.2v1.7v0.2l0.5,0.5h2.2l0.5-0.5v-0.2v-1.7v-0.2l-0.5-0.5l0.5-0.5v-0.2v-1.7v-0.2L74.8,117.9z"/>
	<g id="g286">
		<path id="path288" class="st2" d="M78.8,123.3h-1.1l0-0.6l0.1-0.4h-0.1h-0.2h-0.6h-0.2h-0.1l0.1,0.4v1.1l0.5,0.5h2.2l0.5-0.5v-0.2
			v-1.7v-0.2l-0.5-0.5l0.5-0.5v-0.2v-1.7v-0.2l-0.5-0.5h-2.2l-0.5,0.5v1.1l-0.1,0.4h0.1h0.2h0.6h0.2h0.1l-0.1-0.4V119l1.1,0v1.6
			h-0.7l-0.4-0.1v0.2v0.2v0.7v0.3l0.4-0.1h0.7V123.3z"/>
	</g>
</g>
</svg>
