<?xml version="1.0" encoding="UTF-8"?>
<svg id="Layer_1" xmlns="http://www.w3.org/2000/svg" version="1.1" viewBox="0 0 400 400">
  <!-- Generator: Adobe Illustrator 29.5.0, SVG Export Plug-In . SVG Version: 2.1.0 Build 137)  -->
  <defs>
    <style>
      .st0 {
        fill: #1961ab;
      }

      .st1 {
        fill: #db0e15;
      }

      .st2 {
        fill: #fee500;
      }

      .st3 {
        fill: #d5b769;
      }

      .st4 {
        fill: #d5b96b;
      }
    </style>
  </defs>
  <path class="st4" d="M362.5,74.2c2.1,32.7-.3,65.6-6.9,97.7-7.5,36.5-21.1,71.6-39.5,104-18.3,32.3-41.5,61.9-68.8,87.2-3.2,3-6.5,5.9-9.9,8.8-11.3,9.7-23.8,17.9-35.9,26.5h-2.5c-22.6-15-44.1-31.9-62.8-51.7C62.6,269.4,27.7,164.1,38.7,57.3s3.2-20.7,5-31c18.4,2.5,36.2,5.8,54.9,4.9,35.5-1.6,70.7-12.7,101.5-29.6,39.5,22.9,87.5,33.1,133.1,27.9,3.4-.4,20.5-4.3,21.5-4,1.7.5,4.1,15.8,4.5,18.7,1.5,10,2.6,20,3.2,30.1ZM261.1,38.6c-21.6-3.4-41.8-12.3-61.4-21.3-44.2,22.6-95.9,33.1-145.2,23.8-6.8,46.1-5.5,93.6,5.4,139,3,12.6,7.1,24.9,11.2,37.2L261.1,38.6ZM345.4,41.1c-14.9,2.1-30,3.7-45,3.3l-27.7-2.9L75.4,226.4c-.9,1.7,4.1,12,5.3,14.6,11.6,25.6,26.7,49.7,44,71.9l4.2-2.5,219.9-206.7c1.4-2.5,1-16.8.8-20.8-.3-7.5-1-16.4-1.7-23.9-.6-5.9-1.9-11.9-2.5-17.8ZM348.7,116.4l-217.4,204c19,24.1,42.3,44.8,67.8,61.9h2.4c86.6-58.9,143.7-160.6,147.2-265.9Z"/>
  <path class="st1" d="M345.4,41.1c.5,5.9,1.9,11.9,2.5,17.8.7,7.5,1.4,16.5,1.7,23.9s.6,18.3-.8,20.8l-219.9,206.7-4.2,2.5c-17.2-22.2-32.3-46.2-44-71.9s-6.2-12.9-5.3-14.6L272.7,41.5l27.7,2.9c15.1.4,30.1-1.2,45-3.3ZM263.3,71.8c-2.7.7-21.2,21.5-25.4,24.3l-.7,2.4,44,46,12.5-11.5.4-1.2-14-14.9,14-14-11.2-11.2-14.1,12.3c-1.1.2-6.9-5.7-6.9-7,0-2.8,12.3-10.1,13.3-14.1-1.4-2.4-9.7-11.7-11.9-11.1ZM311.3,92.6c-10.9,2.5-8.3,21.7,4.6,19.5s9.7-22.8-4.6-19.5ZM222.3,198.2c1.5,1,12.1-9.4,13.2-11.1s1.1-1.3.7-2.4l-44-46-12.5,11.5-.4,1.2,43,46.7ZM250.9,149.7c-11.9,2.5-8.9,22.2,4.6,19.5s8.9-22.2-4.6-19.5ZM137.7,198.5c-13.8,1.4-24.9,14.5-33.6,24l44.2,46c15.3-12.3,31.4-25.3,24.2-47.4-4.7-14.1-19.8-24.3-34.7-22.7ZM193.9,203.4c-12.3,2.5-8.9,22.2,4.6,19.5s8.9-22.2-4.6-19.5Z"/>
  <path class="st0" d="M348.7,116.4c-3.5,105.3-60.5,207-147.2,265.9h-2.4c-25.5-17.1-48.8-37.8-67.8-61.9l217.4-204Z"/>
  <path class="st2" d="M261.1,38.6L71,217.3c-4.1-12.3-8.2-24.6-11.2-37.2-10.8-45.4-12.2-92.9-5.4-139,49.3,9.3,101-1.2,145.2-23.8,19.7,9.1,39.9,17.9,61.4,21.3Z"/>
  <path class="st3" d="M137.7,198.5c14.8-1.6,30,8.6,34.7,22.7,7.3,22.1-8.9,35.1-24.2,47.4l-44.2-46c8.8-9.6,19.9-22.6,33.6-24ZM135.2,216.6c-1.6.3-6.6,3.2-6.3,5.1l21.8,22.8c13.4-11.4,1.2-31.3-15.5-27.9Z"/>
  <path class="st3" d="M263.3,71.8c2.2-.6,10.4,8.7,11.9,11.1-.9,4-13.3,11.3-13.3,14.1s5.8,7.2,6.9,7l14.1-12.3,11.2,11.2-14,14,14,14.9-.4,1.2-12.5,11.5-44-46,.7-2.4c4.2-2.8,22.8-23.6,25.4-24.3Z"/>
  <path class="st3" d="M222.3,198.2l-43-46.7.4-1.2,12.5-11.5,44,46c.4,1-.2,1.6-.7,2.4-1.1,1.6-11.7,12.1-13.2,11.1Z"/>
  <path class="st3" d="M193.9,203.4c13.4-2.8,16.8,17,4.6,19.5s-16.8-17-4.6-19.5Z"/>
  <path class="st3" d="M311.3,92.6c14.3-3.3,17.6,17.3,4.6,19.5s-15.5-17-4.6-19.5Z"/>
  <path class="st3" d="M250.9,149.7c13.4-2.8,16.8,17,4.6,19.5s-16.5-17-4.6-19.5Z"/>
  <path class="st1" d="M135.2,216.6c16.7-3.4,28.8,16.5,15.5,27.9l-21.8-22.8c-.3-1.8,4.7-4.7,6.3-5.1Z"/>
</svg>