<?xml version="1.0" encoding="utf-8"?>
<!-- Generator: Adobe Illustrator 12.0.0, SVG Export Plug-In  -->
<!DOCTYPE svg PUBLIC "-//W3C//DTD SVG 1.1//EN" "http://www.w3.org/Graphics/SVG/1.1/DTD/svg11.dtd" [
	<!ENTITY ns_flows "http://ns.adobe.com/Flows/1.0/">
	<!ENTITY ns_svg "http://www.w3.org/2000/svg">
	<!ENTITY ns_xlink "http://www.w3.org/1999/xlink">
]>
<svg  version="1.1" xmlns="&ns_svg;" xmlns:xlink="&ns_xlink;" xmlns:a="http://ns.adobe.com/AdobeSVGViewerExtensions/3.0/"
	 width="251" height="209" viewBox="-0.4609375 -0.9086914 251 209" enable-background="new -0.4609375 -0.9086914 251 209"
	 xml:space="preserve">
<defs>
</defs>
<path d="M245.9384766,114.4643555c0.621582-5.112793,2.5009766-10.7529297,4.0615234-14.2080078
	c-2.5742188,0-5.3564453,0.7792969-8.0527344,1.9526367c0.7197266-3.1616211,1.4912109-6.0668945,1.4912109-10.0009766
	c0-8.6269531-6.3754883-16.0029297-7.546875-28.2324219c-2.3164063,0.9638672-3.9731445,1.840332-5.6347656,3.7724609
	c-4.4438477-11.7333984-10.9736328-14.1162109-16.5126953-21.7998047c-3.0629883-4.2514648-4.4375-7.6269531-4.8774414-11.0102539
	c-2.5332031,2.1728516-3.9423828,4.5727539-5.0751953,7.6889648c-2.9672852-3.4633789-6.3193359-6.7045898-10.0024414-9.4077148
	c-4.5444336-3.3300781-9.9082031-5.4472656-14.3325195-8.956543c-2.3652344-1.8740234-4.0087891-4.4555664-6.121582-6.5683594
	c-1.2128906,2.2915039-1.5859375,4.7939453-2.0893555,7.315918c-2.7680664-2.3725586-5.9194336-4.8134766-9.3320313-6.1967773
	c-2.3188477-0.9404297-4.8168945-1.5219727-7.1655273-2.3881836c-4.0395508-1.4882813-7.9404297-3.3452148-11.4213867-5.8969727
	c-1.6069336-1.1782227-2.6782227-2.78125-3.8813477-4.3300781c-1.3959961,3.7910156-0.3208008,8.4633789,0.7456055,12.2431641
	c1.597168,5.6645508,3.6479492,11.1767578,7.168457,15.9750977c1.6040039,2.1914063,3.9160156,3.9150391,5.8955078,5.7460938
	c1.6513672,1.5288086,3.5117188,3.5698242,4.9648438,5.8325195c-6.6425781-1.0961914-13.8212891-1.574707-21.7119141-1.3818359
	c1.8291016-3.9916992,2.8569336-8.4277344,2.8569336-13.105957C139.3647461,14.1054688,125.2597656,0,107.8574219,0
	C90.4555664,0,76.3505859,14.1054688,76.3505859,31.5073242c0,6.3100586,1.8618164,12.1821289,5.0561523,17.1098633
	c-5.5849609,1.0439453-10.6787109,2.5073242-15.3393555,4.3481445c1.9741211-5.081543,5.1054688-9.6533203,6.1762695-15.362793
	c1.1054688-5.8945313,1.4067383-19.3173828-0.84375-28.4130859c-4.2202148,5.7202148-4.9702148,9.1899414-10.6904297,14.440918
	c-4.1708984,3.8295898-7.722168,7.2836914-10.9145508,11.1508789c-0.3994141-2.4238281-1.0893555-4.652832-2.1689453-6.7109375
	c-5.2958984,5.875-6.0454102,9.7192383-13.828125,16.0024414c-6.7368164,5.4370117-9.5439453,7.5229492-13.7617188,15.8828125
	c-1.4628906-2.3989258-3.0136719-4.3706055-4.5078125-5.6098633c-1.5166016,5.1992188-3.671875,10.5366211-5.8759766,14.8266602
	c-3.4550781,6.7250977-6.8188477,12.7661133-6.8188477,22.4423828c0,2.1757813,0.237793,4.8056641,0.6801758,7.3520508
	C2.4082031,98.4584961,1.2924805,98.0908203,0,97.8676758c0.4150391,3.4057617,1.3442383,5.8291016,2.4648438,12.6147461
	c1.3051758,7.9057617,3.1044922,19.097168,10.6049805,28.1640625c-2.9765625-0.8208008-6.0317383-0.8007813-10.4980469-0.4282227
	c2.25,2.1567383,7.7587891,8.4423828,10.3891602,12.9018555c3.6591797,6.2036133,8.765625,13.8256836,15.7773438,18.4091797
	c-0.3452148,0.0878906-0.6894531,0.1723633-1.0405273,0.28125c-2.9755859,0.9082031-5.3701172,2.1005859-6.9448242,3.6748047
	c11.2890625,4.4213867,19.1533203,12.6264648,29.6206055,13.8339844c-1.1391602,0.8525391-2.3139648,1.934082-3.7104492,3.4287109
	c-0.9868164,1.0551758-2.0522461,2.2416992-3.2070313,3.6391602c6.9316406,0.5976563,9.2641602-0.0585938,16.409668,2.2504883
	c11.1054688,3.5898438,17.3696289,2.1918945,23.8422852,1.559082c-1.9462891,1.840332-3.9633789,4.0288086-6.1474609,7.0151367
	c4.6230469,0.5214844,8.6108398-0.6035156,12.2431641-0.6035156s11.1704102,0.890625,16.3852539-0.5629883
	c5.6298828-1.5673828,8.8847656-2.5229492,10.862793-3.3579102c-1.2016602,1.8408203-2.4272461,4.1054688-3.7348633,7.1352539
	c6.9692383-1.9633789,15.1386719-5.7753906,20.090332-7.2646484c5.6479492-1.6992188,9.6240234-2.3466797,13.6352539-3.949707
	c4.2548828-1.7021484,7.1459961-2.4819336,10.5517578-5.0605469c1.3647461-1.0317383,2.4379883-2.0864258,3.3300781-3.2260742
	c0.8076172,0.9609375,1.1518555,1.5175781,1.1518555,2.9711914c0,1.875-0.6328125,3.387207-1.206543,5.2568359
	c8.0522461-0.1933594,18.3789063-0.3515625,29.484375-0.2666016c-1.2666016-2.7197266-0.5546875-2.7543945-4.4594727-4.4282227
	c-1.9404297-0.8320313-5.5678711-2.8920898-8.7314453-5.0834961c5.9550781,0.9375,10.6801758,1.1513672,18.7646484-1.8549805
	c9.2529297-3.4379883,10.7207031-5.6445313,16.8789063-8.0644531c3.5009766-1.3745117,6.012207-2.0161133,7.6318359-2.3208008
	c-1.5673828-2.1889648-3.0439453-3.5195313-4.6953125-4.519043c14.3647461-9.2773438,17.4003906-17.3095703,24.6103516-24.0288086
	c2.3676758-2.206543,5.0019531-4.3657227,8.0776367-6.3881836c-1.5942383-1.1074219-4.5234375-2.0625-8.8178711-2.0332031
	C245.3720703,129.0839844,244.8623047,123.3144531,245.9384766,114.4643555z"/>
<path fill="#F7DC14" d="M124.0498047,181.5405273c-20.0683594,0-37.2680664-3.2529297-51.7124023-8.6826172
	C41.6875,161.3359375,24.1391602,134.3442383,24.1391602,113.0727539c0-12.1118164,2.8920898-23.0288086,8.6269531-32.0541992
	c6.8999023-10.8569336,15.8325195-19.7597656,28.0649414-25.7680664c4.1171875-6.8164063,6.5078125-8.206543,8.5058594-17.0854492
	c0.6889648-3.0629883,1.21875-4.8759766,1.6875-7.5952148c0.6152344-3.5712891,0.46875-11.6279297-0.4057617-15.9365234
	c-1.4692383,1.2138672-1.5966797,2.902832-4.3764648,6.840332c-4.2797852,6.0629883-10.2407227,9.4731445-16.1103516,16.2446289
	c0.1401367,2.144043,0.0976563,4.4355469-0.1118164,6.9169922c-0.2436523,2.8828125-0.4868164,5.34375-0.8564453,7.5761719
	c5.7163086-5.1171875,9.9643555-12.1757813,13.0932617-15.8535156c-1.171875,5.0888672-2.921875,5.4643555-4.7353516,8.2773438
	c-2.8652344,4.4443359-5.2368164,7.6513672-8.8012695,9.8442383c-0.8183594,3.5429688-2.1635742,6.5644531-4.7514648,9.8681641
	c0.1435547-4.5219727,4.3632813-9.1166992,4.3632813-20.5561523c0-4.9702148-0.1875-7.4082031-1.3129883-11.3461914
	c-1.9692383,3.0004883-5.4384766,10.5019531-15.565918,18.472168c-7.5512695,5.9438477-8.8461914,7.5131836-10.027832,11.5
	c2.1040039,4.0341797,3.878418,8.8837891,4.8134766,13.6484375c3.6083984-7.2875977,9.8120117-17.1420898,13.1030273-21.644043
	c-3.0625,7.7167969-8.8149414,16.9194336-12.6123047,24.8969727c0.3417969,3.0957031,0.2832031,6.0639648-0.3764648,8.6210938
	c-1.9331055-3.9208984,0.871582-4.7822266-3.0625-15.6044922c-3.934082-10.8212891-4.871582-11.7592773-6.7163086-13.4360352
	c-0.6870117,5.4282227-4.5522461,10.7636719-7.2514648,16.7739258c-3.6162109,8.0571289-5.565918,15.6132813-3.0878906,24.8085938
	c1.5297852,0.9672852,3.2480469,2.1801758,5.5263672,3.6982422c1.6313477,1.0883789,3.1821289,2.3691406,4.5874023,3.7558594
	c-0.0449219-5.4907227-1.5869141-10.1645508-1.5869141-17.5405273c0-3.3754883,0.375-9.0019531,0.84375-10.8774414
	c0.8178711,4.0146484,0.9379883,5.8139648,1.5004883,14.347168c0.5112305,7.7568359,1.7128906,11.331543,0.8022461,15.7207031
	c2.1826172,2.4960938,3.8212891,5.2182617,4.4873047,7.762207c-3.0390625-1.6352539-3.1323242-5.0107422-8.0087891-9.0429688
	c-5.090332-4.2089844-7.8769531-5.4375-10.8759766-6.5576172c0.0922852,3.8378906,1.2172852,5.7133789,2.5302734,13.496582
	c1.2441406,7.3754883,4.3530273,14.0981445,7.0332031,18.7539063c1.4326172,2.4912109,3.5166016,4.9672852,5.6850586,7.2382813
	c1.3666992,0.8325195,2.8413086,1.8344727,4.5356445,3.0766602c1.9619141,1.4423828,3.3251953,2.5317383,4.5566406,3.4350586
	c-1.4785156-2.8134766-3.0737305-4.6333008-3.5874023-6.2158203c-1.1157227-3.4423828-3.8139648-5.6879883-7.9399414-12.3779297
	c-2.9594727-4.7998047-4.25-7.5014648-5.7236328-11.8798828c4.7236328,7.159668,8.8496094,14.3623047,12.4130859,19.1450195
	c2.2138672,2.9682617,4.9003906,8.6845703,7.8203125,13.2304688c1.625,0.8461914,3.6020508,1.5698242,6.8081055,2.4462891
	c-3.2822266,0-5.6694336-0.3222656-7.5576172-1.3037109c-2.3325195-1.2133789-4.5493164-3.2177734-9.0400391-5.6347656
	c-6.0947266-3.2822266-8.9082031-4.1264648-12.4711914-4.1264648c2.4375,3.0947266,4.090332,4.8881836,5.9833984,8.1171875
	s5.7866211,10.6049805,10.3325195,13.8251953c2.6723633,1.8930664,5.1166992,4.0908203,7.1176758,5.878418
	c2.253418-0.3691406,4.8061523-0.6943359,8.3544922-1.4707031c3.0004883-0.65625,5.8540039,0.0878906,9.2832031,0.5620117
	c0.4487305,0.0620117,0.8691406,0.1206055,1.2895508,0.1757813c-6.8486328-3.9848633-15.503418-5.4619141-25.5541992-13.7109375
	c-1.8959961-1.5556641-3.2802734-2.9833984-3.6572266-4.4360352c7.0112305,4.0932617,10.5742188,6.4379883,16.6699219,9.3442383
	c6.0947266,2.9072266,10.1621094,3.5488281,13.1274414,7.2207031c0.6762695,0.8378906,1.5952148,1.4301758,2.5117188,1.9956055
	c4.0234375,0.5307617,6.5439453,0.8852539,8.4506836,1.6669922c-2.9916992,0.3696289-7.2114258-1.3183594-12.5566406-1.0371094
	c-5.3447266,0.2817383-8.2338867-0.6591797-14.7216797,0.5629883c-4.9702148,0.9375-7.8769531,2.4379883-9.0019531,3.3754883
	c4.9697266,1.8754883,7.8764648,3.5629883,11.8149414,5.8139648c3.3876953,1.9370117,6.9326172,5.4589844,17.815918,5.6933594
	c1.1386719-0.3779297,2.4091797-0.7495117,3.9389648-1.1923828c4.3598633-1.2602539,8.425293-2.1391602,12.5654297-3.0947266
	c0.6162109-0.140625,1.1791992-0.2983398,1.7421875-0.4541016c-4.4360352-0.565918-8.53125-0.5742188-14.4951172-1.7021484
	c-8.8022461-1.6616211-11.6279297-2.8134766-19.1293945-3.7509766c4.1259766-0.46875,6.4702148-0.28125,16.2226563,0.9375
	c8.6411133,1.0810547,10.6591797,3.4111328,20.2695313,3.7333984c1.8310547-0.46875,3.6376953-0.7651367,5.8925781-0.4511719
	c-1.7817383,1.1254883-2.8046875,0.5947266-11.2524414,2.9067383c-8.2094727,2.2475586-10.4487305,2.7661133-15.8242188,6.2768555
	c-5.3754883,3.5102539-6.6811523,4.3017578-7.2436523,5.2392578c3.7504883-0.75,4.4663086-0.6152344,9.5649414,0.1113281
	c8.5327148,1.2192383,6.2822266,3.4697266,17.159668,3.4697266c6.3657227,0,9.09375-1.1401367,14.0224609-3.1850586
	c2.2578125-1.7817383,4.2963867-3.2143555,8.4829102-6.2856445c4.2192383-3.0947266,9.5644531-4.9702148,15.565918-5.0634766
	c-3.2822266,1.78125-8.5981445,2.3203125-14.1591797,6.0766602c-7.2207031,4.8764648-11.5341797,9.8642578-15.9414063,14.3652344
	c3.6567383-0.6567383,6.0952148-1.3129883,12.9404297-0.9375c6.8452148,0.3745117,14.9892578-1.2485352,22.4111328-4.7827148
	c1.7143555-0.8144531,2.7246094-1.8110352,4.3085938-3.0209961c0.784668-0.8061523,1.5947266-1.6469727,2.4433594-2.6054688
	c0.3579102-0.4013672,0.7192383-0.7939453,1.081543-1.1806641c-3.7529297-0.8588867-6.449707-0.4570313-10.9277344-0.2260742
	c-6.3549805,0.331543-12.5654297,2.7197266-19.5981445,6.3769531c3.8442383-4.5014648,7.7832031-7.0327148,20.3481445-8.6269531
	c5.859375-0.7412109,9.5698242-0.3017578,12.3071289,0.3310547c2.7441406-2.5493164,5.7304688-4.4365234,9.3486328-4.7587891
	c-3.4638672,2.1772461-8.1523438,4.8022461-11.8095703,9.6787109s-7.0327148,9.8461914-7.7832031,11.2524414
	c4.1259766-2.1567383,9.3994141-4.4301758,13.1269531-5.5380859c5.4003906-1.6030273,9.894043-2.2949219,15.5673828-4.5888672
	c10.7167969-4.331543,14.3544922-9.8696289,15.4335938-15.7158203c5.1699219,1.1464844,6.5004883,2.934082,12.0102539,4.5273438
	c10.1582031,2.9365234,19.644043,2.5087891,28.4726563-2.7514648c5.8789063-3.5014648,10.8481445-6.2211914,15.1616211-6.6254883
	c-3.5908203-1.9575195-9.6582031-5.409668-15.1616211-6.1391602c-3.3916016-0.4477539-7.003418-0.7617188-11.2387695-0.6303711
	c-6.0947266,3.6401367-13.0507813,6.6025391-20.9321289,8.8183594
	C156.6689453,179.3544922,141.5883789,181.5405273,124.0498047,181.5405273z"/>
<path fill="#F7DC14" d="M225.1357422,140.4628906c1.3979492-0.5302734,3.1538086-1.0727539,5.5810547-1.6821289
	c2.0224609-0.5039063,3.8681641-0.8266602,5.5605469-1.0200195c5.6420898-5.7431641,7.6621094-16.6762695,7.6621094-21.1713867
	c0-5.1279297,1.1987305-9.2514648,2.7001953-14.0942383c-1.8491211,0-5.7016602,1.8417969-9.3276367,3.8408203
	c-2.5585938,1.4125977-5.6757813,5.2514648-8.6772461,9.0839844c-1.2509766,1.6005859-2.8242188,4.4189453-3.644043,4.6186523
	c0.2524414-1.6972656,1.6342773-4.6508789,3.6240234-7.4907227c0.7993164-3.7182617,0.8789063-8.2788086,1.5698242-13.7128906
	c0.875-6.8759766,0.8764648-13.003418,1.1889648-14.628418c0.6240234,1.3759766,0.9101563,5.6308594,0.7124023,10.5024414
	c-0.2495117,6.1303711-0.8916016,8.6679688-1.8496094,15.7270508c1.0620117-1.2636719,2.2255859-2.4296875,3.4511719-3.3496094
	c1.28125-0.9614258,2.737793-1.9101563,4.2597656-2.8022461c2.5478516-3.4433594,3.1162109-7.2573242,3.1162109-11.0751953
	c0-9.8774414-4.8769531-12.3779297-7.112793-26.0981445c-2.2651367,1.7172852-4.4326172,5.1972656-7.1411133,9.9692383
	c-2.6254883,4.6254883-2.875,8.8774414-4.4291992,13.0224609c-0.168457-1.7963867-0.1318359-3.4238281,0.0439453-4.9316406
	c-0.5703125-6.2944336-2.0834961-9.2192383-4.4907227-13.8413086c-3.1254883-6.0014648-5.3769531-10.0029297-6.6025391-15.7133789
	c0.7758789,0.9155273,1.1000977,2.8349609,1.9750977,3.4599609c1.590332,1.1352539,2.5571289,6.3647461,4.8764648,9.6274414
	c3.0678711,4.3164063,3.7753906,7.8037109,5.6586914,10.84375c0.8081055-2.1157227,1.8037109-4.0112305,2.71875-5.8427734
	c0.5141602-1.0288086,0.9960938-1.9282227,1.4599609-2.7255859c-0.9370117-6.0317383-3.9438477-10.734375-7.4604492-14.5283203
	c-4.3974609-4.7451172-9.0029297-7.7519531-13.128418-16.2539063c-1.25,3.0004883-2.5014648,10.5019531-2.5014648,14.0029297
	c0,3.5014648,0.8779297,5.5014648,0.8779297,11.8681641c-1.0668945-1.7084961-1.2524414-2.9902344-1.7529297-4.7412109
	c-0.3994141-0.6416016-1.9951172-2.1035156-2.5024414-2.6499023c-1.8515625-2.0058594-3.7446289-3.8945313-5.6723633-5.8237305
	c-4.4824219-4.4794922-9.6098633-9.2529297-12.6899414-14.8544922c1.5629883,0.9394531,2.565918,2.4663086,3.8061523,3.8071289
	c0.9277344,1.003418,1.9443359,1.9438477,2.9121094,2.9106445c3.9355469,3.9384766,8.9677734,8.4956055,13.3720703,12.0576172
	c-0.4179688-3.3183594-0.5874023-6.6552734-0.2041016-9.7446289c-0.2880859-0.7573242-0.8100586-1.9433594-0.9272461-2.1630859
	c-1.0883789-2.0571289-2.4580078-3.9765625-4.0307617-5.6733398c-4.4453125-4.7998047-10.5625-7.2089844-15.9003906-10.8232422
	c-1.8969727-1.2866211-3.8920898-2.5493164-5.5234375-4.1801758c-1.0146484-1.0151367-1.8530273-2.0043945-2.9858398-2.9130859
	c-0.5449219,2.2890625-0.4526367,4.5439453-0.1494141,6.8671875c0.4995117,3.8286133,1.1967773,7.4082031,2.5375977,11.0493164
	c1.3349609,3.6206055,3.7124023,6.890625,4.5537109,10.675293c-1.7451172-1.4960938-3.1899414-3.3232422-4.4775391-5.2260742
	c-0.5336914-0.7827148-0.8583984-1.699707-1.4179688-2.4628906c-0.7573242-1.0332031-2.0644531-1.9726563-3.0605469-2.7612305
	c-5.8168945-4.6132813-13.3496094-7.5439453-17.9916992-13.5131836c2.1655273,0.8925781,4.0415039,2.2753906,5.9726563,3.5839844
	c2.7133789,1.8388672,5.5791016,3.4887695,8.3598633,5.2250977c1.703125,1.0639648,3.2539063,2.2871094,5.0009766,3.284668
	c-0.4165039-2.0888672-1.0683594-4.1567383-1.3417969-6.269043c-0.2172852-1.6542969,0.1132813-1.7583008-0.7480469-3.137207
	c-0.9375-1.5004883-2.4799805-2.8173828-3.8076172-3.9560547c-5.7539063-4.9316406-12.8955078-6.3193359-19.5571289-9.5556641
	c-2.7958984-1.3554688-4.9345703-3.2954102-7.3154297-5.2231445c-0.2773438,2.7626953,0.4101563,5.1904297,1.1196289,7.8369141
	c1.8339844,6.8378906,6.3173828,12.8862305,11.2709961,17.8398438c1.2978516,1.2963867,2.777832,2.3779297,4.0322266,3.7333984
	c1.2333984,1.3320313,2.4765625,2.7294922,3.6572266,4.1054688c0.4975586,0.5810547,1.3857422,2.1972656,2.2148438,3.4501953
	c13.5424805,2.894043,24.8808594,8.4916992,35.6171875,16.3789063
	c16.4750977,12.1020508,25.5058594,31.0380859,25.5058594,49.8852539c0,7.1269531-1.7050781,14.4321289-4.6694336,21.6640625
	c-5.2641602,12.8408203-13.7646484,23.2583008-25.8154297,30.8740234
	c4.5878906-0.2695313,10.8959961-0.3920898,14.7314453,1.0996094c1.4726563,0.5708008,2.7661133,1.0341797,3.9428711,1.4882813
	c2.0351563-0.7265625,3.9428711-1.6733398,5.734375-2.8164063c5.4199219-3.4545898,8.1489258-6.5668945,11.7026367-10.4873047
	c3.4433594-3.7978516,5.6293945-6.7490234,7.7978516-9.1606445c1.8457031-2.0537109,4.2983398-3.4985352,6.2670898-5.1865234
	c-1.7802734-0.75-5.9067383-0.6948242-11.5332031,0.0556641c-9.1879883,1.2246094-12.378418,5.1015625-16.878418,5.1958008
	c1.9819336-0.9379883,3.3457031-1.7172852,4.5107422-2.4150391c6.8046875-5.1333008,7.6577148-9.7636719,10.9609375-14.3056641
	c4.4897461-6.171875,3.3759766-8.8789063,7.2460938-13.5356445c-1.6196289,6.9072266-4.9951172,14.5961914-7.7451172,17.9716797
	C228.4311523,135.3754883,227.4624023,137.2104492,225.1357422,140.4628906z"/>
<path fill="#F7DC14" d="M172.4848633,186.8857422c-1.7407227-1.2514648-5.2099609-3.2680664-8.0961914-6.1801758
	c-0.5175781,1.9189453-1.097168,3.5688477-1.8413086,5.0371094c1.6523438,1.6552734,2.3422852,2.6811523,2.3422852,4.5185547
	c0,2.1572266-0.8642578,3.2880859,0.0830078,3.7539063c4.6054688-0.1904297,16.5141602-0.6591797,20.1713867-0.2841797
	C183.7373047,192.0429688,179.5400391,191.9580078,172.4848633,186.8857422z"/>
<path fill="#F7DC14" d="M107.4003906,36.5766602c-1.3295898,1.7802734-3.1123047,3.5273438-4.7060547,4.9853516
	c-0.9990234,0.9018555-1.7128906,1.0473633-3.0205078,0.7753906c-3.9243164-0.8623047-6.6298828-1.8867188-9.1674805-3.1586914
	C89.277832,38.5385742,89.1464844,38.25,88.7695313,37.3217773c-0.6240234-1.6572266-1.2119141-3.8320313-1.4931641-5.9550781
	c-0.1386719-1.4072266-0.0239258-1.8950195,0.7080078-2.8999023c1.7949219-2.4331055,3.6259766-4.6552734,5.5512695-6.7529297
	c0.9052734-0.9697266,1.0927734-1.1679688,2.6928711-0.925293c1.9018555,0.3310547,4.1323242,0.8623047,6.1503906,1.5561523
	c1.9580078,0.6293945,2.2158203,0.980957,2.7197266,2.5947266c0.9257813,2.8286133,1.8666992,5.8354492,2.75,8.793457
	C108.2172852,34.9746094,108.2519531,35.375,107.4003906,36.5766602z"/>
<path fill="#F7DC14" d="M128.293457,28.8623047c1.8144531,0.5561523,3.5751953,1.2099609,6.0268555,2.8325195
	c0.7587891-0.9389648,1.5698242-2.0585938,2.0117188-3.8256836c0.09375,0.9492188,0.1445313,1.9135742,0.1445313,2.8876953
	c0,16.0537109-13.0136719,29.0688477-29.0683594,29.0688477c-11.0258789,0-20.6171875-6.1401367-25.5439453-15.1860352
	c0.9316406,0.0424805,1.7270508,0.2373047,2.8637695,0.75c0.9912109-1.2983398,2.097168-3.8256836,3.0859375-4.9301758
	c0.7124023-0.7797852,0.9140625-0.9389648,1.9355469-0.4042969c2.6704102,1.3544922,5.5493164,2.4663086,9.7470703,3.3886719
	c1.4643555,0.3032227,2.0268555,0.6757813,2.6015625,1.9897461c0.6499023,1.4887695,1.2163086,3.1435547,1.6206055,4.5458984
	c0.331543,1.2353516,0.4038086,1.543457-0.2631836,2.7817383c-0.5825195,0.9794922-1.2807617,1.9130859-2.1430664,2.7749023
	c1.3154297-0.5722656,2.0131836-1.2338867,3.0112305-2.3808594c0.5522461-0.6464844,0.9677734-0.7963867,1.7519531-0.5473633
	c2.5205078,0.7421875,5.6079102,1.1796875,9.3964844,1.1796875c1.597168-1.2651367,3.7602539-3.4394531,5.6298828-5.4799805
	c0.9941406-1.1010742,1.6660156-1.3823242,2.8549805-1.1455078c1.5488281,0.277832,3.1240234,0.4179688,4.8691406,0.1367188
	c-1.7275391-0.3164063-3.2119141-0.6772461-4.6967773-1.2226563c-1.0893555-0.4321289-1.4370117-0.9770508-1.7163086-2.3378906
	c-0.2998047-1.402832-0.6606445-2.9272461-1.0029297-4.4038086c-0.2949219-1.2875977-0.203125-1.6962891,0.5058594-2.6259766
	c1.6357422-2.1826172,3.1650391-4.4936523,4.4257813-6.9990234C126.940918,28.4584961,127.2011719,28.5351563,128.293457,28.8623047
	z"/>
<path fill="#F7DC14" d="M121.6513672,16.8813477c-2.9086914-1.1049805-5.6269531-1.8461914-8.2617188-2.4829102
	c-1.1669922-0.277832-1.4716797-0.5009766-1.9980469-1.5932617c-0.6162109-1.3642578-1.027832-2.6376953-1.3071289-4.1064453
	c-0.1293945-0.7529297-0.0356445-1.1318359,0.5-1.7978516c0.6962891-0.8134766,1.4946289-1.5771484,2.2104492-2.2705078
	c-1.2607422,0.690918-2.1269531,1.199707-2.8720703,1.7089844c-0.753418,0.5566406-1.3100586,0.6523438-2.4365234,0.371582
	c-2.8676758-0.6958008-5.6323242-1.2114258-8.0537109-1.5581055c-1.6484375,1.2641602-3.6831055,3.1987305-5.4106445,5.0683594
	c-0.5024414,0.5522461-0.9375,0.7543945-2.1362305,0.6591797c-1.2114258-0.1850586-2.230957-0.5961914-3.0537109-0.8012695
	c1.2519531,0.7988281,2.5234375,1.3203125,3.1738281,1.7827148c1.0546875,0.7504883,1.0043945,1.4121094,1.2236328,2.9541016
	c0.1240234,0.9926758,0.2626953,2.2475586,0.3583984,3.3989258c0.0913086,1.3364258-0.0605469,1.8505859-0.6606445,2.4921875
	c-1.9907227,2.1542969-3.878418,4.4355469-5.7270508,6.9331055c-0.6113281,0.8349609-0.9555664,0.8833008-1.7319336,0.4291992
	c-1.6694336-1.0561523-3.0595703-2.4667969-4.4731445-3.8808594c-0.96875,1.0830078-1.4941406,1.6264648-2.3457031,2.5463867
	c1.9633789-14.1459961,14.0727539-25.046875,28.7587891-25.046875c8.8974609,0,16.8491211,4.0073242,22.1806641,10.3032227
	c-0.9423828-0.1757813-1.9731445-0.3867188-3.2817383-1.3012695c-0.4482422,1.3349609-1.309082,3.515625-2.5283203,5.4892578
	C123.171875,17.0986328,122.9560547,17.3964844,121.6513672,16.8813477z"/>
<path fill="#F7DC14" d="M113.7226563,15.6337891c2.4941406,0.6142578,5.0678711,1.3417969,7.8100586,2.4003906
	c1.440918,0.5322266,1.6992188,0.7670898,2.3632813,2.0942383c0.6791992,1.4047852,1.4204102,3.1928711,1.9692383,4.934082
	c0.4179688,1.4765625,0.5131836,1.8764648-0.0463867,3.1552734c-1.2338867,2.6630859-2.7973633,5.1040039-4.4956055,7.402832
	c-0.8364258,1.109375-1.0820313,1.4267578-2.5693359,1.1987305c-2.5571289-0.4248047-5.7929688-1.1210938-8.1166992-1.8422852
	c-1.1240234-0.3789063-1.4477539-0.6333008-1.8081055-1.8955078c-0.8476563-2.8261719-1.7431641-5.6894531-2.6279297-8.3925781
	c-0.4648438-1.4130859-0.3725586-2.078125,0.4750977-3.2788086c1.4770508-2.0263672,2.9023438-3.6640625,4.1826172-4.9707031
	C111.7924805,15.5200195,112.0888672,15.2407227,113.7226563,15.6337891z"/>
<path fill="#F7DC14" d="M206.5791016,100.5698242c-0.0693359-0.8442383-0.1484375-1.3833008-0.171875-1.8051758
	c-0.0195313-0.3515625-0.1123047-0.4951172-0.3842773-0.5756836c-1.909668-0.5639648-4.2050781-0.9262695-6.7021484-1.0371094
	c0.4140625-2.6230469,0.7329102-5.3706055,1.1713867-8.3198242c0.6865234-4.6254883,1.4702148-10.4873047,1.7319336-12.1655273
	c0.3149414-2.0244141,0.8300781-3.5058594,0.8300781-4.9121094c0-1.003418-0.1171875-1.8505859-0.8432617-1.4726563
	c-1.171875,0.609375-2.9077148,1.1723633-4.5488281,1.5942383c-0.6083984,0.1567383-0.9375,0.1884766-1.7124023,1.6787109
	c-2.0922852-1.2978516-2.9331055-1.7255859-4.8349609-1.7255859c-2.1894531,0-5.621582,1.1074219-7.9399414,4.6884766
	c-2.8129883,4.34375-2.6171875,7.4428711-4.6254883,9.3774414c-1.6879883,1.6245117-2.0625,2.0625-3.3452148,1.8120117
	c-1.2583008-0.2460938-3.046875-1.671875-1.4692383-9.1264648c0.5410156-2.5512695,0.3911133-2.0629883-0.1240234-2.3256836
	c-0.7402344-0.3764648-0.3833008,0.0454102-1.7353516,0.8251953c-1.21875,0.7036133-1.6142578,0.9951172-2.5791016,0.609375
	c-0.46875-0.1875-0.8901367-0.328125-0.3745117-2.109375c0.515625-1.7822266,0.9755859-4.1259766,0.9755859-6.0014648
	c0-2.0161133-1.387207-2.9438477-2.2885742-2.0629883c-1.96875,1.921875-3.0004883,5.5322266-3.0004883,8.0644531
	c0,2.015625,0.1875,2.2851563,0.1875,3.3286133s-0.2817383,1.8754883-1.1254883,2.5317383
	c-0.8432617,0.65625-0.3022461,0.7871094-2.1098633,1.4536133c-0.3339844,0.1225586-0.6533203,0.2573242-0.890625,0.1875
	c-0.3955078-0.1171875-0.6098633-0.6679688-0.6098633-1.78125c0-1.4067383-1.0786133-4.4077148-3.09375-4.4077148
	c-1.40625,0-2.1572266,0.9848633-2.1572266,1.9692383c0,1.4545898,0.640625,1.6157227,0.5522461,2.4658203
	c-1.5097656,0.0805664-3.0048828,0.4072266-5.0058594,1.7539063c-2.9785156,2.0029297-3.7988281,3.1411133-5.6264648,6.0483398
	c-1.6342773,2.5991211-2.5131836,2.9248047-3.8725586,2.8701172c-0.6054688-0.706543-1.0976563-4.2607422-1.0976563-4.2607422
	c-1.1411133-2.1347656-2.1870117-2.5644531-4.1962891-2.7119141c-1.9145508,1.5073242-1.7739258,3.9926758-0.4609375,6.3686523
	c1.1621094,2.105957,2.7856445,2.1875,2.7856445,4.2504883c0,1.0009766-0.1782227,2.8061523-0.7841797,4.6577148
	c-0.5952148,1.8129883-2.0551758,4.7680664-3.4057617,5.4018555c-0.4082031,0.1933594-1.1220703,0.1933594-1.4086914-0.4316406
	c-0.53125-1.1572266-0.1210938-1.3769531,0.1567383-4.5009766c0.9375-10.5961914,0.9677734-25.9438477,1.8208008-34.7202148
	c0.0419922-0.4453125-0.0761719-0.7636719-0.5083008-0.4438477c-0.7197266,0.5302734-2.1875,2.0629883-2.1875,2.0629883
	c-0.9702148,1.1557617-1.5322266,1.90625-2.6889648,3.0942383c-0.862793,0.8876953-1.0678711,0.9375-1.0942383,1.5004883
	l-1.1870117,24.0668945c-0.1723633,2.9291992-1.8354492,4.1948242-4.5249023,7.3813477
	c-0.5864258-1.0478516-1.6699219-1.5864258-2.6181641-1.5864258c-1.0454102,0-4.1884766,0.7016602-6.6381836,1.5195313
	c-0.2026367-0.3769531-0.3237305-0.5996094-0.3237305-0.9921875c0-0.46875,0.3916016-1.3510742,0.6967773-1.7963867
	c0.3041992-0.4453125,1.5019531-1.5078125,2.4379883-1.3344727c0.6557617,0.121582,1.1416016,0.5273438,1.2490234,0.9038086
	c0.0463867,0.1640625,0.234375,0.234375,0.6796875-0.0234375s0.8613281-0.5712891,2.1743164-1.1811523
	c1.3129883-0.609375,1.8710938-1.0693359,1.8710938-1.574707c0-0.284668-0.2475586-0.4326172-1.1621094-1.1357422
	c-0.824707-0.6342773-2.2050781-0.6635742-3.0473633-0.609375c-1.21875,0.0791016-3.0942383,0.7192383-4.7822266,1.9921875
	c-2.5791016,1.9458008-4.0571289,4.4018555-4.9570313,6.6347656c-0.6328125,1.5698242-0.8300781,2.4868164-2.9101563,4.1308594
	c-1.0083008,0.7944336-2.2675781,1.8027344-3.9570313,2.0664063c0.6030273-13.1157227,1.2128906-26.5087891,1.2128906-29.8676758
	c0-0.6254883,0.0229492-0.9916992-0.1445313-1.5307617c-0.2080078-0.6694336,0.019043-0.7192383-1.543457,0.8442383
	c-1.1723633,1.171875-1.7197266,1.7504883-3.0009766,3.6567383c-1.199707,1.7861328-1.2192383,1.7817383-1.3442383,3.6572266
	c-0.2001953,2.9902344-0.6977539,11.7475586-1.2158203,21.5488281c-0.8603516-0.3222656-1.3857422-0.4511719-2.2070313-0.4511719
	c-0.6166992,0-1.4907227,0.703125-1.4907227,1.4272461c0,0.703125,0.2626953,0.84375,1.5751953,1.875
	c0.6088867,0.4780273,1.2412109,1.0493164,1.8930664,1.5297852c-0.1679688,3.2211914-0.3364258,6.4672852-0.4970703,9.605957
	c-1.1420898,7.4780273-4.9052734,14.6308594-6.6850586,14.6308594c-0.2573242,0-0.4448242-0.140625-0.5620117-0.3046875
	c-0.215332-0.3017578-0.3193359-0.5859375-0.300293-1.0083008c0.4492188-9.8925781,0.737793-16.1894531,0.8129883-21.815918
	c0.0390625-2.9506836,0.0683594-4.6445313,0.074707-5.7231445c0.637207-3.769043,1.3491211-6.847168,2.5126953-10.7890625
	c0.6704102-2.2705078,0.8745117-4.6557617,0.5976563-7.0146484c-0.081543-0.6948242-0.1743164-2.0693359-0.6723633-2.6113281
	c-0.2124023-0.2666016-0.6738281-0.3222656-1.2753906-0.4936523c-1.1450195-0.3271484-2.40625,1.9853516-4.4228516,6.1113281
	c-2.015625,4.1254883-1.921875,5.1103516-2.2036133,7.6894531c-0.2905273,2.6635742-1.4487305,16.8486328-1.4956055,29.9003906
	c-0.9052734,3.2495117-2.2094727,6.3408203-3.6777344,9.7373047c-1.3554688,3.1298828-2.7568359,6.4853516-3.90625,9.9106445
	c-0.0498047,0.1464844,0.0302734,0.3076172,0.1772461,0.3574219l1.4228516,0.4775391
	c0.0703125,0.0234375,0.1479492,0.0175781,0.2148438-0.0141602c0.0664063-0.0356445,0.1162109-0.0942383,0.1416016-0.1640625
	c1.2158203-3.390625,2.5620117-6.6201172,3.8974609-9.7060547c0.722168-1.6704102,1.4228516-3.1645508,2.0683594-4.6235352
	c0.3125,1.4067383,0.8686523,2.0595703,1.7875977,2.8686523c0.7763672,0.6855469,1.5732422,1.0957031,2.269043,1.0957031
	c1.6308594,0,3.4926758-1.21875,5.300293-3.3608398c1.1943359-1.418457,2.3583984-3.2646484,3.4296875-5.3945313
	c-0.2587891,5.1601563-0.4580078,9.2333984-0.5415039,11.0644531c-0.2167969,4.7753906-0.4594727,6.6142578-0.605957,8.2724609
	c-7.8334961,3.0068359-13.4980469,3.5810547-17.7338867,3.5810547c-3.8920898,0-7.3339844-0.9614258-10.284668-2.5732422
	c-7.9985352-4.3681641-12.3950195-10.7802734-12.3950195-21.2827148c0-4.7851563,1.6640625-8.9111328,4.0107422-12.3398438
	c1.5444336-2.2592773,3.7265625-4.4272461,5.9785156-6.3178711c0.7583008,0.1289063,1.4819336,0.2050781,2.1259766,0.2050781
	c3.5634766,0,6.4702148-0.6298828,10.4145508-2.6079102c1.1826172-0.6357422,4.1669922-2.4291992,4.1054688-3.8828125
	c-0.0454102-1.0751953-0.4077148-2.2363281-1.5795898-2.887207c-0.7524414-0.4174805-2.0117188-0.6015625-4.1259766-0.0249023
	c-2.3999023,0.6552734-5.5390625,1.9365234-8.8505859,3.8500977c-0.5981445,0.3457031-1.2807617,0.7827148-2.019043,1.2861328
	c-0.9667969-0.5805664-1.8461914-1.3271484-2.5214844-2.2387695c-1.2290039-1.6606445-1.9873047-4.2041016-1.9873047-6.5483398
	c0-4.4775391,1.1889648-9.4633789,3.5634766-14.027832c2.0019531-3.8476563,5.1147461-7.3754883,8.9643555-10.2441406
	c5.2573242-3.9194336,13.6030273-6.4848633,18.7294922-6.4848633c3.1083984,0,6.5024414,0.4990234,9.5517578,1.5732422
	c2.7353516,0.9638672,5.3120117,2.3945313,7.1396484,4.2724609c0.8227539,0.8452148,1.527832,1.6894531,1.9604492,2.6899414
	c0.2817383,0.6538086,0.6118164,1.3115234,2.5566406,1.3115234c1.8847656,0,3.7587891,0.0058594,5.2509766,0.0878906
	c0.7744141,0.0424805,0.5620117-0.534668-0.0263672-1.6088867c-4.4350586-8.0976563-14.4365234-11.5527344-26.2285156-11.5527344
	c-9.2895508,0-17.0117188,2.8999023-23.0981445,7.0942383c-10.9013672,7.512207-16.5532227,17.3242188-16.5532227,24.4506836
	c0,3.9384766,1.5527344,8.5561523,3.7504883,10.7539063c1.5214844,1.5214844,3.2905273,2.6142578,5.0537109,3.378418
	c-5.1289063,4.1054688-11.2695313,10.0400391-14.6430664,15.4257813c-2.5708008,4.1020508-4.2832031,8.4746094-4.2832031,13.0136719
	c0,2.8276367,1.3662109,8.2607422,5.8476563,12.6796875c4.0888672,4.0322266,12.7192383,8.0292969,24.8417969,7.199707
	c8.1464844-0.5566406,15.3427734-2.206543,22.3579102-4.8657227c0.0673828,4.0458984,1.019043,6.0522461,2.5854492,6.0522461
	c2.1928711,0,5.5063477-3.2348633,8.0371094-10.862793c4.7822266-2.4956055,9.6601563-5.4418945,14.8754883-8.8173828
	c13.3461914-8.6352539,21.2841797-18.5751953,25.5625-29.3178711c0.5932617-1.4916992,0.9790039-3.012207,1.2436523-4.5273438
	c-2.7114258,0.6328125-5.5830078,1.7553711-8.4111328,3.1591797c-4.2583008,12.4243164-14.5361328,25.0688477-29.3051758,33.8012695
	c-0.9541016,0.5644531-1.8852539,1.0981445-2.7963867,1.605957c0.1220703-0.5009766,0.2426758-1.0117188,0.3583984-1.5415039
	c1.4067383-6.440918,1.7426758-12.9111328-0.0751953-19.6420898c-1.2705078-4.7089844-2.4477539-8.0004883-3.7387695-10.4174805
	c0.0249023-0.5449219,0.050293-1.0986328,0.0761719-1.6499023c0.8847656-0.3398438,1.8330078-0.7880859,3.128418-1.5029297
	c1.40625-0.703125,2.5849609-1.6821289,3.472168-2.4619141c1.3569336,1.2895508,3.1699219,2.1333008,5.3754883,1.4946289
	c2.1582031-0.6235352,3.1079102-1.8461914,4.8530273-0.1494141c0.0366211,1.8198242-1.0117188,4.3164063-2.5268555,5.7050781
	c-0.8745117,0.8032227-1.9882813,1.3657227-2.9882813,1.3657227s-2.0117188-1.0693359-1.8510742-2.7807617
	c0.0180664-0.1962891,0.1450195-0.3925781-0.0991211-0.5014648c-0.2104492-0.0932617-0.3886719-0.0200195-1.3125,0.3759766
	c-0.1645508,0.0703125-0.2817383,0.1171875-0.46875,0.3046875c-0.328125,0.3276367-1.03125,0.4448242-1.5004883,1.0073242
	c-0.5649414,0.6801758-1.5708008,0.8208008-1.7817383,1.3457031c-0.1782227,0.4418945,0.0219727,1.1982422,0.9692383,2.1884766
	c0.8588867,0.8969727,1.9379883,1.550293,3.3442383,1.550293c1.3442383,0,2.0366211-0.0117188,2.8754883-0.5830078
	c0,0,5.8139648-3.71875,7.7832031-6.875c0.8916016-1.4296875,1.6254883-2.3759766,2.2817383-5.2216797
	c0.4755859-2.0600586,1.7109375-3.6987305,4.0419922-6.2670898c-0.1948242,3.8818359-0.1611328,6.4135742,0.8339844,7.5800781
	c0.8896484,1.0429688,3.3857422,0.8881836,5.1264648-0.3105469c3.625-2.5024414,7.3759766-6.0024414,8.0014648-12.9414063
	c0.0712891-0.7954102,0.1337891-1.6069336,0.1791992-2.421875c1.246582-0.6743164,2.0649414-0.6064453,2.8588867-0.8598633
	c-0.7724609,5.7080078,3.0561523,9.2788086,5.6591797,9.2788086c2.5551758,0,6.8378906-2.4658203,8.4936523-5.1220703
	c2.7680664-4.4414063,3.1772461-7.9633789,2.9760742-12.0717773c0.4599609-0.4370117,0.9946289-0.8193359,2.0097656-1.1499023
	c2.2983398-0.7504883,1.9692383-1.6411133,3.3759766-1.6411133c0.8334961,0,1.3452148,0.703125,3.5253906,1.2553711
	c-0.8056641,2.3178711-2.1025391,4.3725586-2.1025391,7.3554688c0,2,1.2807617,3.6860352,3.625,3.6860352
	c4.684082,0,6.746582-5.5385742,9.8164063-8.4350586c0.2817383,1.5532227,0.9042969,2.9013672,1.9472656,4.1494141
	c0,0,1.8613281,1.2631836,3.3579102,1.2631836c3.8095703,0,6.2895508-2.4584961,9.1269531-6.6254883
	c-0.4672852,4.2636719-0.8979492,8.3012695-1.4365234,11.8837891c-11.2314453,0.4355469-20.1738281,2.6240234-26.5932617,5.6938477
	c-7.1904297,3.4384766-15.6298828,11.0776367-15.6298828,17.2666016c0,4.6884766,5.1889648,7.8271484,12.1904297,7.8271484
	c7.4707031,0,17.5683594-3.5693359,25.3305664-10.6318359c6.4418945-5.8603516,8.6870117-11.4018555,9.9174805-17.5771484
	c2.4624023,0.171875,4.6884766,0.4892578,7.0078125,1.0507813
	C206.4550781,100.965332,206.609375,100.9199219,206.5791016,100.5698242z M86.2529297,98.5390625
	c0.0795898-1.6733398,0.6157227-4.2382813,1.8066406-5.8300781c0.375-0.5009766,0.7421875-0.3208008,0.6982422,0.4560547
	c-0.0576172,1.0048828-0.5732422,3.6308594-1.4394531,6.3457031c-0.2041016,0.6386719-0.4956055,1.3535156-0.8535156,2.4189453
	C86.2900391,100.9067383,86.1870117,99.9179688,86.2529297,98.5390625z M70.6494141,107.2353516
	c0.9873047-0.5004883,2.2128906-0.4858398,2.5883789-0.1108398c0.4838867,0.4833984,0.4594727,1.1806641-0.1972656,1.7431641
	c-1.3129883,1.1254883-3.7036133,1.7202148-6.0166016,1.7202148c-0.4750977,0-0.9829102-0.0615234-1.4980469-0.1552734
	C67.6137695,108.9526367,69.4912109,107.824707,70.6494141,107.2353516z M103.3442383,135.53125
	c0,8.5947266-0.8774414,12.1113281-3.5444336,13.1337891c-0.5019531-2.1948242-0.3779297-5.1811523-0.1186523-12.6972656
	c0.1196289-3.4726563,0.3813477-9.371582,0.6860352-16.0615234
	C102.0776367,124.0415039,103.3442383,129.6762695,103.3442383,135.53125z M158.3886719,89.4575195
	c-0.1870117,3.4394531-2.2470703,6.7138672-4.9204102,6.7138672c-2.7685547,0-3.7695313-2.7280273-3.7695313-5.8696289
	c0-1.9355469,1.3027344-4.3149414,2.9052734-5.7202148c0.9990234-0.8759766,2.0336914-1.199707,3.0493164-1.199707
	C157.6376953,83.3818359,158.621582,85.1777344,158.3886719,89.4575195z M191.1850586,107.3144531
	c-1.9541016,4.609375-4.9082031,8.4570313-10.1591797,11.8505859c-9.4272461,6.0922852-17.0268555,6.581543-21.949707,4.3779297
	c-3.5224609-1.5761719-3.9135742-5.3920898-1.5947266-8.7680664c3.1884766-4.6411133,8.8925781-9.6469727,18.6669922-12.8232422
	c4.4433594-1.4433594,9.6049805-2.3662109,15.4663086-2.3662109c0.5727539,0,1.0932617,0.0068359,1.6362305,0.0097656
	C192.7163086,102.6166992,192.0644531,105.2436523,191.1850586,107.3144531z M191.7080078,84.909668
	c-1.40625,0.7973633-4.7822266,1.6411133-4.6884766-3.7973633c0.09375-5.4389648,2.3911133-6.4233398,3.9384766-6.4233398
	c0.7973633,0,1.2749023,0.1289063,1.7856445,0.4863281c0.512207,0.3574219,0.4770508,0.7856445,0.8222656,0.9702148
	c0.2387695,0.1274414,0.9570313,0.1450195,1.5668945,0.1904297
	C195.8457031,81.9575195,193.0410156,84.1542969,191.7080078,84.909668z"/>
<path d="M96.1552734,184.3535156c-7.4082031,0-22.3178711,5.3452148-29.4179688,5.7792969
	c7.3818359,0.784668,13.0839844-0.1264648,17.9780273-1.184082c6.9389648-1.5009766,7.9702148-0.65625,13.9716797-3.5634766
	C98.2182617,184.6352539,96.9990234,184.3535156,96.1552734,184.3535156z"/>
<path d="M134.5913086,194.1645508c0.7602539-2.3095703,3.5102539-4.0820313,6.1992188-6.2480469
	c3.8447266-3.09375,7.7827148-3.8818359,11.2705078-4.6879883c3.4130859-0.7880859,4.9516602-1.8754883,6.0458984-2.7255859
	c-0.6254883,1.2250977-2.9697266,3.9443359-6.5327148,5.0698242c-3.5634766,1.1254883-7.2670898,2.5380859-10.3378906,4.4101563
	C138.1650391,191.8549805,137.6757813,193.0043945,134.5913086,194.1645508z"/>
<path d="M204.1650391,173.112793c-2.4228516,2.7080078-6.5527344,3.5283203-10.2998047,3.9267578
	c-4.4082031,0.4692383-4.5014648-0.09375-9.6586914-0.09375c-2.5317383,0-7.3134766,1.2192383-12.659668,1.78125
	c0.9379883-1.0307617,2.3920898-1.4648438,4.4082031-2.0629883c1.5825195-0.46875,3.4516602-1.0371094,5.1572266-1.21875
	c4.4067383-0.46875,8.1577148-0.28125,12.0957031-0.28125C198.5537109,175.1640625,201.8056641,173.5932617,204.1650391,173.112793z
	"/>
<path d="M216.9897461,155.059082c-1.7094727,0.9873047-3.2290039,1.5-4.328125,3.2114258
	c1.0063477,0.1264648,2.4672852,0.3491211,3.4331055-0.1489258c1.0488281-0.5454102,2.0791016-1.7617188,3.059082-2.4648438
	c2.3955078-1.7084961,5.7495117-4.4042969,7.7182617-6.5610352
	C224.0678711,150.8481445,219.855957,153.4121094,216.9897461,155.059082z"/>
</svg>
