<?xml version="1.0" encoding="utf-8"?>
<!-- Generator: Adobe Illustrator 13.0.0, SVG Export Plug-In . SVG Version: 6.00 Build 14948)  -->
<!DOCTYPE svg PUBLIC "-//W3C//DTD SVG 1.0//EN" "http://www.w3.org/TR/2001/REC-SVG-20010904/DTD/svg10.dtd">
<svg version="1.0" id="Ebene_1" xmlns="http://www.w3.org/2000/svg" xmlns:xlink="http://www.w3.org/1999/xlink" x="0px" y="0px"
	 width="268.452px" height="340.706px" viewBox="0 0 268.452 340.706" enable-background="new 0 0 268.452 340.706"
	 xml:space="preserve">
<g>
	<path fill-rule="evenodd" clip-rule="evenodd" fill="#182F85" stroke="#182F85" stroke-width="0.108" d="M134.226,340.65
		c-0.108,0.036-1.728-0.504-1.836-0.504l-4.428-0.937c-1.512-0.288-3.096-0.72-4.608-1.008l-11.052-2.952l-8.784-3.096l-9.864-3.996
		l-7.813-3.492l-7.2-3.6l-6.732-3.564l-6.984-4.104l-5.939-3.42l-7.813-5.22l-7.74-5.544l-5.796-4.932l-4.968-4.716l-5.796-5.76
		l-6.48-7.236l-4.788-6.408l-5.508-7.416l-4.716-7.38l-3.924-6.444c-1.116-1.836-1.044-3.815-1.044-5.256L0.054,31.59l13.896-6.696
		c9.792-4.716,9.936-4.5,20.592-8.136c12.492-4.284,12.6-3.996,26.64-7.956c6.12-1.332,12.24-2.628,18.324-3.924
		c4.104-0.72,8.208-1.368,12.313-2.016c5.472-0.684,10.908-1.332,16.344-1.98c4.824-0.288,9.576-0.54,14.328-0.828
		c8.784,0,17.496,0,26.315,0c7.2,0.612,14.4,1.188,21.637,1.836c4.571,0.648,9.18,1.296,13.788,1.944
		c3.6,0.648,7.164,1.296,10.8,2.016c5.112,1.296,10.188,2.592,15.336,3.924c6.588,1.944,13.176,3.96,19.836,5.94
		c10.8,3.996,10.8,3.996,20.34,7.92l17.82,8.532l0.036,211.5c0,1.26-0.648,2.988-1.44,4.644l-2.412,4.356l-3.312,4.824l-4.464,6.552
		l-4.716,6.012l-5.868,6.768l-6.084,6.444l-6.408,6.372l-6.192,5.94l-5.22,4.068l-5.185,3.924l-5.292,3.6l-5.472,3.384l-6.12,3.42
		l-6.048,3.348l-12.348,6.228l-17.46,7.561l-8.496,3.384l-7.956,2.448c-1.44,0.468-3.78,0.936-6.012,1.512s-4.392,1.224-5.796,1.656
		L134.226,340.65z"/>
	<path fill-rule="evenodd" clip-rule="evenodd" fill="#FFFFFF" d="M134.226,334.89c-0.108,0.036-1.692-0.504-1.764-0.504l-4.284-0.9
		c-1.439-0.288-2.988-0.72-4.428-0.972l-10.656-2.88l-8.496-2.987l-9.504-3.853l-7.523-3.42l-6.912-3.456l-6.48-3.492l-6.768-3.924
		l-5.724-3.312l-7.524-5.076l-7.488-5.364l-5.58-4.788l-4.752-4.572l-5.616-5.58l-6.228-7.02l-4.644-6.156l-5.292-7.2L9.99,252.27
		l-3.744-6.228c-1.08-1.764-1.008-3.672-1.044-5.112L4.878,35.586l13.392-6.444c9.468-4.572,9.576-4.392,19.836-7.92
		c12.06-4.14,12.132-3.852,25.704-7.668c5.904-1.296,11.808-2.556,17.676-3.816C85.41,9.054,89.37,8.442,93.33,7.794
		c5.256-0.648,10.548-1.296,15.768-1.908c4.645-0.288,9.216-0.54,13.824-0.828c8.46,0,16.848,0,25.344,0
		c6.948,0.576,13.932,1.188,20.88,1.8c4.392,0.648,8.856,1.26,13.32,1.872c3.42,0.648,6.876,1.26,10.404,1.944
		c4.896,1.26,9.792,2.52,14.76,3.816c6.336,1.872,12.708,3.816,19.116,5.76c10.404,3.852,10.404,3.852,19.62,7.668l17.208,8.28
		v204.768c0,1.225-0.612,2.88-1.404,4.5l-2.304,4.212l-3.204,4.644l-4.284,6.372l-4.572,5.832l-5.616,6.552l-5.868,6.228
		l-6.229,6.156l-5.939,5.76l-5.04,3.96l-5.004,3.78l-5.112,3.492l-5.256,3.276l-5.904,3.312l-5.832,3.24l-11.88,6.048l-16.848,7.308
		l-8.208,3.276l-7.668,2.376c-1.404,0.432-3.636,0.9-5.796,1.476c-2.16,0.54-4.212,1.152-5.58,1.584L134.226,334.89z"/>
	<path fill-rule="evenodd" clip-rule="evenodd" fill="#F5AC0E" d="M134.01,330.606c-0.144,0.036-1.656-0.468-1.728-0.504l-4.104-0.9
		c-1.404-0.252-2.916-0.648-4.284-0.9l-10.296-2.808l-8.136-2.916l-9.18-3.78l-7.236-3.312l-6.696-3.384l-6.228-3.384l-6.516-3.852
		l-5.508-3.24l-7.236-4.896l-7.2-5.256l-5.4-4.68l-4.572-4.428l-5.4-5.436l-6.012-6.84l-4.464-6.048l-5.112-6.984l-4.392-6.984
		l-3.636-6.084c-1.008-1.728-0.972-3.6-0.972-4.968L9.342,38.826l12.924-6.3c9.108-4.428,9.216-4.248,19.152-7.704
		c11.592-4.032,11.664-3.744,24.732-7.488c5.688-1.26,11.376-2.484,17.027-3.708c3.78-0.648,7.596-1.26,11.412-1.872
		c5.076-0.648,10.152-1.296,15.192-1.908c4.464-0.252,8.892-0.504,13.32-0.756c8.136,0,16.236,0,24.408,0
		c6.696,0.54,13.393,1.116,20.088,1.728c4.248,0.612,8.568,1.224,12.853,1.836c3.312,0.612,6.66,1.224,10.008,1.908
		c4.716,1.224,9.468,2.448,14.22,3.708c6.156,1.836,12.276,3.708,18.433,5.616c10.044,3.744,10.044,3.744,18.936,7.488l16.524,8.028
		v199.62c0,1.188-0.576,2.808-1.296,4.392l-2.268,4.14l-3.06,4.5l-4.141,6.228l-4.392,5.652l-5.436,6.408l-5.652,6.084l-5.976,6.013
		l-5.724,5.58l-4.86,3.852l-4.824,3.708l-4.933,3.384l-5.04,3.24l-5.724,3.204l-5.58,3.168l-11.484,5.868l-16.2,7.164l-7.884,3.168
		l-7.416,2.304c-1.332,0.432-3.492,0.9-5.58,1.44c-2.088,0.54-4.068,1.152-5.4,1.548L134.01,330.606z"/>
	<polygon fill-rule="evenodd" clip-rule="evenodd" fill="#FFFFFF" points="159.75,314.91 150.066,318.87 139.914,322.038 
		139.806,126.666 149.778,127.062 159.714,127.782 	"/>
	<path fill-rule="evenodd" clip-rule="evenodd" fill="#FFFFFF" d="M116.046,79.29c-26.1-0.828-26.1-0.828-45.252-1.764
		c-8.532-0.612-17.064-1.224-25.632-1.872c-18.72-1.872-18.72-1.872-29.52-3.312c0-10.8,0-21.6,0.036-32.4
		c7.992-3.744,7.992-3.744,21.276-9.324c5.22-1.836,10.44-3.744,15.624-5.616c4.356-1.224,8.712-2.448,13.104-3.708
		c5.328-1.224,10.692-2.448,16.056-3.744c11.448-1.872,11.448-1.872,26.136-3.744c4.104-0.324,8.244-0.612,12.384-0.936
		c5.22-0.036,10.44-0.108,15.624-0.216c5.868,0.324,11.808,0.612,17.712,0.936c3.42,0.288,6.804,0.612,10.225,0.9
		c4.607,0.612,9.216,1.224,13.788,1.908c3.24,0.612,6.552,1.224,9.828,1.872c5.112,1.224,10.224,2.448,15.372,3.708
		c6.3,1.836,12.601,3.744,18.9,5.616c6.444,2.448,12.852,4.932,19.332,7.452c3.744,1.692,7.488,3.456,11.268,5.184
		c0,10.512,0,21.06,0,31.608c-6.804,1.008-6.804,1.008-33.408,3.816c-26.136,1.872-26.136,1.872-44.352,2.808
		c-7.308,0.216-14.616,0.432-21.924,0.684C140.454,79.182,128.286,79.254,116.046,79.29z"/>
	<path fill-rule="evenodd" clip-rule="evenodd" fill="#FFFFFF" d="M25.83,132.966c-3.42-2.628-6.876-5.256-10.332-7.884
		c0-14.976,0-29.952,0-44.964c1.476-0.036,19.44,1.836,41.58,3.708c7.74,0.432,15.552,0.936,23.328,1.404
		c10.872,0.324,21.744,0.612,32.652,0.936c11.052,0.036,22.068,0.108,33.12,0.216c10.548-0.324,21.132-0.612,31.716-0.936
		c9.936-0.612,19.872-1.224,29.88-1.872c7.38-0.612,14.796-1.224,22.176-1.836c6.624-0.72,13.212-1.404,19.836-2.088
		c0.828,0,1.692,0,2.592,0.036c0,14.472,0.036,28.98,0.072,43.452c-0.252,0.396-0.54,0.828-0.828,1.296
		c-3.492,2.7-7.02,5.4-10.512,8.172c-0.504,0-1.044,0-1.62,0c-17.496-3.78-17.496-3.78-27.756-5.616
		c-12.601-1.872-12.601-1.872-27.54-3.744c-22.141-1.836-22.141-1.836-33.336-2.556c-12.204,0-24.408,0-36.612,0
		c-16.812,0.936-16.812,0.936-27.288,1.836c-5.184,0.612-10.404,1.224-15.66,1.908c-22.355,3.708-22.355,3.708-31.968,5.58
		C27.486,132.822,27.486,132.822,25.83,132.966z"/>
	<path fill-rule="evenodd" clip-rule="evenodd" fill="#F5AC0E" d="M124.974,73.566c-5.04-0.252-10.08-0.504-15.12-0.756
		c-1.368-0.468-1.368-0.468-2.124-0.972c-0.144-0.396-0.324-0.792-0.504-1.188c0.684-33.769,0.684-33.769,1.116-46.584
		c0.145-0.468,0.324-0.9,0.468-1.368c0.324-0.324,0.648-0.648,0.972-0.972c0.72-0.288,0.72-0.288,2.988-0.288
		c0.288,0.144,0.576,0.288,0.9,0.468c0.252,0.324,0.504,0.648,0.792,1.008c0.072,0.36,0.144,0.756,0.216,1.152
		c-0.216,13.932-0.432,27.899-0.684,41.868c0.108,0.216,0.18,0.468,0.288,0.72c1.439,0.288,1.439,0.288,11.376,0.756
		c0.647,0.144,1.332,0.288,2.016,0.432c0.396,0.324,0.756,0.648,1.152,0.936c0.324,0.756,0.324,0.756,0.324,2.124
		c-0.252,0.864-0.252,0.864-0.685,1.548c-0.396,0.252-0.828,0.504-1.224,0.792C126.486,73.35,125.73,73.458,124.974,73.566z"/>
	<path fill-rule="evenodd" clip-rule="evenodd" fill="#F5AC0E" d="M139.374,73.386c-1.8-0.36-1.8-0.36-3.024-0.936
		c-0.612-0.612-0.612-0.612-1.116-1.548c0-1.044,0-2.124,0-3.168c0.611-3.061,1.188-6.156,1.764-9.252
		c0.612-2.304,1.188-4.608,1.8-6.948c1.224-3.6,2.412-7.2,3.636-10.836c3.6-8.316,3.6-8.316,5.868-13.032
		c-0.036-0.324-0.036-0.648-0.072-0.972c-2.484-0.18-5.004-0.36-7.488-0.54c-0.612-0.144-1.188-0.288-1.8-0.432
		c-0.396-0.504-0.828-0.972-1.26-1.476c0-0.576,0-1.188,0-1.8c0.432-1.116,0.432-1.116,0.936-1.62
		c0.396-0.18,0.792-0.324,1.188-0.504c1.152-0.072,2.269-0.144,3.42-0.252c3.276,0.18,6.588,0.324,9.936,0.468
		c2.016,0.468,2.016,0.468,2.916,0.9c0.324,0.504,0.684,0.972,1.008,1.476c0,0.684,0,1.332,0,2.016
		c-3.024,6.768-6.012,13.536-9.036,20.268c-1.188,3.672-2.412,7.38-3.6,11.052c-0.684,2.844-1.332,5.688-2.016,8.568
		c0,0.576,0,1.188,0,1.8c0.072,0.072,0.18,0.18,0.252,0.252c9.576,0.072,9.576,0.072,11.808,0.288
		c1.116,0.432,1.116,0.432,1.656,0.972c0.144,0.468,0.324,0.9,0.504,1.404c0,0.54,0,1.044,0,1.584
		c-0.145,0.288-0.324,0.612-0.468,0.9c-0.468,0.324-0.972,0.684-1.44,1.008C149.634,73.134,144.486,73.242,139.374,73.386z"/>
	<path fill-rule="evenodd" clip-rule="evenodd" fill="#F5AC0E" d="M167.598,72.918c-3.168-0.792-3.168-0.792-4.067-1.26
		c-0.648-0.684-1.26-1.404-1.944-2.124c-0.864-1.8-0.864-1.8-1.116-2.916c0.685-40.32,0.685-40.32,0.937-43.02
		c0.216-0.396,0.432-0.792,0.72-1.188c0.72-0.504,0.72-0.504,1.404-0.72c1.224,0,2.412,0,3.636,0c6.084,0.864,6.084,0.864,10.8,1.8
		c0.9,0.288,1.8,0.576,2.736,0.864c0.504,0.504,0.504,0.504,1.008,1.692c0,0.468,0,0.9,0,1.368c-0.144,0.36-0.288,0.756-0.432,1.116
		c-0.433,0.36-0.828,0.684-1.26,1.044c-0.504,0.036-1.044,0.108-1.584,0.18c-2.772-0.432-5.58-0.864-8.352-1.332
		c-0.864,0-1.692,0.036-2.556,0.072c-0.072,0.54-0.181,1.08-0.252,1.62c0,3.852,0.036,7.668,0.036,11.556
		c0.18,0.072,0.36,0.144,0.504,0.252c1.872,0.072,3.78,0.145,5.652,0.252c0.685,0.145,1.368,0.288,2.016,0.433
		c0.684,0.468,0.684,0.468,1.476,1.691c0,0.685,0,1.368,0,2.052c-0.432,0.9-0.432,0.9-0.936,1.368
		c-0.396,0.18-0.792,0.36-1.188,0.54c-2.484,0.036-4.968,0.145-7.452,0.216c-0.072,0.072-0.18,0.18-0.288,0.288
		c-0.107,4.968-0.18,9.936-0.288,14.94c0.072,0.576,0.145,1.188,0.216,1.8c0.18,0.252,0.396,0.504,0.576,0.756
		c0.433,0.18,0.9,0.324,1.368,0.468c3.456-0.072,6.876-0.144,10.368-0.252c0.396,0.216,0.828,0.396,1.26,0.576
		c0.36,0.468,0.72,0.9,1.116,1.368c0,0.684,0,1.332,0,2.016c-0.144,0.324-0.288,0.612-0.432,0.9
		c-0.504,0.324-1.008,0.684-1.477,1.008c-1.224,0.144-2.412,0.324-3.636,0.468C173.322,72.846,170.442,72.882,167.598,72.918z"/>
	<path fill-rule="evenodd" clip-rule="evenodd" fill="#F5AC0E" d="M98.55,72.702c-0.252-0.216-0.504-0.432-0.756-0.648
		c-0.324-0.756-0.612-1.512-0.936-2.304c-0.612-2.664-1.224-5.4-1.836-8.1c-1.8-5.832-1.8-5.832-3.6-10.8
		c-0.36-0.684-0.792-1.404-1.188-2.088c-0.181-0.036-0.324-0.036-0.504-0.072c-0.828,0.612-1.692,1.224-2.556,1.872
		c-0.072,0.216-0.144,0.468-0.252,0.72c-0.144,5.796-0.288,11.592-0.468,17.352c-0.432,1.584-0.432,1.584-0.972,2.304
		c-0.504,0.216-1.08,0.468-1.62,0.72c-0.576,0-1.188,0-1.8,0c-0.9-0.432-0.9-0.432-1.656-1.152c-0.18-0.647-0.324-1.26-0.504-1.872
		c0.216-17.1,0.216-17.1,0.899-39.42c0.468-2.016,0.468-2.016,0.937-2.916c0.54-0.324,1.116-0.684,1.691-1.008
		c3.672-0.612,7.38-1.188,11.052-1.8c0.54,0,1.044,0,1.584,0c0.504,0.144,1.044,0.288,1.584,0.432
		c1.584,1.116,1.584,1.116,2.735,2.304c0.324,0.54,0.648,1.08,0.972,1.62c0.144,0.54,0.288,1.08,0.468,1.62c0,1.116,0,2.232,0,3.349
		c-0.18,0.756-0.324,1.512-0.468,2.268c-0.576,1.26-1.188,2.556-1.8,3.816c-2.016,2.7-2.016,2.7-3.852,4.716
		c0,0.396,0,0.756,0,1.152c1.836,3.816,1.836,3.816,3.636,8.316c1.8,5.652,1.8,5.652,2.7,9.468c0.288,1.8,0.576,3.6,0.9,5.4
		c0,0.9,0,1.8,0,2.7c-0.181,0.36-0.36,0.684-0.576,1.008c-0.432,0.324-0.864,0.612-1.332,0.9
		C100.206,72.594,99.378,72.666,98.55,72.702z"/>
	<path fill-rule="evenodd" clip-rule="evenodd" fill="#F5AC0E" d="M187.038,72.018c-0.936-0.792-0.936-0.792-1.512-1.584
		c-0.181-0.9-0.181-0.9-0.181-41.652c0.036-0.36,0.108-0.756,0.181-1.116c0.396-0.468,0.792-0.936,1.188-1.44
		c0.756-0.252,0.756-0.252,3.024-0.252c0.899,0.432,0.899,0.432,1.404,0.936c0.144,0.396,0.324,0.792,0.504,1.188
		c0.072,11.7,0.144,23.4,0.216,35.136c-0.036,2.088-0.145,4.176-0.216,6.3c-0.144,0.36-0.288,0.756-0.432,1.116
		c-0.504,0.396-1.008,0.828-1.476,1.224C188.838,71.946,187.938,71.982,187.038,72.018z"/>
	<path fill-rule="evenodd" clip-rule="evenodd" fill="#F5AC0E" d="M70.326,71.766c-0.396-0.252-0.792-0.54-1.188-0.828
		c-0.216-0.468-0.468-0.936-0.756-1.404c-0.432-4.572-0.864-9.144-1.332-13.716c-0.107-0.18-0.18-0.36-0.288-0.54
		c-3.023,0-6.048-0.036-9.072-0.036c-0.324,0.252-0.324,0.252-0.828,2.592c-0.288,3.204-0.576,6.408-0.864,9.684
		c-0.18,0.432-0.324,0.864-0.468,1.332c-0.972,0.972-0.972,0.972-1.908,1.476c-0.504,0-1.044,0-1.584,0
		c-0.54-0.324-1.08-0.648-1.656-0.972c-0.216-0.468-0.468-0.936-0.72-1.404c0-1.8,0-3.6,0-5.4c0.288-2.664,0.576-5.4,0.9-8.1
		c0.576-3.168,1.188-6.3,1.8-9.468c1.8-7.2,1.8-7.2,2.7-9.9c1.044-1.908,1.044-1.908,2.124-3.204c0.9-0.324,1.836-0.648,2.772-0.972
		c1.476-0.288,2.988-0.576,4.5-0.9c1.584,0,1.584,0,2.808,0.324c0.36,0.468,0.756,0.9,1.116,1.368c1.8,5.832,1.8,5.832,3.636,13.284
		c0.576,3.06,1.188,6.156,1.8,9.252c0.288,2.52,0.611,5.076,0.899,7.668c0,2.376,0,4.788,0,7.2c-0.144,0.36-0.288,0.72-0.468,1.116
		c-1.44,1.224-1.44,1.224-2.124,1.44C71.55,71.694,70.938,71.73,70.326,71.766z"/>
	<path fill-rule="evenodd" clip-rule="evenodd" fill="#F5AC0E" d="M202.158,70.65c-1.008-0.432-2.052-0.9-3.061-1.332
		c-0.899-1.152-0.899-1.152-1.836-2.952c-0.432-3.6-0.432-3.6-0.432-5.832c0.144-0.54,0.288-1.08,0.432-1.584
		c0.576-0.396,1.152-0.828,1.729-1.224c0.756,0,1.476,0,2.231,0c0.324,0.144,0.612,0.288,0.937,0.432
		c0.324,0.504,0.647,0.972,0.972,1.476c0.072,1.404,0.18,2.808,0.252,4.248c0.072,0.108,0.18,0.18,0.288,0.288
		c1.8,0.036,3.636,0.036,5.472,0.072c0.54-0.144,1.044-0.288,1.584-0.432c0.18-0.288,0.36-0.54,0.54-0.792
		c0.252-1.116,0.252-1.116,0.252-3.852c-0.144-0.684-0.288-1.332-0.468-2.016c-0.899-1.8-0.899-1.8-2.7-4.284
		c-1.944-2.16-3.924-4.356-5.868-6.516c-0.648-0.936-1.296-1.872-1.908-2.844c-0.36-0.684-0.684-1.404-1.044-2.124
		c-0.18-1.044-0.433-2.088-0.648-3.168c0-0.864,0-1.764,0-2.664c0.145-0.612,0.288-1.188,0.432-1.836
		c0.396-0.576,0.756-1.152,1.152-1.8c0.468-0.432,0.937-0.9,1.404-1.404c0.972-0.504,0.972-0.504,2.52-0.936
		c0.684,0,1.368,0,2.052,0c6.084,1.8,6.084,1.8,8.136,2.664c0.216,0.18,0.468,0.36,0.72,0.504c0.145,0.324,0.324,0.648,0.504,0.972
		c0,0.612,0,1.188,0,1.836c-0.144,0.288-0.288,0.576-0.468,0.864c-0.756,0.576-0.756,0.576-1.908,1.008
		c-2.016-0.216-2.016-0.216-6.336-1.332c-0.432,0-0.864,0-1.332,0c-0.18,0.252-0.396,0.54-0.576,0.792c0,0.468,0,0.9,0,1.332
		c0.288,0.685,0.576,1.368,0.9,2.052c4.284,5.4,4.284,5.4,9.504,11.484c0.9,1.584,0.9,1.584,1.8,4.284
		c0.145,0.972,0.288,1.944,0.433,2.916c0,1.656,0,3.312,0,4.932c-0.145,0.685-0.288,1.368-0.433,2.052
		c-0.288,0.504-0.612,1.044-0.899,1.584c-2.16,1.872-2.16,1.872-3.061,2.34c-1.044,0.216-2.088,0.468-3.168,0.684
		C207.558,70.578,204.858,70.614,202.158,70.65z"/>
	<path fill-rule="evenodd" clip-rule="evenodd" fill="#F5AC0E" d="M36.018,69.318c-1.224-0.288-2.412-0.54-3.636-0.792
		c-1.044-0.612-2.124-1.224-3.204-1.872c-0.972-1.404-0.972-1.404-1.872-3.204c-0.216-1.116-0.216-1.116-0.216-12.816
		c0.145-1.152,0.288-2.268,0.432-3.384c0.324-0.9,0.612-1.8,0.936-2.7c0.288-0.468,0.576-0.9,0.864-1.368
		c2.16-1.908,2.16-1.908,3.96-3.06c3.852-1.8,3.852-1.8,7.236-3.132c1.116,0,2.232,0,3.384,0c0.252,0.144,0.468,0.324,0.72,0.504
		c0.504,0.972,0.504,0.972,0.756,1.872c0,1.872,0,3.744,0,5.616c-0.144,0.432-0.288,0.899-0.468,1.368
		c-1.224,1.008-1.224,1.008-1.908,1.224c-0.504,0-1.044,0-1.584,0c-0.432-0.144-0.864-0.288-1.332-0.468
		c-0.18-0.145-0.36-0.324-0.54-0.504c-0.288-1.404-0.288-1.404-0.576-1.908c-0.216,0-0.468-0.036-0.72-0.036
		c-0.648,0.324-1.26,0.648-1.908,1.008c-0.504,0.432-1.008,0.828-1.512,1.296c-0.504,0.937-0.504,0.937-0.972,2.521
		c-0.216,1.8-0.216,1.8-0.216,11.052c0.144,0.432,0.288,0.9,0.432,1.368c0.396,0.252,0.828,0.504,1.26,0.756
		c1.044,0.072,2.088,0.144,3.168,0.216c0.36-0.144,0.756-0.324,1.152-0.504c0.54-0.828,1.08-1.656,1.656-2.52
		c0.792-0.576,0.792-0.576,1.476-0.792c0.576,0.036,1.188,0.144,1.8,0.216c0.432,0.216,0.9,0.468,1.368,0.684
		c0.144,0.252,0.36,0.504,0.54,0.792c0.072,0.36,0.144,0.756,0.216,1.152c-0.9,2.664-0.9,2.664-1.8,4.248
		c-0.684,0.647-1.404,1.296-2.124,1.908c-0.9,0.36-1.8,0.756-2.7,1.152C38.718,69.21,37.35,69.246,36.018,69.318z"/>
	<path fill-rule="evenodd" clip-rule="evenodd" fill="#F5AC0E" d="M228.114,68.85c-2.269-0.792-2.269-0.792-3.924-1.764
		c-0.612-0.828-0.612-0.828-1.368-2.736c0-4.248,0-4.248,0.18-5.184c0.324-0.324,0.648-0.612,1.008-0.936
		c0.36-0.18,0.756-0.36,1.152-0.504c0.468,0,0.9,0,1.368,0c0.36,0.144,0.756,0.288,1.116,0.432c0.684,0.684,0.684,0.684,1.224,1.692
		c0.072,0.612,0.18,1.188,0.252,1.8c0.252,0.18,0.54,0.36,0.792,0.54c3.6-0.18,3.6-0.18,4.284-0.433
		c0.107-0.072,0.18-0.18,0.288-0.288c0-0.684,0.036-1.368,0.072-2.052c-0.324-0.612-0.612-1.188-0.936-1.8
		c-2.124-2.376-2.124-2.376-6.192-6.228c-0.647-0.828-1.26-1.692-1.908-2.592c-0.396-1.008-0.756-2.088-1.152-3.132
		c0-1.116,0-2.268,0-3.384c0.288-0.828,0.612-1.656,0.9-2.484c0.936-1.116,0.936-1.116,2.16-2.16
		c0.36-0.144,0.756-0.288,1.152-0.432c0.648,0,1.332,0,2.016,0c1.584,0.576,3.132,1.188,4.716,1.8c1.08,0.576,2.124,1.188,3.204,1.8
		c0.252,0.504,0.504,0.972,0.756,1.476c0,0.468,0,0.9,0,1.332c-0.576,1.26-0.576,1.26-1.188,1.872
		c-0.72,0.288-0.72,0.288-2.988,0.288c-1.008-0.468-2.088-0.9-3.132-1.368c-0.396,0.036-0.828,0.036-1.224,0.072
		c0,0.216,0,0.468-0.036,0.72c0.288,0.468,0.612,0.9,0.9,1.368c1.692,1.62,3.384,3.24,5.076,4.824
		c0.936,1.08,1.872,2.16,2.808,3.276c0.324,0.54,0.612,1.044,0.936,1.584c0.145,0.684,0.288,1.368,0.432,2.052
		c0,1.404,0,2.808,0,4.248c-0.432,2.016-0.432,2.016-0.9,2.952c-0.684,0.612-1.404,1.26-2.124,1.908
		c-0.684,0.288-1.368,0.576-2.052,0.864C231.498,68.742,231.498,68.742,228.114,68.85z"/>
	<path fill-rule="evenodd" clip-rule="evenodd" fill="#FFFFFF" d="M62.442,49.05c-1.26-0.144-2.484-0.288-3.708-0.432
		c0-0.612,0-1.224-0.036-1.836c0.756-2.988,1.476-6.012,2.231-9c0.181-0.252,0.36-0.504,0.504-0.756
		c0.468-0.072,0.936-0.145,1.44-0.252c0.18,0.324,0.36,0.647,0.54,1.008c1.836,6.768,1.836,6.768,2.52,10.116
		c-0.036,0.252-0.072,0.468-0.072,0.72C64.71,48.762,63.558,48.906,62.442,49.05z"/>
	<path fill-rule="evenodd" clip-rule="evenodd" fill="#FFFFFF" d="M87.246,42.066c-0.036-3.601-0.072-7.2-0.108-10.8
		c0.145-0.18,0.324-0.36,0.504-0.504c1.296-0.252,2.592-0.504,3.924-0.756c1.044,0,2.088,0,3.132,0
		c0.144,0.18,0.324,0.324,0.504,0.504c0,0.756,0.036,1.512,0.072,2.304c-0.324,0.684-0.612,1.368-0.9,2.052
		c-1.332,1.656-2.628,3.348-3.96,5.04c-0.72,0.648-1.44,1.296-2.16,1.908C87.93,41.886,87.606,41.958,87.246,42.066z"/>
	<path fill-rule="evenodd" clip-rule="evenodd" fill="#F5AC0E" d="M199.458,121.374c-1.224-0.9-1.224-0.9-1.908-1.764
		c-0.899-2.88-1.764-6.624-2.736-9.324c-6.912-0.288-6.912-0.288-17.964-0.288c-0.288,0.288-2.124,6.084-2.556,6.984
		c-0.396,0.252-0.828,0.504-1.224,0.756c-0.72,0-1.477,0-2.196,0c-0.324-0.145-0.612-0.324-0.9-0.468
		c-0.36-0.396-0.684-0.792-1.008-1.188c0-0.864,0-1.764,0-2.628c1.764-6.228,1.764-6.228,3.528-11.268
		c1.764-3.744,3.528-7.524,5.328-11.268c0.324-0.504,0.647-0.972,1.008-1.44c0.288-0.216,0.576-0.432,0.9-0.684
		c0.72-0.144,1.476-0.288,2.196-0.432c2.952,0,5.904,0,8.856,0c0.36,0.18,0.684,0.36,1.008,0.54
		c0.684,0.864,1.332,1.764,2.016,2.664c3.744,7.523,3.744,7.523,5.508,11.483c1.764,4.645,1.764,4.645,3.564,10.404
		c0.216,1.08,0.432,2.196,0.648,3.276c0,0.647,0,1.332,0,1.979c-0.145,0.432-0.288,0.9-0.433,1.332
		c-1.224,1.008-1.224,1.008-1.872,1.224C200.646,121.302,200.034,121.338,199.458,121.374z"/>
	<path fill-rule="evenodd" clip-rule="evenodd" fill="#F5AC0E" d="M73.602,120.474c-0.936-0.252-1.908-0.468-2.88-0.756
		c-0.792-0.432-1.62-0.863-2.448-1.332c-2.196-1.98-2.196-1.98-3.204-3.168c-0.216-0.432-0.433-0.899-0.685-1.332
		c0-0.684,0-1.332,0-2.016c0.324-0.432,0.648-0.9,0.937-1.368c0.468-0.144,0.936-0.324,1.404-0.504c0.54,0,1.044,0,1.548,0
		c0.468,0.288,0.9,0.576,1.332,0.9c1.872,2.088,1.872,2.088,3.096,3.096c0.36,0.144,0.756,0.288,1.116,0.432c1.8,0,1.8,0,8.64-0.899
		c0.684-0.145,1.332-0.288,2.016-0.433c0.216-0.18,0.432-0.323,0.684-0.504c0.108-0.899,0.216-1.8,0.288-2.7
		c0-4.896,0-9.828,0-14.796c-0.145-0.144-0.324-0.323-0.504-0.504c-1.368-0.288-1.368-0.288-6.013-0.72
		c-1.332-0.432-1.332-0.432-1.8-0.864c-0.18-0.324-0.36-0.684-0.54-1.008c0-0.648,0-1.296,0-1.98c0.468-0.9,0.468-0.9,0.937-1.368
		c0.396-0.18,0.792-0.36,1.188-0.504c5.508,0.216,5.508,0.216,9.937,0.648c0.54,0.144,1.044,0.288,1.584,0.432
		c0.359,0.324,0.756,0.648,1.151,0.936c0.145,0.324,0.324,0.648,0.504,0.972c0.072,1.548,0.108,3.06,0.216,4.644
		c-0.216,13.464-0.216,13.464-0.432,17.424c-0.144,0.576-0.288,1.188-0.468,1.764c-0.864,1.548-0.864,1.548-1.872,2.557
		c-0.576,0.359-1.152,0.72-1.764,1.08c-1.548,0.288-3.096,0.612-4.68,0.9C79.794,119.826,76.698,120.15,73.602,120.474z"/>
	<path fill-rule="evenodd" clip-rule="evenodd" fill="#F5AC0E" d="M109.494,117.198c-0.792-0.252-1.62-0.504-2.412-0.792
		c-0.468-0.288-0.9-0.576-1.332-0.9c-0.36-0.396-0.684-0.792-1.008-1.188c-0.288-0.828-0.576-1.62-0.9-2.448
		c0-11.7,0-11.7,0.216-19.188c0.144-0.612,0.288-1.188,0.468-1.764c0.54-0.792,0.54-0.792,1.439-1.44
		c0.36-0.072,0.72-0.144,1.116-0.252c4.716,0.144,9.432,0.288,14.148,0.432c0.648,0.216,1.26,0.396,1.908,0.576
		c0.576,0.612,0.576,0.612,1.116,1.548c0,0.612,0,1.188,0,1.764c-0.144,0.324-0.324,0.612-0.468,0.9
		c-0.396,0.324-0.792,0.647-1.224,0.972c-1.08,0.216-1.08,0.216-11.556,0.504c-0.108,0.145-0.18,0.324-0.288,0.504
		c0,0.576,0,1.188,0,1.765c0.072,0.144,0.18,0.324,0.288,0.504c2.88,0.144,5.796,0.324,8.712,0.468
		c0.252,0.108,0.504,0.216,0.756,0.36c0.684,0.864,0.684,0.864,1.116,1.979c0,0.432,0,0.864,0,1.332
		c-0.144,0.36-0.288,0.72-0.432,1.116c-0.792,0.54-0.792,0.54-1.908,0.972c-2.736,0.072-5.436,0.145-8.208,0.216
		c-0.288,0.288-0.288,0.288-0.54,1.44c0,1.152,0,2.34,0,3.528c0.144,0.144,0.324,0.324,0.504,0.468
		c4.824,0.036,9.648,0.072,14.472,0.072c1.08,0.468,1.08,0.468,1.584,0.972c0.144,0.36,0.324,0.756,0.504,1.152
		c0,0.647,0,1.296,0,1.979c-0.18,0.324-0.36,0.648-0.576,1.008c-0.432,0.181-0.864,0.433-1.332,0.648
		C120.294,116.658,114.894,116.91,109.494,117.198z"/>
	<path fill-rule="evenodd" clip-rule="evenodd" fill="#F5AC0E" d="M157.338,116.514c-0.324-0.216-0.612-0.396-0.936-0.612
		c-2.664-3.492-5.364-6.948-8.028-10.44c-1.584-1.764-3.168-3.563-4.716-5.364c-0.216,0-0.396,0-0.576,0
		c-0.288,10.692-0.288,10.692-0.504,13.536c-0.144,0.36-0.288,0.756-0.432,1.116c-0.468,0.396-0.972,0.792-1.44,1.188
		c-2.412,0-2.412,0-3.096-0.181c-0.504-0.504-0.504-0.504-1.188-2.124c0-17.855,0-17.855,0.216-21.636
		c0.145-0.36,0.252-0.72,0.396-1.08c0.684-0.684,0.684-0.684,1.692-1.26c0.72,0,1.476,0,2.196,0c0.9,0.612,1.8,1.188,2.664,1.8
		c2.016,1.908,3.996,3.816,6.012,5.724c4.068,5.004,4.068,5.004,5.4,6.336c0.216-0.252,0.216-0.252,0.468-1.152
		c0-2.916,0-5.868,0-8.82c0.145-0.72,0.288-1.476,0.432-2.196c0.972-1.224,0.972-1.224,1.656-1.692c0.864,0,1.765,0,2.664,0
		c0.36,0.324,0.756,0.648,1.152,0.936c0.144,0.468,0.324,0.936,0.504,1.404c-0.072,7.272-0.144,14.58-0.216,21.888
		c-0.252,0.576-0.504,1.188-0.756,1.8c-0.433,0.216-0.9,0.468-1.368,0.72C158.814,116.442,158.094,116.478,157.338,116.514z"/>
	<path fill-rule="evenodd" clip-rule="evenodd" fill="#FFFFFF" d="M180.162,104.13c-0.324-0.107-0.648-0.216-0.936-0.396
		c-0.036-0.216-0.036-0.433-0.072-0.685c1.764-4.212,1.764-4.212,3.815-8.244c0.181-0.072,0.324-0.144,0.504-0.252
		c1.404,0,2.808,0,4.212,0c0.324,0.396,0.648,0.792,0.972,1.224c1.116,2.412,2.232,4.824,3.348,7.271
		c-0.036,0.216-0.036,0.468-0.072,0.685C187.686,104.058,187.686,104.058,180.162,104.13z"/>
	<polygon fill-rule="evenodd" clip-rule="evenodd" fill="#FFFFFF" points="15.426,148.518 15.426,130.302 25.83,138.474 	"/>
	<polygon fill-rule="evenodd" clip-rule="evenodd" fill="#FFFFFF" points="133.614,321.57 133.614,303.066 126.666,310.626 
		119.502,318.222 126.594,320.202 	"/>
	<polygon fill-rule="evenodd" clip-rule="evenodd" fill="#182F85" points="15.426,178.434 15.426,154.818 31.698,139.266 
		64.458,132.75 	"/>
	<polygon fill-rule="evenodd" clip-rule="evenodd" fill="#FFFFFF" points="15.462,213.102 15.462,184.446 70.326,131.994 
		101.43,128.538 	"/>
	<polygon fill-rule="evenodd" clip-rule="evenodd" fill="#182F85" points="18.63,242.406 16.47,238.482 15.714,234.126 
		15.822,217.89 106.506,128.106 133.47,127.098 	"/>
	<polygon fill-rule="evenodd" clip-rule="evenodd" fill="#182F85" points="115.398,317.106 107.586,314.406 100.026,311.382 
		133.398,279.198 133.47,297.666 	"/>
	<polygon fill-rule="evenodd" clip-rule="evenodd" fill="#182F85" points="45.594,276.102 38.646,269.334 33.462,263.07 
		133.614,161.946 133.614,187.614 	"/>
	<polygon fill-rule="evenodd" clip-rule="evenodd" fill="#182F85" points="77.994,299.826 70.65,295.542 63.486,290.574 
		133.614,221.454 133.542,244.386 	"/>
	<polygon fill-rule="evenodd" clip-rule="evenodd" fill="#FFFFFF" points="30.978,260.226 25.434,253.458 20.178,245.826 
		133.434,131.418 133.506,157.158 	"/>
	<polygon fill-rule="evenodd" clip-rule="evenodd" fill="#FFFFFF" points="60.498,288.882 53.874,284.238 47.934,278.802 
		133.758,192.546 133.542,216.486 	"/>
	<polygon fill-rule="evenodd" clip-rule="evenodd" fill="#FFFFFF" points="96.678,310.086 88.65,306.162 80.91,301.626 
		133.506,248.958 133.398,274.626 	"/>
	<polygon fill-rule="evenodd" clip-rule="evenodd" fill="#FFFFFF" points="206.586,290.034 199.098,295.434 186.966,301.842 
		186.858,130.59 196.65,131.994 206.802,133.254 	"/>
	<polygon fill-rule="evenodd" clip-rule="evenodd" fill="#FFFFFF" points="251.586,241.434 243.63,252.882 234.306,263.574 
		234.198,146.646 242.802,140.094 251.55,131.994 	"/>
	<rect x="192.546" y="166.662" fill-rule="evenodd" clip-rule="evenodd" fill="#182F85" width="10.332" height="68.868"/>
	<rect x="161.514" y="167.382" fill-rule="evenodd" clip-rule="evenodd" fill="#182F85" width="10.368" height="68.94"/>
	<path fill-rule="evenodd" clip-rule="evenodd" fill="#182F85" d="M227.754,178.614c-1.188,1.224-2.448,0.936-4.176,0.936
		c-1.728,0-3.06,0.288-4.248-0.936c-1.224-1.296-0.936-2.664-0.936-4.464v-5.4v-10.764c1.728,0,3.456,0,5.184,0
		c1.728,0,2.88-0.145,4.104,1.08c1.224,1.296,1.044,2.52,1.044,4.32v5.364v5.4C228.726,175.95,229.014,177.318,227.754,178.614z"/>
	<path fill-rule="evenodd" clip-rule="evenodd" fill="#182F85" d="M192.546,168.354v-5.185c0-1.728-0.036-2.952,1.332-4.032
		c1.764-1.332,3.132-1.152,5.364-1.152h6.66h13.607c2.232,0-1.512,0.072,0.252,1.404c1.368,1.08-0.504,2.052-0.504,3.78
		c0,1.729,1.656,3.024,0.288,4.068c-1.764,1.368,4.5,1.188,2.304,1.188l-15.948-0.071H192.546z"/>
	<path fill-rule="evenodd" clip-rule="evenodd" fill="#182F85" d="M161.514,203.958v-5.184c0-1.729-0.036-2.952,1.332-3.996
		c1.765-1.368,3.132-1.188,5.364-1.188h6.66h6.696c2.232,0,3.744-0.107,5.508,1.225c1.368,1.08,1.152,2.231,1.152,3.96
		c0,1.728,0.144,2.952-1.224,4.032c-1.764,1.332-3.204,1.152-5.436,1.152h-6.696H161.514z"/>
	<g>
		<path fill-rule="evenodd" clip-rule="evenodd" fill="#182F85" d="M227.754,223.506c-1.188-1.224-2.448-0.936-4.176-0.936
			c-1.728,0-3.06-0.288-4.248,0.936c-1.224,1.296-0.936,2.664-0.936,4.464v5.364v10.8c1.728,0,3.456,0,5.184,0
			c1.728,0,2.88,0.145,4.104-1.08c1.224-1.296,1.044-2.52,1.044-4.32v-5.4v-5.364C228.726,226.17,229.014,224.802,227.754,223.506z"
			/>
		<path fill-rule="evenodd" clip-rule="evenodd" fill="#182F85" d="M192.546,233.766v5.184c0,1.728-0.036,2.952,1.332,4.032
			c1.764,1.332,3.132,1.151,5.364,1.151h6.66h13.607c2.232,0-1.512-0.071,0.252-1.403c1.368-1.08-0.504-2.052-0.504-3.78
			s1.656-3.024,0.288-4.068c-1.764-1.368,4.5-1.188,2.304-1.188l-15.948,0.072H192.546z"/>
	</g>
	<path fill-rule="evenodd" clip-rule="evenodd" fill="#182F85" d="M161.55,217.422h5.148c1.728,0,2.988-0.072,4.032,1.296
		c1.368,1.765,1.152,3.132,1.152,5.364v6.696v6.66c0,2.231,0.145,3.779-1.224,5.544c-1.044,1.332-2.232,1.151-3.96,1.151
		c-1.729,0-2.952,0.108-3.996-1.224c-1.368-1.764-1.152-3.24-1.152-5.472v-6.66V217.422z"/>
	<path fill-rule="evenodd" clip-rule="evenodd" fill="#182F85" d="M161.514,168.354v-5.185c0-1.728-0.036-2.952,1.332-4.032
		c1.765-1.332,3.132-1.152,5.364-1.152h6.66h6.696c2.232,0,3.744-0.108,5.508,1.224c1.368,1.08,1.152,2.232,1.152,3.96
		c0,1.729,0.144,2.952-1.224,3.996c-1.764,1.368-3.204,1.188-5.436,1.188h-6.696H161.514z"/>
</g>
</svg>
