<?xml version="1.0" encoding="utf-8"?>
<svg xmlns="http://www.w3.org/2000/svg" width="300" height="300" viewBox="0 0 400 400">
 <style type="text/css">
  .st0{fill-rule:evenodd;clip-rule:evenodd;}
  .st1{fill-rule:evenodd;clip-rule:evenodd;fill:#FFFFFF;}
  .st2{fill:#1D1D1B;}
  .st3{fill:#FFFFFF;stroke:#FFFFFF;stroke-width:0.392;stroke-miterlimit:10;}
  .st4{fill:#FFFFFF;}
  .st5{fill:#1D1D1B;stroke:#FFFFFF;stroke-width:0.392;stroke-miterlimit:10;}
 </style>
 <path class="st0" d="M390.2 116.2l-0.8 5.2c-2.1 15-4.8 29.8-8.7 44.4 -6.3 23.4-15.2 46-26.6 67.4 -35 66.3-75 118.6-139.7 158.1L200 400l-14.4-8.8c-64.8-39.5-104.7-91.8-139.8-158.1 -11.3-21.4-20.3-44-26.6-67.4 -3.9-14.6-6.6-29.4-8.7-44.4l-0.8-5.2C7.7 102.8 7.4 89 7.3 75.5 7.1 57.3 7.6 39 8.7 20.8L9.9 0h380.2l1.2 20.8c1.1 18.2 1.6 36.5 1.4 54.7C392.6 89 392.3 102.8 390.2 116.2L390.2 116.2 390.2 116.2z"/>
 <path class="st1" d="M382 115l-0.8 5.2c-2.1 14.8-4.6 29-8.5 43.4 -6.1 22.8-14.8 44.8-25.9 65.6 -34.8 65.8-73.7 116.5-136.8 154.9l-10.1 6.2 -10.1-6.2c-63-38.4-102-89.1-136.8-154.9 -11-20.9-19.8-42.8-25.9-65.6 -3.9-14.5-6.4-28.7-8.5-43.4l-0.8-5.2c-2-12.7-2.3-26.6-2.5-39.5 -0.1-18 0.3-36.2 1.4-54.2l0.8-13h364.7l0.8 13c1.1 17.9 1.5 36.2 1.4 54.2C384.4 88.3 384 102.2 382 115L382 115 382 115z"/>
 <path d="M157.9 312.7l6.4-1.7v25.6c0 0.8 0.1 1.5 0.2 1.9 0.1 0.4 0.5 1 1.1 1.8h-6.8c0.5-0.7 0.9-1.2 1.1-1.7 0.2-0.5 0.3-1.1 0.3-1.9v-1.8 -18.3c0-0.9 0-1.5-0.1-1.8 -0.1-0.4-0.2-0.7-0.5-1.1C159.4 313.3 158.8 313 157.9 312.7L157.9 312.7z"/>
 <path d="M174.7 340.2c1.1-0.3 2-0.6 2.7-1 0.7-0.3 1.4-0.8 2.1-1.4 4.3-3.6 6.5-8.2 6.5-13.8 0-3.3-0.5-5.9-1.6-7.9 -1.1-2-2.6-2.9-4.4-2.9 -1.5 0-2.7 0.6-3.6 1.9 -0.9 1.3-1.3 3-1.3 5.2 0 4.9 2 7.4 6 7.4 0.6 0 1 0 1.3-0.1 0.3-0.1 0.7-0.2 1.4-0.5 -1.2 1.9-3 2.8-5.3 2.8 -2.3 0-4.1-0.8-5.5-2.3 -1.4-1.6-2.2-3.5-2.2-5.9 0-2.8 0.9-5.2 2.8-7.2 1.8-1.9 4.1-2.9 6.8-2.9 3 0 5.5 1.1 7.3 3.3 1.8 2.2 2.7 5.1 2.7 8.8 0 4.9-1.6 9.1-4.9 12.7 -2.8 3-5.6 4.5-8.4 4.5 -0.6 0-0.9 0-1.2-0.1C175.6 340.6 175.2 340.5 174.7 340.2L174.7 340.2z"/>
 <path d="M200.4 317.2c-0.3 1-0.6 2.3-0.8 3.9 -0.2 1.6-0.3 3.3-0.3 5 0 1.6 0.1 3.1 0.3 4.7 0.2 1.6 0.5 3 0.9 4.2 0.4 1.2 1.1 2.3 2.1 3.1 1 0.8 2.2 1.3 3.6 1.3 1.3 0 2.5-0.4 3.5-1.2 1.1-0.8 1.8-1.9 2.3-3.3 0.7-2.3 1.1-5.2 1.1-8.8 0-1.8-0.1-3.4-0.3-4.9 -0.2-1.5-0.5-2.8-0.9-4.1 -0.4-1.3-1.2-2.3-2.2-3.2 -1.1-0.8-2.2-1.3-3.5-1.3 -1.3 0-2.5 0.4-3.5 1.3C201.6 314.7 200.9 315.8 200.4 317.2L200.4 317.2zM195 326.1c0-1.9 0.2-3.8 0.7-5.7 0.5-1.9 1.1-3.6 1.9-4.9 1.9-3.1 4.8-4.6 8.6-4.6 3.9 0 6.8 1.5 8.6 4.6 1.8 3.1 2.7 6.6 2.7 10.6 0 4-0.9 7.5-2.8 10.6 -1.8 3-4.7 4.6-8.6 4.6 -3.8 0-6.7-1.6-8.6-4.6 -0.8-1.3-1.4-2.9-1.9-4.8C195.2 329.9 195 328 195 326.1L195 326.1z"/>
 <path d="M238.1 312.1c-1.2 0.3-2.1 0.6-2.7 0.9 -0.6 0.3-1.3 0.8-2.1 1.4 -4.3 3.7-6.4 8.3-6.4 13.9 0 3.3 0.6 5.9 1.7 7.9 1.1 2 2.6 2.9 4.4 2.9 1.5 0 2.6-0.6 3.5-1.9 0.9-1.3 1.3-3 1.3-5.1 0-4.9-2-7.4-6.1-7.4 -0.7 0-1.5 0.2-2.5 0.5 1.3-1.8 3.1-2.7 5.3-2.7 2.2 0 4.1 0.8 5.5 2.3 1.5 1.5 2.2 3.5 2.2 5.9 0 2.8-0.9 5.2-2.8 7.2 -1.8 2-4.1 2.9-6.8 2.9 -3 0-5.4-1.1-7.3-3.3 -1.8-2.2-2.7-5.1-2.7-8.8 0-4.9 1.6-9.1 4.9-12.7 2.7-2.9 5.5-4.4 8.4-4.4 0.6 0 0.9 0 1.1 0C237.1 311.6 237.5 311.8 238.1 312.1L238.1 312.1z"/>
 <path class="st2" d="M303.1 106.3c0.3 0 2.4 1.2 3.6 1.8 11.2 5.8 33 18.5 46.3 18.5 9.7 0 10.9-3.4 21.2-15.1h-3.8c-4.1 0-12.5-2.4-15.4-3.4 -4.9-1.6-9.8-3.7-14.6-5.6 -1.4-0.5-3-1.3-4.5-1.8 -5.8-2-11.6-4.1-17.3-6.2 -0.5-0.2-11.3-3.7-11.3-7.1 0 0 0.1-2.8 1.6-2.8 0.3 0 13.7 4.4 20.5 6.4 2.4 0.7 4.9 1.3 7.3 1.8 1.9 0.4 4 0.7 6 0.9 0.8 0.1 2.4 0.3 2.7 0.3 0 0 4.6 0.4 7.8 0 1.9-0.2 5.2-1 5.8-1.3 1.6-0.7 3.3-1.6 4.7-3.2 3.2-3.5 4.3-7.8 5.5-11.4 0.4-1.3 0.9-2.6 1.3-4 -4 0.9-4.4 1.2-7.4 1.2l-3.6-0.1c-17.8-1.9-35.7-4.6-53.3-12 -0.2-0.1-0.6-0.3-0.7-0.5 1.7-2.9 4.2-3.4 6.3-3.4l15.2 1.6h4.7c4.3 0 14.5-2.5 16.3-8.2 0-0.2 0.8-2.2 1.1-3.7 0.9-3.8 0-5.7 0-5.7 -1.3-0.9-2.8-1.1-4-1.1 -2 0-5.4 1.1-7.4 1.1l-6.2-0.2c-17.4-1.5-34.9-7.1-52.3-8.5 0 0-9.1-0.7-14.5-0.4 -4.2 0.2-11.5 1.1-11.5 7.4 0 10.1 9.3 5.2 9.3 15.9 0 3.6-4.2 18.5-4.4 19.2 -0.6 1.8-1.6 4.2-2.6 6 -1.7 3-4.5 6.6-7.1 9.5 -1.8 2-8.4 7.8-11.2 7.8 -9.2 0-17.5-13.1-17.7-20.8 -3.2-1.3-6.3-2.4-9.4-3.6l-10 13.9 -10.7-13.4c-2.4 1.1-4.8 2.2-7.1 3.3 -2.4 7.9-8.7 21.3-18.5 21.3 -8.2 0-15-10.4-19.7-17.9 -1.1-1.7-1.9-3.7-2.4-5.6 -1.4-4.6-2.1-9.8-2.8-14.4 -0.2-1.1-0.3-3-0.3-3.3 0-7.8 9.3-9.5 9.3-16.9 0-5.1-6.6-6.3-10.1-6.9 -1-0.2-2.8-0.4-3.1-0.4 0 0-5.9-0.6-11.6 0 -0.3 0-3.2 0.4-4.7 0.6 -8.5 1.2-17.6 3.1-26.1 5 -7.7 1.8-15.9 3.2-23.5 3.9L65.1 45c-0.3 0-8.8-0.9-9.1-0.9 -1.5 0-2.6-0.1-4.3 0.9 0 0-0.6 2 0 6 0.4 2.6 2.2 5.8 4.3 7.3 4.8 3.5 10.2 4.3 15.2 4.3l18.3-1.6c2 0 4.7 0.3 5.1 3.4 -0.8 0.5-1.7 0.9-2.4 1.1 -14.2 4.9-32.5 8.2-49.7 10.8 -5.1 0.7-14.1-0.6-14.1-0.6 6.9 15.2 11.6 20 22.6 20 11.3 0 30.5-7 40-9.6 0.6 1.4 1.3 2.8 1.8 4.1 -20.9 8-42 21-62.8 22.6l-4.3 0.2c7.5 10.4 13.3 15.1 21.5 15.1 12.5 0 47.3-20.2 50.2-20.2 1.5 0 1.3 2 1.8 2.9 -1.7 1.5-3.3 3.1-5 4.6 -5.1 4.5-10.2 9-15 13.2 -4 3.5-8.8 7.4-12.8 10.7 -1.8 1.4-3.5 2.9-5.2 4.2 -2.8 2.3-5.7 4.5-8.7 6.6 -2.9 2.1-5.8 4.8-8.8 6.3 -1.8 0.9-4.1 1.1-6 1.2 2.2 4.3 8.8 9.8 14.9 11.5 0.5 0.1 2.1 0.5 3.2 0.4 7.4-0.5 15-5.2 21.8-10.2 4.2-3.1 8.3-7.2 12.3-10.7 3-2.7 7.5-7.1 10.8-10.3 2.7-2.6 5.4-5.2 8-7.5 1 2.5 3.3 5.2 5.3 7.5 -0.2 0.3-0.5 0.5-0.7 0.8h0c-17.5 17.9-35 31.6-52.7 45.4 -3.6 2.8-7.3 5.3-11 8 3.9 5.2 15.6 8.6 22 8.6 23.7 0 51.5-42.8 58.9-42.8 2 0 2.7 0.9 4.9 2.9 -1.2 1.4-2.3 2.8-3.4 4.1 -7.8 9.8-28.4 30.9-44 44.4 -5 4.4-10.2 9-15.3 13 -1.3 1-2.4 2-3.4 3.1 5.6 4.9 11.4 8.3 16.8 9.2 1.2 0.2 4.9 1.2 9.1 0.7 4-0.5 6.8-1.7 8.3-2.3 5.3-2 15.4-9.7 21.8-16.5 6.6-7 13-15 18.5-22.1 4.5-5.7 8.8-12.4 15.3-16.7 0.5-0.4 2.3-1.4 3.1-1.4 2 0 2.1 3.4 2.1 4.3 0 14-25.2 41.6-36.2 46.4h27.6l6.7 15.7c2.6-4.5 4.6-9.2 6.5-13.5 3.8-8.7 7.2-17.8 16.3-26.1 0.2 0.6 0.2 1.2 0.4 1.8 0.7 6 0.6 9.2 0 15.1 -2.4 17.4-9.6 40.9-21.5 59 10.3-4.6 23.4-13.7 30.8-25.4 3.1-5 4.9-10.3 5.5-15.2 0-0.5 0.4-3.8 0.4-3.8 0-0.5 0.3-1.1 0.9-1.2 0.3 0 0.7 0.2 0.8 0.4 0.5 1.5 0.7 3.2 1.1 4.8 0.9 3.5 2.3 7.6 4.1 11.1 2.3 4.5 5.6 9.5 9.6 13.6 2.5 2.5 5.7 5.3 8.1 7.1 4.7 3.5 10 5.7 14.8 7.7 -3.5-5.8-6.3-12.1-9.3-17.7 -1.8-3.4-3.6-7-5.1-10.5 -0.9-1.9-1.9-3.9-2.5-5.8 -1.5-5.2-2.8-10.5-3.9-15.6 -0.5-2.4-2.4-11.7-2.9-17.1 0 0-0.5-3-0.3-5.4 0.1-1.7 0.7-2.4 0.9-2.6 6.3 8 9.9 17.1 13.5 25.2 2 4.4 4.1 9.2 6.7 13.8l6.5-16.6 27.5-0.4c-16.5-12.6-35.1-30.2-35.1-46.5 0-1.6 0-4.3 2.7-4.3 0.3 0 0.9 0 1.2 0.3 6.1 5.9 10.3 12.1 15.3 18.2 13.9 17.1 33.8 40.9 51.7 40.9 6.7 0 17.6-3.1 23.2-10.2 -22.4-19.5-47-40-66.1-63.8 1.7-1.8 3.9-3.7 5.5-3.7 2.4 0 7.5 5.8 8.9 7.3 10.2 10.6 22.4 24.4 33.8 30.2 3.1 1.6 6.1 3.1 9.2 4 0.8 0.2 4.6 1.1 6.4 1.3 2.7 0.3 4.7 0 4.7 0 4.6 0 16-3.9 18.1-9.5 -11.5-6.1-32.8-22.3-48.1-35.8 -1.6-1.4-12-10.4-15.2-15h0c-0.6-0.9-1-1.6-1-2 0-1.9 3.6-5.6 5.2-7.1 1.7 1.2 3.4 2.6 5 3.9 1.8 1.6 5.5 5.2 5.5 5.2 7.5 6.8 26.3 28.8 42.6 28.8 5.4 0 15.1-4.2 18.2-11.1 -5.1-1.9-10.5-5-15.3-8.2 -4-2.7-8.2-6-12.4-9.5h0c-6.4-5.3-30.3-24.2-33.4-27.1 -0.8-0.8-1.4-1.2-1.4-2 0-0.3 0.1-0.8 0.3-1.1C301.1 108.2 302.7 106.3 303.1 106.3z"/>
 <path class="st2" d="M146.2 229.2c-1.2 2-2.5 4-3.6 5.7 -1.6 2.4-9.1 15.2-14.7 15.2 -3.8 0-15.4-7.1-18.2-7.1 -3.5 0-7.6 6.8-8.3 8.8 -0.8 2.2-2 6.3-2 8.7 0 1.6 0.3 3 2 4.5 2.2-6 5.8-10.2 11-10.2 2.5 0 4.7 0.9 7.4 2.2 0.9 0.4 1.2 1.9 1.2 2.4 0 3.9-4.5 9.1-4.5 16.2 0 0.3 0.2 2.4 0.4 3.5l0.2 0.2c2.3-1 5.4-2.4 7.4-4.8 2.4-2.8 3.6-6.3 5.6-9.3 1-1.6 2.5-2.5 3.9-2.5 0.3 0 1.9 0.3 2.8 0.7 5.1 1.9 7.8 5.2 7.8 9.3 0 1.5-0.3 3.1-1.2 4.7 4.2-1.6 10.8-8.5 10.8-12.5 0-4.5-12.9-7.2-12.9-9.5 0-0.3 4.6-6.8 6.9-10.2 2.3-3.4 5.1-7.3 8.8-10.4l-2.5-5.7H146.2z"/>
 <path class="st2" d="M204.2 246.9c-0.7-1.8-1.4-3.8-1.9-5.6 -0.7 3.4-1.9 7.3-3.8 10.8 -1 1.7-2.3 4.2-3.7 5.8 -0.4 0.4-1.1 1.3-1.1 1.6 0 0.3 1.1 2.3 1.4 3.3 1.6 4.4 2.5 8.8 5 13.2 0.3 0.6 2.2 3 3.1 3 0.3 0 0.8-0.6 1-1 3.2-5.3 4.4-10.9 6-16 0.3-0.9 0.9-2.3 0.9-2.6 0-0.3-1.7-2.4-2.4-3.6C207 252.7 205.4 249.8 204.2 246.9z"/>
 <path class="st2" d="M291.2 243c-2.7 0-14.5 7.1-18.1 7.1 -0.3 0-0.8 0.1-1.1 0 -6.9-2.7-12.9-14.2-18.2-22.1h-8.4l-2.1 5.5c2 2.1 3.7 4.2 5.3 6.2 1.3 1.7 2.6 3.5 3.8 5.2 2.4 3.5 7.1 10.3 7.1 10.6 0 2.1-13 5-13 9.3 0 4.1 6.6 10.9 11 12.7 -0.6-1.3-1.3-3.4-1.3-4.8 0-4.2 3.1-7.4 8.3-9.4 0.8-0.3 2.2-0.6 2.5-0.6 2 0 3.5 1.7 4.7 3.9 0.8 1.3 1.8 2.6 2.2 3.9 1.4 3.7 6.3 7.6 10 8.8 0.5-1.2 0.4-2.6 0.4-3.6 0-6.5-4.4-13.3-4.4-16.3 0-0.6 0.1-2 1.3-2.5 3.1-1.3 4.5-2.1 7.3-2.1 5.3 0 8.4 4.4 11 10.2 1.4-0.9 2-3 2-4.4 0-3-1.4-7.8-2.9-10.6C297.5 248 294.1 243 291.2 243z"/>
 <path class="st2" d="M170.3 42.4c1.7 0 3.3 0.9 4.2 3.3 0.1 0.3 0.3 0.8 0.3 1.1 0 0.4-0.3 1.1-0.8 1.2 -0.9 0.2-2 0.2-2.8 0.4 -2 0.7-3.4 1.3-5.3 1.3 -0.3 0-2.1-0.2-3.2-0.3 0.4 1.3 3.5 2.9 4.5 2.9 0 0 2.5 0.5 4.6-0.1 0.3-0.1 0.4 0.2 0.1 0.6 -1.5 1.6-2.5 2.2-3.8 2.2 -0.3 0-3.3-0.7-4.9-1.1 0.2 3.6 7.3 5.5 9.6 5.5 3.4 0 6.2-3 9.1-3 2.7 0 3.2 1.8 3.2 4 0 3.4-2.8 8.5-4 11.6 -0.8 2.2-1.7 4.5-2.7 6.8l11.6-5.2 10 12.7 9.3-13.2 13.7 5.3c-0.9-2.1-4.4-7.9-4.4-10.6 0-1.5 0.8-4.5 1.5-5.9 0.9 0.4 2.5 0.9 3.4 1 0.9 0.1 1.2-0.3 1.5-0.5 -3.2-3.5-5.2-7.4-5.5-10.7 -0.1-1.7-0.3-1.9-0.1-3.6 0-0.5 0.4-1.5 0.5-1.9 1.6-4.2 5.7-6.3 7.7-8.2 0 0-5.4 0.2-6.8 0.1 -2-0.1-4-0.6-5.7-1.2 -1.7-0.6-3.5-1.4-5.1-2.6 -4.8-3.7-9.7-6-14.2-6.5 -1.2-0.1-2.4-0.3-3.7-0.4 -2-0.1-2.8-0.1-3.1-0.1 -0.3 0-1.6 0.1-2.4 0.2 -2.9 0.1-6.4 2.9-9.2 5.9 -0.6 0.7-1.3 0.4-2 0.4 -2 0-5.9 0.2-5.9 0.2 -5.5 0.4-10.3 3.8-10.3 9 0 1.6 0.4 2.7 1.1 4.3C163.8 44.7 166 42.4 170.3 42.4zM182.3 36.1c-0.1 2.6 2.3 3.8 4 3.8 1.7 0 3.1-0.7 3.9-3 1.5 0 3.4 0 4.9-0.6 0.3 0.4 0.4 0.8 0.4 1.3 0 3.5-5.6 4-6.9 4 -1.5 0-6.8-0.5-6.8-4C181.9 37.3 182 36.6 182.3 36.1z"/>
 <path class="st3" d="M167.8 162.3c-2.3 2.8-5.5 6.2-8.5 8.1 -5 3.2-6.6 3.7-11 3.7 -4.8 0-8.5-1.3-13.8-5.4 8.8-8 19.1-17.7 23.7-26.5l-5.5-3.3 -4.2-2.5c-0.7 0.9-1.4 1.7-2.2 2.5h0c-6.4 7.1-13.2 11.7-20.1 11.7 -3.6 0-10.1-1-12.9-4.3 2.5-2.5 5.1-4.9 7.8-7.4h0c4.7-4.4 9.6-9 14.2-14.1l-7.1-8.5c-5 3-12.6 7.9-18 7.9 -3.2 0-10.1-4.9-11.6-8.4 1.4-0.2 2.9-0.1 4.2-0.7 2.4-1.1 4.4-3 6.6-4.6 3.5-2.5 7-5 10.5-7.6l-2.8-5.7c-4.5 2.8-8.7 5.4-13.3 5.4 -5.4 0-8.3-2.6-14.1-8.6 2.4-0.4 5.1-0.6 7.6-1.4 1.8-0.6 3.7-1.2 5.5-2 2.8-1.1 9.8-4.3 9.8-4.8 0-0.3-1.3-4.1-1.8-6 0 0 0.1-0.1-0.2-0.1 -0.8 0-5 2.3-10 2.3 -6.1 0-8.8-3.1-13.8-11.2 1.4-0.3 2.7-0.3 4-0.4l3.6-0.3c4.2-0.8 9-2.1 13.2-3.9 -0.7-3.4-1.2-7.2-1.5-10.8 -0.1-0.1-0.3-0.1-1.5-0.1 -3-0.1-8.4-1.3-9.6-5.7 -0.2-0.6-0.3-1.2-0.4-1.8 -0.1-0.6-0.3-1.7-0.3-2 0-1.6 4.3-2 4.8-2h3.3l19.3-3h0.9v11.6c0 2.2 0.9 6.4 1.2 8.2 1.2 6.7 3 13.9 5.8 20.6 2.5 5.9 6 12.5 10.5 18.4 5.6 7.4 14.5 15.3 21.7 19.3 2.1 1.2 4.3 2.5 6.4 3.6v27.6c0.2 2.3 0.4 4 0.7 6 0.2 1.2 0.8 3.5 0.8 3.9C169.5 160.5 168.3 161.6 167.8 162.3z"/>
 <path class="st4" d="M297.2 115.3c1.2 0.7 2.8 0.5 4.2 0.7 -1.4 3.5-8.4 8.4-11.5 8.4 -5.4 0-13.1-4.9-17.9-7.9l-7.3 8.5c4.6 4.6 19.4 19 22 21.3 -2.8 3.5-9.3 4.5-12.9 4.5 -7 0-13.6-4.6-20.1-11.7h0c-0.7-0.8-1.5-1.7-2.2-2.5l-9.7 5.8c4.6 8.8 14.8 18.5 23.7 26.5 -5.5 3.9-8.7 5.4-13.8 5.4 -6.5 0-11-2.9-17.9-10.3 -1-1.1-3.3-3.3-3.3-3.6 0-0.5 0.6-1.8 0.7-2.2 0.5-2.4 0.7-5 0.9-7.6l0.1-11.6 0.1-16.3c11.7-5.2 26.2-18.4 32.8-30.5 0.5-1 1.2-2.1 1.8-3.1 3.4-5.9 5.7-12.1 7.4-18.2 0.1-0.2 3.2-13.8 3.2-17.9V41.1c0 0 19 2.9 20.2 3 1.2 0.2 3.5 0 3.5 0 1.4 0 3.6 0.5 4.8 1.5 -0.1 0.9-0.4 1.9-0.4 2.8 0.1 5.1-6.6 7.2-9.9 7.2h-1.7c0 0-1.5 11-1.4 11 4.2 1.5 8.9 3 13.2 3.7l3.4 0.4c1.3 0.1 2.7 0.1 4.1 0.3 -4.4 7.7-7.6 11.2-13.8 11.2 -3.5 0-6.1-0.9-10-2.3 -0.7 2-1.4 4.2-2 6.3 7.4 3.8 15.2 7.5 22.9 8 -5.4 6-8.9 8.6-14.1 8.6 -4.4 0-8.7-2.6-13.3-5.4l-2.9 5.5C285.7 107.3 291.3 111.8 297.2 115.3z"/>
 <path class="st2" d="M307.4 95.4c-11.4-1.8-22.8-9.1-34-15.4 -0.8 2.3-2 5.2-3.2 7.5 5.3 2.9 19.2 13.9 26.2 13.9C300.2 101.5 303.5 99.7 307.4 95.4z"/>
 <path class="st2" d="M267.3 93c3.6 3.3 7.5 6.2 11.3 9l2.6-5.6 -11.7-7.6L267.3 93z"/>
 <path class="st2" d="M259.2 104.2c6.9 5.9 21.8 18.6 30.6 18.6 2.5 0 7.4-3.4 9.1-5.6 -1-0.2-2.2-0.3-3.1-0.9 -10.1-7-19.6-13.6-29.4-21.9C264.1 97.7 261.9 101.1 259.2 104.2z"/>
 <path class="st2" d="M304.1 47.9l0.2-1.6c-0.5-0.5-1.5-0.5-1.8-0.5 -1.1 0-2 0.2-4 0l-18.8-2.8v9.7l15 1.4C298.2 54 303.4 53.4 304.1 47.9z"/>
 <path class="st2" d="M287.5 79.2l-11.9-5.4c-0.5 1.6-1 3.2-1.6 4.8l11.7 6.6L287.5 79.2z"/>
 <polygon class="st2" points="291.9 55.4 279.5 54.3 278.5 61.1 290.7 65.9 "/>
 <path class="st2" d="M310.9 72.2c-0.5-0.2-2.2 0-4.2-0.3 -9.5-1.3-19.1-5.5-28.5-9.4l-2.2 9.7c5.3 2.3 16.9 8.6 23.5 8.6C304.4 80.8 307.1 78.5 310.9 72.2z"/>
 <path class="st2" d="M240.8 120.4c2.8 2.7 8.1 11.4 14.9 18.6h0c5.3 5.6 11.5 10.3 18 10.3 3.1 0 8.6-0.8 10.9-2.9 -2.6-2.4-21.5-19.3-33.1-34.2C248.1 115.4 243.9 117.9 240.8 120.4z"/>
 <path class="st2" d="M238.3 139c-1.5-2.9-2.7-5.8-3.8-8.7l-0.2 8.7 -0.2 11.6c-0.2 2.6-0.4 5.1-0.9 7.7 -0.1 0.7-0.6 1.9-0.6 2.2 0 0.4 6.9 7.2 7.1 7.3 0.6 0.5 1.2 1 1.8 1.5 2 1.4 4.7 2.8 6.7 3.2 1.1 0.2 3 0.3 3.3 0.3 4 0 7.2-1.2 11.4-4.2 -1.7-1.6-3.3-3.2-4.9-4.7C248.9 155.7 242.6 147.4 238.3 139L238.3 139z"/>
 <path class="st2" d="M234.4 124c0 0.1 0 0.2 0 0.5 0 1.3 2.7 8.1 3 8.7 0.8 1.9 1.8 3.8 2.8 5.7v0c0.2 0.5 0.4 0.9 0.7 1.4 0.9-0.4 1.8-0.8 2.7-1.4h0c2.2-1.2 4.5-2.8 6.6-4.2l-10.7-13.7C237.7 122.2 235.9 123.2 234.4 124z"/>
 <polygon class="st2" points="252.6 111.1 263.3 123.4 270.3 115.2 258.2 105.4 "/>
 <path class="st2" d="M165.9 150.5l-0.2-11.6 -0.2-8.7c-1 2.9-2.3 5.8-3.8 8.7h0c-4.4 8.4-10.9 16.7-19.9 24.8 -1.8 1.6-3.4 3.3-4.9 4.8 4.2 2.9 7.4 4.1 11.5 4.1 3.6 0 6.7-1.2 10.5-3.9 1.6-1.2 4.4-3.7 5.9-5.2 1-1 2.7-2.9 2.7-3.2 0-0.3-0.5-2.1-0.7-3.1C166.2 154.8 166.1 153.3 165.9 150.5z"/>
 <path class="st2" d="M133.5 94.4c-5.8 5.2-11.9 9.2-17.8 13.6 -3.9 2.9-8 6-12.1 8.6 -0.8 0.5-1.7 0.5-2.6 0.7 1.7 2.2 6.6 5.6 9.1 5.6 8.9 0 24.7-13.3 30.6-18.7C137.8 100.8 135.4 97.2 133.5 94.4z"/>
 <polygon class="st2" points="121.6 101.9 132.7 93 130.5 88.8 118.7 96.5 121.3 101.9 "/>
 <path class="st2" d="M109.4 65.8l12-4.8c-0.4-2.2-0.7-4.5-0.9-6.8l-12.6 1.2L109.4 65.8z"/>
 <polygon class="st2" points="114.2 85.2 126 78.5 124.4 73.8 112.4 79.2 "/>
 <path class="st2" d="M126.6 80c-11.1 6.3-22.7 13.5-33.9 15.4 3.9 4.3 6.9 6.1 10.7 6.1 7.5 0 21.1-11.3 26.3-13.9L126.6 80z"/>
 <path class="st5" d="M124 72.1c0-0.3-0.5-2-0.8-2.9 -0.6-2.1-1-4.4-1.6-6.7 -5.8 2.7-11.5 4.7-17.2 6.6 -3.5 1.2-7.6 2.5-11.1 2.8 -2.5 0.2-3.4 0.1-4.3 0.3 4 6.2 6.7 8.6 11.4 8.6 3.2 0 6.9-1.2 10-2.5 0.7-0.3 1.4-0.7 2.1-0.9C115.6 76.3 124 72.5 124 72.1z"/>
 <path class="st2" d="M120.2 42.9l-18.8 2.8h-3.9c-0.3 0-1.6 0.1-1.9 0.5 -0.1 0.6 0.1 1.5 0.3 2.3 1.3 5.2 6 5.5 9.2 5.5l15-1.4V42.9z"/>
 <path class="st2" d="M159.3 120.3c-3.7-2.1-7.4-4.9-10.9-8.1 -7.4 8.9-16.2 18.2-25.1 26.8h0c-2.7 2.6-5.3 5-7.9 7.4 2 2 8.1 2.9 10.9 2.9 6.3 0 12.4-4.4 17.9-10.3h0c5-5.3 9.6-11.7 13.7-17.2C158.3 121.3 158.8 120.7 159.3 120.3z"/>
 <path class="st2" d="M160.4 138c1.9-4 5.2-11.2 5.2-13.4 0-0.3 0-0.5-0.1-0.6 -1.6-0.9-3.3-1.9-4.9-2.8l-10.8 13.7 5.7 3.5 0 0 1 0.6 0.1 0.1 0 0 2.6 1.6c0.1-0.2 0.4-0.9 0.8-1.6h0C160.1 138.7 160.3 138.4 160.4 138 160.4 138 160.4 138 160.4 138L160.4 138z"/>
 <path class="st2" d="M147.3 111.1l-5.5-5.8 -12 9.8 6.9 8.2C140.1 119.5 144.3 115.1 147.3 111.1z"/>
 <path class="st4" d="M225.1 139v9.6c-0.1 5.1-1.6 10.3-1.7 10.8 -0.4 1.5-1.1 3-1.5 4.5 -2.3 7.6-11.3 18.4-19.6 21.4 -0.7 0.3-1.9 0.8-2.2 0.8 -1.7 0-7.5-3.7-8.3-4.2 -1-0.7-2-1.5-2.9-2.3 -1.8-1.6-3.9-3.9-5.2-5.6 -5.1-6.8-7.3-13.6-8.2-20.6 -0.2-1.7-0.5-3.7-0.5-5.5v-40.5h50.2V139L225.1 139z"/>
 <path class="st2" d="M207.4 139L207.4 139c-1 1.6-2.6 2.9-4.9 3.5 -0.6 0.2-1.7 0.2-2 0.2h-8.4V121h7.6c0.3 0 1 0 1.5 0.1 6.6 0.7 8.1 6.6 8.1 10.8C209.3 133.9 208.9 136.7 207.4 139zM219.2 129.2c0-0.3-0.4-2.7-0.7-3.9 -0.3-1.1-0.7-2.3-1.2-3.4 -2.6-5.8-9.3-8.3-13.6-8.3h-21.5v54.7h10v-18.2h11.5c0.3 0 2.7-0.3 4-0.7 0.5-0.2 1.7-0.6 2.4-0.9 4.1-1.9 6.9-6 8.1-9.5v0c0.3-0.8 0.5-1.5 0.6-2.2 0.2-1.3 0.3-1.9 0.4-3.1C219.2 132.4 219.3 130.9 219.2 129.2z"/>
</svg>