<svg id="Camada_1" data-name="Camada 1" xmlns="http://www.w3.org/2000/svg" viewBox="0 0 500 500"><defs><style>.cls-1{fill:#ffdc00;}.cls-2{fill:#004f9e;}</style></defs><path d="M249.76,399.76s-1.31-1.28-3.61-3.23h0a110.24,110.24,0,0,0-9.59-7.24h0c-8-5.34-18.64-10.88-29.47-11.7h0c-88.26-6.7-113.65-56.39-113.64-92.84h0c0-11.31,2.43-21.34,6.19-28.43h0C119.81,218.23,132,199.15,132,187.76h0c0-8.29-4.8-17.26-9.61-24.16h0a96.15,96.15,0,0,0-9.63-11.71h0l-.14-.14,68.9-52.28.1.07s2.46,1.62,6.6,4h0c4.13,2.43,9.95,5.68,16.68,8.94h0c13.45,6.51,30.53,13,45,13.16h0c21.69-.18,49.25-14.8,61.67-22.1h0c4.14-2.43,6.58-4,6.59-4h0l.1-.07,68.9,52.28-.14.14a96.15,96.15,0,0,0-9.63,11.71h0c-4.81,6.9-9.61,15.87-9.61,24.16h0c0,11.39,12.19,30.47,32.36,68.56h0c3.76,7.09,6.19,17.12,6.19,28.43h0c0,36.45-25.38,86.14-113.63,92.84h0c-16.26,1.23-32.15,13.09-39.07,18.94h0c-2.3,2-3.61,3.23-3.61,3.23h0l-.12.12-.12-.12Z"/><path class="cls-1" d="M132.34,187.76c0,11.6-12.23,30.62-32.4,68.72h0c-3.72,7-6.15,17-6.15,28.27h0c0,36.29,25.19,85.79,113.32,92.5h0c20.91,1.6,41,20.51,42.77,22.15h0c1.72-1.64,21.86-20.55,42.77-22.15h0C380.78,370.54,406,321,406,284.75h0c0-11.26-2.43-21.24-6.15-28.27h0c-20.16-38.1-32.38-57.12-32.4-68.72h0c0-16,17.49-34.21,19.2-36h0l-68.4-51.9c-2.21,1.44-40.1,25.9-68.34,26.14h0c-28.24-.24-66.13-24.7-68.34-26.14h0l-68.4,51.9c1.72,1.77,19.19,20,19.2,36Z"/><path class="cls-2" d="M392,278.07a43.54,43.54,0,0,0-4.2-15.21c-4.57-8.64-8.76-16.33-12.45-23.13-13.89-25.53-21.53-39.59-21.53-52S360.69,162.81,367,154l-49.65-37.66c-4.29,2.49-10,5.61-16.43,8.74-17.61,8.52-33.17,13.33-46.33,14.34V278.07Z"/><path d="M245.14,139.45c-13.16-1-28.71-5.82-46.33-14.34-6.47-3.13-12.14-6.25-16.43-8.74L132.74,154c6.33,8.78,13.24,21.22,13.24,33.73s-7.65,26.44-21.54,52c-3.69,6.79-7.88,14.49-12.45,23.13a43.54,43.54,0,0,0-4.2,15.21H245.14Z"/><path d="M268.76,286.05v84a65.44,65.44,0,0,1,22.86-6.41l.56-.05V286.05Z"/><path class="cls-2" d="M299.35,362.93a182.38,182.38,0,0,0,23.41-4.09V286.05H299.35Z"/><path class="cls-2" d="M238.17,373.84c2.05,1.18,4.1,2.46,6.17,3.85s3.87,2.68,5.54,3.94c1.67-1.26,3.53-2.6,5.54-3.94s4.12-2.67,6.17-3.85V286.05H238.17Z"/><path class="cls-2" d="M383.89,317.42a68.17,68.17,0,0,0,8.44-31.37h-31.8v56.64A74,74,0,0,0,383.89,317.42Z"/><path d="M207.59,286.05v77.56l.56.05A65.39,65.39,0,0,1,231,370.07v-84Z"/><path d="M146.41,286.05v61.08a117.18,117.18,0,0,0,23.41,9.75V286.05Z"/><path class="cls-2" d="M107.44,286.05a68,68,0,0,0,8.44,31.37,73.91,73.91,0,0,0,23.35,25.27V286.05Z"/><path class="cls-2" d="M177,358.84a182.38,182.38,0,0,0,23.41,4.09V286.05H177Z"/><path d="M329.94,286.05v70.83a117.18,117.18,0,0,0,23.41-9.75V286.05Z"/><path class="cls-1" d="M219.92,195.93s-13.56,9.69-10.66-8.17c1.56-9.59,16,2.36,16,2.36v-17L218.47,177s-3.85,0-6.3,0c-22.28.48-11.63,21.8-11.63,21.8H190.37l0-13.88,4.8,2.8,7.27-20.41-9.2,9.2-2.43-1.36V155.73h27.62l16.95,9.68L226.7,148H174.87l3.39,7.75v18.53s-8,1-12.59,3.26c-12.29,6-17.85,16.5-18.15,30-.79,36.07,30.26,36,30.26,36s1,4.54,0,7.14c-.77,2-3.39,4.36-3.39,4.36l16.46,11.14-.48-23.25s10.22-1.82,14.53-13.54c-9.87,4-15,3.09-15,3.09V205.62h12.59s11.92,16.64,11.14,28.58c-1.45,22.28-13.56,10.65-13.56,10.65v15s33.42-12.11,21.79-39.24C219.45,215,216,206.1,216,206.1l11.14,7.75Zm-42.63,34.69s-17.93-2.31-17.44-22.09c.64-25.11,17.44-24.49,17.44-24.49Z"/><path class="cls-1" d="M169.8,169.45a3.12,3.12,0,1,1,3.12,3.12,3.12,3.12,0,0,1-3.12-3.12Z"/><path class="cls-1" d="M165.91,149.83l-10.13,9.5,1.25,2.33,3.58-1.71s-.28,7.88.16,10.75c.78,5.14,4.79,2.46,7.63,1.4,0,0-3.9-9.35-.31-22,.23-.83-2.18-.31-2.18-.31Z"/><polygon class="cls-1" points="342.19 156.92 336.26 156.92 336.26 162.6 330.59 162.6 330.59 168.53 336.26 168.53 336.26 174.21 342.19 174.21 342.19 168.53 347.88 168.53 347.88 162.6 342.19 162.6 342.19 156.92"/><polygon class="cls-1" points="371.34 259.18 365.66 259.18 365.66 253.5 359.73 253.5 359.73 259.18 354.05 259.18 354.05 265.11 359.73 265.11 359.73 270.8 365.66 270.8 365.66 265.11 371.34 265.11 371.34 259.18"/><polygon class="cls-1" points="272.79 228.31 266.86 228.31 266.86 233.99 261.18 233.99 261.18 239.91 266.86 239.91 266.86 245.6 272.79 245.6 272.79 239.91 278.47 239.91 278.47 233.99 272.79 233.99 272.79 228.31"/><polygon class="cls-1" points="276.74 143.13 270.81 143.13 270.81 148.81 265.13 148.81 265.13 154.73 270.81 154.73 270.81 160.41 276.74 160.41 276.74 154.73 282.42 154.73 282.42 148.81 276.74 148.81 276.74 143.13"/><path class="cls-1" d="M303.15,169c-1-3.88-6,0-10-2.49-7.64-4.67-6.24.47-6.24.47s2.63,4.38,4.68,3.43c12.18-5.67,12.65,3,11.53-1.41Z"/><polygon class="cls-1" points="306.73 153.87 316.39 158.55 321.84 156.68 316.39 155.75 315.14 150.6 310.15 152.78 305.95 148.42 306.73 153.87 306.73 153.87"/><path class="cls-1" d="M309.06,224.28l-2.18-3.42-3.58,4.36-7.17,2.65L287.26,238l3.11,1.4.16,5-4,6.39s-6.54,3.35-4.83,2.18c7.94-5.46,6.23-10.91,6.23-10.91s-3.89,7.17-8.26,7.48a13.64,13.64,0,0,1-3-.31l-2,3.27-2.81.47-1.4,2.64h2.5l2,3.43.16,1.87,2.8-.31,2.8-4.05,3.9-.63,3.58,1.1,3.74-1.72,2.49-2.8,4.21-.16,1.24-2.18,4.06.63-.63-11.22,7.48-8.1.47-3.58-2.19-3.59Z"/><path class="cls-1" d="M330.94,187.76c-2,4.85,1.27,13.36,1.27,13.36l4.15,12.77s1.92,19.48-13.73,3.83c-5.19-5.19-9.58-18.52-9.58-18.52l-5.74.64,1.92-5.74,2.55,3.51,2.87-7.67,4.15-4.15-.32-5.74,3.2.32-1-2.24L319.44,173l1.92-5.11-.32-4.47-2.88-.32-1-3.19-1.92,2.24-1.92-3.2-7.66-3.51-1.91,1.6,2.55,2.55-5.11-1-3.51,2.88,1.59,2.87,4.48.32s7.29,11-3.2,9.58c-1.13-.15-.63,2.87-.63,2.87l8,.64-8.31,4.79-6.38-.64-7.34,1,1.28,3.19-4.8,1.65L284,181s-11.66-4.6-10.85-8.3c.48-2.2,4.6-1.44,4.46-3.69-.35-5.63-4.22-4.22-4.22-4.22l-5.63,5.27s1.46-5.38-.81-6c-2.46-.64-3.06,5.75-3.06,5.75s-1.77,1.81-1.6,3.19c.28,2.28,5.75,1.28,5.75,1.28l1,5.11,5.42,5.11,1.28,3.24,4.79,1.55-2.23,4.15,3.51,2.23-1.6,3.83,4.15,1.28-2.24,1.28,2.24,1.28,5.43-5.11-3.51-1.6,3.83-5.43-.32-2.23h2.87v2.23l-3.19,3.83h6.07s-13,16.53-20.44,17.88c-2.25.41-4.15-4.15-4.15-4.15L268,212l-3.83-1.27L262,213.25l1.92,2.88-.32,3.83,3.19.64,3.52-2.88,4.78,3.2,3.2-3.84h3.51l2.87-3.83,3.51-1.28,2.23-3.19h6.39L295.5,204l6.38,1.28-1.28,3.19L295.81,212A64.45,64.45,0,0,0,307,214.21c9.33.54,6.7,22.35,6.7,22.35l2.56,3.51,1.83,4.94,6.15-.47,6.71,2.56,2.55,9.26-1.92,2.55-4.47-2.55-1.59,2.87-2.88,2.23.64,2.56,6.71-1.28-2.24,3.2,2.87,1.91,2.88-2.88,3.83-4.46,2.23,2.55,3.2-.32-2.88-4.47v-3.19l-.63-8,3.51-3.84L338.28,242,336,237.84l-8-4.79s-.25-4,3.19-4.79c16.73-3.66,3.77-26.5,3.77-26.5s-4.08-14-.06-14c1.19,0,3.87,1.3,4.59,8.9.51,5.41,3.43,9,4.15,7,1-2.61,2.61-4.48,2.52-6.87C345.82,185.89,334.82,178.14,330.94,187.76Zm-23.61-21.69h1.22a10.06,10.06,0,0,0,.56,3.4,9.16,9.16,0,0,1,.62,3.07,9.66,9.66,0,0,1-.09,1.25l-1.21-.17a7.23,7.23,0,0,0,.08-1.08,8.08,8.08,0,0,0-.56-2.7A11.51,11.51,0,0,1,307.33,166.07Zm-1.84,19.19-.38-.43,2.29-2.29,2.11.71L311,181.9l2.22-3.11v6L311,186l-2.48,2.62Z"/><path d="M249.69,484.62s-2-2-5.65-5.06h0a171.09,171.09,0,0,0-15-11.33h0c-12.46-8.36-29.17-17-46.13-18.32h0C44.73,439.43,5,361.64,5,304.58H5c0-17.7,3.81-33.4,9.69-44.5h0c31.58-59.63,50.69-89.5,50.66-107.33h0c0-13-7.51-27-15-37.82h0A151.16,151.16,0,0,0,35.23,96.6h0L35,96.39,142.87,14.55l.16.1s3.84,2.53,10.32,6.34h0c6.48,3.81,15.59,8.9,26.12,14h0c21.05,10.19,47.78,20.42,70.41,20.61h0c33.95-.28,77.1-23.17,96.53-34.6h0c6.48-3.81,10.31-6.33,10.33-6.34h0l.15-.1L464.75,96.39l-.21.21a150.64,150.64,0,0,0-15.08,18.33h0c-7.54,10.8-15,24.85-15,37.82h0c0,17.83,19.08,47.7,50.66,107.33h0c5.88,11.1,9.69,26.8,9.69,44.5h0c0,57.06-39.73,134.85-177.89,145.33h0c-25.44,1.93-50.31,20.49-61.15,29.65h0c-3.6,3.06-5.65,5.06-5.65,5.06h0l-.19.18-.19-.18Z"/><path class="cls-1" d="M65.88,152.75c0,18.16-19.15,47.93-50.72,107.57h0c-5.83,11-9.63,26.64-9.63,44.26h0c0,56.81,39.44,134.3,177.4,144.8h0c32.73,2.5,64.25,32.11,66.95,34.68h0c2.7-2.57,34.22-32.18,66.95-34.68h0c138-10.5,177.38-88,177.4-144.8h0c0-17.62-3.8-33.25-9.63-44.26h0c-31.56-59.64-50.7-89.41-50.72-107.57h0c0-25,27.37-53.55,30.06-56.31h0L356.87,15.2c-3.47,2.25-62.78,40.54-107,40.92h0c-44.21-.38-103.52-38.67-107-40.92h0L35.82,96.44c2.69,2.77,30,31.28,30.06,56.31Z"/><path class="cls-2" d="M472.31,294.13c-1-9.18-3.29-17.61-6.57-23.82-7.16-13.51-13.71-25.57-19.5-36.2-21.73-40-33.7-62-33.7-81.36,0-19.58,10.81-39.06,20.72-52.8L355.55,41c-6.71,3.9-15.6,8.78-25.73,13.68C302.25,68,277.91,75.54,257.3,77.13v217Z"/><path d="M242.46,77.13c-20.6-1.59-45-9.11-72.52-22.46-10.13-4.9-19-9.78-25.73-13.68L66.5,100c9.92,13.74,20.73,33.22,20.73,52.8,0,19.38-12,41.39-33.71,81.36-5.78,10.63-12.34,22.69-19.5,36.2-3.28,6.21-5.57,14.64-6.57,23.82h215Z"/><path d="M279.44,306.61V438.14c12.31-5.79,24.29-9.17,35.78-10l.87-.07V306.61Z"/><path class="cls-2" d="M327.33,427a282.5,282.5,0,0,0,36.64-6.4V306.61H327.33Z"/><path class="cls-2" d="M231.56,444c3.2,1.86,6.41,3.85,9.65,6s6,4.21,8.67,6.18c2.62-2,5.52-4.06,8.67-6.18s6.46-4.16,9.66-6V306.61H231.56Z"/><path class="cls-2" d="M459.66,355.73a106.57,106.57,0,0,0,13.21-49.12H423.09v88.67C438.79,384.51,451.07,371.29,459.66,355.73Z"/><path d="M183.67,306.61V428l.88.07c11.49.87,23.46,4.25,35.77,10V306.61Z"/><path d="M87.91,306.61v95.62a182.86,182.86,0,0,0,36.64,15.26V306.61Z"/><path class="cls-2" d="M26.9,306.61a106.38,106.38,0,0,0,13.21,49.11c8.58,15.56,20.86,28.79,36.56,39.56V306.61Z"/><path class="cls-2" d="M135.79,420.56a283,283,0,0,0,36.65,6.4V306.61H135.79Z"/><path d="M375.21,306.61V417.49a182.38,182.38,0,0,0,36.65-15.26V306.61Z"/><path class="cls-1" d="M203,165.54s-21.24,15.17-16.68-12.79c2.44-15,25,3.69,25,3.69V129.9L200.7,136s-6-.08-9.86,0c-34.88.76-18.19,34.12-18.19,34.12H156.72l.06-21.72,7.52,4.38,11.38-31.95-14.41,14.41-3.79-2.13V102.61H200.7l26.54,15.16L213.59,90.48H132.46l5.3,12.13v29s-12.58,1.61-19.71,5.11c-19.23,9.43-27.93,25.81-28.4,47C88.41,240.21,137,240.06,137,240.06s1.56,7.1,0,11.17c-1.21,3.15-5.31,6.83-5.31,6.83l25.78,17.44-.76-36.4s16-2.84,22.75-21.19C164,224.18,156,222.74,156,222.74v-42h19.72s18.66,26,17.44,44.74c-2.28,34.88-21.23,16.68-21.23,16.68v23.5s52.32-18.95,34.12-61.41c-3.77-8.79-9.1-22.75-9.1-22.75l17.44,12.13Zm-66.73,54.3s-28.08-3.6-27.3-34.58c1-39.3,27.3-38.34,27.3-38.34Z"/><path class="cls-1" d="M124.52,124.09A4.88,4.88,0,1,1,129.4,129a4.88,4.88,0,0,1-4.88-4.88Z"/><path class="cls-1" d="M118.43,93.37l-15.85,14.87,2,3.66,5.6-2.68s-.43,12.34.25,16.82c1.22,8,7.51,3.86,12,2.2,0,0-6.1-14.63-.49-34.39.37-1.29-3.41-.48-3.41-.48Z"/><polygon class="cls-1" points="394.39 104.47 385.11 104.47 385.11 113.36 376.22 113.36 376.22 122.64 385.11 122.64 385.11 131.54 394.39 131.54 394.39 122.64 403.29 122.64 403.29 113.36 394.39 113.36 394.39 104.47"/><polygon class="cls-1" points="440.02 264.56 431.12 264.56 431.12 255.66 421.84 255.66 421.84 264.56 412.95 264.56 412.95 273.84 421.84 273.84 421.84 282.74 431.12 282.74 431.12 273.84 440.02 273.84 440.02 264.56"/><polygon class="cls-1" points="285.74 216.22 276.45 216.22 276.45 225.11 267.56 225.11 267.56 234.4 276.45 234.4 276.45 243.29 285.74 243.29 285.74 234.4 294.63 234.4 294.63 225.11 285.74 225.11 285.74 216.22"/><polygon class="cls-1" points="291.92 82.88 282.64 82.88 282.64 91.77 273.75 91.77 273.75 101.05 282.64 101.05 282.64 109.94 291.92 109.94 291.92 101.05 300.82 101.05 300.82 91.77 291.92 91.77 291.92 82.88"/><path class="cls-1" d="M333.26,123.36c-1.55-6.08-9.37-.08-15.6-3.9-12-7.32-9.76.73-9.76.73s4.11,6.86,7.32,5.36c19.06-8.87,19.8,4.68,18-2.19Z"/><polygon class="cls-1" points="338.87 99.71 353.99 107.02 362.53 104.1 353.99 102.64 352.04 94.59 344.23 98 337.65 91.17 338.87 99.71 338.87 99.71"/><path class="cls-1" d="M342.53,209.93l-3.42-5.37-5.6,6.83-11.22,4.15-13.9,15.85,4.87,2.19.25,7.8-6.34,10s-10.23,5.25-7.56,3.42c12.43-8.54,9.75-17.07,9.75-17.07s-6.09,11.21-12.92,11.7a20.8,20.8,0,0,1-4.63-.49l-3.17,5.12-4.39.74-2.2,4.14H286l3.16,5.37.25,2.93,4.39-.49,4.39-6.34,6.1-1,5.6,1.71,5.86-2.68,3.9-4.4,6.58-.24,1.95-3.41,6.34,1-1-17.56,11.7-12.68.73-5.6-3.41-5.61Z"/><path class="cls-1" d="M376.77,152.75c-3.08,7.6,2,20.92,2,20.92l6.5,20s3,30.49-21.49,6c-8.14-8.13-15-29-15-29l-9,1,3-9,4,5.5,4.49-12,6.5-6.5-.5-9,5,.5-1.5-3.5-2-8,3-8-.5-7-4.5-.5-1.5-5-3,3.5-3-5-12-5.5-3,2.5,4,4-8-1.5-5.5,4.5,2.5,4.5,7,.49s11.42,17.17-5,15c-1.78-.23-1,4.5-1,4.5l12.5,1-13,7.5-10-1-11.5,1.5,2,5-7.5,2.58,2.5-10.57s-18.25-7.22-17-13c.76-3.45,7.21-2.25,7-5.78-.56-8.82-6.61-6.61-6.61-6.61l-8.82,8.26s2.29-8.43-1.28-9.36c-3.84-1-4.78,9-4.78,9s-2.77,2.84-2.5,5c.43,3.57,9,2,9,2l1.5,8,8.49,8,2,5.08,7.49,2.42-3.49,6.5,5.5,3.5-2.5,6,6.49,2-3.5,2,3.5,2,8.5-8-5.5-2.5,6-8.5-.5-3.5h4.5v3.5l-5,6h9.5s-20.28,25.87-32,28c-3.52.63-6.5-6.5-6.5-6.5l-4.49,5-6-2-3.5,4,3,4.5-.5,6,5,1,5.51-4.5,7.49,5,5-6h5.5l4.5-6,5.49-2,3.5-5h10l-2-7.5,10,2-2,5-7.49,5.5s10.54,3.09,17.49,3.5c14.6.84,10.5,35,10.5,35l4,5.49,2.87,7.73,9.63-.73,10.5,4,4,14.49-3,4-7-4-2.5,4.5-4.5,3.5,1,4,10.49-2-3.5,5,4.5,3,4.5-4.51,6-7,3.49,4,5-.51-4.5-7v-5l-1-12.5,5.5-6-7-2-3.5-6.5-12.5-7.49s-.39-6.32,5-7.5c26.19-5.73,5.9-41.49,5.9-41.49s-6.39-21.91-.09-21.91c1.86,0,6.06,2,7.18,13.94.8,8.46,5.37,14.07,6.5,11,1.5-4.09,4.08-7,3.95-10.75C400.07,149.82,382.84,137.69,376.77,152.75Zm-36.95-34h1.91a15.81,15.81,0,0,0,.87,5.32,14.53,14.53,0,0,1,1,4.82,13.86,13.86,0,0,1-.14,1.95l-1.89-.27a13.37,13.37,0,0,0,.12-1.68,12.38,12.38,0,0,0-.88-4.23A17.77,17.77,0,0,1,339.82,118.79Zm-2.89,30.05-.59-.67,3.58-3.58,3.3,1.1,2.4-2.1,3.48-4.87v9.33l-3.62,2-3.88,4.1Z"/></svg>