<svg xmlns="http://www.w3.org/2000/svg" viewBox="0 0 1255.5 1280.8"><defs><style>.cls-1{fill:#ffd100;}.cls-2{fill:#006179;}.cls-3{fill:none;}</style></defs><g id="Layer_2" data-name="Layer 2"><g id="svg2158"><path class="cls-1" d="M1212.5,103.4a49.73,49.73,0,0,1-35.78-14.6,50.24,50.24,0,0,1-14.26-35.59V53c0-28.76,21.85-50.45,50.83-50.45,15.93,0,27.74,4.63,38.3,15a2.51,2.51,0,0,1,.14,3.42l-13,15a2.46,2.46,0,0,1-1.73.85h-.15a2.49,2.49,0,0,1-1.68-.65c-7.49-6.79-14.28-9.82-22-9.82-13.9,0-24.38,11.34-24.38,26.38V53c0,15.19,10.48,26.64,24.38,26.64,9.57,0,15.56-3.75,22.68-10.21a2.47,2.47,0,0,1,1.68-.65,2.52,2.52,0,0,1,1.78.74l13,13.12a2.49,2.49,0,0,1,0,3.46C1241,98.21,1229.05,103.4,1212.5,103.4Zm-397.07,0c-29.43,0-51.63-21.58-51.63-50.19V53c0-28.29,22.8-50.45,51.9-50.45,29.43,0,51.62,21.57,51.62,50.18V53C867.32,81.24,844.52,103.4,815.43,103.4Zm0-77.1c-14.43,0-25.31,11.34-25.31,26.38V53c0,15.19,11,26.64,25.58,26.64,14.43,0,25.31-11.34,25.31-26.38V53C841,37.76,830,26.3,815.43,26.3ZM444.59,103.13a59.51,59.51,0,0,1-36.54-12l3.08,7.23a2.5,2.5,0,0,1-2.3,3.48H387.52a2.51,2.51,0,0,1-2.32-1.56L377.36,81H341.52l-7.84,19.24a2.51,2.51,0,0,1-2.32,1.56H246.49a2.5,2.5,0,0,1-2.5-2.5V6.6a2.5,2.5,0,0,1,2.5-2.5h20.4a2.5,2.5,0,0,1,2.5,2.5V78.26H313.1a2.5,2.5,0,0,1,2.5,2.5v.35L348,5a2.5,2.5,0,0,1,2.3-1.53h18.81A2.51,2.51,0,0,1,371.41,5L404.6,83l11-13.22a2.49,2.49,0,0,1,1.92-.9,2.46,2.46,0,0,1,1.59.58c8.82,7.28,17.1,10.67,26.08,10.67,2.55,0,10.88-.45,10.88-6.23v-.27c0-3.06-1.17-5.36-16.79-9.37-17.84-4.55-32.6-10-32.6-30.76v-.27c0-17.92,14.37-30.44,34.94-30.44,13.69,0,25.8,4.15,36,12.33a2.5,2.5,0,0,1,.49,3.37L467.56,33.83a2.51,2.51,0,0,1-1.61,1,2.28,2.28,0,0,1-.45,0,2.51,2.51,0,0,1-1.43-.44c-8.44-5.85-15.85-8.69-22.67-8.69-5.73,0-9.43,2.19-9.43,5.58v.27c0,3.79,1.49,5.5,18.12,9.76,18.78,4.9,31.28,11.91,31.28,30.23v.27c0,19-14.34,31.24-36.53,31.24ZM368,58l-8.59-21-8.59,21Zm178,44.46a2.5,2.5,0,0,1-2.32-1.57L506.2,7.53a2.5,2.5,0,0,1,2.32-3.43H531a2.51,2.51,0,0,1,2.35,1.63l21.88,59,21.89-59a2.51,2.51,0,0,1,2.35-1.63h22a2.49,2.49,0,0,1,2.07,1.1,1,1,0,0,1,.11.17,2.51,2.51,0,0,1,2.18-1.27h69.93a2.5,2.5,0,0,1,2.5,2.5V24.74a2.5,2.5,0,0,1-2.5,2.5H628.6V41h41.19a2.5,2.5,0,0,1,2.5,2.5V61.7a2.5,2.5,0,0,1-2.5,2.5H628.6V78.67h47.81a2.49,2.49,0,0,1,2.5,2.5V99.31a2.5,2.5,0,0,1-2.5,2.5H605.83a2.5,2.5,0,0,1-2.5-2.5V8.68l-37,92.22a2.5,2.5,0,0,1-2.32,1.57Zm546.16-.66a2.5,2.5,0,0,1-2.5-2.5V6.6a2.5,2.5,0,0,1,2.5-2.5h70.57a2.5,2.5,0,0,1,2.5,2.5V25.13a2.5,2.5,0,0,1-2.5,2.5H1115V42.37h41.72a2.49,2.49,0,0,1,2.5,2.5V63.42a2.49,2.49,0,0,1-2.5,2.5H1115V99.31a2.5,2.5,0,0,1-2.5,2.5Zm-55.48,0a2.51,2.51,0,0,1-2.32-1.56L1026.51,81H990.68l-7.84,19.24a2.5,2.5,0,0,1-2.31,1.56H959.75a2.5,2.5,0,0,1-2.09-1.12l-.09-.16a2.51,2.51,0,0,1-2.18,1.28H938a2.51,2.51,0,0,1-2-1l-40.4-53V99.31a2.5,2.5,0,0,1-2.5,2.5H873a2.5,2.5,0,0,1-2.5-2.5V6.6A2.5,2.5,0,0,1,873,4.1h18.8a2.5,2.5,0,0,1,2,1l39,51.18V6.6a2.49,2.49,0,0,1,2.5-2.5h20.13a2.5,2.5,0,0,1,2.5,2.5V97.29L997.17,5a2.49,2.49,0,0,1,2.3-1.53h18.8a2.5,2.5,0,0,1,2.3,1.53l39.72,93.37a2.49,2.49,0,0,1-2.3,3.48ZM1017.19,58l-8.59-21L1000,58Zm-276.3,43.8a2.51,2.51,0,0,1-2.08-1.11L719.69,72.14H707.5V99.31a2.5,2.5,0,0,1-2.5,2.5H684.61a2.5,2.5,0,0,1-2.5-2.5V6.6a2.5,2.5,0,0,1,2.5-2.5H727c12.2,0,22.15,3.5,28.77,10.13,5.68,5.67,8.68,13.62,8.68,23v.26c0,13.82-6.56,24.32-18.56,29.87L766.79,97.9a2.5,2.5,0,0,1-2.06,3.91ZM725.66,49.13c8.22,0,13.12-4,13.12-10.62v-.26c0-8.89-7.35-10.75-13.51-10.75H707.5V49.13ZM174.47,101.81a2.5,2.5,0,0,1-2.5-2.5V6.6a2.5,2.5,0,0,1,2.5-2.5h20.4a2.5,2.5,0,0,1,2.5,2.5V78.26h43.71a2.5,2.5,0,0,1,2.5,2.5V99.31a2.5,2.5,0,0,1-2.5,2.5Zm-78.78,0a2.5,2.5,0,0,1-2.5-2.5V6.6a2.5,2.5,0,0,1,2.5-2.5h69.93a2.5,2.5,0,0,1,2.5,2.5V24.74a2.5,2.5,0,0,1-2.5,2.5H118.46V41h41.19a2.5,2.5,0,0,1,2.5,2.5V61.7a2.5,2.5,0,0,1-2.5,2.5H118.46V78.67h47.82a2.49,2.49,0,0,1,2.5,2.5V99.31a2.5,2.5,0,0,1-2.5,2.5Zm-32.69,0a2.5,2.5,0,0,1-2.5-2.5V64.59H27.89V99.31a2.5,2.5,0,0,1-2.5,2.5H5a2.5,2.5,0,0,1-2.5-2.5V6.6A2.5,2.5,0,0,1,5,4.1H25.39a2.5,2.5,0,0,1,2.5,2.5V40.79H60.5V6.6A2.5,2.5,0,0,1,63,4.1H83.39a2.5,2.5,0,0,1,2.5,2.5V99.31a2.5,2.5,0,0,1-2.5,2.5Z"/><path class="cls-2" d="M1213.29,5c17.47,0,27.94,5.83,36.55,14.31l-13,15c-7.15-6.49-14.44-10.47-23.7-10.47-15.63,0-26.88,13-26.88,28.88V53c0,15.9,11,29.14,26.88,29.14,10.59,0,17.08-4.24,24.36-10.86l13,13.12c-9.53,10.19-20.13,16.55-38,16.55-27.28,0-47.54-21.06-47.54-47.69V53C1165,26.59,1184.83,5,1213.29,5M815.7,5c28.59,0,49.12,21.32,49.12,47.68V53c0,26.36-20.78,48-49.39,48S766.3,79.57,766.3,53.21V53C766.3,26.59,787.09,5,815.7,5m0,77.09c16.41,0,27.81-13,27.81-28.88V53c0-15.89-11.66-29.15-28.08-29.15s-27.81,13-27.81,28.88V53c0,15.9,11.66,29.14,28.08,29.14m-374-76.82a53.64,53.64,0,0,1,34.42,11.78L465.5,32.41c-8.21-5.68-16.29-9.13-24.1-9.13s-11.93,3.57-11.93,8.08v.27c0,6.09,4,8.08,20,12.18,18.8,4.9,29.4,11.66,29.4,27.81v.27c0,18.41-14,28.74-34,28.74h-.25A57.08,57.08,0,0,1,405.51,85.8l12.05-14.44c8.34,6.89,17.08,11.25,27.67,11.25,8.35,0,13.38-3.3,13.38-8.73v-.27c0-5.16-3.17-7.81-18.67-11.79-18.67-4.77-30.72-9.92-30.72-28.34v-.27c0-16.81,13.51-27.94,32.44-27.94m576.61.66L1058,99.31h-21.32l-8.48-20.8H989l-8.47,20.8H959.75L999.47,5.93h18.8m-22,54.58h24.63L1008.6,30.44,996.28,60.51M369.11,5.93l39.72,93.38H387.52L379,78.51h-39.2l-8.48,20.8H246.49V6.6h20.4V80.76H313.1V93.38L350.3,5.93h18.81m-22,54.58h24.64L359.44,30.44,347.12,60.51M1162.72,6.6V25.13h-50.18V44.87h44.22V63.42h-44.22V99.31h-20.39V6.6h70.57m-207.33,0V99.31H938L893.14,40.36v59H873V6.6h18.8l43.43,57.07V6.6h20.14M727,6.6c11.79,0,20.91,3.3,27,9.39,5.18,5.17,8,12.46,8,21.2v.26c0,15-8.07,24.37-19.86,28.74l22.65,33.12H740.89L721,69.64H705V99.31H684.61V6.6H727m-22,45h20.66c9.94,0,15.62-5.3,15.62-13.12v-.26c0-8.75-6.09-13.25-16-13.25H705V51.63m-29.24-45V24.74H626.1v18.8h43.69V61.7H626.1V81.17h50.31V99.31H605.83V6.6h69.93m-74.29,0L564,100H546L508.52,6.6H531l24.23,65.29L579.49,6.6h22m-406.6,0V80.76h46.21V99.31H174.47V6.6h20.4m-29.25,0V24.74H116v18.8h43.69V61.7H116V81.17h50.32V99.31H95.69V6.6h69.93m-82.23,0V99.31H63V62.09H25.39V99.31H5V6.6H25.39V43.29H63V6.6H83.39M1213.29,0c-14.91,0-28.55,5.54-38.41,15.59a51,51,0,0,0-7.16,9.19V6.6a5,5,0,0,0-5-5h-70.57a5,5,0,0,0-5,5V99.31a5,5,0,0,0,5,5h20.39a5,5,0,0,0,5-5V68.42h39.22a5,5,0,0,0,4.55-2.92,51.57,51.57,0,0,0,51.19,40.4c17.31,0,29.77-5.42,41.65-18.14a5,5,0,0,0-.09-6.93l-13-13.12a5,5,0,0,0-6.91-.18c-6.82,6.2-12.19,9.56-21,9.56-12.47,0-21.88-10.38-21.88-24.14v-.27c0-13.61,9.41-23.88,21.88-23.88,7.17,0,13.25,2.75,20.34,9.17a5,5,0,0,0,3.36,1.3h.29a5,5,0,0,0,3.48-1.71l13-15a5,5,0,0,0-.27-6.84C1242.28,4.86,1229.93,0,1213.29,0Zm-95.75,30.13h45.18a5,5,0,0,0,2.45-.64,53,53,0,0,0-4.18,12.7,5,5,0,0,0-4.23-2.32h-39.22V30.13ZM815.7,0c-15,0-28.83,5.52-39,15.54a52.1,52.1,0,0,0-10.38,14.63,32.14,32.14,0,0,0-8.84-17.71C750.42,5.35,739.86,1.6,727,1.6H684.61a5,5,0,0,0-4.43,2.67,5,5,0,0,0-4.42-2.67H605.83a5,5,0,0,0-2.18.5,4.91,4.91,0,0,0-2.18-.5h-22a5,5,0,0,0-4.69,3.26L555.25,57.52,535.71,4.86A5,5,0,0,0,531,1.6h-22.5a5,5,0,0,0-4.64,6.86l37.47,93.37A5,5,0,0,0,546,105h18a5,5,0,0,0,4.64-3.14l32.19-80.21V99.31a5,5,0,0,0,5,5h70.58a5,5,0,0,0,4.1-2.14,5,5,0,0,0,4.1,2.14H705a5,5,0,0,0,5-5V74.64h8.36l18.37,27.45a5,5,0,0,0,4.16,2.22h23.84a5,5,0,0,0,4.13-7.83L749.55,68.26a33,33,0,0,0,11.91-10.88,51.73,51.73,0,0,0,15.16,33.11c10,9.94,23.81,15.41,38.81,15.41s28.83-5.52,38.94-15.54A51.71,51.71,0,0,0,868,66.81v32.5a5,5,0,0,0,5,5h20.12a5,5,0,0,0,5-5V55.18l35.91,47.16a5,5,0,0,0,4,2h17.36a5,5,0,0,0,2.18-.5,5.05,5.05,0,0,0,2.18.5h20.78a5,5,0,0,0,4.63-3.12l7.2-17.68h32.47l7.21,17.68a5,5,0,0,0,4.63,3.12H1058a5,5,0,0,0,4.6-7L1022.87,4a5,5,0,0,0-4.6-3h-18.8A5,5,0,0,0,994.86,4L960.39,85V6.6a5,5,0,0,0-5-5H935.25a5,5,0,0,0-5,5V48.85L895.8,3.57a5,5,0,0,0-4-2H873a5,5,0,0,0-5,5V38.78A51.35,51.35,0,0,0,854.5,15.4C844.47,5.47,830.7,0,815.7,0ZM631.1,29.74h44.66a5,5,0,0,0,3.85-1.82V77.33a4.94,4.94,0,0,0-3.2-1.16H631.1V66.7h38.69a5,5,0,0,0,5-5V43.54a5,5,0,0,0-5-5H631.1v-8.8ZM815.7,77.09c-13.16,0-23.08-10.38-23.08-24.14v-.27c0-13.61,9.81-23.88,22.81-23.88,13.16,0,23.08,10.39,23.08,24.15v.26c0,13.61-9.81,23.88-22.81,23.88ZM710,30h15.27c11,0,11,6,11,8.25v.26c0,7.06-6.65,8.12-10.62,8.12H710V30Zm293.74,25.51,4.86-11.88,4.86,11.88ZM441.66.27c-22.05,0-37.44,13.55-37.44,32.94v.27C404.22,56,420.53,62,438.7,66.66c7.14,1.84,11.47,3.36,13.63,4.78,1.28.85,1.28,1.21,1.28,2.17v.27c0,.62-.41,3.73-8.38,3.73-8.48,0-16-3.11-24.49-10.1a5,5,0,0,0-7,.65L405.3,78.24,373.71,4a5,5,0,0,0-4.6-3H350.3A5,5,0,0,0,345.7,4L315,76.13a5,5,0,0,0-1.9-.37H271.89V6.6a5,5,0,0,0-5-5h-20.4a5,5,0,0,0-5,5V75.78a2.75,2.75,0,0,0-.41,0H199.87V6.6a5,5,0,0,0-5-5h-20.4A5,5,0,0,0,170,4.27a5,5,0,0,0-4.42-2.67H95.69a5,5,0,0,0-5,5V99.31a5,5,0,0,0,5,5h70.59a5,5,0,0,0,4.09-2.13,5,5,0,0,0,4.1,2.13h66.61a5,5,0,0,0,2.7-.8,5,5,0,0,0,2.71.8h84.87a5,5,0,0,0,4.63-3.12l7.21-17.68h32.48l7.21,17.68a5,5,0,0,0,4.63,3.12h21.31a5,5,0,0,0,4.73-6.63,62.1,62.1,0,0,0,31,7.95h.27c23.69,0,39-13.24,39-33.74v-.27c0-21.1-15.93-28.16-33.14-32.64-7-1.79-12.14-3.29-14.72-4.82-1.48-.87-1.54-1.24-1.54-2.53v-.27c0-2.12,3.59-3.08,6.93-3.08,6.29,0,13.24,2.69,21.25,8.24a5,5,0,0,0,2.85.89,4.56,4.56,0,0,0,.9-.08,5,5,0,0,0,3.21-2.08L480.2,19.89a5,5,0,0,0-1-6.74C468.57,4.6,455.93.27,441.66.27ZM121,29.74h44.66a5,5,0,0,0,3.85-1.82v49.4a5,5,0,0,0-3.19-1.15H121V66.7h38.69a5,5,0,0,0,5-5V43.54a5,5,0,0,0-5-5H121v-8.8ZM354.57,55.51l4.87-11.88,4.87,11.88ZM83.39,1.6H63a5,5,0,0,0-5,5V38.29H30.39V6.6a5,5,0,0,0-5-5H5a5,5,0,0,0-5,5V99.31a5,5,0,0,0,5,5H25.39a5,5,0,0,0,5-5V67.09H58V99.31a5,5,0,0,0,5,5H83.39a5,5,0,0,0,5-5V6.6a5,5,0,0,0-5-5Z"/><g id="Layer_2-2" data-name="Layer 2"><g id="svg2158-2" data-name="svg2158"><line class="cls-3" x1="1245.72" y1="1280.8" x2="0.22" y2="1280.8"/><polygon class="cls-2" points="3.28 387.27 3.28 672.49 220.1 672.49 629.03 1280.8 1037.97 672.49 1254.79 672.49 1254.79 390.51 1162.57 390.51 1084.53 312.47 1002.71 394.29 828.17 394.29 629.02 670.43 430.9 394.29 250.04 394.29 170.5 314.75 98.31 386.94 3.28 387.27"/><g id="path1099"><path class="cls-1" d="M1146.82,669.2c24-22.28,24.37-63.26,25.43-70.49,1-6.79-.69-30,8.37-77.54,14.6-57.41,71.17-53.87,71.17-53.87V669.49Zm4-152.3c-5.4,43.54-8.46,75.9-10.15,91.48,0,0-4.75,57.64-46.14,59.54-6.65.31-21.89,1.35-21.89,1.35h-26.06s-5.2-.74-7.47,1.55l-262,383.91-31-540.36L970.33,194.13,990,237.69a13.14,13.14,0,0,0,6.68,8.07c5.26,2.46,145.3,63.55,145.3,63.55s20.71,8.07,20.71,28.44v52.76h89.13v47.95h-6.23c-26.55,0-87.7,21.76-94.73,78.44Zm4.12-134.57c-6.68-4.21-66.34-44.58-66.34-44.58l-72,44.58a4.79,4.79,0,0,0-2.13,3.64,3.55,3.55,0,0,0,2,3.16s2.64,1.38,34.6,1.38h111.45c-.2-.65-1.54-4.33-7.62-8.18Zm-1038.83-73s140-61.09,145.3-63.55a13.2,13.2,0,0,0,6.68-8.07l19.65-43.58L512,514.37l-31,540.36L219,670.82c-2.27-2.29-7.48-1.55-7.48-1.55H185.42s-15.25-1-21.89-1.35c-41.39-1.9-46.14-59.54-46.14-59.54-1.69-15.58-4.75-47.94-10.15-91.48-7-56.68-68.17-78.44-94.73-78.44H6.28V390.51H95.4V337.75c0-20.37,20.72-28.44,20.72-28.44Zm90.82,81.2c32,0,34.61-1.38,34.61-1.38a3.57,3.57,0,0,0,2-3.16,4.86,4.86,0,0,0-2.14-3.64l-71.94-44.58s-59.66,40.31-66.33,44.56c-6.09,3.85-7.43,7.53-7.63,8.18ZM77.45,521.17c9.06,47.58,7.37,70.75,8.37,77.54,1.07,7.23,1.45,48.21,25.42,70.49l-105,.29V467.3S62.85,463.76,77.45,521.17ZM720.4,959.62H537.48l2.41-47.45h178Zm-4.93-94.15H542.39L544.8,818H713.05ZM551.91,677l5.17-99.48,71.94,98,71.77-98L706,677Zm158.66,94.21H547.1l2.64-47.38H708.3Zm-81.64,235.25h93.75l6.06,119.11-99.81,146.63-99.81-146.63,6.1-119.11Z"/><path class="cls-2" d="M628.93,1278.37,525.57,1126.52l6.29-123.61H726l6.3,123.61Zm-96.25-153.85,96.25,141.41,96.29-141.41-5.84-114.61H538.51Zm241.54-59.33-31.7-551.83L971,187.08l22.3,49.46.08.3a9.76,9.76,0,0,0,4.75,5.75c5.14,2.4,141.74,62,145.17,63.49,1.68.66,22.87,9.58,22.87,31.67V387h89.13V442h-9.73c-27.67,0-84.73,22.76-91.25,75.37h0c-4.14,33.31-6.9,60.07-8.72,77.78-.56,5.42-1,10-1.43,13.65a105.7,105.7,0,0,1-7.82,30.07c-8.89,20.48-23.29,31.74-41.64,32.58-6.53.31-21.66,1.34-21.81,1.35h-26.8a8.55,8.55,0,0,0-4.34.43ZM749.65,515.38,780,1044.26l256.39-375.68.22-.23c3.14-3.16,8.57-2.77,10.19-2.58h25.71c1.45-.1,15.55-1,21.85-1.35,37.8-1.73,42.76-55.79,42.81-56.33q.6-5.6,1.43-13.7c1.83-17.73,4.6-44.54,8.74-77.92,4-32.54,24.86-52.22,41.62-63,21.27-13.67,43.77-18.52,56.58-18.52h2.73V394H1051.12c-14.67,0-32.66-.3-36-1.69h0a7,7,0,0,1-4.06-6.35,8.3,8.3,0,0,1,3.73-6.58l73.93-45.81,1.88,1.27c.6.41,59.69,40.39,66.24,44.52h0c.86.55,1.64,1.09,2.34,1.63V337.75c0-17.67-17.73-24.88-18.49-25.18h-.12c-5.72-2.5-140.14-61.13-145.39-63.59-5.91-2.75-8-8.5-8.48-10l-17-37.74Zm268.4-129.48c1.58.27,8.46,1.11,33.07,1.11h104.36a26.9,26.9,0,0,0-2.4-1.72c-6.07-3.83-54.2-36.36-64.55-43.37l-69.95,43.34a1.72,1.72,0,0,0-.53.64Zm0,.07ZM483.86,1065.19l-267.54-392a8.67,8.67,0,0,0-4.37-.43H185.22c-.15,0-15.28-1-21.82-1.35-18.34-.84-32.74-12.1-41.63-32.58a105.32,105.32,0,0,1-7.83-30.16c-.39-3.57-.86-8.14-1.42-13.56-1.82-17.7-4.58-44.46-8.72-77.78C97.22,464.72,40.22,442,12.51,442H2.78V387H91.9V337.75c0-22.09,21.2-31,22.87-31.67,3.44-1.5,140-61.09,145.17-63.49a9.76,9.76,0,0,0,4.77-5.78l.19-.56,22.18-49.17L515.55,513.36l-.07,1.21ZM213.41,665.64c2.36,0,5.78.45,8,2.71l.22.23.18.26,256.24,375.42,30.37-528.88-220-314.21-17,37.74a16.78,16.78,0,0,1-8.49,10c-5.27,2.48-139.71,61.11-145.41,63.61h-.13c-.86.34-18.49,7.56-18.49,25.18V381c.72-.55,1.5-1.09,2.37-1.64,6.53-4.13,65.64-44.11,66.24-44.52l1.88-1.27,73.83,45.83A8.32,8.32,0,0,1,247,386a7.07,7.07,0,0,1-4.08,6.36h0c-3.39,1.39-21.37,1.69-36,1.69H9.78v41h2.73c12.81,0,35.32,4.85,56.58,18.52,16.76,10.77,37.59,30.45,41.62,63,4.14,33.39,6.91,60.19,8.74,77.93.55,5.4,1,10,1.42,13.6,0,.63,5,54.69,42.82,56.42,6.3.3,20.4,1.25,21.85,1.35h25.68A19.8,19.8,0,0,1,213.41,665.64ZM102.59,387H206.94c24.87,0,31.64-.86,33.13-1.12a2.67,2.67,0,0,0-.58-.63l-69.94-43.34c-10.35,7-58.5,39.55-64.55,43.37A25.67,25.67,0,0,0,102.59,387ZM724.1,963.08H533.79l2.77-54.45h184.6Zm-182.94-7H716.71l-2.18-40.45H543.22Zm178-87.15H538.71l2.76-54.52H716.38Zm-173.09-7H711.79l-2.06-40.52H548.13Zm168.15-87.27H543.4l3-54.38H711.64Zm-163.45-7h156.1l-1.94-40.38H553.05ZM629,681.35l-.66-.9H548.22l5.87-113,74.93,102,74.75-102,5.87,113H629.69Zm5.79-7.9h67.46l-4.47-86Zm-79.22,0h67.66l-63.15-86Zm699.7-.45-117.35-.32,6.5-6c20-18.61,22.85-51.66,23.91-64.1.17-1.94.29-3.34.44-4.33.21-1.47.29-4,.41-7.62.38-11.83,1.08-33.83,8-70.08v-.21c7.91-31.08,27.85-44.81,43.18-50.85a81.09,81.09,0,0,1,31.6-5.65l3.29.21Zm-100.43-7.27,93.43.25V470.78a77.34,77.34,0,0,0-25.54,5.3C1202.8,484,1189.79,499.45,1184,522c-6.77,35.64-7.46,57.26-7.84,68.88,0,2.81-.18,5.62-.48,8.41-.11.79-.23,2.17-.38,3.92-1,11.92-3.58,41.85-20.47,62.57ZM2.78,673V464l3.28-.21a81.21,81.21,0,0,1,31.61,5.65c15.33,6,35.26,19.77,43.17,50.85v.21c6.9,36.25,7.6,58.25,8,70.08.11,3.57.2,6.15.41,7.61.15,1,.27,2.43.44,4.39,1.07,12.43,3.91,45.47,23.91,64l6.5,6Zm7-202.21V666l93.43-.25c-16.86-20.65-19.44-50.59-20.46-62.54-.15-1.77-.28-3.17-.39-4a81.44,81.44,0,0,1-.49-8.41c-.37-11.62-1.06-33.24-7.84-68.88C68.28,499.4,55.27,484,35.35,476a77,77,0,0,0-25.57-5.24Z"/></g></g></g></g></g></svg>