<?xml version="1.0" encoding="utf-8"?>
<!-- Generator: Adobe Illustrator 13.0.0, SVG Export Plug-In . SVG Version: 6.00 Build 14948)  -->
<!DOCTYPE svg PUBLIC "-//W3C//DTD SVG 1.0//EN" "http://www.w3.org/TR/2001/REC-SVG-20010904/DTD/svg10.dtd">
<svg version="1.0" xmlns="http://www.w3.org/2000/svg" xmlns:xlink="http://www.w3.org/1999/xlink" x="0px" y="0px"
	 width="385.713px" height="382.843px" viewBox="0 0 385.713 382.843" enable-background="new 0 0 385.713 382.843"
	 xml:space="preserve">
<g id="Ebene_3">
	<polygon fill-rule="evenodd" clip-rule="evenodd" fill="#FFFFFF" points="55.551,165.21 13.051,215.71 63.051,304.71 
		82.051,323.71 318.052,323.71 360.552,243.21 334.552,164.21 	"/>
</g>
<g id="Ebene_4">
	<path fill-rule="evenodd" clip-rule="evenodd" fill="#FFFFFF" d="M30.055,266.788h330.838c0,0-27.5,114.266-165.422,114.266
		C57.551,381.054,30.055,266.788,30.055,266.788z"/>
</g>
<g id="Ebene_1">
	<path fill-rule="evenodd" clip-rule="evenodd" fill="#E32219" stroke="#FFFFFF" stroke-width="6" d="M353.644,171.34
		l-24.096-18.793l18.756-39.285l-43.648,5.625l-12.393-24.293l-41.398,39.637c-4.672,4.474-12.178,2.339-10.447-4.966l19.459-81.98
		l-38.303,15.854l-27.265-56.26l-27.266,56.26l-38.302-15.854l19.457,81.98c1.732,7.305-5.774,9.439-10.445,4.966L96.354,94.594
		L83.96,118.887l-43.649-5.625l18.756,39.285L34.968,171.34H353.644L353.644,171.34z"/>
	<path fill-rule="evenodd" clip-rule="evenodd" fill="#E32219" stroke="#FFFFFF" stroke-width="6" d="M362.187,263.292
		c-11.883,33.309-33.488,62.07-61.375,82.824l-0.201-32.18l40.275-50.645H362.187L362.187,263.292z"/>
	<path fill-rule="evenodd" clip-rule="evenodd" fill="#E32219" stroke="#FFFFFF" stroke-width="6" d="M249.987,371.21
		c-17.186,5.594-35.506,8.633-54.516,8.633c-19.008,0-37.329-3.039-54.512-8.633l21.8-21.332h32.728h32.697L249.987,371.21
		L249.987,371.21z"/>
	<path fill-rule="evenodd" clip-rule="evenodd" fill="#E32219" stroke="#FFFFFF" stroke-width="6" d="M90.134,346.116
		c-27.887-20.754-49.49-49.516-61.372-82.824H50.06l40.275,50.645L90.134,346.116L90.134,346.116z"/>
	<polygon fill-rule="evenodd" clip-rule="evenodd" fill="#E32219" stroke="#FFFFFF" stroke-width="6" points="132.157,309.655 
		158.581,281.218 146.682,263.292 60.363,263.292 97.718,309.437 132.157,309.655 	"/>
	<polygon fill-rule="evenodd" clip-rule="evenodd" fill="#E32219" stroke="#FFFFFF" stroke-width="6" points="258.79,309.655 
		232.364,281.218 244.265,263.292 330.583,263.292 293.228,309.437 258.79,309.655 	"/>
	<polygon fill-rule="evenodd" clip-rule="evenodd" fill="#E32219" stroke="#FFFFFF" stroke-width="6" points="164.694,342.874 
		138.238,314.519 164.694,286.167 226.253,286.167 252.708,314.519 226.253,342.874 164.694,342.874 	"/>
	<polygon fill-rule="evenodd" clip-rule="evenodd" stroke="#FFFFFF" stroke-width="7.1042" points="308.81,258.21 321.315,213.815 
		341.96,213.796 336.276,237.097 353.12,237.097 336.356,175.543 357.747,175.543 381.022,258.21 308.81,258.21 	"/>
	<path fill-rule="evenodd" clip-rule="evenodd" stroke="#FFFFFF" stroke-width="6.8452" d="M258.876,200.802h22.633
		c3.436,0,6.279,1.602,8.365,4.545s3.135,6.873,3.135,11.775c0,4.789-0.994,8.607-2.998,11.455c-1.99,2.869-4.676,4.297-8.027,4.297
		h-2.24v-20.746h-20.867v20.746h-0.008l0.059,26.988h24.459c2.848,0,5.59-0.434,8.219-1.33c2.646-0.893,5.016-2.166,7.156-3.795
		c5.166-4.145,9.066-9.404,11.709-15.746c2.658-6.346,3.98-13.621,3.98-21.869c0-6.076-0.748-11.719-2.264-16.926
		c-1.498-5.18-3.693-9.761-6.555-13.73c-2.904-4.007-6.273-7.044-10.088-9.098c-3.83-2.065-8.703-3.148-13.148-3.148h-23.52V200.802
		L258.876,200.802z"/>
	<polygon fill-rule="evenodd" clip-rule="evenodd" stroke="#FFFFFF" stroke-width="6.8496" points="192.881,260.96 204.067,214.909 
		222.567,214.89 217.476,239.056 232.567,239.056 217.546,175.21 236.718,175.21 257.587,260.96 192.881,260.96 	"/>
	<path fill-rule="evenodd" clip-rule="evenodd" stroke="#FFFFFF" stroke-width="6.7895" d="M155.46,201.36h15.85v58.104h20.31
		v-67.877c0-9.421-5.503-16.377-12.688-16.377h-43.783v84.254h20.31L155.46,201.36L155.46,201.36z"/>
	<path fill-rule="evenodd" clip-rule="evenodd" stroke="#FFFFFF" stroke-width="7.1027" d="M70.144,232.726l5.106-18.652
		l20.294-0.02l-5.583,23.691h16.557l-16.482-62.58h21.033l22.881,84.045H64.468H37.633c-3.125,0-6.134-0.424-9.019-1.303
		c-2.901-0.877-5.503-2.125-7.852-3.727c-5.668-4.066-9.943-9.227-12.845-15.451c-2.915-6.229-4.367-13.369-4.367-21.463
		c0-5.961,0.825-11.5,2.483-16.611c1.646-5.082,4.052-9.578,7.193-13.474c3.187-3.932,6.88-6.91,11.066-8.929
		c4.202-2.025,9.549-3.088,14.422-3.088h16.496v26.086H39.694c-3.77,0-6.893,1.572-9.18,4.463
		c-2.286,2.889-3.438,6.744-3.438,11.553c0,4.703,1.1,8.439,3.288,11.244c2.193,2.809,5.132,4.215,8.81,4.215H70.144L70.144,232.726
		z"/>
</g>
</svg>
