<svg id="svg1" xmlns="http://www.w3.org/2000/svg" viewBox="0 0 906.86 1253.25"><defs><style>.cls-1{fill:#fff;}.cls-2{fill:#324c44;}.cls-3{fill:#019339;}.cls-4{fill:#f62f3e;}</style></defs><title>Mexico 2021 Logo</title><g id="layer2"><g id="g43578"><path class="cls-1" d="M906.75,675.45c2-141.82-64.09-242.12-88.57-275.83-.39-10.69-1.23-22.23-2.7-34.48C814,352.5,812,340.75,809.73,330l9.47-14.88c-4.14-15.88-9.33-33-15.89-51-5.73-15.78-11.81-30.32-17.92-43.61q4.07-17.57,8.12-35.15c-2-3.41-4.75-8.06-8.12-13.52,0,0-10.65-17.29-22.31-33.8-17.2-24.39-43.67-53.74-58.81-71C691,51.84,671.62,29.17,648.83,0q-3.37,27.75-6.76,55.51c.74,8.75,1.46,20.8,1.35,35.15-.12,17.35-.56,48.77-10.81,87.21a313.31,313.31,0,0,1-24.34,62.88A460.05,460.05,0,0,0,453.38,213c-108.93-.5-187.66,38.12-211.53,50.7C225.38,272.41,154.57,311.05,93.28,391a459,459,0,0,0-49.69,80.62C31.31,497.35-1.68,572.9,0,675.45.19,687,1.5,763.25,32.94,839.73c12.85,31.24,30.83,64,53.52,96H83.14v47.33H35.48v270.19H868.21V983.06H822.58V935.73h-3.46c11.36-15.42,18.39-26.73,21-31.1C902.6,801.5,906.37,702,906.75,675.45Z" transform="translate(0.06)"/><path class="cls-2" d="M799.08,1006.55h45.64v222.08H61.34V1006.55H107V957.87h30.65q-6.28-6.63-12.42-13.69C110.8,927.54,20.45,820.12,21.79,664.73c.14-16.26,1.69-80.06,31.94-155.59,37.87-94.54,97.68-150,112.57-163.27,118.86-106.27,259.91-108.24,290-108a433.41,433.41,0,0,1,162.21,33.29A376.6,376.6,0,0,0,666.41,58.55c6.38,7.09,15.5,17.31,26.36,29.75,20.56,23.53,30.84,35.29,40.57,48a448.52,448.52,0,0,1,35.83,54.76q-4.56,15.38-9.17,30.76c1.44,2.7,3.47,6.65,5.75,11.49,4.2,8.93,9.32,19.28,16.9,45.3,2.16,7.41,5.57,18.86,10.14,33.12L784,325.25c2.53,10.44,4.82,21.81,6.64,34a389.67,389.67,0,0,1,4.14,48.48,417.06,417.06,0,0,1,48.38,78.56c7.51,15.92,39.62,86.64,40.19,178.41,1,166.67-102.73,281-113.64,292.65l-.47.49H799Zm-17.49-29.92H723.77a394.69,394.69,0,0,0,61.62-65.91C862.55,806.64,866,697.21,866,667.34c.19-136.26-67.85-229-89.24-256.06.07-11.3-.36-23.51-1.52-36.51A385.23,385.23,0,0,0,766.13,319q4.3-5.58,8.62-11.15a375.57,375.57,0,0,0-33.47-85.19q4.31-15.47,8.62-30.93A349.27,349.27,0,0,0,683.48,104,304.61,304.61,0,0,1,623,291.35a421.27,421.27,0,0,0-169.21-36.24C409.86,255,300,261.87,198.24,341.82,82.1,433.07,54.58,558.23,47.65,598.89c-5.18,30.4-22.58,142.1,38,258.59a408.07,408.07,0,0,0,94.52,119.15H123.7V1023H78.07v188.9H828V1023H781.6ZM608.43,285.21a315.65,315.65,0,0,1-106.3,87A20.21,20.21,0,0,0,476.77,377l-24-91-23,91.27a19.65,19.65,0,0,0-18.59-7.77c-10.67,1.56-15,11.3-15.21,11.83A332.62,332.62,0,0,0,264.13,444.2L183.7,396.92,232.38,478a289.91,289.91,0,0,0-64.9,130.48c-.8.37-9.79,4.75-11.49,14.87A20.32,20.32,0,0,0,164.1,643L71,666.32l92.28,23.83A21.4,21.4,0,0,0,157.17,712c2.72,8.59,10.4,12.12,11.66,12.67a316.73,316.73,0,0,0,61.86,129.77L183,936.58l82.65-48.17a307.16,307.16,0,0,0,101.91,56.28c-.3,8.42,0,30.83,14.71,52.73,2.63,3.93,25.3,36.54,66.93,38.54,33.23,1.6,63.85-17,78.59-44.11,10.49-19.3,10.34-38.12,9.63-47.16a374.16,374.16,0,0,0,103.94-55.77q40.57,23.82,81.13,47.66-23.58-41.07-47.15-82.14a293,293,0,0,0,62.87-130.31c1.09-.53,9-4.46,11.18-13.57a20.74,20.74,0,0,0-6.11-19.9l90.76-24L742.8,642c.55-.51,8.38-8,6.43-18.93-1.79-10-10.21-14.4-11.16-14.88L734.35,595c5.22-11.46,10.4-24.09,15.21-37.86,3.71-10.59,6.82-20.77,9.44-30.42l13.89-7.44c2.54-13.74,4.84-28.29,6.76-43.6,2.06-16.44,3.47-32.13,4.39-47l3.29-3.45c-1.15-1.59-2.32-3.18-3.51-4.79q-3.52-4.74-7.05-9.17l-9.29,8A390.17,390.17,0,0,1,759,506.77l-13.15,6.77c-2.16,9.2-4.82,18.93-8.12,29.07a356.3,356.3,0,0,1-21.63,52c.95,3.07,1.86,6.22,2.7,9.47a212.13,212.13,0,0,1,6.76,49.69l46.65,12.5-46.65,12.85a256.28,256.28,0,0,1-7.6,55.6c-14.09,56.09-44.23,94.91-63.89,116.12L678.92,893l-41.58-24.84a272.47,272.47,0,0,1-120.68,63.38c1.52,5.76,6.49,27.45-5.07,49.69-10.9,21-33.6,36.84-59.83,36.5-30.95-.4-49.12-23.15-51.21-25.85-20.3-26.32-12.07-56.67-11.16-59.84a284.89,284.89,0,0,1-120.16-63.38Q248.7,880,228.15,891.45l23.33-40.56a275.47,275.47,0,0,1-71-172.4l-46.14-12.67,46.14-12.68c2.46-35.27,11.93-89,47.16-140.62a261.69,261.69,0,0,1,23.66-29.75L227,438.83l42.59,25.69A272.92,272.92,0,0,1,440.27,393.2q6.25-22,12.5-43.95l12.51,44.29c3.86-.07,8,0,12.51.33s8.9.85,12.82,1.48A291,291,0,0,0,623,291.35ZM471,944.52l-18.26-12.84-17.91,12.84q3.56,11.33,7.1,22.65h21.29Zm2.36-43.27a50.49,50.49,0,0,0-41.24,0l21,10.82Zm-72,56.12,16.23-16.91-6.08-23.66a56.36,56.36,0,0,0-10.12,40.57Zm20.29,33.46A49.56,49.56,0,0,0,446,1001l-11.82-20-23-1.69a48.38,48.38,0,0,0,10.5,11.52ZM502.51,933a56.51,56.51,0,0,0-8.11-16.23l-6.09,23.66,16.23,16.91A57,57,0,0,0,502.51,933Zm-7,46.31-23,1.69-11.83,20A49.69,49.69,0,0,0,485,990.83a48.45,48.45,0,0,0,10.5-11.49ZM738.75,192.24c-3.34-6.67-7.2-13.64-11.67-20.79a254.06,254.06,0,0,0-34.47-43.6c-2.06,31.15-9.94,84.77-42.61,141a318,318,0,0,1-56.78,71.5q2.06,8.76,4,17.74,3,13.35,5.58,26.37A314.33,314.33,0,0,0,675.37,320,318.25,318.25,0,0,0,738.75,192.24ZM736.21,231A297.51,297.51,0,0,1,605.39,391.51l1,44.62A300.26,300.26,0,0,0,713.9,368.69a296.8,296.8,0,0,0,49.69-64.39c-2.09-8.25-4.6-16.9-7.6-25.86A361.59,361.59,0,0,0,736.21,231Zm22.31,100.17a331.88,331.88,0,0,1-85.69,81.13,328.91,328.91,0,0,1-66.93,33.46c-.78,6.13-1.78,12.57-3,19.27-1.64,8.68-3.54,16.81-5.58,24.34a320,320,0,0,0,170.9-83.67c-.28-9.24-.91-19.07-2-29.4A385.29,385.29,0,0,0,758.52,331.17Zm-.25,95.58a323.71,323.71,0,0,1-164,73.77,235.79,235.79,0,0,1-8.11,22.31c-2.63,6.23-5.38,12-8.12,17.24A326.4,326.4,0,0,0,750.41,501c2.18-14.16,4.08-29,5.58-44.62Q757.45,441.17,758.27,426.75Zm-24.59,91.52A298.48,298.48,0,0,1,572.44,549.2c-3.73,6-7.94,12.28-12.68,18.76-4.44,6.07-8.87,11.64-13.18,16.73a328.6,328.6,0,0,0,162.76,2,320.33,320.33,0,0,0,24.34-68.45Zm-42.6,81.8a293.77,293.77,0,0,1-151.43-7.77,137.1,137.1,0,0,1-32.79,30.42,545.3,545.3,0,0,0,179.83,52c6-2.09,12.32-4.14,18.93-6.08q6.92-2,13.52-3.72-15.06-3.57-30.42-7.43t-30.09-7.78c4.8-6.09,9.68-12.74,14.54-19.94A339.39,339.39,0,0,0,691.08,600.07Zm-28.39,81.8c-17.07-2.73-35.3-6.45-54.42-11.49a566.5,566.5,0,0,1-108.51-40.9c-5.24,3.26-10.76,6.55-16.56,9.8-7.32,4.11-14.44,7.81-21.3,11.16a318.22,318.22,0,0,0,108.51,59.49q19.68-6.31,39.89-12.51Q636.79,689.31,662.69,681.87Zm-161.92,7.78a311.88,311.88,0,0,1-48.33-34.14c-6.34,2.78-13.33,5.54-21,8.11-7.39,2.49-14.42,4.48-21,6.08a303,303,0,0,0,72.34,65.58L554.52,714A312.88,312.88,0,0,1,500.77,689.65ZM448.72,572a185.41,185.41,0,0,0,46.14-43.09,180.42,180.42,0,0,0,34-141l-22.31,10.65a162.1,162.1,0,0,1-3,58.31,160.11,160.11,0,0,1-15.72,40.56A161.24,161.24,0,0,1,362,579.11q4.58,10.9,9.13,21.81A188.45,188.45,0,0,0,448.72,572Zm-29.92,50.2a232.67,232.67,0,0,1-14-18.59L374.69,610a247.49,247.49,0,0,0,30.42,50.71,197.87,197.87,0,0,0,39.55-12.17A233.39,233.39,0,0,1,418.8,622.21Zm52.74-10.48a341.51,341.51,0,0,1-29.92-23.66q-6.21,3.48-13.35,6.93c-4.62,2.22-9.08,4.18-13.35,5.92a276.77,276.77,0,0,0,39.71,43.26,227.25,227.25,0,0,0,20.12-10.64c5.47-3.27,10.48-6.57,15-9.81Q480.91,618.3,471.54,611.73Zm38.53-29.07a247.17,247.17,0,0,1-35.15-17.58,137.62,137.62,0,0,1-11.33,9.13,139.14,139.14,0,0,1-13.52,8.62A319,319,0,0,0,478,604.46c7,4.87,13.88,9.18,20.45,13,4.91-3.65,10.08-7.8,15.38-12.51,5.92-5.26,11.14-10.45,15.72-15.38C523.33,587.67,516.82,585.39,510.07,582.66Zm23-38.7a255.91,255.91,0,0,1-30.43-8.45c-2.46,3.32-5.21,6.78-8.28,10.31a171.63,171.63,0,0,1-12,12.5c7.35,4.09,15.47,8.21,24.34,12.17a309.64,309.64,0,0,0,30.25,11.66,197.84,197.84,0,0,0,15.38-19.09c3.6-5.09,6.74-10,9.47-14.71A253.19,253.19,0,0,1,533.06,544Zm-17.58-27.21c-2.3,3.9-4.63,7.51-6.93,10.81,7,1.91,14.23,3.73,21.8,5.41,12.79,2.85,25,5,36.51,6.59,3.14-5.75,6.32-12,9.4-18.85s5.75-13.47,8-19.68a282.44,282.44,0,0,1-35.66,1.69c-8.93-.15-17.29-.71-25-1.52A170.4,170.4,0,0,1,515.48,516.75ZM595.93,450a263.27,263.27,0,0,1-26.54,7.6A260.79,260.79,0,0,1,536.44,463c-1,4.16-2.12,8.57-3.55,13.18-1.79,5.78-3.76,11.09-5.75,15.89a331,331,0,0,0,35.49.85c8.79-.27,17.09-.87,24.85-1.69,1.38-4.82,2.69-9.9,3.89-15.22C593.44,466.82,594.91,458.1,595.93,450Zm1.39-51.55a324.56,324.56,0,0,1-30.63,14.87c-9.06,3.82-17.73,7-25.86,9.63.09,3.5,0,7.22-.17,11.16a137.5,137.5,0,0,1-2.36,18.76,261.61,261.61,0,0,0,58.64-13.35q.19-2.85.34-5.75C597.9,421.5,597.87,409.71,597.32,398.44Zm-10.86-51.55c-6.12,5.5-13,11.2-20.61,16.9a295.71,295.71,0,0,1-28.4,18.76,122.69,122.69,0,0,1,3.72,30.76c10.13-3.8,20.9-8.31,32.11-13.69,7.87-3.77,15.25-7.63,22.14-11.49-.71-5-1.58-10.26-2.66-15.66C590.94,363.27,588.78,354.73,586.46,346.89ZM512.94,736.3l-32.45,9.46a316.53,316.53,0,0,1-69.29-61.18,324.77,324.77,0,0,1-22.31-30.09c-19.18-29.19-28.54-53.59-31.1-60.5-3.72-10-6.21-18.54-7.78-24.34A151.95,151.95,0,0,0,461.9,517.59c28.89-33.46,34-69.58,35.49-81.8a156.8,156.8,0,0,0,.68-32.79L461.9,415.85l-8.79-21A150,150,0,0,1,445,442.21c-3.92,11.38-9.62,27.4-24,42.93a101.77,101.77,0,0,1-18.25,15.55A109,109,0,0,1,374,498c-6.68-1.56-17.54-4.18-29.4-11.84a81.15,81.15,0,0,1-9.81-7.43l13.86-35.83A277.05,277.05,0,0,0,256.38,520a146.69,146.69,0,0,0,11.16,12.5A158.67,158.67,0,0,0,300,557.14a194.4,194.4,0,0,0,22.31,11.49A158.44,158.44,0,0,0,322,617a153.55,153.55,0,0,0,11.83,40.9c11.37,24.83,27,39.9,39.21,51.38,16.37,15.43,30.51,24.06,49.1,35.41,10.82,6.61,27.47,15.31,60.34,32.45,11.43,6,18.49,9.66,28.39,14.71,30.62,15.61,47.19,23.25,73.44,36.08,14.59,7.13,35.61,17.56,61.18,30.76l-12.17-19.6a219,219,0,0,0,41.92-58.82ZM250.46,528.41c-1.52,2.3-3.89,5.79-6.92,10-6.54,9-8.54,10.7-9.64,15.21a23.42,23.42,0,0,0,.64,12.69,23.89,23.89,0,0,0,5.45,9,54.41,54.41,0,0,1,41.74-18.43,142.29,142.29,0,0,1-31.27-28.39ZM453,864.58a47.9,47.9,0,0,0-47.41,41.32c1.65-2.11,20.21-25.06,50.7-23.32,26.44,1.5,41.61,20.41,43.86,23.32A47.9,47.9,0,0,0,453,864.58ZM406.63,880a45.41,45.41,0,0,0-25.35,25.86A38.81,38.81,0,0,1,394.46,898a39.79,39.79,0,0,1,4.57-1.27,29.77,29.77,0,0,1,1.52-6.59A30.38,30.38,0,0,1,406.63,880Zm76.06-32.19a58.17,58.17,0,0,1-22.06-3.55l-.25,12.16a45,45,0,0,1,15.21,4.06,44.39,44.39,0,0,1,6.93,4.06Q482.61,856.21,482.69,847.85Zm0-60.09-44.62-23.58V804a35.19,35.19,0,0,0,5,16.75c11.74,19,38.24,17.81,39.58,17.72Zm-153-1.77c-15.72-18.29-44.11-21.83-64.9-7.1,3.74-.44,27.49-2.84,47,14.53C334.9,814,331.42,844,331.08,846.49,344.87,828,344,802.63,329.73,786Zm-46-24.34a50.27,50.27,0,0,0-12.17-3,52,52,0,0,0-23.66,2.7A133.92,133.92,0,0,1,261.79,765c2,.65,3.9,1.33,5.75,2a42.28,42.28,0,0,1,7.43-3.38A43,43,0,0,1,283.76,761.65Zm76.56,30.76a50.45,50.45,0,0,1-6.76-6.93A49.73,49.73,0,0,1,347,774.66l-8.79,8a45.18,45.18,0,0,1,10.14,22Zm7.1-6.76,39.89-38.71c-4.22-2.5-8.58-5.25-13-8.28a239.73,239.73,0,0,1-23.84-18.59c-2.08,1.39-15.87,10.9-18.08,28.9C349.71,770.66,366.3,784.73,367.42,785.65Z" transform="translate(0.06)"/><path class="cls-2" d="M244.55,1185.54H213.79V1126l-31.1,59.5H164.27L133,1125.69q0,29.93,0,59.85H102.58V1060.46l30,.09,41.32,78.08,40.82-77.83,29.83-.34ZM225,1069.93h-3.11l-48.21,92-47.41-92H113.06v106.14h9.46v-91.94l48.34,91h5.2L225,1083.62v92.45h9.47V1069.93Z" transform="translate(0.06)"/><path class="cls-2" d="M362.86,1156.46v29.08H258.75V1060.46H360.83v29.08H289v18.08h67.77v28.23H289v20.61Zm-84,9.81v-39.81h68.2v-8.87h-68.2v-37.67h72v-9.15H268.72v104.12h83.66v-8.62Z" transform="translate(0.06)"/><path class="cls-2" d="M344.27,1042.21l-60,8.62L280,1022.1l60.17-8.11Q342.24,1028.09,344.27,1042.21ZM332.1,1024.3l-41.33,6.08c.43,3.3.85,6.59,1.27,9.89l41.58-6.34C333.11,1030.72,332.61,1027.51,332.1,1024.3Z" transform="translate(0.06)"/><path class="cls-2" d="M496.72,1185.54H460.55l-26-38.2-26,38.2H372.32l44.29-64.23-42.93-60.85h36.84l24.34,35.16,24-35.16H494l-41.57,60.85Zm-56.37-64.15,34.23-50.7H463.93l-29.16,43.61q-14.82-21.81-29.66-43.61l-10.9.08,34.23,50.88q-17.88,26.61-35.75,53.24h9.89l31.94-45.64q15.6,22.82,31.18,45.64h11.16Z" transform="translate(0.06)"/><path class="cls-2" d="M534.92,1185.54H504.49V1060.46h30.43Zm-10.15-114.85H514.38v104.2h10.39Z" transform="translate(0.06)"/><path class="cls-2" d="M669.45,1149.37a64.88,64.88,0,0,1-59.32,37.52c-3.26,0-34.45-.74-52.9-26.71a65.42,65.42,0,0,1-11.5-36.84c0-5.09.54-29.34,20.28-47.66,17.69-16.42,38.73-16.87,44.12-16.91s22.5.12,38.7,12.17a62.46,62.46,0,0,1,19.94,25.36l-24,15.55a34.23,34.23,0,0,0-8.11-13.19c-10.62-10.6-30.19-15.17-45-5.74-11.45,7.31-15.65,20.25-15.88,27a53.66,53.66,0,0,0,.67,9.12,40.09,40.09,0,0,0,2.71,9.81,32.25,32.25,0,0,0,11.15,13.18s8.7,6.06,19.61,6.08c14,0,27.58-9.88,35.15-25Zm-12.84,3.46q-3.69-2.4-7.36-4.82c-1.54,2.12-14.89,19.75-37.77,20-3.85,0-19.56-.25-32.2-12.67-12-11.86-13.21-26.79-13.18-33a46.69,46.69,0,0,1,7.6-25.35c10.59-15.62,27.46-18.62,29.92-19a45.76,45.76,0,0,1,39.8,13.44,40,40,0,0,1,5.07,6.59l7.86-4.82a52.77,52.77,0,0,0-15.46-16,54.18,54.18,0,0,0-33.21-8.62c-5.68.33-23.91,2.25-38,17.75a55.64,55.64,0,0,0-14.2,37c0,1.62.64,28.32,22.56,43.86,12.13,8.59,24.56,9.38,29.67,9.64s20.52.8,35-9.38A52.27,52.27,0,0,0,656.61,1152.83Z" transform="translate(0.06)"/><path class="cls-2" d="M803.31,1122.83a64.06,64.06,0,1,1-64.06-64.06A64.06,64.06,0,0,1,803.31,1122.83Zm-63.53-54.28A54.24,54.24,0,1,0,794,1122.79,54.23,54.23,0,0,0,739.78,1068.55Z" transform="translate(0.06)"/><path class="cls-2" d="M783.87,1122.92a45.28,45.28,0,0,1-8.62,26.62c-1.37,1.86-13.77,18.11-35.36,18.25a44.92,44.92,0,0,1-30.81-12.42c-12.26-12-13.19-27.08-13.18-32.45,0-3.17.36-22.39,16.23-35.24a44.36,44.36,0,0,1,27.76-9.64,45.12,45.12,0,0,1,30.29,12.17C783.39,1102.79,783.88,1119,783.87,1122.92Z" transform="translate(0.06)"/><ellipse class="cls-1" cx="739.7" cy="1123.17" rx="34.35" ry="35.66"/><path class="cls-3" d="M248.61,954.32v70H147.54v-24h76.73V962.77q-3.72-3.09-7.44-6.25-10.07-8.55-19.6-17.07l18.59-10.82q7.74,6.52,16.22,13.19T248.61,954.32ZM146.77,832.38l-25.6,4.06a368.86,368.86,0,0,0,60.08,85.43q5.46-9.37,10.9-18.76a267.88,267.88,0,0,1-26.87-33.21c-4.16-6.07-7.86-12-11.15-17.75l26.11-3.29a371.83,371.83,0,0,1-25.61-46.4,309.1,309.1,0,0,1-16-41.07,295,295,0,0,1-8.11-33.21l-21,16.74a261.81,261.81,0,0,1-8.88-61.1L80.1,678A366.21,366.21,0,0,0,97.34,779.65l20.79-15.47c3.5,10.52,7.6,21.63,12.42,33.21C135.82,810.05,141.31,821.72,146.77,832.38ZM109,587.23l21.63,15.88A345.78,345.78,0,0,1,179,482.77l-26.36-3A313.85,313.85,0,0,1,171.2,452c6.76-9,13.51-17,19.94-24l-10.82-18.59c-8.3,9.09-16.84,19.21-25.35,30.43a437,437,0,0,0-35.83,55.43l26.71,4.06c-4.79,9.13-9.58,19.05-14.2,29.74-5.86,13.56-10.63,26.49-14.54,38.54q-10.31-7.44-20.62-14.87c-2.43,7.58-4.71,15.58-6.76,24a349.78,349.78,0,0,0-9.8,77.74l20.28-5.74A229.93,229.93,0,0,1,109,587.23ZM268.21,393.87a348.23,348.23,0,0,1,118.31-50.36l-15.21-21.64c12.73-2.78,26.5-5.24,41.24-7.1q12.24-1.53,23.66-2.36,2.88-10,5.75-20a324.45,324.45,0,0,0-105.47,18.26L352.72,332a296.2,296.2,0,0,0-68.62,28.38q-1.69-13.19-3.38-26.37a397,397,0,0,0-83.83,59.5l18.93,10.81a334.57,334.57,0,0,1,29.07-23.66c6.71-4.87,13.27-9.24,19.6-13.18Z" transform="translate(0.06)"/><path class="cls-4" d="M758.35,1000.3V1025H658.63V954q9.11-6.48,18.6-13.86,7.39-5.79,14.19-11.5L710,939.79c-4.17,3.76-8.67,7.61-13.52,11.49s-9.37,7.28-13.86,10.48v38.54Zm27-163.95L760,832.63c6.33-12.24,12.65-25.77,18.59-40.56q5.77-14.36,10.14-27.72l21.64,15.21a455,455,0,0,0,16.9-101.07l-21,5.07c-.37,9.42-1.19,19.73-2.7,30.76-1.53,11.2-3.54,21.48-5.75,30.76L776.61,729.2a359.32,359.32,0,0,1-49.69,119.32l26,3.72c-4.06,6.72-8.66,13.75-13.86,21a310.88,310.88,0,0,1-25,30.42l11.16,18.59a334.65,334.65,0,0,0,60.16-85.86ZM767.14,564.58a314,314,0,0,1,10.14,38.19l21-16.22c2,7.65,3.89,16,5.41,25a278.35,278.35,0,0,1,3.72,37.52L828,655.17a354.48,354.48,0,0,0-17.24-102.42L789.11,568a224.68,224.68,0,0,0-7.77-25c-1.85-4.9-3.78-9.53-5.75-13.86l-8.79,3.72c-.54,3.12-1.21,6.39-2,9.81-.73,3.09-1.53,6-2.36,8.78Q764.86,557.75,767.14,564.58Zm-194-254.2c-8.87-2.59-34.65-9.88-61.52-13.86-15.86-2.35-30.7-3.33-31.44-3.38-6.25-.4-11.57-.59-15.54-.68l5.07,20.62c3.86.07,8.93.25,14.87.68a312.14,312.14,0,0,1,36.76,5.16c4.12.81,9.18,1.89,15,3.29L519.7,343.85l9.13,2a266.72,266.72,0,0,0,22.65-16.22A269.22,269.22,0,0,0,573.11,310.38Z" transform="translate(0.06)"/></g></g></svg>