<?xml version="1.0" encoding="UTF-8" standalone="no"?>
<svg
   xmlns:i="http://ns.adobe.com/AdobeIllustrator/10.0/"
   xmlns:dc="http://purl.org/dc/elements/1.1/"
   xmlns:cc="http://creativecommons.org/ns#"
   xmlns:rdf="http://www.w3.org/1999/02/22-rdf-syntax-ns#"
   xmlns:svg="http://www.w3.org/2000/svg"
   xmlns="http://www.w3.org/2000/svg"
   xmlns:xlink="http://www.w3.org/1999/xlink"
   xml:space="preserve"
   id="svg2282"
   viewBox="0 0 790.54637 1101.6379"
   height="373.298078471"
   width="267.88243971"
   version="1.0">
<g
   transform="scale(6.2039645)"
   id="g139"><g
     id="switch2286">
	<g
   id="g2290">
		<g
   id="Layer_1">
			<path
   d="m 3.008,21.983 v 91.938 c 0,16.066 6.373,31.285 17.945,42.855 5.569,5.57 12.071,9.95 19.323,13.018 7.481,3.163 15.393,4.767 23.518,4.767 8.133,0 16.048,-1.604 23.525,-4.767 7.245,-3.065 13.742,-7.445 19.314,-13.018 11.467,-11.467 17.782,-26.686 17.782,-42.855 V 21.983 h -2.543 z m 116.319,91.938 c 0,14.809 -5.786,28.752 -16.294,39.257 -10.505,10.505 -24.441,16.291 -39.239,16.291 -7.439,0 -14.684,-1.466 -21.534,-4.365 C 35.614,162.293 29.657,158.282 24.552,153.178 13.943,142.566 8.1,128.627 8.1,113.921 c 0,0 0,-82.042 0,-86.847 4.761,0 106.465,0 111.228,0 -0.001,4.804 -0.001,86.847 -0.001,86.847 z"
   style="fill:#ffffff"
   id="path2293" />
			<g
   id="g2295">
				<path
   d="m 5.554,24.528 v 89.393 0 c 0,16.063 6.643,30.502 17.199,41.058 10.541,10.539 25.155,17.036 41.042,17.036 v 0 0 c 15.91,0 30.501,-6.497 41.04,-17.036 10.556,-10.556 17.039,-24.994 17.039,-41.058 v 0 -89.393 z"
   style="fill:#b72e3e"
   id="path2297" />
				<path
   d="M 5.091,84.716 H 55.032 V 23.834 h 17.522 v 60.881 h 49.779 v 17.538 H 72.555 v 69.812 c -2.923,0.483 -5.854,0.645 -8.761,0.645 v 0 0 c -2.923,0 -5.83,-0.161 -8.762,-0.645 V 102.253 H 5.091 Z"
   style="fill:#ffffff;fill-rule:evenodd"
   id="path2299" />
			</g>
			<path
   d="m 0,0 v 113.921 c 0,16.869 6.686,32.843 18.826,44.983 5.845,5.846 12.668,10.442 20.279,13.661 7.853,3.319 16.16,5.005 24.689,5.005 8.537,0 16.848,-1.686 24.698,-5.008 7.604,-3.216 14.421,-7.81 20.27,-13.658 12.036,-12.034 18.664,-28.011 18.664,-44.983 V 0 Z m 124.416,113.921 c 0,16.17 -6.315,31.389 -17.782,42.855 -5.572,5.572 -12.069,9.952 -19.314,13.018 -7.478,3.163 -15.393,4.767 -23.525,4.767 -8.125,0 -16.037,-1.604 -23.518,-4.767 C 33.025,166.727 26.523,162.347 20.954,156.776 9.382,145.206 3.009,129.987 3.009,113.921 V 21.983 h 118.865 2.543 v 91.938 z"
   style="fill:#b49d5a"
   id="path2301" />
			<g
   id="g2303">
				<path
   d="m 69.438,171.729 c -1.859,0.183 -3.74,0.286 -5.645,0.286 1.877,0 3.761,-0.109 5.645,-0.286 z"
   style="fill:#ffffff"
   id="path2305" />
				<path
   d="m 72.555,171.371 v -0.092 c -0.813,0.125 -1.618,0.281 -2.44,0.375 0.812,-0.089 1.626,-0.149 2.44,-0.283 z"
   style="fill:#ffffff"
   id="path2307" />
				<path
   d="m 55.032,171.371 c 0.83,0.137 1.65,0.194 2.478,0.285 -0.838,-0.091 -1.651,-0.252 -2.478,-0.382 z"
   style="fill:#ffffff"
   id="path2309" />
				<path
   d="m 63.794,172.015 c -1.905,0 -3.793,-0.104 -5.658,-0.286 1.889,0.177 3.769,0.286 5.658,0.286 z"
   style="fill:#ffffff"
   id="path2311" />
				<path
   d="m 36.199,118.31 -5.016,-0.813 c -1.466,-0.331 -2.906,-0.653 -4.372,-0.982 -0.982,-0.161 -2.609,-0.161 -4.059,0.329 -1.457,0.322 -2.769,0.822 -3.422,2.288 -0.797,1.771 0.331,3.719 2.279,4.058 1.466,0.138 2.593,-0.678 2.923,-1.964 0.313,-0.991 1.135,-1.136 2.118,-0.991 0.804,0.186 1.457,2.277 1.626,3.912 0.144,0.5 0.144,1.128 0.144,1.61 0,1.967 -0.813,2.94 -1.61,3.746 -0.669,0.644 -1.481,1.456 -1.481,2.752 0,1.467 0.813,2.11 1.481,2.763 0,0 0,0 0.152,0.161 0.331,0.314 0.645,0.798 0.975,1.281 0.338,0.668 0.482,1.319 0.482,2.293 0,0.822 -0.313,3.245 -0.813,4.543 -0.154,0.337 -0.476,0.981 -0.958,1.128 -0.982,0.168 -1.805,-0.146 -2.118,-1.128 -0.331,-0.982 -0.975,-1.627 -1.78,-1.795 -2.439,-0.486 -4.38,1.795 -3.422,4.074 0.331,0.627 0.982,1.279 1.627,1.61 1.465,0.642 3.076,0.813 4.372,0.981 1.321,0 2.609,-0.34 3.905,-0.669 0.652,-0.153 1.304,-0.313 1.948,-0.313 l 5.016,-0.983 c 5.355,-0.959 5.355,-3.237 5.355,-6.313 v -15.26 c 0,-1.44 0,-2.914 -0.644,-3.887 -0.649,-1.126 -1.922,-1.948 -4.708,-2.431 z m 1.965,18.985 c 0,1.457 0,2.594 -0.482,3.575 -0.332,0.966 -0.983,1.771 -1.958,1.925 l -1.618,0.33 c -0.645,0 -1.144,0.17 -1.788,0.17 -0.99,0 -1.135,-0.653 -0.99,-1.459 0.185,-0.651 0.337,-1.305 0.506,-1.947 0.161,-0.822 0.161,-1.466 0.161,-2.278 -0.161,-3.561 -1.313,-4.702 -1.796,-5.041 -0.313,-0.145 -0.483,-0.315 -0.168,-0.483 0,0 0,0 0,-0.168 0.506,-0.309 1.803,-1.274 1.964,-4.702 0,-0.645 0,-1.289 -0.161,-1.942 0,-0.796 -0.169,-1.44 -0.322,-2.085 -0.185,-0.507 -0.185,-0.99 -0.185,-1.321 0.185,-0.643 0.667,-0.796 2.302,-0.481 l 2.093,0.329 c 0.975,0.315 1.626,0.967 1.958,1.95 0.482,0.964 0.482,2.091 0.482,3.551 v 10.077 z"
   style="fill:#ffffff;stroke:#000000;stroke-width:0.01"
   id="path2313" />
				<path
   d="m 91.226,146.201 5.188,0.983 c 0.642,0 1.288,0.159 1.939,0.313 1.128,0.329 2.44,0.669 3.743,0.669 1.442,-0.169 3.077,-0.34 4.365,-0.981 0.82,-0.331 1.296,-0.983 1.635,-1.61 0.967,-2.279 -0.814,-4.561 -3.262,-4.074 -0.796,0.168 -1.611,0.813 -1.947,1.795 -0.161,0.981 -1.128,1.296 -1.942,1.128 -0.477,-0.146 -0.796,-0.815 -0.957,-1.128 -0.678,-1.298 -0.992,-3.721 -0.992,-4.543 0,-0.974 0.314,-1.625 0.485,-2.293 0.339,-0.483 0.819,-0.967 1.151,-1.281 0.161,-0.161 0.161,-0.161 0.161,-0.161 0.651,-0.652 1.303,-1.296 1.303,-2.763 0,-1.296 -0.651,-2.108 -1.303,-2.752 -0.806,-0.806 -1.798,-1.779 -1.798,-3.746 0,-0.482 0.17,-1.127 0.17,-1.61 0.315,-1.635 0.822,-3.727 1.779,-3.912 0.814,-0.145 1.781,0 1.942,0.991 0.48,1.286 1.635,2.102 2.931,1.964 2.107,-0.339 3.074,-2.286 2.278,-4.058 -0.483,-1.481 -1.949,-1.966 -3.262,-2.288 -1.467,-0.49 -3.075,-0.49 -4.041,-0.329 -1.483,0.329 -2.924,0.651 -4.38,0.982 l -5.188,0.813 c -2.608,0.483 -4.082,1.306 -4.702,2.433 -0.651,0.973 -0.651,2.446 -0.651,3.887 v 15.26 c 0.001,3.074 0.001,5.352 5.355,6.311 z m -1.803,-18.985 c 0,-1.46 0,-2.587 0.339,-3.551 0.313,-0.983 0.958,-1.635 2.108,-1.95 l 2.093,-0.329 c 1.635,-0.314 2.111,-0.161 2.279,0.481 0,0.331 -0.168,0.814 -0.168,1.321 -0.145,0.645 -0.315,1.289 -0.477,2.085 0,0.653 0,1.298 0,1.942 0.161,3.428 1.457,4.394 1.94,4.702 0,0.168 0,0.168 0,0.168 0.331,0.168 0,0.339 -0.151,0.483 -0.493,0.339 -1.628,1.48 -1.789,5.041 0,0.813 0,1.456 0.161,2.278 0,0.643 0.171,1.296 0.315,1.947 0.168,0.806 0.168,1.459 -0.789,1.459 -0.653,0 -1.161,-0.17 -1.805,-0.17 l -1.61,-0.33 c -1.15,-0.153 -1.795,-0.959 -2.108,-1.925 -0.339,-0.981 -0.339,-2.118 -0.339,-3.575 v -10.077 z"
   style="fill:#ffffff;stroke:#000000;stroke-width:0.01"
   id="path2315" />
				<path
   d="m 100.944,42.533 c 0.814,-0.169 1.781,0 1.942,1.143 0.48,1.297 1.635,1.948 2.931,1.78 2.107,-0.315 3.074,-2.11 2.278,-4.05 -0.483,-1.304 -1.949,-1.949 -3.262,-2.279 -1.467,-0.322 -3.075,-0.322 -4.041,-0.152 -1.483,0.152 -2.924,0.652 -4.38,0.797 l -5.188,0.982 c -2.608,0.483 -4.082,1.296 -4.702,2.262 -0.651,1.144 -0.651,2.609 -0.651,4.051 v 15.089 c 0,3.092 0,5.523 5.354,6.506 l 5.188,0.796 c 0.642,0.169 1.288,0.331 1.939,0.5 1.128,0.153 2.44,0.483 3.743,0.483 1.442,0 3.077,-0.153 4.365,-0.814 0.82,-0.482 1.296,-1.127 1.635,-1.779 0.967,-2.117 -0.814,-4.533 -3.262,-3.889 -0.796,0.145 -1.611,0.645 -1.947,1.772 -0.161,0.99 -1.128,1.135 -1.942,0.99 -0.477,0 -0.796,-0.652 -0.957,-0.99 -0.678,-1.458 -0.992,-3.72 -0.992,-4.533 0,-0.982 0.314,-1.627 0.485,-2.279 0.339,-0.483 0.819,-0.982 1.151,-1.466 0.161,0 0.161,0 0.161,0 0.651,-0.805 1.303,-1.441 1.303,-2.737 0,-1.482 -0.651,-2.126 -1.303,-2.778 -0.806,-0.798 -1.798,-1.78 -1.798,-3.889 0,-0.483 0.17,-0.982 0.17,-1.466 0.316,-1.61 0.823,-3.881 1.78,-4.05 z m -3.557,12.504 c -0.493,0.322 -1.628,1.458 -1.789,5.033 0,0.644 0,1.442 0.161,2.254 0,0.652 0.171,1.305 0.315,1.779 0.168,0.838 0.168,1.627 -0.789,1.627 -0.653,0 -1.161,-0.145 -1.805,-0.315 l -1.61,-0.33 C 90.72,64.94 90.075,64.272 89.762,63.314 89.423,62.324 89.423,61.027 89.423,59.739 V 49.683 c 0,-1.465 0,-2.786 0.339,-3.575 0.313,-1.135 0.958,-1.78 2.108,-1.949 l 2.093,-0.33 c 1.635,-0.323 2.111,-0.153 2.279,0.499 0,0.314 -0.168,0.645 -0.168,1.296 -0.145,0.484 -0.315,1.273 -0.477,2.111 0,0.627 0,1.295 0,1.779 0.161,3.406 1.457,4.532 1.94,4.871 0.332,0.331 10e-4,0.483 -0.15,0.652 z"
   style="fill:#ffffff;stroke:#000000;stroke-width:0.01"
   id="path2317" />
			</g>
			<path
   d="m 36.368,40.753 -5.04,-0.982 c -1.611,-0.145 -2.908,-0.645 -4.518,-0.797 -0.982,-0.169 -2.448,-0.169 -4.059,0.152 -1.313,0.331 -2.769,0.975 -3.252,2.279 -0.813,1.94 0.33,3.735 2.278,4.05 1.297,0.168 2.424,-0.483 2.907,-1.78 0.161,-1.143 1.144,-1.312 2.126,-1.143 0.797,0.169 1.296,2.44 1.61,4.05 0,0.483 0.169,0.983 0.169,1.466 0,2.109 -0.982,3.091 -1.779,3.889 -0.669,0.652 -1.313,1.296 -1.313,2.778 0,1.295 0.644,1.932 1.313,2.737 h 0.152 c 0.331,0.484 0.814,0.983 1.144,1.466 0.313,0.652 0.483,1.296 0.483,2.279 0,0.813 -0.313,3.076 -0.982,4.533 -0.154,0.338 -0.476,0.99 -0.797,0.99 -0.982,0.145 -1.965,0 -2.126,-0.99 -0.322,-1.127 -1.127,-1.627 -1.933,-1.772 -2.439,-0.644 -4.219,1.772 -3.252,3.889 0.33,0.652 0.813,1.297 1.626,1.779 1.296,0.661 2.907,0.814 4.372,0.814 1.313,0 2.609,-0.33 3.889,-0.483 0.645,-0.169 1.296,-0.331 1.941,-0.5 l 5.04,-0.796 c 5.355,-0.982 5.355,-3.414 5.355,-6.506 V 47.066 c 0,-1.442 0,-2.907 -0.645,-4.051 -0.651,-0.966 -2.092,-1.779 -4.709,-2.262 z m 1.796,18.986 c 0,1.288 0,2.585 -0.338,3.575 -0.306,0.958 -0.958,1.627 -2.102,1.771 l -1.618,0.33 c -0.645,0.17 -1.144,0.315 -1.627,0.315 -1.151,0 -1.151,-0.789 -0.966,-1.627 0.153,-0.474 0.322,-1.127 0.322,-1.779 0.161,-0.789 0.161,-1.611 0.161,-2.254 -0.161,-3.575 -1.313,-4.71 -1.796,-5.033 -0.168,-0.169 -0.483,-0.321 -0.168,-0.653 0,0 0,0 0.168,0 0.338,-0.338 1.635,-1.465 1.796,-4.871 0,-0.483 0,-1.151 0,-1.779 -0.161,-0.838 -0.33,-1.627 -0.33,-2.111 -0.153,-0.651 -0.337,-0.982 -0.337,-1.296 0.185,-0.652 0.667,-0.822 2.302,-0.499 l 2.093,0.33 c 1.144,0.169 1.795,0.814 2.102,1.949 0.338,0.789 0.338,2.109 0.338,3.575 z"
   style="fill:#ffffff;stroke:#000000;stroke-width:0.01"
   id="path2319" />
			<g
   id="g2321">
				<path
   d="m 22.626,2.715 0.516,5.373 H 22.626 C 21.964,6.48 21.02,5.322 19.792,4.614 18.564,3.906 17.091,3.553 15.372,3.553 13.932,3.553 12.63,3.819 11.466,4.35 10.301,4.881 9.386,5.727 8.72,6.89 8.051,8.053 7.719,9.499 7.719,11.229 c 0,1.426 0.315,2.663 0.947,3.709 0.631,1.046 1.58,1.848 2.849,2.407 1.269,0.558 2.716,0.837 4.342,0.837 1.412,0 2.658,-0.219 3.738,-0.656 1.082,-0.437 2.269,-1.305 3.563,-2.605 l 0.5,0.249 c -1.093,1.396 -2.368,2.418 -3.827,3.066 -1.458,0.646 -3.19,0.971 -5.195,0.971 -3.612,0 -6.41,-0.969 -8.393,-2.908 C 4.764,14.857 4.024,13.159 4.024,11.206 4.024,9.631 4.509,8.185 5.482,6.867 6.453,5.549 7.79,4.528 9.494,3.802 c 1.703,-0.724 3.563,-1.087 5.581,-1.087 1.57,0 3.118,0.277 4.645,0.832 0.448,0.17 0.769,0.255 0.961,0.255 0.287,0 0.54,-0.074 0.752,-0.219 0.279,-0.208 0.475,-0.497 0.593,-0.868 z"
   style="fill:#ffffff;fill-rule:evenodd"
   id="path2323" />
				<path
   d="m 31.616,11.462 v 4.608 c 0,0.992 0.15,1.609 0.452,1.849 0.405,0.341 1.022,0.511 1.848,0.511 h 0.837 v 0.436 H 25.387 V 18.43 h 0.824 c 0.926,0 1.59,-0.217 1.988,-0.651 0.216,-0.24 0.324,-0.81 0.324,-1.709 V 5.851 C 28.523,4.859 28.378,4.243 28.087,4.002 27.666,3.661 27.041,3.491 26.211,3.491 H 25.387 V 3.057 h 7.979 c 1.948,0 3.484,0.146 4.606,0.437 1.125,0.291 2.072,0.783 2.842,1.474 0.771,0.692 1.156,1.511 1.156,2.458 0,1.29 -0.586,2.339 -1.754,3.147 -1.167,0.807 -2.82,1.211 -4.951,1.211 -0.523,0 -1.089,-0.027 -1.697,-0.08 -0.608,-0.054 -1.259,-0.133 -1.952,-0.242 z m 0,-0.657 c 0.562,0.079 1.06,0.136 1.493,0.175 0.436,0.039 0.806,0.059 1.114,0.059 1.101,0 2.052,-0.314 2.852,-0.941 0.8,-0.627 1.201,-1.441 1.201,-2.439 0,-0.685 -0.191,-1.322 -0.572,-1.911 C 37.323,5.16 36.782,4.719 36.081,4.427 35.382,4.135 34.588,3.989 33.697,3.989 c -0.54,0 -1.234,0.073 -2.082,0.222 v 6.594 z"
   style="fill:#ffffff;fill-rule:evenodd"
   id="path2325" />
				<path
   d="m 59.442,3.057 0.234,3.479 H 59.074 C 58.73,5.408 58.201,4.691 57.486,4.385 56.773,4.081 55.506,3.927 53.679,3.927 h -3.671 v 6.243 h 0.874 c 2.678,0 4.647,0.122 5.907,0.368 1.26,0.246 2.283,0.713 3.074,1.406 0.791,0.693 1.188,1.526 1.188,2.498 0,1.176 -0.602,2.207 -1.805,3.093 -1.203,0.888 -3.277,1.332 -6.219,1.332 H 43.78 v -0.436 c 1.344,-0.031 2.202,-0.186 2.575,-0.467 0.373,-0.28 0.562,-0.942 0.562,-1.986 V 5.945 C 46.917,5.143 46.839,4.601 46.684,4.321 46.528,4.04 46.273,3.842 45.918,3.725 45.564,3.608 44.909,3.53 43.952,3.491 V 3.057 Z m -9.433,14.869 c 0.952,0.108 1.689,0.163 2.219,0.163 1.328,0 2.529,-0.318 3.603,-0.957 1.074,-0.64 1.611,-1.522 1.611,-2.65 0,-1.167 -0.562,-2.033 -1.684,-2.598 -1.123,-0.563 -2.549,-0.846 -4.274,-0.846 -0.486,0 -0.979,0.03 -1.475,0.093 z"
   style="fill:#ffffff;fill-rule:evenodd"
   id="path2327" />
				<path
   d="M 79.138,5.665 C 79.138,4.72 78.925,4.121 78.499,3.87 78.071,3.617 77.211,3.492 75.915,3.492 V 3.057 h 9.452 v 0.435 c -1.344,0.031 -2.202,0.186 -2.577,0.467 -0.372,0.28 -0.559,0.943 -0.559,1.986 v 10.032 c 0,1.044 0.187,1.707 0.559,1.986 0.375,0.281 1.233,0.436 2.577,0.467 v 0.436 H 75.915 V 18.43 c 1.394,-0.031 2.278,-0.188 2.656,-0.473 0.378,-0.283 0.566,-0.944 0.566,-1.98 V 6.908 l -10.182,9.411 c 0.011,0.674 0.072,1.124 0.183,1.352 0.112,0.229 0.372,0.41 0.781,0.541 0.409,0.13 1.132,0.204 2.173,0.22 v 0.436 h -9.366 v -0.436 c 1.345,-0.031 2.202,-0.186 2.575,-0.467 0.373,-0.28 0.561,-0.942 0.561,-1.986 V 5.945 C 65.862,4.902 65.674,4.238 65.301,3.959 64.928,3.678 64.071,3.523 62.726,3.492 V 3.057 h 9.366 v 0.435 c -1.349,0.031 -2.209,0.186 -2.579,0.467 -0.372,0.28 -0.558,0.943 -0.558,1.986 v 9.101 z"
   style="fill:#ffffff;fill-rule:evenodd"
   id="path2329" />
				<path
   d="M 89.262,3.491 V 3.057 h 9.365 v 0.435 h -0.793 c -0.895,0 -1.546,0.19 -1.957,0.57 -0.258,0.248 -0.388,0.845 -0.388,1.79 v 7.721 c 0,1.188 -0.18,2.15 -0.538,2.888 -0.36,0.738 -0.983,1.379 -1.863,1.927 -0.882,0.548 -1.944,0.821 -3.19,0.821 -1.011,0 -1.807,-0.181 -2.387,-0.543 -0.581,-0.361 -0.87,-0.776 -0.87,-1.242 0,-0.382 0.134,-0.67 0.402,-0.865 0.354,-0.242 0.77,-0.362 1.243,-0.362 0.344,0 0.653,0.082 0.927,0.245 0.274,0.163 0.62,0.596 1.039,1.301 0.248,0.418 0.565,0.628 0.953,0.628 0.29,0 0.562,-0.128 0.813,-0.385 0.253,-0.255 0.378,-0.708 0.378,-1.361 V 5.851 C 92.396,5.054 92.328,4.525 92.187,4.269 92.08,4.076 91.855,3.91 91.511,3.77 91.052,3.584 90.563,3.491 90.049,3.491 Z"
   style="fill:#ffffff;fill-rule:evenodd"
   id="path2331" />
				<path
   d="m 114.005,13.586 h -8.554 l -1.495,2.484 c -0.367,0.613 -0.548,1.07 -0.548,1.373 0,0.241 0.158,0.451 0.474,0.633 0.317,0.183 1.002,0.301 2.056,0.355 v 0.436 H 99.05 v -0.436 c 0.914,-0.116 1.505,-0.27 1.774,-0.457 0.546,-0.375 1.153,-1.137 1.819,-2.286 l 7.813,-12.973 h 0.522 l 7.627,13.134 c 0.613,1.054 1.169,1.739 1.666,2.053 0.5,0.314 1.197,0.491 2.087,0.529 v 0.436 h -8.628 v -0.436 c 0.87,-0.031 1.457,-0.136 1.765,-0.314 0.306,-0.179 0.459,-0.396 0.459,-0.652 0,-0.342 -0.216,-0.881 -0.645,-1.619 z m -0.5,-0.871 -3.686,-6.382 -3.844,6.382 z"
   style="fill:#ffffff;fill-rule:evenodd"
   id="path2333" />
			</g>
			<g
   id="g2335">
				<path
   d="m 63.456,67.269 c -13.377,0 -24.261,10.884 -24.261,24.26 0,13.378 10.884,24.264 24.261,24.264 13.377,0 24.261,-10.886 24.261,-24.264 0,-13.376 -10.884,-24.26 -24.261,-24.26 z"
   style="fill:#ffffff"
   id="path2337" />
			</g>
			<g
   id="g2339">
				<polygon
   points="85.319,94.42 85.317,94.426 "
   style="fill:#666666"
   id="polygon2341" />
				<path
   d="m 47.09,77.317 c 7.667,-9.059 21.274,-10.193 30.333,-2.528 9.059,7.666 10.193,21.274 2.527,30.333 -7.666,9.06 -21.273,10.193 -30.332,2.526 C 40.56,99.984 39.425,86.376 47.09,77.317 Z"
   style="fill:#b49d5a"
   id="path2343" />
				<path
   d="m 52.319,90.67 c -0.288,-0.393 -4.088,-5.553 -4.323,-5.871 0.426,-0.983 2.33,-5.262 4.043,-7.455 l -0.188,0.059 c 0.053,-0.025 5.446,-2.577 8.307,-1.577 0.151,0.208 3.765,5.181 4.009,5.515 -0.176,0.367 -3.309,6.944 -3.604,7.563 -1.894,-0.011 -6.457,1.2 -8.244,1.766 z"
   style="fill:#ffffff"
   id="path2345" />
				<path
   d="m 51.804,91.238 c -0.001,0.018 -0.006,0.041 -0.006,0.041 -0.843,3.972 -0.684,8.154 -0.656,8.74 -2.042,1.049 -3.76,1.407 -4.087,1.47 -0.051,-0.031 -0.261,-0.169 -0.507,-0.332 -0.87,-0.622 -1.67,-1.481 -2.341,-2.324 -1.434,-3.655 -1.795,-7.654 -1.067,-11.507 1.782,-0.929 3.767,-1.727 4.341,-1.953 0.302,0.409 4.199,5.696 4.323,5.865 z"
   style="fill:#ffffff"
   id="path2347" />
				<path
   d="m 51.695,100.576 c 2.725,1.341 7.003,2.877 7.653,3.106 0.316,0.557 2.34,4.139 3.17,5.951 -0.365,0.152 -3.56,1.484 -3.711,1.548 -0.475,-0.021 -0.945,-0.064 -1.407,-0.12 -2.603,-0.801 -5.088,-2.122 -7.294,-3.988 -0.327,-0.276 -0.62,-0.574 -0.925,-0.867 -0.649,-1.118 -1.326,-2.453 -2.013,-3.969 0.351,-0.065 2.253,-0.457 4.527,-1.661 z"
   style="fill:#ffffff"
   id="path2349" />
				<path
   d="m 71.691,110.286 c -0.024,-0.335 -0.05,-0.705 -0.056,-0.776 1.197,-0.843 2.789,-2.102 4.134,-3.691 0.604,-0.716 1.126,-1.508 1.561,-2.336 0.095,-0.077 4.763,-3.888 5.41,-4.416 -0.804,1.973 -1.916,3.855 -3.364,5.567 -2.156,2.548 -4.807,4.426 -7.685,5.652 z"
   style="fill:#ffffff"
   id="path2351" />
				<path
   d="m 73.604,74.417 c -2.372,-1.583 -5.788,-2.673 -7.072,-3.047 0.094,-0.265 0.197,-0.56 0.197,-0.56 0,0 0.003,-0.032 0.005,-0.08 3.645,0.567 7.186,2.083 10.202,4.635 0.049,0.041 0.089,0.087 0.138,0.128 l -1.628,-0.618 c 0,0.001 -1.672,-0.415 -1.842,-0.458 z"
   style="fill:#ffffff"
   id="path2353" />
				<path
   d="m 65.769,71.282 c -2.633,0.904 -5.703,3.534 -5.836,3.648 0,0 -0.045,0.039 -0.076,0.066 -2.899,-0.612 -7.138,1.181 -8.1,1.62 -0.196,-0.177 -0.945,-0.864 -1.49,-1.361 4.461,-3.707 10.184,-5.3 15.734,-4.639 v 0 c 0,0 -0.15,0.429 -0.232,0.666 z"
   style="fill:#ffffff"
   id="path2355" />
				<path
   d="m 65.478,96.354 c -0.248,-0.399 -4.112,-6.64 -4.313,-6.964 0.163,-0.342 3.387,-7.106 3.639,-7.636 0.256,-0.005 8.025,-0.16 8.438,-0.167 l 0.304,0.51 c 0.938,1.585 3.737,6.302 4.092,6.902 -0.003,0.007 -0.01,0.041 -0.01,0.041 -0.561,2.251 -2.798,6.868 -3.204,7.696 -2.692,0.409 -7.961,-0.252 -8.946,-0.382 z"
   style="fill:#ffffff"
   id="path2357" />
				<path
   d="m 78.45,88.893 c -0.031,-0.051 -0.264,-0.442 -0.6,-1.007 l -3.785,-6.388 c 0.001,-0.098 0.021,-4.359 0.029,-6.183 l 1.138,0.284 c 0,0 1.087,0.412 1.781,0.677 0.248,0.1 0.501,0.202 0.753,0.306 l 0.884,0.426 c 3.311,3.518 5.19,7.967 5.561,12.546 -0.643,0.163 -1.642,0.416 -1.741,0.44 -0.728,-0.115 -2.002,-0.404 -4.02,-1.101 z"
   style="fill:#ffffff"
   id="path2359" />
				<path
   d="m 74.47,106.13 c -0.137,0.142 -0.271,0.281 -0.409,0.416 -0.077,0.076 -0.155,0.146 -0.231,0.218 -0.118,0.11 -0.236,0.224 -0.354,0.329 -0.104,0.097 -0.209,0.183 -0.313,0.272 -0.09,0.078 -0.178,0.158 -0.268,0.232 -0.137,0.116 -0.273,0.226 -0.408,0.334 -0.053,0.041 -0.104,0.086 -0.155,0.125 -0.175,0.137 -0.345,0.27 -0.511,0.392 -0.008,0.008 -0.018,0.015 -0.026,0.022 -0.351,0.262 -0.683,0.495 -0.976,0.694 -2.712,0.536 -6.013,0.923 -7.469,0.485 -0.697,-1.637 -2.761,-5.31 -3.285,-6.233 0.313,-0.367 5.092,-6.019 5.34,-6.31 0.969,0.129 6.199,0.788 9.061,0.377 0.199,0.438 2.272,4.947 2.413,5.253 -0.428,0.928 -1.015,1.804 -1.685,2.596 -0.181,0.214 -0.368,0.423 -0.559,0.625 -0.054,0.061 -0.112,0.115 -0.165,0.173 z"
   style="fill:#ffffff"
   id="path2361" />
				<path
   d="m 84.237,90.316 c 0.111,2.528 -0.229,5.076 -1.046,7.514 -0.033,-1.454 -0.126,-5.563 -0.163,-7.201 z"
   style="fill:#ffffff"
   id="path2363" />
			</g>
		</g>
	</g>
</g></g>
</svg>