<?xml version="1.0" encoding="utf-8"?>
<!-- Generator: Adobe Illustrator 23.0.3, SVG Export Plug-In . SVG Version: 6.00 Build 0)  -->
<svg version="1.1" id="Layer_1" xmlns="http://www.w3.org/2000/svg" xmlns:xlink="http://www.w3.org/1999/xlink" x="0px" y="0px"
	 viewBox="0 0 395.9 571.5" style="enable-background:new 0 0 395.9 571.5;" xml:space="preserve">
<style type="text/css">
	.st0{fill:#F6EF1C;}
	.st1{fill:#D0D1D3;}
	.st2{fill:#21499B;}
	.st3{fill:#EB1E25;}
	.st4{fill:#FFFFFF;}
	.st5{fill:#231F20;}
</style>
<g>
	<path class="st0" d="M18.6,83.5l50.8,403.3c2.3,18.3,15.7,33.3,33.6,37.7l53.4,13.1l-35.6-480C85.4,62.7,51.2,71.5,18.6,83.5z"/>
	<path class="st1" d="M159.2,540.9L102.4,527c-18.8-4.6-33.1-20.6-35.5-39.9l-51-405.3l1.9-0.7c33.1-12.2,67.7-21,102.8-26l2.7-0.4
		L159.2,540.9z M21.3,85.2l50.5,401.3c2.2,17.2,14.9,31.5,31.7,35.6l50.1,12.3L118.5,60.5C85.4,65.4,52.7,73.7,21.3,85.2z"/>
</g>
<g>
	<path class="st2" d="M275.1,24c-23.3-4.6-52.5-7-77.1-7s-53.8,2.4-77.1,7v33.6l35.6,480l12.4,3c10.8,2.7,20.4,6.7,29.1,11.4
		c8.7-4.8,18.4-8.7,29.1-11.4l12.4-3l35.6-480V24z"/>
	<path class="st1" d="M198,555l-1.2-0.7c-8.9-4.9-18.5-8.6-28.6-11.2l-14.2-3.5l-35.7-482V22l2-0.4c22.4-4.4,51.5-7.1,77.6-7.1
		c26.2,0,55.2,2.6,77.6,7.1l2,0.4l0,35.8l-35.7,481.8l-14.2,3.5c-10,2.5-19.6,6.3-28.5,11.2L198,555z M158.8,535.6l10.6,2.6
		c10,2.5,19.6,6.2,28.5,11c8.9-4.8,18.5-8.5,28.5-11l10.7-2.6l35.5-478.1V26.1C250.7,22,223,19.5,198,19.5
		c-25.1,0-52.8,2.5-74.6,6.6v31.4L158.8,535.6z"/>
</g>
<g>
	<path class="st3" d="M275.1,57.6l-35.6,480l53.4-13.1c17.9-4.4,31.3-19.4,33.6-37.7l50.8-403.3C344.7,71.5,310.5,62.7,275.1,57.6z"
		/>
	<path class="st1" d="M239,538.3l0.1-0.7l35.6-480.6l0.5,0.1c34.9,5,69.4,13.7,102.4,25.9l0.4,0.1l0,0.4l-50.8,403.3
		c-2.3,18.4-16,33.7-34,38.2L239,538.3z M275.6,58.2L240.1,537l52.8-12.9c17.6-4.3,31-19.3,33.2-37.3l50.7-402.9
		C344.2,71.8,310.1,63.2,275.6,58.2z"/>
</g>
<g>
	<polygon class="st4" points="101.2,367.7 120.8,367.7 120.8,297.6 148.5,297.6 148.5,282.8 120.8,282.8 120.8,232.5 151.5,232.5 
		151.5,217.6 101.2,217.6 	"/>
	<polygon class="st4" points="294.7,232.5 294.7,217.6 244.4,217.6 244.4,367.7 264,367.7 264,297.6 291.7,297.6 291.7,282.8 
		264,282.8 264,232.5 	"/>
	<polygon class="st4" points="195.8,331.9 178.2,217.6 158.6,217.6 185.5,367.7 206,367.7 232.9,217.6 213.3,217.6 	"/>
</g>
<path class="st5" d="M383.2,67.5c-29.5-10.9-60.1-19.1-91.1-24.4V10l-13.7-2.7C255.1,2.7,225,0,198,0c-27.1,0-57.1,2.7-80.4,7.3
	L103.8,10v33.1c-31.1,5.4-61.7,13.6-91.1,24.4L0,72.2l52.5,416.7c3.2,25.1,21.8,46.1,46.4,52.1l65.7,16.1c8.9,2.3,17.3,5.6,25.2,9.8
	l8.2,4.5l8.2-4.5c7.8-4.3,16.3-7.6,25-9.8L297,541c24.6-6,43.3-27,46.4-52.1l52.5-416.7L383.2,67.5z M326.6,486.8
	c-2.3,18.3-15.7,33.3-33.6,37.7l-65.9,16.2c-10.8,2.7-20.4,6.7-29.1,11.4c-8.7-4.8-18.4-8.7-29.1-11.4L103,524.5
	c-17.9-4.4-31.3-19.4-33.6-37.7L18.6,83.5c32.6-12,66.9-20.8,102.3-25.9V24c23.3-4.6,52.5-7,77.1-7s53.8,2.4,77.1,7v33.6
	c35.4,5.1,69.6,13.8,102.3,25.9L326.6,486.8z"/>
<path class="st1" d="M198,562.4l-4.3-2.4c-8.4-4.6-17.5-8.2-27-10.6l-65.8-16.1c-21.4-5.3-37.7-23.5-40.4-45.4L8.7,77.5l6.7-2.5
	c31.1-11.5,63.5-19.9,96.4-25.2V16.6l7.3-1.4C141.9,10.7,171.4,8,198,8c26.6,0,56.1,2.7,78.9,7.2l7.3,1.4v33.3
	c32.9,5.2,65.2,13.7,96.4,25.2l6.7,2.5l-51.7,410.4c-2.8,21.9-19,40.1-40.4,45.4l-65.9,16.2c-9.5,2.4-18.6,6-27,10.6L198,562.4z
	 M28.4,89.5l49.9,396.2c1.8,14.5,12.6,26.6,26.8,30.1l65.9,16.2c9.4,2.4,18.5,5.8,27,10c8.5-4.2,17.5-7.6,26.9-10l65.9-16.2
	c14.2-3.5,25-15.6,26.8-30.1l49.9-396.2c-30.3-10.7-61.8-18.4-93.7-23l-7.7-1.1V31.5C245.5,28,220.7,26,198,26
	c-22.7,0-47.6,2-68.1,5.5v33.9l-7.7,1.1C90.2,71.1,58.7,78.8,28.4,89.5z"/>
</svg>
