<?xml version="1.0" encoding="utf-8"?>
<!-- Generator: Adobe Illustrator 23.0.3, SVG Export Plug-In . SVG Version: 6.00 Build 0)  -->
<svg version="1.1" id="Layer_1" xmlns="http://www.w3.org/2000/svg" xmlns:xlink="http://www.w3.org/1999/xlink" x="0px" y="0px"
	 viewBox="0 0 447.9 566" style="enable-background:new 0 0 447.9 566;" xml:space="preserve">
<style type="text/css">
	.st0{fill:#FFF301;}
	.st1{fill:#426AB3;}
	.st2{fill:#ED1D26;}
	.st3{fill:#FFFFFF;}
</style>
<path d="M19.1,1.5v475c0,24.7,20.1,44.8,44.8,44.8h110.6c23.3,0,40.4,10.5,49.5,35.8c9.1-25.3,26.1-35.8,49.5-35.8H384
	c24.7,0,44.8-20.1,44.8-44.8V1.5H19.1z"/>
<path class="st0" d="M19.1,1.5v475c0,24.7,20.1,44.8,44.8,44.8h94.2V1.5H19.1z"/>
<path class="st1" d="M158.1,1.5v519.7h16.4c20.9,0,40.4,10.5,49.5,35.8c9.1-25.3,29.6-35.8,49.5-35.8h16.4V1.5H158.1z"/>
<path class="st2" d="M289.8,1.5v519.7H384c24.7,0,44.8-20.1,44.8-44.8V1.5H289.8z"/>
<path d="M17.6,0v476.5c0,25.6,20.7,46.3,46.3,46.3h110.6c19.3,0,33.3,7.5,42.4,22.7c3.7,6.2,5.6,13.3,5.6,20.6l0,0h3v0
	c0-7.2,1.9-14.4,5.6-20.6c9.1-15.2,23.1-22.7,42.4-22.7H384c25.6,0,46.3-20.7,46.3-46.3V0H17.6z M427.2,476.5
	c0,23.9-19.4,43.3-43.3,43.3H273.4c-24,0-40.3,10.9-49.5,33.2c-9.2-22.3-25.4-33.2-49.5-33.2H63.9c-23.9,0-43.3-19.4-43.3-43.3V3
	h406.6V476.5z"/>
<g>
	<polygon class="st3" points="112.1,87.5 112.1,69.5 68,69.5 68,143.7 84.9,143.7 84.9,117.9 106.2,117.9 106.2,99.9 84.9,99.9 
		84.9,87.5 	"/>
	<polygon class="st3" points="241.2,69.5 224.3,120.8 207.5,69.5 187.9,69.5 213.6,143.7 235.1,143.7 260.8,69.5 	"/>
	<polygon class="st3" points="381.3,87.5 381.3,69.5 337.2,69.5 337.2,143.7 354.2,143.7 354.2,117.9 375.5,117.9 375.5,99.9 
		354.2,99.9 354.2,87.5 	"/>
</g>
<g>
	<circle class="st3" cx="223.9" cy="269.1" r="96.8"/>
	<path d="M223.9,367.4c-54.2,0-98.3-44.1-98.3-98.3c0-54.2,44.1-98.3,98.3-98.3s98.3,44.1,98.3,98.3
		C322.3,323.3,278.2,367.4,223.9,367.4z M223.9,173.7c-52.6,0-95.3,42.8-95.3,95.3c0,52.6,42.8,95.3,95.3,95.3
		c52.6,0,95.3-42.8,95.3-95.3C319.3,216.5,276.5,173.7,223.9,173.7z"/>
	<path d="M320.8,270.6v-3h-36.7l-33.3-58.9l12.3-28.2l-2.7-1.2l-12.2,28h-48.3l-12.2-28l-2.7,1.2l12.3,28.2l-33.3,58.9h-36.7v3h36.7
		l33.3,58.9l-12.3,28.2l2.7,1.2l12.2-28h48.3l12.2,28l2.7-1.2l-12.3-28.2l33.3-58.9H320.8z M199.7,210.2h22.7v117.7h-22.7
		l-33.3-58.8L199.7,210.2z M248.2,327.9h-22.7V210.2h22.7l33.3,58.8L248.2,327.9z"/>
</g>
<g>
	<path d="M443.5,8.3c-0.2-0.2-0.4-0.4-0.7-0.6c0.6-0.1,1-0.3,1.3-0.6s0.4-0.7,0.4-1.2c0-0.4-0.1-0.7-0.3-1c-0.2-0.3-0.4-0.5-0.8-0.6
		c-0.3-0.1-0.8-0.2-1.5-0.2h-2.8v6.6h1.3V7.9h0.3c0.3,0,0.5,0,0.7,0.1s0.3,0.1,0.4,0.3c0.1,0.1,0.4,0.5,0.7,1l1,1.4h1.6l-0.8-1.3
		C443.9,8.9,443.7,8.5,443.5,8.3z M441.4,6.8h-1V5.2h1c0.5,0,0.9,0,1,0c0.2,0,0.4,0.1,0.5,0.3c0.1,0.1,0.2,0.3,0.2,0.5
		c0,0.2,0,0.4-0.1,0.5s-0.2,0.2-0.4,0.3C442.5,6.8,442.1,6.8,441.4,6.8z"/>
	<path d="M441.5,1c-3.5,0-6.4,2.9-6.4,6.4c0,3.5,2.9,6.4,6.4,6.4c3.5,0,6.4-2.9,6.4-6.4C447.9,3.9,445,1,441.5,1z M441.5,12.7
		c-3,0-5.4-2.4-5.4-5.4c0-3,2.4-5.4,5.4-5.4c3,0,5.4,2.4,5.4,5.4C446.9,10.3,444.5,12.7,441.5,12.7z"/>
</g>
</svg>
