<svg xmlns="http://www.w3.org/2000/svg" viewBox="0 0 274.78 324">
  <defs>
    <style>
      .cls-1 {
        fill: #510e26;
      }

      .cls-2 {
        fill: #bd9b52;
      }

      .cls-3 {
        fill: #002c6a;
      }

      .cls-4 {
        fill: #ef0505;
      }

      .cls-5 {
        fill: #fff;
      }

      .cls-6 {
        fill: #ffc700;
      }
    </style>
  </defs>
  <title>FVF-02</title>
  <g id="Capa_2" data-name="Capa 2">
    <g>
      <path class="cls-1" d="M137.39,0A315.51,315.51,0,0,0,71,7,312.16,312.16,0,0,0,9.4,27.19L5.44,29,1.53,30.69S0,140.37,0,142.07A189.16,189.16,0,0,0,133.42,322.78l2,.62,2,.6,2-.6,2-.62a187.81,187.81,0,0,0,53.42-26.3A189.5,189.5,0,0,0,237,255.43a188.25,188.25,0,0,0,37.78-113.36c0-1.51-1.53-111.33-1.53-111.33L269.34,29l-3.95-1.76A311.63,311.63,0,0,0,203.81,7.07,315.54,315.54,0,0,0,137.39,0Z"/>
      <path class="cls-2" d="M137.23,13.1A300.4,300.4,0,0,1,260.17,39.25s1.41,101.27,1.41,102.88A176.16,176.16,0,0,1,137.24,310.52,176.16,176.16,0,0,1,12.9,142.13c0-1.62,1.41-102.9,1.41-102.9A300.42,300.42,0,0,1,137.23,13.09m0-6.82a310.29,310.29,0,0,0-65.23,7A306,306,0,0,0,11.54,33l-4,1.77S6.1,140.5,6.1,142.13A183.07,183.07,0,0,0,135.24,317l2,.62,2-.62A182.75,182.75,0,0,0,268.4,142.13c0-1.41-1.4-107.31-1.4-107.31L263,33a305.93,305.93,0,0,0-60.5-19.8,309.85,309.85,0,0,0-65.25-6.92Z"/>
      <path class="cls-2" d="M80.87,178.85a114.77,114.77,0,0,0,56.36,65.07,114.14,114.14,0,0,0,62.35-101.55c0-2-.22-16.23-.53-39.65A222,222,0,0,0,174.22,97c.37,26.5.58,42.78.62,45.46a89.48,89.48,0,0,1-37.65,72.58,90.36,90.36,0,0,1-19.82-19.32A88.78,88.78,0,0,1,99.56,142.5c0-2.76.25-19,.62-45.46a222,222,0,0,0-24.83,5.68c-.31,23.35-.51,37.57-.53,39.65A114,114,0,0,0,80.87,178.85Z"/>
      <path class="cls-2" d="M112.46,250.63a133.38,133.38,0,0,1-29.72-28.9,132,132,0,0,1-26.49-79.46c0-.61,0-2.78.08-6.17q2.31-1,4.66-2c1.57-.66,3.23-1.34,4.84-2,.09-6.19.2-15.07.36-26.47q-4.78,1.64-9.5,3.48c.17-12,.37-26,.56-40a256.7,256.7,0,0,1,25.31-6.82q9-1.94,18.19-3.23l.35-25q-12,1.53-23.73,4.05A280.4,280.4,0,0,0,32.74,51.65c-.3,21.86-1.22,89.58-1.23,90.52q0,3.68.17,7.31A157.7,157.7,0,0,0,131,288.69V261.61A131.78,131.78,0,0,1,112.46,250.63Z"/>
      <path class="cls-2" d="M241.72,51.65a281.08,281.08,0,0,0-44.59-13.59q-11.7-2.52-23.74-4l.35,25q9.15,1.3,18.18,3.23a256.7,256.7,0,0,1,25.31,6.82c.19,14,.39,28,.56,40q-4.71-1.83-9.5-3.47c.16,11.36.27,20.27.36,26.47,1.61.63,3.24,1.29,4.84,2s3.12,1.35,4.66,2.05c0,3.41.07,5.58.08,6.17a133,133,0,0,1-74.77,119.34v27.1A157.31,157.31,0,0,0,242.8,149.54c.11-2.42.17-4.87.17-7.31C243,141.23,242,69,241.72,51.65Z"/>
      <path class="cls-3" d="M112.82,98c-.12,8.58-.22,16-.3,22.3a198.45,198.45,0,0,1,49.43,0c-.08-6.25-.18-13.72-.3-22.3L161.1,57.6q-11.78-1.14-23.87-1.14T113.36,57.6L113,82.9Z"/>
      <path class="cls-4" d="M112.52,120.34c-.18,12.5-.28,20.17-.31,22.16a76.06,76.06,0,0,0,15.26,45.64,78.34,78.34,0,0,0,9.72,10.71,76.59,76.59,0,0,0,25-56.34c0-1.92-.11-9.6-.3-22.17a198.37,198.37,0,0,0-49.42,0Z"/>
      <polygon class="cls-5" points="128.44 69.43 126.47 72.93 122.78 73.91 125.25 77.04 124.99 81.12 128.48 79.56 131.99 81.12 131.69 77.04 134.15 73.91 130.46 72.93 128.44 69.43"/>
      <polygon class="cls-5" points="110.7 70.69 108.72 74.21 105.04 75.17 107.51 78.31 107.25 82.39 110.75 80.83 114.25 82.39 113.95 78.31 116.41 75.17 112.71 74.21 110.7 70.69"/>
      <polygon class="cls-5" points="92.96 73.34 90.98 76.84 87.3 77.82 89.78 80.95 89.52 85.03 93 83.48 96.52 85.03 96.22 80.95 98.67 77.82 94.97 76.84 92.96 73.34"/>
      <polygon class="cls-5" points="75.23 77.26 73.25 80.78 69.56 81.74 72.04 84.88 71.77 88.96 75.26 87.4 78.78 88.96 78.48 84.88 80.92 81.74 77.24 80.78 75.23 77.26"/>
      <polygon class="cls-5" points="146.22 69.43 148.2 72.93 151.88 73.91 149.41 77.04 149.67 81.12 146.17 79.56 142.67 81.12 142.97 77.04 140.51 73.91 144.21 72.93 146.22 69.43"/>
      <polygon class="cls-5" points="163.96 70.69 165.94 74.21 169.62 75.17 167.14 78.31 167.42 82.39 163.91 80.83 160.41 82.39 160.71 78.31 158.25 75.17 161.95 74.21 163.96 70.69"/>
      <polygon class="cls-5" points="181.69 73.34 183.68 76.84 187.36 77.82 184.88 80.95 185.15 85.03 181.66 83.48 178.15 85.03 178.44 80.95 176 77.82 179.69 76.84 181.69 73.34"/>
      <polygon class="cls-5" points="199.43 77.26 201.41 80.78 205.1 81.74 202.63 84.88 202.89 88.96 199.4 87.4 195.89 88.96 196.18 84.88 193.74 81.74 197.42 80.78 199.43 77.26"/>
      <path class="cls-6" d="M137.23,56.51q12.08,0,23.87,1.14l-.67-50.48q-11.55-.86-23.18-.86t-23.15.86l-.69,50.43Q125.19,56.51,137.23,56.51Z"/>
    </g>
  </g>
</svg>
