<svg xmlns="http://www.w3.org/2000/svg" id="svg2" viewBox="0 0 1000 750" version="1.0"><defs id="defs27"><linearGradient id="linearGradient3779" y2="375" gradientUnits="userSpaceOnUse" x2="1000" gradientTransform="matrix(.75 0 0 1.3333 -750 0)" y1="375"><stop id="stop3775" offset="0" stop-color="#009c00"/><stop id="stop3777" offset="1" stop-color="#38ff38"/></linearGradient></defs><path id="rect1317" transform="rotate(-90)" fill-rule="evenodd" fill="url(#linearGradient3779)" d="M-750 0H0v1000h-750z"/><g id="layer1" fill-opacity=".5"><path id="path3128" d="M159.65 253.45a1.468 1.305 0 11-2.935 0 1.468 1.305 0 112.935 0z" transform="matrix(2.7254 0 0 3.066 -285.35 -402.08)" fill-rule="evenodd" fill="#fff" fill-opacity="1"/><path id="path2196" d="M66.119 522.44h121.17V230.89H66.839" stroke="#fff" stroke-width="3.005" fill="none"/><path id="path2198" d="M67.06 307.54h42.207l-1.369 134.14H65.466" stroke="#fff" stroke-width="3.005" fill="none"/><path id="path2200" d="M64.835 348.61h-21.9v53.382h21.9" stroke="#fff" stroke-width="3.005" fill="none"/><path id="path2206" d="M187.06 427.34c38.325-22.242 36.793-82.351-.163-104.25" stroke="#fff" stroke-width="3.005" fill="none"/><path id="path3117" d="M66.892 58.792s8.094-1.93 10.099-10.396" stroke="#fff" stroke-width="3.005" fill="none"/><path id="path3120" d="M76.35 702.94s-1.93-8.094-10.396-10.099" stroke="#fff" stroke-width="3.005" fill="none"/><path id="path3122" d="M938.01 692.05s-8.094 1.93-10.099 10.396" stroke="#fff" stroke-width="3.005" fill="none"/><path id="path2194" d="M66.579 702.43V48.16l870.54 1.369 1.369 652.9h-871.9z" stroke="#fff" stroke-width="3.005" fill="none"/><path id="path2212" d="M370.97 254.39a34.843 35.526 0 11-69.686 0 34.843 35.526 0 1169.686 0z" transform="matrix(1.9081 0 0 1.8714 -141.37 -101.07)" stroke-linejoin="round" stroke="#fff" stroke-width="1.605" fill="none"/><path id="path3091" d="M938.03 522.6l-118.88-.163v-291.55h118.33" stroke="#fff" stroke-width="3.005" fill="none"/><path id="path3093" d="M938.23 307.54h-41.063l1.369 134.14h39.49" stroke="#fff" stroke-width="3.005" fill="none"/><path id="path3095" d="M937.64 348.61h23.861v53.382H938.13" stroke="#fff" stroke-width="3.005" fill="none"/><path id="path3097" d="M818.88 427.34c-38.325-22.242-36.793-81.534.163-103.43" stroke="#fff" stroke-width="3.005" fill="none"/><path id="path3107" d="M500 48.163v652.9" stroke="#fff" stroke-width="3.005" fill="none"/><path id="path3124" d="M925.8 50.03s1.93 8.094 10.396 10.099" stroke="#fff" stroke-width="3.005" fill="none"/><path id="path3126" d="M514.92 253.57a1.06 1.345 0 11-2.12 0 1.06 1.345 0 112.12 0z" transform="matrix(3.7736 0 0 2.9731 -1077.9 -378.9)" fill-rule="evenodd" fill="#fff" fill-opacity="1"/><path id="path3130" d="M337.5 253.03a1.366 1.366 0 11-2.733 0 1.366 1.366 0 112.733 0z" transform="translate(-484 -365.72) scale(2.9274)" fill-rule="evenodd" fill="#fff" fill-opacity="1"/></g></svg>